<?xml version="1.0" encoding="UTF-8" standalone="no"?>
<!DOCTYPE svg PUBLIC "-//W3C//DTD SVG 1.1//EN"
 "http://www.w3.org/Graphics/SVG/1.1/DTD/svg11.dtd">
<!-- Generated by graphviz version 2.43.0 (0)
 -->
<!-- Title: ASTNodeType.h Pages: 1 -->
<svg width="183pt" height="151pt"
 viewBox="0.00 0.00 182.50 151.00" xmlns="http://www.w3.org/2000/svg" xmlns:xlink="http://www.w3.org/1999/xlink">
<g id="graph0" class="graph" transform="scale(1 1) rotate(0) translate(4 147)">
<title>ASTNodeType.h</title>
<polygon fill="white" stroke="transparent" points="-4,4 -4,-147 178.5,-147 178.5,4 -4,4"/>
<!-- Node1 -->
<g id="node1" class="node">
<title>Node1</title>
<g id="a_node1"><a xlink:title="Enumeration for Abstract Syntax Tree (AST).">
<polygon fill="#bfbfbf" stroke="black" points="16.5,-123.5 16.5,-142.5 108.5,-142.5 108.5,-123.5 16.5,-123.5"/>
<text text-anchor="middle" x="62.5" y="-130.5" font-family="Helvetica,sans-Serif" font-size="10.00">ASTNodeType.h</text>
</a>
</g>
</g>
<!-- Node2 -->
<g id="node2" class="node">
<title>Node2</title>
<g id="a_node2"><a xlink:title=" ">
<polygon fill="white" stroke="#bfbfbf" points="0,-0.5 0,-30.5 125,-30.5 125,-0.5 0,-0.5"/>
<text text-anchor="start" x="8" y="-18.5" font-family="Helvetica,sans-Serif" font-size="10.00">sbml/common/libsbml</text>
<text text-anchor="middle" x="62.5" y="-7.5" font-family="Helvetica,sans-Serif" font-size="10.00">&#45;namespace.h</text>
</a>
</g>
</g>
<!-- Node1&#45;&gt;Node2 -->
<g id="edge1" class="edge">
<title>Node1&#45;&gt;Node2</title>
<path fill="none" stroke="midnightblue" d="M55.35,-123.36C48.73,-114.76 39.34,-100.87 35.5,-87 30.98,-70.68 37.9,-52.88 45.86,-39.25"/>
<polygon fill="midnightblue" stroke="midnightblue" points="48.98,-40.86 51.41,-30.54 43.08,-37.09 48.98,-40.86"/>
</g>
<!-- Node3 -->
<g id="node3" class="node">
<title>Node3</title>
<g id="a_node3"><a xlink:href="extern_8h.html" target="_top" xlink:title="Definitions of LIBSBML_EXTERN and related things.">
<polygon fill="white" stroke="black" points="44.5,-67.5 44.5,-86.5 174.5,-86.5 174.5,-67.5 44.5,-67.5"/>
<text text-anchor="middle" x="109.5" y="-74.5" font-family="Helvetica,sans-Serif" font-size="10.00">sbml/common/extern.h</text>
</a>
</g>
</g>
<!-- Node1&#45;&gt;Node3 -->
<g id="edge2" class="edge">
<title>Node1&#45;&gt;Node3</title>
<path fill="none" stroke="midnightblue" d="M70.26,-123.08C77.04,-115.3 87.04,-103.8 95.26,-94.37"/>
<polygon fill="midnightblue" stroke="midnightblue" points="97.96,-96.59 101.88,-86.75 92.68,-92 97.96,-96.59"/>
</g>
<!-- Node3&#45;&gt;Node2 -->
<g id="edge3" class="edge">
<title>Node3&#45;&gt;Node2</title>
<path fill="none" stroke="midnightblue" d="M102.77,-67.48C96.82,-59.94 87.88,-48.63 79.93,-38.57"/>
<polygon fill="midnightblue" stroke="midnightblue" points="82.52,-36.2 73.58,-30.52 77.03,-40.54 82.52,-36.2"/>
</g>
</g>
</svg>
