<?xml version="1.0" encoding="UTF-8" standalone="no"?>
<!DOCTYPE svg PUBLIC "-//W3C//DTD SVG 1.1//EN"
 "http://www.w3.org/Graphics/SVG/1.1/DTD/svg11.dtd">
<!-- Generated by graphviz version 2.43.0 (0)
 -->
<!-- Title: AdjacentDomains.h Pages: 1 -->
<svg width="459pt" height="308pt"
 viewBox="0.00 0.00 458.50 308.00" xmlns="http://www.w3.org/2000/svg" xmlns:xlink="http://www.w3.org/1999/xlink">
<g id="graph0" class="graph" transform="scale(1 1) rotate(0) translate(4 304)">
<title>AdjacentDomains.h</title>
<polygon fill="white" stroke="transparent" points="-4,4 -4,-304 454.5,-304 454.5,4 -4,4"/>
<!-- Node1 -->
<g id="node1" class="node">
<title>Node1</title>
<g id="a_node1"><a xlink:title="Definition of the AdjacentDomains class.">
<polygon fill="#bfbfbf" stroke="black" points="71.5,-280.5 71.5,-299.5 183.5,-299.5 183.5,-280.5 71.5,-280.5"/>
<text text-anchor="middle" x="127.5" y="-287.5" font-family="Helvetica,sans-Serif" font-size="10.00">AdjacentDomains.h</text>
</a>
</g>
</g>
<!-- Node2 -->
<g id="node2" class="node">
<title>Node2</title>
<g id="a_node2"><a xlink:href="_spatial_extension_types_8h.html" target="_top" xlink:title="Definition of SpatialExtensionTypes.">
<polygon fill="white" stroke="black" points="0,-56.5 0,-75.5 135,-75.5 135,-56.5 0,-56.5"/>
<text text-anchor="middle" x="67.5" y="-63.5" font-family="Helvetica,sans-Serif" font-size="10.00">SpatialExtensionTypes.h</text>
</a>
</g>
</g>
<!-- Node1&#45;&gt;Node2 -->
<g id="edge1" class="edge">
<title>Node1&#45;&gt;Node2</title>
<path fill="none" stroke="midnightblue" d="M111.44,-273.03C94.02,-254.47 67.26,-222 56.5,-188 43.71,-147.58 57.79,-96.04 64.42,-75.76"/>
<polygon fill="midnightblue" stroke="midnightblue" points="109.02,-275.56 118.48,-280.32 114.05,-270.7 109.02,-275.56"/>
</g>
<!-- Node4 -->
<g id="node4" class="node">
<title>Node4</title>
<g id="a_node4"><a xlink:href="_adjacent_domains_8cpp.html" target="_top" xlink:title="Implementation of the AdjacentDomains class.">
<polygon fill="white" stroke="black" points="66,-168.5 66,-187.5 189,-187.5 189,-168.5 66,-168.5"/>
<text text-anchor="middle" x="127.5" y="-175.5" font-family="Helvetica,sans-Serif" font-size="10.00">AdjacentDomains.cpp</text>
</a>
</g>
</g>
<!-- Node1&#45;&gt;Node4 -->
<g id="edge3" class="edge">
<title>Node1&#45;&gt;Node4</title>
<path fill="none" stroke="midnightblue" d="M127.5,-270.35C127.5,-246.25 127.5,-205.31 127.5,-187.59"/>
<polygon fill="midnightblue" stroke="midnightblue" points="124,-270.37 127.5,-280.37 131,-270.37 124,-270.37"/>
</g>
<!-- Node5 -->
<g id="node5" class="node">
<title>Node5</title>
<g id="a_node5"><a xlink:href="_list_of_adjacent_domains_8h.html" target="_top" xlink:title="Definition of the ListOfAdjacentDomains class.">
<polygon fill="white" stroke="black" points="164.5,-224.5 164.5,-243.5 304.5,-243.5 304.5,-224.5 164.5,-224.5"/>
<text text-anchor="middle" x="234.5" y="-231.5" font-family="Helvetica,sans-Serif" font-size="10.00">ListOfAdjacentDomains.h</text>
</a>
</g>
</g>
<!-- Node1&#45;&gt;Node5 -->
<g id="edge4" class="edge">
<title>Node1&#45;&gt;Node5</title>
<path fill="none" stroke="midnightblue" d="M153.8,-275.73C173.61,-265.73 200.21,-252.31 217.35,-243.65"/>
<polygon fill="midnightblue" stroke="midnightblue" points="152.04,-272.69 144.69,-280.32 155.2,-278.94 152.04,-272.69"/>
</g>
<!-- Node3 -->
<g id="node3" class="node">
<title>Node3</title>
<g id="a_node3"><a xlink:href="_spatial_validator_8cpp.html" target="_top" xlink:title="Definition of SpatialValidator.">
<polygon fill="white" stroke="black" points="11,-0.5 11,-19.5 124,-19.5 124,-0.5 11,-0.5"/>
<text text-anchor="middle" x="67.5" y="-7.5" font-family="Helvetica,sans-Serif" font-size="10.00">SpatialValidator.cpp</text>
</a>
</g>
</g>
<!-- Node2&#45;&gt;Node3 -->
<g id="edge2" class="edge">
<title>Node2&#45;&gt;Node3</title>
<path fill="none" stroke="midnightblue" d="M67.5,-45.8C67.5,-36.91 67.5,-26.78 67.5,-19.75"/>
<polygon fill="midnightblue" stroke="midnightblue" points="64,-46.08 67.5,-56.08 71,-46.08 64,-46.08"/>
</g>
<!-- Node5&#45;&gt;Node4 -->
<g id="edge5" class="edge">
<title>Node5&#45;&gt;Node4</title>
<path fill="none" stroke="midnightblue" d="M208.2,-219.73C188.39,-209.73 161.79,-196.31 144.65,-187.65"/>
<polygon fill="midnightblue" stroke="midnightblue" points="206.8,-222.94 217.31,-224.32 209.96,-216.69 206.8,-222.94"/>
</g>
<!-- Node6 -->
<g id="node6" class="node">
<title>Node6</title>
<g id="a_node6"><a xlink:href="_geometry_8h.html" target="_top" xlink:title="Definition of the Geometry class.">
<polygon fill="white" stroke="black" points="207,-168.5 207,-187.5 280,-187.5 280,-168.5 207,-168.5"/>
<text text-anchor="middle" x="243.5" y="-175.5" font-family="Helvetica,sans-Serif" font-size="10.00">Geometry.h</text>
</a>
</g>
</g>
<!-- Node5&#45;&gt;Node6 -->
<g id="edge6" class="edge">
<title>Node5&#45;&gt;Node6</title>
<path fill="none" stroke="midnightblue" d="M237.65,-214.1C239.14,-205.14 240.86,-194.86 242.04,-187.75"/>
<polygon fill="midnightblue" stroke="midnightblue" points="234.18,-213.64 235.99,-224.08 241.08,-214.79 234.18,-213.64"/>
</g>
<!-- Node11 -->
<g id="node11" class="node">
<title>Node11</title>
<g id="a_node11"><a xlink:href="_list_of_adjacent_domains_8cpp.html" target="_top" xlink:title="Implementation of the ListOfAdjacentDomains class.">
<polygon fill="white" stroke="black" points="298.5,-168.5 298.5,-187.5 450.5,-187.5 450.5,-168.5 298.5,-168.5"/>
<text text-anchor="middle" x="374.5" y="-175.5" font-family="Helvetica,sans-Serif" font-size="10.00">ListOfAdjacentDomains.cpp</text>
</a>
</g>
</g>
<!-- Node5&#45;&gt;Node11 -->
<g id="edge13" class="edge">
<title>Node5&#45;&gt;Node11</title>
<path fill="none" stroke="midnightblue" d="M266.2,-220.77C292.5,-210.63 329.22,-196.47 352.42,-187.52"/>
<polygon fill="midnightblue" stroke="midnightblue" points="264.75,-217.58 256.68,-224.44 267.27,-224.11 264.75,-217.58"/>
</g>
<!-- Node6&#45;&gt;Node2 -->
<g id="edge7" class="edge">
<title>Node6&#45;&gt;Node2</title>
<path fill="none" stroke="midnightblue" d="M210.15,-164.78C190.11,-156.76 164.5,-145.32 143.5,-132 116.82,-115.08 89.66,-89.36 76.19,-75.91"/>
<polygon fill="midnightblue" stroke="midnightblue" points="208.91,-168.05 219.5,-168.43 211.46,-161.53 208.91,-168.05"/>
</g>
<!-- Node7 -->
<g id="node7" class="node">
<title>Node7</title>
<g id="a_node7"><a xlink:href="_spatial_model_plugin_8h.html" target="_top" xlink:title="Definition of the SpatialModelPlugin class.">
<polygon fill="white" stroke="black" points="153,-112.5 153,-131.5 272,-131.5 272,-112.5 153,-112.5"/>
<text text-anchor="middle" x="212.5" y="-119.5" font-family="Helvetica,sans-Serif" font-size="10.00">SpatialModelPlugin.h</text>
</a>
</g>
</g>
<!-- Node6&#45;&gt;Node7 -->
<g id="edge8" class="edge">
<title>Node6&#45;&gt;Node7</title>
<path fill="none" stroke="midnightblue" d="M233.32,-159.27C228.03,-150.05 221.78,-139.17 217.52,-131.75"/>
<polygon fill="midnightblue" stroke="midnightblue" points="230.37,-161.15 238.38,-168.08 236.44,-157.67 230.37,-161.15"/>
</g>
<!-- Node10 -->
<g id="node10" class="node">
<title>Node10</title>
<g id="a_node10"><a xlink:href="_geometry_8cpp.html" target="_top" xlink:title="Implementation of the Geometry class.">
<polygon fill="white" stroke="black" points="290.5,-112.5 290.5,-131.5 374.5,-131.5 374.5,-112.5 290.5,-112.5"/>
<text text-anchor="middle" x="332.5" y="-119.5" font-family="Helvetica,sans-Serif" font-size="10.00">Geometry.cpp</text>
</a>
</g>
</g>
<!-- Node6&#45;&gt;Node10 -->
<g id="edge12" class="edge">
<title>Node6&#45;&gt;Node10</title>
<path fill="none" stroke="midnightblue" d="M266.74,-162.9C283.06,-153 304.37,-140.07 318.24,-131.65"/>
<polygon fill="midnightblue" stroke="midnightblue" points="264.53,-160.14 257.8,-168.32 268.16,-166.13 264.53,-160.14"/>
</g>
<!-- Node7&#45;&gt;Node2 -->
<g id="edge9" class="edge">
<title>Node7&#45;&gt;Node2</title>
<path fill="none" stroke="midnightblue" d="M180.02,-108.91C152.76,-98.75 114.51,-84.51 90.37,-75.52"/>
<polygon fill="midnightblue" stroke="midnightblue" points="178.93,-112.23 189.52,-112.44 181.37,-105.67 178.93,-112.23"/>
</g>
<!-- Node8 -->
<g id="node8" class="node">
<title>Node8</title>
<g id="a_node8"><a xlink:href="_spatial_extension_8cpp.html" target="_top" xlink:title="Implementation of SpatialExtension.">
<polygon fill="white" stroke="black" points="153,-56.5 153,-75.5 272,-75.5 272,-56.5 153,-56.5"/>
<text text-anchor="middle" x="212.5" y="-63.5" font-family="Helvetica,sans-Serif" font-size="10.00">SpatialExtension.cpp</text>
</a>
</g>
</g>
<!-- Node7&#45;&gt;Node8 -->
<g id="edge10" class="edge">
<title>Node7&#45;&gt;Node8</title>
<path fill="none" stroke="midnightblue" d="M212.5,-101.8C212.5,-92.91 212.5,-82.78 212.5,-75.75"/>
<polygon fill="midnightblue" stroke="midnightblue" points="209,-102.08 212.5,-112.08 216,-102.08 209,-102.08"/>
</g>
<!-- Node9 -->
<g id="node9" class="node">
<title>Node9</title>
<g id="a_node9"><a xlink:href="_spatial_model_plugin_8cpp.html" target="_top" xlink:title="Implementation of the SpatialModelPlugin class.">
<polygon fill="white" stroke="black" points="290,-56.5 290,-75.5 421,-75.5 421,-56.5 290,-56.5"/>
<text text-anchor="middle" x="355.5" y="-63.5" font-family="Helvetica,sans-Serif" font-size="10.00">SpatialModelPlugin.cpp</text>
</a>
</g>
</g>
<!-- Node7&#45;&gt;Node9 -->
<g id="edge11" class="edge">
<title>Node7&#45;&gt;Node9</title>
<path fill="none" stroke="midnightblue" d="M244.53,-108.91C271.41,-98.75 309.14,-84.51 332.95,-75.52"/>
<polygon fill="midnightblue" stroke="midnightblue" points="243.28,-105.64 235.16,-112.44 245.75,-112.19 243.28,-105.64"/>
</g>
</g>
</svg>
