<?xml version="1.0" encoding="UTF-8" standalone="no"?>
<!DOCTYPE svg PUBLIC "-//W3C//DTD SVG 1.1//EN"
 "http://www.w3.org/Graphics/SVG/1.1/DTD/svg11.dtd">
<!-- Generated by graphviz version 2.43.0 (0)
 -->
<!-- Title: AnalyticVolume.h Pages: 1 -->
<svg width="855pt" height="252pt"
 viewBox="0.00 0.00 855.00 252.00" xmlns="http://www.w3.org/2000/svg" xmlns:xlink="http://www.w3.org/1999/xlink">
<g id="graph0" class="graph" transform="scale(1 1) rotate(0) translate(4 248)">
<title>AnalyticVolume.h</title>
<polygon fill="white" stroke="transparent" points="-4,4 -4,-248 851,-248 851,4 -4,4"/>
<!-- Node1 -->
<g id="node1" class="node">
<title>Node1</title>
<g id="a_node1"><a xlink:title="Definition of the AnalyticVolume class.">
<polygon fill="#bfbfbf" stroke="black" points="155.5,-224.5 155.5,-243.5 257.5,-243.5 257.5,-224.5 155.5,-224.5"/>
<text text-anchor="middle" x="206.5" y="-231.5" font-family="Helvetica,sans-Serif" font-size="10.00">AnalyticVolume.h</text>
</a>
</g>
</g>
<!-- Node2 -->
<g id="node2" class="node">
<title>Node2</title>
<g id="a_node2"><a xlink:href="_spatial_extension_types_8h.html" target="_top" xlink:title="Definition of SpatialExtensionTypes.">
<polygon fill="white" stroke="black" points="0,-56.5 0,-75.5 135,-75.5 135,-56.5 0,-56.5"/>
<text text-anchor="middle" x="67.5" y="-63.5" font-family="Helvetica,sans-Serif" font-size="10.00">SpatialExtensionTypes.h</text>
</a>
</g>
</g>
<!-- Node1&#45;&gt;Node2 -->
<g id="edge1" class="edge">
<title>Node1&#45;&gt;Node2</title>
<path fill="none" stroke="midnightblue" d="M192.44,-216.21C163.18,-181.26 96.63,-101.79 74.67,-75.57"/>
<polygon fill="midnightblue" stroke="midnightblue" points="189.92,-218.66 199.03,-224.08 195.29,-214.16 189.92,-218.66"/>
</g>
<!-- Node4 -->
<g id="node4" class="node">
<title>Node4</title>
<g id="a_node4"><a xlink:href="_analytic_volume_8cpp.html" target="_top" xlink:title="Implementation of the AnalyticVolume class.">
<polygon fill="white" stroke="black" points="150,-112.5 150,-131.5 263,-131.5 263,-112.5 150,-112.5"/>
<text text-anchor="middle" x="206.5" y="-119.5" font-family="Helvetica,sans-Serif" font-size="10.00">AnalyticVolume.cpp</text>
</a>
</g>
</g>
<!-- Node1&#45;&gt;Node4 -->
<g id="edge3" class="edge">
<title>Node1&#45;&gt;Node4</title>
<path fill="none" stroke="midnightblue" d="M206.5,-214.35C206.5,-190.25 206.5,-149.31 206.5,-131.59"/>
<polygon fill="midnightblue" stroke="midnightblue" points="203,-214.37 206.5,-224.37 210,-214.37 203,-214.37"/>
</g>
<!-- Node5 -->
<g id="node5" class="node">
<title>Node5</title>
<g id="a_node5"><a xlink:href="_list_of_analytic_volumes_8h.html" target="_top" xlink:title="Definition of the ListOfAnalyticVolumes class.">
<polygon fill="white" stroke="black" points="251.5,-168.5 251.5,-187.5 387.5,-187.5 387.5,-168.5 251.5,-168.5"/>
<text text-anchor="middle" x="319.5" y="-175.5" font-family="Helvetica,sans-Serif" font-size="10.00">ListOfAnalyticVolumes.h</text>
</a>
</g>
</g>
<!-- Node1&#45;&gt;Node5 -->
<g id="edge4" class="edge">
<title>Node1&#45;&gt;Node5</title>
<path fill="none" stroke="midnightblue" d="M233.5,-220.1C254.61,-210.01 283.36,-196.27 301.68,-187.52"/>
<polygon fill="midnightblue" stroke="midnightblue" points="231.92,-216.97 224.41,-224.44 234.94,-223.29 231.92,-216.97"/>
</g>
<!-- Node3 -->
<g id="node3" class="node">
<title>Node3</title>
<g id="a_node3"><a xlink:href="_spatial_validator_8cpp.html" target="_top" xlink:title="Definition of SpatialValidator.">
<polygon fill="white" stroke="black" points="11,-0.5 11,-19.5 124,-19.5 124,-0.5 11,-0.5"/>
<text text-anchor="middle" x="67.5" y="-7.5" font-family="Helvetica,sans-Serif" font-size="10.00">SpatialValidator.cpp</text>
</a>
</g>
</g>
<!-- Node2&#45;&gt;Node3 -->
<g id="edge2" class="edge">
<title>Node2&#45;&gt;Node3</title>
<path fill="none" stroke="midnightblue" d="M67.5,-45.8C67.5,-36.91 67.5,-26.78 67.5,-19.75"/>
<polygon fill="midnightblue" stroke="midnightblue" points="64,-46.08 67.5,-56.08 71,-46.08 64,-46.08"/>
</g>
<!-- Node5&#45;&gt;Node4 -->
<g id="edge12" class="edge">
<title>Node5&#45;&gt;Node4</title>
<path fill="none" stroke="midnightblue" d="M292.5,-164.1C271.39,-154.01 242.64,-140.27 224.32,-131.52"/>
<polygon fill="midnightblue" stroke="midnightblue" points="291.06,-167.29 301.59,-168.44 294.08,-160.97 291.06,-167.29"/>
</g>
<!-- Node6 -->
<g id="node6" class="node">
<title>Node6</title>
<g id="a_node6"><a xlink:href="_analytic_geometry_8h.html" target="_top" xlink:title="Definition of the AnalyticGeometry class.">
<polygon fill="white" stroke="black" points="281,-112.5 281,-131.5 394,-131.5 394,-112.5 281,-112.5"/>
<text text-anchor="middle" x="337.5" y="-119.5" font-family="Helvetica,sans-Serif" font-size="10.00">AnalyticGeometry.h</text>
</a>
</g>
</g>
<!-- Node5&#45;&gt;Node6 -->
<g id="edge5" class="edge">
<title>Node5&#45;&gt;Node6</title>
<path fill="none" stroke="midnightblue" d="M325.7,-158.4C328.71,-149.36 332.19,-138.94 334.58,-131.75"/>
<polygon fill="midnightblue" stroke="midnightblue" points="322.31,-157.49 322.47,-168.08 328.96,-159.7 322.31,-157.49"/>
</g>
<!-- Node12 -->
<g id="node12" class="node">
<title>Node12</title>
<g id="a_node12"><a xlink:href="_list_of_analytic_volumes_8cpp.html" target="_top" xlink:title="Implementation of the ListOfAnalyticVolumes class.">
<polygon fill="white" stroke="black" points="412,-112.5 412,-131.5 559,-131.5 559,-112.5 412,-112.5"/>
<text text-anchor="middle" x="485.5" y="-119.5" font-family="Helvetica,sans-Serif" font-size="10.00">ListOfAnalyticVolumes.cpp</text>
</a>
</g>
</g>
<!-- Node5&#45;&gt;Node12 -->
<g id="edge13" class="edge">
<title>Node5&#45;&gt;Node12</title>
<path fill="none" stroke="midnightblue" d="M355.45,-165.3C386.73,-155.13 431.32,-140.62 459.32,-131.52"/>
<polygon fill="midnightblue" stroke="midnightblue" points="354.23,-162.02 345.8,-168.44 356.4,-168.68 354.23,-162.02"/>
</g>
<!-- Node6&#45;&gt;Node2 -->
<g id="edge6" class="edge">
<title>Node6&#45;&gt;Node2</title>
<path fill="none" stroke="midnightblue" d="M284.87,-110.47C233.84,-100.27 157.4,-84.98 110.08,-75.52"/>
<polygon fill="midnightblue" stroke="midnightblue" points="284.23,-113.91 294.72,-112.44 285.6,-107.05 284.23,-113.91"/>
</g>
<!-- Node7 -->
<g id="node7" class="node">
<title>Node7</title>
<g id="a_node7"><a xlink:href="_analytic_geometry_8cpp.html" target="_top" xlink:title="Implementation of the AnalyticGeometry class.">
<polygon fill="white" stroke="black" points="153.5,-56.5 153.5,-75.5 277.5,-75.5 277.5,-56.5 153.5,-56.5"/>
<text text-anchor="middle" x="215.5" y="-63.5" font-family="Helvetica,sans-Serif" font-size="10.00">AnalyticGeometry.cpp</text>
</a>
</g>
</g>
<!-- Node6&#45;&gt;Node7 -->
<g id="edge7" class="edge">
<title>Node6&#45;&gt;Node7</title>
<path fill="none" stroke="midnightblue" d="M308.96,-108.37C286.11,-98.26 254.69,-84.35 234.74,-75.52"/>
<polygon fill="midnightblue" stroke="midnightblue" points="307.61,-111.6 318.17,-112.44 310.44,-105.2 307.61,-111.6"/>
</g>
<!-- Node8 -->
<g id="node8" class="node">
<title>Node8</title>
<g id="a_node8"><a xlink:href="_geometry_8cpp.html" target="_top" xlink:title="Implementation of the Geometry class.">
<polygon fill="white" stroke="black" points="295.5,-56.5 295.5,-75.5 379.5,-75.5 379.5,-56.5 295.5,-56.5"/>
<text text-anchor="middle" x="337.5" y="-63.5" font-family="Helvetica,sans-Serif" font-size="10.00">Geometry.cpp</text>
</a>
</g>
</g>
<!-- Node6&#45;&gt;Node8 -->
<g id="edge8" class="edge">
<title>Node6&#45;&gt;Node8</title>
<path fill="none" stroke="midnightblue" d="M337.5,-101.8C337.5,-92.91 337.5,-82.78 337.5,-75.75"/>
<polygon fill="midnightblue" stroke="midnightblue" points="334,-102.08 337.5,-112.08 341,-102.08 334,-102.08"/>
</g>
<!-- Node9 -->
<g id="node9" class="node">
<title>Node9</title>
<g id="a_node9"><a xlink:href="_geometry_definition_8cpp.html" target="_top" xlink:title="Implementation of the GeometryDefinition class.">
<polygon fill="white" stroke="black" points="398,-56.5 398,-75.5 531,-75.5 531,-56.5 398,-56.5"/>
<text text-anchor="middle" x="464.5" y="-63.5" font-family="Helvetica,sans-Serif" font-size="10.00">GeometryDefinition.cpp</text>
</a>
</g>
</g>
<!-- Node6&#45;&gt;Node9 -->
<g id="edge9" class="edge">
<title>Node6&#45;&gt;Node9</title>
<path fill="none" stroke="midnightblue" d="M366.89,-108.5C390.7,-98.38 423.61,-84.39 444.47,-75.52"/>
<polygon fill="midnightblue" stroke="midnightblue" points="365.46,-105.31 357.62,-112.44 368.2,-111.75 365.46,-105.31"/>
</g>
<!-- Node10 -->
<g id="node10" class="node">
<title>Node10</title>
<g id="a_node10"><a xlink:href="_list_of_geometry_definitions_8cpp.html" target="_top" xlink:title="Implementation of the ListOfGeometryDefinitions class.">
<polygon fill="white" stroke="black" points="549,-56.5 549,-75.5 716,-75.5 716,-56.5 549,-56.5"/>
<text text-anchor="middle" x="632.5" y="-63.5" font-family="Helvetica,sans-Serif" font-size="10.00">ListOfGeometryDefinitions.cpp</text>
</a>
</g>
</g>
<!-- Node6&#45;&gt;Node10 -->
<g id="edge10" class="edge">
<title>Node6&#45;&gt;Node10</title>
<path fill="none" stroke="midnightblue" d="M394.31,-110.6C450.06,-100.4 534.06,-85.02 585.98,-75.52"/>
<polygon fill="midnightblue" stroke="midnightblue" points="393.45,-107.2 384.24,-112.44 394.71,-114.09 393.45,-107.2"/>
</g>
<!-- Node11 -->
<g id="node11" class="node">
<title>Node11</title>
<g id="a_node11"><a xlink:href="_mixed_geometry_8cpp.html" target="_top" xlink:title="Implementation of the MixedGeometry class.">
<polygon fill="white" stroke="black" points="734,-56.5 734,-75.5 847,-75.5 847,-56.5 734,-56.5"/>
<text text-anchor="middle" x="790.5" y="-63.5" font-family="Helvetica,sans-Serif" font-size="10.00">MixedGeometry.cpp</text>
</a>
</g>
</g>
<!-- Node6&#45;&gt;Node11 -->
<g id="edge11" class="edge">
<title>Node6&#45;&gt;Node11</title>
<path fill="none" stroke="midnightblue" d="M404.11,-111.95C548.09,-94.24 585.82,-93.48 725.5,-76 728.21,-75.66 730.99,-75.31 733.79,-74.94"/>
<polygon fill="midnightblue" stroke="midnightblue" points="403.51,-108.5 394.01,-113.2 404.37,-115.45 403.51,-108.5"/>
</g>
</g>
</svg>
