<?xml version="1.0" encoding="UTF-8" standalone="no"?>
<!DOCTYPE svg PUBLIC "-//W3C//DTD SVG 1.1//EN"
 "http://www.w3.org/Graphics/SVG/1.1/DTD/svg11.dtd">
<!-- Generated by graphviz version 2.43.0 (0)
 -->
<!-- Title: CSGHomogeneousTransformation.h Pages: 1 -->
<svg width="987pt" height="140pt"
 viewBox="0.00 0.00 986.50 140.00" xmlns="http://www.w3.org/2000/svg" xmlns:xlink="http://www.w3.org/1999/xlink">
<g id="graph0" class="graph" transform="scale(1 1) rotate(0) translate(4 136)">
<title>CSGHomogeneousTransformation.h</title>
<polygon fill="white" stroke="transparent" points="-4,4 -4,-136 982.5,-136 982.5,4 -4,4"/>
<!-- Node1 -->
<g id="node1" class="node">
<title>Node1</title>
<g id="a_node1"><a xlink:title="Definition of the CSGHomogeneousTransformation class.">
<polygon fill="#bfbfbf" stroke="black" points="422.5,-112.5 422.5,-131.5 612.5,-131.5 612.5,-112.5 422.5,-112.5"/>
<text text-anchor="middle" x="517.5" y="-119.5" font-family="Helvetica,sans-Serif" font-size="10.00">CSGHomogeneousTransformation.h</text>
</a>
</g>
</g>
<!-- Node2 -->
<g id="node2" class="node">
<title>Node2</title>
<g id="a_node2"><a xlink:href="_spatial_extension_types_8h.html" target="_top" xlink:title="Definition of SpatialExtensionTypes.">
<polygon fill="white" stroke="black" points="0,-56.5 0,-75.5 135,-75.5 135,-56.5 0,-56.5"/>
<text text-anchor="middle" x="67.5" y="-63.5" font-family="Helvetica,sans-Serif" font-size="10.00">SpatialExtensionTypes.h</text>
</a>
</g>
</g>
<!-- Node1&#45;&gt;Node2 -->
<g id="edge1" class="edge">
<title>Node1&#45;&gt;Node2</title>
<path fill="none" stroke="midnightblue" d="M436.2,-111.24C350.09,-100.91 215.7,-84.78 135.16,-75.12"/>
<polygon fill="midnightblue" stroke="midnightblue" points="435.85,-114.73 446.2,-112.44 436.68,-107.78 435.85,-114.73"/>
</g>
<!-- Node4 -->
<g id="node4" class="node">
<title>Node4</title>
<g id="a_node4"><a xlink:href="_c_s_g_homogeneous_transformation_8cpp.html" target="_top" xlink:title="Implementation of the CSGHomogeneousTransformation class.">
<polygon fill="white" stroke="black" points="153,-56.5 153,-75.5 354,-75.5 354,-56.5 153,-56.5"/>
<text text-anchor="middle" x="253.5" y="-63.5" font-family="Helvetica,sans-Serif" font-size="10.00">CSGHomogeneousTransformation.cpp</text>
</a>
</g>
</g>
<!-- Node1&#45;&gt;Node4 -->
<g id="edge3" class="edge">
<title>Node1&#45;&gt;Node4</title>
<path fill="none" stroke="midnightblue" d="M465.72,-110.41C415.83,-100.2 341.3,-84.96 295.14,-75.52"/>
<polygon fill="midnightblue" stroke="midnightblue" points="465.17,-113.87 475.67,-112.44 466.57,-107.01 465.17,-113.87"/>
</g>
<!-- Node5 -->
<g id="node5" class="node">
<title>Node5</title>
<g id="a_node5"><a xlink:href="_c_s_g_node_8cpp.html" target="_top" xlink:title="Implementation of the CSGNode class.">
<polygon fill="white" stroke="black" points="372,-56.5 372,-75.5 455,-75.5 455,-56.5 372,-56.5"/>
<text text-anchor="middle" x="413.5" y="-63.5" font-family="Helvetica,sans-Serif" font-size="10.00">CSGNode.cpp</text>
</a>
</g>
</g>
<!-- Node1&#45;&gt;Node5 -->
<g id="edge4" class="edge">
<title>Node1&#45;&gt;Node5</title>
<path fill="none" stroke="midnightblue" d="M491.67,-107.59C472.44,-97.61 446.76,-84.27 430.17,-75.65"/>
<polygon fill="midnightblue" stroke="midnightblue" points="490.3,-110.82 500.79,-112.32 493.53,-104.61 490.3,-110.82"/>
</g>
<!-- Node6 -->
<g id="node6" class="node">
<title>Node6</title>
<g id="a_node6"><a xlink:href="_c_s_g_object_8cpp.html" target="_top" xlink:title="Implementation of the CSGObject class.">
<polygon fill="white" stroke="black" points="473,-56.5 473,-75.5 562,-75.5 562,-56.5 473,-56.5"/>
<text text-anchor="middle" x="517.5" y="-63.5" font-family="Helvetica,sans-Serif" font-size="10.00">CSGObject.cpp</text>
</a>
</g>
</g>
<!-- Node1&#45;&gt;Node6 -->
<g id="edge5" class="edge">
<title>Node1&#45;&gt;Node6</title>
<path fill="none" stroke="midnightblue" d="M517.5,-101.8C517.5,-92.91 517.5,-82.78 517.5,-75.75"/>
<polygon fill="midnightblue" stroke="midnightblue" points="514,-102.08 517.5,-112.08 521,-102.08 514,-102.08"/>
</g>
<!-- Node7 -->
<g id="node7" class="node">
<title>Node7</title>
<g id="a_node7"><a xlink:href="_c_s_g_set_operator_8cpp.html" target="_top" xlink:title="Implementation of the CSGSetOperator class.">
<polygon fill="white" stroke="black" points="580,-56.5 580,-75.5 695,-75.5 695,-56.5 580,-56.5"/>
<text text-anchor="middle" x="637.5" y="-63.5" font-family="Helvetica,sans-Serif" font-size="10.00">CSGSetOperator.cpp</text>
</a>
</g>
</g>
<!-- Node1&#45;&gt;Node7 -->
<g id="edge6" class="edge">
<title>Node1&#45;&gt;Node7</title>
<path fill="none" stroke="midnightblue" d="M545.87,-108.23C568.32,-98.13 599.04,-84.31 618.57,-75.52"/>
<polygon fill="midnightblue" stroke="midnightblue" points="544.2,-105.15 536.51,-112.44 547.07,-111.53 544.2,-105.15"/>
</g>
<!-- Node8 -->
<g id="node8" class="node">
<title>Node8</title>
<g id="a_node8"><a xlink:href="_c_s_g_transformation_8cpp.html" target="_top" xlink:title="Implementation of the CSGTransformation class.">
<polygon fill="white" stroke="black" points="713,-56.5 713,-75.5 844,-75.5 844,-56.5 713,-56.5"/>
<text text-anchor="middle" x="778.5" y="-63.5" font-family="Helvetica,sans-Serif" font-size="10.00">CSGTransformation.cpp</text>
</a>
</g>
</g>
<!-- Node1&#45;&gt;Node8 -->
<g id="edge7" class="edge">
<title>Node1&#45;&gt;Node8</title>
<path fill="none" stroke="midnightblue" d="M568.69,-110.41C618.01,-100.2 691.69,-84.96 737.34,-75.52"/>
<polygon fill="midnightblue" stroke="midnightblue" points="567.94,-106.99 558.86,-112.44 569.36,-113.84 567.94,-106.99"/>
</g>
<!-- Node9 -->
<g id="node9" class="node">
<title>Node9</title>
<g id="a_node9"><a xlink:href="_list_of_c_s_g_nodes_8cpp.html" target="_top" xlink:title="Implementation of the ListOfCSGNodes class.">
<polygon fill="white" stroke="black" points="862.5,-56.5 862.5,-75.5 978.5,-75.5 978.5,-56.5 862.5,-56.5"/>
<text text-anchor="middle" x="920.5" y="-63.5" font-family="Helvetica,sans-Serif" font-size="10.00">ListOfCSGNodes.cpp</text>
</a>
</g>
</g>
<!-- Node1&#45;&gt;Node9 -->
<g id="edge8" class="edge">
<title>Node1&#45;&gt;Node9</title>
<path fill="none" stroke="midnightblue" d="M591.49,-111.1C659.57,-101.99 763.34,-88.09 853.5,-76 856.41,-75.61 859.39,-75.21 862.4,-74.81"/>
<polygon fill="midnightblue" stroke="midnightblue" points="590.74,-107.67 581.29,-112.46 591.67,-114.61 590.74,-107.67"/>
</g>
<!-- Node3 -->
<g id="node3" class="node">
<title>Node3</title>
<g id="a_node3"><a xlink:href="_spatial_validator_8cpp.html" target="_top" xlink:title="Definition of SpatialValidator.">
<polygon fill="white" stroke="black" points="11,-0.5 11,-19.5 124,-19.5 124,-0.5 11,-0.5"/>
<text text-anchor="middle" x="67.5" y="-7.5" font-family="Helvetica,sans-Serif" font-size="10.00">SpatialValidator.cpp</text>
</a>
</g>
</g>
<!-- Node2&#45;&gt;Node3 -->
<g id="edge2" class="edge">
<title>Node2&#45;&gt;Node3</title>
<path fill="none" stroke="midnightblue" d="M67.5,-45.8C67.5,-36.91 67.5,-26.78 67.5,-19.75"/>
<polygon fill="midnightblue" stroke="midnightblue" points="64,-46.08 67.5,-56.08 71,-46.08 64,-46.08"/>
</g>
</g>
</svg>
