<?xml version="1.0" encoding="UTF-8" standalone="no"?>
<!DOCTYPE svg PUBLIC "-//W3C//DTD SVG 1.1//EN"
 "http://www.w3.org/Graphics/SVG/1.1/DTD/svg11.dtd">
<!-- Generated by graphviz version 2.43.0 (0)
 -->
<!-- Title: CSGObject.h Pages: 1 -->
<svg width="828pt" height="252pt"
 viewBox="0.00 0.00 828.00 252.00" xmlns="http://www.w3.org/2000/svg" xmlns:xlink="http://www.w3.org/1999/xlink">
<g id="graph0" class="graph" transform="scale(1 1) rotate(0) translate(4 248)">
<title>CSGObject.h</title>
<polygon fill="white" stroke="transparent" points="-4,4 -4,-248 824,-248 824,4 -4,4"/>
<!-- Node1 -->
<g id="node1" class="node">
<title>Node1</title>
<g id="a_node1"><a xlink:title="Definition of the CSGObject class.">
<polygon fill="#bfbfbf" stroke="black" points="166,-224.5 166,-243.5 243,-243.5 243,-224.5 166,-224.5"/>
<text text-anchor="middle" x="204.5" y="-231.5" font-family="Helvetica,sans-Serif" font-size="10.00">CSGObject.h</text>
</a>
</g>
</g>
<!-- Node2 -->
<g id="node2" class="node">
<title>Node2</title>
<g id="a_node2"><a xlink:href="_spatial_extension_types_8h.html" target="_top" xlink:title="Definition of SpatialExtensionTypes.">
<polygon fill="white" stroke="black" points="0,-56.5 0,-75.5 135,-75.5 135,-56.5 0,-56.5"/>
<text text-anchor="middle" x="67.5" y="-63.5" font-family="Helvetica,sans-Serif" font-size="10.00">SpatialExtensionTypes.h</text>
</a>
</g>
</g>
<!-- Node1&#45;&gt;Node2 -->
<g id="edge1" class="edge">
<title>Node1&#45;&gt;Node2</title>
<path fill="none" stroke="midnightblue" d="M190.64,-216.21C161.8,-181.26 96.21,-101.79 74.57,-75.57"/>
<polygon fill="midnightblue" stroke="midnightblue" points="188.07,-218.59 197.13,-224.08 193.47,-214.13 188.07,-218.59"/>
</g>
<!-- Node4 -->
<g id="node4" class="node">
<title>Node4</title>
<g id="a_node4"><a xlink:href="_c_s_g_object_8cpp.html" target="_top" xlink:title="Implementation of the CSGObject class.">
<polygon fill="white" stroke="black" points="160,-112.5 160,-131.5 249,-131.5 249,-112.5 160,-112.5"/>
<text text-anchor="middle" x="204.5" y="-119.5" font-family="Helvetica,sans-Serif" font-size="10.00">CSGObject.cpp</text>
</a>
</g>
</g>
<!-- Node1&#45;&gt;Node4 -->
<g id="edge3" class="edge">
<title>Node1&#45;&gt;Node4</title>
<path fill="none" stroke="midnightblue" d="M204.5,-214.35C204.5,-190.25 204.5,-149.31 204.5,-131.59"/>
<polygon fill="midnightblue" stroke="midnightblue" points="201,-214.37 204.5,-224.37 208,-214.37 201,-214.37"/>
</g>
<!-- Node5 -->
<g id="node5" class="node">
<title>Node5</title>
<g id="a_node5"><a xlink:href="_list_of_c_s_g_objects_8h.html" target="_top" xlink:title="Definition of the ListOfCSGObjects class.">
<polygon fill="white" stroke="black" points="244,-168.5 244,-187.5 355,-187.5 355,-168.5 244,-168.5"/>
<text text-anchor="middle" x="299.5" y="-175.5" font-family="Helvetica,sans-Serif" font-size="10.00">ListOfCSGObjects.h</text>
</a>
</g>
</g>
<!-- Node1&#45;&gt;Node5 -->
<g id="edge4" class="edge">
<title>Node1&#45;&gt;Node5</title>
<path fill="none" stroke="midnightblue" d="M228.82,-219.18C246.3,-209.24 269.33,-196.15 284.27,-187.65"/>
<polygon fill="midnightblue" stroke="midnightblue" points="226.73,-216.34 219.76,-224.32 230.19,-222.43 226.73,-216.34"/>
</g>
<!-- Node3 -->
<g id="node3" class="node">
<title>Node3</title>
<g id="a_node3"><a xlink:href="_spatial_validator_8cpp.html" target="_top" xlink:title="Definition of SpatialValidator.">
<polygon fill="white" stroke="black" points="11,-0.5 11,-19.5 124,-19.5 124,-0.5 11,-0.5"/>
<text text-anchor="middle" x="67.5" y="-7.5" font-family="Helvetica,sans-Serif" font-size="10.00">SpatialValidator.cpp</text>
</a>
</g>
</g>
<!-- Node2&#45;&gt;Node3 -->
<g id="edge2" class="edge">
<title>Node2&#45;&gt;Node3</title>
<path fill="none" stroke="midnightblue" d="M67.5,-45.8C67.5,-36.91 67.5,-26.78 67.5,-19.75"/>
<polygon fill="midnightblue" stroke="midnightblue" points="64,-46.08 67.5,-56.08 71,-46.08 64,-46.08"/>
</g>
<!-- Node5&#45;&gt;Node4 -->
<g id="edge12" class="edge">
<title>Node5&#45;&gt;Node4</title>
<path fill="none" stroke="midnightblue" d="M275.18,-163.18C257.7,-153.24 234.67,-140.15 219.73,-131.65"/>
<polygon fill="midnightblue" stroke="midnightblue" points="273.81,-166.43 284.24,-168.32 277.27,-160.34 273.81,-166.43"/>
</g>
<!-- Node6 -->
<g id="node6" class="node">
<title>Node6</title>
<g id="a_node6"><a xlink:href="_c_s_geometry_8h.html" target="_top" xlink:title="Definition of the CSGeometry class.">
<polygon fill="white" stroke="black" points="267.5,-112.5 267.5,-131.5 353.5,-131.5 353.5,-112.5 267.5,-112.5"/>
<text text-anchor="middle" x="310.5" y="-119.5" font-family="Helvetica,sans-Serif" font-size="10.00">CSGeometry.h</text>
</a>
</g>
</g>
<!-- Node5&#45;&gt;Node6 -->
<g id="edge5" class="edge">
<title>Node5&#45;&gt;Node6</title>
<path fill="none" stroke="midnightblue" d="M303.35,-158.1C305.18,-149.14 307.27,-138.86 308.72,-131.75"/>
<polygon fill="midnightblue" stroke="midnightblue" points="299.88,-157.59 301.32,-168.08 306.74,-158.98 299.88,-157.59"/>
</g>
<!-- Node12 -->
<g id="node12" class="node">
<title>Node12</title>
<g id="a_node12"><a xlink:href="_list_of_c_s_g_objects_8cpp.html" target="_top" xlink:title="Implementation of the ListOfCSGObjects class.">
<polygon fill="white" stroke="black" points="371.5,-112.5 371.5,-131.5 493.5,-131.5 493.5,-112.5 371.5,-112.5"/>
<text text-anchor="middle" x="432.5" y="-119.5" font-family="Helvetica,sans-Serif" font-size="10.00">ListOfCSGObjects.cpp</text>
</a>
</g>
</g>
<!-- Node5&#45;&gt;Node12 -->
<g id="edge13" class="edge">
<title>Node5&#45;&gt;Node12</title>
<path fill="none" stroke="midnightblue" d="M329.95,-164.64C354.91,-154.5 389.58,-140.43 411.52,-131.52"/>
<polygon fill="midnightblue" stroke="midnightblue" points="328.52,-161.44 320.57,-168.44 331.16,-167.92 328.52,-161.44"/>
</g>
<!-- Node6&#45;&gt;Node2 -->
<g id="edge6" class="edge">
<title>Node6&#45;&gt;Node2</title>
<path fill="none" stroke="midnightblue" d="M261.98,-110.22C216.06,-100.01 148.05,-84.9 105.82,-75.52"/>
<polygon fill="midnightblue" stroke="midnightblue" points="261.47,-113.69 272,-112.44 262.99,-106.86 261.47,-113.69"/>
</g>
<!-- Node7 -->
<g id="node7" class="node">
<title>Node7</title>
<g id="a_node7"><a xlink:href="_c_s_geometry_8cpp.html" target="_top" xlink:title="Implementation of the CSGeometry class.">
<polygon fill="white" stroke="black" points="153,-56.5 153,-75.5 250,-75.5 250,-56.5 153,-56.5"/>
<text text-anchor="middle" x="201.5" y="-63.5" font-family="Helvetica,sans-Serif" font-size="10.00">CSGeometry.cpp</text>
</a>
</g>
</g>
<!-- Node6&#45;&gt;Node7 -->
<g id="edge7" class="edge">
<title>Node6&#45;&gt;Node7</title>
<path fill="none" stroke="midnightblue" d="M283.98,-107.86C263.77,-97.85 236.51,-84.35 218.97,-75.65"/>
<polygon fill="midnightblue" stroke="midnightblue" points="282.47,-111.02 292.99,-112.32 285.58,-104.75 282.47,-111.02"/>
</g>
<!-- Node8 -->
<g id="node8" class="node">
<title>Node8</title>
<g id="a_node8"><a xlink:href="_geometry_8cpp.html" target="_top" xlink:title="Implementation of the Geometry class.">
<polygon fill="white" stroke="black" points="268.5,-56.5 268.5,-75.5 352.5,-75.5 352.5,-56.5 268.5,-56.5"/>
<text text-anchor="middle" x="310.5" y="-63.5" font-family="Helvetica,sans-Serif" font-size="10.00">Geometry.cpp</text>
</a>
</g>
</g>
<!-- Node6&#45;&gt;Node8 -->
<g id="edge8" class="edge">
<title>Node6&#45;&gt;Node8</title>
<path fill="none" stroke="midnightblue" d="M310.5,-101.8C310.5,-92.91 310.5,-82.78 310.5,-75.75"/>
<polygon fill="midnightblue" stroke="midnightblue" points="307,-102.08 310.5,-112.08 314,-102.08 307,-102.08"/>
</g>
<!-- Node9 -->
<g id="node9" class="node">
<title>Node9</title>
<g id="a_node9"><a xlink:href="_geometry_definition_8cpp.html" target="_top" xlink:title="Implementation of the GeometryDefinition class.">
<polygon fill="white" stroke="black" points="371,-56.5 371,-75.5 504,-75.5 504,-56.5 371,-56.5"/>
<text text-anchor="middle" x="437.5" y="-63.5" font-family="Helvetica,sans-Serif" font-size="10.00">GeometryDefinition.cpp</text>
</a>
</g>
</g>
<!-- Node6&#45;&gt;Node9 -->
<g id="edge9" class="edge">
<title>Node6&#45;&gt;Node9</title>
<path fill="none" stroke="midnightblue" d="M339.89,-108.5C363.7,-98.38 396.61,-84.39 417.47,-75.52"/>
<polygon fill="midnightblue" stroke="midnightblue" points="338.46,-105.31 330.62,-112.44 341.2,-111.75 338.46,-105.31"/>
</g>
<!-- Node10 -->
<g id="node10" class="node">
<title>Node10</title>
<g id="a_node10"><a xlink:href="_list_of_geometry_definitions_8cpp.html" target="_top" xlink:title="Implementation of the ListOfGeometryDefinitions class.">
<polygon fill="white" stroke="black" points="522,-56.5 522,-75.5 689,-75.5 689,-56.5 522,-56.5"/>
<text text-anchor="middle" x="605.5" y="-63.5" font-family="Helvetica,sans-Serif" font-size="10.00">ListOfGeometryDefinitions.cpp</text>
</a>
</g>
</g>
<!-- Node6&#45;&gt;Node10 -->
<g id="edge10" class="edge">
<title>Node6&#45;&gt;Node10</title>
<path fill="none" stroke="midnightblue" d="M363.72,-111.26C419.33,-101.08 505.7,-85.27 558.76,-75.56"/>
<polygon fill="midnightblue" stroke="midnightblue" points="362.92,-107.85 353.71,-113.09 364.18,-114.73 362.92,-107.85"/>
</g>
<!-- Node11 -->
<g id="node11" class="node">
<title>Node11</title>
<g id="a_node11"><a xlink:href="_mixed_geometry_8cpp.html" target="_top" xlink:title="Implementation of the MixedGeometry class.">
<polygon fill="white" stroke="black" points="707,-56.5 707,-75.5 820,-75.5 820,-56.5 707,-56.5"/>
<text text-anchor="middle" x="763.5" y="-63.5" font-family="Helvetica,sans-Serif" font-size="10.00">MixedGeometry.cpp</text>
</a>
</g>
</g>
<!-- Node6&#45;&gt;Node11 -->
<g id="edge11" class="edge">
<title>Node6&#45;&gt;Node11</title>
<path fill="none" stroke="midnightblue" d="M363.59,-111.93C512.93,-91.31 552.63,-93.91 698.5,-76 701.21,-75.67 703.99,-75.32 706.79,-74.96"/>
<polygon fill="midnightblue" stroke="midnightblue" points="363.02,-108.47 353.6,-113.32 363.98,-115.41 363.02,-108.47"/>
</g>
</g>
</svg>
