<?xml version="1.0" encoding="UTF-8" standalone="no"?>
<!DOCTYPE svg PUBLIC "-//W3C//DTD SVG 1.1//EN"
 "http://www.w3.org/Graphics/SVG/1.1/DTD/svg11.dtd">
<!-- Generated by graphviz version 2.43.0 (0)
 -->
<!-- Title: CVTerm.h Pages: 1 -->
<svg width="924pt" height="464pt"
 viewBox="0.00 0.00 923.50 464.00" xmlns="http://www.w3.org/2000/svg" xmlns:xlink="http://www.w3.org/1999/xlink">
<g id="graph0" class="graph" transform="scale(1 1) rotate(0) translate(4 460)">
<title>CVTerm.h</title>
<polygon fill="white" stroke="transparent" points="-4,4 -4,-460 919.5,-460 919.5,4 -4,4"/>
<!-- Node1 -->
<g id="node1" class="node">
<title>Node1</title>
<g id="a_node1"><a xlink:title="Definition of a CVTerm class for adding annotations to a Model.">
<polygon fill="#bfbfbf" stroke="black" points="596.5,-436.5 596.5,-455.5 659.5,-455.5 659.5,-436.5 596.5,-436.5"/>
<text text-anchor="middle" x="628" y="-443.5" font-family="Helvetica,sans-Serif" font-size="10.00">CVTerm.h</text>
</a>
</g>
</g>
<!-- Node2 -->
<g id="node2" class="node">
<title>Node2</title>
<g id="a_node2"><a xlink:href="extern_8h.html" target="_top" xlink:title="Definitions of LIBSBML_EXTERN and related things.">
<polygon fill="white" stroke="black" points="19,-67.5 19,-86.5 149,-86.5 149,-67.5 19,-67.5"/>
<text text-anchor="middle" x="84" y="-74.5" font-family="Helvetica,sans-Serif" font-size="10.00">sbml/common/extern.h</text>
</a>
</g>
</g>
<!-- Node1&#45;&gt;Node2 -->
<g id="edge1" class="edge">
<title>Node1&#45;&gt;Node2</title>
<path fill="none" stroke="midnightblue" d="M596.25,-444.64C521.28,-443.2 327.77,-435.97 171,-400 90.88,-381.61 0,-411.71 0,-329.5 0,-329.5 0,-329.5 0,-204.5 0,-157.84 40.15,-115.23 64.94,-93.38"/>
<polygon fill="midnightblue" stroke="midnightblue" points="67.33,-95.93 72.67,-86.78 62.79,-90.61 67.33,-95.93"/>
</g>
<!-- Node4 -->
<g id="node4" class="node">
<title>Node4</title>
<g id="a_node4"><a xlink:href="sbmlfwd_8h.html" target="_top" xlink:title="Forward declarations for all opaque C types.">
<polygon fill="white" stroke="black" points="202,-257.5 202,-276.5 342,-276.5 342,-257.5 202,-257.5"/>
<text text-anchor="middle" x="272" y="-264.5" font-family="Helvetica,sans-Serif" font-size="10.00">sbml/common/sbmlfwd.h</text>
</a>
</g>
</g>
<!-- Node1&#45;&gt;Node4 -->
<g id="edge3" class="edge">
<title>Node1&#45;&gt;Node4</title>
<path fill="none" stroke="midnightblue" d="M596.31,-441.49C514.71,-431.67 301.24,-400.9 265,-344 254.02,-326.76 258.81,-302.71 264.35,-286.31"/>
<polygon fill="midnightblue" stroke="midnightblue" points="267.69,-287.38 267.95,-276.79 261.14,-284.91 267.69,-287.38"/>
</g>
<!-- Node8 -->
<g id="node8" class="node">
<title>Node8</title>
<g id="a_node8"><a xlink:href="operation_return_values_8h.html" target="_top" xlink:title="Enumeration of values returned by operations within libSBML.">
<polygon fill="white" stroke="black" points="28,-313.5 28,-343.5 196,-343.5 196,-313.5 28,-313.5"/>
<text text-anchor="start" x="36" y="-331.5" font-family="Helvetica,sans-Serif" font-size="10.00">sbml/common/operationReturn</text>
<text text-anchor="middle" x="112" y="-320.5" font-family="Helvetica,sans-Serif" font-size="10.00">Values.h</text>
</a>
</g>
</g>
<!-- Node1&#45;&gt;Node8 -->
<g id="edge10" class="edge">
<title>Node1&#45;&gt;Node8</title>
<path fill="none" stroke="midnightblue" d="M596.29,-443.68C511.42,-439.82 280.73,-427.06 210,-400 181.01,-388.91 152.77,-367.06 134.11,-350.61"/>
<polygon fill="midnightblue" stroke="midnightblue" points="136.25,-347.82 126.48,-343.71 131.55,-353.02 136.25,-347.82"/>
</g>
<!-- Node9 -->
<g id="node9" class="node">
<title>Node9</title>
<g id="a_node9"><a xlink:href="_x_m_l_attributes_8h.html" target="_top" xlink:title="XMLAttributes are a list of name/value pairs for XML elements.">
<polygon fill="white" stroke="black" points="394,-380.5 394,-399.5 538,-399.5 538,-380.5 394,-380.5"/>
<text text-anchor="middle" x="466" y="-387.5" font-family="Helvetica,sans-Serif" font-size="10.00">sbml/xml/XMLAttributes.h</text>
</a>
</g>
</g>
<!-- Node1&#45;&gt;Node9 -->
<g id="edge12" class="edge">
<title>Node1&#45;&gt;Node9</title>
<path fill="none" stroke="midnightblue" d="M602.33,-436.44C575.08,-427.36 531.82,-412.94 501.35,-402.78"/>
<polygon fill="midnightblue" stroke="midnightblue" points="502.14,-399.36 491.55,-399.52 499.93,-406 502.14,-399.36"/>
</g>
<!-- Node11 -->
<g id="node11" class="node">
<title>Node11</title>
<g id="a_node11"><a xlink:title=" ">
<polygon fill="white" stroke="#bfbfbf" points="605,-257.5 605,-276.5 649,-276.5 649,-257.5 605,-257.5"/>
<text text-anchor="middle" x="627" y="-264.5" font-family="Helvetica,sans-Serif" font-size="10.00">string</text>
</a>
</g>
</g>
<!-- Node1&#45;&gt;Node11 -->
<g id="edge26" class="edge">
<title>Node1&#45;&gt;Node11</title>
<path fill="none" stroke="midnightblue" d="M628.24,-436.35C628.8,-415.26 630.03,-359.51 629,-313 628.81,-304.39 628.41,-294.86 628.02,-286.8"/>
<polygon fill="midnightblue" stroke="midnightblue" points="631.51,-286.43 627.5,-276.62 624.52,-286.79 631.51,-286.43"/>
</g>
<!-- Node15 -->
<g id="node15" class="node">
<title>Node15</title>
<g id="a_node15"><a xlink:title=" ">
<polygon fill="white" stroke="#bfbfbf" points="656,-380.5 656,-399.5 700,-399.5 700,-380.5 656,-380.5"/>
<text text-anchor="middle" x="678" y="-387.5" font-family="Helvetica,sans-Serif" font-size="10.00">limits</text>
</a>
</g>
</g>
<!-- Node1&#45;&gt;Node15 -->
<g id="edge24" class="edge">
<title>Node1&#45;&gt;Node15</title>
<path fill="none" stroke="midnightblue" d="M636.26,-436.08C643.46,-428.3 654.11,-416.8 662.85,-407.37"/>
<polygon fill="midnightblue" stroke="midnightblue" points="665.67,-409.47 669.9,-399.75 660.53,-404.71 665.67,-409.47"/>
</g>
<!-- Node16 -->
<g id="node16" class="node">
<title>Node16</title>
<g id="a_node16"><a xlink:title=" ">
<polygon fill="white" stroke="#bfbfbf" points="718,-380.5 718,-399.5 774,-399.5 774,-380.5 718,-380.5"/>
<text text-anchor="middle" x="746" y="-387.5" font-family="Helvetica,sans-Serif" font-size="10.00">iomanip</text>
</a>
</g>
</g>
<!-- Node1&#45;&gt;Node16 -->
<g id="edge25" class="edge">
<title>Node1&#45;&gt;Node16</title>
<path fill="none" stroke="midnightblue" d="M646.7,-436.44C665.94,-427.64 696.15,-413.81 718.2,-403.72"/>
<polygon fill="midnightblue" stroke="midnightblue" points="719.75,-406.86 727.39,-399.52 716.84,-400.5 719.75,-406.86"/>
</g>
<!-- Node17 -->
<g id="node17" class="node">
<title>Node17</title>
<g id="a_node17"><a xlink:title=" ">
<polygon fill="white" stroke="#bfbfbf" points="792,-380.5 792,-399.5 848,-399.5 848,-380.5 792,-380.5"/>
<text text-anchor="middle" x="820" y="-387.5" font-family="Helvetica,sans-Serif" font-size="10.00">sstream</text>
</a>
</g>
</g>
<!-- Node1&#45;&gt;Node17 -->
<g id="edge27" class="edge">
<title>Node1&#45;&gt;Node17</title>
<path fill="none" stroke="midnightblue" d="M658.42,-436.44C691.96,-427.01 745.95,-411.83 782.19,-401.63"/>
<polygon fill="midnightblue" stroke="midnightblue" points="783.23,-404.98 791.91,-398.9 781.33,-398.24 783.23,-404.98"/>
</g>
<!-- Node18 -->
<g id="node18" class="node">
<title>Node18</title>
<g id="a_node18"><a xlink:title=" ">
<polygon fill="white" stroke="#bfbfbf" points="866.5,-380.5 866.5,-399.5 915.5,-399.5 915.5,-380.5 866.5,-380.5"/>
<text text-anchor="middle" x="891" y="-387.5" font-family="Helvetica,sans-Serif" font-size="10.00">cstdlib</text>
</a>
</g>
</g>
<!-- Node1&#45;&gt;Node18 -->
<g id="edge28" class="edge">
<title>Node1&#45;&gt;Node18</title>
<path fill="none" stroke="midnightblue" d="M659.62,-439.46C702.11,-431.86 780.17,-417.39 856.4,-400.02"/>
<polygon fill="midnightblue" stroke="midnightblue" points="857.2,-403.42 866.16,-397.77 855.63,-396.6 857.2,-403.42"/>
</g>
<!-- Node3 -->
<g id="node3" class="node">
<title>Node3</title>
<g id="a_node3"><a xlink:title=" ">
<polygon fill="white" stroke="#bfbfbf" points="319.5,-0.5 319.5,-30.5 444.5,-30.5 444.5,-0.5 319.5,-0.5"/>
<text text-anchor="start" x="327.5" y="-18.5" font-family="Helvetica,sans-Serif" font-size="10.00">sbml/common/libsbml</text>
<text text-anchor="middle" x="382" y="-7.5" font-family="Helvetica,sans-Serif" font-size="10.00">&#45;namespace.h</text>
</a>
</g>
</g>
<!-- Node2&#45;&gt;Node3 -->
<g id="edge2" class="edge">
<title>Node2&#45;&gt;Node3</title>
<path fill="none" stroke="midnightblue" d="M126.7,-67.48C174.29,-57.97 252.08,-42.44 309.31,-31.01"/>
<polygon fill="midnightblue" stroke="midnightblue" points="310.26,-34.39 319.38,-29 308.89,-27.53 310.26,-34.39"/>
</g>
<!-- Node4&#45;&gt;Node3 -->
<g id="edge4" class="edge">
<title>Node4&#45;&gt;Node3</title>
<path fill="none" stroke="midnightblue" d="M293.14,-257.37C308.95,-249.92 330,-237.7 343,-221 386.73,-164.83 390.51,-138.1 387,-67 386.58,-58.43 385.75,-49.08 384.89,-40.78"/>
<polygon fill="midnightblue" stroke="midnightblue" points="388.35,-40.18 383.77,-30.62 381.39,-40.94 388.35,-40.18"/>
</g>
<!-- Node5 -->
<g id="node5" class="node">
<title>Node5</title>
<g id="a_node5"><a xlink:href="libsbml-config_8h.html" target="_top" xlink:title="Decides whether to #include Unix or Windows configuration variables.">
<polygon fill="white" stroke="black" points="209.5,-190.5 209.5,-220.5 334.5,-220.5 334.5,-190.5 209.5,-190.5"/>
<text text-anchor="start" x="217.5" y="-208.5" font-family="Helvetica,sans-Serif" font-size="10.00">sbml/common/libsbml</text>
<text text-anchor="middle" x="272" y="-197.5" font-family="Helvetica,sans-Serif" font-size="10.00">&#45;config.h</text>
</a>
</g>
</g>
<!-- Node4&#45;&gt;Node5 -->
<g id="edge5" class="edge">
<title>Node4&#45;&gt;Node5</title>
<path fill="none" stroke="midnightblue" d="M272,-257.48C272,-250.47 272,-240.19 272,-230.7"/>
<polygon fill="midnightblue" stroke="midnightblue" points="275.5,-230.52 272,-220.52 268.5,-230.52 275.5,-230.52"/>
</g>
<!-- Node5&#45;&gt;Node3 -->
<g id="edge6" class="edge">
<title>Node5&#45;&gt;Node3</title>
<path fill="none" stroke="midnightblue" d="M300.18,-190.5C314.92,-181.85 332.1,-169.45 343,-154 367.35,-119.48 376.56,-70.06 380,-40.83"/>
<polygon fill="midnightblue" stroke="midnightblue" points="383.5,-40.99 381.06,-30.69 376.54,-40.27 383.5,-40.99"/>
</g>
<!-- Node6 -->
<g id="node6" class="node">
<title>Node6</title>
<g id="a_node6"><a xlink:title=" ">
<polygon fill="white" stroke="#bfbfbf" points="209.5,-123.5 209.5,-153.5 334.5,-153.5 334.5,-123.5 209.5,-123.5"/>
<text text-anchor="start" x="217.5" y="-141.5" font-family="Helvetica,sans-Serif" font-size="10.00">sbml/common/libsbml</text>
<text text-anchor="middle" x="272" y="-130.5" font-family="Helvetica,sans-Serif" font-size="10.00">&#45;config&#45;common.h</text>
</a>
</g>
</g>
<!-- Node5&#45;&gt;Node6 -->
<g id="edge7" class="edge">
<title>Node5&#45;&gt;Node6</title>
<path fill="none" stroke="midnightblue" d="M272,-190.4C272,-182.64 272,-172.81 272,-163.86"/>
<polygon fill="midnightblue" stroke="midnightblue" points="275.5,-163.58 272,-153.58 268.5,-163.58 275.5,-163.58"/>
</g>
<!-- Node7 -->
<g id="node7" class="node">
<title>Node7</title>
<g id="a_node7"><a xlink:href="libsbml-version_8h.html" target="_top" xlink:title="Define libSBML version numbers for access from client software.">
<polygon fill="white" stroke="black" points="66.5,-123.5 66.5,-153.5 191.5,-153.5 191.5,-123.5 66.5,-123.5"/>
<text text-anchor="start" x="74.5" y="-141.5" font-family="Helvetica,sans-Serif" font-size="10.00">sbml/common/libsbml</text>
<text text-anchor="middle" x="129" y="-130.5" font-family="Helvetica,sans-Serif" font-size="10.00">&#45;version.h</text>
</a>
</g>
</g>
<!-- Node5&#45;&gt;Node7 -->
<g id="edge8" class="edge">
<title>Node5&#45;&gt;Node7</title>
<path fill="none" stroke="midnightblue" d="M240.97,-190.4C219.98,-180.86 192.06,-168.16 169.35,-157.84"/>
<polygon fill="midnightblue" stroke="midnightblue" points="170.52,-154.53 159.97,-153.58 167.62,-160.9 170.52,-154.53"/>
</g>
<!-- Node7&#45;&gt;Node2 -->
<g id="edge9" class="edge">
<title>Node7&#45;&gt;Node2</title>
<path fill="none" stroke="midnightblue" d="M118.34,-123.4C111.86,-114.84 103.57,-103.87 96.75,-94.86"/>
<polygon fill="midnightblue" stroke="midnightblue" points="99.37,-92.52 90.55,-86.66 93.79,-96.74 99.37,-92.52"/>
</g>
<!-- Node8&#45;&gt;Node2 -->
<g id="edge11" class="edge">
<title>Node8&#45;&gt;Node2</title>
<path fill="none" stroke="midnightblue" d="M105.91,-313.46C93.68,-284.39 66.47,-215.21 57,-154 54.89,-140.38 53.32,-136.28 57,-123 59.79,-112.92 65.51,-102.83 70.97,-94.77"/>
<polygon fill="midnightblue" stroke="midnightblue" points="73.82,-96.79 76.85,-86.64 68.15,-92.69 73.82,-96.79"/>
</g>
<!-- Node9&#45;&gt;Node4 -->
<g id="edge15" class="edge">
<title>Node9&#45;&gt;Node4</title>
<path fill="none" stroke="midnightblue" d="M396.9,-380.48C351.01,-373.32 296.45,-361.44 281,-344 267.4,-328.65 266.93,-304.17 268.7,-287.16"/>
<polygon fill="midnightblue" stroke="midnightblue" points="272.23,-287.17 270.15,-276.78 265.3,-286.2 272.23,-287.17"/>
</g>
<!-- Node9&#45;&gt;Node8 -->
<g id="edge16" class="edge">
<title>Node9&#45;&gt;Node8</title>
<path fill="none" stroke="midnightblue" d="M415.28,-380.48C360.73,-371.31 272.78,-356.52 205.6,-345.23"/>
<polygon fill="midnightblue" stroke="midnightblue" points="205.87,-341.73 195.43,-343.52 204.71,-348.63 205.87,-341.73"/>
</g>
<!-- Node10 -->
<g id="node10" class="node">
<title>Node10</title>
<g id="a_node10"><a xlink:href="_x_m_l_extern_8h.html" target="_top" xlink:title="Defines LIBLAX_EXTERN.">
<polygon fill="white" stroke="black" points="375.5,-257.5 375.5,-276.5 502.5,-276.5 502.5,-257.5 375.5,-257.5"/>
<text text-anchor="middle" x="439" y="-264.5" font-family="Helvetica,sans-Serif" font-size="10.00">sbml/xml/XMLExtern.h</text>
</a>
</g>
</g>
<!-- Node9&#45;&gt;Node10 -->
<g id="edge13" class="edge">
<title>Node9&#45;&gt;Node10</title>
<path fill="none" stroke="midnightblue" d="M464.06,-380.3C459.7,-360.76 449.06,-313.06 443.14,-286.55"/>
<polygon fill="midnightblue" stroke="midnightblue" points="446.52,-285.62 440.92,-276.62 439.69,-287.15 446.52,-285.62"/>
</g>
<!-- Node9&#45;&gt;Node11 -->
<g id="edge17" class="edge">
<title>Node9&#45;&gt;Node11</title>
<path fill="none" stroke="midnightblue" d="M538.35,-380.7C563.46,-374.38 589.85,-363.31 608,-344 622.38,-328.7 626.33,-304.22 627.19,-287.19"/>
<polygon fill="midnightblue" stroke="midnightblue" points="630.7,-286.86 627.39,-276.8 623.7,-286.73 630.7,-286.86"/>
</g>
<!-- Node12 -->
<g id="node12" class="node">
<title>Node12</title>
<g id="a_node12"><a xlink:title=" ">
<polygon fill="white" stroke="#bfbfbf" points="468.5,-319 468.5,-338 515.5,-338 515.5,-319 468.5,-319"/>
<text text-anchor="middle" x="492" y="-326" font-family="Helvetica,sans-Serif" font-size="10.00">vector</text>
</a>
</g>
</g>
<!-- Node9&#45;&gt;Node12 -->
<g id="edge18" class="edge">
<title>Node9&#45;&gt;Node12</title>
<path fill="none" stroke="midnightblue" d="M469.73,-380.48C473.47,-371.9 479.36,-358.43 484.14,-347.48"/>
<polygon fill="midnightblue" stroke="midnightblue" points="487.48,-348.57 488.28,-338.01 481.07,-345.77 487.48,-348.57"/>
</g>
<!-- Node13 -->
<g id="node13" class="node">
<title>Node13</title>
<g id="a_node13"><a xlink:title=" ">
<polygon fill="white" stroke="#bfbfbf" points="533.5,-319 533.5,-338 598.5,-338 598.5,-319 533.5,-319"/>
<text text-anchor="middle" x="566" y="-326" font-family="Helvetica,sans-Serif" font-size="10.00">stdexcept</text>
</a>
</g>
</g>
<!-- Node9&#45;&gt;Node13 -->
<g id="edge19" class="edge">
<title>Node9&#45;&gt;Node13</title>
<path fill="none" stroke="midnightblue" d="M480.33,-380.48C496.66,-370.75 523.6,-354.73 542.91,-343.24"/>
<polygon fill="midnightblue" stroke="midnightblue" points="544.89,-346.13 551.7,-338.01 541.32,-340.11 544.89,-346.13"/>
</g>
<!-- Node14 -->
<g id="node14" class="node">
<title>Node14</title>
<g id="a_node14"><a xlink:href="_x_m_l_triple_8h.html" target="_top" xlink:title="Stores an XML namespace triple.">
<polygon fill="white" stroke="black" points="290.5,-319 290.5,-338 411.5,-338 411.5,-319 290.5,-319"/>
<text text-anchor="middle" x="351" y="-326" font-family="Helvetica,sans-Serif" font-size="10.00">sbml/xml/XMLTriple.h</text>
</a>
</g>
</g>
<!-- Node9&#45;&gt;Node14 -->
<g id="edge20" class="edge">
<title>Node9&#45;&gt;Node14</title>
<path fill="none" stroke="midnightblue" d="M449.52,-380.48C430.39,-370.58 398.63,-354.14 376.35,-342.62"/>
<polygon fill="midnightblue" stroke="midnightblue" points="377.94,-339.5 367.45,-338.01 374.72,-345.71 377.94,-339.5"/>
</g>
<!-- Node10&#45;&gt;Node3 -->
<g id="edge14" class="edge">
<title>Node10&#45;&gt;Node3</title>
<path fill="none" stroke="midnightblue" d="M439.33,-257.34C440.14,-229.02 440.49,-136.97 415,-67 411.38,-57.07 405.49,-47.12 399.67,-38.71"/>
<polygon fill="midnightblue" stroke="midnightblue" points="402.46,-36.59 393.74,-30.56 396.8,-40.71 402.46,-36.59"/>
</g>
<!-- Node14&#45;&gt;Node4 -->
<g id="edge22" class="edge">
<title>Node14&#45;&gt;Node4</title>
<path fill="none" stroke="midnightblue" d="M339.68,-318.98C327.13,-309.52 306.65,-294.1 291.5,-282.69"/>
<polygon fill="midnightblue" stroke="midnightblue" points="293.39,-279.73 283.3,-276.51 289.18,-285.32 293.39,-279.73"/>
</g>
<!-- Node14&#45;&gt;Node10 -->
<g id="edge21" class="edge">
<title>Node14&#45;&gt;Node10</title>
<path fill="none" stroke="midnightblue" d="M363.61,-318.98C377.72,-309.43 400.83,-293.81 417.75,-282.37"/>
<polygon fill="midnightblue" stroke="midnightblue" points="420.09,-285.01 426.42,-276.51 416.17,-279.21 420.09,-285.01"/>
</g>
<!-- Node14&#45;&gt;Node11 -->
<g id="edge23" class="edge">
<title>Node14&#45;&gt;Node11</title>
<path fill="none" stroke="midnightblue" d="M390.54,-318.98C445.51,-307.13 543.96,-285.9 594.74,-274.95"/>
<polygon fill="midnightblue" stroke="midnightblue" points="595.79,-278.31 604.82,-272.78 594.31,-271.47 595.79,-278.31"/>
</g>
</g>
</svg>
