<?xml version="1.0" encoding="UTF-8" standalone="no"?>
<!DOCTYPE svg PUBLIC "-//W3C//DTD SVG 1.1//EN"
 "http://www.w3.org/Graphics/SVG/1.1/DTD/svg11.dtd">
<!-- Generated by graphviz version 2.43.0 (0)
 -->
<!-- Title: CallbackRegistry.cpp Pages: 1 -->
<svg width="428pt" height="218pt"
 viewBox="0.00 0.00 428.00 218.00" xmlns="http://www.w3.org/2000/svg" xmlns:xlink="http://www.w3.org/1999/xlink">
<g id="graph0" class="graph" transform="scale(1 1) rotate(0) translate(4 214)">
<title>CallbackRegistry.cpp</title>
<polygon fill="white" stroke="transparent" points="-4,4 -4,-214 424,-214 424,4 -4,4"/>
<!-- Node1 -->
<g id="node1" class="node">
<title>Node1</title>
<g id="a_node1"><a xlink:title=" ">
<polygon fill="#bfbfbf" stroke="black" points="107,-190.5 107,-209.5 225,-209.5 225,-190.5 107,-190.5"/>
<text text-anchor="middle" x="166" y="-197.5" font-family="Helvetica,sans-Serif" font-size="10.00">CallbackRegistry.cpp</text>
</a>
</g>
</g>
<!-- Node2 -->
<g id="node2" class="node">
<title>Node2</title>
<g id="a_node2"><a xlink:title=" ">
<polygon fill="white" stroke="#bfbfbf" points="0,-129 0,-148 64,-148 64,-129 0,-129"/>
<text text-anchor="middle" x="32" y="-136" font-family="Helvetica,sans-Serif" font-size="10.00">algorithm</text>
</a>
</g>
</g>
<!-- Node1&#45;&gt;Node2 -->
<g id="edge1" class="edge">
<title>Node1&#45;&gt;Node2</title>
<path fill="none" stroke="midnightblue" d="M146.8,-190.48C124.21,-180.45 86.5,-163.7 60.5,-152.15"/>
<polygon fill="midnightblue" stroke="midnightblue" points="61.72,-148.87 51.16,-148.01 58.88,-155.27 61.72,-148.87"/>
</g>
<!-- Node3 -->
<g id="node3" class="node">
<title>Node3</title>
<g id="a_node3"><a xlink:href="operation_return_values_8h.html" target="_top" xlink:title="Enumeration of values returned by operations within libSBML.">
<polygon fill="white" stroke="black" points="82,-123.5 82,-153.5 250,-153.5 250,-123.5 82,-123.5"/>
<text text-anchor="start" x="90" y="-141.5" font-family="Helvetica,sans-Serif" font-size="10.00">sbml/common/operationReturn</text>
<text text-anchor="middle" x="166" y="-130.5" font-family="Helvetica,sans-Serif" font-size="10.00">Values.h</text>
</a>
</g>
</g>
<!-- Node1&#45;&gt;Node3 -->
<g id="edge2" class="edge">
<title>Node1&#45;&gt;Node3</title>
<path fill="none" stroke="midnightblue" d="M166,-190.48C166,-183.47 166,-173.19 166,-163.7"/>
<polygon fill="midnightblue" stroke="midnightblue" points="169.5,-163.52 166,-153.52 162.5,-163.52 169.5,-163.52"/>
</g>
<!-- Node6 -->
<g id="node6" class="node">
<title>Node6</title>
<g id="a_node6"><a xlink:href="_callback_registry_8h.html" target="_top" xlink:title=" ">
<polygon fill="white" stroke="black" points="268,-129 268,-148 420,-148 420,-129 268,-129"/>
<text text-anchor="middle" x="344" y="-136" font-family="Helvetica,sans-Serif" font-size="10.00">sbml/util/CallbackRegistry.h</text>
</a>
</g>
</g>
<!-- Node1&#45;&gt;Node6 -->
<g id="edge5" class="edge">
<title>Node1&#45;&gt;Node6</title>
<path fill="none" stroke="midnightblue" d="M191.5,-190.48C222.3,-180.18 274.27,-162.81 308.85,-151.25"/>
<polygon fill="midnightblue" stroke="midnightblue" points="310.17,-154.5 318.54,-148.01 307.95,-147.86 310.17,-154.5"/>
</g>
<!-- Node4 -->
<g id="node4" class="node">
<title>Node4</title>
<g id="a_node4"><a xlink:href="extern_8h.html" target="_top" xlink:title="Definitions of LIBSBML_EXTERN and related things.">
<polygon fill="white" stroke="black" points="160,-67.5 160,-86.5 290,-86.5 290,-67.5 160,-67.5"/>
<text text-anchor="middle" x="225" y="-74.5" font-family="Helvetica,sans-Serif" font-size="10.00">sbml/common/extern.h</text>
</a>
</g>
</g>
<!-- Node3&#45;&gt;Node4 -->
<g id="edge3" class="edge">
<title>Node3&#45;&gt;Node4</title>
<path fill="none" stroke="midnightblue" d="M179.98,-123.4C188.73,-114.58 200.03,-103.18 209.12,-94.02"/>
<polygon fill="midnightblue" stroke="midnightblue" points="211.86,-96.22 216.41,-86.66 206.89,-91.29 211.86,-96.22"/>
</g>
<!-- Node5 -->
<g id="node5" class="node">
<title>Node5</title>
<g id="a_node5"><a xlink:title=" ">
<polygon fill="white" stroke="#bfbfbf" points="208.5,-0.5 208.5,-30.5 333.5,-30.5 333.5,-0.5 208.5,-0.5"/>
<text text-anchor="start" x="216.5" y="-18.5" font-family="Helvetica,sans-Serif" font-size="10.00">sbml/common/libsbml</text>
<text text-anchor="middle" x="271" y="-7.5" font-family="Helvetica,sans-Serif" font-size="10.00">&#45;namespace.h</text>
</a>
</g>
</g>
<!-- Node4&#45;&gt;Node5 -->
<g id="edge4" class="edge">
<title>Node4&#45;&gt;Node5</title>
<path fill="none" stroke="midnightblue" d="M231.59,-67.48C237.41,-59.94 246.16,-48.63 253.94,-38.57"/>
<polygon fill="midnightblue" stroke="midnightblue" points="256.81,-40.58 260.16,-30.52 251.27,-36.29 256.81,-40.58"/>
</g>
<!-- Node6&#45;&gt;Node4 -->
<g id="edge7" class="edge">
<title>Node6&#45;&gt;Node4</title>
<path fill="none" stroke="midnightblue" d="M326.95,-128.98C307.16,-119.08 274.28,-102.64 251.23,-91.12"/>
<polygon fill="midnightblue" stroke="midnightblue" points="252.53,-87.85 242.02,-86.51 249.4,-94.11 252.53,-87.85"/>
</g>
<!-- Node6&#45;&gt;Node5 -->
<g id="edge8" class="edge">
<title>Node6&#45;&gt;Node5</title>
<path fill="none" stroke="midnightblue" d="M338.75,-128.8C327.58,-110.28 301.14,-66.46 284.79,-39.36"/>
<polygon fill="midnightblue" stroke="midnightblue" points="287.63,-37.29 279.47,-30.54 281.64,-40.91 287.63,-37.29"/>
</g>
<!-- Node7 -->
<g id="node7" class="node">
<title>Node7</title>
<g id="a_node7"><a xlink:title=" ">
<polygon fill="white" stroke="#bfbfbf" points="346.5,-67.5 346.5,-86.5 393.5,-86.5 393.5,-67.5 346.5,-67.5"/>
<text text-anchor="middle" x="370" y="-74.5" font-family="Helvetica,sans-Serif" font-size="10.00">vector</text>
</a>
</g>
</g>
<!-- Node6&#45;&gt;Node7 -->
<g id="edge6" class="edge">
<title>Node6&#45;&gt;Node7</title>
<path fill="none" stroke="midnightblue" d="M347.73,-128.98C351.47,-120.4 357.36,-106.93 362.14,-95.98"/>
<polygon fill="midnightblue" stroke="midnightblue" points="365.48,-97.07 366.28,-86.51 359.07,-94.27 365.48,-97.07"/>
</g>
</g>
</svg>
