<?xml version="1.0" encoding="UTF-8" standalone="no"?>
<!DOCTYPE svg PUBLIC "-//W3C//DTD SVG 1.1//EN"
 "http://www.w3.org/Graphics/SVG/1.1/DTD/svg11.dtd">
<!-- Generated by graphviz version 2.43.0 (0)
 -->
<!-- Title: CompressionUtil.cpp Pages: 1 -->
<svg width="779pt" height="218pt"
 viewBox="0.00 0.00 778.50 218.00" xmlns="http://www.w3.org/2000/svg" xmlns:xlink="http://www.w3.org/1999/xlink">
<g id="graph0" class="graph" transform="scale(1 1) rotate(0) translate(4 214)">
<title>CompressionUtil.cpp</title>
<polygon fill="white" stroke="transparent" points="-4,4 -4,-214 774.5,-214 774.5,4 -4,4"/>
<!-- Node1 -->
<g id="node1" class="node">
<title>Node1</title>
<g id="a_node1"><a xlink:title="Functions useful for various compression algorithms.">
<polygon fill="#bfbfbf" stroke="black" points="174.5,-190.5 174.5,-209.5 292.5,-209.5 292.5,-190.5 174.5,-190.5"/>
<text text-anchor="middle" x="233.5" y="-197.5" font-family="Helvetica,sans-Serif" font-size="10.00">CompressionUtil.cpp</text>
</a>
</g>
</g>
<!-- Node2 -->
<g id="node2" class="node">
<title>Node2</title>
<g id="a_node2"><a xlink:title=" ">
<polygon fill="white" stroke="#bfbfbf" points="0,-0.5 0,-30.5 125,-30.5 125,-0.5 0,-0.5"/>
<text text-anchor="start" x="8" y="-18.5" font-family="Helvetica,sans-Serif" font-size="10.00">sbml/common/libsbml</text>
<text text-anchor="middle" x="62.5" y="-7.5" font-family="Helvetica,sans-Serif" font-size="10.00">&#45;namespace.h</text>
</a>
</g>
</g>
<!-- Node1&#45;&gt;Node2 -->
<g id="edge1" class="edge">
<title>Node1&#45;&gt;Node2</title>
<path fill="none" stroke="midnightblue" d="M174.32,-193.6C122.43,-187.5 52.65,-175.49 35.5,-154 9.07,-120.89 31.09,-69.19 47.88,-39.52"/>
<polygon fill="midnightblue" stroke="midnightblue" points="51.01,-41.11 53.08,-30.72 44.98,-37.55 51.01,-41.11"/>
</g>
<!-- Node3 -->
<g id="node3" class="node">
<title>Node3</title>
<g id="a_node3"><a xlink:title=" ">
<polygon fill="white" stroke="#bfbfbf" points="44.5,-129 44.5,-148 88.5,-148 88.5,-129 44.5,-129"/>
<text text-anchor="middle" x="66.5" y="-136" font-family="Helvetica,sans-Serif" font-size="10.00">string</text>
</a>
</g>
</g>
<!-- Node1&#45;&gt;Node3 -->
<g id="edge2" class="edge">
<title>Node1&#45;&gt;Node3</title>
<path fill="none" stroke="midnightblue" d="M204.49,-190.49C176.71,-182.09 133.78,-168.43 97.5,-154 96.12,-153.45 94.71,-152.87 93.3,-152.27"/>
<polygon fill="midnightblue" stroke="midnightblue" points="94.61,-149.02 84.05,-148.15 91.76,-155.42 94.61,-149.02"/>
</g>
<!-- Node4 -->
<g id="node4" class="node">
<title>Node4</title>
<g id="a_node4"><a xlink:title=" ">
<polygon fill="white" stroke="#bfbfbf" points="106.5,-129 106.5,-148 156.5,-148 156.5,-129 106.5,-129"/>
<text text-anchor="middle" x="131.5" y="-136" font-family="Helvetica,sans-Serif" font-size="10.00">cstring</text>
</a>
</g>
</g>
<!-- Node1&#45;&gt;Node4 -->
<g id="edge3" class="edge">
<title>Node1&#45;&gt;Node4</title>
<path fill="none" stroke="midnightblue" d="M218.89,-190.48C202.15,-180.71 174.5,-164.58 154.78,-153.08"/>
<polygon fill="midnightblue" stroke="midnightblue" points="156.49,-150.02 146.09,-148.01 152.96,-156.07 156.49,-150.02"/>
</g>
<!-- Node5 -->
<g id="node5" class="node">
<title>Node5</title>
<g id="a_node5"><a xlink:title=" ">
<polygon fill="white" stroke="#bfbfbf" points="175,-129 175,-148 222,-148 222,-129 175,-129"/>
<text text-anchor="middle" x="198.5" y="-136" font-family="Helvetica,sans-Serif" font-size="10.00">vector</text>
</a>
</g>
</g>
<!-- Node1&#45;&gt;Node5 -->
<g id="edge4" class="edge">
<title>Node1&#45;&gt;Node5</title>
<path fill="none" stroke="midnightblue" d="M228.49,-190.48C223.34,-181.73 215.19,-167.87 208.68,-156.81"/>
<polygon fill="midnightblue" stroke="midnightblue" points="211.59,-154.85 203.51,-148.01 205.56,-158.4 211.59,-154.85"/>
</g>
<!-- Node6 -->
<g id="node6" class="node">
<title>Node6</title>
<g id="a_node6"><a xlink:title=" ">
<polygon fill="white" stroke="#bfbfbf" points="240.5,-129 240.5,-148 296.5,-148 296.5,-129 240.5,-129"/>
<text text-anchor="middle" x="268.5" y="-136" font-family="Helvetica,sans-Serif" font-size="10.00">sstream</text>
</a>
</g>
</g>
<!-- Node1&#45;&gt;Node6 -->
<g id="edge5" class="edge">
<title>Node1&#45;&gt;Node6</title>
<path fill="none" stroke="midnightblue" d="M238.51,-190.48C243.66,-181.73 251.81,-167.87 258.32,-156.81"/>
<polygon fill="midnightblue" stroke="midnightblue" points="261.44,-158.4 263.49,-148.01 255.41,-154.85 261.44,-158.4"/>
</g>
<!-- Node7 -->
<g id="node7" class="node">
<title>Node7</title>
<g id="a_node7"><a xlink:title=" ">
<polygon fill="white" stroke="#bfbfbf" points="314.5,-129 314.5,-148 370.5,-148 370.5,-129 314.5,-129"/>
<text text-anchor="middle" x="342.5" y="-136" font-family="Helvetica,sans-Serif" font-size="10.00">iomanip</text>
</a>
</g>
</g>
<!-- Node1&#45;&gt;Node7 -->
<g id="edge6" class="edge">
<title>Node1&#45;&gt;Node7</title>
<path fill="none" stroke="midnightblue" d="M249.12,-190.48C267.09,-180.67 296.82,-164.43 317.91,-152.92"/>
<polygon fill="midnightblue" stroke="midnightblue" points="319.81,-155.87 326.91,-148.01 316.46,-149.73 319.81,-155.87"/>
</g>
<!-- Node8 -->
<g id="node8" class="node">
<title>Node8</title>
<g id="a_node8"><a xlink:title=" ">
<polygon fill="white" stroke="#bfbfbf" points="388.5,-129 388.5,-148 584.5,-148 584.5,-129 388.5,-129"/>
<text text-anchor="middle" x="486.5" y="-136" font-family="Helvetica,sans-Serif" font-size="10.00">sbml/compress/CompressCommon.h</text>
</a>
</g>
</g>
<!-- Node1&#45;&gt;Node8 -->
<g id="edge7" class="edge">
<title>Node1&#45;&gt;Node8</title>
<path fill="none" stroke="midnightblue" d="M269.75,-190.48C314.65,-179.92 391.21,-161.91 440.28,-150.37"/>
<polygon fill="midnightblue" stroke="midnightblue" points="441.39,-153.71 450.32,-148.01 439.78,-146.89 441.39,-153.71"/>
</g>
<!-- Node9 -->
<g id="node9" class="node">
<title>Node9</title>
<g id="a_node9"><a xlink:href="operation_return_values_8h.html" target="_top" xlink:title="Enumeration of values returned by operations within libSBML.">
<polygon fill="white" stroke="black" points="602.5,-123.5 602.5,-153.5 770.5,-153.5 770.5,-123.5 602.5,-123.5"/>
<text text-anchor="start" x="610.5" y="-141.5" font-family="Helvetica,sans-Serif" font-size="10.00">sbml/common/operationReturn</text>
<text text-anchor="middle" x="686.5" y="-130.5" font-family="Helvetica,sans-Serif" font-size="10.00">Values.h</text>
</a>
</g>
</g>
<!-- Node1&#45;&gt;Node9 -->
<g id="edge8" class="edge">
<title>Node1&#45;&gt;Node9</title>
<path fill="none" stroke="midnightblue" d="M292.5,-192.18C361.78,-184.05 480.41,-169.74 592.26,-154.15"/>
<polygon fill="midnightblue" stroke="midnightblue" points="592.95,-157.59 602.37,-152.73 591.98,-150.65 592.95,-157.59"/>
</g>
<!-- Node10 -->
<g id="node10" class="node">
<title>Node10</title>
<g id="a_node10"><a xlink:href="extern_8h.html" target="_top" xlink:title="Definitions of LIBSBML_EXTERN and related things.">
<polygon fill="white" stroke="black" points="332.5,-67.5 332.5,-86.5 462.5,-86.5 462.5,-67.5 332.5,-67.5"/>
<text text-anchor="middle" x="397.5" y="-74.5" font-family="Helvetica,sans-Serif" font-size="10.00">sbml/common/extern.h</text>
</a>
</g>
</g>
<!-- Node9&#45;&gt;Node10 -->
<g id="edge9" class="edge">
<title>Node9&#45;&gt;Node10</title>
<path fill="none" stroke="midnightblue" d="M618.38,-123.47C566.45,-112.78 496.06,-98.29 448.82,-88.57"/>
<polygon fill="midnightblue" stroke="midnightblue" points="449.32,-85.09 438.82,-86.51 447.91,-91.95 449.32,-85.09"/>
</g>
<!-- Node10&#45;&gt;Node2 -->
<g id="edge10" class="edge">
<title>Node10&#45;&gt;Node2</title>
<path fill="none" stroke="midnightblue" d="M349.5,-67.48C293.52,-57.53 200.37,-40.99 135.43,-29.45"/>
<polygon fill="midnightblue" stroke="midnightblue" points="135.72,-25.95 125.26,-27.65 134.49,-32.84 135.72,-25.95"/>
</g>
</g>
</svg>
