<?xml version="1.0" encoding="UTF-8" standalone="no"?>
<!DOCTYPE svg PUBLIC "-//W3C//DTD SVG 1.1//EN"
 "http://www.w3.org/Graphics/SVG/1.1/DTD/svg11.dtd">
<!-- Generated by graphviz version 2.43.0 (0)
 -->
<!-- Title: CompSBasePlugin.h Pages: 1 -->
<!--zoomable 196 -->
<svg id="main" version="1.1" xmlns="http://www.w3.org/2000/svg" xmlns:xlink="http://www.w3.org/1999/xlink" xml:space="preserve" onload="init(evt)">
<style type="text/css"><![CDATA[
.edge:hover path { stroke: red; }
.edge:hover polygon { stroke: red; fill: red; }
]]></style>
<script type="text/javascript"><![CDATA[
var edges = document.getElementsByTagName('g');
if (edges && edges.length) {
  for (var i=0;i<edges.length;i++) {
    if (edges[i].id.substr(0,4)=='edge') {
      edges[i].setAttribute('class','edge');
    }
  }
}
]]></script>
        <defs>
                <circle id="rim" cx="0" cy="0" r="7"/>
                <circle id="rim2" cx="0" cy="0" r="3.5"/>
                <g id="zoomPlus">
                        <use xlink:href="#rim" fill="#404040">
                                <set attributeName="fill" to="#808080" begin="zoomplus.mouseover" end="zoomplus.mouseout"/>
                        </use>
                        <path d="M-4,0h8M0,-4v8" fill="none" stroke="white" stroke-width="1.5" pointer-events="none"/>
                </g>
                <g id="zoomMin">
                        <use xlink:href="#rim" fill="#404040">
                                <set attributeName="fill" to="#808080" begin="zoomminus.mouseover" end="zoomminus.mouseout"/>
                        </use>
                        <path d="M-4,0h8" fill="none" stroke="white" stroke-width="1.5" pointer-events="none"/>
                </g>
                <g id="dirArrow">
                        <path fill="none" stroke="white" stroke-width="1.5" d="M0,-3.0v7 M-2.5,-0.5L0,-3.0L2.5,-0.5"/>
                </g>
               <g id="resetDef">
                       <use xlink:href="#rim2" fill="#404040">
                               <set attributeName="fill" to="#808080" begin="reset.mouseover" end="reset.mouseout"/>
                       </use>
               </g>
        </defs>

<script type="text/javascript">
var viewWidth = 1529;
var viewHeight = 196;
var sectionId = 'dynsection-1';
</script>
<script xlink:href="svgpan.js"/>
<svg id="graph" class="graph">
<g id="viewport">
<title>CompSBasePlugin.h</title>
<polygon fill="white" stroke="transparent" points="-4,4 -4,-192 1524.5,-192 1524.5,4 -4,4"/>
<!-- Node1 -->
<g id="node1" class="node">
<title>Node1</title>
<g id="a_node1"><a xlink:title="Definition of CompSBasePlugin, the plugin class of comp package for the Model element.">
<polygon fill="#bfbfbf" stroke="black" points="1174,-168.5 1174,-187.5 1288,-187.5 1288,-168.5 1174,-168.5"/>
<text text-anchor="middle" x="1231" y="-175.5" font-family="Helvetica,sans-Serif" font-size="10.00">CompSBasePlugin.h</text>
</a>
</g>
</g>
<!-- Node2 -->
<g id="node2" class="node">
<title>Node2</title>
<g id="a_node2"><a xlink:href="_comp_extension_types_8h.html" target="_top" xlink:title="Include all SBML types of Comp extension in a single header file.">
<polygon fill="white" stroke="black" points="0,-56.5 0,-75.5 130,-75.5 130,-56.5 0,-56.5"/>
<text text-anchor="middle" x="65" y="-63.5" font-family="Helvetica,sans-Serif" font-size="10.00">CompExtensionTypes.h</text>
</a>
</g>
</g>
<!-- Node1&#45;&gt;Node2 -->
<g id="edge1" class="edge">
<title>Node1&#45;&gt;Node2</title>
<path fill="none" stroke="midnightblue" d="M1163.59,-173.2C1048.92,-166.5 808.62,-151.43 606,-132 397.91,-112.04 346.53,-101.06 139,-76 136.17,-75.66 133.29,-75.31 130.37,-74.96"/>
<polygon fill="midnightblue" stroke="midnightblue" points="1163.43,-176.7 1173.62,-173.78 1163.84,-169.71 1163.43,-176.7"/>
</g>
<!-- Node5 -->
<g id="node5" class="node">
<title>Node5</title>
<g id="a_node5"><a xlink:href="_comp_extension_8cpp.html" target="_top" xlink:title="Implementation of CompExtension, the core module of comp package.">
<polygon fill="white" stroke="black" points="686.5,-0.5 686.5,-19.5 799.5,-19.5 799.5,-0.5 686.5,-0.5"/>
<text text-anchor="middle" x="743" y="-7.5" font-family="Helvetica,sans-Serif" font-size="10.00">CompExtension.cpp</text>
</a>
</g>
</g>
<!-- Node1&#45;&gt;Node5 -->
<g id="edge4" class="edge">
<title>Node1&#45;&gt;Node5</title>
<path fill="none" stroke="midnightblue" d="M1259.88,-164.16C1305.45,-142.24 1385.22,-96.09 1348,-56 1311.14,-16.3 942.73,-11.35 799.52,-10.93"/>
<polygon fill="midnightblue" stroke="midnightblue" points="1258.3,-161.04 1250.73,-168.46 1261.27,-167.38 1258.3,-161.04"/>
</g>
<!-- Node6 -->
<g id="node6" class="node">
<title>Node6</title>
<g id="a_node6"><a xlink:href="_comp_model_plugin_8h.html" target="_top" xlink:title="Definition of CompModelPlugin, the plugin class of comp package for the Model element.">
<polygon fill="white" stroke="black" points="615,-112.5 615,-131.5 729,-131.5 729,-112.5 615,-112.5"/>
<text text-anchor="middle" x="672" y="-119.5" font-family="Helvetica,sans-Serif" font-size="10.00">CompModelPlugin.h</text>
</a>
</g>
</g>
<!-- Node1&#45;&gt;Node6 -->
<g id="edge5" class="edge">
<title>Node1&#45;&gt;Node6</title>
<path fill="none" stroke="midnightblue" d="M1163.73,-170.5C1052.71,-159.78 833.08,-138.56 729.11,-128.52"/>
<polygon fill="midnightblue" stroke="midnightblue" points="1163.51,-174 1173.8,-171.47 1164.19,-167.03 1163.51,-174"/>
</g>
<!-- Node10 -->
<g id="node10" class="node">
<title>Node10</title>
<g id="a_node10"><a xlink:href="_replaced_by_8cpp.html" target="_top" xlink:title="Implementation of ReplacedBy, the SBaseRef derived class of the comp package.">
<polygon fill="white" stroke="black" points="1105.5,-56.5 1105.5,-75.5 1198.5,-75.5 1198.5,-56.5 1105.5,-56.5"/>
<text text-anchor="middle" x="1152" y="-63.5" font-family="Helvetica,sans-Serif" font-size="10.00">ReplacedBy.cpp</text>
</a>
</g>
</g>
<!-- Node1&#45;&gt;Node10 -->
<g id="edge21" class="edge">
<title>Node1&#45;&gt;Node10</title>
<path fill="none" stroke="midnightblue" d="M1218.76,-159.96C1201.64,-136.12 1171.18,-93.71 1158.17,-75.59"/>
<polygon fill="midnightblue" stroke="midnightblue" points="1216.12,-162.29 1224.8,-168.37 1221.81,-158.2 1216.12,-162.29"/>
</g>
<!-- Node11 -->
<g id="node11" class="node">
<title>Node11</title>
<g id="a_node11"><a xlink:href="_replaced_element_8cpp.html" target="_top" xlink:title="Implementation of ReplacedElement, the SBaseRef derived class of replacedElements package.">
<polygon fill="white" stroke="black" points="1217,-56.5 1217,-75.5 1339,-75.5 1339,-56.5 1217,-56.5"/>
<text text-anchor="middle" x="1278" y="-63.5" font-family="Helvetica,sans-Serif" font-size="10.00">ReplacedElement.cpp</text>
</a>
</g>
</g>
<!-- Node1&#45;&gt;Node11 -->
<g id="edge22" class="edge">
<title>Node1&#45;&gt;Node11</title>
<path fill="none" stroke="midnightblue" d="M1238.69,-159C1248.95,-135 1266.69,-93.47 1274.33,-75.59"/>
<polygon fill="midnightblue" stroke="midnightblue" points="1235.4,-157.8 1234.69,-168.37 1241.84,-160.55 1235.4,-157.8"/>
</g>
<!-- Node16 -->
<g id="node16" class="node">
<title>Node16</title>
<g id="a_node16"><a xlink:href="_comp_s_base_plugin_8cpp.html" target="_top" xlink:title="Implementation of CompSBasePlugin, the plugin class of comp package for the SBase element.">
<polygon fill="white" stroke="black" points="1395.5,-112.5 1395.5,-131.5 1520.5,-131.5 1520.5,-112.5 1395.5,-112.5"/>
<text text-anchor="middle" x="1458" y="-119.5" font-family="Helvetica,sans-Serif" font-size="10.00">CompSBasePlugin.cpp</text>
</a>
</g>
</g>
<!-- Node1&#45;&gt;Node16 -->
<g id="edge20" class="edge">
<title>Node1&#45;&gt;Node16</title>
<path fill="none" stroke="midnightblue" d="M1276.87,-166.09C1319.75,-155.89 1382.92,-140.86 1422.2,-131.52"/>
<polygon fill="midnightblue" stroke="midnightblue" points="1275.89,-162.72 1266.97,-168.44 1277.51,-169.53 1275.89,-162.72"/>
</g>
<!-- Node3 -->
<g id="node3" class="node">
<title>Node3</title>
<g id="a_node3"><a xlink:href="_comp_flattening_converter_8cpp.html" target="_top" xlink:title="Implementation of a first flattening converter.">
<polygon fill="white" stroke="black" points="140,-0.5 140,-19.5 302,-19.5 302,-0.5 140,-0.5"/>
<text text-anchor="middle" x="221" y="-7.5" font-family="Helvetica,sans-Serif" font-size="10.00">CompFlatteningConverter.cpp</text>
</a>
</g>
</g>
<!-- Node2&#45;&gt;Node3 -->
<g id="edge2" class="edge">
<title>Node2&#45;&gt;Node3</title>
<path fill="none" stroke="midnightblue" d="M99.17,-53.17C128.54,-43 170.2,-28.59 196.4,-19.52"/>
<polygon fill="midnightblue" stroke="midnightblue" points="98.02,-49.86 89.72,-56.44 100.31,-56.48 98.02,-49.86"/>
</g>
<!-- Node4 -->
<g id="node4" class="node">
<title>Node4</title>
<g id="a_node4"><a xlink:href="_comp_validator_8cpp.html" target="_top" xlink:title=" ">
<polygon fill="white" stroke="black" points="11,-0.5 11,-19.5 119,-19.5 119,-0.5 11,-0.5"/>
<text text-anchor="middle" x="65" y="-7.5" font-family="Helvetica,sans-Serif" font-size="10.00">CompValidator.cpp</text>
</a>
</g>
</g>
<!-- Node2&#45;&gt;Node4 -->
<g id="edge3" class="edge">
<title>Node2&#45;&gt;Node4</title>
<path fill="none" stroke="midnightblue" d="M65,-45.8C65,-36.91 65,-26.78 65,-19.75"/>
<polygon fill="midnightblue" stroke="midnightblue" points="61.5,-46.08 65,-56.08 68.5,-46.08 61.5,-46.08"/>
</g>
<!-- Node6&#45;&gt;Node2 -->
<g id="edge6" class="edge">
<title>Node6&#45;&gt;Node2</title>
<path fill="none" stroke="midnightblue" d="M604.67,-116.11C503.48,-108.59 306.23,-93.22 139,-76 136.17,-75.71 133.28,-75.4 130.36,-75.08"/>
<polygon fill="midnightblue" stroke="midnightblue" points="604.52,-119.61 614.75,-116.86 605.04,-112.63 604.52,-119.61"/>
</g>
<!-- Node6&#45;&gt;Node5 -->
<g id="edge7" class="edge">
<title>Node6&#45;&gt;Node5</title>
<path fill="none" stroke="midnightblue" d="M694.21,-106.35C704.6,-98.47 716.34,-87.93 724,-76 735.56,-58 740.29,-32.74 742.05,-19.64"/>
<polygon fill="midnightblue" stroke="midnightblue" points="691.99,-103.63 685.92,-112.31 696.08,-109.32 691.99,-103.63"/>
</g>
<!-- Node7 -->
<g id="node7" class="node">
<title>Node7</title>
<g id="a_node7"><a xlink:href="_comp_model_plugin_8cpp.html" target="_top" xlink:title="Implementation of CompModelPlugin, the plugin class of comp package for the SBase element.">
<polygon fill="white" stroke="black" points="771.5,-56.5 771.5,-75.5 896.5,-75.5 896.5,-56.5 771.5,-56.5"/>
<text text-anchor="middle" x="834" y="-63.5" font-family="Helvetica,sans-Serif" font-size="10.00">CompModelPlugin.cpp</text>
</a>
</g>
</g>
<!-- Node6&#45;&gt;Node7 -->
<g id="edge8" class="edge">
<title>Node6&#45;&gt;Node7</title>
<path fill="none" stroke="midnightblue" d="M707.48,-109.17C737.99,-99 781.24,-84.59 808.45,-75.52"/>
<polygon fill="midnightblue" stroke="midnightblue" points="706.05,-105.96 697.67,-112.44 708.26,-112.6 706.05,-105.96"/>
</g>
<!-- Node8 -->
<g id="node8" class="node">
<title>Node8</title>
<g id="a_node8"><a xlink:href="_comp_s_b_m_l_document_plugin_8cpp.html" target="_top" xlink:title="Implementation of CompSBMLDocumentPlugin, the plugin class of comp package for the SBase element.">
<polygon fill="white" stroke="black" points="914.5,-56.5 914.5,-75.5 1087.5,-75.5 1087.5,-56.5 914.5,-56.5"/>
<text text-anchor="middle" x="1001" y="-63.5" font-family="Helvetica,sans-Serif" font-size="10.00">CompSBMLDocumentPlugin.cpp</text>
</a>
</g>
</g>
<!-- Node6&#45;&gt;Node8 -->
<g id="edge9" class="edge">
<title>Node6&#45;&gt;Node8</title>
<path fill="none" stroke="midnightblue" d="M734.2,-110.79C796.37,-100.59 890.86,-85.08 949.11,-75.52"/>
<polygon fill="midnightblue" stroke="midnightblue" points="733.43,-107.37 724.13,-112.44 734.57,-114.28 733.43,-107.37"/>
</g>
<!-- Node9 -->
<g id="node9" class="node">
<title>Node9</title>
<g id="a_node9"><a xlink:href="_comp_base_8cpp.html" target="_top" xlink:title="Implementation of CompBase, the base class of extension entities plugged in SBase derived classes in ...">
<polygon fill="white" stroke="black" points="317.5,-56.5 317.5,-75.5 406.5,-75.5 406.5,-56.5 317.5,-56.5"/>
<text text-anchor="middle" x="362" y="-63.5" font-family="Helvetica,sans-Serif" font-size="10.00">CompBase.cpp</text>
</a>
</g>
</g>
<!-- Node6&#45;&gt;Node9 -->
<g id="edge10" class="edge">
<title>Node6&#45;&gt;Node9</title>
<path fill="none" stroke="midnightblue" d="M612.79,-110.69C552.75,-100.23 461.16,-84.27 406.86,-74.82"/>
<polygon fill="midnightblue" stroke="midnightblue" points="612.43,-114.18 622.88,-112.44 613.63,-107.28 612.43,-114.18"/>
</g>
<!-- Node6&#45;&gt;Node10 -->
<g id="edge11" class="edge">
<title>Node6&#45;&gt;Node10</title>
<path fill="none" stroke="midnightblue" d="M739.17,-114.99C822.89,-107.25 970.27,-92.76 1096,-76 1099.03,-75.6 1102.14,-75.16 1105.28,-74.7"/>
<polygon fill="midnightblue" stroke="midnightblue" points="738.67,-111.52 729.04,-115.93 739.32,-118.49 738.67,-111.52"/>
</g>
<!-- Node6&#45;&gt;Node11 -->
<g id="edge12" class="edge">
<title>Node6&#45;&gt;Node11</title>
<path fill="none" stroke="midnightblue" d="M739.19,-116.26C840.65,-108.9 1038.96,-93.71 1207,-76 1210.21,-75.66 1213.51,-75.3 1216.83,-74.92"/>
<polygon fill="midnightblue" stroke="midnightblue" points="738.8,-112.78 729.08,-116.99 739.31,-119.76 738.8,-112.78"/>
</g>
<!-- Node12 -->
<g id="node12" class="node">
<title>Node12</title>
<g id="a_node12"><a xlink:href="_replacing_8cpp.html" target="_top" xlink:title="Implementation of Replacing, the SBaseRef derived class of Replacings package.">
<polygon fill="white" stroke="black" points="424.5,-56.5 424.5,-75.5 509.5,-75.5 509.5,-56.5 424.5,-56.5"/>
<text text-anchor="middle" x="467" y="-63.5" font-family="Helvetica,sans-Serif" font-size="10.00">Replacing.cpp</text>
</a>
</g>
</g>
<!-- Node6&#45;&gt;Node12 -->
<g id="edge13" class="edge">
<title>Node6&#45;&gt;Node12</title>
<path fill="none" stroke="midnightblue" d="M629.59,-109.83C590.89,-99.63 534.51,-84.78 499.33,-75.52"/>
<polygon fill="midnightblue" stroke="midnightblue" points="628.96,-113.28 639.52,-112.44 630.74,-106.51 628.96,-113.28"/>
</g>
<!-- Node13 -->
<g id="node13" class="node">
<title>Node13</title>
<g id="a_node13"><a xlink:href="_s_base_ref_8cpp.html" target="_top" xlink:title="Implementation of SBaseRef, the SBase&#45;derived class of the comp package.">
<polygon fill="white" stroke="black" points="527.5,-56.5 527.5,-75.5 610.5,-75.5 610.5,-56.5 527.5,-56.5"/>
<text text-anchor="middle" x="569" y="-63.5" font-family="Helvetica,sans-Serif" font-size="10.00">SBaseRef.cpp</text>
</a>
</g>
</g>
<!-- Node6&#45;&gt;Node13 -->
<g id="edge14" class="edge">
<title>Node6&#45;&gt;Node13</title>
<path fill="none" stroke="midnightblue" d="M646.42,-107.59C627.38,-97.61 601.94,-84.27 585.51,-75.65"/>
<polygon fill="midnightblue" stroke="midnightblue" points="644.97,-110.78 655.45,-112.32 648.22,-104.58 644.97,-110.78"/>
</g>
<!-- Node14 -->
<g id="node14" class="node">
<title>Node14</title>
<g id="a_node14"><a xlink:href="_submodel_8cpp.html" target="_top" xlink:title="Implementation of Submodel, the SBase&#45;derived class of the comp package.">
<polygon fill="white" stroke="black" points="629,-56.5 629,-75.5 715,-75.5 715,-56.5 629,-56.5"/>
<text text-anchor="middle" x="672" y="-63.5" font-family="Helvetica,sans-Serif" font-size="10.00">Submodel.cpp</text>
</a>
</g>
</g>
<!-- Node6&#45;&gt;Node14 -->
<g id="edge15" class="edge">
<title>Node6&#45;&gt;Node14</title>
<path fill="none" stroke="midnightblue" d="M672,-101.8C672,-92.91 672,-82.78 672,-75.75"/>
<polygon fill="midnightblue" stroke="midnightblue" points="668.5,-102.08 672,-112.08 675.5,-102.08 668.5,-102.08"/>
</g>
<!-- Node15 -->
<g id="node15" class="node">
<title>Node15</title>
<g id="a_node15"><a xlink:href="_comp_flattening_converter_8h.html" target="_top" xlink:title="Definition of a first flattening converter.">
<polygon fill="white" stroke="black" points="148.5,-56.5 148.5,-75.5 299.5,-75.5 299.5,-56.5 148.5,-56.5"/>
<text text-anchor="middle" x="224" y="-63.5" font-family="Helvetica,sans-Serif" font-size="10.00">CompFlatteningConverter.h</text>
</a>
</g>
</g>
<!-- Node6&#45;&gt;Node15 -->
<g id="edge16" class="edge">
<title>Node6&#45;&gt;Node15</title>
<path fill="none" stroke="midnightblue" d="M604.67,-113.47C519.44,-103.49 373.77,-85.94 289.45,-75.5"/>
<polygon fill="midnightblue" stroke="midnightblue" points="604.41,-116.96 614.75,-114.65 605.23,-110.01 604.41,-116.96"/>
</g>
<!-- Node15&#45;&gt;Node3 -->
<g id="edge19" class="edge">
<title>Node15&#45;&gt;Node3</title>
<path fill="none" stroke="midnightblue" d="M222.93,-45.8C222.44,-36.91 221.88,-26.78 221.49,-19.75"/>
<polygon fill="midnightblue" stroke="midnightblue" points="219.46,-46.29 223.5,-56.08 226.44,-45.9 219.46,-46.29"/>
</g>
<!-- Node15&#45;&gt;Node5 -->
<g id="edge17" class="edge">
<title>Node15&#45;&gt;Node5</title>
<path fill="none" stroke="midnightblue" d="M309.72,-55.82C451.16,-40.94 605.26,-25.1 686.34,-16.79"/>
<polygon fill="midnightblue" stroke="midnightblue" points="309.13,-52.36 299.55,-56.89 309.87,-59.33 309.13,-52.36"/>
</g>
<!-- Node15&#45;&gt;Node6 -->
<g id="edge18" class="edge">
<title>Node15&#45;&gt;Node6</title>
<path fill="none" stroke="midnightblue" d="M309.83,-76.7C399.42,-87.26 537.28,-103.89 614.55,-113.49"/>
<polygon fill="midnightblue" stroke="midnightblue" points="310.04,-73.2 299.7,-75.51 309.22,-80.16 310.04,-73.2"/>
</g>
</g>
</svg>
        <g id="navigator" transform="translate(0 0)" fill="#404254">
                <rect fill="#f2f5e9" fill-opacity="0.5" stroke="#606060" stroke-width=".5" x="0" y="0" width="60" height="60"/>
                <use id="zoomplus" xlink:href="#zoomPlus" x="17" y="9" onmousedown="handleZoom(evt,'in')"/>
                <use id="zoomminus" xlink:href="#zoomMin" x="42" y="9" onmousedown="handleZoom(evt,'out')"/>
                <use id="reset" xlink:href="#resetDef" x="30" y="36" onmousedown="handleReset()"/>
                <g id="arrowUp" xlink:href="#dirArrow" transform="translate(30 24)" onmousedown="handlePan(0,-1)">
                  <use xlink:href="#rim" fill="#404040">
                        <set attributeName="fill" to="#808080" begin="arrowUp.mouseover" end="arrowUp.mouseout"/>
                  </use>
                  <path fill="none" stroke="white" stroke-width="1.5" d="M0,-3.0v7 M-2.5,-0.5L0,-3.0L2.5,-0.5"/>
                </g>
                <g id="arrowRight" xlink:href="#dirArrow" transform="rotate(90) translate(36 -43)" onmousedown="handlePan(1,0)">
                  <use xlink:href="#rim" fill="#404040">
                        <set attributeName="fill" to="#808080" begin="arrowRight.mouseover" end="arrowRight.mouseout"/>
                  </use>
                  <path fill="none" stroke="white" stroke-width="1.5" d="M0,-3.0v7 M-2.5,-0.5L0,-3.0L2.5,-0.5"/>
                </g>
                <g id="arrowDown" xlink:href="#dirArrow" transform="rotate(180) translate(-30 -48)" onmousedown="handlePan(0,1)">
                  <use xlink:href="#rim" fill="#404040">
                        <set attributeName="fill" to="#808080" begin="arrowDown.mouseover" end="arrowDown.mouseout"/>
                  </use>
                  <path fill="none" stroke="white" stroke-width="1.5" d="M0,-3.0v7 M-2.5,-0.5L0,-3.0L2.5,-0.5"/>
                </g>
                <g id="arrowLeft" xlink:href="#dirArrow" transform="rotate(270) translate(-36 17)" onmousedown="handlePan(-1,0)">
                  <use xlink:href="#rim" fill="#404040">
                        <set attributeName="fill" to="#808080" begin="arrowLeft.mouseover" end="arrowLeft.mouseout"/>
                  </use>
                  <path fill="none" stroke="white" stroke-width="1.5" d="M0,-3.0v7 M-2.5,-0.5L0,-3.0L2.5,-0.5"/>
                </g>
        </g>
        <svg viewBox="0 0 15 15" width="100%" height="30px" preserveAspectRatio="xMaxYMin meet">
         <g id="arrow_out" transform="scale(0.3 0.3)">
          <a xlink:href="_comp_s_base_plugin_8h__dep__incl_org.svg" target="_base">
           <rect id="button" ry="5" rx="5" y="6" x="6" height="38" width="38"
                fill="#f2f5e9" fill-opacity="0.5" stroke="#606060" stroke-width="1.0"/>
           <path id="arrow"
             d="M 11.500037,31.436501 C 11.940474,20.09759 22.043105,11.32322 32.158766,21.979434 L 37.068811,17.246167 C 37.068811,17.246167 37.088388,32 37.088388,32 L 22.160133,31.978069 C 22.160133,31.978069 26.997745,27.140456 26.997745,27.140456 C 18.528582,18.264221 13.291696,25.230495 11.500037,31.436501 z"
             style="fill:#404040;"/>
          </a>
         </g>
        </svg>
</svg>
