<?xml version="1.0" encoding="UTF-8" standalone="no"?>
<!DOCTYPE svg PUBLIC "-//W3C//DTD SVG 1.1//EN"
 "http://www.w3.org/Graphics/SVG/1.1/DTD/svg11.dtd">
<!-- Generated by graphviz version 2.43.0 (0)
 -->
<!-- Title: CompFlatteningConverter.h Pages: 1 -->
<svg width="1287pt" height="196pt"
 viewBox="0.00 0.00 1286.53 196.00" xmlns="http://www.w3.org/2000/svg" xmlns:xlink="http://www.w3.org/1999/xlink">
<g id="graph0" class="graph" transform="scale(1 1) rotate(0) translate(4 192)">
<title>CompFlatteningConverter.h</title>
<polygon fill="white" stroke="transparent" points="-4,4 -4,-192 1282.53,-192 1282.53,4 -4,4"/>
<!-- Node1 -->
<g id="node1" class="node">
<title>Node1</title>
<g id="a_node1"><a xlink:title="Definition of a first flattening converter.">
<polygon fill="#bfbfbf" stroke="black" points="637,-168.5 637,-187.5 788,-187.5 788,-168.5 637,-168.5"/>
<text text-anchor="middle" x="712.5" y="-175.5" font-family="Helvetica,sans-Serif" font-size="10.00">CompFlatteningConverter.h</text>
</a>
</g>
</g>
<!-- Node2 -->
<g id="node2" class="node">
<title>Node2</title>
<g id="a_node2"><a xlink:href="_comp_extension_8cpp.html" target="_top" xlink:title="Implementation of CompExtension, the core module of comp package.">
<polygon fill="white" stroke="black" points="0,-56.5 0,-75.5 113,-75.5 113,-56.5 0,-56.5"/>
<text text-anchor="middle" x="56.5" y="-63.5" font-family="Helvetica,sans-Serif" font-size="10.00">CompExtension.cpp</text>
</a>
</g>
</g>
<!-- Node1&#45;&gt;Node2 -->
<g id="edge1" class="edge">
<title>Node1&#45;&gt;Node2</title>
<path fill="none" stroke="midnightblue" d="M651.51,-166.77C523.01,-145.23 226.51,-95.51 107.4,-75.53"/>
<polygon fill="midnightblue" stroke="midnightblue" points="651.13,-170.26 661.57,-168.46 652.29,-163.35 651.13,-170.26"/>
</g>
<!-- Node3 -->
<g id="node3" class="node">
<title>Node3</title>
<g id="a_node3"><a xlink:href="_comp_model_plugin_8h.html" target="_top" xlink:title="Definition of CompModelPlugin, the plugin class of comp package for the Model element.">
<polygon fill="white" stroke="black" points="655.5,-112.5 655.5,-131.5 769.5,-131.5 769.5,-112.5 655.5,-112.5"/>
<text text-anchor="middle" x="712.5" y="-119.5" font-family="Helvetica,sans-Serif" font-size="10.00">CompModelPlugin.h</text>
</a>
</g>
</g>
<!-- Node1&#45;&gt;Node3 -->
<g id="edge2" class="edge">
<title>Node1&#45;&gt;Node3</title>
<path fill="none" stroke="midnightblue" d="M706.03,-158.1C705.4,-149.14 705.84,-138.86 707.37,-131.75"/>
<polygon fill="midnightblue" stroke="midnightblue" points="702.57,-158.62 707.33,-168.08 709.51,-157.71 702.57,-158.62"/>
</g>
<!-- Node5 -->
<g id="node5" class="node">
<title>Node5</title>
<g id="a_node5"><a xlink:href="_comp_flattening_converter_8cpp.html" target="_top" xlink:title="Implementation of a first flattening converter.">
<polygon fill="white" stroke="black" points="739.5,-0.5 739.5,-19.5 901.5,-19.5 901.5,-0.5 739.5,-0.5"/>
<text text-anchor="middle" x="820.5" y="-7.5" font-family="Helvetica,sans-Serif" font-size="10.00">CompFlatteningConverter.cpp</text>
</a>
</g>
</g>
<!-- Node1&#45;&gt;Node5 -->
<g id="edge16" class="edge">
<title>Node1&#45;&gt;Node5</title>
<path fill="none" stroke="midnightblue" d="M798.44,-174.45C940.14,-168.22 1213.09,-147.09 1272.5,-76 1321.15,-17.79 1044.46,-10.29 901.67,-10.21"/>
<polygon fill="midnightblue" stroke="midnightblue" points="797.9,-170.97 788.06,-174.89 798.2,-177.96 797.9,-170.97"/>
</g>
<!-- Node3&#45;&gt;Node1 -->
<g id="edge15" class="edge">
<title>Node3&#45;&gt;Node1</title>
<path fill="none" stroke="midnightblue" d="M718.96,-141.69C719.61,-150.64 719.18,-160.93 717.67,-168.08"/>
<polygon fill="midnightblue" stroke="midnightblue" points="722.42,-141.2 717.63,-131.75 715.48,-142.13 722.42,-141.2"/>
</g>
<!-- Node3&#45;&gt;Node2 -->
<g id="edge6" class="edge">
<title>Node3&#45;&gt;Node2</title>
<path fill="none" stroke="midnightblue" d="M645.19,-117.17C535.52,-110.64 311.52,-96.08 122.5,-76 119.51,-75.68 116.45,-75.34 113.36,-74.97"/>
<polygon fill="midnightblue" stroke="midnightblue" points="645.25,-120.68 655.44,-117.78 645.67,-113.69 645.25,-120.68"/>
</g>
<!-- Node4 -->
<g id="node4" class="node">
<title>Node4</title>
<g id="a_node4"><a xlink:href="_comp_extension_types_8h.html" target="_top" xlink:title="Include all SBML types of Comp extension in a single header file.">
<polygon fill="white" stroke="black" points="131.5,-56.5 131.5,-75.5 261.5,-75.5 261.5,-56.5 131.5,-56.5"/>
<text text-anchor="middle" x="196.5" y="-63.5" font-family="Helvetica,sans-Serif" font-size="10.00">CompExtensionTypes.h</text>
</a>
</g>
</g>
<!-- Node3&#45;&gt;Node4 -->
<g id="edge3" class="edge">
<title>Node3&#45;&gt;Node4</title>
<path fill="none" stroke="midnightblue" d="M645.28,-114.57C558.6,-106.18 403.23,-90.83 270.5,-76 267.67,-75.68 264.78,-75.36 261.86,-75.02"/>
<polygon fill="midnightblue" stroke="midnightblue" points="644.96,-118.05 655.25,-115.53 645.63,-111.09 644.96,-118.05"/>
</g>
<!-- Node7 -->
<g id="node7" class="node">
<title>Node7</title>
<g id="a_node7"><a xlink:href="_comp_model_plugin_8cpp.html" target="_top" xlink:title="Implementation of CompModelPlugin, the plugin class of comp package for the SBase element.">
<polygon fill="white" stroke="black" points="280,-56.5 280,-75.5 405,-75.5 405,-56.5 280,-56.5"/>
<text text-anchor="middle" x="342.5" y="-63.5" font-family="Helvetica,sans-Serif" font-size="10.00">CompModelPlugin.cpp</text>
</a>
</g>
</g>
<!-- Node3&#45;&gt;Node7 -->
<g id="edge7" class="edge">
<title>Node3&#45;&gt;Node7</title>
<path fill="none" stroke="midnightblue" d="M645.48,-111.22C575.61,-101.02 467.22,-85.2 400.79,-75.51"/>
<polygon fill="midnightblue" stroke="midnightblue" points="645.1,-114.7 655.5,-112.68 646.11,-107.77 645.1,-114.7"/>
</g>
<!-- Node8 -->
<g id="node8" class="node">
<title>Node8</title>
<g id="a_node8"><a xlink:href="_comp_s_b_m_l_document_plugin_8cpp.html" target="_top" xlink:title="Implementation of CompSBMLDocumentPlugin, the plugin class of comp package for the SBase element.">
<polygon fill="white" stroke="black" points="423,-56.5 423,-75.5 596,-75.5 596,-56.5 423,-56.5"/>
<text text-anchor="middle" x="509.5" y="-63.5" font-family="Helvetica,sans-Serif" font-size="10.00">CompSBMLDocumentPlugin.cpp</text>
</a>
</g>
</g>
<!-- Node3&#45;&gt;Node8 -->
<g id="edge8" class="edge">
<title>Node3&#45;&gt;Node8</title>
<path fill="none" stroke="midnightblue" d="M670.51,-109.83C632.18,-99.63 576.35,-84.78 541.52,-75.52"/>
<polygon fill="midnightblue" stroke="midnightblue" points="669.77,-113.26 680.33,-112.44 671.57,-106.49 669.77,-113.26"/>
</g>
<!-- Node9 -->
<g id="node9" class="node">
<title>Node9</title>
<g id="a_node9"><a xlink:href="_comp_base_8cpp.html" target="_top" xlink:title="Implementation of CompBase, the base class of extension entities plugged in SBase derived classes in ...">
<polygon fill="white" stroke="black" points="614,-56.5 614,-75.5 703,-75.5 703,-56.5 614,-56.5"/>
<text text-anchor="middle" x="658.5" y="-63.5" font-family="Helvetica,sans-Serif" font-size="10.00">CompBase.cpp</text>
</a>
</g>
</g>
<!-- Node3&#45;&gt;Node9 -->
<g id="edge9" class="edge">
<title>Node3&#45;&gt;Node9</title>
<path fill="none" stroke="midnightblue" d="M696.5,-105C686.93,-95.43 675.14,-83.64 667.25,-75.75"/>
<polygon fill="midnightblue" stroke="midnightblue" points="694.04,-107.49 703.58,-112.08 698.99,-102.54 694.04,-107.49"/>
</g>
<!-- Node10 -->
<g id="node10" class="node">
<title>Node10</title>
<g id="a_node10"><a xlink:href="_replaced_by_8cpp.html" target="_top" xlink:title="Implementation of ReplacedBy, the SBaseRef derived class of the comp package.">
<polygon fill="white" stroke="black" points="721,-56.5 721,-75.5 814,-75.5 814,-56.5 721,-56.5"/>
<text text-anchor="middle" x="767.5" y="-63.5" font-family="Helvetica,sans-Serif" font-size="10.00">ReplacedBy.cpp</text>
</a>
</g>
</g>
<!-- Node3&#45;&gt;Node10 -->
<g id="edge10" class="edge">
<title>Node3&#45;&gt;Node10</title>
<path fill="none" stroke="midnightblue" d="M728.79,-105C738.54,-95.43 750.55,-83.64 758.59,-75.75"/>
<polygon fill="midnightblue" stroke="midnightblue" points="726.27,-102.58 721.58,-112.08 731.17,-107.57 726.27,-102.58"/>
</g>
<!-- Node11 -->
<g id="node11" class="node">
<title>Node11</title>
<g id="a_node11"><a xlink:href="_replaced_element_8cpp.html" target="_top" xlink:title="Implementation of ReplacedElement, the SBaseRef derived class of replacedElements package.">
<polygon fill="white" stroke="black" points="832.5,-56.5 832.5,-75.5 954.5,-75.5 954.5,-56.5 832.5,-56.5"/>
<text text-anchor="middle" x="893.5" y="-63.5" font-family="Helvetica,sans-Serif" font-size="10.00">ReplacedElement.cpp</text>
</a>
</g>
</g>
<!-- Node3&#45;&gt;Node11 -->
<g id="edge11" class="edge">
<title>Node3&#45;&gt;Node11</title>
<path fill="none" stroke="midnightblue" d="M750.82,-109.57C784.96,-99.38 834.16,-84.7 864.95,-75.52"/>
<polygon fill="midnightblue" stroke="midnightblue" points="749.76,-106.23 741.18,-112.44 751.76,-112.94 749.76,-106.23"/>
</g>
<!-- Node12 -->
<g id="node12" class="node">
<title>Node12</title>
<g id="a_node12"><a xlink:href="_replacing_8cpp.html" target="_top" xlink:title="Implementation of Replacing, the SBaseRef derived class of Replacings package.">
<polygon fill="white" stroke="black" points="973,-56.5 973,-75.5 1058,-75.5 1058,-56.5 973,-56.5"/>
<text text-anchor="middle" x="1015.5" y="-63.5" font-family="Helvetica,sans-Serif" font-size="10.00">Replacing.cpp</text>
</a>
</g>
</g>
<!-- Node3&#45;&gt;Node12 -->
<g id="edge12" class="edge">
<title>Node3&#45;&gt;Node12</title>
<path fill="none" stroke="midnightblue" d="M770.43,-110.68C829.48,-100.15 919.69,-84.08 972.61,-74.64"/>
<polygon fill="midnightblue" stroke="midnightblue" points="769.74,-107.24 760.51,-112.44 770.97,-114.13 769.74,-107.24"/>
</g>
<!-- Node13 -->
<g id="node13" class="node">
<title>Node13</title>
<g id="a_node13"><a xlink:href="_s_base_ref_8cpp.html" target="_top" xlink:title="Implementation of SBaseRef, the SBase&#45;derived class of the comp package.">
<polygon fill="white" stroke="black" points="1076,-56.5 1076,-75.5 1159,-75.5 1159,-56.5 1076,-56.5"/>
<text text-anchor="middle" x="1117.5" y="-63.5" font-family="Helvetica,sans-Serif" font-size="10.00">SBaseRef.cpp</text>
</a>
</g>
</g>
<!-- Node3&#45;&gt;Node13 -->
<g id="edge13" class="edge">
<title>Node3&#45;&gt;Node13</title>
<path fill="none" stroke="midnightblue" d="M779.83,-113.42C851.15,-105.16 966.96,-91.1 1066.5,-76 1069.52,-75.54 1072.64,-75.05 1075.78,-74.53"/>
<polygon fill="midnightblue" stroke="midnightblue" points="779.17,-109.97 769.64,-114.6 779.97,-116.93 779.17,-109.97"/>
</g>
<!-- Node14 -->
<g id="node14" class="node">
<title>Node14</title>
<g id="a_node14"><a xlink:href="_submodel_8cpp.html" target="_top" xlink:title="Implementation of Submodel, the SBase&#45;derived class of the comp package.">
<polygon fill="white" stroke="black" points="1177.5,-56.5 1177.5,-75.5 1263.5,-75.5 1263.5,-56.5 1177.5,-56.5"/>
<text text-anchor="middle" x="1220.5" y="-63.5" font-family="Helvetica,sans-Serif" font-size="10.00">Submodel.cpp</text>
</a>
</g>
</g>
<!-- Node3&#45;&gt;Node14 -->
<g id="edge14" class="edge">
<title>Node3&#45;&gt;Node14</title>
<path fill="none" stroke="midnightblue" d="M779.98,-115.8C868.96,-108.61 1030.34,-94.41 1167.5,-76 1170.74,-75.57 1174.08,-75.08 1177.44,-74.57"/>
<polygon fill="midnightblue" stroke="midnightblue" points="779.44,-112.34 769.75,-116.62 780,-119.31 779.44,-112.34"/>
</g>
<!-- Node4&#45;&gt;Node5 -->
<g id="edge4" class="edge">
<title>Node4&#45;&gt;Node5</title>
<path fill="none" stroke="midnightblue" d="M271.87,-55.9C444.22,-38.53 633.99,-24.18 739.33,-16.64"/>
<polygon fill="midnightblue" stroke="midnightblue" points="271.45,-52.42 261.85,-56.91 272.16,-59.38 271.45,-52.42"/>
</g>
<!-- Node6 -->
<g id="node6" class="node">
<title>Node6</title>
<g id="a_node6"><a xlink:href="_comp_validator_8cpp.html" target="_top" xlink:title=" ">
<polygon fill="white" stroke="black" points="142.5,-0.5 142.5,-19.5 250.5,-19.5 250.5,-0.5 142.5,-0.5"/>
<text text-anchor="middle" x="196.5" y="-7.5" font-family="Helvetica,sans-Serif" font-size="10.00">CompValidator.cpp</text>
</a>
</g>
</g>
<!-- Node4&#45;&gt;Node6 -->
<g id="edge5" class="edge">
<title>Node4&#45;&gt;Node6</title>
<path fill="none" stroke="midnightblue" d="M196.5,-45.8C196.5,-36.91 196.5,-26.78 196.5,-19.75"/>
<polygon fill="midnightblue" stroke="midnightblue" points="193,-46.08 196.5,-56.08 200,-46.08 193,-46.08"/>
</g>
</g>
</svg>
