<?xml version="1.0" encoding="UTF-8" standalone="no"?>
<!DOCTYPE svg PUBLIC "-//W3C//DTD SVG 1.1//EN"
 "http://www.w3.org/Graphics/SVG/1.1/DTD/svg11.dtd">
<!-- Generated by graphviz version 2.43.0 (0)
 -->
<!-- Title: CompressionUtil.h Pages: 1 -->
<svg width="369pt" height="84pt"
 viewBox="0.00 0.00 369.00 84.00" xmlns="http://www.w3.org/2000/svg" xmlns:xlink="http://www.w3.org/1999/xlink">
<g id="graph0" class="graph" transform="scale(1 1) rotate(0) translate(4 80)">
<title>CompressionUtil.h</title>
<polygon fill="white" stroke="transparent" points="-4,4 -4,-80 365,-80 365,4 -4,4"/>
<!-- Node1 -->
<g id="node1" class="node">
<title>Node1</title>
<g id="a_node1"><a xlink:title="Functions useful for various compression algorithms.">
<polygon fill="#bfbfbf" stroke="black" points="137,-56.5 137,-75.5 244,-75.5 244,-56.5 137,-56.5"/>
<text text-anchor="middle" x="190.5" y="-63.5" font-family="Helvetica,sans-Serif" font-size="10.00">CompressionUtil.h</text>
</a>
</g>
</g>
<!-- Node2 -->
<g id="node2" class="node">
<title>Node2</title>
<g id="a_node2"><a xlink:href="_parametric_object_8cpp.html" target="_top" xlink:title="Implementation of the ParametricObject class.">
<polygon fill="white" stroke="black" points="0,-0.5 0,-19.5 121,-19.5 121,-0.5 0,-0.5"/>
<text text-anchor="middle" x="60.5" y="-7.5" font-family="Helvetica,sans-Serif" font-size="10.00">ParametricObject.cpp</text>
</a>
</g>
</g>
<!-- Node1&#45;&gt;Node2 -->
<g id="edge1" class="edge">
<title>Node1&#45;&gt;Node2</title>
<path fill="none" stroke="midnightblue" d="M160.41,-52.5C136.04,-42.38 102.36,-28.39 81,-19.52"/>
<polygon fill="midnightblue" stroke="midnightblue" points="159.32,-55.84 169.9,-56.44 162.01,-49.38 159.32,-55.84"/>
</g>
<!-- Node3 -->
<g id="node3" class="node">
<title>Node3</title>
<g id="a_node3"><a xlink:href="_sampled_field_8cpp.html" target="_top" xlink:title="Implementation of the SampledField class.">
<polygon fill="white" stroke="black" points="139,-0.5 139,-19.5 242,-19.5 242,-0.5 139,-0.5"/>
<text text-anchor="middle" x="190.5" y="-7.5" font-family="Helvetica,sans-Serif" font-size="10.00">SampledField.cpp</text>
</a>
</g>
</g>
<!-- Node1&#45;&gt;Node3 -->
<g id="edge2" class="edge">
<title>Node1&#45;&gt;Node3</title>
<path fill="none" stroke="midnightblue" d="M190.5,-45.8C190.5,-36.91 190.5,-26.78 190.5,-19.75"/>
<polygon fill="midnightblue" stroke="midnightblue" points="187,-46.08 190.5,-56.08 194,-46.08 187,-46.08"/>
</g>
<!-- Node4 -->
<g id="node4" class="node">
<title>Node4</title>
<g id="a_node4"><a xlink:href="_spatial_points_8cpp.html" target="_top" xlink:title="Implementation of the SpatialPoints class.">
<polygon fill="white" stroke="black" points="260,-0.5 260,-19.5 361,-19.5 361,-0.5 260,-0.5"/>
<text text-anchor="middle" x="310.5" y="-7.5" font-family="Helvetica,sans-Serif" font-size="10.00">SpatialPoints.cpp</text>
</a>
</g>
</g>
<!-- Node1&#45;&gt;Node4 -->
<g id="edge3" class="edge">
<title>Node1&#45;&gt;Node4</title>
<path fill="none" stroke="midnightblue" d="M218.87,-52.23C241.32,-42.13 272.04,-28.31 291.57,-19.52"/>
<polygon fill="midnightblue" stroke="midnightblue" points="217.2,-49.15 209.51,-56.44 220.07,-55.53 217.2,-49.15"/>
</g>
</g>
</svg>
