<?xml version="1.0" encoding="UTF-8" standalone="no"?>
<!DOCTYPE svg PUBLIC "-//W3C//DTD SVG 1.1//EN"
 "http://www.w3.org/Graphics/SVG/1.1/DTD/svg11.dtd">
<!-- Generated by graphviz version 2.43.0 (0)
 -->
<!-- Title: CompSBMLDocumentPlugin.h Pages: 1 -->
<svg width="830pt" height="140pt"
 viewBox="0.00 0.00 830.00 140.00" xmlns="http://www.w3.org/2000/svg" xmlns:xlink="http://www.w3.org/1999/xlink">
<g id="graph0" class="graph" transform="scale(1 1) rotate(0) translate(4 136)">
<title>CompSBMLDocumentPlugin.h</title>
<polygon fill="white" stroke="transparent" points="-4,4 -4,-136 826,-136 826,4 -4,4"/>
<!-- Node1 -->
<g id="node1" class="node">
<title>Node1</title>
<g id="a_node1"><a xlink:title="Definition of CompSBMLDocumentPlugin, the plugin class of comp package for the Model element.">
<polygon fill="#bfbfbf" stroke="black" points="377.5,-112.5 377.5,-131.5 538.5,-131.5 538.5,-112.5 377.5,-112.5"/>
<text text-anchor="middle" x="458" y="-119.5" font-family="Helvetica,sans-Serif" font-size="10.00">CompSBMLDocumentPlugin.h</text>
</a>
</g>
</g>
<!-- Node2 -->
<g id="node2" class="node">
<title>Node2</title>
<g id="a_node2"><a xlink:href="_comp_extension_types_8h.html" target="_top" xlink:title="Include all SBML types of Comp extension in a single header file.">
<polygon fill="white" stroke="black" points="92,-56.5 92,-75.5 222,-75.5 222,-56.5 92,-56.5"/>
<text text-anchor="middle" x="157" y="-63.5" font-family="Helvetica,sans-Serif" font-size="10.00">CompExtensionTypes.h</text>
</a>
</g>
</g>
<!-- Node1&#45;&gt;Node2 -->
<g id="edge1" class="edge">
<title>Node1&#45;&gt;Node2</title>
<path fill="none" stroke="midnightblue" d="M400.39,-110.66C343.5,-100.46 257.55,-85.04 204.47,-75.52"/>
<polygon fill="midnightblue" stroke="midnightblue" points="399.84,-114.12 410.31,-112.44 401.08,-107.23 399.84,-114.12"/>
</g>
<!-- Node5 -->
<g id="node5" class="node">
<title>Node5</title>
<g id="a_node5"><a xlink:href="_comp_extension_8cpp.html" target="_top" xlink:title="Implementation of CompExtension, the core module of comp package.">
<polygon fill="white" stroke="black" points="240.5,-56.5 240.5,-75.5 353.5,-75.5 353.5,-56.5 240.5,-56.5"/>
<text text-anchor="middle" x="297" y="-63.5" font-family="Helvetica,sans-Serif" font-size="10.00">CompExtension.cpp</text>
</a>
</g>
</g>
<!-- Node1&#45;&gt;Node5 -->
<g id="edge4" class="edge">
<title>Node1&#45;&gt;Node5</title>
<path fill="none" stroke="midnightblue" d="M422.74,-109.17C392.42,-99 349.43,-84.59 322.39,-75.52"/>
<polygon fill="midnightblue" stroke="midnightblue" points="421.9,-112.58 432.49,-112.44 424.12,-105.95 421.9,-112.58"/>
</g>
<!-- Node6 -->
<g id="node6" class="node">
<title>Node6</title>
<g id="a_node6"><a xlink:href="_comp_s_b_m_l_document_plugin_8cpp.html" target="_top" xlink:title="Implementation of CompSBMLDocumentPlugin, the plugin class of comp package for the SBase element.">
<polygon fill="white" stroke="black" points="371.5,-56.5 371.5,-75.5 544.5,-75.5 544.5,-56.5 371.5,-56.5"/>
<text text-anchor="middle" x="458" y="-63.5" font-family="Helvetica,sans-Serif" font-size="10.00">CompSBMLDocumentPlugin.cpp</text>
</a>
</g>
</g>
<!-- Node1&#45;&gt;Node6 -->
<g id="edge5" class="edge">
<title>Node1&#45;&gt;Node6</title>
<path fill="none" stroke="midnightblue" d="M458,-101.8C458,-92.91 458,-82.78 458,-75.75"/>
<polygon fill="midnightblue" stroke="midnightblue" points="454.5,-102.08 458,-112.08 461.5,-102.08 454.5,-102.08"/>
</g>
<!-- Node7 -->
<g id="node7" class="node">
<title>Node7</title>
<g id="a_node7"><a xlink:href="_external_model_definition_8cpp.html" target="_top" xlink:title="Implementation of ExternalModelDefinition, the SBase&#45;derived class of the comp package.">
<polygon fill="white" stroke="black" points="562.5,-56.5 562.5,-75.5 717.5,-75.5 717.5,-56.5 562.5,-56.5"/>
<text text-anchor="middle" x="640" y="-63.5" font-family="Helvetica,sans-Serif" font-size="10.00">ExternalModelDefinition.cpp</text>
</a>
</g>
</g>
<!-- Node1&#45;&gt;Node7 -->
<g id="edge6" class="edge">
<title>Node1&#45;&gt;Node7</title>
<path fill="none" stroke="midnightblue" d="M496.53,-109.57C530.86,-99.38 580.33,-84.7 611.3,-75.52"/>
<polygon fill="midnightblue" stroke="midnightblue" points="495.43,-106.24 486.84,-112.44 497.42,-112.95 495.43,-106.24"/>
</g>
<!-- Node8 -->
<g id="node8" class="node">
<title>Node8</title>
<g id="a_node8"><a xlink:href="_submodel_8cpp.html" target="_top" xlink:title="Implementation of Submodel, the SBase&#45;derived class of the comp package.">
<polygon fill="white" stroke="black" points="736,-56.5 736,-75.5 822,-75.5 822,-56.5 736,-56.5"/>
<text text-anchor="middle" x="779" y="-63.5" font-family="Helvetica,sans-Serif" font-size="10.00">Submodel.cpp</text>
</a>
</g>
</g>
<!-- Node1&#45;&gt;Node8 -->
<g id="edge7" class="edge">
<title>Node1&#45;&gt;Node8</title>
<path fill="none" stroke="midnightblue" d="M519.78,-110.77C574.31,-101.71 655.96,-88.09 727,-76 729.89,-75.51 732.87,-75 735.87,-74.48"/>
<polygon fill="midnightblue" stroke="midnightblue" points="518.88,-107.37 509.58,-112.46 520.02,-114.27 518.88,-107.37"/>
</g>
<!-- Node3 -->
<g id="node3" class="node">
<title>Node3</title>
<g id="a_node3"><a xlink:href="_comp_flattening_converter_8cpp.html" target="_top" xlink:title="Implementation of a first flattening converter.">
<polygon fill="white" stroke="black" points="0,-0.5 0,-19.5 162,-19.5 162,-0.5 0,-0.5"/>
<text text-anchor="middle" x="81" y="-7.5" font-family="Helvetica,sans-Serif" font-size="10.00">CompFlatteningConverter.cpp</text>
</a>
</g>
</g>
<!-- Node2&#45;&gt;Node3 -->
<g id="edge2" class="edge">
<title>Node2&#45;&gt;Node3</title>
<path fill="none" stroke="midnightblue" d="M136.42,-50.38C122.69,-40.62 105.07,-28.11 93.43,-19.83"/>
<polygon fill="midnightblue" stroke="midnightblue" points="134.61,-53.38 144.79,-56.32 138.66,-47.68 134.61,-53.38"/>
</g>
<!-- Node4 -->
<g id="node4" class="node">
<title>Node4</title>
<g id="a_node4"><a xlink:href="_comp_validator_8cpp.html" target="_top" xlink:title=" ">
<polygon fill="white" stroke="black" points="180,-0.5 180,-19.5 288,-19.5 288,-0.5 180,-0.5"/>
<text text-anchor="middle" x="234" y="-7.5" font-family="Helvetica,sans-Serif" font-size="10.00">CompValidator.cpp</text>
</a>
</g>
</g>
<!-- Node2&#45;&gt;Node4 -->
<g id="edge3" class="edge">
<title>Node2&#45;&gt;Node4</title>
<path fill="none" stroke="midnightblue" d="M177.9,-50.34C191.91,-40.52 209.88,-27.91 221.66,-19.65"/>
<polygon fill="midnightblue" stroke="midnightblue" points="175.55,-47.72 169.37,-56.32 179.57,-53.45 175.55,-47.72"/>
</g>
</g>
</svg>
