<?xml version="1.0" encoding="UTF-8" standalone="no"?>
<!DOCTYPE svg PUBLIC "-//W3C//DTD SVG 1.1//EN"
 "http://www.w3.org/Graphics/SVG/1.1/DTD/svg11.dtd">
<!-- Generated by graphviz version 2.43.0 (0)
 -->
<!-- Title: CompartmentReference.h Pages: 1 -->
<svg width="463pt" height="196pt"
 viewBox="0.00 0.00 463.00 196.00" xmlns="http://www.w3.org/2000/svg" xmlns:xlink="http://www.w3.org/1999/xlink">
<g id="graph0" class="graph" transform="scale(1 1) rotate(0) translate(4 192)">
<title>CompartmentReference.h</title>
<polygon fill="white" stroke="transparent" points="-4,4 -4,-192 459,-192 459,4 -4,4"/>
<!-- Node1 -->
<g id="node1" class="node">
<title>Node1</title>
<g id="a_node1"><a xlink:title=": Implementation of the CompartmentReference class">
<polygon fill="#bfbfbf" stroke="black" points="137.5,-168.5 137.5,-187.5 280.5,-187.5 280.5,-168.5 137.5,-168.5"/>
<text text-anchor="middle" x="209" y="-175.5" font-family="Helvetica,sans-Serif" font-size="10.00">CompartmentReference.h</text>
</a>
</g>
</g>
<!-- Node2 -->
<g id="node2" class="node">
<title>Node2</title>
<g id="a_node2"><a xlink:href="_multi_extension_types_8h.html" target="_top" xlink:title=": Implementation of the MultiExtensionTypes class">
<polygon fill="white" stroke="black" points="0,-56.5 0,-75.5 126,-75.5 126,-56.5 0,-56.5"/>
<text text-anchor="middle" x="63" y="-63.5" font-family="Helvetica,sans-Serif" font-size="10.00">MultiExtensionTypes.h</text>
</a>
</g>
</g>
<!-- Node1&#45;&gt;Node2 -->
<g id="edge1" class="edge">
<title>Node1&#45;&gt;Node2</title>
<path fill="none" stroke="midnightblue" d="M180,-163.99C163.43,-155.91 142.7,-144.67 126,-132 103.21,-114.72 80.98,-89.15 70.04,-75.82"/>
<polygon fill="midnightblue" stroke="midnightblue" points="178.67,-167.24 189.21,-168.37 181.68,-160.91 178.67,-167.24"/>
</g>
<!-- Node4 -->
<g id="node4" class="node">
<title>Node4</title>
<g id="a_node4"><a xlink:href="_multi_compartment_plugin_8h.html" target="_top" xlink:title=": Implementation of the MultiCompartmentPlugin class">
<polygon fill="white" stroke="black" points="135,-112.5 135,-131.5 283,-131.5 283,-112.5 135,-112.5"/>
<text text-anchor="middle" x="209" y="-119.5" font-family="Helvetica,sans-Serif" font-size="10.00">MultiCompartmentPlugin.h</text>
</a>
</g>
</g>
<!-- Node1&#45;&gt;Node4 -->
<g id="edge3" class="edge">
<title>Node1&#45;&gt;Node4</title>
<path fill="none" stroke="midnightblue" d="M209,-157.8C209,-148.91 209,-138.78 209,-131.75"/>
<polygon fill="midnightblue" stroke="midnightblue" points="205.5,-158.08 209,-168.08 212.5,-158.08 205.5,-158.08"/>
</g>
<!-- Node7 -->
<g id="node7" class="node">
<title>Node7</title>
<g id="a_node7"><a xlink:href="_compartment_reference_8cpp.html" target="_top" xlink:title=": Implementation of the CompartmentReference class">
<polygon fill="white" stroke="black" points="301,-112.5 301,-131.5 455,-131.5 455,-112.5 301,-112.5"/>
<text text-anchor="middle" x="378" y="-119.5" font-family="Helvetica,sans-Serif" font-size="10.00">CompartmentReference.cpp</text>
</a>
</g>
</g>
<!-- Node1&#45;&gt;Node7 -->
<g id="edge7" class="edge">
<title>Node1&#45;&gt;Node7</title>
<path fill="none" stroke="midnightblue" d="M245.6,-165.3C277.45,-155.13 322.84,-140.62 351.35,-131.52"/>
<polygon fill="midnightblue" stroke="midnightblue" points="244.24,-162.07 235.78,-168.44 246.37,-168.73 244.24,-162.07"/>
</g>
<!-- Node3 -->
<g id="node3" class="node">
<title>Node3</title>
<g id="a_node3"><a xlink:href="_multi_validator_8cpp.html" target="_top" xlink:title=": Implementation of the MultiValidator class">
<polygon fill="white" stroke="black" points="11,-0.5 11,-19.5 115,-19.5 115,-0.5 11,-0.5"/>
<text text-anchor="middle" x="63" y="-7.5" font-family="Helvetica,sans-Serif" font-size="10.00">MultiValidator.cpp</text>
</a>
</g>
</g>
<!-- Node2&#45;&gt;Node3 -->
<g id="edge2" class="edge">
<title>Node2&#45;&gt;Node3</title>
<path fill="none" stroke="midnightblue" d="M63,-45.8C63,-36.91 63,-26.78 63,-19.75"/>
<polygon fill="midnightblue" stroke="midnightblue" points="59.5,-46.08 63,-56.08 66.5,-46.08 59.5,-46.08"/>
</g>
<!-- Node4&#45;&gt;Node2 -->
<g id="edge4" class="edge">
<title>Node4&#45;&gt;Node2</title>
<path fill="none" stroke="midnightblue" d="M176.3,-108.91C148.85,-98.75 110.33,-84.51 86.03,-75.52"/>
<polygon fill="midnightblue" stroke="midnightblue" points="175.27,-112.26 185.87,-112.44 177.7,-105.69 175.27,-112.26"/>
</g>
<!-- Node5 -->
<g id="node5" class="node">
<title>Node5</title>
<g id="a_node5"><a xlink:href="_multi_compartment_plugin_8cpp.html" target="_top" xlink:title=": Implementation of the MultiCompartmentPlugin class">
<polygon fill="white" stroke="black" points="144.5,-56.5 144.5,-75.5 303.5,-75.5 303.5,-56.5 144.5,-56.5"/>
<text text-anchor="middle" x="224" y="-63.5" font-family="Helvetica,sans-Serif" font-size="10.00">MultiCompartmentPlugin.cpp</text>
</a>
</g>
</g>
<!-- Node4&#45;&gt;Node5 -->
<g id="edge5" class="edge">
<title>Node4&#45;&gt;Node5</title>
<path fill="none" stroke="midnightblue" d="M214.17,-102.4C216.68,-93.36 219.57,-82.94 221.57,-75.75"/>
<polygon fill="midnightblue" stroke="midnightblue" points="210.78,-101.51 211.48,-112.08 217.53,-103.38 210.78,-101.51"/>
</g>
<!-- Node6 -->
<g id="node6" class="node">
<title>Node6</title>
<g id="a_node6"><a xlink:href="_multi_extension_8cpp.html" target="_top" xlink:title=": Implementation of the MultiExtension class">
<polygon fill="white" stroke="black" points="322,-56.5 322,-75.5 432,-75.5 432,-56.5 322,-56.5"/>
<text text-anchor="middle" x="377" y="-63.5" font-family="Helvetica,sans-Serif" font-size="10.00">MultiExtension.cpp</text>
</a>
</g>
</g>
<!-- Node4&#45;&gt;Node6 -->
<g id="edge6" class="edge">
<title>Node4&#45;&gt;Node6</title>
<path fill="none" stroke="midnightblue" d="M245.39,-109.3C277.04,-99.13 322.17,-84.62 350.5,-75.52"/>
<polygon fill="midnightblue" stroke="midnightblue" points="244.07,-106.05 235.62,-112.44 246.21,-112.72 244.07,-106.05"/>
</g>
</g>
</svg>
