<?xml version="1.0" encoding="UTF-8" standalone="no"?>
<!DOCTYPE svg PUBLIC "-//W3C//DTD SVG 1.1//EN"
 "http://www.w3.org/Graphics/SVG/1.1/DTD/svg11.dtd">
<!-- Generated by graphviz version 2.43.0 (0)
 -->
<!-- Title: CompModelPlugin.h Pages: 1 -->
<svg width="1325pt" height="140pt"
 viewBox="0.00 0.00 1324.74 140.00" xmlns="http://www.w3.org/2000/svg" xmlns:xlink="http://www.w3.org/1999/xlink">
<g id="graph0" class="graph" transform="scale(1 1) rotate(0) translate(4 136)">
<title>CompModelPlugin.h</title>
<polygon fill="white" stroke="transparent" points="-4,4 -4,-136 1320.74,-136 1320.74,4 -4,4"/>
<!-- Node1 -->
<g id="node1" class="node">
<title>Node1</title>
<g id="a_node1"><a xlink:title="Definition of CompModelPlugin, the plugin class of comp package for the Model element.">
<polygon fill="#bfbfbf" stroke="black" points="693,-112.5 693,-131.5 807,-131.5 807,-112.5 693,-112.5"/>
<text text-anchor="middle" x="750" y="-119.5" font-family="Helvetica,sans-Serif" font-size="10.00">CompModelPlugin.h</text>
</a>
</g>
</g>
<!-- Node2 -->
<g id="node2" class="node">
<title>Node2</title>
<g id="a_node2"><a xlink:href="_comp_extension_types_8h.html" target="_top" xlink:title="Include all SBML types of Comp extension in a single header file.">
<polygon fill="white" stroke="black" points="0,-56.5 0,-75.5 130,-75.5 130,-56.5 0,-56.5"/>
<text text-anchor="middle" x="65" y="-63.5" font-family="Helvetica,sans-Serif" font-size="10.00">CompExtensionTypes.h</text>
</a>
</g>
</g>
<!-- Node1&#45;&gt;Node2 -->
<g id="edge1" class="edge">
<title>Node1&#45;&gt;Node2</title>
<path fill="none" stroke="midnightblue" d="M682.44,-117.08C569.69,-110.29 336.1,-95.23 139,-76 136.17,-75.72 133.27,-75.43 130.35,-75.12"/>
<polygon fill="midnightblue" stroke="midnightblue" points="682.45,-120.58 692.64,-117.69 682.87,-113.6 682.45,-120.58"/>
</g>
<!-- Node5 -->
<g id="node5" class="node">
<title>Node5</title>
<g id="a_node5"><a xlink:href="_comp_extension_8cpp.html" target="_top" xlink:title="Implementation of CompExtension, the core module of comp package.">
<polygon fill="white" stroke="black" points="796.5,-0.5 796.5,-19.5 909.5,-19.5 909.5,-0.5 796.5,-0.5"/>
<text text-anchor="middle" x="853" y="-7.5" font-family="Helvetica,sans-Serif" font-size="10.00">CompExtension.cpp</text>
</a>
</g>
</g>
<!-- Node1&#45;&gt;Node5 -->
<g id="edge4" class="edge">
<title>Node1&#45;&gt;Node5</title>
<path fill="none" stroke="midnightblue" d="M817.55,-120.59C959.25,-119.02 1277.21,-111.53 1310,-76 1365.3,-16.08 1043.9,-10.35 909.75,-10.52"/>
<polygon fill="midnightblue" stroke="midnightblue" points="817.21,-117.09 807.25,-120.69 817.29,-124.09 817.21,-117.09"/>
</g>
<!-- Node6 -->
<g id="node6" class="node">
<title>Node6</title>
<g id="a_node6"><a xlink:href="_comp_model_plugin_8cpp.html" target="_top" xlink:title="Implementation of CompModelPlugin, the plugin class of comp package for the SBase element.">
<polygon fill="white" stroke="black" points="317.5,-56.5 317.5,-75.5 442.5,-75.5 442.5,-56.5 317.5,-56.5"/>
<text text-anchor="middle" x="380" y="-63.5" font-family="Helvetica,sans-Serif" font-size="10.00">CompModelPlugin.cpp</text>
</a>
</g>
</g>
<!-- Node1&#45;&gt;Node6 -->
<g id="edge5" class="edge">
<title>Node1&#45;&gt;Node6</title>
<path fill="none" stroke="midnightblue" d="M682.98,-111.22C613.11,-101.02 504.72,-85.2 438.29,-75.51"/>
<polygon fill="midnightblue" stroke="midnightblue" points="682.6,-114.7 693,-112.68 683.61,-107.77 682.6,-114.7"/>
</g>
<!-- Node7 -->
<g id="node7" class="node">
<title>Node7</title>
<g id="a_node7"><a xlink:href="_comp_s_b_m_l_document_plugin_8cpp.html" target="_top" xlink:title="Implementation of CompSBMLDocumentPlugin, the plugin class of comp package for the SBase element.">
<polygon fill="white" stroke="black" points="460.5,-56.5 460.5,-75.5 633.5,-75.5 633.5,-56.5 460.5,-56.5"/>
<text text-anchor="middle" x="547" y="-63.5" font-family="Helvetica,sans-Serif" font-size="10.00">CompSBMLDocumentPlugin.cpp</text>
</a>
</g>
</g>
<!-- Node1&#45;&gt;Node7 -->
<g id="edge6" class="edge">
<title>Node1&#45;&gt;Node7</title>
<path fill="none" stroke="midnightblue" d="M708.01,-109.83C669.68,-99.63 613.85,-84.78 579.02,-75.52"/>
<polygon fill="midnightblue" stroke="midnightblue" points="707.27,-113.26 717.83,-112.44 709.07,-106.49 707.27,-113.26"/>
</g>
<!-- Node8 -->
<g id="node8" class="node">
<title>Node8</title>
<g id="a_node8"><a xlink:href="_comp_base_8cpp.html" target="_top" xlink:title="Implementation of CompBase, the base class of extension entities plugged in SBase derived classes in ...">
<polygon fill="white" stroke="black" points="651.5,-56.5 651.5,-75.5 740.5,-75.5 740.5,-56.5 651.5,-56.5"/>
<text text-anchor="middle" x="696" y="-63.5" font-family="Helvetica,sans-Serif" font-size="10.00">CompBase.cpp</text>
</a>
</g>
</g>
<!-- Node1&#45;&gt;Node8 -->
<g id="edge7" class="edge">
<title>Node1&#45;&gt;Node8</title>
<path fill="none" stroke="midnightblue" d="M734,-105C724.43,-95.43 712.64,-83.64 704.75,-75.75"/>
<polygon fill="midnightblue" stroke="midnightblue" points="731.54,-107.49 741.08,-112.08 736.49,-102.54 731.54,-107.49"/>
</g>
<!-- Node9 -->
<g id="node9" class="node">
<title>Node9</title>
<g id="a_node9"><a xlink:href="_replaced_by_8cpp.html" target="_top" xlink:title="Implementation of ReplacedBy, the SBaseRef derived class of the comp package.">
<polygon fill="white" stroke="black" points="758.5,-56.5 758.5,-75.5 851.5,-75.5 851.5,-56.5 758.5,-56.5"/>
<text text-anchor="middle" x="805" y="-63.5" font-family="Helvetica,sans-Serif" font-size="10.00">ReplacedBy.cpp</text>
</a>
</g>
</g>
<!-- Node1&#45;&gt;Node9 -->
<g id="edge8" class="edge">
<title>Node1&#45;&gt;Node9</title>
<path fill="none" stroke="midnightblue" d="M766.29,-105C776.04,-95.43 788.05,-83.64 796.09,-75.75"/>
<polygon fill="midnightblue" stroke="midnightblue" points="763.77,-102.58 759.08,-112.08 768.67,-107.57 763.77,-102.58"/>
</g>
<!-- Node10 -->
<g id="node10" class="node">
<title>Node10</title>
<g id="a_node10"><a xlink:href="_replaced_element_8cpp.html" target="_top" xlink:title="Implementation of ReplacedElement, the SBaseRef derived class of replacedElements package.">
<polygon fill="white" stroke="black" points="870,-56.5 870,-75.5 992,-75.5 992,-56.5 870,-56.5"/>
<text text-anchor="middle" x="931" y="-63.5" font-family="Helvetica,sans-Serif" font-size="10.00">ReplacedElement.cpp</text>
</a>
</g>
</g>
<!-- Node1&#45;&gt;Node10 -->
<g id="edge9" class="edge">
<title>Node1&#45;&gt;Node10</title>
<path fill="none" stroke="midnightblue" d="M788.32,-109.57C822.46,-99.38 871.66,-84.7 902.45,-75.52"/>
<polygon fill="midnightblue" stroke="midnightblue" points="787.26,-106.23 778.68,-112.44 789.26,-112.94 787.26,-106.23"/>
</g>
<!-- Node11 -->
<g id="node11" class="node">
<title>Node11</title>
<g id="a_node11"><a xlink:href="_replacing_8cpp.html" target="_top" xlink:title="Implementation of Replacing, the SBaseRef derived class of Replacings package.">
<polygon fill="white" stroke="black" points="1010.5,-56.5 1010.5,-75.5 1095.5,-75.5 1095.5,-56.5 1010.5,-56.5"/>
<text text-anchor="middle" x="1053" y="-63.5" font-family="Helvetica,sans-Serif" font-size="10.00">Replacing.cpp</text>
</a>
</g>
</g>
<!-- Node1&#45;&gt;Node11 -->
<g id="edge10" class="edge">
<title>Node1&#45;&gt;Node11</title>
<path fill="none" stroke="midnightblue" d="M807.93,-110.68C866.98,-100.15 957.19,-84.08 1010.11,-74.64"/>
<polygon fill="midnightblue" stroke="midnightblue" points="807.24,-107.24 798.01,-112.44 808.47,-114.13 807.24,-107.24"/>
</g>
<!-- Node12 -->
<g id="node12" class="node">
<title>Node12</title>
<g id="a_node12"><a xlink:href="_s_base_ref_8cpp.html" target="_top" xlink:title="Implementation of SBaseRef, the SBase&#45;derived class of the comp package.">
<polygon fill="white" stroke="black" points="1113.5,-56.5 1113.5,-75.5 1196.5,-75.5 1196.5,-56.5 1113.5,-56.5"/>
<text text-anchor="middle" x="1155" y="-63.5" font-family="Helvetica,sans-Serif" font-size="10.00">SBaseRef.cpp</text>
</a>
</g>
</g>
<!-- Node1&#45;&gt;Node12 -->
<g id="edge11" class="edge">
<title>Node1&#45;&gt;Node12</title>
<path fill="none" stroke="midnightblue" d="M817.53,-113.5C889.06,-105.31 1005.21,-91.3 1105,-76 1107.7,-75.59 1110.48,-75.14 1113.29,-74.68"/>
<polygon fill="midnightblue" stroke="midnightblue" points="816.85,-110.05 807.31,-114.66 817.64,-117.01 816.85,-110.05"/>
</g>
<!-- Node13 -->
<g id="node13" class="node">
<title>Node13</title>
<g id="a_node13"><a xlink:href="_submodel_8cpp.html" target="_top" xlink:title="Implementation of Submodel, the SBase&#45;derived class of the comp package.">
<polygon fill="white" stroke="black" points="1215,-56.5 1215,-75.5 1301,-75.5 1301,-56.5 1215,-56.5"/>
<text text-anchor="middle" x="1258" y="-63.5" font-family="Helvetica,sans-Serif" font-size="10.00">Submodel.cpp</text>
</a>
</g>
</g>
<!-- Node1&#45;&gt;Node13 -->
<g id="edge12" class="edge">
<title>Node1&#45;&gt;Node13</title>
<path fill="none" stroke="midnightblue" d="M817.26,-115.91C906.38,-108.81 1068.37,-94.68 1206,-76 1208.91,-75.61 1211.9,-75.17 1214.91,-74.71"/>
<polygon fill="midnightblue" stroke="midnightblue" points="816.72,-112.44 807.03,-116.72 817.27,-119.42 816.72,-112.44"/>
</g>
<!-- Node14 -->
<g id="node14" class="node">
<title>Node14</title>
<g id="a_node14"><a xlink:href="_comp_flattening_converter_8h.html" target="_top" xlink:title="Definition of a first flattening converter.">
<polygon fill="white" stroke="black" points="148.5,-56.5 148.5,-75.5 299.5,-75.5 299.5,-56.5 148.5,-56.5"/>
<text text-anchor="middle" x="224" y="-63.5" font-family="Helvetica,sans-Serif" font-size="10.00">CompFlatteningConverter.h</text>
</a>
</g>
</g>
<!-- Node1&#45;&gt;Node14 -->
<g id="edge13" class="edge">
<title>Node1&#45;&gt;Node14</title>
<path fill="none" stroke="midnightblue" d="M682.82,-114.88C594.52,-106.31 434.96,-90.2 299,-76 297.54,-75.85 296.07,-75.69 294.59,-75.54"/>
<polygon fill="midnightblue" stroke="midnightblue" points="682.68,-118.38 692.97,-115.86 683.35,-111.41 682.68,-118.38"/>
</g>
<!-- Node3 -->
<g id="node3" class="node">
<title>Node3</title>
<g id="a_node3"><a xlink:href="_comp_flattening_converter_8cpp.html" target="_top" xlink:title="Implementation of a first flattening converter.">
<polygon fill="white" stroke="black" points="140,-0.5 140,-19.5 302,-19.5 302,-0.5 140,-0.5"/>
<text text-anchor="middle" x="221" y="-7.5" font-family="Helvetica,sans-Serif" font-size="10.00">CompFlatteningConverter.cpp</text>
</a>
</g>
</g>
<!-- Node2&#45;&gt;Node3 -->
<g id="edge2" class="edge">
<title>Node2&#45;&gt;Node3</title>
<path fill="none" stroke="midnightblue" d="M99.17,-53.17C128.54,-43 170.2,-28.59 196.4,-19.52"/>
<polygon fill="midnightblue" stroke="midnightblue" points="98.02,-49.86 89.72,-56.44 100.31,-56.48 98.02,-49.86"/>
</g>
<!-- Node4 -->
<g id="node4" class="node">
<title>Node4</title>
<g id="a_node4"><a xlink:href="_comp_validator_8cpp.html" target="_top" xlink:title=" ">
<polygon fill="white" stroke="black" points="11,-0.5 11,-19.5 119,-19.5 119,-0.5 11,-0.5"/>
<text text-anchor="middle" x="65" y="-7.5" font-family="Helvetica,sans-Serif" font-size="10.00">CompValidator.cpp</text>
</a>
</g>
</g>
<!-- Node2&#45;&gt;Node4 -->
<g id="edge3" class="edge">
<title>Node2&#45;&gt;Node4</title>
<path fill="none" stroke="midnightblue" d="M65,-45.8C65,-36.91 65,-26.78 65,-19.75"/>
<polygon fill="midnightblue" stroke="midnightblue" points="61.5,-46.08 65,-56.08 68.5,-46.08 61.5,-46.08"/>
</g>
<!-- Node14&#45;&gt;Node1 -->
<g id="edge15" class="edge">
<title>Node14&#45;&gt;Node1</title>
<path fill="none" stroke="midnightblue" d="M309.89,-75.25C312.29,-75.51 314.66,-75.76 317,-76 451.83,-90.09 609.85,-106.04 692.76,-114.66"/>
<polygon fill="midnightblue" stroke="midnightblue" points="310.22,-71.77 299.91,-74.2 309.49,-78.73 310.22,-71.77"/>
</g>
<!-- Node14&#45;&gt;Node3 -->
<g id="edge16" class="edge">
<title>Node14&#45;&gt;Node3</title>
<path fill="none" stroke="midnightblue" d="M222.93,-45.8C222.44,-36.91 221.88,-26.78 221.49,-19.75"/>
<polygon fill="midnightblue" stroke="midnightblue" points="219.46,-46.29 223.5,-56.08 226.44,-45.9 219.46,-46.29"/>
</g>
<!-- Node14&#45;&gt;Node5 -->
<g id="edge14" class="edge">
<title>Node14&#45;&gt;Node5</title>
<path fill="none" stroke="midnightblue" d="M309.69,-55.86C493.76,-38.51 699.23,-22.56 796.47,-15.21"/>
<polygon fill="midnightblue" stroke="midnightblue" points="309.17,-52.39 299.55,-56.82 309.83,-59.36 309.17,-52.39"/>
</g>
</g>
</svg>
