<?xml version="1.0" encoding="UTF-8" standalone="no"?>
<!DOCTYPE svg PUBLIC "-//W3C//DTD SVG 1.1//EN"
 "http://www.w3.org/Graphics/SVG/1.1/DTD/svg11.dtd">
<!-- Generated by graphviz version 2.43.0 (0)
 -->
<!-- Title: ConversionProperties.h Pages: 1 -->
<svg width="853pt" height="464pt"
 viewBox="0.00 0.00 852.50 464.00" xmlns="http://www.w3.org/2000/svg" xmlns:xlink="http://www.w3.org/1999/xlink">
<g id="graph0" class="graph" transform="scale(1 1) rotate(0) translate(4 460)">
<title>ConversionProperties.h</title>
<polygon fill="white" stroke="transparent" points="-4,4 -4,-460 848.5,-460 848.5,4 -4,4"/>
<!-- Node1 -->
<g id="node1" class="node">
<title>Node1</title>
<g id="a_node1"><a xlink:title="Definition of ConversionProperties, the class encapsulating conversion configuration.">
<polygon fill="#bfbfbf" stroke="black" points="328,-436.5 328,-455.5 458,-455.5 458,-436.5 328,-436.5"/>
<text text-anchor="middle" x="393" y="-443.5" font-family="Helvetica,sans-Serif" font-size="10.00">ConversionProperties.h</text>
</a>
</g>
</g>
<!-- Node2 -->
<g id="node2" class="node">
<title>Node2</title>
<g id="a_node2"><a xlink:href="extern_8h.html" target="_top" xlink:title="Definitions of LIBSBML_EXTERN and related things.">
<polygon fill="white" stroke="black" points="123,-67.5 123,-86.5 253,-86.5 253,-67.5 123,-67.5"/>
<text text-anchor="middle" x="188" y="-74.5" font-family="Helvetica,sans-Serif" font-size="10.00">sbml/common/extern.h</text>
</a>
</g>
</g>
<!-- Node1&#45;&gt;Node2 -->
<g id="edge1" class="edge">
<title>Node1&#45;&gt;Node2</title>
<path fill="none" stroke="midnightblue" d="M327.66,-439.35C215.91,-427.88 0,-396.97 0,-329.5 0,-329.5 0,-329.5 0,-204.5 0,-138.44 80.89,-104.62 136.55,-89.16"/>
<polygon fill="midnightblue" stroke="midnightblue" points="137.51,-92.53 146.28,-86.57 135.71,-85.76 137.51,-92.53"/>
</g>
<!-- Node4 -->
<g id="node4" class="node">
<title>Node4</title>
<g id="a_node4"><a xlink:href="_s_b_m_l_namespaces_8h.html" target="_top" xlink:title="SBMLNamespaces class to store level/version and namespace.">
<polygon fill="white" stroke="black" points="386.5,-380.5 386.5,-399.5 529.5,-399.5 529.5,-380.5 386.5,-380.5"/>
<text text-anchor="middle" x="458" y="-387.5" font-family="Helvetica,sans-Serif" font-size="10.00">sbml/SBMLNamespaces.h</text>
</a>
</g>
</g>
<!-- Node1&#45;&gt;Node4 -->
<g id="edge3" class="edge">
<title>Node1&#45;&gt;Node4</title>
<path fill="none" stroke="midnightblue" d="M403.44,-436.32C413.15,-428.26 427.82,-416.08 439.5,-406.37"/>
<polygon fill="midnightblue" stroke="midnightblue" points="441.91,-408.92 447.37,-399.83 437.44,-403.53 441.91,-408.92"/>
</g>
<!-- Node20 -->
<g id="node20" class="node">
<title>Node20</title>
<g id="a_node20"><a xlink:href="_conversion_option_8h.html" target="_top" xlink:title="Definition of ConversionOption, the class encapsulating conversion options.">
<polygon fill="white" stroke="black" points="244.5,-313.5 244.5,-343.5 399.5,-343.5 399.5,-313.5 244.5,-313.5"/>
<text text-anchor="start" x="252.5" y="-331.5" font-family="Helvetica,sans-Serif" font-size="10.00">sbml/conversion/Conversion</text>
<text text-anchor="middle" x="322" y="-320.5" font-family="Helvetica,sans-Serif" font-size="10.00">Option.h</text>
</a>
</g>
</g>
<!-- Node1&#45;&gt;Node20 -->
<g id="edge29" class="edge">
<title>Node1&#45;&gt;Node20</title>
<path fill="none" stroke="midnightblue" d="M387.66,-436.32C376.81,-418.66 351.84,-378.04 336.01,-352.29"/>
<polygon fill="midnightblue" stroke="midnightblue" points="338.85,-350.23 330.63,-343.55 332.89,-353.9 338.85,-350.23"/>
</g>
<!-- Node21 -->
<g id="node21" class="node">
<title>Node21</title>
<g id="a_node21"><a xlink:title=" ">
<polygon fill="white" stroke="#bfbfbf" points="548,-380.5 548,-399.5 586,-399.5 586,-380.5 548,-380.5"/>
<text text-anchor="middle" x="567" y="-387.5" font-family="Helvetica,sans-Serif" font-size="10.00">map</text>
</a>
</g>
</g>
<!-- Node1&#45;&gt;Node21 -->
<g id="edge33" class="edge">
<title>Node1&#45;&gt;Node21</title>
<path fill="none" stroke="midnightblue" d="M420.57,-436.44C452.56,-426.51 505.1,-410.21 537.78,-400.07"/>
<polygon fill="midnightblue" stroke="midnightblue" points="539.13,-403.32 547.64,-397.01 537.05,-396.63 539.13,-403.32"/>
</g>
<!-- Node3 -->
<g id="node3" class="node">
<title>Node3</title>
<g id="a_node3"><a xlink:title=" ">
<polygon fill="white" stroke="#bfbfbf" points="537.5,-0.5 537.5,-30.5 662.5,-30.5 662.5,-0.5 537.5,-0.5"/>
<text text-anchor="start" x="545.5" y="-18.5" font-family="Helvetica,sans-Serif" font-size="10.00">sbml/common/libsbml</text>
<text text-anchor="middle" x="600" y="-7.5" font-family="Helvetica,sans-Serif" font-size="10.00">&#45;namespace.h</text>
</a>
</g>
</g>
<!-- Node2&#45;&gt;Node3 -->
<g id="edge2" class="edge">
<title>Node2&#45;&gt;Node3</title>
<path fill="none" stroke="midnightblue" d="M247.03,-67.48C320.96,-56.8 447.6,-38.51 527.4,-26.99"/>
<polygon fill="midnightblue" stroke="midnightblue" points="527.97,-30.44 537.37,-25.55 526.97,-23.51 527.97,-30.44"/>
</g>
<!-- Node5 -->
<g id="node5" class="node">
<title>Node5</title>
<g id="a_node5"><a xlink:href="_x_m_l_namespaces_8h.html" target="_top" xlink:title="A list of XMLNamespace declarations (URI/prefix pairs)">
<polygon fill="white" stroke="black" points="578,-319 578,-338 736,-338 736,-319 578,-319"/>
<text text-anchor="middle" x="657" y="-326" font-family="Helvetica,sans-Serif" font-size="10.00">sbml/xml/XMLNamespaces.h</text>
</a>
</g>
</g>
<!-- Node4&#45;&gt;Node5 -->
<g id="edge4" class="edge">
<title>Node4&#45;&gt;Node5</title>
<path fill="none" stroke="midnightblue" d="M486.51,-380.48C521.24,-370.09 580.04,-352.51 618.69,-340.95"/>
<polygon fill="midnightblue" stroke="midnightblue" points="619.96,-344.23 628.54,-338.01 617.96,-337.52 619.96,-344.23"/>
</g>
<!-- Node12 -->
<g id="node12" class="node">
<title>Node12</title>
<g id="a_node12"><a xlink:title=" ">
<polygon fill="white" stroke="#bfbfbf" points="535,-257.5 535,-276.5 579,-276.5 579,-257.5 535,-257.5"/>
<text text-anchor="middle" x="557" y="-264.5" font-family="Helvetica,sans-Serif" font-size="10.00">string</text>
</a>
</g>
</g>
<!-- Node4&#45;&gt;Node12 -->
<g id="edge27" class="edge">
<title>Node4&#45;&gt;Node12</title>
<path fill="none" stroke="midnightblue" d="M479.32,-380.35C495.29,-372.89 516.61,-360.66 530,-344 543.4,-327.33 550.42,-303.49 553.9,-286.98"/>
<polygon fill="midnightblue" stroke="midnightblue" points="557.39,-287.37 555.79,-276.89 550.51,-286.08 557.39,-287.37"/>
</g>
<!-- Node14 -->
<g id="node14" class="node">
<title>Node14</title>
<g id="a_node14"><a xlink:href="common_8h.html" target="_top" xlink:title="Common functions and macros for C and C++.">
<polygon fill="white" stroke="black" points="211.5,-257.5 211.5,-276.5 352.5,-276.5 352.5,-257.5 211.5,-257.5"/>
<text text-anchor="middle" x="282" y="-264.5" font-family="Helvetica,sans-Serif" font-size="10.00">sbml/common/common.h</text>
</a>
</g>
</g>
<!-- Node4&#45;&gt;Node14 -->
<g id="edge18" class="edge">
<title>Node4&#45;&gt;Node14</title>
<path fill="none" stroke="midnightblue" d="M454.55,-380.39C447.88,-364.77 431.72,-331.64 408,-313 387.38,-296.8 360.45,-286.14 336.78,-279.28"/>
<polygon fill="midnightblue" stroke="midnightblue" points="337.43,-275.83 326.87,-276.57 335.59,-282.58 337.43,-275.83"/>
</g>
<!-- Node19 -->
<g id="node19" class="node">
<title>Node19</title>
<g id="a_node19"><a xlink:title=" ">
<polygon fill="white" stroke="#bfbfbf" points="456.5,-319 456.5,-338 521.5,-338 521.5,-319 456.5,-319"/>
<text text-anchor="middle" x="489" y="-326" font-family="Helvetica,sans-Serif" font-size="10.00">stdexcept</text>
</a>
</g>
</g>
<!-- Node4&#45;&gt;Node19 -->
<g id="edge28" class="edge">
<title>Node4&#45;&gt;Node19</title>
<path fill="none" stroke="midnightblue" d="M462.44,-380.48C466.95,-371.82 474.07,-358.15 479.81,-347.15"/>
<polygon fill="midnightblue" stroke="midnightblue" points="483.05,-348.49 484.57,-338.01 476.84,-345.26 483.05,-348.49"/>
</g>
<!-- Node6 -->
<g id="node6" class="node">
<title>Node6</title>
<g id="a_node6"><a xlink:href="_x_m_l_extern_8h.html" target="_top" xlink:title="Defines LIBLAX_EXTERN.">
<polygon fill="white" stroke="black" points="676.5,-67.5 676.5,-86.5 803.5,-86.5 803.5,-67.5 676.5,-67.5"/>
<text text-anchor="middle" x="740" y="-74.5" font-family="Helvetica,sans-Serif" font-size="10.00">sbml/xml/XMLExtern.h</text>
</a>
</g>
</g>
<!-- Node5&#45;&gt;Node6 -->
<g id="edge5" class="edge">
<title>Node5&#45;&gt;Node6</title>
<path fill="none" stroke="midnightblue" d="M668.76,-318.88C689.87,-302.58 733.53,-264.9 750,-221 765.9,-178.62 754.16,-124.29 746.03,-96.37"/>
<polygon fill="midnightblue" stroke="midnightblue" points="749.35,-95.26 743.06,-86.74 742.66,-97.33 749.35,-95.26"/>
</g>
<!-- Node7 -->
<g id="node7" class="node">
<title>Node7</title>
<g id="a_node7"><a xlink:href="sbmlfwd_8h.html" target="_top" xlink:title="Forward declarations for all opaque C types.">
<polygon fill="white" stroke="black" points="377,-257.5 377,-276.5 517,-276.5 517,-257.5 377,-257.5"/>
<text text-anchor="middle" x="447" y="-264.5" font-family="Helvetica,sans-Serif" font-size="10.00">sbml/common/sbmlfwd.h</text>
</a>
</g>
</g>
<!-- Node5&#45;&gt;Node7 -->
<g id="edge7" class="edge">
<title>Node5&#45;&gt;Node7</title>
<path fill="none" stroke="midnightblue" d="M626.91,-318.98C590.11,-308.55 527.69,-290.86 486.91,-279.31"/>
<polygon fill="midnightblue" stroke="midnightblue" points="487.61,-275.87 477.03,-276.51 485.7,-282.6 487.61,-275.87"/>
</g>
<!-- Node11 -->
<g id="node11" class="node">
<title>Node11</title>
<g id="a_node11"><a xlink:href="operation_return_values_8h.html" target="_top" xlink:title="Enumeration of values returned by operations within libSBML.">
<polygon fill="white" stroke="black" points="573,-190.5 573,-220.5 741,-220.5 741,-190.5 573,-190.5"/>
<text text-anchor="start" x="581" y="-208.5" font-family="Helvetica,sans-Serif" font-size="10.00">sbml/common/operationReturn</text>
<text text-anchor="middle" x="657" y="-197.5" font-family="Helvetica,sans-Serif" font-size="10.00">Values.h</text>
</a>
</g>
</g>
<!-- Node5&#45;&gt;Node11 -->
<g id="edge14" class="edge">
<title>Node5&#45;&gt;Node11</title>
<path fill="none" stroke="midnightblue" d="M657,-318.8C657,-300.6 657,-257.98 657,-230.79"/>
<polygon fill="midnightblue" stroke="midnightblue" points="660.5,-230.54 657,-220.54 653.5,-230.54 660.5,-230.54"/>
</g>
<!-- Node5&#45;&gt;Node12 -->
<g id="edge16" class="edge">
<title>Node5&#45;&gt;Node12</title>
<path fill="none" stroke="midnightblue" d="M642.67,-318.98C626.34,-309.25 599.4,-293.23 580.09,-281.74"/>
<polygon fill="midnightblue" stroke="midnightblue" points="581.68,-278.61 571.3,-276.51 578.11,-284.63 581.68,-278.61"/>
</g>
<!-- Node13 -->
<g id="node13" class="node">
<title>Node13</title>
<g id="a_node13"><a xlink:title=" ">
<polygon fill="white" stroke="#bfbfbf" points="797.5,-257.5 797.5,-276.5 844.5,-276.5 844.5,-257.5 797.5,-257.5"/>
<text text-anchor="middle" x="821" y="-264.5" font-family="Helvetica,sans-Serif" font-size="10.00">vector</text>
</a>
</g>
</g>
<!-- Node5&#45;&gt;Node13 -->
<g id="edge17" class="edge">
<title>Node5&#45;&gt;Node13</title>
<path fill="none" stroke="midnightblue" d="M680.5,-318.98C708.63,-308.77 755.93,-291.61 787.79,-280.05"/>
<polygon fill="midnightblue" stroke="midnightblue" points="789.34,-283.21 797.55,-276.51 786.95,-276.63 789.34,-283.21"/>
</g>
<!-- Node6&#45;&gt;Node3 -->
<g id="edge6" class="edge">
<title>Node6&#45;&gt;Node3</title>
<path fill="none" stroke="midnightblue" d="M719.94,-67.48C699.83,-58.93 668.24,-45.5 642.53,-34.57"/>
<polygon fill="midnightblue" stroke="midnightblue" points="643.57,-31.21 633,-30.52 640.83,-37.66 643.57,-31.21"/>
</g>
<!-- Node7&#45;&gt;Node3 -->
<g id="edge8" class="edge">
<title>Node7&#45;&gt;Node3</title>
<path fill="none" stroke="midnightblue" d="M464.27,-257.29C494.15,-241.26 555.13,-204.09 585,-154 605.32,-119.92 606.96,-106.63 605,-67 604.58,-58.43 603.75,-49.08 602.89,-40.78"/>
<polygon fill="midnightblue" stroke="midnightblue" points="606.35,-40.18 601.77,-30.62 599.39,-40.94 606.35,-40.18"/>
</g>
<!-- Node8 -->
<g id="node8" class="node">
<title>Node8</title>
<g id="a_node8"><a xlink:href="libsbml-config_8h.html" target="_top" xlink:title="Decides whether to #include Unix or Windows configuration variables.">
<polygon fill="white" stroke="black" points="384.5,-190.5 384.5,-220.5 509.5,-220.5 509.5,-190.5 384.5,-190.5"/>
<text text-anchor="start" x="392.5" y="-208.5" font-family="Helvetica,sans-Serif" font-size="10.00">sbml/common/libsbml</text>
<text text-anchor="middle" x="447" y="-197.5" font-family="Helvetica,sans-Serif" font-size="10.00">&#45;config.h</text>
</a>
</g>
</g>
<!-- Node7&#45;&gt;Node8 -->
<g id="edge9" class="edge">
<title>Node7&#45;&gt;Node8</title>
<path fill="none" stroke="midnightblue" d="M447,-257.48C447,-250.47 447,-240.19 447,-230.7"/>
<polygon fill="midnightblue" stroke="midnightblue" points="450.5,-230.52 447,-220.52 443.5,-230.52 450.5,-230.52"/>
</g>
<!-- Node8&#45;&gt;Node3 -->
<g id="edge10" class="edge">
<title>Node8&#45;&gt;Node3</title>
<path fill="none" stroke="midnightblue" d="M503.64,-190.43C524.24,-182.74 546.1,-171.16 561,-154 588.97,-121.8 596.96,-70.85 599.19,-40.85"/>
<polygon fill="midnightblue" stroke="midnightblue" points="602.69,-41 599.78,-30.81 595.7,-40.59 602.69,-41"/>
</g>
<!-- Node9 -->
<g id="node9" class="node">
<title>Node9</title>
<g id="a_node9"><a xlink:title=" ">
<polygon fill="white" stroke="#bfbfbf" points="284.5,-123.5 284.5,-153.5 409.5,-153.5 409.5,-123.5 284.5,-123.5"/>
<text text-anchor="start" x="292.5" y="-141.5" font-family="Helvetica,sans-Serif" font-size="10.00">sbml/common/libsbml</text>
<text text-anchor="middle" x="347" y="-130.5" font-family="Helvetica,sans-Serif" font-size="10.00">&#45;config&#45;common.h</text>
</a>
</g>
</g>
<!-- Node8&#45;&gt;Node9 -->
<g id="edge11" class="edge">
<title>Node8&#45;&gt;Node9</title>
<path fill="none" stroke="midnightblue" d="M425.3,-190.4C411.28,-181.28 392.83,-169.29 377.36,-159.24"/>
<polygon fill="midnightblue" stroke="midnightblue" points="378.95,-156.09 368.66,-153.58 375.13,-161.96 378.95,-156.09"/>
</g>
<!-- Node10 -->
<g id="node10" class="node">
<title>Node10</title>
<g id="a_node10"><a xlink:href="libsbml-version_8h.html" target="_top" xlink:title="Define libSBML version numbers for access from client software.">
<polygon fill="white" stroke="black" points="427.5,-123.5 427.5,-153.5 552.5,-153.5 552.5,-123.5 427.5,-123.5"/>
<text text-anchor="start" x="435.5" y="-141.5" font-family="Helvetica,sans-Serif" font-size="10.00">sbml/common/libsbml</text>
<text text-anchor="middle" x="490" y="-130.5" font-family="Helvetica,sans-Serif" font-size="10.00">&#45;version.h</text>
</a>
</g>
</g>
<!-- Node8&#45;&gt;Node10 -->
<g id="edge12" class="edge">
<title>Node8&#45;&gt;Node10</title>
<path fill="none" stroke="midnightblue" d="M456.33,-190.4C461.8,-182.13 468.83,-171.51 475.05,-162.1"/>
<polygon fill="midnightblue" stroke="midnightblue" points="478.09,-163.85 480.69,-153.58 472.25,-159.99 478.09,-163.85"/>
</g>
<!-- Node10&#45;&gt;Node2 -->
<g id="edge13" class="edge">
<title>Node10&#45;&gt;Node2</title>
<path fill="none" stroke="midnightblue" d="M427.18,-124.83C424.07,-124.21 421,-123.6 418,-123 357.77,-111.04 288.61,-97.54 241.99,-88.48"/>
<polygon fill="midnightblue" stroke="midnightblue" points="242.59,-85.03 232.11,-86.55 241.26,-91.9 242.59,-85.03"/>
</g>
<!-- Node11&#45;&gt;Node2 -->
<g id="edge15" class="edge">
<title>Node11&#45;&gt;Node2</title>
<path fill="none" stroke="midnightblue" d="M645.35,-190.43C628.78,-171.52 596.46,-138.5 561,-123 509.22,-100.37 356.68,-87.76 263.49,-81.97"/>
<polygon fill="midnightblue" stroke="midnightblue" points="263.46,-78.47 253.26,-81.35 263.03,-85.45 263.46,-78.47"/>
</g>
<!-- Node14&#45;&gt;Node2 -->
<g id="edge21" class="edge">
<title>Node14&#45;&gt;Node2</title>
<path fill="none" stroke="midnightblue" d="M211.02,-258.04C164.43,-251.18 109.52,-239.43 95,-221 68.04,-186.79 71.86,-159.9 95,-123 104.88,-107.25 122,-96.87 138.89,-90.11"/>
<polygon fill="midnightblue" stroke="midnightblue" points="140.54,-93.23 148.75,-86.52 138.15,-86.65 140.54,-93.23"/>
</g>
<!-- Node14&#45;&gt;Node8 -->
<g id="edge19" class="edge">
<title>Node14&#45;&gt;Node8</title>
<path fill="none" stroke="midnightblue" d="M305.64,-257.48C329.76,-248.78 367.89,-235.03 398.48,-224"/>
<polygon fill="midnightblue" stroke="midnightblue" points="399.89,-227.21 408.11,-220.52 397.52,-220.62 399.89,-227.21"/>
</g>
<!-- Node15 -->
<g id="node15" class="node">
<title>Node15</title>
<g id="a_node15"><a xlink:title=" ">
<polygon fill="white" stroke="#bfbfbf" points="216,-129 216,-148 266,-148 266,-129 216,-129"/>
<text text-anchor="middle" x="241" y="-136" font-family="Helvetica,sans-Serif" font-size="10.00">stdio.h</text>
</a>
</g>
</g>
<!-- Node14&#45;&gt;Node15 -->
<g id="edge20" class="edge">
<title>Node14&#45;&gt;Node15</title>
<path fill="none" stroke="midnightblue" d="M296.08,-257.26C307.35,-249.35 322.35,-236.58 329,-221 334.41,-208.33 335.9,-201.92 329,-190 322.36,-178.53 293.11,-163.09 270.13,-152.32"/>
<polygon fill="midnightblue" stroke="midnightblue" points="271.3,-149 260.75,-148.01 268.38,-155.36 271.3,-149"/>
</g>
<!-- Node16 -->
<g id="node16" class="node">
<title>Node16</title>
<g id="a_node16"><a xlink:href="memory_8h.html" target="_top" xlink:title=" ">
<polygon fill="white" stroke="black" points="104.5,-196 104.5,-215 215.5,-215 215.5,-196 104.5,-196"/>
<text text-anchor="middle" x="160" y="-203" font-family="Helvetica,sans-Serif" font-size="10.00">sbml/util/memory.h</text>
</a>
</g>
</g>
<!-- Node14&#45;&gt;Node16 -->
<g id="edge22" class="edge">
<title>Node14&#45;&gt;Node16</title>
<path fill="none" stroke="midnightblue" d="M264.52,-257.48C244.14,-247.53 210.22,-230.99 186.58,-219.46"/>
<polygon fill="midnightblue" stroke="midnightblue" points="187.97,-216.25 177.45,-215.01 184.9,-222.54 187.97,-216.25"/>
</g>
<!-- Node17 -->
<g id="node17" class="node">
<title>Node17</title>
<g id="a_node17"><a xlink:href="util_8h.html" target="_top" xlink:title="Utility functions.">
<polygon fill="white" stroke="black" points="233.5,-196 233.5,-215 320.5,-215 320.5,-196 233.5,-196"/>
<text text-anchor="middle" x="277" y="-203" font-family="Helvetica,sans-Serif" font-size="10.00">sbml/util/util.h</text>
</a>
</g>
</g>
<!-- Node14&#45;&gt;Node17 -->
<g id="edge23" class="edge">
<title>Node14&#45;&gt;Node17</title>
<path fill="none" stroke="midnightblue" d="M281.28,-257.48C280.58,-249.08 279.48,-235.98 278.57,-225.16"/>
<polygon fill="midnightblue" stroke="midnightblue" points="282.04,-224.68 277.72,-215.01 275.06,-225.27 282.04,-224.68"/>
</g>
<!-- Node17&#45;&gt;Node2 -->
<g id="edge26" class="edge">
<title>Node17&#45;&gt;Node2</title>
<path fill="none" stroke="midnightblue" d="M258.68,-195.94C242.65,-187.5 219.94,-173.11 207,-154 195.46,-136.97 190.92,-113.52 189.14,-97.2"/>
<polygon fill="midnightblue" stroke="midnightblue" points="192.59,-96.43 188.27,-86.76 185.62,-97.01 192.59,-96.43"/>
</g>
<!-- Node17&#45;&gt;Node15 -->
<g id="edge24" class="edge">
<title>Node17&#45;&gt;Node15</title>
<path fill="none" stroke="midnightblue" d="M272.14,-195.73C266.69,-185.89 257.7,-169.66 250.78,-157.16"/>
<polygon fill="midnightblue" stroke="midnightblue" points="253.69,-155.18 245.78,-148.13 247.56,-158.57 253.69,-155.18"/>
</g>
<!-- Node18 -->
<g id="node18" class="node">
<title>Node18</title>
<g id="a_node18"><a xlink:title=" ">
<polygon fill="white" stroke="#bfbfbf" points="104,-129 104,-148 160,-148 160,-129 104,-129"/>
<text text-anchor="middle" x="132" y="-136" font-family="Helvetica,sans-Serif" font-size="10.00">stdarg.h</text>
</a>
</g>
</g>
<!-- Node17&#45;&gt;Node18 -->
<g id="edge25" class="edge">
<title>Node17&#45;&gt;Node18</title>
<path fill="none" stroke="midnightblue" d="M257.75,-195.87C232.83,-184.7 189.21,-165.15 160.47,-152.26"/>
<polygon fill="midnightblue" stroke="midnightblue" points="161.89,-149.06 151.33,-148.17 159.03,-155.45 161.89,-149.06"/>
</g>
<!-- Node20&#45;&gt;Node2 -->
<g id="edge30" class="edge">
<title>Node20&#45;&gt;Node2</title>
<path fill="none" stroke="midnightblue" d="M244.41,-316.92C186.82,-304.54 112.11,-277.92 75,-221 66.82,-208.46 59.86,-146.49 76,-123 87.21,-106.67 105.42,-96.27 123.92,-89.64"/>
<polygon fill="midnightblue" stroke="midnightblue" points="125.15,-92.92 133.58,-86.5 122.99,-86.26 125.15,-92.92"/>
</g>
<!-- Node20&#45;&gt;Node7 -->
<g id="edge31" class="edge">
<title>Node20&#45;&gt;Node7</title>
<path fill="none" stroke="midnightblue" d="M351.62,-313.4C372.22,-303.59 399.48,-290.62 419.58,-281.05"/>
<polygon fill="midnightblue" stroke="midnightblue" points="421.29,-284.12 428.81,-276.66 418.28,-277.8 421.29,-284.12"/>
</g>
<!-- Node20&#45;&gt;Node12 -->
<g id="edge32" class="edge">
<title>Node20&#45;&gt;Node12</title>
<path fill="none" stroke="midnightblue" d="M381.52,-313.43C419.99,-304.18 471.34,-291.55 524.99,-277.2"/>
<polygon fill="midnightblue" stroke="midnightblue" points="525.93,-280.57 534.68,-274.6 524.11,-273.81 525.93,-280.57"/>
</g>
</g>
</svg>
