<?xml version="1.0" encoding="UTF-8" standalone="no"?>
<!DOCTYPE svg PUBLIC "-//W3C//DTD SVG 1.1//EN"
 "http://www.w3.org/Graphics/SVG/1.1/DTD/svg11.dtd">
<!-- Generated by graphviz version 2.43.0 (0)
 -->
<!-- Title: ConversionOption.h Pages: 1 -->
<svg width="391pt" height="341pt"
 viewBox="0.00 0.00 391.09 341.00" xmlns="http://www.w3.org/2000/svg" xmlns:xlink="http://www.w3.org/1999/xlink">
<g id="graph0" class="graph" transform="scale(1 1) rotate(0) translate(4 337)">
<title>ConversionOption.h</title>
<polygon fill="white" stroke="transparent" points="-4,4 -4,-337 387.09,-337 387.09,4 -4,4"/>
<!-- Node1 -->
<g id="node1" class="node">
<title>Node1</title>
<g id="a_node1"><a xlink:title="Definition of ConversionOption, the class encapsulating conversion options.">
<polygon fill="#bfbfbf" stroke="black" points="173.09,-313.5 173.09,-332.5 286.09,-332.5 286.09,-313.5 173.09,-313.5"/>
<text text-anchor="middle" x="229.59" y="-320.5" font-family="Helvetica,sans-Serif" font-size="10.00">ConversionOption.h</text>
</a>
</g>
</g>
<!-- Node2 -->
<g id="node2" class="node">
<title>Node2</title>
<g id="a_node2"><a xlink:href="extern_8h.html" target="_top" xlink:title="Definitions of LIBSBML_EXTERN and related things.">
<polygon fill="white" stroke="black" points="162.59,-67.5 162.59,-86.5 292.59,-86.5 292.59,-67.5 162.59,-67.5"/>
<text text-anchor="middle" x="227.59" y="-74.5" font-family="Helvetica,sans-Serif" font-size="10.00">sbml/common/extern.h</text>
</a>
</g>
</g>
<!-- Node1&#45;&gt;Node2 -->
<g id="edge1" class="edge">
<title>Node1&#45;&gt;Node2</title>
<path fill="none" stroke="midnightblue" d="M205.73,-313.44C136.88,-287.49 -53,-206.36 14.59,-123 31.9,-101.65 98.29,-90.03 152.41,-83.98"/>
<polygon fill="midnightblue" stroke="midnightblue" points="152.79,-87.46 162.36,-82.92 152.04,-80.5 152.79,-87.46"/>
</g>
<!-- Node4 -->
<g id="node4" class="node">
<title>Node4</title>
<g id="a_node4"><a xlink:href="sbmlfwd_8h.html" target="_top" xlink:title="Forward declarations for all opaque C types.">
<polygon fill="white" stroke="black" points="159.59,-257.5 159.59,-276.5 299.59,-276.5 299.59,-257.5 159.59,-257.5"/>
<text text-anchor="middle" x="229.59" y="-264.5" font-family="Helvetica,sans-Serif" font-size="10.00">sbml/common/sbmlfwd.h</text>
</a>
</g>
</g>
<!-- Node1&#45;&gt;Node4 -->
<g id="edge3" class="edge">
<title>Node1&#45;&gt;Node4</title>
<path fill="none" stroke="midnightblue" d="M229.59,-313.08C229.59,-306.01 229.59,-295.86 229.59,-286.99"/>
<polygon fill="midnightblue" stroke="midnightblue" points="233.09,-286.75 229.59,-276.75 226.09,-286.75 233.09,-286.75"/>
</g>
<!-- Node8 -->
<g id="node8" class="node">
<title>Node8</title>
<g id="a_node8"><a xlink:title=" ">
<polygon fill="white" stroke="#bfbfbf" points="317.59,-257.5 317.59,-276.5 361.59,-276.5 361.59,-257.5 317.59,-257.5"/>
<text text-anchor="middle" x="339.59" y="-264.5" font-family="Helvetica,sans-Serif" font-size="10.00">string</text>
</a>
</g>
</g>
<!-- Node1&#45;&gt;Node8 -->
<g id="edge10" class="edge">
<title>Node1&#45;&gt;Node8</title>
<path fill="none" stroke="midnightblue" d="M247.26,-313.32C264.98,-304.62 292.49,-291.12 312.88,-281.11"/>
<polygon fill="midnightblue" stroke="midnightblue" points="314.52,-284.2 321.96,-276.65 311.44,-277.92 314.52,-284.2"/>
</g>
<!-- Node3 -->
<g id="node3" class="node">
<title>Node3</title>
<g id="a_node3"><a xlink:title=" ">
<polygon fill="white" stroke="#bfbfbf" points="258.09,-0.5 258.09,-30.5 383.09,-30.5 383.09,-0.5 258.09,-0.5"/>
<text text-anchor="start" x="266.09" y="-18.5" font-family="Helvetica,sans-Serif" font-size="10.00">sbml/common/libsbml</text>
<text text-anchor="middle" x="320.59" y="-7.5" font-family="Helvetica,sans-Serif" font-size="10.00">&#45;namespace.h</text>
</a>
</g>
</g>
<!-- Node2&#45;&gt;Node3 -->
<g id="edge2" class="edge">
<title>Node2&#45;&gt;Node3</title>
<path fill="none" stroke="midnightblue" d="M240.91,-67.48C253.62,-59.34 273.24,-46.79 289.83,-36.18"/>
<polygon fill="midnightblue" stroke="midnightblue" points="292.13,-38.86 298.67,-30.52 288.36,-32.96 292.13,-38.86"/>
</g>
<!-- Node4&#45;&gt;Node3 -->
<g id="edge4" class="edge">
<title>Node4&#45;&gt;Node3</title>
<path fill="none" stroke="midnightblue" d="M250.79,-257.42C266.63,-249.99 287.7,-237.78 300.59,-221 343.33,-165.33 345.68,-136.46 335.59,-67 334.31,-58.22 331.85,-48.84 329.28,-40.58"/>
<polygon fill="midnightblue" stroke="midnightblue" points="332.52,-39.23 326.05,-30.84 325.87,-41.43 332.52,-39.23"/>
</g>
<!-- Node5 -->
<g id="node5" class="node">
<title>Node5</title>
<g id="a_node5"><a xlink:href="libsbml-config_8h.html" target="_top" xlink:title="Decides whether to #include Unix or Windows configuration variables.">
<polygon fill="white" stroke="black" points="167.09,-190.5 167.09,-220.5 292.09,-220.5 292.09,-190.5 167.09,-190.5"/>
<text text-anchor="start" x="175.09" y="-208.5" font-family="Helvetica,sans-Serif" font-size="10.00">sbml/common/libsbml</text>
<text text-anchor="middle" x="229.59" y="-197.5" font-family="Helvetica,sans-Serif" font-size="10.00">&#45;config.h</text>
</a>
</g>
</g>
<!-- Node4&#45;&gt;Node5 -->
<g id="edge5" class="edge">
<title>Node4&#45;&gt;Node5</title>
<path fill="none" stroke="midnightblue" d="M229.59,-257.48C229.59,-250.47 229.59,-240.19 229.59,-230.7"/>
<polygon fill="midnightblue" stroke="midnightblue" points="233.09,-230.52 229.59,-220.52 226.09,-230.52 233.09,-230.52"/>
</g>
<!-- Node5&#45;&gt;Node3 -->
<g id="edge6" class="edge">
<title>Node5&#45;&gt;Node3</title>
<path fill="none" stroke="midnightblue" d="M259.67,-190.42C274.39,-181.95 290.96,-169.75 300.59,-154 322,-118.96 323.78,-69.71 322.57,-40.65"/>
<polygon fill="midnightblue" stroke="midnightblue" points="326.05,-40.36 321.99,-30.57 319.07,-40.76 326.05,-40.36"/>
</g>
<!-- Node6 -->
<g id="node6" class="node">
<title>Node6</title>
<g id="a_node6"><a xlink:title=" ">
<polygon fill="white" stroke="#bfbfbf" points="24.09,-123.5 24.09,-153.5 149.09,-153.5 149.09,-123.5 24.09,-123.5"/>
<text text-anchor="start" x="32.09" y="-141.5" font-family="Helvetica,sans-Serif" font-size="10.00">sbml/common/libsbml</text>
<text text-anchor="middle" x="86.59" y="-130.5" font-family="Helvetica,sans-Serif" font-size="10.00">&#45;config&#45;common.h</text>
</a>
</g>
</g>
<!-- Node5&#45;&gt;Node6 -->
<g id="edge7" class="edge">
<title>Node5&#45;&gt;Node6</title>
<path fill="none" stroke="midnightblue" d="M198.56,-190.4C177.57,-180.86 149.65,-168.16 126.93,-157.84"/>
<polygon fill="midnightblue" stroke="midnightblue" points="128.11,-154.53 117.56,-153.58 125.21,-160.9 128.11,-154.53"/>
</g>
<!-- Node7 -->
<g id="node7" class="node">
<title>Node7</title>
<g id="a_node7"><a xlink:href="libsbml-version_8h.html" target="_top" xlink:title="Define libSBML version numbers for access from client software.">
<polygon fill="white" stroke="black" points="167.09,-123.5 167.09,-153.5 292.09,-153.5 292.09,-123.5 167.09,-123.5"/>
<text text-anchor="start" x="175.09" y="-141.5" font-family="Helvetica,sans-Serif" font-size="10.00">sbml/common/libsbml</text>
<text text-anchor="middle" x="229.59" y="-130.5" font-family="Helvetica,sans-Serif" font-size="10.00">&#45;version.h</text>
</a>
</g>
</g>
<!-- Node5&#45;&gt;Node7 -->
<g id="edge8" class="edge">
<title>Node5&#45;&gt;Node7</title>
<path fill="none" stroke="midnightblue" d="M229.59,-190.4C229.59,-182.64 229.59,-172.81 229.59,-163.86"/>
<polygon fill="midnightblue" stroke="midnightblue" points="233.09,-163.58 229.59,-153.58 226.09,-163.58 233.09,-163.58"/>
</g>
<!-- Node7&#45;&gt;Node2 -->
<g id="edge9" class="edge">
<title>Node7&#45;&gt;Node2</title>
<path fill="none" stroke="midnightblue" d="M229.11,-123.4C228.85,-115.47 228.51,-105.46 228.22,-96.86"/>
<polygon fill="midnightblue" stroke="midnightblue" points="231.71,-96.53 227.88,-86.66 224.72,-96.77 231.71,-96.53"/>
</g>
</g>
</svg>
