<?xml version="1.0" encoding="UTF-8" standalone="no"?>
<!DOCTYPE svg PUBLIC "-//W3C//DTD SVG 1.1//EN"
 "http://www.w3.org/Graphics/SVG/1.1/DTD/svg11.dtd">
<!-- Generated by graphviz version 2.43.0 (0)
 -->
<!-- Title: CoordinateComponent.h Pages: 1 -->
<svg width="498pt" height="308pt"
 viewBox="0.00 0.00 497.50 308.00" xmlns="http://www.w3.org/2000/svg" xmlns:xlink="http://www.w3.org/1999/xlink">
<g id="graph0" class="graph" transform="scale(1 1) rotate(0) translate(4 304)">
<title>CoordinateComponent.h</title>
<polygon fill="white" stroke="transparent" points="-4,4 -4,-304 493.5,-304 493.5,4 -4,4"/>
<!-- Node1 -->
<g id="node1" class="node">
<title>Node1</title>
<g id="a_node1"><a xlink:title="Definition of the CoordinateComponent class.">
<polygon fill="#bfbfbf" stroke="black" points="59,-280.5 59,-299.5 194,-299.5 194,-280.5 59,-280.5"/>
<text text-anchor="middle" x="126.5" y="-287.5" font-family="Helvetica,sans-Serif" font-size="10.00">CoordinateComponent.h</text>
</a>
</g>
</g>
<!-- Node2 -->
<g id="node2" class="node">
<title>Node2</title>
<g id="a_node2"><a xlink:href="_spatial_extension_types_8h.html" target="_top" xlink:title="Definition of SpatialExtensionTypes.">
<polygon fill="white" stroke="black" points="0,-56.5 0,-75.5 135,-75.5 135,-56.5 0,-56.5"/>
<text text-anchor="middle" x="67.5" y="-63.5" font-family="Helvetica,sans-Serif" font-size="10.00">SpatialExtensionTypes.h</text>
</a>
</g>
</g>
<!-- Node1&#45;&gt;Node2 -->
<g id="edge1" class="edge">
<title>Node1&#45;&gt;Node2</title>
<path fill="none" stroke="midnightblue" d="M108.23,-273.75C88.16,-255.69 57.11,-223.55 44.5,-188 30.13,-147.49 52.5,-96 62.78,-75.75"/>
<polygon fill="midnightblue" stroke="midnightblue" points="105.99,-276.44 115.82,-280.39 110.59,-271.17 105.99,-276.44"/>
</g>
<!-- Node4 -->
<g id="node4" class="node">
<title>Node4</title>
<g id="a_node4"><a xlink:href="_coordinate_component_8cpp.html" target="_top" xlink:title="Implementation of the CoordinateComponent class.">
<polygon fill="white" stroke="black" points="53.5,-168.5 53.5,-187.5 199.5,-187.5 199.5,-168.5 53.5,-168.5"/>
<text text-anchor="middle" x="126.5" y="-175.5" font-family="Helvetica,sans-Serif" font-size="10.00">CoordinateComponent.cpp</text>
</a>
</g>
</g>
<!-- Node1&#45;&gt;Node4 -->
<g id="edge3" class="edge">
<title>Node1&#45;&gt;Node4</title>
<path fill="none" stroke="midnightblue" d="M126.5,-270.35C126.5,-246.25 126.5,-205.31 126.5,-187.59"/>
<polygon fill="midnightblue" stroke="midnightblue" points="123,-270.37 126.5,-280.37 130,-270.37 123,-270.37"/>
</g>
<!-- Node5 -->
<g id="node5" class="node">
<title>Node5</title>
<g id="a_node5"><a xlink:href="_list_of_coordinate_components_8h.html" target="_top" xlink:title="Definition of the ListOfCoordinateComponents class.">
<polygon fill="white" stroke="black" points="162,-224.5 162,-243.5 331,-243.5 331,-224.5 162,-224.5"/>
<text text-anchor="middle" x="246.5" y="-231.5" font-family="Helvetica,sans-Serif" font-size="10.00">ListOfCoordinateComponents.h</text>
</a>
</g>
</g>
<!-- Node1&#45;&gt;Node5 -->
<g id="edge4" class="edge">
<title>Node1&#45;&gt;Node5</title>
<path fill="none" stroke="midnightblue" d="M154.87,-276.23C177.32,-266.13 208.04,-252.31 227.57,-243.52"/>
<polygon fill="midnightblue" stroke="midnightblue" points="153.2,-273.15 145.51,-280.44 156.07,-279.53 153.2,-273.15"/>
</g>
<!-- Node3 -->
<g id="node3" class="node">
<title>Node3</title>
<g id="a_node3"><a xlink:href="_spatial_validator_8cpp.html" target="_top" xlink:title="Definition of SpatialValidator.">
<polygon fill="white" stroke="black" points="11,-0.5 11,-19.5 124,-19.5 124,-0.5 11,-0.5"/>
<text text-anchor="middle" x="67.5" y="-7.5" font-family="Helvetica,sans-Serif" font-size="10.00">SpatialValidator.cpp</text>
</a>
</g>
</g>
<!-- Node2&#45;&gt;Node3 -->
<g id="edge2" class="edge">
<title>Node2&#45;&gt;Node3</title>
<path fill="none" stroke="midnightblue" d="M67.5,-45.8C67.5,-36.91 67.5,-26.78 67.5,-19.75"/>
<polygon fill="midnightblue" stroke="midnightblue" points="64,-46.08 67.5,-56.08 71,-46.08 64,-46.08"/>
</g>
<!-- Node5&#45;&gt;Node4 -->
<g id="edge5" class="edge">
<title>Node5&#45;&gt;Node4</title>
<path fill="none" stroke="midnightblue" d="M218.13,-220.23C195.68,-210.13 164.96,-196.31 145.43,-187.52"/>
<polygon fill="midnightblue" stroke="midnightblue" points="216.93,-223.53 227.49,-224.44 219.8,-217.15 216.93,-223.53"/>
</g>
<!-- Node6 -->
<g id="node6" class="node">
<title>Node6</title>
<g id="a_node6"><a xlink:href="_geometry_8h.html" target="_top" xlink:title="Definition of the Geometry class.">
<polygon fill="white" stroke="black" points="218,-168.5 218,-187.5 291,-187.5 291,-168.5 218,-168.5"/>
<text text-anchor="middle" x="254.5" y="-175.5" font-family="Helvetica,sans-Serif" font-size="10.00">Geometry.h</text>
</a>
</g>
</g>
<!-- Node5&#45;&gt;Node6 -->
<g id="edge6" class="edge">
<title>Node5&#45;&gt;Node6</title>
<path fill="none" stroke="midnightblue" d="M249.3,-214.1C250.63,-205.14 252.15,-194.86 253.2,-187.75"/>
<polygon fill="midnightblue" stroke="midnightblue" points="245.82,-213.68 247.82,-224.08 252.75,-214.7 245.82,-213.68"/>
</g>
<!-- Node11 -->
<g id="node11" class="node">
<title>Node11</title>
<g id="a_node11"><a xlink:href="_list_of_coordinate_components_8cpp.html" target="_top" xlink:title="Implementation of the ListOfCoordinateComponents class.">
<polygon fill="white" stroke="black" points="309.5,-168.5 309.5,-187.5 489.5,-187.5 489.5,-168.5 309.5,-168.5"/>
<text text-anchor="middle" x="399.5" y="-175.5" font-family="Helvetica,sans-Serif" font-size="10.00">ListOfCoordinateComponents.cpp</text>
</a>
</g>
</g>
<!-- Node5&#45;&gt;Node11 -->
<g id="edge13" class="edge">
<title>Node5&#45;&gt;Node11</title>
<path fill="none" stroke="midnightblue" d="M280.39,-221.04C309.18,-210.88 349.79,-196.55 375.37,-187.52"/>
<polygon fill="midnightblue" stroke="midnightblue" points="279.01,-217.81 270.74,-224.44 281.34,-224.42 279.01,-217.81"/>
</g>
<!-- Node6&#45;&gt;Node2 -->
<g id="edge7" class="edge">
<title>Node6&#45;&gt;Node2</title>
<path fill="none" stroke="midnightblue" d="M216.68,-165.09C194.52,-157.29 166.46,-145.96 143.5,-132 116.2,-115.4 88.88,-89.08 75.68,-75.59"/>
<polygon fill="midnightblue" stroke="midnightblue" points="215.82,-168.5 226.41,-168.42 218.08,-161.87 215.82,-168.5"/>
</g>
<!-- Node7 -->
<g id="node7" class="node">
<title>Node7</title>
<g id="a_node7"><a xlink:href="_spatial_model_plugin_8h.html" target="_top" xlink:title="Definition of the SpatialModelPlugin class.">
<polygon fill="white" stroke="black" points="153,-112.5 153,-131.5 272,-131.5 272,-112.5 153,-112.5"/>
<text text-anchor="middle" x="212.5" y="-119.5" font-family="Helvetica,sans-Serif" font-size="10.00">SpatialModelPlugin.h</text>
</a>
</g>
</g>
<!-- Node6&#45;&gt;Node7 -->
<g id="edge8" class="edge">
<title>Node6&#45;&gt;Node7</title>
<path fill="none" stroke="midnightblue" d="M241.39,-160.14C234.07,-150.74 225.26,-139.4 219.31,-131.75"/>
<polygon fill="midnightblue" stroke="midnightblue" points="238.66,-162.34 247.56,-168.08 244.19,-158.04 238.66,-162.34"/>
</g>
<!-- Node10 -->
<g id="node10" class="node">
<title>Node10</title>
<g id="a_node10"><a xlink:href="_geometry_8cpp.html" target="_top" xlink:title="Implementation of the Geometry class.">
<polygon fill="white" stroke="black" points="290.5,-112.5 290.5,-131.5 374.5,-131.5 374.5,-112.5 290.5,-112.5"/>
<text text-anchor="middle" x="332.5" y="-119.5" font-family="Helvetica,sans-Serif" font-size="10.00">Geometry.cpp</text>
</a>
</g>
</g>
<!-- Node6&#45;&gt;Node10 -->
<g id="edge12" class="edge">
<title>Node6&#45;&gt;Node10</title>
<path fill="none" stroke="midnightblue" d="M275.27,-162.62C289.52,-152.76 307.96,-139.99 320,-131.65"/>
<polygon fill="midnightblue" stroke="midnightblue" points="273.26,-159.75 267.03,-168.32 277.25,-165.51 273.26,-159.75"/>
</g>
<!-- Node7&#45;&gt;Node2 -->
<g id="edge9" class="edge">
<title>Node7&#45;&gt;Node2</title>
<path fill="none" stroke="midnightblue" d="M180.02,-108.91C152.76,-98.75 114.51,-84.51 90.37,-75.52"/>
<polygon fill="midnightblue" stroke="midnightblue" points="178.93,-112.23 189.52,-112.44 181.37,-105.67 178.93,-112.23"/>
</g>
<!-- Node8 -->
<g id="node8" class="node">
<title>Node8</title>
<g id="a_node8"><a xlink:href="_spatial_extension_8cpp.html" target="_top" xlink:title="Implementation of SpatialExtension.">
<polygon fill="white" stroke="black" points="153,-56.5 153,-75.5 272,-75.5 272,-56.5 153,-56.5"/>
<text text-anchor="middle" x="212.5" y="-63.5" font-family="Helvetica,sans-Serif" font-size="10.00">SpatialExtension.cpp</text>
</a>
</g>
</g>
<!-- Node7&#45;&gt;Node8 -->
<g id="edge10" class="edge">
<title>Node7&#45;&gt;Node8</title>
<path fill="none" stroke="midnightblue" d="M212.5,-101.8C212.5,-92.91 212.5,-82.78 212.5,-75.75"/>
<polygon fill="midnightblue" stroke="midnightblue" points="209,-102.08 212.5,-112.08 216,-102.08 209,-102.08"/>
</g>
<!-- Node9 -->
<g id="node9" class="node">
<title>Node9</title>
<g id="a_node9"><a xlink:href="_spatial_model_plugin_8cpp.html" target="_top" xlink:title="Implementation of the SpatialModelPlugin class.">
<polygon fill="white" stroke="black" points="290,-56.5 290,-75.5 421,-75.5 421,-56.5 290,-56.5"/>
<text text-anchor="middle" x="355.5" y="-63.5" font-family="Helvetica,sans-Serif" font-size="10.00">SpatialModelPlugin.cpp</text>
</a>
</g>
</g>
<!-- Node7&#45;&gt;Node9 -->
<g id="edge11" class="edge">
<title>Node7&#45;&gt;Node9</title>
<path fill="none" stroke="midnightblue" d="M244.53,-108.91C271.41,-98.75 309.14,-84.51 332.95,-75.52"/>
<polygon fill="midnightblue" stroke="midnightblue" points="243.28,-105.64 235.16,-112.44 245.75,-112.19 243.28,-105.64"/>
</g>
</g>
</svg>
