<?xml version="1.0" encoding="UTF-8" standalone="no"?>
<!DOCTYPE svg PUBLIC "-//W3C//DTD SVG 1.1//EN"
 "http://www.w3.org/Graphics/SVG/1.1/DTD/svg11.dtd">
<!-- Generated by graphviz version 2.43.0 (0)
 -->
<!-- Title: DefaultValues.h Pages: 1 -->
<svg width="1462pt" height="364pt"
 viewBox="0.00 0.00 1462.00 364.00" xmlns="http://www.w3.org/2000/svg" xmlns:xlink="http://www.w3.org/1999/xlink">
<g id="graph0" class="graph" transform="scale(1 1) rotate(0) translate(4 360)">
<title>DefaultValues.h</title>
<polygon fill="white" stroke="transparent" points="-4,4 -4,-360 1458,-360 1458,4 -4,4"/>
<!-- Node1 -->
<g id="node1" class="node">
<title>Node1</title>
<g id="a_node1"><a xlink:title="Definition of the DefaultValues class.">
<polygon fill="#bfbfbf" stroke="black" points="804,-336.5 804,-355.5 898,-355.5 898,-336.5 804,-336.5"/>
<text text-anchor="middle" x="851" y="-343.5" font-family="Helvetica,sans-Serif" font-size="10.00">DefaultValues.h</text>
</a>
</g>
</g>
<!-- Node2 -->
<g id="node2" class="node">
<title>Node2</title>
<g id="a_node2"><a xlink:href="_render_extension_types_8h.html" target="_top" xlink:title="Definition of RenderExtensionTypes.">
<polygon fill="white" stroke="black" points="761,-112.5 761,-131.5 897,-131.5 897,-112.5 761,-112.5"/>
<text text-anchor="middle" x="829" y="-119.5" font-family="Helvetica,sans-Serif" font-size="10.00">RenderExtensionTypes.h</text>
</a>
</g>
</g>
<!-- Node1&#45;&gt;Node2 -->
<g id="edge1" class="edge">
<title>Node1&#45;&gt;Node2</title>
<path fill="none" stroke="midnightblue" d="M861.28,-327.63C865.49,-319.52 869.88,-309.57 872,-300 873.93,-291.32 872.75,-288.86 872,-280 867.76,-229.69 869.31,-215.78 853,-168 848.42,-154.59 840.19,-140.37 834.66,-131.58"/>
<polygon fill="midnightblue" stroke="midnightblue" points="858.18,-326 856.38,-336.44 864.3,-329.4 858.18,-326"/>
</g>
<!-- Node9 -->
<g id="node9" class="node">
<title>Node9</title>
<g id="a_node9"><a xlink:href="_default_values_8cpp.html" target="_top" xlink:title="Implementation of the DefaultValues class.">
<polygon fill="white" stroke="black" points="758.5,-280.5 758.5,-299.5 863.5,-299.5 863.5,-280.5 758.5,-280.5"/>
<text text-anchor="middle" x="811" y="-287.5" font-family="Helvetica,sans-Serif" font-size="10.00">DefaultValues.cpp</text>
</a>
</g>
</g>
<!-- Node1&#45;&gt;Node9 -->
<g id="edge10" class="edge">
<title>Node1&#45;&gt;Node9</title>
<path fill="none" stroke="midnightblue" d="M838.3,-327.86C831.37,-318.5 823.09,-307.33 817.48,-299.75"/>
<polygon fill="midnightblue" stroke="midnightblue" points="835.63,-330.13 844.39,-336.08 841.25,-325.96 835.63,-330.13"/>
</g>
<!-- Node10 -->
<g id="node10" class="node">
<title>Node10</title>
<g id="a_node10"><a xlink:href="_list_of_global_render_information_8h.html" target="_top" xlink:title="Definition of the ListOfGlobalRenderInformation class.">
<polygon fill="white" stroke="black" points="348.5,-280.5 348.5,-299.5 525.5,-299.5 525.5,-280.5 348.5,-280.5"/>
<text text-anchor="middle" x="437" y="-287.5" font-family="Helvetica,sans-Serif" font-size="10.00">ListOfGlobalRenderInformation.h</text>
</a>
</g>
</g>
<!-- Node1&#45;&gt;Node10 -->
<g id="edge11" class="edge">
<title>Node1&#45;&gt;Node10</title>
<path fill="none" stroke="midnightblue" d="M793.53,-337.5C717.17,-327.54 582.57,-309.99 502.4,-299.53"/>
<polygon fill="midnightblue" stroke="midnightblue" points="793.54,-341.04 803.91,-338.86 794.45,-334.09 793.54,-341.04"/>
</g>
<!-- Node17 -->
<g id="node17" class="node">
<title>Node17</title>
<g id="a_node17"><a xlink:href="_list_of_local_render_information_8h.html" target="_top" xlink:title="Definition of the ListOfLocalRenderInformation class.">
<polygon fill="white" stroke="black" points="927.5,-224.5 927.5,-243.5 1098.5,-243.5 1098.5,-224.5 927.5,-224.5"/>
<text text-anchor="middle" x="1013" y="-231.5" font-family="Helvetica,sans-Serif" font-size="10.00">ListOfLocalRenderInformation.h</text>
</a>
</g>
</g>
<!-- Node1&#45;&gt;Node17 -->
<g id="edge28" class="edge">
<title>Node1&#45;&gt;Node17</title>
<path fill="none" stroke="midnightblue" d="M872.04,-330.71C906.18,-307.53 972.6,-262.43 1000.35,-243.59"/>
<polygon fill="midnightblue" stroke="midnightblue" points="870.02,-327.86 863.71,-336.37 873.95,-333.65 870.02,-327.86"/>
</g>
<!-- Node3 -->
<g id="node3" class="node">
<title>Node3</title>
<g id="a_node3"><a xlink:href="_render_layout_plugin_8cpp.html" target="_top" xlink:title="Implementation of RenderLayoutPlugin, the plugin class of the fbc package for the Model element.">
<polygon fill="white" stroke="black" points="958,-0.5 958,-19.5 1092,-19.5 1092,-0.5 958,-0.5"/>
<text text-anchor="middle" x="1025" y="-7.5" font-family="Helvetica,sans-Serif" font-size="10.00">RenderLayoutPlugin.cpp</text>
</a>
</g>
</g>
<!-- Node2&#45;&gt;Node3 -->
<g id="edge2" class="edge">
<title>Node2&#45;&gt;Node3</title>
<path fill="none" stroke="midnightblue" d="M897.77,-110.7C940.56,-102.96 990.34,-91.12 1006,-76 1021.73,-60.81 1024.63,-33.38 1025.04,-19.52"/>
<polygon fill="midnightblue" stroke="midnightblue" points="897.16,-107.25 887.91,-112.43 898.37,-114.15 897.16,-107.25"/>
</g>
<!-- Node4 -->
<g id="node4" class="node">
<title>Node4</title>
<g id="a_node4"><a xlink:href="_render_layout_converter_8cpp.html" target="_top" xlink:title="Simple converter to convert Layout + Render from l2 to L3 and vice versa.">
<polygon fill="white" stroke="black" points="597,-56.5 597,-75.5 749,-75.5 749,-56.5 597,-56.5"/>
<text text-anchor="middle" x="673" y="-63.5" font-family="Helvetica,sans-Serif" font-size="10.00">RenderLayoutConverter.cpp</text>
</a>
</g>
</g>
<!-- Node2&#45;&gt;Node4 -->
<g id="edge3" class="edge">
<title>Node2&#45;&gt;Node4</title>
<path fill="none" stroke="midnightblue" d="M794.83,-109.17C765.46,-99 723.8,-84.59 697.6,-75.52"/>
<polygon fill="midnightblue" stroke="midnightblue" points="793.69,-112.48 804.28,-112.44 795.98,-105.86 793.69,-112.48"/>
</g>
<!-- Node5 -->
<g id="node5" class="node">
<title>Node5</title>
<g id="a_node5"><a xlink:href="_render_utilities_8cpp.html" target="_top" xlink:title="implementation of RenderUtilities, a class of utility functions for the render package">
<polygon fill="white" stroke="black" points="696,-0.5 696,-19.5 806,-19.5 806,-0.5 696,-0.5"/>
<text text-anchor="middle" x="751" y="-7.5" font-family="Helvetica,sans-Serif" font-size="10.00">RenderUtilities.cpp</text>
</a>
</g>
</g>
<!-- Node2&#45;&gt;Node5 -->
<g id="edge4" class="edge">
<title>Node2&#45;&gt;Node5</title>
<path fill="none" stroke="midnightblue" d="M750.51,-116.94C688.28,-111.88 608.48,-100.66 588,-76 555.1,-36.39 636.68,-20.75 695.92,-14.7"/>
<polygon fill="midnightblue" stroke="midnightblue" points="750.49,-120.45 760.73,-117.73 751.03,-113.47 750.49,-120.45"/>
</g>
<!-- Node6 -->
<g id="node6" class="node">
<title>Node6</title>
<g id="a_node6"><a xlink:href="_render_utilities_8h.html" target="_top" xlink:title="Definition of RenderUtilities, a class of utility functions for the render package.">
<polygon fill="white" stroke="black" points="899,-56.5 899,-75.5 997,-75.5 997,-56.5 899,-56.5"/>
<text text-anchor="middle" x="948" y="-63.5" font-family="Helvetica,sans-Serif" font-size="10.00">RenderUtilities.h</text>
</a>
</g>
</g>
<!-- Node2&#45;&gt;Node6 -->
<g id="edge5" class="edge">
<title>Node2&#45;&gt;Node6</title>
<path fill="none" stroke="midnightblue" d="M857.14,-108.23C879.4,-98.13 909.86,-84.31 929.23,-75.52"/>
<polygon fill="midnightblue" stroke="midnightblue" points="855.52,-105.12 847.86,-112.44 858.41,-111.5 855.52,-105.12"/>
</g>
<!-- Node8 -->
<g id="node8" class="node">
<title>Node8</title>
<g id="a_node8"><a xlink:href="_render_validator_8cpp.html" target="_top" xlink:title="Definition of RenderValidator.">
<polygon fill="white" stroke="black" points="767,-56.5 767,-75.5 881,-75.5 881,-56.5 767,-56.5"/>
<text text-anchor="middle" x="824" y="-63.5" font-family="Helvetica,sans-Serif" font-size="10.00">RenderValidator.cpp</text>
</a>
</g>
</g>
<!-- Node2&#45;&gt;Node8 -->
<g id="edge9" class="edge">
<title>Node2&#45;&gt;Node8</title>
<path fill="none" stroke="midnightblue" d="M827.25,-102.1C826.42,-93.14 825.47,-82.86 824.81,-75.75"/>
<polygon fill="midnightblue" stroke="midnightblue" points="823.77,-102.45 828.17,-112.08 830.74,-101.8 823.77,-102.45"/>
</g>
<!-- Node6&#45;&gt;Node3 -->
<g id="edge6" class="edge">
<title>Node6&#45;&gt;Node3</title>
<path fill="none" stroke="midnightblue" d="M968.9,-50.34C982.91,-40.52 1000.88,-27.91 1012.66,-19.65"/>
<polygon fill="midnightblue" stroke="midnightblue" points="966.55,-47.72 960.37,-56.32 970.57,-53.45 966.55,-47.72"/>
</g>
<!-- Node6&#45;&gt;Node5 -->
<g id="edge8" class="edge">
<title>Node6&#45;&gt;Node5</title>
<path fill="none" stroke="midnightblue" d="M906.77,-53.7C869.59,-43.51 815.73,-28.74 782.07,-19.52"/>
<polygon fill="midnightblue" stroke="midnightblue" points="906.22,-57.18 916.78,-56.44 908.07,-50.42 906.22,-57.18"/>
</g>
<!-- Node7 -->
<g id="node7" class="node">
<title>Node7</title>
<g id="a_node7"><a xlink:href="_render_list_of_layouts_plugin_8cpp.html" target="_top" xlink:title="Implementation of RenderListOfLayoutsPlugin, the plugin class of the fbc package for the Model elemen...">
<polygon fill="white" stroke="black" points="375,-0.5 375,-19.5 543,-19.5 543,-0.5 375,-0.5"/>
<text text-anchor="middle" x="459" y="-7.5" font-family="Helvetica,sans-Serif" font-size="10.00">RenderListOfLayoutsPlugin.cpp</text>
</a>
</g>
</g>
<!-- Node6&#45;&gt;Node7 -->
<g id="edge7" class="edge">
<title>Node6&#45;&gt;Node7</title>
<path fill="none" stroke="midnightblue" d="M888.74,-55.89C762.56,-39.7 628.08,-26.42 543.38,-18.55"/>
<polygon fill="midnightblue" stroke="midnightblue" points="888.61,-59.41 898.98,-57.22 889.51,-52.46 888.61,-59.41"/>
</g>
<!-- Node10&#45;&gt;Node2 -->
<g id="edge12" class="edge">
<title>Node10&#45;&gt;Node2</title>
<path fill="none" stroke="midnightblue" d="M524.91,-279.19C630.25,-265.41 797.31,-236.44 835,-188 847.8,-171.54 839.1,-145.16 833.2,-131.63"/>
<polygon fill="midnightblue" stroke="midnightblue" points="524.39,-275.73 514.92,-280.48 525.28,-282.67 524.39,-275.73"/>
</g>
<!-- Node10&#45;&gt;Node7 -->
<g id="edge13" class="edge">
<title>Node10&#45;&gt;Node7</title>
<path fill="none" stroke="midnightblue" d="M341.33,-278.53C281.61,-266.07 216,-238.78 216,-179 216,-179 216,-179 216,-121 216,-49.45 304.51,-24.2 374.69,-15.42"/>
<polygon fill="midnightblue" stroke="midnightblue" points="340.75,-281.99 351.24,-280.48 342.1,-275.12 340.75,-281.99"/>
</g>
<!-- Node11 -->
<g id="node11" class="node">
<title>Node11</title>
<g id="a_node11"><a xlink:href="_render_list_of_layouts_plugin_8h.html" target="_top" xlink:title="Definition of RenderListOfLayoutsPlugin, the plugin class of fbc package for the Model element.">
<polygon fill="white" stroke="black" points="460.5,-168.5 460.5,-187.5 617.5,-187.5 617.5,-168.5 460.5,-168.5"/>
<text text-anchor="middle" x="539" y="-175.5" font-family="Helvetica,sans-Serif" font-size="10.00">RenderListOfLayoutsPlugin.h</text>
</a>
</g>
</g>
<!-- Node10&#45;&gt;Node11 -->
<g id="edge14" class="edge">
<title>Node10&#45;&gt;Node11</title>
<path fill="none" stroke="midnightblue" d="M473.87,-276.5C490.1,-269.3 508.12,-258.71 520,-244 533.59,-227.17 537.46,-200.95 538.56,-187.54"/>
<polygon fill="midnightblue" stroke="midnightblue" points="472.49,-273.29 464.59,-280.35 475.17,-279.75 472.49,-273.29"/>
</g>
<!-- Node13 -->
<g id="node13" class="node">
<title>Node13</title>
<g id="a_node13"><a xlink:href="_global_render_information_8cpp.html" target="_top" xlink:title="class for the storage of global render information">
<polygon fill="white" stroke="black" points="244,-168.5 244,-187.5 404,-187.5 404,-168.5 244,-168.5"/>
<text text-anchor="middle" x="324" y="-175.5" font-family="Helvetica,sans-Serif" font-size="10.00">GlobalRenderInformation.cpp</text>
</a>
</g>
</g>
<!-- Node10&#45;&gt;Node13 -->
<g id="edge19" class="edge">
<title>Node10&#45;&gt;Node13</title>
<path fill="none" stroke="midnightblue" d="M401.97,-276.46C385.41,-269.1 366.38,-258.38 353,-244 337.51,-227.35 329.31,-201.06 325.92,-187.58"/>
<polygon fill="midnightblue" stroke="midnightblue" points="400.81,-279.77 411.38,-280.41 403.52,-273.31 400.81,-279.77"/>
</g>
<!-- Node14 -->
<g id="node14" class="node">
<title>Node14</title>
<g id="a_node14"><a xlink:href="_global_render_information_8h.html" target="_top" xlink:title="Definition of the GlobalRenderInformation class.">
<polygon fill="white" stroke="black" points="362.5,-224.5 362.5,-243.5 511.5,-243.5 511.5,-224.5 362.5,-224.5"/>
<text text-anchor="middle" x="437" y="-231.5" font-family="Helvetica,sans-Serif" font-size="10.00">GlobalRenderInformation.h</text>
</a>
</g>
</g>
<!-- Node10&#45;&gt;Node14 -->
<g id="edge20" class="edge">
<title>Node10&#45;&gt;Node14</title>
<path fill="none" stroke="midnightblue" d="M430.53,-270.1C429.9,-261.14 430.34,-250.86 431.87,-243.75"/>
<polygon fill="midnightblue" stroke="midnightblue" points="427.07,-270.62 431.83,-280.08 434.01,-269.71 427.07,-270.62"/>
</g>
<!-- Node16 -->
<g id="node16" class="node">
<title>Node16</title>
<g id="a_node16"><a xlink:href="_list_of_global_render_information_8cpp.html" target="_top" xlink:title="Implementation of the ListOfGlobalRenderInformation class.">
<polygon fill="white" stroke="black" points="0,-224.5 0,-243.5 188,-243.5 188,-224.5 0,-224.5"/>
<text text-anchor="middle" x="94" y="-231.5" font-family="Helvetica,sans-Serif" font-size="10.00">ListOfGlobalRenderInformation.cpp</text>
</a>
</g>
</g>
<!-- Node10&#45;&gt;Node16 -->
<g id="edge27" class="edge">
<title>Node10&#45;&gt;Node16</title>
<path fill="none" stroke="midnightblue" d="M372.55,-278.85C307.75,-268.65 208.95,-253.1 148.1,-243.52"/>
<polygon fill="midnightblue" stroke="midnightblue" points="372.23,-282.35 382.65,-280.44 373.32,-275.43 372.23,-282.35"/>
</g>
<!-- Node11&#45;&gt;Node2 -->
<g id="edge15" class="edge">
<title>Node11&#45;&gt;Node2</title>
<path fill="none" stroke="midnightblue" d="M594.85,-166.6C649.65,-156.4 732.23,-141.02 783.26,-131.52"/>
<polygon fill="midnightblue" stroke="midnightblue" points="594.14,-163.17 584.95,-168.44 595.42,-170.05 594.14,-163.17"/>
</g>
<!-- Node11&#45;&gt;Node5 -->
<g id="edge18" class="edge">
<title>Node11&#45;&gt;Node5</title>
<path fill="none" stroke="midnightblue" d="M539.5,-157.92C541.27,-131.26 548.49,-83.08 577,-56 608.67,-25.91 657.74,-15.27 695.71,-11.81"/>
<polygon fill="midnightblue" stroke="midnightblue" points="535.99,-158.06 539.03,-168.21 542.99,-158.38 535.99,-158.06"/>
</g>
<!-- Node11&#45;&gt;Node7 -->
<g id="edge17" class="edge">
<title>Node11&#45;&gt;Node7</title>
<path fill="none" stroke="midnightblue" d="M530.31,-159.31C526.25,-151.03 521.36,-141.01 517,-132 496.6,-89.85 472.48,-39.3 463.06,-19.52"/>
<polygon fill="midnightblue" stroke="midnightblue" points="527.22,-160.95 534.76,-168.38 533.5,-157.86 527.22,-160.95"/>
</g>
<!-- Node12 -->
<g id="node12" class="node">
<title>Node12</title>
<g id="a_node12"><a xlink:href="_render_extension_8cpp.html" target="_top" xlink:title="Implementation of RenderExtension, the core module of the render package.">
<polygon fill="white" stroke="black" points="915.5,-112.5 915.5,-131.5 1034.5,-131.5 1034.5,-112.5 915.5,-112.5"/>
<text text-anchor="middle" x="975" y="-119.5" font-family="Helvetica,sans-Serif" font-size="10.00">RenderExtension.cpp</text>
</a>
</g>
</g>
<!-- Node11&#45;&gt;Node12 -->
<g id="edge16" class="edge">
<title>Node11&#45;&gt;Node12</title>
<path fill="none" stroke="midnightblue" d="M619.95,-167.26C694.33,-158.26 807.62,-144.45 906,-132 909,-131.62 912.07,-131.23 915.16,-130.83"/>
<polygon fill="midnightblue" stroke="midnightblue" points="619.23,-163.82 609.72,-168.49 620.07,-170.77 619.23,-163.82"/>
</g>
<!-- Node14&#45;&gt;Node2 -->
<g id="edge21" class="edge">
<title>Node14&#45;&gt;Node2</title>
<path fill="none" stroke="midnightblue" d="M497.6,-222.43C535.23,-214.92 584.21,-203.44 626,-188 644.27,-181.25 646.84,-175.06 665,-168 706.28,-151.95 755.49,-139.26 789.16,-131.5"/>
<polygon fill="midnightblue" stroke="midnightblue" points="496.45,-219.08 487.31,-224.44 497.79,-225.95 496.45,-219.08"/>
</g>
<!-- Node14&#45;&gt;Node7 -->
<g id="edge22" class="edge">
<title>Node14&#45;&gt;Node7</title>
<path fill="none" stroke="midnightblue" d="M438.85,-214.3C443.38,-168.64 454.85,-52.85 458.12,-19.88"/>
<polygon fill="midnightblue" stroke="midnightblue" points="435.37,-214 437.86,-224.3 442.33,-214.69 435.37,-214"/>
</g>
<!-- Node14&#45;&gt;Node10 -->
<g id="edge25" class="edge">
<title>Node14&#45;&gt;Node10</title>
<path fill="none" stroke="midnightblue" d="M443.46,-253.69C444.11,-262.64 443.68,-272.93 442.17,-280.08"/>
<polygon fill="midnightblue" stroke="midnightblue" points="446.92,-253.2 442.13,-243.75 439.98,-254.13 446.92,-253.2"/>
</g>
<!-- Node14&#45;&gt;Node11 -->
<g id="edge23" class="edge">
<title>Node14&#45;&gt;Node11</title>
<path fill="none" stroke="midnightblue" d="M462.33,-219.59C481.19,-209.61 506.38,-196.27 522.65,-187.65"/>
<polygon fill="midnightblue" stroke="midnightblue" points="460.59,-216.55 453.39,-224.32 463.86,-222.74 460.59,-216.55"/>
</g>
<!-- Node14&#45;&gt;Node13 -->
<g id="edge24" class="edge">
<title>Node14&#45;&gt;Node13</title>
<path fill="none" stroke="midnightblue" d="M410,-220.1C388.89,-210.01 360.14,-196.27 341.82,-187.52"/>
<polygon fill="midnightblue" stroke="midnightblue" points="408.56,-223.29 419.09,-224.44 411.58,-216.97 408.56,-223.29"/>
</g>
<!-- Node15 -->
<g id="node15" class="node">
<title>Node15</title>
<g id="a_node15"><a xlink:href="_render_information_base_8cpp.html" target="_top" xlink:title="Implementation of the RenderInformationBase class.">
<polygon fill="white" stroke="black" points="674,-168.5 674,-187.5 826,-187.5 826,-168.5 674,-168.5"/>
<text text-anchor="middle" x="750" y="-175.5" font-family="Helvetica,sans-Serif" font-size="10.00">RenderInformationBase.cpp</text>
</a>
</g>
</g>
<!-- Node14&#45;&gt;Node15 -->
<g id="edge26" class="edge">
<title>Node14&#45;&gt;Node15</title>
<path fill="none" stroke="midnightblue" d="M496.54,-222.73C555.69,-212.52 645.33,-197.06 700.64,-187.52"/>
<polygon fill="midnightblue" stroke="midnightblue" points="495.86,-219.29 486.6,-224.44 497.05,-226.19 495.86,-219.29"/>
</g>
<!-- Node17&#45;&gt;Node2 -->
<g id="edge29" class="edge">
<title>Node17&#45;&gt;Node2</title>
<path fill="none" stroke="midnightblue" d="M990.08,-218.92C968.46,-205.68 935.11,-185.35 906,-168 884.45,-155.16 859.34,-140.55 843.81,-131.55"/>
<polygon fill="midnightblue" stroke="midnightblue" points="988.5,-222.06 998.85,-224.3 992.16,-216.09 988.5,-222.06"/>
</g>
<!-- Node17&#45;&gt;Node15 -->
<g id="edge37" class="edge">
<title>Node17&#45;&gt;Node15</title>
<path fill="none" stroke="midnightblue" d="M961.42,-222.41C911.72,-212.2 837.47,-196.96 791.48,-187.52"/>
<polygon fill="midnightblue" stroke="midnightblue" points="960.83,-225.86 971.33,-224.44 962.24,-219 960.83,-225.86"/>
</g>
<!-- Node18 -->
<g id="node18" class="node">
<title>Node18</title>
<g id="a_node18"><a xlink:href="_render_layout_plugin_8h.html" target="_top" xlink:title="Definition of RenderLayoutPlugin, the plugin class of fbc package for the Model element.">
<polygon fill="white" stroke="black" points="958.5,-168.5 958.5,-187.5 1081.5,-187.5 1081.5,-168.5 958.5,-168.5"/>
<text text-anchor="middle" x="1020" y="-175.5" font-family="Helvetica,sans-Serif" font-size="10.00">RenderLayoutPlugin.h</text>
</a>
</g>
</g>
<!-- Node17&#45;&gt;Node18 -->
<g id="edge30" class="edge">
<title>Node17&#45;&gt;Node18</title>
<path fill="none" stroke="midnightblue" d="M1015.45,-214.1C1016.61,-205.14 1017.94,-194.86 1018.87,-187.75"/>
<polygon fill="midnightblue" stroke="midnightblue" points="1011.97,-213.72 1014.16,-224.08 1018.91,-214.62 1011.97,-213.72"/>
</g>
<!-- Node19 -->
<g id="node19" class="node">
<title>Node19</title>
<g id="a_node19"><a xlink:href="_list_of_local_render_information_8cpp.html" target="_top" xlink:title="Implementation of the ListOfLocalRenderInformation class.">
<polygon fill="white" stroke="black" points="1100,-168.5 1100,-187.5 1282,-187.5 1282,-168.5 1100,-168.5"/>
<text text-anchor="middle" x="1191" y="-175.5" font-family="Helvetica,sans-Serif" font-size="10.00">ListOfLocalRenderInformation.cpp</text>
</a>
</g>
</g>
<!-- Node17&#45;&gt;Node19 -->
<g id="edge35" class="edge">
<title>Node17&#45;&gt;Node19</title>
<path fill="none" stroke="midnightblue" d="M1051.12,-221.44C1084.68,-211.26 1132.77,-196.66 1162.93,-187.52"/>
<polygon fill="midnightblue" stroke="midnightblue" points="1049.76,-218.19 1041.2,-224.44 1051.79,-224.89 1049.76,-218.19"/>
</g>
<!-- Node20 -->
<g id="node20" class="node">
<title>Node20</title>
<g id="a_node20"><a xlink:href="_local_render_information_8cpp.html" target="_top" xlink:title="Implementation of the LocalRenderInformation class.">
<polygon fill="white" stroke="black" points="1300,-168.5 1300,-187.5 1454,-187.5 1454,-168.5 1300,-168.5"/>
<text text-anchor="middle" x="1377" y="-175.5" font-family="Helvetica,sans-Serif" font-size="10.00">LocalRenderInformation.cpp</text>
</a>
</g>
</g>
<!-- Node17&#45;&gt;Node20 -->
<g id="edge36" class="edge">
<title>Node17&#45;&gt;Node20</title>
<path fill="none" stroke="midnightblue" d="M1080.97,-222.92C1149.74,-212.71 1254.87,-197.12 1319.59,-187.52"/>
<polygon fill="midnightblue" stroke="midnightblue" points="1080.05,-219.51 1070.68,-224.44 1081.08,-226.44 1080.05,-219.51"/>
</g>
<!-- Node18&#45;&gt;Node2 -->
<g id="edge31" class="edge">
<title>Node18&#45;&gt;Node2</title>
<path fill="none" stroke="midnightblue" d="M980.03,-165.7C943.98,-155.51 891.76,-140.74 859.12,-131.52"/>
<polygon fill="midnightblue" stroke="midnightblue" points="979.16,-169.09 989.74,-168.44 981.06,-162.35 979.16,-169.09"/>
</g>
<!-- Node18&#45;&gt;Node3 -->
<g id="edge33" class="edge">
<title>Node18&#45;&gt;Node3</title>
<path fill="none" stroke="midnightblue" d="M1046.67,-163.22C1058.25,-155.7 1070.6,-145.2 1077,-132 1091.73,-101.6 1091.04,-86.72 1077,-56 1069.61,-39.82 1053.2,-27.23 1040.78,-19.53"/>
<polygon fill="midnightblue" stroke="midnightblue" points="1044.84,-160.23 1038.08,-168.39 1048.45,-166.23 1044.84,-160.23"/>
</g>
<!-- Node18&#45;&gt;Node5 -->
<g id="edge34" class="edge">
<title>Node18&#45;&gt;Node5</title>
<path fill="none" stroke="midnightblue" d="M1032.81,-159.86C1040.95,-146.86 1049.06,-128.47 1044,-112 1035.17,-83.25 1031.25,-72.35 1006,-56 973.78,-35.14 871.1,-22.09 806.28,-15.71"/>
<polygon fill="midnightblue" stroke="midnightblue" points="1029.82,-158.04 1027.08,-168.27 1035.6,-161.98 1029.82,-158.04"/>
</g>
<!-- Node18&#45;&gt;Node12 -->
<g id="edge32" class="edge">
<title>Node18&#45;&gt;Node12</title>
<path fill="none" stroke="midnightblue" d="M1005.95,-160.14C998.11,-150.74 988.67,-139.4 982.29,-131.75"/>
<polygon fill="midnightblue" stroke="midnightblue" points="1003.48,-162.64 1012.57,-168.08 1008.86,-158.16 1003.48,-162.64"/>
</g>
</g>
</svg>
