<?xml version="1.0" encoding="UTF-8" standalone="no"?>
<!DOCTYPE svg PUBLIC "-//W3C//DTD SVG 1.1//EN"
 "http://www.w3.org/Graphics/SVG/1.1/DTD/svg11.dtd">
<!-- Generated by graphviz version 2.43.0 (0)
 -->
<!-- Title: DefinitionURLRegistry.h Pages: 1 -->
<svg width="344pt" height="84pt"
 viewBox="0.00 0.00 343.50 84.00" xmlns="http://www.w3.org/2000/svg" xmlns:xlink="http://www.w3.org/1999/xlink">
<g id="graph0" class="graph" transform="scale(1 1) rotate(0) translate(4 80)">
<title>DefinitionURLRegistry.h</title>
<polygon fill="white" stroke="transparent" points="-4,4 -4,-80 339.5,-80 339.5,4 -4,4"/>
<!-- Node1 -->
<g id="node1" class="node">
<title>Node1</title>
<g id="a_node1"><a xlink:title="Definition of DefinitionURLRegistry, a registry of available DefinitionURLs.">
<polygon fill="#bfbfbf" stroke="black" points="134,-56.5 134,-75.5 265,-75.5 265,-56.5 134,-56.5"/>
<text text-anchor="middle" x="199.5" y="-63.5" font-family="Helvetica,sans-Serif" font-size="10.00">DefinitionURLRegistry.h</text>
</a>
</g>
</g>
<!-- Node2 -->
<g id="node2" class="node">
<title>Node2</title>
<g id="a_node2"><a xlink:href="_definition_u_r_l_registry_8cpp.html" target="_top" xlink:title="Implementation of DefinitionURLRegistry, a registry of available DefinitionURLs.">
<polygon fill="white" stroke="black" points="0,-0.5 0,-19.5 143,-19.5 143,-0.5 0,-0.5"/>
<text text-anchor="middle" x="71.5" y="-7.5" font-family="Helvetica,sans-Serif" font-size="10.00">DefinitionURLRegistry.cpp</text>
</a>
</g>
</g>
<!-- Node1&#45;&gt;Node2 -->
<g id="edge1" class="edge">
<title>Node1&#45;&gt;Node2</title>
<path fill="none" stroke="midnightblue" d="M169.88,-52.5C145.88,-42.38 112.72,-28.39 91.69,-19.52"/>
<polygon fill="midnightblue" stroke="midnightblue" points="168.64,-55.78 179.22,-56.44 171.36,-49.33 168.64,-55.78"/>
</g>
<!-- Node3 -->
<g id="node3" class="node">
<title>Node3</title>
<g id="a_node3"><a xlink:href="_math_m_l_8cpp.html" target="_top" xlink:title="Utilities for reading and writing MathML to/from text strings.">
<polygon fill="white" stroke="black" points="161.5,-0.5 161.5,-19.5 237.5,-19.5 237.5,-0.5 161.5,-0.5"/>
<text text-anchor="middle" x="199.5" y="-7.5" font-family="Helvetica,sans-Serif" font-size="10.00">MathML.cpp</text>
</a>
</g>
</g>
<!-- Node1&#45;&gt;Node3 -->
<g id="edge2" class="edge">
<title>Node1&#45;&gt;Node3</title>
<path fill="none" stroke="midnightblue" d="M199.5,-45.8C199.5,-36.91 199.5,-26.78 199.5,-19.75"/>
<polygon fill="midnightblue" stroke="midnightblue" points="196,-46.08 199.5,-56.08 203,-46.08 196,-46.08"/>
</g>
<!-- Node4 -->
<g id="node4" class="node">
<title>Node4</title>
<g id="a_node4"><a xlink:href="_validator_8cpp.html" target="_top" xlink:title="Base class for SBML Validators.">
<polygon fill="white" stroke="black" points="255.5,-0.5 255.5,-19.5 335.5,-19.5 335.5,-0.5 255.5,-0.5"/>
<text text-anchor="middle" x="295.5" y="-7.5" font-family="Helvetica,sans-Serif" font-size="10.00">Validator.cpp</text>
</a>
</g>
</g>
<!-- Node1&#45;&gt;Node4 -->
<g id="edge3" class="edge">
<title>Node1&#45;&gt;Node4</title>
<path fill="none" stroke="midnightblue" d="M224.07,-51.18C241.74,-41.24 265.01,-28.15 280.11,-19.65"/>
<polygon fill="midnightblue" stroke="midnightblue" points="221.92,-48.37 214.92,-56.32 225.36,-54.47 221.92,-48.37"/>
</g>
</g>
</svg>
