<?xml version="1.0" encoding="UTF-8" standalone="no"?>
<!DOCTYPE svg PUBLIC "-//W3C//DTD SVG 1.1//EN"
 "http://www.w3.org/Graphics/SVG/1.1/DTD/svg11.dtd">
<!-- Generated by graphviz version 2.43.0 (0)
 -->
<!-- Title: DistribASTPlugin.h Pages: 1 -->
<svg width="368pt" height="84pt"
 viewBox="0.00 0.00 368.00 84.00" xmlns="http://www.w3.org/2000/svg" xmlns:xlink="http://www.w3.org/1999/xlink">
<g id="graph0" class="graph" transform="scale(1 1) rotate(0) translate(4 80)">
<title>DistribASTPlugin.h</title>
<polygon fill="white" stroke="transparent" points="-4,4 -4,-80 364,-80 364,4 -4,4"/>
<!-- Node1 -->
<g id="node1" class="node">
<title>Node1</title>
<g id="a_node1"><a xlink:title="Definition of the DistribASTPlugin class.">
<polygon fill="#bfbfbf" stroke="black" points="196.5,-56.5 196.5,-75.5 303.5,-75.5 303.5,-56.5 196.5,-56.5"/>
<text text-anchor="middle" x="250" y="-63.5" font-family="Helvetica,sans-Serif" font-size="10.00">DistribASTPlugin.h</text>
</a>
</g>
</g>
<!-- Node2 -->
<g id="node2" class="node">
<title>Node2</title>
<g id="a_node2"><a xlink:href="_a_s_t_base_plugin_8h.html" target="_top" xlink:title=" ">
<polygon fill="white" stroke="black" points="0,-0.5 0,-19.5 176,-19.5 176,-0.5 0,-0.5"/>
<text text-anchor="middle" x="88" y="-7.5" font-family="Helvetica,sans-Serif" font-size="10.00">sbml/extension/ASTBasePlugin.h</text>
</a>
</g>
</g>
<!-- Node1&#45;&gt;Node2 -->
<g id="edge1" class="edge">
<title>Node1&#45;&gt;Node2</title>
<path fill="none" stroke="midnightblue" d="M224.33,-56.44C197.08,-47.36 153.82,-32.94 123.35,-22.78"/>
<polygon fill="midnightblue" stroke="midnightblue" points="124.14,-19.36 113.55,-19.52 121.93,-26 124.14,-19.36"/>
</g>
<!-- Node3 -->
<g id="node3" class="node">
<title>Node3</title>
<g id="a_node3"><a xlink:title=" ">
<polygon fill="white" stroke="#bfbfbf" points="194.5,-0.5 194.5,-19.5 241.5,-19.5 241.5,-0.5 194.5,-0.5"/>
<text text-anchor="middle" x="218" y="-7.5" font-family="Helvetica,sans-Serif" font-size="10.00">vector</text>
</a>
</g>
</g>
<!-- Node1&#45;&gt;Node3 -->
<g id="edge2" class="edge">
<title>Node1&#45;&gt;Node3</title>
<path fill="none" stroke="midnightblue" d="M244.72,-56.08C240.29,-48.61 233.84,-37.72 228.38,-28.52"/>
<polygon fill="midnightblue" stroke="midnightblue" points="231.29,-26.57 223.19,-19.75 225.27,-30.14 231.29,-26.57"/>
</g>
<!-- Node4 -->
<g id="node4" class="node">
<title>Node4</title>
<g id="a_node4"><a xlink:title=" ">
<polygon fill="white" stroke="#bfbfbf" points="260,-0.5 260,-19.5 304,-19.5 304,-0.5 260,-0.5"/>
<text text-anchor="middle" x="282" y="-7.5" font-family="Helvetica,sans-Serif" font-size="10.00">string</text>
</a>
</g>
</g>
<!-- Node1&#45;&gt;Node4 -->
<g id="edge3" class="edge">
<title>Node1&#45;&gt;Node4</title>
<path fill="none" stroke="midnightblue" d="M255.28,-56.08C259.71,-48.61 266.16,-37.72 271.62,-28.52"/>
<polygon fill="midnightblue" stroke="midnightblue" points="274.73,-30.14 276.81,-19.75 268.71,-26.57 274.73,-30.14"/>
</g>
<!-- Node5 -->
<g id="node5" class="node">
<title>Node5</title>
<g id="a_node5"><a xlink:title=" ">
<polygon fill="white" stroke="#bfbfbf" points="322,-0.5 322,-19.5 360,-19.5 360,-0.5 322,-0.5"/>
<text text-anchor="middle" x="341" y="-7.5" font-family="Helvetica,sans-Serif" font-size="10.00">map</text>
</a>
</g>
</g>
<!-- Node1&#45;&gt;Node5 -->
<g id="edge4" class="edge">
<title>Node1&#45;&gt;Node5</title>
<path fill="none" stroke="midnightblue" d="M264.62,-56.32C278.95,-47.82 301.01,-34.73 317.75,-24.8"/>
<polygon fill="midnightblue" stroke="midnightblue" points="319.6,-27.77 326.42,-19.65 316.03,-21.75 319.6,-27.77"/>
</g>
</g>
</svg>
