<?xml version="1.0" encoding="UTF-8" standalone="no"?>
<!DOCTYPE svg PUBLIC "-//W3C//DTD SVG 1.1//EN"
 "http://www.w3.org/Graphics/SVG/1.1/DTD/svg11.dtd">
<!-- Generated by graphviz version 2.43.0 (0)
 -->
<!-- Title: DistribASTPlugin.h Pages: 1 -->
<svg width="262pt" height="84pt"
 viewBox="0.00 0.00 261.50 84.00" xmlns="http://www.w3.org/2000/svg" xmlns:xlink="http://www.w3.org/1999/xlink">
<g id="graph0" class="graph" transform="scale(1 1) rotate(0) translate(4 80)">
<title>DistribASTPlugin.h</title>
<polygon fill="white" stroke="transparent" points="-4,4 -4,-80 257.5,-80 257.5,4 -4,4"/>
<!-- Node1 -->
<g id="node1" class="node">
<title>Node1</title>
<g id="a_node1"><a xlink:title="Definition of the DistribASTPlugin class.">
<polygon fill="#bfbfbf" stroke="black" points="73.5,-56.5 73.5,-75.5 180.5,-75.5 180.5,-56.5 73.5,-56.5"/>
<text text-anchor="middle" x="127" y="-63.5" font-family="Helvetica,sans-Serif" font-size="10.00">DistribASTPlugin.h</text>
</a>
</g>
</g>
<!-- Node2 -->
<g id="node2" class="node">
<title>Node2</title>
<g id="a_node2"><a xlink:href="_distrib_a_s_t_plugin_8cpp.html" target="_top" xlink:title="Implementation of the DistribASTPlugin class.">
<polygon fill="white" stroke="black" points="0,-0.5 0,-19.5 118,-19.5 118,-0.5 0,-0.5"/>
<text text-anchor="middle" x="59" y="-7.5" font-family="Helvetica,sans-Serif" font-size="10.00">DistribASTPlugin.cpp</text>
</a>
</g>
</g>
<!-- Node1&#45;&gt;Node2 -->
<g id="edge1" class="edge">
<title>Node1&#45;&gt;Node2</title>
<path fill="none" stroke="midnightblue" d="M108.24,-50.1C96,-40.38 80.44,-28.03 70.12,-19.83"/>
<polygon fill="midnightblue" stroke="midnightblue" points="106.07,-52.85 116.07,-56.32 110.42,-47.36 106.07,-52.85"/>
</g>
<!-- Node3 -->
<g id="node3" class="node">
<title>Node3</title>
<g id="a_node3"><a xlink:href="_distrib_extension_8cpp.html" target="_top" xlink:title="Implementation of DistribExtension.">
<polygon fill="white" stroke="black" points="136.5,-0.5 136.5,-19.5 253.5,-19.5 253.5,-0.5 136.5,-0.5"/>
<text text-anchor="middle" x="195" y="-7.5" font-family="Helvetica,sans-Serif" font-size="10.00">DistribExtension.cpp</text>
</a>
</g>
</g>
<!-- Node1&#45;&gt;Node3 -->
<g id="edge2" class="edge">
<title>Node1&#45;&gt;Node3</title>
<path fill="none" stroke="midnightblue" d="M145.76,-50.1C158,-40.38 173.56,-28.03 183.88,-19.83"/>
<polygon fill="midnightblue" stroke="midnightblue" points="143.58,-47.36 137.93,-56.32 147.93,-52.85 143.58,-47.36"/>
</g>
</g>
</svg>
