<?xml version="1.0" encoding="UTF-8" standalone="no"?>
<!DOCTYPE svg PUBLIC "-//W3C//DTD SVG 1.1//EN"
 "http://www.w3.org/Graphics/SVG/1.1/DTD/svg11.dtd">
<!-- Generated by graphviz version 2.43.0 (0)
 -->
<!-- Title: DistribExtension.h Pages: 1 -->
<svg width="1188pt" height="532pt"
 viewBox="0.00 0.00 1188.00 532.00" xmlns="http://www.w3.org/2000/svg" xmlns:xlink="http://www.w3.org/1999/xlink">
<g id="graph0" class="graph" transform="scale(1 1) rotate(0) translate(4 528)">
<title>DistribExtension.h</title>
<polygon fill="white" stroke="transparent" points="-4,4 -4,-528 1184,-528 1184,4 -4,4"/>
<!-- Node1 -->
<g id="node1" class="node">
<title>Node1</title>
<g id="a_node1"><a xlink:title="Definition of DistribExtension.">
<polygon fill="#bfbfbf" stroke="black" points="659,-504.5 659,-523.5 765,-523.5 765,-504.5 659,-504.5"/>
<text text-anchor="middle" x="712" y="-511.5" font-family="Helvetica,sans-Serif" font-size="10.00">DistribExtension.h</text>
</a>
</g>
</g>
<!-- Node2 -->
<g id="node2" class="node">
<title>Node2</title>
<g id="a_node2"><a xlink:href="_distrib_extension_types_8h.html" target="_top" xlink:title="Definition of DistribExtensionTypes.">
<polygon fill="white" stroke="black" points="658,-56.5 658,-75.5 792,-75.5 792,-56.5 658,-56.5"/>
<text text-anchor="middle" x="725" y="-63.5" font-family="Helvetica,sans-Serif" font-size="10.00">DistribExtensionTypes.h</text>
</a>
</g>
</g>
<!-- Node1&#45;&gt;Node2 -->
<g id="edge1" class="edge">
<title>Node1&#45;&gt;Node2</title>
<path fill="none" stroke="midnightblue" d="M686.01,-499.13C656.38,-481.2 612,-447.02 612,-403 612,-403 612,-403 612,-233 612,-195.52 691.7,-103.91 717.23,-75.53"/>
<polygon fill="midnightblue" stroke="midnightblue" points="684.63,-502.37 695.04,-504.36 688.14,-496.32 684.63,-502.37"/>
</g>
<!-- Node4 -->
<g id="node4" class="node">
<title>Node4</title>
<g id="a_node4"><a xlink:href="_distrib_a_s_t_plugin_8cpp.html" target="_top" xlink:title="Implementation of the DistribASTPlugin class.">
<polygon fill="white" stroke="black" points="1018,-448.5 1018,-467.5 1136,-467.5 1136,-448.5 1018,-448.5"/>
<text text-anchor="middle" x="1077" y="-455.5" font-family="Helvetica,sans-Serif" font-size="10.00">DistribASTPlugin.cpp</text>
</a>
</g>
</g>
<!-- Node1&#45;&gt;Node4 -->
<g id="edge3" class="edge">
<title>Node1&#45;&gt;Node4</title>
<path fill="none" stroke="midnightblue" d="M775.33,-503.63C844.08,-493.46 952.9,-477.36 1019.34,-467.53"/>
<polygon fill="midnightblue" stroke="midnightblue" points="774.45,-500.22 765.07,-505.15 775.48,-507.15 774.45,-500.22"/>
</g>
<!-- Node5 -->
<g id="node5" class="node">
<title>Node5</title>
<g id="a_node5"><a xlink:href="_distrib_extension_8cpp.html" target="_top" xlink:title="Implementation of DistribExtension.">
<polygon fill="white" stroke="black" points="194.5,-56.5 194.5,-75.5 311.5,-75.5 311.5,-56.5 194.5,-56.5"/>
<text text-anchor="middle" x="253" y="-63.5" font-family="Helvetica,sans-Serif" font-size="10.00">DistribExtension.cpp</text>
</a>
</g>
</g>
<!-- Node1&#45;&gt;Node5 -->
<g id="edge4" class="edge">
<title>Node1&#45;&gt;Node5</title>
<path fill="none" stroke="midnightblue" d="M648.63,-510.96C522.7,-505.17 253,-483.4 253,-403 253,-403 253,-403 253,-177 253,-139.19 253,-94.06 253,-75.56"/>
<polygon fill="midnightblue" stroke="midnightblue" points="648.75,-514.47 658.9,-511.41 649.06,-507.48 648.75,-514.47"/>
</g>
<!-- Node6 -->
<g id="node6" class="node">
<title>Node6</title>
<g id="a_node6"><a xlink:href="_distrib_s_b_m_l_document_plugin_8h.html" target="_top" xlink:title="Definition of the DistribSBMLDocumentPlugin class.">
<polygon fill="white" stroke="black" points="59.5,-112.5 59.5,-131.5 224.5,-131.5 224.5,-112.5 59.5,-112.5"/>
<text text-anchor="middle" x="142" y="-119.5" font-family="Helvetica,sans-Serif" font-size="10.00">DistribSBMLDocumentPlugin.h</text>
</a>
</g>
</g>
<!-- Node1&#45;&gt;Node6 -->
<g id="edge5" class="edge">
<title>Node1&#45;&gt;Node6</title>
<path fill="none" stroke="midnightblue" d="M648.87,-512.52C537.07,-510.78 309.42,-502.9 239,-468 203.77,-450.54 179,-442.32 179,-403 179,-403 179,-403 179,-233 179,-193.31 157.09,-149.56 146.99,-131.51"/>
<polygon fill="midnightblue" stroke="midnightblue" points="648.94,-516.02 658.99,-512.67 649.04,-509.03 648.94,-516.02"/>
</g>
<!-- Node8 -->
<g id="node8" class="node">
<title>Node8</title>
<g id="a_node8"><a xlink:href="_distrib_base_8h.html" target="_top" xlink:title="Definition of the DistribBase class.">
<polygon fill="white" stroke="black" points="709,-448.5 709,-467.5 791,-467.5 791,-448.5 709,-448.5"/>
<text text-anchor="middle" x="750" y="-455.5" font-family="Helvetica,sans-Serif" font-size="10.00">DistribBase.h</text>
</a>
</g>
</g>
<!-- Node1&#45;&gt;Node8 -->
<g id="edge9" class="edge">
<title>Node1&#45;&gt;Node8</title>
<path fill="none" stroke="midnightblue" d="M724.06,-495.86C730.64,-486.5 738.51,-475.33 743.84,-467.75"/>
<polygon fill="midnightblue" stroke="midnightblue" points="721.17,-493.89 718.27,-504.08 726.89,-497.92 721.17,-493.89"/>
</g>
<!-- Node10 -->
<g id="node10" class="node">
<title>Node10</title>
<g id="a_node10"><a xlink:href="_uncertainty_8h.html" target="_top" xlink:title="Definition of the Uncertainty class.">
<polygon fill="white" stroke="black" points="640.5,-224.5 640.5,-243.5 721.5,-243.5 721.5,-224.5 640.5,-224.5"/>
<text text-anchor="middle" x="681" y="-231.5" font-family="Helvetica,sans-Serif" font-size="10.00">Uncertainty.h</text>
</a>
</g>
</g>
<!-- Node1&#45;&gt;Node10 -->
<g id="edge37" class="edge">
<title>Node1&#45;&gt;Node10</title>
<path fill="none" stroke="midnightblue" d="M701.86,-495.43C690.6,-474.24 674,-437.19 674,-403 674,-403 674,-403 674,-345 674,-307.11 678.19,-262.03 680.08,-243.55"/>
<polygon fill="midnightblue" stroke="midnightblue" points="698.82,-497.17 706.72,-504.23 704.95,-493.78 698.82,-497.17"/>
</g>
<!-- Node13 -->
<g id="node13" class="node">
<title>Node13</title>
<g id="a_node13"><a xlink:href="_list_of_uncertainties_8h.html" target="_top" xlink:title="Definition of the ListOfUncertainties class.">
<polygon fill="white" stroke="black" points="464.5,-168.5 464.5,-187.5 583.5,-187.5 583.5,-168.5 464.5,-168.5"/>
<text text-anchor="middle" x="524" y="-175.5" font-family="Helvetica,sans-Serif" font-size="10.00">ListOfUncertainties.h</text>
</a>
</g>
</g>
<!-- Node1&#45;&gt;Node13 -->
<g id="edge35" class="edge">
<title>Node1&#45;&gt;Node13</title>
<path fill="none" stroke="midnightblue" d="M662.08,-501.73C614.15,-487.61 549,-458.25 549,-403 549,-403 549,-403 549,-289 549,-250.42 534.2,-206.08 527.37,-187.69"/>
<polygon fill="midnightblue" stroke="midnightblue" points="661.13,-505.1 671.71,-504.43 663.03,-498.36 661.13,-505.1"/>
</g>
<!-- Node16 -->
<g id="node16" class="node">
<title>Node16</title>
<g id="a_node16"><a xlink:href="_uncert_parameter_8h.html" target="_top" xlink:title="Definition of the UncertParameter class.">
<polygon fill="white" stroke="black" points="854.5,-392.5 854.5,-411.5 961.5,-411.5 961.5,-392.5 854.5,-392.5"/>
<text text-anchor="middle" x="908" y="-399.5" font-family="Helvetica,sans-Serif" font-size="10.00">UncertParameter.h</text>
</a>
</g>
</g>
<!-- Node1&#45;&gt;Node16 -->
<g id="edge38" class="edge">
<title>Node1&#45;&gt;Node16</title>
<path fill="none" stroke="midnightblue" d="M758.85,-501.72C784.06,-494.4 815.01,-483.34 840,-468 865.61,-452.28 889.54,-425.58 900.97,-411.8"/>
<polygon fill="midnightblue" stroke="midnightblue" points="757.83,-498.37 749.15,-504.43 759.72,-505.11 757.83,-498.37"/>
</g>
<!-- Node17 -->
<g id="node17" class="node">
<title>Node17</title>
<g id="a_node17"><a xlink:href="_list_of_uncert_parameters_8h.html" target="_top" xlink:title="Definition of the ListOfUncertParameters class.">
<polygon fill="white" stroke="black" points="822,-280.5 822,-299.5 964,-299.5 964,-280.5 822,-280.5"/>
<text text-anchor="middle" x="893" y="-287.5" font-family="Helvetica,sans-Serif" font-size="10.00">ListOfUncertParameters.h</text>
</a>
</g>
</g>
<!-- Node1&#45;&gt;Node17 -->
<g id="edge36" class="edge">
<title>Node1&#45;&gt;Node17</title>
<path fill="none" stroke="midnightblue" d="M747.81,-500.62C765.17,-493.24 785.38,-482.46 800,-468 813.57,-454.57 872.5,-333.51 888.81,-299.72"/>
<polygon fill="midnightblue" stroke="midnightblue" points="746.47,-497.38 738.5,-504.37 749.09,-503.88 746.47,-497.38"/>
</g>
<!-- Node20 -->
<g id="node20" class="node">
<title>Node20</title>
<g id="a_node20"><a xlink:href="_uncert_span_8h.html" target="_top" xlink:title="Definition of the UncertSpan class.">
<polygon fill="white" stroke="black" points="1058,-336.5 1058,-355.5 1140,-355.5 1140,-336.5 1058,-336.5"/>
<text text-anchor="middle" x="1099" y="-343.5" font-family="Helvetica,sans-Serif" font-size="10.00">UncertSpan.h</text>
</a>
</g>
</g>
<!-- Node1&#45;&gt;Node20 -->
<g id="edge39" class="edge">
<title>Node1&#45;&gt;Node20</title>
<path fill="none" stroke="midnightblue" d="M758.54,-501.93C789.51,-493.95 830.81,-482.12 866,-468 952.51,-433.28 1049.49,-376.82 1085.01,-355.51"/>
<polygon fill="midnightblue" stroke="midnightblue" points="757.29,-498.63 748.46,-504.48 759.01,-505.42 757.29,-498.63"/>
</g>
<!-- Node3 -->
<g id="node3" class="node">
<title>Node3</title>
<g id="a_node3"><a xlink:href="_distrib_validator_8cpp.html" target="_top" xlink:title="Definition of DistribValidator.">
<polygon fill="white" stroke="black" points="669,-0.5 669,-19.5 781,-19.5 781,-0.5 669,-0.5"/>
<text text-anchor="middle" x="725" y="-7.5" font-family="Helvetica,sans-Serif" font-size="10.00">DistribValidator.cpp</text>
</a>
</g>
</g>
<!-- Node2&#45;&gt;Node3 -->
<g id="edge2" class="edge">
<title>Node2&#45;&gt;Node3</title>
<path fill="none" stroke="midnightblue" d="M725,-45.8C725,-36.91 725,-26.78 725,-19.75"/>
<polygon fill="midnightblue" stroke="midnightblue" points="721.5,-46.08 725,-56.08 728.5,-46.08 721.5,-46.08"/>
</g>
<!-- Node6&#45;&gt;Node2 -->
<g id="edge6" class="edge">
<title>Node6&#45;&gt;Node2</title>
<path fill="none" stroke="midnightblue" d="M234.7,-112.41C352.61,-101.49 553.43,-82.89 657.7,-73.23"/>
<polygon fill="midnightblue" stroke="midnightblue" points="234.24,-108.94 224.6,-113.35 234.88,-115.91 234.24,-108.94"/>
</g>
<!-- Node6&#45;&gt;Node5 -->
<g id="edge7" class="edge">
<title>Node6&#45;&gt;Node5</title>
<path fill="none" stroke="midnightblue" d="M169.01,-107.86C189.59,-97.85 217.34,-84.35 235.21,-75.65"/>
<polygon fill="midnightblue" stroke="midnightblue" points="167.3,-104.8 159.83,-112.32 170.36,-111.1 167.3,-104.8"/>
</g>
<!-- Node7 -->
<g id="node7" class="node">
<title>Node7</title>
<g id="a_node7"><a xlink:href="_distrib_s_b_m_l_document_plugin_8cpp.html" target="_top" xlink:title="Implementation of the DistribSBMLDocumentPlugin class.">
<polygon fill="white" stroke="black" points="0,-56.5 0,-75.5 176,-75.5 176,-56.5 0,-56.5"/>
<text text-anchor="middle" x="88" y="-63.5" font-family="Helvetica,sans-Serif" font-size="10.00">DistribSBMLDocumentPlugin.cpp</text>
</a>
</g>
</g>
<!-- Node6&#45;&gt;Node7 -->
<g id="edge8" class="edge">
<title>Node6&#45;&gt;Node7</title>
<path fill="none" stroke="midnightblue" d="M126,-105C116.43,-95.43 104.64,-83.64 96.75,-75.75"/>
<polygon fill="midnightblue" stroke="midnightblue" points="123.54,-107.49 133.08,-112.08 128.49,-102.54 123.54,-107.49"/>
</g>
<!-- Node8&#45;&gt;Node2 -->
<g id="edge10" class="edge">
<title>Node8&#45;&gt;Node2</title>
<path fill="none" stroke="midnightblue" d="M760.14,-439.43C771.4,-418.24 788,-381.19 788,-347 788,-347 788,-347 788,-289 788,-265.52 815.52,-211.22 819,-188 820.32,-179.21 822.25,-176.27 819,-168 802.52,-126.09 759.55,-91.27 737.88,-75.72"/>
<polygon fill="midnightblue" stroke="midnightblue" points="757.05,-437.78 755.28,-448.23 763.18,-441.17 757.05,-437.78"/>
</g>
<!-- Node9 -->
<g id="node9" class="node">
<title>Node9</title>
<g id="a_node9"><a xlink:href="_distrib_base_8cpp.html" target="_top" xlink:title="Implementation of the DistribBase class.">
<polygon fill="white" stroke="black" points="716.5,-168.5 716.5,-187.5 809.5,-187.5 809.5,-168.5 716.5,-168.5"/>
<text text-anchor="middle" x="763" y="-175.5" font-family="Helvetica,sans-Serif" font-size="10.00">DistribBase.cpp</text>
</a>
</g>
</g>
<!-- Node8&#45;&gt;Node9 -->
<g id="edge11" class="edge">
<title>Node8&#45;&gt;Node9</title>
<path fill="none" stroke="midnightblue" d="M750,-438.25C750,-416.36 750,-379.05 750,-347 750,-347 750,-347 750,-289 750,-250.92 757.78,-205.94 761.3,-187.52"/>
<polygon fill="midnightblue" stroke="midnightblue" points="746.5,-438.44 750,-448.44 753.5,-438.44 746.5,-438.44"/>
</g>
<!-- Node8&#45;&gt;Node10 -->
<g id="edge12" class="edge">
<title>Node8&#45;&gt;Node10</title>
<path fill="none" stroke="midnightblue" d="M744.32,-438.75C741.78,-430.57 738.74,-420.8 736,-412 715.94,-347.47 691.78,-269.7 683.75,-243.84"/>
<polygon fill="midnightblue" stroke="midnightblue" points="741,-439.87 747.32,-448.37 747.69,-437.79 741,-439.87"/>
</g>
<!-- Node8&#45;&gt;Node16 -->
<g id="edge24" class="edge">
<title>Node8&#45;&gt;Node16</title>
<path fill="none" stroke="midnightblue" d="M784.61,-445.17C814.36,-435 856.55,-420.59 883.08,-411.52"/>
<polygon fill="midnightblue" stroke="midnightblue" points="783.37,-441.9 775.04,-448.44 785.63,-448.52 783.37,-441.9"/>
</g>
<!-- Node10&#45;&gt;Node2 -->
<g id="edge13" class="edge">
<title>Node10&#45;&gt;Node2</title>
<path fill="none" stroke="midnightblue" d="M685.93,-214.39C695.42,-178.59 715.9,-101.34 722.73,-75.57"/>
<polygon fill="midnightblue" stroke="midnightblue" points="682.54,-213.51 683.37,-224.08 689.31,-215.31 682.54,-213.51"/>
</g>
<!-- Node10&#45;&gt;Node9 -->
<g id="edge18" class="edge">
<title>Node10&#45;&gt;Node9</title>
<path fill="none" stroke="midnightblue" d="M702.83,-218.62C717.81,-208.76 737.2,-195.99 749.86,-187.65"/>
<polygon fill="midnightblue" stroke="midnightblue" points="700.6,-215.9 694.17,-224.32 704.45,-221.75 700.6,-215.9"/>
</g>
<!-- Node11 -->
<g id="node11" class="node">
<title>Node11</title>
<g id="a_node11"><a xlink:href="_distrib_s_base_plugin_8h.html" target="_top" xlink:title="Definition of the DistribSBasePlugin class.">
<polygon fill="white" stroke="black" points="281,-112.5 281,-131.5 399,-131.5 399,-112.5 281,-112.5"/>
<text text-anchor="middle" x="340" y="-119.5" font-family="Helvetica,sans-Serif" font-size="10.00">DistribSBasePlugin.h</text>
</a>
</g>
</g>
<!-- Node10&#45;&gt;Node11 -->
<g id="edge14" class="edge">
<title>Node10&#45;&gt;Node11</title>
<path fill="none" stroke="midnightblue" d="M630.01,-227.43C583.57,-221.29 513.66,-209.32 456,-188 415.73,-173.11 372.74,-145.55 352.24,-131.58"/>
<polygon fill="midnightblue" stroke="midnightblue" points="629.76,-230.93 640.12,-228.73 630.65,-223.98 629.76,-230.93"/>
</g>
<!-- Node10&#45;&gt;Node13 -->
<g id="edge19" class="edge">
<title>Node10&#45;&gt;Node13</title>
<path fill="none" stroke="midnightblue" d="M646.61,-221.17C617.05,-211 575.13,-196.59 548.76,-187.52"/>
<polygon fill="midnightblue" stroke="midnightblue" points="645.53,-224.5 656.12,-224.44 647.8,-217.88 645.53,-224.5"/>
</g>
<!-- Node15 -->
<g id="node15" class="node">
<title>Node15</title>
<g id="a_node15"><a xlink:href="_uncertainty_8cpp.html" target="_top" xlink:title="Implementation of the Uncertainty class.">
<polygon fill="white" stroke="black" points="567,-112.5 567,-131.5 659,-131.5 659,-112.5 567,-112.5"/>
<text text-anchor="middle" x="613" y="-119.5" font-family="Helvetica,sans-Serif" font-size="10.00">Uncertainty.cpp</text>
</a>
</g>
</g>
<!-- Node10&#45;&gt;Node15 -->
<g id="edge23" class="edge">
<title>Node10&#45;&gt;Node15</title>
<path fill="none" stroke="midnightblue" d="M670.27,-215.64C655.5,-191.74 629.46,-149.63 618.31,-131.59"/>
<polygon fill="midnightblue" stroke="midnightblue" points="667.43,-217.7 675.66,-224.37 673.38,-214.02 667.43,-217.7"/>
</g>
<!-- Node11&#45;&gt;Node2 -->
<g id="edge15" class="edge">
<title>Node11&#45;&gt;Node2</title>
<path fill="none" stroke="midnightblue" d="M409.29,-111.28C481.98,-101.09 595.08,-85.22 664.35,-75.51"/>
<polygon fill="midnightblue" stroke="midnightblue" points="408.73,-107.83 399.31,-112.68 409.7,-114.76 408.73,-107.83"/>
</g>
<!-- Node11&#45;&gt;Node5 -->
<g id="edge16" class="edge">
<title>Node11&#45;&gt;Node5</title>
<path fill="none" stroke="midnightblue" d="M317.28,-106.9C301.33,-97 280.5,-84.07 266.94,-75.65"/>
<polygon fill="midnightblue" stroke="midnightblue" points="315.68,-110.02 326.02,-112.32 319.37,-104.08 315.68,-110.02"/>
</g>
<!-- Node12 -->
<g id="node12" class="node">
<title>Node12</title>
<g id="a_node12"><a xlink:href="_distrib_s_base_plugin_8cpp.html" target="_top" xlink:title="Implementation of the DistribSBasePlugin class.">
<polygon fill="white" stroke="black" points="329.5,-56.5 329.5,-75.5 458.5,-75.5 458.5,-56.5 329.5,-56.5"/>
<text text-anchor="middle" x="394" y="-63.5" font-family="Helvetica,sans-Serif" font-size="10.00">DistribSBasePlugin.cpp</text>
</a>
</g>
</g>
<!-- Node11&#45;&gt;Node12 -->
<g id="edge17" class="edge">
<title>Node11&#45;&gt;Node12</title>
<path fill="none" stroke="midnightblue" d="M356,-105C365.57,-95.43 377.36,-83.64 385.25,-75.75"/>
<polygon fill="midnightblue" stroke="midnightblue" points="353.51,-102.54 348.92,-112.08 358.46,-107.49 353.51,-102.54"/>
</g>
<!-- Node13&#45;&gt;Node11 -->
<g id="edge20" class="edge">
<title>Node13&#45;&gt;Node11</title>
<path fill="none" stroke="midnightblue" d="M485.05,-165.57C450.34,-155.38 400.32,-140.7 369.02,-131.52"/>
<polygon fill="midnightblue" stroke="midnightblue" points="484.26,-168.99 494.84,-168.44 486.23,-162.27 484.26,-168.99"/>
</g>
<!-- Node14 -->
<g id="node14" class="node">
<title>Node14</title>
<g id="a_node14"><a xlink:href="_list_of_uncertainties_8cpp.html" target="_top" xlink:title="Implementation of the ListOfUncertainties class.">
<polygon fill="white" stroke="black" points="417.5,-112.5 417.5,-131.5 548.5,-131.5 548.5,-112.5 417.5,-112.5"/>
<text text-anchor="middle" x="483" y="-119.5" font-family="Helvetica,sans-Serif" font-size="10.00">ListOfUncertainties.cpp</text>
</a>
</g>
</g>
<!-- Node13&#45;&gt;Node14 -->
<g id="edge21" class="edge">
<title>Node13&#45;&gt;Node14</title>
<path fill="none" stroke="midnightblue" d="M510.98,-159.86C503.88,-150.5 495.4,-139.33 489.64,-131.75"/>
<polygon fill="midnightblue" stroke="midnightblue" points="508.39,-162.24 517.23,-168.08 513.97,-158 508.39,-162.24"/>
</g>
<!-- Node13&#45;&gt;Node15 -->
<g id="edge22" class="edge">
<title>Node13&#45;&gt;Node15</title>
<path fill="none" stroke="midnightblue" d="M547.24,-162.9C563.56,-153 584.87,-140.07 598.74,-131.65"/>
<polygon fill="midnightblue" stroke="midnightblue" points="545.03,-160.14 538.3,-168.32 548.66,-166.13 545.03,-160.14"/>
</g>
<!-- Node16&#45;&gt;Node2 -->
<g id="edge25" class="edge">
<title>Node16&#45;&gt;Node2</title>
<path fill="none" stroke="midnightblue" d="M927.76,-386.26C939.11,-377.64 953.55,-366.44 966,-356 1004.58,-323.66 1008.95,-309.15 1050,-280 1077.24,-260.66 1098.94,-272.73 1116,-244 1120.54,-236.36 1120.91,-231.41 1116,-224 1044.22,-115.58 883.62,-82.03 792.14,-71.65"/>
<polygon fill="midnightblue" stroke="midnightblue" points="925.64,-383.47 919.76,-392.29 929.85,-389.06 925.64,-383.47"/>
</g>
<!-- Node16&#45;&gt;Node17 -->
<g id="edge26" class="edge">
<title>Node16&#45;&gt;Node17</title>
<path fill="none" stroke="midnightblue" d="M905.46,-382.35C902.17,-358.25 896.59,-317.31 894.17,-299.59"/>
<polygon fill="midnightblue" stroke="midnightblue" points="902,-382.93 906.82,-392.37 908.94,-381.99 902,-382.93"/>
</g>
<!-- Node19 -->
<g id="node19" class="node">
<title>Node19</title>
<g id="a_node19"><a xlink:href="_uncert_parameter_8cpp.html" target="_top" xlink:title="Implementation of the UncertParameter class.">
<polygon fill="white" stroke="black" points="987.5,-224.5 987.5,-243.5 1106.5,-243.5 1106.5,-224.5 987.5,-224.5"/>
<text text-anchor="middle" x="1047" y="-231.5" font-family="Helvetica,sans-Serif" font-size="10.00">UncertParameter.cpp</text>
</a>
</g>
</g>
<!-- Node16&#45;&gt;Node19 -->
<g id="edge30" class="edge">
<title>Node16&#45;&gt;Node19</title>
<path fill="none" stroke="midnightblue" d="M922.06,-384.21C951.32,-349.26 1017.87,-269.79 1039.83,-243.57"/>
<polygon fill="midnightblue" stroke="midnightblue" points="919.21,-382.16 915.47,-392.08 924.58,-386.66 919.21,-382.16"/>
</g>
<!-- Node16&#45;&gt;Node20 -->
<g id="edge31" class="edge">
<title>Node16&#45;&gt;Node20</title>
<path fill="none" stroke="midnightblue" d="M947.97,-389.7C984.02,-379.51 1036.24,-364.74 1068.88,-355.52"/>
<polygon fill="midnightblue" stroke="midnightblue" points="946.94,-386.35 938.26,-392.44 948.84,-393.09 946.94,-386.35"/>
</g>
<!-- Node17&#45;&gt;Node10 -->
<g id="edge28" class="edge">
<title>Node17&#45;&gt;Node10</title>
<path fill="none" stroke="midnightblue" d="M849.65,-277.96C809.61,-267.76 750.97,-252.82 714.43,-243.52"/>
<polygon fill="midnightblue" stroke="midnightblue" points="848.85,-281.37 859.41,-280.44 850.58,-274.58 848.85,-281.37"/>
</g>
<!-- Node18 -->
<g id="node18" class="node">
<title>Node18</title>
<g id="a_node18"><a xlink:href="_list_of_uncert_parameters_8cpp.html" target="_top" xlink:title="Implementation of the ListOfUncertParameters class.">
<polygon fill="white" stroke="black" points="816.5,-224.5 816.5,-243.5 969.5,-243.5 969.5,-224.5 816.5,-224.5"/>
<text text-anchor="middle" x="893" y="-231.5" font-family="Helvetica,sans-Serif" font-size="10.00">ListOfUncertParameters.cpp</text>
</a>
</g>
</g>
<!-- Node17&#45;&gt;Node18 -->
<g id="edge27" class="edge">
<title>Node17&#45;&gt;Node18</title>
<path fill="none" stroke="midnightblue" d="M893,-269.8C893,-260.91 893,-250.78 893,-243.75"/>
<polygon fill="midnightblue" stroke="midnightblue" points="889.5,-270.08 893,-280.08 896.5,-270.08 889.5,-270.08"/>
</g>
<!-- Node17&#45;&gt;Node19 -->
<g id="edge29" class="edge">
<title>Node17&#45;&gt;Node19</title>
<path fill="none" stroke="midnightblue" d="M927.11,-277.04C956.09,-266.88 996.96,-252.55 1022.71,-243.52"/>
<polygon fill="midnightblue" stroke="midnightblue" points="925.68,-273.83 917.4,-280.44 928,-280.44 925.68,-273.83"/>
</g>
<!-- Node20&#45;&gt;Node2 -->
<g id="edge32" class="edge">
<title>Node20&#45;&gt;Node2</title>
<path fill="none" stroke="midnightblue" d="M1125.15,-331.42C1137.64,-323.73 1151.82,-313.04 1161,-300 1178.33,-275.39 1180,-265.1 1180,-235 1180,-235 1180,-235 1180,-177 1180,-144.99 1175.13,-130.49 1149,-112 1093.18,-72.51 897.1,-66.58 792.28,-66.34"/>
<polygon fill="midnightblue" stroke="midnightblue" points="1123.34,-328.42 1116.46,-336.48 1126.86,-334.48 1123.34,-328.42"/>
</g>
<!-- Node20&#45;&gt;Node17 -->
<g id="edge33" class="edge">
<title>Node20&#45;&gt;Node17</title>
<path fill="none" stroke="midnightblue" d="M1056.38,-333.83C1017.49,-323.63 960.84,-308.78 925.49,-299.52"/>
<polygon fill="midnightblue" stroke="midnightblue" points="1055.8,-337.29 1066.36,-336.44 1057.57,-330.52 1055.8,-337.29"/>
</g>
<!-- Node21 -->
<g id="node21" class="node">
<title>Node21</title>
<g id="a_node21"><a xlink:href="_uncert_span_8cpp.html" target="_top" xlink:title="Implementation of the UncertSpan class.">
<polygon fill="white" stroke="black" points="1058.5,-280.5 1058.5,-299.5 1151.5,-299.5 1151.5,-280.5 1058.5,-280.5"/>
<text text-anchor="middle" x="1105" y="-287.5" font-family="Helvetica,sans-Serif" font-size="10.00">UncertSpan.cpp</text>
</a>
</g>
</g>
<!-- Node20&#45;&gt;Node21 -->
<g id="edge34" class="edge">
<title>Node20&#45;&gt;Node21</title>
<path fill="none" stroke="midnightblue" d="M1101.1,-326.1C1102.1,-317.14 1103.24,-306.86 1104.03,-299.75"/>
<polygon fill="midnightblue" stroke="midnightblue" points="1097.62,-325.76 1099.99,-336.08 1104.57,-326.53 1097.62,-325.76"/>
</g>
</g>
</svg>
