<?xml version="1.0" encoding="UTF-8" standalone="no"?>
<!DOCTYPE svg PUBLIC "-//W3C//DTD SVG 1.1//EN"
 "http://www.w3.org/Graphics/SVG/1.1/DTD/svg11.dtd">
<!-- Generated by graphviz version 2.43.0 (0)
 -->
<!-- Title: DistribBase.h Pages: 1 -->
<!--zoomable 467 -->

<svg id="main" version="1.1" xmlns="http://www.w3.org/2000/svg" xmlns:xlink="http://www.w3.org/1999/xlink" xml:space="preserve" onload="init(evt)">
<style type="text/css"><![CDATA[
.node, .edge {opacity: 0.7;}
.node.selected, .edge.selected {opacity: 1;}
.edge:hover path { stroke: red; }
.edge:hover polygon { stroke: red; fill: red; }
]]></style>

<defs>
  <circle id="rim" cx="0" cy="0" r="7"/>
  <circle id="rim2" cx="0" cy="0" r="3.5"/>
  <g id="zoomPlus">
    <use xlink:href="#rim" fill="#404040"><set attributeName="fill" to="#808080" begin="zoomplus.mouseover" end="zoomplus.mouseout"/></use>
    <path d="M-4,0h8M0,-4v8" fill="none" stroke="white" stroke-width="1.5" pointer-events="none"/>
  </g>
  <g id="zoomMin">
    <use xlink:href="#rim" fill="#404040"><set attributeName="fill" to="#808080" begin="zoomminus.mouseover" end="zoomminus.mouseout"/></use>
    <path d="M-4,0h8" fill="none" stroke="white" stroke-width="1.5" pointer-events="none"/>
  </g>
  <g id="arrowUp" transform="translate(30 24)">
    <use xlink:href="#rim"/>
    <path pointer-events="none" fill="none" stroke="white" stroke-width="1.5" d="M0,-3.0v7 M-2.5,-0.5L0,-3.0L2.5,-0.5"/>
  </g>
  <g id="arrowRight" transform="rotate(90) translate(36 -43)">
    <use xlink:href="#rim"/>
    <path pointer-events="none" fill="none" stroke="white" stroke-width="1.5" d="M0,-3.0v7 M-2.5,-0.5L0,-3.0L2.5,-0.5"/>
  </g>
  <g id="arrowDown" transform="rotate(180) translate(-30 -48)">
    <use xlink:href="#rim"/>
    <path pointer-events="none" fill="none" stroke="white" stroke-width="1.5" d="M0,-3.0v7 M-2.5,-0.5L0,-3.0L2.5,-0.5"/>
  </g>
  <g id="arrowLeft" transform="rotate(270) translate(-36 17)">
    <use xlink:href="#rim"/>
    <path pointer-events="none" fill="none" stroke="white" stroke-width="1.5" d="M0,-3.0v7 M-2.5,-0.5L0,-3.0L2.5,-0.5"/>
  </g>
  <g id="resetDef">
    <use xlink:href="#rim2" fill="#404040"><set attributeName="fill" to="#808080" begin="reset.mouseover" end="reset.mouseout"/></use>
  </g>
</defs>
<script type="application/ecmascript">
var viewWidth = 748;
var viewHeight = 467;
var sectionId = 'dynsection-1';
</script>
<script type="application/ecmascript" xlink:href="svg.min.js"/>
<svg id="graph" class="graph">
<g id="viewport">
<title>DistribBase.h</title>
<!-- Node1 -->
<g id="Node000001" class="node">
<title>Node1</title>
<g id="a_Node000001"><a xlink:title="Definition of the DistribBase class.">
<polygon fill="#999999" stroke="#666666" points="173,-459 91,-459 91,-440 173,-440 173,-459"/>
<text text-anchor="middle" x="132" y="-447" font-family="Helvetica,sans-Serif" font-size="10.00">DistribBase.h</text>
</a>
</g>
</g>
<!-- Node2 -->
<g id="Node000002" class="node">
<title>Node2</title>
<g id="a_Node000002"><a xlink:href="_distrib_base_8cpp.html" target="_top" xlink:title="Implementation of the DistribBase class.">
<polygon fill="white" stroke="#666666" points="159.5,-184 66.5,-184 66.5,-165 159.5,-165 159.5,-184"/>
<text text-anchor="middle" x="113" y="-172" font-family="Helvetica,sans-Serif" font-size="10.00">DistribBase.cpp</text>
</a>
</g>
</g>
<!-- Node1&#45;&gt;Node2 -->
<g id="edge1_Node000001_Node000002" class="edge">
<title>Node1&#45;&gt;Node2</title>
<g id="a_edge1_Node000001_Node000002"><a xlink:title=" ">
<path fill="none" stroke="#63b8ff" d="M117.21,-432.19C100.62,-412.14 76,-376.35 76,-340.5 76,-340.5 76,-340.5 76,-283.5 76,-244.65 97.69,-201.98 107.86,-184.12"/>
<polygon fill="#63b8ff" stroke="#63b8ff" points="114.56,-434.48 123.74,-439.77 119.87,-429.91 114.56,-434.48"/>
</a>
</g>
</g>
<!-- Node3 -->
<g id="Node000003" class="node">
<title>Node3</title>
<g id="a_Node000003"><a xlink:href="_distrib_extension_types_8h.html" target="_top" xlink:title="Definition of DistribExtensionTypes.">
<polygon fill="white" stroke="#666666" points="255,-74 121,-74 121,-55 255,-55 255,-74"/>
<text text-anchor="middle" x="188" y="-62" font-family="Helvetica,sans-Serif" font-size="10.00">DistribExtensionTypes.h</text>
</a>
</g>
</g>
<!-- Node1&#45;&gt;Node3 -->
<g id="edge2_Node000001_Node000003" class="edge">
<title>Node1&#45;&gt;Node3</title>
<g id="a_edge2_Node000001_Node000003"><a xlink:title=" ">
<path fill="none" stroke="#63b8ff" d="M95.13,-436.31C56.08,-420.79 0,-389.91 0,-340.5 0,-340.5 0,-340.5 0,-173.5 0,-112.9 74.36,-85.81 129.55,-74.04"/>
<polygon fill="#63b8ff" stroke="#63b8ff" points="94.06,-439.64 104.65,-439.92 96.54,-433.1 94.06,-439.64"/>
</a>
</g>
</g>
<!-- Node5 -->
<g id="Node000005" class="node">
<title>Node5</title>
<g id="a_Node000005"><a xlink:href="_uncert_parameter_8h.html" target="_top" xlink:title="Definition of the UncertParameter class.">
<polygon fill="white" stroke="#666666" points="242.5,-404 135.5,-404 135.5,-385 242.5,-385 242.5,-404"/>
<text text-anchor="middle" x="189" y="-392" font-family="Helvetica,sans-Serif" font-size="10.00">UncertParameter.h</text>
</a>
</g>
</g>
<!-- Node1&#45;&gt;Node5 -->
<g id="edge4_Node000001_Node000005" class="edge">
<title>Node1&#45;&gt;Node5</title>
<g id="a_edge4_Node000001_Node000005"><a xlink:title=" ">
<path fill="none" stroke="#63b8ff" d="M148.62,-433.04C158.73,-423.64 171.28,-411.98 179.68,-404.17"/>
<polygon fill="#63b8ff" stroke="#63b8ff" points="146.1,-430.61 141.16,-439.98 150.86,-435.74 146.1,-430.61"/>
</a>
</g>
</g>
<!-- Node9 -->
<g id="Node000009" class="node">
<title>Node9</title>
<g id="a_Node000009"><a xlink:href="_uncertainty_8h.html" target="_top" xlink:title="Definition of the Uncertainty class.">
<polygon fill="white" stroke="#666666" points="531.5,-239 450.5,-239 450.5,-220 531.5,-220 531.5,-239"/>
<text text-anchor="middle" x="491" y="-227" font-family="Helvetica,sans-Serif" font-size="10.00">Uncertainty.h</text>
</a>
</g>
</g>
<!-- Node1&#45;&gt;Node9 -->
<g id="edge26_Node000001_Node000009" class="edge">
<title>Node1&#45;&gt;Node9</title>
<g id="a_edge26_Node000001_Node000009"><a xlink:title=" ">
<path fill="none" stroke="#63b8ff" d="M170.5,-436.67C233.25,-415.91 358.99,-367.97 443,-294 461.88,-277.38 478.17,-252.3 486.02,-239.18"/>
<polygon fill="#63b8ff" stroke="#63b8ff" points="169.05,-433.46 160.63,-439.89 171.22,-440.12 169.05,-433.46"/>
</a>
</g>
</g>
<!-- Node4 -->
<g id="Node000004" class="node">
<title>Node4</title>
<g id="a_Node000004"><a xlink:href="_distrib_validator_8cpp.html" target="_top" xlink:title="Definition of DistribValidator.">
<polygon fill="white" stroke="#666666" points="244,-19 132,-19 132,0 244,0 244,-19"/>
<text text-anchor="middle" x="188" y="-7" font-family="Helvetica,sans-Serif" font-size="10.00">DistribValidator.cpp</text>
</a>
</g>
</g>
<!-- Node3&#45;&gt;Node4 -->
<g id="edge3_Node000003_Node000004" class="edge">
<title>Node3&#45;&gt;Node4</title>
<g id="a_edge3_Node000003_Node000004"><a xlink:title=" ">
<path fill="none" stroke="#63b8ff" d="M188,-44.66C188,-35.93 188,-25.99 188,-19.09"/>
<polygon fill="#63b8ff" stroke="#63b8ff" points="184.5,-44.75 188,-54.75 191.5,-44.75 184.5,-44.75"/>
</a>
</g>
</g>
<!-- Node5&#45;&gt;Node3 -->
<g id="edge5_Node000005_Node000003" class="edge">
<title>Node5&#45;&gt;Node3</title>
<g id="a_edge5_Node000005_Node000003"><a xlink:title=" ">
<path fill="none" stroke="#63b8ff" d="M162.19,-380.18C118.8,-356.51 38,-302.74 38,-230.5 38,-230.5 38,-230.5 38,-173.5 38,-117.02 108.9,-87.15 153.21,-74"/>
<polygon fill="#63b8ff" stroke="#63b8ff" points="160.61,-383.31 171.09,-384.9 163.89,-377.12 160.61,-383.31"/>
</a>
</g>
</g>
<!-- Node6 -->
<g id="Node000006" class="node">
<title>Node6</title>
<g id="a_Node000006"><a xlink:href="_list_of_uncert_parameters_8h.html" target="_top" xlink:title="Definition of the ListOfUncertParameters class.">
<polygon fill="white" stroke="#666666" points="434,-294 292,-294 292,-275 434,-275 434,-294"/>
<text text-anchor="middle" x="363" y="-282" font-family="Helvetica,sans-Serif" font-size="10.00">ListOfUncertParameters.h</text>
</a>
</g>
</g>
<!-- Node5&#45;&gt;Node6 -->
<g id="edge6_Node000005_Node000006" class="edge">
<title>Node5&#45;&gt;Node6</title>
<g id="a_edge6_Node000005_Node000006"><a xlink:title=" ">
<path fill="none" stroke="#63b8ff" d="M217.91,-380.65C235.67,-372.36 258.65,-360.94 278,-349 306.38,-331.5 337.12,-307 352.69,-294.15"/>
<polygon fill="#63b8ff" stroke="#63b8ff" points="216.26,-377.55 208.63,-384.91 219.18,-383.91 216.26,-377.55"/>
</a>
</g>
</g>
<!-- Node8 -->
<g id="Node000008" class="node">
<title>Node8</title>
<g id="a_Node000008"><a xlink:href="_uncert_parameter_8cpp.html" target="_top" xlink:title="Implementation of the UncertParameter class.">
<polygon fill="white" stroke="#666666" points="261.5,-239 142.5,-239 142.5,-220 261.5,-220 261.5,-239"/>
<text text-anchor="middle" x="202" y="-227" font-family="Helvetica,sans-Serif" font-size="10.00">UncertParameter.cpp</text>
</a>
</g>
</g>
<!-- Node5&#45;&gt;Node8 -->
<g id="edge21_Node000005_Node000008" class="edge">
<title>Node5&#45;&gt;Node8</title>
<g id="a_edge21_Node000005_Node000008"><a xlink:title=" ">
<path fill="none" stroke="#63b8ff" d="M211.75,-379.16C221.87,-371.51 232.87,-361.16 239,-349 250.05,-327.08 242.89,-318.52 244,-294 244.38,-285.56 247.12,-282.85 244,-275 238.04,-259.99 224.35,-247.12 214.21,-239.14"/>
<polygon fill="#63b8ff" stroke="#63b8ff" points="209.73,-376.31 203.58,-384.93 213.77,-382.02 209.73,-376.31"/>
</a>
</g>
</g>
<!-- Node16 -->
<g id="Node000016" class="node">
<title>Node16</title>
<g id="a_Node000016"><a xlink:href="_uncert_span_8h.html" target="_top" xlink:title="Definition of the UncertSpan class.">
<polygon fill="white" stroke="#666666" points="230,-349 148,-349 148,-330 230,-330 230,-349"/>
<text text-anchor="middle" x="189" y="-337" font-family="Helvetica,sans-Serif" font-size="10.00">UncertSpan.h</text>
</a>
</g>
</g>
<!-- Node5&#45;&gt;Node16 -->
<g id="edge22_Node000005_Node000016" class="edge">
<title>Node5&#45;&gt;Node16</title>
<g id="a_edge22_Node000005_Node000016"><a xlink:title=" ">
<path fill="none" stroke="#63b8ff" d="M189,-374.66C189,-365.93 189,-355.99 189,-349.09"/>
<polygon fill="#63b8ff" stroke="#63b8ff" points="185.5,-374.75 189,-384.75 192.5,-374.75 185.5,-374.75"/>
</a>
</g>
</g>
<!-- Node7 -->
<g id="Node000007" class="node">
<title>Node7</title>
<g id="a_Node000007"><a xlink:href="_list_of_uncert_parameters_8cpp.html" target="_top" xlink:title="Implementation of the ListOfUncertParameters class.">
<polygon fill="white" stroke="#666666" points="432.5,-239 279.5,-239 279.5,-220 432.5,-220 432.5,-239"/>
<text text-anchor="middle" x="356" y="-227" font-family="Helvetica,sans-Serif" font-size="10.00">ListOfUncertParameters.cpp</text>
</a>
</g>
</g>
<!-- Node6&#45;&gt;Node7 -->
<g id="edge7_Node000006_Node000007" class="edge">
<title>Node6&#45;&gt;Node7</title>
<g id="a_edge7_Node000006_Node000007"><a xlink:title=" ">
<path fill="none" stroke="#63b8ff" d="M360.51,-264.66C359.36,-255.93 358.05,-245.99 357.13,-239.09"/>
<polygon fill="#63b8ff" stroke="#63b8ff" points="357.06,-265.29 361.84,-274.75 364,-264.38 357.06,-265.29"/>
</a>
</g>
</g>
<!-- Node6&#45;&gt;Node8 -->
<g id="edge8_Node000006_Node000008" class="edge">
<title>Node6&#45;&gt;Node8</title>
<g id="a_edge8_Node000006_Node000008"><a xlink:title=" ">
<path fill="none" stroke="#63b8ff" d="M327.45,-271.8C297.41,-261.91 255.06,-247.97 228.07,-239.08"/>
<polygon fill="#63b8ff" stroke="#63b8ff" points="326.54,-275.18 337.13,-274.98 328.73,-268.53 326.54,-275.18"/>
</a>
</g>
</g>
<!-- Node6&#45;&gt;Node9 -->
<g id="edge9_Node000006_Node000009" class="edge">
<title>Node6&#45;&gt;Node9</title>
<g id="a_edge9_Node000006_Node000009"><a xlink:title=" ">
<path fill="none" stroke="#63b8ff" d="M393.12,-271.03C416.79,-261.23 449.15,-247.83 470.06,-239.17"/>
<polygon fill="#63b8ff" stroke="#63b8ff" points="391.47,-267.93 383.57,-274.98 394.14,-274.39 391.47,-267.93"/>
</a>
</g>
</g>
<!-- Node9&#45;&gt;Node2 -->
<g id="edge10_Node000009_Node000002" class="edge">
<title>Node9&#45;&gt;Node2</title>
<g id="a_edge10_Node000009_Node000002"><a xlink:title=" ">
<path fill="none" stroke="#63b8ff" d="M440.4,-219.95C333.8,-203.78 221.22,-189.13 159.51,-181.31"/>
<polygon fill="#63b8ff" stroke="#63b8ff" points="439.95,-223.43 450.36,-221.47 441,-216.51 439.95,-223.43"/>
</a>
</g>
</g>
<!-- Node9&#45;&gt;Node3 -->
<g id="edge11_Node000009_Node000003" class="edge">
<title>Node9&#45;&gt;Node3</title>
<g id="a_edge11_Node000009_Node000003"><a xlink:title=" ">
<path fill="none" stroke="#63b8ff" d="M459.62,-216.06C438.58,-207.51 410.37,-195.64 386,-184 339.17,-161.63 327.52,-155.67 283,-129 252.37,-110.65 217.85,-86.71 200.05,-74.11"/>
<polygon fill="#63b8ff" stroke="#63b8ff" points="458.45,-219.36 469.03,-219.86 461.06,-212.87 458.45,-219.36"/>
</a>
</g>
</g>
<!-- Node10 -->
<g id="Node000010" class="node">
<title>Node10</title>
<g id="a_Node000010"><a xlink:href="_distrib_s_base_plugin_8h.html" target="_top" xlink:title="Definition of the DistribSBasePlugin class.">
<polygon fill="white" stroke="#666666" points="670,-129 552,-129 552,-110 670,-110 670,-129"/>
<text text-anchor="middle" x="611" y="-117" font-family="Helvetica,sans-Serif" font-size="10.00">DistribSBasePlugin.h</text>
</a>
</g>
</g>
<!-- Node9&#45;&gt;Node10 -->
<g id="edge12_Node000009_Node000010" class="edge">
<title>Node9&#45;&gt;Node10</title>
<g id="a_edge12_Node000009_Node000010"><a xlink:title=" ">
<path fill="none" stroke="#63b8ff" d="M511.86,-214.01C523.45,-205.66 537.92,-194.72 550,-184 570.58,-165.74 592.38,-141.76 603.51,-129.14"/>
<polygon fill="#63b8ff" stroke="#63b8ff" points="509.78,-211.2 503.65,-219.84 513.83,-216.91 509.78,-211.2"/>
</a>
</g>
</g>
<!-- Node13 -->
<g id="Node000013" class="node">
<title>Node13</title>
<g id="a_Node000013"><a xlink:href="_list_of_uncertainties_8h.html" target="_top" xlink:title="Definition of the ListOfUncertainties class.">
<polygon fill="white" stroke="#666666" points="541.5,-184 422.5,-184 422.5,-165 541.5,-165 541.5,-184"/>
<text text-anchor="middle" x="482" y="-172" font-family="Helvetica,sans-Serif" font-size="10.00">ListOfUncertainties.h</text>
</a>
</g>
</g>
<!-- Node9&#45;&gt;Node13 -->
<g id="edge16_Node000009_Node000013" class="edge">
<title>Node9&#45;&gt;Node13</title>
<g id="a_edge16_Node000009_Node000013"><a xlink:title=" ">
<path fill="none" stroke="#63b8ff" d="M487.8,-209.66C486.32,-200.93 484.63,-190.99 483.46,-184.09"/>
<polygon fill="#63b8ff" stroke="#63b8ff" points="484.39,-210.48 489.51,-219.75 491.29,-209.3 484.39,-210.48"/>
</a>
</g>
</g>
<!-- Node15 -->
<g id="Node000015" class="node">
<title>Node15</title>
<g id="a_Node000015"><a xlink:href="_uncertainty_8cpp.html" target="_top" xlink:title="Implementation of the Uncertainty class.">
<polygon fill="white" stroke="#666666" points="384,-129 292,-129 292,-110 384,-110 384,-129"/>
<text text-anchor="middle" x="338" y="-117" font-family="Helvetica,sans-Serif" font-size="10.00">Uncertainty.cpp</text>
</a>
</g>
</g>
<!-- Node9&#45;&gt;Node15 -->
<g id="edge20_Node000009_Node000015" class="edge">
<title>Node9&#45;&gt;Node15</title>
<g id="a_edge20_Node000009_Node000015"><a xlink:title=" ">
<path fill="none" stroke="#63b8ff" d="M464.99,-215.22C449.47,-206.92 429.61,-195.62 413,-184 387.84,-166.39 360.98,-142.15 347.25,-129.31"/>
<polygon fill="#63b8ff" stroke="#63b8ff" points="463.55,-218.41 474.03,-219.98 466.81,-212.22 463.55,-218.41"/>
</a>
</g>
</g>
<!-- Node10&#45;&gt;Node3 -->
<g id="edge14_Node000010_Node000003" class="edge">
<title>Node10&#45;&gt;Node3</title>
<g id="a_edge14_Node000010_Node000003"><a xlink:title=" ">
<path fill="none" stroke="#63b8ff" d="M541.37,-109.78C462.1,-99.84 333.5,-83.73 255.24,-73.92"/>
<polygon fill="#63b8ff" stroke="#63b8ff" points="541.38,-113.3 551.74,-111.07 542.25,-106.36 541.38,-113.3"/>
</a>
</g>
</g>
<!-- Node11 -->
<g id="Node000011" class="node">
<title>Node11</title>
<g id="a_Node000011"><a xlink:href="_distrib_extension_8cpp.html" target="_top" xlink:title="Implementation of DistribExtension.">
<polygon fill="white" stroke="#666666" points="739.5,-74 622.5,-74 622.5,-55 739.5,-55 739.5,-74"/>
<text text-anchor="middle" x="681" y="-62" font-family="Helvetica,sans-Serif" font-size="10.00">DistribExtension.cpp</text>
</a>
</g>
</g>
<!-- Node10&#45;&gt;Node11 -->
<g id="edge13_Node000010_Node000011" class="edge">
<title>Node10&#45;&gt;Node11</title>
<g id="a_edge13_Node000010_Node000011"><a xlink:title=" ">
<path fill="none" stroke="#63b8ff" d="M630.31,-103.88C642.91,-94.34 658.93,-82.21 669.55,-74.17"/>
<polygon fill="#63b8ff" stroke="#63b8ff" points="628.11,-101.16 622.25,-109.98 632.33,-106.74 628.11,-101.16"/>
</a>
</g>
</g>
<!-- Node12 -->
<g id="Node000012" class="node">
<title>Node12</title>
<g id="a_Node000012"><a xlink:href="_distrib_s_base_plugin_8cpp.html" target="_top" xlink:title="Implementation of the DistribSBasePlugin class.">
<polygon fill="white" stroke="#666666" points="604.5,-74 475.5,-74 475.5,-55 604.5,-55 604.5,-74"/>
<text text-anchor="middle" x="540" y="-62" font-family="Helvetica,sans-Serif" font-size="10.00">DistribSBasePlugin.cpp</text>
</a>
</g>
</g>
<!-- Node10&#45;&gt;Node12 -->
<g id="edge15_Node000010_Node000012" class="edge">
<title>Node10&#45;&gt;Node12</title>
<g id="a_edge15_Node000010_Node000012"><a xlink:title=" ">
<path fill="none" stroke="#63b8ff" d="M591.41,-103.88C578.63,-94.34 562.39,-82.21 551.61,-74.17"/>
<polygon fill="#63b8ff" stroke="#63b8ff" points="589.49,-106.81 599.59,-109.98 593.67,-101.2 589.49,-106.81"/>
</a>
</g>
</g>
<!-- Node13&#45;&gt;Node10 -->
<g id="edge17_Node000013_Node000010" class="edge">
<title>Node13&#45;&gt;Node10</title>
<g id="a_edge17_Node000013_Node000010"><a xlink:title=" ">
<path fill="none" stroke="#63b8ff" d="M512.04,-161.16C535.92,-151.35 568.72,-137.87 589.9,-129.17"/>
<polygon fill="#63b8ff" stroke="#63b8ff" points="510.65,-157.95 502.73,-164.98 513.31,-164.42 510.65,-157.95"/>
</a>
</g>
</g>
<!-- Node14 -->
<g id="Node000014" class="node">
<title>Node14</title>
<g id="a_Node000014"><a xlink:href="_list_of_uncertainties_8cpp.html" target="_top" xlink:title="Implementation of the ListOfUncertainties class.">
<polygon fill="white" stroke="#666666" points="533.5,-129 402.5,-129 402.5,-110 533.5,-110 533.5,-129"/>
<text text-anchor="middle" x="468" y="-117" font-family="Helvetica,sans-Serif" font-size="10.00">ListOfUncertainties.cpp</text>
</a>
</g>
</g>
<!-- Node13&#45;&gt;Node14 -->
<g id="edge18_Node000013_Node000014" class="edge">
<title>Node13&#45;&gt;Node14</title>
<g id="a_edge18_Node000013_Node000014"><a xlink:title=" ">
<path fill="none" stroke="#63b8ff" d="M477.1,-154.95C474.78,-146.15 472.11,-136.06 470.27,-129.09"/>
<polygon fill="#63b8ff" stroke="#63b8ff" points="473.75,-155.97 479.69,-164.75 480.52,-154.19 473.75,-155.97"/>
</a>
</g>
</g>
<!-- Node13&#45;&gt;Node15 -->
<g id="edge19_Node000013_Node000015" class="edge">
<title>Node13&#45;&gt;Node15</title>
<g id="a_edge19_Node000013_Node000015"><a xlink:title=" ">
<path fill="none" stroke="#63b8ff" d="M449.18,-161.42C422.47,-151.59 385.4,-137.95 361.56,-129.17"/>
<polygon fill="#63b8ff" stroke="#63b8ff" points="448.27,-164.82 458.86,-164.98 450.69,-158.25 448.27,-164.82"/>
</a>
</g>
</g>
<!-- Node16&#45;&gt;Node3 -->
<g id="edge23_Node000016_Node000003" class="edge">
<title>Node16&#45;&gt;Node3</title>
<g id="a_edge23_Node000016_Node000003"><a xlink:title=" ">
<path fill="none" stroke="#63b8ff" d="M162.46,-324.62C151.18,-317.18 139.22,-306.88 133,-294 118.7,-264.38 120.63,-250.47 133,-220 141.39,-199.32 157.91,-203.9 168,-184 187.06,-146.41 188.49,-94.36 188.25,-74.08"/>
<polygon fill="#63b8ff" stroke="#63b8ff" points="160.87,-327.75 171.23,-329.96 164.51,-321.77 160.87,-327.75"/>
</a>
</g>
</g>
<!-- Node16&#45;&gt;Node6 -->
<g id="edge24_Node000016_Node000006" class="edge">
<title>Node16&#45;&gt;Node6</title>
<g id="a_edge24_Node000016_Node000006"><a xlink:title=" ">
<path fill="none" stroke="#63b8ff" d="M226.57,-327.06C259.09,-317.15 305.4,-303.04 334.82,-294.08"/>
<polygon fill="#63b8ff" stroke="#63b8ff" points="225.5,-323.72 216.96,-329.98 227.54,-330.42 225.5,-323.72"/>
</a>
</g>
</g>
<!-- Node17 -->
<g id="Node000017" class="node">
<title>Node17</title>
<g id="a_Node000017"><a xlink:href="_uncert_span_8cpp.html" target="_top" xlink:title="Implementation of the UncertSpan class.">
<polygon fill="white" stroke="#666666" points="235.5,-294 142.5,-294 142.5,-275 235.5,-275 235.5,-294"/>
<text text-anchor="middle" x="189" y="-282" font-family="Helvetica,sans-Serif" font-size="10.00">UncertSpan.cpp</text>
</a>
</g>
</g>
<!-- Node16&#45;&gt;Node17 -->
<g id="edge25_Node000016_Node000017" class="edge">
<title>Node16&#45;&gt;Node17</title>
<g id="a_edge25_Node000016_Node000017"><a xlink:title=" ">
<path fill="none" stroke="#63b8ff" d="M189,-319.66C189,-310.93 189,-300.99 189,-294.09"/>
<polygon fill="#63b8ff" stroke="#63b8ff" points="185.5,-319.75 189,-329.75 192.5,-319.75 185.5,-319.75"/>
</a>
</g>
</g>
</g>
</svg>

<g id="navigator" transform="translate(0 0)" fill="#404254">
  <rect fill="#f2f5e9" fill-opacity="0.5" stroke="#606060" stroke-width=".5" x="0" y="0" width="60" height="60"/>
  <use id="zoomplus" xlink:href="#zoomPlus" x="17" y="9" onmousedown="handleZoom(evt,'in')"/>
  <use id="zoomminus" xlink:href="#zoomMin" x="42" y="9" onmousedown="handleZoom(evt,'out')"/>
  <use id="reset" xlink:href="#resetDef" x="30" y="36" onmousedown="handleReset()"/>
   <use id="arrowup" xlink:href="#arrowUp" x="0" y="0" onmousedown="handlePan(0,-1)"/>
  <use id="arrowright" xlink:href="#arrowRight" x="0" y="0" onmousedown="handlePan(1,0)"/>
  <use id="arrowdown" xlink:href="#arrowDown" x="0" y="0" onmousedown="handlePan(0,1)"/>
  <use id="arrowleft" xlink:href="#arrowLeft" x="0" y="0" onmousedown="handlePan(-1,0)"/>
</g>
<svg viewBox="0 0 15 15" width="100%" height="30px" preserveAspectRatio="xMaxYMin meet">
 <g id="arrow_out" transform="scale(0.3 0.3)">
  <a xlink:href="_distrib_base_8h__dep__incl_org.svg" target="_base">
   <rect id="button" ry="5" rx="5" y="6" x="6" height="38" width="38"
        fill="#f2f5e9" fill-opacity="0.5" stroke="#606060" stroke-width="1.0"/>
   <path id="arrow"
     d="M 11.500037,31.436501 C 11.940474,20.09759 22.043105,11.32322 32.158766,21.979434 L 37.068811,17.246167 C 37.068811,17.246167 37.088388,32 37.088388,32 L 22.160133,31.978069 C 22.160133,31.978069 26.997745,27.140456 26.997745,27.140456 C 18.528582,18.264221 13.291696,25.230495 11.500037,31.436501 z"
     style="fill:#404040;"/>
  </a>
 </g>
</svg>

<style type='text/css'>
<![CDATA[
[data-mouse-over-selected='false'] { opacity: 0.7; }
[data-mouse-over-selected='true']  { opacity: 1.0; }
]]>
</style>
<script type="application/ecmascript"><![CDATA[
document.addEventListener('DOMContentLoaded', (event) => {
  highlightEdges();
  highlightAdjacentNodes();
});
]]></script>
</svg>
