<?xml version="1.0" encoding="UTF-8" standalone="no"?>
<!DOCTYPE svg PUBLIC "-//W3C//DTD SVG 1.1//EN"
 "http://www.w3.org/Graphics/SVG/1.1/DTD/svg11.dtd">
<!-- Generated by graphviz version 2.43.0 (0)
 -->
<!-- Title: Domain.h Pages: 1 -->
<svg width="429pt" height="308pt"
 viewBox="0.00 0.00 429.00 308.00" xmlns="http://www.w3.org/2000/svg" xmlns:xlink="http://www.w3.org/1999/xlink">
<g id="graph0" class="graph" transform="scale(1 1) rotate(0) translate(4 304)">
<title>Domain.h</title>
<polygon fill="white" stroke="transparent" points="-4,4 -4,-304 425,-304 425,4 -4,4"/>
<!-- Node1 -->
<g id="node1" class="node">
<title>Node1</title>
<g id="a_node1"><a xlink:title="Definition of the Domain class.">
<polygon fill="#bfbfbf" stroke="black" points="95.5,-280.5 95.5,-299.5 159.5,-299.5 159.5,-280.5 95.5,-280.5"/>
<text text-anchor="middle" x="127.5" y="-287.5" font-family="Helvetica,sans-Serif" font-size="10.00">Domain.h</text>
</a>
</g>
</g>
<!-- Node2 -->
<g id="node2" class="node">
<title>Node2</title>
<g id="a_node2"><a xlink:href="_spatial_extension_types_8h.html" target="_top" xlink:title="Definition of SpatialExtensionTypes.">
<polygon fill="white" stroke="black" points="0,-56.5 0,-75.5 135,-75.5 135,-56.5 0,-56.5"/>
<text text-anchor="middle" x="67.5" y="-63.5" font-family="Helvetica,sans-Serif" font-size="10.00">SpatialExtensionTypes.h</text>
</a>
</g>
</g>
<!-- Node1&#45;&gt;Node2 -->
<g id="edge1" class="edge">
<title>Node1&#45;&gt;Node2</title>
<path fill="none" stroke="midnightblue" d="M117.34,-271.78C106.3,-252.2 89.1,-218.92 80.5,-188 69.12,-147.09 67.6,-95.83 67.47,-75.69"/>
<polygon fill="midnightblue" stroke="midnightblue" points="114.31,-273.54 122.33,-280.46 120.38,-270.05 114.31,-273.54"/>
</g>
<!-- Node4 -->
<g id="node4" class="node">
<title>Node4</title>
<g id="a_node4"><a xlink:href="_domain_8cpp.html" target="_top" xlink:title="Implementation of the Domain class.">
<polygon fill="white" stroke="black" points="90,-168.5 90,-187.5 165,-187.5 165,-168.5 90,-168.5"/>
<text text-anchor="middle" x="127.5" y="-175.5" font-family="Helvetica,sans-Serif" font-size="10.00">Domain.cpp</text>
</a>
</g>
</g>
<!-- Node1&#45;&gt;Node4 -->
<g id="edge3" class="edge">
<title>Node1&#45;&gt;Node4</title>
<path fill="none" stroke="midnightblue" d="M127.5,-270.35C127.5,-246.25 127.5,-205.31 127.5,-187.59"/>
<polygon fill="midnightblue" stroke="midnightblue" points="124,-270.37 127.5,-280.37 131,-270.37 124,-270.37"/>
</g>
<!-- Node5 -->
<g id="node5" class="node">
<title>Node5</title>
<g id="a_node5"><a xlink:href="_list_of_domains_8h.html" target="_top" xlink:title="Definition of the ListOfDomains class.">
<polygon fill="white" stroke="black" points="162.5,-224.5 162.5,-243.5 260.5,-243.5 260.5,-224.5 162.5,-224.5"/>
<text text-anchor="middle" x="211.5" y="-231.5" font-family="Helvetica,sans-Serif" font-size="10.00">ListOfDomains.h</text>
</a>
</g>
</g>
<!-- Node1&#45;&gt;Node5 -->
<g id="edge4" class="edge">
<title>Node1&#45;&gt;Node5</title>
<path fill="none" stroke="midnightblue" d="M149.43,-274.9C164.84,-265 184.95,-252.07 198.04,-243.65"/>
<polygon fill="midnightblue" stroke="midnightblue" points="147.52,-271.97 141,-280.32 151.3,-277.86 147.52,-271.97"/>
</g>
<!-- Node3 -->
<g id="node3" class="node">
<title>Node3</title>
<g id="a_node3"><a xlink:href="_spatial_validator_8cpp.html" target="_top" xlink:title="Definition of SpatialValidator.">
<polygon fill="white" stroke="black" points="11,-0.5 11,-19.5 124,-19.5 124,-0.5 11,-0.5"/>
<text text-anchor="middle" x="67.5" y="-7.5" font-family="Helvetica,sans-Serif" font-size="10.00">SpatialValidator.cpp</text>
</a>
</g>
</g>
<!-- Node2&#45;&gt;Node3 -->
<g id="edge2" class="edge">
<title>Node2&#45;&gt;Node3</title>
<path fill="none" stroke="midnightblue" d="M67.5,-45.8C67.5,-36.91 67.5,-26.78 67.5,-19.75"/>
<polygon fill="midnightblue" stroke="midnightblue" points="64,-46.08 67.5,-56.08 71,-46.08 64,-46.08"/>
</g>
<!-- Node5&#45;&gt;Node4 -->
<g id="edge5" class="edge">
<title>Node5&#45;&gt;Node4</title>
<path fill="none" stroke="midnightblue" d="M189.57,-218.9C174.16,-209 154.05,-196.07 140.96,-187.65"/>
<polygon fill="midnightblue" stroke="midnightblue" points="187.7,-221.86 198,-224.32 191.48,-215.97 187.7,-221.86"/>
</g>
<!-- Node6 -->
<g id="node6" class="node">
<title>Node6</title>
<g id="a_node6"><a xlink:href="_geometry_8h.html" target="_top" xlink:title="Definition of the Geometry class.">
<polygon fill="white" stroke="black" points="183,-168.5 183,-187.5 256,-187.5 256,-168.5 183,-168.5"/>
<text text-anchor="middle" x="219.5" y="-175.5" font-family="Helvetica,sans-Serif" font-size="10.00">Geometry.h</text>
</a>
</g>
</g>
<!-- Node5&#45;&gt;Node6 -->
<g id="edge6" class="edge">
<title>Node5&#45;&gt;Node6</title>
<path fill="none" stroke="midnightblue" d="M214.3,-214.1C215.63,-205.14 217.15,-194.86 218.2,-187.75"/>
<polygon fill="midnightblue" stroke="midnightblue" points="210.82,-213.68 212.82,-224.08 217.75,-214.7 210.82,-213.68"/>
</g>
<!-- Node11 -->
<g id="node11" class="node">
<title>Node11</title>
<g id="a_node11"><a xlink:href="_list_of_domains_8cpp.html" target="_top" xlink:title="Implementation of the ListOfDomains class.">
<polygon fill="white" stroke="black" points="274,-168.5 274,-187.5 383,-187.5 383,-168.5 274,-168.5"/>
<text text-anchor="middle" x="328.5" y="-175.5" font-family="Helvetica,sans-Serif" font-size="10.00">ListOfDomains.cpp</text>
</a>
</g>
</g>
<!-- Node5&#45;&gt;Node11 -->
<g id="edge13" class="edge">
<title>Node5&#45;&gt;Node11</title>
<path fill="none" stroke="midnightblue" d="M239.16,-220.23C261.05,-210.13 291,-196.31 310.05,-187.52"/>
<polygon fill="midnightblue" stroke="midnightblue" points="237.65,-217.08 230.04,-224.44 240.59,-223.43 237.65,-217.08"/>
</g>
<!-- Node6&#45;&gt;Node2 -->
<g id="edge7" class="edge">
<title>Node6&#45;&gt;Node2</title>
<path fill="none" stroke="midnightblue" d="M194.47,-163.62C179.31,-155.17 159.82,-143.68 143.5,-132 117.8,-113.61 90.23,-88.52 76.44,-75.54"/>
<polygon fill="midnightblue" stroke="midnightblue" points="192.83,-166.71 203.28,-168.46 196.2,-160.58 192.83,-166.71"/>
</g>
<!-- Node7 -->
<g id="node7" class="node">
<title>Node7</title>
<g id="a_node7"><a xlink:href="_spatial_model_plugin_8h.html" target="_top" xlink:title="Definition of the SpatialModelPlugin class.">
<polygon fill="white" stroke="black" points="153,-112.5 153,-131.5 272,-131.5 272,-112.5 153,-112.5"/>
<text text-anchor="middle" x="212.5" y="-119.5" font-family="Helvetica,sans-Serif" font-size="10.00">SpatialModelPlugin.h</text>
</a>
</g>
</g>
<!-- Node6&#45;&gt;Node7 -->
<g id="edge8" class="edge">
<title>Node6&#45;&gt;Node7</title>
<path fill="none" stroke="midnightblue" d="M217.05,-158.1C215.89,-149.14 214.56,-138.86 213.63,-131.75"/>
<polygon fill="midnightblue" stroke="midnightblue" points="213.59,-158.62 218.34,-168.08 220.53,-157.72 213.59,-158.62"/>
</g>
<!-- Node10 -->
<g id="node10" class="node">
<title>Node10</title>
<g id="a_node10"><a xlink:href="_geometry_8cpp.html" target="_top" xlink:title="Implementation of the Geometry class.">
<polygon fill="white" stroke="black" points="290.5,-112.5 290.5,-131.5 374.5,-131.5 374.5,-112.5 290.5,-112.5"/>
<text text-anchor="middle" x="332.5" y="-119.5" font-family="Helvetica,sans-Serif" font-size="10.00">Geometry.cpp</text>
</a>
</g>
</g>
<!-- Node6&#45;&gt;Node10 -->
<g id="edge12" class="edge">
<title>Node6&#45;&gt;Node10</title>
<path fill="none" stroke="midnightblue" d="M246.5,-164.1C267.61,-154.01 296.36,-140.27 314.68,-131.52"/>
<polygon fill="midnightblue" stroke="midnightblue" points="244.92,-160.97 237.41,-168.44 247.94,-167.29 244.92,-160.97"/>
</g>
<!-- Node7&#45;&gt;Node2 -->
<g id="edge9" class="edge">
<title>Node7&#45;&gt;Node2</title>
<path fill="none" stroke="midnightblue" d="M180.02,-108.91C152.76,-98.75 114.51,-84.51 90.37,-75.52"/>
<polygon fill="midnightblue" stroke="midnightblue" points="178.93,-112.23 189.52,-112.44 181.37,-105.67 178.93,-112.23"/>
</g>
<!-- Node8 -->
<g id="node8" class="node">
<title>Node8</title>
<g id="a_node8"><a xlink:href="_spatial_extension_8cpp.html" target="_top" xlink:title="Implementation of SpatialExtension.">
<polygon fill="white" stroke="black" points="153,-56.5 153,-75.5 272,-75.5 272,-56.5 153,-56.5"/>
<text text-anchor="middle" x="212.5" y="-63.5" font-family="Helvetica,sans-Serif" font-size="10.00">SpatialExtension.cpp</text>
</a>
</g>
</g>
<!-- Node7&#45;&gt;Node8 -->
<g id="edge10" class="edge">
<title>Node7&#45;&gt;Node8</title>
<path fill="none" stroke="midnightblue" d="M212.5,-101.8C212.5,-92.91 212.5,-82.78 212.5,-75.75"/>
<polygon fill="midnightblue" stroke="midnightblue" points="209,-102.08 212.5,-112.08 216,-102.08 209,-102.08"/>
</g>
<!-- Node9 -->
<g id="node9" class="node">
<title>Node9</title>
<g id="a_node9"><a xlink:href="_spatial_model_plugin_8cpp.html" target="_top" xlink:title="Implementation of the SpatialModelPlugin class.">
<polygon fill="white" stroke="black" points="290,-56.5 290,-75.5 421,-75.5 421,-56.5 290,-56.5"/>
<text text-anchor="middle" x="355.5" y="-63.5" font-family="Helvetica,sans-Serif" font-size="10.00">SpatialModelPlugin.cpp</text>
</a>
</g>
</g>
<!-- Node7&#45;&gt;Node9 -->
<g id="edge11" class="edge">
<title>Node7&#45;&gt;Node9</title>
<path fill="none" stroke="midnightblue" d="M244.53,-108.91C271.41,-98.75 309.14,-84.51 332.95,-75.52"/>
<polygon fill="midnightblue" stroke="midnightblue" points="243.28,-105.64 235.16,-112.44 245.75,-112.19 243.28,-105.64"/>
</g>
</g>
</svg>
