<?xml version="1.0" encoding="UTF-8" standalone="no"?>
<!DOCTYPE svg PUBLIC "-//W3C//DTD SVG 1.1//EN"
 "http://www.w3.org/Graphics/SVG/1.1/DTD/svg11.dtd">
<!-- Generated by graphviz version 2.43.0 (0)
 -->
<!-- Title: ElementFilter.h Pages: 1 -->
<svg width="182pt" height="151pt"
 viewBox="0.00 0.00 181.50 151.00" xmlns="http://www.w3.org/2000/svg" xmlns:xlink="http://www.w3.org/1999/xlink">
<g id="graph0" class="graph" transform="scale(1 1) rotate(0) translate(4 147)">
<title>ElementFilter.h</title>
<polygon fill="white" stroke="transparent" points="-4,4 -4,-147 177.5,-147 177.5,4 -4,4"/>
<!-- Node1 -->
<g id="node1" class="node">
<title>Node1</title>
<g id="a_node1"><a xlink:title="Base class of element filters.">
<polygon fill="#bfbfbf" stroke="black" points="66,-123.5 66,-142.5 156,-142.5 156,-123.5 66,-123.5"/>
<text text-anchor="middle" x="111" y="-130.5" font-family="Helvetica,sans-Serif" font-size="10.00">ElementFilter.h</text>
</a>
</g>
</g>
<!-- Node2 -->
<g id="node2" class="node">
<title>Node2</title>
<g id="a_node2"><a xlink:href="extern_8h.html" target="_top" xlink:title="Definitions of LIBSBML_EXTERN and related things.">
<polygon fill="white" stroke="black" points="0,-67.5 0,-86.5 130,-86.5 130,-67.5 0,-67.5"/>
<text text-anchor="middle" x="65" y="-74.5" font-family="Helvetica,sans-Serif" font-size="10.00">sbml/common/extern.h</text>
</a>
</g>
</g>
<!-- Node1&#45;&gt;Node2 -->
<g id="edge1" class="edge">
<title>Node1&#45;&gt;Node2</title>
<path fill="none" stroke="midnightblue" d="M103.4,-123.08C96.77,-115.3 86.98,-103.8 78.94,-94.37"/>
<polygon fill="midnightblue" stroke="midnightblue" points="81.6,-92.09 72.45,-86.75 76.27,-96.63 81.6,-92.09"/>
</g>
<!-- Node3 -->
<g id="node3" class="node">
<title>Node3</title>
<g id="a_node3"><a xlink:title=" ">
<polygon fill="white" stroke="#bfbfbf" points="48.5,-0.5 48.5,-30.5 173.5,-30.5 173.5,-0.5 48.5,-0.5"/>
<text text-anchor="start" x="56.5" y="-18.5" font-family="Helvetica,sans-Serif" font-size="10.00">sbml/common/libsbml</text>
<text text-anchor="middle" x="111" y="-7.5" font-family="Helvetica,sans-Serif" font-size="10.00">&#45;namespace.h</text>
</a>
</g>
</g>
<!-- Node1&#45;&gt;Node3 -->
<g id="edge3" class="edge">
<title>Node1&#45;&gt;Node3</title>
<path fill="none" stroke="midnightblue" d="M118.41,-123.41C125.28,-114.84 135.01,-100.98 139,-87 143.67,-70.64 136.5,-52.84 128.25,-39.22"/>
<polygon fill="midnightblue" stroke="midnightblue" points="130.93,-36.93 122.49,-30.52 125.09,-40.79 130.93,-36.93"/>
</g>
<!-- Node2&#45;&gt;Node3 -->
<g id="edge2" class="edge">
<title>Node2&#45;&gt;Node3</title>
<path fill="none" stroke="midnightblue" d="M71.59,-67.48C77.41,-59.94 86.16,-48.63 93.94,-38.57"/>
<polygon fill="midnightblue" stroke="midnightblue" points="96.81,-40.58 100.16,-30.52 91.27,-36.29 96.81,-40.58"/>
</g>
</g>
</svg>
