<?xml version="1.0" encoding="UTF-8" standalone="no"?>
<!DOCTYPE svg PUBLIC "-//W3C//DTD SVG 1.1//EN"
 "http://www.w3.org/Graphics/SVG/1.1/DTD/svg11.dtd">
<!-- Generated by graphviz version 2.43.0 (0)
 -->
<!-- Title: Ellipse.h Pages: 1 -->
<!--zoomable 196 -->
<svg id="main" version="1.1" xmlns="http://www.w3.org/2000/svg" xmlns:xlink="http://www.w3.org/1999/xlink" xml:space="preserve" onload="init(evt)">
<style type="text/css"><![CDATA[
.edge:hover path { stroke: red; }
.edge:hover polygon { stroke: red; fill: red; }
]]></style>
<script type="text/javascript"><![CDATA[
var edges = document.getElementsByTagName('g');
if (edges && edges.length) {
  for (var i=0;i<edges.length;i++) {
    if (edges[i].id.substr(0,4)=='edge') {
      edges[i].setAttribute('class','edge');
    }
  }
}
]]></script>
        <defs>
                <circle id="rim" cx="0" cy="0" r="7"/>
                <circle id="rim2" cx="0" cy="0" r="3.5"/>
                <g id="zoomPlus">
                        <use xlink:href="#rim" fill="#404040">
                                <set attributeName="fill" to="#808080" begin="zoomplus.mouseover" end="zoomplus.mouseout"/>
                        </use>
                        <path d="M-4,0h8M0,-4v8" fill="none" stroke="white" stroke-width="1.5" pointer-events="none"/>
                </g>
                <g id="zoomMin">
                        <use xlink:href="#rim" fill="#404040">
                                <set attributeName="fill" to="#808080" begin="zoomminus.mouseover" end="zoomminus.mouseout"/>
                        </use>
                        <path d="M-4,0h8" fill="none" stroke="white" stroke-width="1.5" pointer-events="none"/>
                </g>
                <g id="dirArrow">
                        <path fill="none" stroke="white" stroke-width="1.5" d="M0,-3.0v7 M-2.5,-0.5L0,-3.0L2.5,-0.5"/>
                </g>
               <g id="resetDef">
                       <use xlink:href="#rim2" fill="#404040">
                               <set attributeName="fill" to="#808080" begin="reset.mouseover" end="reset.mouseout"/>
                       </use>
               </g>
        </defs>

<script type="text/javascript">
var viewWidth = 1320;
var viewHeight = 196;
var sectionId = 'dynsection-1';
</script>
<script xlink:href="svgpan.js"/>
<svg id="graph" class="graph">
<g id="viewport">
<title>Ellipse.h</title>
<polygon fill="white" stroke="transparent" points="-4,4 -4,-192 1316,-192 1316,4 -4,4"/>
<!-- Node1 -->
<g id="node1" class="node">
<title>Node1</title>
<g id="a_node1"><a xlink:title="Definition of the Ellipse class.">
<polygon fill="#bfbfbf" stroke="black" points="761,-168.5 761,-187.5 819,-187.5 819,-168.5 761,-168.5"/>
<text text-anchor="middle" x="790" y="-175.5" font-family="Helvetica,sans-Serif" font-size="10.00">Ellipse.h</text>
</a>
</g>
</g>
<!-- Node2 -->
<g id="node2" class="node">
<title>Node2</title>
<g id="a_node2"><a xlink:href="_render_extension_types_8h.html" target="_top" xlink:title="Definition of RenderExtensionTypes.">
<polygon fill="white" stroke="black" points="246,-112.5 246,-131.5 382,-131.5 382,-112.5 246,-112.5"/>
<text text-anchor="middle" x="314" y="-119.5" font-family="Helvetica,sans-Serif" font-size="10.00">RenderExtensionTypes.h</text>
</a>
</g>
</g>
<!-- Node1&#45;&gt;Node2 -->
<g id="edge1" class="edge">
<title>Node1&#45;&gt;Node2</title>
<path fill="none" stroke="midnightblue" d="M750.18,-172.53C678.52,-164.47 523.1,-146.97 392,-132 388.75,-131.63 385.42,-131.25 382.06,-130.86"/>
<polygon fill="midnightblue" stroke="midnightblue" points="750.21,-176.05 760.54,-173.69 750.99,-169.1 750.21,-176.05"/>
</g>
<!-- Node9 -->
<g id="node9" class="node">
<title>Node9</title>
<g id="a_node9"><a xlink:href="_ellipse_8cpp.html" target="_top" xlink:title="Implementation of the Ellipse class.">
<polygon fill="white" stroke="black" points="400.5,-112.5 400.5,-131.5 469.5,-131.5 469.5,-112.5 400.5,-112.5"/>
<text text-anchor="middle" x="435" y="-119.5" font-family="Helvetica,sans-Serif" font-size="10.00">Ellipse.cpp</text>
</a>
</g>
</g>
<!-- Node1&#45;&gt;Node9 -->
<g id="edge10" class="edge">
<title>Node1&#45;&gt;Node9</title>
<path fill="none" stroke="midnightblue" d="M750.73,-172.06C691.62,-164.46 576.34,-148.98 479,-132 475.93,-131.46 472.74,-130.88 469.55,-130.26"/>
<polygon fill="midnightblue" stroke="midnightblue" points="750.39,-175.55 760.75,-173.34 751.28,-168.6 750.39,-175.55"/>
</g>
<!-- Node10 -->
<g id="node10" class="node">
<title>Node10</title>
<g id="a_node10"><a xlink:href="_graphical_primitive1_d_8cpp.html" target="_top" xlink:title="abstract base class for graphical 1D objects">
<polygon fill="white" stroke="black" points="487.5,-112.5 487.5,-131.5 628.5,-131.5 628.5,-112.5 487.5,-112.5"/>
<text text-anchor="middle" x="558" y="-119.5" font-family="Helvetica,sans-Serif" font-size="10.00">GraphicalPrimitive1D.cpp</text>
</a>
</g>
</g>
<!-- Node1&#45;&gt;Node10 -->
<g id="edge11" class="edge">
<title>Node1&#45;&gt;Node10</title>
<path fill="none" stroke="midnightblue" d="M750.66,-167.84C707.07,-157.7 637.32,-141.46 594.78,-131.56"/>
<polygon fill="midnightblue" stroke="midnightblue" points="750.08,-171.3 760.62,-170.16 751.67,-164.48 750.08,-171.3"/>
</g>
<!-- Node11 -->
<g id="node11" class="node">
<title>Node11</title>
<g id="a_node11"><a xlink:href="_graphical_primitive2_d_8cpp.html" target="_top" xlink:title="Implementation of the GraphicalPrimitive2D class.">
<polygon fill="white" stroke="black" points="646.5,-112.5 646.5,-131.5 787.5,-131.5 787.5,-112.5 646.5,-112.5"/>
<text text-anchor="middle" x="717" y="-119.5" font-family="Helvetica,sans-Serif" font-size="10.00">GraphicalPrimitive2D.cpp</text>
</a>
</g>
</g>
<!-- Node1&#45;&gt;Node11 -->
<g id="edge12" class="edge">
<title>Node1&#45;&gt;Node11</title>
<path fill="none" stroke="midnightblue" d="M769.86,-162.1C756.72,-152.38 740.02,-140.03 728.94,-131.83"/>
<polygon fill="midnightblue" stroke="midnightblue" points="768.15,-165.19 778.27,-168.32 772.31,-159.56 768.15,-165.19"/>
</g>
<!-- Node12 -->
<g id="node12" class="node">
<title>Node12</title>
<g id="a_node12"><a xlink:href="_list_of_drawables_8cpp.html" target="_top" xlink:title="Implementation of the ListOfDrawables class.">
<polygon fill="white" stroke="black" points="805.5,-112.5 805.5,-131.5 922.5,-131.5 922.5,-112.5 805.5,-112.5"/>
<text text-anchor="middle" x="864" y="-119.5" font-family="Helvetica,sans-Serif" font-size="10.00">ListOfDrawables.cpp</text>
</a>
</g>
</g>
<!-- Node1&#45;&gt;Node12 -->
<g id="edge13" class="edge">
<title>Node1&#45;&gt;Node12</title>
<path fill="none" stroke="midnightblue" d="M810.03,-162.38C823.41,-152.62 840.56,-140.11 851.89,-131.83"/>
<polygon fill="midnightblue" stroke="midnightblue" points="807.9,-159.6 801.89,-168.32 812.03,-165.26 807.9,-159.6"/>
</g>
<!-- Node13 -->
<g id="node13" class="node">
<title>Node13</title>
<g id="a_node13"><a xlink:href="_render_group_8cpp.html" target="_top" xlink:title="Implementation of the RenderGroup class.">
<polygon fill="white" stroke="black" points="940.5,-112.5 940.5,-131.5 1041.5,-131.5 1041.5,-112.5 940.5,-112.5"/>
<text text-anchor="middle" x="991" y="-119.5" font-family="Helvetica,sans-Serif" font-size="10.00">RenderGroup.cpp</text>
</a>
</g>
</g>
<!-- Node1&#45;&gt;Node13 -->
<g id="edge14" class="edge">
<title>Node1&#45;&gt;Node13</title>
<path fill="none" stroke="midnightblue" d="M828.9,-166.55C866.81,-156.36 923.75,-141.07 959.08,-131.58"/>
<polygon fill="midnightblue" stroke="midnightblue" points="827.98,-163.17 819.23,-169.15 829.79,-169.93 827.98,-163.17"/>
</g>
<!-- Node14 -->
<g id="node14" class="node">
<title>Node14</title>
<g id="a_node14"><a xlink:href="_transformation_8cpp.html" target="_top" xlink:title="class representing a 3D affine transformation">
<polygon fill="white" stroke="black" points="1060,-112.5 1060,-131.5 1170,-131.5 1170,-112.5 1060,-112.5"/>
<text text-anchor="middle" x="1115" y="-119.5" font-family="Helvetica,sans-Serif" font-size="10.00">Transformation.cpp</text>
</a>
</g>
</g>
<!-- Node1&#45;&gt;Node14 -->
<g id="edge15" class="edge">
<title>Node1&#45;&gt;Node14</title>
<path fill="none" stroke="midnightblue" d="M829.11,-170.5C887.75,-160.76 998.52,-142.35 1063.62,-131.54"/>
<polygon fill="midnightblue" stroke="midnightblue" points="828.42,-167.07 819.13,-172.16 829.57,-173.97 828.42,-167.07"/>
</g>
<!-- Node15 -->
<g id="node15" class="node">
<title>Node15</title>
<g id="a_node15"><a xlink:href="_transformation2_d_8cpp.html" target="_top" xlink:title="class representing a 2D affine transformation">
<polygon fill="white" stroke="black" points="1188,-112.5 1188,-131.5 1312,-131.5 1312,-112.5 1188,-112.5"/>
<text text-anchor="middle" x="1250" y="-119.5" font-family="Helvetica,sans-Serif" font-size="10.00">Transformation2D.cpp</text>
</a>
</g>
</g>
<!-- Node1&#45;&gt;Node15 -->
<g id="edge16" class="edge">
<title>Node1&#45;&gt;Node15</title>
<path fill="none" stroke="midnightblue" d="M829.46,-172.58C899.75,-164.67 1051.25,-147.49 1179,-132 1181.84,-131.66 1184.74,-131.3 1187.67,-130.94"/>
<polygon fill="midnightblue" stroke="midnightblue" points="828.84,-169.13 819.29,-173.72 829.62,-176.08 828.84,-169.13"/>
</g>
<!-- Node3 -->
<g id="node3" class="node">
<title>Node3</title>
<g id="a_node3"><a xlink:href="_render_layout_plugin_8cpp.html" target="_top" xlink:title="Implementation of RenderLayoutPlugin, the plugin class of the fbc package for the Model element.">
<polygon fill="white" stroke="black" points="0,-0.5 0,-19.5 134,-19.5 134,-0.5 0,-0.5"/>
<text text-anchor="middle" x="67" y="-7.5" font-family="Helvetica,sans-Serif" font-size="10.00">RenderLayoutPlugin.cpp</text>
</a>
</g>
</g>
<!-- Node2&#45;&gt;Node3 -->
<g id="edge2" class="edge">
<title>Node2&#45;&gt;Node3</title>
<path fill="none" stroke="midnightblue" d="M235.63,-114.19C178.59,-107.67 107.7,-95.84 86,-76 69.86,-61.24 67.14,-33.62 66.86,-19.61"/>
<polygon fill="midnightblue" stroke="midnightblue" points="235.42,-117.69 245.74,-115.31 236.19,-110.73 235.42,-117.69"/>
</g>
<!-- Node4 -->
<g id="node4" class="node">
<title>Node4</title>
<g id="a_node4"><a xlink:href="_render_layout_converter_8cpp.html" target="_top" xlink:title="Simple converter to convert Layout + Render from l2 to L3 and vice versa.">
<polygon fill="white" stroke="black" points="95,-56.5 95,-75.5 247,-75.5 247,-56.5 95,-56.5"/>
<text text-anchor="middle" x="171" y="-63.5" font-family="Helvetica,sans-Serif" font-size="10.00">RenderLayoutConverter.cpp</text>
</a>
</g>
</g>
<!-- Node2&#45;&gt;Node4 -->
<g id="edge3" class="edge">
<title>Node2&#45;&gt;Node4</title>
<path fill="none" stroke="midnightblue" d="M281.97,-108.91C255.09,-98.75 217.36,-84.51 193.55,-75.52"/>
<polygon fill="midnightblue" stroke="midnightblue" points="280.75,-112.19 291.34,-112.44 283.22,-105.64 280.75,-112.19"/>
</g>
<!-- Node5 -->
<g id="node5" class="node">
<title>Node5</title>
<g id="a_node5"><a xlink:href="_render_utilities_8cpp.html" target="_top" xlink:title="implementation of RenderUtilities, a class of utility functions for the render package">
<polygon fill="white" stroke="black" points="338,-0.5 338,-19.5 448,-19.5 448,-0.5 338,-0.5"/>
<text text-anchor="middle" x="393" y="-7.5" font-family="Helvetica,sans-Serif" font-size="10.00">RenderUtilities.cpp</text>
</a>
</g>
</g>
<!-- Node2&#45;&gt;Node5 -->
<g id="edge4" class="edge">
<title>Node2&#45;&gt;Node5</title>
<path fill="none" stroke="midnightblue" d="M338.18,-107.06C349.85,-99.25 363.19,-88.55 372,-76 384.39,-58.33 389.78,-32.93 391.86,-19.72"/>
<polygon fill="midnightblue" stroke="midnightblue" points="336.26,-104.14 329.69,-112.45 340.01,-110.05 336.26,-104.14"/>
</g>
<!-- Node6 -->
<g id="node6" class="node">
<title>Node6</title>
<g id="a_node6"><a xlink:href="_render_utilities_8h.html" target="_top" xlink:title="Definition of RenderUtilities, a class of utility functions for the render package.">
<polygon fill="white" stroke="black" points="265,-56.5 265,-75.5 363,-75.5 363,-56.5 265,-56.5"/>
<text text-anchor="middle" x="314" y="-63.5" font-family="Helvetica,sans-Serif" font-size="10.00">RenderUtilities.h</text>
</a>
</g>
</g>
<!-- Node2&#45;&gt;Node6 -->
<g id="edge5" class="edge">
<title>Node2&#45;&gt;Node6</title>
<path fill="none" stroke="midnightblue" d="M314,-101.8C314,-92.91 314,-82.78 314,-75.75"/>
<polygon fill="midnightblue" stroke="midnightblue" points="310.5,-102.08 314,-112.08 317.5,-102.08 310.5,-102.08"/>
</g>
<!-- Node8 -->
<g id="node8" class="node">
<title>Node8</title>
<g id="a_node8"><a xlink:href="_render_validator_8cpp.html" target="_top" xlink:title="Definition of RenderValidator.">
<polygon fill="white" stroke="black" points="419,-56.5 419,-75.5 533,-75.5 533,-56.5 419,-56.5"/>
<text text-anchor="middle" x="476" y="-63.5" font-family="Helvetica,sans-Serif" font-size="10.00">RenderValidator.cpp</text>
</a>
</g>
</g>
<!-- Node2&#45;&gt;Node8 -->
<g id="edge9" class="edge">
<title>Node2&#45;&gt;Node8</title>
<path fill="none" stroke="midnightblue" d="M349.48,-109.17C379.99,-99 423.24,-84.59 450.45,-75.52"/>
<polygon fill="midnightblue" stroke="midnightblue" points="348.05,-105.96 339.67,-112.44 350.26,-112.6 348.05,-105.96"/>
</g>
<!-- Node6&#45;&gt;Node3 -->
<g id="edge6" class="edge">
<title>Node6&#45;&gt;Node3</title>
<path fill="none" stroke="midnightblue" d="M264.97,-54.28C218.3,-44.08 148.97,-28.92 105.95,-19.52"/>
<polygon fill="midnightblue" stroke="midnightblue" points="264.35,-57.73 274.86,-56.44 265.84,-50.89 264.35,-57.73"/>
</g>
<!-- Node6&#45;&gt;Node5 -->
<g id="edge8" class="edge">
<title>Node6&#45;&gt;Node5</title>
<path fill="none" stroke="midnightblue" d="M335.03,-50.62C349.47,-40.76 368.14,-27.99 380.34,-19.65"/>
<polygon fill="midnightblue" stroke="midnightblue" points="332.97,-47.79 326.69,-56.32 336.92,-53.57 332.97,-47.79"/>
</g>
<!-- Node7 -->
<g id="node7" class="node">
<title>Node7</title>
<g id="a_node7"><a xlink:href="_render_list_of_layouts_plugin_8cpp.html" target="_top" xlink:title="Implementation of RenderListOfLayoutsPlugin, the plugin class of the fbc package for the Model elemen...">
<polygon fill="white" stroke="black" points="152,-0.5 152,-19.5 320,-19.5 320,-0.5 152,-0.5"/>
<text text-anchor="middle" x="236" y="-7.5" font-family="Helvetica,sans-Serif" font-size="10.00">RenderListOfLayoutsPlugin.cpp</text>
</a>
</g>
</g>
<!-- Node6&#45;&gt;Node7 -->
<g id="edge7" class="edge">
<title>Node6&#45;&gt;Node7</title>
<path fill="none" stroke="midnightblue" d="M293.23,-50.62C278.98,-40.76 260.54,-27.99 248.5,-19.65"/>
<polygon fill="midnightblue" stroke="midnightblue" points="291.25,-53.51 301.47,-56.32 295.24,-47.75 291.25,-53.51"/>
</g>
</g>
</svg>
        <g id="navigator" transform="translate(0 0)" fill="#404254">
                <rect fill="#f2f5e9" fill-opacity="0.5" stroke="#606060" stroke-width=".5" x="0" y="0" width="60" height="60"/>
                <use id="zoomplus" xlink:href="#zoomPlus" x="17" y="9" onmousedown="handleZoom(evt,'in')"/>
                <use id="zoomminus" xlink:href="#zoomMin" x="42" y="9" onmousedown="handleZoom(evt,'out')"/>
                <use id="reset" xlink:href="#resetDef" x="30" y="36" onmousedown="handleReset()"/>
                <g id="arrowUp" xlink:href="#dirArrow" transform="translate(30 24)" onmousedown="handlePan(0,-1)">
                  <use xlink:href="#rim" fill="#404040">
                        <set attributeName="fill" to="#808080" begin="arrowUp.mouseover" end="arrowUp.mouseout"/>
                  </use>
                  <path fill="none" stroke="white" stroke-width="1.5" d="M0,-3.0v7 M-2.5,-0.5L0,-3.0L2.5,-0.5"/>
                </g>
                <g id="arrowRight" xlink:href="#dirArrow" transform="rotate(90) translate(36 -43)" onmousedown="handlePan(1,0)">
                  <use xlink:href="#rim" fill="#404040">
                        <set attributeName="fill" to="#808080" begin="arrowRight.mouseover" end="arrowRight.mouseout"/>
                  </use>
                  <path fill="none" stroke="white" stroke-width="1.5" d="M0,-3.0v7 M-2.5,-0.5L0,-3.0L2.5,-0.5"/>
                </g>
                <g id="arrowDown" xlink:href="#dirArrow" transform="rotate(180) translate(-30 -48)" onmousedown="handlePan(0,1)">
                  <use xlink:href="#rim" fill="#404040">
                        <set attributeName="fill" to="#808080" begin="arrowDown.mouseover" end="arrowDown.mouseout"/>
                  </use>
                  <path fill="none" stroke="white" stroke-width="1.5" d="M0,-3.0v7 M-2.5,-0.5L0,-3.0L2.5,-0.5"/>
                </g>
                <g id="arrowLeft" xlink:href="#dirArrow" transform="rotate(270) translate(-36 17)" onmousedown="handlePan(-1,0)">
                  <use xlink:href="#rim" fill="#404040">
                        <set attributeName="fill" to="#808080" begin="arrowLeft.mouseover" end="arrowLeft.mouseout"/>
                  </use>
                  <path fill="none" stroke="white" stroke-width="1.5" d="M0,-3.0v7 M-2.5,-0.5L0,-3.0L2.5,-0.5"/>
                </g>
        </g>
        <svg viewBox="0 0 15 15" width="100%" height="30px" preserveAspectRatio="xMaxYMin meet">
         <g id="arrow_out" transform="scale(0.3 0.3)">
          <a xlink:href="_ellipse_8h__dep__incl_org.svg" target="_base">
           <rect id="button" ry="5" rx="5" y="6" x="6" height="38" width="38"
                fill="#f2f5e9" fill-opacity="0.5" stroke="#606060" stroke-width="1.0"/>
           <path id="arrow"
             d="M 11.500037,31.436501 C 11.940474,20.09759 22.043105,11.32322 32.158766,21.979434 L 37.068811,17.246167 C 37.068811,17.246167 37.088388,32 37.088388,32 L 22.160133,31.978069 C 22.160133,31.978069 26.997745,27.140456 26.997745,27.140456 C 18.528582,18.264221 13.291696,25.230495 11.500037,31.436501 z"
             style="fill:#404040;"/>
          </a>
         </g>
        </svg>
</svg>
