<?xml version="1.0" encoding="UTF-8" standalone="no"?>
<!DOCTYPE svg PUBLIC "-//W3C//DTD SVG 1.1//EN"
 "http://www.w3.org/Graphics/SVG/1.1/DTD/svg11.dtd">
<!-- Generated by graphviz version 2.43.0 (0)
 -->
<!-- Title: FbcAssociation.h Pages: 1 -->
<!--zoomable 252 -->
<svg id="main" version="1.1" xmlns="http://www.w3.org/2000/svg" xmlns:xlink="http://www.w3.org/1999/xlink" xml:space="preserve" onload="init(evt)">
<style type="text/css"><![CDATA[
.edge:hover path { stroke: red; }
.edge:hover polygon { stroke: red; fill: red; }
]]></style>
<script type="text/javascript"><![CDATA[
var edges = document.getElementsByTagName('g');
if (edges && edges.length) {
  for (var i=0;i<edges.length;i++) {
    if (edges[i].id.substr(0,4)=='edge') {
      edges[i].setAttribute('class','edge');
    }
  }
}
]]></script>
        <defs>
                <circle id="rim" cx="0" cy="0" r="7"/>
                <circle id="rim2" cx="0" cy="0" r="3.5"/>
                <g id="zoomPlus">
                        <use xlink:href="#rim" fill="#404040">
                                <set attributeName="fill" to="#808080" begin="zoomplus.mouseover" end="zoomplus.mouseout"/>
                        </use>
                        <path d="M-4,0h8M0,-4v8" fill="none" stroke="white" stroke-width="1.5" pointer-events="none"/>
                </g>
                <g id="zoomMin">
                        <use xlink:href="#rim" fill="#404040">
                                <set attributeName="fill" to="#808080" begin="zoomminus.mouseover" end="zoomminus.mouseout"/>
                        </use>
                        <path d="M-4,0h8" fill="none" stroke="white" stroke-width="1.5" pointer-events="none"/>
                </g>
                <g id="dirArrow">
                        <path fill="none" stroke="white" stroke-width="1.5" d="M0,-3.0v7 M-2.5,-0.5L0,-3.0L2.5,-0.5"/>
                </g>
               <g id="resetDef">
                       <use xlink:href="#rim2" fill="#404040">
                               <set attributeName="fill" to="#808080" begin="reset.mouseover" end="reset.mouseout"/>
                       </use>
               </g>
        </defs>

<script type="text/javascript">
var viewWidth = 1140;
var viewHeight = 252;
var sectionId = 'dynsection-1';
</script>
<script xlink:href="svgpan.js"/>
<svg id="graph" class="graph">
<g id="viewport">
<title>FbcAssociation.h</title>
<polygon fill="white" stroke="transparent" points="-4,4 -4,-248 1136.02,-248 1136.02,4 -4,4"/>
<!-- Node1 -->
<g id="node1" class="node">
<title>Node1</title>
<g id="a_node1"><a xlink:title="Implementation of the FbcAssociation class.">
<polygon fill="#bfbfbf" stroke="black" points="494.02,-224.5 494.02,-243.5 593.02,-243.5 593.02,-224.5 494.02,-224.5"/>
<text text-anchor="middle" x="543.52" y="-231.5" font-family="Helvetica,sans-Serif" font-size="10.00">FbcAssociation.h</text>
</a>
</g>
</g>
<!-- Node2 -->
<g id="node2" class="node">
<title>Node2</title>
<g id="a_node2"><a xlink:href="_fbc_extension_types_8h.html" target="_top" xlink:title="Includes all SBML types of the fbc package extension in a single header file.">
<polygon fill="white" stroke="black" points="734.02,-56.5 734.02,-75.5 853.02,-75.5 853.02,-56.5 734.02,-56.5"/>
<text text-anchor="middle" x="793.52" y="-63.5" font-family="Helvetica,sans-Serif" font-size="10.00">FbcExtensionTypes.h</text>
</a>
</g>
</g>
<!-- Node1&#45;&gt;Node2 -->
<g id="edge1" class="edge">
<title>Node1&#45;&gt;Node2</title>
<path fill="none" stroke="midnightblue" d="M603.13,-225.22C659.55,-214.5 741.91,-189.49 785.52,-132 798.16,-115.33 796.76,-89.05 794.97,-75.58"/>
<polygon fill="midnightblue" stroke="midnightblue" points="602.48,-221.78 593.26,-227 603.72,-228.67 602.48,-221.78"/>
</g>
<!-- Node8 -->
<g id="node8" class="node">
<title>Node8</title>
<g id="a_node8"><a xlink:href="_fbc_and_8h.html" target="_top" xlink:title="Implementation of the FbcAnd class.">
<polygon fill="white" stroke="black" points="512.52,-168.5 512.52,-187.5 574.52,-187.5 574.52,-168.5 512.52,-168.5"/>
<text text-anchor="middle" x="543.52" y="-175.5" font-family="Helvetica,sans-Serif" font-size="10.00">FbcAnd.h</text>
</a>
</g>
</g>
<!-- Node1&#45;&gt;Node8 -->
<g id="edge7" class="edge">
<title>Node1&#45;&gt;Node8</title>
<path fill="none" stroke="midnightblue" d="M543.52,-213.8C543.52,-204.91 543.52,-194.78 543.52,-187.75"/>
<polygon fill="midnightblue" stroke="midnightblue" points="540.02,-214.08 543.52,-224.08 547.02,-214.08 540.02,-214.08"/>
</g>
<!-- Node11 -->
<g id="node11" class="node">
<title>Node11</title>
<g id="a_node11"><a xlink:href="_fbc_association_8cpp.html" target="_top" xlink:title="Implementation of the FbcAssociation class.">
<polygon fill="white" stroke="black" points="147.52,-112.5 147.52,-131.5 257.52,-131.5 257.52,-112.5 147.52,-112.5"/>
<text text-anchor="middle" x="202.52" y="-119.5" font-family="Helvetica,sans-Serif" font-size="10.00">FbcAssociation.cpp</text>
</a>
</g>
</g>
<!-- Node1&#45;&gt;Node11 -->
<g id="edge14" class="edge">
<title>Node1&#45;&gt;Node11</title>
<path fill="none" stroke="midnightblue" d="M483.78,-231.12C429.42,-227.48 348.05,-217.11 283.52,-188 252.95,-174.21 224.04,-146.14 210.52,-131.83"/>
<polygon fill="midnightblue" stroke="midnightblue" points="483.74,-234.62 493.94,-231.74 484.17,-227.63 483.74,-234.62"/>
</g>
<!-- Node13 -->
<g id="node13" class="node">
<title>Node13</title>
<g id="a_node13"><a xlink:href="_gene_product_association_8cpp.html" target="_top" xlink:title="Implementation of the GeneProductAssociation class.">
<polygon fill="white" stroke="black" points="600.02,-112.5 600.02,-131.5 755.02,-131.5 755.02,-112.5 600.02,-112.5"/>
<text text-anchor="middle" x="677.52" y="-119.5" font-family="Helvetica,sans-Serif" font-size="10.00">GeneProductAssociation.cpp</text>
</a>
</g>
</g>
<!-- Node1&#45;&gt;Node13 -->
<g id="edge22" class="edge">
<title>Node1&#45;&gt;Node13</title>
<path fill="none" stroke="midnightblue" d="M562.01,-217.82C590.55,-194.39 644.39,-150.19 667.05,-131.59"/>
<polygon fill="midnightblue" stroke="midnightblue" points="559.54,-215.32 554.03,-224.37 563.98,-220.73 559.54,-215.32"/>
</g>
<!-- Node14 -->
<g id="node14" class="node">
<title>Node14</title>
<g id="a_node14"><a xlink:href="_fbc_or_8h.html" target="_top" xlink:title="Implementation of the FbcOr class.">
<polygon fill="white" stroke="black" points="436.02,-168.5 436.02,-187.5 489.02,-187.5 489.02,-168.5 436.02,-168.5"/>
<text text-anchor="middle" x="462.52" y="-175.5" font-family="Helvetica,sans-Serif" font-size="10.00">FbcOr.h</text>
</a>
</g>
</g>
<!-- Node1&#45;&gt;Node14 -->
<g id="edge15" class="edge">
<title>Node1&#45;&gt;Node14</title>
<path fill="none" stroke="midnightblue" d="M521.95,-218.62C507.15,-208.76 488,-195.99 475.5,-187.65"/>
<polygon fill="midnightblue" stroke="midnightblue" points="520.24,-221.69 530.5,-224.32 524.12,-215.86 520.24,-221.69"/>
</g>
<!-- Node15 -->
<g id="node15" class="node">
<title>Node15</title>
<g id="a_node15"><a xlink:href="_gene_product_association_8h.html" target="_top" xlink:title="Implementation of the GeneProductAssociation class.">
<polygon fill="white" stroke="black" points="849.52,-168.5 849.52,-187.5 993.52,-187.5 993.52,-168.5 849.52,-168.5"/>
<text text-anchor="middle" x="921.52" y="-175.5" font-family="Helvetica,sans-Serif" font-size="10.00">GeneProductAssociation.h</text>
</a>
</g>
</g>
<!-- Node1&#45;&gt;Node15 -->
<g id="edge23" class="edge">
<title>Node1&#45;&gt;Node15</title>
<path fill="none" stroke="midnightblue" d="M603.42,-224.44C674.21,-214.33 791.29,-197.6 861.94,-187.51"/>
<polygon fill="midnightblue" stroke="midnightblue" points="602.73,-221.01 593.32,-225.88 603.72,-227.94 602.73,-221.01"/>
</g>
<!-- Node19 -->
<g id="node19" class="node">
<title>Node19</title>
<g id="a_node19"><a xlink:href="_gene_product_ref_8h.html" target="_top" xlink:title="Implementation of the GeneProductRef class.">
<polygon fill="white" stroke="black" points="292.52,-168.5 292.52,-187.5 396.52,-187.5 396.52,-168.5 292.52,-168.5"/>
<text text-anchor="middle" x="344.52" y="-175.5" font-family="Helvetica,sans-Serif" font-size="10.00">GeneProductRef.h</text>
</a>
</g>
</g>
<!-- Node1&#45;&gt;Node19 -->
<g id="edge30" class="edge">
<title>Node1&#45;&gt;Node19</title>
<path fill="none" stroke="midnightblue" d="M501.87,-221.7C464.31,-211.51 409.9,-196.74 375.9,-187.52"/>
<polygon fill="midnightblue" stroke="midnightblue" points="501.42,-225.2 511.98,-224.44 503.25,-218.45 501.42,-225.2"/>
</g>
<!-- Node3 -->
<g id="node3" class="node">
<title>Node3</title>
<g id="a_node3"><a xlink:href="_cobra_to_fbc_converter_8cpp.html" target="_top" xlink:title="Implementation of a cobra 2 fbc converter.">
<polygon fill="white" stroke="black" points="408.52,-0.5 408.52,-19.5 548.52,-19.5 548.52,-0.5 408.52,-0.5"/>
<text text-anchor="middle" x="478.52" y="-7.5" font-family="Helvetica,sans-Serif" font-size="10.00">CobraToFbcConverter.cpp</text>
</a>
</g>
</g>
<!-- Node2&#45;&gt;Node3 -->
<g id="edge2" class="edge">
<title>Node2&#45;&gt;Node3</title>
<path fill="none" stroke="midnightblue" d="M733.59,-54.73C674.07,-44.52 583.86,-29.06 528.2,-19.52"/>
<polygon fill="midnightblue" stroke="midnightblue" points="733.16,-58.2 743.6,-56.44 734.34,-51.3 733.16,-58.2"/>
</g>
<!-- Node4 -->
<g id="node4" class="node">
<title>Node4</title>
<g id="a_node4"><a xlink:href="_fbc_to_cobra_converter_8cpp.html" target="_top" xlink:title="Implementation of a fbc 2 cobra converter.">
<polygon fill="white" stroke="black" points="566.52,-0.5 566.52,-19.5 706.52,-19.5 706.52,-0.5 566.52,-0.5"/>
<text text-anchor="middle" x="636.52" y="-7.5" font-family="Helvetica,sans-Serif" font-size="10.00">FbcToCobraConverter.cpp</text>
</a>
</g>
</g>
<!-- Node2&#45;&gt;Node4 -->
<g id="edge3" class="edge">
<title>Node2&#45;&gt;Node4</title>
<path fill="none" stroke="midnightblue" d="M759.13,-53.17C729.56,-43 687.64,-28.59 661.28,-19.52"/>
<polygon fill="midnightblue" stroke="midnightblue" points="758.04,-56.5 768.64,-56.44 760.32,-49.88 758.04,-56.5"/>
</g>
<!-- Node5 -->
<g id="node5" class="node">
<title>Node5</title>
<g id="a_node5"><a xlink:href="_fbc_v1_to_v2_converter_8cpp.html" target="_top" xlink:title="Implementation of a fbc v1 to fbc v2 converter.">
<polygon fill="white" stroke="black" points="725.02,-0.5 725.02,-19.5 862.02,-19.5 862.02,-0.5 725.02,-0.5"/>
<text text-anchor="middle" x="793.52" y="-7.5" font-family="Helvetica,sans-Serif" font-size="10.00">FbcV1ToV2Converter.cpp</text>
</a>
</g>
</g>
<!-- Node2&#45;&gt;Node5 -->
<g id="edge4" class="edge">
<title>Node2&#45;&gt;Node5</title>
<path fill="none" stroke="midnightblue" d="M793.52,-45.8C793.52,-36.91 793.52,-26.78 793.52,-19.75"/>
<polygon fill="midnightblue" stroke="midnightblue" points="790.02,-46.08 793.52,-56.08 797.02,-46.08 790.02,-46.08"/>
</g>
<!-- Node6 -->
<g id="node6" class="node">
<title>Node6</title>
<g id="a_node6"><a xlink:href="_fbc_v2_to_v1_converter_8cpp.html" target="_top" xlink:title="Implementation of a fbc v2 to fbc v1 converter.">
<polygon fill="white" stroke="black" points="880.02,-0.5 880.02,-19.5 1017.02,-19.5 1017.02,-0.5 880.02,-0.5"/>
<text text-anchor="middle" x="948.52" y="-7.5" font-family="Helvetica,sans-Serif" font-size="10.00">FbcV2ToV1Converter.cpp</text>
</a>
</g>
</g>
<!-- Node2&#45;&gt;Node6 -->
<g id="edge5" class="edge">
<title>Node2&#45;&gt;Node6</title>
<path fill="none" stroke="midnightblue" d="M827.85,-53.04C857.01,-42.88 898.15,-28.55 924.07,-19.52"/>
<polygon fill="midnightblue" stroke="midnightblue" points="826.37,-49.85 818.08,-56.44 828.67,-56.46 826.37,-49.85"/>
</g>
<!-- Node7 -->
<g id="node7" class="node">
<title>Node7</title>
<g id="a_node7"><a xlink:href="_fbc_validator_8cpp.html" target="_top" xlink:title="Base class for SBML Validators.">
<polygon fill="white" stroke="black" points="1035.02,-0.5 1035.02,-19.5 1132.02,-19.5 1132.02,-0.5 1035.02,-0.5"/>
<text text-anchor="middle" x="1083.52" y="-7.5" font-family="Helvetica,sans-Serif" font-size="10.00">FbcValidator.cpp</text>
</a>
</g>
</g>
<!-- Node2&#45;&gt;Node7 -->
<g id="edge6" class="edge">
<title>Node2&#45;&gt;Node7</title>
<path fill="none" stroke="midnightblue" d="M849.36,-54.6C904.17,-44.4 986.75,-29.02 1037.78,-19.52"/>
<polygon fill="midnightblue" stroke="midnightblue" points="848.66,-51.17 839.47,-56.44 849.94,-58.05 848.66,-51.17"/>
</g>
<!-- Node8&#45;&gt;Node2 -->
<g id="edge8" class="edge">
<title>Node8&#45;&gt;Node2</title>
<path fill="none" stroke="midnightblue" d="M585.19,-172.97C641.06,-166.82 736.39,-153.49 763.52,-132 781.64,-117.64 789.26,-89.84 792.08,-75.7"/>
<polygon fill="midnightblue" stroke="midnightblue" points="584.47,-169.52 574.9,-174.07 585.22,-176.48 584.47,-169.52"/>
</g>
<!-- Node9 -->
<g id="node9" class="node">
<title>Node9</title>
<g id="a_node9"><a xlink:href="_association_8cpp.html" target="_top" xlink:title="Implementation of Association, the contents of a GeneAssociation.">
<polygon fill="white" stroke="black" points="276.02,-112.5 276.02,-131.5 369.02,-131.5 369.02,-112.5 276.02,-112.5"/>
<text text-anchor="middle" x="322.52" y="-119.5" font-family="Helvetica,sans-Serif" font-size="10.00">Association.cpp</text>
</a>
</g>
</g>
<!-- Node8&#45;&gt;Node9 -->
<g id="edge9" class="edge">
<title>Node8&#45;&gt;Node9</title>
<path fill="none" stroke="midnightblue" d="M502.49,-166.98C460.81,-156.79 396.95,-141.19 357.56,-131.56"/>
<polygon fill="midnightblue" stroke="midnightblue" points="501.78,-170.4 512.32,-169.38 503.44,-163.6 501.78,-170.4"/>
</g>
<!-- Node10 -->
<g id="node10" class="node">
<title>Node10</title>
<g id="a_node10"><a xlink:href="_fbc_and_8cpp.html" target="_top" xlink:title="Implementation of the FbcAnd class.">
<polygon fill="white" stroke="black" points="426.02,-112.5 426.02,-131.5 499.02,-131.5 499.02,-112.5 426.02,-112.5"/>
<text text-anchor="middle" x="462.52" y="-119.5" font-family="Helvetica,sans-Serif" font-size="10.00">FbcAnd.cpp</text>
</a>
</g>
</g>
<!-- Node8&#45;&gt;Node10 -->
<g id="edge10" class="edge">
<title>Node8&#45;&gt;Node10</title>
<path fill="none" stroke="midnightblue" d="M521.95,-162.62C507.15,-152.76 488,-139.99 475.5,-131.65"/>
<polygon fill="midnightblue" stroke="midnightblue" points="520.24,-165.69 530.5,-168.32 524.12,-159.86 520.24,-165.69"/>
</g>
<!-- Node8&#45;&gt;Node11 -->
<g id="edge11" class="edge">
<title>Node8&#45;&gt;Node11</title>
<path fill="none" stroke="midnightblue" d="M502.09,-168.81C500.55,-168.53 499.02,-168.26 497.52,-168 452.6,-160.18 330.01,-141.85 257.78,-131.15"/>
<polygon fill="midnightblue" stroke="midnightblue" points="501.9,-172.34 512.37,-170.72 503.18,-165.45 501.9,-172.34"/>
</g>
<!-- Node12 -->
<g id="node12" class="node">
<title>Node12</title>
<g id="a_node12"><a xlink:href="_fbc_or_8cpp.html" target="_top" xlink:title="Implementation of the FbcOr class.">
<polygon fill="white" stroke="black" points="517.02,-112.5 517.02,-131.5 582.02,-131.5 582.02,-112.5 517.02,-112.5"/>
<text text-anchor="middle" x="549.52" y="-119.5" font-family="Helvetica,sans-Serif" font-size="10.00">FbcOr.cpp</text>
</a>
</g>
</g>
<!-- Node8&#45;&gt;Node12 -->
<g id="edge12" class="edge">
<title>Node8&#45;&gt;Node12</title>
<path fill="none" stroke="midnightblue" d="M545.62,-158.1C546.61,-149.14 547.75,-138.86 548.54,-131.75"/>
<polygon fill="midnightblue" stroke="midnightblue" points="542.13,-157.76 544.51,-168.08 549.09,-158.53 542.13,-157.76"/>
</g>
<!-- Node8&#45;&gt;Node13 -->
<g id="edge13" class="edge">
<title>Node8&#45;&gt;Node13</title>
<path fill="none" stroke="midnightblue" d="M574.19,-164.64C599.34,-154.5 634.27,-140.43 656.38,-131.52"/>
<polygon fill="midnightblue" stroke="midnightblue" points="572.72,-161.46 564.75,-168.44 575.33,-167.95 572.72,-161.46"/>
</g>
<!-- Node14&#45;&gt;Node2 -->
<g id="edge16" class="edge">
<title>Node14&#45;&gt;Node2</title>
<path fill="none" stroke="midnightblue" d="M440.23,-162.26C422.3,-148.62 402.24,-128.08 416.52,-112 437.19,-88.71 632.83,-75.28 733.81,-69.85"/>
<polygon fill="midnightblue" stroke="midnightblue" points="438.55,-165.36 448.71,-168.35 442.63,-159.67 438.55,-165.36"/>
</g>
<!-- Node14&#45;&gt;Node9 -->
<g id="edge17" class="edge">
<title>Node14&#45;&gt;Node9</title>
<path fill="none" stroke="midnightblue" d="M430.81,-164.77C404.52,-154.63 367.8,-140.47 344.6,-131.52"/>
<polygon fill="midnightblue" stroke="midnightblue" points="429.74,-168.11 440.33,-168.44 432.26,-161.58 429.74,-168.11"/>
</g>
<!-- Node14&#45;&gt;Node10 -->
<g id="edge18" class="edge">
<title>Node14&#45;&gt;Node10</title>
<path fill="none" stroke="midnightblue" d="M462.52,-157.8C462.52,-148.91 462.52,-138.78 462.52,-131.75"/>
<polygon fill="midnightblue" stroke="midnightblue" points="459.02,-158.08 462.52,-168.08 466.02,-158.08 459.02,-158.08"/>
</g>
<!-- Node14&#45;&gt;Node11 -->
<g id="edge19" class="edge">
<title>Node14&#45;&gt;Node11</title>
<path fill="none" stroke="midnightblue" d="M425.7,-169.35C377.64,-159.37 293.78,-141.95 243.67,-131.55"/>
<polygon fill="midnightblue" stroke="midnightblue" points="425.17,-172.82 435.67,-171.42 426.59,-165.96 425.17,-172.82"/>
</g>
<!-- Node14&#45;&gt;Node12 -->
<g id="edge20" class="edge">
<title>Node14&#45;&gt;Node12</title>
<path fill="none" stroke="midnightblue" d="M485.23,-162.9C501.19,-153 522.01,-140.07 535.57,-131.65"/>
<polygon fill="midnightblue" stroke="midnightblue" points="483.15,-160.08 476.49,-168.32 486.84,-166.02 483.15,-160.08"/>
</g>
<!-- Node14&#45;&gt;Node13 -->
<g id="edge21" class="edge">
<title>Node14&#45;&gt;Node13</title>
<path fill="none" stroke="midnightblue" d="M499.05,-167.82C539.53,-157.66 604.27,-141.4 643.65,-131.51"/>
<polygon fill="midnightblue" stroke="midnightblue" points="498.16,-164.44 489.31,-170.27 499.86,-171.23 498.16,-164.44"/>
</g>
<!-- Node15&#45;&gt;Node2 -->
<g id="edge24" class="edge">
<title>Node15&#45;&gt;Node2</title>
<path fill="none" stroke="midnightblue" d="M903.85,-161.82C876.59,-138.39 825.16,-94.19 803.51,-75.59"/>
<polygon fill="midnightblue" stroke="midnightblue" points="901.61,-164.51 911.47,-168.37 906.17,-159.2 901.61,-164.51"/>
</g>
<!-- Node15&#45;&gt;Node13 -->
<g id="edge29" class="edge">
<title>Node15&#45;&gt;Node13</title>
<path fill="none" stroke="midnightblue" d="M873.08,-166.28C826.98,-156.08 758.49,-140.92 716,-131.52"/>
<polygon fill="midnightblue" stroke="midnightblue" points="872.33,-169.7 882.85,-168.44 873.85,-162.87 872.33,-169.7"/>
</g>
<!-- Node16 -->
<g id="node16" class="node">
<title>Node16</title>
<g id="a_node16"><a xlink:href="_fbc_reaction_plugin_8h.html" target="_top" xlink:title="Implementation of the FbcReactionPlugin class.">
<polygon fill="white" stroke="black" points="887.52,-112.5 887.52,-131.5 1003.52,-131.5 1003.52,-112.5 887.52,-112.5"/>
<text text-anchor="middle" x="945.52" y="-119.5" font-family="Helvetica,sans-Serif" font-size="10.00">FbcReactionPlugin.h</text>
</a>
</g>
</g>
<!-- Node15&#45;&gt;Node16 -->
<g id="edge25" class="edge">
<title>Node15&#45;&gt;Node16</title>
<path fill="none" stroke="midnightblue" d="M929.65,-158.69C933.7,-149.59 938.4,-139.01 941.63,-131.75"/>
<polygon fill="midnightblue" stroke="midnightblue" points="926.34,-157.52 925.48,-168.08 932.74,-160.37 926.34,-157.52"/>
</g>
<!-- Node16&#45;&gt;Node2 -->
<g id="edge26" class="edge">
<title>Node16&#45;&gt;Node2</title>
<path fill="none" stroke="midnightblue" d="M911.85,-109.04C883.25,-98.88 842.9,-84.55 817.49,-75.52"/>
<polygon fill="midnightblue" stroke="midnightblue" points="910.84,-112.39 921.43,-112.44 913.18,-105.8 910.84,-112.39"/>
</g>
<!-- Node17 -->
<g id="node17" class="node">
<title>Node17</title>
<g id="a_node17"><a xlink:href="_fbc_extension_8cpp.html" target="_top" xlink:title="Implementation of FbcExtension, the core module of fbc package.">
<polygon fill="white" stroke="black" points="1021.52,-56.5 1021.52,-75.5 1123.52,-75.5 1123.52,-56.5 1021.52,-56.5"/>
<text text-anchor="middle" x="1072.52" y="-63.5" font-family="Helvetica,sans-Serif" font-size="10.00">FbcExtension.cpp</text>
</a>
</g>
</g>
<!-- Node16&#45;&gt;Node17 -->
<g id="edge27" class="edge">
<title>Node16&#45;&gt;Node17</title>
<path fill="none" stroke="midnightblue" d="M974.91,-108.5C998.72,-98.38 1031.62,-84.39 1052.49,-75.52"/>
<polygon fill="midnightblue" stroke="midnightblue" points="973.47,-105.31 965.64,-112.44 976.21,-111.75 973.47,-105.31"/>
</g>
<!-- Node18 -->
<g id="node18" class="node">
<title>Node18</title>
<g id="a_node18"><a xlink:href="_fbc_reaction_plugin_8cpp.html" target="_top" xlink:title="Implementation of the FbcReactionPlugin class.">
<polygon fill="white" stroke="black" points="876.02,-56.5 876.02,-75.5 1003.02,-75.5 1003.02,-56.5 876.02,-56.5"/>
<text text-anchor="middle" x="939.52" y="-63.5" font-family="Helvetica,sans-Serif" font-size="10.00">FbcReactionPlugin.cpp</text>
</a>
</g>
</g>
<!-- Node16&#45;&gt;Node18 -->
<g id="edge28" class="edge">
<title>Node16&#45;&gt;Node18</title>
<path fill="none" stroke="midnightblue" d="M943.42,-102.1C942.42,-93.14 941.28,-82.86 940.49,-75.75"/>
<polygon fill="midnightblue" stroke="midnightblue" points="939.94,-102.53 944.53,-112.08 946.9,-101.76 939.94,-102.53"/>
</g>
<!-- Node19&#45;&gt;Node2 -->
<g id="edge31" class="edge">
<title>Node19&#45;&gt;Node2</title>
<path fill="none" stroke="midnightblue" d="M282.3,-173.15C189.18,-166.74 22.51,-152.53 4.52,-132 -1.34,-125.31 -1.59,-118.46 4.52,-112 29.48,-85.57 554.19,-72.05 733.82,-68.19"/>
<polygon fill="midnightblue" stroke="midnightblue" points="282.23,-176.65 292.45,-173.83 282.71,-169.67 282.23,-176.65"/>
</g>
<!-- Node19&#45;&gt;Node9 -->
<g id="edge32" class="edge">
<title>Node19&#45;&gt;Node9</title>
<path fill="none" stroke="midnightblue" d="M337.06,-158.69C333.35,-149.59 329.04,-139.01 326.08,-131.75"/>
<polygon fill="midnightblue" stroke="midnightblue" points="333.87,-160.14 340.88,-168.08 340.35,-157.5 333.87,-160.14"/>
</g>
<!-- Node19&#45;&gt;Node10 -->
<g id="edge33" class="edge">
<title>Node19&#45;&gt;Node10</title>
<path fill="none" stroke="midnightblue" d="M372.42,-164.23C394.49,-154.13 424.69,-140.31 443.91,-131.52"/>
<polygon fill="midnightblue" stroke="midnightblue" points="370.85,-161.1 363.21,-168.44 373.76,-167.46 370.85,-161.1"/>
</g>
<!-- Node19&#45;&gt;Node11 -->
<g id="edge34" class="edge">
<title>Node19&#45;&gt;Node11</title>
<path fill="none" stroke="midnightblue" d="M312.36,-164.77C285.69,-154.63 248.45,-140.47 224.91,-131.52"/>
<polygon fill="midnightblue" stroke="midnightblue" points="311.43,-168.16 322.02,-168.44 313.91,-161.62 311.43,-168.16"/>
</g>
<!-- Node19&#45;&gt;Node12 -->
<g id="edge35" class="edge">
<title>Node19&#45;&gt;Node12</title>
<path fill="none" stroke="midnightblue" d="M386.92,-165.83C425.63,-155.63 482.01,-140.78 517.19,-131.52"/>
<polygon fill="midnightblue" stroke="midnightblue" points="385.78,-162.51 377,-168.44 387.56,-169.28 385.78,-162.51"/>
</g>
<!-- Node19&#45;&gt;Node13 -->
<g id="edge36" class="edge">
<title>Node19&#45;&gt;Node13</title>
<path fill="none" stroke="midnightblue" d="M406.73,-166.91C469.66,-156.71 565.84,-141.11 625.03,-131.51"/>
<polygon fill="midnightblue" stroke="midnightblue" points="405.86,-163.51 396.55,-168.56 406.98,-170.42 405.86,-163.51"/>
</g>
<!-- Node20 -->
<g id="node20" class="node">
<title>Node20</title>
<g id="a_node20"><a xlink:href="_gene_product_ref_8cpp.html" target="_top" xlink:title="Implementation of the GeneProductRef class.">
<polygon fill="white" stroke="black" points="14.02,-112.5 14.02,-131.5 129.02,-131.5 129.02,-112.5 14.02,-112.5"/>
<text text-anchor="middle" x="71.52" y="-119.5" font-family="Helvetica,sans-Serif" font-size="10.00">GeneProductRef.cpp</text>
</a>
</g>
</g>
<!-- Node19&#45;&gt;Node20 -->
<g id="edge37" class="edge">
<title>Node19&#45;&gt;Node20</title>
<path fill="none" stroke="midnightblue" d="M291.3,-166.47C239.7,-156.27 162.41,-140.98 114.57,-131.52"/>
<polygon fill="midnightblue" stroke="midnightblue" points="290.77,-169.94 301.26,-168.44 292.13,-163.07 290.77,-169.94"/>
</g>
</g>
</svg>
        <g id="navigator" transform="translate(0 0)" fill="#404254">
                <rect fill="#f2f5e9" fill-opacity="0.5" stroke="#606060" stroke-width=".5" x="0" y="0" width="60" height="60"/>
                <use id="zoomplus" xlink:href="#zoomPlus" x="17" y="9" onmousedown="handleZoom(evt,'in')"/>
                <use id="zoomminus" xlink:href="#zoomMin" x="42" y="9" onmousedown="handleZoom(evt,'out')"/>
                <use id="reset" xlink:href="#resetDef" x="30" y="36" onmousedown="handleReset()"/>
                <g id="arrowUp" xlink:href="#dirArrow" transform="translate(30 24)" onmousedown="handlePan(0,-1)">
                  <use xlink:href="#rim" fill="#404040">
                        <set attributeName="fill" to="#808080" begin="arrowUp.mouseover" end="arrowUp.mouseout"/>
                  </use>
                  <path fill="none" stroke="white" stroke-width="1.5" d="M0,-3.0v7 M-2.5,-0.5L0,-3.0L2.5,-0.5"/>
                </g>
                <g id="arrowRight" xlink:href="#dirArrow" transform="rotate(90) translate(36 -43)" onmousedown="handlePan(1,0)">
                  <use xlink:href="#rim" fill="#404040">
                        <set attributeName="fill" to="#808080" begin="arrowRight.mouseover" end="arrowRight.mouseout"/>
                  </use>
                  <path fill="none" stroke="white" stroke-width="1.5" d="M0,-3.0v7 M-2.5,-0.5L0,-3.0L2.5,-0.5"/>
                </g>
                <g id="arrowDown" xlink:href="#dirArrow" transform="rotate(180) translate(-30 -48)" onmousedown="handlePan(0,1)">
                  <use xlink:href="#rim" fill="#404040">
                        <set attributeName="fill" to="#808080" begin="arrowDown.mouseover" end="arrowDown.mouseout"/>
                  </use>
                  <path fill="none" stroke="white" stroke-width="1.5" d="M0,-3.0v7 M-2.5,-0.5L0,-3.0L2.5,-0.5"/>
                </g>
                <g id="arrowLeft" xlink:href="#dirArrow" transform="rotate(270) translate(-36 17)" onmousedown="handlePan(-1,0)">
                  <use xlink:href="#rim" fill="#404040">
                        <set attributeName="fill" to="#808080" begin="arrowLeft.mouseover" end="arrowLeft.mouseout"/>
                  </use>
                  <path fill="none" stroke="white" stroke-width="1.5" d="M0,-3.0v7 M-2.5,-0.5L0,-3.0L2.5,-0.5"/>
                </g>
        </g>
        <svg viewBox="0 0 15 15" width="100%" height="30px" preserveAspectRatio="xMaxYMin meet">
         <g id="arrow_out" transform="scale(0.3 0.3)">
          <a xlink:href="_fbc_association_8h__dep__incl_org.svg" target="_base">
           <rect id="button" ry="5" rx="5" y="6" x="6" height="38" width="38"
                fill="#f2f5e9" fill-opacity="0.5" stroke="#606060" stroke-width="1.0"/>
           <path id="arrow"
             d="M 11.500037,31.436501 C 11.940474,20.09759 22.043105,11.32322 32.158766,21.979434 L 37.068811,17.246167 C 37.068811,17.246167 37.088388,32 37.088388,32 L 22.160133,31.978069 C 22.160133,31.978069 26.997745,27.140456 26.997745,27.140456 C 18.528582,18.264221 13.291696,25.230495 11.500037,31.436501 z"
             style="fill:#404040;"/>
          </a>
         </g>
        </svg>
</svg>
