<?xml version="1.0" encoding="UTF-8" standalone="no"?>
<!DOCTYPE svg PUBLIC "-//W3C//DTD SVG 1.1//EN"
 "http://www.w3.org/Graphics/SVG/1.1/DTD/svg11.dtd">
<!-- Generated by graphviz version 2.43.0 (0)
 -->
<!-- Title: FbcSBasePlugin.h Pages: 1 -->
<svg width="1280pt" height="196pt"
 viewBox="0.00 0.00 1279.50 196.00" xmlns="http://www.w3.org/2000/svg" xmlns:xlink="http://www.w3.org/1999/xlink">
<g id="graph0" class="graph" transform="scale(1 1) rotate(0) translate(4 192)">
<title>FbcSBasePlugin.h</title>
<polygon fill="white" stroke="transparent" points="-4,4 -4,-192 1275.5,-192 1275.5,4 -4,4"/>
<!-- Node1 -->
<g id="node1" class="node">
<title>Node1</title>
<g id="a_node1"><a xlink:title="Definition of the FbcSBasePlugin class.">
<polygon fill="#bfbfbf" stroke="black" points="571.5,-168.5 571.5,-187.5 674.5,-187.5 674.5,-168.5 571.5,-168.5"/>
<text text-anchor="middle" x="623" y="-175.5" font-family="Helvetica,sans-Serif" font-size="10.00">FbcSBasePlugin.h</text>
</a>
</g>
</g>
<!-- Node2 -->
<g id="node2" class="node">
<title>Node2</title>
<g id="a_node2"><a xlink:href="_fbc_extension_types_8h.html" target="_top" xlink:title="Includes all SBML types of the fbc package extension in a single header file.">
<polygon fill="white" stroke="black" points="325.5,-56.5 325.5,-75.5 444.5,-75.5 444.5,-56.5 325.5,-56.5"/>
<text text-anchor="middle" x="385" y="-63.5" font-family="Helvetica,sans-Serif" font-size="10.00">FbcExtensionTypes.h</text>
</a>
</g>
</g>
<!-- Node1&#45;&gt;Node2 -->
<g id="edge1" class="edge">
<title>Node1&#45;&gt;Node2</title>
<path fill="none" stroke="midnightblue" d="M561.01,-174.06C497.83,-169.61 406.08,-158.63 384,-132 370.74,-116.02 377.06,-89.43 381.66,-75.74"/>
<polygon fill="midnightblue" stroke="midnightblue" points="561.06,-177.57 571.27,-174.74 561.53,-170.58 561.06,-177.57"/>
</g>
<!-- Node8 -->
<g id="node8" class="node">
<title>Node8</title>
<g id="a_node8"><a xlink:href="_fbc_extension_8cpp.html" target="_top" xlink:title="Implementation of FbcExtension, the core module of fbc package.">
<polygon fill="white" stroke="black" points="603,-56.5 603,-75.5 705,-75.5 705,-56.5 603,-56.5"/>
<text text-anchor="middle" x="654" y="-63.5" font-family="Helvetica,sans-Serif" font-size="10.00">FbcExtension.cpp</text>
</a>
</g>
</g>
<!-- Node1&#45;&gt;Node8 -->
<g id="edge7" class="edge">
<title>Node1&#45;&gt;Node8</title>
<path fill="none" stroke="midnightblue" d="M633.7,-159.6C638.21,-151.49 643.07,-141.54 646,-132 652,-112.43 653.52,-88.25 653.89,-75.61"/>
<polygon fill="midnightblue" stroke="midnightblue" points="630.57,-158.02 628.54,-168.42 636.61,-161.56 630.57,-158.02"/>
</g>
<!-- Node9 -->
<g id="node9" class="node">
<title>Node9</title>
<g id="a_node9"><a xlink:href="_fbc_model_plugin_8h.html" target="_top" xlink:title="Definition of FbcModelPlugin, the plugin class of fbc package for the Model element.">
<polygon fill="white" stroke="black" points="716.5,-112.5 716.5,-131.5 819.5,-131.5 819.5,-112.5 716.5,-112.5"/>
<text text-anchor="middle" x="768" y="-119.5" font-family="Helvetica,sans-Serif" font-size="10.00">FbcModelPlugin.h</text>
</a>
</g>
</g>
<!-- Node1&#45;&gt;Node9 -->
<g id="edge8" class="edge">
<title>Node1&#45;&gt;Node9</title>
<path fill="none" stroke="midnightblue" d="M655.48,-164.91C682.74,-154.75 720.99,-140.51 745.13,-131.52"/>
<polygon fill="midnightblue" stroke="midnightblue" points="654.13,-161.67 645.98,-168.44 656.57,-168.23 654.13,-161.67"/>
</g>
<!-- Node14 -->
<g id="node14" class="node">
<title>Node14</title>
<g id="a_node14"><a xlink:href="_fbc_reaction_plugin_8h.html" target="_top" xlink:title="Implementation of the FbcReactionPlugin class.">
<polygon fill="white" stroke="black" points="393,-112.5 393,-131.5 509,-131.5 509,-112.5 393,-112.5"/>
<text text-anchor="middle" x="451" y="-119.5" font-family="Helvetica,sans-Serif" font-size="10.00">FbcReactionPlugin.h</text>
</a>
</g>
</g>
<!-- Node1&#45;&gt;Node14 -->
<g id="edge15" class="edge">
<title>Node1&#45;&gt;Node14</title>
<path fill="none" stroke="midnightblue" d="M586.17,-165.44C553.74,-155.26 507.26,-140.66 478.13,-131.52"/>
<polygon fill="midnightblue" stroke="midnightblue" points="585.16,-168.79 595.75,-168.44 587.25,-162.11 585.16,-168.79"/>
</g>
<!-- Node16 -->
<g id="node16" class="node">
<title>Node16</title>
<g id="a_node16"><a xlink:href="_fbc_s_base_plugin_8cpp.html" target="_top" xlink:title="Implementation of the FbcSBasePlugin class.">
<polygon fill="white" stroke="black" points="838,-112.5 838,-131.5 952,-131.5 952,-112.5 838,-112.5"/>
<text text-anchor="middle" x="895" y="-119.5" font-family="Helvetica,sans-Serif" font-size="10.00">FbcSBasePlugin.cpp</text>
</a>
</g>
</g>
<!-- Node1&#45;&gt;Node16 -->
<g id="edge19" class="edge">
<title>Node1&#45;&gt;Node16</title>
<path fill="none" stroke="midnightblue" d="M676.02,-166.47C727.43,-156.27 804.44,-140.98 852.1,-131.52"/>
<polygon fill="midnightblue" stroke="midnightblue" points="675.23,-163.06 666.1,-168.44 676.59,-169.93 675.23,-163.06"/>
</g>
<!-- Node17 -->
<g id="node17" class="node">
<title>Node17</title>
<g id="a_node17"><a xlink:href="_fbc_species_plugin_8h.html" target="_top" xlink:title="Definition of FbcSpeciesPlugin, the plugin class of the fbc package for the Species element.">
<polygon fill="white" stroke="black" points="527,-112.5 527,-131.5 637,-131.5 637,-112.5 527,-112.5"/>
<text text-anchor="middle" x="582" y="-119.5" font-family="Helvetica,sans-Serif" font-size="10.00">FbcSpeciesPlugin.h</text>
</a>
</g>
</g>
<!-- Node1&#45;&gt;Node17 -->
<g id="edge20" class="edge">
<title>Node1&#45;&gt;Node17</title>
<path fill="none" stroke="midnightblue" d="M609.98,-159.86C602.88,-150.5 594.4,-139.33 588.64,-131.75"/>
<polygon fill="midnightblue" stroke="midnightblue" points="607.39,-162.24 616.23,-168.08 612.97,-158 607.39,-162.24"/>
</g>
<!-- Node3 -->
<g id="node3" class="node">
<title>Node3</title>
<g id="a_node3"><a xlink:href="_cobra_to_fbc_converter_8cpp.html" target="_top" xlink:title="Implementation of a cobra 2 fbc converter.">
<polygon fill="white" stroke="black" points="0,-0.5 0,-19.5 140,-19.5 140,-0.5 0,-0.5"/>
<text text-anchor="middle" x="70" y="-7.5" font-family="Helvetica,sans-Serif" font-size="10.00">CobraToFbcConverter.cpp</text>
</a>
</g>
</g>
<!-- Node2&#45;&gt;Node3 -->
<g id="edge2" class="edge">
<title>Node2&#45;&gt;Node3</title>
<path fill="none" stroke="midnightblue" d="M325.08,-54.73C265.55,-44.52 175.34,-29.06 119.68,-19.52"/>
<polygon fill="midnightblue" stroke="midnightblue" points="324.64,-58.2 335.09,-56.44 325.82,-51.3 324.64,-58.2"/>
</g>
<!-- Node4 -->
<g id="node4" class="node">
<title>Node4</title>
<g id="a_node4"><a xlink:href="_fbc_to_cobra_converter_8cpp.html" target="_top" xlink:title="Implementation of a fbc 2 cobra converter.">
<polygon fill="white" stroke="black" points="158,-0.5 158,-19.5 298,-19.5 298,-0.5 158,-0.5"/>
<text text-anchor="middle" x="228" y="-7.5" font-family="Helvetica,sans-Serif" font-size="10.00">FbcToCobraConverter.cpp</text>
</a>
</g>
</g>
<!-- Node2&#45;&gt;Node4 -->
<g id="edge3" class="edge">
<title>Node2&#45;&gt;Node4</title>
<path fill="none" stroke="midnightblue" d="M350.61,-53.17C321.05,-43 279.13,-28.59 252.76,-19.52"/>
<polygon fill="midnightblue" stroke="midnightblue" points="349.53,-56.5 360.12,-56.44 351.8,-49.88 349.53,-56.5"/>
</g>
<!-- Node5 -->
<g id="node5" class="node">
<title>Node5</title>
<g id="a_node5"><a xlink:href="_fbc_v1_to_v2_converter_8cpp.html" target="_top" xlink:title="Implementation of a fbc v1 to fbc v2 converter.">
<polygon fill="white" stroke="black" points="316.5,-0.5 316.5,-19.5 453.5,-19.5 453.5,-0.5 316.5,-0.5"/>
<text text-anchor="middle" x="385" y="-7.5" font-family="Helvetica,sans-Serif" font-size="10.00">FbcV1ToV2Converter.cpp</text>
</a>
</g>
</g>
<!-- Node2&#45;&gt;Node5 -->
<g id="edge4" class="edge">
<title>Node2&#45;&gt;Node5</title>
<path fill="none" stroke="midnightblue" d="M385,-45.8C385,-36.91 385,-26.78 385,-19.75"/>
<polygon fill="midnightblue" stroke="midnightblue" points="381.5,-46.08 385,-56.08 388.5,-46.08 381.5,-46.08"/>
</g>
<!-- Node6 -->
<g id="node6" class="node">
<title>Node6</title>
<g id="a_node6"><a xlink:href="_fbc_v2_to_v1_converter_8cpp.html" target="_top" xlink:title="Implementation of a fbc v2 to fbc v1 converter.">
<polygon fill="white" stroke="black" points="471.5,-0.5 471.5,-19.5 608.5,-19.5 608.5,-0.5 471.5,-0.5"/>
<text text-anchor="middle" x="540" y="-7.5" font-family="Helvetica,sans-Serif" font-size="10.00">FbcV2ToV1Converter.cpp</text>
</a>
</g>
</g>
<!-- Node2&#45;&gt;Node6 -->
<g id="edge5" class="edge">
<title>Node2&#45;&gt;Node6</title>
<path fill="none" stroke="midnightblue" d="M419.33,-53.04C448.5,-42.88 489.64,-28.55 515.55,-19.52"/>
<polygon fill="midnightblue" stroke="midnightblue" points="417.85,-49.85 409.56,-56.44 420.16,-56.46 417.85,-49.85"/>
</g>
<!-- Node7 -->
<g id="node7" class="node">
<title>Node7</title>
<g id="a_node7"><a xlink:href="_fbc_validator_8cpp.html" target="_top" xlink:title="Base class for SBML Validators.">
<polygon fill="white" stroke="black" points="626.5,-0.5 626.5,-19.5 723.5,-19.5 723.5,-0.5 626.5,-0.5"/>
<text text-anchor="middle" x="675" y="-7.5" font-family="Helvetica,sans-Serif" font-size="10.00">FbcValidator.cpp</text>
</a>
</g>
</g>
<!-- Node2&#45;&gt;Node7 -->
<g id="edge6" class="edge">
<title>Node2&#45;&gt;Node7</title>
<path fill="none" stroke="midnightblue" d="M440.85,-54.6C495.65,-44.4 578.23,-29.02 629.26,-19.52"/>
<polygon fill="midnightblue" stroke="midnightblue" points="440.14,-51.17 430.95,-56.44 441.42,-58.05 440.14,-51.17"/>
</g>
<!-- Node9&#45;&gt;Node2 -->
<g id="edge9" class="edge">
<title>Node9&#45;&gt;Node2</title>
<path fill="none" stroke="midnightblue" d="M706.06,-112.27C633.96,-102.1 515.72,-85.43 444.63,-75.41"/>
<polygon fill="midnightblue" stroke="midnightblue" points="705.96,-115.79 716.35,-113.72 706.93,-108.86 705.96,-115.79"/>
</g>
<!-- Node9&#45;&gt;Node8 -->
<g id="edge10" class="edge">
<title>Node9&#45;&gt;Node8</title>
<path fill="none" stroke="midnightblue" d="M740.76,-108.1C719.46,-98.01 690.46,-84.27 671.98,-75.52"/>
<polygon fill="midnightblue" stroke="midnightblue" points="739.4,-111.33 749.94,-112.44 742.4,-105 739.4,-111.33"/>
</g>
<!-- Node10 -->
<g id="node10" class="node">
<title>Node10</title>
<g id="a_node10"><a xlink:href="_fbc_model_plugin_8cpp.html" target="_top" xlink:title="Implementation of FbcModelPlugin, the plugin class of the fbc package for the Model element.">
<polygon fill="white" stroke="black" points="723,-56.5 723,-75.5 837,-75.5 837,-56.5 723,-56.5"/>
<text text-anchor="middle" x="780" y="-63.5" font-family="Helvetica,sans-Serif" font-size="10.00">FbcModelPlugin.cpp</text>
</a>
</g>
</g>
<!-- Node9&#45;&gt;Node10 -->
<g id="edge11" class="edge">
<title>Node9&#45;&gt;Node10</title>
<path fill="none" stroke="midnightblue" d="M772.2,-102.1C774.19,-93.14 776.48,-82.86 778.06,-75.75"/>
<polygon fill="midnightblue" stroke="midnightblue" points="768.73,-101.56 769.98,-112.08 775.57,-103.08 768.73,-101.56"/>
</g>
<!-- Node11 -->
<g id="node11" class="node">
<title>Node11</title>
<g id="a_node11"><a xlink:href="_fbc_association_8cpp.html" target="_top" xlink:title="Implementation of the FbcAssociation class.">
<polygon fill="white" stroke="black" points="855,-56.5 855,-75.5 965,-75.5 965,-56.5 855,-56.5"/>
<text text-anchor="middle" x="910" y="-63.5" font-family="Helvetica,sans-Serif" font-size="10.00">FbcAssociation.cpp</text>
</a>
</g>
</g>
<!-- Node9&#45;&gt;Node11 -->
<g id="edge12" class="edge">
<title>Node9&#45;&gt;Node11</title>
<path fill="none" stroke="midnightblue" d="M800.16,-108.77C826.83,-98.63 864.07,-84.47 887.6,-75.52"/>
<polygon fill="midnightblue" stroke="midnightblue" points="798.6,-105.62 790.5,-112.44 801.09,-112.16 798.6,-105.62"/>
</g>
<!-- Node12 -->
<g id="node12" class="node">
<title>Node12</title>
<g id="a_node12"><a xlink:href="_gene_product_association_8cpp.html" target="_top" xlink:title="Implementation of the GeneProductAssociation class.">
<polygon fill="white" stroke="black" points="983.5,-56.5 983.5,-75.5 1138.5,-75.5 1138.5,-56.5 983.5,-56.5"/>
<text text-anchor="middle" x="1061" y="-63.5" font-family="Helvetica,sans-Serif" font-size="10.00">GeneProductAssociation.cpp</text>
</a>
</g>
</g>
<!-- Node9&#45;&gt;Node12 -->
<g id="edge13" class="edge">
<title>Node9&#45;&gt;Node12</title>
<path fill="none" stroke="midnightblue" d="M824.43,-110.6C879.8,-100.4 963.23,-85.02 1014.79,-75.52"/>
<polygon fill="midnightblue" stroke="midnightblue" points="823.63,-107.19 814.43,-112.44 824.9,-114.07 823.63,-107.19"/>
</g>
<!-- Node13 -->
<g id="node13" class="node">
<title>Node13</title>
<g id="a_node13"><a xlink:href="_gene_product_ref_8cpp.html" target="_top" xlink:title="Implementation of the GeneProductRef class.">
<polygon fill="white" stroke="black" points="1156.5,-56.5 1156.5,-75.5 1271.5,-75.5 1271.5,-56.5 1156.5,-56.5"/>
<text text-anchor="middle" x="1214" y="-63.5" font-family="Helvetica,sans-Serif" font-size="10.00">GeneProductRef.cpp</text>
</a>
</g>
</g>
<!-- Node9&#45;&gt;Node13 -->
<g id="edge14" class="edge">
<title>Node9&#45;&gt;Node13</title>
<path fill="none" stroke="midnightblue" d="M829.57,-111.97C972.15,-93.58 1009.6,-93.24 1148,-76 1150.75,-75.66 1153.57,-75.3 1156.42,-74.93"/>
<polygon fill="midnightblue" stroke="midnightblue" points="829.03,-108.51 819.57,-113.27 829.93,-115.45 829.03,-108.51"/>
</g>
<!-- Node14&#45;&gt;Node2 -->
<g id="edge16" class="edge">
<title>Node14&#45;&gt;Node2</title>
<path fill="none" stroke="midnightblue" d="M432.45,-105.82C420.62,-96.15 405.71,-83.95 395.8,-75.83"/>
<polygon fill="midnightblue" stroke="midnightblue" points="430.44,-108.7 440.4,-112.32 434.87,-103.28 430.44,-108.7"/>
</g>
<!-- Node14&#45;&gt;Node8 -->
<g id="edge17" class="edge">
<title>Node14&#45;&gt;Node8</title>
<path fill="none" stroke="midnightblue" d="M492.99,-109.83C531.32,-99.63 587.15,-84.78 621.98,-75.52"/>
<polygon fill="midnightblue" stroke="midnightblue" points="491.93,-106.49 483.17,-112.44 493.73,-113.26 491.93,-106.49"/>
</g>
<!-- Node15 -->
<g id="node15" class="node">
<title>Node15</title>
<g id="a_node15"><a xlink:href="_fbc_reaction_plugin_8cpp.html" target="_top" xlink:title="Implementation of the FbcReactionPlugin class.">
<polygon fill="white" stroke="black" points="180.5,-56.5 180.5,-75.5 307.5,-75.5 307.5,-56.5 180.5,-56.5"/>
<text text-anchor="middle" x="244" y="-63.5" font-family="Helvetica,sans-Serif" font-size="10.00">FbcReactionPlugin.cpp</text>
</a>
</g>
</g>
<!-- Node14&#45;&gt;Node15 -->
<g id="edge18" class="edge">
<title>Node14&#45;&gt;Node15</title>
<path fill="none" stroke="midnightblue" d="M408.18,-109.83C369.09,-99.63 312.17,-84.78 276.65,-75.52"/>
<polygon fill="midnightblue" stroke="midnightblue" points="407.64,-113.31 418.2,-112.44 409.41,-106.53 407.64,-113.31"/>
</g>
<!-- Node17&#45;&gt;Node2 -->
<g id="edge21" class="edge">
<title>Node17&#45;&gt;Node2</title>
<path fill="none" stroke="midnightblue" d="M540.77,-109.7C503.59,-99.51 449.73,-84.74 416.07,-75.52"/>
<polygon fill="midnightblue" stroke="midnightblue" points="540.22,-113.18 550.78,-112.44 542.07,-106.42 540.22,-113.18"/>
</g>
<!-- Node17&#45;&gt;Node8 -->
<g id="edge22" class="edge">
<title>Node17&#45;&gt;Node8</title>
<path fill="none" stroke="midnightblue" d="M601.87,-106.1C614.82,-96.38 631.3,-84.03 642.22,-75.83"/>
<polygon fill="midnightblue" stroke="midnightblue" points="599.47,-103.52 593.57,-112.32 603.67,-109.12 599.47,-103.52"/>
</g>
<!-- Node18 -->
<g id="node18" class="node">
<title>Node18</title>
<g id="a_node18"><a xlink:href="_fbc_species_plugin_8cpp.html" target="_top" xlink:title="Implementation of FbcSpeciesPlugin, the plugin class of the fbc package for the Species element.">
<polygon fill="white" stroke="black" points="463,-56.5 463,-75.5 585,-75.5 585,-56.5 463,-56.5"/>
<text text-anchor="middle" x="524" y="-63.5" font-family="Helvetica,sans-Serif" font-size="10.00">FbcSpeciesPlugin.cpp</text>
</a>
</g>
</g>
<!-- Node17&#45;&gt;Node18 -->
<g id="edge23" class="edge">
<title>Node17&#45;&gt;Node18</title>
<path fill="none" stroke="midnightblue" d="M565.09,-105.25C554.8,-95.67 542.03,-83.79 533.49,-75.83"/>
<polygon fill="midnightblue" stroke="midnightblue" points="562.98,-108.07 572.68,-112.32 567.75,-102.95 562.98,-108.07"/>
</g>
</g>
</svg>
