<?xml version="1.0" encoding="UTF-8" standalone="no"?>
<!DOCTYPE svg PUBLIC "-//W3C//DTD SVG 1.1//EN"
 "http://www.w3.org/Graphics/SVG/1.1/DTD/svg11.dtd">
<!-- Generated by graphviz version 2.43.0 (0)
 -->
<!-- Title: FbcReactionPlugin.h Pages: 1 -->
<svg width="732pt" height="140pt"
 viewBox="0.00 0.00 731.50 140.00" xmlns="http://www.w3.org/2000/svg" xmlns:xlink="http://www.w3.org/1999/xlink">
<g id="graph0" class="graph" transform="scale(1 1) rotate(0) translate(4 136)">
<title>FbcReactionPlugin.h</title>
<polygon fill="white" stroke="transparent" points="-4,4 -4,-136 727.5,-136 727.5,4 -4,4"/>
<!-- Node1 -->
<g id="node1" class="node">
<title>Node1</title>
<g id="a_node1"><a xlink:title="Implementation of the FbcReactionPlugin class.">
<polygon fill="#bfbfbf" stroke="black" points="456,-112.5 456,-131.5 572,-131.5 572,-112.5 456,-112.5"/>
<text text-anchor="middle" x="514" y="-119.5" font-family="Helvetica,sans-Serif" font-size="10.00">FbcReactionPlugin.h</text>
</a>
</g>
</g>
<!-- Node2 -->
<g id="node2" class="node">
<title>Node2</title>
<g id="a_node2"><a xlink:href="_fbc_extension_types_8h.html" target="_top" xlink:title="Includes all SBML types of the fbc package extension in a single header file.">
<polygon fill="white" stroke="black" points="325.5,-56.5 325.5,-75.5 444.5,-75.5 444.5,-56.5 325.5,-56.5"/>
<text text-anchor="middle" x="385" y="-63.5" font-family="Helvetica,sans-Serif" font-size="10.00">FbcExtensionTypes.h</text>
</a>
</g>
</g>
<!-- Node1&#45;&gt;Node2 -->
<g id="edge1" class="edge">
<title>Node1&#45;&gt;Node2</title>
<path fill="none" stroke="midnightblue" d="M484.15,-108.5C459.96,-98.38 426.54,-84.39 405.34,-75.52"/>
<polygon fill="midnightblue" stroke="midnightblue" points="482.98,-111.81 493.56,-112.44 485.69,-105.35 482.98,-111.81"/>
</g>
<!-- Node8 -->
<g id="node8" class="node">
<title>Node8</title>
<g id="a_node8"><a xlink:href="_fbc_extension_8cpp.html" target="_top" xlink:title="Implementation of FbcExtension, the core module of fbc package.">
<polygon fill="white" stroke="black" points="463,-56.5 463,-75.5 565,-75.5 565,-56.5 463,-56.5"/>
<text text-anchor="middle" x="514" y="-63.5" font-family="Helvetica,sans-Serif" font-size="10.00">FbcExtension.cpp</text>
</a>
</g>
</g>
<!-- Node1&#45;&gt;Node8 -->
<g id="edge7" class="edge">
<title>Node1&#45;&gt;Node8</title>
<path fill="none" stroke="midnightblue" d="M514,-101.8C514,-92.91 514,-82.78 514,-75.75"/>
<polygon fill="midnightblue" stroke="midnightblue" points="510.5,-102.08 514,-112.08 517.5,-102.08 510.5,-102.08"/>
</g>
<!-- Node9 -->
<g id="node9" class="node">
<title>Node9</title>
<g id="a_node9"><a xlink:href="_fbc_reaction_plugin_8cpp.html" target="_top" xlink:title="Implementation of the FbcReactionPlugin class.">
<polygon fill="white" stroke="black" points="583.5,-56.5 583.5,-75.5 710.5,-75.5 710.5,-56.5 583.5,-56.5"/>
<text text-anchor="middle" x="647" y="-63.5" font-family="Helvetica,sans-Serif" font-size="10.00">FbcReactionPlugin.cpp</text>
</a>
</g>
</g>
<!-- Node1&#45;&gt;Node9 -->
<g id="edge8" class="edge">
<title>Node1&#45;&gt;Node9</title>
<path fill="none" stroke="midnightblue" d="M544.45,-108.64C569.41,-98.5 604.08,-84.43 626.02,-75.52"/>
<polygon fill="midnightblue" stroke="midnightblue" points="543.02,-105.44 535.07,-112.44 545.66,-111.92 543.02,-105.44"/>
</g>
<!-- Node3 -->
<g id="node3" class="node">
<title>Node3</title>
<g id="a_node3"><a xlink:href="_cobra_to_fbc_converter_8cpp.html" target="_top" xlink:title="Implementation of a cobra 2 fbc converter.">
<polygon fill="white" stroke="black" points="0,-0.5 0,-19.5 140,-19.5 140,-0.5 0,-0.5"/>
<text text-anchor="middle" x="70" y="-7.5" font-family="Helvetica,sans-Serif" font-size="10.00">CobraToFbcConverter.cpp</text>
</a>
</g>
</g>
<!-- Node2&#45;&gt;Node3 -->
<g id="edge2" class="edge">
<title>Node2&#45;&gt;Node3</title>
<path fill="none" stroke="midnightblue" d="M325.08,-54.73C265.55,-44.52 175.34,-29.06 119.68,-19.52"/>
<polygon fill="midnightblue" stroke="midnightblue" points="324.64,-58.2 335.09,-56.44 325.82,-51.3 324.64,-58.2"/>
</g>
<!-- Node4 -->
<g id="node4" class="node">
<title>Node4</title>
<g id="a_node4"><a xlink:href="_fbc_to_cobra_converter_8cpp.html" target="_top" xlink:title="Implementation of a fbc 2 cobra converter.">
<polygon fill="white" stroke="black" points="158,-0.5 158,-19.5 298,-19.5 298,-0.5 158,-0.5"/>
<text text-anchor="middle" x="228" y="-7.5" font-family="Helvetica,sans-Serif" font-size="10.00">FbcToCobraConverter.cpp</text>
</a>
</g>
</g>
<!-- Node2&#45;&gt;Node4 -->
<g id="edge3" class="edge">
<title>Node2&#45;&gt;Node4</title>
<path fill="none" stroke="midnightblue" d="M350.61,-53.17C321.05,-43 279.13,-28.59 252.76,-19.52"/>
<polygon fill="midnightblue" stroke="midnightblue" points="349.53,-56.5 360.12,-56.44 351.8,-49.88 349.53,-56.5"/>
</g>
<!-- Node5 -->
<g id="node5" class="node">
<title>Node5</title>
<g id="a_node5"><a xlink:href="_fbc_v1_to_v2_converter_8cpp.html" target="_top" xlink:title="Implementation of a fbc v1 to fbc v2 converter.">
<polygon fill="white" stroke="black" points="316.5,-0.5 316.5,-19.5 453.5,-19.5 453.5,-0.5 316.5,-0.5"/>
<text text-anchor="middle" x="385" y="-7.5" font-family="Helvetica,sans-Serif" font-size="10.00">FbcV1ToV2Converter.cpp</text>
</a>
</g>
</g>
<!-- Node2&#45;&gt;Node5 -->
<g id="edge4" class="edge">
<title>Node2&#45;&gt;Node5</title>
<path fill="none" stroke="midnightblue" d="M385,-45.8C385,-36.91 385,-26.78 385,-19.75"/>
<polygon fill="midnightblue" stroke="midnightblue" points="381.5,-46.08 385,-56.08 388.5,-46.08 381.5,-46.08"/>
</g>
<!-- Node6 -->
<g id="node6" class="node">
<title>Node6</title>
<g id="a_node6"><a xlink:href="_fbc_v2_to_v1_converter_8cpp.html" target="_top" xlink:title="Implementation of a fbc v2 to fbc v1 converter.">
<polygon fill="white" stroke="black" points="471.5,-0.5 471.5,-19.5 608.5,-19.5 608.5,-0.5 471.5,-0.5"/>
<text text-anchor="middle" x="540" y="-7.5" font-family="Helvetica,sans-Serif" font-size="10.00">FbcV2ToV1Converter.cpp</text>
</a>
</g>
</g>
<!-- Node2&#45;&gt;Node6 -->
<g id="edge5" class="edge">
<title>Node2&#45;&gt;Node6</title>
<path fill="none" stroke="midnightblue" d="M419.33,-53.04C448.5,-42.88 489.64,-28.55 515.55,-19.52"/>
<polygon fill="midnightblue" stroke="midnightblue" points="417.85,-49.85 409.56,-56.44 420.16,-56.46 417.85,-49.85"/>
</g>
<!-- Node7 -->
<g id="node7" class="node">
<title>Node7</title>
<g id="a_node7"><a xlink:href="_fbc_validator_8cpp.html" target="_top" xlink:title="Base class for SBML Validators.">
<polygon fill="white" stroke="black" points="626.5,-0.5 626.5,-19.5 723.5,-19.5 723.5,-0.5 626.5,-0.5"/>
<text text-anchor="middle" x="675" y="-7.5" font-family="Helvetica,sans-Serif" font-size="10.00">FbcValidator.cpp</text>
</a>
</g>
</g>
<!-- Node2&#45;&gt;Node7 -->
<g id="edge6" class="edge">
<title>Node2&#45;&gt;Node7</title>
<path fill="none" stroke="midnightblue" d="M440.85,-54.6C495.65,-44.4 578.23,-29.02 629.26,-19.52"/>
<polygon fill="midnightblue" stroke="midnightblue" points="440.14,-51.17 430.95,-56.44 441.42,-58.05 440.14,-51.17"/>
</g>
</g>
</svg>
