<?xml version="1.0" encoding="UTF-8" standalone="no"?>
<!DOCTYPE svg PUBLIC "-//W3C//DTD SVG 1.1//EN"
 "http://www.w3.org/Graphics/SVG/1.1/DTD/svg11.dtd">
<!-- Generated by graphviz version 2.43.0 (0)
 -->
<!-- Title: FbcSBMLError.h Pages: 1 -->
<svg width="2943pt" height="151pt"
 viewBox="0.00 0.00 2942.50 151.00" xmlns="http://www.w3.org/2000/svg" xmlns:xlink="http://www.w3.org/1999/xlink">
<g id="graph0" class="graph" transform="scale(1 1) rotate(0) translate(4 147)">
<title>FbcSBMLError.h</title>
<polygon fill="white" stroke="transparent" points="-4,4 -4,-147 2938.5,-147 2938.5,4 -4,4"/>
<!-- Node1 -->
<g id="node1" class="node">
<title>Node1</title>
<g id="a_node1"><a xlink:title="Represents SBML errors and other diagnostics.">
<polygon fill="#bfbfbf" stroke="black" points="1267,-123.5 1267,-142.5 1359,-142.5 1359,-123.5 1267,-123.5"/>
<text text-anchor="middle" x="1313" y="-130.5" font-family="Helvetica,sans-Serif" font-size="10.00">FbcSBMLError.h</text>
</a>
</g>
</g>
<!-- Node2 -->
<g id="node2" class="node">
<title>Node2</title>
<g id="a_node2"><a xlink:href="_fbc_model_plugin_8cpp.html" target="_top" xlink:title="Implementation of FbcModelPlugin, the plugin class of the fbc package for the Model element.">
<polygon fill="white" stroke="black" points="0,-62 0,-81 114,-81 114,-62 0,-62"/>
<text text-anchor="middle" x="57" y="-69" font-family="Helvetica,sans-Serif" font-size="10.00">FbcModelPlugin.cpp</text>
</a>
</g>
</g>
<!-- Node1&#45;&gt;Node2 -->
<g id="edge1" class="edge">
<title>Node1&#45;&gt;Node2</title>
<path fill="none" stroke="midnightblue" d="M1256.49,-131.18C1051.48,-127.98 347.23,-115.16 124,-87 113.14,-85.63 101.43,-83.37 90.89,-81.04"/>
<polygon fill="midnightblue" stroke="midnightblue" points="1256.67,-134.68 1266.73,-131.33 1256.78,-127.68 1256.67,-134.68"/>
</g>
<!-- Node3 -->
<g id="node3" class="node">
<title>Node3</title>
<g id="a_node3"><a xlink:href="_fbc_reaction_plugin_8cpp.html" target="_top" xlink:title="Implementation of the FbcReactionPlugin class.">
<polygon fill="white" stroke="black" points="132.5,-62 132.5,-81 259.5,-81 259.5,-62 132.5,-62"/>
<text text-anchor="middle" x="196" y="-69" font-family="Helvetica,sans-Serif" font-size="10.00">FbcReactionPlugin.cpp</text>
</a>
</g>
</g>
<!-- Node1&#45;&gt;Node3 -->
<g id="edge2" class="edge">
<title>Node1&#45;&gt;Node3</title>
<path fill="none" stroke="midnightblue" d="M1256.38,-132.59C1099.11,-133.59 643.82,-132.04 269,-87 257.33,-85.6 244.73,-83.36 233.34,-81.06"/>
<polygon fill="midnightblue" stroke="midnightblue" points="1256.77,-136.09 1266.75,-132.52 1256.72,-129.09 1256.77,-136.09"/>
</g>
<!-- Node4 -->
<g id="node4" class="node">
<title>Node4</title>
<g id="a_node4"><a xlink:href="_fbc_s_base_plugin_8cpp.html" target="_top" xlink:title="Implementation of the FbcSBasePlugin class.">
<polygon fill="white" stroke="black" points="278,-62 278,-81 392,-81 392,-62 278,-62"/>
<text text-anchor="middle" x="335" y="-69" font-family="Helvetica,sans-Serif" font-size="10.00">FbcSBasePlugin.cpp</text>
</a>
</g>
</g>
<!-- Node1&#45;&gt;Node4 -->
<g id="edge3" class="edge">
<title>Node1&#45;&gt;Node4</title>
<path fill="none" stroke="midnightblue" d="M1256.48,-132.41C1113,-132.77 723.25,-129.41 402,-87 391.26,-85.58 379.69,-83.34 369.24,-81.04"/>
<polygon fill="midnightblue" stroke="midnightblue" points="1256.79,-135.91 1266.78,-132.38 1256.77,-128.91 1256.79,-135.91"/>
</g>
<!-- Node5 -->
<g id="node5" class="node">
<title>Node5</title>
<g id="a_node5"><a xlink:href="_fbc_s_b_m_l_document_plugin_8cpp.html" target="_top" xlink:title="Implementation of the FbcSBMLDocumentPlugin class.">
<polygon fill="white" stroke="black" points="410.5,-62 410.5,-81 571.5,-81 571.5,-62 410.5,-62"/>
<text text-anchor="middle" x="491" y="-69" font-family="Helvetica,sans-Serif" font-size="10.00">FbcSBMLDocumentPlugin.cpp</text>
</a>
</g>
</g>
<!-- Node1&#45;&gt;Node5 -->
<g id="edge4" class="edge">
<title>Node1&#45;&gt;Node5</title>
<path fill="none" stroke="midnightblue" d="M1256.3,-130.41C1133.1,-126.55 831.84,-114.85 581,-87 567.16,-85.46 552.2,-83.27 538.52,-81.05"/>
<polygon fill="midnightblue" stroke="midnightblue" points="1256.51,-133.92 1266.62,-130.73 1256.73,-126.93 1256.51,-133.92"/>
</g>
<!-- Node6 -->
<g id="node6" class="node">
<title>Node6</title>
<g id="a_node6"><a xlink:href="_fbc_species_plugin_8cpp.html" target="_top" xlink:title="Implementation of FbcSpeciesPlugin, the plugin class of the fbc package for the Species element.">
<polygon fill="white" stroke="black" points="590,-62 590,-81 712,-81 712,-62 590,-62"/>
<text text-anchor="middle" x="651" y="-69" font-family="Helvetica,sans-Serif" font-size="10.00">FbcSpeciesPlugin.cpp</text>
</a>
</g>
</g>
<!-- Node1&#45;&gt;Node6 -->
<g id="edge5" class="edge">
<title>Node1&#45;&gt;Node6</title>
<path fill="none" stroke="midnightblue" d="M1256.72,-130.07C1151.34,-125.93 917.28,-114.27 722,-87 711.04,-85.47 699.22,-83.28 688.43,-81.06"/>
<polygon fill="midnightblue" stroke="midnightblue" points="1256.68,-133.57 1266.81,-130.46 1256.95,-126.57 1256.68,-133.57"/>
</g>
<!-- Node7 -->
<g id="node7" class="node">
<title>Node7</title>
<g id="a_node7"><a xlink:href="_fbc_and_8cpp.html" target="_top" xlink:title="Implementation of the FbcAnd class.">
<polygon fill="white" stroke="black" points="730.5,-62 730.5,-81 803.5,-81 803.5,-62 730.5,-62"/>
<text text-anchor="middle" x="767" y="-69" font-family="Helvetica,sans-Serif" font-size="10.00">FbcAnd.cpp</text>
</a>
</g>
</g>
<!-- Node1&#45;&gt;Node7 -->
<g id="edge6" class="edge">
<title>Node1&#45;&gt;Node7</title>
<path fill="none" stroke="midnightblue" d="M1256.62,-130.87C1163.43,-128.13 971.77,-118.78 813,-87 805.61,-85.52 797.73,-83.29 790.62,-81.02"/>
<polygon fill="midnightblue" stroke="midnightblue" points="1256.59,-134.37 1266.68,-131.15 1256.78,-127.38 1256.59,-134.37"/>
</g>
<!-- Node8 -->
<g id="node8" class="node">
<title>Node8</title>
<g id="a_node8"><a xlink:href="_fbc_association_8cpp.html" target="_top" xlink:title="Implementation of the FbcAssociation class.">
<polygon fill="white" stroke="black" points="822,-62 822,-81 932,-81 932,-62 822,-62"/>
<text text-anchor="middle" x="877" y="-69" font-family="Helvetica,sans-Serif" font-size="10.00">FbcAssociation.cpp</text>
</a>
</g>
</g>
<!-- Node1&#45;&gt;Node8 -->
<g id="edge7" class="edge">
<title>Node1&#45;&gt;Node8</title>
<path fill="none" stroke="midnightblue" d="M1256.47,-126.9C1183.51,-119.91 1052.77,-106.03 942,-87 932.31,-85.34 921.89,-83.18 912.3,-81.04"/>
<polygon fill="midnightblue" stroke="midnightblue" points="1256.52,-130.42 1266.81,-127.88 1257.18,-123.45 1256.52,-130.42"/>
</g>
<!-- Node9 -->
<g id="node9" class="node">
<title>Node9</title>
<g id="a_node9"><a xlink:href="_fbc_or_8cpp.html" target="_top" xlink:title="Implementation of the FbcOr class.">
<polygon fill="white" stroke="black" points="950.5,-62 950.5,-81 1015.5,-81 1015.5,-62 950.5,-62"/>
<text text-anchor="middle" x="983" y="-69" font-family="Helvetica,sans-Serif" font-size="10.00">FbcOr.cpp</text>
</a>
</g>
</g>
<!-- Node1&#45;&gt;Node9 -->
<g id="edge8" class="edge">
<title>Node1&#45;&gt;Node9</title>
<path fill="none" stroke="midnightblue" d="M1256.72,-126.2C1198.23,-119.48 1104.34,-106.73 1025,-87 1018.56,-85.4 1011.71,-83.24 1005.45,-81.07"/>
<polygon fill="midnightblue" stroke="midnightblue" points="1256.53,-129.7 1266.86,-127.35 1257.32,-122.74 1256.53,-129.7"/>
</g>
<!-- Node10 -->
<g id="node10" class="node">
<title>Node10</title>
<g id="a_node10"><a xlink:href="_flux_bound_8cpp.html" target="_top" xlink:title="Implementation of FluxBound, the SBase derived class of the fbc package.">
<polygon fill="white" stroke="black" points="1033.5,-62 1033.5,-81 1122.5,-81 1122.5,-62 1033.5,-62"/>
<text text-anchor="middle" x="1078" y="-69" font-family="Helvetica,sans-Serif" font-size="10.00">FluxBound.cpp</text>
</a>
</g>
</g>
<!-- Node1&#45;&gt;Node10 -->
<g id="edge9" class="edge">
<title>Node1&#45;&gt;Node10</title>
<path fill="none" stroke="midnightblue" d="M1268.03,-121.07C1231.37,-112.09 1178.28,-98.97 1132,-87 1124.67,-85.1 1116.79,-83.02 1109.38,-81.03"/>
<polygon fill="midnightblue" stroke="midnightblue" points="1267.37,-124.51 1277.91,-123.48 1269.03,-117.71 1267.37,-124.51"/>
</g>
<!-- Node11 -->
<g id="node11" class="node">
<title>Node11</title>
<g id="a_node11"><a xlink:href="_flux_objective_8cpp.html" target="_top" xlink:title="Implementation of the FluxObjective class.">
<polygon fill="white" stroke="black" points="1141,-62 1141,-81 1245,-81 1245,-62 1141,-62"/>
<text text-anchor="middle" x="1193" y="-69" font-family="Helvetica,sans-Serif" font-size="10.00">FluxObjective.cpp</text>
</a>
</g>
</g>
<!-- Node1&#45;&gt;Node11 -->
<g id="edge10" class="edge">
<title>Node1&#45;&gt;Node11</title>
<path fill="none" stroke="midnightblue" d="M1286.82,-119.02C1263.55,-107.48 1230.2,-90.94 1210.16,-81.01"/>
<polygon fill="midnightblue" stroke="midnightblue" points="1285.29,-122.17 1295.81,-123.48 1288.4,-115.9 1285.29,-122.17"/>
</g>
<!-- Node12 -->
<g id="node12" class="node">
<title>Node12</title>
<g id="a_node12"><a xlink:href="_gene_product_8cpp.html" target="_top" xlink:title="Implementation of the GeneProduct class.">
<polygon fill="white" stroke="black" points="1263.5,-62 1263.5,-81 1362.5,-81 1362.5,-62 1263.5,-62"/>
<text text-anchor="middle" x="1313" y="-69" font-family="Helvetica,sans-Serif" font-size="10.00">GeneProduct.cpp</text>
</a>
</g>
</g>
<!-- Node1&#45;&gt;Node12 -->
<g id="edge11" class="edge">
<title>Node1&#45;&gt;Node12</title>
<path fill="none" stroke="midnightblue" d="M1313,-113.32C1313,-102.5 1313,-89.4 1313,-81.01"/>
<polygon fill="midnightblue" stroke="midnightblue" points="1309.5,-113.48 1313,-123.48 1316.5,-113.48 1309.5,-113.48"/>
</g>
<!-- Node13 -->
<g id="node13" class="node">
<title>Node13</title>
<g id="a_node13"><a xlink:href="_gene_product_association_8cpp.html" target="_top" xlink:title="Implementation of the GeneProductAssociation class.">
<polygon fill="white" stroke="black" points="1380.5,-62 1380.5,-81 1535.5,-81 1535.5,-62 1380.5,-62"/>
<text text-anchor="middle" x="1458" y="-69" font-family="Helvetica,sans-Serif" font-size="10.00">GeneProductAssociation.cpp</text>
</a>
</g>
</g>
<!-- Node1&#45;&gt;Node13 -->
<g id="edge12" class="edge">
<title>Node1&#45;&gt;Node13</title>
<path fill="none" stroke="midnightblue" d="M1343.14,-119.63C1371.31,-108.07 1412.62,-91.12 1437.26,-81.01"/>
<polygon fill="midnightblue" stroke="midnightblue" points="1341.7,-116.44 1333.77,-123.48 1344.36,-122.92 1341.7,-116.44"/>
</g>
<!-- Node14 -->
<g id="node14" class="node">
<title>Node14</title>
<g id="a_node14"><a xlink:href="_gene_product_ref_8cpp.html" target="_top" xlink:title="Implementation of the GeneProductRef class.">
<polygon fill="white" stroke="black" points="1553.5,-62 1553.5,-81 1668.5,-81 1668.5,-62 1553.5,-62"/>
<text text-anchor="middle" x="1611" y="-69" font-family="Helvetica,sans-Serif" font-size="10.00">GeneProductRef.cpp</text>
</a>
</g>
</g>
<!-- Node1&#45;&gt;Node14 -->
<g id="edge13" class="edge">
<title>Node1&#45;&gt;Node14</title>
<path fill="none" stroke="midnightblue" d="M1368.83,-121.57C1415.88,-112.69 1484.92,-99.42 1545,-87 1554.08,-85.12 1563.84,-83.02 1572.99,-81.02"/>
<polygon fill="midnightblue" stroke="midnightblue" points="1368.03,-118.16 1358.85,-123.45 1369.32,-125.04 1368.03,-118.16"/>
</g>
<!-- Node15 -->
<g id="node15" class="node">
<title>Node15</title>
<g id="a_node15"><a xlink:href="_key_value_pair_8cpp.html" target="_top" xlink:title="Implementation of the KeyValuePair class.">
<polygon fill="white" stroke="black" points="1686.5,-62 1686.5,-81 1785.5,-81 1785.5,-62 1686.5,-62"/>
<text text-anchor="middle" x="1736" y="-69" font-family="Helvetica,sans-Serif" font-size="10.00">KeyValuePair.cpp</text>
</a>
</g>
</g>
<!-- Node1&#45;&gt;Node15 -->
<g id="edge14" class="edge">
<title>Node1&#45;&gt;Node15</title>
<path fill="none" stroke="midnightblue" d="M1369.29,-127.22C1441.26,-120.6 1569.56,-107.16 1678,-87 1686.78,-85.37 1696.2,-83.2 1704.85,-81.03"/>
<polygon fill="midnightblue" stroke="midnightblue" points="1368.73,-123.75 1359.08,-128.14 1369.36,-130.72 1368.73,-123.75"/>
</g>
<!-- Node16 -->
<g id="node16" class="node">
<title>Node16</title>
<g id="a_node16"><a xlink:href="_list_of_key_value_pairs_8cpp.html" target="_top" xlink:title="Implementation of the ListOfKeyValuePairs class.">
<polygon fill="white" stroke="black" points="1804,-62 1804,-81 1938,-81 1938,-62 1804,-62"/>
<text text-anchor="middle" x="1871" y="-69" font-family="Helvetica,sans-Serif" font-size="10.00">ListOfKeyValuePairs.cpp</text>
</a>
</g>
</g>
<!-- Node1&#45;&gt;Node16 -->
<g id="edge15" class="edge">
<title>Node1&#45;&gt;Node16</title>
<path fill="none" stroke="midnightblue" d="M1369.02,-128.51C1459.09,-122.51 1641.56,-108.75 1795,-87 1806.44,-85.38 1818.77,-83.21 1830.1,-81.05"/>
<polygon fill="midnightblue" stroke="midnightblue" points="1368.78,-125.02 1359.03,-129.17 1369.24,-132.01 1368.78,-125.02"/>
</g>
<!-- Node17 -->
<g id="node17" class="node">
<title>Node17</title>
<g id="a_node17"><a xlink:href="_list_of_user_defined_constraint_components_8cpp.html" target="_top" xlink:title="Implementation of the ListOfUserDefinedConstraintComponents class.">
<polygon fill="white" stroke="black" points="1956.5,-56.5 1956.5,-86.5 2111.5,-86.5 2111.5,-56.5 1956.5,-56.5"/>
<text text-anchor="start" x="1964.5" y="-74.5" font-family="Helvetica,sans-Serif" font-size="10.00">ListOfUserDefinedConstraint</text>
<text text-anchor="middle" x="2034" y="-63.5" font-family="Helvetica,sans-Serif" font-size="10.00">Components.cpp</text>
</a>
</g>
</g>
<!-- Node1&#45;&gt;Node17 -->
<g id="edge16" class="edge">
<title>Node1&#45;&gt;Node17</title>
<path fill="none" stroke="midnightblue" d="M1369.57,-129.78C1480.59,-125.02 1734.69,-112.17 1947,-87 1950.04,-86.64 1953.14,-86.25 1956.26,-85.83"/>
<polygon fill="midnightblue" stroke="midnightblue" points="1369.12,-126.29 1359.28,-130.21 1369.42,-133.29 1369.12,-126.29"/>
</g>
<!-- Node18 -->
<g id="node18" class="node">
<title>Node18</title>
<g id="a_node18"><a xlink:href="_list_of_user_defined_constraints_8cpp.html" target="_top" xlink:title="Implementation of the ListOfUserDefinedConstraints class.">
<polygon fill="white" stroke="black" points="2129.5,-62 2129.5,-81 2310.5,-81 2310.5,-62 2129.5,-62"/>
<text text-anchor="middle" x="2220" y="-69" font-family="Helvetica,sans-Serif" font-size="10.00">ListOfUserDefinedConstraints.cpp</text>
</a>
</g>
</g>
<!-- Node1&#45;&gt;Node18 -->
<g id="edge17" class="edge">
<title>Node1&#45;&gt;Node18</title>
<path fill="none" stroke="midnightblue" d="M1369.37,-130.6C1501.16,-126.95 1839.61,-115.38 2121,-87 2136.3,-85.46 2152.85,-83.25 2167.96,-81.02"/>
<polygon fill="midnightblue" stroke="midnightblue" points="1369.02,-127.11 1359.12,-130.88 1369.21,-134.11 1369.02,-127.11"/>
</g>
<!-- Node19 -->
<g id="node19" class="node">
<title>Node19</title>
<g id="a_node19"><a xlink:href="_objective_8cpp.html" target="_top" xlink:title="Implementation of the Objective class.">
<polygon fill="white" stroke="black" points="2328.5,-62 2328.5,-81 2411.5,-81 2411.5,-62 2328.5,-62"/>
<text text-anchor="middle" x="2370" y="-69" font-family="Helvetica,sans-Serif" font-size="10.00">Objective.cpp</text>
</a>
</g>
</g>
<!-- Node1&#45;&gt;Node19 -->
<g id="edge18" class="edge">
<title>Node1&#45;&gt;Node19</title>
<path fill="none" stroke="midnightblue" d="M1369.31,-131.24C1553.19,-128.49 2134.85,-117.54 2320,-87 2328.2,-85.65 2336.97,-83.39 2344.83,-81.06"/>
<polygon fill="midnightblue" stroke="midnightblue" points="1369,-127.75 1359.06,-131.39 1369.11,-134.75 1369,-127.75"/>
</g>
<!-- Node20 -->
<g id="node20" class="node">
<title>Node20</title>
<g id="a_node20"><a xlink:href="_user_defined_constraint_8cpp.html" target="_top" xlink:title="Implementation of the UserDefinedConstraint class.">
<polygon fill="white" stroke="black" points="2429.5,-62 2429.5,-81 2576.5,-81 2576.5,-62 2429.5,-62"/>
<text text-anchor="middle" x="2503" y="-69" font-family="Helvetica,sans-Serif" font-size="10.00">UserDefinedConstraint.cpp</text>
</a>
</g>
</g>
<!-- Node1&#45;&gt;Node20 -->
<g id="edge19" class="edge">
<title>Node1&#45;&gt;Node20</title>
<path fill="none" stroke="midnightblue" d="M1369.36,-132.38C1532.6,-132.91 2019.73,-130.43 2421,-87 2434.08,-85.58 2448.22,-83.34 2461.02,-81.04"/>
<polygon fill="midnightblue" stroke="midnightblue" points="1369.09,-128.88 1359.08,-132.34 1369.06,-135.88 1369.09,-128.88"/>
</g>
<!-- Node21 -->
<g id="node21" class="node">
<title>Node21</title>
<g id="a_node21"><a xlink:href="_user_defined_constraint_component_8cpp.html" target="_top" xlink:title="Implementation of the UserDefinedConstraintComponent class.">
<polygon fill="white" stroke="black" points="2594.5,-62 2594.5,-81 2797.5,-81 2797.5,-62 2594.5,-62"/>
<text text-anchor="middle" x="2696" y="-69" font-family="Helvetica,sans-Serif" font-size="10.00">UserDefinedConstraintComponent.cpp</text>
</a>
</g>
</g>
<!-- Node1&#45;&gt;Node21 -->
<g id="edge20" class="edge">
<title>Node1&#45;&gt;Node21</title>
<path fill="none" stroke="midnightblue" d="M1369.24,-131.93C1547.66,-131.3 2116.85,-126.12 2586,-87 2603.37,-85.55 2622.21,-83.31 2639.3,-81.03"/>
<polygon fill="midnightblue" stroke="midnightblue" points="1369.04,-128.43 1359.05,-131.96 1369.06,-135.43 1369.04,-128.43"/>
</g>
<!-- Node22 -->
<g id="node22" class="node">
<title>Node22</title>
<g id="a_node22"><a xlink:href="_fbc_s_b_m_l_error_table_8h.html" target="_top" xlink:title="Represents SBML errors and other diagnostics.">
<polygon fill="white" stroke="black" points="2815.5,-62 2815.5,-81 2934.5,-81 2934.5,-62 2815.5,-62"/>
<text text-anchor="middle" x="2875" y="-69" font-family="Helvetica,sans-Serif" font-size="10.00">FbcSBMLErrorTable.h</text>
</a>
</g>
</g>
<!-- Node1&#45;&gt;Node22 -->
<g id="edge21" class="edge">
<title>Node1&#45;&gt;Node22</title>
<path fill="none" stroke="midnightblue" d="M1369.3,-131.66C1605.91,-130.02 2520.78,-121.54 2807,-87 2818.15,-85.65 2830.17,-83.37 2840.96,-81.01"/>
<polygon fill="midnightblue" stroke="midnightblue" points="1369.17,-128.16 1359.2,-131.73 1369.22,-135.16 1369.17,-128.16"/>
</g>
<!-- Node23 -->
<g id="node23" class="node">
<title>Node23</title>
<g id="a_node23"><a xlink:href="_fbc_extension_8cpp.html" target="_top" xlink:title="Implementation of FbcExtension, the core module of fbc package.">
<polygon fill="white" stroke="black" points="2824,-0.5 2824,-19.5 2926,-19.5 2926,-0.5 2824,-0.5"/>
<text text-anchor="middle" x="2875" y="-7.5" font-family="Helvetica,sans-Serif" font-size="10.00">FbcExtension.cpp</text>
</a>
</g>
</g>
<!-- Node22&#45;&gt;Node23 -->
<g id="edge22" class="edge">
<title>Node22&#45;&gt;Node23</title>
<path fill="none" stroke="midnightblue" d="M2875,-51.82C2875,-41 2875,-27.9 2875,-19.51"/>
<polygon fill="midnightblue" stroke="midnightblue" points="2871.5,-51.98 2875,-61.98 2878.5,-51.98 2871.5,-51.98"/>
</g>
</g>
</svg>
