<?xml version="1.0" encoding="UTF-8" standalone="no"?>
<!DOCTYPE svg PUBLIC "-//W3C//DTD SVG 1.1//EN"
 "http://www.w3.org/Graphics/SVG/1.1/DTD/svg11.dtd">
<!-- Generated by graphviz version 2.43.0 (0)
 -->
<!-- Title: FbcSBMLErrorTable.h Pages: 1 -->
<svg width="1127pt" height="587pt"
 viewBox="0.00 0.00 1127.00 587.00" xmlns="http://www.w3.org/2000/svg" xmlns:xlink="http://www.w3.org/1999/xlink">
<g id="graph0" class="graph" transform="scale(1 1) rotate(0) translate(4 583)">
<title>FbcSBMLErrorTable.h</title>
<polygon fill="white" stroke="transparent" points="-4,4 -4,-583 1123,-583 1123,4 -4,4"/>
<!-- Node1 -->
<g id="node1" class="node">
<title>Node1</title>
<g id="a_node1"><a xlink:title="Represents SBML errors and other diagnostics.">
<polygon fill="#bfbfbf" stroke="black" points="96.5,-559.5 96.5,-578.5 215.5,-578.5 215.5,-559.5 96.5,-559.5"/>
<text text-anchor="middle" x="156" y="-566.5" font-family="Helvetica,sans-Serif" font-size="10.00">FbcSBMLErrorTable.h</text>
</a>
</g>
</g>
<!-- Node2 -->
<g id="node2" class="node">
<title>Node2</title>
<g id="a_node2"><a xlink:title=" ">
<polygon fill="white" stroke="#bfbfbf" points="0,-263 0,-282 44,-282 44,-263 0,-263"/>
<text text-anchor="middle" x="22" y="-270" font-family="Helvetica,sans-Serif" font-size="10.00">string</text>
</a>
</g>
</g>
<!-- Node1&#45;&gt;Node2 -->
<g id="edge1" class="edge">
<title>Node1&#45;&gt;Node2</title>
<path fill="none" stroke="midnightblue" d="M135.04,-559.44C118.31,-551.81 95.09,-539.32 79,-523 51.75,-495.37 36,-485.81 36,-447 36,-447 36,-447 36,-389 36,-354.61 29.81,-314.88 25.66,-292.13"/>
<polygon fill="midnightblue" stroke="midnightblue" points="29.07,-291.32 23.77,-282.15 22.19,-292.63 29.07,-291.32"/>
</g>
<!-- Node3 -->
<g id="node3" class="node">
<title>Node3</title>
<g id="a_node3"><a xlink:title=" ">
<polygon fill="white" stroke="#bfbfbf" points="88,-498 88,-517 148,-517 148,-498 88,-498"/>
<text text-anchor="middle" x="118" y="-505" font-family="Helvetica,sans-Serif" font-size="10.00">iostream</text>
</a>
</g>
</g>
<!-- Node1&#45;&gt;Node3 -->
<g id="edge2" class="edge">
<title>Node1&#45;&gt;Node3</title>
<path fill="none" stroke="midnightblue" d="M150.56,-559.48C144.91,-550.64 135.94,-536.59 128.84,-525.48"/>
<polygon fill="midnightblue" stroke="midnightblue" points="131.77,-523.55 123.43,-517.01 125.87,-527.32 131.77,-523.55"/>
</g>
<!-- Node4 -->
<g id="node4" class="node">
<title>Node4</title>
<g id="a_node4"><a xlink:title=" ">
<polygon fill="white" stroke="#bfbfbf" points="166,-498 166,-517 222,-517 222,-498 166,-498"/>
<text text-anchor="middle" x="194" y="-505" font-family="Helvetica,sans-Serif" font-size="10.00">sstream</text>
</a>
</g>
</g>
<!-- Node1&#45;&gt;Node4 -->
<g id="edge3" class="edge">
<title>Node1&#45;&gt;Node4</title>
<path fill="none" stroke="midnightblue" d="M161.44,-559.48C167.09,-550.64 176.06,-536.59 183.16,-525.48"/>
<polygon fill="midnightblue" stroke="midnightblue" points="186.13,-527.32 188.57,-517.01 180.23,-523.55 186.13,-527.32"/>
</g>
<!-- Node5 -->
<g id="node5" class="node">
<title>Node5</title>
<g id="a_node5"><a xlink:href="_fbc_s_b_m_l_error_8h.html" target="_top" xlink:title="Represents SBML errors and other diagnostics.">
<polygon fill="white" stroke="black" points="384,-492.5 384,-522.5 538,-522.5 538,-492.5 384,-492.5"/>
<text text-anchor="start" x="392" y="-510.5" font-family="Helvetica,sans-Serif" font-size="10.00">sbml/packages/fbc/validator</text>
<text text-anchor="middle" x="461" y="-499.5" font-family="Helvetica,sans-Serif" font-size="10.00">/FbcSBMLError.h</text>
</a>
</g>
</g>
<!-- Node1&#45;&gt;Node5 -->
<g id="edge4" class="edge">
<title>Node1&#45;&gt;Node5</title>
<path fill="none" stroke="midnightblue" d="M199.7,-559.48C246.41,-550.36 321.54,-535.71 379.28,-524.44"/>
<polygon fill="midnightblue" stroke="midnightblue" points="379.97,-527.87 389.12,-522.52 378.63,-521 379.97,-527.87"/>
</g>
<!-- Node6 -->
<g id="node6" class="node">
<title>Node6</title>
<g id="a_node6"><a xlink:href="extern_8h.html" target="_top" xlink:title="Definitions of LIBSBML_EXTERN and related things.">
<polygon fill="white" stroke="black" points="672,-67.5 672,-86.5 802,-86.5 802,-67.5 672,-67.5"/>
<text text-anchor="middle" x="737" y="-74.5" font-family="Helvetica,sans-Serif" font-size="10.00">sbml/common/extern.h</text>
</a>
</g>
</g>
<!-- Node5&#45;&gt;Node6 -->
<g id="edge5" class="edge">
<title>Node5&#45;&gt;Node6</title>
<path fill="none" stroke="midnightblue" d="M538.09,-500.94C711.85,-487.39 1119,-449.39 1119,-391 1119,-391 1119,-391 1119,-204.5 1119,-143.65 1065.02,-146.74 1009,-123 945.94,-96.28 868.39,-85.37 812.26,-80.94"/>
<polygon fill="midnightblue" stroke="midnightblue" points="812.26,-77.44 802.03,-80.19 811.75,-84.42 812.26,-77.44"/>
</g>
<!-- Node8 -->
<g id="node8" class="node">
<title>Node8</title>
<g id="a_node8"><a xlink:href="_s_b_m_l_error_8h.html" target="_top" xlink:title="Represents SBML errors and other diagnostics.">
<polygon fill="white" stroke="black" points="455,-436.5 455,-455.5 557,-455.5 557,-436.5 455,-436.5"/>
<text text-anchor="middle" x="506" y="-443.5" font-family="Helvetica,sans-Serif" font-size="10.00">sbml/SBMLError.h</text>
</a>
</g>
</g>
<!-- Node5&#45;&gt;Node8 -->
<g id="edge7" class="edge">
<title>Node5&#45;&gt;Node8</title>
<path fill="none" stroke="midnightblue" d="M471.66,-492.4C478.14,-483.84 486.43,-472.87 493.25,-463.86"/>
<polygon fill="midnightblue" stroke="midnightblue" points="496.21,-465.74 499.45,-455.66 490.63,-461.52 496.21,-465.74"/>
</g>
<!-- Node20 -->
<g id="node20" class="node">
<title>Node20</title>
<g id="a_node20"><a xlink:href="_s_b_m_l_namespaces_8h.html" target="_top" xlink:title="SBMLNamespaces class to store level/version and namespace.">
<polygon fill="white" stroke="black" points="336.5,-380.5 336.5,-399.5 479.5,-399.5 479.5,-380.5 336.5,-380.5"/>
<text text-anchor="middle" x="408" y="-387.5" font-family="Helvetica,sans-Serif" font-size="10.00">sbml/SBMLNamespaces.h</text>
</a>
</g>
</g>
<!-- Node5&#45;&gt;Node20 -->
<g id="edge43" class="edge">
<title>Node5&#45;&gt;Node20</title>
<path fill="none" stroke="midnightblue" d="M454.5,-492.34C444.87,-471.34 426.79,-431.96 416.24,-408.96"/>
<polygon fill="midnightblue" stroke="midnightblue" points="419.33,-407.3 411.98,-399.67 412.97,-410.22 419.33,-407.3"/>
</g>
<!-- Node7 -->
<g id="node7" class="node">
<title>Node7</title>
<g id="a_node7"><a xlink:title=" ">
<polygon fill="white" stroke="#bfbfbf" points="311.5,-0.5 311.5,-30.5 436.5,-30.5 436.5,-0.5 311.5,-0.5"/>
<text text-anchor="start" x="319.5" y="-18.5" font-family="Helvetica,sans-Serif" font-size="10.00">sbml/common/libsbml</text>
<text text-anchor="middle" x="374" y="-7.5" font-family="Helvetica,sans-Serif" font-size="10.00">&#45;namespace.h</text>
</a>
</g>
</g>
<!-- Node6&#45;&gt;Node7 -->
<g id="edge6" class="edge">
<title>Node6&#45;&gt;Node7</title>
<path fill="none" stroke="midnightblue" d="M684.99,-67.48C622.49,-57.23 517.24,-39.98 446.72,-28.42"/>
<polygon fill="midnightblue" stroke="midnightblue" points="447.01,-24.92 436.57,-26.76 445.87,-31.83 447.01,-24.92"/>
</g>
<!-- Node8&#45;&gt;Node6 -->
<g id="edge8" class="edge">
<title>Node8&#45;&gt;Node6</title>
<path fill="none" stroke="midnightblue" d="M557.03,-440.61C697.75,-427.82 1081,-388.11 1081,-335 1081,-335 1081,-335 1081,-204.5 1081,-145.67 901.55,-105.83 801.87,-88.24"/>
<polygon fill="midnightblue" stroke="midnightblue" points="802.34,-84.77 791.89,-86.51 801.14,-91.67 802.34,-84.77"/>
</g>
<!-- Node9 -->
<g id="node9" class="node">
<title>Node9</title>
<g id="a_node9"><a xlink:href="_x_m_l_error_8h.html" target="_top" xlink:title="Represents errors (and messages) encountered during an XML parse.">
<polygon fill="white" stroke="black" points="456,-324.5 456,-343.5 574,-343.5 574,-324.5 456,-324.5"/>
<text text-anchor="middle" x="515" y="-331.5" font-family="Helvetica,sans-Serif" font-size="10.00">sbml/xml/XMLError.h</text>
</a>
</g>
</g>
<!-- Node8&#45;&gt;Node9 -->
<g id="edge9" class="edge">
<title>Node8&#45;&gt;Node9</title>
<path fill="none" stroke="midnightblue" d="M506.71,-436.37C508.16,-418.62 511.51,-377.67 513.48,-353.6"/>
<polygon fill="midnightblue" stroke="midnightblue" points="516.97,-353.84 514.3,-343.59 509.99,-353.27 516.97,-353.84"/>
</g>
<!-- Node8&#45;&gt;Node20 -->
<g id="edge28" class="edge">
<title>Node8&#45;&gt;Node20</title>
<path fill="none" stroke="midnightblue" d="M490.25,-436.32C474.68,-427.74 450.62,-414.49 432.54,-404.52"/>
<polygon fill="midnightblue" stroke="midnightblue" points="434.15,-401.42 423.71,-399.65 430.78,-407.55 434.15,-401.42"/>
</g>
<!-- Node9&#45;&gt;Node2 -->
<g id="edge25" class="edge">
<title>Node9&#45;&gt;Node2</title>
<path fill="none" stroke="midnightblue" d="M455.68,-325C452.75,-324.65 449.84,-324.32 447,-324 272.25,-304.46 222.73,-333.94 53,-288 51.06,-287.48 49.1,-286.84 47.15,-286.13"/>
<polygon fill="midnightblue" stroke="midnightblue" points="48.26,-282.8 37.69,-282.12 45.53,-289.24 48.26,-282.8"/>
</g>
<!-- Node10 -->
<g id="node10" class="node">
<title>Node10</title>
<g id="a_node10"><a xlink:title=" ">
<polygon fill="white" stroke="#bfbfbf" points="871,-196 871,-215 921,-215 921,-196 871,-196"/>
<text text-anchor="middle" x="896" y="-203" font-family="Helvetica,sans-Serif" font-size="10.00">stdio.h</text>
</a>
</g>
</g>
<!-- Node9&#45;&gt;Node10 -->
<g id="edge10" class="edge">
<title>Node9&#45;&gt;Node10</title>
<path fill="none" stroke="midnightblue" d="M574.33,-328.22C665.93,-320.39 833.6,-304.09 856,-288 876.87,-273.01 887.38,-244.07 892.26,-225.02"/>
<polygon fill="midnightblue" stroke="midnightblue" points="895.71,-225.65 894.52,-215.12 888.88,-224.09 895.71,-225.65"/>
</g>
<!-- Node11 -->
<g id="node11" class="node">
<title>Node11</title>
<g id="a_node11"><a xlink:href="_x_m_l_extern_8h.html" target="_top" xlink:title="Defines LIBLAX_EXTERN.">
<polygon fill="white" stroke="black" points="127.5,-263 127.5,-282 254.5,-282 254.5,-263 127.5,-263"/>
<text text-anchor="middle" x="191" y="-270" font-family="Helvetica,sans-Serif" font-size="10.00">sbml/xml/XMLExtern.h</text>
</a>
</g>
</g>
<!-- Node9&#45;&gt;Node11 -->
<g id="edge11" class="edge">
<title>Node9&#45;&gt;Node11</title>
<path fill="none" stroke="midnightblue" d="M465.89,-324.48C415.26,-315.62 334.04,-301.23 264,-288 257.35,-286.74 250.36,-285.39 243.45,-284.04"/>
<polygon fill="midnightblue" stroke="midnightblue" points="243.92,-280.57 233.44,-282.07 242.57,-287.43 243.92,-280.57"/>
</g>
<!-- Node12 -->
<g id="node12" class="node">
<title>Node12</title>
<g id="a_node12"><a xlink:href="sbmlfwd_8h.html" target="_top" xlink:title="Forward declarations for all opaque C types.">
<polygon fill="white" stroke="black" points="273,-263 273,-282 413,-282 413,-263 273,-263"/>
<text text-anchor="middle" x="343" y="-270" font-family="Helvetica,sans-Serif" font-size="10.00">sbml/common/sbmlfwd.h</text>
</a>
</g>
</g>
<!-- Node9&#45;&gt;Node12 -->
<g id="edge13" class="edge">
<title>Node9&#45;&gt;Node12</title>
<path fill="none" stroke="midnightblue" d="M490.36,-324.48C460.72,-314.22 410.82,-296.96 377.4,-285.4"/>
<polygon fill="midnightblue" stroke="midnightblue" points="378.19,-281.97 367.6,-282.01 375.9,-288.59 378.19,-281.97"/>
</g>
<!-- Node16 -->
<g id="node16" class="node">
<title>Node16</title>
<g id="a_node16"><a xlink:href="util_8h.html" target="_top" xlink:title="Utility functions.">
<polygon fill="white" stroke="black" points="759.5,-263 759.5,-282 846.5,-282 846.5,-263 759.5,-263"/>
<text text-anchor="middle" x="803" y="-270" font-family="Helvetica,sans-Serif" font-size="10.00">sbml/util/util.h</text>
</a>
</g>
</g>
<!-- Node9&#45;&gt;Node16 -->
<g id="edge20" class="edge">
<title>Node9&#45;&gt;Node16</title>
<path fill="none" stroke="midnightblue" d="M556.26,-324.48C607.8,-313.83 695.98,-295.61 751.79,-284.08"/>
<polygon fill="midnightblue" stroke="midnightblue" points="752.73,-287.46 761.81,-282.01 751.31,-280.6 752.73,-287.46"/>
</g>
<!-- Node18 -->
<g id="node18" class="node">
<title>Node18</title>
<g id="a_node18"><a xlink:title=" ">
<polygon fill="white" stroke="#bfbfbf" points="617,-263 617,-282 665,-282 665,-263 617,-263"/>
<text text-anchor="middle" x="641" y="-270" font-family="Helvetica,sans-Serif" font-size="10.00">iosfwd</text>
</a>
</g>
</g>
<!-- Node9&#45;&gt;Node18 -->
<g id="edge24" class="edge">
<title>Node9&#45;&gt;Node18</title>
<path fill="none" stroke="midnightblue" d="M533.05,-324.48C554.2,-314.49 589.44,-297.85 613.88,-286.31"/>
<polygon fill="midnightblue" stroke="midnightblue" points="615.43,-289.44 622.98,-282.01 612.44,-283.11 615.43,-289.44"/>
</g>
<!-- Node19 -->
<g id="node19" class="node">
<title>Node19</title>
<g id="a_node19"><a xlink:href="operation_return_values_8h.html" target="_top" xlink:title="Enumeration of values returned by operations within libSBML.">
<polygon fill="white" stroke="black" points="431,-257.5 431,-287.5 599,-287.5 599,-257.5 431,-257.5"/>
<text text-anchor="start" x="439" y="-275.5" font-family="Helvetica,sans-Serif" font-size="10.00">sbml/common/operationReturn</text>
<text text-anchor="middle" x="515" y="-264.5" font-family="Helvetica,sans-Serif" font-size="10.00">Values.h</text>
</a>
</g>
</g>
<!-- Node9&#45;&gt;Node19 -->
<g id="edge26" class="edge">
<title>Node9&#45;&gt;Node19</title>
<path fill="none" stroke="midnightblue" d="M515,-324.48C515,-317.47 515,-307.19 515,-297.7"/>
<polygon fill="midnightblue" stroke="midnightblue" points="518.5,-297.52 515,-287.52 511.5,-297.52 518.5,-297.52"/>
</g>
<!-- Node11&#45;&gt;Node7 -->
<g id="edge12" class="edge">
<title>Node11&#45;&gt;Node7</title>
<path fill="none" stroke="midnightblue" d="M197.3,-262.72C222.9,-227.05 319.6,-92.3 358.07,-38.69"/>
<polygon fill="midnightblue" stroke="midnightblue" points="360.95,-40.69 363.93,-30.53 355.26,-36.61 360.95,-40.69"/>
</g>
<!-- Node12&#45;&gt;Node7 -->
<g id="edge14" class="edge">
<title>Node12&#45;&gt;Node7</title>
<path fill="none" stroke="midnightblue" d="M344.07,-262.72C348.35,-227.49 364.38,-95.62 371.06,-40.72"/>
<polygon fill="midnightblue" stroke="midnightblue" points="374.56,-40.88 372.29,-30.53 367.61,-40.03 374.56,-40.88"/>
</g>
<!-- Node13 -->
<g id="node13" class="node">
<title>Node13</title>
<g id="a_node13"><a xlink:href="libsbml-config_8h.html" target="_top" xlink:title="Decides whether to #include Unix or Windows configuration variables.">
<polygon fill="white" stroke="black" points="440.5,-190.5 440.5,-220.5 565.5,-220.5 565.5,-190.5 440.5,-190.5"/>
<text text-anchor="start" x="448.5" y="-208.5" font-family="Helvetica,sans-Serif" font-size="10.00">sbml/common/libsbml</text>
<text text-anchor="middle" x="503" y="-197.5" font-family="Helvetica,sans-Serif" font-size="10.00">&#45;config.h</text>
</a>
</g>
</g>
<!-- Node12&#45;&gt;Node13 -->
<g id="edge15" class="edge">
<title>Node12&#45;&gt;Node13</title>
<path fill="none" stroke="midnightblue" d="M364.25,-262.87C388.26,-253.12 428,-236.97 458.81,-224.45"/>
<polygon fill="midnightblue" stroke="midnightblue" points="460.52,-227.53 468.47,-220.53 457.89,-221.05 460.52,-227.53"/>
</g>
<!-- Node13&#45;&gt;Node7 -->
<g id="edge16" class="edge">
<title>Node13&#45;&gt;Node7</title>
<path fill="none" stroke="midnightblue" d="M476.24,-190.37C461.59,-181.53 444.02,-168.99 432,-154 404.29,-119.44 387.72,-69.7 379.77,-40.48"/>
<polygon fill="midnightblue" stroke="midnightblue" points="383.13,-39.5 377.23,-30.71 376.36,-41.27 383.13,-39.5"/>
</g>
<!-- Node14 -->
<g id="node14" class="node">
<title>Node14</title>
<g id="a_node14"><a xlink:title=" ">
<polygon fill="white" stroke="#bfbfbf" points="440.5,-123.5 440.5,-153.5 565.5,-153.5 565.5,-123.5 440.5,-123.5"/>
<text text-anchor="start" x="448.5" y="-141.5" font-family="Helvetica,sans-Serif" font-size="10.00">sbml/common/libsbml</text>
<text text-anchor="middle" x="503" y="-130.5" font-family="Helvetica,sans-Serif" font-size="10.00">&#45;config&#45;common.h</text>
</a>
</g>
</g>
<!-- Node13&#45;&gt;Node14 -->
<g id="edge17" class="edge">
<title>Node13&#45;&gt;Node14</title>
<path fill="none" stroke="midnightblue" d="M503,-190.4C503,-182.64 503,-172.81 503,-163.86"/>
<polygon fill="midnightblue" stroke="midnightblue" points="506.5,-163.58 503,-153.58 499.5,-163.58 506.5,-163.58"/>
</g>
<!-- Node15 -->
<g id="node15" class="node">
<title>Node15</title>
<g id="a_node15"><a xlink:href="libsbml-version_8h.html" target="_top" xlink:title="Define libSBML version numbers for access from client software.">
<polygon fill="white" stroke="black" points="583.5,-123.5 583.5,-153.5 708.5,-153.5 708.5,-123.5 583.5,-123.5"/>
<text text-anchor="start" x="591.5" y="-141.5" font-family="Helvetica,sans-Serif" font-size="10.00">sbml/common/libsbml</text>
<text text-anchor="middle" x="646" y="-130.5" font-family="Helvetica,sans-Serif" font-size="10.00">&#45;version.h</text>
</a>
</g>
</g>
<!-- Node13&#45;&gt;Node15 -->
<g id="edge18" class="edge">
<title>Node13&#45;&gt;Node15</title>
<path fill="none" stroke="midnightblue" d="M534.03,-190.4C555.02,-180.86 582.94,-168.16 605.65,-157.84"/>
<polygon fill="midnightblue" stroke="midnightblue" points="607.38,-160.9 615.03,-153.58 604.48,-154.53 607.38,-160.9"/>
</g>
<!-- Node15&#45;&gt;Node6 -->
<g id="edge19" class="edge">
<title>Node15&#45;&gt;Node6</title>
<path fill="none" stroke="midnightblue" d="M667.57,-123.4C681.88,-114.04 700.61,-101.79 715.01,-92.38"/>
<polygon fill="midnightblue" stroke="midnightblue" points="717.3,-95.06 723.76,-86.66 713.47,-89.2 717.3,-95.06"/>
</g>
<!-- Node16&#45;&gt;Node6 -->
<g id="edge23" class="edge">
<title>Node16&#45;&gt;Node6</title>
<path fill="none" stroke="midnightblue" d="M808.54,-262.8C817.41,-247.76 832.91,-215.99 824,-190 810.27,-149.93 775.71,-113.14 754.51,-93.31"/>
<polygon fill="midnightblue" stroke="midnightblue" points="756.86,-90.72 747.11,-86.57 752.15,-95.9 756.86,-90.72"/>
</g>
<!-- Node16&#45;&gt;Node10 -->
<g id="edge21" class="edge">
<title>Node16&#45;&gt;Node10</title>
<path fill="none" stroke="midnightblue" d="M815.54,-262.73C830.88,-252.01 857.06,-233.72 875.38,-220.91"/>
<polygon fill="midnightblue" stroke="midnightblue" points="877.46,-223.72 883.66,-215.13 873.45,-217.99 877.46,-223.72"/>
</g>
<!-- Node17 -->
<g id="node17" class="node">
<title>Node17</title>
<g id="a_node17"><a xlink:title=" ">
<polygon fill="white" stroke="#bfbfbf" points="759,-196 759,-215 815,-215 815,-196 759,-196"/>
<text text-anchor="middle" x="787" y="-203" font-family="Helvetica,sans-Serif" font-size="10.00">stdarg.h</text>
</a>
</g>
</g>
<!-- Node16&#45;&gt;Node17 -->
<g id="edge22" class="edge">
<title>Node16&#45;&gt;Node17</title>
<path fill="none" stroke="midnightblue" d="M800.84,-262.73C798.47,-253.09 794.58,-237.3 791.53,-224.91"/>
<polygon fill="midnightblue" stroke="midnightblue" points="794.91,-224 789.12,-215.13 788.12,-225.67 794.91,-224"/>
</g>
<!-- Node19&#45;&gt;Node6 -->
<g id="edge27" class="edge">
<title>Node19&#45;&gt;Node6</title>
<path fill="none" stroke="midnightblue" d="M474.98,-257.38C458.61,-249.4 441.34,-237.62 432,-221 410.66,-183.03 403.54,-155.97 432,-123 461.1,-89.29 581.21,-80.39 661.74,-78.29"/>
<polygon fill="midnightblue" stroke="midnightblue" points="661.93,-81.79 671.84,-78.06 661.76,-74.79 661.93,-81.79"/>
</g>
<!-- Node20&#45;&gt;Node2 -->
<g id="edge41" class="edge">
<title>Node20&#45;&gt;Node2</title>
<path fill="none" stroke="midnightblue" d="M340.6,-380.48C293.25,-373.43 228.83,-361.67 174,-344 127.23,-328.93 76.01,-303.06 46.57,-287.2"/>
<polygon fill="midnightblue" stroke="midnightblue" points="47.91,-283.94 37.46,-282.23 44.56,-290.09 47.91,-283.94"/>
</g>
<!-- Node21 -->
<g id="node21" class="node">
<title>Node21</title>
<g id="a_node21"><a xlink:href="_x_m_l_namespaces_8h.html" target="_top" xlink:title="A list of XMLNamespace declarations (URI/prefix pairs)">
<polygon fill="white" stroke="black" points="183,-324.5 183,-343.5 341,-343.5 341,-324.5 183,-324.5"/>
<text text-anchor="middle" x="262" y="-331.5" font-family="Helvetica,sans-Serif" font-size="10.00">sbml/xml/XMLNamespaces.h</text>
</a>
</g>
</g>
<!-- Node20&#45;&gt;Node21 -->
<g id="edge29" class="edge">
<title>Node20&#45;&gt;Node21</title>
<path fill="none" stroke="midnightblue" d="M384.87,-380.44C360.52,-371.44 321.99,-357.19 294.58,-347.05"/>
<polygon fill="midnightblue" stroke="midnightblue" points="295.62,-343.7 285.03,-343.52 293.19,-350.27 295.62,-343.7"/>
</g>
<!-- Node23 -->
<g id="node23" class="node">
<title>Node23</title>
<g id="a_node23"><a xlink:href="common_8h.html" target="_top" xlink:title="Common functions and macros for C and C++.">
<polygon fill="white" stroke="black" points="696.5,-324.5 696.5,-343.5 837.5,-343.5 837.5,-324.5 696.5,-324.5"/>
<text text-anchor="middle" x="767" y="-331.5" font-family="Helvetica,sans-Serif" font-size="10.00">sbml/common/common.h</text>
</a>
</g>
</g>
<!-- Node20&#45;&gt;Node23 -->
<g id="edge35" class="edge">
<title>Node20&#45;&gt;Node23</title>
<path fill="none" stroke="midnightblue" d="M464.88,-380.44C528.82,-370.83 632.52,-355.23 700.25,-345.04"/>
<polygon fill="midnightblue" stroke="midnightblue" points="701.01,-348.47 710.38,-343.52 699.97,-341.54 701.01,-348.47"/>
</g>
<!-- Node25 -->
<g id="node25" class="node">
<title>Node25</title>
<g id="a_node25"><a xlink:title=" ">
<polygon fill="white" stroke="#bfbfbf" points="372.5,-324.5 372.5,-343.5 437.5,-343.5 437.5,-324.5 372.5,-324.5"/>
<text text-anchor="middle" x="405" y="-331.5" font-family="Helvetica,sans-Serif" font-size="10.00">stdexcept</text>
</a>
</g>
</g>
<!-- Node20&#45;&gt;Node25 -->
<g id="edge42" class="edge">
<title>Node20&#45;&gt;Node25</title>
<path fill="none" stroke="midnightblue" d="M407.5,-380.08C407.11,-373.01 406.55,-362.86 406.05,-353.99"/>
<polygon fill="midnightblue" stroke="midnightblue" points="409.54,-353.54 405.49,-343.75 402.55,-353.93 409.54,-353.54"/>
</g>
<!-- Node21&#45;&gt;Node2 -->
<g id="edge33" class="edge">
<title>Node21&#45;&gt;Node2</title>
<path fill="none" stroke="midnightblue" d="M206.08,-324.49C163.45,-317.16 103.65,-305.06 53,-288 51.34,-287.44 49.64,-286.82 47.95,-286.15"/>
<polygon fill="midnightblue" stroke="midnightblue" points="49.02,-282.8 38.45,-282.03 46.23,-289.22 49.02,-282.8"/>
</g>
<!-- Node21&#45;&gt;Node11 -->
<g id="edge30" class="edge">
<title>Node21&#45;&gt;Node11</title>
<path fill="none" stroke="midnightblue" d="M251.83,-324.48C240.65,-315.11 222.48,-299.88 208.91,-288.51"/>
<polygon fill="midnightblue" stroke="midnightblue" points="211.07,-285.75 201.15,-282.01 206.57,-291.11 211.07,-285.75"/>
</g>
<!-- Node21&#45;&gt;Node12 -->
<g id="edge31" class="edge">
<title>Node21&#45;&gt;Node12</title>
<path fill="none" stroke="midnightblue" d="M273.61,-324.48C286.48,-315.02 307.47,-299.6 323.01,-288.19"/>
<polygon fill="midnightblue" stroke="midnightblue" points="325.43,-290.75 331.42,-282.01 321.28,-285.11 325.43,-290.75"/>
</g>
<!-- Node21&#45;&gt;Node19 -->
<g id="edge32" class="edge">
<title>Node21&#45;&gt;Node19</title>
<path fill="none" stroke="midnightblue" d="M298.25,-324.48C336.52,-315.48 397.78,-301.07 445.43,-289.86"/>
<polygon fill="midnightblue" stroke="midnightblue" points="446.44,-293.22 455.37,-287.52 444.84,-286.41 446.44,-293.22"/>
</g>
<!-- Node22 -->
<g id="node22" class="node">
<title>Node22</title>
<g id="a_node22"><a xlink:title=" ">
<polygon fill="white" stroke="#bfbfbf" points="62.5,-263 62.5,-282 109.5,-282 109.5,-263 62.5,-263"/>
<text text-anchor="middle" x="86" y="-270" font-family="Helvetica,sans-Serif" font-size="10.00">vector</text>
</a>
</g>
</g>
<!-- Node21&#45;&gt;Node22 -->
<g id="edge34" class="edge">
<title>Node21&#45;&gt;Node22</title>
<path fill="none" stroke="midnightblue" d="M230.73,-324.43C201.3,-316.08 156.18,-302.55 118,-288 116.39,-287.39 114.75,-286.73 113.1,-286.06"/>
<polygon fill="midnightblue" stroke="midnightblue" points="114.34,-282.78 103.78,-282.02 111.57,-289.2 114.34,-282.78"/>
</g>
<!-- Node23&#45;&gt;Node6 -->
<g id="edge38" class="edge">
<title>Node23&#45;&gt;Node6</title>
<path fill="none" stroke="midnightblue" d="M763.07,-324.24C759.27,-315.32 753.69,-300.99 751,-288 736.63,-218.58 736,-133.77 736.54,-96.77"/>
<polygon fill="midnightblue" stroke="midnightblue" points="740.04,-96.58 736.74,-86.51 733.04,-96.44 740.04,-96.58"/>
</g>
<!-- Node23&#45;&gt;Node10 -->
<g id="edge37" class="edge">
<title>Node23&#45;&gt;Node10</title>
<path fill="none" stroke="midnightblue" d="M828.31,-324.44C850.86,-318.12 874.42,-307.12 889,-288 902.63,-270.13 902.08,-243.21 899.68,-225.26"/>
<polygon fill="midnightblue" stroke="midnightblue" points="903.09,-224.46 898.01,-215.17 896.19,-225.61 903.09,-224.46"/>
</g>
<!-- Node23&#45;&gt;Node13 -->
<g id="edge36" class="edge">
<title>Node23&#45;&gt;Node13</title>
<path fill="none" stroke="midnightblue" d="M757.35,-324.28C737.44,-306.43 692.16,-266.6 674,-257 643.5,-240.88 607.15,-229.23 575.82,-221.2"/>
<polygon fill="midnightblue" stroke="midnightblue" points="576.39,-217.74 565.84,-218.73 574.7,-224.53 576.39,-217.74"/>
</g>
<!-- Node23&#45;&gt;Node16 -->
<g id="edge40" class="edge">
<title>Node23&#45;&gt;Node16</title>
<path fill="none" stroke="midnightblue" d="M772.16,-324.48C777.45,-315.73 785.84,-301.87 792.53,-290.81"/>
<polygon fill="midnightblue" stroke="midnightblue" points="795.67,-292.38 797.85,-282.01 789.68,-288.75 795.67,-292.38"/>
</g>
<!-- Node24 -->
<g id="node24" class="node">
<title>Node24</title>
<g id="a_node24"><a xlink:href="memory_8h.html" target="_top" xlink:title=" ">
<polygon fill="white" stroke="black" points="941.5,-263 941.5,-282 1052.5,-282 1052.5,-263 941.5,-263"/>
<text text-anchor="middle" x="997" y="-270" font-family="Helvetica,sans-Serif" font-size="10.00">sbml/util/memory.h</text>
</a>
</g>
</g>
<!-- Node23&#45;&gt;Node24 -->
<g id="edge39" class="edge">
<title>Node23&#45;&gt;Node24</title>
<path fill="none" stroke="midnightblue" d="M799.95,-324.48C840.6,-313.96 909.79,-296.06 954.42,-284.51"/>
<polygon fill="midnightblue" stroke="midnightblue" points="955.3,-287.9 964.11,-282.01 953.55,-281.13 955.3,-287.9"/>
</g>
</g>
</svg>
