<?xml version="1.0" encoding="UTF-8" standalone="no"?>
<!DOCTYPE svg PUBLIC "-//W3C//DTD SVG 1.1//EN"
 "http://www.w3.org/Graphics/SVG/1.1/DTD/svg11.dtd">
<!-- Generated by graphviz version 2.43.0 (0)
 -->
<!-- Title: FluxObjective.h Pages: 1 -->
<svg width="1280pt" height="252pt"
 viewBox="0.00 0.00 1280.00 252.00" xmlns="http://www.w3.org/2000/svg" xmlns:xlink="http://www.w3.org/1999/xlink">
<g id="graph0" class="graph" transform="scale(1 1) rotate(0) translate(4 248)">
<title>FluxObjective.h</title>
<polygon fill="white" stroke="transparent" points="-4,4 -4,-248 1276,-248 1276,4 -4,4"/>
<!-- Node1 -->
<g id="node1" class="node">
<title>Node1</title>
<g id="a_node1"><a xlink:title="Definition of FluxObjective, the SBase derived class of the fbc package.">
<polygon fill="#bfbfbf" stroke="black" points="436.5,-224.5 436.5,-243.5 529.5,-243.5 529.5,-224.5 436.5,-224.5"/>
<text text-anchor="middle" x="483" y="-231.5" font-family="Helvetica,sans-Serif" font-size="10.00">FluxObjective.h</text>
</a>
</g>
</g>
<!-- Node2 -->
<g id="node2" class="node">
<title>Node2</title>
<g id="a_node2"><a xlink:href="_fbc_extension_types_8h.html" target="_top" xlink:title="Includes all SBML types of the fbc package extension in a single header file.">
<polygon fill="white" stroke="black" points="325.5,-56.5 325.5,-75.5 444.5,-75.5 444.5,-56.5 325.5,-56.5"/>
<text text-anchor="middle" x="385" y="-63.5" font-family="Helvetica,sans-Serif" font-size="10.00">FbcExtensionTypes.h</text>
</a>
</g>
</g>
<!-- Node1&#45;&gt;Node2 -->
<g id="edge1" class="edge">
<title>Node1&#45;&gt;Node2</title>
<path fill="none" stroke="midnightblue" d="M455.8,-219.59C426.43,-203.41 381.25,-173.15 362,-132 352.87,-112.48 367.95,-88.28 377.71,-75.62"/>
<polygon fill="midnightblue" stroke="midnightblue" points="454.26,-222.74 464.73,-224.35 457.55,-216.56 454.26,-222.74"/>
</g>
<!-- Node8 -->
<g id="node8" class="node">
<title>Node8</title>
<g id="a_node8"><a xlink:href="_flux_objective_8cpp.html" target="_top" xlink:title="Implementation of the FluxObjective class.">
<polygon fill="white" stroke="black" points="537,-168.5 537,-187.5 641,-187.5 641,-168.5 537,-168.5"/>
<text text-anchor="middle" x="589" y="-175.5" font-family="Helvetica,sans-Serif" font-size="10.00">FluxObjective.cpp</text>
</a>
</g>
</g>
<!-- Node1&#45;&gt;Node8 -->
<g id="edge7" class="edge">
<title>Node1&#45;&gt;Node8</title>
<path fill="none" stroke="midnightblue" d="M509.06,-219.73C528.68,-209.73 555.03,-196.31 572.01,-187.65"/>
<polygon fill="midnightblue" stroke="midnightblue" points="507.35,-216.67 500.03,-224.32 510.53,-222.9 507.35,-216.67"/>
</g>
<!-- Node9 -->
<g id="node9" class="node">
<title>Node9</title>
<g id="a_node9"><a xlink:href="_objective_8h.html" target="_top" xlink:title="Definition of Objective, the SBase derived class of the fbc package.">
<polygon fill="white" stroke="black" points="447,-168.5 447,-187.5 519,-187.5 519,-168.5 447,-168.5"/>
<text text-anchor="middle" x="483" y="-175.5" font-family="Helvetica,sans-Serif" font-size="10.00">Objective.h</text>
</a>
</g>
</g>
<!-- Node1&#45;&gt;Node9 -->
<g id="edge8" class="edge">
<title>Node1&#45;&gt;Node9</title>
<path fill="none" stroke="midnightblue" d="M483,-213.8C483,-204.91 483,-194.78 483,-187.75"/>
<polygon fill="midnightblue" stroke="midnightblue" points="479.5,-214.08 483,-224.08 486.5,-214.08 479.5,-214.08"/>
</g>
<!-- Node3 -->
<g id="node3" class="node">
<title>Node3</title>
<g id="a_node3"><a xlink:href="_cobra_to_fbc_converter_8cpp.html" target="_top" xlink:title="Implementation of a cobra 2 fbc converter.">
<polygon fill="white" stroke="black" points="0,-0.5 0,-19.5 140,-19.5 140,-0.5 0,-0.5"/>
<text text-anchor="middle" x="70" y="-7.5" font-family="Helvetica,sans-Serif" font-size="10.00">CobraToFbcConverter.cpp</text>
</a>
</g>
</g>
<!-- Node2&#45;&gt;Node3 -->
<g id="edge2" class="edge">
<title>Node2&#45;&gt;Node3</title>
<path fill="none" stroke="midnightblue" d="M325.08,-54.73C265.55,-44.52 175.34,-29.06 119.68,-19.52"/>
<polygon fill="midnightblue" stroke="midnightblue" points="324.64,-58.2 335.09,-56.44 325.82,-51.3 324.64,-58.2"/>
</g>
<!-- Node4 -->
<g id="node4" class="node">
<title>Node4</title>
<g id="a_node4"><a xlink:href="_fbc_to_cobra_converter_8cpp.html" target="_top" xlink:title="Implementation of a fbc 2 cobra converter.">
<polygon fill="white" stroke="black" points="158,-0.5 158,-19.5 298,-19.5 298,-0.5 158,-0.5"/>
<text text-anchor="middle" x="228" y="-7.5" font-family="Helvetica,sans-Serif" font-size="10.00">FbcToCobraConverter.cpp</text>
</a>
</g>
</g>
<!-- Node2&#45;&gt;Node4 -->
<g id="edge3" class="edge">
<title>Node2&#45;&gt;Node4</title>
<path fill="none" stroke="midnightblue" d="M350.61,-53.17C321.05,-43 279.13,-28.59 252.76,-19.52"/>
<polygon fill="midnightblue" stroke="midnightblue" points="349.53,-56.5 360.12,-56.44 351.8,-49.88 349.53,-56.5"/>
</g>
<!-- Node5 -->
<g id="node5" class="node">
<title>Node5</title>
<g id="a_node5"><a xlink:href="_fbc_v1_to_v2_converter_8cpp.html" target="_top" xlink:title="Implementation of a fbc v1 to fbc v2 converter.">
<polygon fill="white" stroke="black" points="316.5,-0.5 316.5,-19.5 453.5,-19.5 453.5,-0.5 316.5,-0.5"/>
<text text-anchor="middle" x="385" y="-7.5" font-family="Helvetica,sans-Serif" font-size="10.00">FbcV1ToV2Converter.cpp</text>
</a>
</g>
</g>
<!-- Node2&#45;&gt;Node5 -->
<g id="edge4" class="edge">
<title>Node2&#45;&gt;Node5</title>
<path fill="none" stroke="midnightblue" d="M385,-45.8C385,-36.91 385,-26.78 385,-19.75"/>
<polygon fill="midnightblue" stroke="midnightblue" points="381.5,-46.08 385,-56.08 388.5,-46.08 381.5,-46.08"/>
</g>
<!-- Node6 -->
<g id="node6" class="node">
<title>Node6</title>
<g id="a_node6"><a xlink:href="_fbc_v2_to_v1_converter_8cpp.html" target="_top" xlink:title="Implementation of a fbc v2 to fbc v1 converter.">
<polygon fill="white" stroke="black" points="471.5,-0.5 471.5,-19.5 608.5,-19.5 608.5,-0.5 471.5,-0.5"/>
<text text-anchor="middle" x="540" y="-7.5" font-family="Helvetica,sans-Serif" font-size="10.00">FbcV2ToV1Converter.cpp</text>
</a>
</g>
</g>
<!-- Node2&#45;&gt;Node6 -->
<g id="edge5" class="edge">
<title>Node2&#45;&gt;Node6</title>
<path fill="none" stroke="midnightblue" d="M419.33,-53.04C448.5,-42.88 489.64,-28.55 515.55,-19.52"/>
<polygon fill="midnightblue" stroke="midnightblue" points="417.85,-49.85 409.56,-56.44 420.16,-56.46 417.85,-49.85"/>
</g>
<!-- Node7 -->
<g id="node7" class="node">
<title>Node7</title>
<g id="a_node7"><a xlink:href="_fbc_validator_8cpp.html" target="_top" xlink:title="Base class for SBML Validators.">
<polygon fill="white" stroke="black" points="626.5,-0.5 626.5,-19.5 723.5,-19.5 723.5,-0.5 626.5,-0.5"/>
<text text-anchor="middle" x="675" y="-7.5" font-family="Helvetica,sans-Serif" font-size="10.00">FbcValidator.cpp</text>
</a>
</g>
</g>
<!-- Node2&#45;&gt;Node7 -->
<g id="edge6" class="edge">
<title>Node2&#45;&gt;Node7</title>
<path fill="none" stroke="midnightblue" d="M440.85,-54.6C495.65,-44.4 578.23,-29.02 629.26,-19.52"/>
<polygon fill="midnightblue" stroke="midnightblue" points="440.14,-51.17 430.95,-56.44 441.42,-58.05 440.14,-51.17"/>
</g>
<!-- Node9&#45;&gt;Node2 -->
<g id="edge9" class="edge">
<title>Node9&#45;&gt;Node2</title>
<path fill="none" stroke="midnightblue" d="M481.01,-158.54C478.68,-144.51 473.69,-125.4 463,-112 449.26,-94.76 426.99,-82.86 409.76,-75.65"/>
<polygon fill="midnightblue" stroke="midnightblue" points="477.55,-159.06 482.36,-168.5 484.48,-158.12 477.55,-159.06"/>
</g>
<!-- Node10 -->
<g id="node10" class="node">
<title>Node10</title>
<g id="a_node10"><a xlink:href="_fbc_model_plugin_8h.html" target="_top" xlink:title="Definition of FbcModelPlugin, the plugin class of fbc package for the Model element.">
<polygon fill="white" stroke="black" points="726.5,-112.5 726.5,-131.5 829.5,-131.5 829.5,-112.5 726.5,-112.5"/>
<text text-anchor="middle" x="778" y="-119.5" font-family="Helvetica,sans-Serif" font-size="10.00">FbcModelPlugin.h</text>
</a>
</g>
</g>
<!-- Node9&#45;&gt;Node10 -->
<g id="edge10" class="edge">
<title>Node9&#45;&gt;Node10</title>
<path fill="none" stroke="midnightblue" d="M529.46,-167.75C604.65,-153.52 680.82,-139.99 729.09,-131.52"/>
<polygon fill="midnightblue" stroke="midnightblue" points="528.51,-164.37 519.34,-169.67 529.81,-171.24 528.51,-164.37"/>
</g>
<!-- Node16 -->
<g id="node16" class="node">
<title>Node16</title>
<g id="a_node16"><a xlink:href="_fbc_species_plugin_8h.html" target="_top" xlink:title="Definition of FbcSpeciesPlugin, the plugin class of the fbc package for the Species element.">
<polygon fill="white" stroke="black" points="511,-112.5 511,-131.5 621,-131.5 621,-112.5 511,-112.5"/>
<text text-anchor="middle" x="566" y="-119.5" font-family="Helvetica,sans-Serif" font-size="10.00">FbcSpeciesPlugin.h</text>
</a>
</g>
</g>
<!-- Node9&#45;&gt;Node16 -->
<g id="edge17" class="edge">
<title>Node9&#45;&gt;Node16</title>
<path fill="none" stroke="midnightblue" d="M505.1,-162.62C520.26,-152.76 539.88,-139.99 552.7,-131.65"/>
<polygon fill="midnightblue" stroke="midnightblue" points="502.81,-159.94 496.34,-168.32 506.63,-165.8 502.81,-159.94"/>
</g>
<!-- Node18 -->
<g id="node18" class="node">
<title>Node18</title>
<g id="a_node18"><a xlink:href="_objective_8cpp.html" target="_top" xlink:title="Implementation of the Objective class.">
<polygon fill="white" stroke="black" points="371.5,-112.5 371.5,-131.5 454.5,-131.5 454.5,-112.5 371.5,-112.5"/>
<text text-anchor="middle" x="413" y="-119.5" font-family="Helvetica,sans-Serif" font-size="10.00">Objective.cpp</text>
</a>
</g>
</g>
<!-- Node9&#45;&gt;Node18 -->
<g id="edge21" class="edge">
<title>Node9&#45;&gt;Node18</title>
<path fill="none" stroke="midnightblue" d="M463.69,-162.1C451.09,-152.38 435.07,-140.03 424.45,-131.83"/>
<polygon fill="midnightblue" stroke="midnightblue" points="461.7,-164.99 471.75,-168.32 465.97,-159.44 461.7,-164.99"/>
</g>
<!-- Node10&#45;&gt;Node2 -->
<g id="edge11" class="edge">
<title>Node10&#45;&gt;Node2</title>
<path fill="none" stroke="midnightblue" d="M716.07,-112.49C641.72,-102.27 517.91,-85.26 444.61,-75.19"/>
<polygon fill="midnightblue" stroke="midnightblue" points="715.83,-115.99 726.22,-113.88 716.79,-109.06 715.83,-115.99"/>
</g>
<!-- Node11 -->
<g id="node11" class="node">
<title>Node11</title>
<g id="a_node11"><a xlink:href="_fbc_extension_8cpp.html" target="_top" xlink:title="Implementation of FbcExtension, the core module of fbc package.">
<polygon fill="white" stroke="black" points="603,-56.5 603,-75.5 705,-75.5 705,-56.5 603,-56.5"/>
<text text-anchor="middle" x="654" y="-63.5" font-family="Helvetica,sans-Serif" font-size="10.00">FbcExtension.cpp</text>
</a>
</g>
</g>
<!-- Node10&#45;&gt;Node11 -->
<g id="edge12" class="edge">
<title>Node10&#45;&gt;Node11</title>
<path fill="none" stroke="midnightblue" d="M748.99,-108.37C725.77,-98.26 693.84,-84.35 673.56,-75.52"/>
<polygon fill="midnightblue" stroke="midnightblue" points="747.79,-111.66 758.35,-112.44 750.58,-105.24 747.79,-111.66"/>
</g>
<!-- Node12 -->
<g id="node12" class="node">
<title>Node12</title>
<g id="a_node12"><a xlink:href="_fbc_model_plugin_8cpp.html" target="_top" xlink:title="Implementation of FbcModelPlugin, the plugin class of the fbc package for the Model element.">
<polygon fill="white" stroke="black" points="1158,-56.5 1158,-75.5 1272,-75.5 1272,-56.5 1158,-56.5"/>
<text text-anchor="middle" x="1215" y="-63.5" font-family="Helvetica,sans-Serif" font-size="10.00">FbcModelPlugin.cpp</text>
</a>
</g>
</g>
<!-- Node10&#45;&gt;Node12 -->
<g id="edge13" class="edge">
<title>Node10&#45;&gt;Node12</title>
<path fill="none" stroke="midnightblue" d="M839.68,-113.8C913.33,-105.14 1040.22,-90.01 1149,-76 1151.87,-75.63 1154.8,-75.25 1157.77,-74.86"/>
<polygon fill="midnightblue" stroke="midnightblue" points="839.17,-110.34 829.65,-114.98 839.99,-117.29 839.17,-110.34"/>
</g>
<!-- Node13 -->
<g id="node13" class="node">
<title>Node13</title>
<g id="a_node13"><a xlink:href="_fbc_association_8cpp.html" target="_top" xlink:title="Implementation of the FbcAssociation class.">
<polygon fill="white" stroke="black" points="723,-56.5 723,-75.5 833,-75.5 833,-56.5 723,-56.5"/>
<text text-anchor="middle" x="778" y="-63.5" font-family="Helvetica,sans-Serif" font-size="10.00">FbcAssociation.cpp</text>
</a>
</g>
</g>
<!-- Node10&#45;&gt;Node13 -->
<g id="edge14" class="edge">
<title>Node10&#45;&gt;Node13</title>
<path fill="none" stroke="midnightblue" d="M778,-101.8C778,-92.91 778,-82.78 778,-75.75"/>
<polygon fill="midnightblue" stroke="midnightblue" points="774.5,-102.08 778,-112.08 781.5,-102.08 774.5,-102.08"/>
</g>
<!-- Node14 -->
<g id="node14" class="node">
<title>Node14</title>
<g id="a_node14"><a xlink:href="_gene_product_association_8cpp.html" target="_top" xlink:title="Implementation of the GeneProductAssociation class.">
<polygon fill="white" stroke="black" points="851.5,-56.5 851.5,-75.5 1006.5,-75.5 1006.5,-56.5 851.5,-56.5"/>
<text text-anchor="middle" x="929" y="-63.5" font-family="Helvetica,sans-Serif" font-size="10.00">GeneProductAssociation.cpp</text>
</a>
</g>
</g>
<!-- Node10&#45;&gt;Node14 -->
<g id="edge15" class="edge">
<title>Node10&#45;&gt;Node14</title>
<path fill="none" stroke="midnightblue" d="M811.45,-109.04C839.86,-98.88 879.94,-84.55 905.19,-75.52"/>
<polygon fill="midnightblue" stroke="midnightblue" points="810.16,-105.78 801.93,-112.44 812.52,-112.37 810.16,-105.78"/>
</g>
<!-- Node15 -->
<g id="node15" class="node">
<title>Node15</title>
<g id="a_node15"><a xlink:href="_gene_product_ref_8cpp.html" target="_top" xlink:title="Implementation of the GeneProductRef class.">
<polygon fill="white" stroke="black" points="1024.5,-56.5 1024.5,-75.5 1139.5,-75.5 1139.5,-56.5 1024.5,-56.5"/>
<text text-anchor="middle" x="1082" y="-63.5" font-family="Helvetica,sans-Serif" font-size="10.00">GeneProductRef.cpp</text>
</a>
</g>
</g>
<!-- Node10&#45;&gt;Node15 -->
<g id="edge16" class="edge">
<title>Node10&#45;&gt;Node15</title>
<path fill="none" stroke="midnightblue" d="M836.19,-110.66C893.64,-100.46 980.45,-85.04 1034.06,-75.52"/>
<polygon fill="midnightblue" stroke="midnightblue" points="835.4,-107.25 826.17,-112.44 836.63,-114.14 835.4,-107.25"/>
</g>
<!-- Node16&#45;&gt;Node2 -->
<g id="edge18" class="edge">
<title>Node16&#45;&gt;Node2</title>
<path fill="none" stroke="midnightblue" d="M527.68,-109.57C493.54,-99.38 444.34,-84.7 413.55,-75.52"/>
<polygon fill="midnightblue" stroke="midnightblue" points="526.74,-112.94 537.32,-112.44 528.74,-106.23 526.74,-112.94"/>
</g>
<!-- Node16&#45;&gt;Node11 -->
<g id="edge19" class="edge">
<title>Node16&#45;&gt;Node11</title>
<path fill="none" stroke="midnightblue" d="M588.98,-106.9C605.11,-97 626.18,-84.07 639.9,-75.65"/>
<polygon fill="midnightblue" stroke="midnightblue" points="586.83,-104.11 580.14,-112.32 590.49,-110.08 586.83,-104.11"/>
</g>
<!-- Node17 -->
<g id="node17" class="node">
<title>Node17</title>
<g id="a_node17"><a xlink:href="_fbc_species_plugin_8cpp.html" target="_top" xlink:title="Implementation of FbcSpeciesPlugin, the plugin class of the fbc package for the Species element.">
<polygon fill="white" stroke="black" points="463,-56.5 463,-75.5 585,-75.5 585,-56.5 463,-56.5"/>
<text text-anchor="middle" x="524" y="-63.5" font-family="Helvetica,sans-Serif" font-size="10.00">FbcSpeciesPlugin.cpp</text>
</a>
</g>
</g>
<!-- Node16&#45;&gt;Node17 -->
<g id="edge20" class="edge">
<title>Node16&#45;&gt;Node17</title>
<path fill="none" stroke="midnightblue" d="M552.89,-104.14C545.57,-94.74 536.76,-83.4 530.81,-75.75"/>
<polygon fill="midnightblue" stroke="midnightblue" points="550.16,-106.34 559.06,-112.08 555.69,-102.04 550.16,-106.34"/>
</g>
</g>
</svg>
