<?xml version="1.0" encoding="UTF-8" standalone="no"?>
<!DOCTYPE svg PUBLIC "-//W3C//DTD SVG 1.1//EN"
 "http://www.w3.org/Graphics/SVG/1.1/DTD/svg11.dtd">
<!-- Generated by graphviz version 2.43.0 (0)
 -->
<!-- Title: FormulaTokenizer.cpp Pages: 1 -->
<svg width="709pt" height="341pt"
 viewBox="0.00 0.00 709.03 341.00" xmlns="http://www.w3.org/2000/svg" xmlns:xlink="http://www.w3.org/1999/xlink">
<g id="graph0" class="graph" transform="scale(1 1) rotate(0) translate(4 337)">
<title>FormulaTokenizer.cpp</title>
<polygon fill="white" stroke="transparent" points="-4,4 -4,-337 705.03,-337 705.03,4 -4,4"/>
<!-- Node1 -->
<g id="node1" class="node">
<title>Node1</title>
<g id="a_node1"><a xlink:title="Tokenizes an SBML formula string.">
<polygon fill="#bfbfbf" stroke="black" points="334.03,-313.5 334.03,-332.5 456.03,-332.5 456.03,-313.5 334.03,-313.5"/>
<text text-anchor="middle" x="395.03" y="-320.5" font-family="Helvetica,sans-Serif" font-size="10.00">FormulaTokenizer.cpp</text>
</a>
</g>
</g>
<!-- Node2 -->
<g id="node2" class="node">
<title>Node2</title>
<g id="a_node2"><a xlink:title=" ">
<polygon fill="white" stroke="#bfbfbf" points="253.53,-257.5 253.53,-276.5 306.53,-276.5 306.53,-257.5 253.53,-257.5"/>
<text text-anchor="middle" x="280.03" y="-264.5" font-family="Helvetica,sans-Serif" font-size="10.00">ctype.h</text>
</a>
</g>
</g>
<!-- Node1&#45;&gt;Node2 -->
<g id="edge1" class="edge">
<title>Node1&#45;&gt;Node2</title>
<path fill="none" stroke="midnightblue" d="M376.81,-313.44C358.13,-304.68 328.87,-290.94 307.41,-280.86"/>
<polygon fill="midnightblue" stroke="midnightblue" points="308.7,-277.6 298.16,-276.52 305.73,-283.93 308.7,-277.6"/>
</g>
<!-- Node3 -->
<g id="node3" class="node">
<title>Node3</title>
<g id="a_node3"><a xlink:href="common_8h.html" target="_top" xlink:title="Common functions and macros for C and C++.">
<polygon fill="white" stroke="black" points="324.53,-257.5 324.53,-276.5 465.53,-276.5 465.53,-257.5 324.53,-257.5"/>
<text text-anchor="middle" x="395.03" y="-264.5" font-family="Helvetica,sans-Serif" font-size="10.00">sbml/common/common.h</text>
</a>
</g>
</g>
<!-- Node1&#45;&gt;Node3 -->
<g id="edge2" class="edge">
<title>Node1&#45;&gt;Node3</title>
<path fill="none" stroke="midnightblue" d="M395.03,-313.08C395.03,-306.01 395.03,-295.86 395.03,-286.99"/>
<polygon fill="midnightblue" stroke="midnightblue" points="398.53,-286.75 395.03,-276.75 391.53,-286.75 398.53,-286.75"/>
</g>
<!-- Node13 -->
<g id="node13" class="node">
<title>Node13</title>
<g id="a_node13"><a xlink:href="_formula_tokenizer_8h.html" target="_top" xlink:title="Tokenizes an SBML formula string.">
<polygon fill="white" stroke="black" points="535.03,-257.5 535.03,-276.5 701.03,-276.5 701.03,-257.5 535.03,-257.5"/>
<text text-anchor="middle" x="618.03" y="-264.5" font-family="Helvetica,sans-Serif" font-size="10.00">sbml/math/FormulaTokenizer.h</text>
</a>
</g>
</g>
<!-- Node1&#45;&gt;Node13 -->
<g id="edge16" class="edge">
<title>Node1&#45;&gt;Node13</title>
<path fill="none" stroke="midnightblue" d="M430.36,-313.44C468.94,-304.1 530.81,-289.12 572.88,-278.93"/>
<polygon fill="midnightblue" stroke="midnightblue" points="573.96,-282.27 582.86,-276.52 572.31,-275.47 573.96,-282.27"/>
</g>
<!-- Node4 -->
<g id="node4" class="node">
<title>Node4</title>
<g id="a_node4"><a xlink:href="libsbml-config_8h.html" target="_top" xlink:title="Decides whether to #include Unix or Windows configuration variables.">
<polygon fill="white" stroke="black" points="90.53,-190.5 90.53,-220.5 215.53,-220.5 215.53,-190.5 90.53,-190.5"/>
<text text-anchor="start" x="98.53" y="-208.5" font-family="Helvetica,sans-Serif" font-size="10.00">sbml/common/libsbml</text>
<text text-anchor="middle" x="153.03" y="-197.5" font-family="Helvetica,sans-Serif" font-size="10.00">&#45;config.h</text>
</a>
</g>
</g>
<!-- Node3&#45;&gt;Node4 -->
<g id="edge3" class="edge">
<title>Node3&#45;&gt;Node4</title>
<path fill="none" stroke="midnightblue" d="M360.35,-257.48C323.83,-248.49 265.4,-234.13 219.86,-222.93"/>
<polygon fill="midnightblue" stroke="midnightblue" points="220.61,-219.51 210.06,-220.52 218.94,-226.31 220.61,-219.51"/>
</g>
<!-- Node8 -->
<g id="node8" class="node">
<title>Node8</title>
<g id="a_node8"><a xlink:href="extern_8h.html" target="_top" xlink:title="Definitions of LIBSBML_EXTERN and related things.">
<polygon fill="white" stroke="black" points="250.03,-67.5 250.03,-86.5 380.03,-86.5 380.03,-67.5 250.03,-67.5"/>
<text text-anchor="middle" x="315.03" y="-74.5" font-family="Helvetica,sans-Serif" font-size="10.00">sbml/common/extern.h</text>
</a>
</g>
</g>
<!-- Node3&#45;&gt;Node8 -->
<g id="edge10" class="edge">
<title>Node3&#45;&gt;Node8</title>
<path fill="none" stroke="midnightblue" d="M388.88,-257.35C382.79,-248.51 373.47,-234.24 367.03,-221 346.11,-177.99 328.77,-124.29 320.41,-96.53"/>
<polygon fill="midnightblue" stroke="midnightblue" points="323.67,-95.23 317.48,-86.63 316.96,-97.22 323.67,-95.23"/>
</g>
<!-- Node9 -->
<g id="node9" class="node">
<title>Node9</title>
<g id="a_node9"><a xlink:title=" ">
<polygon fill="white" stroke="#bfbfbf" points="363.03,-129 363.03,-148 413.03,-148 413.03,-129 363.03,-129"/>
<text text-anchor="middle" x="388.03" y="-136" font-family="Helvetica,sans-Serif" font-size="10.00">stdio.h</text>
</a>
</g>
</g>
<!-- Node3&#45;&gt;Node9 -->
<g id="edge9" class="edge">
<title>Node3&#45;&gt;Node9</title>
<path fill="none" stroke="midnightblue" d="M388.92,-257.19C383.27,-248.46 375.27,-234.48 372.03,-221 366.82,-199.38 373.7,-174.23 379.98,-157.65"/>
<polygon fill="midnightblue" stroke="midnightblue" points="383.34,-158.7 383.9,-148.12 376.86,-156.04 383.34,-158.7"/>
</g>
<!-- Node10 -->
<g id="node10" class="node">
<title>Node10</title>
<g id="a_node10"><a xlink:href="memory_8h.html" target="_top" xlink:title=" ">
<polygon fill="white" stroke="black" points="381.53,-196 381.53,-215 492.53,-215 492.53,-196 381.53,-196"/>
<text text-anchor="middle" x="437.03" y="-203" font-family="Helvetica,sans-Serif" font-size="10.00">sbml/util/memory.h</text>
</a>
</g>
</g>
<!-- Node3&#45;&gt;Node10 -->
<g id="edge11" class="edge">
<title>Node3&#45;&gt;Node10</title>
<path fill="none" stroke="midnightblue" d="M401.04,-257.48C407.28,-248.64 417.2,-234.59 425.04,-223.48"/>
<polygon fill="midnightblue" stroke="midnightblue" points="428.11,-225.2 431.02,-215.01 422.39,-221.16 428.11,-225.2"/>
</g>
<!-- Node11 -->
<g id="node11" class="node">
<title>Node11</title>
<g id="a_node11"><a xlink:href="util_8h.html" target="_top" xlink:title="Utility functions.">
<polygon fill="white" stroke="black" points="510.53,-196 510.53,-215 597.53,-215 597.53,-196 510.53,-196"/>
<text text-anchor="middle" x="554.03" y="-203" font-family="Helvetica,sans-Serif" font-size="10.00">sbml/util/util.h</text>
</a>
</g>
</g>
<!-- Node3&#45;&gt;Node11 -->
<g id="edge12" class="edge">
<title>Node3&#45;&gt;Node11</title>
<path fill="none" stroke="midnightblue" d="M417.81,-257.48C445.08,-247.27 490.94,-230.11 521.83,-218.55"/>
<polygon fill="midnightblue" stroke="midnightblue" points="523.15,-221.79 531.29,-215.01 520.7,-215.24 523.15,-221.79"/>
</g>
<!-- Node5 -->
<g id="node5" class="node">
<title>Node5</title>
<g id="a_node5"><a xlink:title=" ">
<polygon fill="white" stroke="#bfbfbf" points="89.53,-0.5 89.53,-30.5 214.53,-30.5 214.53,-0.5 89.53,-0.5"/>
<text text-anchor="start" x="97.53" y="-18.5" font-family="Helvetica,sans-Serif" font-size="10.00">sbml/common/libsbml</text>
<text text-anchor="middle" x="152.03" y="-7.5" font-family="Helvetica,sans-Serif" font-size="10.00">&#45;namespace.h</text>
</a>
</g>
</g>
<!-- Node4&#45;&gt;Node5 -->
<g id="edge4" class="edge">
<title>Node4&#45;&gt;Node5</title>
<path fill="none" stroke="midnightblue" d="M90.23,-198.92C60.48,-192.76 27.49,-180.04 9.03,-154 -25.64,-105.1 52.93,-59.13 106.79,-34.72"/>
<polygon fill="midnightblue" stroke="midnightblue" points="108.46,-37.8 116.19,-30.56 105.63,-31.4 108.46,-37.8"/>
</g>
<!-- Node6 -->
<g id="node6" class="node">
<title>Node6</title>
<g id="a_node6"><a xlink:title=" ">
<polygon fill="white" stroke="#bfbfbf" points="18.53,-123.5 18.53,-153.5 143.53,-153.5 143.53,-123.5 18.53,-123.5"/>
<text text-anchor="start" x="26.53" y="-141.5" font-family="Helvetica,sans-Serif" font-size="10.00">sbml/common/libsbml</text>
<text text-anchor="middle" x="81.03" y="-130.5" font-family="Helvetica,sans-Serif" font-size="10.00">&#45;config&#45;common.h</text>
</a>
</g>
</g>
<!-- Node4&#45;&gt;Node6 -->
<g id="edge5" class="edge">
<title>Node4&#45;&gt;Node6</title>
<path fill="none" stroke="midnightblue" d="M137.4,-190.4C127.69,-181.62 115.01,-170.18 104.15,-160.37"/>
<polygon fill="midnightblue" stroke="midnightblue" points="106.39,-157.68 96.62,-153.58 101.7,-162.88 106.39,-157.68"/>
</g>
<!-- Node7 -->
<g id="node7" class="node">
<title>Node7</title>
<g id="a_node7"><a xlink:href="libsbml-version_8h.html" target="_top" xlink:title="Define libSBML version numbers for access from client software.">
<polygon fill="white" stroke="black" points="161.53,-123.5 161.53,-153.5 286.53,-153.5 286.53,-123.5 161.53,-123.5"/>
<text text-anchor="start" x="169.53" y="-141.5" font-family="Helvetica,sans-Serif" font-size="10.00">sbml/common/libsbml</text>
<text text-anchor="middle" x="224.03" y="-130.5" font-family="Helvetica,sans-Serif" font-size="10.00">&#45;version.h</text>
</a>
</g>
</g>
<!-- Node4&#45;&gt;Node7 -->
<g id="edge6" class="edge">
<title>Node4&#45;&gt;Node7</title>
<path fill="none" stroke="midnightblue" d="M168.43,-190.4C178.02,-181.62 190.51,-170.18 201.23,-160.37"/>
<polygon fill="midnightblue" stroke="midnightblue" points="203.64,-162.91 208.65,-153.58 198.91,-157.75 203.64,-162.91"/>
</g>
<!-- Node7&#45;&gt;Node8 -->
<g id="edge7" class="edge">
<title>Node7&#45;&gt;Node8</title>
<path fill="none" stroke="midnightblue" d="M245.59,-123.4C259.91,-114.04 278.64,-101.79 293.04,-92.38"/>
<polygon fill="midnightblue" stroke="midnightblue" points="295.33,-95.06 301.79,-86.66 291.5,-89.2 295.33,-95.06"/>
</g>
<!-- Node8&#45;&gt;Node5 -->
<g id="edge8" class="edge">
<title>Node8&#45;&gt;Node5</title>
<path fill="none" stroke="midnightblue" d="M291.67,-67.48C267.84,-58.78 230.18,-45.03 199.96,-34"/>
<polygon fill="midnightblue" stroke="midnightblue" points="201.04,-30.66 190.44,-30.52 198.64,-37.24 201.04,-30.66"/>
</g>
<!-- Node11&#45;&gt;Node8 -->
<g id="edge15" class="edge">
<title>Node11&#45;&gt;Node8</title>
<path fill="none" stroke="midnightblue" d="M541.66,-195.96C518.73,-180.33 467.76,-146.55 422.03,-123 397.79,-110.52 369.29,-98.66 347.8,-90.25"/>
<polygon fill="midnightblue" stroke="midnightblue" points="349.05,-86.99 338.46,-86.65 346.53,-93.51 349.05,-86.99"/>
</g>
<!-- Node11&#45;&gt;Node9 -->
<g id="edge13" class="edge">
<title>Node11&#45;&gt;Node9</title>
<path fill="none" stroke="midnightblue" d="M531.98,-195.87C503.13,-184.57 452.37,-164.7 419.49,-151.82"/>
<polygon fill="midnightblue" stroke="midnightblue" points="420.49,-148.45 409.9,-148.06 417.93,-154.97 420.49,-148.45"/>
</g>
<!-- Node12 -->
<g id="node12" class="node">
<title>Node12</title>
<g id="a_node12"><a xlink:title=" ">
<polygon fill="white" stroke="#bfbfbf" points="526.03,-129 526.03,-148 582.03,-148 582.03,-129 526.03,-129"/>
<text text-anchor="middle" x="554.03" y="-136" font-family="Helvetica,sans-Serif" font-size="10.00">stdarg.h</text>
</a>
</g>
</g>
<!-- Node11&#45;&gt;Node12 -->
<g id="edge14" class="edge">
<title>Node11&#45;&gt;Node12</title>
<path fill="none" stroke="midnightblue" d="M554.03,-195.73C554.03,-186.18 554.03,-170.62 554.03,-158.28"/>
<polygon fill="midnightblue" stroke="midnightblue" points="557.53,-158.13 554.03,-148.13 550.53,-158.13 557.53,-158.13"/>
</g>
<!-- Node13&#45;&gt;Node8 -->
<g id="edge17" class="edge">
<title>Node13&#45;&gt;Node8</title>
<path fill="none" stroke="midnightblue" d="M619.46,-257.33C623.07,-232.31 629.63,-159.4 591.03,-123 562.79,-96.37 462.16,-85.45 390.59,-81.01"/>
<polygon fill="midnightblue" stroke="midnightblue" points="390.44,-77.49 380.25,-80.4 390.03,-84.48 390.44,-77.49"/>
</g>
</g>
</svg>
