<?xml version="1.0" encoding="UTF-8" standalone="no"?>
<!DOCTYPE svg PUBLIC "-//W3C//DTD SVG 1.1//EN"
 "http://www.w3.org/Graphics/SVG/1.1/DTD/svg11.dtd">
<!-- Generated by graphviz version 2.43.0 (0)
 -->
<!-- Title: GeneralGlyph.h Pages: 1 -->
<svg width="767pt" height="140pt"
 viewBox="0.00 0.00 767.00 140.00" xmlns="http://www.w3.org/2000/svg" xmlns:xlink="http://www.w3.org/1999/xlink">
<g id="graph0" class="graph" transform="scale(1 1) rotate(0) translate(4 136)">
<title>GeneralGlyph.h</title>
<polygon fill="white" stroke="transparent" points="-4,4 -4,-136 763,-136 763,4 -4,4"/>
<!-- Node1 -->
<g id="node1" class="node">
<title>Node1</title>
<g id="a_node1"><a xlink:title="Definition of GeneralGlyph for SBML Layout.">
<polygon fill="#bfbfbf" stroke="black" points="491.5,-112.5 491.5,-131.5 583.5,-131.5 583.5,-112.5 491.5,-112.5"/>
<text text-anchor="middle" x="537.5" y="-119.5" font-family="Helvetica,sans-Serif" font-size="10.00">GeneralGlyph.h</text>
</a>
</g>
</g>
<!-- Node2 -->
<g id="node2" class="node">
<title>Node2</title>
<g id="a_node2"><a xlink:href="_layout_extension_types_8h.html" target="_top" xlink:title="Include all SBML types of layout extension in a single header file.">
<polygon fill="white" stroke="black" points="281.5,-56.5 281.5,-75.5 415.5,-75.5 415.5,-56.5 281.5,-56.5"/>
<text text-anchor="middle" x="348.5" y="-63.5" font-family="Helvetica,sans-Serif" font-size="10.00">LayoutExtensionTypes.h</text>
</a>
</g>
</g>
<!-- Node1&#45;&gt;Node2 -->
<g id="edge1" class="edge">
<title>Node1&#45;&gt;Node2</title>
<path fill="none" stroke="midnightblue" d="M497.49,-109.57C461.83,-99.38 410.46,-84.7 378.31,-75.52"/>
<polygon fill="midnightblue" stroke="midnightblue" points="496.98,-113.06 507.55,-112.44 498.9,-106.33 496.98,-113.06"/>
</g>
<!-- Node8 -->
<g id="node8" class="node">
<title>Node8</title>
<g id="a_node8"><a xlink:href="_general_glyph_8cpp.html" target="_top" xlink:title="Implementation of GeneralGlyph for SBML Layout.">
<polygon fill="white" stroke="black" points="433.5,-56.5 433.5,-75.5 537.5,-75.5 537.5,-56.5 433.5,-56.5"/>
<text text-anchor="middle" x="485.5" y="-63.5" font-family="Helvetica,sans-Serif" font-size="10.00">GeneralGlyph.cpp</text>
</a>
</g>
</g>
<!-- Node1&#45;&gt;Node8 -->
<g id="edge7" class="edge">
<title>Node1&#45;&gt;Node8</title>
<path fill="none" stroke="midnightblue" d="M521.82,-104.72C512.66,-95.2 501.45,-83.56 493.93,-75.75"/>
<polygon fill="midnightblue" stroke="midnightblue" points="519.46,-107.31 528.91,-112.08 524.5,-102.45 519.46,-107.31"/>
</g>
<!-- Node9 -->
<g id="node9" class="node">
<title>Node9</title>
<g id="a_node9"><a xlink:href="_layout_8cpp.html" target="_top" xlink:title="Implementation of Layout for SBML Layout.">
<polygon fill="white" stroke="black" points="555.5,-56.5 555.5,-75.5 625.5,-75.5 625.5,-56.5 555.5,-56.5"/>
<text text-anchor="middle" x="590.5" y="-63.5" font-family="Helvetica,sans-Serif" font-size="10.00">Layout.cpp</text>
</a>
</g>
</g>
<!-- Node1&#45;&gt;Node9 -->
<g id="edge8" class="edge">
<title>Node1&#45;&gt;Node9</title>
<path fill="none" stroke="midnightblue" d="M553.48,-104.72C562.82,-95.2 574.25,-83.56 581.91,-75.75"/>
<polygon fill="midnightblue" stroke="midnightblue" points="550.76,-102.49 546.25,-112.08 555.75,-107.4 550.76,-102.49"/>
</g>
<!-- Node10 -->
<g id="node10" class="node">
<title>Node10</title>
<g id="a_node10"><a xlink:href="_reference_glyph_8cpp.html" target="_top" xlink:title="Implementation of ReferenceGlyph for SBML Layout.">
<polygon fill="white" stroke="black" points="644,-56.5 644,-75.5 759,-75.5 759,-56.5 644,-56.5"/>
<text text-anchor="middle" x="701.5" y="-63.5" font-family="Helvetica,sans-Serif" font-size="10.00">ReferenceGlyph.cpp</text>
</a>
</g>
</g>
<!-- Node1&#45;&gt;Node10 -->
<g id="edge9" class="edge">
<title>Node1&#45;&gt;Node10</title>
<path fill="none" stroke="midnightblue" d="M573.02,-109.3C603.92,-99.13 647.97,-84.62 675.64,-75.52"/>
<polygon fill="midnightblue" stroke="midnightblue" points="571.89,-105.99 563.49,-112.44 574.08,-112.64 571.89,-105.99"/>
</g>
<!-- Node3 -->
<g id="node3" class="node">
<title>Node3</title>
<g id="a_node3"><a xlink:href="_graphical_object_8cpp.html" target="_top" xlink:title="Implementation of GraphicalObject for SBML Layout.">
<polygon fill="white" stroke="black" points="0,-0.5 0,-19.5 115,-19.5 115,-0.5 0,-0.5"/>
<text text-anchor="middle" x="57.5" y="-7.5" font-family="Helvetica,sans-Serif" font-size="10.00">GraphicalObject.cpp</text>
</a>
</g>
</g>
<!-- Node2&#45;&gt;Node3 -->
<g id="edge2" class="edge">
<title>Node2&#45;&gt;Node3</title>
<path fill="none" stroke="midnightblue" d="M292.46,-54.6C237.46,-44.4 154.6,-29.02 103.39,-19.52"/>
<polygon fill="midnightblue" stroke="midnightblue" points="291.92,-58.06 302.39,-56.44 293.2,-51.18 291.92,-58.06"/>
</g>
<!-- Node4 -->
<g id="node4" class="node">
<title>Node4</title>
<g id="a_node4"><a xlink:href="_layout_validator_8cpp.html" target="_top" xlink:title="Implementation of the LayoutValidator class.">
<polygon fill="white" stroke="black" points="133,-0.5 133,-19.5 246,-19.5 246,-0.5 133,-0.5"/>
<text text-anchor="middle" x="189.5" y="-7.5" font-family="Helvetica,sans-Serif" font-size="10.00">LayoutValidator.cpp</text>
</a>
</g>
</g>
<!-- Node2&#45;&gt;Node4 -->
<g id="edge3" class="edge">
<title>Node2&#45;&gt;Node4</title>
<path fill="none" stroke="midnightblue" d="M313.67,-53.17C283.73,-43 241.28,-28.59 214.58,-19.52"/>
<polygon fill="midnightblue" stroke="midnightblue" points="312.71,-56.54 323.31,-56.44 314.96,-49.91 312.71,-56.54"/>
</g>
<!-- Node5 -->
<g id="node5" class="node">
<title>Node5</title>
<g id="a_node5"><a xlink:href="_render_list_of_layouts_plugin_8cpp.html" target="_top" xlink:title="Implementation of RenderListOfLayoutsPlugin, the plugin class of the fbc package for the Model elemen...">
<polygon fill="white" stroke="black" points="264.5,-0.5 264.5,-19.5 432.5,-19.5 432.5,-0.5 264.5,-0.5"/>
<text text-anchor="middle" x="348.5" y="-7.5" font-family="Helvetica,sans-Serif" font-size="10.00">RenderListOfLayoutsPlugin.cpp</text>
</a>
</g>
</g>
<!-- Node2&#45;&gt;Node5 -->
<g id="edge4" class="edge">
<title>Node2&#45;&gt;Node5</title>
<path fill="none" stroke="midnightblue" d="M348.5,-45.8C348.5,-36.91 348.5,-26.78 348.5,-19.75"/>
<polygon fill="midnightblue" stroke="midnightblue" points="345,-46.08 348.5,-56.08 352,-46.08 345,-46.08"/>
</g>
<!-- Node6 -->
<g id="node6" class="node">
<title>Node6</title>
<g id="a_node6"><a xlink:href="_render_layout_converter_8cpp.html" target="_top" xlink:title="Simple converter to convert Layout + Render from l2 to L3 and vice versa.">
<polygon fill="white" stroke="black" points="450.5,-0.5 450.5,-19.5 602.5,-19.5 602.5,-0.5 450.5,-0.5"/>
<text text-anchor="middle" x="526.5" y="-7.5" font-family="Helvetica,sans-Serif" font-size="10.00">RenderLayoutConverter.cpp</text>
</a>
</g>
</g>
<!-- Node2&#45;&gt;Node6 -->
<g id="edge5" class="edge">
<title>Node2&#45;&gt;Node6</title>
<path fill="none" stroke="midnightblue" d="M386.62,-53.44C420.18,-43.26 468.27,-28.66 498.43,-19.52"/>
<polygon fill="midnightblue" stroke="midnightblue" points="385.26,-50.19 376.7,-56.44 387.29,-56.89 385.26,-50.19"/>
</g>
<!-- Node7 -->
<g id="node7" class="node">
<title>Node7</title>
<g id="a_node7"><a xlink:href="_render_utilities_8cpp.html" target="_top" xlink:title="implementation of RenderUtilities, a class of utility functions for the render package">
<polygon fill="white" stroke="black" points="620.5,-0.5 620.5,-19.5 730.5,-19.5 730.5,-0.5 620.5,-0.5"/>
<text text-anchor="middle" x="675.5" y="-7.5" font-family="Helvetica,sans-Serif" font-size="10.00">RenderUtilities.cpp</text>
</a>
</g>
</g>
<!-- Node2&#45;&gt;Node7 -->
<g id="edge6" class="edge">
<title>Node2&#45;&gt;Node7</title>
<path fill="none" stroke="midnightblue" d="M410.32,-54.79C472.11,-44.59 566.03,-29.08 623.93,-19.52"/>
<polygon fill="midnightblue" stroke="midnightblue" points="409.61,-51.36 400.31,-56.44 410.75,-58.27 409.61,-51.36"/>
</g>
</g>
</svg>
