<?xml version="1.0" encoding="UTF-8" standalone="no"?>
<!DOCTYPE svg PUBLIC "-//W3C//DTD SVG 1.1//EN"
 "http://www.w3.org/Graphics/SVG/1.1/DTD/svg11.dtd">
<!-- Generated by graphviz version 2.43.0 (0)
 -->
<!-- Title: GeometryDefinition.h Pages: 1 -->
<svg width="1593pt" height="308pt"
 viewBox="0.00 0.00 1593.50 308.00" xmlns="http://www.w3.org/2000/svg" xmlns:xlink="http://www.w3.org/1999/xlink">
<g id="graph0" class="graph" transform="scale(1 1) rotate(0) translate(4 304)">
<title>GeometryDefinition.h</title>
<polygon fill="white" stroke="transparent" points="-4,4 -4,-304 1589.5,-304 1589.5,4 -4,4"/>
<!-- Node1 -->
<g id="node1" class="node">
<title>Node1</title>
<g id="a_node1"><a xlink:title="Definition of the GeometryDefinition class.">
<polygon fill="#bfbfbf" stroke="black" points="413,-280.5 413,-299.5 535,-299.5 535,-280.5 413,-280.5"/>
<text text-anchor="middle" x="474" y="-287.5" font-family="Helvetica,sans-Serif" font-size="10.00">GeometryDefinition.h</text>
</a>
</g>
</g>
<!-- Node2 -->
<g id="node2" class="node">
<title>Node2</title>
<g id="a_node2"><a xlink:href="_spatial_extension_types_8h.html" target="_top" xlink:title="Definition of SpatialExtensionTypes.">
<polygon fill="white" stroke="black" points="823.5,-56.5 823.5,-75.5 958.5,-75.5 958.5,-56.5 823.5,-56.5"/>
<text text-anchor="middle" x="891" y="-63.5" font-family="Helvetica,sans-Serif" font-size="10.00">SpatialExtensionTypes.h</text>
</a>
</g>
</g>
<!-- Node1&#45;&gt;Node2 -->
<g id="edge1" class="edge">
<title>Node1&#45;&gt;Node2</title>
<path fill="none" stroke="midnightblue" d="M402.57,-284.8C248.59,-273.36 -91.7,-233.85 24,-112 51.4,-83.14 623.96,-71.27 823.3,-68"/>
<polygon fill="midnightblue" stroke="midnightblue" points="402.66,-288.32 412.88,-285.55 403.16,-281.34 402.66,-288.32"/>
</g>
<!-- Node4 -->
<g id="node4" class="node">
<title>Node4</title>
<g id="a_node4"><a xlink:href="_analytic_geometry_8h.html" target="_top" xlink:title="Definition of the AnalyticGeometry class.">
<polygon fill="white" stroke="black" points="201.5,-168.5 201.5,-187.5 314.5,-187.5 314.5,-168.5 201.5,-168.5"/>
<text text-anchor="middle" x="258" y="-175.5" font-family="Helvetica,sans-Serif" font-size="10.00">AnalyticGeometry.h</text>
</a>
</g>
</g>
<!-- Node1&#45;&gt;Node4 -->
<g id="edge3" class="edge">
<title>Node1&#45;&gt;Node4</title>
<path fill="none" stroke="midnightblue" d="M419.03,-278C390.88,-270.9 356.79,-259.95 329,-244 302.33,-228.69 277.32,-201.81 265.36,-187.9"/>
<polygon fill="midnightblue" stroke="midnightblue" points="418.56,-281.49 429.11,-280.45 420.21,-274.69 418.56,-281.49"/>
</g>
<!-- Node7 -->
<g id="node7" class="node">
<title>Node7</title>
<g id="a_node7"><a xlink:href="_geometry_definition_8cpp.html" target="_top" xlink:title="Implementation of the GeometryDefinition class.">
<polygon fill="white" stroke="black" points="189.5,-112.5 189.5,-131.5 322.5,-131.5 322.5,-112.5 189.5,-112.5"/>
<text text-anchor="middle" x="256" y="-119.5" font-family="Helvetica,sans-Serif" font-size="10.00">GeometryDefinition.cpp</text>
</a>
</g>
</g>
<!-- Node1&#45;&gt;Node7 -->
<g id="edge17" class="edge">
<title>Node1&#45;&gt;Node7</title>
<path fill="none" stroke="midnightblue" d="M456.28,-274C428.46,-250.62 372.56,-204.4 323,-168 304.93,-154.73 283.28,-140.47 269.58,-131.64"/>
<polygon fill="midnightblue" stroke="midnightblue" points="454.08,-276.71 463.98,-280.48 458.59,-271.36 454.08,-276.71"/>
</g>
<!-- Node10 -->
<g id="node10" class="node">
<title>Node10</title>
<g id="a_node10"><a xlink:href="_c_s_geometry_8h.html" target="_top" xlink:title="Definition of the CSGeometry class.">
<polygon fill="white" stroke="black" points="409,-168.5 409,-187.5 495,-187.5 495,-168.5 409,-168.5"/>
<text text-anchor="middle" x="452" y="-175.5" font-family="Helvetica,sans-Serif" font-size="10.00">CSGeometry.h</text>
</a>
</g>
</g>
<!-- Node1&#45;&gt;Node10 -->
<g id="edge10" class="edge">
<title>Node1&#45;&gt;Node10</title>
<path fill="none" stroke="midnightblue" d="M458.28,-272.88C451.57,-264.88 444.49,-254.66 441,-244 434.59,-224.42 442.63,-200.24 447.97,-187.61"/>
<polygon fill="midnightblue" stroke="midnightblue" points="455.69,-275.24 464.98,-280.34 460.9,-270.56 455.69,-275.24"/>
</g>
<!-- Node12 -->
<g id="node12" class="node">
<title>Node12</title>
<g id="a_node12"><a xlink:href="_list_of_geometry_definitions_8h.html" target="_top" xlink:title="Definition of the ListOfGeometryDefinitions class.">
<polygon fill="white" stroke="black" points="449.5,-224.5 449.5,-243.5 604.5,-243.5 604.5,-224.5 449.5,-224.5"/>
<text text-anchor="middle" x="527" y="-231.5" font-family="Helvetica,sans-Serif" font-size="10.00">ListOfGeometryDefinitions.h</text>
</a>
</g>
</g>
<!-- Node1&#45;&gt;Node12 -->
<g id="edge18" class="edge">
<title>Node1&#45;&gt;Node12</title>
<path fill="none" stroke="midnightblue" d="M489.98,-272.72C499.32,-263.2 510.74,-251.56 518.41,-243.75"/>
<polygon fill="midnightblue" stroke="midnightblue" points="487.26,-270.49 482.75,-280.08 492.25,-275.4 487.26,-270.49"/>
</g>
<!-- Node17 -->
<g id="node17" class="node">
<title>Node17</title>
<g id="a_node17"><a xlink:href="_mixed_geometry_8h.html" target="_top" xlink:title="Definition of the MixedGeometry class.">
<polygon fill="white" stroke="black" points="555,-168.5 555,-187.5 657,-187.5 657,-168.5 555,-168.5"/>
<text text-anchor="middle" x="606" y="-175.5" font-family="Helvetica,sans-Serif" font-size="10.00">MixedGeometry.h</text>
</a>
</g>
</g>
<!-- Node1&#45;&gt;Node17 -->
<g id="edge34" class="edge">
<title>Node1&#45;&gt;Node17</title>
<path fill="none" stroke="midnightblue" d="M545.15,-283.35C571.11,-277.43 598,-265.95 614,-244 626.32,-227.09 616.8,-200.91 610.47,-187.52"/>
<polygon fill="midnightblue" stroke="midnightblue" points="544.38,-279.93 535.27,-285.35 545.77,-286.79 544.38,-279.93"/>
</g>
<!-- Node18 -->
<g id="node18" class="node">
<title>Node18</title>
<g id="a_node18"><a xlink:href="_parametric_geometry_8h.html" target="_top" xlink:title="Definition of the ParametricGeometry class.">
<polygon fill="white" stroke="black" points="675.5,-168.5 675.5,-187.5 800.5,-187.5 800.5,-168.5 675.5,-168.5"/>
<text text-anchor="middle" x="738" y="-175.5" font-family="Helvetica,sans-Serif" font-size="10.00">ParametricGeometry.h</text>
</a>
</g>
</g>
<!-- Node1&#45;&gt;Node18 -->
<g id="edge35" class="edge">
<title>Node1&#45;&gt;Node18</title>
<path fill="none" stroke="midnightblue" d="M523.88,-278.14C555.09,-270.49 595.73,-258.95 630,-244 666.91,-227.9 706.55,-201.37 725.93,-187.71"/>
<polygon fill="midnightblue" stroke="midnightblue" points="523.01,-274.75 514.1,-280.48 524.64,-281.55 523.01,-274.75"/>
</g>
<!-- Node20 -->
<g id="node20" class="node">
<title>Node20</title>
<g id="a_node20"><a xlink:href="_sampled_field_geometry_8h.html" target="_top" xlink:title="Definition of the SampledFieldGeometry class.">
<polygon fill="white" stroke="black" points="818.5,-168.5 818.5,-187.5 957.5,-187.5 957.5,-168.5 818.5,-168.5"/>
<text text-anchor="middle" x="888" y="-175.5" font-family="Helvetica,sans-Serif" font-size="10.00">SampledFieldGeometry.h</text>
</a>
</g>
</g>
<!-- Node1&#45;&gt;Node20 -->
<g id="edge42" class="edge">
<title>Node1&#45;&gt;Node20</title>
<path fill="none" stroke="midnightblue" d="M521.73,-278.2C559.82,-269.43 614.48,-256.51 662,-244 733.66,-225.13 817.31,-200.34 859.93,-187.52"/>
<polygon fill="midnightblue" stroke="midnightblue" points="520.9,-274.8 511.93,-280.45 522.46,-281.62 520.9,-274.8"/>
</g>
<!-- Node3 -->
<g id="node3" class="node">
<title>Node3</title>
<g id="a_node3"><a xlink:href="_spatial_validator_8cpp.html" target="_top" xlink:title="Definition of SpatialValidator.">
<polygon fill="white" stroke="black" points="834.5,-0.5 834.5,-19.5 947.5,-19.5 947.5,-0.5 834.5,-0.5"/>
<text text-anchor="middle" x="891" y="-7.5" font-family="Helvetica,sans-Serif" font-size="10.00">SpatialValidator.cpp</text>
</a>
</g>
</g>
<!-- Node2&#45;&gt;Node3 -->
<g id="edge2" class="edge">
<title>Node2&#45;&gt;Node3</title>
<path fill="none" stroke="midnightblue" d="M891,-45.8C891,-36.91 891,-26.78 891,-19.75"/>
<polygon fill="midnightblue" stroke="midnightblue" points="887.5,-46.08 891,-56.08 894.5,-46.08 887.5,-46.08"/>
</g>
<!-- Node4&#45;&gt;Node2 -->
<g id="edge4" class="edge">
<title>Node4&#45;&gt;Node2</title>
<path fill="none" stroke="midnightblue" d="M191.14,-176.77C110.14,-174.34 -9.91,-162.5 38,-112 64.9,-83.64 626.27,-71.47 823.34,-68.06"/>
<polygon fill="midnightblue" stroke="midnightblue" points="191.22,-180.28 201.31,-177.04 191.4,-173.28 191.22,-180.28"/>
</g>
<!-- Node5 -->
<g id="node5" class="node">
<title>Node5</title>
<g id="a_node5"><a xlink:href="_analytic_geometry_8cpp.html" target="_top" xlink:title="Implementation of the AnalyticGeometry class.">
<polygon fill="white" stroke="black" points="47,-112.5 47,-131.5 171,-131.5 171,-112.5 47,-112.5"/>
<text text-anchor="middle" x="109" y="-119.5" font-family="Helvetica,sans-Serif" font-size="10.00">AnalyticGeometry.cpp</text>
</a>
</g>
</g>
<!-- Node4&#45;&gt;Node5 -->
<g id="edge5" class="edge">
<title>Node4&#45;&gt;Node5</title>
<path fill="none" stroke="midnightblue" d="M224.63,-164.91C196.62,-154.75 157.3,-140.51 132.5,-131.52"/>
<polygon fill="midnightblue" stroke="midnightblue" points="223.8,-168.33 234.39,-168.44 226.18,-161.75 223.8,-168.33"/>
</g>
<!-- Node6 -->
<g id="node6" class="node">
<title>Node6</title>
<g id="a_node6"><a xlink:href="_geometry_8cpp.html" target="_top" xlink:title="Implementation of the Geometry class.">
<polygon fill="white" stroke="black" points="849,-112.5 849,-131.5 933,-131.5 933,-112.5 849,-112.5"/>
<text text-anchor="middle" x="891" y="-119.5" font-family="Helvetica,sans-Serif" font-size="10.00">Geometry.cpp</text>
</a>
</g>
</g>
<!-- Node4&#45;&gt;Node6 -->
<g id="edge6" class="edge">
<title>Node4&#45;&gt;Node6</title>
<path fill="none" stroke="midnightblue" d="M325.03,-171.85C427.75,-163.87 630.25,-147.79 802,-132 817.31,-130.59 834.09,-128.93 848.91,-127.42"/>
<polygon fill="midnightblue" stroke="midnightblue" points="324.51,-168.38 314.81,-172.64 325.05,-175.36 324.51,-168.38"/>
</g>
<!-- Node4&#45;&gt;Node7 -->
<g id="edge7" class="edge">
<title>Node4&#45;&gt;Node7</title>
<path fill="none" stroke="midnightblue" d="M257.29,-157.8C256.96,-148.91 256.58,-138.78 256.32,-131.75"/>
<polygon fill="midnightblue" stroke="midnightblue" points="253.8,-158.22 257.67,-168.08 260.8,-157.96 253.8,-158.22"/>
</g>
<!-- Node8 -->
<g id="node8" class="node">
<title>Node8</title>
<g id="a_node8"><a xlink:href="_list_of_geometry_definitions_8cpp.html" target="_top" xlink:title="Implementation of the ListOfGeometryDefinitions class.">
<polygon fill="white" stroke="black" points="494.5,-112.5 494.5,-131.5 661.5,-131.5 661.5,-112.5 494.5,-112.5"/>
<text text-anchor="middle" x="578" y="-119.5" font-family="Helvetica,sans-Serif" font-size="10.00">ListOfGeometryDefinitions.cpp</text>
</a>
</g>
</g>
<!-- Node4&#45;&gt;Node8 -->
<g id="edge8" class="edge">
<title>Node4&#45;&gt;Node8</title>
<path fill="none" stroke="midnightblue" d="M318.87,-166.73C379.34,-156.52 470.99,-141.06 527.53,-131.52"/>
<polygon fill="midnightblue" stroke="midnightblue" points="317.98,-163.33 308.7,-168.44 319.15,-170.23 317.98,-163.33"/>
</g>
<!-- Node9 -->
<g id="node9" class="node">
<title>Node9</title>
<g id="a_node9"><a xlink:href="_mixed_geometry_8cpp.html" target="_top" xlink:title="Implementation of the MixedGeometry class.">
<polygon fill="white" stroke="black" points="679.5,-112.5 679.5,-131.5 792.5,-131.5 792.5,-112.5 679.5,-112.5"/>
<text text-anchor="middle" x="736" y="-119.5" font-family="Helvetica,sans-Serif" font-size="10.00">MixedGeometry.cpp</text>
</a>
</g>
</g>
<!-- Node4&#45;&gt;Node9 -->
<g id="edge9" class="edge">
<title>Node4&#45;&gt;Node9</title>
<path fill="none" stroke="midnightblue" d="M324.65,-170.34C406.35,-162.04 548.98,-147.09 671,-132 673.71,-131.66 676.49,-131.31 679.29,-130.95"/>
<polygon fill="midnightblue" stroke="midnightblue" points="324.1,-166.88 314.51,-171.37 324.81,-173.84 324.1,-166.88"/>
</g>
<!-- Node10&#45;&gt;Node2 -->
<g id="edge11" class="edge">
<title>Node10&#45;&gt;Node2</title>
<path fill="none" stroke="midnightblue" d="M416.7,-164.82C386.87,-152.7 351.81,-132.92 371,-112 400.99,-79.3 689.51,-70.29 823.39,-67.87"/>
<polygon fill="midnightblue" stroke="midnightblue" points="415.54,-168.13 426.13,-168.48 418.08,-161.6 415.54,-168.13"/>
</g>
<!-- Node10&#45;&gt;Node6 -->
<g id="edge13" class="edge">
<title>Node10&#45;&gt;Node6</title>
<path fill="none" stroke="midnightblue" d="M505.37,-170.43C593.77,-159.56 768.75,-138.04 848.99,-128.17"/>
<polygon fill="midnightblue" stroke="midnightblue" points="504.79,-166.98 495.29,-171.67 505.65,-173.93 504.79,-166.98"/>
</g>
<!-- Node10&#45;&gt;Node7 -->
<g id="edge14" class="edge">
<title>Node10&#45;&gt;Node7</title>
<path fill="none" stroke="midnightblue" d="M410.98,-165.7C373.99,-155.51 320.4,-140.74 286.91,-131.52"/>
<polygon fill="midnightblue" stroke="midnightblue" points="410.37,-169.16 420.94,-168.44 412.23,-162.41 410.37,-169.16"/>
</g>
<!-- Node10&#45;&gt;Node8 -->
<g id="edge15" class="edge">
<title>Node10&#45;&gt;Node8</title>
<path fill="none" stroke="midnightblue" d="M481.16,-164.5C504.78,-154.38 537.43,-140.39 558.13,-131.52"/>
<polygon fill="midnightblue" stroke="midnightblue" points="479.78,-161.29 471.96,-168.44 482.53,-167.72 479.78,-161.29"/>
</g>
<!-- Node10&#45;&gt;Node9 -->
<g id="edge16" class="edge">
<title>Node10&#45;&gt;Node9</title>
<path fill="none" stroke="midnightblue" d="M505.13,-166.9C558.73,-156.71 640.57,-141.14 691.05,-131.55"/>
<polygon fill="midnightblue" stroke="midnightblue" points="504.3,-163.49 495.13,-168.8 505.61,-170.37 504.3,-163.49"/>
</g>
<!-- Node11 -->
<g id="node11" class="node">
<title>Node11</title>
<g id="a_node11"><a xlink:href="_c_s_geometry_8cpp.html" target="_top" xlink:title="Implementation of the CSGeometry class.">
<polygon fill="white" stroke="black" points="379.5,-112.5 379.5,-131.5 476.5,-131.5 476.5,-112.5 379.5,-112.5"/>
<text text-anchor="middle" x="428" y="-119.5" font-family="Helvetica,sans-Serif" font-size="10.00">CSGeometry.cpp</text>
</a>
</g>
</g>
<!-- Node10&#45;&gt;Node11 -->
<g id="edge12" class="edge">
<title>Node10&#45;&gt;Node11</title>
<path fill="none" stroke="midnightblue" d="M443.86,-158.69C439.82,-149.59 435.12,-139.01 431.89,-131.75"/>
<polygon fill="midnightblue" stroke="midnightblue" points="440.78,-160.37 448.04,-168.08 447.17,-157.52 440.78,-160.37"/>
</g>
<!-- Node12&#45;&gt;Node7 -->
<g id="edge26" class="edge">
<title>Node12&#45;&gt;Node7</title>
<path fill="none" stroke="midnightblue" d="M490.79,-221.19C465.2,-212.59 430.2,-200.34 400,-188 380.49,-180.03 376.18,-176.73 357,-168 328.7,-155.11 295.77,-140.52 275.4,-131.53"/>
<polygon fill="midnightblue" stroke="midnightblue" points="489.86,-224.57 500.46,-224.41 492.08,-217.93 489.86,-224.57"/>
</g>
<!-- Node12&#45;&gt;Node8 -->
<g id="edge27" class="edge">
<title>Node12&#45;&gt;Node8</title>
<path fill="none" stroke="midnightblue" d="M530.7,-214.36C533.77,-201.02 538.79,-182.88 546,-168 552.6,-154.37 563.25,-140.42 570.43,-131.74"/>
<polygon fill="midnightblue" stroke="midnightblue" points="527.26,-213.74 528.59,-224.25 534.1,-215.2 527.26,-213.74"/>
</g>
<!-- Node13 -->
<g id="node13" class="node">
<title>Node13</title>
<g id="a_node13"><a xlink:href="_geometry_8h.html" target="_top" xlink:title="Definition of the Geometry class.">
<polygon fill="white" stroke="black" points="1150.5,-168.5 1150.5,-187.5 1223.5,-187.5 1223.5,-168.5 1150.5,-168.5"/>
<text text-anchor="middle" x="1187" y="-175.5" font-family="Helvetica,sans-Serif" font-size="10.00">Geometry.h</text>
</a>
</g>
</g>
<!-- Node12&#45;&gt;Node13 -->
<g id="edge19" class="edge">
<title>Node12&#45;&gt;Node13</title>
<path fill="none" stroke="midnightblue" d="M614.94,-225.8C761.34,-213.83 1048.96,-190.29 1150.47,-181.99"/>
<polygon fill="midnightblue" stroke="midnightblue" points="614.33,-222.34 604.65,-226.65 614.9,-229.32 614.33,-222.34"/>
</g>
<!-- Node12&#45;&gt;Node17 -->
<g id="edge28" class="edge">
<title>Node12&#45;&gt;Node17</title>
<path fill="none" stroke="midnightblue" d="M548.03,-218.62C562.47,-208.76 581.14,-195.99 593.34,-187.65"/>
<polygon fill="midnightblue" stroke="midnightblue" points="545.97,-215.79 539.69,-224.32 549.92,-221.57 545.97,-215.79"/>
</g>
<!-- Node13&#45;&gt;Node2 -->
<g id="edge20" class="edge">
<title>Node13&#45;&gt;Node2</title>
<path fill="none" stroke="midnightblue" d="M1233.57,-173.02C1290.8,-166.42 1376.36,-149.96 1342,-112 1316.78,-84.14 1078.14,-72.8 958.58,-68.84"/>
<polygon fill="midnightblue" stroke="midnightblue" points="1233.16,-169.54 1223.6,-174.1 1233.92,-176.5 1233.16,-169.54"/>
</g>
<!-- Node13&#45;&gt;Node6 -->
<g id="edge25" class="edge">
<title>Node13&#45;&gt;Node6</title>
<path fill="none" stroke="midnightblue" d="M1140.24,-168.47C1083.32,-158.09 988.03,-140.7 933.23,-130.71"/>
<polygon fill="midnightblue" stroke="midnightblue" points="1139.94,-171.97 1150.41,-170.32 1141.2,-165.09 1139.94,-171.97"/>
</g>
<!-- Node14 -->
<g id="node14" class="node">
<title>Node14</title>
<g id="a_node14"><a xlink:href="_spatial_model_plugin_8h.html" target="_top" xlink:title="Definition of the SpatialModelPlugin class.">
<polygon fill="white" stroke="black" points="1389.5,-112.5 1389.5,-131.5 1508.5,-131.5 1508.5,-112.5 1389.5,-112.5"/>
<text text-anchor="middle" x="1449" y="-119.5" font-family="Helvetica,sans-Serif" font-size="10.00">SpatialModelPlugin.h</text>
</a>
</g>
</g>
<!-- Node13&#45;&gt;Node14 -->
<g id="edge21" class="edge">
<title>Node13&#45;&gt;Node14</title>
<path fill="none" stroke="midnightblue" d="M1233.79,-167.36C1283.11,-157.19 1360.07,-141.33 1407.35,-131.58"/>
<polygon fill="midnightblue" stroke="midnightblue" points="1232.79,-163.99 1223.7,-169.43 1234.21,-170.84 1232.79,-163.99"/>
</g>
<!-- Node14&#45;&gt;Node2 -->
<g id="edge22" class="edge">
<title>Node14&#45;&gt;Node2</title>
<path fill="none" stroke="midnightblue" d="M1378.94,-112.43C1377.62,-112.28 1376.3,-112.14 1375,-112 1226.69,-96.09 1052.46,-80.7 958.79,-72.69"/>
<polygon fill="midnightblue" stroke="midnightblue" points="1378.91,-115.95 1389.24,-113.58 1379.69,-108.99 1378.91,-115.95"/>
</g>
<!-- Node15 -->
<g id="node15" class="node">
<title>Node15</title>
<g id="a_node15"><a xlink:href="_spatial_extension_8cpp.html" target="_top" xlink:title="Implementation of SpatialExtension.">
<polygon fill="white" stroke="black" points="1317.5,-56.5 1317.5,-75.5 1436.5,-75.5 1436.5,-56.5 1317.5,-56.5"/>
<text text-anchor="middle" x="1377" y="-63.5" font-family="Helvetica,sans-Serif" font-size="10.00">SpatialExtension.cpp</text>
</a>
</g>
</g>
<!-- Node14&#45;&gt;Node15 -->
<g id="edge23" class="edge">
<title>Node14&#45;&gt;Node15</title>
<path fill="none" stroke="midnightblue" d="M1429.13,-106.1C1416.18,-96.38 1399.7,-84.03 1388.78,-75.83"/>
<polygon fill="midnightblue" stroke="midnightblue" points="1427.33,-109.12 1437.43,-112.32 1431.53,-103.52 1427.33,-109.12"/>
</g>
<!-- Node16 -->
<g id="node16" class="node">
<title>Node16</title>
<g id="a_node16"><a xlink:href="_spatial_model_plugin_8cpp.html" target="_top" xlink:title="Implementation of the SpatialModelPlugin class.">
<polygon fill="white" stroke="black" points="1454.5,-56.5 1454.5,-75.5 1585.5,-75.5 1585.5,-56.5 1454.5,-56.5"/>
<text text-anchor="middle" x="1520" y="-63.5" font-family="Helvetica,sans-Serif" font-size="10.00">SpatialModelPlugin.cpp</text>
</a>
</g>
</g>
<!-- Node14&#45;&gt;Node16 -->
<g id="edge24" class="edge">
<title>Node14&#45;&gt;Node16</title>
<path fill="none" stroke="midnightblue" d="M1468.59,-106.1C1481.37,-96.38 1497.61,-84.03 1508.38,-75.83"/>
<polygon fill="midnightblue" stroke="midnightblue" points="1466.25,-103.48 1460.41,-112.32 1470.48,-109.06 1466.25,-103.48"/>
</g>
<!-- Node17&#45;&gt;Node2 -->
<g id="edge29" class="edge">
<title>Node17&#45;&gt;Node2</title>
<path fill="none" stroke="midnightblue" d="M663.31,-166.5C711.95,-157.1 777.61,-143.13 802,-132 834.37,-117.22 866.69,-89.6 881.94,-75.61"/>
<polygon fill="midnightblue" stroke="midnightblue" points="662.37,-163.12 653.21,-168.43 663.69,-169.99 662.37,-163.12"/>
</g>
<!-- Node17&#45;&gt;Node6 -->
<g id="edge30" class="edge">
<title>Node17&#45;&gt;Node6</title>
<path fill="none" stroke="midnightblue" d="M661.06,-166.57C715.93,-156.17 799.01,-140.43 848.84,-130.99"/>
<polygon fill="midnightblue" stroke="midnightblue" points="660.33,-163.14 651.16,-168.44 661.63,-170.02 660.33,-163.14"/>
</g>
<!-- Node17&#45;&gt;Node7 -->
<g id="edge31" class="edge">
<title>Node17&#45;&gt;Node7</title>
<path fill="none" stroke="midnightblue" d="M544.47,-167.51C478.47,-157.32 374.6,-141.3 311.16,-131.51"/>
<polygon fill="midnightblue" stroke="midnightblue" points="544.31,-171.02 554.73,-169.09 545.38,-164.11 544.31,-171.02"/>
</g>
<!-- Node17&#45;&gt;Node8 -->
<g id="edge32" class="edge">
<title>Node17&#45;&gt;Node8</title>
<path fill="none" stroke="midnightblue" d="M596.66,-158.98C591.9,-149.82 586.34,-139.09 582.54,-131.75"/>
<polygon fill="midnightblue" stroke="midnightblue" points="593.67,-160.82 601.38,-168.08 599.88,-157.59 593.67,-160.82"/>
</g>
<!-- Node17&#45;&gt;Node9 -->
<g id="edge33" class="edge">
<title>Node17&#45;&gt;Node9</title>
<path fill="none" stroke="midnightblue" d="M636.08,-164.5C660.46,-154.38 694.14,-140.39 715.5,-131.52"/>
<polygon fill="midnightblue" stroke="midnightblue" points="634.49,-161.38 626.6,-168.44 637.18,-167.84 634.49,-161.38"/>
</g>
<!-- Node18&#45;&gt;Node2 -->
<g id="edge36" class="edge">
<title>Node18&#45;&gt;Node2</title>
<path fill="none" stroke="midnightblue" d="M802.87,-166.84C859.21,-157.35 933.13,-143.04 942,-132 958.08,-111.98 926.74,-88.18 906.43,-75.67"/>
<polygon fill="midnightblue" stroke="midnightblue" points="802.22,-163.4 792.93,-168.49 803.37,-170.3 802.22,-163.4"/>
</g>
<!-- Node18&#45;&gt;Node6 -->
<g id="edge37" class="edge">
<title>Node18&#45;&gt;Node6</title>
<path fill="none" stroke="midnightblue" d="M771.89,-165.04C800.68,-154.88 841.29,-140.55 866.87,-131.52"/>
<polygon fill="midnightblue" stroke="midnightblue" points="770.51,-161.81 762.24,-168.44 772.84,-168.42 770.51,-161.81"/>
</g>
<!-- Node18&#45;&gt;Node7 -->
<g id="edge38" class="edge">
<title>Node18&#45;&gt;Node7</title>
<path fill="none" stroke="midnightblue" d="M664.87,-167.88C537.69,-153.01 401.83,-138.39 322.79,-130.02"/>
<polygon fill="midnightblue" stroke="midnightblue" points="664.84,-171.4 675.18,-169.09 665.65,-164.45 664.84,-171.4"/>
</g>
<!-- Node18&#45;&gt;Node8 -->
<g id="edge39" class="edge">
<title>Node18&#45;&gt;Node8</title>
<path fill="none" stroke="midnightblue" d="M702.95,-165.17C672.83,-155 630.1,-140.59 603.23,-131.52"/>
<polygon fill="midnightblue" stroke="midnightblue" points="702.05,-168.56 712.65,-168.44 704.29,-161.93 702.05,-168.56"/>
</g>
<!-- Node18&#45;&gt;Node9 -->
<g id="edge40" class="edge">
<title>Node18&#45;&gt;Node9</title>
<path fill="none" stroke="midnightblue" d="M737.29,-157.8C736.96,-148.91 736.58,-138.78 736.32,-131.75"/>
<polygon fill="midnightblue" stroke="midnightblue" points="733.8,-158.22 737.67,-168.08 740.8,-157.96 733.8,-158.22"/>
</g>
<!-- Node19 -->
<g id="node19" class="node">
<title>Node19</title>
<g id="a_node19"><a xlink:href="_parametric_geometry_8cpp.html" target="_top" xlink:title="Implementation of the ParametricGeometry class.">
<polygon fill="white" stroke="black" points="989.5,-112.5 989.5,-131.5 1126.5,-131.5 1126.5,-112.5 989.5,-112.5"/>
<text text-anchor="middle" x="1058" y="-119.5" font-family="Helvetica,sans-Serif" font-size="10.00">ParametricGeometry.cpp</text>
</a>
</g>
</g>
<!-- Node18&#45;&gt;Node19 -->
<g id="edge41" class="edge">
<title>Node18&#45;&gt;Node19</title>
<path fill="none" stroke="midnightblue" d="M798.87,-166.73C859.34,-156.52 950.99,-141.06 1007.53,-131.52"/>
<polygon fill="midnightblue" stroke="midnightblue" points="797.98,-163.33 788.7,-168.44 799.15,-170.23 797.98,-163.33"/>
</g>
<!-- Node20&#45;&gt;Node2 -->
<g id="edge43" class="edge">
<title>Node20&#45;&gt;Node2</title>
<path fill="none" stroke="midnightblue" d="M967.74,-173.34C1031.91,-168.52 1114.77,-157.43 1136,-132 1141.7,-125.18 1141.69,-118.83 1136,-112 1113.79,-85.34 1023.12,-74.42 958.57,-69.98"/>
<polygon fill="midnightblue" stroke="midnightblue" points="967.34,-169.86 957.62,-174.06 967.84,-176.84 967.34,-169.86"/>
</g>
<!-- Node20&#45;&gt;Node6 -->
<g id="edge44" class="edge">
<title>Node20&#45;&gt;Node6</title>
<path fill="none" stroke="midnightblue" d="M889.07,-157.8C889.56,-148.91 890.12,-138.78 890.51,-131.75"/>
<polygon fill="midnightblue" stroke="midnightblue" points="885.55,-157.9 888.49,-168.08 892.54,-158.29 885.55,-157.9"/>
</g>
<!-- Node20&#45;&gt;Node7 -->
<g id="edge45" class="edge">
<title>Node20&#45;&gt;Node7</title>
<path fill="none" stroke="midnightblue" d="M807.93,-167.86C732.27,-160.92 452.42,-138.6 322.66,-128.29"/>
<polygon fill="midnightblue" stroke="midnightblue" points="807.99,-171.38 818.27,-168.84 808.64,-164.41 807.99,-171.38"/>
</g>
<!-- Node20&#45;&gt;Node8 -->
<g id="edge46" class="edge">
<title>Node20&#45;&gt;Node8</title>
<path fill="none" stroke="midnightblue" d="M828.66,-166.66C770.08,-156.46 681.55,-141.04 626.89,-131.52"/>
<polygon fill="midnightblue" stroke="midnightblue" points="828.43,-170.18 838.88,-168.44 829.63,-163.28 828.43,-170.18"/>
</g>
<!-- Node20&#45;&gt;Node9 -->
<g id="edge47" class="edge">
<title>Node20&#45;&gt;Node9</title>
<path fill="none" stroke="midnightblue" d="M854.33,-165.04C825.73,-154.88 785.39,-140.55 759.97,-131.52"/>
<polygon fill="midnightblue" stroke="midnightblue" points="853.32,-168.39 863.91,-168.44 855.66,-161.8 853.32,-168.39"/>
</g>
<!-- Node21 -->
<g id="node21" class="node">
<title>Node21</title>
<g id="a_node21"><a xlink:href="_sampled_field_geometry_8cpp.html" target="_top" xlink:title="Implementation of the SampledFieldGeometry class.">
<polygon fill="white" stroke="black" points="1183,-112.5 1183,-131.5 1333,-131.5 1333,-112.5 1183,-112.5"/>
<text text-anchor="middle" x="1258" y="-119.5" font-family="Helvetica,sans-Serif" font-size="10.00">SampledFieldGeometry.cpp</text>
</a>
</g>
</g>
<!-- Node20&#45;&gt;Node21 -->
<g id="edge48" class="edge">
<title>Node20&#45;&gt;Node21</title>
<path fill="none" stroke="midnightblue" d="M956.66,-166.98C1026.55,-156.78 1133.73,-141.14 1199.65,-131.52"/>
<polygon fill="midnightblue" stroke="midnightblue" points="956.02,-163.54 946.63,-168.44 957.03,-170.46 956.02,-163.54"/>
</g>
</g>
</svg>
