<?xml version="1.0" encoding="UTF-8" standalone="no"?>
<!DOCTYPE svg PUBLIC "-//W3C//DTD SVG 1.1//EN"
 "http://www.w3.org/Graphics/SVG/1.1/DTD/svg11.dtd">
<!-- Generated by graphviz version 2.43.0 (0)
 -->
<!-- Title: GradientStop.h Pages: 1 -->
<!--zoomable 588 -->
<svg id="main" version="1.1" xmlns="http://www.w3.org/2000/svg" xmlns:xlink="http://www.w3.org/1999/xlink" xml:space="preserve" onload="init(evt)">
<style type="text/css"><![CDATA[
.edge:hover path { stroke: red; }
.edge:hover polygon { stroke: red; fill: red; }
]]></style>
<script type="text/javascript"><![CDATA[
var edges = document.getElementsByTagName('g');
if (edges && edges.length) {
  for (var i=0;i<edges.length;i++) {
    if (edges[i].id.substr(0,4)=='edge') {
      edges[i].setAttribute('class','edge');
    }
  }
}
]]></script>
        <defs>
                <circle id="rim" cx="0" cy="0" r="7"/>
                <circle id="rim2" cx="0" cy="0" r="3.5"/>
                <g id="zoomPlus">
                        <use xlink:href="#rim" fill="#404040">
                                <set attributeName="fill" to="#808080" begin="zoomplus.mouseover" end="zoomplus.mouseout"/>
                        </use>
                        <path d="M-4,0h8M0,-4v8" fill="none" stroke="white" stroke-width="1.5" pointer-events="none"/>
                </g>
                <g id="zoomMin">
                        <use xlink:href="#rim" fill="#404040">
                                <set attributeName="fill" to="#808080" begin="zoomminus.mouseover" end="zoomminus.mouseout"/>
                        </use>
                        <path d="M-4,0h8" fill="none" stroke="white" stroke-width="1.5" pointer-events="none"/>
                </g>
                <g id="dirArrow">
                        <path fill="none" stroke="white" stroke-width="1.5" d="M0,-3.0v7 M-2.5,-0.5L0,-3.0L2.5,-0.5"/>
                </g>
               <g id="resetDef">
                       <use xlink:href="#rim2" fill="#404040">
                               <set attributeName="fill" to="#808080" begin="reset.mouseover" end="reset.mouseout"/>
                       </use>
               </g>
        </defs>

<script type="text/javascript">
var viewWidth = 1482;
var viewHeight = 588;
var sectionId = 'dynsection-1';
</script>
<script xlink:href="svgpan.js"/>
<svg id="graph" class="graph">
<g id="viewport">
<title>GradientStop.h</title>
<polygon fill="white" stroke="transparent" points="-4,4 -4,-584 1478,-584 1478,4 -4,4"/>
<!-- Node1 -->
<g id="node1" class="node">
<title>Node1</title>
<g id="a_node1"><a xlink:title="class for representing a stop in a gradient definition">
<polygon fill="#bfbfbf" stroke="black" points="469.5,-560.5 469.5,-579.5 558.5,-579.5 558.5,-560.5 469.5,-560.5"/>
<text text-anchor="middle" x="514" y="-567.5" font-family="Helvetica,sans-Serif" font-size="10.00">GradientStop.h</text>
</a>
</g>
</g>
<!-- Node2 -->
<g id="node2" class="node">
<title>Node2</title>
<g id="a_node2"><a xlink:href="_render_extension_types_8h.html" target="_top" xlink:title="Definition of RenderExtensionTypes.">
<polygon fill="white" stroke="black" points="716,-112.5 716,-131.5 852,-131.5 852,-112.5 716,-112.5"/>
<text text-anchor="middle" x="784" y="-119.5" font-family="Helvetica,sans-Serif" font-size="10.00">RenderExtensionTypes.h</text>
</a>
</g>
</g>
<!-- Node1&#45;&gt;Node2 -->
<g id="edge1" class="edge">
<title>Node1&#45;&gt;Node2</title>
<path fill="none" stroke="midnightblue" d="M458.95,-568.75C326.32,-566.66 0,-552.07 0,-459 0,-459 0,-459 0,-233 0,-197.09 16.45,-185.15 48,-168 105.75,-136.61 544.53,-126.62 715.81,-123.9"/>
<polygon fill="midnightblue" stroke="midnightblue" points="459.24,-572.25 469.29,-568.89 459.33,-565.25 459.24,-572.25"/>
</g>
<!-- Node9 -->
<g id="node9" class="node">
<title>Node9</title>
<g id="a_node9"><a xlink:href="_gradient_base_8h.html" target="_top" xlink:title="abstract base class for gradient definitions">
<polygon fill="white" stroke="black" points="413,-448.5 413,-467.5 505,-467.5 505,-448.5 413,-448.5"/>
<text text-anchor="middle" x="459" y="-455.5" font-family="Helvetica,sans-Serif" font-size="10.00">GradientBase.h</text>
</a>
</g>
</g>
<!-- Node1&#45;&gt;Node9 -->
<g id="edge10" class="edge">
<title>Node1&#45;&gt;Node9</title>
<path fill="none" stroke="midnightblue" d="M505.16,-551.32C493.18,-527.37 472.27,-485.55 463.3,-467.59"/>
<polygon fill="midnightblue" stroke="midnightblue" points="502.08,-552.99 509.68,-560.37 508.34,-549.86 502.08,-552.99"/>
</g>
<!-- Node32 -->
<g id="node32" class="node">
<title>Node32</title>
<g id="a_node32"><a xlink:href="_gradient_stop_8cpp.html" target="_top" xlink:title="class representing a stop in a gradient definition">
<polygon fill="white" stroke="black" points="675.5,-448.5 675.5,-467.5 776.5,-467.5 776.5,-448.5 675.5,-448.5"/>
<text text-anchor="middle" x="726" y="-455.5" font-family="Helvetica,sans-Serif" font-size="10.00">GradientStop.cpp</text>
</a>
</g>
</g>
<!-- Node1&#45;&gt;Node32 -->
<g id="edge72" class="edge">
<title>Node1&#45;&gt;Node32</title>
<path fill="none" stroke="midnightblue" d="M562.53,-557.87C589.38,-550.52 622.72,-539.38 650,-524 677.83,-508.31 704.91,-481.59 717.95,-467.81"/>
<polygon fill="midnightblue" stroke="midnightblue" points="561.36,-554.56 552.59,-560.5 563.15,-561.32 561.36,-554.56"/>
</g>
<!-- Node33 -->
<g id="node33" class="node">
<title>Node33</title>
<g id="a_node33"><a xlink:href="_list_of_gradient_stops_8h.html" target="_top" xlink:title="Definition of the ListOfGradientStops class.">
<polygon fill="white" stroke="black" points="517.5,-504.5 517.5,-523.5 640.5,-523.5 640.5,-504.5 517.5,-504.5"/>
<text text-anchor="middle" x="579" y="-511.5" font-family="Helvetica,sans-Serif" font-size="10.00">ListOfGradientStops.h</text>
</a>
</g>
</g>
<!-- Node1&#45;&gt;Node33 -->
<g id="edge73" class="edge">
<title>Node1&#45;&gt;Node33</title>
<path fill="none" stroke="midnightblue" d="M532.27,-553.82C543.92,-544.15 558.6,-531.95 568.37,-523.83"/>
<polygon fill="midnightblue" stroke="midnightblue" points="529.9,-551.24 524.44,-560.32 534.37,-556.63 529.9,-551.24"/>
</g>
<!-- Node3 -->
<g id="node3" class="node">
<title>Node3</title>
<g id="a_node3"><a xlink:href="_render_layout_plugin_8cpp.html" target="_top" xlink:title="Implementation of RenderLayoutPlugin, the plugin class of the fbc package for the Model element.">
<polygon fill="white" stroke="black" points="481,-0.5 481,-19.5 615,-19.5 615,-0.5 481,-0.5"/>
<text text-anchor="middle" x="548" y="-7.5" font-family="Helvetica,sans-Serif" font-size="10.00">RenderLayoutPlugin.cpp</text>
</a>
</g>
</g>
<!-- Node2&#45;&gt;Node3 -->
<g id="edge2" class="edge">
<title>Node2&#45;&gt;Node3</title>
<path fill="none" stroke="midnightblue" d="M705.54,-113.25C651.94,-106.4 587.12,-94.57 567,-76 550.93,-61.17 548.18,-33.58 547.88,-19.59"/>
<polygon fill="midnightblue" stroke="midnightblue" points="705.4,-116.76 715.75,-114.51 706.25,-109.81 705.4,-116.76"/>
</g>
<!-- Node4 -->
<g id="node4" class="node">
<title>Node4</title>
<g id="a_node4"><a xlink:href="_render_layout_converter_8cpp.html" target="_top" xlink:title="Simple converter to convert Layout + Render from l2 to L3 and vice versa.">
<polygon fill="white" stroke="black" points="708,-56.5 708,-75.5 860,-75.5 860,-56.5 708,-56.5"/>
<text text-anchor="middle" x="784" y="-63.5" font-family="Helvetica,sans-Serif" font-size="10.00">RenderLayoutConverter.cpp</text>
</a>
</g>
</g>
<!-- Node2&#45;&gt;Node4 -->
<g id="edge3" class="edge">
<title>Node2&#45;&gt;Node4</title>
<path fill="none" stroke="midnightblue" d="M784,-101.8C784,-92.91 784,-82.78 784,-75.75"/>
<polygon fill="midnightblue" stroke="midnightblue" points="780.5,-102.08 784,-112.08 787.5,-102.08 780.5,-102.08"/>
</g>
<!-- Node5 -->
<g id="node5" class="node">
<title>Node5</title>
<g id="a_node5"><a xlink:href="_render_utilities_8cpp.html" target="_top" xlink:title="implementation of RenderUtilities, a class of utility functions for the render package">
<polygon fill="white" stroke="black" points="871,-0.5 871,-19.5 981,-19.5 981,-0.5 871,-0.5"/>
<text text-anchor="middle" x="926" y="-7.5" font-family="Helvetica,sans-Serif" font-size="10.00">RenderUtilities.cpp</text>
</a>
</g>
</g>
<!-- Node2&#45;&gt;Node5 -->
<g id="edge4" class="edge">
<title>Node2&#45;&gt;Node5</title>
<path fill="none" stroke="midnightblue" d="M814.64,-108.11C831.57,-100.19 852.47,-89.07 869,-76 890.43,-59.06 910.2,-33.35 919.84,-19.91"/>
<polygon fill="midnightblue" stroke="midnightblue" points="812.85,-105.08 805.19,-112.39 815.74,-111.45 812.85,-105.08"/>
</g>
<!-- Node6 -->
<g id="node6" class="node">
<title>Node6</title>
<g id="a_node6"><a xlink:href="_render_utilities_8h.html" target="_top" xlink:title="Definition of RenderUtilities, a class of utility functions for the render package.">
<polygon fill="white" stroke="black" points="916,-56.5 916,-75.5 1014,-75.5 1014,-56.5 916,-56.5"/>
<text text-anchor="middle" x="965" y="-63.5" font-family="Helvetica,sans-Serif" font-size="10.00">RenderUtilities.h</text>
</a>
</g>
</g>
<!-- Node2&#45;&gt;Node6 -->
<g id="edge5" class="edge">
<title>Node2&#45;&gt;Node6</title>
<path fill="none" stroke="midnightblue" d="M822.32,-109.57C856.46,-99.38 905.66,-84.7 936.45,-75.52"/>
<polygon fill="midnightblue" stroke="midnightblue" points="821.26,-106.23 812.68,-112.44 823.26,-112.94 821.26,-106.23"/>
</g>
<!-- Node8 -->
<g id="node8" class="node">
<title>Node8</title>
<g id="a_node8"><a xlink:href="_render_validator_8cpp.html" target="_top" xlink:title="Definition of RenderValidator.">
<polygon fill="white" stroke="black" points="576,-56.5 576,-75.5 690,-75.5 690,-56.5 576,-56.5"/>
<text text-anchor="middle" x="633" y="-63.5" font-family="Helvetica,sans-Serif" font-size="10.00">RenderValidator.cpp</text>
</a>
</g>
</g>
<!-- Node2&#45;&gt;Node8 -->
<g id="edge9" class="edge">
<title>Node2&#45;&gt;Node8</title>
<path fill="none" stroke="midnightblue" d="M750.55,-109.04C722.14,-98.88 682.06,-84.55 656.81,-75.52"/>
<polygon fill="midnightblue" stroke="midnightblue" points="749.48,-112.37 760.07,-112.44 751.84,-105.78 749.48,-112.37"/>
</g>
<!-- Node6&#45;&gt;Node3 -->
<g id="edge6" class="edge">
<title>Node6&#45;&gt;Node3</title>
<path fill="none" stroke="midnightblue" d="M905.9,-57.35C828.7,-47.35 693.95,-29.9 613.65,-19.5"/>
<polygon fill="midnightblue" stroke="midnightblue" points="905.57,-60.83 915.94,-58.65 906.47,-53.89 905.57,-60.83"/>
</g>
<!-- Node6&#45;&gt;Node5 -->
<g id="edge8" class="edge">
<title>Node6&#45;&gt;Node5</title>
<path fill="none" stroke="midnightblue" d="M952.62,-47.86C945.86,-38.5 937.79,-27.33 932.32,-19.75"/>
<polygon fill="midnightblue" stroke="midnightblue" points="949.87,-50.03 958.56,-56.08 955.54,-45.93 949.87,-50.03"/>
</g>
<!-- Node7 -->
<g id="node7" class="node">
<title>Node7</title>
<g id="a_node7"><a xlink:href="_render_list_of_layouts_plugin_8cpp.html" target="_top" xlink:title="Implementation of RenderListOfLayoutsPlugin, the plugin class of the fbc package for the Model elemen...">
<polygon fill="white" stroke="black" points="1111,-0.5 1111,-19.5 1279,-19.5 1279,-0.5 1111,-0.5"/>
<text text-anchor="middle" x="1195" y="-7.5" font-family="Helvetica,sans-Serif" font-size="10.00">RenderListOfLayoutsPlugin.cpp</text>
</a>
</g>
</g>
<!-- Node6&#45;&gt;Node7 -->
<g id="edge7" class="edge">
<title>Node6&#45;&gt;Node7</title>
<path fill="none" stroke="midnightblue" d="M1011.2,-54.15C1054.66,-43.95 1118.84,-28.88 1158.73,-19.52"/>
<polygon fill="midnightblue" stroke="midnightblue" points="1010.38,-50.75 1001.44,-56.44 1011.98,-57.57 1010.38,-50.75"/>
</g>
<!-- Node9&#45;&gt;Node2 -->
<g id="edge11" class="edge">
<title>Node9&#45;&gt;Node2</title>
<path fill="none" stroke="midnightblue" d="M402.74,-454.06C288.06,-446.51 38,-421.52 38,-347 38,-347 38,-347 38,-233 38,-199.54 47.52,-185.57 76,-168 129.56,-134.97 548.84,-126 715.77,-123.72"/>
<polygon fill="midnightblue" stroke="midnightblue" points="402.54,-457.55 412.74,-454.69 402.98,-450.56 402.54,-457.55"/>
</g>
<!-- Node10 -->
<g id="node10" class="node">
<title>Node10</title>
<g id="a_node10"><a xlink:href="_default_values_8h.html" target="_top" xlink:title="Definition of the DefaultValues class.">
<polygon fill="white" stroke="black" points="977,-336.5 977,-355.5 1071,-355.5 1071,-336.5 977,-336.5"/>
<text text-anchor="middle" x="1024" y="-343.5" font-family="Helvetica,sans-Serif" font-size="10.00">DefaultValues.h</text>
</a>
</g>
</g>
<!-- Node9&#45;&gt;Node10 -->
<g id="edge12" class="edge">
<title>Node9&#45;&gt;Node10</title>
<path fill="none" stroke="midnightblue" d="M515.17,-447.83C619.17,-431.55 647.25,-431.38 747,-412 835.98,-394.71 939.72,-368.81 991.34,-355.53"/>
<polygon fill="midnightblue" stroke="midnightblue" points="514.54,-444.39 505.21,-449.41 515.63,-451.31 514.54,-444.39"/>
</g>
<!-- Node23 -->
<g id="node23" class="node">
<title>Node23</title>
<g id="a_node23"><a xlink:href="_gradient_base_8cpp.html" target="_top" xlink:title="abstract base class for gradient objects">
<polygon fill="white" stroke="black" points="313.5,-336.5 313.5,-355.5 416.5,-355.5 416.5,-336.5 313.5,-336.5"/>
<text text-anchor="middle" x="365" y="-343.5" font-family="Helvetica,sans-Serif" font-size="10.00">GradientBase.cpp</text>
</a>
</g>
</g>
<!-- Node9&#45;&gt;Node23 -->
<g id="edge42" class="edge">
<title>Node9&#45;&gt;Node23</title>
<path fill="none" stroke="midnightblue" d="M444.97,-440.59C424.71,-416.87 387.96,-373.87 372.34,-355.59"/>
<polygon fill="midnightblue" stroke="midnightblue" points="442.47,-443.04 451.62,-448.37 447.79,-438.49 442.47,-443.04"/>
</g>
<!-- Node24 -->
<g id="node24" class="node">
<title>Node24</title>
<g id="a_node24"><a xlink:href="_linear_gradient_8h.html" target="_top" xlink:title="Definition of the LinearGradient class.">
<polygon fill="white" stroke="black" points="640,-392.5 640,-411.5 738,-411.5 738,-392.5 640,-392.5"/>
<text text-anchor="middle" x="689" y="-399.5" font-family="Helvetica,sans-Serif" font-size="10.00">LinearGradient.h</text>
</a>
</g>
</g>
<!-- Node9&#45;&gt;Node24 -->
<g id="edge43" class="edge">
<title>Node9&#45;&gt;Node24</title>
<path fill="none" stroke="midnightblue" d="M505.2,-446.15C548.66,-435.95 612.84,-420.88 652.73,-411.52"/>
<polygon fill="midnightblue" stroke="midnightblue" points="504.38,-442.75 495.44,-448.44 505.98,-449.57 504.38,-442.75"/>
</g>
<!-- Node27 -->
<g id="node27" class="node">
<title>Node27</title>
<g id="a_node27"><a xlink:href="_render_information_base_8h.html" target="_top" xlink:title="Definition of the RenderInformationBase class.">
<polygon fill="white" stroke="black" points="613.5,-336.5 613.5,-355.5 754.5,-355.5 754.5,-336.5 613.5,-336.5"/>
<text text-anchor="middle" x="684" y="-343.5" font-family="Helvetica,sans-Serif" font-size="10.00">RenderInformationBase.h</text>
</a>
</g>
</g>
<!-- Node9&#45;&gt;Node27 -->
<g id="edge71" class="edge">
<title>Node9&#45;&gt;Node27</title>
<path fill="none" stroke="midnightblue" d="M503.29,-445.71C530.06,-438.02 564.41,-426.6 593,-412 624.82,-395.75 657.91,-369.28 674,-355.68"/>
<polygon fill="midnightblue" stroke="midnightblue" points="502.12,-442.41 493.44,-448.47 504.01,-449.15 502.12,-442.41"/>
</g>
<!-- Node29 -->
<g id="node29" class="node">
<title>Node29</title>
<g id="a_node29"><a xlink:href="_list_of_gradient_definitions_8h.html" target="_top" xlink:title="Definition of the ListOfGradientDefinitions class.">
<polygon fill="white" stroke="black" points="435.5,-392.5 435.5,-411.5 584.5,-411.5 584.5,-392.5 435.5,-392.5"/>
<text text-anchor="middle" x="510" y="-399.5" font-family="Helvetica,sans-Serif" font-size="10.00">ListOfGradientDefinitions.h</text>
</a>
</g>
</g>
<!-- Node9&#45;&gt;Node29 -->
<g id="edge60" class="edge">
<title>Node9&#45;&gt;Node29</title>
<path fill="none" stroke="midnightblue" d="M474.38,-440.72C483.37,-431.2 494.36,-419.56 501.74,-411.75"/>
<polygon fill="midnightblue" stroke="midnightblue" points="471.74,-438.41 467.42,-448.08 476.83,-443.22 471.74,-438.41"/>
</g>
<!-- Node30 -->
<g id="node30" class="node">
<title>Node30</title>
<g id="a_node30"><a xlink:href="_radial_gradient_8h.html" target="_top" xlink:title="Definition of the RadialGradient class.">
<polygon fill="white" stroke="black" points="282,-392.5 282,-411.5 380,-411.5 380,-392.5 282,-392.5"/>
<text text-anchor="middle" x="331" y="-399.5" font-family="Helvetica,sans-Serif" font-size="10.00">RadialGradient.h</text>
</a>
</g>
</g>
<!-- Node9&#45;&gt;Node30 -->
<g id="edge64" class="edge">
<title>Node9&#45;&gt;Node30</title>
<path fill="none" stroke="midnightblue" d="M429.38,-444.5C405.38,-434.38 372.22,-420.39 351.19,-411.52"/>
<polygon fill="midnightblue" stroke="midnightblue" points="428.14,-447.78 438.72,-448.44 430.86,-441.33 428.14,-447.78"/>
</g>
<!-- Node10&#45;&gt;Node2 -->
<g id="edge13" class="edge">
<title>Node10&#45;&gt;Node2</title>
<path fill="none" stroke="midnightblue" d="M1001.44,-330.62C990.62,-322.73 978.25,-312.09 970,-300 935.14,-248.92 970.05,-211.4 926,-168 906.29,-148.58 878.25,-137.53 852.28,-131.25"/>
<polygon fill="midnightblue" stroke="midnightblue" points="999.47,-333.51 1009.68,-336.34 1003.46,-327.76 999.47,-333.51"/>
</g>
<!-- Node11 -->
<g id="node11" class="node">
<title>Node11</title>
<g id="a_node11"><a xlink:href="_default_values_8cpp.html" target="_top" xlink:title="Implementation of the DefaultValues class.">
<polygon fill="white" stroke="black" points="978.5,-280.5 978.5,-299.5 1083.5,-299.5 1083.5,-280.5 978.5,-280.5"/>
<text text-anchor="middle" x="1031" y="-287.5" font-family="Helvetica,sans-Serif" font-size="10.00">DefaultValues.cpp</text>
</a>
</g>
</g>
<!-- Node10&#45;&gt;Node11 -->
<g id="edge14" class="edge">
<title>Node10&#45;&gt;Node11</title>
<path fill="none" stroke="midnightblue" d="M1026.45,-326.1C1027.61,-317.14 1028.94,-306.86 1029.87,-299.75"/>
<polygon fill="midnightblue" stroke="midnightblue" points="1022.97,-325.72 1025.16,-336.08 1029.91,-326.62 1022.97,-325.72"/>
</g>
<!-- Node12 -->
<g id="node12" class="node">
<title>Node12</title>
<g id="a_node12"><a xlink:href="_list_of_global_render_information_8h.html" target="_top" xlink:title="Definition of the ListOfGlobalRenderInformation class.">
<polygon fill="white" stroke="black" points="1102.5,-280.5 1102.5,-299.5 1279.5,-299.5 1279.5,-280.5 1102.5,-280.5"/>
<text text-anchor="middle" x="1191" y="-287.5" font-family="Helvetica,sans-Serif" font-size="10.00">ListOfGlobalRenderInformation.h</text>
</a>
</g>
</g>
<!-- Node10&#45;&gt;Node12 -->
<g id="edge15" class="edge">
<title>Node10&#45;&gt;Node12</title>
<path fill="none" stroke="midnightblue" d="M1060.17,-333.3C1091.64,-323.13 1136.49,-308.62 1164.66,-299.52"/>
<polygon fill="midnightblue" stroke="midnightblue" points="1058.9,-330.04 1050.46,-336.44 1061.05,-336.7 1058.9,-330.04"/>
</g>
<!-- Node19 -->
<g id="node19" class="node">
<title>Node19</title>
<g id="a_node19"><a xlink:href="_list_of_local_render_information_8h.html" target="_top" xlink:title="Definition of the ListOfLocalRenderInformation class.">
<polygon fill="white" stroke="black" points="370.5,-224.5 370.5,-243.5 541.5,-243.5 541.5,-224.5 370.5,-224.5"/>
<text text-anchor="middle" x="456" y="-231.5" font-family="Helvetica,sans-Serif" font-size="10.00">ListOfLocalRenderInformation.h</text>
</a>
</g>
</g>
<!-- Node10&#45;&gt;Node19 -->
<g id="edge32" class="edge">
<title>Node10&#45;&gt;Node19</title>
<path fill="none" stroke="midnightblue" d="M969.84,-334.51C857.87,-312.83 602.79,-263.43 500.07,-243.53"/>
<polygon fill="midnightblue" stroke="midnightblue" points="969.42,-337.99 979.9,-336.46 970.75,-331.12 969.42,-337.99"/>
</g>
<!-- Node12&#45;&gt;Node2 -->
<g id="edge16" class="edge">
<title>Node12&#45;&gt;Node2</title>
<path fill="none" stroke="midnightblue" d="M1125.78,-278.68C1080.74,-270.52 1025.71,-258.16 1007,-244 976.05,-220.58 994.89,-191.5 964,-168 932.08,-143.72 888.64,-132.41 852.43,-127.2"/>
<polygon fill="midnightblue" stroke="midnightblue" points="1125.35,-282.16 1135.81,-280.46 1126.57,-275.27 1125.35,-282.16"/>
</g>
<!-- Node12&#45;&gt;Node7 -->
<g id="edge17" class="edge">
<title>Node12&#45;&gt;Node7</title>
<path fill="none" stroke="midnightblue" d="M1285.91,-279.22C1343,-271.84 1409.1,-260.21 1433,-244 1461.27,-224.83 1474,-213.16 1474,-179 1474,-179 1474,-179 1474,-121 1474,-71.8 1321.93,-35.29 1242.33,-19.55"/>
<polygon fill="midnightblue" stroke="midnightblue" points="1285.22,-275.78 1275.74,-280.5 1286.1,-282.72 1285.22,-275.78"/>
</g>
<!-- Node13 -->
<g id="node13" class="node">
<title>Node13</title>
<g id="a_node13"><a xlink:href="_render_list_of_layouts_plugin_8h.html" target="_top" xlink:title="Definition of RenderListOfLayoutsPlugin, the plugin class of fbc package for the Model element.">
<polygon fill="white" stroke="black" points="1054.5,-168.5 1054.5,-187.5 1211.5,-187.5 1211.5,-168.5 1054.5,-168.5"/>
<text text-anchor="middle" x="1133" y="-175.5" font-family="Helvetica,sans-Serif" font-size="10.00">RenderListOfLayoutsPlugin.h</text>
</a>
</g>
</g>
<!-- Node12&#45;&gt;Node13 -->
<g id="edge18" class="edge">
<title>Node12&#45;&gt;Node13</title>
<path fill="none" stroke="midnightblue" d="M1188.52,-270.08C1186.18,-256.61 1181.83,-238.42 1174,-224 1166.13,-209.51 1152.63,-195.97 1143.28,-187.6"/>
<polygon fill="midnightblue" stroke="midnightblue" points="1185.08,-270.73 1190.04,-280.09 1192,-269.68 1185.08,-270.73"/>
</g>
<!-- Node15 -->
<g id="node15" class="node">
<title>Node15</title>
<g id="a_node15"><a xlink:href="_global_render_information_8cpp.html" target="_top" xlink:title="class for the storage of global render information">
<polygon fill="white" stroke="black" points="1277,-168.5 1277,-187.5 1437,-187.5 1437,-168.5 1277,-168.5"/>
<text text-anchor="middle" x="1357" y="-175.5" font-family="Helvetica,sans-Serif" font-size="10.00">GlobalRenderInformation.cpp</text>
</a>
</g>
</g>
<!-- Node12&#45;&gt;Node15 -->
<g id="edge23" class="edge">
<title>Node12&#45;&gt;Node15</title>
<path fill="none" stroke="midnightblue" d="M1289.8,-281.59C1342.8,-275.33 1400.55,-264.05 1417,-244 1434.34,-222.87 1398.56,-199.7 1375.15,-187.54"/>
<polygon fill="midnightblue" stroke="midnightblue" points="1289.17,-278.13 1279.62,-282.73 1289.95,-285.09 1289.17,-278.13"/>
</g>
<!-- Node16 -->
<g id="node16" class="node">
<title>Node16</title>
<g id="a_node16"><a xlink:href="_global_render_information_8h.html" target="_top" xlink:title="Definition of the GlobalRenderInformation class.">
<polygon fill="white" stroke="black" points="1015.5,-224.5 1015.5,-243.5 1164.5,-243.5 1164.5,-224.5 1015.5,-224.5"/>
<text text-anchor="middle" x="1090" y="-231.5" font-family="Helvetica,sans-Serif" font-size="10.00">GlobalRenderInformation.h</text>
</a>
</g>
</g>
<!-- Node12&#45;&gt;Node16 -->
<g id="edge24" class="edge">
<title>Node12&#45;&gt;Node16</title>
<path fill="none" stroke="midnightblue" d="M1160.74,-275.96C1140.5,-265.88 1115.23,-252.23 1100.85,-243.52"/>
<polygon fill="midnightblue" stroke="midnightblue" points="1159.39,-279.2 1169.91,-280.44 1162.46,-272.91 1159.39,-279.2"/>
</g>
<!-- Node18 -->
<g id="node18" class="node">
<title>Node18</title>
<g id="a_node18"><a xlink:href="_list_of_global_render_information_8cpp.html" target="_top" xlink:title="Implementation of the ListOfGlobalRenderInformation class.">
<polygon fill="white" stroke="black" points="1220,-224.5 1220,-243.5 1408,-243.5 1408,-224.5 1220,-224.5"/>
<text text-anchor="middle" x="1314" y="-231.5" font-family="Helvetica,sans-Serif" font-size="10.00">ListOfGlobalRenderInformation.cpp</text>
</a>
</g>
</g>
<!-- Node12&#45;&gt;Node18 -->
<g id="edge31" class="edge">
<title>Node12&#45;&gt;Node18</title>
<path fill="none" stroke="midnightblue" d="M1219.77,-276.37C1242.81,-266.26 1274.48,-252.35 1294.6,-243.52"/>
<polygon fill="midnightblue" stroke="midnightblue" points="1218.24,-273.22 1210.49,-280.44 1221.05,-279.63 1218.24,-273.22"/>
</g>
<!-- Node13&#45;&gt;Node2 -->
<g id="edge19" class="edge">
<title>Node13&#45;&gt;Node2</title>
<path fill="none" stroke="midnightblue" d="M1067.43,-166.85C1001.48,-156.65 900.96,-141.1 839.04,-131.52"/>
<polygon fill="midnightblue" stroke="midnightblue" points="1067.28,-170.37 1077.7,-168.44 1068.35,-163.46 1067.28,-170.37"/>
</g>
<!-- Node13&#45;&gt;Node5 -->
<g id="edge22" class="edge">
<title>Node13&#45;&gt;Node5</title>
<path fill="none" stroke="midnightblue" d="M1121.08,-160.05C1102.54,-134.68 1064.57,-86.54 1023,-56 1000.86,-39.73 971.9,-27.23 951.4,-19.58"/>
<polygon fill="midnightblue" stroke="midnightblue" points="1118.33,-162.22 1127.01,-168.3 1124.01,-158.13 1118.33,-162.22"/>
</g>
<!-- Node13&#45;&gt;Node7 -->
<g id="edge21" class="edge">
<title>Node13&#45;&gt;Node7</title>
<path fill="none" stroke="midnightblue" d="M1139.95,-158.39C1153.32,-122.59 1182.17,-45.34 1191.8,-19.57"/>
<polygon fill="midnightblue" stroke="midnightblue" points="1136.55,-157.48 1136.33,-168.08 1143.11,-159.93 1136.55,-157.48"/>
</g>
<!-- Node14 -->
<g id="node14" class="node">
<title>Node14</title>
<g id="a_node14"><a xlink:href="_render_extension_8cpp.html" target="_top" xlink:title="Implementation of RenderExtension, the core module of the render package.">
<polygon fill="white" stroke="black" points="929.5,-112.5 929.5,-131.5 1048.5,-131.5 1048.5,-112.5 929.5,-112.5"/>
<text text-anchor="middle" x="989" y="-119.5" font-family="Helvetica,sans-Serif" font-size="10.00">RenderExtension.cpp</text>
</a>
</g>
</g>
<!-- Node13&#45;&gt;Node14 -->
<g id="edge20" class="edge">
<title>Node13&#45;&gt;Node14</title>
<path fill="none" stroke="midnightblue" d="M1100.75,-164.91C1073.68,-154.75 1035.68,-140.51 1011.71,-131.52"/>
<polygon fill="midnightblue" stroke="midnightblue" points="1099.59,-168.21 1110.18,-168.44 1102.05,-161.66 1099.59,-168.21"/>
</g>
<!-- Node16&#45;&gt;Node2 -->
<g id="edge25" class="edge">
<title>Node16&#45;&gt;Node2</title>
<path fill="none" stroke="midnightblue" d="M1073.36,-217.21C1056.64,-202.23 1029.47,-180.26 1002,-168 954.36,-146.73 896.34,-135.38 852.14,-129.4"/>
<polygon fill="midnightblue" stroke="midnightblue" points="1071.36,-220.12 1081.1,-224.31 1076.09,-214.97 1071.36,-220.12"/>
</g>
<!-- Node16&#45;&gt;Node7 -->
<g id="edge26" class="edge">
<title>Node16&#45;&gt;Node7</title>
<path fill="none" stroke="midnightblue" d="M1172.74,-221.38C1191.56,-214.68 1209.41,-204.24 1221,-188 1259.44,-134.16 1215.91,-47.38 1200.21,-19.75"/>
<polygon fill="midnightblue" stroke="midnightblue" points="1171.6,-218.07 1163.15,-224.46 1173.74,-224.73 1171.6,-218.07"/>
</g>
<!-- Node16&#45;&gt;Node12 -->
<g id="edge29" class="edge">
<title>Node16&#45;&gt;Node12</title>
<path fill="none" stroke="midnightblue" d="M1120.41,-248.11C1140.5,-258.12 1165.5,-271.62 1179.89,-280.32"/>
<polygon fill="midnightblue" stroke="midnightblue" points="1121.82,-244.91 1111.3,-243.65 1118.74,-251.19 1121.82,-244.91"/>
</g>
<!-- Node16&#45;&gt;Node13 -->
<g id="edge27" class="edge">
<title>Node16&#45;&gt;Node13</title>
<path fill="none" stroke="midnightblue" d="M1103.42,-216.14C1110.91,-206.74 1119.94,-195.4 1126.03,-187.75"/>
<polygon fill="midnightblue" stroke="midnightblue" points="1100.59,-214.08 1097.1,-224.08 1106.07,-218.44 1100.59,-214.08"/>
</g>
<!-- Node16&#45;&gt;Node15 -->
<g id="edge28" class="edge">
<title>Node16&#45;&gt;Node15</title>
<path fill="none" stroke="midnightblue" d="M1142.36,-222.41C1192.82,-212.2 1268.2,-196.96 1314.89,-187.52"/>
<polygon fill="midnightblue" stroke="midnightblue" points="1141.41,-219.03 1132.31,-224.44 1142.8,-225.89 1141.41,-219.03"/>
</g>
<!-- Node17 -->
<g id="node17" class="node">
<title>Node17</title>
<g id="a_node17"><a xlink:href="_render_information_base_8cpp.html" target="_top" xlink:title="Implementation of the RenderInformationBase class.">
<polygon fill="white" stroke="black" points="694,-168.5 694,-187.5 846,-187.5 846,-168.5 694,-168.5"/>
<text text-anchor="middle" x="770" y="-175.5" font-family="Helvetica,sans-Serif" font-size="10.00">RenderInformationBase.cpp</text>
</a>
</g>
</g>
<!-- Node16&#45;&gt;Node17 -->
<g id="edge30" class="edge">
<title>Node16&#45;&gt;Node17</title>
<path fill="none" stroke="midnightblue" d="M1029.13,-222.73C968.66,-212.52 877.01,-197.06 820.47,-187.52"/>
<polygon fill="midnightblue" stroke="midnightblue" points="1028.85,-226.23 1039.3,-224.44 1030.02,-219.33 1028.85,-226.23"/>
</g>
<!-- Node19&#45;&gt;Node2 -->
<g id="edge33" class="edge">
<title>Node19&#45;&gt;Node2</title>
<path fill="none" stroke="midnightblue" d="M517.61,-222.6C555.62,-215.18 604.97,-203.72 647,-188 664.88,-181.31 667.86,-176.4 685,-168 712.13,-154.71 744.02,-140.45 764.12,-131.63"/>
<polygon fill="midnightblue" stroke="midnightblue" points="516.88,-219.18 507.71,-224.49 518.19,-226.05 516.88,-219.18"/>
</g>
<!-- Node19&#45;&gt;Node17 -->
<g id="edge41" class="edge">
<title>Node19&#45;&gt;Node17</title>
<path fill="none" stroke="midnightblue" d="M515.73,-222.73C575.07,-212.52 664.99,-197.06 720.48,-187.52"/>
<polygon fill="midnightblue" stroke="midnightblue" points="515.02,-219.3 505.75,-224.44 516.2,-226.2 515.02,-219.3"/>
</g>
<!-- Node20 -->
<g id="node20" class="node">
<title>Node20</title>
<g id="a_node20"><a xlink:href="_render_layout_plugin_8h.html" target="_top" xlink:title="Definition of RenderLayoutPlugin, the plugin class of fbc package for the Model element.">
<polygon fill="white" stroke="black" points="104.5,-168.5 104.5,-187.5 227.5,-187.5 227.5,-168.5 104.5,-168.5"/>
<text text-anchor="middle" x="166" y="-175.5" font-family="Helvetica,sans-Serif" font-size="10.00">RenderLayoutPlugin.h</text>
</a>
</g>
</g>
<!-- Node19&#45;&gt;Node20 -->
<g id="edge34" class="edge">
<title>Node19&#45;&gt;Node20</title>
<path fill="none" stroke="midnightblue" d="M400.15,-222.6C345.35,-212.4 262.77,-197.02 211.74,-187.52"/>
<polygon fill="midnightblue" stroke="midnightblue" points="399.58,-226.05 410.05,-224.44 400.86,-219.17 399.58,-226.05"/>
</g>
<!-- Node21 -->
<g id="node21" class="node">
<title>Node21</title>
<g id="a_node21"><a xlink:href="_list_of_local_render_information_8cpp.html" target="_top" xlink:title="Implementation of the ListOfLocalRenderInformation class.">
<polygon fill="white" stroke="black" points="456,-168.5 456,-187.5 638,-187.5 638,-168.5 456,-168.5"/>
<text text-anchor="middle" x="547" y="-175.5" font-family="Helvetica,sans-Serif" font-size="10.00">ListOfLocalRenderInformation.cpp</text>
</a>
</g>
</g>
<!-- Node19&#45;&gt;Node21 -->
<g id="edge39" class="edge">
<title>Node19&#45;&gt;Node21</title>
<path fill="none" stroke="midnightblue" d="M479.29,-219.18C496.04,-209.24 518.1,-196.15 532.42,-187.65"/>
<polygon fill="midnightblue" stroke="midnightblue" points="477.43,-216.21 470.62,-224.32 481.01,-222.23 477.43,-216.21"/>
</g>
<!-- Node22 -->
<g id="node22" class="node">
<title>Node22</title>
<g id="a_node22"><a xlink:href="_local_render_information_8cpp.html" target="_top" xlink:title="Implementation of the LocalRenderInformation class.">
<polygon fill="white" stroke="black" points="284,-168.5 284,-187.5 438,-187.5 438,-168.5 284,-168.5"/>
<text text-anchor="middle" x="361" y="-175.5" font-family="Helvetica,sans-Serif" font-size="10.00">LocalRenderInformation.cpp</text>
</a>
</g>
</g>
<!-- Node19&#45;&gt;Node22 -->
<g id="edge40" class="edge">
<title>Node19&#45;&gt;Node22</title>
<path fill="none" stroke="midnightblue" d="M431.68,-219.18C414.2,-209.24 391.17,-196.15 376.23,-187.65"/>
<polygon fill="midnightblue" stroke="midnightblue" points="430.31,-222.43 440.74,-224.32 433.77,-216.34 430.31,-222.43"/>
</g>
<!-- Node20&#45;&gt;Node2 -->
<g id="edge35" class="edge">
<title>Node20&#45;&gt;Node2</title>
<path fill="none" stroke="midnightblue" d="M238.06,-168.4C239.39,-168.27 240.7,-168.13 242,-168 412.28,-150.85 613.13,-135.43 715.91,-127.88"/>
<polygon fill="midnightblue" stroke="midnightblue" points="237.35,-164.96 227.78,-169.5 238.1,-171.92 237.35,-164.96"/>
</g>
<!-- Node20&#45;&gt;Node3 -->
<g id="edge37" class="edge">
<title>Node20&#45;&gt;Node3</title>
<path fill="none" stroke="midnightblue" d="M189.3,-163.31C230.93,-139.25 321.28,-88.84 402,-56 439.59,-40.71 484.4,-27.62 514.37,-19.57"/>
<polygon fill="midnightblue" stroke="midnightblue" points="187.37,-160.38 180.49,-168.43 190.89,-166.43 187.37,-160.38"/>
</g>
<!-- Node20&#45;&gt;Node5 -->
<g id="edge38" class="edge">
<title>Node20&#45;&gt;Node5</title>
<path fill="none" stroke="midnightblue" d="M199.34,-164.85C267.46,-140.48 427.95,-85.47 567,-56 673.31,-33.47 799.88,-20.84 870.78,-15.02"/>
<polygon fill="midnightblue" stroke="midnightblue" points="197.82,-161.67 189.59,-168.35 200.19,-168.26 197.82,-161.67"/>
</g>
<!-- Node20&#45;&gt;Node14 -->
<g id="edge36" class="edge">
<title>Node20&#45;&gt;Node14</title>
<path fill="none" stroke="midnightblue" d="M237.94,-170.84C250.3,-169.85 263.02,-168.86 275,-168 535.26,-149.26 600.63,-149.15 861,-132 883.34,-130.53 907.87,-128.83 929.42,-127.3"/>
<polygon fill="midnightblue" stroke="midnightblue" points="237.35,-167.38 227.66,-171.68 237.91,-174.36 237.35,-167.38"/>
</g>
<!-- Node24&#45;&gt;Node2 -->
<g id="edge44" class="edge">
<title>Node24&#45;&gt;Node2</title>
<path fill="none" stroke="midnightblue" d="M748.24,-390.89C818.64,-378.74 927.07,-359.53 930,-356 949.25,-332.83 1000.17,-317.66 870,-168 854.63,-150.33 830.6,-138.58 811.84,-131.53"/>
<polygon fill="midnightblue" stroke="midnightblue" points="747.4,-387.48 738.14,-392.63 748.59,-394.38 747.4,-387.48"/>
</g>
<!-- Node24&#45;&gt;Node17 -->
<g id="edge48" class="edge">
<title>Node24&#45;&gt;Node17</title>
<path fill="none" stroke="midnightblue" d="M725.15,-388.29C739.83,-381.17 755.34,-370.71 764,-356 797.23,-299.56 779.32,-214.51 772.36,-187.53"/>
<polygon fill="midnightblue" stroke="midnightblue" points="723.42,-385.23 715.71,-392.49 726.27,-391.62 723.42,-385.23"/>
</g>
<!-- Node24&#45;&gt;Node23 -->
<g id="edge45" class="edge">
<title>Node24&#45;&gt;Node23</title>
<path fill="none" stroke="midnightblue" d="M629.89,-391.15C568.69,-380.95 474.05,-365.17 416.01,-355.5"/>
<polygon fill="midnightblue" stroke="midnightblue" points="629.35,-394.61 639.79,-392.8 630.5,-387.7 629.35,-394.61"/>
</g>
<!-- Node25 -->
<g id="node25" class="node">
<title>Node25</title>
<g id="a_node25"><a xlink:href="_linear_gradient_8cpp.html" target="_top" xlink:title="Implementation of the LinearGradient class.">
<polygon fill="white" stroke="black" points="811.5,-336.5 811.5,-355.5 920.5,-355.5 920.5,-336.5 811.5,-336.5"/>
<text text-anchor="middle" x="866" y="-343.5" font-family="Helvetica,sans-Serif" font-size="10.00">LinearGradient.cpp</text>
</a>
</g>
</g>
<!-- Node24&#45;&gt;Node25 -->
<g id="edge46" class="edge">
<title>Node24&#45;&gt;Node25</title>
<path fill="none" stroke="midnightblue" d="M726.9,-389.44C760.28,-379.26 808.1,-364.66 838.09,-355.52"/>
<polygon fill="midnightblue" stroke="midnightblue" points="725.59,-386.18 717.05,-392.44 727.63,-392.87 725.59,-386.18"/>
</g>
<!-- Node26 -->
<g id="node26" class="node">
<title>Node26</title>
<g id="a_node26"><a xlink:href="_list_of_gradient_definitions_8cpp.html" target="_top" xlink:title="Implementation of the ListOfGradientDefinitions class.">
<polygon fill="white" stroke="black" points="435,-336.5 435,-355.5 595,-355.5 595,-336.5 435,-336.5"/>
<text text-anchor="middle" x="515" y="-343.5" font-family="Helvetica,sans-Serif" font-size="10.00">ListOfGradientDefinitions.cpp</text>
</a>
</g>
</g>
<!-- Node24&#45;&gt;Node26 -->
<g id="edge47" class="edge">
<title>Node24&#45;&gt;Node26</title>
<path fill="none" stroke="midnightblue" d="M651.74,-389.44C618.93,-379.26 571.92,-364.66 542.44,-355.52"/>
<polygon fill="midnightblue" stroke="midnightblue" points="650.84,-392.82 661.43,-392.44 652.92,-386.14 650.84,-392.82"/>
</g>
<!-- Node24&#45;&gt;Node27 -->
<g id="edge49" class="edge">
<title>Node24&#45;&gt;Node27</title>
<path fill="none" stroke="midnightblue" d="M687.25,-382.1C686.42,-373.14 685.47,-362.86 684.81,-355.75"/>
<polygon fill="midnightblue" stroke="midnightblue" points="683.77,-382.45 688.17,-392.08 690.74,-381.8 683.77,-382.45"/>
</g>
<!-- Node27&#45;&gt;Node2 -->
<g id="edge50" class="edge">
<title>Node27&#45;&gt;Node2</title>
<path fill="none" stroke="midnightblue" d="M708.84,-331.45C748.55,-308.2 824.9,-256.49 855,-188 866.29,-162.3 832.19,-142.34 807.41,-131.65"/>
<polygon fill="midnightblue" stroke="midnightblue" points="706.98,-328.49 700.04,-336.49 710.46,-334.56 706.98,-328.49"/>
</g>
<!-- Node27&#45;&gt;Node16 -->
<g id="edge51" class="edge">
<title>Node27&#45;&gt;Node16</title>
<path fill="none" stroke="midnightblue" d="M725.41,-333.78C806.77,-311.74 985.89,-263.21 1058.5,-243.53"/>
<polygon fill="midnightblue" stroke="midnightblue" points="724.26,-330.47 715.52,-336.46 726.09,-337.22 724.26,-330.47"/>
</g>
<!-- Node27&#45;&gt;Node17 -->
<g id="edge59" class="edge">
<title>Node27&#45;&gt;Node17</title>
<path fill="none" stroke="midnightblue" d="M674.61,-327.23C668.86,-313.87 663.7,-295.31 670,-280 687.65,-237.1 733.31,-202.74 756.32,-187.51"/>
<polygon fill="midnightblue" stroke="midnightblue" points="671.47,-328.78 678.94,-336.3 677.78,-325.76 671.47,-328.78"/>
</g>
<!-- Node28 -->
<g id="node28" class="node">
<title>Node28</title>
<g id="a_node28"><a xlink:href="_local_render_information_8h.html" target="_top" xlink:title="Definition of the LocalRenderInformation class.">
<polygon fill="white" stroke="black" points="384.5,-280.5 384.5,-299.5 527.5,-299.5 527.5,-280.5 384.5,-280.5"/>
<text text-anchor="middle" x="456" y="-287.5" font-family="Helvetica,sans-Serif" font-size="10.00">LocalRenderInformation.h</text>
</a>
</g>
</g>
<!-- Node27&#45;&gt;Node28 -->
<g id="edge52" class="edge">
<title>Node27&#45;&gt;Node28</title>
<path fill="none" stroke="midnightblue" d="M637.93,-334.09C594.85,-323.89 531.41,-308.86 491.96,-299.52"/>
<polygon fill="midnightblue" stroke="midnightblue" points="637.34,-337.54 647.87,-336.44 638.95,-330.73 637.34,-337.54"/>
</g>
<!-- Node28&#45;&gt;Node2 -->
<g id="edge53" class="edge">
<title>Node28&#45;&gt;Node2</title>
<path fill="none" stroke="midnightblue" d="M409.75,-277.79C341.86,-259.28 228.08,-219.25 275,-168 304.18,-136.12 583.89,-126.7 715.79,-124.02"/>
<polygon fill="midnightblue" stroke="midnightblue" points="409.25,-281.28 419.82,-280.47 411.05,-274.51 409.25,-281.28"/>
</g>
<!-- Node28&#45;&gt;Node13 -->
<g id="edge55" class="edge">
<title>Node28&#45;&gt;Node13</title>
<path fill="none" stroke="midnightblue" d="M518.55,-278.84C650.94,-257.33 957.43,-207.53 1080.47,-187.53"/>
<polygon fill="midnightblue" stroke="midnightblue" points="517.87,-275.4 508.56,-280.46 518.99,-282.31 517.87,-275.4"/>
</g>
<!-- Node28&#45;&gt;Node17 -->
<g id="edge58" class="edge">
<title>Node28&#45;&gt;Node17</title>
<path fill="none" stroke="midnightblue" d="M483.05,-276.1C521.6,-257.73 588.36,-226.03 594,-224 638.52,-207.99 691.29,-195.29 727.36,-187.52"/>
<polygon fill="midnightblue" stroke="midnightblue" points="481.43,-272.99 473.91,-280.46 484.44,-279.31 481.43,-272.99"/>
</g>
<!-- Node28&#45;&gt;Node19 -->
<g id="edge56" class="edge">
<title>Node28&#45;&gt;Node19</title>
<path fill="none" stroke="midnightblue" d="M456,-269.8C456,-260.91 456,-250.78 456,-243.75"/>
<polygon fill="midnightblue" stroke="midnightblue" points="452.5,-270.08 456,-280.08 459.5,-270.08 452.5,-270.08"/>
</g>
<!-- Node28&#45;&gt;Node20 -->
<g id="edge54" class="edge">
<title>Node28&#45;&gt;Node20</title>
<path fill="none" stroke="midnightblue" d="M374.16,-281.51C332.91,-275.37 283.07,-264.21 242,-244 213.03,-229.74 186.04,-201.89 173.44,-187.72"/>
<polygon fill="midnightblue" stroke="midnightblue" points="373.79,-285 384.18,-282.93 374.77,-278.07 373.79,-285"/>
</g>
<!-- Node28&#45;&gt;Node22 -->
<g id="edge57" class="edge">
<title>Node28&#45;&gt;Node22</title>
<path fill="none" stroke="midnightblue" d="M405.5,-277C388.37,-270.26 371.05,-259.87 361,-244 350.02,-226.65 354.65,-201.11 358.25,-187.8"/>
<polygon fill="midnightblue" stroke="midnightblue" points="404.35,-280.31 414.95,-280.38 406.71,-273.72 404.35,-280.31"/>
</g>
<!-- Node29&#45;&gt;Node23 -->
<g id="edge61" class="edge">
<title>Node29&#45;&gt;Node23</title>
<path fill="none" stroke="midnightblue" d="M477.52,-388.91C450.26,-378.75 412.01,-364.51 387.87,-355.52"/>
<polygon fill="midnightblue" stroke="midnightblue" points="476.43,-392.23 487.02,-392.44 478.87,-385.67 476.43,-392.23"/>
</g>
<!-- Node29&#45;&gt;Node26 -->
<g id="edge62" class="edge">
<title>Node29&#45;&gt;Node26</title>
<path fill="none" stroke="midnightblue" d="M511.75,-382.1C512.58,-373.14 513.53,-362.86 514.19,-355.75"/>
<polygon fill="midnightblue" stroke="midnightblue" points="508.26,-381.8 510.83,-392.08 515.23,-382.45 508.26,-381.8"/>
</g>
<!-- Node29&#45;&gt;Node27 -->
<g id="edge63" class="edge">
<title>Node29&#45;&gt;Node27</title>
<path fill="none" stroke="midnightblue" d="M547.26,-389.44C580.07,-379.26 627.08,-364.66 656.56,-355.52"/>
<polygon fill="midnightblue" stroke="midnightblue" points="546.08,-386.14 537.57,-392.44 548.16,-392.82 546.08,-386.14"/>
</g>
<!-- Node30&#45;&gt;Node2 -->
<g id="edge65" class="edge">
<title>Node30&#45;&gt;Node2</title>
<path fill="none" stroke="midnightblue" d="M271.52,-400.33C196.16,-395.97 76,-375.73 76,-291 76,-291 76,-291 76,-233 76,-202.9 71.52,-186.83 95,-168 142.67,-129.78 551.4,-123.9 715.87,-123.08"/>
<polygon fill="midnightblue" stroke="midnightblue" points="271.67,-403.84 281.83,-400.84 272.02,-396.85 271.67,-403.84"/>
</g>
<!-- Node30&#45;&gt;Node17 -->
<g id="edge69" class="edge">
<title>Node30&#45;&gt;Node17</title>
<path fill="none" stroke="midnightblue" d="M315.3,-384.56C303.72,-370.41 291.9,-350.12 304,-336 337.95,-296.38 486.4,-316.19 536,-300 559.1,-292.46 705.08,-214.06 754.03,-187.64"/>
<polygon fill="midnightblue" stroke="midnightblue" points="312.68,-386.88 321.91,-392.08 317.94,-382.26 312.68,-386.88"/>
</g>
<!-- Node30&#45;&gt;Node23 -->
<g id="edge66" class="edge">
<title>Node30&#45;&gt;Node23</title>
<path fill="none" stroke="midnightblue" d="M341.98,-383.57C347.83,-374.27 354.77,-363.25 359.49,-355.75"/>
<polygon fill="midnightblue" stroke="midnightblue" points="338.98,-381.76 336.61,-392.08 344.9,-385.49 338.98,-381.76"/>
</g>
<!-- Node30&#45;&gt;Node26 -->
<g id="edge67" class="edge">
<title>Node30&#45;&gt;Node26</title>
<path fill="none" stroke="midnightblue" d="M369.95,-389.57C404.66,-379.38 454.68,-364.7 485.98,-355.52"/>
<polygon fill="midnightblue" stroke="midnightblue" points="368.77,-386.27 360.16,-392.44 370.74,-392.99 368.77,-386.27"/>
</g>
<!-- Node30&#45;&gt;Node27 -->
<g id="edge70" class="edge">
<title>Node30&#45;&gt;Node27</title>
<path fill="none" stroke="midnightblue" d="M389.97,-391.98C456.35,-381.82 563.38,-365.45 628.36,-355.51"/>
<polygon fill="midnightblue" stroke="midnightblue" points="389.44,-388.52 380.08,-393.49 390.5,-395.44 389.44,-388.52"/>
</g>
<!-- Node31 -->
<g id="node31" class="node">
<title>Node31</title>
<g id="a_node31"><a xlink:href="_radial_gradient_8cpp.html" target="_top" xlink:title="Implementation of the RadialGradient class.">
<polygon fill="white" stroke="black" points="147,-336.5 147,-355.5 257,-355.5 257,-336.5 147,-336.5"/>
<text text-anchor="middle" x="202" y="-343.5" font-family="Helvetica,sans-Serif" font-size="10.00">RadialGradient.cpp</text>
</a>
</g>
</g>
<!-- Node30&#45;&gt;Node31 -->
<g id="edge68" class="edge">
<title>Node30&#45;&gt;Node31</title>
<path fill="none" stroke="midnightblue" d="M301.15,-388.5C276.96,-378.38 243.54,-364.39 222.34,-355.52"/>
<polygon fill="midnightblue" stroke="midnightblue" points="299.98,-391.81 310.56,-392.44 302.69,-385.35 299.98,-391.81"/>
</g>
<!-- Node33&#45;&gt;Node9 -->
<g id="edge74" class="edge">
<title>Node33&#45;&gt;Node9</title>
<path fill="none" stroke="midnightblue" d="M550.63,-500.23C528.18,-490.13 497.46,-476.31 477.93,-467.52"/>
<polygon fill="midnightblue" stroke="midnightblue" points="549.43,-503.53 559.99,-504.44 552.3,-497.15 549.43,-503.53"/>
</g>
<!-- Node33&#45;&gt;Node32 -->
<g id="edge75" class="edge">
<title>Node33&#45;&gt;Node32</title>
<path fill="none" stroke="midnightblue" d="M611.92,-500.91C639.56,-490.75 678.34,-476.51 702.82,-467.52"/>
<polygon fill="midnightblue" stroke="midnightblue" points="610.47,-497.71 602.29,-504.44 612.89,-504.28 610.47,-497.71"/>
</g>
<!-- Node34 -->
<g id="node34" class="node">
<title>Node34</title>
<g id="a_node34"><a xlink:href="_list_of_gradient_stops_8cpp.html" target="_top" xlink:title="Implementation of the ListOfGradientStops class.">
<polygon fill="white" stroke="black" points="523,-448.5 523,-467.5 657,-467.5 657,-448.5 523,-448.5"/>
<text text-anchor="middle" x="590" y="-455.5" font-family="Helvetica,sans-Serif" font-size="10.00">ListOfGradientStops.cpp</text>
</a>
</g>
</g>
<!-- Node33&#45;&gt;Node34 -->
<g id="edge76" class="edge">
<title>Node33&#45;&gt;Node34</title>
<path fill="none" stroke="midnightblue" d="M582.85,-494.1C584.68,-485.14 586.77,-474.86 588.22,-467.75"/>
<polygon fill="midnightblue" stroke="midnightblue" points="579.38,-493.59 580.82,-504.08 586.24,-494.98 579.38,-493.59"/>
</g>
</g>
</svg>
        <g id="navigator" transform="translate(0 0)" fill="#404254">
                <rect fill="#f2f5e9" fill-opacity="0.5" stroke="#606060" stroke-width=".5" x="0" y="0" width="60" height="60"/>
                <use id="zoomplus" xlink:href="#zoomPlus" x="17" y="9" onmousedown="handleZoom(evt,'in')"/>
                <use id="zoomminus" xlink:href="#zoomMin" x="42" y="9" onmousedown="handleZoom(evt,'out')"/>
                <use id="reset" xlink:href="#resetDef" x="30" y="36" onmousedown="handleReset()"/>
                <g id="arrowUp" xlink:href="#dirArrow" transform="translate(30 24)" onmousedown="handlePan(0,-1)">
                  <use xlink:href="#rim" fill="#404040">
                        <set attributeName="fill" to="#808080" begin="arrowUp.mouseover" end="arrowUp.mouseout"/>
                  </use>
                  <path fill="none" stroke="white" stroke-width="1.5" d="M0,-3.0v7 M-2.5,-0.5L0,-3.0L2.5,-0.5"/>
                </g>
                <g id="arrowRight" xlink:href="#dirArrow" transform="rotate(90) translate(36 -43)" onmousedown="handlePan(1,0)">
                  <use xlink:href="#rim" fill="#404040">
                        <set attributeName="fill" to="#808080" begin="arrowRight.mouseover" end="arrowRight.mouseout"/>
                  </use>
                  <path fill="none" stroke="white" stroke-width="1.5" d="M0,-3.0v7 M-2.5,-0.5L0,-3.0L2.5,-0.5"/>
                </g>
                <g id="arrowDown" xlink:href="#dirArrow" transform="rotate(180) translate(-30 -48)" onmousedown="handlePan(0,1)">
                  <use xlink:href="#rim" fill="#404040">
                        <set attributeName="fill" to="#808080" begin="arrowDown.mouseover" end="arrowDown.mouseout"/>
                  </use>
                  <path fill="none" stroke="white" stroke-width="1.5" d="M0,-3.0v7 M-2.5,-0.5L0,-3.0L2.5,-0.5"/>
                </g>
                <g id="arrowLeft" xlink:href="#dirArrow" transform="rotate(270) translate(-36 17)" onmousedown="handlePan(-1,0)">
                  <use xlink:href="#rim" fill="#404040">
                        <set attributeName="fill" to="#808080" begin="arrowLeft.mouseover" end="arrowLeft.mouseout"/>
                  </use>
                  <path fill="none" stroke="white" stroke-width="1.5" d="M0,-3.0v7 M-2.5,-0.5L0,-3.0L2.5,-0.5"/>
                </g>
        </g>
        <svg viewBox="0 0 15 15" width="100%" height="30px" preserveAspectRatio="xMaxYMin meet">
         <g id="arrow_out" transform="scale(0.3 0.3)">
          <a xlink:href="_gradient_stop_8h__dep__incl_org.svg" target="_base">
           <rect id="button" ry="5" rx="5" y="6" x="6" height="38" width="38"
                fill="#f2f5e9" fill-opacity="0.5" stroke="#606060" stroke-width="1.0"/>
           <path id="arrow"
             d="M 11.500037,31.436501 C 11.940474,20.09759 22.043105,11.32322 32.158766,21.979434 L 37.068811,17.246167 C 37.068811,17.246167 37.088388,32 37.088388,32 L 22.160133,31.978069 C 22.160133,31.978069 26.997745,27.140456 26.997745,27.140456 C 18.528582,18.264221 13.291696,25.230495 11.500037,31.436501 z"
             style="fill:#404040;"/>
          </a>
         </g>
        </svg>
</svg>
