<?xml version="1.0" encoding="UTF-8" standalone="no"?>
<!DOCTYPE svg PUBLIC "-//W3C//DTD SVG 1.1//EN"
 "http://www.w3.org/Graphics/SVG/1.1/DTD/svg11.dtd">
<!-- Generated by graphviz version 2.43.0 (0)
 -->
<!-- Title: GroupsExtension.h Pages: 1 -->
<svg width="748pt" height="420pt"
 viewBox="0.00 0.00 748.44 420.00" xmlns="http://www.w3.org/2000/svg" xmlns:xlink="http://www.w3.org/1999/xlink">
<g id="graph0" class="graph" transform="scale(1 1) rotate(0) translate(4 416)">
<title>GroupsExtension.h</title>
<polygon fill="white" stroke="transparent" points="-4,4 -4,-416 744.44,-416 744.44,4 -4,4"/>
<!-- Node1 -->
<g id="node1" class="node">
<title>Node1</title>
<g id="a_node1"><a xlink:title="Definition of GroupsExtension.">
<polygon fill="#bfbfbf" stroke="black" points="355.5,-392.5 355.5,-411.5 463.5,-411.5 463.5,-392.5 355.5,-392.5"/>
<text text-anchor="middle" x="409.5" y="-399.5" font-family="Helvetica,sans-Serif" font-size="10.00">GroupsExtension.h</text>
</a>
</g>
</g>
<!-- Node2 -->
<g id="node2" class="node">
<title>Node2</title>
<g id="a_node2"><a xlink:href="_groups_extension_types_8h.html" target="_top" xlink:title="Definition of GroupsExtensionTypes.">
<polygon fill="white" stroke="black" points="334.5,-56.5 334.5,-75.5 470.5,-75.5 470.5,-56.5 334.5,-56.5"/>
<text text-anchor="middle" x="402.5" y="-63.5" font-family="Helvetica,sans-Serif" font-size="10.00">GroupsExtensionTypes.h</text>
</a>
</g>
</g>
<!-- Node1&#45;&gt;Node2 -->
<g id="edge1" class="edge">
<title>Node1&#45;&gt;Node2</title>
<path fill="none" stroke="midnightblue" d="M387.29,-386.33C361.81,-367.55 323.5,-332.42 323.5,-291 323.5,-291 323.5,-291 323.5,-177 323.5,-131.86 367.94,-92.55 390.16,-75.72"/>
<polygon fill="midnightblue" stroke="midnightblue" points="385.5,-389.36 395.68,-392.28 389.55,-383.64 385.5,-389.36"/>
</g>
<!-- Node4 -->
<g id="node4" class="node">
<title>Node4</title>
<g id="a_node4"><a xlink:href="_groups_extension_8cpp.html" target="_top" xlink:title="Implementation of GroupsExtension.">
<polygon fill="white" stroke="black" points="0,-56.5 0,-75.5 119,-75.5 119,-56.5 0,-56.5"/>
<text text-anchor="middle" x="59.5" y="-63.5" font-family="Helvetica,sans-Serif" font-size="10.00">GroupsExtension.cpp</text>
</a>
</g>
</g>
<!-- Node1&#45;&gt;Node4 -->
<g id="edge3" class="edge">
<title>Node1&#45;&gt;Node4</title>
<path fill="none" stroke="midnightblue" d="M345.26,-392.36C251.32,-377.89 87.5,-344.93 87.5,-291 87.5,-291 87.5,-291 87.5,-177 87.5,-138.18 70.92,-93.97 63.28,-75.65"/>
<polygon fill="midnightblue" stroke="midnightblue" points="344.83,-395.83 355.24,-393.87 345.88,-388.91 344.83,-395.83"/>
</g>
<!-- Node5 -->
<g id="node5" class="node">
<title>Node5</title>
<g id="a_node5"><a xlink:href="_groups_s_b_m_l_document_plugin_8h.html" target="_top" xlink:title="Definition of the GroupsSBMLDocumentPlugin class.">
<polygon fill="white" stroke="black" points="129,-112.5 129,-131.5 296,-131.5 296,-112.5 129,-112.5"/>
<text text-anchor="middle" x="212.5" y="-119.5" font-family="Helvetica,sans-Serif" font-size="10.00">GroupsSBMLDocumentPlugin.h</text>
</a>
</g>
</g>
<!-- Node1&#45;&gt;Node5 -->
<g id="edge4" class="edge">
<title>Node1&#45;&gt;Node5</title>
<path fill="none" stroke="midnightblue" d="M361.01,-389.6C313.92,-375.32 249.5,-345.76 249.5,-291 249.5,-291 249.5,-291 249.5,-233 249.5,-193.31 227.59,-149.56 217.49,-131.51"/>
<polygon fill="midnightblue" stroke="midnightblue" points="360.19,-393.01 370.77,-392.43 362.13,-386.29 360.19,-393.01"/>
</g>
<!-- Node7 -->
<g id="node7" class="node">
<title>Node7</title>
<g id="a_node7"><a xlink:href="_group_8h.html" target="_top" xlink:title="Definition of the Group class.">
<polygon fill="white" stroke="black" points="382,-224.5 382,-243.5 437,-243.5 437,-224.5 382,-224.5"/>
<text text-anchor="middle" x="409.5" y="-231.5" font-family="Helvetica,sans-Serif" font-size="10.00">Group.h</text>
</a>
</g>
</g>
<!-- Node1&#45;&gt;Node7 -->
<g id="edge8" class="edge">
<title>Node1&#45;&gt;Node7</title>
<path fill="none" stroke="midnightblue" d="M409.5,-381.93C409.5,-345.92 409.5,-269.23 409.5,-243.57"/>
<polygon fill="midnightblue" stroke="midnightblue" points="406,-382.08 409.5,-392.08 413,-382.08 406,-382.08"/>
</g>
<!-- Node11 -->
<g id="node11" class="node">
<title>Node11</title>
<g id="a_node11"><a xlink:href="_list_of_groups_8h.html" target="_top" xlink:title="Definition of the ListOfGroups class.">
<polygon fill="white" stroke="black" points="476,-168.5 476,-187.5 565,-187.5 565,-168.5 476,-168.5"/>
<text text-anchor="middle" x="520.5" y="-175.5" font-family="Helvetica,sans-Serif" font-size="10.00">ListOfGroups.h</text>
</a>
</g>
</g>
<!-- Node1&#45;&gt;Node11 -->
<g id="edge19" class="edge">
<title>Node1&#45;&gt;Node11</title>
<path fill="none" stroke="midnightblue" d="M415.69,-382.46C427.1,-349.39 453.27,-278.59 485.5,-224 493.45,-210.53 504.92,-196.55 512.53,-187.81"/>
<polygon fill="midnightblue" stroke="midnightblue" points="412.3,-381.55 412.39,-392.15 418.92,-383.81 412.3,-381.55"/>
</g>
<!-- Node13 -->
<g id="node13" class="node">
<title>Node13</title>
<g id="a_node13"><a xlink:href="_list_of_members_8h.html" target="_top" xlink:title="Definition of the ListOfMembers class.">
<polygon fill="white" stroke="black" points="499.5,-280.5 499.5,-299.5 599.5,-299.5 599.5,-280.5 499.5,-280.5"/>
<text text-anchor="middle" x="549.5" y="-287.5" font-family="Helvetica,sans-Serif" font-size="10.00">ListOfMembers.h</text>
</a>
</g>
</g>
<!-- Node1&#45;&gt;Node13 -->
<g id="edge20" class="edge">
<title>Node1&#45;&gt;Node13</title>
<path fill="none" stroke="midnightblue" d="M433.42,-387.08C447.29,-378.65 464.85,-367.37 479.5,-356 503.35,-337.5 528.67,-312.45 541.31,-299.52"/>
<polygon fill="midnightblue" stroke="midnightblue" points="431.28,-384.28 424.49,-392.42 434.87,-390.29 431.28,-384.28"/>
</g>
<!-- Node16 -->
<g id="node16" class="node">
<title>Node16</title>
<g id="a_node16"><a xlink:href="_member_8h.html" target="_top" xlink:title="Definition of the Member class.">
<polygon fill="white" stroke="black" points="592,-336.5 592,-355.5 657,-355.5 657,-336.5 592,-336.5"/>
<text text-anchor="middle" x="624.5" y="-343.5" font-family="Helvetica,sans-Serif" font-size="10.00">Member.h</text>
</a>
</g>
</g>
<!-- Node1&#45;&gt;Node16 -->
<g id="edge24" class="edge">
<title>Node1&#45;&gt;Node16</title>
<path fill="none" stroke="midnightblue" d="M453.32,-389.99C494.45,-379.66 555.02,-364.45 592,-355.16"/>
<polygon fill="midnightblue" stroke="midnightblue" points="452.41,-386.61 443.57,-392.44 454.12,-393.4 452.41,-386.61"/>
</g>
<!-- Node3 -->
<g id="node3" class="node">
<title>Node3</title>
<g id="a_node3"><a xlink:href="_groups_validator_8cpp.html" target="_top" xlink:title="Definition of GroupsValidator.">
<polygon fill="white" stroke="black" points="345.5,-0.5 345.5,-19.5 459.5,-19.5 459.5,-0.5 345.5,-0.5"/>
<text text-anchor="middle" x="402.5" y="-7.5" font-family="Helvetica,sans-Serif" font-size="10.00">GroupsValidator.cpp</text>
</a>
</g>
</g>
<!-- Node2&#45;&gt;Node3 -->
<g id="edge2" class="edge">
<title>Node2&#45;&gt;Node3</title>
<path fill="none" stroke="midnightblue" d="M402.5,-45.8C402.5,-36.91 402.5,-26.78 402.5,-19.75"/>
<polygon fill="midnightblue" stroke="midnightblue" points="399,-46.08 402.5,-56.08 406,-46.08 399,-46.08"/>
</g>
<!-- Node5&#45;&gt;Node2 -->
<g id="edge5" class="edge">
<title>Node5&#45;&gt;Node2</title>
<path fill="none" stroke="midnightblue" d="M252.26,-109.7C288.12,-99.51 340.07,-84.74 372.53,-75.52"/>
<polygon fill="midnightblue" stroke="midnightblue" points="251.27,-106.34 242.61,-112.44 253.18,-113.08 251.27,-106.34"/>
</g>
<!-- Node5&#45;&gt;Node4 -->
<g id="edge6" class="edge">
<title>Node5&#45;&gt;Node4</title>
<path fill="none" stroke="midnightblue" d="M178.61,-109.04C149.82,-98.88 109.21,-84.55 83.63,-75.52"/>
<polygon fill="midnightblue" stroke="midnightblue" points="177.66,-112.42 188.26,-112.44 179.99,-105.81 177.66,-112.42"/>
</g>
<!-- Node6 -->
<g id="node6" class="node">
<title>Node6</title>
<g id="a_node6"><a xlink:href="_groups_s_b_m_l_document_plugin_8cpp.html" target="_top" xlink:title="Implementation of the GroupsSBMLDocumentPlugin class.">
<polygon fill="white" stroke="black" points="137,-56.5 137,-75.5 316,-75.5 316,-56.5 137,-56.5"/>
<text text-anchor="middle" x="226.5" y="-63.5" font-family="Helvetica,sans-Serif" font-size="10.00">GroupsSBMLDocumentPlugin.cpp</text>
</a>
</g>
</g>
<!-- Node5&#45;&gt;Node6 -->
<g id="edge7" class="edge">
<title>Node5&#45;&gt;Node6</title>
<path fill="none" stroke="midnightblue" d="M217.32,-102.4C219.67,-93.36 222.37,-82.94 224.23,-75.75"/>
<polygon fill="midnightblue" stroke="midnightblue" points="213.93,-101.52 214.81,-112.08 220.71,-103.28 213.93,-101.52"/>
</g>
<!-- Node7&#45;&gt;Node2 -->
<g id="edge9" class="edge">
<title>Node7&#45;&gt;Node2</title>
<path fill="none" stroke="midnightblue" d="M399.92,-215.07C388.51,-191.47 372.02,-148.67 380.5,-112 383.64,-98.44 391.45,-84.26 396.86,-75.52"/>
<polygon fill="midnightblue" stroke="midnightblue" points="396.9,-216.87 404.55,-224.21 403.15,-213.7 396.9,-216.87"/>
</g>
<!-- Node8 -->
<g id="node8" class="node">
<title>Node8</title>
<g id="a_node8"><a xlink:href="_groups_model_plugin_8h.html" target="_top" xlink:title="Definition of the GroupsModelPlugin class.">
<polygon fill="white" stroke="black" points="473.5,-112.5 473.5,-131.5 593.5,-131.5 593.5,-112.5 473.5,-112.5"/>
<text text-anchor="middle" x="533.5" y="-119.5" font-family="Helvetica,sans-Serif" font-size="10.00">GroupsModelPlugin.h</text>
</a>
</g>
</g>
<!-- Node7&#45;&gt;Node8 -->
<g id="edge10" class="edge">
<title>Node7&#45;&gt;Node8</title>
<path fill="none" stroke="midnightblue" d="M422.48,-216.3C433.63,-202.52 450.53,-182.89 467.5,-168 483.86,-153.64 504.98,-139.97 518.86,-131.54"/>
<polygon fill="midnightblue" stroke="midnightblue" points="419.53,-214.39 416.05,-224.4 425.01,-218.74 419.53,-214.39"/>
</g>
<!-- Node10 -->
<g id="node10" class="node">
<title>Node10</title>
<g id="a_node10"><a xlink:href="_group_8cpp.html" target="_top" xlink:title="Implementation of the Group class.">
<polygon fill="white" stroke="black" points="389.5,-112.5 389.5,-131.5 455.5,-131.5 455.5,-112.5 389.5,-112.5"/>
<text text-anchor="middle" x="422.5" y="-119.5" font-family="Helvetica,sans-Serif" font-size="10.00">Group.cpp</text>
</a>
</g>
</g>
<!-- Node7&#45;&gt;Node10 -->
<g id="edge14" class="edge">
<title>Node7&#45;&gt;Node10</title>
<path fill="none" stroke="midnightblue" d="M411.7,-214.35C414.55,-190.25 419.39,-149.31 421.48,-131.59"/>
<polygon fill="midnightblue" stroke="midnightblue" points="408.22,-214.03 410.52,-224.37 415.17,-214.85 408.22,-214.03"/>
</g>
<!-- Node7&#45;&gt;Node11 -->
<g id="edge15" class="edge">
<title>Node7&#45;&gt;Node11</title>
<path fill="none" stroke="midnightblue" d="M436.51,-219.86C457.09,-209.85 484.84,-196.35 502.71,-187.65"/>
<polygon fill="midnightblue" stroke="midnightblue" points="434.8,-216.8 427.33,-224.32 437.86,-223.1 434.8,-216.8"/>
</g>
<!-- Node8&#45;&gt;Node2 -->
<g id="edge11" class="edge">
<title>Node8&#45;&gt;Node2</title>
<path fill="none" stroke="midnightblue" d="M503.18,-108.5C478.62,-98.38 444.68,-84.39 423.16,-75.52"/>
<polygon fill="midnightblue" stroke="midnightblue" points="502.16,-111.87 512.74,-112.44 504.83,-105.4 502.16,-111.87"/>
</g>
<!-- Node8&#45;&gt;Node4 -->
<g id="edge12" class="edge">
<title>Node8&#45;&gt;Node4</title>
<path fill="none" stroke="midnightblue" d="M463.26,-111.88C313.24,-94.23 273.85,-93.5 127.5,-76 124.78,-75.67 122,-75.34 119.19,-74.99"/>
<polygon fill="midnightblue" stroke="midnightblue" points="462.96,-115.37 473.3,-113.06 463.78,-108.41 462.96,-115.37"/>
</g>
<!-- Node9 -->
<g id="node9" class="node">
<title>Node9</title>
<g id="a_node9"><a xlink:href="_groups_model_plugin_8cpp.html" target="_top" xlink:title="Implementation of the GroupsModelPlugin class.">
<polygon fill="white" stroke="black" points="489,-56.5 489,-75.5 620,-75.5 620,-56.5 489,-56.5"/>
<text text-anchor="middle" x="554.5" y="-63.5" font-family="Helvetica,sans-Serif" font-size="10.00">GroupsModelPlugin.cpp</text>
</a>
</g>
</g>
<!-- Node8&#45;&gt;Node9 -->
<g id="edge13" class="edge">
<title>Node8&#45;&gt;Node9</title>
<path fill="none" stroke="midnightblue" d="M540.62,-102.69C544.16,-93.59 548.27,-83.01 551.1,-75.75"/>
<polygon fill="midnightblue" stroke="midnightblue" points="537.33,-101.49 536.97,-112.08 543.85,-104.03 537.33,-101.49"/>
</g>
<!-- Node11&#45;&gt;Node8 -->
<g id="edge16" class="edge">
<title>Node11&#45;&gt;Node8</title>
<path fill="none" stroke="midnightblue" d="M525.05,-158.1C527.21,-149.14 529.68,-138.86 531.39,-131.75"/>
<polygon fill="midnightblue" stroke="midnightblue" points="521.58,-157.54 522.65,-168.08 528.39,-159.18 521.58,-157.54"/>
</g>
<!-- Node11&#45;&gt;Node10 -->
<g id="edge17" class="edge">
<title>Node11&#45;&gt;Node10</title>
<path fill="none" stroke="midnightblue" d="M495.91,-163.45C477.82,-153.48 453.77,-140.23 438.21,-131.65"/>
<polygon fill="midnightblue" stroke="midnightblue" points="494.31,-166.56 504.75,-168.32 497.69,-160.43 494.31,-166.56"/>
</g>
<!-- Node12 -->
<g id="node12" class="node">
<title>Node12</title>
<g id="a_node12"><a xlink:href="_list_of_groups_8cpp.html" target="_top" xlink:title="Implementation of the ListOfGroups class.">
<polygon fill="white" stroke="black" points="611.5,-112.5 611.5,-131.5 711.5,-131.5 711.5,-112.5 611.5,-112.5"/>
<text text-anchor="middle" x="661.5" y="-119.5" font-family="Helvetica,sans-Serif" font-size="10.00">ListOfGroups.cpp</text>
</a>
</g>
</g>
<!-- Node11&#45;&gt;Node12 -->
<g id="edge18" class="edge">
<title>Node11&#45;&gt;Node12</title>
<path fill="none" stroke="midnightblue" d="M552.43,-164.77C578.91,-154.63 615.89,-140.47 639.26,-131.52"/>
<polygon fill="midnightblue" stroke="midnightblue" points="550.93,-161.6 542.84,-168.44 553.43,-168.14 550.93,-161.6"/>
</g>
<!-- Node13&#45;&gt;Node7 -->
<g id="edge21" class="edge">
<title>Node13&#45;&gt;Node7</title>
<path fill="none" stroke="midnightblue" d="M517.8,-276.77C491.5,-266.63 454.78,-252.47 431.58,-243.52"/>
<polygon fill="midnightblue" stroke="midnightblue" points="516.73,-280.11 527.32,-280.44 519.25,-273.58 516.73,-280.11"/>
</g>
<!-- Node14 -->
<g id="node14" class="node">
<title>Node14</title>
<g id="a_node14"><a xlink:href="_list_of_members_8cpp.html" target="_top" xlink:title="Implementation of the ListOfMembers class.">
<polygon fill="white" stroke="black" points="494,-224.5 494,-243.5 605,-243.5 605,-224.5 494,-224.5"/>
<text text-anchor="middle" x="549.5" y="-231.5" font-family="Helvetica,sans-Serif" font-size="10.00">ListOfMembers.cpp</text>
</a>
</g>
</g>
<!-- Node13&#45;&gt;Node14 -->
<g id="edge22" class="edge">
<title>Node13&#45;&gt;Node14</title>
<path fill="none" stroke="midnightblue" d="M549.5,-269.8C549.5,-260.91 549.5,-250.78 549.5,-243.75"/>
<polygon fill="midnightblue" stroke="midnightblue" points="546,-270.08 549.5,-280.08 553,-270.08 546,-270.08"/>
</g>
<!-- Node15 -->
<g id="node15" class="node">
<title>Node15</title>
<g id="a_node15"><a xlink:href="_member_8cpp.html" target="_top" xlink:title="Implementation of the Member class.">
<polygon fill="white" stroke="black" points="623,-224.5 623,-243.5 700,-243.5 700,-224.5 623,-224.5"/>
<text text-anchor="middle" x="661.5" y="-231.5" font-family="Helvetica,sans-Serif" font-size="10.00">Member.cpp</text>
</a>
</g>
</g>
<!-- Node13&#45;&gt;Node15 -->
<g id="edge23" class="edge">
<title>Node13&#45;&gt;Node15</title>
<path fill="none" stroke="midnightblue" d="M576.75,-275.86C597.52,-265.85 625.52,-252.35 643.55,-243.65"/>
<polygon fill="midnightblue" stroke="midnightblue" points="574.98,-272.83 567.49,-280.32 578.02,-279.13 574.98,-272.83"/>
</g>
<!-- Node16&#45;&gt;Node2 -->
<g id="edge25" class="edge">
<title>Node16&#45;&gt;Node2</title>
<path fill="none" stroke="midnightblue" d="M654.43,-332.14C688.51,-315.25 739.5,-282.1 739.5,-235 739.5,-235 739.5,-235 739.5,-177 739.5,-146.9 743.26,-131.7 720.5,-112 715.76,-107.9 560.9,-87.37 469.07,-75.51"/>
<polygon fill="midnightblue" stroke="midnightblue" points="652.85,-329.02 645.33,-336.47 655.86,-335.34 652.85,-329.02"/>
</g>
<!-- Node16&#45;&gt;Node13 -->
<g id="edge26" class="edge">
<title>Node16&#45;&gt;Node13</title>
<path fill="none" stroke="midnightblue" d="M604.19,-330.38C590.64,-320.62 573.26,-308.11 561.77,-299.83"/>
<polygon fill="midnightblue" stroke="midnightblue" points="602.29,-333.32 612.45,-336.32 606.38,-327.64 602.29,-333.32"/>
</g>
<!-- Node16&#45;&gt;Node15 -->
<g id="edge27" class="edge">
<title>Node16&#45;&gt;Node15</title>
<path fill="none" stroke="midnightblue" d="M630.66,-326.67C638.75,-302.62 652.62,-261.39 658.61,-243.59"/>
<polygon fill="midnightblue" stroke="midnightblue" points="627.27,-325.77 627.4,-336.37 633.91,-328.01 627.27,-325.77"/>
</g>
</g>
</svg>
