<?xml version="1.0" encoding="UTF-8" standalone="no"?>
<!DOCTYPE svg PUBLIC "-//W3C//DTD SVG 1.1//EN"
 "http://www.w3.org/Graphics/SVG/1.1/DTD/svg11.dtd">
<!-- Generated by graphviz version 2.43.0 (0)
 -->
<!-- Title: Group.h Pages: 1 -->
<svg width="474pt" height="252pt"
 viewBox="0.00 0.00 474.00 252.00" xmlns="http://www.w3.org/2000/svg" xmlns:xlink="http://www.w3.org/1999/xlink">
<g id="graph0" class="graph" transform="scale(1 1) rotate(0) translate(4 248)">
<title>Group.h</title>
<polygon fill="white" stroke="transparent" points="-4,4 -4,-248 470,-248 470,4 -4,4"/>
<!-- Node1 -->
<g id="node1" class="node">
<title>Node1</title>
<g id="a_node1"><a xlink:title="Definition of the Group class.">
<polygon fill="#bfbfbf" stroke="black" points="226.5,-224.5 226.5,-243.5 281.5,-243.5 281.5,-224.5 226.5,-224.5"/>
<text text-anchor="middle" x="254" y="-231.5" font-family="Helvetica,sans-Serif" font-size="10.00">Group.h</text>
</a>
</g>
</g>
<!-- Node2 -->
<g id="node2" class="node">
<title>Node2</title>
<g id="a_node2"><a xlink:href="_groups_extension_types_8h.html" target="_top" xlink:title="Definition of GroupsExtensionTypes.">
<polygon fill="white" stroke="black" points="0,-56.5 0,-75.5 136,-75.5 136,-56.5 0,-56.5"/>
<text text-anchor="middle" x="68" y="-63.5" font-family="Helvetica,sans-Serif" font-size="10.00">GroupsExtensionTypes.h</text>
</a>
</g>
</g>
<!-- Node1&#45;&gt;Node2 -->
<g id="edge1" class="edge">
<title>Node1&#45;&gt;Node2</title>
<path fill="none" stroke="midnightblue" d="M235.44,-217.9C211.75,-198.47 169.67,-163.47 135,-132 113.4,-112.39 89.05,-88.22 76.5,-75.6"/>
<polygon fill="midnightblue" stroke="midnightblue" points="233.33,-220.69 243.29,-224.31 237.76,-215.27 233.33,-220.69"/>
</g>
<!-- Node4 -->
<g id="node4" class="node">
<title>Node4</title>
<g id="a_node4"><a xlink:href="_groups_model_plugin_8h.html" target="_top" xlink:title="Definition of the GroupsModelPlugin class.">
<polygon fill="white" stroke="black" points="144,-112.5 144,-131.5 264,-131.5 264,-112.5 144,-112.5"/>
<text text-anchor="middle" x="204" y="-119.5" font-family="Helvetica,sans-Serif" font-size="10.00">GroupsModelPlugin.h</text>
</a>
</g>
</g>
<!-- Node1&#45;&gt;Node4 -->
<g id="edge3" class="edge">
<title>Node1&#45;&gt;Node4</title>
<path fill="none" stroke="midnightblue" d="M245.82,-215C234.91,-191 216.03,-149.47 207.91,-131.59"/>
<polygon fill="midnightblue" stroke="midnightblue" points="242.75,-216.71 250.08,-224.37 249.12,-213.82 242.75,-216.71"/>
</g>
<!-- Node7 -->
<g id="node7" class="node">
<title>Node7</title>
<g id="a_node7"><a xlink:href="_group_8cpp.html" target="_top" xlink:title="Implementation of the Group class.">
<polygon fill="white" stroke="black" points="400,-112.5 400,-131.5 466,-131.5 466,-112.5 400,-112.5"/>
<text text-anchor="middle" x="433" y="-119.5" font-family="Helvetica,sans-Serif" font-size="10.00">Group.cpp</text>
</a>
</g>
</g>
<!-- Node1&#45;&gt;Node7 -->
<g id="edge7" class="edge">
<title>Node1&#45;&gt;Node7</title>
<path fill="none" stroke="midnightblue" d="M291.46,-223.23C315.47,-215.88 346.6,-204.27 371,-188 394.87,-172.08 416.46,-145.47 426.71,-131.75"/>
<polygon fill="midnightblue" stroke="midnightblue" points="290.25,-219.94 281.64,-226.12 292.22,-226.65 290.25,-219.94"/>
</g>
<!-- Node8 -->
<g id="node8" class="node">
<title>Node8</title>
<g id="a_node8"><a xlink:href="_list_of_groups_8h.html" target="_top" xlink:title="Definition of the ListOfGroups class.">
<polygon fill="white" stroke="black" points="273.5,-168.5 273.5,-187.5 362.5,-187.5 362.5,-168.5 273.5,-168.5"/>
<text text-anchor="middle" x="318" y="-175.5" font-family="Helvetica,sans-Serif" font-size="10.00">ListOfGroups.h</text>
</a>
</g>
</g>
<!-- Node1&#45;&gt;Node8 -->
<g id="edge8" class="edge">
<title>Node1&#45;&gt;Node8</title>
<path fill="none" stroke="midnightblue" d="M271.99,-217.82C283.46,-208.15 297.91,-195.95 307.53,-187.83"/>
<polygon fill="midnightblue" stroke="midnightblue" points="269.67,-215.2 264.28,-224.32 274.18,-220.55 269.67,-215.2"/>
</g>
<!-- Node3 -->
<g id="node3" class="node">
<title>Node3</title>
<g id="a_node3"><a xlink:href="_groups_validator_8cpp.html" target="_top" xlink:title="Definition of GroupsValidator.">
<polygon fill="white" stroke="black" points="11,-0.5 11,-19.5 125,-19.5 125,-0.5 11,-0.5"/>
<text text-anchor="middle" x="68" y="-7.5" font-family="Helvetica,sans-Serif" font-size="10.00">GroupsValidator.cpp</text>
</a>
</g>
</g>
<!-- Node2&#45;&gt;Node3 -->
<g id="edge2" class="edge">
<title>Node2&#45;&gt;Node3</title>
<path fill="none" stroke="midnightblue" d="M68,-45.8C68,-36.91 68,-26.78 68,-19.75"/>
<polygon fill="midnightblue" stroke="midnightblue" points="64.5,-46.08 68,-56.08 71.5,-46.08 64.5,-46.08"/>
</g>
<!-- Node4&#45;&gt;Node2 -->
<g id="edge4" class="edge">
<title>Node4&#45;&gt;Node2</title>
<path fill="none" stroke="midnightblue" d="M172.87,-108.64C147.34,-98.5 111.89,-84.43 89.45,-75.52"/>
<polygon fill="midnightblue" stroke="midnightblue" points="171.86,-112.01 182.45,-112.44 174.45,-105.5 171.86,-112.01"/>
</g>
<!-- Node5 -->
<g id="node5" class="node">
<title>Node5</title>
<g id="a_node5"><a xlink:href="_groups_extension_8cpp.html" target="_top" xlink:title="Implementation of GroupsExtension.">
<polygon fill="white" stroke="black" points="303.5,-56.5 303.5,-75.5 422.5,-75.5 422.5,-56.5 303.5,-56.5"/>
<text text-anchor="middle" x="363" y="-63.5" font-family="Helvetica,sans-Serif" font-size="10.00">GroupsExtension.cpp</text>
</a>
</g>
</g>
<!-- Node4&#45;&gt;Node5 -->
<g id="edge5" class="edge">
<title>Node4&#45;&gt;Node5</title>
<path fill="none" stroke="midnightblue" d="M238.83,-109.17C268.77,-99 311.22,-84.59 337.92,-75.52"/>
<polygon fill="midnightblue" stroke="midnightblue" points="237.54,-105.91 229.19,-112.44 239.79,-112.54 237.54,-105.91"/>
</g>
<!-- Node6 -->
<g id="node6" class="node">
<title>Node6</title>
<g id="a_node6"><a xlink:href="_groups_model_plugin_8cpp.html" target="_top" xlink:title="Implementation of the GroupsModelPlugin class.">
<polygon fill="white" stroke="black" points="154.5,-56.5 154.5,-75.5 285.5,-75.5 285.5,-56.5 154.5,-56.5"/>
<text text-anchor="middle" x="220" y="-63.5" font-family="Helvetica,sans-Serif" font-size="10.00">GroupsModelPlugin.cpp</text>
</a>
</g>
</g>
<!-- Node4&#45;&gt;Node6 -->
<g id="edge6" class="edge">
<title>Node4&#45;&gt;Node6</title>
<path fill="none" stroke="midnightblue" d="M209.51,-102.4C212.19,-93.36 215.28,-82.94 217.41,-75.75"/>
<polygon fill="midnightblue" stroke="midnightblue" points="206.13,-101.5 206.64,-112.08 212.84,-103.49 206.13,-101.5"/>
</g>
<!-- Node8&#45;&gt;Node4 -->
<g id="edge9" class="edge">
<title>Node8&#45;&gt;Node4</title>
<path fill="none" stroke="midnightblue" d="M290.76,-164.1C269.46,-154.01 240.46,-140.27 221.98,-131.52"/>
<polygon fill="midnightblue" stroke="midnightblue" points="289.4,-167.33 299.94,-168.44 292.4,-161 289.4,-167.33"/>
</g>
<!-- Node8&#45;&gt;Node7 -->
<g id="edge10" class="edge">
<title>Node8&#45;&gt;Node7</title>
<path fill="none" stroke="midnightblue" d="M345.48,-164.1C366.97,-154.01 396.22,-140.27 414.86,-131.52"/>
<polygon fill="midnightblue" stroke="midnightblue" points="343.79,-161.02 336.22,-168.44 346.76,-167.36 343.79,-161.02"/>
</g>
<!-- Node9 -->
<g id="node9" class="node">
<title>Node9</title>
<g id="a_node9"><a xlink:href="_list_of_groups_8cpp.html" target="_top" xlink:title="Implementation of the ListOfGroups class.">
<polygon fill="white" stroke="black" points="282,-112.5 282,-131.5 382,-131.5 382,-112.5 282,-112.5"/>
<text text-anchor="middle" x="332" y="-119.5" font-family="Helvetica,sans-Serif" font-size="10.00">ListOfGroups.cpp</text>
</a>
</g>
</g>
<!-- Node8&#45;&gt;Node9 -->
<g id="edge11" class="edge">
<title>Node8&#45;&gt;Node9</title>
<path fill="none" stroke="midnightblue" d="M322.82,-158.4C325.17,-149.36 327.87,-138.94 329.73,-131.75"/>
<polygon fill="midnightblue" stroke="midnightblue" points="319.43,-157.52 320.31,-168.08 326.21,-159.28 319.43,-157.52"/>
</g>
</g>
</svg>
