<?xml version="1.0" encoding="UTF-8" standalone="no"?>
<!DOCTYPE svg PUBLIC "-//W3C//DTD SVG 1.1//EN"
 "http://www.w3.org/Graphics/SVG/1.1/DTD/svg11.dtd">
<!-- Generated by graphviz version 2.43.0 (0)
 -->
<!-- Title: GroupsSBMLDocumentPlugin.h Pages: 1 -->
<svg width="479pt" height="140pt"
 viewBox="0.00 0.00 478.50 140.00" xmlns="http://www.w3.org/2000/svg" xmlns:xlink="http://www.w3.org/1999/xlink">
<g id="graph0" class="graph" transform="scale(1 1) rotate(0) translate(4 136)">
<title>GroupsSBMLDocumentPlugin.h</title>
<polygon fill="white" stroke="transparent" points="-4,4 -4,-136 474.5,-136 474.5,4 -4,4"/>
<!-- Node1 -->
<g id="node1" class="node">
<title>Node1</title>
<g id="a_node1"><a xlink:title="Definition of the GroupsSBMLDocumentPlugin class.">
<polygon fill="#bfbfbf" stroke="black" points="130.5,-112.5 130.5,-131.5 297.5,-131.5 297.5,-112.5 130.5,-112.5"/>
<text text-anchor="middle" x="214" y="-119.5" font-family="Helvetica,sans-Serif" font-size="10.00">GroupsSBMLDocumentPlugin.h</text>
</a>
</g>
</g>
<!-- Node2 -->
<g id="node2" class="node">
<title>Node2</title>
<g id="a_node2"><a xlink:href="_groups_extension_types_8h.html" target="_top" xlink:title="Definition of GroupsExtensionTypes.">
<polygon fill="white" stroke="black" points="0,-56.5 0,-75.5 136,-75.5 136,-56.5 0,-56.5"/>
<text text-anchor="middle" x="68" y="-63.5" font-family="Helvetica,sans-Serif" font-size="10.00">GroupsExtensionTypes.h</text>
</a>
</g>
</g>
<!-- Node1&#45;&gt;Node2 -->
<g id="edge1" class="edge">
<title>Node1&#45;&gt;Node2</title>
<path fill="none" stroke="midnightblue" d="M181.3,-108.91C153.85,-98.75 115.33,-84.51 91.03,-75.52"/>
<polygon fill="midnightblue" stroke="midnightblue" points="180.27,-112.26 190.87,-112.44 182.7,-105.69 180.27,-112.26"/>
</g>
<!-- Node4 -->
<g id="node4" class="node">
<title>Node4</title>
<g id="a_node4"><a xlink:href="_groups_extension_8cpp.html" target="_top" xlink:title="Implementation of GroupsExtension.">
<polygon fill="white" stroke="black" points="154.5,-56.5 154.5,-75.5 273.5,-75.5 273.5,-56.5 154.5,-56.5"/>
<text text-anchor="middle" x="214" y="-63.5" font-family="Helvetica,sans-Serif" font-size="10.00">GroupsExtension.cpp</text>
</a>
</g>
</g>
<!-- Node1&#45;&gt;Node4 -->
<g id="edge3" class="edge">
<title>Node1&#45;&gt;Node4</title>
<path fill="none" stroke="midnightblue" d="M214,-101.8C214,-92.91 214,-82.78 214,-75.75"/>
<polygon fill="midnightblue" stroke="midnightblue" points="210.5,-102.08 214,-112.08 217.5,-102.08 210.5,-102.08"/>
</g>
<!-- Node5 -->
<g id="node5" class="node">
<title>Node5</title>
<g id="a_node5"><a xlink:href="_groups_s_b_m_l_document_plugin_8cpp.html" target="_top" xlink:title="Implementation of the GroupsSBMLDocumentPlugin class.">
<polygon fill="white" stroke="black" points="291.5,-56.5 291.5,-75.5 470.5,-75.5 470.5,-56.5 291.5,-56.5"/>
<text text-anchor="middle" x="381" y="-63.5" font-family="Helvetica,sans-Serif" font-size="10.00">GroupsSBMLDocumentPlugin.cpp</text>
</a>
</g>
</g>
<!-- Node1&#45;&gt;Node5 -->
<g id="edge4" class="edge">
<title>Node1&#45;&gt;Node5</title>
<path fill="none" stroke="midnightblue" d="M250.17,-109.3C281.64,-99.13 326.49,-84.62 354.66,-75.52"/>
<polygon fill="midnightblue" stroke="midnightblue" points="248.9,-106.04 240.46,-112.44 251.05,-112.7 248.9,-106.04"/>
</g>
<!-- Node3 -->
<g id="node3" class="node">
<title>Node3</title>
<g id="a_node3"><a xlink:href="_groups_validator_8cpp.html" target="_top" xlink:title="Definition of GroupsValidator.">
<polygon fill="white" stroke="black" points="11,-0.5 11,-19.5 125,-19.5 125,-0.5 11,-0.5"/>
<text text-anchor="middle" x="68" y="-7.5" font-family="Helvetica,sans-Serif" font-size="10.00">GroupsValidator.cpp</text>
</a>
</g>
</g>
<!-- Node2&#45;&gt;Node3 -->
<g id="edge2" class="edge">
<title>Node2&#45;&gt;Node3</title>
<path fill="none" stroke="midnightblue" d="M68,-45.8C68,-36.91 68,-26.78 68,-19.75"/>
<polygon fill="midnightblue" stroke="midnightblue" points="64.5,-46.08 68,-56.08 71.5,-46.08 64.5,-46.08"/>
</g>
</g>
</svg>
