<?xml version="1.0" encoding="UTF-8" standalone="no"?>
<!DOCTYPE svg PUBLIC "-//W3C//DTD SVG 1.1//EN"
 "http://www.w3.org/Graphics/SVG/1.1/DTD/svg11.dtd">
<!-- Generated by graphviz version 2.43.0 (0)
 -->
<!-- Title: GroupsSBMLError.h Pages: 1 -->
<svg width="918pt" height="140pt"
 viewBox="0.00 0.00 917.50 140.00" xmlns="http://www.w3.org/2000/svg" xmlns:xlink="http://www.w3.org/1999/xlink">
<g id="graph0" class="graph" transform="scale(1 1) rotate(0) translate(4 136)">
<title>GroupsSBMLError.h</title>
<polygon fill="white" stroke="transparent" points="-4,4 -4,-136 913.5,-136 913.5,4 -4,4"/>
<!-- Node1 -->
<g id="node1" class="node">
<title>Node1</title>
<g id="a_node1"><a xlink:title="Definition of the GroupsSBMLError class.">
<polygon fill="#bfbfbf" stroke="black" points="425.5,-112.5 425.5,-131.5 535.5,-131.5 535.5,-112.5 425.5,-112.5"/>
<text text-anchor="middle" x="480.5" y="-119.5" font-family="Helvetica,sans-Serif" font-size="10.00">GroupsSBMLError.h</text>
</a>
</g>
</g>
<!-- Node2 -->
<g id="node2" class="node">
<title>Node2</title>
<g id="a_node2"><a xlink:href="_groups_model_plugin_8cpp.html" target="_top" xlink:title="Implementation of the GroupsModelPlugin class.">
<polygon fill="white" stroke="black" points="0,-56.5 0,-75.5 131,-75.5 131,-56.5 0,-56.5"/>
<text text-anchor="middle" x="65.5" y="-63.5" font-family="Helvetica,sans-Serif" font-size="10.00">GroupsModelPlugin.cpp</text>
</a>
</g>
</g>
<!-- Node1&#45;&gt;Node2 -->
<g id="edge1" class="edge">
<title>Node1&#45;&gt;Node2</title>
<path fill="none" stroke="midnightblue" d="M415.26,-112.51C337.66,-102.41 208.87,-85.66 131.11,-75.54"/>
<polygon fill="midnightblue" stroke="midnightblue" points="415.02,-116.01 425.39,-113.83 415.93,-109.07 415.02,-116.01"/>
</g>
<!-- Node3 -->
<g id="node3" class="node">
<title>Node3</title>
<g id="a_node3"><a xlink:href="_groups_s_b_m_l_document_plugin_8cpp.html" target="_top" xlink:title="Implementation of the GroupsSBMLDocumentPlugin class.">
<polygon fill="white" stroke="black" points="149,-56.5 149,-75.5 328,-75.5 328,-56.5 149,-56.5"/>
<text text-anchor="middle" x="238.5" y="-63.5" font-family="Helvetica,sans-Serif" font-size="10.00">GroupsSBMLDocumentPlugin.cpp</text>
</a>
</g>
</g>
<!-- Node1&#45;&gt;Node3 -->
<g id="edge2" class="edge">
<title>Node1&#45;&gt;Node3</title>
<path fill="none" stroke="midnightblue" d="M432.18,-110.22C386.45,-100.01 318.72,-84.9 276.67,-75.52"/>
<polygon fill="midnightblue" stroke="midnightblue" points="431.63,-113.68 442.15,-112.44 433.16,-106.85 431.63,-113.68"/>
</g>
<!-- Node4 -->
<g id="node4" class="node">
<title>Node4</title>
<g id="a_node4"><a xlink:href="_group_8cpp.html" target="_top" xlink:title="Implementation of the Group class.">
<polygon fill="white" stroke="black" points="346.5,-56.5 346.5,-75.5 412.5,-75.5 412.5,-56.5 346.5,-56.5"/>
<text text-anchor="middle" x="379.5" y="-63.5" font-family="Helvetica,sans-Serif" font-size="10.00">Group.cpp</text>
</a>
</g>
</g>
<!-- Node1&#45;&gt;Node4 -->
<g id="edge3" class="edge">
<title>Node1&#45;&gt;Node4</title>
<path fill="none" stroke="midnightblue" d="M455.42,-107.59C436.74,-97.61 411.8,-84.27 395.69,-75.65"/>
<polygon fill="midnightblue" stroke="midnightblue" points="453.8,-110.7 464.27,-112.32 457.1,-104.52 453.8,-110.7"/>
</g>
<!-- Node5 -->
<g id="node5" class="node">
<title>Node5</title>
<g id="a_node5"><a xlink:href="_list_of_groups_8cpp.html" target="_top" xlink:title="Implementation of the ListOfGroups class.">
<polygon fill="white" stroke="black" points="430.5,-56.5 430.5,-75.5 530.5,-75.5 530.5,-56.5 430.5,-56.5"/>
<text text-anchor="middle" x="480.5" y="-63.5" font-family="Helvetica,sans-Serif" font-size="10.00">ListOfGroups.cpp</text>
</a>
</g>
</g>
<!-- Node1&#45;&gt;Node5 -->
<g id="edge4" class="edge">
<title>Node1&#45;&gt;Node5</title>
<path fill="none" stroke="midnightblue" d="M480.5,-101.8C480.5,-92.91 480.5,-82.78 480.5,-75.75"/>
<polygon fill="midnightblue" stroke="midnightblue" points="477,-102.08 480.5,-112.08 484,-102.08 477,-102.08"/>
</g>
<!-- Node6 -->
<g id="node6" class="node">
<title>Node6</title>
<g id="a_node6"><a xlink:href="_list_of_members_8cpp.html" target="_top" xlink:title="Implementation of the ListOfMembers class.">
<polygon fill="white" stroke="black" points="549,-56.5 549,-75.5 660,-75.5 660,-56.5 549,-56.5"/>
<text text-anchor="middle" x="604.5" y="-63.5" font-family="Helvetica,sans-Serif" font-size="10.00">ListOfMembers.cpp</text>
</a>
</g>
</g>
<!-- Node1&#45;&gt;Node6 -->
<g id="edge5" class="edge">
<title>Node1&#45;&gt;Node6</title>
<path fill="none" stroke="midnightblue" d="M509.51,-108.37C532.73,-98.26 564.66,-84.35 584.94,-75.52"/>
<polygon fill="midnightblue" stroke="midnightblue" points="507.92,-105.24 500.15,-112.44 510.71,-111.66 507.92,-105.24"/>
</g>
<!-- Node7 -->
<g id="node7" class="node">
<title>Node7</title>
<g id="a_node7"><a xlink:href="_member_8cpp.html" target="_top" xlink:title="Implementation of the Member class.">
<polygon fill="white" stroke="black" points="678,-56.5 678,-75.5 755,-75.5 755,-56.5 678,-56.5"/>
<text text-anchor="middle" x="716.5" y="-63.5" font-family="Helvetica,sans-Serif" font-size="10.00">Member.cpp</text>
</a>
</g>
</g>
<!-- Node1&#45;&gt;Node7 -->
<g id="edge6" class="edge">
<title>Node1&#45;&gt;Node7</title>
<path fill="none" stroke="midnightblue" d="M527.91,-110.15C572.5,-99.95 638.35,-84.88 679.28,-75.52"/>
<polygon fill="midnightblue" stroke="midnightblue" points="526.86,-106.8 517.89,-112.44 528.42,-113.62 526.86,-106.8"/>
</g>
<!-- Node8 -->
<g id="node8" class="node">
<title>Node8</title>
<g id="a_node8"><a xlink:href="_groups_s_b_m_l_error_table_8h.html" target="_top" xlink:title="Definition of the GroupsSBMLErrorTable class.">
<polygon fill="white" stroke="black" points="773.5,-56.5 773.5,-75.5 909.5,-75.5 909.5,-56.5 773.5,-56.5"/>
<text text-anchor="middle" x="841.5" y="-63.5" font-family="Helvetica,sans-Serif" font-size="10.00">GroupsSBMLErrorTable.h</text>
</a>
</g>
</g>
<!-- Node1&#45;&gt;Node8 -->
<g id="edge7" class="edge">
<title>Node1&#45;&gt;Node8</title>
<path fill="none" stroke="midnightblue" d="M545.9,-111.22C614.03,-101.03 719.67,-85.22 784.5,-75.53"/>
<polygon fill="midnightblue" stroke="midnightblue" points="545.09,-107.8 535.72,-112.74 546.13,-114.72 545.09,-107.8"/>
</g>
<!-- Node9 -->
<g id="node9" class="node">
<title>Node9</title>
<g id="a_node9"><a xlink:href="_groups_extension_8cpp.html" target="_top" xlink:title="Implementation of GroupsExtension.">
<polygon fill="white" stroke="black" points="782,-0.5 782,-19.5 901,-19.5 901,-0.5 782,-0.5"/>
<text text-anchor="middle" x="841.5" y="-7.5" font-family="Helvetica,sans-Serif" font-size="10.00">GroupsExtension.cpp</text>
</a>
</g>
</g>
<!-- Node8&#45;&gt;Node9 -->
<g id="edge8" class="edge">
<title>Node8&#45;&gt;Node9</title>
<path fill="none" stroke="midnightblue" d="M841.5,-45.8C841.5,-36.91 841.5,-26.78 841.5,-19.75"/>
<polygon fill="midnightblue" stroke="midnightblue" points="838,-46.08 841.5,-56.08 845,-46.08 838,-46.08"/>
</g>
</g>
</svg>
