<?xml version="1.0" encoding="UTF-8" standalone="no"?>
<!DOCTYPE svg PUBLIC "-//W3C//DTD SVG 1.1//EN"
 "http://www.w3.org/Graphics/SVG/1.1/DTD/svg11.dtd">
<!-- Generated by graphviz version 2.43.0 (0)
 -->
<!-- Title: IdFilter.h Pages: 1 -->
<svg width="385pt" height="84pt"
 viewBox="0.00 0.00 385.00 84.00" xmlns="http://www.w3.org/2000/svg" xmlns:xlink="http://www.w3.org/1999/xlink">
<g id="graph0" class="graph" transform="scale(1 1) rotate(0) translate(4 80)">
<title>IdFilter.h</title>
<polygon fill="white" stroke="transparent" points="-4,4 -4,-80 381,-80 381,4 -4,4"/>
<!-- Node1 -->
<g id="node1" class="node">
<title>Node1</title>
<g id="a_node1"><a xlink:title=" ">
<polygon fill="#bfbfbf" stroke="black" points="119,-56.5 119,-75.5 178,-75.5 178,-56.5 119,-56.5"/>
<text text-anchor="middle" x="148.5" y="-63.5" font-family="Helvetica,sans-Serif" font-size="10.00">IdFilter.h</text>
</a>
</g>
</g>
<!-- Node2 -->
<g id="node2" class="node">
<title>Node2</title>
<g id="a_node2"><a xlink:href="_s_base_plugin_8cpp.html" target="_top" xlink:title="Implementation of SBasePlugin, the base class of extension entities plugged in SBase derived classes ...">
<polygon fill="white" stroke="black" points="0,-0.5 0,-19.5 97,-19.5 97,-0.5 0,-0.5"/>
<text text-anchor="middle" x="48.5" y="-7.5" font-family="Helvetica,sans-Serif" font-size="10.00">SBasePlugin.cpp</text>
</a>
</g>
</g>
<!-- Node1&#45;&gt;Node2 -->
<g id="edge1" class="edge">
<title>Node1&#45;&gt;Node2</title>
<path fill="none" stroke="midnightblue" d="M123.41,-51.45C104.95,-41.48 80.4,-28.23 64.53,-19.65"/>
<polygon fill="midnightblue" stroke="midnightblue" points="121.97,-54.65 132.43,-56.32 125.3,-48.49 121.97,-54.65"/>
</g>
<!-- Node3 -->
<g id="node3" class="node">
<title>Node3</title>
<g id="a_node3"><a xlink:href="_model_8cpp.html" target="_top" xlink:title="Implementation of Model.">
<polygon fill="white" stroke="black" points="115,-0.5 115,-19.5 182,-19.5 182,-0.5 115,-0.5"/>
<text text-anchor="middle" x="148.5" y="-7.5" font-family="Helvetica,sans-Serif" font-size="10.00">Model.cpp</text>
</a>
</g>
</g>
<!-- Node1&#45;&gt;Node3 -->
<g id="edge2" class="edge">
<title>Node1&#45;&gt;Node3</title>
<path fill="none" stroke="midnightblue" d="M148.5,-45.8C148.5,-36.91 148.5,-26.78 148.5,-19.75"/>
<polygon fill="midnightblue" stroke="midnightblue" points="145,-46.08 148.5,-56.08 152,-46.08 145,-46.08"/>
</g>
<!-- Node4 -->
<g id="node4" class="node">
<title>Node4</title>
<g id="a_node4"><a xlink:href="_layout_s_b_m_l_document_plugin_8cpp.html" target="_top" xlink:title="Implementation of the LayoutSBMLDocumentPlugin class.">
<polygon fill="white" stroke="black" points="200,-0.5 200,-19.5 377,-19.5 377,-0.5 200,-0.5"/>
<text text-anchor="middle" x="288.5" y="-7.5" font-family="Helvetica,sans-Serif" font-size="10.00">LayoutSBMLDocumentPlugin.cpp</text>
</a>
</g>
</g>
<!-- Node1&#45;&gt;Node4 -->
<g id="edge3" class="edge">
<title>Node1&#45;&gt;Node4</title>
<path fill="none" stroke="midnightblue" d="M180.2,-52.77C206.5,-42.63 243.22,-28.47 266.42,-19.52"/>
<polygon fill="midnightblue" stroke="midnightblue" points="178.75,-49.58 170.68,-56.44 181.27,-56.11 178.75,-49.58"/>
</g>
</g>
</svg>
