<?xml version="1.0" encoding="UTF-8" standalone="no"?>
<!DOCTYPE svg PUBLIC "-//W3C//DTD SVG 1.1//EN"
 "http://www.w3.org/Graphics/SVG/1.1/DTD/svg11.dtd">
<!-- Generated by graphviz version 2.43.0 (0)
 -->
<!-- Title: Input.h Pages: 1 -->
<svg width="476pt" height="252pt"
 viewBox="0.00 0.00 476.00 252.00" xmlns="http://www.w3.org/2000/svg" xmlns:xlink="http://www.w3.org/1999/xlink">
<g id="graph0" class="graph" transform="scale(1 1) rotate(0) translate(4 248)">
<title>Input.h</title>
<polygon fill="white" stroke="transparent" points="-4,4 -4,-248 472,-248 472,4 -4,4"/>
<!-- Node1 -->
<g id="node1" class="node">
<title>Node1</title>
<g id="a_node1"><a xlink:title="Implementation of the Input class.">
<polygon fill="#bfbfbf" stroke="black" points="96,-224.5 96,-243.5 146,-243.5 146,-224.5 96,-224.5"/>
<text text-anchor="middle" x="121" y="-231.5" font-family="Helvetica,sans-Serif" font-size="10.00">Input.h</text>
</a>
</g>
</g>
<!-- Node2 -->
<g id="node2" class="node">
<title>Node2</title>
<g id="a_node2"><a xlink:href="_qual_extension_types_8h.html" target="_top" xlink:title="Include all SBML types of qual extension in a single header file.">
<polygon fill="white" stroke="black" points="0,-56.5 0,-75.5 124,-75.5 124,-56.5 0,-56.5"/>
<text text-anchor="middle" x="62" y="-63.5" font-family="Helvetica,sans-Serif" font-size="10.00">QualExtensionTypes.h</text>
</a>
</g>
</g>
<!-- Node1&#45;&gt;Node2 -->
<g id="edge1" class="edge">
<title>Node1&#45;&gt;Node2</title>
<path fill="none" stroke="midnightblue" d="M102.74,-217.08C94.8,-209.14 86.16,-198.92 81,-188 62.66,-149.16 61.43,-96.28 61.73,-75.7"/>
<polygon fill="midnightblue" stroke="midnightblue" points="100.61,-219.88 110.28,-224.19 105.41,-214.79 100.61,-219.88"/>
</g>
<!-- Node4 -->
<g id="node4" class="node">
<title>Node4</title>
<g id="a_node4"><a xlink:href="_input_8cpp.html" target="_top" xlink:title="Implementation of the Input class.">
<polygon fill="white" stroke="black" points="90,-168.5 90,-187.5 152,-187.5 152,-168.5 90,-168.5"/>
<text text-anchor="middle" x="121" y="-175.5" font-family="Helvetica,sans-Serif" font-size="10.00">Input.cpp</text>
</a>
</g>
</g>
<!-- Node1&#45;&gt;Node4 -->
<g id="edge3" class="edge">
<title>Node1&#45;&gt;Node4</title>
<path fill="none" stroke="midnightblue" d="M121,-213.8C121,-204.91 121,-194.78 121,-187.75"/>
<polygon fill="midnightblue" stroke="midnightblue" points="117.5,-214.08 121,-224.08 124.5,-214.08 117.5,-214.08"/>
</g>
<!-- Node5 -->
<g id="node5" class="node">
<title>Node5</title>
<g id="a_node5"><a xlink:href="_transition_8h.html" target="_top" xlink:title="Implementation of the Transition class.">
<polygon fill="white" stroke="black" points="170.5,-168.5 170.5,-187.5 243.5,-187.5 243.5,-168.5 170.5,-168.5"/>
<text text-anchor="middle" x="207" y="-175.5" font-family="Helvetica,sans-Serif" font-size="10.00">Transition.h</text>
</a>
</g>
</g>
<!-- Node1&#45;&gt;Node5 -->
<g id="edge4" class="edge">
<title>Node1&#45;&gt;Node5</title>
<path fill="none" stroke="midnightblue" d="M143.45,-218.9C159.22,-209 179.81,-196.07 193.22,-187.65"/>
<polygon fill="midnightblue" stroke="midnightblue" points="141.43,-216.04 134.82,-224.32 145.15,-221.97 141.43,-216.04"/>
</g>
<!-- Node3 -->
<g id="node3" class="node">
<title>Node3</title>
<g id="a_node3"><a xlink:href="_qual_validator_8cpp.html" target="_top" xlink:title="Base class for SBML Validators.">
<polygon fill="white" stroke="black" points="11,-0.5 11,-19.5 113,-19.5 113,-0.5 11,-0.5"/>
<text text-anchor="middle" x="62" y="-7.5" font-family="Helvetica,sans-Serif" font-size="10.00">QualValidator.cpp</text>
</a>
</g>
</g>
<!-- Node2&#45;&gt;Node3 -->
<g id="edge2" class="edge">
<title>Node2&#45;&gt;Node3</title>
<path fill="none" stroke="midnightblue" d="M62,-45.8C62,-36.91 62,-26.78 62,-19.75"/>
<polygon fill="midnightblue" stroke="midnightblue" points="58.5,-46.08 62,-56.08 65.5,-46.08 58.5,-46.08"/>
</g>
<!-- Node5&#45;&gt;Node2 -->
<g id="edge5" class="edge">
<title>Node5&#45;&gt;Node2</title>
<path fill="none" stroke="midnightblue" d="M180.41,-163.77C164.83,-155.52 145.12,-144.17 129,-132 105.46,-114.23 81.53,-88.87 69.66,-75.7"/>
<polygon fill="midnightblue" stroke="midnightblue" points="179.01,-166.99 189.5,-168.49 182.24,-160.78 179.01,-166.99"/>
</g>
<!-- Node6 -->
<g id="node6" class="node">
<title>Node6</title>
<g id="a_node6"><a xlink:href="_qual_model_plugin_8h.html" target="_top" xlink:title="Definition of QualModelPlugin, the plugin class of qual package for the Model element.">
<polygon fill="white" stroke="black" points="138,-112.5 138,-131.5 246,-131.5 246,-112.5 138,-112.5"/>
<text text-anchor="middle" x="192" y="-119.5" font-family="Helvetica,sans-Serif" font-size="10.00">QualModelPlugin.h</text>
</a>
</g>
</g>
<!-- Node5&#45;&gt;Node6 -->
<g id="edge6" class="edge">
<title>Node5&#45;&gt;Node6</title>
<path fill="none" stroke="midnightblue" d="M201.83,-158.4C199.32,-149.36 196.43,-138.94 194.43,-131.75"/>
<polygon fill="midnightblue" stroke="midnightblue" points="198.47,-159.38 204.52,-168.08 205.22,-157.51 198.47,-159.38"/>
</g>
<!-- Node9 -->
<g id="node9" class="node">
<title>Node9</title>
<g id="a_node9"><a xlink:href="_function_term_8cpp.html" target="_top" xlink:title="Implementation of the FunctionTerm class.">
<polygon fill="white" stroke="black" points="264,-112.5 264,-131.5 366,-131.5 366,-112.5 264,-112.5"/>
<text text-anchor="middle" x="315" y="-119.5" font-family="Helvetica,sans-Serif" font-size="10.00">FunctionTerm.cpp</text>
</a>
</g>
</g>
<!-- Node5&#45;&gt;Node9 -->
<g id="edge10" class="edge">
<title>Node5&#45;&gt;Node9</title>
<path fill="none" stroke="midnightblue" d="M233.55,-163.73C253.55,-153.73 280.39,-140.31 297.69,-131.65"/>
<polygon fill="midnightblue" stroke="midnightblue" points="231.73,-160.72 224.35,-168.32 234.86,-166.98 231.73,-160.72"/>
</g>
<!-- Node10 -->
<g id="node10" class="node">
<title>Node10</title>
<g id="a_node10"><a xlink:href="_transition_8cpp.html" target="_top" xlink:title="Implementation of the Transition class.">
<polygon fill="white" stroke="black" points="384,-112.5 384,-131.5 468,-131.5 468,-112.5 384,-112.5"/>
<text text-anchor="middle" x="426" y="-119.5" font-family="Helvetica,sans-Serif" font-size="10.00">Transition.cpp</text>
</a>
</g>
</g>
<!-- Node5&#45;&gt;Node10 -->
<g id="edge11" class="edge">
<title>Node5&#45;&gt;Node10</title>
<path fill="none" stroke="midnightblue" d="M251.51,-166.02C292.88,-155.82 353.64,-140.84 391.46,-131.52"/>
<polygon fill="midnightblue" stroke="midnightblue" points="250.57,-162.65 241.7,-168.44 252.25,-169.45 250.57,-162.65"/>
</g>
<!-- Node6&#45;&gt;Node2 -->
<g id="edge7" class="edge">
<title>Node6&#45;&gt;Node2</title>
<path fill="none" stroke="midnightblue" d="M161.91,-108.5C137.54,-98.38 103.86,-84.39 82.5,-75.52"/>
<polygon fill="midnightblue" stroke="midnightblue" points="160.82,-111.84 171.4,-112.44 163.51,-105.38 160.82,-111.84"/>
</g>
<!-- Node7 -->
<g id="node7" class="node">
<title>Node7</title>
<g id="a_node7"><a xlink:href="_qual_extension_8cpp.html" target="_top" xlink:title="Implementation of QualExtension, the core module of qual package.">
<polygon fill="white" stroke="black" points="142.5,-56.5 142.5,-75.5 249.5,-75.5 249.5,-56.5 142.5,-56.5"/>
<text text-anchor="middle" x="196" y="-63.5" font-family="Helvetica,sans-Serif" font-size="10.00">QualExtension.cpp</text>
</a>
</g>
</g>
<!-- Node6&#45;&gt;Node7 -->
<g id="edge8" class="edge">
<title>Node6&#45;&gt;Node7</title>
<path fill="none" stroke="midnightblue" d="M193.4,-102.1C194.06,-93.14 194.83,-82.86 195.35,-75.75"/>
<polygon fill="midnightblue" stroke="midnightblue" points="189.91,-101.85 192.66,-112.08 196.89,-102.37 189.91,-101.85"/>
</g>
<!-- Node8 -->
<g id="node8" class="node">
<title>Node8</title>
<g id="a_node8"><a xlink:href="_qual_model_plugin_8cpp.html" target="_top" xlink:title="Implementation of QualModelPlugin, the plugin class of qual package for the Model element.">
<polygon fill="white" stroke="black" points="267.5,-56.5 267.5,-75.5 386.5,-75.5 386.5,-56.5 267.5,-56.5"/>
<text text-anchor="middle" x="327" y="-63.5" font-family="Helvetica,sans-Serif" font-size="10.00">QualModelPlugin.cpp</text>
</a>
</g>
</g>
<!-- Node6&#45;&gt;Node8 -->
<g id="edge9" class="edge">
<title>Node6&#45;&gt;Node8</title>
<path fill="none" stroke="midnightblue" d="M222.91,-108.64C248.24,-98.5 283.43,-84.43 305.71,-75.52"/>
<polygon fill="midnightblue" stroke="midnightblue" points="221.38,-105.48 213.39,-112.44 223.98,-111.98 221.38,-105.48"/>
</g>
</g>
</svg>
