<?xml version="1.0" encoding="UTF-8" standalone="no"?>
<!DOCTYPE svg PUBLIC "-//W3C//DTD SVG 1.1//EN"
 "http://www.w3.org/Graphics/SVG/1.1/DTD/svg11.dtd">
<!-- Generated by graphviz version 2.43.0 (0)
 -->
<!-- Title: IntraSpeciesReaction.h Pages: 1 -->
<svg width="576pt" height="196pt"
 viewBox="0.00 0.00 576.00 196.00" xmlns="http://www.w3.org/2000/svg" xmlns:xlink="http://www.w3.org/1999/xlink">
<g id="graph0" class="graph" transform="scale(1 1) rotate(0) translate(4 192)">
<title>IntraSpeciesReaction.h</title>
<polygon fill="white" stroke="transparent" points="-4,4 -4,-192 572,-192 572,4 -4,4"/>
<!-- Node1 -->
<g id="node1" class="node">
<title>Node1</title>
<g id="a_node1"><a xlink:title=": Implementation of the IntraSpeciesReaction class">
<polygon fill="#bfbfbf" stroke="black" points="206,-168.5 206,-187.5 334,-187.5 334,-168.5 206,-168.5"/>
<text text-anchor="middle" x="270" y="-175.5" font-family="Helvetica,sans-Serif" font-size="10.00">IntraSpeciesReaction.h</text>
</a>
</g>
</g>
<!-- Node2 -->
<g id="node2" class="node">
<title>Node2</title>
<g id="a_node2"><a xlink:href="_multi_extension_types_8h.html" target="_top" xlink:title=": Implementation of the MultiExtensionTypes class">
<polygon fill="white" stroke="black" points="0,-56.5 0,-75.5 126,-75.5 126,-56.5 0,-56.5"/>
<text text-anchor="middle" x="63" y="-63.5" font-family="Helvetica,sans-Serif" font-size="10.00">MultiExtensionTypes.h</text>
</a>
</g>
</g>
<!-- Node1&#45;&gt;Node2 -->
<g id="edge1" class="edge">
<title>Node1&#45;&gt;Node2</title>
<path fill="none" stroke="midnightblue" d="M196.04,-169.3C164.93,-163.13 129.82,-152.01 103,-132 83.25,-117.26 71.08,-89.63 65.91,-75.62"/>
<polygon fill="midnightblue" stroke="midnightblue" points="195.51,-172.77 205.98,-171.14 196.78,-165.88 195.51,-172.77"/>
</g>
<!-- Node4 -->
<g id="node4" class="node">
<title>Node4</title>
<g id="a_node4"><a xlink:href="_multi_list_of_reactions_plugin_8h.html" target="_top" xlink:title=": Implementation of the MultiListOfReactionsPlugin class">
<polygon fill="white" stroke="black" points="112.5,-112.5 112.5,-131.5 269.5,-131.5 269.5,-112.5 112.5,-112.5"/>
<text text-anchor="middle" x="191" y="-119.5" font-family="Helvetica,sans-Serif" font-size="10.00">MultiListOfReactionsPlugin.h</text>
</a>
</g>
</g>
<!-- Node1&#45;&gt;Node4 -->
<g id="edge3" class="edge">
<title>Node1&#45;&gt;Node4</title>
<path fill="none" stroke="midnightblue" d="M248.97,-162.62C234.53,-152.76 215.86,-139.99 203.66,-131.65"/>
<polygon fill="midnightblue" stroke="midnightblue" points="247.08,-165.57 257.31,-168.32 251.03,-159.79 247.08,-165.57"/>
</g>
<!-- Node7 -->
<g id="node7" class="node">
<title>Node7</title>
<g id="a_node7"><a xlink:href="_multi_model_plugin_8cpp.html" target="_top" xlink:title=": Implementation of the MultiModelPlugin class">
<polygon fill="white" stroke="black" points="288,-112.5 288,-131.5 410,-131.5 410,-112.5 288,-112.5"/>
<text text-anchor="middle" x="349" y="-119.5" font-family="Helvetica,sans-Serif" font-size="10.00">MultiModelPlugin.cpp</text>
</a>
</g>
</g>
<!-- Node1&#45;&gt;Node7 -->
<g id="edge7" class="edge">
<title>Node1&#45;&gt;Node7</title>
<path fill="none" stroke="midnightblue" d="M291.03,-162.62C305.47,-152.76 324.14,-139.99 336.34,-131.65"/>
<polygon fill="midnightblue" stroke="midnightblue" points="288.97,-159.79 282.69,-168.32 292.92,-165.57 288.97,-159.79"/>
</g>
<!-- Node8 -->
<g id="node8" class="node">
<title>Node8</title>
<g id="a_node8"><a xlink:href="_intra_species_reaction_8cpp.html" target="_top" xlink:title=": Implementation of the IntraSpeciesReaction class">
<polygon fill="white" stroke="black" points="428,-112.5 428,-131.5 568,-131.5 568,-112.5 428,-112.5"/>
<text text-anchor="middle" x="498" y="-119.5" font-family="Helvetica,sans-Serif" font-size="10.00">IntraSpeciesReaction.cpp</text>
</a>
</g>
</g>
<!-- Node1&#45;&gt;Node8 -->
<g id="edge8" class="edge">
<title>Node1&#45;&gt;Node8</title>
<path fill="none" stroke="midnightblue" d="M316.07,-166.09C359.15,-155.89 422.59,-140.86 462.04,-131.52"/>
<polygon fill="midnightblue" stroke="midnightblue" points="315.05,-162.73 306.13,-168.44 316.66,-169.54 315.05,-162.73"/>
</g>
<!-- Node3 -->
<g id="node3" class="node">
<title>Node3</title>
<g id="a_node3"><a xlink:href="_multi_validator_8cpp.html" target="_top" xlink:title=": Implementation of the MultiValidator class">
<polygon fill="white" stroke="black" points="11,-0.5 11,-19.5 115,-19.5 115,-0.5 11,-0.5"/>
<text text-anchor="middle" x="63" y="-7.5" font-family="Helvetica,sans-Serif" font-size="10.00">MultiValidator.cpp</text>
</a>
</g>
</g>
<!-- Node2&#45;&gt;Node3 -->
<g id="edge2" class="edge">
<title>Node2&#45;&gt;Node3</title>
<path fill="none" stroke="midnightblue" d="M63,-45.8C63,-36.91 63,-26.78 63,-19.75"/>
<polygon fill="midnightblue" stroke="midnightblue" points="59.5,-46.08 63,-56.08 66.5,-46.08 59.5,-46.08"/>
</g>
<!-- Node4&#45;&gt;Node2 -->
<g id="edge4" class="edge">
<title>Node4&#45;&gt;Node2</title>
<path fill="none" stroke="midnightblue" d="M161.38,-108.5C137.38,-98.38 104.22,-84.39 83.19,-75.52"/>
<polygon fill="midnightblue" stroke="midnightblue" points="160.14,-111.78 170.72,-112.44 162.86,-105.33 160.14,-111.78"/>
</g>
<!-- Node5 -->
<g id="node5" class="node">
<title>Node5</title>
<g id="a_node5"><a xlink:href="_multi_extension_8cpp.html" target="_top" xlink:title=": Implementation of the MultiExtension class">
<polygon fill="white" stroke="black" points="144,-56.5 144,-75.5 254,-75.5 254,-56.5 144,-56.5"/>
<text text-anchor="middle" x="199" y="-63.5" font-family="Helvetica,sans-Serif" font-size="10.00">MultiExtension.cpp</text>
</a>
</g>
</g>
<!-- Node4&#45;&gt;Node5 -->
<g id="edge5" class="edge">
<title>Node4&#45;&gt;Node5</title>
<path fill="none" stroke="midnightblue" d="M193.8,-102.1C195.13,-93.14 196.65,-82.86 197.7,-75.75"/>
<polygon fill="midnightblue" stroke="midnightblue" points="190.32,-101.68 192.32,-112.08 197.25,-102.7 190.32,-101.68"/>
</g>
<!-- Node6 -->
<g id="node6" class="node">
<title>Node6</title>
<g id="a_node6"><a xlink:href="_multi_list_of_reactions_plugin_8cpp.html" target="_top" xlink:title=": Implementation of the MultiListOfReactionsPlugin class">
<polygon fill="white" stroke="black" points="272,-56.5 272,-75.5 440,-75.5 440,-56.5 272,-56.5"/>
<text text-anchor="middle" x="356" y="-63.5" font-family="Helvetica,sans-Serif" font-size="10.00">MultiListOfReactionsPlugin.cpp</text>
</a>
</g>
</g>
<!-- Node4&#45;&gt;Node6 -->
<g id="edge6" class="edge">
<title>Node4&#45;&gt;Node6</title>
<path fill="none" stroke="midnightblue" d="M226.74,-109.3C257.83,-99.13 302.15,-84.62 329.98,-75.52"/>
<polygon fill="midnightblue" stroke="midnightblue" points="225.56,-106.01 217.14,-112.44 227.74,-112.66 225.56,-106.01"/>
</g>
</g>
</svg>
