<?xml version="1.0" encoding="UTF-8" standalone="no"?>
<!DOCTYPE svg PUBLIC "-//W3C//DTD SVG 1.1//EN"
 "http://www.w3.org/Graphics/SVG/1.1/DTD/svg11.dtd">
<!-- Generated by graphviz version 2.43.0 (0)
 -->
<!-- Title: InteriorPoint.h Pages: 1 -->
<svg width="436pt" height="420pt"
 viewBox="0.00 0.00 435.50 420.00" xmlns="http://www.w3.org/2000/svg" xmlns:xlink="http://www.w3.org/1999/xlink">
<g id="graph0" class="graph" transform="scale(1 1) rotate(0) translate(4 416)">
<title>InteriorPoint.h</title>
<polygon fill="white" stroke="transparent" points="-4,4 -4,-416 431.5,-416 431.5,4 -4,4"/>
<!-- Node1 -->
<g id="node1" class="node">
<title>Node1</title>
<g id="a_node1"><a xlink:title="Definition of the InteriorPoint class.">
<polygon fill="#bfbfbf" stroke="black" points="34,-392.5 34,-411.5 120,-411.5 120,-392.5 34,-392.5"/>
<text text-anchor="middle" x="77" y="-399.5" font-family="Helvetica,sans-Serif" font-size="10.00">InteriorPoint.h</text>
</a>
</g>
</g>
<!-- Node2 -->
<g id="node2" class="node">
<title>Node2</title>
<g id="a_node2"><a xlink:href="_spatial_extension_types_8h.html" target="_top" xlink:title="Definition of SpatialExtensionTypes.">
<polygon fill="white" stroke="black" points="6.5,-56.5 6.5,-75.5 141.5,-75.5 141.5,-56.5 6.5,-56.5"/>
<text text-anchor="middle" x="74" y="-63.5" font-family="Helvetica,sans-Serif" font-size="10.00">SpatialExtensionTypes.h</text>
</a>
</g>
</g>
<!-- Node1&#45;&gt;Node2 -->
<g id="edge1" class="edge">
<title>Node1&#45;&gt;Node2</title>
<path fill="none" stroke="midnightblue" d="M57.53,-386.16C34.71,-366.92 0,-331.07 0,-291 0,-291 0,-291 0,-177 0,-132.58 42.06,-92.62 62.76,-75.64"/>
<polygon fill="midnightblue" stroke="midnightblue" points="55.33,-388.89 65.31,-392.47 59.74,-383.45 55.33,-388.89"/>
</g>
<!-- Node4 -->
<g id="node4" class="node">
<title>Node4</title>
<g id="a_node4"><a xlink:href="_interior_point_8cpp.html" target="_top" xlink:title="Implementation of the InteriorPoint class.">
<polygon fill="white" stroke="black" points="28.5,-280.5 28.5,-299.5 125.5,-299.5 125.5,-280.5 28.5,-280.5"/>
<text text-anchor="middle" x="77" y="-287.5" font-family="Helvetica,sans-Serif" font-size="10.00">InteriorPoint.cpp</text>
</a>
</g>
</g>
<!-- Node1&#45;&gt;Node4 -->
<g id="edge3" class="edge">
<title>Node1&#45;&gt;Node4</title>
<path fill="none" stroke="midnightblue" d="M77,-382.35C77,-358.25 77,-317.31 77,-299.59"/>
<polygon fill="midnightblue" stroke="midnightblue" points="73.5,-382.37 77,-392.37 80.5,-382.37 73.5,-382.37"/>
</g>
<!-- Node5 -->
<g id="node5" class="node">
<title>Node5</title>
<g id="a_node5"><a xlink:href="_list_of_interior_points_8h.html" target="_top" xlink:title="Definition of the ListOfInteriorPoints class.">
<polygon fill="white" stroke="black" points="110.5,-336.5 110.5,-355.5 229.5,-355.5 229.5,-336.5 110.5,-336.5"/>
<text text-anchor="middle" x="170" y="-343.5" font-family="Helvetica,sans-Serif" font-size="10.00">ListOfInteriorPoints.h</text>
</a>
</g>
</g>
<!-- Node1&#45;&gt;Node5 -->
<g id="edge4" class="edge">
<title>Node1&#45;&gt;Node5</title>
<path fill="none" stroke="midnightblue" d="M100.81,-387.18C117.92,-377.24 140.47,-364.15 155.1,-355.65"/>
<polygon fill="midnightblue" stroke="midnightblue" points="98.83,-384.28 91.94,-392.32 102.35,-390.33 98.83,-384.28"/>
</g>
<!-- Node3 -->
<g id="node3" class="node">
<title>Node3</title>
<g id="a_node3"><a xlink:href="_spatial_validator_8cpp.html" target="_top" xlink:title="Definition of SpatialValidator.">
<polygon fill="white" stroke="black" points="17.5,-0.5 17.5,-19.5 130.5,-19.5 130.5,-0.5 17.5,-0.5"/>
<text text-anchor="middle" x="74" y="-7.5" font-family="Helvetica,sans-Serif" font-size="10.00">SpatialValidator.cpp</text>
</a>
</g>
</g>
<!-- Node2&#45;&gt;Node3 -->
<g id="edge2" class="edge">
<title>Node2&#45;&gt;Node3</title>
<path fill="none" stroke="midnightblue" d="M74,-45.8C74,-36.91 74,-26.78 74,-19.75"/>
<polygon fill="midnightblue" stroke="midnightblue" points="70.5,-46.08 74,-56.08 77.5,-46.08 70.5,-46.08"/>
</g>
<!-- Node5&#45;&gt;Node4 -->
<g id="edge18" class="edge">
<title>Node5&#45;&gt;Node4</title>
<path fill="none" stroke="midnightblue" d="M146.19,-331.18C129.08,-321.24 106.53,-308.15 91.9,-299.65"/>
<polygon fill="midnightblue" stroke="midnightblue" points="144.65,-334.33 155.06,-336.32 148.17,-328.28 144.65,-334.33"/>
</g>
<!-- Node6 -->
<g id="node6" class="node">
<title>Node6</title>
<g id="a_node6"><a xlink:href="_domain_8h.html" target="_top" xlink:title="Definition of the Domain class.">
<polygon fill="white" stroke="black" points="144,-280.5 144,-299.5 208,-299.5 208,-280.5 144,-280.5"/>
<text text-anchor="middle" x="176" y="-287.5" font-family="Helvetica,sans-Serif" font-size="10.00">Domain.h</text>
</a>
</g>
</g>
<!-- Node5&#45;&gt;Node6 -->
<g id="edge5" class="edge">
<title>Node5&#45;&gt;Node6</title>
<path fill="none" stroke="midnightblue" d="M172.1,-326.1C173.1,-317.14 174.24,-306.86 175.03,-299.75"/>
<polygon fill="midnightblue" stroke="midnightblue" points="168.62,-325.76 170.99,-336.08 175.57,-326.53 168.62,-325.76"/>
</g>
<!-- Node15 -->
<g id="node15" class="node">
<title>Node15</title>
<g id="a_node15"><a xlink:href="_list_of_interior_points_8cpp.html" target="_top" xlink:title="Implementation of the ListOfInteriorPoints class.">
<polygon fill="white" stroke="black" points="226.5,-280.5 226.5,-299.5 357.5,-299.5 357.5,-280.5 226.5,-280.5"/>
<text text-anchor="middle" x="292" y="-287.5" font-family="Helvetica,sans-Serif" font-size="10.00">ListOfInteriorPoints.cpp</text>
</a>
</g>
</g>
<!-- Node5&#45;&gt;Node15 -->
<g id="edge19" class="edge">
<title>Node5&#45;&gt;Node15</title>
<path fill="none" stroke="midnightblue" d="M198.54,-332.37C221.39,-322.26 252.81,-308.35 272.76,-299.52"/>
<polygon fill="midnightblue" stroke="midnightblue" points="197.06,-329.2 189.33,-336.44 199.89,-335.6 197.06,-329.2"/>
</g>
<!-- Node6&#45;&gt;Node2 -->
<g id="edge6" class="edge">
<title>Node6&#45;&gt;Node2</title>
<path fill="none" stroke="midnightblue" d="M158.55,-273.45C139.16,-255.07 108.53,-222.61 93,-188 75.41,-148.81 73.75,-96.13 73.83,-75.65"/>
<polygon fill="midnightblue" stroke="midnightblue" points="156.38,-276.2 166.1,-280.42 161.13,-271.06 156.38,-276.2"/>
</g>
<!-- Node7 -->
<g id="node7" class="node">
<title>Node7</title>
<g id="a_node7"><a xlink:href="_domain_8cpp.html" target="_top" xlink:title="Implementation of the Domain class.">
<polygon fill="white" stroke="black" points="102.5,-168.5 102.5,-187.5 177.5,-187.5 177.5,-168.5 102.5,-168.5"/>
<text text-anchor="middle" x="140" y="-175.5" font-family="Helvetica,sans-Serif" font-size="10.00">Domain.cpp</text>
</a>
</g>
</g>
<!-- Node6&#45;&gt;Node7 -->
<g id="edge7" class="edge">
<title>Node6&#45;&gt;Node7</title>
<path fill="none" stroke="midnightblue" d="M170,-270.67C162.13,-246.62 148.64,-205.39 142.81,-187.59"/>
<polygon fill="midnightblue" stroke="midnightblue" points="166.74,-271.95 173.18,-280.37 173.39,-269.78 166.74,-271.95"/>
</g>
<!-- Node8 -->
<g id="node8" class="node">
<title>Node8</title>
<g id="a_node8"><a xlink:href="_list_of_domains_8h.html" target="_top" xlink:title="Definition of the ListOfDomains class.">
<polygon fill="white" stroke="black" points="179,-224.5 179,-243.5 277,-243.5 277,-224.5 179,-224.5"/>
<text text-anchor="middle" x="228" y="-231.5" font-family="Helvetica,sans-Serif" font-size="10.00">ListOfDomains.h</text>
</a>
</g>
</g>
<!-- Node6&#45;&gt;Node8 -->
<g id="edge8" class="edge">
<title>Node6&#45;&gt;Node8</title>
<path fill="none" stroke="midnightblue" d="M191.68,-272.72C200.84,-263.2 212.05,-251.56 219.57,-243.75"/>
<polygon fill="midnightblue" stroke="midnightblue" points="189,-270.45 184.59,-280.08 194.04,-275.31 189,-270.45"/>
</g>
<!-- Node8&#45;&gt;Node7 -->
<g id="edge9" class="edge">
<title>Node8&#45;&gt;Node7</title>
<path fill="none" stroke="midnightblue" d="M205.02,-218.9C188.89,-209 167.82,-196.07 154.1,-187.65"/>
<polygon fill="midnightblue" stroke="midnightblue" points="203.51,-222.08 213.86,-224.32 207.17,-216.11 203.51,-222.08"/>
</g>
<!-- Node9 -->
<g id="node9" class="node">
<title>Node9</title>
<g id="a_node9"><a xlink:href="_geometry_8h.html" target="_top" xlink:title="Definition of the Geometry class.">
<polygon fill="white" stroke="black" points="195.5,-168.5 195.5,-187.5 268.5,-187.5 268.5,-168.5 195.5,-168.5"/>
<text text-anchor="middle" x="232" y="-175.5" font-family="Helvetica,sans-Serif" font-size="10.00">Geometry.h</text>
</a>
</g>
</g>
<!-- Node8&#45;&gt;Node9 -->
<g id="edge10" class="edge">
<title>Node8&#45;&gt;Node9</title>
<path fill="none" stroke="midnightblue" d="M229.4,-214.1C230.06,-205.14 230.83,-194.86 231.35,-187.75"/>
<polygon fill="midnightblue" stroke="midnightblue" points="225.91,-213.85 228.66,-224.08 232.89,-214.37 225.91,-213.85"/>
</g>
<!-- Node14 -->
<g id="node14" class="node">
<title>Node14</title>
<g id="a_node14"><a xlink:href="_list_of_domains_8cpp.html" target="_top" xlink:title="Implementation of the ListOfDomains class.">
<polygon fill="white" stroke="black" points="286.5,-168.5 286.5,-187.5 395.5,-187.5 395.5,-168.5 286.5,-168.5"/>
<text text-anchor="middle" x="341" y="-175.5" font-family="Helvetica,sans-Serif" font-size="10.00">ListOfDomains.cpp</text>
</a>
</g>
</g>
<!-- Node8&#45;&gt;Node14 -->
<g id="edge17" class="edge">
<title>Node8&#45;&gt;Node14</title>
<path fill="none" stroke="midnightblue" d="M255,-220.1C276.11,-210.01 304.86,-196.27 323.18,-187.52"/>
<polygon fill="midnightblue" stroke="midnightblue" points="253.42,-216.97 245.91,-224.44 256.44,-223.29 253.42,-216.97"/>
</g>
<!-- Node9&#45;&gt;Node2 -->
<g id="edge11" class="edge">
<title>Node9&#45;&gt;Node2</title>
<path fill="none" stroke="midnightblue" d="M204.74,-163.83C188.37,-155.49 167.42,-144.04 150,-132 124,-114.03 96.56,-88.76 82.86,-75.65"/>
<polygon fill="midnightblue" stroke="midnightblue" points="203.27,-167.01 213.78,-168.36 206.41,-160.75 203.27,-167.01"/>
</g>
<!-- Node10 -->
<g id="node10" class="node">
<title>Node10</title>
<g id="a_node10"><a xlink:href="_spatial_model_plugin_8h.html" target="_top" xlink:title="Definition of the SpatialModelPlugin class.">
<polygon fill="white" stroke="black" points="159.5,-112.5 159.5,-131.5 278.5,-131.5 278.5,-112.5 159.5,-112.5"/>
<text text-anchor="middle" x="219" y="-119.5" font-family="Helvetica,sans-Serif" font-size="10.00">SpatialModelPlugin.h</text>
</a>
</g>
</g>
<!-- Node9&#45;&gt;Node10 -->
<g id="edge12" class="edge">
<title>Node9&#45;&gt;Node10</title>
<path fill="none" stroke="midnightblue" d="M227.45,-158.1C225.29,-149.14 222.82,-138.86 221.11,-131.75"/>
<polygon fill="midnightblue" stroke="midnightblue" points="224.11,-159.18 229.85,-168.08 230.92,-157.54 224.11,-159.18"/>
</g>
<!-- Node13 -->
<g id="node13" class="node">
<title>Node13</title>
<g id="a_node13"><a xlink:href="_geometry_8cpp.html" target="_top" xlink:title="Implementation of the Geometry class.">
<polygon fill="white" stroke="black" points="297,-112.5 297,-131.5 381,-131.5 381,-112.5 297,-112.5"/>
<text text-anchor="middle" x="339" y="-119.5" font-family="Helvetica,sans-Serif" font-size="10.00">Geometry.cpp</text>
</a>
</g>
</g>
<!-- Node9&#45;&gt;Node13 -->
<g id="edge16" class="edge">
<title>Node9&#45;&gt;Node13</title>
<path fill="none" stroke="midnightblue" d="M258.3,-163.73C278.11,-153.73 304.71,-140.31 321.85,-131.65"/>
<polygon fill="midnightblue" stroke="midnightblue" points="256.54,-160.69 249.19,-168.32 259.7,-166.94 256.54,-160.69"/>
</g>
<!-- Node10&#45;&gt;Node2 -->
<g id="edge13" class="edge">
<title>Node10&#45;&gt;Node2</title>
<path fill="none" stroke="midnightblue" d="M186.52,-108.91C159.26,-98.75 121.01,-84.51 96.87,-75.52"/>
<polygon fill="midnightblue" stroke="midnightblue" points="185.43,-112.23 196.02,-112.44 187.87,-105.67 185.43,-112.23"/>
</g>
<!-- Node11 -->
<g id="node11" class="node">
<title>Node11</title>
<g id="a_node11"><a xlink:href="_spatial_extension_8cpp.html" target="_top" xlink:title="Implementation of SpatialExtension.">
<polygon fill="white" stroke="black" points="159.5,-56.5 159.5,-75.5 278.5,-75.5 278.5,-56.5 159.5,-56.5"/>
<text text-anchor="middle" x="219" y="-63.5" font-family="Helvetica,sans-Serif" font-size="10.00">SpatialExtension.cpp</text>
</a>
</g>
</g>
<!-- Node10&#45;&gt;Node11 -->
<g id="edge14" class="edge">
<title>Node10&#45;&gt;Node11</title>
<path fill="none" stroke="midnightblue" d="M219,-101.8C219,-92.91 219,-82.78 219,-75.75"/>
<polygon fill="midnightblue" stroke="midnightblue" points="215.5,-102.08 219,-112.08 222.5,-102.08 215.5,-102.08"/>
</g>
<!-- Node12 -->
<g id="node12" class="node">
<title>Node12</title>
<g id="a_node12"><a xlink:href="_spatial_model_plugin_8cpp.html" target="_top" xlink:title="Implementation of the SpatialModelPlugin class.">
<polygon fill="white" stroke="black" points="296.5,-56.5 296.5,-75.5 427.5,-75.5 427.5,-56.5 296.5,-56.5"/>
<text text-anchor="middle" x="362" y="-63.5" font-family="Helvetica,sans-Serif" font-size="10.00">SpatialModelPlugin.cpp</text>
</a>
</g>
</g>
<!-- Node10&#45;&gt;Node12 -->
<g id="edge15" class="edge">
<title>Node10&#45;&gt;Node12</title>
<path fill="none" stroke="midnightblue" d="M251.03,-108.91C277.91,-98.75 315.64,-84.51 339.45,-75.52"/>
<polygon fill="midnightblue" stroke="midnightblue" points="249.78,-105.64 241.66,-112.44 252.25,-112.19 249.78,-105.64"/>
</g>
</g>
</svg>
