<?xml version="1.0" encoding="UTF-8" standalone="no"?>
<!DOCTYPE svg PUBLIC "-//W3C//DTD SVG 1.1//EN"
 "http://www.w3.org/Graphics/SVG/1.1/DTD/svg11.dtd">
<!-- Generated by graphviz version 2.43.0 (0)
 -->
<!-- Title: KeyValuePair.h Pages: 1 -->
<svg width="1280pt" height="308pt"
 viewBox="0.00 0.00 1279.50 308.00" xmlns="http://www.w3.org/2000/svg" xmlns:xlink="http://www.w3.org/1999/xlink">
<g id="graph0" class="graph" transform="scale(1 1) rotate(0) translate(4 304)">
<title>KeyValuePair.h</title>
<polygon fill="white" stroke="transparent" points="-4,4 -4,-304 1275.5,-304 1275.5,4 -4,4"/>
<!-- Node1 -->
<g id="node1" class="node">
<title>Node1</title>
<g id="a_node1"><a xlink:title="Definition of the KeyValuePair class.">
<polygon fill="#bfbfbf" stroke="black" points="530,-280.5 530,-299.5 618,-299.5 618,-280.5 530,-280.5"/>
<text text-anchor="middle" x="574" y="-287.5" font-family="Helvetica,sans-Serif" font-size="10.00">KeyValuePair.h</text>
</a>
</g>
</g>
<!-- Node2 -->
<g id="node2" class="node">
<title>Node2</title>
<g id="a_node2"><a xlink:href="_fbc_extension_types_8h.html" target="_top" xlink:title="Includes all SBML types of the fbc package extension in a single header file.">
<polygon fill="white" stroke="black" points="325.5,-56.5 325.5,-75.5 444.5,-75.5 444.5,-56.5 325.5,-56.5"/>
<text text-anchor="middle" x="385" y="-63.5" font-family="Helvetica,sans-Serif" font-size="10.00">FbcExtensionTypes.h</text>
</a>
</g>
</g>
<!-- Node1&#45;&gt;Node2 -->
<g id="edge1" class="edge">
<title>Node1&#45;&gt;Node2</title>
<path fill="none" stroke="midnightblue" d="M529.56,-277.46C467.5,-258.69 357.2,-214.99 310,-132 295.6,-106.69 332.9,-86.47 359.91,-75.65"/>
<polygon fill="midnightblue" stroke="midnightblue" points="528.87,-280.91 539.46,-280.37 530.85,-274.19 528.87,-280.91"/>
</g>
<!-- Node8 -->
<g id="node8" class="node">
<title>Node8</title>
<g id="a_node8"><a xlink:href="_fbc_s_base_plugin_8h.html" target="_top" xlink:title="Definition of the FbcSBasePlugin class.">
<polygon fill="white" stroke="black" points="466.5,-168.5 466.5,-187.5 569.5,-187.5 569.5,-168.5 466.5,-168.5"/>
<text text-anchor="middle" x="518" y="-175.5" font-family="Helvetica,sans-Serif" font-size="10.00">FbcSBasePlugin.h</text>
</a>
</g>
</g>
<!-- Node1&#45;&gt;Node8 -->
<g id="edge7" class="edge">
<title>Node1&#45;&gt;Node8</title>
<path fill="none" stroke="midnightblue" d="M565,-271.32C552.81,-247.37 531.52,-205.55 522.37,-187.59"/>
<polygon fill="midnightblue" stroke="midnightblue" points="561.95,-273.04 569.61,-280.37 568.19,-269.87 561.95,-273.04"/>
</g>
<!-- Node20 -->
<g id="node20" class="node">
<title>Node20</title>
<g id="a_node20"><a xlink:href="_key_value_pair_8cpp.html" target="_top" xlink:title="Implementation of the KeyValuePair class.">
<polygon fill="white" stroke="black" points="740.5,-168.5 740.5,-187.5 839.5,-187.5 839.5,-168.5 740.5,-168.5"/>
<text text-anchor="middle" x="790" y="-175.5" font-family="Helvetica,sans-Serif" font-size="10.00">KeyValuePair.cpp</text>
</a>
</g>
</g>
<!-- Node1&#45;&gt;Node20 -->
<g id="edge26" class="edge">
<title>Node1&#45;&gt;Node20</title>
<path fill="none" stroke="midnightblue" d="M623.79,-277.91C651.18,-270.59 685.16,-259.47 713,-244 741.14,-228.37 768.61,-201.63 781.83,-187.82"/>
<polygon fill="midnightblue" stroke="midnightblue" points="622.83,-274.54 614.02,-280.43 624.58,-281.32 622.83,-274.54"/>
</g>
<!-- Node21 -->
<g id="node21" class="node">
<title>Node21</title>
<g id="a_node21"><a xlink:href="_list_of_key_value_pairs_8h.html" target="_top" xlink:title="Definition of the ListOfKeyValuePairs class.">
<polygon fill="white" stroke="black" points="582,-224.5 582,-243.5 704,-243.5 704,-224.5 582,-224.5"/>
<text text-anchor="middle" x="643" y="-231.5" font-family="Helvetica,sans-Serif" font-size="10.00">ListOfKeyValuePairs.h</text>
</a>
</g>
</g>
<!-- Node1&#45;&gt;Node21 -->
<g id="edge27" class="edge">
<title>Node1&#45;&gt;Node21</title>
<path fill="none" stroke="midnightblue" d="M593.04,-274.1C605.46,-264.38 621.24,-252.03 631.71,-243.83"/>
<polygon fill="midnightblue" stroke="midnightblue" points="590.8,-271.4 585.09,-280.32 595.12,-276.92 590.8,-271.4"/>
</g>
<!-- Node3 -->
<g id="node3" class="node">
<title>Node3</title>
<g id="a_node3"><a xlink:href="_cobra_to_fbc_converter_8cpp.html" target="_top" xlink:title="Implementation of a cobra 2 fbc converter.">
<polygon fill="white" stroke="black" points="0,-0.5 0,-19.5 140,-19.5 140,-0.5 0,-0.5"/>
<text text-anchor="middle" x="70" y="-7.5" font-family="Helvetica,sans-Serif" font-size="10.00">CobraToFbcConverter.cpp</text>
</a>
</g>
</g>
<!-- Node2&#45;&gt;Node3 -->
<g id="edge2" class="edge">
<title>Node2&#45;&gt;Node3</title>
<path fill="none" stroke="midnightblue" d="M325.08,-54.73C265.55,-44.52 175.34,-29.06 119.68,-19.52"/>
<polygon fill="midnightblue" stroke="midnightblue" points="324.64,-58.2 335.09,-56.44 325.82,-51.3 324.64,-58.2"/>
</g>
<!-- Node4 -->
<g id="node4" class="node">
<title>Node4</title>
<g id="a_node4"><a xlink:href="_fbc_to_cobra_converter_8cpp.html" target="_top" xlink:title="Implementation of a fbc 2 cobra converter.">
<polygon fill="white" stroke="black" points="158,-0.5 158,-19.5 298,-19.5 298,-0.5 158,-0.5"/>
<text text-anchor="middle" x="228" y="-7.5" font-family="Helvetica,sans-Serif" font-size="10.00">FbcToCobraConverter.cpp</text>
</a>
</g>
</g>
<!-- Node2&#45;&gt;Node4 -->
<g id="edge3" class="edge">
<title>Node2&#45;&gt;Node4</title>
<path fill="none" stroke="midnightblue" d="M350.61,-53.17C321.05,-43 279.13,-28.59 252.76,-19.52"/>
<polygon fill="midnightblue" stroke="midnightblue" points="349.53,-56.5 360.12,-56.44 351.8,-49.88 349.53,-56.5"/>
</g>
<!-- Node5 -->
<g id="node5" class="node">
<title>Node5</title>
<g id="a_node5"><a xlink:href="_fbc_v1_to_v2_converter_8cpp.html" target="_top" xlink:title="Implementation of a fbc v1 to fbc v2 converter.">
<polygon fill="white" stroke="black" points="316.5,-0.5 316.5,-19.5 453.5,-19.5 453.5,-0.5 316.5,-0.5"/>
<text text-anchor="middle" x="385" y="-7.5" font-family="Helvetica,sans-Serif" font-size="10.00">FbcV1ToV2Converter.cpp</text>
</a>
</g>
</g>
<!-- Node2&#45;&gt;Node5 -->
<g id="edge4" class="edge">
<title>Node2&#45;&gt;Node5</title>
<path fill="none" stroke="midnightblue" d="M385,-45.8C385,-36.91 385,-26.78 385,-19.75"/>
<polygon fill="midnightblue" stroke="midnightblue" points="381.5,-46.08 385,-56.08 388.5,-46.08 381.5,-46.08"/>
</g>
<!-- Node6 -->
<g id="node6" class="node">
<title>Node6</title>
<g id="a_node6"><a xlink:href="_fbc_v2_to_v1_converter_8cpp.html" target="_top" xlink:title="Implementation of a fbc v2 to fbc v1 converter.">
<polygon fill="white" stroke="black" points="471.5,-0.5 471.5,-19.5 608.5,-19.5 608.5,-0.5 471.5,-0.5"/>
<text text-anchor="middle" x="540" y="-7.5" font-family="Helvetica,sans-Serif" font-size="10.00">FbcV2ToV1Converter.cpp</text>
</a>
</g>
</g>
<!-- Node2&#45;&gt;Node6 -->
<g id="edge5" class="edge">
<title>Node2&#45;&gt;Node6</title>
<path fill="none" stroke="midnightblue" d="M419.33,-53.04C448.5,-42.88 489.64,-28.55 515.55,-19.52"/>
<polygon fill="midnightblue" stroke="midnightblue" points="417.85,-49.85 409.56,-56.44 420.16,-56.46 417.85,-49.85"/>
</g>
<!-- Node7 -->
<g id="node7" class="node">
<title>Node7</title>
<g id="a_node7"><a xlink:href="_fbc_validator_8cpp.html" target="_top" xlink:title="Base class for SBML Validators.">
<polygon fill="white" stroke="black" points="626.5,-0.5 626.5,-19.5 723.5,-19.5 723.5,-0.5 626.5,-0.5"/>
<text text-anchor="middle" x="675" y="-7.5" font-family="Helvetica,sans-Serif" font-size="10.00">FbcValidator.cpp</text>
</a>
</g>
</g>
<!-- Node2&#45;&gt;Node7 -->
<g id="edge6" class="edge">
<title>Node2&#45;&gt;Node7</title>
<path fill="none" stroke="midnightblue" d="M440.85,-54.6C495.65,-44.4 578.23,-29.02 629.26,-19.52"/>
<polygon fill="midnightblue" stroke="midnightblue" points="440.14,-51.17 430.95,-56.44 441.42,-58.05 440.14,-51.17"/>
</g>
<!-- Node8&#45;&gt;Node2 -->
<g id="edge8" class="edge">
<title>Node8&#45;&gt;Node2</title>
<path fill="none" stroke="midnightblue" d="M455.95,-171.42C403.79,-165.3 335.09,-153.36 318,-132 300.18,-109.73 338.53,-87.36 364.24,-75.55"/>
<polygon fill="midnightblue" stroke="midnightblue" points="455.81,-174.93 466.14,-172.57 456.59,-167.97 455.81,-174.93"/>
</g>
<!-- Node9 -->
<g id="node9" class="node">
<title>Node9</title>
<g id="a_node9"><a xlink:href="_fbc_extension_8cpp.html" target="_top" xlink:title="Implementation of FbcExtension, the core module of fbc package.">
<polygon fill="white" stroke="black" points="603,-56.5 603,-75.5 705,-75.5 705,-56.5 603,-56.5"/>
<text text-anchor="middle" x="654" y="-63.5" font-family="Helvetica,sans-Serif" font-size="10.00">FbcExtension.cpp</text>
</a>
</g>
</g>
<!-- Node8&#45;&gt;Node9 -->
<g id="edge9" class="edge">
<title>Node8&#45;&gt;Node9</title>
<path fill="none" stroke="midnightblue" d="M579.41,-166.68C633.03,-157.04 703.59,-142.59 712,-132 728.75,-110.92 694.17,-87.73 671.54,-75.56"/>
<polygon fill="midnightblue" stroke="midnightblue" points="578.51,-163.28 569.27,-168.48 579.73,-170.17 578.51,-163.28"/>
</g>
<!-- Node10 -->
<g id="node10" class="node">
<title>Node10</title>
<g id="a_node10"><a xlink:href="_fbc_model_plugin_8h.html" target="_top" xlink:title="Definition of FbcModelPlugin, the plugin class of fbc package for the Model element.">
<polygon fill="white" stroke="black" points="759.5,-112.5 759.5,-131.5 862.5,-131.5 862.5,-112.5 759.5,-112.5"/>
<text text-anchor="middle" x="811" y="-119.5" font-family="Helvetica,sans-Serif" font-size="10.00">FbcModelPlugin.h</text>
</a>
</g>
</g>
<!-- Node8&#45;&gt;Node10 -->
<g id="edge10" class="edge">
<title>Node8&#45;&gt;Node10</title>
<path fill="none" stroke="midnightblue" d="M574.43,-166.6C629.8,-156.4 713.23,-141.02 764.79,-131.52"/>
<polygon fill="midnightblue" stroke="midnightblue" points="573.63,-163.19 564.43,-168.44 574.9,-170.07 573.63,-163.19"/>
</g>
<!-- Node15 -->
<g id="node15" class="node">
<title>Node15</title>
<g id="a_node15"><a xlink:href="_fbc_reaction_plugin_8h.html" target="_top" xlink:title="Implementation of the FbcReactionPlugin class.">
<polygon fill="white" stroke="black" points="327,-112.5 327,-131.5 443,-131.5 443,-112.5 327,-112.5"/>
<text text-anchor="middle" x="385" y="-119.5" font-family="Helvetica,sans-Serif" font-size="10.00">FbcReactionPlugin.h</text>
</a>
</g>
</g>
<!-- Node8&#45;&gt;Node15 -->
<g id="edge17" class="edge">
<title>Node8&#45;&gt;Node15</title>
<path fill="none" stroke="midnightblue" d="M487.55,-164.64C462.59,-154.5 427.92,-140.43 405.98,-131.52"/>
<polygon fill="midnightblue" stroke="midnightblue" points="486.34,-167.92 496.93,-168.44 488.98,-161.44 486.34,-167.92"/>
</g>
<!-- Node17 -->
<g id="node17" class="node">
<title>Node17</title>
<g id="a_node17"><a xlink:href="_fbc_s_base_plugin_8cpp.html" target="_top" xlink:title="Implementation of the FbcSBasePlugin class.">
<polygon fill="white" stroke="black" points="461,-112.5 461,-131.5 575,-131.5 575,-112.5 461,-112.5"/>
<text text-anchor="middle" x="518" y="-119.5" font-family="Helvetica,sans-Serif" font-size="10.00">FbcSBasePlugin.cpp</text>
</a>
</g>
</g>
<!-- Node8&#45;&gt;Node17 -->
<g id="edge21" class="edge">
<title>Node8&#45;&gt;Node17</title>
<path fill="none" stroke="midnightblue" d="M518,-157.8C518,-148.91 518,-138.78 518,-131.75"/>
<polygon fill="midnightblue" stroke="midnightblue" points="514.5,-158.08 518,-168.08 521.5,-158.08 514.5,-158.08"/>
</g>
<!-- Node18 -->
<g id="node18" class="node">
<title>Node18</title>
<g id="a_node18"><a xlink:href="_fbc_species_plugin_8h.html" target="_top" xlink:title="Definition of FbcSpeciesPlugin, the plugin class of the fbc package for the Species element.">
<polygon fill="white" stroke="black" points="593,-112.5 593,-131.5 703,-131.5 703,-112.5 593,-112.5"/>
<text text-anchor="middle" x="648" y="-119.5" font-family="Helvetica,sans-Serif" font-size="10.00">FbcSpeciesPlugin.h</text>
</a>
</g>
</g>
<!-- Node8&#45;&gt;Node18 -->
<g id="edge22" class="edge">
<title>Node8&#45;&gt;Node18</title>
<path fill="none" stroke="midnightblue" d="M548.09,-164.5C572.46,-154.38 606.14,-140.39 627.5,-131.52"/>
<polygon fill="midnightblue" stroke="midnightblue" points="546.49,-161.38 538.6,-168.44 549.18,-167.84 546.49,-161.38"/>
</g>
<!-- Node10&#45;&gt;Node2 -->
<g id="edge11" class="edge">
<title>Node10&#45;&gt;Node2</title>
<path fill="none" stroke="midnightblue" d="M749.12,-113.28C677.92,-104.38 557.5,-89.27 454,-76 451,-75.62 447.94,-75.22 444.84,-74.82"/>
<polygon fill="midnightblue" stroke="midnightblue" points="748.9,-116.78 759.26,-114.55 749.77,-109.84 748.9,-116.78"/>
</g>
<!-- Node10&#45;&gt;Node9 -->
<g id="edge12" class="edge">
<title>Node10&#45;&gt;Node9</title>
<path fill="none" stroke="midnightblue" d="M776.61,-109.17C747.05,-99 705.13,-84.59 678.76,-75.52"/>
<polygon fill="midnightblue" stroke="midnightblue" points="775.53,-112.5 786.12,-112.44 777.8,-105.88 775.53,-112.5"/>
</g>
<!-- Node11 -->
<g id="node11" class="node">
<title>Node11</title>
<g id="a_node11"><a xlink:href="_fbc_model_plugin_8cpp.html" target="_top" xlink:title="Implementation of FbcModelPlugin, the plugin class of the fbc package for the Model element.">
<polygon fill="white" stroke="black" points="723,-56.5 723,-75.5 837,-75.5 837,-56.5 723,-56.5"/>
<text text-anchor="middle" x="780" y="-63.5" font-family="Helvetica,sans-Serif" font-size="10.00">FbcModelPlugin.cpp</text>
</a>
</g>
</g>
<!-- Node10&#45;&gt;Node11 -->
<g id="edge13" class="edge">
<title>Node10&#45;&gt;Node11</title>
<path fill="none" stroke="midnightblue" d="M800.82,-103.27C795.53,-94.05 789.28,-83.17 785.02,-75.75"/>
<polygon fill="midnightblue" stroke="midnightblue" points="797.87,-105.15 805.88,-112.08 803.94,-101.67 797.87,-105.15"/>
</g>
<!-- Node12 -->
<g id="node12" class="node">
<title>Node12</title>
<g id="a_node12"><a xlink:href="_fbc_association_8cpp.html" target="_top" xlink:title="Implementation of the FbcAssociation class.">
<polygon fill="white" stroke="black" points="855,-56.5 855,-75.5 965,-75.5 965,-56.5 855,-56.5"/>
<text text-anchor="middle" x="910" y="-63.5" font-family="Helvetica,sans-Serif" font-size="10.00">FbcAssociation.cpp</text>
</a>
</g>
</g>
<!-- Node10&#45;&gt;Node12 -->
<g id="edge14" class="edge">
<title>Node10&#45;&gt;Node12</title>
<path fill="none" stroke="midnightblue" d="M835.84,-107.45C854.11,-97.48 878.42,-84.23 894.13,-75.65"/>
<polygon fill="midnightblue" stroke="midnightblue" points="834.01,-104.46 826.91,-112.32 837.36,-110.61 834.01,-104.46"/>
</g>
<!-- Node13 -->
<g id="node13" class="node">
<title>Node13</title>
<g id="a_node13"><a xlink:href="_gene_product_association_8cpp.html" target="_top" xlink:title="Implementation of the GeneProductAssociation class.">
<polygon fill="white" stroke="black" points="983.5,-56.5 983.5,-75.5 1138.5,-75.5 1138.5,-56.5 983.5,-56.5"/>
<text text-anchor="middle" x="1061" y="-63.5" font-family="Helvetica,sans-Serif" font-size="10.00">GeneProductAssociation.cpp</text>
</a>
</g>
</g>
<!-- Node10&#45;&gt;Node13 -->
<g id="edge15" class="edge">
<title>Node10&#45;&gt;Node13</title>
<path fill="none" stroke="midnightblue" d="M860.62,-110.28C907.87,-100.08 978.04,-84.92 1021.57,-75.52"/>
<polygon fill="midnightblue" stroke="midnightblue" points="859.65,-106.91 850.61,-112.44 861.13,-113.75 859.65,-106.91"/>
</g>
<!-- Node14 -->
<g id="node14" class="node">
<title>Node14</title>
<g id="a_node14"><a xlink:href="_gene_product_ref_8cpp.html" target="_top" xlink:title="Implementation of the GeneProductRef class.">
<polygon fill="white" stroke="black" points="1156.5,-56.5 1156.5,-75.5 1271.5,-75.5 1271.5,-56.5 1156.5,-56.5"/>
<text text-anchor="middle" x="1214" y="-63.5" font-family="Helvetica,sans-Serif" font-size="10.00">GeneProductRef.cpp</text>
</a>
</g>
</g>
<!-- Node10&#45;&gt;Node14 -->
<g id="edge16" class="edge">
<title>Node10&#45;&gt;Node14</title>
<path fill="none" stroke="midnightblue" d="M872.73,-112.81C940.32,-103.83 1051.88,-88.97 1148,-76 1150.75,-75.63 1153.57,-75.25 1156.41,-74.86"/>
<polygon fill="midnightblue" stroke="midnightblue" points="872.13,-109.36 862.68,-114.14 873.05,-116.3 872.13,-109.36"/>
</g>
<!-- Node15&#45;&gt;Node2 -->
<g id="edge18" class="edge">
<title>Node15&#45;&gt;Node2</title>
<path fill="none" stroke="midnightblue" d="M385,-101.8C385,-92.91 385,-82.78 385,-75.75"/>
<polygon fill="midnightblue" stroke="midnightblue" points="381.5,-102.08 385,-112.08 388.5,-102.08 381.5,-102.08"/>
</g>
<!-- Node15&#45;&gt;Node9 -->
<g id="edge19" class="edge">
<title>Node15&#45;&gt;Node9</title>
<path fill="none" stroke="midnightblue" d="M437.44,-110.47C488.28,-100.27 564.44,-84.98 611.58,-75.52"/>
<polygon fill="midnightblue" stroke="midnightblue" points="436.74,-107.04 427.62,-112.44 438.12,-113.91 436.74,-107.04"/>
</g>
<!-- Node16 -->
<g id="node16" class="node">
<title>Node16</title>
<g id="a_node16"><a xlink:href="_fbc_reaction_plugin_8cpp.html" target="_top" xlink:title="Implementation of the FbcReactionPlugin class.">
<polygon fill="white" stroke="black" points="180.5,-56.5 180.5,-75.5 307.5,-75.5 307.5,-56.5 180.5,-56.5"/>
<text text-anchor="middle" x="244" y="-63.5" font-family="Helvetica,sans-Serif" font-size="10.00">FbcReactionPlugin.cpp</text>
</a>
</g>
</g>
<!-- Node15&#45;&gt;Node16 -->
<g id="edge20" class="edge">
<title>Node15&#45;&gt;Node16</title>
<path fill="none" stroke="midnightblue" d="M353.07,-108.77C326.59,-98.63 289.61,-84.47 266.24,-75.52"/>
<polygon fill="midnightblue" stroke="midnightblue" points="352.07,-112.14 362.66,-112.44 354.57,-105.6 352.07,-112.14"/>
</g>
<!-- Node18&#45;&gt;Node2 -->
<g id="edge23" class="edge">
<title>Node18&#45;&gt;Node2</title>
<path fill="none" stroke="midnightblue" d="M596.42,-110.41C546.72,-100.2 472.47,-84.96 426.48,-75.52"/>
<polygon fill="midnightblue" stroke="midnightblue" points="595.83,-113.86 606.33,-112.44 597.24,-107 595.83,-113.86"/>
</g>
<!-- Node18&#45;&gt;Node9 -->
<g id="edge24" class="edge">
<title>Node18&#45;&gt;Node9</title>
<path fill="none" stroke="midnightblue" d="M650.1,-102.1C651.1,-93.14 652.24,-82.86 653.03,-75.75"/>
<polygon fill="midnightblue" stroke="midnightblue" points="646.62,-101.76 648.99,-112.08 653.57,-102.53 646.62,-101.76"/>
</g>
<!-- Node19 -->
<g id="node19" class="node">
<title>Node19</title>
<g id="a_node19"><a xlink:href="_fbc_species_plugin_8cpp.html" target="_top" xlink:title="Implementation of FbcSpeciesPlugin, the plugin class of the fbc package for the Species element.">
<polygon fill="white" stroke="black" points="463,-56.5 463,-75.5 585,-75.5 585,-56.5 463,-56.5"/>
<text text-anchor="middle" x="524" y="-63.5" font-family="Helvetica,sans-Serif" font-size="10.00">FbcSpeciesPlugin.cpp</text>
</a>
</g>
</g>
<!-- Node18&#45;&gt;Node19 -->
<g id="edge25" class="edge">
<title>Node18&#45;&gt;Node19</title>
<path fill="none" stroke="midnightblue" d="M618.99,-108.37C595.77,-98.26 563.84,-84.35 543.56,-75.52"/>
<polygon fill="midnightblue" stroke="midnightblue" points="617.79,-111.66 628.35,-112.44 620.58,-105.24 617.79,-111.66"/>
</g>
<!-- Node21&#45;&gt;Node8 -->
<g id="edge28" class="edge">
<title>Node21&#45;&gt;Node8</title>
<path fill="none" stroke="midnightblue" d="M613.76,-220.37C590.35,-210.26 558.16,-196.35 537.71,-187.52"/>
<polygon fill="midnightblue" stroke="midnightblue" points="612.63,-223.69 623.19,-224.44 615.4,-217.26 612.63,-223.69"/>
</g>
<!-- Node21&#45;&gt;Node20 -->
<g id="edge29" class="edge">
<title>Node21&#45;&gt;Node20</title>
<path fill="none" stroke="midnightblue" d="M675.92,-220.91C703.56,-210.75 742.34,-196.51 766.82,-187.52"/>
<polygon fill="midnightblue" stroke="midnightblue" points="674.47,-217.71 666.29,-224.44 676.89,-224.28 674.47,-217.71"/>
</g>
<!-- Node22 -->
<g id="node22" class="node">
<title>Node22</title>
<g id="a_node22"><a xlink:href="_list_of_key_value_pairs_8cpp.html" target="_top" xlink:title="Implementation of the ListOfKeyValuePairs class.">
<polygon fill="white" stroke="black" points="588,-168.5 588,-187.5 722,-187.5 722,-168.5 588,-168.5"/>
<text text-anchor="middle" x="655" y="-175.5" font-family="Helvetica,sans-Serif" font-size="10.00">ListOfKeyValuePairs.cpp</text>
</a>
</g>
</g>
<!-- Node21&#45;&gt;Node22 -->
<g id="edge30" class="edge">
<title>Node21&#45;&gt;Node22</title>
<path fill="none" stroke="midnightblue" d="M647.2,-214.1C649.19,-205.14 651.48,-194.86 653.06,-187.75"/>
<polygon fill="midnightblue" stroke="midnightblue" points="643.73,-213.56 644.98,-224.08 650.57,-215.08 643.73,-213.56"/>
</g>
</g>
</svg>
