<?xml version="1.0" encoding="UTF-8" standalone="no"?>
<!DOCTYPE svg PUBLIC "-//W3C//DTD SVG 1.1//EN"
 "http://www.w3.org/Graphics/SVG/1.1/DTD/svg11.dtd">
<!-- Generated by graphviz version 2.43.0 (0)
 -->
<!-- Title: L3ParserSettings.h Pages: 1 -->
<svg width="925pt" height="341pt"
 viewBox="0.00 0.00 925.00 341.00" xmlns="http://www.w3.org/2000/svg" xmlns:xlink="http://www.w3.org/1999/xlink">
<g id="graph0" class="graph" transform="scale(1 1) rotate(0) translate(4 337)">
<title>L3ParserSettings.h</title>
<polygon fill="white" stroke="transparent" points="-4,4 -4,-337 921,-337 921,4 -4,4"/>
<!-- Node1 -->
<g id="node1" class="node">
<title>Node1</title>
<g id="a_node1"><a xlink:title="Definition of the level 3 infix&#45;to&#45;mathml parser settings.">
<polygon fill="#bfbfbf" stroke="black" points="431.5,-313.5 431.5,-332.5 538.5,-332.5 538.5,-313.5 431.5,-313.5"/>
<text text-anchor="middle" x="485" y="-320.5" font-family="Helvetica,sans-Serif" font-size="10.00">L3ParserSettings.h</text>
</a>
</g>
</g>
<!-- Node2 -->
<g id="node2" class="node">
<title>Node2</title>
<g id="a_node2"><a xlink:title=" ">
<polygon fill="white" stroke="#bfbfbf" points="13.5,-0.5 13.5,-30.5 138.5,-30.5 138.5,-0.5 13.5,-0.5"/>
<text text-anchor="start" x="21.5" y="-18.5" font-family="Helvetica,sans-Serif" font-size="10.00">sbml/common/libsbml</text>
<text text-anchor="middle" x="76" y="-7.5" font-family="Helvetica,sans-Serif" font-size="10.00">&#45;namespace.h</text>
</a>
</g>
</g>
<!-- Node1&#45;&gt;Node2 -->
<g id="edge1" class="edge">
<title>Node1&#45;&gt;Node2</title>
<path fill="none" stroke="midnightblue" d="M431.21,-319.6C337.56,-314.8 148.76,-302.27 88,-277 41.73,-257.75 0,-256.61 0,-206.5 0,-206.5 0,-206.5 0,-137.5 0,-97.61 29.99,-60.08 52.29,-37.7"/>
<polygon fill="midnightblue" stroke="midnightblue" points="54.77,-40.18 59.51,-30.7 49.89,-35.15 54.77,-40.18"/>
</g>
<!-- Node3 -->
<g id="node3" class="node">
<title>Node3</title>
<g id="a_node3"><a xlink:href="extern_8h.html" target="_top" xlink:title="Definitions of LIBSBML_EXTERN and related things.">
<polygon fill="white" stroke="black" points="270,-67.5 270,-86.5 400,-86.5 400,-67.5 270,-67.5"/>
<text text-anchor="middle" x="335" y="-74.5" font-family="Helvetica,sans-Serif" font-size="10.00">sbml/common/extern.h</text>
</a>
</g>
</g>
<!-- Node1&#45;&gt;Node3 -->
<g id="edge2" class="edge">
<title>Node1&#45;&gt;Node3</title>
<path fill="none" stroke="midnightblue" d="M478.13,-313.35C471.29,-304.52 460.72,-290.25 453,-277 414.95,-211.72 424.71,-184.63 381,-123 373.28,-112.12 362.75,-101.59 353.71,-93.46"/>
<polygon fill="midnightblue" stroke="midnightblue" points="355.8,-90.64 345.96,-86.73 351.21,-95.93 355.8,-90.64"/>
</g>
<!-- Node4 -->
<g id="node4" class="node">
<title>Node4</title>
<g id="a_node4"><a xlink:href="sbmlfwd_8h.html" target="_top" xlink:title="Forward declarations for all opaque C types.">
<polygon fill="white" stroke="black" points="97,-257.5 97,-276.5 237,-276.5 237,-257.5 97,-257.5"/>
<text text-anchor="middle" x="167" y="-264.5" font-family="Helvetica,sans-Serif" font-size="10.00">sbml/common/sbmlfwd.h</text>
</a>
</g>
</g>
<!-- Node1&#45;&gt;Node4 -->
<g id="edge4" class="edge">
<title>Node1&#45;&gt;Node4</title>
<path fill="none" stroke="midnightblue" d="M434.61,-313.44C378.32,-303.89 287.25,-288.42 227.24,-278.23"/>
<polygon fill="midnightblue" stroke="midnightblue" points="227.6,-274.74 217.15,-276.52 226.43,-281.64 227.6,-274.74"/>
</g>
<!-- Node8 -->
<g id="node8" class="node">
<title>Node8</title>
<g id="a_node8"><a xlink:href="_string_buffer_8h.html" target="_top" xlink:title=" ">
<polygon fill="white" stroke="black" points="467,-257.5 467,-276.5 595,-276.5 595,-257.5 467,-257.5"/>
<text text-anchor="middle" x="531" y="-264.5" font-family="Helvetica,sans-Serif" font-size="10.00">sbml/util/StringBuffer.h</text>
</a>
</g>
</g>
<!-- Node1&#45;&gt;Node8 -->
<g id="edge11" class="edge">
<title>Node1&#45;&gt;Node8</title>
<path fill="none" stroke="midnightblue" d="M492.6,-313.08C499.23,-305.3 509.02,-293.8 517.06,-284.37"/>
<polygon fill="midnightblue" stroke="midnightblue" points="519.73,-286.63 523.55,-276.75 514.4,-282.09 519.73,-286.63"/>
</g>
<!-- Node9 -->
<g id="node9" class="node">
<title>Node9</title>
<g id="a_node9"><a xlink:href="_a_s_t_node_type_8h.html" target="_top" xlink:title="Enumeration for Abstract Syntax Tree (AST).">
<polygon fill="white" stroke="black" points="429,-129 429,-148 577,-148 577,-129 429,-129"/>
<text text-anchor="middle" x="503" y="-136" font-family="Helvetica,sans-Serif" font-size="10.00">sbml/math/ASTNodeType.h</text>
</a>
</g>
</g>
<!-- Node1&#45;&gt;Node9 -->
<g id="edge12" class="edge">
<title>Node1&#45;&gt;Node9</title>
<path fill="none" stroke="midnightblue" d="M477.85,-313.36C471.23,-304.76 461.84,-290.87 458,-277 455.63,-268.43 456.38,-265.74 458,-257 464.86,-219.93 482.92,-179.45 493.96,-156.99"/>
<polygon fill="midnightblue" stroke="midnightblue" points="497.11,-158.53 498.48,-148.02 490.85,-155.38 497.11,-158.53"/>
</g>
<!-- Node10 -->
<g id="node10" class="node">
<title>Node10</title>
<g id="a_node10"><a xlink:href="_a_s_t_base_plugin_8h.html" target="_top" xlink:title=" ">
<polygon fill="white" stroke="black" points="613,-257.5 613,-276.5 789,-276.5 789,-257.5 613,-257.5"/>
<text text-anchor="middle" x="701" y="-264.5" font-family="Helvetica,sans-Serif" font-size="10.00">sbml/extension/ASTBasePlugin.h</text>
</a>
</g>
</g>
<!-- Node1&#45;&gt;Node10 -->
<g id="edge15" class="edge">
<title>Node1&#45;&gt;Node10</title>
<path fill="none" stroke="midnightblue" d="M519.23,-313.44C556.51,-304.12 616.27,-289.18 657.01,-279"/>
<polygon fill="midnightblue" stroke="midnightblue" points="658.08,-282.34 666.93,-276.52 656.38,-275.55 658.08,-282.34"/>
</g>
<!-- Node11 -->
<g id="node11" class="node">
<title>Node11</title>
<g id="a_node11"><a xlink:title=" ">
<polygon fill="white" stroke="#bfbfbf" points="807.5,-257.5 807.5,-276.5 854.5,-276.5 854.5,-257.5 807.5,-257.5"/>
<text text-anchor="middle" x="831" y="-264.5" font-family="Helvetica,sans-Serif" font-size="10.00">vector</text>
</a>
</g>
</g>
<!-- Node1&#45;&gt;Node11 -->
<g id="edge16" class="edge">
<title>Node1&#45;&gt;Node11</title>
<path fill="none" stroke="midnightblue" d="M538.52,-316.34C599.04,-309.49 700.66,-296.62 797.35,-276.9"/>
<polygon fill="midnightblue" stroke="midnightblue" points="798.21,-280.3 807.29,-274.84 796.79,-273.44 798.21,-280.3"/>
</g>
<!-- Node12 -->
<g id="node12" class="node">
<title>Node12</title>
<g id="a_node12"><a xlink:title=" ">
<polygon fill="white" stroke="#bfbfbf" points="873,-257.5 873,-276.5 917,-276.5 917,-257.5 873,-257.5"/>
<text text-anchor="middle" x="895" y="-264.5" font-family="Helvetica,sans-Serif" font-size="10.00">string</text>
</a>
</g>
</g>
<!-- Node1&#45;&gt;Node12 -->
<g id="edge17" class="edge">
<title>Node1&#45;&gt;Node12</title>
<path fill="none" stroke="midnightblue" d="M538.79,-318.41C610.64,-313 741.96,-300.96 862.61,-276.98"/>
<polygon fill="midnightblue" stroke="midnightblue" points="863.65,-280.34 872.76,-274.93 862.26,-273.48 863.65,-280.34"/>
</g>
<!-- Node3&#45;&gt;Node2 -->
<g id="edge3" class="edge">
<title>Node3&#45;&gt;Node2</title>
<path fill="none" stroke="midnightblue" d="M297.89,-67.48C258.63,-58.46 195.74,-44.01 146.92,-32.79"/>
<polygon fill="midnightblue" stroke="midnightblue" points="147.57,-29.35 137.04,-30.52 146,-36.17 147.57,-29.35"/>
</g>
<!-- Node4&#45;&gt;Node2 -->
<g id="edge5" class="edge">
<title>Node4&#45;&gt;Node2</title>
<path fill="none" stroke="midnightblue" d="M144.49,-257.44C128.33,-250.15 107.3,-238.12 95,-221 55.83,-166.52 63.98,-81.63 71.05,-40.48"/>
<polygon fill="midnightblue" stroke="midnightblue" points="74.51,-41.02 72.88,-30.55 67.62,-39.75 74.51,-41.02"/>
</g>
<!-- Node5 -->
<g id="node5" class="node">
<title>Node5</title>
<g id="a_node5"><a xlink:href="libsbml-config_8h.html" target="_top" xlink:title="Decides whether to #include Unix or Windows configuration variables.">
<polygon fill="white" stroke="black" points="104.5,-190.5 104.5,-220.5 229.5,-220.5 229.5,-190.5 104.5,-190.5"/>
<text text-anchor="start" x="112.5" y="-208.5" font-family="Helvetica,sans-Serif" font-size="10.00">sbml/common/libsbml</text>
<text text-anchor="middle" x="167" y="-197.5" font-family="Helvetica,sans-Serif" font-size="10.00">&#45;config.h</text>
</a>
</g>
</g>
<!-- Node4&#45;&gt;Node5 -->
<g id="edge6" class="edge">
<title>Node4&#45;&gt;Node5</title>
<path fill="none" stroke="midnightblue" d="M167,-257.48C167,-250.47 167,-240.19 167,-230.7"/>
<polygon fill="midnightblue" stroke="midnightblue" points="170.5,-230.52 167,-220.52 163.5,-230.52 170.5,-230.52"/>
</g>
<!-- Node5&#45;&gt;Node2 -->
<g id="edge7" class="edge">
<title>Node5&#45;&gt;Node2</title>
<path fill="none" stroke="midnightblue" d="M136.08,-190.33C121.24,-181.91 104.63,-169.77 95,-154 73.62,-118.99 72.27,-69.73 73.77,-40.66"/>
<polygon fill="midnightblue" stroke="midnightblue" points="77.27,-40.79 74.45,-30.58 70.28,-40.32 77.27,-40.79"/>
</g>
<!-- Node6 -->
<g id="node6" class="node">
<title>Node6</title>
<g id="a_node6"><a xlink:title=" ">
<polygon fill="white" stroke="#bfbfbf" points="104.5,-123.5 104.5,-153.5 229.5,-153.5 229.5,-123.5 104.5,-123.5"/>
<text text-anchor="start" x="112.5" y="-141.5" font-family="Helvetica,sans-Serif" font-size="10.00">sbml/common/libsbml</text>
<text text-anchor="middle" x="167" y="-130.5" font-family="Helvetica,sans-Serif" font-size="10.00">&#45;config&#45;common.h</text>
</a>
</g>
</g>
<!-- Node5&#45;&gt;Node6 -->
<g id="edge8" class="edge">
<title>Node5&#45;&gt;Node6</title>
<path fill="none" stroke="midnightblue" d="M167,-190.4C167,-182.64 167,-172.81 167,-163.86"/>
<polygon fill="midnightblue" stroke="midnightblue" points="170.5,-163.58 167,-153.58 163.5,-163.58 170.5,-163.58"/>
</g>
<!-- Node7 -->
<g id="node7" class="node">
<title>Node7</title>
<g id="a_node7"><a xlink:href="libsbml-version_8h.html" target="_top" xlink:title="Define libSBML version numbers for access from client software.">
<polygon fill="white" stroke="black" points="247.5,-123.5 247.5,-153.5 372.5,-153.5 372.5,-123.5 247.5,-123.5"/>
<text text-anchor="start" x="255.5" y="-141.5" font-family="Helvetica,sans-Serif" font-size="10.00">sbml/common/libsbml</text>
<text text-anchor="middle" x="310" y="-130.5" font-family="Helvetica,sans-Serif" font-size="10.00">&#45;version.h</text>
</a>
</g>
</g>
<!-- Node5&#45;&gt;Node7 -->
<g id="edge9" class="edge">
<title>Node5&#45;&gt;Node7</title>
<path fill="none" stroke="midnightblue" d="M198.03,-190.4C219.02,-180.86 246.94,-168.16 269.65,-157.84"/>
<polygon fill="midnightblue" stroke="midnightblue" points="271.38,-160.9 279.03,-153.58 268.48,-154.53 271.38,-160.9"/>
</g>
<!-- Node7&#45;&gt;Node3 -->
<g id="edge10" class="edge">
<title>Node7&#45;&gt;Node3</title>
<path fill="none" stroke="midnightblue" d="M315.92,-123.4C319.37,-115.2 323.75,-104.78 327.44,-95.99"/>
<polygon fill="midnightblue" stroke="midnightblue" points="330.72,-97.23 331.36,-86.66 324.26,-94.52 330.72,-97.23"/>
</g>
<!-- Node9&#45;&gt;Node2 -->
<g id="edge13" class="edge">
<title>Node9&#45;&gt;Node2</title>
<path fill="none" stroke="midnightblue" d="M494.61,-128.85C479.21,-113.56 444.74,-81.99 409,-67 324.37,-31.52 218.35,-20.56 148.97,-17.39"/>
<polygon fill="midnightblue" stroke="midnightblue" points="148.72,-13.88 138.59,-16.97 148.44,-20.87 148.72,-13.88"/>
</g>
<!-- Node9&#45;&gt;Node3 -->
<g id="edge14" class="edge">
<title>Node9&#45;&gt;Node3</title>
<path fill="none" stroke="midnightblue" d="M478.93,-128.98C449.99,-118.72 401.24,-101.46 368.6,-89.9"/>
<polygon fill="midnightblue" stroke="midnightblue" points="369.62,-86.55 359.03,-86.51 367.28,-93.15 369.62,-86.55"/>
</g>
</g>
</svg>
