<?xml version="1.0" encoding="UTF-8" standalone="no"?>
<!DOCTYPE svg PUBLIC "-//W3C//DTD SVG 1.1//EN"
 "http://www.w3.org/Graphics/SVG/1.1/DTD/svg11.dtd">
<!-- Generated by graphviz version 2.43.0 (0)
 -->
<!-- Title: LayoutSpeciesReferencePlugin.h Pages: 1 -->
<svg width="473pt" height="84pt"
 viewBox="0.00 0.00 472.50 84.00" xmlns="http://www.w3.org/2000/svg" xmlns:xlink="http://www.w3.org/1999/xlink">
<g id="graph0" class="graph" transform="scale(1 1) rotate(0) translate(4 80)">
<title>LayoutSpeciesReferencePlugin.h</title>
<polygon fill="white" stroke="transparent" points="-4,4 -4,-80 468.5,-80 468.5,4 -4,4"/>
<!-- Node1 -->
<g id="node1" class="node">
<title>Node1</title>
<g id="a_node1"><a xlink:title="Definition of LayoutSpeciesReferencePlugin, the plugin class of layout package (Level2) for the Speci...">
<polygon fill="#bfbfbf" stroke="black" points="142,-56.5 142,-75.5 318,-75.5 318,-56.5 142,-56.5"/>
<text text-anchor="middle" x="230" y="-63.5" font-family="Helvetica,sans-Serif" font-size="10.00">LayoutSpeciesReferencePlugin.h</text>
</a>
</g>
</g>
<!-- Node2 -->
<g id="node2" class="node">
<title>Node2</title>
<g id="a_node2"><a xlink:href="_layout_extension_8cpp.html" target="_top" xlink:title="Implementation of LayoutExtension, the core module of layout package.">
<polygon fill="white" stroke="black" points="0,-0.5 0,-19.5 118,-19.5 118,-0.5 0,-0.5"/>
<text text-anchor="middle" x="59" y="-7.5" font-family="Helvetica,sans-Serif" font-size="10.00">LayoutExtension.cpp</text>
</a>
</g>
</g>
<!-- Node1&#45;&gt;Node2 -->
<g id="edge1" class="edge">
<title>Node1&#45;&gt;Node2</title>
<path fill="none" stroke="midnightblue" d="M192.96,-53.3C160.74,-43.13 114.81,-28.62 85.97,-19.52"/>
<polygon fill="midnightblue" stroke="midnightblue" points="192.31,-56.77 202.9,-56.44 194.42,-50.09 192.31,-56.77"/>
</g>
<!-- Node3 -->
<g id="node3" class="node">
<title>Node3</title>
<g id="a_node3"><a xlink:href="_layout_species_reference_plugin_8cpp.html" target="_top" xlink:title="Implementation of LayoutSpeciesReferencePlugin, the plugin object of layout package (Level2) for the ...">
<polygon fill="white" stroke="black" points="136.5,-0.5 136.5,-19.5 323.5,-19.5 323.5,-0.5 136.5,-0.5"/>
<text text-anchor="middle" x="230" y="-7.5" font-family="Helvetica,sans-Serif" font-size="10.00">LayoutSpeciesReferencePlugin.cpp</text>
</a>
</g>
</g>
<!-- Node1&#45;&gt;Node3 -->
<g id="edge2" class="edge">
<title>Node1&#45;&gt;Node3</title>
<path fill="none" stroke="midnightblue" d="M230,-45.8C230,-36.91 230,-26.78 230,-19.75"/>
<polygon fill="midnightblue" stroke="midnightblue" points="226.5,-46.08 230,-56.08 233.5,-46.08 226.5,-46.08"/>
</g>
<!-- Node4 -->
<g id="node4" class="node">
<title>Node4</title>
<g id="a_node4"><a xlink:href="_layout_annotation_8cpp.html" target="_top" xlink:title="Layout annotation I/O.">
<polygon fill="white" stroke="black" points="341.5,-0.5 341.5,-19.5 464.5,-19.5 464.5,-0.5 341.5,-0.5"/>
<text text-anchor="middle" x="403" y="-7.5" font-family="Helvetica,sans-Serif" font-size="10.00">LayoutAnnotation.cpp</text>
</a>
</g>
</g>
<!-- Node1&#45;&gt;Node4 -->
<g id="edge3" class="edge">
<title>Node1&#45;&gt;Node4</title>
<path fill="none" stroke="midnightblue" d="M267.05,-53.44C299.66,-43.26 346.41,-28.66 375.72,-19.52"/>
<polygon fill="midnightblue" stroke="midnightblue" points="265.92,-50.12 257.41,-56.44 268,-56.8 265.92,-50.12"/>
</g>
</g>
</svg>
