<?xml version="1.0" encoding="UTF-8" standalone="no"?>
<!DOCTYPE svg PUBLIC "-//W3C//DTD SVG 1.1//EN"
 "http://www.w3.org/Graphics/SVG/1.1/DTD/svg11.dtd">
<!-- Generated by graphviz version 2.43.0 (0)
 -->
<!-- Title: LayoutValidator.h Pages: 1 -->
<!--zoomable 576 -->
<svg id="main" version="1.1" xmlns="http://www.w3.org/2000/svg" xmlns:xlink="http://www.w3.org/1999/xlink" xml:space="preserve" onload="init(evt)">
<style type="text/css"><![CDATA[
.edge:hover path { stroke: red; }
.edge:hover polygon { stroke: red; fill: red; }
]]></style>
<script type="text/javascript"><![CDATA[
var edges = document.getElementsByTagName('g');
if (edges && edges.length) {
  for (var i=0;i<edges.length;i++) {
    if (edges[i].id.substr(0,4)=='edge') {
      edges[i].setAttribute('class','edge');
    }
  }
}
]]></script>
        <defs>
                <circle id="rim" cx="0" cy="0" r="7"/>
                <circle id="rim2" cx="0" cy="0" r="3.5"/>
                <g id="zoomPlus">
                        <use xlink:href="#rim" fill="#404040">
                                <set attributeName="fill" to="#808080" begin="zoomplus.mouseover" end="zoomplus.mouseout"/>
                        </use>
                        <path d="M-4,0h8M0,-4v8" fill="none" stroke="white" stroke-width="1.5" pointer-events="none"/>
                </g>
                <g id="zoomMin">
                        <use xlink:href="#rim" fill="#404040">
                                <set attributeName="fill" to="#808080" begin="zoomminus.mouseover" end="zoomminus.mouseout"/>
                        </use>
                        <path d="M-4,0h8" fill="none" stroke="white" stroke-width="1.5" pointer-events="none"/>
                </g>
                <g id="dirArrow">
                        <path fill="none" stroke="white" stroke-width="1.5" d="M0,-3.0v7 M-2.5,-0.5L0,-3.0L2.5,-0.5"/>
                </g>
               <g id="resetDef">
                       <use xlink:href="#rim2" fill="#404040">
                               <set attributeName="fill" to="#808080" begin="reset.mouseover" end="reset.mouseout"/>
                       </use>
               </g>
        </defs>

<script type="text/javascript">
var viewWidth = 1088;
var viewHeight = 576;
var sectionId = 'dynsection-0';
</script>
<script xlink:href="svgpan.js"/>
<svg id="graph" class="graph">
<g id="viewport">
<title>LayoutValidator.h</title>
<polygon fill="white" stroke="transparent" points="-4,4 -4,-572 1084,-572 1084,4 -4,4"/>
<!-- Node1 -->
<g id="node1" class="node">
<title>Node1</title>
<g id="a_node1"><a xlink:title="Implementation of the LayoutValidator class.">
<polygon fill="#bfbfbf" stroke="black" points="514.5,-548.5 514.5,-567.5 615.5,-567.5 615.5,-548.5 514.5,-548.5"/>
<text text-anchor="middle" x="565" y="-555.5" font-family="Helvetica,sans-Serif" font-size="10.00">LayoutValidator.h</text>
</a>
</g>
</g>
<!-- Node2 -->
<g id="node2" class="node">
<title>Node2</title>
<g id="a_node2"><a xlink:href="_s_b_m_l_error_8h.html" target="_top" xlink:title="Represents SBML errors and other diagnostics.">
<polygon fill="white" stroke="black" points="514,-436.5 514,-455.5 616,-455.5 616,-436.5 514,-436.5"/>
<text text-anchor="middle" x="565" y="-443.5" font-family="Helvetica,sans-Serif" font-size="10.00">sbml/SBMLError.h</text>
</a>
</g>
</g>
<!-- Node1&#45;&gt;Node2 -->
<g id="edge1" class="edge">
<title>Node1&#45;&gt;Node2</title>
<path fill="none" stroke="midnightblue" d="M556.56,-548.47C545.6,-536.33 528.59,-513.17 535,-492 538.12,-481.7 544.45,-471.61 550.5,-463.6"/>
<polygon fill="midnightblue" stroke="midnightblue" points="553.23,-465.8 556.79,-455.82 547.78,-461.4 553.23,-465.8"/>
</g>
<!-- Node23 -->
<g id="node23" class="node">
<title>Node23</title>
<g id="a_node23"><a xlink:href="_validator_8h.html" target="_top" xlink:title="Base class for SBML Validators.">
<polygon fill="white" stroke="black" points="544,-492.5 544,-511.5 686,-511.5 686,-492.5 544,-492.5"/>
<text text-anchor="middle" x="615" y="-499.5" font-family="Helvetica,sans-Serif" font-size="10.00">sbml/validator/Validator.h</text>
</a>
</g>
</g>
<!-- Node1&#45;&gt;Node23 -->
<g id="edge38" class="edge">
<title>Node1&#45;&gt;Node23</title>
<path fill="none" stroke="midnightblue" d="M573.26,-548.08C580.46,-540.3 591.11,-528.8 599.85,-519.37"/>
<polygon fill="midnightblue" stroke="midnightblue" points="602.67,-521.47 606.9,-511.75 597.53,-516.71 602.67,-521.47"/>
</g>
<!-- Node3 -->
<g id="node3" class="node">
<title>Node3</title>
<g id="a_node3"><a xlink:href="extern_8h.html" target="_top" xlink:title="Definitions of LIBSBML_EXTERN and related things.">
<polygon fill="white" stroke="black" points="292,-67.5 292,-86.5 422,-86.5 422,-67.5 292,-67.5"/>
<text text-anchor="middle" x="357" y="-74.5" font-family="Helvetica,sans-Serif" font-size="10.00">sbml/common/extern.h</text>
</a>
</g>
</g>
<!-- Node2&#45;&gt;Node3 -->
<g id="edge2" class="edge">
<title>Node2&#45;&gt;Node3</title>
<path fill="none" stroke="midnightblue" d="M513.86,-445.8C374.78,-446.63 0,-439.18 0,-335 0,-335 0,-335 0,-204.5 0,-144.2 183.21,-105.38 287.14,-88.2"/>
<polygon fill="midnightblue" stroke="midnightblue" points="287.94,-91.62 297.25,-86.56 286.81,-84.71 287.94,-91.62"/>
</g>
<!-- Node5 -->
<g id="node5" class="node">
<title>Node5</title>
<g id="a_node5"><a xlink:href="_x_m_l_error_8h.html" target="_top" xlink:title="Represents errors (and messages) encountered during an XML parse.">
<polygon fill="white" stroke="black" points="506,-324.5 506,-343.5 624,-343.5 624,-324.5 506,-324.5"/>
<text text-anchor="middle" x="565" y="-331.5" font-family="Helvetica,sans-Serif" font-size="10.00">sbml/xml/XMLError.h</text>
</a>
</g>
</g>
<!-- Node2&#45;&gt;Node5 -->
<g id="edge4" class="edge">
<title>Node2&#45;&gt;Node5</title>
<path fill="none" stroke="midnightblue" d="M565,-436.37C565,-418.62 565,-377.67 565,-353.6"/>
<polygon fill="midnightblue" stroke="midnightblue" points="568.5,-353.59 565,-343.59 561.5,-353.59 568.5,-353.59"/>
</g>
<!-- Node17 -->
<g id="node17" class="node">
<title>Node17</title>
<g id="a_node17"><a xlink:href="_s_b_m_l_namespaces_8h.html" target="_top" xlink:title="SBMLNamespaces class to store level/version and namespace.">
<polygon fill="white" stroke="black" points="624.5,-380.5 624.5,-399.5 767.5,-399.5 767.5,-380.5 624.5,-380.5"/>
<text text-anchor="middle" x="696" y="-387.5" font-family="Helvetica,sans-Serif" font-size="10.00">sbml/SBMLNamespaces.h</text>
</a>
</g>
</g>
<!-- Node2&#45;&gt;Node17 -->
<g id="edge23" class="edge">
<title>Node2&#45;&gt;Node17</title>
<path fill="none" stroke="midnightblue" d="M585.76,-436.44C607.32,-427.56 641.26,-413.56 665.79,-403.45"/>
<polygon fill="midnightblue" stroke="midnightblue" points="667.43,-406.56 675.34,-399.52 664.76,-400.09 667.43,-406.56"/>
</g>
<!-- Node4 -->
<g id="node4" class="node">
<title>Node4</title>
<g id="a_node4"><a xlink:title=" ">
<polygon fill="white" stroke="#bfbfbf" points="611.5,-0.5 611.5,-30.5 736.5,-30.5 736.5,-0.5 611.5,-0.5"/>
<text text-anchor="start" x="619.5" y="-18.5" font-family="Helvetica,sans-Serif" font-size="10.00">sbml/common/libsbml</text>
<text text-anchor="middle" x="674" y="-7.5" font-family="Helvetica,sans-Serif" font-size="10.00">&#45;namespace.h</text>
</a>
</g>
</g>
<!-- Node3&#45;&gt;Node4 -->
<g id="edge3" class="edge">
<title>Node3&#45;&gt;Node4</title>
<path fill="none" stroke="midnightblue" d="M402.42,-67.48C454.39,-57.72 540.22,-41.61 601.48,-30.11"/>
<polygon fill="midnightblue" stroke="midnightblue" points="602.29,-33.52 611.47,-28.24 601,-26.64 602.29,-33.52"/>
</g>
<!-- Node6 -->
<g id="node6" class="node">
<title>Node6</title>
<g id="a_node6"><a xlink:title=" ">
<polygon fill="white" stroke="#bfbfbf" points="233,-196 233,-215 283,-215 283,-196 233,-196"/>
<text text-anchor="middle" x="258" y="-203" font-family="Helvetica,sans-Serif" font-size="10.00">stdio.h</text>
</a>
</g>
</g>
<!-- Node5&#45;&gt;Node6 -->
<g id="edge5" class="edge">
<title>Node5&#45;&gt;Node6</title>
<path fill="none" stroke="midnightblue" d="M525.61,-324.5C492.92,-316.82 445.54,-304.23 406,-288 359.19,-268.78 308.27,-238.46 280.03,-220.72"/>
<polygon fill="midnightblue" stroke="midnightblue" points="281.68,-217.62 271.36,-215.22 277.93,-223.54 281.68,-217.62"/>
</g>
<!-- Node7 -->
<g id="node7" class="node">
<title>Node7</title>
<g id="a_node7"><a xlink:href="_x_m_l_extern_8h.html" target="_top" xlink:title="Defines LIBLAX_EXTERN.">
<polygon fill="white" stroke="black" points="825.5,-263 825.5,-282 952.5,-282 952.5,-263 825.5,-263"/>
<text text-anchor="middle" x="889" y="-270" font-family="Helvetica,sans-Serif" font-size="10.00">sbml/xml/XMLExtern.h</text>
</a>
</g>
</g>
<!-- Node5&#45;&gt;Node7 -->
<g id="edge6" class="edge">
<title>Node5&#45;&gt;Node7</title>
<path fill="none" stroke="midnightblue" d="M614.11,-324.48C664.74,-315.62 745.96,-301.23 816,-288 822.65,-286.74 829.64,-285.39 836.55,-284.04"/>
<polygon fill="midnightblue" stroke="midnightblue" points="837.43,-287.43 846.56,-282.07 836.08,-280.57 837.43,-287.43"/>
</g>
<!-- Node8 -->
<g id="node8" class="node">
<title>Node8</title>
<g id="a_node8"><a xlink:href="sbmlfwd_8h.html" target="_top" xlink:title="Forward declarations for all opaque C types.">
<polygon fill="white" stroke="black" points="667,-263 667,-282 807,-282 807,-263 667,-263"/>
<text text-anchor="middle" x="737" y="-270" font-family="Helvetica,sans-Serif" font-size="10.00">sbml/common/sbmlfwd.h</text>
</a>
</g>
</g>
<!-- Node5&#45;&gt;Node8 -->
<g id="edge8" class="edge">
<title>Node5&#45;&gt;Node8</title>
<path fill="none" stroke="midnightblue" d="M589.64,-324.48C619.28,-314.22 669.18,-296.96 702.6,-285.4"/>
<polygon fill="midnightblue" stroke="midnightblue" points="704.1,-288.59 712.4,-282.01 701.81,-281.97 704.1,-288.59"/>
</g>
<!-- Node12 -->
<g id="node12" class="node">
<title>Node12</title>
<g id="a_node12"><a xlink:href="util_8h.html" target="_top" xlink:title="Utility functions.">
<polygon fill="white" stroke="black" points="157.5,-263 157.5,-282 244.5,-282 244.5,-263 157.5,-263"/>
<text text-anchor="middle" x="201" y="-270" font-family="Helvetica,sans-Serif" font-size="10.00">sbml/util/util.h</text>
</a>
</g>
</g>
<!-- Node5&#45;&gt;Node12 -->
<g id="edge15" class="edge">
<title>Node5&#45;&gt;Node12</title>
<path fill="none" stroke="midnightblue" d="M512.85,-324.48C444.23,-313.26 324.21,-293.64 254.79,-282.29"/>
<polygon fill="midnightblue" stroke="midnightblue" points="254.94,-278.77 244.51,-280.61 253.81,-285.68 254.94,-278.77"/>
</g>
<!-- Node14 -->
<g id="node14" class="node">
<title>Node14</title>
<g id="a_node14"><a xlink:title=" ">
<polygon fill="white" stroke="#bfbfbf" points="415,-263 415,-282 463,-282 463,-263 415,-263"/>
<text text-anchor="middle" x="439" y="-270" font-family="Helvetica,sans-Serif" font-size="10.00">iosfwd</text>
</a>
</g>
</g>
<!-- Node5&#45;&gt;Node14 -->
<g id="edge19" class="edge">
<title>Node5&#45;&gt;Node14</title>
<path fill="none" stroke="midnightblue" d="M546.95,-324.48C525.8,-314.49 490.56,-297.85 466.12,-286.31"/>
<polygon fill="midnightblue" stroke="midnightblue" points="467.56,-283.11 457.02,-282.01 464.57,-289.44 467.56,-283.11"/>
</g>
<!-- Node15 -->
<g id="node15" class="node">
<title>Node15</title>
<g id="a_node15"><a xlink:title=" ">
<polygon fill="white" stroke="#bfbfbf" points="1036,-263 1036,-282 1080,-282 1080,-263 1036,-263"/>
<text text-anchor="middle" x="1058" y="-270" font-family="Helvetica,sans-Serif" font-size="10.00">string</text>
</a>
</g>
</g>
<!-- Node5&#45;&gt;Node15 -->
<g id="edge20" class="edge">
<title>Node5&#45;&gt;Node15</title>
<path fill="none" stroke="midnightblue" d="M624.06,-327.07C634.37,-326.04 645,-324.98 655,-324 820.31,-307.74 866.78,-331.82 1027,-288 1028.93,-287.47 1030.9,-286.83 1032.85,-286.11"/>
<polygon fill="midnightblue" stroke="midnightblue" points="1034.47,-289.23 1042.31,-282.1 1031.73,-282.78 1034.47,-289.23"/>
</g>
<!-- Node16 -->
<g id="node16" class="node">
<title>Node16</title>
<g id="a_node16"><a xlink:href="operation_return_values_8h.html" target="_top" xlink:title="Enumeration of values returned by operations within libSBML.">
<polygon fill="white" stroke="black" points="481,-257.5 481,-287.5 649,-287.5 649,-257.5 481,-257.5"/>
<text text-anchor="start" x="489" y="-275.5" font-family="Helvetica,sans-Serif" font-size="10.00">sbml/common/operationReturn</text>
<text text-anchor="middle" x="565" y="-264.5" font-family="Helvetica,sans-Serif" font-size="10.00">Values.h</text>
</a>
</g>
</g>
<!-- Node5&#45;&gt;Node16 -->
<g id="edge21" class="edge">
<title>Node5&#45;&gt;Node16</title>
<path fill="none" stroke="midnightblue" d="M565,-324.48C565,-317.47 565,-307.19 565,-297.7"/>
<polygon fill="midnightblue" stroke="midnightblue" points="568.5,-297.52 565,-287.52 561.5,-297.52 568.5,-297.52"/>
</g>
<!-- Node7&#45;&gt;Node4 -->
<g id="edge7" class="edge">
<title>Node7&#45;&gt;Node4</title>
<path fill="none" stroke="midnightblue" d="M881.6,-262.72C851.46,-226.98 737.44,-91.74 692.43,-38.36"/>
<polygon fill="midnightblue" stroke="midnightblue" points="694.95,-35.92 685.83,-30.53 689.6,-40.43 694.95,-35.92"/>
</g>
<!-- Node8&#45;&gt;Node4 -->
<g id="edge9" class="edge">
<title>Node8&#45;&gt;Node4</title>
<path fill="none" stroke="midnightblue" d="M734.83,-262.72C726.11,-227.42 693.41,-95.07 679.9,-40.38"/>
<polygon fill="midnightblue" stroke="midnightblue" points="683.26,-39.39 677.47,-30.53 676.47,-41.07 683.26,-39.39"/>
</g>
<!-- Node9 -->
<g id="node9" class="node">
<title>Node9</title>
<g id="a_node9"><a xlink:href="libsbml-config_8h.html" target="_top" xlink:title="Decides whether to #include Unix or Windows configuration variables.">
<polygon fill="white" stroke="black" points="482.5,-190.5 482.5,-220.5 607.5,-220.5 607.5,-190.5 482.5,-190.5"/>
<text text-anchor="start" x="490.5" y="-208.5" font-family="Helvetica,sans-Serif" font-size="10.00">sbml/common/libsbml</text>
<text text-anchor="middle" x="545" y="-197.5" font-family="Helvetica,sans-Serif" font-size="10.00">&#45;config.h</text>
</a>
</g>
</g>
<!-- Node8&#45;&gt;Node9 -->
<g id="edge10" class="edge">
<title>Node8&#45;&gt;Node9</title>
<path fill="none" stroke="midnightblue" d="M711.5,-262.87C682.19,-252.95 633.35,-236.41 596.12,-223.81"/>
<polygon fill="midnightblue" stroke="midnightblue" points="597.03,-220.42 586.44,-220.53 594.79,-227.05 597.03,-220.42"/>
</g>
<!-- Node9&#45;&gt;Node4 -->
<g id="edge11" class="edge">
<title>Node9&#45;&gt;Node4</title>
<path fill="none" stroke="midnightblue" d="M571.76,-190.37C586.41,-181.53 603.98,-168.99 616,-154 643.71,-119.44 660.28,-69.7 668.23,-40.48"/>
<polygon fill="midnightblue" stroke="midnightblue" points="671.64,-41.27 670.77,-30.71 664.87,-39.5 671.64,-41.27"/>
</g>
<!-- Node10 -->
<g id="node10" class="node">
<title>Node10</title>
<g id="a_node10"><a xlink:title=" ">
<polygon fill="white" stroke="#bfbfbf" points="482.5,-123.5 482.5,-153.5 607.5,-153.5 607.5,-123.5 482.5,-123.5"/>
<text text-anchor="start" x="490.5" y="-141.5" font-family="Helvetica,sans-Serif" font-size="10.00">sbml/common/libsbml</text>
<text text-anchor="middle" x="545" y="-130.5" font-family="Helvetica,sans-Serif" font-size="10.00">&#45;config&#45;common.h</text>
</a>
</g>
</g>
<!-- Node9&#45;&gt;Node10 -->
<g id="edge12" class="edge">
<title>Node9&#45;&gt;Node10</title>
<path fill="none" stroke="midnightblue" d="M545,-190.4C545,-182.64 545,-172.81 545,-163.86"/>
<polygon fill="midnightblue" stroke="midnightblue" points="548.5,-163.58 545,-153.58 541.5,-163.58 548.5,-163.58"/>
</g>
<!-- Node11 -->
<g id="node11" class="node">
<title>Node11</title>
<g id="a_node11"><a xlink:href="libsbml-version_8h.html" target="_top" xlink:title="Define libSBML version numbers for access from client software.">
<polygon fill="white" stroke="black" points="339.5,-123.5 339.5,-153.5 464.5,-153.5 464.5,-123.5 339.5,-123.5"/>
<text text-anchor="start" x="347.5" y="-141.5" font-family="Helvetica,sans-Serif" font-size="10.00">sbml/common/libsbml</text>
<text text-anchor="middle" x="402" y="-130.5" font-family="Helvetica,sans-Serif" font-size="10.00">&#45;version.h</text>
</a>
</g>
</g>
<!-- Node9&#45;&gt;Node11 -->
<g id="edge13" class="edge">
<title>Node9&#45;&gt;Node11</title>
<path fill="none" stroke="midnightblue" d="M513.97,-190.4C492.98,-180.86 465.06,-168.16 442.35,-157.84"/>
<polygon fill="midnightblue" stroke="midnightblue" points="443.52,-154.53 432.97,-153.58 440.62,-160.9 443.52,-154.53"/>
</g>
<!-- Node11&#45;&gt;Node3 -->
<g id="edge14" class="edge">
<title>Node11&#45;&gt;Node3</title>
<path fill="none" stroke="midnightblue" d="M391.34,-123.4C384.86,-114.84 376.57,-103.87 369.75,-94.86"/>
<polygon fill="midnightblue" stroke="midnightblue" points="372.37,-92.52 363.55,-86.66 366.79,-96.74 372.37,-92.52"/>
</g>
<!-- Node12&#45;&gt;Node3 -->
<g id="edge18" class="edge">
<title>Node12&#45;&gt;Node3</title>
<path fill="none" stroke="midnightblue" d="M201.88,-262.79C203.78,-247.16 209.36,-213.79 224,-190 251.24,-145.73 302.01,-110.35 332.33,-91.92"/>
<polygon fill="midnightblue" stroke="midnightblue" points="334.22,-94.87 341.03,-86.75 330.65,-88.85 334.22,-94.87"/>
</g>
<!-- Node12&#45;&gt;Node6 -->
<g id="edge16" class="edge">
<title>Node12&#45;&gt;Node6</title>
<path fill="none" stroke="midnightblue" d="M208.69,-262.73C217.66,-252.5 232.69,-235.36 243.8,-222.69"/>
<polygon fill="midnightblue" stroke="midnightblue" points="246.47,-224.95 250.43,-215.13 241.21,-220.34 246.47,-224.95"/>
</g>
<!-- Node13 -->
<g id="node13" class="node">
<title>Node13</title>
<g id="a_node13"><a xlink:title=" ">
<polygon fill="white" stroke="#bfbfbf" points="121,-196 121,-215 177,-215 177,-196 121,-196"/>
<text text-anchor="middle" x="149" y="-203" font-family="Helvetica,sans-Serif" font-size="10.00">stdarg.h</text>
</a>
</g>
</g>
<!-- Node12&#45;&gt;Node13 -->
<g id="edge17" class="edge">
<title>Node12&#45;&gt;Node13</title>
<path fill="none" stroke="midnightblue" d="M193.99,-262.73C185.88,-252.6 172.35,-235.69 162.24,-223.06"/>
<polygon fill="midnightblue" stroke="midnightblue" points="164.88,-220.75 155.9,-215.13 159.42,-225.12 164.88,-220.75"/>
</g>
<!-- Node16&#45;&gt;Node3 -->
<g id="edge22" class="edge">
<title>Node16&#45;&gt;Node3</title>
<path fill="none" stroke="midnightblue" d="M585.63,-257.5C596.91,-248.54 609.81,-235.84 616,-221 632.77,-180.8 644.04,-156.33 616,-123 592.88,-95.51 500.26,-84.81 432.35,-80.65"/>
<polygon fill="midnightblue" stroke="midnightblue" points="432.29,-77.14 422.1,-80.06 431.89,-84.13 432.29,-77.14"/>
</g>
<!-- Node17&#45;&gt;Node15 -->
<g id="edge36" class="edge">
<title>Node17&#45;&gt;Node15</title>
<path fill="none" stroke="midnightblue" d="M767.53,-384.95C821.08,-379.96 895.26,-368.83 956,-344 988.98,-330.52 1021.95,-305 1041.14,-288.65"/>
<polygon fill="midnightblue" stroke="midnightblue" points="1043.46,-291.26 1048.71,-282.06 1038.87,-285.98 1043.46,-291.26"/>
</g>
<!-- Node18 -->
<g id="node18" class="node">
<title>Node18</title>
<g id="a_node18"><a xlink:href="_x_m_l_namespaces_8h.html" target="_top" xlink:title="A list of XMLNamespace declarations (URI/prefix pairs)">
<polygon fill="white" stroke="black" points="789,-324.5 789,-343.5 947,-343.5 947,-324.5 789,-324.5"/>
<text text-anchor="middle" x="868" y="-331.5" font-family="Helvetica,sans-Serif" font-size="10.00">sbml/xml/XMLNamespaces.h</text>
</a>
</g>
</g>
<!-- Node17&#45;&gt;Node18 -->
<g id="edge24" class="edge">
<title>Node17&#45;&gt;Node18</title>
<path fill="none" stroke="midnightblue" d="M723.25,-380.44C752.44,-371.28 798.92,-356.69 831.31,-346.52"/>
<polygon fill="midnightblue" stroke="midnightblue" points="832.38,-349.85 840.87,-343.52 830.28,-343.17 832.38,-349.85"/>
</g>
<!-- Node20 -->
<g id="node20" class="node">
<title>Node20</title>
<g id="a_node20"><a xlink:href="common_8h.html" target="_top" xlink:title="Common functions and macros for C and C++.">
<polygon fill="white" stroke="black" points="221.5,-324.5 221.5,-343.5 362.5,-343.5 362.5,-324.5 221.5,-324.5"/>
<text text-anchor="middle" x="292" y="-331.5" font-family="Helvetica,sans-Serif" font-size="10.00">sbml/common/common.h</text>
</a>
</g>
</g>
<!-- Node17&#45;&gt;Node20 -->
<g id="edge30" class="edge">
<title>Node17&#45;&gt;Node20</title>
<path fill="none" stroke="midnightblue" d="M631.98,-380.44C559.59,-370.77 441.89,-355.04 365.72,-344.85"/>
<polygon fill="midnightblue" stroke="midnightblue" points="366.09,-341.37 355.72,-343.52 365.16,-348.31 366.09,-341.37"/>
</g>
<!-- Node22 -->
<g id="node22" class="node">
<title>Node22</title>
<g id="a_node22"><a xlink:title=" ">
<polygon fill="white" stroke="#bfbfbf" points="663.5,-324.5 663.5,-343.5 728.5,-343.5 728.5,-324.5 663.5,-324.5"/>
<text text-anchor="middle" x="696" y="-331.5" font-family="Helvetica,sans-Serif" font-size="10.00">stdexcept</text>
</a>
</g>
</g>
<!-- Node17&#45;&gt;Node22 -->
<g id="edge37" class="edge">
<title>Node17&#45;&gt;Node22</title>
<path fill="none" stroke="midnightblue" d="M696,-380.08C696,-373.01 696,-362.86 696,-353.99"/>
<polygon fill="midnightblue" stroke="midnightblue" points="699.5,-353.75 696,-343.75 692.5,-353.75 699.5,-353.75"/>
</g>
<!-- Node18&#45;&gt;Node7 -->
<g id="edge25" class="edge">
<title>Node18&#45;&gt;Node7</title>
<path fill="none" stroke="midnightblue" d="M871.01,-324.48C874.03,-315.9 878.79,-302.43 882.65,-291.48"/>
<polygon fill="midnightblue" stroke="midnightblue" points="885.97,-292.6 886,-282.01 879.37,-290.27 885.97,-292.6"/>
</g>
<!-- Node18&#45;&gt;Node8 -->
<g id="edge26" class="edge">
<title>Node18&#45;&gt;Node8</title>
<path fill="none" stroke="midnightblue" d="M849.23,-324.48C827.15,-314.45 790.28,-297.7 764.86,-286.15"/>
<polygon fill="midnightblue" stroke="midnightblue" points="766.29,-282.96 755.73,-282.01 763.39,-289.33 766.29,-282.96"/>
</g>
<!-- Node18&#45;&gt;Node15 -->
<g id="edge28" class="edge">
<title>Node18&#45;&gt;Node15</title>
<path fill="none" stroke="midnightblue" d="M904.53,-324.45C937.11,-316.41 985.87,-303.33 1027,-288 1028.43,-287.47 1029.88,-286.9 1031.34,-286.3"/>
<polygon fill="midnightblue" stroke="midnightblue" points="1033.08,-289.36 1040.83,-282.13 1030.27,-282.95 1033.08,-289.36"/>
</g>
<!-- Node18&#45;&gt;Node16 -->
<g id="edge27" class="edge">
<title>Node18&#45;&gt;Node16</title>
<path fill="none" stroke="midnightblue" d="M824.59,-324.48C778.28,-315.38 703.85,-300.77 646.54,-289.51"/>
<polygon fill="midnightblue" stroke="midnightblue" points="646.9,-286.02 636.41,-287.52 645.55,-292.88 646.9,-286.02"/>
</g>
<!-- Node19 -->
<g id="node19" class="node">
<title>Node19</title>
<g id="a_node19"><a xlink:title=" ">
<polygon fill="white" stroke="#bfbfbf" points="970.5,-263 970.5,-282 1017.5,-282 1017.5,-263 970.5,-263"/>
<text text-anchor="middle" x="994" y="-270" font-family="Helvetica,sans-Serif" font-size="10.00">vector</text>
</a>
</g>
</g>
<!-- Node18&#45;&gt;Node19 -->
<g id="edge29" class="edge">
<title>Node18&#45;&gt;Node19</title>
<path fill="none" stroke="midnightblue" d="M886.05,-324.48C907.2,-314.49 942.44,-297.85 966.88,-286.31"/>
<polygon fill="midnightblue" stroke="midnightblue" points="968.43,-289.44 975.98,-282.01 965.44,-283.11 968.43,-289.44"/>
</g>
<!-- Node20&#45;&gt;Node3 -->
<g id="edge33" class="edge">
<title>Node20&#45;&gt;Node3</title>
<path fill="none" stroke="midnightblue" d="M292.45,-324.3C294.22,-295 301.96,-197.56 330,-123 333.64,-113.32 339.37,-103.37 344.61,-95.3"/>
<polygon fill="midnightblue" stroke="midnightblue" points="347.65,-97.05 350.39,-86.81 341.87,-93.11 347.65,-97.05"/>
</g>
<!-- Node20&#45;&gt;Node6 -->
<g id="edge32" class="edge">
<title>Node20&#45;&gt;Node6</title>
<path fill="none" stroke="midnightblue" d="M289.66,-324.31C284.2,-303.99 270.51,-253.05 263.05,-225.28"/>
<polygon fill="midnightblue" stroke="midnightblue" points="266.33,-224 260.35,-215.26 259.57,-225.82 266.33,-224"/>
</g>
<!-- Node20&#45;&gt;Node9 -->
<g id="edge31" class="edge">
<title>Node20&#45;&gt;Node9</title>
<path fill="none" stroke="midnightblue" d="M303.09,-324.28C322.86,-309.04 365.88,-277.29 406,-257 432.11,-243.8 462.51,-232.34 488.21,-223.7"/>
<polygon fill="midnightblue" stroke="midnightblue" points="489.42,-226.98 497.82,-220.52 487.22,-220.34 489.42,-226.98"/>
</g>
<!-- Node20&#45;&gt;Node12 -->
<g id="edge35" class="edge">
<title>Node20&#45;&gt;Node12</title>
<path fill="none" stroke="midnightblue" d="M278.96,-324.48C264.23,-314.84 240.03,-299.02 222.49,-287.55"/>
<polygon fill="midnightblue" stroke="midnightblue" points="224.3,-284.55 214.01,-282.01 220.47,-290.41 224.3,-284.55"/>
</g>
<!-- Node21 -->
<g id="node21" class="node">
<title>Node21</title>
<g id="a_node21"><a xlink:href="memory_8h.html" target="_top" xlink:title=" ">
<polygon fill="white" stroke="black" points="28.5,-263 28.5,-282 139.5,-282 139.5,-263 28.5,-263"/>
<text text-anchor="middle" x="84" y="-270" font-family="Helvetica,sans-Serif" font-size="10.00">sbml/util/memory.h</text>
</a>
</g>
</g>
<!-- Node20&#45;&gt;Node21 -->
<g id="edge34" class="edge">
<title>Node20&#45;&gt;Node21</title>
<path fill="none" stroke="midnightblue" d="M262.2,-324.48C225.75,-314.05 163.92,-296.36 123.53,-284.81"/>
<polygon fill="midnightblue" stroke="midnightblue" points="124.32,-281.39 113.75,-282.01 122.4,-288.12 124.32,-281.39"/>
</g>
<!-- Node23&#45;&gt;Node2 -->
<g id="edge39" class="edge">
<title>Node23&#45;&gt;Node2</title>
<path fill="none" stroke="midnightblue" d="M606.74,-492.08C599.54,-484.3 588.89,-472.8 580.15,-463.37"/>
<polygon fill="midnightblue" stroke="midnightblue" points="582.47,-460.71 573.1,-455.75 577.33,-465.47 582.47,-460.71"/>
</g>
</g>
</svg>
        <g id="navigator" transform="translate(0 0)" fill="#404254">
                <rect fill="#f2f5e9" fill-opacity="0.5" stroke="#606060" stroke-width=".5" x="0" y="0" width="60" height="60"/>
                <use id="zoomplus" xlink:href="#zoomPlus" x="17" y="9" onmousedown="handleZoom(evt,'in')"/>
                <use id="zoomminus" xlink:href="#zoomMin" x="42" y="9" onmousedown="handleZoom(evt,'out')"/>
                <use id="reset" xlink:href="#resetDef" x="30" y="36" onmousedown="handleReset()"/>
                <g id="arrowUp" xlink:href="#dirArrow" transform="translate(30 24)" onmousedown="handlePan(0,-1)">
                  <use xlink:href="#rim" fill="#404040">
                        <set attributeName="fill" to="#808080" begin="arrowUp.mouseover" end="arrowUp.mouseout"/>
                  </use>
                  <path fill="none" stroke="white" stroke-width="1.5" d="M0,-3.0v7 M-2.5,-0.5L0,-3.0L2.5,-0.5"/>
                </g>
                <g id="arrowRight" xlink:href="#dirArrow" transform="rotate(90) translate(36 -43)" onmousedown="handlePan(1,0)">
                  <use xlink:href="#rim" fill="#404040">
                        <set attributeName="fill" to="#808080" begin="arrowRight.mouseover" end="arrowRight.mouseout"/>
                  </use>
                  <path fill="none" stroke="white" stroke-width="1.5" d="M0,-3.0v7 M-2.5,-0.5L0,-3.0L2.5,-0.5"/>
                </g>
                <g id="arrowDown" xlink:href="#dirArrow" transform="rotate(180) translate(-30 -48)" onmousedown="handlePan(0,1)">
                  <use xlink:href="#rim" fill="#404040">
                        <set attributeName="fill" to="#808080" begin="arrowDown.mouseover" end="arrowDown.mouseout"/>
                  </use>
                  <path fill="none" stroke="white" stroke-width="1.5" d="M0,-3.0v7 M-2.5,-0.5L0,-3.0L2.5,-0.5"/>
                </g>
                <g id="arrowLeft" xlink:href="#dirArrow" transform="rotate(270) translate(-36 17)" onmousedown="handlePan(-1,0)">
                  <use xlink:href="#rim" fill="#404040">
                        <set attributeName="fill" to="#808080" begin="arrowLeft.mouseover" end="arrowLeft.mouseout"/>
                  </use>
                  <path fill="none" stroke="white" stroke-width="1.5" d="M0,-3.0v7 M-2.5,-0.5L0,-3.0L2.5,-0.5"/>
                </g>
        </g>
        <svg viewBox="0 0 15 15" width="100%" height="30px" preserveAspectRatio="xMaxYMin meet">
         <g id="arrow_out" transform="scale(0.3 0.3)">
          <a xlink:href="_layout_validator_8h__incl_org.svg" target="_base">
           <rect id="button" ry="5" rx="5" y="6" x="6" height="38" width="38"
                fill="#f2f5e9" fill-opacity="0.5" stroke="#606060" stroke-width="1.0"/>
           <path id="arrow"
             d="M 11.500037,31.436501 C 11.940474,20.09759 22.043105,11.32322 32.158766,21.979434 L 37.068811,17.246167 C 37.068811,17.246167 37.088388,32 37.088388,32 L 22.160133,31.978069 C 22.160133,31.978069 26.997745,27.140456 26.997745,27.140456 C 18.528582,18.264221 13.291696,25.230495 11.500037,31.436501 z"
             style="fill:#404040;"/>
          </a>
         </g>
        </svg>
</svg>
