<?xml version="1.0" encoding="UTF-8" standalone="no"?>
<!DOCTYPE svg PUBLIC "-//W3C//DTD SVG 1.1//EN"
 "http://www.w3.org/Graphics/SVG/1.1/DTD/svg11.dtd">
<!-- Generated by graphviz version 2.43.0 (0)
 -->
<!-- Title: Layout.h Pages: 1 -->
<svg width="3292pt" height="196pt"
 viewBox="0.00 0.00 3292.00 196.00" xmlns="http://www.w3.org/2000/svg" xmlns:xlink="http://www.w3.org/1999/xlink">
<g id="graph0" class="graph" transform="scale(1 1) rotate(0) translate(4 192)">
<title>Layout.h</title>
<polygon fill="white" stroke="transparent" points="-4,4 -4,-192 3288,-192 3288,4 -4,4"/>
<!-- Node1 -->
<g id="node1" class="node">
<title>Node1</title>
<g id="a_node1"><a xlink:title="Definition of Layout for SBML Layout.">
<polygon fill="#bfbfbf" stroke="black" points="2053,-168.5 2053,-187.5 2112,-187.5 2112,-168.5 2053,-168.5"/>
<text text-anchor="middle" x="2082.5" y="-175.5" font-family="Helvetica,sans-Serif" font-size="10.00">Layout.h</text>
</a>
</g>
</g>
<!-- Node2 -->
<g id="node2" class="node">
<title>Node2</title>
<g id="a_node2"><a xlink:href="_layout_extension_types_8h.html" target="_top" xlink:title="Include all SBML types of layout extension in a single header file.">
<polygon fill="white" stroke="black" points="281.5,-56.5 281.5,-75.5 415.5,-75.5 415.5,-56.5 281.5,-56.5"/>
<text text-anchor="middle" x="348.5" y="-63.5" font-family="Helvetica,sans-Serif" font-size="10.00">LayoutExtensionTypes.h</text>
</a>
</g>
</g>
<!-- Node1&#45;&gt;Node2 -->
<g id="edge1" class="edge">
<title>Node1&#45;&gt;Node2</title>
<path fill="none" stroke="midnightblue" d="M2042.61,-176.81C1839.15,-175.7 915.59,-168.67 631.5,-132 537.01,-119.8 427.79,-90.19 377.09,-75.52"/>
<polygon fill="midnightblue" stroke="midnightblue" points="2042.81,-180.31 2052.83,-176.87 2042.85,-173.31 2042.81,-180.31"/>
</g>
<!-- Node8 -->
<g id="node8" class="node">
<title>Node8</title>
<g id="a_node8"><a xlink:href="_layout_model_plugin_8h.html" target="_top" xlink:title="Definition of LayoutModelPlugin, the plugin class of layout package for Model element.">
<polygon fill="white" stroke="black" points="641,-112.5 641,-131.5 760,-131.5 760,-112.5 641,-112.5"/>
<text text-anchor="middle" x="700.5" y="-119.5" font-family="Helvetica,sans-Serif" font-size="10.00">LayoutModelPlugin.h</text>
</a>
</g>
</g>
<!-- Node1&#45;&gt;Node8 -->
<g id="edge7" class="edge">
<title>Node1&#45;&gt;Node8</title>
<path fill="none" stroke="midnightblue" d="M2042.18,-175.97C1886.78,-171.89 1311.7,-155.98 838.5,-132 812.84,-130.7 784.53,-128.91 760.25,-127.28"/>
<polygon fill="midnightblue" stroke="midnightblue" points="2042.55,-179.48 2052.64,-176.24 2042.73,-172.48 2042.55,-179.48"/>
</g>
<!-- Node11 -->
<g id="node11" class="node">
<title>Node11</title>
<g id="a_node11"><a xlink:href="_layout_annotation_8cpp.html" target="_top" xlink:title="Layout annotation I/O.">
<polygon fill="white" stroke="black" points="708,-56.5 708,-75.5 831,-75.5 831,-56.5 708,-56.5"/>
<text text-anchor="middle" x="769.5" y="-63.5" font-family="Helvetica,sans-Serif" font-size="10.00">LayoutAnnotation.cpp</text>
</a>
</g>
</g>
<!-- Node1&#45;&gt;Node11 -->
<g id="edge24" class="edge">
<title>Node1&#45;&gt;Node11</title>
<path fill="none" stroke="midnightblue" d="M2042.81,-177.27C1866.03,-178.21 1149.49,-178.99 930.5,-132 874.8,-120.05 813.59,-90.31 785.37,-75.57"/>
<polygon fill="midnightblue" stroke="midnightblue" points="2042.98,-180.77 2052.96,-177.22 2042.94,-173.77 2042.98,-180.77"/>
</g>
<!-- Node13 -->
<g id="node13" class="node">
<title>Node13</title>
<g id="a_node13"><a xlink:href="_layout_species_reference_plugin_8h.html" target="_top" xlink:title="Definition of LayoutSpeciesReferencePlugin, the plugin class of layout package (Level2) for the Speci...">
<polygon fill="white" stroke="black" points="939.5,-112.5 939.5,-131.5 1115.5,-131.5 1115.5,-112.5 939.5,-112.5"/>
<text text-anchor="middle" x="1027.5" y="-119.5" font-family="Helvetica,sans-Serif" font-size="10.00">LayoutSpeciesReferencePlugin.h</text>
</a>
</g>
</g>
<!-- Node1&#45;&gt;Node13 -->
<g id="edge13" class="edge">
<title>Node1&#45;&gt;Node13</title>
<path fill="none" stroke="midnightblue" d="M2042.54,-174.95C1888.84,-167.09 1333.46,-138.66 1115.84,-127.52"/>
<polygon fill="midnightblue" stroke="midnightblue" points="2042.74,-178.47 2052.9,-175.49 2043.1,-171.48 2042.74,-178.47"/>
</g>
<!-- Node15 -->
<g id="node15" class="node">
<title>Node15</title>
<g id="a_node15"><a xlink:href="_compartment_glyph_8cpp.html" target="_top" xlink:title="Implementation of CompartmentGlyph for SBML Layout.">
<polygon fill="white" stroke="black" points="1879,-112.5 1879,-131.5 2012,-131.5 2012,-112.5 1879,-112.5"/>
<text text-anchor="middle" x="1945.5" y="-119.5" font-family="Helvetica,sans-Serif" font-size="10.00">CompartmentGlyph.cpp</text>
</a>
</g>
</g>
<!-- Node1&#45;&gt;Node15 -->
<g id="edge17" class="edge">
<title>Node1&#45;&gt;Node15</title>
<path fill="none" stroke="midnightblue" d="M2051.48,-164.77C2025.74,-154.63 1989.81,-140.47 1967.11,-131.52"/>
<polygon fill="midnightblue" stroke="midnightblue" points="2050.21,-168.03 2060.79,-168.44 2052.77,-161.52 2050.21,-168.03"/>
</g>
<!-- Node16 -->
<g id="node16" class="node">
<title>Node16</title>
<g id="a_node16"><a xlink:href="_general_glyph_8cpp.html" target="_top" xlink:title="Implementation of GeneralGlyph for SBML Layout.">
<polygon fill="white" stroke="black" points="2030.5,-112.5 2030.5,-131.5 2134.5,-131.5 2134.5,-112.5 2030.5,-112.5"/>
<text text-anchor="middle" x="2082.5" y="-119.5" font-family="Helvetica,sans-Serif" font-size="10.00">GeneralGlyph.cpp</text>
</a>
</g>
</g>
<!-- Node1&#45;&gt;Node16 -->
<g id="edge18" class="edge">
<title>Node1&#45;&gt;Node16</title>
<path fill="none" stroke="midnightblue" d="M2082.5,-157.8C2082.5,-148.91 2082.5,-138.78 2082.5,-131.75"/>
<polygon fill="midnightblue" stroke="midnightblue" points="2079,-158.08 2082.5,-168.08 2086,-158.08 2079,-158.08"/>
</g>
<!-- Node17 -->
<g id="node17" class="node">
<title>Node17</title>
<g id="a_node17"><a xlink:href="_layout_8cpp.html" target="_top" xlink:title="Implementation of Layout for SBML Layout.">
<polygon fill="white" stroke="black" points="2152.5,-112.5 2152.5,-131.5 2222.5,-131.5 2222.5,-112.5 2152.5,-112.5"/>
<text text-anchor="middle" x="2187.5" y="-119.5" font-family="Helvetica,sans-Serif" font-size="10.00">Layout.cpp</text>
</a>
</g>
</g>
<!-- Node1&#45;&gt;Node17 -->
<g id="edge19" class="edge">
<title>Node1&#45;&gt;Node17</title>
<path fill="none" stroke="midnightblue" d="M2108.31,-163.73C2127.75,-153.73 2153.85,-140.31 2170.67,-131.65"/>
<polygon fill="midnightblue" stroke="midnightblue" points="2106.66,-160.64 2099.37,-168.32 2109.86,-166.86 2106.66,-160.64"/>
</g>
<!-- Node18 -->
<g id="node18" class="node">
<title>Node18</title>
<g id="a_node18"><a xlink:href="_reaction_glyph_8cpp.html" target="_top" xlink:title="Implementation of ReactionGlyph for SBML Layout.">
<polygon fill="white" stroke="black" points="2240.5,-112.5 2240.5,-131.5 2348.5,-131.5 2348.5,-112.5 2240.5,-112.5"/>
<text text-anchor="middle" x="2294.5" y="-119.5" font-family="Helvetica,sans-Serif" font-size="10.00">ReactionGlyph.cpp</text>
</a>
</g>
</g>
<!-- Node1&#45;&gt;Node18 -->
<g id="edge20" class="edge">
<title>Node1&#45;&gt;Node18</title>
<path fill="none" stroke="midnightblue" d="M2122.36,-166.85C2162.35,-156.66 2223.26,-141.15 2260.88,-131.56"/>
<polygon fill="midnightblue" stroke="midnightblue" points="2121.25,-163.52 2112.42,-169.38 2122.98,-170.3 2121.25,-163.52"/>
</g>
<!-- Node19 -->
<g id="node19" class="node">
<title>Node19</title>
<g id="a_node19"><a xlink:href="_species_glyph_8cpp.html" target="_top" xlink:title="Implementation of SpeciesGlyph for SBML Layout.">
<polygon fill="white" stroke="black" points="2367,-112.5 2367,-131.5 2470,-131.5 2470,-112.5 2367,-112.5"/>
<text text-anchor="middle" x="2418.5" y="-119.5" font-family="Helvetica,sans-Serif" font-size="10.00">SpeciesGlyph.cpp</text>
</a>
</g>
</g>
<!-- Node1&#45;&gt;Node19 -->
<g id="edge21" class="edge">
<title>Node1&#45;&gt;Node19</title>
<path fill="none" stroke="midnightblue" d="M2122,-170.65C2182.86,-160.87 2299.54,-142.12 2366.96,-131.28"/>
<polygon fill="midnightblue" stroke="midnightblue" points="2121.34,-167.21 2112.02,-172.26 2122.45,-174.12 2121.34,-167.21"/>
</g>
<!-- Node20 -->
<g id="node20" class="node">
<title>Node20</title>
<g id="a_node20"><a xlink:href="_species_reference_glyph_8cpp.html" target="_top" xlink:title="Implementation of SpeciesReferenceGlyph for SBML Layout.">
<polygon fill="white" stroke="black" points="2488.5,-112.5 2488.5,-131.5 2640.5,-131.5 2640.5,-112.5 2488.5,-112.5"/>
<text text-anchor="middle" x="2564.5" y="-119.5" font-family="Helvetica,sans-Serif" font-size="10.00">SpeciesReferenceGlyph.cpp</text>
</a>
</g>
</g>
<!-- Node1&#45;&gt;Node20 -->
<g id="edge22" class="edge">
<title>Node1&#45;&gt;Node20</title>
<path fill="none" stroke="midnightblue" d="M2122.47,-172.52C2202.79,-163.52 2384.92,-143.12 2488.59,-131.5"/>
<polygon fill="midnightblue" stroke="midnightblue" points="2121.84,-169.07 2112.29,-173.66 2122.62,-176.03 2121.84,-169.07"/>
</g>
<!-- Node21 -->
<g id="node21" class="node">
<title>Node21</title>
<g id="a_node21"><a xlink:href="_text_glyph_8cpp.html" target="_top" xlink:title="Implementation of TextGlyph for SBML Layout.">
<polygon fill="white" stroke="black" points="2658.5,-112.5 2658.5,-131.5 2744.5,-131.5 2744.5,-112.5 2658.5,-112.5"/>
<text text-anchor="middle" x="2701.5" y="-119.5" font-family="Helvetica,sans-Serif" font-size="10.00">TextGlyph.cpp</text>
</a>
</g>
</g>
<!-- Node1&#45;&gt;Node21 -->
<g id="edge23" class="edge">
<title>Node1&#45;&gt;Node21</title>
<path fill="none" stroke="midnightblue" d="M2122.16,-175.11C2214.77,-170.43 2452.34,-156.83 2649.5,-132 2652.41,-131.63 2655.4,-131.22 2658.42,-130.77"/>
<polygon fill="midnightblue" stroke="midnightblue" points="2121.92,-171.62 2112.11,-175.61 2122.27,-178.61 2121.92,-171.62"/>
</g>
<!-- Node22 -->
<g id="node22" class="node">
<title>Node22</title>
<g id="a_node22"><a xlink:href="_layout_annotation_8h.html" target="_top" xlink:title="Layout annotation I/O.">
<polygon fill="white" stroke="black" points="1748.5,-112.5 1748.5,-131.5 1860.5,-131.5 1860.5,-112.5 1748.5,-112.5"/>
<text text-anchor="middle" x="1804.5" y="-119.5" font-family="Helvetica,sans-Serif" font-size="10.00">LayoutAnnotation.h</text>
</a>
</g>
</g>
<!-- Node1&#45;&gt;Node22 -->
<g id="edge25" class="edge">
<title>Node1&#45;&gt;Node22</title>
<path fill="none" stroke="midnightblue" d="M2042.68,-169.27C1991.26,-159.28 1902.04,-141.95 1848.61,-131.57"/>
<polygon fill="midnightblue" stroke="midnightblue" points="2042.27,-172.75 2052.75,-171.22 2043.6,-165.88 2042.27,-172.75"/>
</g>
<!-- Node41 -->
<g id="node41" class="node">
<title>Node41</title>
<g id="a_node41"><a xlink:href="_render_layout_plugin_8cpp.html" target="_top" xlink:title="Implementation of RenderLayoutPlugin, the plugin class of the fbc package for the Model element.">
<polygon fill="white" stroke="black" points="2762.5,-112.5 2762.5,-131.5 2896.5,-131.5 2896.5,-112.5 2762.5,-112.5"/>
<text text-anchor="middle" x="2829.5" y="-119.5" font-family="Helvetica,sans-Serif" font-size="10.00">RenderLayoutPlugin.cpp</text>
</a>
</g>
</g>
<!-- Node1&#45;&gt;Node41 -->
<g id="edge47" class="edge">
<title>Node1&#45;&gt;Node41</title>
<path fill="none" stroke="midnightblue" d="M2122.36,-175.04C2226.34,-169.76 2514.38,-154.16 2753.5,-132 2756.41,-131.73 2759.38,-131.44 2762.38,-131.14"/>
<polygon fill="midnightblue" stroke="midnightblue" points="2122.12,-171.54 2112.31,-175.54 2122.47,-178.54 2122.12,-171.54"/>
</g>
<!-- Node3 -->
<g id="node3" class="node">
<title>Node3</title>
<g id="a_node3"><a xlink:href="_graphical_object_8cpp.html" target="_top" xlink:title="Implementation of GraphicalObject for SBML Layout.">
<polygon fill="white" stroke="black" points="0,-0.5 0,-19.5 115,-19.5 115,-0.5 0,-0.5"/>
<text text-anchor="middle" x="57.5" y="-7.5" font-family="Helvetica,sans-Serif" font-size="10.00">GraphicalObject.cpp</text>
</a>
</g>
</g>
<!-- Node2&#45;&gt;Node3 -->
<g id="edge2" class="edge">
<title>Node2&#45;&gt;Node3</title>
<path fill="none" stroke="midnightblue" d="M292.46,-54.6C237.46,-44.4 154.6,-29.02 103.39,-19.52"/>
<polygon fill="midnightblue" stroke="midnightblue" points="291.92,-58.06 302.39,-56.44 293.2,-51.18 291.92,-58.06"/>
</g>
<!-- Node4 -->
<g id="node4" class="node">
<title>Node4</title>
<g id="a_node4"><a xlink:href="_layout_validator_8cpp.html" target="_top" xlink:title="Implementation of the LayoutValidator class.">
<polygon fill="white" stroke="black" points="133,-0.5 133,-19.5 246,-19.5 246,-0.5 133,-0.5"/>
<text text-anchor="middle" x="189.5" y="-7.5" font-family="Helvetica,sans-Serif" font-size="10.00">LayoutValidator.cpp</text>
</a>
</g>
</g>
<!-- Node2&#45;&gt;Node4 -->
<g id="edge3" class="edge">
<title>Node2&#45;&gt;Node4</title>
<path fill="none" stroke="midnightblue" d="M313.67,-53.17C283.73,-43 241.28,-28.59 214.58,-19.52"/>
<polygon fill="midnightblue" stroke="midnightblue" points="312.71,-56.54 323.31,-56.44 314.96,-49.91 312.71,-56.54"/>
</g>
<!-- Node5 -->
<g id="node5" class="node">
<title>Node5</title>
<g id="a_node5"><a xlink:href="_render_list_of_layouts_plugin_8cpp.html" target="_top" xlink:title="Implementation of RenderListOfLayoutsPlugin, the plugin class of the fbc package for the Model elemen...">
<polygon fill="white" stroke="black" points="264.5,-0.5 264.5,-19.5 432.5,-19.5 432.5,-0.5 264.5,-0.5"/>
<text text-anchor="middle" x="348.5" y="-7.5" font-family="Helvetica,sans-Serif" font-size="10.00">RenderListOfLayoutsPlugin.cpp</text>
</a>
</g>
</g>
<!-- Node2&#45;&gt;Node5 -->
<g id="edge4" class="edge">
<title>Node2&#45;&gt;Node5</title>
<path fill="none" stroke="midnightblue" d="M348.5,-45.8C348.5,-36.91 348.5,-26.78 348.5,-19.75"/>
<polygon fill="midnightblue" stroke="midnightblue" points="345,-46.08 348.5,-56.08 352,-46.08 345,-46.08"/>
</g>
<!-- Node6 -->
<g id="node6" class="node">
<title>Node6</title>
<g id="a_node6"><a xlink:href="_render_layout_converter_8cpp.html" target="_top" xlink:title="Simple converter to convert Layout + Render from l2 to L3 and vice versa.">
<polygon fill="white" stroke="black" points="450.5,-0.5 450.5,-19.5 602.5,-19.5 602.5,-0.5 450.5,-0.5"/>
<text text-anchor="middle" x="526.5" y="-7.5" font-family="Helvetica,sans-Serif" font-size="10.00">RenderLayoutConverter.cpp</text>
</a>
</g>
</g>
<!-- Node2&#45;&gt;Node6 -->
<g id="edge5" class="edge">
<title>Node2&#45;&gt;Node6</title>
<path fill="none" stroke="midnightblue" d="M386.62,-53.44C420.18,-43.26 468.27,-28.66 498.43,-19.52"/>
<polygon fill="midnightblue" stroke="midnightblue" points="385.26,-50.19 376.7,-56.44 387.29,-56.89 385.26,-50.19"/>
</g>
<!-- Node7 -->
<g id="node7" class="node">
<title>Node7</title>
<g id="a_node7"><a xlink:href="_render_utilities_8cpp.html" target="_top" xlink:title="implementation of RenderUtilities, a class of utility functions for the render package">
<polygon fill="white" stroke="black" points="620.5,-0.5 620.5,-19.5 730.5,-19.5 730.5,-0.5 620.5,-0.5"/>
<text text-anchor="middle" x="675.5" y="-7.5" font-family="Helvetica,sans-Serif" font-size="10.00">RenderUtilities.cpp</text>
</a>
</g>
</g>
<!-- Node2&#45;&gt;Node7 -->
<g id="edge6" class="edge">
<title>Node2&#45;&gt;Node7</title>
<path fill="none" stroke="midnightblue" d="M410.32,-54.79C472.11,-44.59 566.03,-29.08 623.93,-19.52"/>
<polygon fill="midnightblue" stroke="midnightblue" points="409.61,-51.36 400.31,-56.44 410.75,-58.27 409.61,-51.36"/>
</g>
<!-- Node8&#45;&gt;Node2 -->
<g id="edge8" class="edge">
<title>Node8&#45;&gt;Node2</title>
<path fill="none" stroke="midnightblue" d="M634.77,-110.92C568.27,-100.71 466.6,-85.12 404.01,-75.52"/>
<polygon fill="midnightblue" stroke="midnightblue" points="634.31,-114.39 644.72,-112.44 635.37,-107.47 634.31,-114.39"/>
</g>
<!-- Node9 -->
<g id="node9" class="node">
<title>Node9</title>
<g id="a_node9"><a xlink:href="_layout_extension_8cpp.html" target="_top" xlink:title="Implementation of LayoutExtension, the core module of layout package.">
<polygon fill="white" stroke="black" points="571.5,-56.5 571.5,-75.5 689.5,-75.5 689.5,-56.5 571.5,-56.5"/>
<text text-anchor="middle" x="630.5" y="-63.5" font-family="Helvetica,sans-Serif" font-size="10.00">LayoutExtension.cpp</text>
</a>
</g>
</g>
<!-- Node8&#45;&gt;Node9 -->
<g id="edge9" class="edge">
<title>Node8&#45;&gt;Node9</title>
<path fill="none" stroke="midnightblue" d="M681.19,-106.1C668.59,-96.38 652.57,-84.03 641.95,-75.83"/>
<polygon fill="midnightblue" stroke="midnightblue" points="679.2,-108.99 689.25,-112.32 683.47,-103.44 679.2,-108.99"/>
</g>
<!-- Node10 -->
<g id="node10" class="node">
<title>Node10</title>
<g id="a_node10"><a xlink:href="_layout_model_plugin_8cpp.html" target="_top" xlink:title="Implementation of LayoutModelPlugin, the plugin class of layout package for the Model element.">
<polygon fill="white" stroke="black" points="849.5,-56.5 849.5,-75.5 979.5,-75.5 979.5,-56.5 849.5,-56.5"/>
<text text-anchor="middle" x="914.5" y="-63.5" font-family="Helvetica,sans-Serif" font-size="10.00">LayoutModelPlugin.cpp</text>
</a>
</g>
</g>
<!-- Node8&#45;&gt;Node10 -->
<g id="edge10" class="edge">
<title>Node8&#45;&gt;Node10</title>
<path fill="none" stroke="midnightblue" d="M744.26,-109.96C784.67,-99.76 843.87,-84.82 880.75,-75.52"/>
<polygon fill="midnightblue" stroke="midnightblue" points="743.25,-106.6 734.41,-112.44 744.96,-113.39 743.25,-106.6"/>
</g>
<!-- Node8&#45;&gt;Node11 -->
<g id="edge11" class="edge">
<title>Node8&#45;&gt;Node11</title>
<path fill="none" stroke="midnightblue" d="M719.54,-106.1C731.96,-96.38 747.74,-84.03 758.21,-75.83"/>
<polygon fill="midnightblue" stroke="midnightblue" points="717.3,-103.4 711.59,-112.32 721.62,-108.92 717.3,-103.4"/>
</g>
<!-- Node12 -->
<g id="node12" class="node">
<title>Node12</title>
<g id="a_node12"><a xlink:href="_render_extension_8cpp.html" target="_top" xlink:title="Implementation of RenderExtension, the core module of the render package.">
<polygon fill="white" stroke="black" points="434,-56.5 434,-75.5 553,-75.5 553,-56.5 434,-56.5"/>
<text text-anchor="middle" x="493.5" y="-63.5" font-family="Helvetica,sans-Serif" font-size="10.00">RenderExtension.cpp</text>
</a>
</g>
</g>
<!-- Node8&#45;&gt;Node12 -->
<g id="edge12" class="edge">
<title>Node8&#45;&gt;Node12</title>
<path fill="none" stroke="midnightblue" d="M657.68,-109.83C618.59,-99.63 561.67,-84.78 526.15,-75.52"/>
<polygon fill="midnightblue" stroke="midnightblue" points="657.14,-113.31 667.7,-112.44 658.91,-106.53 657.14,-113.31"/>
</g>
<!-- Node13&#45;&gt;Node9 -->
<g id="edge14" class="edge">
<title>Node13&#45;&gt;Node9</title>
<path fill="none" stroke="midnightblue" d="M954.59,-111.08C878.35,-100.71 760.16,-84.64 689.55,-75.03"/>
<polygon fill="midnightblue" stroke="midnightblue" points="954.21,-114.56 964.59,-112.44 955.16,-107.63 954.21,-114.56"/>
</g>
<!-- Node13&#45;&gt;Node11 -->
<g id="edge16" class="edge">
<title>Node13&#45;&gt;Node11</title>
<path fill="none" stroke="midnightblue" d="M976.6,-110.35C927.84,-100.14 855.21,-84.94 810.19,-75.52"/>
<polygon fill="midnightblue" stroke="midnightblue" points="976.11,-113.82 986.62,-112.44 977.55,-106.97 976.11,-113.82"/>
</g>
<!-- Node14 -->
<g id="node14" class="node">
<title>Node14</title>
<g id="a_node14"><a xlink:href="_layout_species_reference_plugin_8cpp.html" target="_top" xlink:title="Implementation of LayoutSpeciesReferencePlugin, the plugin object of layout package (Level2) for the ...">
<polygon fill="white" stroke="black" points="998,-56.5 998,-75.5 1185,-75.5 1185,-56.5 998,-56.5"/>
<text text-anchor="middle" x="1091.5" y="-63.5" font-family="Helvetica,sans-Serif" font-size="10.00">LayoutSpeciesReferencePlugin.cpp</text>
</a>
</g>
</g>
<!-- Node13&#45;&gt;Node14 -->
<g id="edge15" class="edge">
<title>Node13&#45;&gt;Node14</title>
<path fill="none" stroke="midnightblue" d="M1045.49,-105.82C1056.96,-96.15 1071.41,-83.95 1081.03,-75.83"/>
<polygon fill="midnightblue" stroke="midnightblue" points="1043.17,-103.2 1037.78,-112.32 1047.68,-108.55 1043.17,-103.2"/>
</g>
<!-- Node22&#45;&gt;Node10 -->
<g id="edge26" class="edge">
<title>Node22&#45;&gt;Node10</title>
<path fill="none" stroke="midnightblue" d="M1737.93,-118.82C1598.64,-113.92 1266.33,-100.53 988.5,-76 985.66,-75.75 982.77,-75.48 979.85,-75.18"/>
<polygon fill="midnightblue" stroke="midnightblue" points="1737.9,-122.32 1748.02,-119.17 1738.15,-115.32 1737.9,-122.32"/>
</g>
<!-- Node22&#45;&gt;Node11 -->
<g id="edge28" class="edge">
<title>Node22&#45;&gt;Node11</title>
<path fill="none" stroke="midnightblue" d="M1738.04,-119.72C1581.42,-116.29 1177.04,-105.14 840.5,-76 837.41,-75.73 834.24,-75.43 831.04,-75.1"/>
<polygon fill="midnightblue" stroke="midnightblue" points="1738.36,-123.22 1748.44,-119.94 1738.51,-116.22 1738.36,-123.22"/>
</g>
<!-- Node22&#45;&gt;Node14 -->
<g id="edge27" class="edge">
<title>Node22&#45;&gt;Node14</title>
<path fill="none" stroke="midnightblue" d="M1738.32,-116.44C1626.18,-108.65 1391.66,-92.04 1193.5,-76 1190.75,-75.78 1187.97,-75.55 1185.15,-75.32"/>
<polygon fill="midnightblue" stroke="midnightblue" points="1738.24,-119.94 1748.46,-117.15 1738.73,-112.96 1738.24,-119.94"/>
</g>
<!-- Node23 -->
<g id="node23" class="node">
<title>Node23</title>
<g id="a_node23"><a xlink:href="_ellipse_8cpp.html" target="_top" xlink:title="Implementation of the Ellipse class.">
<polygon fill="white" stroke="black" points="1203,-56.5 1203,-75.5 1272,-75.5 1272,-56.5 1203,-56.5"/>
<text text-anchor="middle" x="1237.5" y="-63.5" font-family="Helvetica,sans-Serif" font-size="10.00">Ellipse.cpp</text>
</a>
</g>
</g>
<!-- Node22&#45;&gt;Node23 -->
<g id="edge29" class="edge">
<title>Node22&#45;&gt;Node23</title>
<path fill="none" stroke="midnightblue" d="M1738.18,-117.87C1638.45,-112.6 1444.09,-100.05 1280.5,-76 1277.78,-75.6 1274.98,-75.14 1272.17,-74.63"/>
<polygon fill="midnightblue" stroke="midnightblue" points="1738.24,-121.38 1748.41,-118.41 1738.6,-114.39 1738.24,-121.38"/>
</g>
<!-- Node24 -->
<g id="node24" class="node">
<title>Node24</title>
<g id="a_node24"><a xlink:href="_global_style_8cpp.html" target="_top" xlink:title="Implementation of the GlobalStyle class.">
<polygon fill="white" stroke="black" points="1290,-56.5 1290,-75.5 1383,-75.5 1383,-56.5 1290,-56.5"/>
<text text-anchor="middle" x="1336.5" y="-63.5" font-family="Helvetica,sans-Serif" font-size="10.00">GlobalStyle.cpp</text>
</a>
</g>
</g>
<!-- Node22&#45;&gt;Node24 -->
<g id="edge30" class="edge">
<title>Node22&#45;&gt;Node24</title>
<path fill="none" stroke="midnightblue" d="M1738.13,-114.88C1656.42,-107.08 1513.49,-92.62 1391.5,-76 1388.82,-75.63 1386.06,-75.24 1383.28,-74.83"/>
<polygon fill="midnightblue" stroke="midnightblue" points="1737.98,-118.38 1748.27,-115.84 1738.65,-111.41 1737.98,-118.38"/>
</g>
<!-- Node25 -->
<g id="node25" class="node">
<title>Node25</title>
<g id="a_node25"><a xlink:href="_gradient_stop_8cpp.html" target="_top" xlink:title="class representing a stop in a gradient definition">
<polygon fill="white" stroke="black" points="1401,-56.5 1401,-75.5 1502,-75.5 1502,-56.5 1401,-56.5"/>
<text text-anchor="middle" x="1451.5" y="-63.5" font-family="Helvetica,sans-Serif" font-size="10.00">GradientStop.cpp</text>
</a>
</g>
</g>
<!-- Node22&#45;&gt;Node25 -->
<g id="edge31" class="edge">
<title>Node22&#45;&gt;Node25</title>
<path fill="none" stroke="midnightblue" d="M1738.31,-110.88C1669.76,-100.39 1564.15,-84.23 1502.02,-74.73"/>
<polygon fill="midnightblue" stroke="midnightblue" points="1738.15,-114.39 1748.57,-112.44 1739.21,-107.47 1738.15,-114.39"/>
</g>
<!-- Node26 -->
<g id="node26" class="node">
<title>Node26</title>
<g id="a_node26"><a xlink:href="_image_8cpp.html" target="_top" xlink:title="Implementation of the Image class.">
<polygon fill="white" stroke="black" points="1520.5,-56.5 1520.5,-75.5 1588.5,-75.5 1588.5,-56.5 1520.5,-56.5"/>
<text text-anchor="middle" x="1554.5" y="-63.5" font-family="Helvetica,sans-Serif" font-size="10.00">Image.cpp</text>
</a>
</g>
</g>
<!-- Node22&#45;&gt;Node26 -->
<g id="edge32" class="edge">
<title>Node22&#45;&gt;Node26</title>
<path fill="none" stroke="midnightblue" d="M1755.1,-110.33C1705.92,-99.71 1631.73,-83.68 1588.71,-74.39"/>
<polygon fill="midnightblue" stroke="midnightblue" points="1754.37,-113.75 1764.89,-112.44 1755.85,-106.91 1754.37,-113.75"/>
</g>
<!-- Node27 -->
<g id="node27" class="node">
<title>Node27</title>
<g id="a_node27"><a xlink:href="_linear_gradient_8cpp.html" target="_top" xlink:title="Implementation of the LinearGradient class.">
<polygon fill="white" stroke="black" points="1607,-56.5 1607,-75.5 1716,-75.5 1716,-56.5 1607,-56.5"/>
<text text-anchor="middle" x="1661.5" y="-63.5" font-family="Helvetica,sans-Serif" font-size="10.00">LinearGradient.cpp</text>
</a>
</g>
</g>
<!-- Node22&#45;&gt;Node27 -->
<g id="edge33" class="edge">
<title>Node22&#45;&gt;Node27</title>
<path fill="none" stroke="midnightblue" d="M1772.47,-108.91C1745.59,-98.75 1707.86,-84.51 1684.05,-75.52"/>
<polygon fill="midnightblue" stroke="midnightblue" points="1771.25,-112.19 1781.84,-112.44 1773.72,-105.64 1771.25,-112.19"/>
</g>
<!-- Node28 -->
<g id="node28" class="node">
<title>Node28</title>
<g id="a_node28"><a xlink:href="_list_of_curve_elements_8cpp.html" target="_top" xlink:title="storage class for curve elements">
<polygon fill="white" stroke="black" points="1734.5,-56.5 1734.5,-75.5 1874.5,-75.5 1874.5,-56.5 1734.5,-56.5"/>
<text text-anchor="middle" x="1804.5" y="-63.5" font-family="Helvetica,sans-Serif" font-size="10.00">ListOfCurveElements.cpp</text>
</a>
</g>
</g>
<!-- Node22&#45;&gt;Node28 -->
<g id="edge34" class="edge">
<title>Node22&#45;&gt;Node28</title>
<path fill="none" stroke="midnightblue" d="M1804.5,-101.8C1804.5,-92.91 1804.5,-82.78 1804.5,-75.75"/>
<polygon fill="midnightblue" stroke="midnightblue" points="1801,-102.08 1804.5,-112.08 1808,-102.08 1801,-102.08"/>
</g>
<!-- Node29 -->
<g id="node29" class="node">
<title>Node29</title>
<g id="a_node29"><a xlink:href="_list_of_gradient_stops_8cpp.html" target="_top" xlink:title="Implementation of the ListOfGradientStops class.">
<polygon fill="white" stroke="black" points="1892.5,-56.5 1892.5,-75.5 2026.5,-75.5 2026.5,-56.5 1892.5,-56.5"/>
<text text-anchor="middle" x="1959.5" y="-63.5" font-family="Helvetica,sans-Serif" font-size="10.00">ListOfGradientStops.cpp</text>
</a>
</g>
</g>
<!-- Node22&#45;&gt;Node29 -->
<g id="edge35" class="edge">
<title>Node22&#45;&gt;Node29</title>
<path fill="none" stroke="midnightblue" d="M1838.83,-109.04C1868,-98.88 1909.14,-84.55 1935.05,-75.52"/>
<polygon fill="midnightblue" stroke="midnightblue" points="1837.35,-105.85 1829.06,-112.44 1839.66,-112.46 1837.35,-105.85"/>
</g>
<!-- Node30 -->
<g id="node30" class="node">
<title>Node30</title>
<g id="a_node30"><a xlink:href="_local_render_information_8cpp.html" target="_top" xlink:title="Implementation of the LocalRenderInformation class.">
<polygon fill="white" stroke="black" points="2044.5,-56.5 2044.5,-75.5 2198.5,-75.5 2198.5,-56.5 2044.5,-56.5"/>
<text text-anchor="middle" x="2121.5" y="-63.5" font-family="Helvetica,sans-Serif" font-size="10.00">LocalRenderInformation.cpp</text>
</a>
</g>
</g>
<!-- Node22&#45;&gt;Node30 -->
<g id="edge36" class="edge">
<title>Node22&#45;&gt;Node30</title>
<path fill="none" stroke="midnightblue" d="M1864.8,-110.73C1924.71,-100.52 2015.49,-85.06 2071.51,-75.52"/>
<polygon fill="midnightblue" stroke="midnightblue" points="1864,-107.31 1854.73,-112.44 1865.18,-114.21 1864,-107.31"/>
</g>
<!-- Node31 -->
<g id="node31" class="node">
<title>Node31</title>
<g id="a_node31"><a xlink:href="_local_style_8cpp.html" target="_top" xlink:title="class for representing a local style">
<polygon fill="white" stroke="black" points="2217,-56.5 2217,-75.5 2304,-75.5 2304,-56.5 2217,-56.5"/>
<text text-anchor="middle" x="2260.5" y="-63.5" font-family="Helvetica,sans-Serif" font-size="10.00">LocalStyle.cpp</text>
</a>
</g>
</g>
<!-- Node22&#45;&gt;Node31 -->
<g id="edge37" class="edge">
<title>Node22&#45;&gt;Node31</title>
<path fill="none" stroke="midnightblue" d="M1870.76,-112.01C2021.72,-93.93 2061.49,-96.18 2207.5,-76 2210.55,-75.58 2213.7,-75.12 2216.86,-74.63"/>
<polygon fill="midnightblue" stroke="midnightblue" points="1870.16,-108.56 1860.66,-113.23 1871,-115.51 1870.16,-108.56"/>
</g>
<!-- Node32 -->
<g id="node32" class="node">
<title>Node32</title>
<g id="a_node32"><a xlink:href="_polygon_8cpp.html" target="_top" xlink:title="Implementation of the Polygon class.">
<polygon fill="white" stroke="black" points="2322.5,-56.5 2322.5,-75.5 2398.5,-75.5 2398.5,-56.5 2322.5,-56.5"/>
<text text-anchor="middle" x="2360.5" y="-63.5" font-family="Helvetica,sans-Serif" font-size="10.00">Polygon.cpp</text>
</a>
</g>
</g>
<!-- Node22&#45;&gt;Node32 -->
<g id="edge38" class="edge">
<title>Node22&#45;&gt;Node32</title>
<path fill="none" stroke="midnightblue" d="M1870.79,-112.04C2068.61,-91.03 2121.01,-102.17 2313.5,-76 2316.38,-75.61 2319.35,-75.16 2322.34,-74.67"/>
<polygon fill="midnightblue" stroke="midnightblue" points="1870.21,-108.58 1860.64,-113.13 1870.96,-115.54 1870.21,-108.58"/>
</g>
<!-- Node33 -->
<g id="node33" class="node">
<title>Node33</title>
<g id="a_node33"><a xlink:href="_radial_gradient_8cpp.html" target="_top" xlink:title="Implementation of the RadialGradient class.">
<polygon fill="white" stroke="black" points="2416.5,-56.5 2416.5,-75.5 2526.5,-75.5 2526.5,-56.5 2416.5,-56.5"/>
<text text-anchor="middle" x="2471.5" y="-63.5" font-family="Helvetica,sans-Serif" font-size="10.00">RadialGradient.cpp</text>
</a>
</g>
</g>
<!-- Node22&#45;&gt;Node33 -->
<g id="edge39" class="edge">
<title>Node22&#45;&gt;Node33</title>
<path fill="none" stroke="midnightblue" d="M1870.7,-112.06C2110.18,-88.17 2172.83,-100.33 2407.5,-76 2410.4,-75.7 2413.37,-75.37 2416.37,-75.01"/>
<polygon fill="midnightblue" stroke="midnightblue" points="1870.24,-108.59 1860.64,-113.08 1870.94,-115.56 1870.24,-108.59"/>
</g>
<!-- Node34 -->
<g id="node34" class="node">
<title>Node34</title>
<g id="a_node34"><a xlink:href="_rectangle_8cpp.html" target="_top" xlink:title="Implementation of the Rectangle class.">
<polygon fill="white" stroke="black" points="2544.5,-56.5 2544.5,-75.5 2630.5,-75.5 2630.5,-56.5 2544.5,-56.5"/>
<text text-anchor="middle" x="2587.5" y="-63.5" font-family="Helvetica,sans-Serif" font-size="10.00">Rectangle.cpp</text>
</a>
</g>
</g>
<!-- Node22&#45;&gt;Node34 -->
<g id="edge40" class="edge">
<title>Node22&#45;&gt;Node34</title>
<path fill="none" stroke="midnightblue" d="M1870.81,-112.07C2166.9,-84.54 2244.69,-108.92 2535.5,-76 2538.41,-75.67 2541.41,-75.28 2544.43,-74.86"/>
<polygon fill="midnightblue" stroke="midnightblue" points="1870.26,-108.61 1860.63,-113.03 1870.92,-115.58 1870.26,-108.61"/>
</g>
<!-- Node35 -->
<g id="node35" class="node">
<title>Node35</title>
<g id="a_node35"><a xlink:href="_render_cubic_bezier_8cpp.html" target="_top" xlink:title="Implementation of the RenderCubicBezier class.">
<polygon fill="white" stroke="black" points="2648.5,-56.5 2648.5,-75.5 2776.5,-75.5 2776.5,-56.5 2648.5,-56.5"/>
<text text-anchor="middle" x="2712.5" y="-63.5" font-family="Helvetica,sans-Serif" font-size="10.00">RenderCubicBezier.cpp</text>
</a>
</g>
</g>
<!-- Node22&#45;&gt;Node35 -->
<g id="edge41" class="edge">
<title>Node22&#45;&gt;Node35</title>
<path fill="none" stroke="midnightblue" d="M1870.83,-112.08C2212.96,-81.32 2301.9,-104.67 2639.5,-76 2642.43,-75.75 2645.42,-75.47 2648.43,-75.18"/>
<polygon fill="midnightblue" stroke="midnightblue" points="1870.27,-108.61 1860.63,-113 1870.91,-115.58 1870.27,-108.61"/>
</g>
<!-- Node36 -->
<g id="node36" class="node">
<title>Node36</title>
<g id="a_node36"><a xlink:href="_render_curve_8cpp.html" target="_top" xlink:title="Implementation of the RenderCurve class.">
<polygon fill="white" stroke="black" points="2794.5,-56.5 2794.5,-75.5 2894.5,-75.5 2894.5,-56.5 2794.5,-56.5"/>
<text text-anchor="middle" x="2844.5" y="-63.5" font-family="Helvetica,sans-Serif" font-size="10.00">RenderCurve.cpp</text>
</a>
</g>
</g>
<!-- Node22&#45;&gt;Node36 -->
<g id="edge42" class="edge">
<title>Node22&#45;&gt;Node36</title>
<path fill="none" stroke="midnightblue" d="M1870.61,-112.1C2277.63,-77.08 2383.63,-114.43 2785.5,-76 2788.39,-75.72 2791.35,-75.4 2794.34,-75.04"/>
<polygon fill="midnightblue" stroke="midnightblue" points="1870.29,-108.62 1860.63,-112.97 1870.89,-115.59 1870.29,-108.62"/>
</g>
<!-- Node37 -->
<g id="node37" class="node">
<title>Node37</title>
<g id="a_node37"><a xlink:href="_render_group_8cpp.html" target="_top" xlink:title="Implementation of the RenderGroup class.">
<polygon fill="white" stroke="black" points="2913,-56.5 2913,-75.5 3014,-75.5 3014,-56.5 2913,-56.5"/>
<text text-anchor="middle" x="2963.5" y="-63.5" font-family="Helvetica,sans-Serif" font-size="10.00">RenderGroup.cpp</text>
</a>
</g>
</g>
<!-- Node22&#45;&gt;Node37 -->
<g id="edge43" class="edge">
<title>Node22&#45;&gt;Node37</title>
<path fill="none" stroke="midnightblue" d="M1870.85,-112.09C2329.97,-73.57 2449.4,-117.83 2903.5,-76 2906.54,-75.72 2909.66,-75.39 2912.81,-75.02"/>
<polygon fill="midnightblue" stroke="midnightblue" points="1870.3,-108.62 1860.63,-112.96 1870.89,-115.6 1870.3,-108.62"/>
</g>
<!-- Node38 -->
<g id="node38" class="node">
<title>Node38</title>
<g id="a_node38"><a xlink:href="_render_point_8cpp.html" target="_top" xlink:title="Implementation of the RenderPoint class.">
<polygon fill="white" stroke="black" points="3032.5,-56.5 3032.5,-75.5 3128.5,-75.5 3128.5,-56.5 3032.5,-56.5"/>
<text text-anchor="middle" x="3080.5" y="-63.5" font-family="Helvetica,sans-Serif" font-size="10.00">RenderPoint.cpp</text>
</a>
</g>
</g>
<!-- Node22&#45;&gt;Node38 -->
<g id="edge44" class="edge">
<title>Node22&#45;&gt;Node38</title>
<path fill="none" stroke="midnightblue" d="M1870.87,-112.09C2383.17,-70.02 2516.43,-123.76 3023.5,-76 3026.39,-75.73 3029.36,-75.4 3032.35,-75.04"/>
<polygon fill="midnightblue" stroke="midnightblue" points="1870.3,-108.63 1860.63,-112.94 1870.88,-115.6 1870.3,-108.63"/>
</g>
<!-- Node39 -->
<g id="node39" class="node">
<title>Node39</title>
<g id="a_node39"><a xlink:href="_style_8cpp.html" target="_top" xlink:title="Implementation of the Style class.">
<polygon fill="white" stroke="black" points="3146.5,-56.5 3146.5,-75.5 3208.5,-75.5 3208.5,-56.5 3146.5,-56.5"/>
<text text-anchor="middle" x="3177.5" y="-63.5" font-family="Helvetica,sans-Serif" font-size="10.00">Style.cpp</text>
</a>
</g>
</g>
<!-- Node22&#45;&gt;Node39 -->
<g id="edge45" class="edge">
<title>Node22&#45;&gt;Node39</title>
<path fill="none" stroke="midnightblue" d="M1870.62,-112.12C2433.68,-66.81 2581.82,-145.74 3137.5,-76 3140.33,-75.65 3143.24,-75.18 3146.16,-74.65"/>
<polygon fill="midnightblue" stroke="midnightblue" points="1870.31,-108.63 1860.62,-112.93 1870.88,-115.61 1870.31,-108.63"/>
</g>
<!-- Node40 -->
<g id="node40" class="node">
<title>Node40</title>
<g id="a_node40"><a xlink:href="_text_8cpp.html" target="_top" xlink:title="Implementation of the Text class.">
<polygon fill="white" stroke="black" points="3227,-56.5 3227,-75.5 3284,-75.5 3284,-56.5 3227,-56.5"/>
<text text-anchor="middle" x="3255.5" y="-63.5" font-family="Helvetica,sans-Serif" font-size="10.00">Text.cpp</text>
</a>
</g>
</g>
<!-- Node22&#45;&gt;Node40 -->
<g id="edge46" class="edge">
<title>Node22&#45;&gt;Node40</title>
<path fill="none" stroke="midnightblue" d="M1870.8,-112.1C2469.18,-64.47 2626.98,-152.99 3217.5,-76 3220.59,-75.6 3223.8,-75.05 3226.98,-74.42"/>
<polygon fill="midnightblue" stroke="midnightblue" points="1870.31,-108.63 1860.62,-112.92 1870.87,-115.61 1870.31,-108.63"/>
</g>
</g>
</svg>
