<?xml version="1.0" encoding="UTF-8" standalone="no"?>
<!DOCTYPE svg PUBLIC "-//W3C//DTD SVG 1.1//EN"
 "http://www.w3.org/Graphics/SVG/1.1/DTD/svg11.dtd">
<!-- Generated by graphviz version 2.43.0 (0)
 -->
<!-- Title: LayoutSBMLError.h Pages: 1 -->
<svg width="2112pt" height="84pt"
 viewBox="0.00 0.00 2112.00 84.00" xmlns="http://www.w3.org/2000/svg" xmlns:xlink="http://www.w3.org/1999/xlink">
<g id="graph0" class="graph" transform="scale(1 1) rotate(0) translate(4 80)">
<title>LayoutSBMLError.h</title>
<polygon fill="white" stroke="transparent" points="-4,4 -4,-80 2108,-80 2108,4 -4,4"/>
<!-- Node1 -->
<g id="node1" class="node">
<title>Node1</title>
<g id="a_node1"><a xlink:title="Implementation of the LayoutSBMLError class.">
<polygon fill="#bfbfbf" stroke="black" points="1049,-56.5 1049,-75.5 1157,-75.5 1157,-56.5 1049,-56.5"/>
<text text-anchor="middle" x="1103" y="-63.5" font-family="Helvetica,sans-Serif" font-size="10.00">LayoutSBMLError.h</text>
</a>
</g>
</g>
<!-- Node2 -->
<g id="node2" class="node">
<title>Node2</title>
<g id="a_node2"><a xlink:href="_layout_model_plugin_8cpp.html" target="_top" xlink:title="Implementation of LayoutModelPlugin, the plugin class of layout package for the Model element.">
<polygon fill="white" stroke="black" points="0,-0.5 0,-19.5 130,-19.5 130,-0.5 0,-0.5"/>
<text text-anchor="middle" x="65" y="-7.5" font-family="Helvetica,sans-Serif" font-size="10.00">LayoutModelPlugin.cpp</text>
</a>
</g>
</g>
<!-- Node1&#45;&gt;Node2 -->
<g id="edge1" class="edge">
<title>Node1&#45;&gt;Node2</title>
<path fill="none" stroke="midnightblue" d="M1038.53,-63.65C883.38,-60.03 477.04,-48.41 139,-20 136.16,-19.76 133.27,-19.5 130.34,-19.21"/>
<polygon fill="midnightblue" stroke="midnightblue" points="1038.74,-67.15 1048.82,-63.88 1038.9,-60.15 1038.74,-67.15"/>
</g>
<!-- Node3 -->
<g id="node3" class="node">
<title>Node3</title>
<g id="a_node3"><a xlink:href="_layout_s_b_m_l_document_plugin_8cpp.html" target="_top" xlink:title="Implementation of the LayoutSBMLDocumentPlugin class.">
<polygon fill="white" stroke="black" points="148.5,-0.5 148.5,-19.5 325.5,-19.5 325.5,-0.5 148.5,-0.5"/>
<text text-anchor="middle" x="237" y="-7.5" font-family="Helvetica,sans-Serif" font-size="10.00">LayoutSBMLDocumentPlugin.cpp</text>
</a>
</g>
</g>
<!-- Node1&#45;&gt;Node3 -->
<g id="edge2" class="edge">
<title>Node1&#45;&gt;Node3</title>
<path fill="none" stroke="midnightblue" d="M1038.54,-61.97C906.34,-55.6 594.98,-39.74 334,-20 331.22,-19.79 328.39,-19.57 325.54,-19.34"/>
<polygon fill="midnightblue" stroke="midnightblue" points="1038.73,-65.48 1048.88,-62.47 1039.06,-58.49 1038.73,-65.48"/>
</g>
<!-- Node4 -->
<g id="node4" class="node">
<title>Node4</title>
<g id="a_node4"><a xlink:href="_bounding_box_8cpp.html" target="_top" xlink:title="Implementation of BoundingBox for SBML Layout.">
<polygon fill="white" stroke="black" points="343.5,-0.5 343.5,-19.5 444.5,-19.5 444.5,-0.5 343.5,-0.5"/>
<text text-anchor="middle" x="394" y="-7.5" font-family="Helvetica,sans-Serif" font-size="10.00">BoundingBox.cpp</text>
</a>
</g>
</g>
<!-- Node1&#45;&gt;Node4 -->
<g id="edge3" class="edge">
<title>Node1&#45;&gt;Node4</title>
<path fill="none" stroke="midnightblue" d="M1038.74,-62.31C921.89,-57.02 666.91,-43.68 453,-20 450.32,-19.7 447.58,-19.37 444.81,-19.02"/>
<polygon fill="midnightblue" stroke="midnightblue" points="1038.79,-65.81 1048.94,-62.76 1039.1,-58.82 1038.79,-65.81"/>
</g>
<!-- Node5 -->
<g id="node5" class="node">
<title>Node5</title>
<g id="a_node5"><a xlink:href="_compartment_glyph_8cpp.html" target="_top" xlink:title="Implementation of CompartmentGlyph for SBML Layout.">
<polygon fill="white" stroke="black" points="462.5,-0.5 462.5,-19.5 595.5,-19.5 595.5,-0.5 462.5,-0.5"/>
<text text-anchor="middle" x="529" y="-7.5" font-family="Helvetica,sans-Serif" font-size="10.00">CompartmentGlyph.cpp</text>
</a>
</g>
</g>
<!-- Node1&#45;&gt;Node5 -->
<g id="edge4" class="edge">
<title>Node1&#45;&gt;Node5</title>
<path fill="none" stroke="midnightblue" d="M1038.77,-59.77C943.86,-51.91 760.57,-36.24 605,-20 601.96,-19.68 598.85,-19.35 595.72,-19.01"/>
<polygon fill="midnightblue" stroke="midnightblue" points="1038.53,-63.26 1048.79,-60.6 1039.11,-56.29 1038.53,-63.26"/>
</g>
<!-- Node6 -->
<g id="node6" class="node">
<title>Node6</title>
<g id="a_node6"><a xlink:href="_cubic_bezier_8cpp.html" target="_top" xlink:title="Implementation of CubicBezier for SBML Layout.">
<polygon fill="white" stroke="black" points="614,-0.5 614,-19.5 708,-19.5 708,-0.5 614,-0.5"/>
<text text-anchor="middle" x="661" y="-7.5" font-family="Helvetica,sans-Serif" font-size="10.00">CubicBezier.cpp</text>
</a>
</g>
</g>
<!-- Node1&#45;&gt;Node6 -->
<g id="edge5" class="edge">
<title>Node1&#45;&gt;Node6</title>
<path fill="none" stroke="midnightblue" d="M1038.9,-58.39C962.23,-50.28 830.04,-35.67 717,-20 714.07,-19.59 711.06,-19.16 708.03,-18.71"/>
<polygon fill="midnightblue" stroke="midnightblue" points="1038.58,-61.87 1048.89,-59.44 1039.31,-54.91 1038.58,-61.87"/>
</g>
<!-- Node7 -->
<g id="node7" class="node">
<title>Node7</title>
<g id="a_node7"><a xlink:href="_curve_8cpp.html" target="_top" xlink:title="Implementation of Curve for SBML Layout.">
<polygon fill="white" stroke="black" points="726.5,-0.5 726.5,-19.5 791.5,-19.5 791.5,-0.5 726.5,-0.5"/>
<text text-anchor="middle" x="759" y="-7.5" font-family="Helvetica,sans-Serif" font-size="10.00">Curve.cpp</text>
</a>
</g>
</g>
<!-- Node1&#45;&gt;Node7 -->
<g id="edge6" class="edge">
<title>Node1&#45;&gt;Node7</title>
<path fill="none" stroke="midnightblue" d="M1038.96,-56.79C977.49,-48.6 882.12,-35.09 800,-20 797.28,-19.5 794.46,-18.95 791.63,-18.37"/>
<polygon fill="midnightblue" stroke="midnightblue" points="1038.53,-60.26 1048.9,-58.11 1039.45,-53.32 1038.53,-60.26"/>
</g>
<!-- Node8 -->
<g id="node8" class="node">
<title>Node8</title>
<g id="a_node8"><a xlink:href="_dimensions_8cpp.html" target="_top" xlink:title="Implementation of Dimensions for SBML Layout.">
<polygon fill="white" stroke="black" points="809.5,-0.5 809.5,-19.5 904.5,-19.5 904.5,-0.5 809.5,-0.5"/>
<text text-anchor="middle" x="857" y="-7.5" font-family="Helvetica,sans-Serif" font-size="10.00">Dimensions.cpp</text>
</a>
</g>
</g>
<!-- Node1&#45;&gt;Node8 -->
<g id="edge7" class="edge">
<title>Node1&#45;&gt;Node8</title>
<path fill="none" stroke="midnightblue" d="M1054.17,-54.28C1007.68,-44.08 938.64,-28.92 895.8,-19.52"/>
<polygon fill="midnightblue" stroke="midnightblue" points="1053.5,-57.72 1064.02,-56.44 1055,-50.88 1053.5,-57.72"/>
</g>
<!-- Node9 -->
<g id="node9" class="node">
<title>Node9</title>
<g id="a_node9"><a xlink:href="_general_glyph_8cpp.html" target="_top" xlink:title="Implementation of GeneralGlyph for SBML Layout.">
<polygon fill="white" stroke="black" points="923,-0.5 923,-19.5 1027,-19.5 1027,-0.5 923,-0.5"/>
<text text-anchor="middle" x="975" y="-7.5" font-family="Helvetica,sans-Serif" font-size="10.00">GeneralGlyph.cpp</text>
</a>
</g>
</g>
<!-- Node1&#45;&gt;Node9 -->
<g id="edge8" class="edge">
<title>Node1&#45;&gt;Node9</title>
<path fill="none" stroke="midnightblue" d="M1073.38,-52.5C1049.38,-42.38 1016.22,-28.39 995.19,-19.52"/>
<polygon fill="midnightblue" stroke="midnightblue" points="1072.14,-55.78 1082.72,-56.44 1074.86,-49.33 1072.14,-55.78"/>
</g>
<!-- Node10 -->
<g id="node10" class="node">
<title>Node10</title>
<g id="a_node10"><a xlink:href="_graphical_object_8cpp.html" target="_top" xlink:title="Implementation of GraphicalObject for SBML Layout.">
<polygon fill="white" stroke="black" points="1045.5,-0.5 1045.5,-19.5 1160.5,-19.5 1160.5,-0.5 1045.5,-0.5"/>
<text text-anchor="middle" x="1103" y="-7.5" font-family="Helvetica,sans-Serif" font-size="10.00">GraphicalObject.cpp</text>
</a>
</g>
</g>
<!-- Node1&#45;&gt;Node10 -->
<g id="edge9" class="edge">
<title>Node1&#45;&gt;Node10</title>
<path fill="none" stroke="midnightblue" d="M1103,-45.8C1103,-36.91 1103,-26.78 1103,-19.75"/>
<polygon fill="midnightblue" stroke="midnightblue" points="1099.5,-46.08 1103,-56.08 1106.5,-46.08 1099.5,-46.08"/>
</g>
<!-- Node11 -->
<g id="node11" class="node">
<title>Node11</title>
<g id="a_node11"><a xlink:href="_layout_8cpp.html" target="_top" xlink:title="Implementation of Layout for SBML Layout.">
<polygon fill="white" stroke="black" points="1179,-0.5 1179,-19.5 1249,-19.5 1249,-0.5 1179,-0.5"/>
<text text-anchor="middle" x="1214" y="-7.5" font-family="Helvetica,sans-Serif" font-size="10.00">Layout.cpp</text>
</a>
</g>
</g>
<!-- Node1&#45;&gt;Node11 -->
<g id="edge10" class="edge">
<title>Node1&#45;&gt;Node11</title>
<path fill="none" stroke="midnightblue" d="M1130.01,-51.86C1150.59,-41.85 1178.34,-28.35 1196.21,-19.65"/>
<polygon fill="midnightblue" stroke="midnightblue" points="1128.3,-48.8 1120.83,-56.32 1131.36,-55.1 1128.3,-48.8"/>
</g>
<!-- Node12 -->
<g id="node12" class="node">
<title>Node12</title>
<g id="a_node12"><a xlink:href="_line_segment_8cpp.html" target="_top" xlink:title="Implementation of LineSegment for SBML Layout.">
<polygon fill="white" stroke="black" points="1267.5,-0.5 1267.5,-19.5 1368.5,-19.5 1368.5,-0.5 1267.5,-0.5"/>
<text text-anchor="middle" x="1318" y="-7.5" font-family="Helvetica,sans-Serif" font-size="10.00">LineSegment.cpp</text>
</a>
</g>
</g>
<!-- Node1&#45;&gt;Node12 -->
<g id="edge11" class="edge">
<title>Node1&#45;&gt;Node12</title>
<path fill="none" stroke="midnightblue" d="M1146.96,-53.96C1187.57,-43.76 1247.04,-28.82 1284.09,-19.52"/>
<polygon fill="midnightblue" stroke="midnightblue" points="1145.91,-50.61 1137.07,-56.44 1147.62,-57.4 1145.91,-50.61"/>
</g>
<!-- Node13 -->
<g id="node13" class="node">
<title>Node13</title>
<g id="a_node13"><a xlink:href="_point_8cpp.html" target="_top" xlink:title="Implementation of Point for SBML Layout.">
<polygon fill="white" stroke="black" points="1387,-0.5 1387,-19.5 1449,-19.5 1449,-0.5 1387,-0.5"/>
<text text-anchor="middle" x="1418" y="-7.5" font-family="Helvetica,sans-Serif" font-size="10.00">Point.cpp</text>
</a>
</g>
</g>
<!-- Node1&#45;&gt;Node13 -->
<g id="edge12" class="edge">
<title>Node1&#45;&gt;Node13</title>
<path fill="none" stroke="midnightblue" d="M1167.28,-55.58C1223.13,-47.13 1306.13,-33.95 1378,-20 1380.8,-19.46 1383.69,-18.86 1386.59,-18.25"/>
<polygon fill="midnightblue" stroke="midnightblue" points="1166.54,-52.15 1157.17,-57.1 1167.58,-59.07 1166.54,-52.15"/>
</g>
<!-- Node14 -->
<g id="node14" class="node">
<title>Node14</title>
<g id="a_node14"><a xlink:href="_reaction_glyph_8cpp.html" target="_top" xlink:title="Implementation of ReactionGlyph for SBML Layout.">
<polygon fill="white" stroke="black" points="1467,-0.5 1467,-19.5 1575,-19.5 1575,-0.5 1467,-0.5"/>
<text text-anchor="middle" x="1521" y="-7.5" font-family="Helvetica,sans-Serif" font-size="10.00">ReactionGlyph.cpp</text>
</a>
</g>
</g>
<!-- Node1&#45;&gt;Node14 -->
<g id="edge13" class="edge">
<title>Node1&#45;&gt;Node14</title>
<path fill="none" stroke="midnightblue" d="M1167.31,-57.16C1238.46,-48.41 1356.48,-33.68 1458,-20 1460.85,-19.62 1463.77,-19.22 1466.71,-18.81"/>
<polygon fill="midnightblue" stroke="midnightblue" points="1166.66,-53.71 1157.16,-58.4 1167.52,-60.66 1166.66,-53.71"/>
</g>
<!-- Node15 -->
<g id="node15" class="node">
<title>Node15</title>
<g id="a_node15"><a xlink:href="_reference_glyph_8cpp.html" target="_top" xlink:title="Implementation of ReferenceGlyph for SBML Layout.">
<polygon fill="white" stroke="black" points="1593.5,-0.5 1593.5,-19.5 1708.5,-19.5 1708.5,-0.5 1593.5,-0.5"/>
<text text-anchor="middle" x="1651" y="-7.5" font-family="Helvetica,sans-Serif" font-size="10.00">ReferenceGlyph.cpp</text>
</a>
</g>
</g>
<!-- Node1&#45;&gt;Node15 -->
<g id="edge14" class="edge">
<title>Node1&#45;&gt;Node15</title>
<path fill="none" stroke="midnightblue" d="M1167.2,-59.82C1259.5,-52.19 1435,-36.97 1584,-20 1587.03,-19.65 1590.14,-19.29 1593.27,-18.9"/>
<polygon fill="midnightblue" stroke="midnightblue" points="1166.85,-56.34 1157.17,-60.65 1167.43,-63.31 1166.85,-56.34"/>
</g>
<!-- Node16 -->
<g id="node16" class="node">
<title>Node16</title>
<g id="a_node16"><a xlink:href="_species_glyph_8cpp.html" target="_top" xlink:title="Implementation of SpeciesGlyph for SBML Layout.">
<polygon fill="white" stroke="black" points="1726.5,-0.5 1726.5,-19.5 1829.5,-19.5 1829.5,-0.5 1726.5,-0.5"/>
<text text-anchor="middle" x="1778" y="-7.5" font-family="Helvetica,sans-Serif" font-size="10.00">SpeciesGlyph.cpp</text>
</a>
</g>
</g>
<!-- Node1&#45;&gt;Node16 -->
<g id="edge15" class="edge">
<title>Node1&#45;&gt;Node16</title>
<path fill="none" stroke="midnightblue" d="M1167.12,-61.91C1279.13,-56.16 1517.58,-42.33 1718,-20 1720.72,-19.7 1723.51,-19.36 1726.32,-19.01"/>
<polygon fill="midnightblue" stroke="midnightblue" points="1166.82,-58.42 1157.01,-62.43 1167.17,-65.42 1166.82,-58.42"/>
</g>
<!-- Node17 -->
<g id="node17" class="node">
<title>Node17</title>
<g id="a_node17"><a xlink:href="_species_reference_glyph_8cpp.html" target="_top" xlink:title="Implementation of SpeciesReferenceGlyph for SBML Layout.">
<polygon fill="white" stroke="black" points="1848,-0.5 1848,-19.5 2000,-19.5 2000,-0.5 1848,-0.5"/>
<text text-anchor="middle" x="1924" y="-7.5" font-family="Helvetica,sans-Serif" font-size="10.00">SpeciesReferenceGlyph.cpp</text>
</a>
</g>
</g>
<!-- Node1&#45;&gt;Node17 -->
<g id="edge16" class="edge">
<title>Node1&#45;&gt;Node17</title>
<path fill="none" stroke="midnightblue" d="M1167.09,-62.04C1294.98,-55.92 1590.89,-40.71 1839,-20 1841.81,-19.77 1844.67,-19.52 1847.56,-19.26"/>
<polygon fill="midnightblue" stroke="midnightblue" points="1166.9,-58.55 1157.08,-62.52 1167.23,-65.54 1166.9,-58.55"/>
</g>
<!-- Node18 -->
<g id="node18" class="node">
<title>Node18</title>
<g id="a_node18"><a xlink:href="_text_glyph_8cpp.html" target="_top" xlink:title="Implementation of TextGlyph for SBML Layout.">
<polygon fill="white" stroke="black" points="2018,-0.5 2018,-19.5 2104,-19.5 2104,-0.5 2018,-0.5"/>
<text text-anchor="middle" x="2061" y="-7.5" font-family="Helvetica,sans-Serif" font-size="10.00">TextGlyph.cpp</text>
</a>
</g>
</g>
<!-- Node1&#45;&gt;Node18 -->
<g id="edge17" class="edge">
<title>Node1&#45;&gt;Node18</title>
<path fill="none" stroke="midnightblue" d="M1167.35,-64.49C1316.02,-62.73 1694.69,-54.87 2009,-20 2011.91,-19.68 2014.91,-19.29 2017.93,-18.87"/>
<polygon fill="midnightblue" stroke="midnightblue" points="1167.01,-60.99 1157.05,-64.61 1167.09,-67.99 1167.01,-60.99"/>
</g>
</g>
</svg>
