<?xml version="1.0" encoding="UTF-8" standalone="no"?>
<!DOCTYPE svg PUBLIC "-//W3C//DTD SVG 1.1//EN"
 "http://www.w3.org/Graphics/SVG/1.1/DTD/svg11.dtd">
<!-- Generated by graphviz version 2.43.0 (0)
 -->
<!-- Title: LayoutSBMLDocumentPlugin.h Pages: 1 -->
<svg width="755pt" height="140pt"
 viewBox="0.00 0.00 755.00 140.00" xmlns="http://www.w3.org/2000/svg" xmlns:xlink="http://www.w3.org/1999/xlink">
<g id="graph0" class="graph" transform="scale(1 1) rotate(0) translate(4 136)">
<title>LayoutSBMLDocumentPlugin.h</title>
<polygon fill="white" stroke="transparent" points="-4,4 -4,-136 751,-136 751,4 -4,4"/>
<!-- Node1 -->
<g id="node1" class="node">
<title>Node1</title>
<g id="a_node1"><a xlink:title="Implementation of the LayoutSBMLDocumentPlugin class.">
<polygon fill="#bfbfbf" stroke="black" points="409.5,-112.5 409.5,-131.5 575.5,-131.5 575.5,-112.5 409.5,-112.5"/>
<text text-anchor="middle" x="492.5" y="-119.5" font-family="Helvetica,sans-Serif" font-size="10.00">LayoutSBMLDocumentPlugin.h</text>
</a>
</g>
</g>
<!-- Node2 -->
<g id="node2" class="node">
<title>Node2</title>
<g id="a_node2"><a xlink:href="_layout_extension_types_8h.html" target="_top" xlink:title="Include all SBML types of layout extension in a single header file.">
<polygon fill="white" stroke="black" points="281.5,-56.5 281.5,-75.5 415.5,-75.5 415.5,-56.5 281.5,-56.5"/>
<text text-anchor="middle" x="348.5" y="-63.5" font-family="Helvetica,sans-Serif" font-size="10.00">LayoutExtensionTypes.h</text>
</a>
</g>
</g>
<!-- Node1&#45;&gt;Node2 -->
<g id="edge1" class="edge">
<title>Node1&#45;&gt;Node2</title>
<path fill="none" stroke="midnightblue" d="M460.25,-108.91C433.18,-98.75 395.18,-84.51 371.21,-75.52"/>
<polygon fill="midnightblue" stroke="midnightblue" points="459.09,-112.21 469.68,-112.44 461.55,-105.66 459.09,-112.21"/>
</g>
<!-- Node8 -->
<g id="node8" class="node">
<title>Node8</title>
<g id="a_node8"><a xlink:href="_layout_extension_8cpp.html" target="_top" xlink:title="Implementation of LayoutExtension, the core module of layout package.">
<polygon fill="white" stroke="black" points="433.5,-56.5 433.5,-75.5 551.5,-75.5 551.5,-56.5 433.5,-56.5"/>
<text text-anchor="middle" x="492.5" y="-63.5" font-family="Helvetica,sans-Serif" font-size="10.00">LayoutExtension.cpp</text>
</a>
</g>
</g>
<!-- Node1&#45;&gt;Node8 -->
<g id="edge7" class="edge">
<title>Node1&#45;&gt;Node8</title>
<path fill="none" stroke="midnightblue" d="M492.5,-101.8C492.5,-92.91 492.5,-82.78 492.5,-75.75"/>
<polygon fill="midnightblue" stroke="midnightblue" points="489,-102.08 492.5,-112.08 496,-102.08 489,-102.08"/>
</g>
<!-- Node9 -->
<g id="node9" class="node">
<title>Node9</title>
<g id="a_node9"><a xlink:href="_layout_s_b_m_l_document_plugin_8cpp.html" target="_top" xlink:title="Implementation of the LayoutSBMLDocumentPlugin class.">
<polygon fill="white" stroke="black" points="570,-56.5 570,-75.5 747,-75.5 747,-56.5 570,-56.5"/>
<text text-anchor="middle" x="658.5" y="-63.5" font-family="Helvetica,sans-Serif" font-size="10.00">LayoutSBMLDocumentPlugin.cpp</text>
</a>
</g>
</g>
<!-- Node1&#45;&gt;Node9 -->
<g id="edge8" class="edge">
<title>Node1&#45;&gt;Node9</title>
<path fill="none" stroke="midnightblue" d="M528.45,-109.3C559.73,-99.13 604.32,-84.62 632.32,-75.52"/>
<polygon fill="midnightblue" stroke="midnightblue" points="527.23,-106.02 518.8,-112.44 529.4,-112.68 527.23,-106.02"/>
</g>
<!-- Node3 -->
<g id="node3" class="node">
<title>Node3</title>
<g id="a_node3"><a xlink:href="_graphical_object_8cpp.html" target="_top" xlink:title="Implementation of GraphicalObject for SBML Layout.">
<polygon fill="white" stroke="black" points="0,-0.5 0,-19.5 115,-19.5 115,-0.5 0,-0.5"/>
<text text-anchor="middle" x="57.5" y="-7.5" font-family="Helvetica,sans-Serif" font-size="10.00">GraphicalObject.cpp</text>
</a>
</g>
</g>
<!-- Node2&#45;&gt;Node3 -->
<g id="edge2" class="edge">
<title>Node2&#45;&gt;Node3</title>
<path fill="none" stroke="midnightblue" d="M292.46,-54.6C237.46,-44.4 154.6,-29.02 103.39,-19.52"/>
<polygon fill="midnightblue" stroke="midnightblue" points="291.92,-58.06 302.39,-56.44 293.2,-51.18 291.92,-58.06"/>
</g>
<!-- Node4 -->
<g id="node4" class="node">
<title>Node4</title>
<g id="a_node4"><a xlink:href="_layout_validator_8cpp.html" target="_top" xlink:title="Implementation of the LayoutValidator class.">
<polygon fill="white" stroke="black" points="133,-0.5 133,-19.5 246,-19.5 246,-0.5 133,-0.5"/>
<text text-anchor="middle" x="189.5" y="-7.5" font-family="Helvetica,sans-Serif" font-size="10.00">LayoutValidator.cpp</text>
</a>
</g>
</g>
<!-- Node2&#45;&gt;Node4 -->
<g id="edge3" class="edge">
<title>Node2&#45;&gt;Node4</title>
<path fill="none" stroke="midnightblue" d="M313.67,-53.17C283.73,-43 241.28,-28.59 214.58,-19.52"/>
<polygon fill="midnightblue" stroke="midnightblue" points="312.71,-56.54 323.31,-56.44 314.96,-49.91 312.71,-56.54"/>
</g>
<!-- Node5 -->
<g id="node5" class="node">
<title>Node5</title>
<g id="a_node5"><a xlink:href="_render_list_of_layouts_plugin_8cpp.html" target="_top" xlink:title="Implementation of RenderListOfLayoutsPlugin, the plugin class of the fbc package for the Model elemen...">
<polygon fill="white" stroke="black" points="264.5,-0.5 264.5,-19.5 432.5,-19.5 432.5,-0.5 264.5,-0.5"/>
<text text-anchor="middle" x="348.5" y="-7.5" font-family="Helvetica,sans-Serif" font-size="10.00">RenderListOfLayoutsPlugin.cpp</text>
</a>
</g>
</g>
<!-- Node2&#45;&gt;Node5 -->
<g id="edge4" class="edge">
<title>Node2&#45;&gt;Node5</title>
<path fill="none" stroke="midnightblue" d="M348.5,-45.8C348.5,-36.91 348.5,-26.78 348.5,-19.75"/>
<polygon fill="midnightblue" stroke="midnightblue" points="345,-46.08 348.5,-56.08 352,-46.08 345,-46.08"/>
</g>
<!-- Node6 -->
<g id="node6" class="node">
<title>Node6</title>
<g id="a_node6"><a xlink:href="_render_layout_converter_8cpp.html" target="_top" xlink:title="Simple converter to convert Layout + Render from l2 to L3 and vice versa.">
<polygon fill="white" stroke="black" points="450.5,-0.5 450.5,-19.5 602.5,-19.5 602.5,-0.5 450.5,-0.5"/>
<text text-anchor="middle" x="526.5" y="-7.5" font-family="Helvetica,sans-Serif" font-size="10.00">RenderLayoutConverter.cpp</text>
</a>
</g>
</g>
<!-- Node2&#45;&gt;Node6 -->
<g id="edge5" class="edge">
<title>Node2&#45;&gt;Node6</title>
<path fill="none" stroke="midnightblue" d="M386.62,-53.44C420.18,-43.26 468.27,-28.66 498.43,-19.52"/>
<polygon fill="midnightblue" stroke="midnightblue" points="385.26,-50.19 376.7,-56.44 387.29,-56.89 385.26,-50.19"/>
</g>
<!-- Node7 -->
<g id="node7" class="node">
<title>Node7</title>
<g id="a_node7"><a xlink:href="_render_utilities_8cpp.html" target="_top" xlink:title="implementation of RenderUtilities, a class of utility functions for the render package">
<polygon fill="white" stroke="black" points="620.5,-0.5 620.5,-19.5 730.5,-19.5 730.5,-0.5 620.5,-0.5"/>
<text text-anchor="middle" x="675.5" y="-7.5" font-family="Helvetica,sans-Serif" font-size="10.00">RenderUtilities.cpp</text>
</a>
</g>
</g>
<!-- Node2&#45;&gt;Node7 -->
<g id="edge6" class="edge">
<title>Node2&#45;&gt;Node7</title>
<path fill="none" stroke="midnightblue" d="M410.32,-54.79C472.11,-44.59 566.03,-29.08 623.93,-19.52"/>
<polygon fill="midnightblue" stroke="midnightblue" points="409.61,-51.36 400.31,-56.44 410.75,-58.27 409.61,-51.36"/>
</g>
</g>
</svg>
