<?xml version="1.0" encoding="UTF-8" standalone="no"?>
<!DOCTYPE svg PUBLIC "-//W3C//DTD SVG 1.1//EN"
 "http://www.w3.org/Graphics/SVG/1.1/DTD/svg11.dtd">
<!-- Generated by graphviz version 2.43.0 (0)
 -->
<!-- Title: LibXMLNamespaces.cpp Pages: 1 -->
<svg width="725pt" height="453pt"
 viewBox="0.00 0.00 725.00 453.00" xmlns="http://www.w3.org/2000/svg" xmlns:xlink="http://www.w3.org/1999/xlink">
<g id="graph0" class="graph" transform="scale(1 1) rotate(0) translate(4 449)">
<title>LibXMLNamespaces.cpp</title>
<polygon fill="white" stroke="transparent" points="-4,4 -4,-449 721,-449 721,4 -4,4"/>
<!-- Node1 -->
<g id="node1" class="node">
<title>Node1</title>
<g id="a_node1"><a xlink:title="Extracts XML namespace declarations from LibXML prefix/URI pairs.">
<polygon fill="#bfbfbf" stroke="black" points="103.5,-425.5 103.5,-444.5 238.5,-444.5 238.5,-425.5 103.5,-425.5"/>
<text text-anchor="middle" x="171" y="-432.5" font-family="Helvetica,sans-Serif" font-size="10.00">LibXMLNamespaces.cpp</text>
</a>
</g>
</g>
<!-- Node2 -->
<g id="node2" class="node">
<title>Node2</title>
<g id="a_node2"><a xlink:href="_lib_x_m_l_transcode_8h.html" target="_top" xlink:title=" ">
<polygon fill="white" stroke="black" points="0,-369.5 0,-388.5 158,-388.5 158,-369.5 0,-369.5"/>
<text text-anchor="middle" x="79" y="-376.5" font-family="Helvetica,sans-Serif" font-size="10.00">sbml/xml/LibXMLTranscode.h</text>
</a>
</g>
</g>
<!-- Node1&#45;&gt;Node2 -->
<g id="edge1" class="edge">
<title>Node1&#45;&gt;Node2</title>
<path fill="none" stroke="midnightblue" d="M156.22,-425.32C141.73,-416.82 119.43,-403.73 102.51,-393.8"/>
<polygon fill="midnightblue" stroke="midnightblue" points="104.14,-390.7 93.74,-388.65 100.6,-396.74 104.14,-390.7"/>
</g>
<!-- Node3 -->
<g id="node3" class="node">
<title>Node3</title>
<g id="a_node3"><a xlink:href="_lib_x_m_l_namespaces_8h.html" target="_top" xlink:title="Extracts XML namespace declarations from LibXML prefix/URI pairs.">
<polygon fill="white" stroke="black" points="176.5,-369.5 176.5,-388.5 349.5,-388.5 349.5,-369.5 176.5,-369.5"/>
<text text-anchor="middle" x="263" y="-376.5" font-family="Helvetica,sans-Serif" font-size="10.00">sbml/xml/LibXMLNamespaces.h</text>
</a>
</g>
</g>
<!-- Node1&#45;&gt;Node3 -->
<g id="edge2" class="edge">
<title>Node1&#45;&gt;Node3</title>
<path fill="none" stroke="midnightblue" d="M185.78,-425.32C200.27,-416.82 222.57,-403.73 239.49,-393.8"/>
<polygon fill="midnightblue" stroke="midnightblue" points="241.4,-396.74 248.26,-388.65 237.86,-390.7 241.4,-396.74"/>
</g>
<!-- Node4 -->
<g id="node4" class="node">
<title>Node4</title>
<g id="a_node4"><a xlink:title=" ">
<polygon fill="white" stroke="#bfbfbf" points="201,-257.5 201,-276.5 245,-276.5 245,-257.5 201,-257.5"/>
<text text-anchor="middle" x="223" y="-264.5" font-family="Helvetica,sans-Serif" font-size="10.00">string</text>
</a>
</g>
</g>
<!-- Node3&#45;&gt;Node4 -->
<g id="edge3" class="edge">
<title>Node3&#45;&gt;Node4</title>
<path fill="none" stroke="midnightblue" d="M246.37,-369.46C233.51,-361.84 216.66,-349.36 209,-333 201.98,-318.01 207.22,-299.41 213.19,-285.95"/>
<polygon fill="midnightblue" stroke="midnightblue" points="216.41,-287.33 217.7,-276.81 210.14,-284.23 216.41,-287.33"/>
</g>
<!-- Node5 -->
<g id="node5" class="node">
<title>Node5</title>
<g id="a_node5"><a xlink:title=" ">
<polygon fill="white" stroke="#bfbfbf" points="218.5,-313.5 218.5,-332.5 307.5,-332.5 307.5,-313.5 218.5,-313.5"/>
<text text-anchor="middle" x="263" y="-320.5" font-family="Helvetica,sans-Serif" font-size="10.00">libxml/parser.h</text>
</a>
</g>
</g>
<!-- Node3&#45;&gt;Node5 -->
<g id="edge4" class="edge">
<title>Node3&#45;&gt;Node5</title>
<path fill="none" stroke="midnightblue" d="M263,-369.08C263,-362.01 263,-351.86 263,-342.99"/>
<polygon fill="midnightblue" stroke="midnightblue" points="266.5,-342.75 263,-332.75 259.5,-342.75 266.5,-342.75"/>
</g>
<!-- Node6 -->
<g id="node6" class="node">
<title>Node6</title>
<g id="a_node6"><a xlink:href="_x_m_l_namespaces_8h.html" target="_top" xlink:title="A list of XMLNamespace declarations (URI/prefix pairs)">
<polygon fill="white" stroke="black" points="325,-313.5 325,-332.5 483,-332.5 483,-313.5 325,-313.5"/>
<text text-anchor="middle" x="404" y="-320.5" font-family="Helvetica,sans-Serif" font-size="10.00">sbml/xml/XMLNamespaces.h</text>
</a>
</g>
</g>
<!-- Node3&#45;&gt;Node6 -->
<g id="edge5" class="edge">
<title>Node3&#45;&gt;Node6</title>
<path fill="none" stroke="midnightblue" d="M285.34,-369.44C308.75,-360.48 345.74,-346.31 372.19,-336.18"/>
<polygon fill="midnightblue" stroke="midnightblue" points="373.68,-339.36 381.76,-332.52 371.17,-332.82 373.68,-339.36"/>
</g>
<!-- Node6&#45;&gt;Node4 -->
<g id="edge18" class="edge">
<title>Node6&#45;&gt;Node4</title>
<path fill="none" stroke="midnightblue" d="M375.32,-313.44C342.62,-303.69 289.29,-287.78 255.19,-277.6"/>
<polygon fill="midnightblue" stroke="midnightblue" points="255.85,-274.15 245.27,-274.64 253.85,-280.86 255.85,-274.15"/>
</g>
<!-- Node7 -->
<g id="node7" class="node">
<title>Node7</title>
<g id="a_node7"><a xlink:href="_x_m_l_extern_8h.html" target="_top" xlink:title="Defines LIBLAX_EXTERN.">
<polygon fill="white" stroke="black" points="168.5,-196 168.5,-215 295.5,-215 295.5,-196 168.5,-196"/>
<text text-anchor="middle" x="232" y="-203" font-family="Helvetica,sans-Serif" font-size="10.00">sbml/xml/XMLExtern.h</text>
</a>
</g>
</g>
<!-- Node6&#45;&gt;Node7 -->
<g id="edge6" class="edge">
<title>Node6&#45;&gt;Node7</title>
<path fill="none" stroke="midnightblue" d="M384.07,-313.38C365.75,-305.09 338.17,-291.7 316,-277 290.87,-260.34 264.68,-237.3 248.36,-222.16"/>
<polygon fill="midnightblue" stroke="midnightblue" points="250.47,-219.34 240.79,-215.04 245.67,-224.44 250.47,-219.34"/>
</g>
<!-- Node9 -->
<g id="node9" class="node">
<title>Node9</title>
<g id="a_node9"><a xlink:href="sbmlfwd_8h.html" target="_top" xlink:title="Forward declarations for all opaque C types.">
<polygon fill="white" stroke="black" points="325,-257.5 325,-276.5 465,-276.5 465,-257.5 325,-257.5"/>
<text text-anchor="middle" x="395" y="-264.5" font-family="Helvetica,sans-Serif" font-size="10.00">sbml/common/sbmlfwd.h</text>
</a>
</g>
</g>
<!-- Node6&#45;&gt;Node9 -->
<g id="edge8" class="edge">
<title>Node6&#45;&gt;Node9</title>
<path fill="none" stroke="midnightblue" d="M402.51,-313.08C401.32,-305.93 399.61,-295.64 398.12,-286.69"/>
<polygon fill="midnightblue" stroke="midnightblue" points="401.55,-286.04 396.46,-276.75 394.65,-287.19 401.55,-286.04"/>
</g>
<!-- Node14 -->
<g id="node14" class="node">
<title>Node14</title>
<g id="a_node14"><a xlink:href="operation_return_values_8h.html" target="_top" xlink:title="Enumeration of values returned by operations within libSBML.">
<polygon fill="white" stroke="black" points="549,-190.5 549,-220.5 717,-220.5 717,-190.5 549,-190.5"/>
<text text-anchor="start" x="557" y="-208.5" font-family="Helvetica,sans-Serif" font-size="10.00">sbml/common/operationReturn</text>
<text text-anchor="middle" x="633" y="-197.5" font-family="Helvetica,sans-Serif" font-size="10.00">Values.h</text>
</a>
</g>
</g>
<!-- Node6&#45;&gt;Node14 -->
<g id="edge16" class="edge">
<title>Node6&#45;&gt;Node14</title>
<path fill="none" stroke="midnightblue" d="M416.95,-313.36C436.87,-300.25 476.46,-274.99 512,-257 535.81,-244.95 563.2,-233.34 585.88,-224.3"/>
<polygon fill="midnightblue" stroke="midnightblue" points="587.27,-227.51 595.29,-220.59 584.71,-221 587.27,-227.51"/>
</g>
<!-- Node15 -->
<g id="node15" class="node">
<title>Node15</title>
<g id="a_node15"><a xlink:title=" ">
<polygon fill="white" stroke="#bfbfbf" points="521.5,-257.5 521.5,-276.5 568.5,-276.5 568.5,-257.5 521.5,-257.5"/>
<text text-anchor="middle" x="545" y="-264.5" font-family="Helvetica,sans-Serif" font-size="10.00">vector</text>
</a>
</g>
</g>
<!-- Node6&#45;&gt;Node15 -->
<g id="edge19" class="edge">
<title>Node6&#45;&gt;Node15</title>
<path fill="none" stroke="midnightblue" d="M426.34,-313.44C449.75,-304.48 486.74,-290.31 513.19,-280.18"/>
<polygon fill="midnightblue" stroke="midnightblue" points="514.68,-283.36 522.76,-276.52 512.17,-276.82 514.68,-283.36"/>
</g>
<!-- Node8 -->
<g id="node8" class="node">
<title>Node8</title>
<g id="a_node8"><a xlink:title=" ">
<polygon fill="white" stroke="#bfbfbf" points="280.5,-0.5 280.5,-30.5 405.5,-30.5 405.5,-0.5 280.5,-0.5"/>
<text text-anchor="start" x="288.5" y="-18.5" font-family="Helvetica,sans-Serif" font-size="10.00">sbml/common/libsbml</text>
<text text-anchor="middle" x="343" y="-7.5" font-family="Helvetica,sans-Serif" font-size="10.00">&#45;namespace.h</text>
</a>
</g>
</g>
<!-- Node7&#45;&gt;Node8 -->
<g id="edge7" class="edge">
<title>Node7&#45;&gt;Node8</title>
<path fill="none" stroke="midnightblue" d="M236.74,-195.7C248.63,-173.74 280.86,-114.81 310,-67 315.58,-57.84 321.98,-47.93 327.65,-39.33"/>
<polygon fill="midnightblue" stroke="midnightblue" points="330.61,-41.2 333.22,-30.93 324.78,-37.33 330.61,-41.2"/>
</g>
<!-- Node9&#45;&gt;Node8 -->
<g id="edge9" class="edge">
<title>Node9&#45;&gt;Node8</title>
<path fill="none" stroke="midnightblue" d="M386.34,-257.21C378.55,-248.71 367.49,-235.08 362,-221 338.06,-159.65 338.77,-80.37 341.03,-40.98"/>
<polygon fill="midnightblue" stroke="midnightblue" points="344.54,-40.96 341.7,-30.75 337.55,-40.5 344.54,-40.96"/>
</g>
<!-- Node10 -->
<g id="node10" class="node">
<title>Node10</title>
<g id="a_node10"><a xlink:href="libsbml-config_8h.html" target="_top" xlink:title="Decides whether to #include Unix or Windows configuration variables.">
<polygon fill="white" stroke="black" points="371.5,-190.5 371.5,-220.5 496.5,-220.5 496.5,-190.5 371.5,-190.5"/>
<text text-anchor="start" x="379.5" y="-208.5" font-family="Helvetica,sans-Serif" font-size="10.00">sbml/common/libsbml</text>
<text text-anchor="middle" x="434" y="-197.5" font-family="Helvetica,sans-Serif" font-size="10.00">&#45;config.h</text>
</a>
</g>
</g>
<!-- Node9&#45;&gt;Node10 -->
<g id="edge10" class="edge">
<title>Node9&#45;&gt;Node10</title>
<path fill="none" stroke="midnightblue" d="M400.59,-257.48C405.43,-250.09 412.65,-239.08 419.14,-229.17"/>
<polygon fill="midnightblue" stroke="midnightblue" points="422.25,-230.81 424.81,-220.52 416.4,-226.97 422.25,-230.81"/>
</g>
<!-- Node10&#45;&gt;Node8 -->
<g id="edge11" class="edge">
<title>Node10&#45;&gt;Node8</title>
<path fill="none" stroke="midnightblue" d="M414.55,-190.35C403.23,-181.17 389.55,-168.28 381,-154 359.45,-118.01 349.78,-69.46 345.71,-40.72"/>
<polygon fill="midnightblue" stroke="midnightblue" points="349.17,-40.21 344.4,-30.74 342.23,-41.11 349.17,-40.21"/>
</g>
<!-- Node11 -->
<g id="node11" class="node">
<title>Node11</title>
<g id="a_node11"><a xlink:title=" ">
<polygon fill="white" stroke="#bfbfbf" points="390.5,-123.5 390.5,-153.5 515.5,-153.5 515.5,-123.5 390.5,-123.5"/>
<text text-anchor="start" x="398.5" y="-141.5" font-family="Helvetica,sans-Serif" font-size="10.00">sbml/common/libsbml</text>
<text text-anchor="middle" x="453" y="-130.5" font-family="Helvetica,sans-Serif" font-size="10.00">&#45;config&#45;common.h</text>
</a>
</g>
</g>
<!-- Node10&#45;&gt;Node11 -->
<g id="edge12" class="edge">
<title>Node10&#45;&gt;Node11</title>
<path fill="none" stroke="midnightblue" d="M438.12,-190.4C440.44,-182.47 443.39,-172.38 446.05,-163.27"/>
<polygon fill="midnightblue" stroke="midnightblue" points="449.44,-164.16 448.89,-153.58 442.72,-162.19 449.44,-164.16"/>
</g>
<!-- Node12 -->
<g id="node12" class="node">
<title>Node12</title>
<g id="a_node12"><a xlink:href="libsbml-version_8h.html" target="_top" xlink:title="Define libSBML version numbers for access from client software.">
<polygon fill="white" stroke="black" points="533.5,-123.5 533.5,-153.5 658.5,-153.5 658.5,-123.5 533.5,-123.5"/>
<text text-anchor="start" x="541.5" y="-141.5" font-family="Helvetica,sans-Serif" font-size="10.00">sbml/common/libsbml</text>
<text text-anchor="middle" x="596" y="-130.5" font-family="Helvetica,sans-Serif" font-size="10.00">&#45;version.h</text>
</a>
</g>
</g>
<!-- Node10&#45;&gt;Node12 -->
<g id="edge13" class="edge">
<title>Node10&#45;&gt;Node12</title>
<path fill="none" stroke="midnightblue" d="M469.15,-190.4C493.25,-180.73 525.41,-167.82 551.32,-157.43"/>
<polygon fill="midnightblue" stroke="midnightblue" points="552.94,-160.55 560.92,-153.58 550.33,-154.05 552.94,-160.55"/>
</g>
<!-- Node13 -->
<g id="node13" class="node">
<title>Node13</title>
<g id="a_node13"><a xlink:href="extern_8h.html" target="_top" xlink:title="Definitions of LIBSBML_EXTERN and related things.">
<polygon fill="white" stroke="black" points="531,-67.5 531,-86.5 661,-86.5 661,-67.5 531,-67.5"/>
<text text-anchor="middle" x="596" y="-74.5" font-family="Helvetica,sans-Serif" font-size="10.00">sbml/common/extern.h</text>
</a>
</g>
</g>
<!-- Node12&#45;&gt;Node13 -->
<g id="edge14" class="edge">
<title>Node12&#45;&gt;Node13</title>
<path fill="none" stroke="midnightblue" d="M596,-123.4C596,-115.47 596,-105.46 596,-96.86"/>
<polygon fill="midnightblue" stroke="midnightblue" points="599.5,-96.66 596,-86.66 592.5,-96.66 599.5,-96.66"/>
</g>
<!-- Node13&#45;&gt;Node8 -->
<g id="edge15" class="edge">
<title>Node13&#45;&gt;Node8</title>
<path fill="none" stroke="midnightblue" d="M559.75,-67.48C521.48,-58.48 460.22,-44.07 412.57,-32.86"/>
<polygon fill="midnightblue" stroke="midnightblue" points="413.16,-29.41 402.63,-30.52 411.56,-36.22 413.16,-29.41"/>
</g>
<!-- Node14&#45;&gt;Node13 -->
<g id="edge17" class="edge">
<title>Node14&#45;&gt;Node13</title>
<path fill="none" stroke="midnightblue" d="M646.69,-190.23C660.89,-173.61 679.41,-145.57 667,-123 659.11,-108.66 644.51,-98.25 630.6,-91.08"/>
<polygon fill="midnightblue" stroke="midnightblue" points="631.7,-87.73 621.16,-86.62 628.71,-94.06 631.7,-87.73"/>
</g>
</g>
</svg>
