<?xml version="1.0" encoding="UTF-8" standalone="no"?>
<!DOCTYPE svg PUBLIC "-//W3C//DTD SVG 1.1//EN"
 "http://www.w3.org/Graphics/SVG/1.1/DTD/svg11.dtd">
<!-- Generated by graphviz version 2.43.0 (0)
 -->
<!-- Title: LineEnding.h Pages: 1 -->
<svg width="2222pt" height="476pt"
 viewBox="0.00 0.00 2222.00 476.00" xmlns="http://www.w3.org/2000/svg" xmlns:xlink="http://www.w3.org/1999/xlink">
<g id="graph0" class="graph" transform="scale(1 1) rotate(0) translate(4 472)">
<title>LineEnding.h</title>
<polygon fill="white" stroke="transparent" points="-4,4 -4,-472 2218,-472 2218,4 -4,4"/>
<!-- Node1 -->
<g id="node1" class="node">
<title>Node1</title>
<g id="a_node1"><a xlink:title="class representing line endings, e.g.">
<polygon fill="#bfbfbf" stroke="black" points="1628.5,-448.5 1628.5,-467.5 1707.5,-467.5 1707.5,-448.5 1628.5,-448.5"/>
<text text-anchor="middle" x="1668" y="-455.5" font-family="Helvetica,sans-Serif" font-size="10.00">LineEnding.h</text>
</a>
</g>
</g>
<!-- Node2 -->
<g id="node2" class="node">
<title>Node2</title>
<g id="a_node2"><a xlink:href="_render_extension_types_8h.html" target="_top" xlink:title="Definition of RenderExtensionTypes.">
<polygon fill="white" stroke="black" points="798,-112.5 798,-131.5 934,-131.5 934,-112.5 798,-112.5"/>
<text text-anchor="middle" x="866" y="-119.5" font-family="Helvetica,sans-Serif" font-size="10.00">RenderExtensionTypes.h</text>
</a>
</g>
</g>
<!-- Node1&#45;&gt;Node2 -->
<g id="edge1" class="edge">
<title>Node1&#45;&gt;Node2</title>
<path fill="none" stroke="midnightblue" d="M1717.76,-457.46C1852.44,-457.36 2214,-447.72 2214,-347 2214,-347 2214,-347 2214,-233 2214,-168.1 1208.26,-133.25 934.24,-124.95"/>
<polygon fill="midnightblue" stroke="midnightblue" points="1717.71,-453.96 1707.71,-457.45 1717.7,-460.96 1717.71,-453.96"/>
</g>
<!-- Node9 -->
<g id="node9" class="node">
<title>Node9</title>
<g id="a_node9"><a xlink:href="_graphical_primitive1_d_8cpp.html" target="_top" xlink:title="abstract base class for graphical 1D objects">
<polygon fill="white" stroke="black" points="1072.5,-336.5 1072.5,-355.5 1213.5,-355.5 1213.5,-336.5 1072.5,-336.5"/>
<text text-anchor="middle" x="1143" y="-343.5" font-family="Helvetica,sans-Serif" font-size="10.00">GraphicalPrimitive1D.cpp</text>
</a>
</g>
</g>
<!-- Node1&#45;&gt;Node9 -->
<g id="edge10" class="edge">
<title>Node1&#45;&gt;Node9</title>
<path fill="none" stroke="midnightblue" d="M1618.38,-447.96C1570.76,-439.18 1496.85,-425.26 1433,-412 1341.56,-393 1234.45,-368.38 1179.54,-355.58"/>
<polygon fill="midnightblue" stroke="midnightblue" points="1617.96,-451.45 1628.42,-449.81 1619.22,-444.56 1617.96,-451.45"/>
</g>
<!-- Node10 -->
<g id="node10" class="node">
<title>Node10</title>
<g id="a_node10"><a xlink:href="_graphical_primitive2_d_8cpp.html" target="_top" xlink:title="Implementation of the GraphicalPrimitive2D class.">
<polygon fill="white" stroke="black" points="1231.5,-336.5 1231.5,-355.5 1372.5,-355.5 1372.5,-336.5 1231.5,-336.5"/>
<text text-anchor="middle" x="1302" y="-343.5" font-family="Helvetica,sans-Serif" font-size="10.00">GraphicalPrimitive2D.cpp</text>
</a>
</g>
</g>
<!-- Node1&#45;&gt;Node10 -->
<g id="edge11" class="edge">
<title>Node1&#45;&gt;Node10</title>
<path fill="none" stroke="midnightblue" d="M1622.69,-446.03C1587.87,-437.39 1538.67,-424.72 1496,-412 1434.04,-393.54 1362.13,-368.47 1325.73,-355.53"/>
<polygon fill="midnightblue" stroke="midnightblue" points="1622.01,-449.47 1632.56,-448.47 1623.69,-442.67 1622.01,-449.47"/>
</g>
<!-- Node11 -->
<g id="node11" class="node">
<title>Node11</title>
<g id="a_node11"><a xlink:href="_line_ending_8cpp.html" target="_top" xlink:title="class representing line endings,e.g.">
<polygon fill="white" stroke="black" points="1391,-336.5 1391,-355.5 1481,-355.5 1481,-336.5 1391,-336.5"/>
<text text-anchor="middle" x="1436" y="-343.5" font-family="Helvetica,sans-Serif" font-size="10.00">LineEnding.cpp</text>
</a>
</g>
</g>
<!-- Node1&#45;&gt;Node11 -->
<g id="edge12" class="edge">
<title>Node1&#45;&gt;Node11</title>
<path fill="none" stroke="midnightblue" d="M1624.34,-445.68C1597.32,-437.9 1562.3,-426.38 1533,-412 1499.51,-395.57 1464.05,-369.18 1446.76,-355.63"/>
<polygon fill="midnightblue" stroke="midnightblue" points="1623.71,-449.14 1634.28,-448.48 1625.61,-442.4 1623.71,-449.14"/>
</g>
<!-- Node12 -->
<g id="node12" class="node">
<title>Node12</title>
<g id="a_node12"><a xlink:href="_list_of_drawables_8cpp.html" target="_top" xlink:title="Implementation of the ListOfDrawables class.">
<polygon fill="white" stroke="black" points="1679.5,-336.5 1679.5,-355.5 1796.5,-355.5 1796.5,-336.5 1679.5,-336.5"/>
<text text-anchor="middle" x="1738" y="-343.5" font-family="Helvetica,sans-Serif" font-size="10.00">ListOfDrawables.cpp</text>
</a>
</g>
</g>
<!-- Node1&#45;&gt;Node12 -->
<g id="edge13" class="edge">
<title>Node1&#45;&gt;Node12</title>
<path fill="none" stroke="midnightblue" d="M1679.05,-439.64C1694.25,-415.74 1721.05,-373.63 1732.53,-355.59"/>
<polygon fill="midnightblue" stroke="midnightblue" points="1675.91,-438.05 1673.49,-448.37 1681.81,-441.81 1675.91,-438.05"/>
</g>
<!-- Node13 -->
<g id="node13" class="node">
<title>Node13</title>
<g id="a_node13"><a xlink:href="_list_of_line_endings_8h.html" target="_top" xlink:title="Definition of the ListOfLineEndings class.">
<polygon fill="white" stroke="black" points="1542.5,-392.5 1542.5,-411.5 1655.5,-411.5 1655.5,-392.5 1542.5,-392.5"/>
<text text-anchor="middle" x="1599" y="-399.5" font-family="Helvetica,sans-Serif" font-size="10.00">ListOfLineEndings.h</text>
</a>
</g>
</g>
<!-- Node1&#45;&gt;Node13 -->
<g id="edge14" class="edge">
<title>Node1&#45;&gt;Node13</title>
<path fill="none" stroke="midnightblue" d="M1648.96,-442.1C1636.54,-432.38 1620.76,-420.03 1610.29,-411.83"/>
<polygon fill="midnightblue" stroke="midnightblue" points="1646.88,-444.92 1656.91,-448.32 1651.2,-439.4 1646.88,-444.92"/>
</g>
<!-- Node15 -->
<g id="node15" class="node">
<title>Node15</title>
<g id="a_node15"><a xlink:href="_render_group_8cpp.html" target="_top" xlink:title="Implementation of the RenderGroup class.">
<polygon fill="white" stroke="black" points="1814.5,-336.5 1814.5,-355.5 1915.5,-355.5 1915.5,-336.5 1814.5,-336.5"/>
<text text-anchor="middle" x="1865" y="-343.5" font-family="Helvetica,sans-Serif" font-size="10.00">RenderGroup.cpp</text>
</a>
</g>
</g>
<!-- Node1&#45;&gt;Node15 -->
<g id="edge60" class="edge">
<title>Node1&#45;&gt;Node15</title>
<path fill="none" stroke="midnightblue" d="M1692.27,-443.45C1733.37,-420.5 1815.52,-374.63 1849.61,-355.59"/>
<polygon fill="midnightblue" stroke="midnightblue" points="1690.48,-440.44 1683.46,-448.37 1693.9,-446.55 1690.48,-440.44"/>
</g>
<!-- Node16 -->
<g id="node16" class="node">
<title>Node16</title>
<g id="a_node16"><a xlink:href="_render_information_base_8h.html" target="_top" xlink:title="Definition of the RenderInformationBase class.">
<polygon fill="white" stroke="black" points="913.5,-336.5 913.5,-355.5 1054.5,-355.5 1054.5,-336.5 913.5,-336.5"/>
<text text-anchor="middle" x="984" y="-343.5" font-family="Helvetica,sans-Serif" font-size="10.00">RenderInformationBase.h</text>
</a>
</g>
</g>
<!-- Node1&#45;&gt;Node16 -->
<g id="edge61" class="edge">
<title>Node1&#45;&gt;Node16</title>
<path fill="none" stroke="midnightblue" d="M1618.06,-450.78C1554,-442.64 1439.53,-427.58 1342,-412 1228.16,-393.82 1094.69,-368.52 1027.43,-355.5"/>
<polygon fill="midnightblue" stroke="midnightblue" points="1617.91,-454.29 1628.28,-452.07 1618.79,-447.34 1617.91,-454.29"/>
</g>
<!-- Node29 -->
<g id="node29" class="node">
<title>Node29</title>
<g id="a_node29"><a xlink:href="_transformation_8cpp.html" target="_top" xlink:title="class representing a 3D affine transformation">
<polygon fill="white" stroke="black" points="1934,-336.5 1934,-355.5 2044,-355.5 2044,-336.5 1934,-336.5"/>
<text text-anchor="middle" x="1989" y="-343.5" font-family="Helvetica,sans-Serif" font-size="10.00">Transformation.cpp</text>
</a>
</g>
</g>
<!-- Node1&#45;&gt;Node29 -->
<g id="edge62" class="edge">
<title>Node1&#45;&gt;Node29</title>
<path fill="none" stroke="midnightblue" d="M1702.71,-445.1C1767.84,-422.79 1906.91,-375.13 1963.87,-355.61"/>
<polygon fill="midnightblue" stroke="midnightblue" points="1701.25,-441.91 1692.92,-448.46 1703.52,-448.53 1701.25,-441.91"/>
</g>
<!-- Node30 -->
<g id="node30" class="node">
<title>Node30</title>
<g id="a_node30"><a xlink:href="_transformation2_d_8cpp.html" target="_top" xlink:title="class representing a 2D affine transformation">
<polygon fill="white" stroke="black" points="2062,-336.5 2062,-355.5 2186,-355.5 2186,-336.5 2062,-336.5"/>
<text text-anchor="middle" x="2124" y="-343.5" font-family="Helvetica,sans-Serif" font-size="10.00">Transformation2D.cpp</text>
</a>
</g>
</g>
<!-- Node1&#45;&gt;Node30 -->
<g id="edge63" class="edge">
<title>Node1&#45;&gt;Node30</title>
<path fill="none" stroke="midnightblue" d="M1713.4,-446.05C1804.25,-424.13 2006.74,-375.29 2088.62,-355.53"/>
<polygon fill="midnightblue" stroke="midnightblue" points="1712.3,-442.71 1703.4,-448.46 1713.94,-449.52 1712.3,-442.71"/>
</g>
<!-- Node3 -->
<g id="node3" class="node">
<title>Node3</title>
<g id="a_node3"><a xlink:href="_render_layout_plugin_8cpp.html" target="_top" xlink:title="Implementation of RenderLayoutPlugin, the plugin class of the fbc package for the Model element.">
<polygon fill="white" stroke="black" points="699,-0.5 699,-19.5 833,-19.5 833,-0.5 699,-0.5"/>
<text text-anchor="middle" x="766" y="-7.5" font-family="Helvetica,sans-Serif" font-size="10.00">RenderLayoutPlugin.cpp</text>
</a>
</g>
</g>
<!-- Node2&#45;&gt;Node3 -->
<g id="edge2" class="edge">
<title>Node2&#45;&gt;Node3</title>
<path fill="none" stroke="midnightblue" d="M944.34,-121.14C1024.22,-118.61 1130.66,-106.21 1087,-56 1054.78,-18.95 917.34,-11.5 833.09,-10.51"/>
<polygon fill="midnightblue" stroke="midnightblue" points="944.15,-117.64 934.25,-121.41 944.34,-124.64 944.15,-117.64"/>
</g>
<!-- Node4 -->
<g id="node4" class="node">
<title>Node4</title>
<g id="a_node4"><a xlink:href="_render_layout_converter_8cpp.html" target="_top" xlink:title="Simple converter to convert Layout + Render from l2 to L3 and vice versa.">
<polygon fill="white" stroke="black" points="794,-56.5 794,-75.5 946,-75.5 946,-56.5 794,-56.5"/>
<text text-anchor="middle" x="870" y="-63.5" font-family="Helvetica,sans-Serif" font-size="10.00">RenderLayoutConverter.cpp</text>
</a>
</g>
</g>
<!-- Node2&#45;&gt;Node4 -->
<g id="edge3" class="edge">
<title>Node2&#45;&gt;Node4</title>
<path fill="none" stroke="midnightblue" d="M867.4,-102.1C868.06,-93.14 868.83,-82.86 869.35,-75.75"/>
<polygon fill="midnightblue" stroke="midnightblue" points="863.91,-101.85 866.66,-112.08 870.89,-102.37 863.91,-101.85"/>
</g>
<!-- Node5 -->
<g id="node5" class="node">
<title>Node5</title>
<g id="a_node5"><a xlink:href="_render_utilities_8cpp.html" target="_top" xlink:title="implementation of RenderUtilities, a class of utility functions for the render package">
<polygon fill="white" stroke="black" points="564,-0.5 564,-19.5 674,-19.5 674,-0.5 564,-0.5"/>
<text text-anchor="middle" x="619" y="-7.5" font-family="Helvetica,sans-Serif" font-size="10.00">RenderUtilities.cpp</text>
</a>
</g>
</g>
<!-- Node2&#45;&gt;Node5 -->
<g id="edge4" class="edge">
<title>Node2&#45;&gt;Node5</title>
<path fill="none" stroke="midnightblue" d="M837.18,-108.16C786.21,-85.47 681.49,-38.83 638.29,-19.59"/>
<polygon fill="midnightblue" stroke="midnightblue" points="836.06,-111.5 846.62,-112.37 838.91,-105.1 836.06,-111.5"/>
</g>
<!-- Node6 -->
<g id="node6" class="node">
<title>Node6</title>
<g id="a_node6"><a xlink:href="_render_utilities_8h.html" target="_top" xlink:title="Definition of RenderUtilities, a class of utility functions for the render package.">
<polygon fill="white" stroke="black" points="602,-56.5 602,-75.5 700,-75.5 700,-56.5 602,-56.5"/>
<text text-anchor="middle" x="651" y="-63.5" font-family="Helvetica,sans-Serif" font-size="10.00">RenderUtilities.h</text>
</a>
</g>
</g>
<!-- Node2&#45;&gt;Node6 -->
<g id="edge5" class="edge">
<title>Node2&#45;&gt;Node6</title>
<path fill="none" stroke="midnightblue" d="M822.04,-109.96C781.43,-99.76 721.96,-84.82 684.91,-75.52"/>
<polygon fill="midnightblue" stroke="midnightblue" points="821.38,-113.4 831.93,-112.44 823.09,-106.61 821.38,-113.4"/>
</g>
<!-- Node8 -->
<g id="node8" class="node">
<title>Node8</title>
<g id="a_node8"><a xlink:href="_render_validator_8cpp.html" target="_top" xlink:title="Definition of RenderValidator.">
<polygon fill="white" stroke="black" points="964,-56.5 964,-75.5 1078,-75.5 1078,-56.5 964,-56.5"/>
<text text-anchor="middle" x="1021" y="-63.5" font-family="Helvetica,sans-Serif" font-size="10.00">RenderValidator.cpp</text>
</a>
</g>
</g>
<!-- Node2&#45;&gt;Node8 -->
<g id="edge9" class="edge">
<title>Node2&#45;&gt;Node8</title>
<path fill="none" stroke="midnightblue" d="M900.33,-109.04C929.5,-98.88 970.64,-84.55 996.55,-75.52"/>
<polygon fill="midnightblue" stroke="midnightblue" points="898.85,-105.85 890.56,-112.44 901.16,-112.46 898.85,-105.85"/>
</g>
<!-- Node6&#45;&gt;Node3 -->
<g id="edge6" class="edge">
<title>Node6&#45;&gt;Node3</title>
<path fill="none" stroke="midnightblue" d="M678.48,-52.1C699.97,-42.01 729.22,-28.27 747.86,-19.52"/>
<polygon fill="midnightblue" stroke="midnightblue" points="676.79,-49.02 669.22,-56.44 679.76,-55.36 676.79,-49.02"/>
</g>
<!-- Node6&#45;&gt;Node5 -->
<g id="edge8" class="edge">
<title>Node6&#45;&gt;Node5</title>
<path fill="none" stroke="midnightblue" d="M640.5,-47.27C635.03,-38.05 628.58,-27.17 624.19,-19.75"/>
<polygon fill="midnightblue" stroke="midnightblue" points="637.61,-49.26 645.72,-56.08 643.63,-45.7 637.61,-49.26"/>
</g>
<!-- Node7 -->
<g id="node7" class="node">
<title>Node7</title>
<g id="a_node7"><a xlink:href="_render_list_of_layouts_plugin_8cpp.html" target="_top" xlink:title="Implementation of RenderListOfLayoutsPlugin, the plugin class of the fbc package for the Model elemen...">
<polygon fill="white" stroke="black" points="363,-0.5 363,-19.5 531,-19.5 531,-0.5 363,-0.5"/>
<text text-anchor="middle" x="447" y="-7.5" font-family="Helvetica,sans-Serif" font-size="10.00">RenderListOfLayoutsPlugin.cpp</text>
</a>
</g>
</g>
<!-- Node6&#45;&gt;Node7 -->
<g id="edge7" class="edge">
<title>Node6&#45;&gt;Node7</title>
<path fill="none" stroke="midnightblue" d="M608.8,-53.83C570.28,-43.63 514.18,-28.78 479.17,-19.52"/>
<polygon fill="midnightblue" stroke="midnightblue" points="608.11,-57.27 618.68,-56.44 609.9,-50.5 608.11,-57.27"/>
</g>
<!-- Node13&#45;&gt;Node2 -->
<g id="edge15" class="edge">
<title>Node13&#45;&gt;Node2</title>
<path fill="none" stroke="midnightblue" d="M1568.71,-388.04C1554.5,-380.57 1538.44,-369.87 1528,-356 1509.9,-331.95 1509,-321.1 1509,-291 1509,-291 1509,-291 1509,-233 1509,-199.31 1498.68,-185.68 1470,-168 1425.3,-140.45 1082.62,-128.49 934.19,-124.57"/>
<polygon fill="midnightblue" stroke="midnightblue" points="1567.19,-391.19 1577.71,-392.49 1570.3,-384.92 1567.19,-391.19"/>
</g>
<!-- Node13&#45;&gt;Node9 -->
<g id="edge16" class="edge">
<title>Node13&#45;&gt;Node9</title>
<path fill="none" stroke="midnightblue" d="M1532.1,-393.08C1446.96,-383 1300.56,-365.66 1213.66,-355.37"/>
<polygon fill="midnightblue" stroke="midnightblue" points="1531.83,-396.57 1542.17,-394.27 1532.65,-389.62 1531.83,-396.57"/>
</g>
<!-- Node13&#45;&gt;Node10 -->
<g id="edge17" class="edge">
<title>Node13&#45;&gt;Node10</title>
<path fill="none" stroke="midnightblue" d="M1541.8,-390.6C1485.67,-380.4 1401.1,-365.02 1348.84,-355.52"/>
<polygon fill="midnightblue" stroke="midnightblue" points="1541.47,-394.1 1551.94,-392.44 1542.73,-387.21 1541.47,-394.1"/>
</g>
<!-- Node13&#45;&gt;Node11 -->
<g id="edge18" class="edge">
<title>Node13&#45;&gt;Node11</title>
<path fill="none" stroke="midnightblue" d="M1563.3,-389.17C1532.6,-379 1489.08,-364.59 1461.71,-355.52"/>
<polygon fill="midnightblue" stroke="midnightblue" points="1562.58,-392.62 1573.17,-392.44 1564.78,-385.98 1562.58,-392.62"/>
</g>
<!-- Node13&#45;&gt;Node12 -->
<g id="edge19" class="edge">
<title>Node13&#45;&gt;Node12</title>
<path fill="none" stroke="midnightblue" d="M1630.48,-388.77C1656.59,-378.63 1693.04,-364.47 1716.08,-355.52"/>
<polygon fill="midnightblue" stroke="midnightblue" points="1629.08,-385.56 1621.02,-392.44 1631.61,-392.08 1629.08,-385.56"/>
</g>
<!-- Node14 -->
<g id="node14" class="node">
<title>Node14</title>
<g id="a_node14"><a xlink:href="_list_of_line_endings_8cpp.html" target="_top" xlink:title="Implementation of the ListOfLineEndings class.">
<polygon fill="white" stroke="black" points="1537,-336.5 1537,-355.5 1661,-355.5 1661,-336.5 1537,-336.5"/>
<text text-anchor="middle" x="1599" y="-343.5" font-family="Helvetica,sans-Serif" font-size="10.00">ListOfLineEndings.cpp</text>
</a>
</g>
</g>
<!-- Node13&#45;&gt;Node14 -->
<g id="edge20" class="edge">
<title>Node13&#45;&gt;Node14</title>
<path fill="none" stroke="midnightblue" d="M1599,-381.8C1599,-372.91 1599,-362.78 1599,-355.75"/>
<polygon fill="midnightblue" stroke="midnightblue" points="1595.5,-382.08 1599,-392.08 1602.5,-382.08 1595.5,-382.08"/>
</g>
<!-- Node13&#45;&gt;Node15 -->
<g id="edge21" class="edge">
<title>Node13&#45;&gt;Node15</title>
<path fill="none" stroke="midnightblue" d="M1651.17,-390.41C1701.44,-380.2 1776.53,-364.96 1823.05,-355.52"/>
<polygon fill="midnightblue" stroke="midnightblue" points="1650.25,-387.02 1641.15,-392.44 1651.64,-393.88 1650.25,-387.02"/>
</g>
<!-- Node13&#45;&gt;Node16 -->
<g id="edge22" class="edge">
<title>Node13&#45;&gt;Node16</title>
<path fill="none" stroke="midnightblue" d="M1532.12,-396.03C1430.63,-388.33 1231.68,-372.69 1063,-356 1060.25,-355.73 1057.45,-355.44 1054.62,-355.15"/>
<polygon fill="midnightblue" stroke="midnightblue" points="1531.99,-399.53 1542.23,-396.79 1532.52,-392.55 1531.99,-399.53"/>
</g>
<!-- Node13&#45;&gt;Node29 -->
<g id="edge58" class="edge">
<title>Node13&#45;&gt;Node29</title>
<path fill="none" stroke="midnightblue" d="M1666.07,-391.71C1741.74,-381.24 1863.4,-364.39 1933.8,-354.64"/>
<polygon fill="midnightblue" stroke="midnightblue" points="1665.13,-388.31 1655.71,-393.15 1666.09,-395.24 1665.13,-388.31"/>
</g>
<!-- Node13&#45;&gt;Node30 -->
<g id="edge59" class="edge">
<title>Node13&#45;&gt;Node30</title>
<path fill="none" stroke="midnightblue" d="M1665.85,-394.95C1754.45,-386.8 1915.59,-371.52 2053,-356 2055.84,-355.68 2058.74,-355.34 2061.67,-355"/>
<polygon fill="midnightblue" stroke="midnightblue" points="1665.31,-391.48 1655.68,-395.88 1665.95,-398.45 1665.31,-391.48"/>
</g>
<!-- Node16&#45;&gt;Node2 -->
<g id="edge23" class="edge">
<title>Node16&#45;&gt;Node2</title>
<path fill="none" stroke="midnightblue" d="M1039.29,-334.55C1175.62,-307.61 1512.54,-233.36 1452,-168 1417.44,-130.69 1081.28,-124.2 934.26,-123.15"/>
<polygon fill="midnightblue" stroke="midnightblue" points="1038.58,-331.12 1029.44,-336.48 1039.93,-337.99 1038.58,-331.12"/>
</g>
<!-- Node17 -->
<g id="node17" class="node">
<title>Node17</title>
<g id="a_node17"><a xlink:href="_global_render_information_8h.html" target="_top" xlink:title="Definition of the GlobalRenderInformation class.">
<polygon fill="white" stroke="black" points="405.5,-280.5 405.5,-299.5 554.5,-299.5 554.5,-280.5 405.5,-280.5"/>
<text text-anchor="middle" x="480" y="-287.5" font-family="Helvetica,sans-Serif" font-size="10.00">GlobalRenderInformation.h</text>
</a>
</g>
</g>
<!-- Node16&#45;&gt;Node17 -->
<g id="edge24" class="edge">
<title>Node16&#45;&gt;Node17</title>
<path fill="none" stroke="midnightblue" d="M903.43,-336.37C807.35,-326.07 648.04,-309 554.64,-299"/>
<polygon fill="midnightblue" stroke="midnightblue" points="903.07,-339.85 913.39,-337.43 903.82,-332.89 903.07,-339.85"/>
</g>
<!-- Node23 -->
<g id="node23" class="node">
<title>Node23</title>
<g id="a_node23"><a xlink:href="_render_information_base_8cpp.html" target="_top" xlink:title="Implementation of the RenderInformationBase class.">
<polygon fill="white" stroke="black" points="1291,-168.5 1291,-187.5 1443,-187.5 1443,-168.5 1291,-168.5"/>
<text text-anchor="middle" x="1367" y="-175.5" font-family="Helvetica,sans-Serif" font-size="10.00">RenderInformationBase.cpp</text>
</a>
</g>
</g>
<!-- Node16&#45;&gt;Node23 -->
<g id="edge57" class="edge">
<title>Node16&#45;&gt;Node23</title>
<path fill="none" stroke="midnightblue" d="M1022.7,-333.36C1076.8,-316.5 1177.56,-283.03 1259,-244 1295.11,-226.69 1334.78,-200.91 1354.47,-187.62"/>
<polygon fill="midnightblue" stroke="midnightblue" points="1021.36,-330.11 1012.84,-336.4 1023.42,-336.79 1021.36,-330.11"/>
</g>
<!-- Node24 -->
<g id="node24" class="node">
<title>Node24</title>
<g id="a_node24"><a xlink:href="_local_render_information_8h.html" target="_top" xlink:title="Definition of the LocalRenderInformation class.">
<polygon fill="white" stroke="black" points="912.5,-280.5 912.5,-299.5 1055.5,-299.5 1055.5,-280.5 912.5,-280.5"/>
<text text-anchor="middle" x="984" y="-287.5" font-family="Helvetica,sans-Serif" font-size="10.00">LocalRenderInformation.h</text>
</a>
</g>
</g>
<!-- Node16&#45;&gt;Node24 -->
<g id="edge41" class="edge">
<title>Node16&#45;&gt;Node24</title>
<path fill="none" stroke="midnightblue" d="M984,-325.8C984,-316.91 984,-306.78 984,-299.75"/>
<polygon fill="midnightblue" stroke="midnightblue" points="980.5,-326.08 984,-336.08 987.5,-326.08 980.5,-326.08"/>
</g>
<!-- Node17&#45;&gt;Node2 -->
<g id="edge25" class="edge">
<title>Node17&#45;&gt;Node2</title>
<path fill="none" stroke="midnightblue" d="M534.94,-278.34C599.53,-264.24 708.49,-235.47 792,-188 819.35,-172.45 845.61,-145.67 858.22,-131.84"/>
<polygon fill="midnightblue" stroke="midnightblue" points="534.02,-274.96 524.97,-280.48 535.48,-281.8 534.02,-274.96"/>
</g>
<!-- Node17&#45;&gt;Node7 -->
<g id="edge26" class="edge">
<title>Node17&#45;&gt;Node7</title>
<path fill="none" stroke="midnightblue" d="M395.15,-286.8C257.31,-280.89 0,-259.12 0,-179 0,-179 0,-179 0,-121 0,-47.07 233.44,-22.55 362.92,-14.63"/>
<polygon fill="midnightblue" stroke="midnightblue" points="395.13,-290.3 405.26,-287.21 395.42,-283.31 395.13,-290.3"/>
</g>
<!-- Node18 -->
<g id="node18" class="node">
<title>Node18</title>
<g id="a_node18"><a xlink:href="_render_list_of_layouts_plugin_8h.html" target="_top" xlink:title="Definition of RenderListOfLayoutsPlugin, the plugin class of fbc package for the Model element.">
<polygon fill="white" stroke="black" points="450.5,-168.5 450.5,-187.5 607.5,-187.5 607.5,-168.5 450.5,-168.5"/>
<text text-anchor="middle" x="529" y="-175.5" font-family="Helvetica,sans-Serif" font-size="10.00">RenderListOfLayoutsPlugin.h</text>
</a>
</g>
</g>
<!-- Node17&#45;&gt;Node18 -->
<g id="edge27" class="edge">
<title>Node17&#45;&gt;Node18</title>
<path fill="none" stroke="midnightblue" d="M497.52,-273.32C505.34,-265.32 513.92,-254.98 519,-244 527.63,-225.35 529.07,-200.79 529.16,-187.85"/>
<polygon fill="midnightblue" stroke="midnightblue" points="494.87,-271 490.1,-280.47 499.73,-276.04 494.87,-271"/>
</g>
<!-- Node20 -->
<g id="node20" class="node">
<title>Node20</title>
<g id="a_node20"><a xlink:href="_global_render_information_8cpp.html" target="_top" xlink:title="class for the storage of global render information">
<polygon fill="white" stroke="black" points="28,-168.5 28,-187.5 188,-187.5 188,-168.5 28,-168.5"/>
<text text-anchor="middle" x="108" y="-175.5" font-family="Helvetica,sans-Serif" font-size="10.00">GlobalRenderInformation.cpp</text>
</a>
</g>
</g>
<!-- Node17&#45;&gt;Node20 -->
<g id="edge32" class="edge">
<title>Node17&#45;&gt;Node20</title>
<path fill="none" stroke="midnightblue" d="M440.33,-277.69C408.78,-268.67 363.52,-255.65 324,-244 256.38,-224.07 177.07,-200.03 135.93,-187.52"/>
<polygon fill="midnightblue" stroke="midnightblue" points="439.49,-281.09 450.06,-280.47 441.41,-274.36 439.49,-281.09"/>
</g>
<!-- Node21 -->
<g id="node21" class="node">
<title>Node21</title>
<g id="a_node21"><a xlink:href="_list_of_global_render_information_8h.html" target="_top" xlink:title="Definition of the ListOfGlobalRenderInformation class.">
<polygon fill="white" stroke="black" points="333.5,-224.5 333.5,-243.5 510.5,-243.5 510.5,-224.5 333.5,-224.5"/>
<text text-anchor="middle" x="422" y="-231.5" font-family="Helvetica,sans-Serif" font-size="10.00">ListOfGlobalRenderInformation.h</text>
</a>
</g>
</g>
<!-- Node17&#45;&gt;Node21 -->
<g id="edge33" class="edge">
<title>Node17&#45;&gt;Node21</title>
<path fill="none" stroke="midnightblue" d="M457.56,-273.82C446.1,-264.15 433.33,-251.95 426.34,-243.83"/>
<polygon fill="midnightblue" stroke="midnightblue" points="455.6,-276.74 465.57,-280.32 460.01,-271.3 455.6,-276.74"/>
</g>
<!-- Node17&#45;&gt;Node23 -->
<g id="edge40" class="edge">
<title>Node17&#45;&gt;Node23</title>
<path fill="none" stroke="midnightblue" d="M564.82,-286.98C683.24,-283.19 904.57,-272.63 1091,-244 1181.99,-230.02 1287.32,-201.78 1337.49,-187.57"/>
<polygon fill="midnightblue" stroke="midnightblue" points="564.62,-283.48 554.73,-287.29 564.83,-290.48 564.62,-283.48"/>
</g>
<!-- Node18&#45;&gt;Node2 -->
<g id="edge28" class="edge">
<title>Node18&#45;&gt;Node2</title>
<path fill="none" stroke="midnightblue" d="M592.32,-166.85C655.99,-156.65 753.06,-141.1 812.85,-131.52"/>
<polygon fill="midnightblue" stroke="midnightblue" points="591.72,-163.41 582.4,-168.44 592.83,-170.32 591.72,-163.41"/>
</g>
<!-- Node18&#45;&gt;Node5 -->
<g id="edge31" class="edge">
<title>Node18&#45;&gt;Node5</title>
<path fill="none" stroke="midnightblue" d="M520.25,-158.77C515.11,-145.4 510.73,-127.04 517,-112 534.94,-68.99 581.1,-34.92 604.67,-19.68"/>
<polygon fill="midnightblue" stroke="midnightblue" points="517.17,-160.46 524.35,-168.26 523.6,-157.69 517.17,-160.46"/>
</g>
<!-- Node18&#45;&gt;Node7 -->
<g id="edge30" class="edge">
<title>Node18&#45;&gt;Node7</title>
<path fill="none" stroke="midnightblue" d="M509.7,-161.59C500.78,-153.59 490.71,-143.17 484,-132 461.14,-93.96 451.32,-40.62 448.19,-19.8"/>
<polygon fill="midnightblue" stroke="midnightblue" points="507.56,-164.37 517.43,-168.21 512.11,-159.05 507.56,-164.37"/>
</g>
<!-- Node19 -->
<g id="node19" class="node">
<title>Node19</title>
<g id="a_node19"><a xlink:href="_render_extension_8cpp.html" target="_top" xlink:title="Implementation of RenderExtension, the core module of the render package.">
<polygon fill="white" stroke="black" points="526.5,-112.5 526.5,-131.5 645.5,-131.5 645.5,-112.5 526.5,-112.5"/>
<text text-anchor="middle" x="586" y="-119.5" font-family="Helvetica,sans-Serif" font-size="10.00">RenderExtension.cpp</text>
</a>
</g>
</g>
<!-- Node18&#45;&gt;Node19 -->
<g id="edge29" class="edge">
<title>Node18&#45;&gt;Node19</title>
<path fill="none" stroke="midnightblue" d="M545.62,-161.25C555.73,-151.67 568.28,-139.79 576.68,-131.83"/>
<polygon fill="midnightblue" stroke="midnightblue" points="543.01,-158.91 538.16,-168.32 547.82,-163.99 543.01,-158.91"/>
</g>
<!-- Node21&#45;&gt;Node2 -->
<g id="edge34" class="edge">
<title>Node21&#45;&gt;Node2</title>
<path fill="none" stroke="midnightblue" d="M520.94,-230.15C588.95,-225.69 680.45,-214.7 757,-188 795.9,-174.43 836.13,-146 854.99,-131.66"/>
<polygon fill="midnightblue" stroke="midnightblue" points="520.42,-226.67 510.66,-230.78 520.85,-233.66 520.42,-226.67"/>
</g>
<!-- Node21&#45;&gt;Node7 -->
<g id="edge35" class="edge">
<title>Node21&#45;&gt;Node7</title>
<path fill="none" stroke="midnightblue" d="M424.11,-214.3C429.25,-168.64 442.29,-52.85 446,-19.88"/>
<polygon fill="midnightblue" stroke="midnightblue" points="420.62,-213.97 422.98,-224.3 427.58,-214.75 420.62,-213.97"/>
</g>
<!-- Node21&#45;&gt;Node17 -->
<g id="edge38" class="edge">
<title>Node21&#45;&gt;Node17</title>
<path fill="none" stroke="midnightblue" d="M444.51,-250.23C455.91,-259.87 468.6,-271.98 475.59,-280.08"/>
<polygon fill="midnightblue" stroke="midnightblue" points="446.5,-247.34 436.53,-243.75 442.08,-252.77 446.5,-247.34"/>
</g>
<!-- Node21&#45;&gt;Node18 -->
<g id="edge36" class="edge">
<title>Node21&#45;&gt;Node18</title>
<path fill="none" stroke="midnightblue" d="M448.3,-219.73C468.11,-209.73 494.71,-196.31 511.85,-187.65"/>
<polygon fill="midnightblue" stroke="midnightblue" points="446.54,-216.69 439.19,-224.32 449.7,-222.94 446.54,-216.69"/>
</g>
<!-- Node21&#45;&gt;Node20 -->
<g id="edge37" class="edge">
<title>Node21&#45;&gt;Node20</title>
<path fill="none" stroke="midnightblue" d="M362.27,-222.73C302.93,-212.52 213.01,-197.06 157.52,-187.52"/>
<polygon fill="midnightblue" stroke="midnightblue" points="361.8,-226.2 372.25,-224.44 362.98,-219.3 361.8,-226.2"/>
</g>
<!-- Node22 -->
<g id="node22" class="node">
<title>Node22</title>
<g id="a_node22"><a xlink:href="_list_of_global_render_information_8cpp.html" target="_top" xlink:title="Implementation of the ListOfGlobalRenderInformation class.">
<polygon fill="white" stroke="black" points="206,-168.5 206,-187.5 394,-187.5 394,-168.5 206,-168.5"/>
<text text-anchor="middle" x="300" y="-175.5" font-family="Helvetica,sans-Serif" font-size="10.00">ListOfGlobalRenderInformation.cpp</text>
</a>
</g>
</g>
<!-- Node21&#45;&gt;Node22 -->
<g id="edge39" class="edge">
<title>Node21&#45;&gt;Node22</title>
<path fill="none" stroke="midnightblue" d="M393.46,-220.37C370.61,-210.26 339.19,-196.35 319.24,-187.52"/>
<polygon fill="midnightblue" stroke="midnightblue" points="392.11,-223.6 402.67,-224.44 394.94,-217.2 392.11,-223.6"/>
</g>
<!-- Node24&#45;&gt;Node2 -->
<g id="edge42" class="edge">
<title>Node24&#45;&gt;Node2</title>
<path fill="none" stroke="midnightblue" d="M947.49,-276.33C931.5,-269.11 913.74,-258.55 902,-244 873.92,-209.21 867.73,-153.03 866.38,-131.64"/>
<polygon fill="midnightblue" stroke="midnightblue" points="946.58,-279.74 957.16,-280.4 949.3,-273.29 946.58,-279.74"/>
</g>
<!-- Node24&#45;&gt;Node18 -->
<g id="edge48" class="edge">
<title>Node24&#45;&gt;Node18</title>
<path fill="none" stroke="midnightblue" d="M934.82,-278.26C894.49,-269.35 835.96,-256.23 785,-244 704.52,-224.69 610.26,-200.29 561.67,-187.59"/>
<polygon fill="midnightblue" stroke="midnightblue" points="934.14,-281.69 944.66,-280.42 935.65,-274.85 934.14,-281.69"/>
</g>
<!-- Node24&#45;&gt;Node23 -->
<g id="edge56" class="edge">
<title>Node24&#45;&gt;Node23</title>
<path fill="none" stroke="midnightblue" d="M1059.57,-278.95C1106.17,-271.67 1166.8,-260.23 1219,-244 1268.58,-228.58 1323.79,-201.5 1350.6,-187.67"/>
<polygon fill="midnightblue" stroke="midnightblue" points="1058.9,-275.51 1049.55,-280.48 1059.96,-282.43 1058.9,-275.51"/>
</g>
<!-- Node25 -->
<g id="node25" class="node">
<title>Node25</title>
<g id="a_node25"><a xlink:href="_render_layout_plugin_8h.html" target="_top" xlink:title="Definition of RenderLayoutPlugin, the plugin class of fbc package for the Model element.">
<polygon fill="white" stroke="black" points="625.5,-168.5 625.5,-187.5 748.5,-187.5 748.5,-168.5 625.5,-168.5"/>
<text text-anchor="middle" x="687" y="-175.5" font-family="Helvetica,sans-Serif" font-size="10.00">RenderLayoutPlugin.h</text>
</a>
</g>
</g>
<!-- Node24&#45;&gt;Node25 -->
<g id="edge43" class="edge">
<title>Node24&#45;&gt;Node25</title>
<path fill="none" stroke="midnightblue" d="M943.27,-277.58C914,-269.08 873.74,-256.78 839,-244 789.98,-225.97 733.83,-200.72 705.47,-187.63"/>
<polygon fill="midnightblue" stroke="midnightblue" points="942.56,-281.02 953.14,-280.43 944.5,-274.29 942.56,-281.02"/>
</g>
<!-- Node26 -->
<g id="node26" class="node">
<title>Node26</title>
<g id="a_node26"><a xlink:href="_list_of_local_render_information_8h.html" target="_top" xlink:title="Definition of the ListOfLocalRenderInformation class.">
<polygon fill="white" stroke="black" points="911.5,-224.5 911.5,-243.5 1082.5,-243.5 1082.5,-224.5 911.5,-224.5"/>
<text text-anchor="middle" x="997" y="-231.5" font-family="Helvetica,sans-Serif" font-size="10.00">ListOfLocalRenderInformation.h</text>
</a>
</g>
</g>
<!-- Node24&#45;&gt;Node26 -->
<g id="edge49" class="edge">
<title>Node24&#45;&gt;Node26</title>
<path fill="none" stroke="midnightblue" d="M988.55,-270.1C990.71,-261.14 993.18,-250.86 994.89,-243.75"/>
<polygon fill="midnightblue" stroke="midnightblue" points="985.08,-269.54 986.15,-280.08 991.89,-271.18 985.08,-269.54"/>
</g>
<!-- Node28 -->
<g id="node28" class="node">
<title>Node28</title>
<g id="a_node28"><a xlink:href="_local_render_information_8cpp.html" target="_top" xlink:title="Implementation of the LocalRenderInformation class.">
<polygon fill="white" stroke="black" points="1119,-168.5 1119,-187.5 1273,-187.5 1273,-168.5 1119,-168.5"/>
<text text-anchor="middle" x="1196" y="-175.5" font-family="Helvetica,sans-Serif" font-size="10.00">LocalRenderInformation.cpp</text>
</a>
</g>
</g>
<!-- Node24&#45;&gt;Node28 -->
<g id="edge55" class="edge">
<title>Node24&#45;&gt;Node28</title>
<path fill="none" stroke="midnightblue" d="M1016.78,-276.75C1038.27,-268.35 1066.77,-256.5 1091,-244 1125.68,-226.11 1164.12,-200.81 1183.44,-187.67"/>
<polygon fill="midnightblue" stroke="midnightblue" points="1015.5,-273.49 1007.44,-280.36 1018.02,-280.02 1015.5,-273.49"/>
</g>
<!-- Node25&#45;&gt;Node2 -->
<g id="edge44" class="edge">
<title>Node25&#45;&gt;Node2</title>
<path fill="none" stroke="midnightblue" d="M725.33,-165.44C759.08,-155.26 807.45,-140.66 837.77,-131.52"/>
<polygon fill="midnightblue" stroke="midnightblue" points="723.93,-162.2 715.36,-168.44 725.95,-168.91 723.93,-162.2"/>
</g>
<!-- Node25&#45;&gt;Node3 -->
<g id="edge46" class="edge">
<title>Node25&#45;&gt;Node3</title>
<path fill="none" stroke="midnightblue" d="M695.63,-158.86C712.58,-123.25 749.6,-45.45 761.92,-19.57"/>
<polygon fill="midnightblue" stroke="midnightblue" points="692.38,-157.54 691.25,-168.08 698.71,-160.55 692.38,-157.54"/>
</g>
<!-- Node25&#45;&gt;Node5 -->
<g id="edge47" class="edge">
<title>Node25&#45;&gt;Node5</title>
<path fill="none" stroke="midnightblue" d="M681.03,-158.95C675.68,-144.88 666.7,-125.53 654,-112 632.46,-89.05 608.61,-103.34 593,-76 582.15,-57 599.41,-32.58 610.62,-19.76"/>
<polygon fill="midnightblue" stroke="midnightblue" points="677.77,-160.24 684.42,-168.5 684.37,-157.9 677.77,-160.24"/>
</g>
<!-- Node25&#45;&gt;Node19 -->
<g id="edge45" class="edge">
<title>Node25&#45;&gt;Node19</title>
<path fill="none" stroke="midnightblue" d="M661.92,-163.59C643.24,-153.61 618.3,-140.27 602.19,-131.65"/>
<polygon fill="midnightblue" stroke="midnightblue" points="660.3,-166.7 670.77,-168.32 663.6,-160.52 660.3,-166.7"/>
</g>
<!-- Node26&#45;&gt;Node2 -->
<g id="edge50" class="edge">
<title>Node26&#45;&gt;Node2</title>
<path fill="none" stroke="midnightblue" d="M963.21,-220.26C946.01,-212.66 925.51,-201.79 910,-188 891.26,-171.34 876.73,-145.05 870.04,-131.58"/>
<polygon fill="midnightblue" stroke="midnightblue" points="962.32,-223.68 972.89,-224.35 965.05,-217.23 962.32,-223.68"/>
</g>
<!-- Node26&#45;&gt;Node23 -->
<g id="edge54" class="edge">
<title>Node26&#45;&gt;Node23</title>
<path fill="none" stroke="midnightblue" d="M1065.66,-222.98C1135.55,-212.78 1242.73,-197.14 1308.65,-187.52"/>
<polygon fill="midnightblue" stroke="midnightblue" points="1065.02,-219.54 1055.63,-224.44 1066.03,-226.46 1065.02,-219.54"/>
</g>
<!-- Node26&#45;&gt;Node25 -->
<g id="edge51" class="edge">
<title>Node26&#45;&gt;Node25</title>
<path fill="none" stroke="midnightblue" d="M937.66,-222.66C879.08,-212.46 790.55,-197.04 735.89,-187.52"/>
<polygon fill="midnightblue" stroke="midnightblue" points="937.43,-226.18 947.88,-224.44 938.63,-219.28 937.43,-226.18"/>
</g>
<!-- Node27 -->
<g id="node27" class="node">
<title>Node27</title>
<g id="a_node27"><a xlink:href="_list_of_local_render_information_8cpp.html" target="_top" xlink:title="Implementation of the ListOfLocalRenderInformation class.">
<polygon fill="white" stroke="black" points="919,-168.5 919,-187.5 1101,-187.5 1101,-168.5 919,-168.5"/>
<text text-anchor="middle" x="1010" y="-175.5" font-family="Helvetica,sans-Serif" font-size="10.00">ListOfLocalRenderInformation.cpp</text>
</a>
</g>
</g>
<!-- Node26&#45;&gt;Node27 -->
<g id="edge52" class="edge">
<title>Node26&#45;&gt;Node27</title>
<path fill="none" stroke="midnightblue" d="M1001.55,-214.1C1003.71,-205.14 1006.18,-194.86 1007.89,-187.75"/>
<polygon fill="midnightblue" stroke="midnightblue" points="998.08,-213.54 999.15,-224.08 1004.89,-215.18 998.08,-213.54"/>
</g>
<!-- Node26&#45;&gt;Node28 -->
<g id="edge53" class="edge">
<title>Node26&#45;&gt;Node28</title>
<path fill="none" stroke="midnightblue" d="M1038.65,-221.7C1076.21,-211.51 1130.61,-196.74 1164.62,-187.52"/>
<polygon fill="midnightblue" stroke="midnightblue" points="1037.27,-218.45 1028.53,-224.44 1039.1,-225.2 1037.27,-218.45"/>
</g>
</g>
</svg>
