<?xml version="1.0" encoding="UTF-8" standalone="no"?>
<!DOCTYPE svg PUBLIC "-//W3C//DTD SVG 1.1//EN"
 "http://www.w3.org/Graphics/SVG/1.1/DTD/svg11.dtd">
<!-- Generated by graphviz version 2.43.0 (0)
 -->
<!-- Title: List.cpp Pages: 1 -->
<svg width="352pt" height="207pt"
 viewBox="0.00 0.00 351.50 207.00" xmlns="http://www.w3.org/2000/svg" xmlns:xlink="http://www.w3.org/1999/xlink">
<g id="graph0" class="graph" transform="scale(1 1) rotate(0) translate(4 203)">
<title>List.cpp</title>
<polygon fill="white" stroke="transparent" points="-4,4 -4,-203 347.5,-203 347.5,4 -4,4"/>
<!-- Node1 -->
<g id="node1" class="node">
<title>Node1</title>
<g id="a_node1"><a xlink:title="Simple, generic list class.">
<polygon fill="#bfbfbf" stroke="black" points="70,-179.5 70,-198.5 124,-198.5 124,-179.5 70,-179.5"/>
<text text-anchor="middle" x="97" y="-186.5" font-family="Helvetica,sans-Serif" font-size="10.00">List.cpp</text>
</a>
</g>
</g>
<!-- Node2 -->
<g id="node2" class="node">
<title>Node2</title>
<g id="a_node2"><a xlink:title=" ">
<polygon fill="white" stroke="#bfbfbf" points="0,-67.5 0,-86.5 50,-86.5 50,-67.5 0,-67.5"/>
<text text-anchor="middle" x="25" y="-74.5" font-family="Helvetica,sans-Serif" font-size="10.00">stdio.h</text>
</a>
</g>
</g>
<!-- Node1&#45;&gt;Node2 -->
<g id="edge1" class="edge">
<title>Node1&#45;&gt;Node2</title>
<path fill="none" stroke="midnightblue" d="M82.81,-179.37C70.8,-171.37 53.99,-158.39 44,-143 34.9,-128.98 30.05,-110.48 27.53,-96.8"/>
<polygon fill="midnightblue" stroke="midnightblue" points="30.95,-95.98 25.93,-86.65 24.03,-97.08 30.95,-95.98"/>
</g>
<!-- Node3 -->
<g id="node3" class="node">
<title>Node3</title>
<g id="a_node3"><a xlink:href="util_8h.html" target="_top" xlink:title="Utility functions.">
<polygon fill="white" stroke="black" points="53.5,-123.5 53.5,-142.5 140.5,-142.5 140.5,-123.5 53.5,-123.5"/>
<text text-anchor="middle" x="97" y="-130.5" font-family="Helvetica,sans-Serif" font-size="10.00">sbml/util/util.h</text>
</a>
</g>
</g>
<!-- Node1&#45;&gt;Node3 -->
<g id="edge2" class="edge">
<title>Node1&#45;&gt;Node3</title>
<path fill="none" stroke="midnightblue" d="M97,-179.08C97,-172.01 97,-161.86 97,-152.99"/>
<polygon fill="midnightblue" stroke="midnightblue" points="100.5,-152.75 97,-142.75 93.5,-152.75 100.5,-152.75"/>
</g>
<!-- Node7 -->
<g id="node7" class="node">
<title>Node7</title>
<g id="a_node7"><a xlink:href="_list_8h.html" target="_top" xlink:title="Simple, generic list utility class.">
<polygon fill="white" stroke="black" points="162.5,-123.5 162.5,-142.5 251.5,-142.5 251.5,-123.5 162.5,-123.5"/>
<text text-anchor="middle" x="207" y="-130.5" font-family="Helvetica,sans-Serif" font-size="10.00">sbml/util/List.h</text>
</a>
</g>
</g>
<!-- Node1&#45;&gt;Node7 -->
<g id="edge7" class="edge">
<title>Node1&#45;&gt;Node7</title>
<path fill="none" stroke="midnightblue" d="M114.67,-179.32C132.39,-170.62 159.9,-157.12 180.29,-147.11"/>
<polygon fill="midnightblue" stroke="midnightblue" points="181.94,-150.2 189.37,-142.65 178.85,-143.92 181.94,-150.2"/>
</g>
<!-- Node3&#45;&gt;Node2 -->
<g id="edge3" class="edge">
<title>Node3&#45;&gt;Node2</title>
<path fill="none" stroke="midnightblue" d="M85.43,-123.32C74.58,-115.18 58.12,-102.84 45.12,-93.09"/>
<polygon fill="midnightblue" stroke="midnightblue" points="46.88,-90.03 36.78,-86.83 42.68,-95.63 46.88,-90.03"/>
</g>
<!-- Node4 -->
<g id="node4" class="node">
<title>Node4</title>
<g id="a_node4"><a xlink:title=" ">
<polygon fill="white" stroke="#bfbfbf" points="68,-67.5 68,-86.5 124,-86.5 124,-67.5 68,-67.5"/>
<text text-anchor="middle" x="96" y="-74.5" font-family="Helvetica,sans-Serif" font-size="10.00">stdarg.h</text>
</a>
</g>
</g>
<!-- Node3&#45;&gt;Node4 -->
<g id="edge4" class="edge">
<title>Node3&#45;&gt;Node4</title>
<path fill="none" stroke="midnightblue" d="M96.83,-123.08C96.7,-116.01 96.52,-105.86 96.35,-96.99"/>
<polygon fill="midnightblue" stroke="midnightblue" points="99.85,-96.68 96.16,-86.75 92.85,-96.81 99.85,-96.68"/>
</g>
<!-- Node5 -->
<g id="node5" class="node">
<title>Node5</title>
<g id="a_node5"><a xlink:href="extern_8h.html" target="_top" xlink:title="Definitions of LIBSBML_EXTERN and related things.">
<polygon fill="white" stroke="black" points="142,-67.5 142,-86.5 272,-86.5 272,-67.5 142,-67.5"/>
<text text-anchor="middle" x="207" y="-74.5" font-family="Helvetica,sans-Serif" font-size="10.00">sbml/common/extern.h</text>
</a>
</g>
</g>
<!-- Node3&#45;&gt;Node5 -->
<g id="edge5" class="edge">
<title>Node3&#45;&gt;Node5</title>
<path fill="none" stroke="midnightblue" d="M114.67,-123.32C132.39,-114.62 159.9,-101.12 180.29,-91.11"/>
<polygon fill="midnightblue" stroke="midnightblue" points="181.94,-94.2 189.37,-86.65 178.85,-87.92 181.94,-94.2"/>
</g>
<!-- Node6 -->
<g id="node6" class="node">
<title>Node6</title>
<g id="a_node6"><a xlink:title=" ">
<polygon fill="white" stroke="#bfbfbf" points="144.5,-0.5 144.5,-30.5 269.5,-30.5 269.5,-0.5 144.5,-0.5"/>
<text text-anchor="start" x="152.5" y="-18.5" font-family="Helvetica,sans-Serif" font-size="10.00">sbml/common/libsbml</text>
<text text-anchor="middle" x="207" y="-7.5" font-family="Helvetica,sans-Serif" font-size="10.00">&#45;namespace.h</text>
</a>
</g>
</g>
<!-- Node5&#45;&gt;Node6 -->
<g id="edge6" class="edge">
<title>Node5&#45;&gt;Node6</title>
<path fill="none" stroke="midnightblue" d="M207,-67.48C207,-60.47 207,-50.19 207,-40.7"/>
<polygon fill="midnightblue" stroke="midnightblue" points="210.5,-40.52 207,-30.52 203.5,-40.52 210.5,-40.52"/>
</g>
<!-- Node7&#45;&gt;Node5 -->
<g id="edge8" class="edge">
<title>Node7&#45;&gt;Node5</title>
<path fill="none" stroke="midnightblue" d="M207,-123.08C207,-116.01 207,-105.86 207,-96.99"/>
<polygon fill="midnightblue" stroke="midnightblue" points="210.5,-96.75 207,-86.75 203.5,-96.75 210.5,-96.75"/>
</g>
<!-- Node8 -->
<g id="node8" class="node">
<title>Node8</title>
<g id="a_node8"><a xlink:title=" ">
<polygon fill="white" stroke="#bfbfbf" points="290.5,-67.5 290.5,-86.5 343.5,-86.5 343.5,-67.5 290.5,-67.5"/>
<text text-anchor="middle" x="317" y="-74.5" font-family="Helvetica,sans-Serif" font-size="10.00">string.h</text>
</a>
</g>
</g>
<!-- Node7&#45;&gt;Node8 -->
<g id="edge9" class="edge">
<title>Node7&#45;&gt;Node8</title>
<path fill="none" stroke="midnightblue" d="M224.67,-123.32C242.39,-114.62 269.9,-101.12 290.29,-91.11"/>
<polygon fill="midnightblue" stroke="midnightblue" points="291.94,-94.2 299.37,-86.65 288.85,-87.92 291.94,-94.2"/>
</g>
</g>
</svg>
