<?xml version="1.0" encoding="UTF-8" standalone="no"?>
<!DOCTYPE svg PUBLIC "-//W3C//DTD SVG 1.1//EN"
 "http://www.w3.org/Graphics/SVG/1.1/DTD/svg11.dtd">
<!-- Generated by graphviz version 2.43.0 (0)
 -->
<!-- Title: ListOfColorDefinitions.h Pages: 1 -->
<svg width="1528pt" height="420pt"
 viewBox="0.00 0.00 1527.50 420.00" xmlns="http://www.w3.org/2000/svg" xmlns:xlink="http://www.w3.org/1999/xlink">
<g id="graph0" class="graph" transform="scale(1 1) rotate(0) translate(4 416)">
<title>ListOfColorDefinitions.h</title>
<polygon fill="white" stroke="transparent" points="-4,4 -4,-416 1523.5,-416 1523.5,4 -4,4"/>
<!-- Node1 -->
<g id="node1" class="node">
<title>Node1</title>
<g id="a_node1"><a xlink:title="Definition of the ListOfColorDefinitions class.">
<polygon fill="#bfbfbf" stroke="black" points="1052,-392.5 1052,-411.5 1184,-411.5 1184,-392.5 1052,-392.5"/>
<text text-anchor="middle" x="1118" y="-399.5" font-family="Helvetica,sans-Serif" font-size="10.00">ListOfColorDefinitions.h</text>
</a>
</g>
</g>
<!-- Node2 -->
<g id="node2" class="node">
<title>Node2</title>
<g id="a_node2"><a xlink:href="_render_extension_types_8h.html" target="_top" xlink:title="Definition of RenderExtensionTypes.">
<polygon fill="white" stroke="black" points="823,-112.5 823,-131.5 959,-131.5 959,-112.5 823,-112.5"/>
<text text-anchor="middle" x="891" y="-119.5" font-family="Helvetica,sans-Serif" font-size="10.00">RenderExtensionTypes.h</text>
</a>
</g>
</g>
<!-- Node1&#45;&gt;Node2 -->
<g id="edge1" class="edge">
<title>Node1&#45;&gt;Node2</title>
<path fill="none" stroke="midnightblue" d="M1194.2,-398.49C1267.73,-391.5 1368,-367.88 1368,-291 1368,-291 1368,-291 1368,-233 1368,-202.9 1372.18,-187.2 1349,-168 1285.55,-115.44 1061.99,-140.14 980,-132 973.2,-131.32 966.11,-130.62 959.03,-129.9"/>
<polygon fill="midnightblue" stroke="midnightblue" points="1193.67,-395.02 1184.01,-399.37 1194.28,-401.99 1193.67,-395.02"/>
</g>
<!-- Node9 -->
<g id="node9" class="node">
<title>Node9</title>
<g id="a_node9"><a xlink:href="_color_definition_8cpp.html" target="_top" xlink:title="Implementation of the ColorDefinition class.">
<polygon fill="white" stroke="black" points="991,-336.5 991,-355.5 1101,-355.5 1101,-336.5 991,-336.5"/>
<text text-anchor="middle" x="1046" y="-343.5" font-family="Helvetica,sans-Serif" font-size="10.00">ColorDefinition.cpp</text>
</a>
</g>
</g>
<!-- Node1&#45;&gt;Node9 -->
<g id="edge10" class="edge">
<title>Node1&#45;&gt;Node9</title>
<path fill="none" stroke="midnightblue" d="M1098.13,-386.1C1085.18,-376.38 1068.7,-364.03 1057.78,-355.83"/>
<polygon fill="midnightblue" stroke="midnightblue" points="1096.33,-389.12 1106.43,-392.32 1100.53,-383.52 1096.33,-389.12"/>
</g>
<!-- Node10 -->
<g id="node10" class="node">
<title>Node10</title>
<g id="a_node10"><a xlink:href="_list_of_color_definitions_8cpp.html" target="_top" xlink:title="Implementation of the ListOfColorDefinitions class.">
<polygon fill="white" stroke="black" points="1119.5,-336.5 1119.5,-355.5 1262.5,-355.5 1262.5,-336.5 1119.5,-336.5"/>
<text text-anchor="middle" x="1191" y="-343.5" font-family="Helvetica,sans-Serif" font-size="10.00">ListOfColorDefinitions.cpp</text>
</a>
</g>
</g>
<!-- Node1&#45;&gt;Node10 -->
<g id="edge11" class="edge">
<title>Node1&#45;&gt;Node10</title>
<path fill="none" stroke="midnightblue" d="M1138.14,-386.1C1151.28,-376.38 1167.98,-364.03 1179.06,-355.83"/>
<polygon fill="midnightblue" stroke="midnightblue" points="1135.69,-383.56 1129.73,-392.32 1139.85,-389.19 1135.69,-383.56"/>
</g>
<!-- Node11 -->
<g id="node11" class="node">
<title>Node11</title>
<g id="a_node11"><a xlink:href="_render_information_base_8h.html" target="_top" xlink:title="Definition of the RenderInformationBase class.">
<polygon fill="white" stroke="black" points="755.5,-336.5 755.5,-355.5 896.5,-355.5 896.5,-336.5 755.5,-336.5"/>
<text text-anchor="middle" x="826" y="-343.5" font-family="Helvetica,sans-Serif" font-size="10.00">RenderInformationBase.h</text>
</a>
</g>
</g>
<!-- Node1&#45;&gt;Node11 -->
<g id="edge12" class="edge">
<title>Node1&#45;&gt;Node11</title>
<path fill="none" stroke="midnightblue" d="M1061.77,-390.6C1006.58,-380.4 923.44,-365.02 872.05,-355.52"/>
<polygon fill="midnightblue" stroke="midnightblue" points="1061.26,-394.07 1071.73,-392.44 1062.53,-387.18 1061.26,-394.07"/>
</g>
<!-- Node3 -->
<g id="node3" class="node">
<title>Node3</title>
<g id="a_node3"><a xlink:href="_render_layout_plugin_8cpp.html" target="_top" xlink:title="Implementation of RenderLayoutPlugin, the plugin class of the fbc package for the Model element.">
<polygon fill="white" stroke="black" points="1117,-0.5 1117,-19.5 1251,-19.5 1251,-0.5 1117,-0.5"/>
<text text-anchor="middle" x="1184" y="-7.5" font-family="Helvetica,sans-Serif" font-size="10.00">RenderLayoutPlugin.cpp</text>
</a>
</g>
</g>
<!-- Node2&#45;&gt;Node3 -->
<g id="edge2" class="edge">
<title>Node2&#45;&gt;Node3</title>
<path fill="none" stroke="midnightblue" d="M969.37,-111.63C1027.31,-103.67 1100.53,-91.14 1127,-76 1151.23,-62.14 1170.34,-34.11 1178.98,-19.81"/>
<polygon fill="midnightblue" stroke="midnightblue" points="968.56,-108.2 959.12,-113.01 969.49,-115.14 968.56,-108.2"/>
</g>
<!-- Node4 -->
<g id="node4" class="node">
<title>Node4</title>
<g id="a_node4"><a xlink:href="_render_layout_converter_8cpp.html" target="_top" xlink:title="Simple converter to convert Layout + Render from l2 to L3 and vice versa.">
<polygon fill="white" stroke="black" points="966,-56.5 966,-75.5 1118,-75.5 1118,-56.5 966,-56.5"/>
<text text-anchor="middle" x="1042" y="-63.5" font-family="Helvetica,sans-Serif" font-size="10.00">RenderLayoutConverter.cpp</text>
</a>
</g>
</g>
<!-- Node2&#45;&gt;Node4 -->
<g id="edge3" class="edge">
<title>Node2&#45;&gt;Node4</title>
<path fill="none" stroke="midnightblue" d="M924.45,-109.04C952.86,-98.88 992.94,-84.55 1018.19,-75.52"/>
<polygon fill="midnightblue" stroke="midnightblue" points="923.16,-105.78 914.93,-112.44 925.52,-112.37 923.16,-105.78"/>
</g>
<!-- Node5 -->
<g id="node5" class="node">
<title>Node5</title>
<g id="a_node5"><a xlink:href="_render_utilities_8cpp.html" target="_top" xlink:title="implementation of RenderUtilities, a class of utility functions for the render package">
<polygon fill="white" stroke="black" points="734,-0.5 734,-19.5 844,-19.5 844,-0.5 734,-0.5"/>
<text text-anchor="middle" x="789" y="-7.5" font-family="Helvetica,sans-Serif" font-size="10.00">RenderUtilities.cpp</text>
</a>
</g>
</g>
<!-- Node2&#45;&gt;Node5 -->
<g id="edge4" class="edge">
<title>Node2&#45;&gt;Node5</title>
<path fill="none" stroke="midnightblue" d="M865.15,-107.26C852,-99.37 836.43,-88.54 825,-76 809.19,-58.65 797.66,-33.12 792.32,-19.8"/>
<polygon fill="midnightblue" stroke="midnightblue" points="863.79,-110.51 874.2,-112.47 867.28,-104.45 863.79,-110.51"/>
</g>
<!-- Node6 -->
<g id="node6" class="node">
<title>Node6</title>
<g id="a_node6"><a xlink:href="_render_utilities_8h.html" target="_top" xlink:title="Definition of RenderUtilities, a class of utility functions for the render package.">
<polygon fill="white" stroke="black" points="680,-56.5 680,-75.5 778,-75.5 778,-56.5 680,-56.5"/>
<text text-anchor="middle" x="729" y="-63.5" font-family="Helvetica,sans-Serif" font-size="10.00">RenderUtilities.h</text>
</a>
</g>
</g>
<!-- Node2&#45;&gt;Node6 -->
<g id="edge5" class="edge">
<title>Node2&#45;&gt;Node6</title>
<path fill="none" stroke="midnightblue" d="M855.52,-109.17C825.01,-99 781.76,-84.59 754.55,-75.52"/>
<polygon fill="midnightblue" stroke="midnightblue" points="854.74,-112.6 865.33,-112.44 856.95,-105.96 854.74,-112.6"/>
</g>
<!-- Node8 -->
<g id="node8" class="node">
<title>Node8</title>
<g id="a_node8"><a xlink:href="_render_validator_8cpp.html" target="_top" xlink:title="Definition of RenderValidator.">
<polygon fill="white" stroke="black" points="834,-56.5 834,-75.5 948,-75.5 948,-56.5 834,-56.5"/>
<text text-anchor="middle" x="891" y="-63.5" font-family="Helvetica,sans-Serif" font-size="10.00">RenderValidator.cpp</text>
</a>
</g>
</g>
<!-- Node2&#45;&gt;Node8 -->
<g id="edge9" class="edge">
<title>Node2&#45;&gt;Node8</title>
<path fill="none" stroke="midnightblue" d="M891,-101.8C891,-92.91 891,-82.78 891,-75.75"/>
<polygon fill="midnightblue" stroke="midnightblue" points="887.5,-102.08 891,-112.08 894.5,-102.08 887.5,-102.08"/>
</g>
<!-- Node6&#45;&gt;Node3 -->
<g id="edge6" class="edge">
<title>Node6&#45;&gt;Node3</title>
<path fill="none" stroke="midnightblue" d="M788.08,-57.99C872.65,-47.95 1027.81,-29.54 1116.71,-18.99"/>
<polygon fill="midnightblue" stroke="midnightblue" points="787.64,-54.52 778.13,-59.17 788.47,-61.47 787.64,-54.52"/>
</g>
<!-- Node6&#45;&gt;Node5 -->
<g id="edge8" class="edge">
<title>Node6&#45;&gt;Node5</title>
<path fill="none" stroke="midnightblue" d="M746.18,-49.54C756.88,-39.91 770.26,-27.87 779.18,-19.83"/>
<polygon fill="midnightblue" stroke="midnightblue" points="743.73,-47.03 738.64,-56.32 748.41,-52.24 743.73,-47.03"/>
</g>
<!-- Node7 -->
<g id="node7" class="node">
<title>Node7</title>
<g id="a_node7"><a xlink:href="_render_list_of_layouts_plugin_8cpp.html" target="_top" xlink:title="Implementation of RenderListOfLayoutsPlugin, the plugin class of the fbc package for the Model elemen...">
<polygon fill="white" stroke="black" points="115,-0.5 115,-19.5 283,-19.5 283,-0.5 115,-0.5"/>
<text text-anchor="middle" x="199" y="-7.5" font-family="Helvetica,sans-Serif" font-size="10.00">RenderListOfLayoutsPlugin.cpp</text>
</a>
</g>
</g>
<!-- Node6&#45;&gt;Node7 -->
<g id="edge7" class="edge">
<title>Node6&#45;&gt;Node7</title>
<path fill="none" stroke="midnightblue" d="M669.66,-58.95C575.2,-49.33 390.34,-30.49 282.54,-19.51"/>
<polygon fill="midnightblue" stroke="midnightblue" points="669.31,-62.44 679.61,-59.97 670.02,-55.47 669.31,-62.44"/>
</g>
<!-- Node11&#45;&gt;Node2 -->
<g id="edge13" class="edge">
<title>Node11&#45;&gt;Node2</title>
<path fill="none" stroke="midnightblue" d="M806.63,-329.9C768.21,-298.13 689.49,-222.79 731,-168 743.68,-151.27 793.63,-139.02 834.39,-131.56"/>
<polygon fill="midnightblue" stroke="midnightblue" points="804.61,-332.77 814.59,-336.33 809.01,-327.33 804.61,-332.77"/>
</g>
<!-- Node12 -->
<g id="node12" class="node">
<title>Node12</title>
<g id="a_node12"><a xlink:href="_global_render_information_8h.html" target="_top" xlink:title="Definition of the GlobalRenderInformation class.">
<polygon fill="white" stroke="black" points="464.5,-280.5 464.5,-299.5 613.5,-299.5 613.5,-280.5 464.5,-280.5"/>
<text text-anchor="middle" x="539" y="-287.5" font-family="Helvetica,sans-Serif" font-size="10.00">GlobalRenderInformation.h</text>
</a>
</g>
</g>
<!-- Node11&#45;&gt;Node12 -->
<g id="edge14" class="edge">
<title>Node11&#45;&gt;Node12</title>
<path fill="none" stroke="midnightblue" d="M770.39,-334.54C716.15,-324.33 634.66,-309 584.26,-299.52"/>
<polygon fill="midnightblue" stroke="midnightblue" points="770.05,-338.03 780.52,-336.44 771.34,-331.15 770.05,-338.03"/>
</g>
<!-- Node18 -->
<g id="node18" class="node">
<title>Node18</title>
<g id="a_node18"><a xlink:href="_render_information_base_8cpp.html" target="_top" xlink:title="Implementation of the RenderInformationBase class.">
<polygon fill="white" stroke="black" points="740,-168.5 740,-187.5 892,-187.5 892,-168.5 740,-168.5"/>
<text text-anchor="middle" x="816" y="-175.5" font-family="Helvetica,sans-Serif" font-size="10.00">RenderInformationBase.cpp</text>
</a>
</g>
</g>
<!-- Node11&#45;&gt;Node18 -->
<g id="edge47" class="edge">
<title>Node11&#45;&gt;Node18</title>
<path fill="none" stroke="midnightblue" d="M824.85,-325.93C822.68,-289.92 818.06,-213.23 816.52,-187.57"/>
<polygon fill="midnightblue" stroke="midnightblue" points="821.37,-326.3 825.46,-336.08 828.35,-325.88 821.37,-326.3"/>
</g>
<!-- Node19 -->
<g id="node19" class="node">
<title>Node19</title>
<g id="a_node19"><a xlink:href="_local_render_information_8h.html" target="_top" xlink:title="Definition of the LocalRenderInformation class.">
<polygon fill="white" stroke="black" points="854.5,-280.5 854.5,-299.5 997.5,-299.5 997.5,-280.5 854.5,-280.5"/>
<text text-anchor="middle" x="926" y="-287.5" font-family="Helvetica,sans-Serif" font-size="10.00">LocalRenderInformation.h</text>
</a>
</g>
</g>
<!-- Node11&#45;&gt;Node19 -->
<g id="edge31" class="edge">
<title>Node11&#45;&gt;Node19</title>
<path fill="none" stroke="midnightblue" d="M851.09,-331.45C869.55,-321.48 894.1,-308.23 909.97,-299.65"/>
<polygon fill="midnightblue" stroke="midnightblue" points="849.2,-328.49 842.07,-336.32 852.53,-334.65 849.2,-328.49"/>
</g>
<!-- Node12&#45;&gt;Node2 -->
<g id="edge15" class="edge">
<title>Node12&#45;&gt;Node2</title>
<path fill="none" stroke="midnightblue" d="M554.77,-273.26C581.71,-247.28 639.4,-195.57 698,-168 737.69,-149.32 785.72,-138.09 823.94,-131.51"/>
<polygon fill="midnightblue" stroke="midnightblue" points="552.13,-270.94 547.43,-280.44 557.02,-275.95 552.13,-270.94"/>
</g>
<!-- Node12&#45;&gt;Node7 -->
<g id="edge16" class="edge">
<title>Node12&#45;&gt;Node7</title>
<path fill="none" stroke="midnightblue" d="M454.12,-288.99C302.3,-286.67 0,-270.55 0,-179 0,-179 0,-179 0,-121 0,-58.53 76.04,-31.26 134.12,-19.54"/>
<polygon fill="midnightblue" stroke="midnightblue" points="454.29,-292.5 464.34,-289.13 454.39,-285.5 454.29,-292.5"/>
</g>
<!-- Node13 -->
<g id="node13" class="node">
<title>Node13</title>
<g id="a_node13"><a xlink:href="_render_list_of_layouts_plugin_8h.html" target="_top" xlink:title="Definition of RenderListOfLayoutsPlugin, the plugin class of fbc package for the Model element.">
<polygon fill="white" stroke="black" points="488.5,-168.5 488.5,-187.5 645.5,-187.5 645.5,-168.5 488.5,-168.5"/>
<text text-anchor="middle" x="567" y="-175.5" font-family="Helvetica,sans-Serif" font-size="10.00">RenderListOfLayoutsPlugin.h</text>
</a>
</g>
</g>
<!-- Node12&#45;&gt;Node13 -->
<g id="edge17" class="edge">
<title>Node12&#45;&gt;Node13</title>
<path fill="none" stroke="midnightblue" d="M543.66,-270.67C549.79,-246.62 560.28,-205.39 564.81,-187.59"/>
<polygon fill="midnightblue" stroke="midnightblue" points="540.27,-269.81 541.2,-280.37 547.06,-271.54 540.27,-269.81"/>
</g>
<!-- Node15 -->
<g id="node15" class="node">
<title>Node15</title>
<g id="a_node15"><a xlink:href="_global_render_information_8cpp.html" target="_top" xlink:title="class for the storage of global render information">
<polygon fill="white" stroke="black" points="310,-168.5 310,-187.5 470,-187.5 470,-168.5 310,-168.5"/>
<text text-anchor="middle" x="390" y="-175.5" font-family="Helvetica,sans-Serif" font-size="10.00">GlobalRenderInformation.cpp</text>
</a>
</g>
</g>
<!-- Node12&#45;&gt;Node15 -->
<g id="edge22" class="edge">
<title>Node12&#45;&gt;Node15</title>
<path fill="none" stroke="midnightblue" d="M528.31,-271.54C518.88,-257.26 504,-237.34 487,-224 465.68,-207.27 437.12,-194.99 416.53,-187.52"/>
<polygon fill="midnightblue" stroke="midnightblue" points="525.61,-273.81 533.94,-280.36 531.52,-270.05 525.61,-273.81"/>
</g>
<!-- Node16 -->
<g id="node16" class="node">
<title>Node16</title>
<g id="a_node16"><a xlink:href="_list_of_global_render_information_8h.html" target="_top" xlink:title="Definition of the ListOfGlobalRenderInformation class.">
<polygon fill="white" stroke="black" points="301.5,-224.5 301.5,-243.5 478.5,-243.5 478.5,-224.5 301.5,-224.5"/>
<text text-anchor="middle" x="390" y="-231.5" font-family="Helvetica,sans-Serif" font-size="10.00">ListOfGlobalRenderInformation.h</text>
</a>
</g>
</g>
<!-- Node12&#45;&gt;Node16 -->
<g id="edge23" class="edge">
<title>Node12&#45;&gt;Node16</title>
<path fill="none" stroke="midnightblue" d="M500.67,-277.17C471.02,-267 431.44,-252.59 408.42,-243.52"/>
<polygon fill="midnightblue" stroke="midnightblue" points="499.71,-280.54 510.3,-280.44 501.96,-273.91 499.71,-280.54"/>
</g>
<!-- Node12&#45;&gt;Node18 -->
<g id="edge30" class="edge">
<title>Node12&#45;&gt;Node18</title>
<path fill="none" stroke="midnightblue" d="M583.08,-277.89C613.11,-269.78 653.53,-257.83 688,-244 730.33,-227.02 777.55,-201.1 801.04,-187.7"/>
<polygon fill="midnightblue" stroke="midnightblue" points="582.08,-274.53 573.32,-280.49 583.88,-281.3 582.08,-274.53"/>
</g>
<!-- Node13&#45;&gt;Node2 -->
<g id="edge18" class="edge">
<title>Node13&#45;&gt;Node2</title>
<path fill="none" stroke="midnightblue" d="M628.26,-166.79C689.48,-156.59 782.53,-141.08 839.9,-131.52"/>
<polygon fill="midnightblue" stroke="midnightblue" points="627.63,-163.35 618.34,-168.44 628.78,-170.25 627.63,-163.35"/>
</g>
<!-- Node13&#45;&gt;Node5 -->
<g id="edge21" class="edge">
<title>Node13&#45;&gt;Node5</title>
<path fill="none" stroke="midnightblue" d="M577.77,-159.68C594.67,-133.8 629.8,-84.95 671,-56 696.02,-38.41 728.81,-26.63 753.48,-19.55"/>
<polygon fill="midnightblue" stroke="midnightblue" points="574.64,-158.08 572.21,-168.39 580.54,-161.85 574.64,-158.08"/>
</g>
<!-- Node13&#45;&gt;Node7 -->
<g id="edge20" class="edge">
<title>Node13&#45;&gt;Node7</title>
<path fill="none" stroke="midnightblue" d="M538.64,-164.21C466.73,-131.77 278.71,-46.96 218.12,-19.62"/>
<polygon fill="midnightblue" stroke="midnightblue" points="537.43,-167.5 547.99,-168.42 540.31,-161.12 537.43,-167.5"/>
</g>
<!-- Node14 -->
<g id="node14" class="node">
<title>Node14</title>
<g id="a_node14"><a xlink:href="_render_extension_8cpp.html" target="_top" xlink:title="Implementation of RenderExtension, the core module of the render package.">
<polygon fill="white" stroke="black" points="988.5,-112.5 988.5,-131.5 1107.5,-131.5 1107.5,-112.5 988.5,-112.5"/>
<text text-anchor="middle" x="1048" y="-119.5" font-family="Helvetica,sans-Serif" font-size="10.00">RenderExtension.cpp</text>
</a>
</g>
</g>
<!-- Node13&#45;&gt;Node14 -->
<g id="edge19" class="edge">
<title>Node13&#45;&gt;Node14</title>
<path fill="none" stroke="midnightblue" d="M653.3,-167.32C734.51,-158.21 859.51,-144.19 968,-132 974.53,-131.27 981.36,-130.5 988.15,-129.73"/>
<polygon fill="midnightblue" stroke="midnightblue" points="652.68,-163.87 643.13,-168.46 653.46,-170.83 652.68,-163.87"/>
</g>
<!-- Node16&#45;&gt;Node2 -->
<g id="edge24" class="edge">
<title>Node16&#45;&gt;Node2</title>
<path fill="none" stroke="midnightblue" d="M350.79,-221.09C318.36,-209.32 280.67,-189.94 301,-168 335.85,-130.4 675.11,-124.07 822.84,-123.11"/>
<polygon fill="midnightblue" stroke="midnightblue" points="350.02,-224.53 360.61,-224.49 352.31,-217.91 350.02,-224.53"/>
</g>
<!-- Node16&#45;&gt;Node7 -->
<g id="edge25" class="edge">
<title>Node16&#45;&gt;Node7</title>
<path fill="none" stroke="midnightblue" d="M291.09,-233.45C204.16,-231.49 86.96,-222.28 57,-188 2.3,-125.41 134.23,-45.75 182.31,-19.68"/>
<polygon fill="midnightblue" stroke="midnightblue" points="291.2,-236.95 301.26,-233.65 291.33,-229.96 291.2,-236.95"/>
</g>
<!-- Node16&#45;&gt;Node12 -->
<g id="edge28" class="edge">
<title>Node16&#45;&gt;Node12</title>
<path fill="none" stroke="midnightblue" d="M428.2,-246.78C457.82,-256.94 497.41,-271.36 520.48,-280.44"/>
<polygon fill="midnightblue" stroke="midnightblue" points="429.17,-243.42 418.58,-243.52 426.92,-250.05 429.17,-243.42"/>
</g>
<!-- Node16&#45;&gt;Node13 -->
<g id="edge26" class="edge">
<title>Node16&#45;&gt;Node13</title>
<path fill="none" stroke="midnightblue" d="M427.9,-221.44C461.28,-211.26 509.1,-196.66 539.09,-187.52"/>
<polygon fill="midnightblue" stroke="midnightblue" points="426.59,-218.18 418.05,-224.44 428.63,-224.87 426.59,-218.18"/>
</g>
<!-- Node16&#45;&gt;Node15 -->
<g id="edge27" class="edge">
<title>Node16&#45;&gt;Node15</title>
<path fill="none" stroke="midnightblue" d="M390,-213.8C390,-204.91 390,-194.78 390,-187.75"/>
<polygon fill="midnightblue" stroke="midnightblue" points="386.5,-214.08 390,-224.08 393.5,-214.08 386.5,-214.08"/>
</g>
<!-- Node17 -->
<g id="node17" class="node">
<title>Node17</title>
<g id="a_node17"><a xlink:href="_list_of_global_render_information_8cpp.html" target="_top" xlink:title="Implementation of the ListOfGlobalRenderInformation class.">
<polygon fill="white" stroke="black" points="66,-168.5 66,-187.5 254,-187.5 254,-168.5 66,-168.5"/>
<text text-anchor="middle" x="160" y="-175.5" font-family="Helvetica,sans-Serif" font-size="10.00">ListOfGlobalRenderInformation.cpp</text>
</a>
</g>
</g>
<!-- Node16&#45;&gt;Node17 -->
<g id="edge29" class="edge">
<title>Node16&#45;&gt;Node17</title>
<path fill="none" stroke="midnightblue" d="M343.8,-222.15C300.34,-211.95 236.16,-196.88 196.27,-187.52"/>
<polygon fill="midnightblue" stroke="midnightblue" points="343.02,-225.57 353.56,-224.44 344.62,-218.75 343.02,-225.57"/>
</g>
<!-- Node19&#45;&gt;Node2 -->
<g id="edge32" class="edge">
<title>Node19&#45;&gt;Node2</title>
<path fill="none" stroke="midnightblue" d="M922.25,-270.42C917.43,-246.66 908.77,-204.23 901,-168 898.28,-155.32 895,-140.67 892.96,-131.62"/>
<polygon fill="midnightblue" stroke="midnightblue" points="918.87,-271.37 924.29,-280.48 925.73,-269.99 918.87,-271.37"/>
</g>
<!-- Node19&#45;&gt;Node13 -->
<g id="edge38" class="edge">
<title>Node19&#45;&gt;Node13</title>
<path fill="none" stroke="midnightblue" d="M888.51,-277.51C816.26,-255.38 659.21,-207.25 595.1,-187.61"/>
<polygon fill="midnightblue" stroke="midnightblue" points="887.54,-280.88 898.13,-280.46 889.59,-274.18 887.54,-280.88"/>
</g>
<!-- Node19&#45;&gt;Node18 -->
<g id="edge46" class="edge">
<title>Node19&#45;&gt;Node18</title>
<path fill="none" stroke="midnightblue" d="M910.21,-273.21C886.63,-249.63 843.03,-206.03 824.59,-187.59"/>
<polygon fill="midnightblue" stroke="midnightblue" points="907.82,-275.77 917.37,-280.37 912.77,-270.82 907.82,-275.77"/>
</g>
<!-- Node20 -->
<g id="node20" class="node">
<title>Node20</title>
<g id="a_node20"><a xlink:href="_render_layout_plugin_8h.html" target="_top" xlink:title="Definition of RenderLayoutPlugin, the plugin class of fbc package for the Model element.">
<polygon fill="white" stroke="black" points="1396.5,-168.5 1396.5,-187.5 1519.5,-187.5 1519.5,-168.5 1396.5,-168.5"/>
<text text-anchor="middle" x="1458" y="-175.5" font-family="Helvetica,sans-Serif" font-size="10.00">RenderLayoutPlugin.h</text>
</a>
</g>
</g>
<!-- Node19&#45;&gt;Node20 -->
<g id="edge33" class="edge">
<title>Node19&#45;&gt;Node20</title>
<path fill="none" stroke="midnightblue" d="M995.17,-278.99C1049.88,-270.71 1128.1,-258.06 1196,-244 1279.98,-226.61 1377.78,-200.87 1426.72,-187.6"/>
<polygon fill="midnightblue" stroke="midnightblue" points="994.61,-275.54 985.24,-280.49 995.65,-282.46 994.61,-275.54"/>
</g>
<!-- Node21 -->
<g id="node21" class="node">
<title>Node21</title>
<g id="a_node21"><a xlink:href="_list_of_local_render_information_8h.html" target="_top" xlink:title="Definition of the ListOfLocalRenderInformation class.">
<polygon fill="white" stroke="black" points="1015.5,-224.5 1015.5,-243.5 1186.5,-243.5 1186.5,-224.5 1015.5,-224.5"/>
<text text-anchor="middle" x="1101" y="-231.5" font-family="Helvetica,sans-Serif" font-size="10.00">ListOfLocalRenderInformation.h</text>
</a>
</g>
</g>
<!-- Node19&#45;&gt;Node21 -->
<g id="edge39" class="edge">
<title>Node19&#45;&gt;Node21</title>
<path fill="none" stroke="midnightblue" d="M963.47,-277.44C996.47,-267.26 1043.76,-252.66 1073.4,-243.52"/>
<polygon fill="midnightblue" stroke="midnightblue" points="962.25,-274.15 953.73,-280.44 964.32,-280.84 962.25,-274.15"/>
</g>
<!-- Node23 -->
<g id="node23" class="node">
<title>Node23</title>
<g id="a_node23"><a xlink:href="_local_render_information_8cpp.html" target="_top" xlink:title="Implementation of the LocalRenderInformation class.">
<polygon fill="white" stroke="black" points="948,-168.5 948,-187.5 1102,-187.5 1102,-168.5 948,-168.5"/>
<text text-anchor="middle" x="1025" y="-175.5" font-family="Helvetica,sans-Serif" font-size="10.00">LocalRenderInformation.cpp</text>
</a>
</g>
</g>
<!-- Node19&#45;&gt;Node23 -->
<g id="edge45" class="edge">
<title>Node19&#45;&gt;Node23</title>
<path fill="none" stroke="midnightblue" d="M940.49,-272.9C961.78,-249.25 1000.75,-205.95 1017.27,-187.59"/>
<polygon fill="midnightblue" stroke="midnightblue" points="937.86,-270.59 933.77,-280.37 943.06,-275.28 937.86,-270.59"/>
</g>
<!-- Node20&#45;&gt;Node2 -->
<g id="edge34" class="edge">
<title>Node20&#45;&gt;Node2</title>
<path fill="none" stroke="midnightblue" d="M1385.94,-168.41C1384.61,-168.27 1383.3,-168.14 1382,-168 1203.58,-149.45 1158.57,-149.02 980,-132 973.2,-131.35 966.1,-130.66 959.02,-129.96"/>
<polygon fill="midnightblue" stroke="midnightblue" points="1385.89,-171.93 1396.21,-169.53 1386.65,-164.97 1385.89,-171.93"/>
</g>
<!-- Node20&#45;&gt;Node3 -->
<g id="edge36" class="edge">
<title>Node20&#45;&gt;Node3</title>
<path fill="none" stroke="midnightblue" d="M1434.99,-163.06C1380.11,-129.81 1242.77,-46.6 1198.2,-19.61"/>
<polygon fill="midnightblue" stroke="midnightblue" points="1433.29,-166.12 1443.65,-168.31 1436.92,-160.13 1433.29,-166.12"/>
</g>
<!-- Node20&#45;&gt;Node5 -->
<g id="edge37" class="edge">
<title>Node20&#45;&gt;Node5</title>
<path fill="none" stroke="midnightblue" d="M1426.61,-164.53C1356.09,-136.67 1186.6,-70.67 1127,-56 1028.99,-31.87 911.61,-19.92 844.13,-14.63"/>
<polygon fill="midnightblue" stroke="midnightblue" points="1425.69,-167.93 1436.27,-168.35 1428.26,-161.42 1425.69,-167.93"/>
</g>
<!-- Node20&#45;&gt;Node14 -->
<g id="edge35" class="edge">
<title>Node20&#45;&gt;Node14</title>
<path fill="none" stroke="midnightblue" d="M1385.81,-167.49C1306.74,-157.08 1181.38,-140.57 1107.66,-130.86"/>
<polygon fill="midnightblue" stroke="midnightblue" points="1385.8,-171.02 1396.17,-168.86 1386.72,-164.08 1385.8,-171.02"/>
</g>
<!-- Node21&#45;&gt;Node2 -->
<g id="edge40" class="edge">
<title>Node21&#45;&gt;Node2</title>
<path fill="none" stroke="midnightblue" d="M1110.53,-215.06C1116.67,-200.79 1121.69,-181.1 1111,-168 1100.91,-155.64 1013.71,-140.68 952.18,-131.5"/>
<polygon fill="midnightblue" stroke="midnightblue" points="1107.26,-213.8 1106.08,-224.33 1113.57,-216.83 1107.26,-213.8"/>
</g>
<!-- Node21&#45;&gt;Node18 -->
<g id="edge44" class="edge">
<title>Node21&#45;&gt;Node18</title>
<path fill="none" stroke="midnightblue" d="M1045.78,-222.54C991.92,-212.33 911,-197 860.95,-187.52"/>
<polygon fill="midnightblue" stroke="midnightblue" points="1045.36,-226.02 1055.84,-224.44 1046.67,-219.14 1045.36,-226.02"/>
</g>
<!-- Node21&#45;&gt;Node20 -->
<g id="edge41" class="edge">
<title>Node21&#45;&gt;Node20</title>
<path fill="none" stroke="midnightblue" d="M1167.66,-222.92C1235.11,-212.71 1338.22,-197.12 1401.7,-187.52"/>
<polygon fill="midnightblue" stroke="midnightblue" points="1166.93,-219.49 1157.57,-224.44 1167.98,-226.41 1166.93,-219.49"/>
</g>
<!-- Node22 -->
<g id="node22" class="node">
<title>Node22</title>
<g id="a_node22"><a xlink:href="_list_of_local_render_information_8cpp.html" target="_top" xlink:title="Implementation of the ListOfLocalRenderInformation class.">
<polygon fill="white" stroke="black" points="1158,-168.5 1158,-187.5 1340,-187.5 1340,-168.5 1158,-168.5"/>
<text text-anchor="middle" x="1249" y="-175.5" font-family="Helvetica,sans-Serif" font-size="10.00">ListOfLocalRenderInformation.cpp</text>
</a>
</g>
</g>
<!-- Node21&#45;&gt;Node22 -->
<g id="edge42" class="edge">
<title>Node21&#45;&gt;Node22</title>
<path fill="none" stroke="midnightblue" d="M1134.15,-220.91C1161.97,-210.75 1201.02,-196.51 1225.66,-187.52"/>
<polygon fill="midnightblue" stroke="midnightblue" points="1132.65,-217.73 1124.45,-224.44 1135.04,-224.3 1132.65,-217.73"/>
</g>
<!-- Node21&#45;&gt;Node23 -->
<g id="edge43" class="edge">
<title>Node21&#45;&gt;Node23</title>
<path fill="none" stroke="midnightblue" d="M1080.42,-218.38C1066.69,-208.62 1049.07,-196.11 1037.43,-187.83"/>
<polygon fill="midnightblue" stroke="midnightblue" points="1078.61,-221.38 1088.79,-224.32 1082.66,-215.68 1078.61,-221.38"/>
</g>
</g>
</svg>
