<?xml version="1.0" encoding="UTF-8" standalone="no"?>
<!DOCTYPE svg PUBLIC "-//W3C//DTD SVG 1.1//EN"
 "http://www.w3.org/Graphics/SVG/1.1/DTD/svg11.dtd">
<!-- Generated by graphviz version 2.43.0 (0)
 -->
<!-- Title: ListOfCSGNodes.h Pages: 1 -->
<svg width="768pt" height="196pt"
 viewBox="0.00 0.00 767.50 196.00" xmlns="http://www.w3.org/2000/svg" xmlns:xlink="http://www.w3.org/1999/xlink">
<g id="graph0" class="graph" transform="scale(1 1) rotate(0) translate(4 192)">
<title>ListOfCSGNodes.h</title>
<polygon fill="white" stroke="transparent" points="-4,4 -4,-192 763.5,-192 763.5,4 -4,4"/>
<!-- Node1 -->
<g id="node1" class="node">
<title>Node1</title>
<g id="a_node1"><a xlink:title="Definition of the ListOfCSGNodes class.">
<polygon fill="#bfbfbf" stroke="black" points="306,-168.5 306,-187.5 411,-187.5 411,-168.5 306,-168.5"/>
<text text-anchor="middle" x="358.5" y="-175.5" font-family="Helvetica,sans-Serif" font-size="10.00">ListOfCSGNodes.h</text>
</a>
</g>
</g>
<!-- Node2 -->
<g id="node2" class="node">
<title>Node2</title>
<g id="a_node2"><a xlink:href="_c_s_g_node_8cpp.html" target="_top" xlink:title="Implementation of the CSGNode class.">
<polygon fill="white" stroke="black" points="0,-56.5 0,-75.5 83,-75.5 83,-56.5 0,-56.5"/>
<text text-anchor="middle" x="41.5" y="-63.5" font-family="Helvetica,sans-Serif" font-size="10.00">CSGNode.cpp</text>
</a>
</g>
</g>
<!-- Node1&#45;&gt;Node2 -->
<g id="edge1" class="edge">
<title>Node1&#45;&gt;Node2</title>
<path fill="none" stroke="midnightblue" d="M324.22,-165.1C259.9,-142.79 122.57,-95.13 66.31,-75.61"/>
<polygon fill="midnightblue" stroke="midnightblue" points="323.29,-168.49 333.89,-168.46 325.59,-161.88 323.29,-168.49"/>
</g>
<!-- Node3 -->
<g id="node3" class="node">
<title>Node3</title>
<g id="a_node3"><a xlink:href="_c_s_g_set_operator_8h.html" target="_top" xlink:title="Definition of the CSGSetOperator class.">
<polygon fill="white" stroke="black" points="306.5,-112.5 306.5,-131.5 410.5,-131.5 410.5,-112.5 306.5,-112.5"/>
<text text-anchor="middle" x="358.5" y="-119.5" font-family="Helvetica,sans-Serif" font-size="10.00">CSGSetOperator.h</text>
</a>
</g>
</g>
<!-- Node1&#45;&gt;Node3 -->
<g id="edge2" class="edge">
<title>Node1&#45;&gt;Node3</title>
<path fill="none" stroke="midnightblue" d="M358.5,-157.8C358.5,-148.91 358.5,-138.78 358.5,-131.75"/>
<polygon fill="midnightblue" stroke="midnightblue" points="355,-158.08 358.5,-168.08 362,-158.08 355,-158.08"/>
</g>
<!-- Node9 -->
<g id="node9" class="node">
<title>Node9</title>
<g id="a_node9"><a xlink:href="_list_of_c_s_g_nodes_8cpp.html" target="_top" xlink:title="Implementation of the ListOfCSGNodes class.">
<polygon fill="white" stroke="black" points="643.5,-56.5 643.5,-75.5 759.5,-75.5 759.5,-56.5 643.5,-56.5"/>
<text text-anchor="middle" x="701.5" y="-63.5" font-family="Helvetica,sans-Serif" font-size="10.00">ListOfCSGNodes.cpp</text>
</a>
</g>
</g>
<!-- Node1&#45;&gt;Node9 -->
<g id="edge10" class="edge">
<title>Node1&#45;&gt;Node9</title>
<path fill="none" stroke="midnightblue" d="M394.74,-165.38C463.96,-143.18 613.53,-95.21 674.65,-75.61"/>
<polygon fill="midnightblue" stroke="midnightblue" points="393.58,-162.07 385.13,-168.46 395.72,-168.74 393.58,-162.07"/>
</g>
<!-- Node3&#45;&gt;Node2 -->
<g id="edge5" class="edge">
<title>Node3&#45;&gt;Node2</title>
<path fill="none" stroke="midnightblue" d="M296.66,-110.78C242.52,-101.78 161.76,-88.24 91.5,-76 88.81,-75.53 86.03,-75.04 83.24,-74.55"/>
<polygon fill="midnightblue" stroke="midnightblue" points="296.35,-114.27 306.79,-112.46 297.49,-107.37 296.35,-114.27"/>
</g>
<!-- Node4 -->
<g id="node4" class="node">
<title>Node4</title>
<g id="a_node4"><a xlink:href="_spatial_extension_types_8h.html" target="_top" xlink:title="Definition of SpatialExtensionTypes.">
<polygon fill="white" stroke="black" points="101,-56.5 101,-75.5 236,-75.5 236,-56.5 101,-56.5"/>
<text text-anchor="middle" x="168.5" y="-63.5" font-family="Helvetica,sans-Serif" font-size="10.00">SpatialExtensionTypes.h</text>
</a>
</g>
</g>
<!-- Node3&#45;&gt;Node4 -->
<g id="edge3" class="edge">
<title>Node3&#45;&gt;Node4</title>
<path fill="none" stroke="midnightblue" d="M318.74,-109.7C282.88,-99.51 230.93,-84.74 198.47,-75.52"/>
<polygon fill="midnightblue" stroke="midnightblue" points="317.82,-113.08 328.39,-112.44 319.73,-106.34 317.82,-113.08"/>
</g>
<!-- Node6 -->
<g id="node6" class="node">
<title>Node6</title>
<g id="a_node6"><a xlink:href="_c_s_g_object_8cpp.html" target="_top" xlink:title="Implementation of the CSGObject class.">
<polygon fill="white" stroke="black" points="254,-56.5 254,-75.5 343,-75.5 343,-56.5 254,-56.5"/>
<text text-anchor="middle" x="298.5" y="-63.5" font-family="Helvetica,sans-Serif" font-size="10.00">CSGObject.cpp</text>
</a>
</g>
</g>
<!-- Node3&#45;&gt;Node6 -->
<g id="edge6" class="edge">
<title>Node3&#45;&gt;Node6</title>
<path fill="none" stroke="midnightblue" d="M341.32,-105.54C330.62,-95.91 317.24,-83.87 308.32,-75.83"/>
<polygon fill="midnightblue" stroke="midnightblue" points="339.09,-108.24 348.86,-112.32 343.77,-103.03 339.09,-108.24"/>
</g>
<!-- Node7 -->
<g id="node7" class="node">
<title>Node7</title>
<g id="a_node7"><a xlink:href="_c_s_g_set_operator_8cpp.html" target="_top" xlink:title="Implementation of the CSGSetOperator class.">
<polygon fill="white" stroke="black" points="361,-56.5 361,-75.5 476,-75.5 476,-56.5 361,-56.5"/>
<text text-anchor="middle" x="418.5" y="-63.5" font-family="Helvetica,sans-Serif" font-size="10.00">CSGSetOperator.cpp</text>
</a>
</g>
</g>
<!-- Node3&#45;&gt;Node7 -->
<g id="edge7" class="edge">
<title>Node3&#45;&gt;Node7</title>
<path fill="none" stroke="midnightblue" d="M375.68,-105.54C386.38,-95.91 399.76,-83.87 408.68,-75.83"/>
<polygon fill="midnightblue" stroke="midnightblue" points="373.23,-103.03 368.14,-112.32 377.91,-108.24 373.23,-103.03"/>
</g>
<!-- Node8 -->
<g id="node8" class="node">
<title>Node8</title>
<g id="a_node8"><a xlink:href="_c_s_g_transformation_8cpp.html" target="_top" xlink:title="Implementation of the CSGTransformation class.">
<polygon fill="white" stroke="black" points="494,-56.5 494,-75.5 625,-75.5 625,-56.5 494,-56.5"/>
<text text-anchor="middle" x="559.5" y="-63.5" font-family="Helvetica,sans-Serif" font-size="10.00">CSGTransformation.cpp</text>
</a>
</g>
</g>
<!-- Node3&#45;&gt;Node8 -->
<g id="edge8" class="edge">
<title>Node3&#45;&gt;Node8</title>
<path fill="none" stroke="midnightblue" d="M400.08,-109.83C438.03,-99.63 493.31,-84.78 527.8,-75.52"/>
<polygon fill="midnightblue" stroke="midnightblue" points="399.1,-106.47 390.35,-112.44 400.91,-113.23 399.1,-106.47"/>
</g>
<!-- Node3&#45;&gt;Node9 -->
<g id="edge9" class="edge">
<title>Node3&#45;&gt;Node9</title>
<path fill="none" stroke="midnightblue" d="M420.67,-111.21C485.46,-101.01 585.93,-85.19 647.5,-75.5"/>
<polygon fill="midnightblue" stroke="midnightblue" points="419.93,-107.79 410.59,-112.8 421.02,-114.7 419.93,-107.79"/>
</g>
<!-- Node5 -->
<g id="node5" class="node">
<title>Node5</title>
<g id="a_node5"><a xlink:href="_spatial_validator_8cpp.html" target="_top" xlink:title="Definition of SpatialValidator.">
<polygon fill="white" stroke="black" points="112,-0.5 112,-19.5 225,-19.5 225,-0.5 112,-0.5"/>
<text text-anchor="middle" x="168.5" y="-7.5" font-family="Helvetica,sans-Serif" font-size="10.00">SpatialValidator.cpp</text>
</a>
</g>
</g>
<!-- Node4&#45;&gt;Node5 -->
<g id="edge4" class="edge">
<title>Node4&#45;&gt;Node5</title>
<path fill="none" stroke="midnightblue" d="M168.5,-45.8C168.5,-36.91 168.5,-26.78 168.5,-19.75"/>
<polygon fill="midnightblue" stroke="midnightblue" points="165,-46.08 168.5,-56.08 172,-46.08 165,-46.08"/>
</g>
</g>
</svg>
