<?xml version="1.0" encoding="UTF-8" standalone="no"?>
<!DOCTYPE svg PUBLIC "-//W3C//DTD SVG 1.1//EN"
 "http://www.w3.org/Graphics/SVG/1.1/DTD/svg11.dtd">
<!-- Generated by graphviz version 2.43.0 (0)
 -->
<!-- Title: ListOfSampledVolumes.h Pages: 1 -->
<!--zoomable 196 -->
<svg id="main" version="1.1" xmlns="http://www.w3.org/2000/svg" xmlns:xlink="http://www.w3.org/1999/xlink" xml:space="preserve" onload="init(evt)">
<style type="text/css"><![CDATA[
.edge:hover path { stroke: red; }
.edge:hover polygon { stroke: red; fill: red; }
]]></style>
<script type="text/javascript"><![CDATA[
var edges = document.getElementsByTagName('g');
if (edges && edges.length) {
  for (var i=0;i<edges.length;i++) {
    if (edges[i].id.substr(0,4)=='edge') {
      edges[i].setAttribute('class','edge');
    }
  }
}
]]></script>
        <defs>
                <circle id="rim" cx="0" cy="0" r="7"/>
                <circle id="rim2" cx="0" cy="0" r="3.5"/>
                <g id="zoomPlus">
                        <use xlink:href="#rim" fill="#404040">
                                <set attributeName="fill" to="#808080" begin="zoomplus.mouseover" end="zoomplus.mouseout"/>
                        </use>
                        <path d="M-4,0h8M0,-4v8" fill="none" stroke="white" stroke-width="1.5" pointer-events="none"/>
                </g>
                <g id="zoomMin">
                        <use xlink:href="#rim" fill="#404040">
                                <set attributeName="fill" to="#808080" begin="zoomminus.mouseover" end="zoomminus.mouseout"/>
                        </use>
                        <path d="M-4,0h8" fill="none" stroke="white" stroke-width="1.5" pointer-events="none"/>
                </g>
                <g id="dirArrow">
                        <path fill="none" stroke="white" stroke-width="1.5" d="M0,-3.0v7 M-2.5,-0.5L0,-3.0L2.5,-0.5"/>
                </g>
               <g id="resetDef">
                       <use xlink:href="#rim2" fill="#404040">
                               <set attributeName="fill" to="#808080" begin="reset.mouseover" end="reset.mouseout"/>
                       </use>
               </g>
        </defs>

<script type="text/javascript">
var viewWidth = 882;
var viewHeight = 196;
var sectionId = 'dynsection-1';
</script>
<script xlink:href="svgpan.js"/>
<svg id="graph" class="graph">
<g id="viewport">
<title>ListOfSampledVolumes.h</title>
<polygon fill="white" stroke="transparent" points="-4,4 -4,-192 877.5,-192 877.5,4 -4,4"/>
<!-- Node1 -->
<g id="node1" class="node">
<title>Node1</title>
<g id="a_node1"><a xlink:title="Definition of the ListOfSampledVolumes class.">
<polygon fill="#bfbfbf" stroke="black" points="337,-168.5 337,-187.5 476,-187.5 476,-168.5 337,-168.5"/>
<text text-anchor="middle" x="406.5" y="-175.5" font-family="Helvetica,sans-Serif" font-size="10.00">ListOfSampledVolumes.h</text>
</a>
</g>
</g>
<!-- Node2 -->
<g id="node2" class="node">
<title>Node2</title>
<g id="a_node2"><a xlink:href="_list_of_sampled_volumes_8cpp.html" target="_top" xlink:title="Implementation of the ListOfSampledVolumes class.">
<polygon fill="white" stroke="black" points="168.5,-112.5 168.5,-131.5 318.5,-131.5 318.5,-112.5 168.5,-112.5"/>
<text text-anchor="middle" x="243.5" y="-119.5" font-family="Helvetica,sans-Serif" font-size="10.00">ListOfSampledVolumes.cpp</text>
</a>
</g>
</g>
<!-- Node1&#45;&gt;Node2 -->
<g id="edge1" class="edge">
<title>Node1&#45;&gt;Node2</title>
<path fill="none" stroke="midnightblue" d="M370.8,-165.17C340.1,-155 296.58,-140.59 269.21,-131.52"/>
<polygon fill="midnightblue" stroke="midnightblue" points="370.08,-168.62 380.67,-168.44 372.28,-161.98 370.08,-168.62"/>
</g>
<!-- Node3 -->
<g id="node3" class="node">
<title>Node3</title>
<g id="a_node3"><a xlink:href="_sampled_field_geometry_8h.html" target="_top" xlink:title="Definition of the SampledFieldGeometry class.">
<polygon fill="white" stroke="black" points="337,-112.5 337,-131.5 476,-131.5 476,-112.5 337,-112.5"/>
<text text-anchor="middle" x="406.5" y="-119.5" font-family="Helvetica,sans-Serif" font-size="10.00">SampledFieldGeometry.h</text>
</a>
</g>
</g>
<!-- Node1&#45;&gt;Node3 -->
<g id="edge2" class="edge">
<title>Node1&#45;&gt;Node3</title>
<path fill="none" stroke="midnightblue" d="M406.5,-157.8C406.5,-148.91 406.5,-138.78 406.5,-131.75"/>
<polygon fill="midnightblue" stroke="midnightblue" points="403,-158.08 406.5,-168.08 410,-158.08 403,-158.08"/>
</g>
<!-- Node11 -->
<g id="node11" class="node">
<title>Node11</title>
<g id="a_node11"><a xlink:href="_sampled_volume_8cpp.html" target="_top" xlink:title="Implementation of the SampledVolume class.">
<polygon fill="white" stroke="black" points="494.5,-112.5 494.5,-131.5 610.5,-131.5 610.5,-112.5 494.5,-112.5"/>
<text text-anchor="middle" x="552.5" y="-119.5" font-family="Helvetica,sans-Serif" font-size="10.00">SampledVolume.cpp</text>
</a>
</g>
</g>
<!-- Node1&#45;&gt;Node11 -->
<g id="edge10" class="edge">
<title>Node1&#45;&gt;Node11</title>
<path fill="none" stroke="midnightblue" d="M439.2,-164.91C466.65,-154.75 505.17,-140.51 529.47,-131.52"/>
<polygon fill="midnightblue" stroke="midnightblue" points="437.8,-161.69 429.63,-168.44 440.23,-168.26 437.8,-161.69"/>
</g>
<!-- Node4 -->
<g id="node4" class="node">
<title>Node4</title>
<g id="a_node4"><a xlink:href="_spatial_extension_types_8h.html" target="_top" xlink:title="Definition of SpatialExtensionTypes.">
<polygon fill="white" stroke="black" points="0,-56.5 0,-75.5 135,-75.5 135,-56.5 0,-56.5"/>
<text text-anchor="middle" x="67.5" y="-63.5" font-family="Helvetica,sans-Serif" font-size="10.00">SpatialExtensionTypes.h</text>
</a>
</g>
</g>
<!-- Node3&#45;&gt;Node4 -->
<g id="edge3" class="edge">
<title>Node3&#45;&gt;Node4</title>
<path fill="none" stroke="midnightblue" d="M342.8,-110.85C278.75,-100.65 181.11,-85.1 120.96,-75.52"/>
<polygon fill="midnightblue" stroke="midnightblue" points="342.36,-114.33 352.78,-112.44 343.46,-107.41 342.36,-114.33"/>
</g>
<!-- Node6 -->
<g id="node6" class="node">
<title>Node6</title>
<g id="a_node6"><a xlink:href="_geometry_8cpp.html" target="_top" xlink:title="Implementation of the Geometry class.">
<polygon fill="white" stroke="black" points="153.5,-56.5 153.5,-75.5 237.5,-75.5 237.5,-56.5 153.5,-56.5"/>
<text text-anchor="middle" x="195.5" y="-63.5" font-family="Helvetica,sans-Serif" font-size="10.00">Geometry.cpp</text>
</a>
</g>
</g>
<!-- Node3&#45;&gt;Node6 -->
<g id="edge5" class="edge">
<title>Node3&#45;&gt;Node6</title>
<path fill="none" stroke="midnightblue" d="M363.36,-109.96C323.51,-99.76 265.14,-84.82 228.78,-75.52"/>
<polygon fill="midnightblue" stroke="midnightblue" points="362.51,-113.35 373.07,-112.44 364.25,-106.57 362.51,-113.35"/>
</g>
<!-- Node7 -->
<g id="node7" class="node">
<title>Node7</title>
<g id="a_node7"><a xlink:href="_geometry_definition_8cpp.html" target="_top" xlink:title="Implementation of the GeometryDefinition class.">
<polygon fill="white" stroke="black" points="256,-56.5 256,-75.5 389,-75.5 389,-56.5 256,-56.5"/>
<text text-anchor="middle" x="322.5" y="-63.5" font-family="Helvetica,sans-Serif" font-size="10.00">GeometryDefinition.cpp</text>
</a>
</g>
</g>
<!-- Node3&#45;&gt;Node7 -->
<g id="edge6" class="edge">
<title>Node3&#45;&gt;Node7</title>
<path fill="none" stroke="midnightblue" d="M384.57,-106.9C369.16,-97 349.05,-84.07 335.96,-75.65"/>
<polygon fill="midnightblue" stroke="midnightblue" points="382.7,-109.86 393,-112.32 386.48,-103.97 382.7,-109.86"/>
</g>
<!-- Node8 -->
<g id="node8" class="node">
<title>Node8</title>
<g id="a_node8"><a xlink:href="_list_of_geometry_definitions_8cpp.html" target="_top" xlink:title="Implementation of the ListOfGeometryDefinitions class.">
<polygon fill="white" stroke="black" points="407,-56.5 407,-75.5 574,-75.5 574,-56.5 407,-56.5"/>
<text text-anchor="middle" x="490.5" y="-63.5" font-family="Helvetica,sans-Serif" font-size="10.00">ListOfGeometryDefinitions.cpp</text>
</a>
</g>
</g>
<!-- Node3&#45;&gt;Node8 -->
<g id="edge7" class="edge">
<title>Node3&#45;&gt;Node8</title>
<path fill="none" stroke="midnightblue" d="M428.43,-106.9C443.84,-97 463.95,-84.07 477.04,-75.65"/>
<polygon fill="midnightblue" stroke="midnightblue" points="426.52,-103.97 420,-112.32 430.3,-109.86 426.52,-103.97"/>
</g>
<!-- Node9 -->
<g id="node9" class="node">
<title>Node9</title>
<g id="a_node9"><a xlink:href="_mixed_geometry_8cpp.html" target="_top" xlink:title="Implementation of the MixedGeometry class.">
<polygon fill="white" stroke="black" points="592,-56.5 592,-75.5 705,-75.5 705,-56.5 592,-56.5"/>
<text text-anchor="middle" x="648.5" y="-63.5" font-family="Helvetica,sans-Serif" font-size="10.00">MixedGeometry.cpp</text>
</a>
</g>
</g>
<!-- Node3&#45;&gt;Node9 -->
<g id="edge8" class="edge">
<title>Node3&#45;&gt;Node9</title>
<path fill="none" stroke="midnightblue" d="M454.82,-110.22C500.55,-100.01 568.28,-84.9 610.33,-75.52"/>
<polygon fill="midnightblue" stroke="midnightblue" points="453.84,-106.85 444.85,-112.44 455.37,-113.68 453.84,-106.85"/>
</g>
<!-- Node10 -->
<g id="node10" class="node">
<title>Node10</title>
<g id="a_node10"><a xlink:href="_sampled_field_geometry_8cpp.html" target="_top" xlink:title="Implementation of the SampledFieldGeometry class.">
<polygon fill="white" stroke="black" points="723.5,-56.5 723.5,-75.5 873.5,-75.5 873.5,-56.5 723.5,-56.5"/>
<text text-anchor="middle" x="798.5" y="-63.5" font-family="Helvetica,sans-Serif" font-size="10.00">SampledFieldGeometry.cpp</text>
</a>
</g>
</g>
<!-- Node3&#45;&gt;Node10 -->
<g id="edge9" class="edge">
<title>Node3&#45;&gt;Node10</title>
<path fill="none" stroke="midnightblue" d="M478.79,-111.04C552.82,-100.84 666.69,-85.16 736.68,-75.52"/>
<polygon fill="midnightblue" stroke="midnightblue" points="478.04,-107.61 468.61,-112.44 479,-114.55 478.04,-107.61"/>
</g>
<!-- Node5 -->
<g id="node5" class="node">
<title>Node5</title>
<g id="a_node5"><a xlink:href="_spatial_validator_8cpp.html" target="_top" xlink:title="Definition of SpatialValidator.">
<polygon fill="white" stroke="black" points="11,-0.5 11,-19.5 124,-19.5 124,-0.5 11,-0.5"/>
<text text-anchor="middle" x="67.5" y="-7.5" font-family="Helvetica,sans-Serif" font-size="10.00">SpatialValidator.cpp</text>
</a>
</g>
</g>
<!-- Node4&#45;&gt;Node5 -->
<g id="edge4" class="edge">
<title>Node4&#45;&gt;Node5</title>
<path fill="none" stroke="midnightblue" d="M67.5,-45.8C67.5,-36.91 67.5,-26.78 67.5,-19.75"/>
<polygon fill="midnightblue" stroke="midnightblue" points="64,-46.08 67.5,-56.08 71,-46.08 64,-46.08"/>
</g>
</g>
</svg>
        <g id="navigator" transform="translate(0 0)" fill="#404254">
                <rect fill="#f2f5e9" fill-opacity="0.5" stroke="#606060" stroke-width=".5" x="0" y="0" width="60" height="60"/>
                <use id="zoomplus" xlink:href="#zoomPlus" x="17" y="9" onmousedown="handleZoom(evt,'in')"/>
                <use id="zoomminus" xlink:href="#zoomMin" x="42" y="9" onmousedown="handleZoom(evt,'out')"/>
                <use id="reset" xlink:href="#resetDef" x="30" y="36" onmousedown="handleReset()"/>
                <g id="arrowUp" xlink:href="#dirArrow" transform="translate(30 24)" onmousedown="handlePan(0,-1)">
                  <use xlink:href="#rim" fill="#404040">
                        <set attributeName="fill" to="#808080" begin="arrowUp.mouseover" end="arrowUp.mouseout"/>
                  </use>
                  <path fill="none" stroke="white" stroke-width="1.5" d="M0,-3.0v7 M-2.5,-0.5L0,-3.0L2.5,-0.5"/>
                </g>
                <g id="arrowRight" xlink:href="#dirArrow" transform="rotate(90) translate(36 -43)" onmousedown="handlePan(1,0)">
                  <use xlink:href="#rim" fill="#404040">
                        <set attributeName="fill" to="#808080" begin="arrowRight.mouseover" end="arrowRight.mouseout"/>
                  </use>
                  <path fill="none" stroke="white" stroke-width="1.5" d="M0,-3.0v7 M-2.5,-0.5L0,-3.0L2.5,-0.5"/>
                </g>
                <g id="arrowDown" xlink:href="#dirArrow" transform="rotate(180) translate(-30 -48)" onmousedown="handlePan(0,1)">
                  <use xlink:href="#rim" fill="#404040">
                        <set attributeName="fill" to="#808080" begin="arrowDown.mouseover" end="arrowDown.mouseout"/>
                  </use>
                  <path fill="none" stroke="white" stroke-width="1.5" d="M0,-3.0v7 M-2.5,-0.5L0,-3.0L2.5,-0.5"/>
                </g>
                <g id="arrowLeft" xlink:href="#dirArrow" transform="rotate(270) translate(-36 17)" onmousedown="handlePan(-1,0)">
                  <use xlink:href="#rim" fill="#404040">
                        <set attributeName="fill" to="#808080" begin="arrowLeft.mouseover" end="arrowLeft.mouseout"/>
                  </use>
                  <path fill="none" stroke="white" stroke-width="1.5" d="M0,-3.0v7 M-2.5,-0.5L0,-3.0L2.5,-0.5"/>
                </g>
        </g>
        <svg viewBox="0 0 15 15" width="100%" height="30px" preserveAspectRatio="xMaxYMin meet">
         <g id="arrow_out" transform="scale(0.3 0.3)">
          <a xlink:href="_list_of_sampled_volumes_8h__dep__incl_org.svg" target="_base">
           <rect id="button" ry="5" rx="5" y="6" x="6" height="38" width="38"
                fill="#f2f5e9" fill-opacity="0.5" stroke="#606060" stroke-width="1.0"/>
           <path id="arrow"
             d="M 11.500037,31.436501 C 11.940474,20.09759 22.043105,11.32322 32.158766,21.979434 L 37.068811,17.246167 C 37.068811,17.246167 37.088388,32 37.088388,32 L 22.160133,31.978069 C 22.160133,31.978069 26.997745,27.140456 26.997745,27.140456 C 18.528582,18.264221 13.291696,25.230495 11.500037,31.436501 z"
             style="fill:#404040;"/>
          </a>
         </g>
        </svg>
</svg>
