<?xml version="1.0" encoding="UTF-8" standalone="no"?>
<!DOCTYPE svg PUBLIC "-//W3C//DTD SVG 1.1//EN"
 "http://www.w3.org/Graphics/SVG/1.1/DTD/svg11.dtd">
<!-- Generated by graphviz version 2.43.0 (0)
 -->
<!-- Title: ListOfLocalRenderInformation.h Pages: 1 -->
<!--zoomable 252 -->
<svg id="main" version="1.1" xmlns="http://www.w3.org/2000/svg" xmlns:xlink="http://www.w3.org/1999/xlink" xml:space="preserve" onload="init(evt)">
<style type="text/css"><![CDATA[
.edge:hover path { stroke: red; }
.edge:hover polygon { stroke: red; fill: red; }
]]></style>
<script type="text/javascript"><![CDATA[
var edges = document.getElementsByTagName('g');
if (edges && edges.length) {
  for (var i=0;i<edges.length;i++) {
    if (edges[i].id.substr(0,4)=='edge') {
      edges[i].setAttribute('class','edge');
    }
  }
}
]]></script>
        <defs>
                <circle id="rim" cx="0" cy="0" r="7"/>
                <circle id="rim2" cx="0" cy="0" r="3.5"/>
                <g id="zoomPlus">
                        <use xlink:href="#rim" fill="#404040">
                                <set attributeName="fill" to="#808080" begin="zoomplus.mouseover" end="zoomplus.mouseout"/>
                        </use>
                        <path d="M-4,0h8M0,-4v8" fill="none" stroke="white" stroke-width="1.5" pointer-events="none"/>
                </g>
                <g id="zoomMin">
                        <use xlink:href="#rim" fill="#404040">
                                <set attributeName="fill" to="#808080" begin="zoomminus.mouseover" end="zoomminus.mouseout"/>
                        </use>
                        <path d="M-4,0h8" fill="none" stroke="white" stroke-width="1.5" pointer-events="none"/>
                </g>
                <g id="dirArrow">
                        <path fill="none" stroke="white" stroke-width="1.5" d="M0,-3.0v7 M-2.5,-0.5L0,-3.0L2.5,-0.5"/>
                </g>
               <g id="resetDef">
                       <use xlink:href="#rim2" fill="#404040">
                               <set attributeName="fill" to="#808080" begin="reset.mouseover" end="reset.mouseout"/>
                       </use>
               </g>
        </defs>

<script type="text/javascript">
var viewWidth = 1013;
var viewHeight = 252;
var sectionId = 'dynsection-1';
</script>
<script xlink:href="svgpan.js"/>
<svg id="graph" class="graph">
<g id="viewport">
<title>ListOfLocalRenderInformation.h</title>
<polygon fill="white" stroke="transparent" points="-4,4 -4,-248 1009,-248 1009,4 -4,4"/>
<!-- Node1 -->
<g id="node1" class="node">
<title>Node1</title>
<g id="a_node1"><a xlink:title="Definition of the ListOfLocalRenderInformation class.">
<polygon fill="#bfbfbf" stroke="black" points="486.5,-224.5 486.5,-243.5 657.5,-243.5 657.5,-224.5 486.5,-224.5"/>
<text text-anchor="middle" x="572" y="-231.5" font-family="Helvetica,sans-Serif" font-size="10.00">ListOfLocalRenderInformation.h</text>
</a>
</g>
</g>
<!-- Node2 -->
<g id="node2" class="node">
<title>Node2</title>
<g id="a_node2"><a xlink:href="_render_extension_types_8h.html" target="_top" xlink:title="Definition of RenderExtensionTypes.">
<polygon fill="white" stroke="black" points="243,-112.5 243,-131.5 379,-131.5 379,-112.5 243,-112.5"/>
<text text-anchor="middle" x="311" y="-119.5" font-family="Helvetica,sans-Serif" font-size="10.00">RenderExtensionTypes.h</text>
</a>
</g>
</g>
<!-- Node1&#45;&gt;Node2 -->
<g id="edge1" class="edge">
<title>Node1&#45;&gt;Node2</title>
<path fill="none" stroke="midnightblue" d="M476.22,-225.22C418.65,-218.66 352.5,-207.18 331,-188 314.61,-173.38 311.48,-145.69 310.99,-131.64"/>
<polygon fill="midnightblue" stroke="midnightblue" points="476.16,-228.73 486.48,-226.35 476.93,-221.77 476.16,-228.73"/>
</g>
<!-- Node9 -->
<g id="node9" class="node">
<title>Node9</title>
<g id="a_node9"><a xlink:href="_render_layout_plugin_8h.html" target="_top" xlink:title="Definition of RenderLayoutPlugin, the plugin class of fbc package for the Model element.">
<polygon fill="white" stroke="black" points="339.5,-168.5 339.5,-187.5 462.5,-187.5 462.5,-168.5 339.5,-168.5"/>
<text text-anchor="middle" x="401" y="-175.5" font-family="Helvetica,sans-Serif" font-size="10.00">RenderLayoutPlugin.h</text>
</a>
</g>
</g>
<!-- Node1&#45;&gt;Node9 -->
<g id="edge10" class="edge">
<title>Node1&#45;&gt;Node9</title>
<path fill="none" stroke="midnightblue" d="M534.96,-221.3C502.74,-211.13 456.81,-196.62 427.97,-187.52"/>
<polygon fill="midnightblue" stroke="midnightblue" points="534.31,-224.77 544.9,-224.44 536.42,-218.09 534.31,-224.77"/>
</g>
<!-- Node11 -->
<g id="node11" class="node">
<title>Node11</title>
<g id="a_node11"><a xlink:href="_list_of_local_render_information_8cpp.html" target="_top" xlink:title="Implementation of the ListOfLocalRenderInformation class.">
<polygon fill="white" stroke="black" points="481,-168.5 481,-187.5 663,-187.5 663,-168.5 481,-168.5"/>
<text text-anchor="middle" x="572" y="-175.5" font-family="Helvetica,sans-Serif" font-size="10.00">ListOfLocalRenderInformation.cpp</text>
</a>
</g>
</g>
<!-- Node1&#45;&gt;Node11 -->
<g id="edge15" class="edge">
<title>Node1&#45;&gt;Node11</title>
<path fill="none" stroke="midnightblue" d="M572,-213.8C572,-204.91 572,-194.78 572,-187.75"/>
<polygon fill="midnightblue" stroke="midnightblue" points="568.5,-214.08 572,-224.08 575.5,-214.08 568.5,-214.08"/>
</g>
<!-- Node12 -->
<g id="node12" class="node">
<title>Node12</title>
<g id="a_node12"><a xlink:href="_local_render_information_8cpp.html" target="_top" xlink:title="Implementation of the LocalRenderInformation class.">
<polygon fill="white" stroke="black" points="681,-168.5 681,-187.5 835,-187.5 835,-168.5 681,-168.5"/>
<text text-anchor="middle" x="758" y="-175.5" font-family="Helvetica,sans-Serif" font-size="10.00">LocalRenderInformation.cpp</text>
</a>
</g>
</g>
<!-- Node1&#45;&gt;Node12 -->
<g id="edge16" class="edge">
<title>Node1&#45;&gt;Node12</title>
<path fill="none" stroke="midnightblue" d="M611.38,-221.57C646.47,-211.38 697.02,-196.7 728.67,-187.52"/>
<polygon fill="midnightblue" stroke="midnightblue" points="610.1,-218.29 601.47,-224.44 612.05,-225.02 610.1,-218.29"/>
</g>
<!-- Node13 -->
<g id="node13" class="node">
<title>Node13</title>
<g id="a_node13"><a xlink:href="_render_information_base_8cpp.html" target="_top" xlink:title="Implementation of the RenderInformationBase class.">
<polygon fill="white" stroke="black" points="853,-168.5 853,-187.5 1005,-187.5 1005,-168.5 853,-168.5"/>
<text text-anchor="middle" x="929" y="-175.5" font-family="Helvetica,sans-Serif" font-size="10.00">RenderInformationBase.cpp</text>
</a>
</g>
</g>
<!-- Node1&#45;&gt;Node13 -->
<g id="edge17" class="edge">
<title>Node1&#45;&gt;Node13</title>
<path fill="none" stroke="midnightblue" d="M638.66,-222.92C706.11,-212.71 809.22,-197.12 872.7,-187.52"/>
<polygon fill="midnightblue" stroke="midnightblue" points="637.93,-219.49 628.57,-224.44 638.98,-226.41 637.93,-219.49"/>
</g>
<!-- Node3 -->
<g id="node3" class="node">
<title>Node3</title>
<g id="a_node3"><a xlink:href="_render_layout_plugin_8cpp.html" target="_top" xlink:title="Implementation of RenderLayoutPlugin, the plugin class of the fbc package for the Model element.">
<polygon fill="white" stroke="black" points="0,-0.5 0,-19.5 134,-19.5 134,-0.5 0,-0.5"/>
<text text-anchor="middle" x="67" y="-7.5" font-family="Helvetica,sans-Serif" font-size="10.00">RenderLayoutPlugin.cpp</text>
</a>
</g>
</g>
<!-- Node2&#45;&gt;Node3 -->
<g id="edge2" class="edge">
<title>Node2&#45;&gt;Node3</title>
<path fill="none" stroke="midnightblue" d="M232.5,-113.03C197.39,-106.81 156.65,-95.73 124,-76 100.11,-61.56 80.84,-33.79 72.1,-19.68"/>
<polygon fill="midnightblue" stroke="midnightblue" points="232.28,-116.54 242.72,-114.74 233.44,-109.64 232.28,-116.54"/>
</g>
<!-- Node4 -->
<g id="node4" class="node">
<title>Node4</title>
<g id="a_node4"><a xlink:href="_render_layout_converter_8cpp.html" target="_top" xlink:title="Simple converter to convert Layout + Render from l2 to L3 and vice versa.">
<polygon fill="white" stroke="black" points="287,-56.5 287,-75.5 439,-75.5 439,-56.5 287,-56.5"/>
<text text-anchor="middle" x="363" y="-63.5" font-family="Helvetica,sans-Serif" font-size="10.00">RenderLayoutConverter.cpp</text>
</a>
</g>
</g>
<!-- Node2&#45;&gt;Node4 -->
<g id="edge3" class="edge">
<title>Node2&#45;&gt;Node4</title>
<path fill="none" stroke="midnightblue" d="M326.68,-104.72C335.84,-95.2 347.05,-83.56 354.57,-75.75"/>
<polygon fill="midnightblue" stroke="midnightblue" points="324,-102.45 319.59,-112.08 329.04,-107.31 324,-102.45"/>
</g>
<!-- Node5 -->
<g id="node5" class="node">
<title>Node5</title>
<g id="a_node5"><a xlink:href="_render_utilities_8cpp.html" target="_top" xlink:title="implementation of RenderUtilities, a class of utility functions for the render package">
<polygon fill="white" stroke="black" points="338,-0.5 338,-19.5 448,-19.5 448,-0.5 338,-0.5"/>
<text text-anchor="middle" x="393" y="-7.5" font-family="Helvetica,sans-Serif" font-size="10.00">RenderUtilities.cpp</text>
</a>
</g>
</g>
<!-- Node2&#45;&gt;Node5 -->
<g id="edge4" class="edge">
<title>Node2&#45;&gt;Node5</title>
<path fill="none" stroke="midnightblue" d="M293.33,-104.99C280.55,-91.42 267.26,-71.73 278,-56 291.6,-36.08 315.45,-24.98 337.92,-18.79"/>
<polygon fill="midnightblue" stroke="midnightblue" points="291.04,-107.64 300.61,-112.19 295.96,-102.67 291.04,-107.64"/>
</g>
<!-- Node6 -->
<g id="node6" class="node">
<title>Node6</title>
<g id="a_node6"><a xlink:href="_render_utilities_8h.html" target="_top" xlink:title="Definition of RenderUtilities, a class of utility functions for the render package.">
<polygon fill="white" stroke="black" points="133,-56.5 133,-75.5 231,-75.5 231,-56.5 133,-56.5"/>
<text text-anchor="middle" x="182" y="-63.5" font-family="Helvetica,sans-Serif" font-size="10.00">RenderUtilities.h</text>
</a>
</g>
</g>
<!-- Node2&#45;&gt;Node6 -->
<g id="edge5" class="edge">
<title>Node2&#45;&gt;Node6</title>
<path fill="none" stroke="midnightblue" d="M281.15,-108.5C256.96,-98.38 223.54,-84.39 202.34,-75.52"/>
<polygon fill="midnightblue" stroke="midnightblue" points="279.98,-111.81 290.56,-112.44 282.69,-105.35 279.98,-111.81"/>
</g>
<!-- Node8 -->
<g id="node8" class="node">
<title>Node8</title>
<g id="a_node8"><a xlink:href="_render_validator_8cpp.html" target="_top" xlink:title="Definition of RenderValidator.">
<polygon fill="white" stroke="black" points="457,-56.5 457,-75.5 571,-75.5 571,-56.5 457,-56.5"/>
<text text-anchor="middle" x="514" y="-63.5" font-family="Helvetica,sans-Serif" font-size="10.00">RenderValidator.cpp</text>
</a>
</g>
</g>
<!-- Node2&#45;&gt;Node8 -->
<g id="edge9" class="edge">
<title>Node2&#45;&gt;Node8</title>
<path fill="none" stroke="midnightblue" d="M352.99,-109.83C391.32,-99.63 447.15,-84.78 481.98,-75.52"/>
<polygon fill="midnightblue" stroke="midnightblue" points="351.93,-106.49 343.17,-112.44 353.73,-113.26 351.93,-106.49"/>
</g>
<!-- Node6&#45;&gt;Node3 -->
<g id="edge6" class="edge">
<title>Node6&#45;&gt;Node3</title>
<path fill="none" stroke="midnightblue" d="M154.52,-52.1C133.03,-42.01 103.78,-28.27 85.14,-19.52"/>
<polygon fill="midnightblue" stroke="midnightblue" points="153.24,-55.36 163.78,-56.44 156.21,-49.02 153.24,-55.36"/>
</g>
<!-- Node6&#45;&gt;Node5 -->
<g id="edge8" class="edge">
<title>Node6&#45;&gt;Node5</title>
<path fill="none" stroke="midnightblue" d="M225.14,-53.96C264.99,-43.76 323.36,-28.82 359.72,-19.52"/>
<polygon fill="midnightblue" stroke="midnightblue" points="224.25,-50.57 215.43,-56.44 225.99,-57.35 224.25,-50.57"/>
</g>
<!-- Node7 -->
<g id="node7" class="node">
<title>Node7</title>
<g id="a_node7"><a xlink:href="_render_list_of_layouts_plugin_8cpp.html" target="_top" xlink:title="Implementation of RenderListOfLayoutsPlugin, the plugin class of the fbc package for the Model elemen...">
<polygon fill="white" stroke="black" points="152,-0.5 152,-19.5 320,-19.5 320,-0.5 152,-0.5"/>
<text text-anchor="middle" x="236" y="-7.5" font-family="Helvetica,sans-Serif" font-size="10.00">RenderListOfLayoutsPlugin.cpp</text>
</a>
</g>
</g>
<!-- Node6&#45;&gt;Node7 -->
<g id="edge7" class="edge">
<title>Node6&#45;&gt;Node7</title>
<path fill="none" stroke="midnightblue" d="M198,-49C207.57,-39.43 219.36,-27.64 227.25,-19.75"/>
<polygon fill="midnightblue" stroke="midnightblue" points="195.51,-46.54 190.92,-56.08 200.46,-51.49 195.51,-46.54"/>
</g>
<!-- Node9&#45;&gt;Node2 -->
<g id="edge11" class="edge">
<title>Node9&#45;&gt;Node2</title>
<path fill="none" stroke="midnightblue" d="M377.96,-163.18C361.4,-153.24 339.58,-140.15 325.42,-131.65"/>
<polygon fill="midnightblue" stroke="midnightblue" points="376.16,-166.18 386.54,-168.32 379.77,-160.18 376.16,-166.18"/>
</g>
<!-- Node9&#45;&gt;Node3 -->
<g id="edge13" class="edge">
<title>Node9&#45;&gt;Node3</title>
<path fill="none" stroke="midnightblue" d="M329.24,-170.61C261.28,-160.94 160.45,-136.7 97,-76 80.47,-60.19 72.21,-33.53 68.86,-19.78"/>
<polygon fill="midnightblue" stroke="midnightblue" points="329.06,-174.12 339.44,-171.99 329.99,-167.18 329.06,-174.12"/>
</g>
<!-- Node9&#45;&gt;Node5 -->
<g id="edge14" class="edge">
<title>Node9&#45;&gt;Node5</title>
<path fill="none" stroke="midnightblue" d="M448.17,-165.86C514.34,-148.02 622.17,-109.53 580,-56 563.83,-35.48 497.54,-23.23 448.46,-16.81"/>
<polygon fill="midnightblue" stroke="midnightblue" points="447.12,-162.52 438.34,-168.44 448.9,-169.29 447.12,-162.52"/>
</g>
<!-- Node10 -->
<g id="node10" class="node">
<title>Node10</title>
<g id="a_node10"><a xlink:href="_render_extension_8cpp.html" target="_top" xlink:title="Implementation of RenderExtension, the core module of the render package.">
<polygon fill="white" stroke="black" points="627.5,-112.5 627.5,-131.5 746.5,-131.5 746.5,-112.5 627.5,-112.5"/>
<text text-anchor="middle" x="687" y="-119.5" font-family="Helvetica,sans-Serif" font-size="10.00">RenderExtension.cpp</text>
</a>
</g>
</g>
<!-- Node9&#45;&gt;Node10 -->
<g id="edge12" class="edge">
<title>Node9&#45;&gt;Node10</title>
<path fill="none" stroke="midnightblue" d="M456.41,-166.54C510.47,-156.33 591.67,-141 641.89,-131.52"/>
<polygon fill="midnightblue" stroke="midnightblue" points="455.49,-163.15 446.32,-168.44 456.79,-170.03 455.49,-163.15"/>
</g>
</g>
</svg>
        <g id="navigator" transform="translate(0 0)" fill="#404254">
                <rect fill="#f2f5e9" fill-opacity="0.5" stroke="#606060" stroke-width=".5" x="0" y="0" width="60" height="60"/>
                <use id="zoomplus" xlink:href="#zoomPlus" x="17" y="9" onmousedown="handleZoom(evt,'in')"/>
                <use id="zoomminus" xlink:href="#zoomMin" x="42" y="9" onmousedown="handleZoom(evt,'out')"/>
                <use id="reset" xlink:href="#resetDef" x="30" y="36" onmousedown="handleReset()"/>
                <g id="arrowUp" xlink:href="#dirArrow" transform="translate(30 24)" onmousedown="handlePan(0,-1)">
                  <use xlink:href="#rim" fill="#404040">
                        <set attributeName="fill" to="#808080" begin="arrowUp.mouseover" end="arrowUp.mouseout"/>
                  </use>
                  <path fill="none" stroke="white" stroke-width="1.5" d="M0,-3.0v7 M-2.5,-0.5L0,-3.0L2.5,-0.5"/>
                </g>
                <g id="arrowRight" xlink:href="#dirArrow" transform="rotate(90) translate(36 -43)" onmousedown="handlePan(1,0)">
                  <use xlink:href="#rim" fill="#404040">
                        <set attributeName="fill" to="#808080" begin="arrowRight.mouseover" end="arrowRight.mouseout"/>
                  </use>
                  <path fill="none" stroke="white" stroke-width="1.5" d="M0,-3.0v7 M-2.5,-0.5L0,-3.0L2.5,-0.5"/>
                </g>
                <g id="arrowDown" xlink:href="#dirArrow" transform="rotate(180) translate(-30 -48)" onmousedown="handlePan(0,1)">
                  <use xlink:href="#rim" fill="#404040">
                        <set attributeName="fill" to="#808080" begin="arrowDown.mouseover" end="arrowDown.mouseout"/>
                  </use>
                  <path fill="none" stroke="white" stroke-width="1.5" d="M0,-3.0v7 M-2.5,-0.5L0,-3.0L2.5,-0.5"/>
                </g>
                <g id="arrowLeft" xlink:href="#dirArrow" transform="rotate(270) translate(-36 17)" onmousedown="handlePan(-1,0)">
                  <use xlink:href="#rim" fill="#404040">
                        <set attributeName="fill" to="#808080" begin="arrowLeft.mouseover" end="arrowLeft.mouseout"/>
                  </use>
                  <path fill="none" stroke="white" stroke-width="1.5" d="M0,-3.0v7 M-2.5,-0.5L0,-3.0L2.5,-0.5"/>
                </g>
        </g>
        <svg viewBox="0 0 15 15" width="100%" height="30px" preserveAspectRatio="xMaxYMin meet">
         <g id="arrow_out" transform="scale(0.3 0.3)">
          <a xlink:href="_list_of_local_render_information_8h__dep__incl_org.svg" target="_base">
           <rect id="button" ry="5" rx="5" y="6" x="6" height="38" width="38"
                fill="#f2f5e9" fill-opacity="0.5" stroke="#606060" stroke-width="1.0"/>
           <path id="arrow"
             d="M 11.500037,31.436501 C 11.940474,20.09759 22.043105,11.32322 32.158766,21.979434 L 37.068811,17.246167 C 37.068811,17.246167 37.088388,32 37.088388,32 L 22.160133,31.978069 C 22.160133,31.978069 26.997745,27.140456 26.997745,27.140456 C 18.528582,18.264221 13.291696,25.230495 11.500037,31.436501 z"
             style="fill:#404040;"/>
          </a>
         </g>
        </svg>
</svg>
