<?xml version="1.0" encoding="UTF-8" standalone="no"?>
<!DOCTYPE svg PUBLIC "-//W3C//DTD SVG 1.1//EN"
 "http://www.w3.org/Graphics/SVG/1.1/DTD/svg11.dtd">
<!-- Generated by graphviz version 2.43.0 (0)
 -->
<!-- Title: ListOfLocalStyles.h Pages: 1 -->
<svg width="978pt" height="364pt"
 viewBox="0.00 0.00 977.73 364.00" xmlns="http://www.w3.org/2000/svg" xmlns:xlink="http://www.w3.org/1999/xlink">
<g id="graph0" class="graph" transform="scale(1 1) rotate(0) translate(4 360)">
<title>ListOfLocalStyles.h</title>
<polygon fill="white" stroke="transparent" points="-4,4 -4,-360 973.73,-360 973.73,4 -4,4"/>
<!-- Node1 -->
<g id="node1" class="node">
<title>Node1</title>
<g id="a_node1"><a xlink:title="Definition of the ListOfLocalStyles class.">
<polygon fill="#bfbfbf" stroke="black" points="388.73,-336.5 388.73,-355.5 498.73,-355.5 498.73,-336.5 388.73,-336.5"/>
<text text-anchor="middle" x="443.73" y="-343.5" font-family="Helvetica,sans-Serif" font-size="10.00">ListOfLocalStyles.h</text>
</a>
</g>
</g>
<!-- Node2 -->
<g id="node2" class="node">
<title>Node2</title>
<g id="a_node2"><a xlink:href="_render_extension_types_8h.html" target="_top" xlink:title="Definition of RenderExtensionTypes.">
<polygon fill="white" stroke="black" points="371.73,-112.5 371.73,-131.5 507.73,-131.5 507.73,-112.5 371.73,-112.5"/>
<text text-anchor="middle" x="439.73" y="-119.5" font-family="Helvetica,sans-Serif" font-size="10.00">RenderExtensionTypes.h</text>
</a>
</g>
</g>
<!-- Node1&#45;&gt;Node2 -->
<g id="edge1" class="edge">
<title>Node1&#45;&gt;Node2</title>
<path fill="none" stroke="midnightblue" d="M378.73,-340.44C235.8,-328.14 -84.94,-286.76 21.73,-168 44.62,-142.51 258.76,-130.21 371.32,-125.46"/>
<polygon fill="midnightblue" stroke="midnightblue" points="378.45,-343.93 388.71,-341.28 379.03,-336.95 378.45,-343.93"/>
</g>
<!-- Node9 -->
<g id="node9" class="node">
<title>Node9</title>
<g id="a_node9"><a xlink:href="_list_of_local_styles_8cpp.html" target="_top" xlink:title="Implementation of the ListOfLocalStyles class.">
<polygon fill="white" stroke="black" points="383.23,-280.5 383.23,-299.5 504.23,-299.5 504.23,-280.5 383.23,-280.5"/>
<text text-anchor="middle" x="443.73" y="-287.5" font-family="Helvetica,sans-Serif" font-size="10.00">ListOfLocalStyles.cpp</text>
</a>
</g>
</g>
<!-- Node1&#45;&gt;Node9 -->
<g id="edge10" class="edge">
<title>Node1&#45;&gt;Node9</title>
<path fill="none" stroke="midnightblue" d="M443.73,-325.8C443.73,-316.91 443.73,-306.78 443.73,-299.75"/>
<polygon fill="midnightblue" stroke="midnightblue" points="440.23,-326.08 443.73,-336.08 447.23,-326.08 440.23,-326.08"/>
</g>
<!-- Node10 -->
<g id="node10" class="node">
<title>Node10</title>
<g id="a_node10"><a xlink:href="_local_render_information_8h.html" target="_top" xlink:title="Definition of the LocalRenderInformation class.">
<polygon fill="white" stroke="black" points="222.23,-280.5 222.23,-299.5 365.23,-299.5 365.23,-280.5 222.23,-280.5"/>
<text text-anchor="middle" x="293.73" y="-287.5" font-family="Helvetica,sans-Serif" font-size="10.00">LocalRenderInformation.h</text>
</a>
</g>
</g>
<!-- Node1&#45;&gt;Node10 -->
<g id="edge11" class="edge">
<title>Node1&#45;&gt;Node10</title>
<path fill="none" stroke="midnightblue" d="M410.5,-333.04C382.28,-322.88 342.46,-308.55 317.38,-299.52"/>
<polygon fill="midnightblue" stroke="midnightblue" points="409.36,-336.35 419.96,-336.44 411.74,-329.76 409.36,-336.35"/>
</g>
<!-- Node18 -->
<g id="node18" class="node">
<title>Node18</title>
<g id="a_node18"><a xlink:href="_local_style_8cpp.html" target="_top" xlink:title="class for representing a local style">
<polygon fill="white" stroke="black" points="522.23,-280.5 522.23,-299.5 609.23,-299.5 609.23,-280.5 522.23,-280.5"/>
<text text-anchor="middle" x="565.73" y="-287.5" font-family="Helvetica,sans-Serif" font-size="10.00">LocalStyle.cpp</text>
</a>
</g>
</g>
<!-- Node1&#45;&gt;Node18 -->
<g id="edge31" class="edge">
<title>Node1&#45;&gt;Node18</title>
<path fill="none" stroke="midnightblue" d="M472.27,-332.37C495.11,-322.26 526.53,-308.35 546.49,-299.52"/>
<polygon fill="midnightblue" stroke="midnightblue" points="470.79,-329.2 463.06,-336.44 473.62,-335.6 470.79,-329.2"/>
</g>
<!-- Node19 -->
<g id="node19" class="node">
<title>Node19</title>
<g id="a_node19"><a xlink:href="_style_8cpp.html" target="_top" xlink:title="Implementation of the Style class.">
<polygon fill="white" stroke="black" points="627.73,-280.5 627.73,-299.5 689.73,-299.5 689.73,-280.5 627.73,-280.5"/>
<text text-anchor="middle" x="658.73" y="-287.5" font-family="Helvetica,sans-Serif" font-size="10.00">Style.cpp</text>
</a>
</g>
</g>
<!-- Node1&#45;&gt;Node19 -->
<g id="edge32" class="edge">
<title>Node1&#45;&gt;Node19</title>
<path fill="none" stroke="midnightblue" d="M487.66,-333.96C529.31,-323.5 590.81,-308.06 627.61,-298.82"/>
<polygon fill="midnightblue" stroke="midnightblue" points="486.64,-330.61 477.79,-336.44 488.35,-337.4 486.64,-330.61"/>
</g>
<!-- Node3 -->
<g id="node3" class="node">
<title>Node3</title>
<g id="a_node3"><a xlink:href="_render_layout_plugin_8cpp.html" target="_top" xlink:title="Implementation of RenderLayoutPlugin, the plugin class of the fbc package for the Model element.">
<polygon fill="white" stroke="black" points="482.73,-0.5 482.73,-19.5 616.73,-19.5 616.73,-0.5 482.73,-0.5"/>
<text text-anchor="middle" x="549.73" y="-7.5" font-family="Helvetica,sans-Serif" font-size="10.00">RenderLayoutPlugin.cpp</text>
</a>
</g>
</g>
<!-- Node2&#45;&gt;Node3 -->
<g id="edge2" class="edge">
<title>Node2&#45;&gt;Node3</title>
<path fill="none" stroke="midnightblue" d="M404.56,-108.71C376.21,-96.87 343.66,-77.6 360.73,-56 375.88,-36.81 434.5,-24.92 482.49,-18.22"/>
<polygon fill="midnightblue" stroke="midnightblue" points="403.35,-112 413.93,-112.44 405.93,-105.49 403.35,-112"/>
</g>
<!-- Node4 -->
<g id="node4" class="node">
<title>Node4</title>
<g id="a_node4"><a xlink:href="_render_layout_converter_8cpp.html" target="_top" xlink:title="Simple converter to convert Layout + Render from l2 to L3 and vice versa.">
<polygon fill="white" stroke="black" points="161.73,-56.5 161.73,-75.5 313.73,-75.5 313.73,-56.5 161.73,-56.5"/>
<text text-anchor="middle" x="237.73" y="-63.5" font-family="Helvetica,sans-Serif" font-size="10.00">RenderLayoutConverter.cpp</text>
</a>
</g>
</g>
<!-- Node2&#45;&gt;Node4 -->
<g id="edge3" class="edge">
<title>Node2&#45;&gt;Node4</title>
<path fill="none" stroke="midnightblue" d="M397.94,-109.83C359.8,-99.63 304.25,-84.78 269.58,-75.52"/>
<polygon fill="midnightblue" stroke="midnightblue" points="397.15,-113.24 407.72,-112.44 398.96,-106.48 397.15,-113.24"/>
</g>
<!-- Node5 -->
<g id="node5" class="node">
<title>Node5</title>
<g id="a_node5"><a xlink:href="_render_utilities_8cpp.html" target="_top" xlink:title="implementation of RenderUtilities, a class of utility functions for the render package">
<polygon fill="white" stroke="black" points="641.73,-0.5 641.73,-19.5 751.73,-19.5 751.73,-0.5 641.73,-0.5"/>
<text text-anchor="middle" x="696.73" y="-7.5" font-family="Helvetica,sans-Serif" font-size="10.00">RenderUtilities.cpp</text>
</a>
</g>
</g>
<!-- Node2&#45;&gt;Node5 -->
<g id="edge4" class="edge">
<title>Node2&#45;&gt;Node5</title>
<path fill="none" stroke="midnightblue" d="M464.3,-107.42C489.93,-93.55 531.49,-71.85 568.73,-56 602.54,-41.61 642.67,-28.05 668.87,-19.65"/>
<polygon fill="midnightblue" stroke="midnightblue" points="462.41,-104.47 455.3,-112.33 465.76,-110.61 462.41,-104.47"/>
</g>
<!-- Node6 -->
<g id="node6" class="node">
<title>Node6</title>
<g id="a_node6"><a xlink:href="_render_utilities_8h.html" target="_top" xlink:title="Definition of RenderUtilities, a class of utility functions for the render package.">
<polygon fill="white" stroke="black" points="577.73,-56.5 577.73,-75.5 675.73,-75.5 675.73,-56.5 577.73,-56.5"/>
<text text-anchor="middle" x="626.73" y="-63.5" font-family="Helvetica,sans-Serif" font-size="10.00">RenderUtilities.h</text>
</a>
</g>
</g>
<!-- Node2&#45;&gt;Node6 -->
<g id="edge5" class="edge">
<title>Node2&#45;&gt;Node6</title>
<path fill="none" stroke="midnightblue" d="M479.32,-109.57C514.59,-99.38 565.42,-84.7 597.23,-75.52"/>
<polygon fill="midnightblue" stroke="midnightblue" points="477.99,-106.31 469.36,-112.44 479.94,-113.03 477.99,-106.31"/>
</g>
<!-- Node8 -->
<g id="node8" class="node">
<title>Node8</title>
<g id="a_node8"><a xlink:href="_render_validator_8cpp.html" target="_top" xlink:title="Definition of RenderValidator.">
<polygon fill="white" stroke="black" points="369.73,-56.5 369.73,-75.5 483.73,-75.5 483.73,-56.5 369.73,-56.5"/>
<text text-anchor="middle" x="426.73" y="-63.5" font-family="Helvetica,sans-Serif" font-size="10.00">RenderValidator.cpp</text>
</a>
</g>
</g>
<!-- Node2&#45;&gt;Node8 -->
<g id="edge9" class="edge">
<title>Node2&#45;&gt;Node8</title>
<path fill="none" stroke="midnightblue" d="M435.18,-102.1C433.02,-93.14 430.54,-82.86 428.83,-75.75"/>
<polygon fill="midnightblue" stroke="midnightblue" points="431.84,-103.18 437.58,-112.08 438.64,-101.54 431.84,-103.18"/>
</g>
<!-- Node6&#45;&gt;Node3 -->
<g id="edge6" class="edge">
<title>Node6&#45;&gt;Node3</title>
<path fill="none" stroke="midnightblue" d="M605.83,-50.34C591.82,-40.52 573.84,-27.91 562.07,-19.65"/>
<polygon fill="midnightblue" stroke="midnightblue" points="604.16,-53.45 614.35,-56.32 608.18,-47.72 604.16,-53.45"/>
</g>
<!-- Node6&#45;&gt;Node5 -->
<g id="edge8" class="edge">
<title>Node6&#45;&gt;Node5</title>
<path fill="none" stroke="midnightblue" d="M646.04,-50.1C658.64,-40.38 674.65,-28.03 685.28,-19.83"/>
<polygon fill="midnightblue" stroke="midnightblue" points="643.75,-47.44 637.97,-56.32 648.03,-52.99 643.75,-47.44"/>
</g>
<!-- Node7 -->
<g id="node7" class="node">
<title>Node7</title>
<g id="a_node7"><a xlink:href="_render_list_of_layouts_plugin_8cpp.html" target="_top" xlink:title="Implementation of RenderListOfLayoutsPlugin, the plugin class of the fbc package for the Model elemen...">
<polygon fill="white" stroke="black" points="801.73,-0.5 801.73,-19.5 969.73,-19.5 969.73,-0.5 801.73,-0.5"/>
<text text-anchor="middle" x="885.73" y="-7.5" font-family="Helvetica,sans-Serif" font-size="10.00">RenderListOfLayoutsPlugin.cpp</text>
</a>
</g>
</g>
<!-- Node6&#45;&gt;Node7 -->
<g id="edge7" class="edge">
<title>Node6&#45;&gt;Node7</title>
<path fill="none" stroke="midnightblue" d="M677.83,-54.35C726.77,-44.14 799.68,-28.94 844.88,-19.52"/>
<polygon fill="midnightblue" stroke="midnightblue" points="676.84,-50.98 667.77,-56.44 678.27,-57.83 676.84,-50.98"/>
</g>
<!-- Node10&#45;&gt;Node2 -->
<g id="edge12" class="edge">
<title>Node10&#45;&gt;Node2</title>
<path fill="none" stroke="midnightblue" d="M212.07,-279.11C117.02,-264.45 -20.12,-231.54 36.73,-168 58.61,-143.54 262.5,-130.83 371.58,-125.74"/>
<polygon fill="midnightblue" stroke="midnightblue" points="211.58,-282.58 221.99,-280.6 212.62,-275.66 211.58,-282.58"/>
</g>
<!-- Node11 -->
<g id="node11" class="node">
<title>Node11</title>
<g id="a_node11"><a xlink:href="_render_layout_plugin_8h.html" target="_top" xlink:title="Definition of RenderLayoutPlugin, the plugin class of fbc package for the Model element.">
<polygon fill="white" stroke="black" points="626.23,-168.5 626.23,-187.5 749.23,-187.5 749.23,-168.5 626.23,-168.5"/>
<text text-anchor="middle" x="687.73" y="-175.5" font-family="Helvetica,sans-Serif" font-size="10.00">RenderLayoutPlugin.h</text>
</a>
</g>
</g>
<!-- Node10&#45;&gt;Node11 -->
<g id="edge13" class="edge">
<title>Node10&#45;&gt;Node11</title>
<path fill="none" stroke="midnightblue" d="M373.16,-279C421.4,-271.79 483.87,-260.4 537.73,-244 587.95,-228.7 643.92,-201.57 671.1,-187.7"/>
<polygon fill="midnightblue" stroke="midnightblue" points="372.47,-275.56 363.09,-280.48 373.49,-282.49 372.47,-275.56"/>
</g>
<!-- Node13 -->
<g id="node13" class="node">
<title>Node13</title>
<g id="a_node13"><a xlink:href="_render_list_of_layouts_plugin_8h.html" target="_top" xlink:title="Definition of RenderListOfLayoutsPlugin, the plugin class of fbc package for the Model element.">
<polygon fill="white" stroke="black" points="767.23,-168.5 767.23,-187.5 924.23,-187.5 924.23,-168.5 767.23,-168.5"/>
<text text-anchor="middle" x="845.73" y="-175.5" font-family="Helvetica,sans-Serif" font-size="10.00">RenderListOfLayoutsPlugin.h</text>
</a>
</g>
</g>
<!-- Node10&#45;&gt;Node13 -->
<g id="edge18" class="edge">
<title>Node10&#45;&gt;Node13</title>
<path fill="none" stroke="midnightblue" d="M367.51,-279.05C425.22,-270.86 507.37,-258.29 578.73,-244 664.57,-226.8 764.53,-200.86 814.27,-187.55"/>
<polygon fill="midnightblue" stroke="midnightblue" points="366.79,-275.61 357.38,-280.48 367.77,-282.55 366.79,-275.61"/>
</g>
<!-- Node14 -->
<g id="node14" class="node">
<title>Node14</title>
<g id="a_node14"><a xlink:href="_list_of_local_render_information_8h.html" target="_top" xlink:title="Definition of the ListOfLocalRenderInformation class.">
<polygon fill="white" stroke="black" points="357.23,-224.5 357.23,-243.5 528.23,-243.5 528.23,-224.5 357.23,-224.5"/>
<text text-anchor="middle" x="442.73" y="-231.5" font-family="Helvetica,sans-Serif" font-size="10.00">ListOfLocalRenderInformation.h</text>
</a>
</g>
</g>
<!-- Node10&#45;&gt;Node14 -->
<g id="edge23" class="edge">
<title>Node10&#45;&gt;Node14</title>
<path fill="none" stroke="midnightblue" d="M327.1,-276.91C355.11,-266.75 394.42,-252.51 419.23,-243.52"/>
<polygon fill="midnightblue" stroke="midnightblue" points="325.54,-273.75 317.34,-280.44 327.93,-280.33 325.54,-273.75"/>
</g>
<!-- Node16 -->
<g id="node16" class="node">
<title>Node16</title>
<g id="a_node16"><a xlink:href="_local_render_information_8cpp.html" target="_top" xlink:title="Implementation of the LocalRenderInformation class.">
<polygon fill="white" stroke="black" points="45.73,-168.5 45.73,-187.5 199.73,-187.5 199.73,-168.5 45.73,-168.5"/>
<text text-anchor="middle" x="122.73" y="-175.5" font-family="Helvetica,sans-Serif" font-size="10.00">LocalRenderInformation.cpp</text>
</a>
</g>
</g>
<!-- Node10&#45;&gt;Node16 -->
<g id="edge29" class="edge">
<title>Node10&#45;&gt;Node16</title>
<path fill="none" stroke="midnightblue" d="M271.52,-274.71C235.48,-251.53 165.37,-206.43 136.08,-187.59"/>
<polygon fill="midnightblue" stroke="midnightblue" points="270,-277.9 280.31,-280.37 273.79,-272.01 270,-277.9"/>
</g>
<!-- Node17 -->
<g id="node17" class="node">
<title>Node17</title>
<g id="a_node17"><a xlink:href="_render_information_base_8cpp.html" target="_top" xlink:title="Implementation of the RenderInformationBase class.">
<polygon fill="white" stroke="black" points="217.73,-168.5 217.73,-187.5 369.73,-187.5 369.73,-168.5 217.73,-168.5"/>
<text text-anchor="middle" x="293.73" y="-175.5" font-family="Helvetica,sans-Serif" font-size="10.00">RenderInformationBase.cpp</text>
</a>
</g>
</g>
<!-- Node10&#45;&gt;Node17 -->
<g id="edge30" class="edge">
<title>Node10&#45;&gt;Node17</title>
<path fill="none" stroke="midnightblue" d="M293.73,-270.35C293.73,-246.25 293.73,-205.31 293.73,-187.59"/>
<polygon fill="midnightblue" stroke="midnightblue" points="290.23,-270.37 293.73,-280.37 297.23,-270.37 290.23,-270.37"/>
</g>
<!-- Node11&#45;&gt;Node2 -->
<g id="edge14" class="edge">
<title>Node11&#45;&gt;Node2</title>
<path fill="none" stroke="midnightblue" d="M638.5,-166.28C591.64,-156.08 522.03,-140.92 478.84,-131.52"/>
<polygon fill="midnightblue" stroke="midnightblue" points="637.91,-169.74 648.43,-168.44 639.4,-162.9 637.91,-169.74"/>
</g>
<!-- Node11&#45;&gt;Node3 -->
<g id="edge16" class="edge">
<title>Node11&#45;&gt;Node3</title>
<path fill="none" stroke="midnightblue" d="M664.08,-162.99C637.1,-145.81 593.54,-114.23 568.73,-76 557.08,-58.05 552.39,-32.77 550.65,-19.65"/>
<polygon fill="midnightblue" stroke="midnightblue" points="662.53,-166.15 672.87,-168.45 666.22,-160.2 662.53,-166.15"/>
</g>
<!-- Node11&#45;&gt;Node5 -->
<g id="edge17" class="edge">
<title>Node11&#45;&gt;Node5</title>
<path fill="none" stroke="midnightblue" d="M688.76,-157.93C690.71,-121.92 694.87,-45.23 696.26,-19.57"/>
<polygon fill="midnightblue" stroke="midnightblue" points="685.26,-157.9 688.21,-168.08 692.25,-158.28 685.26,-157.9"/>
</g>
<!-- Node12 -->
<g id="node12" class="node">
<title>Node12</title>
<g id="a_node12"><a xlink:href="_render_extension_8cpp.html" target="_top" xlink:title="Implementation of RenderExtension, the core module of the render package.">
<polygon fill="white" stroke="black" points="716.23,-112.5 716.23,-131.5 835.23,-131.5 835.23,-112.5 716.23,-112.5"/>
<text text-anchor="middle" x="775.73" y="-119.5" font-family="Helvetica,sans-Serif" font-size="10.00">RenderExtension.cpp</text>
</a>
</g>
</g>
<!-- Node11&#45;&gt;Node12 -->
<g id="edge15" class="edge">
<title>Node11&#45;&gt;Node12</title>
<path fill="none" stroke="midnightblue" d="M710.7,-162.9C726.84,-153 747.91,-140.07 761.62,-131.65"/>
<polygon fill="midnightblue" stroke="midnightblue" points="708.56,-160.11 701.87,-168.32 712.22,-166.08 708.56,-160.11"/>
</g>
<!-- Node13&#45;&gt;Node2 -->
<g id="edge19" class="edge">
<title>Node13&#45;&gt;Node2</title>
<path fill="none" stroke="midnightblue" d="M771.33,-167.1C694.66,-156.91 576.39,-141.18 503.76,-131.52"/>
<polygon fill="midnightblue" stroke="midnightblue" points="771.02,-170.59 781.39,-168.44 771.94,-163.66 771.02,-170.59"/>
</g>
<!-- Node13&#45;&gt;Node5 -->
<g id="edge22" class="edge">
<title>Node13&#45;&gt;Node5</title>
<path fill="none" stroke="midnightblue" d="M849.82,-158.26C851.8,-144.62 852.33,-126.13 844.73,-112 818.34,-62.97 756.5,-33.12 721.68,-19.61"/>
<polygon fill="midnightblue" stroke="midnightblue" points="846.32,-157.91 847.96,-168.38 853.21,-159.18 846.32,-157.91"/>
</g>
<!-- Node13&#45;&gt;Node7 -->
<g id="edge21" class="edge">
<title>Node13&#45;&gt;Node7</title>
<path fill="none" stroke="midnightblue" d="M860.86,-160.44C867.25,-152.44 874.04,-142.35 877.73,-132 891.99,-91.94 888.73,-39.76 886.71,-19.53"/>
<polygon fill="midnightblue" stroke="midnightblue" points="858.07,-158.33 854.26,-168.21 863.4,-162.86 858.07,-158.33"/>
</g>
<!-- Node13&#45;&gt;Node12 -->
<g id="edge20" class="edge">
<title>Node13&#45;&gt;Node12</title>
<path fill="none" stroke="midnightblue" d="M826.41,-162.1C813.81,-152.38 797.8,-140.03 787.18,-131.83"/>
<polygon fill="midnightblue" stroke="midnightblue" points="824.42,-164.99 834.48,-168.32 828.7,-159.44 824.42,-164.99"/>
</g>
<!-- Node14&#45;&gt;Node2 -->
<g id="edge24" class="edge">
<title>Node14&#45;&gt;Node2</title>
<path fill="none" stroke="midnightblue" d="M518.93,-222.35C560.46,-213.12 599.53,-196.6 578.73,-168 562.31,-145.44 534.34,-133.95 507.78,-128.2"/>
<polygon fill="midnightblue" stroke="midnightblue" points="518,-218.96 508.93,-224.42 519.43,-225.82 518,-218.96"/>
</g>
<!-- Node14&#45;&gt;Node11 -->
<g id="edge25" class="edge">
<title>Node14&#45;&gt;Node11</title>
<path fill="none" stroke="midnightblue" d="M491.36,-222.28C537.66,-212.08 606.42,-196.92 649.09,-187.52"/>
<polygon fill="midnightblue" stroke="midnightblue" points="490.56,-218.87 481.55,-224.44 492.07,-225.71 490.56,-218.87"/>
</g>
<!-- Node15 -->
<g id="node15" class="node">
<title>Node15</title>
<g id="a_node15"><a xlink:href="_list_of_local_render_information_8cpp.html" target="_top" xlink:title="Implementation of the ListOfLocalRenderInformation class.">
<polygon fill="white" stroke="black" points="387.73,-168.5 387.73,-187.5 569.73,-187.5 569.73,-168.5 387.73,-168.5"/>
<text text-anchor="middle" x="478.73" y="-175.5" font-family="Helvetica,sans-Serif" font-size="10.00">ListOfLocalRenderInformation.cpp</text>
</a>
</g>
</g>
<!-- Node14&#45;&gt;Node15 -->
<g id="edge26" class="edge">
<title>Node14&#45;&gt;Node15</title>
<path fill="none" stroke="midnightblue" d="M454.35,-215.57C460.54,-206.27 467.89,-195.25 472.89,-187.75"/>
<polygon fill="midnightblue" stroke="midnightblue" points="451.31,-213.82 448.67,-224.08 457.13,-217.7 451.31,-213.82"/>
</g>
<!-- Node14&#45;&gt;Node16 -->
<g id="edge27" class="edge">
<title>Node14&#45;&gt;Node16</title>
<path fill="none" stroke="midnightblue" d="M381.85,-222.73C321.38,-212.52 229.74,-197.06 173.19,-187.52"/>
<polygon fill="midnightblue" stroke="midnightblue" points="381.58,-226.23 392.02,-224.44 382.74,-219.33 381.58,-226.23"/>
</g>
<!-- Node14&#45;&gt;Node17 -->
<g id="edge28" class="edge">
<title>Node14&#45;&gt;Node17</title>
<path fill="none" stroke="midnightblue" d="M409.36,-220.91C381.34,-210.75 342.03,-196.51 317.23,-187.52"/>
<polygon fill="midnightblue" stroke="midnightblue" points="408.52,-224.33 419.12,-224.44 410.91,-217.75 408.52,-224.33"/>
</g>
</g>
</svg>
