<?xml version="1.0" encoding="UTF-8" standalone="no"?>
<!DOCTYPE svg PUBLIC "-//W3C//DTD SVG 1.1//EN"
 "http://www.w3.org/Graphics/SVG/1.1/DTD/svg11.dtd">
<!-- Generated by graphviz version 2.43.0 (0)
 -->
<!-- Title: ListOfParametricObjects.h Pages: 1 -->
<svg width="868pt" height="196pt"
 viewBox="0.00 0.00 868.00 196.00" xmlns="http://www.w3.org/2000/svg" xmlns:xlink="http://www.w3.org/1999/xlink">
<g id="graph0" class="graph" transform="scale(1 1) rotate(0) translate(4 192)">
<title>ListOfParametricObjects.h</title>
<polygon fill="white" stroke="transparent" points="-4,4 -4,-192 864,-192 864,4 -4,4"/>
<!-- Node1 -->
<g id="node1" class="node">
<title>Node1</title>
<g id="a_node1"><a xlink:title="Definition of the ListOfParametricObjects class.">
<polygon fill="#bfbfbf" stroke="black" points="335,-168.5 335,-187.5 478,-187.5 478,-168.5 335,-168.5"/>
<text text-anchor="middle" x="406.5" y="-175.5" font-family="Helvetica,sans-Serif" font-size="10.00">ListOfParametricObjects.h</text>
</a>
</g>
</g>
<!-- Node2 -->
<g id="node2" class="node">
<title>Node2</title>
<g id="a_node2"><a xlink:href="_list_of_parametric_objects_8cpp.html" target="_top" xlink:title="Implementation of the ListOfParametricObjects class.">
<polygon fill="white" stroke="black" points="171,-112.5 171,-131.5 326,-131.5 326,-112.5 171,-112.5"/>
<text text-anchor="middle" x="248.5" y="-119.5" font-family="Helvetica,sans-Serif" font-size="10.00">ListOfParametricObjects.cpp</text>
</a>
</g>
</g>
<!-- Node1&#45;&gt;Node2 -->
<g id="edge1" class="edge">
<title>Node1&#45;&gt;Node2</title>
<path fill="none" stroke="midnightblue" d="M371.89,-165.17C342.14,-155 299.95,-140.59 273.42,-131.52"/>
<polygon fill="midnightblue" stroke="midnightblue" points="370.87,-168.52 381.46,-168.44 373.13,-161.9 370.87,-168.52"/>
</g>
<!-- Node3 -->
<g id="node3" class="node">
<title>Node3</title>
<g id="a_node3"><a xlink:href="_parametric_geometry_8h.html" target="_top" xlink:title="Definition of the ParametricGeometry class.">
<polygon fill="white" stroke="black" points="344,-112.5 344,-131.5 469,-131.5 469,-112.5 344,-112.5"/>
<text text-anchor="middle" x="406.5" y="-119.5" font-family="Helvetica,sans-Serif" font-size="10.00">ParametricGeometry.h</text>
</a>
</g>
</g>
<!-- Node1&#45;&gt;Node3 -->
<g id="edge2" class="edge">
<title>Node1&#45;&gt;Node3</title>
<path fill="none" stroke="midnightblue" d="M406.5,-157.8C406.5,-148.91 406.5,-138.78 406.5,-131.75"/>
<polygon fill="midnightblue" stroke="midnightblue" points="403,-158.08 406.5,-168.08 410,-158.08 403,-158.08"/>
</g>
<!-- Node11 -->
<g id="node11" class="node">
<title>Node11</title>
<g id="a_node11"><a xlink:href="_parametric_object_8cpp.html" target="_top" xlink:title="Implementation of the ParametricObject class.">
<polygon fill="white" stroke="black" points="487,-112.5 487,-131.5 608,-131.5 608,-112.5 487,-112.5"/>
<text text-anchor="middle" x="547.5" y="-119.5" font-family="Helvetica,sans-Serif" font-size="10.00">ParametricObject.cpp</text>
</a>
</g>
</g>
<!-- Node1&#45;&gt;Node11 -->
<g id="edge10" class="edge">
<title>Node1&#45;&gt;Node11</title>
<path fill="none" stroke="midnightblue" d="M438.43,-164.77C464.91,-154.63 501.89,-140.47 525.26,-131.52"/>
<polygon fill="midnightblue" stroke="midnightblue" points="436.93,-161.6 428.84,-168.44 439.43,-168.14 436.93,-161.6"/>
</g>
<!-- Node4 -->
<g id="node4" class="node">
<title>Node4</title>
<g id="a_node4"><a xlink:href="_spatial_extension_types_8h.html" target="_top" xlink:title="Definition of SpatialExtensionTypes.">
<polygon fill="white" stroke="black" points="0,-56.5 0,-75.5 135,-75.5 135,-56.5 0,-56.5"/>
<text text-anchor="middle" x="67.5" y="-63.5" font-family="Helvetica,sans-Serif" font-size="10.00">SpatialExtensionTypes.h</text>
</a>
</g>
</g>
<!-- Node3&#45;&gt;Node4 -->
<g id="edge3" class="edge">
<title>Node3&#45;&gt;Node4</title>
<path fill="none" stroke="midnightblue" d="M342.8,-110.85C278.75,-100.65 181.11,-85.1 120.96,-75.52"/>
<polygon fill="midnightblue" stroke="midnightblue" points="342.36,-114.33 352.78,-112.44 343.46,-107.41 342.36,-114.33"/>
</g>
<!-- Node6 -->
<g id="node6" class="node">
<title>Node6</title>
<g id="a_node6"><a xlink:href="_geometry_8cpp.html" target="_top" xlink:title="Implementation of the Geometry class.">
<polygon fill="white" stroke="black" points="153.5,-56.5 153.5,-75.5 237.5,-75.5 237.5,-56.5 153.5,-56.5"/>
<text text-anchor="middle" x="195.5" y="-63.5" font-family="Helvetica,sans-Serif" font-size="10.00">Geometry.cpp</text>
</a>
</g>
</g>
<!-- Node3&#45;&gt;Node6 -->
<g id="edge5" class="edge">
<title>Node3&#45;&gt;Node6</title>
<path fill="none" stroke="midnightblue" d="M363.36,-109.96C323.51,-99.76 265.14,-84.82 228.78,-75.52"/>
<polygon fill="midnightblue" stroke="midnightblue" points="362.51,-113.35 373.07,-112.44 364.25,-106.57 362.51,-113.35"/>
</g>
<!-- Node7 -->
<g id="node7" class="node">
<title>Node7</title>
<g id="a_node7"><a xlink:href="_geometry_definition_8cpp.html" target="_top" xlink:title="Implementation of the GeometryDefinition class.">
<polygon fill="white" stroke="black" points="256,-56.5 256,-75.5 389,-75.5 389,-56.5 256,-56.5"/>
<text text-anchor="middle" x="322.5" y="-63.5" font-family="Helvetica,sans-Serif" font-size="10.00">GeometryDefinition.cpp</text>
</a>
</g>
</g>
<!-- Node3&#45;&gt;Node7 -->
<g id="edge6" class="edge">
<title>Node3&#45;&gt;Node7</title>
<path fill="none" stroke="midnightblue" d="M384.57,-106.9C369.16,-97 349.05,-84.07 335.96,-75.65"/>
<polygon fill="midnightblue" stroke="midnightblue" points="382.7,-109.86 393,-112.32 386.48,-103.97 382.7,-109.86"/>
</g>
<!-- Node8 -->
<g id="node8" class="node">
<title>Node8</title>
<g id="a_node8"><a xlink:href="_list_of_geometry_definitions_8cpp.html" target="_top" xlink:title="Implementation of the ListOfGeometryDefinitions class.">
<polygon fill="white" stroke="black" points="407,-56.5 407,-75.5 574,-75.5 574,-56.5 407,-56.5"/>
<text text-anchor="middle" x="490.5" y="-63.5" font-family="Helvetica,sans-Serif" font-size="10.00">ListOfGeometryDefinitions.cpp</text>
</a>
</g>
</g>
<!-- Node3&#45;&gt;Node8 -->
<g id="edge7" class="edge">
<title>Node3&#45;&gt;Node8</title>
<path fill="none" stroke="midnightblue" d="M428.43,-106.9C443.84,-97 463.95,-84.07 477.04,-75.65"/>
<polygon fill="midnightblue" stroke="midnightblue" points="426.52,-103.97 420,-112.32 430.3,-109.86 426.52,-103.97"/>
</g>
<!-- Node9 -->
<g id="node9" class="node">
<title>Node9</title>
<g id="a_node9"><a xlink:href="_mixed_geometry_8cpp.html" target="_top" xlink:title="Implementation of the MixedGeometry class.">
<polygon fill="white" stroke="black" points="592,-56.5 592,-75.5 705,-75.5 705,-56.5 592,-56.5"/>
<text text-anchor="middle" x="648.5" y="-63.5" font-family="Helvetica,sans-Serif" font-size="10.00">MixedGeometry.cpp</text>
</a>
</g>
</g>
<!-- Node3&#45;&gt;Node9 -->
<g id="edge8" class="edge">
<title>Node3&#45;&gt;Node9</title>
<path fill="none" stroke="midnightblue" d="M454.82,-110.22C500.55,-100.01 568.28,-84.9 610.33,-75.52"/>
<polygon fill="midnightblue" stroke="midnightblue" points="453.84,-106.85 444.85,-112.44 455.37,-113.68 453.84,-106.85"/>
</g>
<!-- Node10 -->
<g id="node10" class="node">
<title>Node10</title>
<g id="a_node10"><a xlink:href="_parametric_geometry_8cpp.html" target="_top" xlink:title="Implementation of the ParametricGeometry class.">
<polygon fill="white" stroke="black" points="723,-56.5 723,-75.5 860,-75.5 860,-56.5 723,-56.5"/>
<text text-anchor="middle" x="791.5" y="-63.5" font-family="Helvetica,sans-Serif" font-size="10.00">ParametricGeometry.cpp</text>
</a>
</g>
</g>
<!-- Node3&#45;&gt;Node10 -->
<g id="edge9" class="edge">
<title>Node3&#45;&gt;Node10</title>
<path fill="none" stroke="midnightblue" d="M477.5,-111.04C550.21,-100.84 662.05,-85.16 730.78,-75.52"/>
<polygon fill="midnightblue" stroke="midnightblue" points="476.92,-107.59 467.5,-112.44 477.89,-114.52 476.92,-107.59"/>
</g>
<!-- Node5 -->
<g id="node5" class="node">
<title>Node5</title>
<g id="a_node5"><a xlink:href="_spatial_validator_8cpp.html" target="_top" xlink:title="Definition of SpatialValidator.">
<polygon fill="white" stroke="black" points="11,-0.5 11,-19.5 124,-19.5 124,-0.5 11,-0.5"/>
<text text-anchor="middle" x="67.5" y="-7.5" font-family="Helvetica,sans-Serif" font-size="10.00">SpatialValidator.cpp</text>
</a>
</g>
</g>
<!-- Node4&#45;&gt;Node5 -->
<g id="edge4" class="edge">
<title>Node4&#45;&gt;Node5</title>
<path fill="none" stroke="midnightblue" d="M67.5,-45.8C67.5,-36.91 67.5,-26.78 67.5,-19.75"/>
<polygon fill="midnightblue" stroke="midnightblue" points="64,-46.08 67.5,-56.08 71,-46.08 64,-46.08"/>
</g>
</g>
</svg>
