<?xml version="1.0" encoding="UTF-8" standalone="no"?>
<!DOCTYPE svg PUBLIC "-//W3C//DTD SVG 1.1//EN"
 "http://www.w3.org/Graphics/SVG/1.1/DTD/svg11.dtd">
<!-- Generated by graphviz version 2.43.0 (0)
 -->
<!-- Title: ListOfGradientDefinitions.h Pages: 1 -->
<!--zoomable 420 -->
<svg id="main" version="1.1" xmlns="http://www.w3.org/2000/svg" xmlns:xlink="http://www.w3.org/1999/xlink" xml:space="preserve" onload="init(evt)">
<style type="text/css"><![CDATA[
.edge:hover path { stroke: red; }
.edge:hover polygon { stroke: red; fill: red; }
]]></style>
<script type="text/javascript"><![CDATA[
var edges = document.getElementsByTagName('g');
if (edges && edges.length) {
  for (var i=0;i<edges.length;i++) {
    if (edges[i].id.substr(0,4)=='edge') {
      edges[i].setAttribute('class','edge');
    }
  }
}
]]></script>
        <defs>
                <circle id="rim" cx="0" cy="0" r="7"/>
                <circle id="rim2" cx="0" cy="0" r="3.5"/>
                <g id="zoomPlus">
                        <use xlink:href="#rim" fill="#404040">
                                <set attributeName="fill" to="#808080" begin="zoomplus.mouseover" end="zoomplus.mouseout"/>
                        </use>
                        <path d="M-4,0h8M0,-4v8" fill="none" stroke="white" stroke-width="1.5" pointer-events="none"/>
                </g>
                <g id="zoomMin">
                        <use xlink:href="#rim" fill="#404040">
                                <set attributeName="fill" to="#808080" begin="zoomminus.mouseover" end="zoomminus.mouseout"/>
                        </use>
                        <path d="M-4,0h8" fill="none" stroke="white" stroke-width="1.5" pointer-events="none"/>
                </g>
                <g id="dirArrow">
                        <path fill="none" stroke="white" stroke-width="1.5" d="M0,-3.0v7 M-2.5,-0.5L0,-3.0L2.5,-0.5"/>
                </g>
               <g id="resetDef">
                       <use xlink:href="#rim2" fill="#404040">
                               <set attributeName="fill" to="#808080" begin="reset.mouseover" end="reset.mouseout"/>
                       </use>
               </g>
        </defs>

<script type="text/javascript">
var viewWidth = 1490;
var viewHeight = 420;
var sectionId = 'dynsection-1';
</script>
<script xlink:href="svgpan.js"/>
<svg id="graph" class="graph">
<g id="viewport">
<title>ListOfGradientDefinitions.h</title>
<polygon fill="white" stroke="transparent" points="-4,4 -4,-416 1486,-416 1486,4 -4,4"/>
<!-- Node1 -->
<g id="node1" class="node">
<title>Node1</title>
<g id="a_node1"><a xlink:title="Definition of the ListOfGradientDefinitions class.">
<polygon fill="#bfbfbf" stroke="black" points="516.5,-392.5 516.5,-411.5 665.5,-411.5 665.5,-392.5 516.5,-392.5"/>
<text text-anchor="middle" x="591" y="-399.5" font-family="Helvetica,sans-Serif" font-size="10.00">ListOfGradientDefinitions.h</text>
</a>
</g>
</g>
<!-- Node2 -->
<g id="node2" class="node">
<title>Node2</title>
<g id="a_node2"><a xlink:href="_gradient_base_8cpp.html" target="_top" xlink:title="abstract base class for gradient objects">
<polygon fill="white" stroke="black" points="389.5,-336.5 389.5,-355.5 492.5,-355.5 492.5,-336.5 389.5,-336.5"/>
<text text-anchor="middle" x="441" y="-343.5" font-family="Helvetica,sans-Serif" font-size="10.00">GradientBase.cpp</text>
</a>
</g>
</g>
<!-- Node1&#45;&gt;Node2 -->
<g id="edge1" class="edge">
<title>Node1&#45;&gt;Node2</title>
<path fill="none" stroke="midnightblue" d="M557.78,-389.04C529.55,-378.88 489.74,-364.55 464.66,-355.52"/>
<polygon fill="midnightblue" stroke="midnightblue" points="556.64,-392.35 567.23,-392.44 559.01,-385.76 556.64,-392.35"/>
</g>
<!-- Node3 -->
<g id="node3" class="node">
<title>Node3</title>
<g id="a_node3"><a xlink:href="_list_of_gradient_definitions_8cpp.html" target="_top" xlink:title="Implementation of the ListOfGradientDefinitions class.">
<polygon fill="white" stroke="black" points="511,-336.5 511,-355.5 671,-355.5 671,-336.5 511,-336.5"/>
<text text-anchor="middle" x="591" y="-343.5" font-family="Helvetica,sans-Serif" font-size="10.00">ListOfGradientDefinitions.cpp</text>
</a>
</g>
</g>
<!-- Node1&#45;&gt;Node3 -->
<g id="edge2" class="edge">
<title>Node1&#45;&gt;Node3</title>
<path fill="none" stroke="midnightblue" d="M591,-381.8C591,-372.91 591,-362.78 591,-355.75"/>
<polygon fill="midnightblue" stroke="midnightblue" points="587.5,-382.08 591,-392.08 594.5,-382.08 587.5,-382.08"/>
</g>
<!-- Node4 -->
<g id="node4" class="node">
<title>Node4</title>
<g id="a_node4"><a xlink:href="_render_information_base_8h.html" target="_top" xlink:title="Definition of the RenderInformationBase class.">
<polygon fill="white" stroke="black" points="689.5,-336.5 689.5,-355.5 830.5,-355.5 830.5,-336.5 689.5,-336.5"/>
<text text-anchor="middle" x="760" y="-343.5" font-family="Helvetica,sans-Serif" font-size="10.00">RenderInformationBase.h</text>
</a>
</g>
</g>
<!-- Node1&#45;&gt;Node4 -->
<g id="edge3" class="edge">
<title>Node1&#45;&gt;Node4</title>
<path fill="none" stroke="midnightblue" d="M627.6,-389.3C659.45,-379.13 704.84,-364.62 733.35,-355.52"/>
<polygon fill="midnightblue" stroke="midnightblue" points="626.24,-386.07 617.78,-392.44 628.37,-392.73 626.24,-386.07"/>
</g>
<!-- Node5 -->
<g id="node5" class="node">
<title>Node5</title>
<g id="a_node5"><a xlink:href="_render_extension_types_8h.html" target="_top" xlink:title="Definition of RenderExtensionTypes.">
<polygon fill="white" stroke="black" points="733,-112.5 733,-131.5 869,-131.5 869,-112.5 733,-112.5"/>
<text text-anchor="middle" x="801" y="-119.5" font-family="Helvetica,sans-Serif" font-size="10.00">RenderExtensionTypes.h</text>
</a>
</g>
</g>
<!-- Node4&#45;&gt;Node5 -->
<g id="edge4" class="edge">
<title>Node4&#45;&gt;Node5</title>
<path fill="none" stroke="midnightblue" d="M750.13,-327.25C733.03,-293.9 702.33,-220.51 731,-168 740.62,-150.37 760.43,-138.62 776.53,-131.56"/>
<polygon fill="midnightblue" stroke="midnightblue" points="747.13,-329.06 754.92,-336.25 753.31,-325.77 747.13,-329.06"/>
</g>
<!-- Node12 -->
<g id="node12" class="node">
<title>Node12</title>
<g id="a_node12"><a xlink:href="_global_render_information_8h.html" target="_top" xlink:title="Definition of the GlobalRenderInformation class.">
<polygon fill="white" stroke="black" points="434.5,-280.5 434.5,-299.5 583.5,-299.5 583.5,-280.5 434.5,-280.5"/>
<text text-anchor="middle" x="509" y="-287.5" font-family="Helvetica,sans-Serif" font-size="10.00">GlobalRenderInformation.h</text>
</a>
</g>
</g>
<!-- Node4&#45;&gt;Node12 -->
<g id="edge13" class="edge">
<title>Node4&#45;&gt;Node12</title>
<path fill="none" stroke="midnightblue" d="M710.18,-334.28C662.75,-324.08 592.3,-308.92 548.59,-299.52"/>
<polygon fill="midnightblue" stroke="midnightblue" points="709.72,-337.76 720.23,-336.44 711.19,-330.92 709.72,-337.76"/>
</g>
<!-- Node18 -->
<g id="node18" class="node">
<title>Node18</title>
<g id="a_node18"><a xlink:href="_render_information_base_8cpp.html" target="_top" xlink:title="Implementation of the RenderInformationBase class.">
<polygon fill="white" stroke="black" points="740,-168.5 740,-187.5 892,-187.5 892,-168.5 740,-168.5"/>
<text text-anchor="middle" x="816" y="-175.5" font-family="Helvetica,sans-Serif" font-size="10.00">RenderInformationBase.cpp</text>
</a>
</g>
</g>
<!-- Node4&#45;&gt;Node18 -->
<g id="edge46" class="edge">
<title>Node4&#45;&gt;Node18</title>
<path fill="none" stroke="midnightblue" d="M766.28,-326.39C778.36,-290.59 804.41,-213.34 813.11,-187.57"/>
<polygon fill="midnightblue" stroke="midnightblue" points="762.89,-325.48 763.01,-336.08 769.52,-327.72 762.89,-325.48"/>
</g>
<!-- Node19 -->
<g id="node19" class="node">
<title>Node19</title>
<g id="a_node19"><a xlink:href="_local_render_information_8h.html" target="_top" xlink:title="Definition of the LocalRenderInformation class.">
<polygon fill="white" stroke="black" points="848.5,-280.5 848.5,-299.5 991.5,-299.5 991.5,-280.5 848.5,-280.5"/>
<text text-anchor="middle" x="920" y="-287.5" font-family="Helvetica,sans-Serif" font-size="10.00">LocalRenderInformation.h</text>
</a>
</g>
</g>
<!-- Node4&#45;&gt;Node19 -->
<g id="edge30" class="edge">
<title>Node4&#45;&gt;Node19</title>
<path fill="none" stroke="midnightblue" d="M795.05,-333.17C825.17,-323 867.9,-308.59 894.77,-299.52"/>
<polygon fill="midnightblue" stroke="midnightblue" points="793.71,-329.93 785.35,-336.44 795.95,-336.56 793.71,-329.93"/>
</g>
<!-- Node6 -->
<g id="node6" class="node">
<title>Node6</title>
<g id="a_node6"><a xlink:href="_render_layout_plugin_8cpp.html" target="_top" xlink:title="Implementation of RenderLayoutPlugin, the plugin class of the fbc package for the Model element.">
<polygon fill="white" stroke="black" points="1032,-0.5 1032,-19.5 1166,-19.5 1166,-0.5 1032,-0.5"/>
<text text-anchor="middle" x="1099" y="-7.5" font-family="Helvetica,sans-Serif" font-size="10.00">RenderLayoutPlugin.cpp</text>
</a>
</g>
</g>
<!-- Node5&#45;&gt;Node6 -->
<g id="edge5" class="edge">
<title>Node5&#45;&gt;Node6</title>
<path fill="none" stroke="midnightblue" d="M879.23,-112.01C938.66,-104.14 1014.69,-91.56 1042,-76 1066.26,-62.18 1085.36,-34.13 1093.99,-19.82"/>
<polygon fill="midnightblue" stroke="midnightblue" points="878.56,-108.56 869.09,-113.32 879.46,-115.51 878.56,-108.56"/>
</g>
<!-- Node7 -->
<g id="node7" class="node">
<title>Node7</title>
<g id="a_node7"><a xlink:href="_render_layout_converter_8cpp.html" target="_top" xlink:title="Simple converter to convert Layout + Render from l2 to L3 and vice versa.">
<polygon fill="white" stroke="black" points="595,-56.5 595,-75.5 747,-75.5 747,-56.5 595,-56.5"/>
<text text-anchor="middle" x="671" y="-63.5" font-family="Helvetica,sans-Serif" font-size="10.00">RenderLayoutConverter.cpp</text>
</a>
</g>
</g>
<!-- Node5&#45;&gt;Node7 -->
<g id="edge6" class="edge">
<title>Node5&#45;&gt;Node7</title>
<path fill="none" stroke="midnightblue" d="M770.91,-108.5C746.54,-98.38 712.86,-84.39 691.5,-75.52"/>
<polygon fill="midnightblue" stroke="midnightblue" points="769.82,-111.84 780.4,-112.44 772.51,-105.38 769.82,-111.84"/>
</g>
<!-- Node8 -->
<g id="node8" class="node">
<title>Node8</title>
<g id="a_node8"><a xlink:href="_render_utilities_8cpp.html" target="_top" xlink:title="implementation of RenderUtilities, a class of utility functions for the render package">
<polygon fill="white" stroke="black" points="812,-0.5 812,-19.5 922,-19.5 922,-0.5 812,-0.5"/>
<text text-anchor="middle" x="867" y="-7.5" font-family="Helvetica,sans-Serif" font-size="10.00">RenderUtilities.cpp</text>
</a>
</g>
</g>
<!-- Node5&#45;&gt;Node8 -->
<g id="edge7" class="edge">
<title>Node5&#45;&gt;Node8</title>
<path fill="none" stroke="midnightblue" d="M793.54,-102.64C789.23,-88.95 786.05,-70.23 794,-56 803.94,-38.19 824.15,-26.56 840.79,-19.59"/>
<polygon fill="midnightblue" stroke="midnightblue" points="790.37,-104.15 797.06,-112.37 796.95,-101.77 790.37,-104.15"/>
</g>
<!-- Node9 -->
<g id="node9" class="node">
<title>Node9</title>
<g id="a_node9"><a xlink:href="_render_utilities_8h.html" target="_top" xlink:title="Definition of RenderUtilities, a class of utility functions for the render package.">
<polygon fill="white" stroke="black" points="935,-56.5 935,-75.5 1033,-75.5 1033,-56.5 935,-56.5"/>
<text text-anchor="middle" x="984" y="-63.5" font-family="Helvetica,sans-Serif" font-size="10.00">RenderUtilities.h</text>
</a>
</g>
</g>
<!-- Node5&#45;&gt;Node9 -->
<g id="edge8" class="edge">
<title>Node5&#45;&gt;Node9</title>
<path fill="none" stroke="midnightblue" d="M839.74,-109.57C874.26,-99.38 924.01,-84.7 955.14,-75.52"/>
<polygon fill="midnightblue" stroke="midnightblue" points="838.6,-106.26 830,-112.44 840.58,-112.97 838.6,-106.26"/>
</g>
<!-- Node11 -->
<g id="node11" class="node">
<title>Node11</title>
<g id="a_node11"><a xlink:href="_render_validator_8cpp.html" target="_top" xlink:title="Definition of RenderValidator.">
<polygon fill="white" stroke="black" points="803,-56.5 803,-75.5 917,-75.5 917,-56.5 803,-56.5"/>
<text text-anchor="middle" x="860" y="-63.5" font-family="Helvetica,sans-Serif" font-size="10.00">RenderValidator.cpp</text>
</a>
</g>
</g>
<!-- Node5&#45;&gt;Node11 -->
<g id="edge12" class="edge">
<title>Node5&#45;&gt;Node11</title>
<path fill="none" stroke="midnightblue" d="M817.89,-105.54C828.41,-95.91 841.57,-83.87 850.35,-75.83"/>
<polygon fill="midnightblue" stroke="midnightblue" points="815.49,-102.99 810.48,-112.32 820.22,-108.15 815.49,-102.99"/>
</g>
<!-- Node9&#45;&gt;Node6 -->
<g id="edge9" class="edge">
<title>Node9&#45;&gt;Node6</title>
<path fill="none" stroke="midnightblue" d="M1011.48,-52.1C1032.97,-42.01 1062.22,-28.27 1080.86,-19.52"/>
<polygon fill="midnightblue" stroke="midnightblue" points="1009.79,-49.02 1002.22,-56.44 1012.76,-55.36 1009.79,-49.02"/>
</g>
<!-- Node9&#45;&gt;Node8 -->
<g id="edge11" class="edge">
<title>Node9&#45;&gt;Node8</title>
<path fill="none" stroke="midnightblue" d="M956.34,-52.23C934.45,-42.13 904.5,-28.31 885.45,-19.52"/>
<polygon fill="midnightblue" stroke="midnightblue" points="954.91,-55.43 965.46,-56.44 957.85,-49.08 954.91,-55.43"/>
</g>
<!-- Node10 -->
<g id="node10" class="node">
<title>Node10</title>
<g id="a_node10"><a xlink:href="_render_list_of_layouts_plugin_8cpp.html" target="_top" xlink:title="Implementation of RenderListOfLayoutsPlugin, the plugin class of the fbc package for the Model elemen...">
<polygon fill="white" stroke="black" points="151,-0.5 151,-19.5 319,-19.5 319,-0.5 151,-0.5"/>
<text text-anchor="middle" x="235" y="-7.5" font-family="Helvetica,sans-Serif" font-size="10.00">RenderListOfLayoutsPlugin.cpp</text>
</a>
</g>
</g>
<!-- Node9&#45;&gt;Node10 -->
<g id="edge10" class="edge">
<title>Node9&#45;&gt;Node10</title>
<path fill="none" stroke="midnightblue" d="M924.99,-55.99C700.37,-31.66 447.69,-19.29 319.24,-14.07"/>
<polygon fill="midnightblue" stroke="midnightblue" points="924.67,-59.47 934.99,-57.08 925.43,-52.52 924.67,-59.47"/>
</g>
<!-- Node12&#45;&gt;Node5 -->
<g id="edge14" class="edge">
<title>Node12&#45;&gt;Node5</title>
<path fill="none" stroke="midnightblue" d="M529.14,-274.6C563.01,-250.73 633.96,-202.21 698,-168 725.02,-153.56 757.64,-139.91 778.83,-131.51"/>
<polygon fill="midnightblue" stroke="midnightblue" points="527.12,-271.74 520.98,-280.38 531.16,-277.46 527.12,-271.74"/>
</g>
<!-- Node12&#45;&gt;Node10 -->
<g id="edge15" class="edge">
<title>Node12&#45;&gt;Node10</title>
<path fill="none" stroke="midnightblue" d="M424.26,-287.94C279.49,-283.82 0,-264.75 0,-179 0,-179 0,-179 0,-121 0,-52.3 83.39,-26.42 150.82,-16.72"/>
<polygon fill="midnightblue" stroke="midnightblue" points="424.35,-291.45 434.44,-288.21 424.54,-284.45 424.35,-291.45"/>
</g>
<!-- Node13 -->
<g id="node13" class="node">
<title>Node13</title>
<g id="a_node13"><a xlink:href="_render_list_of_layouts_plugin_8h.html" target="_top" xlink:title="Definition of RenderListOfLayoutsPlugin, the plugin class of fbc package for the Model element.">
<polygon fill="white" stroke="black" points="488.5,-168.5 488.5,-187.5 645.5,-187.5 645.5,-168.5 488.5,-168.5"/>
<text text-anchor="middle" x="567" y="-175.5" font-family="Helvetica,sans-Serif" font-size="10.00">RenderListOfLayoutsPlugin.h</text>
</a>
</g>
</g>
<!-- Node12&#45;&gt;Node13 -->
<g id="edge16" class="edge">
<title>Node12&#45;&gt;Node13</title>
<path fill="none" stroke="midnightblue" d="M525.89,-273C533.57,-264.93 542.21,-254.62 548,-244 558.13,-225.42 563.41,-200.83 565.65,-187.87"/>
<polygon fill="midnightblue" stroke="midnightblue" points="523.24,-270.69 518.67,-280.25 528.21,-275.63 523.24,-270.69"/>
</g>
<!-- Node15 -->
<g id="node15" class="node">
<title>Node15</title>
<g id="a_node15"><a xlink:href="_global_render_information_8cpp.html" target="_top" xlink:title="class for the storage of global render information">
<polygon fill="white" stroke="black" points="28,-168.5 28,-187.5 188,-187.5 188,-168.5 28,-168.5"/>
<text text-anchor="middle" x="108" y="-175.5" font-family="Helvetica,sans-Serif" font-size="10.00">GlobalRenderInformation.cpp</text>
</a>
</g>
</g>
<!-- Node12&#45;&gt;Node15 -->
<g id="edge21" class="edge">
<title>Node12&#45;&gt;Node15</title>
<path fill="none" stroke="midnightblue" d="M468.1,-277.78C387.74,-255.74 210.83,-207.21 139.11,-187.53"/>
<polygon fill="midnightblue" stroke="midnightblue" points="467.3,-281.19 477.87,-280.46 469.15,-274.44 467.3,-281.19"/>
</g>
<!-- Node16 -->
<g id="node16" class="node">
<title>Node16</title>
<g id="a_node16"><a xlink:href="_list_of_global_render_information_8h.html" target="_top" xlink:title="Definition of the ListOfGlobalRenderInformation class.">
<polygon fill="white" stroke="black" points="362.5,-224.5 362.5,-243.5 539.5,-243.5 539.5,-224.5 362.5,-224.5"/>
<text text-anchor="middle" x="451" y="-231.5" font-family="Helvetica,sans-Serif" font-size="10.00">ListOfGlobalRenderInformation.h</text>
</a>
</g>
</g>
<!-- Node12&#45;&gt;Node16 -->
<g id="edge22" class="edge">
<title>Node12&#45;&gt;Node16</title>
<path fill="none" stroke="midnightblue" d="M486.56,-273.82C475.1,-264.15 462.33,-251.95 455.34,-243.83"/>
<polygon fill="midnightblue" stroke="midnightblue" points="484.6,-276.74 494.57,-280.32 489.01,-271.3 484.6,-276.74"/>
</g>
<!-- Node12&#45;&gt;Node18 -->
<g id="edge29" class="edge">
<title>Node12&#45;&gt;Node18</title>
<path fill="none" stroke="midnightblue" d="M548.52,-277.54C577.6,-268.89 618,-256.43 653,-244 705.25,-225.45 765.59,-200.42 796.11,-187.5"/>
<polygon fill="midnightblue" stroke="midnightblue" points="547.33,-274.24 538.73,-280.43 549.31,-280.96 547.33,-274.24"/>
</g>
<!-- Node13&#45;&gt;Node5 -->
<g id="edge17" class="edge">
<title>Node13&#45;&gt;Node5</title>
<path fill="none" stroke="midnightblue" d="M614,-166.15C658.22,-155.95 723.52,-140.88 764.1,-131.52"/>
<polygon fill="midnightblue" stroke="midnightblue" points="613.03,-162.78 604.08,-168.44 614.61,-169.61 613.03,-162.78"/>
</g>
<!-- Node13&#45;&gt;Node8 -->
<g id="edge20" class="edge">
<title>Node13&#45;&gt;Node8</title>
<path fill="none" stroke="midnightblue" d="M563.85,-158.23C560.55,-131.58 559.07,-83.01 586,-56 616.83,-25.08 739.04,-15.4 811.75,-12.38"/>
<polygon fill="midnightblue" stroke="midnightblue" points="560.39,-158.79 565.3,-168.18 567.32,-157.78 560.39,-158.79"/>
</g>
<!-- Node13&#45;&gt;Node10 -->
<g id="edge19" class="edge">
<title>Node13&#45;&gt;Node10</title>
<path fill="none" stroke="midnightblue" d="M540.35,-163.67C474.68,-130.84 306.54,-46.77 252.21,-19.61"/>
<polygon fill="midnightblue" stroke="midnightblue" points="539.11,-166.97 549.62,-168.31 542.24,-160.71 539.11,-166.97"/>
</g>
<!-- Node14 -->
<g id="node14" class="node">
<title>Node14</title>
<g id="a_node14"><a xlink:href="_render_extension_8cpp.html" target="_top" xlink:title="Implementation of RenderExtension, the core module of the render package.">
<polygon fill="white" stroke="black" points="900.5,-112.5 900.5,-131.5 1019.5,-131.5 1019.5,-112.5 900.5,-112.5"/>
<text text-anchor="middle" x="960" y="-119.5" font-family="Helvetica,sans-Serif" font-size="10.00">RenderExtension.cpp</text>
</a>
</g>
</g>
<!-- Node13&#45;&gt;Node14 -->
<g id="edge18" class="edge">
<title>Node13&#45;&gt;Node14</title>
<path fill="none" stroke="midnightblue" d="M639.58,-167.03C714.61,-156.72 830.36,-140.81 900.27,-131.21"/>
<polygon fill="midnightblue" stroke="midnightblue" points="638.7,-163.61 629.27,-168.44 639.66,-170.55 638.7,-163.61"/>
</g>
<!-- Node16&#45;&gt;Node5 -->
<g id="edge23" class="edge">
<title>Node16&#45;&gt;Node5</title>
<path fill="none" stroke="midnightblue" d="M454.01,-214.01C457.42,-199.09 464.52,-179.04 479,-168 517.71,-138.48 650.46,-128.31 732.93,-124.82"/>
<polygon fill="midnightblue" stroke="midnightblue" points="450.5,-213.71 452.06,-224.19 457.38,-215.02 450.5,-213.71"/>
</g>
<!-- Node16&#45;&gt;Node10 -->
<g id="edge24" class="edge">
<title>Node16&#45;&gt;Node10</title>
<path fill="none" stroke="midnightblue" d="M352.32,-224.47C302.84,-217.93 250.23,-206.73 235,-188 193.51,-136.98 221.39,-47.57 231.65,-19.61"/>
<polygon fill="midnightblue" stroke="midnightblue" points="352.13,-227.97 362.49,-225.75 353.01,-221.03 352.13,-227.97"/>
</g>
<!-- Node16&#45;&gt;Node12 -->
<g id="edge27" class="edge">
<title>Node16&#45;&gt;Node12</title>
<path fill="none" stroke="midnightblue" d="M473.51,-250.23C484.91,-259.87 497.6,-271.98 504.59,-280.08"/>
<polygon fill="midnightblue" stroke="midnightblue" points="475.5,-247.34 465.53,-243.75 471.08,-252.77 475.5,-247.34"/>
</g>
<!-- Node16&#45;&gt;Node13 -->
<g id="edge25" class="edge">
<title>Node16&#45;&gt;Node13</title>
<path fill="none" stroke="midnightblue" d="M478.72,-220.1C500.39,-210.01 529.9,-196.27 548.71,-187.52"/>
<polygon fill="midnightblue" stroke="midnightblue" points="476.97,-217.05 469.38,-224.44 479.92,-223.4 476.97,-217.05"/>
</g>
<!-- Node16&#45;&gt;Node15 -->
<g id="edge26" class="edge">
<title>Node16&#45;&gt;Node15</title>
<path fill="none" stroke="midnightblue" d="M386.55,-222.85C321.75,-212.65 222.95,-197.1 162.1,-187.52"/>
<polygon fill="midnightblue" stroke="midnightblue" points="386.23,-226.35 396.65,-224.44 387.32,-219.43 386.23,-226.35"/>
</g>
<!-- Node17 -->
<g id="node17" class="node">
<title>Node17</title>
<g id="a_node17"><a xlink:href="_list_of_global_render_information_8cpp.html" target="_top" xlink:title="Implementation of the ListOfGlobalRenderInformation class.">
<polygon fill="white" stroke="black" points="244,-168.5 244,-187.5 432,-187.5 432,-168.5 244,-168.5"/>
<text text-anchor="middle" x="338" y="-175.5" font-family="Helvetica,sans-Serif" font-size="10.00">ListOfGlobalRenderInformation.cpp</text>
</a>
</g>
</g>
<!-- Node16&#45;&gt;Node17 -->
<g id="edge28" class="edge">
<title>Node16&#45;&gt;Node17</title>
<path fill="none" stroke="midnightblue" d="M424,-220.1C402.89,-210.01 374.14,-196.27 355.82,-187.52"/>
<polygon fill="midnightblue" stroke="midnightblue" points="422.56,-223.29 433.09,-224.44 425.58,-216.97 422.56,-223.29"/>
</g>
<!-- Node19&#45;&gt;Node5 -->
<g id="edge31" class="edge">
<title>Node19&#45;&gt;Node5</title>
<path fill="none" stroke="midnightblue" d="M922.21,-270.05C924.17,-244.26 923.82,-197.9 901,-168 886.62,-149.16 862.58,-138 841.67,-131.51"/>
<polygon fill="midnightblue" stroke="midnightblue" points="918.7,-270.03 921.22,-280.32 925.67,-270.7 918.7,-270.03"/>
</g>
<!-- Node19&#45;&gt;Node13 -->
<g id="edge37" class="edge">
<title>Node19&#45;&gt;Node13</title>
<path fill="none" stroke="midnightblue" d="M882.7,-277.38C811.47,-255.18 657.54,-207.21 594.63,-187.61"/>
<polygon fill="midnightblue" stroke="midnightblue" points="882.01,-280.83 892.59,-280.46 884.09,-274.14 882.01,-280.83"/>
</g>
<!-- Node19&#45;&gt;Node18 -->
<g id="edge45" class="edge">
<title>Node19&#45;&gt;Node18</title>
<path fill="none" stroke="midnightblue" d="M904.77,-272.9C882.42,-249.25 841.48,-205.95 824.12,-187.59"/>
<polygon fill="midnightblue" stroke="midnightblue" points="902.43,-275.51 911.84,-280.37 907.51,-270.7 902.43,-275.51"/>
</g>
<!-- Node20 -->
<g id="node20" class="node">
<title>Node20</title>
<g id="a_node20"><a xlink:href="_render_layout_plugin_8h.html" target="_top" xlink:title="Definition of RenderLayoutPlugin, the plugin class of fbc package for the Model element.">
<polygon fill="white" stroke="black" points="1186.5,-168.5 1186.5,-187.5 1309.5,-187.5 1309.5,-168.5 1186.5,-168.5"/>
<text text-anchor="middle" x="1248" y="-175.5" font-family="Helvetica,sans-Serif" font-size="10.00">RenderLayoutPlugin.h</text>
</a>
</g>
</g>
<!-- Node19&#45;&gt;Node20 -->
<g id="edge32" class="edge">
<title>Node19&#45;&gt;Node20</title>
<path fill="none" stroke="midnightblue" d="M1001.53,-280.96C1046.55,-274.58 1102.76,-263.39 1150,-244 1185.13,-229.58 1220.95,-201.8 1237.91,-187.69"/>
<polygon fill="midnightblue" stroke="midnightblue" points="1000.95,-277.5 991.52,-282.32 1001.9,-284.44 1000.95,-277.5"/>
</g>
<!-- Node21 -->
<g id="node21" class="node">
<title>Node21</title>
<g id="a_node21"><a xlink:href="_list_of_local_render_information_8h.html" target="_top" xlink:title="Definition of the ListOfLocalRenderInformation class.">
<polygon fill="white" stroke="black" points="969.5,-224.5 969.5,-243.5 1140.5,-243.5 1140.5,-224.5 969.5,-224.5"/>
<text text-anchor="middle" x="1055" y="-231.5" font-family="Helvetica,sans-Serif" font-size="10.00">ListOfLocalRenderInformation.h</text>
</a>
</g>
</g>
<!-- Node19&#45;&gt;Node21 -->
<g id="edge38" class="edge">
<title>Node19&#45;&gt;Node21</title>
<path fill="none" stroke="midnightblue" d="M950.91,-276.64C976.24,-266.5 1011.43,-252.43 1033.71,-243.52"/>
<polygon fill="midnightblue" stroke="midnightblue" points="949.38,-273.48 941.39,-280.44 951.98,-279.98 949.38,-273.48"/>
</g>
<!-- Node23 -->
<g id="node23" class="node">
<title>Node23</title>
<g id="a_node23"><a xlink:href="_local_render_information_8cpp.html" target="_top" xlink:title="Implementation of the LocalRenderInformation class.">
<polygon fill="white" stroke="black" points="1328,-168.5 1328,-187.5 1482,-187.5 1482,-168.5 1328,-168.5"/>
<text text-anchor="middle" x="1405" y="-175.5" font-family="Helvetica,sans-Serif" font-size="10.00">LocalRenderInformation.cpp</text>
</a>
</g>
</g>
<!-- Node19&#45;&gt;Node23 -->
<g id="edge44" class="edge">
<title>Node19&#45;&gt;Node23</title>
<path fill="none" stroke="midnightblue" d="M991.24,-279C1044.18,-271.03 1118,-258.77 1182,-244 1254.3,-227.31 1337.87,-201.03 1379.16,-187.57"/>
<polygon fill="midnightblue" stroke="midnightblue" points="990.65,-275.55 981.27,-280.49 991.68,-282.47 990.65,-275.55"/>
</g>
<!-- Node20&#45;&gt;Node5 -->
<g id="edge33" class="edge">
<title>Node20&#45;&gt;Node5</title>
<path fill="none" stroke="midnightblue" d="M1176.48,-167.94C1062.47,-153.92 942.51,-139.67 869.29,-131.03"/>
<polygon fill="midnightblue" stroke="midnightblue" points="1176.08,-171.42 1186.43,-169.17 1176.93,-164.47 1176.08,-171.42"/>
</g>
<!-- Node20&#45;&gt;Node6 -->
<g id="edge35" class="edge">
<title>Node20&#45;&gt;Node6</title>
<path fill="none" stroke="midnightblue" d="M1232.93,-160.21C1201.56,-125.26 1130.22,-45.79 1106.69,-19.57"/>
<polygon fill="midnightblue" stroke="midnightblue" points="1230.7,-162.97 1239.99,-168.08 1235.91,-158.3 1230.7,-162.97"/>
</g>
<!-- Node20&#45;&gt;Node8 -->
<g id="edge36" class="edge">
<title>Node20&#45;&gt;Node8</title>
<path fill="none" stroke="midnightblue" d="M1227.48,-162.29C1191.54,-137.16 1114.15,-85.78 1042,-56 1000.53,-38.89 950.79,-26.85 914.95,-19.56"/>
<polygon fill="midnightblue" stroke="midnightblue" points="1225.9,-165.46 1236.09,-168.37 1229.94,-159.74 1225.9,-165.46"/>
</g>
<!-- Node20&#45;&gt;Node14 -->
<g id="edge34" class="edge">
<title>Node20&#45;&gt;Node14</title>
<path fill="none" stroke="midnightblue" d="M1192.2,-166.54C1137.77,-156.33 1056,-141 1005.42,-131.52"/>
<polygon fill="midnightblue" stroke="midnightblue" points="1191.89,-170.04 1202.37,-168.44 1193.18,-163.16 1191.89,-170.04"/>
</g>
<!-- Node21&#45;&gt;Node5 -->
<g id="edge39" class="edge">
<title>Node21&#45;&gt;Node5</title>
<path fill="none" stroke="midnightblue" d="M1032.17,-219.25C1008.26,-205.21 969.34,-183.34 934,-168 899.45,-153 858.16,-139.72 830.85,-131.54"/>
<polygon fill="midnightblue" stroke="midnightblue" points="1030.47,-222.31 1040.86,-224.4 1034.04,-216.29 1030.47,-222.31"/>
</g>
<!-- Node21&#45;&gt;Node18 -->
<g id="edge43" class="edge">
<title>Node21&#45;&gt;Node18</title>
<path fill="none" stroke="midnightblue" d="M1007.28,-222.22C962.11,-212.01 895.23,-196.9 853.69,-187.52"/>
<polygon fill="midnightblue" stroke="midnightblue" points="1006.6,-225.65 1017.13,-224.44 1008.15,-218.83 1006.6,-225.65"/>
</g>
<!-- Node21&#45;&gt;Node20 -->
<g id="edge40" class="edge">
<title>Node21&#45;&gt;Node20</title>
<path fill="none" stroke="midnightblue" d="M1095.39,-221.7C1131.82,-211.51 1184.59,-196.74 1217.56,-187.52"/>
<polygon fill="midnightblue" stroke="midnightblue" points="1094.27,-218.38 1085.58,-224.44 1096.15,-225.12 1094.27,-218.38"/>
</g>
<!-- Node22 -->
<g id="node22" class="node">
<title>Node22</title>
<g id="a_node22"><a xlink:href="_list_of_local_render_information_8cpp.html" target="_top" xlink:title="Implementation of the ListOfLocalRenderInformation class.">
<polygon fill="white" stroke="black" points="986,-168.5 986,-187.5 1168,-187.5 1168,-168.5 986,-168.5"/>
<text text-anchor="middle" x="1077" y="-175.5" font-family="Helvetica,sans-Serif" font-size="10.00">ListOfLocalRenderInformation.cpp</text>
</a>
</g>
</g>
<!-- Node21&#45;&gt;Node22 -->
<g id="edge41" class="edge">
<title>Node21&#45;&gt;Node22</title>
<path fill="none" stroke="midnightblue" d="M1062.46,-214.69C1066.17,-205.59 1070.48,-195.01 1073.43,-187.75"/>
<polygon fill="midnightblue" stroke="midnightblue" points="1059.16,-213.5 1058.63,-224.08 1065.65,-216.14 1059.16,-213.5"/>
</g>
<!-- Node21&#45;&gt;Node23 -->
<g id="edge42" class="edge">
<title>Node21&#45;&gt;Node23</title>
<path fill="none" stroke="midnightblue" d="M1120.36,-222.92C1186.48,-212.71 1287.57,-197.12 1349.8,-187.52"/>
<polygon fill="midnightblue" stroke="midnightblue" points="1119.81,-219.46 1110.46,-224.44 1120.88,-226.38 1119.81,-219.46"/>
</g>
</g>
</svg>
        <g id="navigator" transform="translate(0 0)" fill="#404254">
                <rect fill="#f2f5e9" fill-opacity="0.5" stroke="#606060" stroke-width=".5" x="0" y="0" width="60" height="60"/>
                <use id="zoomplus" xlink:href="#zoomPlus" x="17" y="9" onmousedown="handleZoom(evt,'in')"/>
                <use id="zoomminus" xlink:href="#zoomMin" x="42" y="9" onmousedown="handleZoom(evt,'out')"/>
                <use id="reset" xlink:href="#resetDef" x="30" y="36" onmousedown="handleReset()"/>
                <g id="arrowUp" xlink:href="#dirArrow" transform="translate(30 24)" onmousedown="handlePan(0,-1)">
                  <use xlink:href="#rim" fill="#404040">
                        <set attributeName="fill" to="#808080" begin="arrowUp.mouseover" end="arrowUp.mouseout"/>
                  </use>
                  <path fill="none" stroke="white" stroke-width="1.5" d="M0,-3.0v7 M-2.5,-0.5L0,-3.0L2.5,-0.5"/>
                </g>
                <g id="arrowRight" xlink:href="#dirArrow" transform="rotate(90) translate(36 -43)" onmousedown="handlePan(1,0)">
                  <use xlink:href="#rim" fill="#404040">
                        <set attributeName="fill" to="#808080" begin="arrowRight.mouseover" end="arrowRight.mouseout"/>
                  </use>
                  <path fill="none" stroke="white" stroke-width="1.5" d="M0,-3.0v7 M-2.5,-0.5L0,-3.0L2.5,-0.5"/>
                </g>
                <g id="arrowDown" xlink:href="#dirArrow" transform="rotate(180) translate(-30 -48)" onmousedown="handlePan(0,1)">
                  <use xlink:href="#rim" fill="#404040">
                        <set attributeName="fill" to="#808080" begin="arrowDown.mouseover" end="arrowDown.mouseout"/>
                  </use>
                  <path fill="none" stroke="white" stroke-width="1.5" d="M0,-3.0v7 M-2.5,-0.5L0,-3.0L2.5,-0.5"/>
                </g>
                <g id="arrowLeft" xlink:href="#dirArrow" transform="rotate(270) translate(-36 17)" onmousedown="handlePan(-1,0)">
                  <use xlink:href="#rim" fill="#404040">
                        <set attributeName="fill" to="#808080" begin="arrowLeft.mouseover" end="arrowLeft.mouseout"/>
                  </use>
                  <path fill="none" stroke="white" stroke-width="1.5" d="M0,-3.0v7 M-2.5,-0.5L0,-3.0L2.5,-0.5"/>
                </g>
        </g>
        <svg viewBox="0 0 15 15" width="100%" height="30px" preserveAspectRatio="xMaxYMin meet">
         <g id="arrow_out" transform="scale(0.3 0.3)">
          <a xlink:href="_list_of_gradient_definitions_8h__dep__incl_org.svg" target="_base">
           <rect id="button" ry="5" rx="5" y="6" x="6" height="38" width="38"
                fill="#f2f5e9" fill-opacity="0.5" stroke="#606060" stroke-width="1.0"/>
           <path id="arrow"
             d="M 11.500037,31.436501 C 11.940474,20.09759 22.043105,11.32322 32.158766,21.979434 L 37.068811,17.246167 C 37.068811,17.246167 37.088388,32 37.088388,32 L 22.160133,31.978069 C 22.160133,31.978069 26.997745,27.140456 26.997745,27.140456 C 18.528582,18.264221 13.291696,25.230495 11.500037,31.436501 z"
             style="fill:#404040;"/>
          </a>
         </g>
        </svg>
</svg>
