<?xml version="1.0" encoding="UTF-8" standalone="no"?>
<!DOCTYPE svg PUBLIC "-//W3C//DTD SVG 1.1//EN"
 "http://www.w3.org/Graphics/SVG/1.1/DTD/svg11.dtd">
<!-- Generated by graphviz version 2.43.0 (0)
 -->
<!-- Title: ListOfSampledFields.h Pages: 1 -->
<svg width="518pt" height="252pt"
 viewBox="0.00 0.00 518.00 252.00" xmlns="http://www.w3.org/2000/svg" xmlns:xlink="http://www.w3.org/1999/xlink">
<g id="graph0" class="graph" transform="scale(1 1) rotate(0) translate(4 248)">
<title>ListOfSampledFields.h</title>
<polygon fill="white" stroke="transparent" points="-4,4 -4,-248 514,-248 514,4 -4,4"/>
<!-- Node1 -->
<g id="node1" class="node">
<title>Node1</title>
<g id="a_node1"><a xlink:title="Definition of the ListOfSampledFields class.">
<polygon fill="#bfbfbf" stroke="black" points="258,-224.5 258,-243.5 383,-243.5 383,-224.5 258,-224.5"/>
<text text-anchor="middle" x="320.5" y="-231.5" font-family="Helvetica,sans-Serif" font-size="10.00">ListOfSampledFields.h</text>
</a>
</g>
</g>
<!-- Node2 -->
<g id="node2" class="node">
<title>Node2</title>
<g id="a_node2"><a xlink:href="_geometry_8h.html" target="_top" xlink:title="Definition of the Geometry class.">
<polygon fill="white" stroke="black" points="161,-168.5 161,-187.5 234,-187.5 234,-168.5 161,-168.5"/>
<text text-anchor="middle" x="197.5" y="-175.5" font-family="Helvetica,sans-Serif" font-size="10.00">Geometry.h</text>
</a>
</g>
</g>
<!-- Node1&#45;&gt;Node2 -->
<g id="edge1" class="edge">
<title>Node1&#45;&gt;Node2</title>
<path fill="none" stroke="midnightblue" d="M291.73,-220.37C268.69,-210.26 237.02,-196.35 216.9,-187.52"/>
<polygon fill="midnightblue" stroke="midnightblue" points="290.45,-223.63 301.01,-224.44 293.26,-217.22 290.45,-223.63"/>
</g>
<!-- Node9 -->
<g id="node9" class="node">
<title>Node9</title>
<g id="a_node9"><a xlink:href="_list_of_sampled_fields_8cpp.html" target="_top" xlink:title="Implementation of the ListOfSampledFields class.">
<polygon fill="white" stroke="black" points="252,-168.5 252,-187.5 389,-187.5 389,-168.5 252,-168.5"/>
<text text-anchor="middle" x="320.5" y="-175.5" font-family="Helvetica,sans-Serif" font-size="10.00">ListOfSampledFields.cpp</text>
</a>
</g>
</g>
<!-- Node1&#45;&gt;Node9 -->
<g id="edge9" class="edge">
<title>Node1&#45;&gt;Node9</title>
<path fill="none" stroke="midnightblue" d="M320.5,-213.8C320.5,-204.91 320.5,-194.78 320.5,-187.75"/>
<polygon fill="midnightblue" stroke="midnightblue" points="317,-214.08 320.5,-224.08 324,-214.08 317,-214.08"/>
</g>
<!-- Node10 -->
<g id="node10" class="node">
<title>Node10</title>
<g id="a_node10"><a xlink:href="_sampled_field_8cpp.html" target="_top" xlink:title="Implementation of the SampledField class.">
<polygon fill="white" stroke="black" points="407,-168.5 407,-187.5 510,-187.5 510,-168.5 407,-168.5"/>
<text text-anchor="middle" x="458.5" y="-175.5" font-family="Helvetica,sans-Serif" font-size="10.00">SampledField.cpp</text>
</a>
</g>
</g>
<!-- Node1&#45;&gt;Node10 -->
<g id="edge10" class="edge">
<title>Node1&#45;&gt;Node10</title>
<path fill="none" stroke="midnightblue" d="M351.75,-220.77C377.67,-210.63 413.86,-196.47 436.74,-187.52"/>
<polygon fill="midnightblue" stroke="midnightblue" points="350.4,-217.54 342.37,-224.44 352.95,-224.06 350.4,-217.54"/>
</g>
<!-- Node3 -->
<g id="node3" class="node">
<title>Node3</title>
<g id="a_node3"><a xlink:href="_spatial_extension_types_8h.html" target="_top" xlink:title="Definition of SpatialExtensionTypes.">
<polygon fill="white" stroke="black" points="0,-56.5 0,-75.5 135,-75.5 135,-56.5 0,-56.5"/>
<text text-anchor="middle" x="67.5" y="-63.5" font-family="Helvetica,sans-Serif" font-size="10.00">SpatialExtensionTypes.h</text>
</a>
</g>
</g>
<!-- Node2&#45;&gt;Node3 -->
<g id="edge2" class="edge">
<title>Node2&#45;&gt;Node3</title>
<path fill="none" stroke="midnightblue" d="M173.38,-163.23C159.66,-154.93 142.48,-143.72 128.5,-132 106.91,-113.91 85.19,-88.69 74.43,-75.62"/>
<polygon fill="midnightblue" stroke="midnightblue" points="171.86,-166.4 182.24,-168.49 175.43,-160.38 171.86,-166.4"/>
</g>
<!-- Node5 -->
<g id="node5" class="node">
<title>Node5</title>
<g id="a_node5"><a xlink:href="_spatial_model_plugin_8h.html" target="_top" xlink:title="Definition of the SpatialModelPlugin class.">
<polygon fill="white" stroke="black" points="138,-112.5 138,-131.5 257,-131.5 257,-112.5 138,-112.5"/>
<text text-anchor="middle" x="197.5" y="-119.5" font-family="Helvetica,sans-Serif" font-size="10.00">SpatialModelPlugin.h</text>
</a>
</g>
</g>
<!-- Node2&#45;&gt;Node5 -->
<g id="edge4" class="edge">
<title>Node2&#45;&gt;Node5</title>
<path fill="none" stroke="midnightblue" d="M197.5,-157.8C197.5,-148.91 197.5,-138.78 197.5,-131.75"/>
<polygon fill="midnightblue" stroke="midnightblue" points="194,-158.08 197.5,-168.08 201,-158.08 194,-158.08"/>
</g>
<!-- Node8 -->
<g id="node8" class="node">
<title>Node8</title>
<g id="a_node8"><a xlink:href="_geometry_8cpp.html" target="_top" xlink:title="Implementation of the Geometry class.">
<polygon fill="white" stroke="black" points="275.5,-112.5 275.5,-131.5 359.5,-131.5 359.5,-112.5 275.5,-112.5"/>
<text text-anchor="middle" x="317.5" y="-119.5" font-family="Helvetica,sans-Serif" font-size="10.00">Geometry.cpp</text>
</a>
</g>
</g>
<!-- Node2&#45;&gt;Node8 -->
<g id="edge8" class="edge">
<title>Node2&#45;&gt;Node8</title>
<path fill="none" stroke="midnightblue" d="M225.87,-164.23C248.32,-154.13 279.04,-140.31 298.57,-131.52"/>
<polygon fill="midnightblue" stroke="midnightblue" points="224.2,-161.15 216.51,-168.44 227.07,-167.53 224.2,-161.15"/>
</g>
<!-- Node4 -->
<g id="node4" class="node">
<title>Node4</title>
<g id="a_node4"><a xlink:href="_spatial_validator_8cpp.html" target="_top" xlink:title="Definition of SpatialValidator.">
<polygon fill="white" stroke="black" points="11,-0.5 11,-19.5 124,-19.5 124,-0.5 11,-0.5"/>
<text text-anchor="middle" x="67.5" y="-7.5" font-family="Helvetica,sans-Serif" font-size="10.00">SpatialValidator.cpp</text>
</a>
</g>
</g>
<!-- Node3&#45;&gt;Node4 -->
<g id="edge3" class="edge">
<title>Node3&#45;&gt;Node4</title>
<path fill="none" stroke="midnightblue" d="M67.5,-45.8C67.5,-36.91 67.5,-26.78 67.5,-19.75"/>
<polygon fill="midnightblue" stroke="midnightblue" points="64,-46.08 67.5,-56.08 71,-46.08 64,-46.08"/>
</g>
<!-- Node5&#45;&gt;Node3 -->
<g id="edge5" class="edge">
<title>Node5&#45;&gt;Node3</title>
<path fill="none" stroke="midnightblue" d="M167.41,-108.5C143.04,-98.38 109.36,-84.39 88,-75.52"/>
<polygon fill="midnightblue" stroke="midnightblue" points="166.32,-111.84 176.9,-112.44 169.01,-105.38 166.32,-111.84"/>
</g>
<!-- Node6 -->
<g id="node6" class="node">
<title>Node6</title>
<g id="a_node6"><a xlink:href="_spatial_extension_8cpp.html" target="_top" xlink:title="Implementation of SpatialExtension.">
<polygon fill="white" stroke="black" points="153,-56.5 153,-75.5 272,-75.5 272,-56.5 153,-56.5"/>
<text text-anchor="middle" x="212.5" y="-63.5" font-family="Helvetica,sans-Serif" font-size="10.00">SpatialExtension.cpp</text>
</a>
</g>
</g>
<!-- Node5&#45;&gt;Node6 -->
<g id="edge6" class="edge">
<title>Node5&#45;&gt;Node6</title>
<path fill="none" stroke="midnightblue" d="M202.67,-102.4C205.18,-93.36 208.07,-82.94 210.07,-75.75"/>
<polygon fill="midnightblue" stroke="midnightblue" points="199.28,-101.51 199.98,-112.08 206.03,-103.38 199.28,-101.51"/>
</g>
<!-- Node7 -->
<g id="node7" class="node">
<title>Node7</title>
<g id="a_node7"><a xlink:href="_spatial_model_plugin_8cpp.html" target="_top" xlink:title="Implementation of the SpatialModelPlugin class.">
<polygon fill="white" stroke="black" points="290,-56.5 290,-75.5 421,-75.5 421,-56.5 290,-56.5"/>
<text text-anchor="middle" x="355.5" y="-63.5" font-family="Helvetica,sans-Serif" font-size="10.00">SpatialModelPlugin.cpp</text>
</a>
</g>
</g>
<!-- Node5&#45;&gt;Node7 -->
<g id="edge7" class="edge">
<title>Node5&#45;&gt;Node7</title>
<path fill="none" stroke="midnightblue" d="M232.11,-109.17C261.86,-99 304.05,-84.59 330.58,-75.52"/>
<polygon fill="midnightblue" stroke="midnightblue" points="230.87,-105.9 222.54,-112.44 233.13,-112.52 230.87,-105.9"/>
</g>
</g>
</svg>
