<?xml version="1.0" encoding="UTF-8" standalone="no"?>
<!DOCTYPE svg PUBLIC "-//W3C//DTD SVG 1.1//EN"
 "http://www.w3.org/Graphics/SVG/1.1/DTD/svg11.dtd">
<!-- Generated by graphviz version 2.43.0 (0)
 -->
<!-- Title: ListOfGlobalRenderInformation.h Pages: 1 -->
<!--zoomable 308 -->
<svg id="main" version="1.1" xmlns="http://www.w3.org/2000/svg" xmlns:xlink="http://www.w3.org/1999/xlink" xml:space="preserve" onload="init(evt)">
<style type="text/css"><![CDATA[
.edge:hover path { stroke: red; }
.edge:hover polygon { stroke: red; fill: red; }
]]></style>
<script type="text/javascript"><![CDATA[
var edges = document.getElementsByTagName('g');
if (edges && edges.length) {
  for (var i=0;i<edges.length;i++) {
    if (edges[i].id.substr(0,4)=='edge') {
      edges[i].setAttribute('class','edge');
    }
  }
}
]]></script>
        <defs>
                <circle id="rim" cx="0" cy="0" r="7"/>
                <circle id="rim2" cx="0" cy="0" r="3.5"/>
                <g id="zoomPlus">
                        <use xlink:href="#rim" fill="#404040">
                                <set attributeName="fill" to="#808080" begin="zoomplus.mouseover" end="zoomplus.mouseout"/>
                        </use>
                        <path d="M-4,0h8M0,-4v8" fill="none" stroke="white" stroke-width="1.5" pointer-events="none"/>
                </g>
                <g id="zoomMin">
                        <use xlink:href="#rim" fill="#404040">
                                <set attributeName="fill" to="#808080" begin="zoomminus.mouseover" end="zoomminus.mouseout"/>
                        </use>
                        <path d="M-4,0h8" fill="none" stroke="white" stroke-width="1.5" pointer-events="none"/>
                </g>
                <g id="dirArrow">
                        <path fill="none" stroke="white" stroke-width="1.5" d="M0,-3.0v7 M-2.5,-0.5L0,-3.0L2.5,-0.5"/>
                </g>
               <g id="resetDef">
                       <use xlink:href="#rim2" fill="#404040">
                               <set attributeName="fill" to="#808080" begin="reset.mouseover" end="reset.mouseout"/>
                       </use>
               </g>
        </defs>

<script type="text/javascript">
var viewWidth = 900;
var viewHeight = 308;
var sectionId = 'dynsection-1';
</script>
<script xlink:href="svgpan.js"/>
<svg id="graph" class="graph">
<g id="viewport">
<title>ListOfGlobalRenderInformation.h</title>
<polygon fill="white" stroke="transparent" points="-4,4 -4,-304 896,-304 896,4 -4,4"/>
<!-- Node1 -->
<g id="node1" class="node">
<title>Node1</title>
<g id="a_node1"><a xlink:title="Definition of the ListOfGlobalRenderInformation class.">
<polygon fill="#bfbfbf" stroke="black" points="294.5,-280.5 294.5,-299.5 471.5,-299.5 471.5,-280.5 294.5,-280.5"/>
<text text-anchor="middle" x="383" y="-287.5" font-family="Helvetica,sans-Serif" font-size="10.00">ListOfGlobalRenderInformation.h</text>
</a>
</g>
</g>
<!-- Node2 -->
<g id="node2" class="node">
<title>Node2</title>
<g id="a_node2"><a xlink:href="_render_extension_types_8h.html" target="_top" xlink:title="Definition of RenderExtensionTypes.">
<polygon fill="white" stroke="black" points="469,-112.5 469,-131.5 605,-131.5 605,-112.5 469,-112.5"/>
<text text-anchor="middle" x="537" y="-119.5" font-family="Helvetica,sans-Serif" font-size="10.00">RenderExtensionTypes.h</text>
</a>
</g>
</g>
<!-- Node1&#45;&gt;Node2 -->
<g id="edge1" class="edge">
<title>Node1&#45;&gt;Node2</title>
<path fill="none" stroke="midnightblue" d="M481.91,-280.38C543.3,-269.33 617.72,-244.34 657,-188 677.8,-158.17 630.51,-140.74 589.31,-131.57"/>
<polygon fill="midnightblue" stroke="midnightblue" points="481.07,-276.97 471.79,-282.1 482.24,-283.88 481.07,-276.97"/>
</g>
<!-- Node7 -->
<g id="node7" class="node">
<title>Node7</title>
<g id="a_node7"><a xlink:href="_render_list_of_layouts_plugin_8cpp.html" target="_top" xlink:title="Implementation of RenderListOfLayoutsPlugin, the plugin class of the fbc package for the Model elemen...">
<polygon fill="white" stroke="black" points="130,-0.5 130,-19.5 298,-19.5 298,-0.5 130,-0.5"/>
<text text-anchor="middle" x="214" y="-7.5" font-family="Helvetica,sans-Serif" font-size="10.00">RenderListOfLayoutsPlugin.cpp</text>
</a>
</g>
</g>
<!-- Node1&#45;&gt;Node7 -->
<g id="edge10" class="edge">
<title>Node1&#45;&gt;Node7</title>
<path fill="none" stroke="midnightblue" d="M284.06,-280.2C170.58,-267.31 0,-238.1 0,-179 0,-179 0,-179 0,-121 0,-57.92 74.45,-30.99 135.53,-19.5"/>
<polygon fill="midnightblue" stroke="midnightblue" points="283.84,-283.7 294.17,-281.32 284.62,-276.74 283.84,-283.7"/>
</g>
<!-- Node9 -->
<g id="node9" class="node">
<title>Node9</title>
<g id="a_node9"><a xlink:href="_render_list_of_layouts_plugin_8h.html" target="_top" xlink:title="Definition of RenderListOfLayoutsPlugin, the plugin class of fbc package for the Model element.">
<polygon fill="white" stroke="black" points="66.5,-168.5 66.5,-187.5 223.5,-187.5 223.5,-168.5 66.5,-168.5"/>
<text text-anchor="middle" x="145" y="-175.5" font-family="Helvetica,sans-Serif" font-size="10.00">RenderListOfLayoutsPlugin.h</text>
</a>
</g>
</g>
<!-- Node1&#45;&gt;Node9 -->
<g id="edge11" class="edge">
<title>Node1&#45;&gt;Node9</title>
<path fill="none" stroke="midnightblue" d="M355.23,-276.16C306.12,-253.47 205.22,-206.83 163.59,-187.59"/>
<polygon fill="midnightblue" stroke="midnightblue" points="353.78,-279.35 364.32,-280.37 356.72,-273 353.78,-279.35"/>
</g>
<!-- Node11 -->
<g id="node11" class="node">
<title>Node11</title>
<g id="a_node11"><a xlink:href="_global_render_information_8cpp.html" target="_top" xlink:title="class for the storage of global render information">
<polygon fill="white" stroke="black" points="488,-168.5 488,-187.5 648,-187.5 648,-168.5 488,-168.5"/>
<text text-anchor="middle" x="568" y="-175.5" font-family="Helvetica,sans-Serif" font-size="10.00">GlobalRenderInformation.cpp</text>
</a>
</g>
</g>
<!-- Node1&#45;&gt;Node11 -->
<g id="edge16" class="edge">
<title>Node1&#45;&gt;Node11</title>
<path fill="none" stroke="midnightblue" d="M408.78,-275.62C425.3,-266.91 447.11,-255.12 466,-244 498.75,-224.72 536.18,-200.21 555.3,-187.5"/>
<polygon fill="midnightblue" stroke="midnightblue" points="406.96,-272.63 399.73,-280.37 410.21,-278.83 406.96,-272.63"/>
</g>
<!-- Node12 -->
<g id="node12" class="node">
<title>Node12</title>
<g id="a_node12"><a xlink:href="_global_render_information_8h.html" target="_top" xlink:title="Definition of the GlobalRenderInformation class.">
<polygon fill="white" stroke="black" points="308.5,-224.5 308.5,-243.5 457.5,-243.5 457.5,-224.5 308.5,-224.5"/>
<text text-anchor="middle" x="383" y="-231.5" font-family="Helvetica,sans-Serif" font-size="10.00">GlobalRenderInformation.h</text>
</a>
</g>
</g>
<!-- Node1&#45;&gt;Node12 -->
<g id="edge17" class="edge">
<title>Node1&#45;&gt;Node12</title>
<path fill="none" stroke="midnightblue" d="M376.53,-270.1C375.9,-261.14 376.34,-250.86 377.87,-243.75"/>
<polygon fill="midnightblue" stroke="midnightblue" points="373.07,-270.62 377.83,-280.08 380.01,-269.71 373.07,-270.62"/>
</g>
<!-- Node14 -->
<g id="node14" class="node">
<title>Node14</title>
<g id="a_node14"><a xlink:href="_list_of_global_render_information_8cpp.html" target="_top" xlink:title="Implementation of the ListOfGlobalRenderInformation class.">
<polygon fill="white" stroke="black" points="704,-224.5 704,-243.5 892,-243.5 892,-224.5 704,-224.5"/>
<text text-anchor="middle" x="798" y="-231.5" font-family="Helvetica,sans-Serif" font-size="10.00">ListOfGlobalRenderInformation.cpp</text>
</a>
</g>
</g>
<!-- Node1&#45;&gt;Node14 -->
<g id="edge24" class="edge">
<title>Node1&#45;&gt;Node14</title>
<path fill="none" stroke="midnightblue" d="M459.05,-279.1C537.42,-268.91 658.31,-253.18 732.55,-243.52"/>
<polygon fill="midnightblue" stroke="midnightblue" points="458.22,-275.68 448.76,-280.44 459.13,-282.62 458.22,-275.68"/>
</g>
<!-- Node3 -->
<g id="node3" class="node">
<title>Node3</title>
<g id="a_node3"><a xlink:href="_render_layout_plugin_8cpp.html" target="_top" xlink:title="Implementation of RenderLayoutPlugin, the plugin class of the fbc package for the Model element.">
<polygon fill="white" stroke="black" points="547,-0.5 547,-19.5 681,-19.5 681,-0.5 547,-0.5"/>
<text text-anchor="middle" x="614" y="-7.5" font-family="Helvetica,sans-Serif" font-size="10.00">RenderLayoutPlugin.cpp</text>
</a>
</g>
</g>
<!-- Node2&#45;&gt;Node3 -->
<g id="edge2" class="edge">
<title>Node2&#45;&gt;Node3</title>
<path fill="none" stroke="midnightblue" d="M550.53,-104.33C557.17,-95.96 565.2,-85.58 572,-76 586,-56.28 601.08,-32.16 608.79,-19.57"/>
<polygon fill="midnightblue" stroke="midnightblue" points="547.73,-102.22 544.21,-112.21 553.19,-106.6 547.73,-102.22"/>
</g>
<!-- Node4 -->
<g id="node4" class="node">
<title>Node4</title>
<g id="a_node4"><a xlink:href="_render_layout_converter_8cpp.html" target="_top" xlink:title="Simple converter to convert Layout + Render from l2 to L3 and vice versa.">
<polygon fill="white" stroke="black" points="280,-56.5 280,-75.5 432,-75.5 432,-56.5 280,-56.5"/>
<text text-anchor="middle" x="356" y="-63.5" font-family="Helvetica,sans-Serif" font-size="10.00">RenderLayoutConverter.cpp</text>
</a>
</g>
</g>
<!-- Node2&#45;&gt;Node4 -->
<g id="edge3" class="edge">
<title>Node2&#45;&gt;Node4</title>
<path fill="none" stroke="midnightblue" d="M498.68,-109.57C464.54,-99.38 415.34,-84.7 384.55,-75.52"/>
<polygon fill="midnightblue" stroke="midnightblue" points="497.74,-112.94 508.32,-112.44 499.74,-106.23 497.74,-112.94"/>
</g>
<!-- Node5 -->
<g id="node5" class="node">
<title>Node5</title>
<g id="a_node5"><a xlink:href="_render_utilities_8cpp.html" target="_top" xlink:title="implementation of RenderUtilities, a class of utility functions for the render package">
<polygon fill="white" stroke="black" points="419,-0.5 419,-19.5 529,-19.5 529,-0.5 419,-0.5"/>
<text text-anchor="middle" x="474" y="-7.5" font-family="Helvetica,sans-Serif" font-size="10.00">RenderUtilities.cpp</text>
</a>
</g>
</g>
<!-- Node2&#45;&gt;Node5 -->
<g id="edge4" class="edge">
<title>Node2&#45;&gt;Node5</title>
<path fill="none" stroke="midnightblue" d="M549.47,-104.04C557.87,-90.36 565.93,-71 557,-56 546.02,-37.55 524.54,-26.2 506.18,-19.51"/>
<polygon fill="midnightblue" stroke="midnightblue" points="546.47,-102.22 543.8,-112.47 552.28,-106.12 546.47,-102.22"/>
</g>
<!-- Node6 -->
<g id="node6" class="node">
<title>Node6</title>
<g id="a_node6"><a xlink:href="_render_utilities_8h.html" target="_top" xlink:title="Definition of RenderUtilities, a class of utility functions for the render package.">
<polygon fill="white" stroke="black" points="450,-56.5 450,-75.5 548,-75.5 548,-56.5 450,-56.5"/>
<text text-anchor="middle" x="499" y="-63.5" font-family="Helvetica,sans-Serif" font-size="10.00">RenderUtilities.h</text>
</a>
</g>
</g>
<!-- Node2&#45;&gt;Node6 -->
<g id="edge5" class="edge">
<title>Node2&#45;&gt;Node6</title>
<path fill="none" stroke="midnightblue" d="M524.94,-103.86C518.36,-94.5 510.49,-83.33 505.16,-75.75"/>
<polygon fill="midnightblue" stroke="midnightblue" points="522.11,-105.92 530.73,-112.08 527.83,-101.89 522.11,-105.92"/>
</g>
<!-- Node8 -->
<g id="node8" class="node">
<title>Node8</title>
<g id="a_node8"><a xlink:href="_render_validator_8cpp.html" target="_top" xlink:title="Definition of RenderValidator.">
<polygon fill="white" stroke="black" points="642,-56.5 642,-75.5 756,-75.5 756,-56.5 642,-56.5"/>
<text text-anchor="middle" x="699" y="-63.5" font-family="Helvetica,sans-Serif" font-size="10.00">RenderValidator.cpp</text>
</a>
</g>
</g>
<!-- Node2&#45;&gt;Node8 -->
<g id="edge9" class="edge">
<title>Node2&#45;&gt;Node8</title>
<path fill="none" stroke="midnightblue" d="M572.48,-109.17C602.99,-99 646.24,-84.59 673.45,-75.52"/>
<polygon fill="midnightblue" stroke="midnightblue" points="571.05,-105.96 562.67,-112.44 573.26,-112.6 571.05,-105.96"/>
</g>
<!-- Node6&#45;&gt;Node3 -->
<g id="edge6" class="edge">
<title>Node6&#45;&gt;Node3</title>
<path fill="none" stroke="midnightblue" d="M526.48,-52.1C547.97,-42.01 577.22,-28.27 595.86,-19.52"/>
<polygon fill="midnightblue" stroke="midnightblue" points="524.79,-49.02 517.22,-56.44 527.76,-55.36 524.79,-49.02"/>
</g>
<!-- Node6&#45;&gt;Node5 -->
<g id="edge8" class="edge">
<title>Node6&#45;&gt;Node5</title>
<path fill="none" stroke="midnightblue" d="M490.66,-46.98C486.42,-37.82 481.45,-27.09 478.05,-19.75"/>
<polygon fill="midnightblue" stroke="midnightblue" points="487.49,-48.48 494.87,-56.08 493.85,-45.54 487.49,-48.48"/>
</g>
<!-- Node6&#45;&gt;Node7 -->
<g id="edge7" class="edge">
<title>Node6&#45;&gt;Node7</title>
<path fill="none" stroke="midnightblue" d="M443.78,-54.54C389.92,-44.33 309,-29 258.95,-19.52"/>
<polygon fill="midnightblue" stroke="midnightblue" points="443.36,-58.02 453.84,-56.44 444.67,-51.14 443.36,-58.02"/>
</g>
<!-- Node9&#45;&gt;Node2 -->
<g id="edge12" class="edge">
<title>Node9&#45;&gt;Node2</title>
<path fill="none" stroke="midnightblue" d="M217.29,-167.04C291.32,-156.84 405.19,-141.16 475.18,-131.52"/>
<polygon fill="midnightblue" stroke="midnightblue" points="216.54,-163.61 207.11,-168.44 217.5,-170.55 216.54,-163.61"/>
</g>
<!-- Node9&#45;&gt;Node5 -->
<g id="edge15" class="edge">
<title>Node9&#45;&gt;Node5</title>
<path fill="none" stroke="midnightblue" d="M159.51,-161.07C186.77,-131.49 245.22,-69.81 271,-56 317.14,-31.29 376.14,-20.13 418.63,-15.11"/>
<polygon fill="midnightblue" stroke="midnightblue" points="156.87,-158.76 152.7,-168.5 162.03,-163.49 156.87,-158.76"/>
</g>
<!-- Node9&#45;&gt;Node7 -->
<g id="edge14" class="edge">
<title>Node9&#45;&gt;Node7</title>
<path fill="none" stroke="midnightblue" d="M152.73,-158.39C167.62,-122.59 199.73,-45.34 210.44,-19.57"/>
<polygon fill="midnightblue" stroke="midnightblue" points="149.32,-157.5 148.71,-168.08 155.78,-160.18 149.32,-157.5"/>
</g>
<!-- Node10 -->
<g id="node10" class="node">
<title>Node10</title>
<g id="a_node10"><a xlink:href="_render_extension_8cpp.html" target="_top" xlink:title="Implementation of RenderExtension, the core module of the render package.">
<polygon fill="white" stroke="black" points="28.5,-112.5 28.5,-131.5 147.5,-131.5 147.5,-112.5 28.5,-112.5"/>
<text text-anchor="middle" x="88" y="-119.5" font-family="Helvetica,sans-Serif" font-size="10.00">RenderExtension.cpp</text>
</a>
</g>
</g>
<!-- Node9&#45;&gt;Node10 -->
<g id="edge13" class="edge">
<title>Node9&#45;&gt;Node10</title>
<path fill="none" stroke="midnightblue" d="M128.38,-161.25C118.27,-151.67 105.72,-139.79 97.32,-131.83"/>
<polygon fill="midnightblue" stroke="midnightblue" points="126.18,-163.99 135.84,-168.32 130.99,-158.91 126.18,-163.99"/>
</g>
<!-- Node12&#45;&gt;Node1 -->
<g id="edge22" class="edge">
<title>Node12&#45;&gt;Node1</title>
<path fill="none" stroke="midnightblue" d="M389.46,-253.69C390.11,-262.64 389.68,-272.93 388.17,-280.08"/>
<polygon fill="midnightblue" stroke="midnightblue" points="392.92,-253.2 388.13,-243.75 385.98,-254.13 392.92,-253.2"/>
</g>
<!-- Node12&#45;&gt;Node2 -->
<g id="edge18" class="edge">
<title>Node12&#45;&gt;Node2</title>
<path fill="none" stroke="midnightblue" d="M403.42,-218.42C435.99,-195.15 498.71,-150.35 524.97,-131.59"/>
<polygon fill="midnightblue" stroke="midnightblue" points="401.19,-215.71 395.08,-224.37 405.26,-221.4 401.19,-215.71"/>
</g>
<!-- Node12&#45;&gt;Node7 -->
<g id="edge19" class="edge">
<title>Node12&#45;&gt;Node7</title>
<path fill="none" stroke="midnightblue" d="M328.13,-221.44C307.83,-214.7 286.1,-204.2 271,-188 223.9,-137.46 215.71,-47.73 214.3,-19.65"/>
<polygon fill="midnightblue" stroke="midnightblue" points="327.36,-224.86 337.95,-224.45 329.42,-218.17 327.36,-224.86"/>
</g>
<!-- Node12&#45;&gt;Node9 -->
<g id="edge20" class="edge">
<title>Node12&#45;&gt;Node9</title>
<path fill="none" stroke="midnightblue" d="M335.48,-222.22C290.5,-212.01 223.9,-196.9 182.54,-187.52"/>
<polygon fill="midnightblue" stroke="midnightblue" points="334.76,-225.64 345.29,-224.44 336.31,-218.82 334.76,-225.64"/>
</g>
<!-- Node12&#45;&gt;Node11 -->
<g id="edge21" class="edge">
<title>Node12&#45;&gt;Node11</title>
<path fill="none" stroke="midnightblue" d="M422.17,-221.57C457.07,-211.38 507.35,-196.7 538.82,-187.52"/>
<polygon fill="midnightblue" stroke="midnightblue" points="420.93,-218.28 412.31,-224.44 422.89,-225 420.93,-218.28"/>
</g>
<!-- Node13 -->
<g id="node13" class="node">
<title>Node13</title>
<g id="a_node13"><a xlink:href="_render_information_base_8cpp.html" target="_top" xlink:title="Implementation of the RenderInformationBase class.">
<polygon fill="white" stroke="black" points="280,-168.5 280,-187.5 432,-187.5 432,-168.5 280,-168.5"/>
<text text-anchor="middle" x="356" y="-175.5" font-family="Helvetica,sans-Serif" font-size="10.00">RenderInformationBase.cpp</text>
</a>
</g>
</g>
<!-- Node12&#45;&gt;Node13 -->
<g id="edge23" class="edge">
<title>Node12&#45;&gt;Node13</title>
<path fill="none" stroke="midnightblue" d="M373.99,-214.98C369.41,-205.82 364.05,-195.09 360.38,-187.75"/>
<polygon fill="midnightblue" stroke="midnightblue" points="370.94,-216.7 378.54,-224.08 377.2,-213.57 370.94,-216.7"/>
</g>
</g>
</svg>
        <g id="navigator" transform="translate(0 0)" fill="#404254">
                <rect fill="#f2f5e9" fill-opacity="0.5" stroke="#606060" stroke-width=".5" x="0" y="0" width="60" height="60"/>
                <use id="zoomplus" xlink:href="#zoomPlus" x="17" y="9" onmousedown="handleZoom(evt,'in')"/>
                <use id="zoomminus" xlink:href="#zoomMin" x="42" y="9" onmousedown="handleZoom(evt,'out')"/>
                <use id="reset" xlink:href="#resetDef" x="30" y="36" onmousedown="handleReset()"/>
                <g id="arrowUp" xlink:href="#dirArrow" transform="translate(30 24)" onmousedown="handlePan(0,-1)">
                  <use xlink:href="#rim" fill="#404040">
                        <set attributeName="fill" to="#808080" begin="arrowUp.mouseover" end="arrowUp.mouseout"/>
                  </use>
                  <path fill="none" stroke="white" stroke-width="1.5" d="M0,-3.0v7 M-2.5,-0.5L0,-3.0L2.5,-0.5"/>
                </g>
                <g id="arrowRight" xlink:href="#dirArrow" transform="rotate(90) translate(36 -43)" onmousedown="handlePan(1,0)">
                  <use xlink:href="#rim" fill="#404040">
                        <set attributeName="fill" to="#808080" begin="arrowRight.mouseover" end="arrowRight.mouseout"/>
                  </use>
                  <path fill="none" stroke="white" stroke-width="1.5" d="M0,-3.0v7 M-2.5,-0.5L0,-3.0L2.5,-0.5"/>
                </g>
                <g id="arrowDown" xlink:href="#dirArrow" transform="rotate(180) translate(-30 -48)" onmousedown="handlePan(0,1)">
                  <use xlink:href="#rim" fill="#404040">
                        <set attributeName="fill" to="#808080" begin="arrowDown.mouseover" end="arrowDown.mouseout"/>
                  </use>
                  <path fill="none" stroke="white" stroke-width="1.5" d="M0,-3.0v7 M-2.5,-0.5L0,-3.0L2.5,-0.5"/>
                </g>
                <g id="arrowLeft" xlink:href="#dirArrow" transform="rotate(270) translate(-36 17)" onmousedown="handlePan(-1,0)">
                  <use xlink:href="#rim" fill="#404040">
                        <set attributeName="fill" to="#808080" begin="arrowLeft.mouseover" end="arrowLeft.mouseout"/>
                  </use>
                  <path fill="none" stroke="white" stroke-width="1.5" d="M0,-3.0v7 M-2.5,-0.5L0,-3.0L2.5,-0.5"/>
                </g>
        </g>
        <svg viewBox="0 0 15 15" width="100%" height="30px" preserveAspectRatio="xMaxYMin meet">
         <g id="arrow_out" transform="scale(0.3 0.3)">
          <a xlink:href="_list_of_global_render_information_8h__dep__incl_org.svg" target="_base">
           <rect id="button" ry="5" rx="5" y="6" x="6" height="38" width="38"
                fill="#f2f5e9" fill-opacity="0.5" stroke="#606060" stroke-width="1.0"/>
           <path id="arrow"
             d="M 11.500037,31.436501 C 11.940474,20.09759 22.043105,11.32322 32.158766,21.979434 L 37.068811,17.246167 C 37.068811,17.246167 37.088388,32 37.088388,32 L 22.160133,31.978069 C 22.160133,31.978069 26.997745,27.140456 26.997745,27.140456 C 18.528582,18.264221 13.291696,25.230495 11.500037,31.436501 z"
             style="fill:#404040;"/>
          </a>
         </g>
        </svg>
</svg>
