<?xml version="1.0" encoding="UTF-8" standalone="no"?>
<!DOCTYPE svg PUBLIC "-//W3C//DTD SVG 1.1//EN"
 "http://www.w3.org/Graphics/SVG/1.1/DTD/svg11.dtd">
<!-- Generated by graphviz version 2.43.0 (0)
 -->
<!-- Title: ListOfGeometryDefinitions.h Pages: 1 -->
<svg width="916pt" height="252pt"
 viewBox="0.00 0.00 916.00 252.00" xmlns="http://www.w3.org/2000/svg" xmlns:xlink="http://www.w3.org/1999/xlink">
<g id="graph0" class="graph" transform="scale(1 1) rotate(0) translate(4 248)">
<title>ListOfGeometryDefinitions.h</title>
<polygon fill="white" stroke="transparent" points="-4,4 -4,-248 912,-248 912,4 -4,4"/>
<!-- Node1 -->
<g id="node1" class="node">
<title>Node1</title>
<g id="a_node1"><a xlink:title="Definition of the ListOfGeometryDefinitions class.">
<polygon fill="#bfbfbf" stroke="black" points="492,-224.5 492,-243.5 647,-243.5 647,-224.5 492,-224.5"/>
<text text-anchor="middle" x="569.5" y="-231.5" font-family="Helvetica,sans-Serif" font-size="10.00">ListOfGeometryDefinitions.h</text>
</a>
</g>
</g>
<!-- Node2 -->
<g id="node2" class="node">
<title>Node2</title>
<g id="a_node2"><a xlink:href="_geometry_8h.html" target="_top" xlink:title="Definition of the Geometry class.">
<polygon fill="white" stroke="black" points="289,-168.5 289,-187.5 362,-187.5 362,-168.5 289,-168.5"/>
<text text-anchor="middle" x="325.5" y="-175.5" font-family="Helvetica,sans-Serif" font-size="10.00">Geometry.h</text>
</a>
</g>
</g>
<!-- Node1&#45;&gt;Node2 -->
<g id="edge1" class="edge">
<title>Node1&#45;&gt;Node2</title>
<path fill="none" stroke="midnightblue" d="M520.95,-222.26C474.26,-211.92 404.7,-196.53 362.38,-187.16"/>
<polygon fill="midnightblue" stroke="midnightblue" points="520.32,-225.7 530.84,-224.44 521.83,-218.87 520.32,-225.7"/>
</g>
<!-- Node9 -->
<g id="node9" class="node">
<title>Node9</title>
<g id="a_node9"><a xlink:href="_geometry_definition_8cpp.html" target="_top" xlink:title="Implementation of the GeometryDefinition class.">
<polygon fill="white" stroke="black" points="590,-112.5 590,-131.5 723,-131.5 723,-112.5 590,-112.5"/>
<text text-anchor="middle" x="656.5" y="-119.5" font-family="Helvetica,sans-Serif" font-size="10.00">GeometryDefinition.cpp</text>
</a>
</g>
</g>
<!-- Node1&#45;&gt;Node9 -->
<g id="edge9" class="edge">
<title>Node1&#45;&gt;Node9</title>
<path fill="none" stroke="midnightblue" d="M582.73,-216.27C601.54,-192.49 635.31,-149.79 649.7,-131.59"/>
<polygon fill="midnightblue" stroke="midnightblue" points="579.78,-214.35 576.33,-224.37 585.28,-218.7 579.78,-214.35"/>
</g>
<!-- Node10 -->
<g id="node10" class="node">
<title>Node10</title>
<g id="a_node10"><a xlink:href="_list_of_geometry_definitions_8cpp.html" target="_top" xlink:title="Implementation of the ListOfGeometryDefinitions class.">
<polygon fill="white" stroke="black" points="741,-112.5 741,-131.5 908,-131.5 908,-112.5 741,-112.5"/>
<text text-anchor="middle" x="824.5" y="-119.5" font-family="Helvetica,sans-Serif" font-size="10.00">ListOfGeometryDefinitions.cpp</text>
</a>
</g>
</g>
<!-- Node1&#45;&gt;Node10 -->
<g id="edge10" class="edge">
<title>Node1&#45;&gt;Node10</title>
<path fill="none" stroke="midnightblue" d="M598.93,-220.3C651.42,-197.66 759.89,-150.87 804.58,-131.59"/>
<polygon fill="midnightblue" stroke="midnightblue" points="597.31,-217.19 589.51,-224.37 600.08,-223.62 597.31,-217.19"/>
</g>
<!-- Node11 -->
<g id="node11" class="node">
<title>Node11</title>
<g id="a_node11"><a xlink:href="_mixed_geometry_8h.html" target="_top" xlink:title="Definition of the MixedGeometry class.">
<polygon fill="white" stroke="black" points="479.5,-168.5 479.5,-187.5 581.5,-187.5 581.5,-168.5 479.5,-168.5"/>
<text text-anchor="middle" x="530.5" y="-175.5" font-family="Helvetica,sans-Serif" font-size="10.00">MixedGeometry.h</text>
</a>
</g>
</g>
<!-- Node1&#45;&gt;Node11 -->
<g id="edge11" class="edge">
<title>Node1&#45;&gt;Node11</title>
<path fill="none" stroke="midnightblue" d="M557.12,-215.86C550.36,-206.5 542.29,-195.33 536.82,-187.75"/>
<polygon fill="midnightblue" stroke="midnightblue" points="554.37,-218.03 563.06,-224.08 560.04,-213.93 554.37,-218.03"/>
</g>
<!-- Node3 -->
<g id="node3" class="node">
<title>Node3</title>
<g id="a_node3"><a xlink:href="_spatial_extension_types_8h.html" target="_top" xlink:title="Definition of SpatialExtensionTypes.">
<polygon fill="white" stroke="black" points="286,-56.5 286,-75.5 421,-75.5 421,-56.5 286,-56.5"/>
<text text-anchor="middle" x="353.5" y="-63.5" font-family="Helvetica,sans-Serif" font-size="10.00">SpatialExtensionTypes.h</text>
</a>
</g>
</g>
<!-- Node2&#45;&gt;Node3 -->
<g id="edge2" class="edge">
<title>Node2&#45;&gt;Node3</title>
<path fill="none" stroke="midnightblue" d="M315.29,-159.3C308.99,-145.98 303.21,-127.44 309.5,-112 315.77,-96.62 330.11,-83.64 340.72,-75.63"/>
<polygon fill="midnightblue" stroke="midnightblue" points="312.28,-161.1 320.02,-168.34 318.48,-157.85 312.28,-161.1"/>
</g>
<!-- Node5 -->
<g id="node5" class="node">
<title>Node5</title>
<g id="a_node5"><a xlink:href="_spatial_model_plugin_8h.html" target="_top" xlink:title="Definition of the SpatialModelPlugin class.">
<polygon fill="white" stroke="black" points="143,-112.5 143,-131.5 262,-131.5 262,-112.5 143,-112.5"/>
<text text-anchor="middle" x="202.5" y="-119.5" font-family="Helvetica,sans-Serif" font-size="10.00">SpatialModelPlugin.h</text>
</a>
</g>
</g>
<!-- Node2&#45;&gt;Node5 -->
<g id="edge4" class="edge">
<title>Node2&#45;&gt;Node5</title>
<path fill="none" stroke="midnightblue" d="M296.73,-164.37C273.69,-154.26 242.02,-140.35 221.9,-131.52"/>
<polygon fill="midnightblue" stroke="midnightblue" points="295.45,-167.63 306.01,-168.44 298.26,-161.22 295.45,-167.63"/>
</g>
<!-- Node8 -->
<g id="node8" class="node">
<title>Node8</title>
<g id="a_node8"><a xlink:href="_geometry_8cpp.html" target="_top" xlink:title="Implementation of the Geometry class.">
<polygon fill="white" stroke="black" points="318.5,-112.5 318.5,-131.5 402.5,-131.5 402.5,-112.5 318.5,-112.5"/>
<text text-anchor="middle" x="360.5" y="-119.5" font-family="Helvetica,sans-Serif" font-size="10.00">Geometry.cpp</text>
</a>
</g>
</g>
<!-- Node2&#45;&gt;Node8 -->
<g id="edge8" class="edge">
<title>Node2&#45;&gt;Node8</title>
<path fill="none" stroke="midnightblue" d="M336.8,-159.57C342.82,-150.27 349.97,-139.25 354.83,-131.75"/>
<polygon fill="midnightblue" stroke="midnightblue" points="333.78,-157.79 331.28,-168.08 339.66,-161.6 333.78,-157.79"/>
</g>
<!-- Node4 -->
<g id="node4" class="node">
<title>Node4</title>
<g id="a_node4"><a xlink:href="_spatial_validator_8cpp.html" target="_top" xlink:title="Definition of SpatialValidator.">
<polygon fill="white" stroke="black" points="297,-0.5 297,-19.5 410,-19.5 410,-0.5 297,-0.5"/>
<text text-anchor="middle" x="353.5" y="-7.5" font-family="Helvetica,sans-Serif" font-size="10.00">SpatialValidator.cpp</text>
</a>
</g>
</g>
<!-- Node3&#45;&gt;Node4 -->
<g id="edge3" class="edge">
<title>Node3&#45;&gt;Node4</title>
<path fill="none" stroke="midnightblue" d="M353.5,-45.8C353.5,-36.91 353.5,-26.78 353.5,-19.75"/>
<polygon fill="midnightblue" stroke="midnightblue" points="350,-46.08 353.5,-56.08 357,-46.08 350,-46.08"/>
</g>
<!-- Node5&#45;&gt;Node3 -->
<g id="edge5" class="edge">
<title>Node5&#45;&gt;Node3</title>
<path fill="none" stroke="midnightblue" d="M235.95,-109.04C264.36,-98.88 304.44,-84.55 329.69,-75.52"/>
<polygon fill="midnightblue" stroke="midnightblue" points="234.66,-105.78 226.43,-112.44 237.02,-112.37 234.66,-105.78"/>
</g>
<!-- Node6 -->
<g id="node6" class="node">
<title>Node6</title>
<g id="a_node6"><a xlink:href="_spatial_extension_8cpp.html" target="_top" xlink:title="Implementation of SpatialExtension.">
<polygon fill="white" stroke="black" points="0,-56.5 0,-75.5 119,-75.5 119,-56.5 0,-56.5"/>
<text text-anchor="middle" x="59.5" y="-63.5" font-family="Helvetica,sans-Serif" font-size="10.00">SpatialExtension.cpp</text>
</a>
</g>
</g>
<!-- Node5&#45;&gt;Node6 -->
<g id="edge6" class="edge">
<title>Node5&#45;&gt;Node6</title>
<path fill="none" stroke="midnightblue" d="M170.47,-108.91C143.59,-98.75 105.86,-84.51 82.05,-75.52"/>
<polygon fill="midnightblue" stroke="midnightblue" points="169.25,-112.19 179.84,-112.44 171.72,-105.64 169.25,-112.19"/>
</g>
<!-- Node7 -->
<g id="node7" class="node">
<title>Node7</title>
<g id="a_node7"><a xlink:href="_spatial_model_plugin_8cpp.html" target="_top" xlink:title="Implementation of the SpatialModelPlugin class.">
<polygon fill="white" stroke="black" points="137,-56.5 137,-75.5 268,-75.5 268,-56.5 137,-56.5"/>
<text text-anchor="middle" x="202.5" y="-63.5" font-family="Helvetica,sans-Serif" font-size="10.00">SpatialModelPlugin.cpp</text>
</a>
</g>
</g>
<!-- Node5&#45;&gt;Node7 -->
<g id="edge7" class="edge">
<title>Node5&#45;&gt;Node7</title>
<path fill="none" stroke="midnightblue" d="M202.5,-101.8C202.5,-92.91 202.5,-82.78 202.5,-75.75"/>
<polygon fill="midnightblue" stroke="midnightblue" points="199,-102.08 202.5,-112.08 206,-102.08 199,-102.08"/>
</g>
<!-- Node11&#45;&gt;Node3 -->
<g id="edge12" class="edge">
<title>Node11&#45;&gt;Node3</title>
<path fill="none" stroke="midnightblue" d="M505.27,-163.72C489.12,-155.04 467.83,-143.27 449.5,-132 418.46,-112.92 383.32,-88.33 365.4,-75.56"/>
<polygon fill="midnightblue" stroke="midnightblue" points="503.65,-166.83 514.12,-168.45 506.95,-160.65 503.65,-166.83"/>
</g>
<!-- Node11&#45;&gt;Node8 -->
<g id="edge13" class="edge">
<title>Node11&#45;&gt;Node8</title>
<path fill="none" stroke="midnightblue" d="M493.68,-165.3C461.65,-155.13 415.98,-140.62 387.31,-131.52"/>
<polygon fill="midnightblue" stroke="midnightblue" points="492.97,-168.75 503.56,-168.44 495.09,-162.08 492.97,-168.75"/>
</g>
<!-- Node11&#45;&gt;Node9 -->
<g id="edge14" class="edge">
<title>Node11&#45;&gt;Node9</title>
<path fill="none" stroke="midnightblue" d="M559.66,-164.5C583.28,-154.38 615.93,-140.39 636.63,-131.52"/>
<polygon fill="midnightblue" stroke="midnightblue" points="558.28,-161.29 550.47,-168.44 561.04,-167.72 558.28,-161.29"/>
</g>
<!-- Node11&#45;&gt;Node10 -->
<g id="edge15" class="edge">
<title>Node11&#45;&gt;Node10</title>
<path fill="none" stroke="midnightblue" d="M587.12,-166.6C642.68,-156.4 726.4,-141.02 778.13,-131.52"/>
<polygon fill="midnightblue" stroke="midnightblue" points="586.29,-163.19 577.09,-168.44 587.55,-170.08 586.29,-163.19"/>
</g>
<!-- Node12 -->
<g id="node12" class="node">
<title>Node12</title>
<g id="a_node12"><a xlink:href="_mixed_geometry_8cpp.html" target="_top" xlink:title="Implementation of the MixedGeometry class.">
<polygon fill="white" stroke="black" points="459,-112.5 459,-131.5 572,-131.5 572,-112.5 459,-112.5"/>
<text text-anchor="middle" x="515.5" y="-119.5" font-family="Helvetica,sans-Serif" font-size="10.00">MixedGeometry.cpp</text>
</a>
</g>
</g>
<!-- Node11&#45;&gt;Node12 -->
<g id="edge16" class="edge">
<title>Node11&#45;&gt;Node12</title>
<path fill="none" stroke="midnightblue" d="M525.33,-158.4C522.82,-149.36 519.93,-138.94 517.93,-131.75"/>
<polygon fill="midnightblue" stroke="midnightblue" points="521.97,-159.38 528.02,-168.08 528.72,-157.51 521.97,-159.38"/>
</g>
</g>
</svg>
