<?xml version="1.0" encoding="UTF-8" standalone="no"?>
<!DOCTYPE svg PUBLIC "-//W3C//DTD SVG 1.1//EN"
 "http://www.w3.org/Graphics/SVG/1.1/DTD/svg11.dtd">
<!-- Generated by graphviz version 2.43.0 (0)
 -->
<!-- Title: ListOfExternalModelDefinitions.h Pages: 1 -->
<svg width="830pt" height="196pt"
 viewBox="0.00 0.00 830.00 196.00" xmlns="http://www.w3.org/2000/svg" xmlns:xlink="http://www.w3.org/1999/xlink">
<g id="graph0" class="graph" transform="scale(1 1) rotate(0) translate(4 192)">
<title>ListOfExternalModelDefinitions.h</title>
<polygon fill="white" stroke="transparent" points="-4,4 -4,-192 826,-192 826,4 -4,4"/>
<!-- Node1 -->
<g id="node1" class="node">
<title>Node1</title>
<g id="a_node1"><a xlink:title="Definition of ListOfExternalModelDefinitions, the SBase derived class of the Hierarchial Model Defint...">
<polygon fill="#bfbfbf" stroke="black" points="288.5,-168.5 288.5,-187.5 465.5,-187.5 465.5,-168.5 288.5,-168.5"/>
<text text-anchor="middle" x="377" y="-175.5" font-family="Helvetica,sans-Serif" font-size="10.00">ListOfExternalModelDefinitions.h</text>
</a>
</g>
</g>
<!-- Node2 -->
<g id="node2" class="node">
<title>Node2</title>
<g id="a_node2"><a xlink:href="_comp_extension_types_8h.html" target="_top" xlink:title="Include all SBML types of Comp extension in a single header file.">
<polygon fill="white" stroke="black" points="92,-56.5 92,-75.5 222,-75.5 222,-56.5 92,-56.5"/>
<text text-anchor="middle" x="157" y="-63.5" font-family="Helvetica,sans-Serif" font-size="10.00">CompExtensionTypes.h</text>
</a>
</g>
</g>
<!-- Node1&#45;&gt;Node2 -->
<g id="edge1" class="edge">
<title>Node1&#45;&gt;Node2</title>
<path fill="none" stroke="midnightblue" d="M350.76,-163.88C305.16,-141.08 212.5,-94.75 174.18,-75.59"/>
<polygon fill="midnightblue" stroke="midnightblue" points="349.23,-167.03 359.74,-168.37 352.36,-160.77 349.23,-167.03"/>
</g>
<!-- Node5 -->
<g id="node5" class="node">
<title>Node5</title>
<g id="a_node5"><a xlink:href="_comp_s_b_m_l_document_plugin_8h.html" target="_top" xlink:title="Definition of CompSBMLDocumentPlugin, the plugin class of comp package for the Model element.">
<polygon fill="white" stroke="black" points="296.5,-112.5 296.5,-131.5 457.5,-131.5 457.5,-112.5 296.5,-112.5"/>
<text text-anchor="middle" x="377" y="-119.5" font-family="Helvetica,sans-Serif" font-size="10.00">CompSBMLDocumentPlugin.h</text>
</a>
</g>
</g>
<!-- Node1&#45;&gt;Node5 -->
<g id="edge4" class="edge">
<title>Node1&#45;&gt;Node5</title>
<path fill="none" stroke="midnightblue" d="M377,-157.8C377,-148.91 377,-138.78 377,-131.75"/>
<polygon fill="midnightblue" stroke="midnightblue" points="373.5,-158.08 377,-168.08 380.5,-158.08 373.5,-158.08"/>
</g>
<!-- Node10 -->
<g id="node10" class="node">
<title>Node10</title>
<g id="a_node10"><a xlink:href="_list_of_external_model_definitions_8cpp.html" target="_top" xlink:title="Implementation of ListOfExternalModelDefinitions.">
<polygon fill="white" stroke="black" points="476,-112.5 476,-131.5 664,-131.5 664,-112.5 476,-112.5"/>
<text text-anchor="middle" x="570" y="-119.5" font-family="Helvetica,sans-Serif" font-size="10.00">ListOfExternalModelDefinitions.cpp</text>
</a>
</g>
</g>
<!-- Node1&#45;&gt;Node10 -->
<g id="edge10" class="edge">
<title>Node1&#45;&gt;Node10</title>
<path fill="none" stroke="midnightblue" d="M417.39,-165.7C453.82,-155.51 506.59,-140.74 539.56,-131.52"/>
<polygon fill="midnightblue" stroke="midnightblue" points="416.27,-162.38 407.58,-168.44 418.15,-169.12 416.27,-162.38"/>
</g>
<!-- Node3 -->
<g id="node3" class="node">
<title>Node3</title>
<g id="a_node3"><a xlink:href="_comp_flattening_converter_8cpp.html" target="_top" xlink:title="Implementation of a first flattening converter.">
<polygon fill="white" stroke="black" points="0,-0.5 0,-19.5 162,-19.5 162,-0.5 0,-0.5"/>
<text text-anchor="middle" x="81" y="-7.5" font-family="Helvetica,sans-Serif" font-size="10.00">CompFlatteningConverter.cpp</text>
</a>
</g>
</g>
<!-- Node2&#45;&gt;Node3 -->
<g id="edge2" class="edge">
<title>Node2&#45;&gt;Node3</title>
<path fill="none" stroke="midnightblue" d="M136.42,-50.38C122.69,-40.62 105.07,-28.11 93.43,-19.83"/>
<polygon fill="midnightblue" stroke="midnightblue" points="134.61,-53.38 144.79,-56.32 138.66,-47.68 134.61,-53.38"/>
</g>
<!-- Node4 -->
<g id="node4" class="node">
<title>Node4</title>
<g id="a_node4"><a xlink:href="_comp_validator_8cpp.html" target="_top" xlink:title=" ">
<polygon fill="white" stroke="black" points="180,-0.5 180,-19.5 288,-19.5 288,-0.5 180,-0.5"/>
<text text-anchor="middle" x="234" y="-7.5" font-family="Helvetica,sans-Serif" font-size="10.00">CompValidator.cpp</text>
</a>
</g>
</g>
<!-- Node2&#45;&gt;Node4 -->
<g id="edge3" class="edge">
<title>Node2&#45;&gt;Node4</title>
<path fill="none" stroke="midnightblue" d="M177.9,-50.34C191.91,-40.52 209.88,-27.91 221.66,-19.65"/>
<polygon fill="midnightblue" stroke="midnightblue" points="175.55,-47.72 169.37,-56.32 179.57,-53.45 175.55,-47.72"/>
</g>
<!-- Node5&#45;&gt;Node2 -->
<g id="edge5" class="edge">
<title>Node5&#45;&gt;Node2</title>
<path fill="none" stroke="midnightblue" d="M332.28,-110.02C290.72,-99.82 229.69,-84.84 191.7,-75.52"/>
<polygon fill="midnightblue" stroke="midnightblue" points="331.59,-113.46 342.14,-112.44 333.26,-106.66 331.59,-113.46"/>
</g>
<!-- Node6 -->
<g id="node6" class="node">
<title>Node6</title>
<g id="a_node6"><a xlink:href="_comp_extension_8cpp.html" target="_top" xlink:title="Implementation of CompExtension, the core module of comp package.">
<polygon fill="white" stroke="black" points="240.5,-56.5 240.5,-75.5 353.5,-75.5 353.5,-56.5 240.5,-56.5"/>
<text text-anchor="middle" x="297" y="-63.5" font-family="Helvetica,sans-Serif" font-size="10.00">CompExtension.cpp</text>
</a>
</g>
</g>
<!-- Node5&#45;&gt;Node6 -->
<g id="edge6" class="edge">
<title>Node5&#45;&gt;Node6</title>
<path fill="none" stroke="midnightblue" d="M355.7,-106.62C341.08,-96.76 322.17,-83.99 309.82,-75.65"/>
<polygon fill="midnightblue" stroke="midnightblue" points="353.9,-109.63 364.15,-112.32 357.82,-103.83 353.9,-109.63"/>
</g>
<!-- Node7 -->
<g id="node7" class="node">
<title>Node7</title>
<g id="a_node7"><a xlink:href="_comp_s_b_m_l_document_plugin_8cpp.html" target="_top" xlink:title="Implementation of CompSBMLDocumentPlugin, the plugin class of comp package for the SBase element.">
<polygon fill="white" stroke="black" points="371.5,-56.5 371.5,-75.5 544.5,-75.5 544.5,-56.5 371.5,-56.5"/>
<text text-anchor="middle" x="458" y="-63.5" font-family="Helvetica,sans-Serif" font-size="10.00">CompSBMLDocumentPlugin.cpp</text>
</a>
</g>
</g>
<!-- Node5&#45;&gt;Node7 -->
<g id="edge7" class="edge">
<title>Node5&#45;&gt;Node7</title>
<path fill="none" stroke="midnightblue" d="M398.57,-106.62C413.36,-96.76 432.51,-83.99 445.02,-75.65"/>
<polygon fill="midnightblue" stroke="midnightblue" points="396.39,-103.86 390.01,-112.32 400.28,-109.69 396.39,-103.86"/>
</g>
<!-- Node8 -->
<g id="node8" class="node">
<title>Node8</title>
<g id="a_node8"><a xlink:href="_external_model_definition_8cpp.html" target="_top" xlink:title="Implementation of ExternalModelDefinition, the SBase&#45;derived class of the comp package.">
<polygon fill="white" stroke="black" points="562.5,-56.5 562.5,-75.5 717.5,-75.5 717.5,-56.5 562.5,-56.5"/>
<text text-anchor="middle" x="640" y="-63.5" font-family="Helvetica,sans-Serif" font-size="10.00">ExternalModelDefinition.cpp</text>
</a>
</g>
</g>
<!-- Node5&#45;&gt;Node8 -->
<g id="edge8" class="edge">
<title>Node5&#45;&gt;Node8</title>
<path fill="none" stroke="midnightblue" d="M428.58,-110.41C478.28,-100.2 552.53,-84.96 598.52,-75.52"/>
<polygon fill="midnightblue" stroke="midnightblue" points="427.76,-107 418.67,-112.44 429.17,-113.86 427.76,-107"/>
</g>
<!-- Node9 -->
<g id="node9" class="node">
<title>Node9</title>
<g id="a_node9"><a xlink:href="_submodel_8cpp.html" target="_top" xlink:title="Implementation of Submodel, the SBase&#45;derived class of the comp package.">
<polygon fill="white" stroke="black" points="736,-56.5 736,-75.5 822,-75.5 822,-56.5 736,-56.5"/>
<text text-anchor="middle" x="779" y="-63.5" font-family="Helvetica,sans-Serif" font-size="10.00">Submodel.cpp</text>
</a>
</g>
</g>
<!-- Node5&#45;&gt;Node9 -->
<g id="edge9" class="edge">
<title>Node5&#45;&gt;Node9</title>
<path fill="none" stroke="midnightblue" d="M460.76,-111.27C531.75,-102.77 636.2,-89.69 727,-76 729.9,-75.56 732.89,-75.09 735.89,-74.61"/>
<polygon fill="midnightblue" stroke="midnightblue" points="460.05,-107.83 450.53,-112.49 460.88,-114.78 460.05,-107.83"/>
</g>
</g>
</svg>
