<?xml version="1.0" encoding="UTF-8" standalone="no"?>
<!DOCTYPE svg PUBLIC "-//W3C//DTD SVG 1.1//EN"
 "http://www.w3.org/Graphics/SVG/1.1/DTD/svg11.dtd">
<!-- Generated by graphviz version 2.43.0 (0)
 -->
<!-- Title: ListOfUncertainties.h Pages: 1 -->
<svg width="538pt" height="196pt"
 viewBox="0.00 0.00 538.00 196.00" xmlns="http://www.w3.org/2000/svg" xmlns:xlink="http://www.w3.org/1999/xlink">
<g id="graph0" class="graph" transform="scale(1 1) rotate(0) translate(4 192)">
<title>ListOfUncertainties.h</title>
<polygon fill="white" stroke="transparent" points="-4,4 -4,-192 534,-192 534,4 -4,4"/>
<!-- Node1 -->
<g id="node1" class="node">
<title>Node1</title>
<g id="a_node1"><a xlink:title="Definition of the ListOfUncertainties class.">
<polygon fill="#bfbfbf" stroke="black" points="294.5,-168.5 294.5,-187.5 413.5,-187.5 413.5,-168.5 294.5,-168.5"/>
<text text-anchor="middle" x="354" y="-175.5" font-family="Helvetica,sans-Serif" font-size="10.00">ListOfUncertainties.h</text>
</a>
</g>
</g>
<!-- Node2 -->
<g id="node2" class="node">
<title>Node2</title>
<g id="a_node2"><a xlink:href="_distrib_s_base_plugin_8h.html" target="_top" xlink:title="Definition of the DistribSBasePlugin class.">
<polygon fill="white" stroke="black" points="152,-112.5 152,-131.5 270,-131.5 270,-112.5 152,-112.5"/>
<text text-anchor="middle" x="211" y="-119.5" font-family="Helvetica,sans-Serif" font-size="10.00">DistribSBasePlugin.h</text>
</a>
</g>
</g>
<!-- Node1&#45;&gt;Node2 -->
<g id="edge1" class="edge">
<title>Node1&#45;&gt;Node2</title>
<path fill="none" stroke="midnightblue" d="M321.97,-164.91C295.09,-154.75 257.36,-140.51 233.55,-131.52"/>
<polygon fill="midnightblue" stroke="midnightblue" points="320.75,-168.19 331.34,-168.44 323.22,-161.64 320.75,-168.19"/>
</g>
<!-- Node7 -->
<g id="node7" class="node">
<title>Node7</title>
<g id="a_node7"><a xlink:href="_list_of_uncertainties_8cpp.html" target="_top" xlink:title="Implementation of the ListOfUncertainties class.">
<polygon fill="white" stroke="black" points="288.5,-112.5 288.5,-131.5 419.5,-131.5 419.5,-112.5 288.5,-112.5"/>
<text text-anchor="middle" x="354" y="-119.5" font-family="Helvetica,sans-Serif" font-size="10.00">ListOfUncertainties.cpp</text>
</a>
</g>
</g>
<!-- Node1&#45;&gt;Node7 -->
<g id="edge6" class="edge">
<title>Node1&#45;&gt;Node7</title>
<path fill="none" stroke="midnightblue" d="M354,-157.8C354,-148.91 354,-138.78 354,-131.75"/>
<polygon fill="midnightblue" stroke="midnightblue" points="350.5,-158.08 354,-168.08 357.5,-158.08 350.5,-158.08"/>
</g>
<!-- Node8 -->
<g id="node8" class="node">
<title>Node8</title>
<g id="a_node8"><a xlink:href="_uncertainty_8cpp.html" target="_top" xlink:title="Implementation of the Uncertainty class.">
<polygon fill="white" stroke="black" points="438,-112.5 438,-131.5 530,-131.5 530,-112.5 438,-112.5"/>
<text text-anchor="middle" x="484" y="-119.5" font-family="Helvetica,sans-Serif" font-size="10.00">Uncertainty.cpp</text>
</a>
</g>
</g>
<!-- Node1&#45;&gt;Node8 -->
<g id="edge7" class="edge">
<title>Node1&#45;&gt;Node8</title>
<path fill="none" stroke="midnightblue" d="M384.09,-164.5C408.46,-154.38 442.14,-140.39 463.5,-131.52"/>
<polygon fill="midnightblue" stroke="midnightblue" points="382.49,-161.38 374.6,-168.44 385.18,-167.84 382.49,-161.38"/>
</g>
<!-- Node3 -->
<g id="node3" class="node">
<title>Node3</title>
<g id="a_node3"><a xlink:href="_distrib_extension_types_8h.html" target="_top" xlink:title="Definition of DistribExtensionTypes.">
<polygon fill="white" stroke="black" points="0,-56.5 0,-75.5 134,-75.5 134,-56.5 0,-56.5"/>
<text text-anchor="middle" x="67" y="-63.5" font-family="Helvetica,sans-Serif" font-size="10.00">DistribExtensionTypes.h</text>
</a>
</g>
</g>
<!-- Node2&#45;&gt;Node3 -->
<g id="edge2" class="edge">
<title>Node2&#45;&gt;Node3</title>
<path fill="none" stroke="midnightblue" d="M178.75,-108.91C151.68,-98.75 113.68,-84.51 89.71,-75.52"/>
<polygon fill="midnightblue" stroke="midnightblue" points="177.59,-112.21 188.18,-112.44 180.05,-105.66 177.59,-112.21"/>
</g>
<!-- Node5 -->
<g id="node5" class="node">
<title>Node5</title>
<g id="a_node5"><a xlink:href="_distrib_extension_8cpp.html" target="_top" xlink:title="Implementation of DistribExtension.">
<polygon fill="white" stroke="black" points="152.5,-56.5 152.5,-75.5 269.5,-75.5 269.5,-56.5 152.5,-56.5"/>
<text text-anchor="middle" x="211" y="-63.5" font-family="Helvetica,sans-Serif" font-size="10.00">DistribExtension.cpp</text>
</a>
</g>
</g>
<!-- Node2&#45;&gt;Node5 -->
<g id="edge4" class="edge">
<title>Node2&#45;&gt;Node5</title>
<path fill="none" stroke="midnightblue" d="M211,-101.8C211,-92.91 211,-82.78 211,-75.75"/>
<polygon fill="midnightblue" stroke="midnightblue" points="207.5,-102.08 211,-112.08 214.5,-102.08 207.5,-102.08"/>
</g>
<!-- Node6 -->
<g id="node6" class="node">
<title>Node6</title>
<g id="a_node6"><a xlink:href="_distrib_s_base_plugin_8cpp.html" target="_top" xlink:title="Implementation of the DistribSBasePlugin class.">
<polygon fill="white" stroke="black" points="287.5,-56.5 287.5,-75.5 416.5,-75.5 416.5,-56.5 287.5,-56.5"/>
<text text-anchor="middle" x="352" y="-63.5" font-family="Helvetica,sans-Serif" font-size="10.00">DistribSBasePlugin.cpp</text>
</a>
</g>
</g>
<!-- Node2&#45;&gt;Node6 -->
<g id="edge5" class="edge">
<title>Node2&#45;&gt;Node6</title>
<path fill="none" stroke="midnightblue" d="M242.93,-108.77C269.41,-98.63 306.39,-84.47 329.76,-75.52"/>
<polygon fill="midnightblue" stroke="midnightblue" points="241.43,-105.6 233.34,-112.44 243.93,-112.14 241.43,-105.6"/>
</g>
<!-- Node4 -->
<g id="node4" class="node">
<title>Node4</title>
<g id="a_node4"><a xlink:href="_distrib_validator_8cpp.html" target="_top" xlink:title="Definition of DistribValidator.">
<polygon fill="white" stroke="black" points="11,-0.5 11,-19.5 123,-19.5 123,-0.5 11,-0.5"/>
<text text-anchor="middle" x="67" y="-7.5" font-family="Helvetica,sans-Serif" font-size="10.00">DistribValidator.cpp</text>
</a>
</g>
</g>
<!-- Node3&#45;&gt;Node4 -->
<g id="edge3" class="edge">
<title>Node3&#45;&gt;Node4</title>
<path fill="none" stroke="midnightblue" d="M67,-45.8C67,-36.91 67,-26.78 67,-19.75"/>
<polygon fill="midnightblue" stroke="midnightblue" points="63.5,-46.08 67,-56.08 70.5,-46.08 63.5,-46.08"/>
</g>
</g>
</svg>
