<?xml version="1.0" encoding="UTF-8" standalone="no"?>
<!DOCTYPE svg PUBLIC "-//W3C//DTD SVG 1.1//EN"
 "http://www.w3.org/Graphics/SVG/1.1/DTD/svg11.dtd">
<!-- Generated by graphviz version 2.43.0 (0)
 -->
<!-- Title: LocalStyle.h Pages: 1 -->
<svg width="1327pt" height="420pt"
 viewBox="0.00 0.00 1326.50 420.00" xmlns="http://www.w3.org/2000/svg" xmlns:xlink="http://www.w3.org/1999/xlink">
<g id="graph0" class="graph" transform="scale(1 1) rotate(0) translate(4 416)">
<title>LocalStyle.h</title>
<polygon fill="white" stroke="transparent" points="-4,4 -4,-416 1322.5,-416 1322.5,4 -4,4"/>
<!-- Node1 -->
<g id="node1" class="node">
<title>Node1</title>
<g id="a_node1"><a xlink:title="Definition of the LocalStyle class.">
<polygon fill="#bfbfbf" stroke="black" points="1034.5,-392.5 1034.5,-411.5 1110.5,-411.5 1110.5,-392.5 1034.5,-392.5"/>
<text text-anchor="middle" x="1072.5" y="-399.5" font-family="Helvetica,sans-Serif" font-size="10.00">LocalStyle.h</text>
</a>
</g>
</g>
<!-- Node2 -->
<g id="node2" class="node">
<title>Node2</title>
<g id="a_node2"><a xlink:href="_render_extension_types_8h.html" target="_top" xlink:title="Definition of RenderExtensionTypes.">
<polygon fill="white" stroke="black" points="604.5,-112.5 604.5,-131.5 740.5,-131.5 740.5,-112.5 604.5,-112.5"/>
<text text-anchor="middle" x="672.5" y="-119.5" font-family="Helvetica,sans-Serif" font-size="10.00">RenderExtensionTypes.h</text>
</a>
</g>
</g>
<!-- Node1&#45;&gt;Node2 -->
<g id="edge1" class="edge">
<title>Node1&#45;&gt;Node2</title>
<path fill="none" stroke="midnightblue" d="M1038.1,-388.44C1000.49,-372.23 945.5,-340.13 945.5,-291 945.5,-291 945.5,-291 945.5,-233 945.5,-199.54 934.82,-187.32 907.5,-168 881.13,-149.35 800.09,-136.76 740.52,-129.74"/>
<polygon fill="midnightblue" stroke="midnightblue" points="1037.13,-391.83 1047.71,-392.41 1039.8,-385.36 1037.13,-391.83"/>
</g>
<!-- Node9 -->
<g id="node9" class="node">
<title>Node9</title>
<g id="a_node9"><a xlink:href="_list_of_local_styles_8h.html" target="_top" xlink:title="Definition of the ListOfLocalStyles class.">
<polygon fill="white" stroke="black" points="1017.5,-336.5 1017.5,-355.5 1127.5,-355.5 1127.5,-336.5 1017.5,-336.5"/>
<text text-anchor="middle" x="1072.5" y="-343.5" font-family="Helvetica,sans-Serif" font-size="10.00">ListOfLocalStyles.h</text>
</a>
</g>
</g>
<!-- Node1&#45;&gt;Node9 -->
<g id="edge10" class="edge">
<title>Node1&#45;&gt;Node9</title>
<path fill="none" stroke="midnightblue" d="M1072.5,-381.8C1072.5,-372.91 1072.5,-362.78 1072.5,-355.75"/>
<polygon fill="midnightblue" stroke="midnightblue" points="1069,-382.08 1072.5,-392.08 1076,-382.08 1069,-382.08"/>
</g>
<!-- Node11 -->
<g id="node11" class="node">
<title>Node11</title>
<g id="a_node11"><a xlink:href="_local_render_information_8h.html" target="_top" xlink:title="Definition of the LocalRenderInformation class.">
<polygon fill="white" stroke="black" points="649,-280.5 649,-299.5 792,-299.5 792,-280.5 649,-280.5"/>
<text text-anchor="middle" x="720.5" y="-287.5" font-family="Helvetica,sans-Serif" font-size="10.00">LocalRenderInformation.h</text>
</a>
</g>
</g>
<!-- Node1&#45;&gt;Node11 -->
<g id="edge35" class="edge">
<title>Node1&#45;&gt;Node11</title>
<path fill="none" stroke="midnightblue" d="M1035.31,-389.38C964.27,-367.18 810.78,-319.21 748.05,-299.61"/>
<polygon fill="midnightblue" stroke="midnightblue" points="1034.58,-392.82 1045.17,-392.46 1036.67,-386.14 1034.58,-392.82"/>
</g>
<!-- Node19 -->
<g id="node19" class="node">
<title>Node19</title>
<g id="a_node19"><a xlink:href="_local_style_8cpp.html" target="_top" xlink:title="class for representing a local style">
<polygon fill="white" stroke="black" points="1151,-280.5 1151,-299.5 1238,-299.5 1238,-280.5 1151,-280.5"/>
<text text-anchor="middle" x="1194.5" y="-287.5" font-family="Helvetica,sans-Serif" font-size="10.00">LocalStyle.cpp</text>
</a>
</g>
</g>
<!-- Node1&#45;&gt;Node19 -->
<g id="edge36" class="edge">
<title>Node1&#45;&gt;Node19</title>
<path fill="none" stroke="midnightblue" d="M1095.26,-386.84C1107.93,-378.52 1123.68,-367.41 1136.5,-356 1157.06,-337.69 1177.7,-312.56 1187.92,-299.57"/>
<polygon fill="midnightblue" stroke="midnightblue" points="1093.18,-384.02 1086.67,-392.38 1096.97,-389.91 1093.18,-384.02"/>
</g>
<!-- Node20 -->
<g id="node20" class="node">
<title>Node20</title>
<g id="a_node20"><a xlink:href="_style_8cpp.html" target="_top" xlink:title="Implementation of the Style class.">
<polygon fill="white" stroke="black" points="1256.5,-280.5 1256.5,-299.5 1318.5,-299.5 1318.5,-280.5 1256.5,-280.5"/>
<text text-anchor="middle" x="1287.5" y="-287.5" font-family="Helvetica,sans-Serif" font-size="10.00">Style.cpp</text>
</a>
</g>
</g>
<!-- Node1&#45;&gt;Node20 -->
<g id="edge37" class="edge">
<title>Node1&#45;&gt;Node20</title>
<path fill="none" stroke="midnightblue" d="M1098.42,-387.75C1115.95,-378.79 1139.62,-366.68 1160.5,-356 1199.97,-335.81 1246.34,-312.07 1270.66,-299.62"/>
<polygon fill="midnightblue" stroke="midnightblue" points="1096.68,-384.71 1089.37,-392.37 1099.87,-390.94 1096.68,-384.71"/>
</g>
<!-- Node3 -->
<g id="node3" class="node">
<title>Node3</title>
<g id="a_node3"><a xlink:href="_render_layout_plugin_8cpp.html" target="_top" xlink:title="Implementation of RenderLayoutPlugin, the plugin class of the fbc package for the Model element.">
<polygon fill="white" stroke="black" points="461.5,-0.5 461.5,-19.5 595.5,-19.5 595.5,-0.5 461.5,-0.5"/>
<text text-anchor="middle" x="528.5" y="-7.5" font-family="Helvetica,sans-Serif" font-size="10.00">RenderLayoutPlugin.cpp</text>
</a>
</g>
</g>
<!-- Node2&#45;&gt;Node3 -->
<g id="edge2" class="edge">
<title>Node2&#45;&gt;Node3</title>
<path fill="none" stroke="midnightblue" d="M710.44,-108.96C740.89,-97.31 775.76,-78.2 757.5,-56 737.29,-31.44 655.74,-20.08 595.69,-14.96"/>
<polygon fill="midnightblue" stroke="midnightblue" points="708.99,-105.76 700.78,-112.47 711.38,-112.34 708.99,-105.76"/>
</g>
<!-- Node4 -->
<g id="node4" class="node">
<title>Node4</title>
<g id="a_node4"><a xlink:href="_render_layout_converter_8cpp.html" target="_top" xlink:title="Simple converter to convert Layout + Render from l2 to L3 and vice versa.">
<polygon fill="white" stroke="black" points="596.5,-56.5 596.5,-75.5 748.5,-75.5 748.5,-56.5 596.5,-56.5"/>
<text text-anchor="middle" x="672.5" y="-63.5" font-family="Helvetica,sans-Serif" font-size="10.00">RenderLayoutConverter.cpp</text>
</a>
</g>
</g>
<!-- Node2&#45;&gt;Node4 -->
<g id="edge3" class="edge">
<title>Node2&#45;&gt;Node4</title>
<path fill="none" stroke="midnightblue" d="M672.5,-101.8C672.5,-92.91 672.5,-82.78 672.5,-75.75"/>
<polygon fill="midnightblue" stroke="midnightblue" points="669,-102.08 672.5,-112.08 676,-102.08 669,-102.08"/>
</g>
<!-- Node5 -->
<g id="node5" class="node">
<title>Node5</title>
<g id="a_node5"><a xlink:href="_render_utilities_8cpp.html" target="_top" xlink:title="implementation of RenderUtilities, a class of utility functions for the render package">
<polygon fill="white" stroke="black" points="147.5,-0.5 147.5,-19.5 257.5,-19.5 257.5,-0.5 147.5,-0.5"/>
<text text-anchor="middle" x="202.5" y="-7.5" font-family="Helvetica,sans-Serif" font-size="10.00">RenderUtilities.cpp</text>
</a>
</g>
</g>
<!-- Node2&#45;&gt;Node5 -->
<g id="edge4" class="edge">
<title>Node2&#45;&gt;Node5</title>
<path fill="none" stroke="midnightblue" d="M594.33,-115.73C501.78,-108.75 353.62,-95.08 301.5,-76 265.2,-62.71 228.82,-33.89 212.06,-19.51"/>
<polygon fill="midnightblue" stroke="midnightblue" points="594.26,-119.23 604.49,-116.48 594.78,-112.25 594.26,-119.23"/>
</g>
<!-- Node6 -->
<g id="node6" class="node">
<title>Node6</title>
<g id="a_node6"><a xlink:href="_render_utilities_8h.html" target="_top" xlink:title="Definition of RenderUtilities, a class of utility functions for the render package.">
<polygon fill="white" stroke="black" points="310.5,-56.5 310.5,-75.5 408.5,-75.5 408.5,-56.5 310.5,-56.5"/>
<text text-anchor="middle" x="359.5" y="-63.5" font-family="Helvetica,sans-Serif" font-size="10.00">RenderUtilities.h</text>
</a>
</g>
</g>
<!-- Node2&#45;&gt;Node6 -->
<g id="edge5" class="edge">
<title>Node2&#45;&gt;Node6</title>
<path fill="none" stroke="midnightblue" d="M612.94,-110.72C553.7,-100.5 463.89,-85.01 408.61,-75.47"/>
<polygon fill="midnightblue" stroke="midnightblue" points="612.45,-114.19 622.9,-112.44 613.64,-107.29 612.45,-114.19"/>
</g>
<!-- Node8 -->
<g id="node8" class="node">
<title>Node8</title>
<g id="a_node8"><a xlink:href="_render_validator_8cpp.html" target="_top" xlink:title="Definition of RenderValidator.">
<polygon fill="white" stroke="black" points="464.5,-56.5 464.5,-75.5 578.5,-75.5 578.5,-56.5 464.5,-56.5"/>
<text text-anchor="middle" x="521.5" y="-63.5" font-family="Helvetica,sans-Serif" font-size="10.00">RenderValidator.cpp</text>
</a>
</g>
</g>
<!-- Node2&#45;&gt;Node8 -->
<g id="edge9" class="edge">
<title>Node2&#45;&gt;Node8</title>
<path fill="none" stroke="midnightblue" d="M639.05,-109.04C610.64,-98.88 570.56,-84.55 545.31,-75.52"/>
<polygon fill="midnightblue" stroke="midnightblue" points="637.98,-112.37 648.57,-112.44 640.34,-105.78 637.98,-112.37"/>
</g>
<!-- Node6&#45;&gt;Node3 -->
<g id="edge6" class="edge">
<title>Node6&#45;&gt;Node3</title>
<path fill="none" stroke="midnightblue" d="M396.1,-53.3C427.95,-43.13 473.34,-28.62 501.85,-19.52"/>
<polygon fill="midnightblue" stroke="midnightblue" points="394.74,-50.07 386.28,-56.44 396.87,-56.73 394.74,-50.07"/>
</g>
<!-- Node6&#45;&gt;Node5 -->
<g id="edge8" class="edge">
<title>Node6&#45;&gt;Node5</title>
<path fill="none" stroke="midnightblue" d="M325.11,-53.17C295.55,-43 253.63,-28.59 227.26,-19.52"/>
<polygon fill="midnightblue" stroke="midnightblue" points="324.03,-56.5 334.62,-56.44 326.3,-49.88 324.03,-56.5"/>
</g>
<!-- Node7 -->
<g id="node7" class="node">
<title>Node7</title>
<g id="a_node7"><a xlink:href="_render_list_of_layouts_plugin_8cpp.html" target="_top" xlink:title="Implementation of RenderListOfLayoutsPlugin, the plugin class of the fbc package for the Model elemen...">
<polygon fill="white" stroke="black" points="275.5,-0.5 275.5,-19.5 443.5,-19.5 443.5,-0.5 275.5,-0.5"/>
<text text-anchor="middle" x="359.5" y="-7.5" font-family="Helvetica,sans-Serif" font-size="10.00">RenderListOfLayoutsPlugin.cpp</text>
</a>
</g>
</g>
<!-- Node6&#45;&gt;Node7 -->
<g id="edge7" class="edge">
<title>Node6&#45;&gt;Node7</title>
<path fill="none" stroke="midnightblue" d="M359.5,-45.8C359.5,-36.91 359.5,-26.78 359.5,-19.75"/>
<polygon fill="midnightblue" stroke="midnightblue" points="356,-46.08 359.5,-56.08 363,-46.08 356,-46.08"/>
</g>
<!-- Node9&#45;&gt;Node2 -->
<g id="edge11" class="edge">
<title>Node9&#45;&gt;Node2</title>
<path fill="none" stroke="midnightblue" d="M1042.71,-331.75C1028.77,-324.22 1012.97,-313.57 1002.5,-300 964.81,-251.15 1006.46,-208.02 959.5,-168 927.45,-140.69 815.08,-129.86 740.82,-125.63"/>
<polygon fill="midnightblue" stroke="midnightblue" points="1041.47,-335.05 1051.97,-336.46 1044.64,-328.81 1041.47,-335.05"/>
</g>
<!-- Node10 -->
<g id="node10" class="node">
<title>Node10</title>
<g id="a_node10"><a xlink:href="_list_of_local_styles_8cpp.html" target="_top" xlink:title="Implementation of the ListOfLocalStyles class.">
<polygon fill="white" stroke="black" points="1012,-280.5 1012,-299.5 1133,-299.5 1133,-280.5 1012,-280.5"/>
<text text-anchor="middle" x="1072.5" y="-287.5" font-family="Helvetica,sans-Serif" font-size="10.00">ListOfLocalStyles.cpp</text>
</a>
</g>
</g>
<!-- Node9&#45;&gt;Node10 -->
<g id="edge12" class="edge">
<title>Node9&#45;&gt;Node10</title>
<path fill="none" stroke="midnightblue" d="M1072.5,-325.8C1072.5,-316.91 1072.5,-306.78 1072.5,-299.75"/>
<polygon fill="midnightblue" stroke="midnightblue" points="1069,-326.08 1072.5,-336.08 1076,-326.08 1069,-326.08"/>
</g>
<!-- Node9&#45;&gt;Node11 -->
<g id="edge13" class="edge">
<title>Node9&#45;&gt;Node11</title>
<path fill="none" stroke="midnightblue" d="M1007.17,-334.98C940.72,-324.78 838.87,-309.16 776.14,-299.54"/>
<polygon fill="midnightblue" stroke="midnightblue" points="1006.7,-338.45 1017.11,-336.5 1007.76,-331.53 1006.7,-338.45"/>
</g>
<!-- Node9&#45;&gt;Node19 -->
<g id="edge33" class="edge">
<title>Node9&#45;&gt;Node19</title>
<path fill="none" stroke="midnightblue" d="M1101.04,-332.37C1123.89,-322.26 1155.31,-308.35 1175.26,-299.52"/>
<polygon fill="midnightblue" stroke="midnightblue" points="1099.56,-329.2 1091.83,-336.44 1102.39,-335.6 1099.56,-329.2"/>
</g>
<!-- Node9&#45;&gt;Node20 -->
<g id="edge34" class="edge">
<title>Node9&#45;&gt;Node20</title>
<path fill="none" stroke="midnightblue" d="M1116.44,-333.96C1158.08,-323.5 1219.59,-308.06 1256.38,-298.82"/>
<polygon fill="midnightblue" stroke="midnightblue" points="1115.41,-330.61 1106.57,-336.44 1117.12,-337.4 1115.41,-330.61"/>
</g>
<!-- Node11&#45;&gt;Node2 -->
<g id="edge14" class="edge">
<title>Node11&#45;&gt;Node2</title>
<path fill="none" stroke="midnightblue" d="M763.61,-277.6C826.09,-259.02 930.04,-219.09 888.5,-168 870.04,-145.3 796.71,-133.67 740.56,-127.98"/>
<polygon fill="midnightblue" stroke="midnightblue" points="762.6,-274.25 753.97,-280.4 764.55,-280.98 762.6,-274.25"/>
</g>
<!-- Node12 -->
<g id="node12" class="node">
<title>Node12</title>
<g id="a_node12"><a xlink:href="_render_layout_plugin_8h.html" target="_top" xlink:title="Definition of RenderLayoutPlugin, the plugin class of fbc package for the Model element.">
<polygon fill="white" stroke="black" points="348,-168.5 348,-187.5 471,-187.5 471,-168.5 348,-168.5"/>
<text text-anchor="middle" x="409.5" y="-175.5" font-family="Helvetica,sans-Serif" font-size="10.00">RenderLayoutPlugin.h</text>
</a>
</g>
</g>
<!-- Node11&#45;&gt;Node12 -->
<g id="edge15" class="edge">
<title>Node11&#45;&gt;Node12</title>
<path fill="none" stroke="midnightblue" d="M673.05,-278.1C639.75,-269.96 594.4,-257.87 555.5,-244 507.68,-226.94 453.62,-201.06 426.68,-187.68"/>
<polygon fill="midnightblue" stroke="midnightblue" points="672.43,-281.55 682.97,-280.5 674.07,-274.75 672.43,-281.55"/>
</g>
<!-- Node14 -->
<g id="node14" class="node">
<title>Node14</title>
<g id="a_node14"><a xlink:href="_render_list_of_layouts_plugin_8h.html" target="_top" xlink:title="Definition of RenderListOfLayoutsPlugin, the plugin class of fbc package for the Model element.">
<polygon fill="white" stroke="black" points="0,-168.5 0,-187.5 157,-187.5 157,-168.5 0,-168.5"/>
<text text-anchor="middle" x="78.5" y="-175.5" font-family="Helvetica,sans-Serif" font-size="10.00">RenderListOfLayoutsPlugin.h</text>
</a>
</g>
</g>
<!-- Node11&#45;&gt;Node14 -->
<g id="edge20" class="edge">
<title>Node11&#45;&gt;Node14</title>
<path fill="none" stroke="midnightblue" d="M649.94,-279.04C589.69,-270.35 500.78,-257.13 423.5,-244 314.29,-225.44 186.25,-200.47 121.17,-187.55"/>
<polygon fill="midnightblue" stroke="midnightblue" points="649.71,-282.54 660.1,-280.5 650.7,-275.61 649.71,-282.54"/>
</g>
<!-- Node15 -->
<g id="node15" class="node">
<title>Node15</title>
<g id="a_node15"><a xlink:href="_list_of_local_render_information_8h.html" target="_top" xlink:title="Definition of the ListOfLocalRenderInformation class.">
<polygon fill="white" stroke="black" points="565,-224.5 565,-243.5 736,-243.5 736,-224.5 565,-224.5"/>
<text text-anchor="middle" x="650.5" y="-231.5" font-family="Helvetica,sans-Serif" font-size="10.00">ListOfLocalRenderInformation.h</text>
</a>
</g>
</g>
<!-- Node11&#45;&gt;Node15 -->
<g id="edge25" class="edge">
<title>Node11&#45;&gt;Node15</title>
<path fill="none" stroke="midnightblue" d="M701.19,-274.1C688.59,-264.38 672.57,-252.03 661.95,-243.83"/>
<polygon fill="midnightblue" stroke="midnightblue" points="699.2,-276.99 709.25,-280.32 703.47,-271.44 699.2,-276.99"/>
</g>
<!-- Node17 -->
<g id="node17" class="node">
<title>Node17</title>
<g id="a_node17"><a xlink:href="_local_render_information_8cpp.html" target="_top" xlink:title="Implementation of the LocalRenderInformation class.">
<polygon fill="white" stroke="black" points="175.5,-168.5 175.5,-187.5 329.5,-187.5 329.5,-168.5 175.5,-168.5"/>
<text text-anchor="middle" x="252.5" y="-175.5" font-family="Helvetica,sans-Serif" font-size="10.00">LocalRenderInformation.cpp</text>
</a>
</g>
</g>
<!-- Node11&#45;&gt;Node17 -->
<g id="edge31" class="edge">
<title>Node11&#45;&gt;Node17</title>
<path fill="none" stroke="midnightblue" d="M665.72,-278.49C621.53,-269.83 557.84,-256.9 502.5,-244 423.01,-225.47 330.19,-200.44 283.17,-187.51"/>
<polygon fill="midnightblue" stroke="midnightblue" points="665.2,-281.96 675.68,-280.44 666.54,-275.09 665.2,-281.96"/>
</g>
<!-- Node18 -->
<g id="node18" class="node">
<title>Node18</title>
<g id="a_node18"><a xlink:href="_render_information_base_8cpp.html" target="_top" xlink:title="Implementation of the RenderInformationBase class.">
<polygon fill="white" stroke="black" points="727.5,-168.5 727.5,-187.5 879.5,-187.5 879.5,-168.5 727.5,-168.5"/>
<text text-anchor="middle" x="803.5" y="-175.5" font-family="Helvetica,sans-Serif" font-size="10.00">RenderInformationBase.cpp</text>
</a>
</g>
</g>
<!-- Node11&#45;&gt;Node18 -->
<g id="edge32" class="edge">
<title>Node11&#45;&gt;Node18</title>
<path fill="none" stroke="midnightblue" d="M733.12,-272.27C751.06,-248.49 783.29,-205.79 797.02,-187.59"/>
<polygon fill="midnightblue" stroke="midnightblue" points="730.24,-270.28 727.01,-280.37 735.83,-274.49 730.24,-270.28"/>
</g>
<!-- Node12&#45;&gt;Node2 -->
<g id="edge16" class="edge">
<title>Node12&#45;&gt;Node2</title>
<path fill="none" stroke="midnightblue" d="M461.08,-166.41C510.78,-156.2 585.03,-140.96 631.02,-131.52"/>
<polygon fill="midnightblue" stroke="midnightblue" points="460.26,-163 451.17,-168.44 461.67,-169.86 460.26,-163"/>
</g>
<!-- Node12&#45;&gt;Node3 -->
<g id="edge18" class="edge">
<title>Node12&#45;&gt;Node3</title>
<path fill="none" stroke="midnightblue" d="M412.71,-158.26C417.88,-132.72 430.17,-86.64 455.5,-56 469.35,-39.25 491.15,-26.97 507.32,-19.51"/>
<polygon fill="midnightblue" stroke="midnightblue" points="409.2,-157.95 410.81,-168.42 416.08,-159.24 409.2,-157.95"/>
</g>
<!-- Node12&#45;&gt;Node5 -->
<g id="edge19" class="edge">
<title>Node12&#45;&gt;Node5</title>
<path fill="none" stroke="midnightblue" d="M398.51,-159.67C388.56,-145.19 372.7,-124.91 354.5,-112 318.02,-86.11 297.32,-101.41 260.5,-76 237.6,-60.2 217.65,-33.53 208.25,-19.78"/>
<polygon fill="midnightblue" stroke="midnightblue" points="395.72,-161.8 404.16,-168.2 401.56,-157.93 395.72,-161.8"/>
</g>
<!-- Node13 -->
<g id="node13" class="node">
<title>Node13</title>
<g id="a_node13"><a xlink:href="_render_extension_8cpp.html" target="_top" xlink:title="Implementation of RenderExtension, the core module of the render package.">
<polygon fill="white" stroke="black" points="227,-112.5 227,-131.5 346,-131.5 346,-112.5 227,-112.5"/>
<text text-anchor="middle" x="286.5" y="-119.5" font-family="Helvetica,sans-Serif" font-size="10.00">RenderExtension.cpp</text>
</a>
</g>
</g>
<!-- Node12&#45;&gt;Node13 -->
<g id="edge17" class="edge">
<title>Node12&#45;&gt;Node13</title>
<path fill="none" stroke="midnightblue" d="M380.73,-164.37C357.69,-154.26 326.02,-140.35 305.9,-131.52"/>
<polygon fill="midnightblue" stroke="midnightblue" points="379.45,-167.63 390.01,-168.44 382.26,-161.22 379.45,-167.63"/>
</g>
<!-- Node14&#45;&gt;Node2 -->
<g id="edge21" class="edge">
<title>Node14&#45;&gt;Node2</title>
<path fill="none" stroke="midnightblue" d="M167.4,-167.93C330.5,-152.39 508.87,-136.93 604.13,-128.79"/>
<polygon fill="midnightblue" stroke="midnightblue" points="166.8,-164.47 157.18,-168.9 167.46,-171.44 166.8,-164.47"/>
</g>
<!-- Node14&#45;&gt;Node5 -->
<g id="edge24" class="edge">
<title>Node14&#45;&gt;Node5</title>
<path fill="none" stroke="midnightblue" d="M91.38,-159.76C117.65,-124.59 176.6,-45.68 196.1,-19.57"/>
<polygon fill="midnightblue" stroke="midnightblue" points="88.35,-157.97 85.17,-168.08 93.96,-162.16 88.35,-157.97"/>
</g>
<!-- Node14&#45;&gt;Node7 -->
<g id="edge23" class="edge">
<title>Node14&#45;&gt;Node7</title>
<path fill="none" stroke="midnightblue" d="M102.1,-163.06C158.38,-129.81 299.23,-46.6 344.93,-19.61"/>
<polygon fill="midnightblue" stroke="midnightblue" points="100.04,-160.21 93.21,-168.31 103.6,-166.24 100.04,-160.21"/>
</g>
<!-- Node14&#45;&gt;Node13 -->
<g id="edge22" class="edge">
<title>Node14&#45;&gt;Node13</title>
<path fill="none" stroke="midnightblue" d="M121.28,-165.89C160.56,-155.7 217.93,-140.8 253.7,-131.52"/>
<polygon fill="midnightblue" stroke="midnightblue" points="120.26,-162.54 111.46,-168.44 122.02,-169.32 120.26,-162.54"/>
</g>
<!-- Node15&#45;&gt;Node2 -->
<g id="edge26" class="edge">
<title>Node15&#45;&gt;Node2</title>
<path fill="none" stroke="midnightblue" d="M665,-216.4C671.05,-208.39 677.38,-198.3 680.5,-188 686.43,-168.41 680.07,-144.23 675.76,-131.61"/>
<polygon fill="midnightblue" stroke="midnightblue" points="662.27,-214.2 658.71,-224.18 667.72,-218.6 662.27,-214.2"/>
</g>
<!-- Node15&#45;&gt;Node12 -->
<g id="edge27" class="edge">
<title>Node15&#45;&gt;Node12</title>
<path fill="none" stroke="midnightblue" d="M602.38,-222.22C556.84,-212.01 489.39,-196.9 447.51,-187.52"/>
<polygon fill="midnightblue" stroke="midnightblue" points="601.79,-225.67 612.31,-224.44 603.32,-218.84 601.79,-225.67"/>
</g>
<!-- Node16 -->
<g id="node16" class="node">
<title>Node16</title>
<g id="a_node16"><a xlink:href="_list_of_local_render_information_8cpp.html" target="_top" xlink:title="Implementation of the ListOfLocalRenderInformation class.">
<polygon fill="white" stroke="black" points="489.5,-168.5 489.5,-187.5 671.5,-187.5 671.5,-168.5 489.5,-168.5"/>
<text text-anchor="middle" x="580.5" y="-175.5" font-family="Helvetica,sans-Serif" font-size="10.00">ListOfLocalRenderInformation.cpp</text>
</a>
</g>
</g>
<!-- Node15&#45;&gt;Node16 -->
<g id="edge28" class="edge">
<title>Node15&#45;&gt;Node16</title>
<path fill="none" stroke="midnightblue" d="M631.19,-218.1C618.59,-208.38 602.57,-196.03 591.95,-187.83"/>
<polygon fill="midnightblue" stroke="midnightblue" points="629.2,-220.99 639.25,-224.32 633.47,-215.44 629.2,-220.99"/>
</g>
<!-- Node15&#45;&gt;Node17 -->
<g id="edge29" class="edge">
<title>Node15&#45;&gt;Node17</title>
<path fill="none" stroke="midnightblue" d="M577.11,-223.04C501.94,-212.84 386.32,-197.16 315.27,-187.52"/>
<polygon fill="midnightblue" stroke="midnightblue" points="577.06,-226.57 587.44,-224.44 578,-219.63 577.06,-226.57"/>
</g>
<!-- Node15&#45;&gt;Node18 -->
<g id="edge30" class="edge">
<title>Node15&#45;&gt;Node18</title>
<path fill="none" stroke="midnightblue" d="M684.39,-221.04C713.18,-210.88 753.79,-196.55 779.37,-187.52"/>
<polygon fill="midnightblue" stroke="midnightblue" points="683.01,-217.81 674.74,-224.44 685.34,-224.42 683.01,-217.81"/>
</g>
</g>
</svg>
