<?xml version="1.0" encoding="UTF-8" standalone="no"?>
<!DOCTYPE svg PUBLIC "-//W3C//DTD SVG 1.1//EN"
 "http://www.w3.org/Graphics/SVG/1.1/DTD/svg11.dtd">
<!-- Generated by graphviz version 2.43.0 (0)
 -->
<!-- Title: LocalRenderInformation.h Pages: 1 -->
<svg width="925pt" height="308pt"
 viewBox="0.00 0.00 925.00 308.00" xmlns="http://www.w3.org/2000/svg" xmlns:xlink="http://www.w3.org/1999/xlink">
<g id="graph0" class="graph" transform="scale(1 1) rotate(0) translate(4 304)">
<title>LocalRenderInformation.h</title>
<polygon fill="white" stroke="transparent" points="-4,4 -4,-304 921,-304 921,4 -4,4"/>
<!-- Node1 -->
<g id="node1" class="node">
<title>Node1</title>
<g id="a_node1"><a xlink:title="Definition of the LocalRenderInformation class.">
<polygon fill="#bfbfbf" stroke="black" points="312,-280.5 312,-299.5 455,-299.5 455,-280.5 312,-280.5"/>
<text text-anchor="middle" x="383.5" y="-287.5" font-family="Helvetica,sans-Serif" font-size="10.00">LocalRenderInformation.h</text>
</a>
</g>
</g>
<!-- Node2 -->
<g id="node2" class="node">
<title>Node2</title>
<g id="a_node2"><a xlink:href="_render_extension_types_8h.html" target="_top" xlink:title="Definition of RenderExtensionTypes.">
<polygon fill="white" stroke="black" points="246.5,-112.5 246.5,-131.5 382.5,-131.5 382.5,-112.5 246.5,-112.5"/>
<text text-anchor="middle" x="314.5" y="-119.5" font-family="Helvetica,sans-Serif" font-size="10.00">RenderExtensionTypes.h</text>
</a>
</g>
</g>
<!-- Node1&#45;&gt;Node2 -->
<g id="edge1" class="edge">
<title>Node1&#45;&gt;Node2</title>
<path fill="none" stroke="midnightblue" d="M305.64,-278.12C279.97,-271.53 252.62,-260.96 231.5,-244 209.32,-226.19 207.62,-215.54 200.5,-188 198.28,-179.39 195.5,-175.35 200.5,-168 213.55,-148.82 236.15,-137.82 257.81,-131.5"/>
<polygon fill="midnightblue" stroke="midnightblue" points="304.83,-281.52 315.37,-280.45 306.47,-274.72 304.83,-281.52"/>
</g>
<!-- Node9 -->
<g id="node9" class="node">
<title>Node9</title>
<g id="a_node9"><a xlink:href="_render_layout_plugin_8h.html" target="_top" xlink:title="Definition of RenderLayoutPlugin, the plugin class of fbc package for the Model element.">
<polygon fill="white" stroke="black" points="0,-168.5 0,-187.5 123,-187.5 123,-168.5 0,-168.5"/>
<text text-anchor="middle" x="61.5" y="-175.5" font-family="Helvetica,sans-Serif" font-size="10.00">RenderLayoutPlugin.h</text>
</a>
</g>
</g>
<!-- Node1&#45;&gt;Node9 -->
<g id="edge10" class="edge">
<title>Node1&#45;&gt;Node9</title>
<path fill="none" stroke="midnightblue" d="M301.79,-284.8C252.27,-279.69 188.94,-268.48 137.5,-244 108.34,-230.12 81.43,-202.1 68.9,-187.81"/>
<polygon fill="midnightblue" stroke="midnightblue" points="301.53,-288.29 311.82,-285.77 302.21,-281.32 301.53,-288.29"/>
</g>
<!-- Node11 -->
<g id="node11" class="node">
<title>Node11</title>
<g id="a_node11"><a xlink:href="_render_list_of_layouts_plugin_8h.html" target="_top" xlink:title="Definition of RenderListOfLayoutsPlugin, the plugin class of fbc package for the Model element.">
<polygon fill="white" stroke="black" points="760,-168.5 760,-187.5 917,-187.5 917,-168.5 760,-168.5"/>
<text text-anchor="middle" x="838.5" y="-175.5" font-family="Helvetica,sans-Serif" font-size="10.00">RenderListOfLayoutsPlugin.h</text>
</a>
</g>
</g>
<!-- Node1&#45;&gt;Node11 -->
<g id="edge15" class="edge">
<title>Node1&#45;&gt;Node11</title>
<path fill="none" stroke="midnightblue" d="M428.8,-278.05C519.45,-256.13 721.49,-207.29 803.2,-187.53"/>
<polygon fill="midnightblue" stroke="midnightblue" points="427.72,-274.71 418.82,-280.46 429.37,-281.51 427.72,-274.71"/>
</g>
<!-- Node12 -->
<g id="node12" class="node">
<title>Node12</title>
<g id="a_node12"><a xlink:href="_list_of_local_render_information_8h.html" target="_top" xlink:title="Definition of the ListOfLocalRenderInformation class.">
<polygon fill="white" stroke="black" points="241,-224.5 241,-243.5 412,-243.5 412,-224.5 241,-224.5"/>
<text text-anchor="middle" x="326.5" y="-231.5" font-family="Helvetica,sans-Serif" font-size="10.00">ListOfLocalRenderInformation.h</text>
</a>
</g>
</g>
<!-- Node1&#45;&gt;Node12 -->
<g id="edge20" class="edge">
<title>Node1&#45;&gt;Node12</title>
<path fill="none" stroke="midnightblue" d="M366.88,-273.25C356.77,-263.67 344.22,-251.79 335.82,-243.83"/>
<polygon fill="midnightblue" stroke="midnightblue" points="364.68,-275.99 374.34,-280.32 369.49,-270.91 364.68,-275.99"/>
</g>
<!-- Node14 -->
<g id="node14" class="node">
<title>Node14</title>
<g id="a_node14"><a xlink:href="_local_render_information_8cpp.html" target="_top" xlink:title="Implementation of the LocalRenderInformation class.">
<polygon fill="white" stroke="black" points="417.5,-168.5 417.5,-187.5 571.5,-187.5 571.5,-168.5 417.5,-168.5"/>
<text text-anchor="middle" x="494.5" y="-175.5" font-family="Helvetica,sans-Serif" font-size="10.00">LocalRenderInformation.cpp</text>
</a>
</g>
</g>
<!-- Node1&#45;&gt;Node14 -->
<g id="edge26" class="edge">
<title>Node1&#45;&gt;Node14</title>
<path fill="none" stroke="midnightblue" d="M399.44,-273.21C423.23,-249.63 467.22,-206.03 485.83,-187.59"/>
<polygon fill="midnightblue" stroke="midnightblue" points="396.85,-270.84 392.21,-280.37 401.78,-275.82 396.85,-270.84"/>
</g>
<!-- Node15 -->
<g id="node15" class="node">
<title>Node15</title>
<g id="a_node15"><a xlink:href="_render_information_base_8cpp.html" target="_top" xlink:title="Implementation of the RenderInformationBase class.">
<polygon fill="white" stroke="black" points="589.5,-168.5 589.5,-187.5 741.5,-187.5 741.5,-168.5 589.5,-168.5"/>
<text text-anchor="middle" x="665.5" y="-175.5" font-family="Helvetica,sans-Serif" font-size="10.00">RenderInformationBase.cpp</text>
</a>
</g>
</g>
<!-- Node1&#45;&gt;Node15 -->
<g id="edge27" class="edge">
<title>Node1&#45;&gt;Node15</title>
<path fill="none" stroke="midnightblue" d="M414.97,-276.73C472.6,-254.25 593.74,-206.99 643.47,-187.59"/>
<polygon fill="midnightblue" stroke="midnightblue" points="413.67,-273.47 405.63,-280.37 416.22,-280 413.67,-273.47"/>
</g>
<!-- Node3 -->
<g id="node3" class="node">
<title>Node3</title>
<g id="a_node3"><a xlink:href="_render_layout_plugin_8cpp.html" target="_top" xlink:title="Implementation of RenderLayoutPlugin, the plugin class of the fbc package for the Model element.">
<polygon fill="white" stroke="black" points="107.5,-0.5 107.5,-19.5 241.5,-19.5 241.5,-0.5 107.5,-0.5"/>
<text text-anchor="middle" x="174.5" y="-7.5" font-family="Helvetica,sans-Serif" font-size="10.00">RenderLayoutPlugin.cpp</text>
</a>
</g>
</g>
<!-- Node2&#45;&gt;Node3 -->
<g id="edge2" class="edge">
<title>Node2&#45;&gt;Node3</title>
<path fill="none" stroke="midnightblue" d="M293.02,-106.65C280.42,-98.04 264.31,-86.72 250.5,-76 225.81,-56.83 198.27,-32.49 184.09,-19.72"/>
<polygon fill="midnightblue" stroke="midnightblue" points="291.25,-109.68 301.49,-112.38 295.17,-103.88 291.25,-109.68"/>
</g>
<!-- Node4 -->
<g id="node4" class="node">
<title>Node4</title>
<g id="a_node4"><a xlink:href="_render_layout_converter_8cpp.html" target="_top" xlink:title="Simple converter to convert Layout + Render from l2 to L3 and vice versa.">
<polygon fill="white" stroke="black" points="381.5,-56.5 381.5,-75.5 533.5,-75.5 533.5,-56.5 381.5,-56.5"/>
<text text-anchor="middle" x="457.5" y="-63.5" font-family="Helvetica,sans-Serif" font-size="10.00">RenderLayoutConverter.cpp</text>
</a>
</g>
</g>
<!-- Node2&#45;&gt;Node4 -->
<g id="edge3" class="edge">
<title>Node2&#45;&gt;Node4</title>
<path fill="none" stroke="midnightblue" d="M346.53,-108.91C373.41,-98.75 411.14,-84.51 434.95,-75.52"/>
<polygon fill="midnightblue" stroke="midnightblue" points="345.28,-105.64 337.16,-112.44 347.75,-112.19 345.28,-105.64"/>
</g>
<!-- Node5 -->
<g id="node5" class="node">
<title>Node5</title>
<g id="a_node5"><a xlink:href="_render_utilities_8cpp.html" target="_top" xlink:title="implementation of RenderUtilities, a class of utility functions for the render package">
<polygon fill="white" stroke="black" points="259.5,-0.5 259.5,-19.5 369.5,-19.5 369.5,-0.5 259.5,-0.5"/>
<text text-anchor="middle" x="314.5" y="-7.5" font-family="Helvetica,sans-Serif" font-size="10.00">RenderUtilities.cpp</text>
</a>
</g>
</g>
<!-- Node2&#45;&gt;Node5 -->
<g id="edge4" class="edge">
<title>Node2&#45;&gt;Node5</title>
<path fill="none" stroke="midnightblue" d="M287.78,-107.28C268.16,-95.19 246.52,-76.38 256.5,-56 264.69,-39.29 282.4,-27 296.11,-19.53"/>
<polygon fill="midnightblue" stroke="midnightblue" points="286.12,-110.37 296.53,-112.34 289.63,-104.31 286.12,-110.37"/>
</g>
<!-- Node6 -->
<g id="node6" class="node">
<title>Node6</title>
<g id="a_node6"><a xlink:href="_render_utilities_8h.html" target="_top" xlink:title="Definition of RenderUtilities, a class of utility functions for the render package.">
<polygon fill="white" stroke="black" points="265.5,-56.5 265.5,-75.5 363.5,-75.5 363.5,-56.5 265.5,-56.5"/>
<text text-anchor="middle" x="314.5" y="-63.5" font-family="Helvetica,sans-Serif" font-size="10.00">RenderUtilities.h</text>
</a>
</g>
</g>
<!-- Node2&#45;&gt;Node6 -->
<g id="edge5" class="edge">
<title>Node2&#45;&gt;Node6</title>
<path fill="none" stroke="midnightblue" d="M314.5,-101.8C314.5,-92.91 314.5,-82.78 314.5,-75.75"/>
<polygon fill="midnightblue" stroke="midnightblue" points="311,-102.08 314.5,-112.08 318,-102.08 311,-102.08"/>
</g>
<!-- Node8 -->
<g id="node8" class="node">
<title>Node8</title>
<g id="a_node8"><a xlink:href="_render_validator_8cpp.html" target="_top" xlink:title="Definition of RenderValidator.">
<polygon fill="white" stroke="black" points="551.5,-56.5 551.5,-75.5 665.5,-75.5 665.5,-56.5 551.5,-56.5"/>
<text text-anchor="middle" x="608.5" y="-63.5" font-family="Helvetica,sans-Serif" font-size="10.00">RenderValidator.cpp</text>
</a>
</g>
</g>
<!-- Node2&#45;&gt;Node8 -->
<g id="edge9" class="edge">
<title>Node2&#45;&gt;Node8</title>
<path fill="none" stroke="midnightblue" d="M371.12,-110.6C426.68,-100.4 510.4,-85.02 562.13,-75.52"/>
<polygon fill="midnightblue" stroke="midnightblue" points="370.29,-107.19 361.09,-112.44 371.55,-114.08 370.29,-107.19"/>
</g>
<!-- Node6&#45;&gt;Node3 -->
<g id="edge6" class="edge">
<title>Node6&#45;&gt;Node3</title>
<path fill="none" stroke="midnightblue" d="M282.8,-52.77C256.5,-42.63 219.78,-28.47 196.58,-19.52"/>
<polygon fill="midnightblue" stroke="midnightblue" points="281.73,-56.11 292.32,-56.44 284.25,-49.58 281.73,-56.11"/>
</g>
<!-- Node6&#45;&gt;Node5 -->
<g id="edge8" class="edge">
<title>Node6&#45;&gt;Node5</title>
<path fill="none" stroke="midnightblue" d="M314.5,-45.8C314.5,-36.91 314.5,-26.78 314.5,-19.75"/>
<polygon fill="midnightblue" stroke="midnightblue" points="311,-46.08 314.5,-56.08 318,-46.08 311,-46.08"/>
</g>
<!-- Node7 -->
<g id="node7" class="node">
<title>Node7</title>
<g id="a_node7"><a xlink:href="_render_list_of_layouts_plugin_8cpp.html" target="_top" xlink:title="Implementation of RenderListOfLayoutsPlugin, the plugin class of the fbc package for the Model elemen...">
<polygon fill="white" stroke="black" points="517.5,-0.5 517.5,-19.5 685.5,-19.5 685.5,-0.5 517.5,-0.5"/>
<text text-anchor="middle" x="601.5" y="-7.5" font-family="Helvetica,sans-Serif" font-size="10.00">RenderListOfLayoutsPlugin.cpp</text>
</a>
</g>
</g>
<!-- Node6&#45;&gt;Node7 -->
<g id="edge7" class="edge">
<title>Node6&#45;&gt;Node7</title>
<path fill="none" stroke="midnightblue" d="M370.11,-54.54C424.35,-44.33 505.84,-29 556.24,-19.52"/>
<polygon fill="midnightblue" stroke="midnightblue" points="369.16,-51.15 359.98,-56.44 370.45,-58.03 369.16,-51.15"/>
</g>
<!-- Node9&#45;&gt;Node2 -->
<g id="edge11" class="edge">
<title>Node9&#45;&gt;Node2</title>
<path fill="none" stroke="midnightblue" d="M111.42,-166.35C159.23,-156.14 230.45,-140.94 274.6,-131.52"/>
<polygon fill="midnightblue" stroke="midnightblue" points="110.64,-162.93 101.59,-168.44 112.1,-169.78 110.64,-162.93"/>
</g>
<!-- Node9&#45;&gt;Node3 -->
<g id="edge13" class="edge">
<title>Node9&#45;&gt;Node3</title>
<path fill="none" stroke="midnightblue" d="M56.62,-158.57C51.02,-133.05 45.14,-86.65 66.5,-56 79.8,-36.92 102.81,-25.9 124.18,-19.56"/>
<polygon fill="midnightblue" stroke="midnightblue" points="53.25,-159.51 59,-168.41 60.05,-157.86 53.25,-159.51"/>
</g>
<!-- Node9&#45;&gt;Node5 -->
<g id="edge14" class="edge">
<title>Node9&#45;&gt;Node5</title>
<path fill="none" stroke="midnightblue" d="M68.45,-159.04C74.74,-144.75 85.21,-125.06 99.5,-112 153.84,-62.34 236.93,-32.83 282.26,-19.51"/>
<polygon fill="midnightblue" stroke="midnightblue" points="65.2,-157.74 64.61,-168.32 71.67,-160.41 65.2,-157.74"/>
</g>
<!-- Node10 -->
<g id="node10" class="node">
<title>Node10</title>
<g id="a_node10"><a xlink:href="_render_extension_8cpp.html" target="_top" xlink:title="Implementation of RenderExtension, the core module of the render package.">
<polygon fill="white" stroke="black" points="109,-112.5 109,-131.5 228,-131.5 228,-112.5 109,-112.5"/>
<text text-anchor="middle" x="168.5" y="-119.5" font-family="Helvetica,sans-Serif" font-size="10.00">RenderExtension.cpp</text>
</a>
</g>
</g>
<!-- Node9&#45;&gt;Node10 -->
<g id="edge12" class="edge">
<title>Node9&#45;&gt;Node10</title>
<path fill="none" stroke="midnightblue" d="M87.8,-163.73C107.61,-153.73 134.21,-140.31 151.35,-131.65"/>
<polygon fill="midnightblue" stroke="midnightblue" points="86.04,-160.69 78.69,-168.32 89.2,-166.94 86.04,-160.69"/>
</g>
<!-- Node11&#45;&gt;Node2 -->
<g id="edge16" class="edge">
<title>Node11&#45;&gt;Node2</title>
<path fill="none" stroke="midnightblue" d="M749.62,-167.84C645.83,-157.15 476.43,-139.69 382.54,-130.01"/>
<polygon fill="midnightblue" stroke="midnightblue" points="749.46,-171.34 759.77,-168.89 750.18,-164.38 749.46,-171.34"/>
</g>
<!-- Node11&#45;&gt;Node5 -->
<g id="edge19" class="edge">
<title>Node11&#45;&gt;Node5</title>
<path fill="none" stroke="midnightblue" d="M822.83,-160.97C795.51,-134.13 736.14,-80.62 674.5,-56 620.39,-34.39 456.48,-20.51 369.73,-14.48"/>
<polygon fill="midnightblue" stroke="midnightblue" points="820.7,-163.79 830.25,-168.38 825.65,-158.84 820.7,-163.79"/>
</g>
<!-- Node11&#45;&gt;Node7 -->
<g id="edge18" class="edge">
<title>Node11&#45;&gt;Node7</title>
<path fill="none" stroke="midnightblue" d="M831.71,-158.88C820.81,-132.28 796.88,-82.92 760.5,-56 734.67,-36.89 701.01,-25.89 671.31,-19.56"/>
<polygon fill="midnightblue" stroke="midnightblue" points="828.56,-160.43 835.47,-168.46 835.08,-157.87 828.56,-160.43"/>
</g>
<!-- Node11&#45;&gt;Node10 -->
<g id="edge17" class="edge">
<title>Node11&#45;&gt;Node10</title>
<path fill="none" stroke="midnightblue" d="M749.53,-167.95C521.05,-148.55 461.59,-154.46 237.5,-132 234.49,-131.7 231.42,-131.37 228.31,-131.02"/>
<polygon fill="midnightblue" stroke="midnightblue" points="749.57,-171.46 759.83,-168.83 750.16,-164.49 749.57,-171.46"/>
</g>
<!-- Node12&#45;&gt;Node2 -->
<g id="edge21" class="edge">
<title>Node12&#45;&gt;Node2</title>
<path fill="none" stroke="midnightblue" d="M256.28,-221.33C237.71,-214.7 219.73,-204.3 208.5,-188 188.91,-159.56 235.21,-141.28 272.69,-131.57"/>
<polygon fill="midnightblue" stroke="midnightblue" points="255.43,-224.73 266.02,-224.47 257.57,-218.07 255.43,-224.73"/>
</g>
<!-- Node12&#45;&gt;Node9 -->
<g id="edge22" class="edge">
<title>Node12&#45;&gt;Node9</title>
<path fill="none" stroke="midnightblue" d="M274.53,-222.41C224.45,-212.2 149.64,-196.96 103.29,-187.52"/>
<polygon fill="midnightblue" stroke="midnightblue" points="274.01,-225.88 284.51,-224.44 275.41,-219.02 274.01,-225.88"/>
</g>
<!-- Node13 -->
<g id="node13" class="node">
<title>Node13</title>
<g id="a_node13"><a xlink:href="_list_of_local_render_information_8cpp.html" target="_top" xlink:title="Implementation of the ListOfLocalRenderInformation class.">
<polygon fill="white" stroke="black" points="217.5,-168.5 217.5,-187.5 399.5,-187.5 399.5,-168.5 217.5,-168.5"/>
<text text-anchor="middle" x="308.5" y="-175.5" font-family="Helvetica,sans-Serif" font-size="10.00">ListOfLocalRenderInformation.cpp</text>
</a>
</g>
</g>
<!-- Node12&#45;&gt;Node13 -->
<g id="edge23" class="edge">
<title>Node12&#45;&gt;Node13</title>
<path fill="none" stroke="midnightblue" d="M320.3,-214.4C317.29,-205.36 313.81,-194.94 311.42,-187.75"/>
<polygon fill="midnightblue" stroke="midnightblue" points="317.04,-215.7 323.53,-224.08 323.69,-213.49 317.04,-215.7"/>
</g>
<!-- Node12&#45;&gt;Node14 -->
<g id="edge24" class="edge">
<title>Node12&#45;&gt;Node14</title>
<path fill="none" stroke="midnightblue" d="M362.89,-221.3C394.54,-211.13 439.67,-196.62 468,-187.52"/>
<polygon fill="midnightblue" stroke="midnightblue" points="361.57,-218.05 353.12,-224.44 363.71,-224.72 361.57,-218.05"/>
</g>
<!-- Node12&#45;&gt;Node15 -->
<g id="edge25" class="edge">
<title>Node12&#45;&gt;Node15</title>
<path fill="none" stroke="midnightblue" d="M390.2,-222.85C454.25,-212.65 551.89,-197.1 612.04,-187.52"/>
<polygon fill="midnightblue" stroke="midnightblue" points="389.54,-219.41 380.22,-224.44 390.64,-226.33 389.54,-219.41"/>
</g>
</g>
</svg>
