<?xml version="1.0" encoding="UTF-8" standalone="no"?>
<!DOCTYPE svg PUBLIC "-//W3C//DTD SVG 1.1//EN"
 "http://www.w3.org/Graphics/SVG/1.1/DTD/svg11.dtd">
<!-- Generated by graphviz version 2.43.0 (0)
 -->
<!-- Title: MathML.h Pages: 1 -->
<!--zoomable 341 -->
<svg id="main" version="1.1" xmlns="http://www.w3.org/2000/svg" xmlns:xlink="http://www.w3.org/1999/xlink" xml:space="preserve" onload="init(evt)">
<style type="text/css"><![CDATA[
.edge:hover path { stroke: red; }
.edge:hover polygon { stroke: red; fill: red; }
]]></style>
<script type="text/javascript"><![CDATA[
var edges = document.getElementsByTagName('g');
if (edges && edges.length) {
  for (var i=0;i<edges.length;i++) {
    if (edges[i].id.substr(0,4)=='edge') {
      edges[i].setAttribute('class','edge');
    }
  }
}
]]></script>
        <defs>
                <circle id="rim" cx="0" cy="0" r="7"/>
                <circle id="rim2" cx="0" cy="0" r="3.5"/>
                <g id="zoomPlus">
                        <use xlink:href="#rim" fill="#404040">
                                <set attributeName="fill" to="#808080" begin="zoomplus.mouseover" end="zoomplus.mouseout"/>
                        </use>
                        <path d="M-4,0h8M0,-4v8" fill="none" stroke="white" stroke-width="1.5" pointer-events="none"/>
                </g>
                <g id="zoomMin">
                        <use xlink:href="#rim" fill="#404040">
                                <set attributeName="fill" to="#808080" begin="zoomminus.mouseover" end="zoomminus.mouseout"/>
                        </use>
                        <path d="M-4,0h8" fill="none" stroke="white" stroke-width="1.5" pointer-events="none"/>
                </g>
                <g id="dirArrow">
                        <path fill="none" stroke="white" stroke-width="1.5" d="M0,-3.0v7 M-2.5,-0.5L0,-3.0L2.5,-0.5"/>
                </g>
               <g id="resetDef">
                       <use xlink:href="#rim2" fill="#404040">
                               <set attributeName="fill" to="#808080" begin="reset.mouseover" end="reset.mouseout"/>
                       </use>
               </g>
        </defs>

<script type="text/javascript">
var viewWidth = 638;
var viewHeight = 341;
var sectionId = 'dynsection-0';
</script>
<script xlink:href="svgpan.js"/>
<svg id="graph" class="graph">
<g id="viewport">
<title>MathML.h</title>
<polygon fill="white" stroke="transparent" points="-4,4 -4,-337 634.04,-337 634.04,4 -4,4"/>
<!-- Node1 -->
<g id="node1" class="node">
<title>Node1</title>
<g id="a_node1"><a xlink:title="Utilities for reading and writing MathML to/from text strings.">
<polygon fill="#bfbfbf" stroke="black" points="366.04,-313.5 366.04,-332.5 431.04,-332.5 431.04,-313.5 366.04,-313.5"/>
<text text-anchor="middle" x="398.54" y="-320.5" font-family="Helvetica,sans-Serif" font-size="10.00">MathML.h</text>
</a>
</g>
</g>
<!-- Node2 -->
<g id="node2" class="node">
<title>Node2</title>
<g id="a_node2"><a xlink:href="extern_8h.html" target="_top" xlink:title="Definitions of LIBSBML_EXTERN and related things.">
<polygon fill="white" stroke="black" points="153.54,-67.5 153.54,-86.5 283.54,-86.5 283.54,-67.5 153.54,-67.5"/>
<text text-anchor="middle" x="218.54" y="-74.5" font-family="Helvetica,sans-Serif" font-size="10.00">sbml/common/extern.h</text>
</a>
</g>
</g>
<!-- Node1&#45;&gt;Node2 -->
<g id="edge1" class="edge">
<title>Node1&#45;&gt;Node2</title>
<path fill="none" stroke="midnightblue" d="M365.94,-321.98C315.35,-320.74 216.03,-313.38 141.54,-277 68.31,-241.24 38.61,-228.49 5.54,-154 -0.05,-141.41 -3.13,-133.7 5.54,-123 22.85,-101.65 89.25,-90.03 143.37,-83.98"/>
<polygon fill="midnightblue" stroke="midnightblue" points="143.75,-87.46 153.32,-82.92 143,-80.5 143.75,-87.46"/>
</g>
<!-- Node4 -->
<g id="node4" class="node">
<title>Node4</title>
<g id="a_node4"><a xlink:href="sbmlfwd_8h.html" target="_top" xlink:title="Forward declarations for all opaque C types.">
<polygon fill="white" stroke="black" points="150.54,-257.5 150.54,-276.5 290.54,-276.5 290.54,-257.5 150.54,-257.5"/>
<text text-anchor="middle" x="220.54" y="-264.5" font-family="Helvetica,sans-Serif" font-size="10.00">sbml/common/sbmlfwd.h</text>
</a>
</g>
</g>
<!-- Node1&#45;&gt;Node4 -->
<g id="edge3" class="edge">
<title>Node1&#45;&gt;Node4</title>
<path fill="none" stroke="midnightblue" d="M370.34,-313.44C340.13,-304.28 292.03,-289.69 258.51,-279.52"/>
<polygon fill="midnightblue" stroke="midnightblue" points="259.2,-276.07 248.62,-276.52 257.17,-282.77 259.2,-276.07"/>
</g>
<!-- Node8 -->
<g id="node8" class="node">
<title>Node8</title>
<g id="a_node8"><a xlink:title=" ">
<polygon fill="white" stroke="#bfbfbf" points="308.54,-257.5 308.54,-276.5 352.54,-276.5 352.54,-257.5 308.54,-257.5"/>
<text text-anchor="middle" x="330.54" y="-264.5" font-family="Helvetica,sans-Serif" font-size="10.00">limits</text>
</a>
</g>
</g>
<!-- Node1&#45;&gt;Node8 -->
<g id="edge10" class="edge">
<title>Node1&#45;&gt;Node8</title>
<path fill="none" stroke="midnightblue" d="M387.62,-313.32C377.37,-305.18 361.82,-292.84 349.54,-283.09"/>
<polygon fill="midnightblue" stroke="midnightblue" points="351.68,-280.31 341.67,-276.83 347.32,-285.79 351.68,-280.31"/>
</g>
<!-- Node9 -->
<g id="node9" class="node">
<title>Node9</title>
<g id="a_node9"><a xlink:title=" ">
<polygon fill="white" stroke="#bfbfbf" points="370.54,-257.5 370.54,-276.5 426.54,-276.5 426.54,-257.5 370.54,-257.5"/>
<text text-anchor="middle" x="398.54" y="-264.5" font-family="Helvetica,sans-Serif" font-size="10.00">iomanip</text>
</a>
</g>
</g>
<!-- Node1&#45;&gt;Node9 -->
<g id="edge11" class="edge">
<title>Node1&#45;&gt;Node9</title>
<path fill="none" stroke="midnightblue" d="M398.54,-313.08C398.54,-306.01 398.54,-295.86 398.54,-286.99"/>
<polygon fill="midnightblue" stroke="midnightblue" points="402.04,-286.75 398.54,-276.75 395.04,-286.75 402.04,-286.75"/>
</g>
<!-- Node10 -->
<g id="node10" class="node">
<title>Node10</title>
<g id="a_node10"><a xlink:title=" ">
<polygon fill="white" stroke="#bfbfbf" points="444.54,-257.5 444.54,-276.5 488.54,-276.5 488.54,-257.5 444.54,-257.5"/>
<text text-anchor="middle" x="466.54" y="-264.5" font-family="Helvetica,sans-Serif" font-size="10.00">string</text>
</a>
</g>
</g>
<!-- Node1&#45;&gt;Node10 -->
<g id="edge12" class="edge">
<title>Node1&#45;&gt;Node10</title>
<path fill="none" stroke="midnightblue" d="M409.47,-313.32C419.72,-305.18 435.26,-292.84 447.54,-283.09"/>
<polygon fill="midnightblue" stroke="midnightblue" points="449.76,-285.79 455.42,-276.83 445.41,-280.31 449.76,-285.79"/>
</g>
<!-- Node11 -->
<g id="node11" class="node">
<title>Node11</title>
<g id="a_node11"><a xlink:title=" ">
<polygon fill="white" stroke="#bfbfbf" points="506.54,-257.5 506.54,-276.5 562.54,-276.5 562.54,-257.5 506.54,-257.5"/>
<text text-anchor="middle" x="534.54" y="-264.5" font-family="Helvetica,sans-Serif" font-size="10.00">sstream</text>
</a>
</g>
</g>
<!-- Node1&#45;&gt;Node11 -->
<g id="edge13" class="edge">
<title>Node1&#45;&gt;Node11</title>
<path fill="none" stroke="midnightblue" d="M420.09,-313.44C442.57,-304.52 478.03,-290.44 503.52,-280.32"/>
<polygon fill="midnightblue" stroke="midnightblue" points="505.09,-283.46 513.09,-276.52 502.51,-276.95 505.09,-283.46"/>
</g>
<!-- Node12 -->
<g id="node12" class="node">
<title>Node12</title>
<g id="a_node12"><a xlink:title=" ">
<polygon fill="white" stroke="#bfbfbf" points="581.04,-257.5 581.04,-276.5 630.04,-276.5 630.04,-257.5 581.04,-257.5"/>
<text text-anchor="middle" x="605.54" y="-264.5" font-family="Helvetica,sans-Serif" font-size="10.00">cstdlib</text>
</a>
</g>
</g>
<!-- Node1&#45;&gt;Node12 -->
<g id="edge14" class="edge">
<title>Node1&#45;&gt;Node12</title>
<path fill="none" stroke="midnightblue" d="M431.08,-313.58C463.89,-305.08 516.26,-291.49 571.13,-277.1"/>
<polygon fill="midnightblue" stroke="midnightblue" points="572.25,-280.43 581.03,-274.5 570.47,-273.65 572.25,-280.43"/>
</g>
<!-- Node3 -->
<g id="node3" class="node">
<title>Node3</title>
<g id="a_node3"><a xlink:title=" ">
<polygon fill="white" stroke="#bfbfbf" points="249.04,-0.5 249.04,-30.5 374.04,-30.5 374.04,-0.5 249.04,-0.5"/>
<text text-anchor="start" x="257.04" y="-18.5" font-family="Helvetica,sans-Serif" font-size="10.00">sbml/common/libsbml</text>
<text text-anchor="middle" x="311.54" y="-7.5" font-family="Helvetica,sans-Serif" font-size="10.00">&#45;namespace.h</text>
</a>
</g>
</g>
<!-- Node2&#45;&gt;Node3 -->
<g id="edge2" class="edge">
<title>Node2&#45;&gt;Node3</title>
<path fill="none" stroke="midnightblue" d="M231.87,-67.48C244.58,-59.34 264.2,-46.79 280.78,-36.18"/>
<polygon fill="midnightblue" stroke="midnightblue" points="283.09,-38.86 289.62,-30.52 279.32,-32.96 283.09,-38.86"/>
</g>
<!-- Node4&#45;&gt;Node3 -->
<g id="edge4" class="edge">
<title>Node4&#45;&gt;Node3</title>
<path fill="none" stroke="midnightblue" d="M241.74,-257.42C257.59,-249.99 278.66,-237.78 291.54,-221 334.29,-165.33 336.64,-136.46 326.54,-67 325.27,-58.22 322.8,-48.84 320.24,-40.58"/>
<polygon fill="midnightblue" stroke="midnightblue" points="323.48,-39.23 317.01,-30.84 316.83,-41.43 323.48,-39.23"/>
</g>
<!-- Node5 -->
<g id="node5" class="node">
<title>Node5</title>
<g id="a_node5"><a xlink:href="libsbml-config_8h.html" target="_top" xlink:title="Decides whether to #include Unix or Windows configuration variables.">
<polygon fill="white" stroke="black" points="158.04,-190.5 158.04,-220.5 283.04,-220.5 283.04,-190.5 158.04,-190.5"/>
<text text-anchor="start" x="166.04" y="-208.5" font-family="Helvetica,sans-Serif" font-size="10.00">sbml/common/libsbml</text>
<text text-anchor="middle" x="220.54" y="-197.5" font-family="Helvetica,sans-Serif" font-size="10.00">&#45;config.h</text>
</a>
</g>
</g>
<!-- Node4&#45;&gt;Node5 -->
<g id="edge5" class="edge">
<title>Node4&#45;&gt;Node5</title>
<path fill="none" stroke="midnightblue" d="M220.54,-257.48C220.54,-250.47 220.54,-240.19 220.54,-230.7"/>
<polygon fill="midnightblue" stroke="midnightblue" points="224.04,-230.52 220.54,-220.52 217.04,-230.52 224.04,-230.52"/>
</g>
<!-- Node5&#45;&gt;Node3 -->
<g id="edge6" class="edge">
<title>Node5&#45;&gt;Node3</title>
<path fill="none" stroke="midnightblue" d="M250.63,-190.42C265.35,-181.95 281.92,-169.75 291.54,-154 312.96,-118.96 314.73,-69.71 313.52,-40.65"/>
<polygon fill="midnightblue" stroke="midnightblue" points="317.01,-40.36 312.95,-30.57 310.02,-40.76 317.01,-40.36"/>
</g>
<!-- Node6 -->
<g id="node6" class="node">
<title>Node6</title>
<g id="a_node6"><a xlink:title=" ">
<polygon fill="white" stroke="#bfbfbf" points="15.04,-123.5 15.04,-153.5 140.04,-153.5 140.04,-123.5 15.04,-123.5"/>
<text text-anchor="start" x="23.04" y="-141.5" font-family="Helvetica,sans-Serif" font-size="10.00">sbml/common/libsbml</text>
<text text-anchor="middle" x="77.54" y="-130.5" font-family="Helvetica,sans-Serif" font-size="10.00">&#45;config&#45;common.h</text>
</a>
</g>
</g>
<!-- Node5&#45;&gt;Node6 -->
<g id="edge7" class="edge">
<title>Node5&#45;&gt;Node6</title>
<path fill="none" stroke="midnightblue" d="M189.51,-190.4C168.53,-180.86 140.6,-168.16 117.89,-157.84"/>
<polygon fill="midnightblue" stroke="midnightblue" points="119.06,-154.53 108.51,-153.58 116.17,-160.9 119.06,-154.53"/>
</g>
<!-- Node7 -->
<g id="node7" class="node">
<title>Node7</title>
<g id="a_node7"><a xlink:href="libsbml-version_8h.html" target="_top" xlink:title="Define libSBML version numbers for access from client software.">
<polygon fill="white" stroke="black" points="158.04,-123.5 158.04,-153.5 283.04,-153.5 283.04,-123.5 158.04,-123.5"/>
<text text-anchor="start" x="166.04" y="-141.5" font-family="Helvetica,sans-Serif" font-size="10.00">sbml/common/libsbml</text>
<text text-anchor="middle" x="220.54" y="-130.5" font-family="Helvetica,sans-Serif" font-size="10.00">&#45;version.h</text>
</a>
</g>
</g>
<!-- Node5&#45;&gt;Node7 -->
<g id="edge8" class="edge">
<title>Node5&#45;&gt;Node7</title>
<path fill="none" stroke="midnightblue" d="M220.54,-190.4C220.54,-182.64 220.54,-172.81 220.54,-163.86"/>
<polygon fill="midnightblue" stroke="midnightblue" points="224.04,-163.58 220.54,-153.58 217.04,-163.58 224.04,-163.58"/>
</g>
<!-- Node7&#45;&gt;Node2 -->
<g id="edge9" class="edge">
<title>Node7&#45;&gt;Node2</title>
<path fill="none" stroke="midnightblue" d="M220.07,-123.4C219.8,-115.47 219.47,-105.46 219.18,-96.86"/>
<polygon fill="midnightblue" stroke="midnightblue" points="222.67,-96.53 218.83,-86.66 215.67,-96.77 222.67,-96.53"/>
</g>
</g>
</svg>
        <g id="navigator" transform="translate(0 0)" fill="#404254">
                <rect fill="#f2f5e9" fill-opacity="0.5" stroke="#606060" stroke-width=".5" x="0" y="0" width="60" height="60"/>
                <use id="zoomplus" xlink:href="#zoomPlus" x="17" y="9" onmousedown="handleZoom(evt,'in')"/>
                <use id="zoomminus" xlink:href="#zoomMin" x="42" y="9" onmousedown="handleZoom(evt,'out')"/>
                <use id="reset" xlink:href="#resetDef" x="30" y="36" onmousedown="handleReset()"/>
                <g id="arrowUp" xlink:href="#dirArrow" transform="translate(30 24)" onmousedown="handlePan(0,-1)">
                  <use xlink:href="#rim" fill="#404040">
                        <set attributeName="fill" to="#808080" begin="arrowUp.mouseover" end="arrowUp.mouseout"/>
                  </use>
                  <path fill="none" stroke="white" stroke-width="1.5" d="M0,-3.0v7 M-2.5,-0.5L0,-3.0L2.5,-0.5"/>
                </g>
                <g id="arrowRight" xlink:href="#dirArrow" transform="rotate(90) translate(36 -43)" onmousedown="handlePan(1,0)">
                  <use xlink:href="#rim" fill="#404040">
                        <set attributeName="fill" to="#808080" begin="arrowRight.mouseover" end="arrowRight.mouseout"/>
                  </use>
                  <path fill="none" stroke="white" stroke-width="1.5" d="M0,-3.0v7 M-2.5,-0.5L0,-3.0L2.5,-0.5"/>
                </g>
                <g id="arrowDown" xlink:href="#dirArrow" transform="rotate(180) translate(-30 -48)" onmousedown="handlePan(0,1)">
                  <use xlink:href="#rim" fill="#404040">
                        <set attributeName="fill" to="#808080" begin="arrowDown.mouseover" end="arrowDown.mouseout"/>
                  </use>
                  <path fill="none" stroke="white" stroke-width="1.5" d="M0,-3.0v7 M-2.5,-0.5L0,-3.0L2.5,-0.5"/>
                </g>
                <g id="arrowLeft" xlink:href="#dirArrow" transform="rotate(270) translate(-36 17)" onmousedown="handlePan(-1,0)">
                  <use xlink:href="#rim" fill="#404040">
                        <set attributeName="fill" to="#808080" begin="arrowLeft.mouseover" end="arrowLeft.mouseout"/>
                  </use>
                  <path fill="none" stroke="white" stroke-width="1.5" d="M0,-3.0v7 M-2.5,-0.5L0,-3.0L2.5,-0.5"/>
                </g>
        </g>
        <svg viewBox="0 0 15 15" width="100%" height="30px" preserveAspectRatio="xMaxYMin meet">
         <g id="arrow_out" transform="scale(0.3 0.3)">
          <a xlink:href="_math_m_l_8h__incl_org.svg" target="_base">
           <rect id="button" ry="5" rx="5" y="6" x="6" height="38" width="38"
                fill="#f2f5e9" fill-opacity="0.5" stroke="#606060" stroke-width="1.0"/>
           <path id="arrow"
             d="M 11.500037,31.436501 C 11.940474,20.09759 22.043105,11.32322 32.158766,21.979434 L 37.068811,17.246167 C 37.068811,17.246167 37.088388,32 37.088388,32 L 22.160133,31.978069 C 22.160133,31.978069 26.997745,27.140456 26.997745,27.140456 C 18.528582,18.264221 13.291696,25.230495 11.500037,31.436501 z"
             style="fill:#404040;"/>
          </a>
         </g>
        </svg>
</svg>
