<?xml version="1.0" encoding="UTF-8" standalone="no"?>
<!DOCTYPE svg PUBLIC "-//W3C//DTD SVG 1.1//EN"
 "http://www.w3.org/Graphics/SVG/1.1/DTD/svg11.dtd">
<!-- Generated by graphviz version 2.43.0 (0)
 -->
<!-- Title: Member.h Pages: 1 -->
<svg width="503pt" height="364pt"
 viewBox="0.00 0.00 502.50 364.00" xmlns="http://www.w3.org/2000/svg" xmlns:xlink="http://www.w3.org/1999/xlink">
<g id="graph0" class="graph" transform="scale(1 1) rotate(0) translate(4 360)">
<title>Member.h</title>
<polygon fill="white" stroke="transparent" points="-4,4 -4,-360 498.5,-360 498.5,4 -4,4"/>
<!-- Node1 -->
<g id="node1" class="node">
<title>Node1</title>
<g id="a_node1"><a xlink:title="Definition of the Member class.">
<polygon fill="#bfbfbf" stroke="black" points="197.5,-336.5 197.5,-355.5 262.5,-355.5 262.5,-336.5 197.5,-336.5"/>
<text text-anchor="middle" x="230" y="-343.5" font-family="Helvetica,sans-Serif" font-size="10.00">Member.h</text>
</a>
</g>
</g>
<!-- Node2 -->
<g id="node2" class="node">
<title>Node2</title>
<g id="a_node2"><a xlink:href="_groups_extension_types_8h.html" target="_top" xlink:title="Definition of GroupsExtensionTypes.">
<polygon fill="white" stroke="black" points="0,-56.5 0,-75.5 136,-75.5 136,-56.5 0,-56.5"/>
<text text-anchor="middle" x="68" y="-63.5" font-family="Helvetica,sans-Serif" font-size="10.00">GroupsExtensionTypes.h</text>
</a>
</g>
</g>
<!-- Node1&#45;&gt;Node2 -->
<g id="edge1" class="edge">
<title>Node1&#45;&gt;Node2</title>
<path fill="none" stroke="midnightblue" d="M187.3,-340.49C128.56,-331.65 30,-306.21 30,-235 30,-235 30,-235 30,-177 30,-137.4 52.27,-93.96 62.72,-75.77"/>
<polygon fill="midnightblue" stroke="midnightblue" points="187.03,-343.99 197.42,-341.91 188,-337.05 187.03,-343.99"/>
</g>
<!-- Node4 -->
<g id="node4" class="node">
<title>Node4</title>
<g id="a_node4"><a xlink:href="_list_of_members_8h.html" target="_top" xlink:title="Definition of the ListOfMembers class.">
<polygon fill="white" stroke="black" points="180,-280.5 180,-299.5 280,-299.5 280,-280.5 180,-280.5"/>
<text text-anchor="middle" x="230" y="-287.5" font-family="Helvetica,sans-Serif" font-size="10.00">ListOfMembers.h</text>
</a>
</g>
</g>
<!-- Node1&#45;&gt;Node4 -->
<g id="edge3" class="edge">
<title>Node1&#45;&gt;Node4</title>
<path fill="none" stroke="midnightblue" d="M230,-325.8C230,-316.91 230,-306.78 230,-299.75"/>
<polygon fill="midnightblue" stroke="midnightblue" points="226.5,-326.08 230,-336.08 233.5,-326.08 226.5,-326.08"/>
</g>
<!-- Node13 -->
<g id="node13" class="node">
<title>Node13</title>
<g id="a_node13"><a xlink:href="_member_8cpp.html" target="_top" xlink:title="Implementation of the Member class.">
<polygon fill="white" stroke="black" points="303.5,-224.5 303.5,-243.5 380.5,-243.5 380.5,-224.5 303.5,-224.5"/>
<text text-anchor="middle" x="342" y="-231.5" font-family="Helvetica,sans-Serif" font-size="10.00">Member.cpp</text>
</a>
</g>
</g>
<!-- Node1&#45;&gt;Node13 -->
<g id="edge17" class="edge">
<title>Node1&#45;&gt;Node13</title>
<path fill="none" stroke="midnightblue" d="M251.2,-330.69C262.88,-322.35 277.35,-311.28 289,-300 308.04,-281.57 326.8,-256.49 336.05,-243.53"/>
<polygon fill="midnightblue" stroke="midnightblue" points="249.08,-327.89 242.89,-336.49 253.09,-333.63 249.08,-327.89"/>
</g>
<!-- Node3 -->
<g id="node3" class="node">
<title>Node3</title>
<g id="a_node3"><a xlink:href="_groups_validator_8cpp.html" target="_top" xlink:title="Definition of GroupsValidator.">
<polygon fill="white" stroke="black" points="11,-0.5 11,-19.5 125,-19.5 125,-0.5 11,-0.5"/>
<text text-anchor="middle" x="68" y="-7.5" font-family="Helvetica,sans-Serif" font-size="10.00">GroupsValidator.cpp</text>
</a>
</g>
</g>
<!-- Node2&#45;&gt;Node3 -->
<g id="edge2" class="edge">
<title>Node2&#45;&gt;Node3</title>
<path fill="none" stroke="midnightblue" d="M68,-45.8C68,-36.91 68,-26.78 68,-19.75"/>
<polygon fill="midnightblue" stroke="midnightblue" points="64.5,-46.08 68,-56.08 71.5,-46.08 64.5,-46.08"/>
</g>
<!-- Node5 -->
<g id="node5" class="node">
<title>Node5</title>
<g id="a_node5"><a xlink:href="_group_8h.html" target="_top" xlink:title="Definition of the Group class.">
<polygon fill="white" stroke="black" points="101.5,-224.5 101.5,-243.5 156.5,-243.5 156.5,-224.5 101.5,-224.5"/>
<text text-anchor="middle" x="129" y="-231.5" font-family="Helvetica,sans-Serif" font-size="10.00">Group.h</text>
</a>
</g>
</g>
<!-- Node4&#45;&gt;Node5 -->
<g id="edge4" class="edge">
<title>Node4&#45;&gt;Node5</title>
<path fill="none" stroke="midnightblue" d="M204.92,-275.59C186.24,-265.61 161.3,-252.27 145.19,-243.65"/>
<polygon fill="midnightblue" stroke="midnightblue" points="203.3,-278.7 213.77,-280.32 206.6,-272.52 203.3,-278.7"/>
</g>
<!-- Node12 -->
<g id="node12" class="node">
<title>Node12</title>
<g id="a_node12"><a xlink:href="_list_of_members_8cpp.html" target="_top" xlink:title="Implementation of the ListOfMembers class.">
<polygon fill="white" stroke="black" points="174.5,-224.5 174.5,-243.5 285.5,-243.5 285.5,-224.5 174.5,-224.5"/>
<text text-anchor="middle" x="230" y="-231.5" font-family="Helvetica,sans-Serif" font-size="10.00">ListOfMembers.cpp</text>
</a>
</g>
</g>
<!-- Node4&#45;&gt;Node12 -->
<g id="edge15" class="edge">
<title>Node4&#45;&gt;Node12</title>
<path fill="none" stroke="midnightblue" d="M230,-269.8C230,-260.91 230,-250.78 230,-243.75"/>
<polygon fill="midnightblue" stroke="midnightblue" points="226.5,-270.08 230,-280.08 233.5,-270.08 226.5,-270.08"/>
</g>
<!-- Node4&#45;&gt;Node13 -->
<g id="edge16" class="edge">
<title>Node4&#45;&gt;Node13</title>
<path fill="none" stroke="midnightblue" d="M257.25,-275.86C278.02,-265.85 306.02,-252.35 324.05,-243.65"/>
<polygon fill="midnightblue" stroke="midnightblue" points="255.48,-272.83 247.99,-280.32 258.52,-279.13 255.48,-272.83"/>
</g>
<!-- Node5&#45;&gt;Node2 -->
<g id="edge5" class="edge">
<title>Node5&#45;&gt;Node2</title>
<path fill="none" stroke="midnightblue" d="M120.85,-215.09C111.91,-195.08 97.45,-161.6 87,-132 79.96,-112.04 73.43,-88.02 70.17,-75.51"/>
<polygon fill="midnightblue" stroke="midnightblue" points="117.78,-216.8 125.08,-224.48 124.16,-213.92 117.78,-216.8"/>
</g>
<!-- Node6 -->
<g id="node6" class="node">
<title>Node6</title>
<g id="a_node6"><a xlink:href="_groups_model_plugin_8h.html" target="_top" xlink:title="Definition of the GroupsModelPlugin class.">
<polygon fill="white" stroke="black" points="298,-112.5 298,-131.5 418,-131.5 418,-112.5 298,-112.5"/>
<text text-anchor="middle" x="358" y="-119.5" font-family="Helvetica,sans-Serif" font-size="10.00">GroupsModelPlugin.h</text>
</a>
</g>
</g>
<!-- Node5&#45;&gt;Node6 -->
<g id="edge6" class="edge">
<title>Node5&#45;&gt;Node6</title>
<path fill="none" stroke="midnightblue" d="M166.7,-222.36C201.68,-212.22 250.98,-197.17 269,-188 300.37,-172.03 332.63,-145.44 348.29,-131.74"/>
<polygon fill="midnightblue" stroke="midnightblue" points="165.44,-219.08 156.8,-225.21 167.38,-225.81 165.44,-219.08"/>
</g>
<!-- Node9 -->
<g id="node9" class="node">
<title>Node9</title>
<g id="a_node9"><a xlink:href="_group_8cpp.html" target="_top" xlink:title="Implementation of the Group class.">
<polygon fill="white" stroke="black" points="96,-112.5 96,-131.5 162,-131.5 162,-112.5 96,-112.5"/>
<text text-anchor="middle" x="129" y="-119.5" font-family="Helvetica,sans-Serif" font-size="10.00">Group.cpp</text>
</a>
</g>
</g>
<!-- Node5&#45;&gt;Node9 -->
<g id="edge10" class="edge">
<title>Node5&#45;&gt;Node9</title>
<path fill="none" stroke="midnightblue" d="M129,-214.35C129,-190.25 129,-149.31 129,-131.59"/>
<polygon fill="midnightblue" stroke="midnightblue" points="125.5,-214.37 129,-224.37 132.5,-214.37 125.5,-214.37"/>
</g>
<!-- Node10 -->
<g id="node10" class="node">
<title>Node10</title>
<g id="a_node10"><a xlink:href="_list_of_groups_8h.html" target="_top" xlink:title="Definition of the ListOfGroups class.">
<polygon fill="white" stroke="black" points="171.5,-168.5 171.5,-187.5 260.5,-187.5 260.5,-168.5 171.5,-168.5"/>
<text text-anchor="middle" x="216" y="-175.5" font-family="Helvetica,sans-Serif" font-size="10.00">ListOfGroups.h</text>
</a>
</g>
</g>
<!-- Node5&#45;&gt;Node10 -->
<g id="edge11" class="edge">
<title>Node5&#45;&gt;Node10</title>
<path fill="none" stroke="midnightblue" d="M151.72,-218.9C167.67,-209 188.5,-196.07 202.06,-187.65"/>
<polygon fill="midnightblue" stroke="midnightblue" points="149.63,-216.08 142.98,-224.32 153.32,-222.02 149.63,-216.08"/>
</g>
<!-- Node6&#45;&gt;Node2 -->
<g id="edge7" class="edge">
<title>Node6&#45;&gt;Node2</title>
<path fill="none" stroke="midnightblue" d="M302.15,-110.6C247.35,-100.4 164.77,-85.02 113.74,-75.52"/>
<polygon fill="midnightblue" stroke="midnightblue" points="301.58,-114.05 312.05,-112.44 302.86,-107.17 301.58,-114.05"/>
</g>
<!-- Node7 -->
<g id="node7" class="node">
<title>Node7</title>
<g id="a_node7"><a xlink:href="_groups_extension_8cpp.html" target="_top" xlink:title="Implementation of GroupsExtension.">
<polygon fill="white" stroke="black" points="226.5,-56.5 226.5,-75.5 345.5,-75.5 345.5,-56.5 226.5,-56.5"/>
<text text-anchor="middle" x="286" y="-63.5" font-family="Helvetica,sans-Serif" font-size="10.00">GroupsExtension.cpp</text>
</a>
</g>
</g>
<!-- Node6&#45;&gt;Node7 -->
<g id="edge8" class="edge">
<title>Node6&#45;&gt;Node7</title>
<path fill="none" stroke="midnightblue" d="M338.13,-106.1C325.18,-96.38 308.7,-84.03 297.78,-75.83"/>
<polygon fill="midnightblue" stroke="midnightblue" points="336.33,-109.12 346.43,-112.32 340.53,-103.52 336.33,-109.12"/>
</g>
<!-- Node8 -->
<g id="node8" class="node">
<title>Node8</title>
<g id="a_node8"><a xlink:href="_groups_model_plugin_8cpp.html" target="_top" xlink:title="Implementation of the GroupsModelPlugin class.">
<polygon fill="white" stroke="black" points="363.5,-56.5 363.5,-75.5 494.5,-75.5 494.5,-56.5 363.5,-56.5"/>
<text text-anchor="middle" x="429" y="-63.5" font-family="Helvetica,sans-Serif" font-size="10.00">GroupsModelPlugin.cpp</text>
</a>
</g>
</g>
<!-- Node6&#45;&gt;Node8 -->
<g id="edge9" class="edge">
<title>Node6&#45;&gt;Node8</title>
<path fill="none" stroke="midnightblue" d="M377.59,-106.1C390.37,-96.38 406.61,-84.03 417.39,-75.83"/>
<polygon fill="midnightblue" stroke="midnightblue" points="375.25,-103.48 369.41,-112.32 379.49,-109.06 375.25,-103.48"/>
</g>
<!-- Node10&#45;&gt;Node6 -->
<g id="edge12" class="edge">
<title>Node10&#45;&gt;Node6</title>
<path fill="none" stroke="midnightblue" d="M248.16,-164.77C274.83,-154.63 312.07,-140.47 335.6,-131.52"/>
<polygon fill="midnightblue" stroke="midnightblue" points="246.6,-161.62 238.5,-168.44 249.09,-168.16 246.6,-161.62"/>
</g>
<!-- Node10&#45;&gt;Node9 -->
<g id="edge13" class="edge">
<title>Node10&#45;&gt;Node9</title>
<path fill="none" stroke="midnightblue" d="M193.28,-162.9C177.33,-153 156.5,-140.07 142.94,-131.65"/>
<polygon fill="midnightblue" stroke="midnightblue" points="191.68,-166.02 202.02,-168.32 195.37,-160.08 191.68,-166.02"/>
</g>
<!-- Node11 -->
<g id="node11" class="node">
<title>Node11</title>
<g id="a_node11"><a xlink:href="_list_of_groups_8cpp.html" target="_top" xlink:title="Implementation of the ListOfGroups class.">
<polygon fill="white" stroke="black" points="180,-112.5 180,-131.5 280,-131.5 280,-112.5 180,-112.5"/>
<text text-anchor="middle" x="230" y="-119.5" font-family="Helvetica,sans-Serif" font-size="10.00">ListOfGroups.cpp</text>
</a>
</g>
</g>
<!-- Node10&#45;&gt;Node11 -->
<g id="edge14" class="edge">
<title>Node10&#45;&gt;Node11</title>
<path fill="none" stroke="midnightblue" d="M220.82,-158.4C223.17,-149.36 225.87,-138.94 227.73,-131.75"/>
<polygon fill="midnightblue" stroke="midnightblue" points="217.43,-157.52 218.31,-168.08 224.21,-159.28 217.43,-157.52"/>
</g>
</g>
</svg>
