<?xml version="1.0" encoding="UTF-8" standalone="no"?>
<!DOCTYPE svg PUBLIC "-//W3C//DTD SVG 1.1//EN"
 "http://www.w3.org/Graphics/SVG/1.1/DTD/svg11.dtd">
<!-- Generated by graphviz version 2.43.0 (0)
 -->
<!-- Title: ModelCreator.h Pages: 1 -->
<svg width="982pt" height="576pt"
 viewBox="0.00 0.00 982.38 576.00" xmlns="http://www.w3.org/2000/svg" xmlns:xlink="http://www.w3.org/1999/xlink">
<g id="graph0" class="graph" transform="scale(1 1) rotate(0) translate(4 572)">
<title>ModelCreator.h</title>
<polygon fill="white" stroke="transparent" points="-4,4 -4,-572 978.38,-572 978.38,4 -4,4"/>
<!-- Node1 -->
<g id="node1" class="node">
<title>Node1</title>
<g id="a_node1"><a xlink:title="ModelCreator I/O.">
<polygon fill="#bfbfbf" stroke="black" points="268,-548.5 268,-567.5 359,-567.5 359,-548.5 268,-548.5"/>
<text text-anchor="middle" x="313.5" y="-555.5" font-family="Helvetica,sans-Serif" font-size="10.00">ModelCreator.h</text>
</a>
</g>
</g>
<!-- Node2 -->
<g id="node2" class="node">
<title>Node2</title>
<g id="a_node2"><a xlink:href="extern_8h.html" target="_top" xlink:title="Definitions of LIBSBML_EXTERN and related things.">
<polygon fill="white" stroke="black" points="92.5,-67.5 92.5,-86.5 222.5,-86.5 222.5,-67.5 92.5,-67.5"/>
<text text-anchor="middle" x="157.5" y="-74.5" font-family="Helvetica,sans-Serif" font-size="10.00">sbml/common/extern.h</text>
</a>
</g>
</g>
<!-- Node1&#45;&gt;Node2 -->
<g id="edge1" class="edge">
<title>Node1&#45;&gt;Node2</title>
<path fill="none" stroke="midnightblue" d="M267.55,-551.52C209.62,-541.77 117.5,-515.48 117.5,-447 117.5,-447 117.5,-447 117.5,-204.5 117.5,-163.99 136.38,-119.44 148.2,-95.51"/>
<polygon fill="midnightblue" stroke="midnightblue" points="151.32,-97.09 152.75,-86.6 145.09,-93.91 151.32,-97.09"/>
</g>
<!-- Node4 -->
<g id="node4" class="node">
<title>Node4</title>
<g id="a_node4"><a xlink:href="sbmlfwd_8h.html" target="_top" xlink:title="Forward declarations for all opaque C types.">
<polygon fill="white" stroke="black" points="344.5,-257.5 344.5,-276.5 484.5,-276.5 484.5,-257.5 344.5,-257.5"/>
<text text-anchor="middle" x="414.5" y="-264.5" font-family="Helvetica,sans-Serif" font-size="10.00">sbml/common/sbmlfwd.h</text>
</a>
</g>
</g>
<!-- Node1&#45;&gt;Node4 -->
<g id="edge3" class="edge">
<title>Node1&#45;&gt;Node4</title>
<path fill="none" stroke="midnightblue" d="M317.28,-548.35C324.92,-530.03 341.5,-485.82 341.5,-447 341.5,-447 341.5,-447 341.5,-389 341.5,-345.95 375.79,-305.08 397.37,-283.61"/>
<polygon fill="midnightblue" stroke="midnightblue" points="399.87,-286.07 404.65,-276.62 395.02,-281.02 399.87,-286.07"/>
</g>
<!-- Node8 -->
<g id="node8" class="node">
<title>Node8</title>
<g id="a_node8"><a xlink:href="operation_return_values_8h.html" target="_top" xlink:title="Enumeration of values returned by operations within libSBML.">
<polygon fill="white" stroke="black" points="145.5,-313.5 145.5,-343.5 313.5,-343.5 313.5,-313.5 145.5,-313.5"/>
<text text-anchor="start" x="153.5" y="-331.5" font-family="Helvetica,sans-Serif" font-size="10.00">sbml/common/operationReturn</text>
<text text-anchor="middle" x="229.5" y="-320.5" font-family="Helvetica,sans-Serif" font-size="10.00">Values.h</text>
</a>
</g>
</g>
<!-- Node1&#45;&gt;Node8 -->
<g id="edge10" class="edge">
<title>Node1&#45;&gt;Node8</title>
<path fill="none" stroke="midnightblue" d="M310.31,-548.36C298.45,-516.23 256.62,-402.96 238.26,-353.22"/>
<polygon fill="midnightblue" stroke="midnightblue" points="241.46,-351.79 234.71,-343.62 234.9,-354.22 241.46,-351.79"/>
</g>
<!-- Node9 -->
<g id="node9" class="node">
<title>Node9</title>
<g id="a_node9"><a xlink:href="_list_8h.html" target="_top" xlink:title="Simple, generic list utility class.">
<polygon fill="white" stroke="black" points="0,-492.5 0,-511.5 89,-511.5 89,-492.5 0,-492.5"/>
<text text-anchor="middle" x="44.5" y="-499.5" font-family="Helvetica,sans-Serif" font-size="10.00">sbml/util/List.h</text>
</a>
</g>
</g>
<!-- Node1&#45;&gt;Node9 -->
<g id="edge12" class="edge">
<title>Node1&#45;&gt;Node9</title>
<path fill="none" stroke="midnightblue" d="M270.88,-548.44C223.75,-538.98 147.81,-523.74 97.04,-513.55"/>
<polygon fill="midnightblue" stroke="midnightblue" points="97.42,-510.05 86.92,-511.52 96.04,-516.92 97.42,-510.05"/>
</g>
<!-- Node11 -->
<g id="node11" class="node">
<title>Node11</title>
<g id="a_node11"><a xlink:href="_x_m_l_node_8h.html" target="_top" xlink:title="Class definition of XMLNode, a node in an XML document tree.">
<polygon fill="white" stroke="black" points="398,-492.5 398,-511.5 519,-511.5 519,-492.5 398,-492.5"/>
<text text-anchor="middle" x="458.5" y="-499.5" font-family="Helvetica,sans-Serif" font-size="10.00">sbml/xml/XMLNode.h</text>
</a>
</g>
</g>
<!-- Node1&#45;&gt;Node11 -->
<g id="edge15" class="edge">
<title>Node1&#45;&gt;Node11</title>
<path fill="none" stroke="midnightblue" d="M336.48,-548.44C360.66,-539.44 398.92,-525.19 426.15,-515.05"/>
<polygon fill="midnightblue" stroke="midnightblue" points="427.48,-518.29 435.63,-511.52 425.04,-511.73 427.48,-518.29"/>
</g>
<!-- Node15 -->
<g id="node15" class="node">
<title>Node15</title>
<g id="a_node15"><a xlink:title=" ">
<polygon fill="white" stroke="#bfbfbf" points="828.5,-257.5 828.5,-276.5 872.5,-276.5 872.5,-257.5 828.5,-257.5"/>
<text text-anchor="middle" x="850.5" y="-264.5" font-family="Helvetica,sans-Serif" font-size="10.00">string</text>
</a>
</g>
</g>
<!-- Node1&#45;&gt;Node15 -->
<g id="edge37" class="edge">
<title>Node1&#45;&gt;Node15</title>
<path fill="none" stroke="midnightblue" d="M359.12,-554.23C508.52,-544.55 973.5,-509.4 973.5,-447 973.5,-447 973.5,-447 973.5,-389 973.5,-354.18 977.03,-339.55 954.5,-313 936.2,-291.44 905.67,-279.91 882.41,-273.93"/>
<polygon fill="midnightblue" stroke="midnightblue" points="883.15,-270.51 872.62,-271.63 881.55,-277.33 883.15,-270.51"/>
</g>
<!-- Node3 -->
<g id="node3" class="node">
<title>Node3</title>
<g id="a_node3"><a xlink:title=" ">
<polygon fill="white" stroke="#bfbfbf" points="439,-0.5 439,-30.5 564,-30.5 564,-0.5 439,-0.5"/>
<text text-anchor="start" x="447" y="-18.5" font-family="Helvetica,sans-Serif" font-size="10.00">sbml/common/libsbml</text>
<text text-anchor="middle" x="501.5" y="-7.5" font-family="Helvetica,sans-Serif" font-size="10.00">&#45;namespace.h</text>
</a>
</g>
</g>
<!-- Node2&#45;&gt;Node3 -->
<g id="edge2" class="edge">
<title>Node2&#45;&gt;Node3</title>
<path fill="none" stroke="midnightblue" d="M206.79,-67.48C264.92,-57.42 362.09,-40.61 428.86,-29.06"/>
<polygon fill="midnightblue" stroke="midnightblue" points="429.63,-32.48 438.89,-27.33 428.44,-25.59 429.63,-32.48"/>
</g>
<!-- Node4&#45;&gt;Node3 -->
<g id="edge4" class="edge">
<title>Node4&#45;&gt;Node3</title>
<path fill="none" stroke="midnightblue" d="M432.2,-257.42C446.09,-249.77 464.81,-237.28 475.5,-221 512.31,-164.97 509.17,-81.44 504.84,-40.66"/>
<polygon fill="midnightblue" stroke="midnightblue" points="508.3,-40.09 503.65,-30.57 501.34,-40.91 508.3,-40.09"/>
</g>
<!-- Node5 -->
<g id="node5" class="node">
<title>Node5</title>
<g id="a_node5"><a xlink:href="libsbml-config_8h.html" target="_top" xlink:title="Decides whether to #include Unix or Windows configuration variables.">
<polygon fill="white" stroke="black" points="342,-190.5 342,-220.5 467,-220.5 467,-190.5 342,-190.5"/>
<text text-anchor="start" x="350" y="-208.5" font-family="Helvetica,sans-Serif" font-size="10.00">sbml/common/libsbml</text>
<text text-anchor="middle" x="404.5" y="-197.5" font-family="Helvetica,sans-Serif" font-size="10.00">&#45;config.h</text>
</a>
</g>
</g>
<!-- Node4&#45;&gt;Node5 -->
<g id="edge5" class="edge">
<title>Node4&#45;&gt;Node5</title>
<path fill="none" stroke="midnightblue" d="M413.07,-257.48C411.88,-250.4 410.13,-239.97 408.52,-230.39"/>
<polygon fill="midnightblue" stroke="midnightblue" points="411.97,-229.8 406.86,-220.52 405.06,-230.96 411.97,-229.8"/>
</g>
<!-- Node5&#45;&gt;Node3 -->
<g id="edge6" class="edge">
<title>Node5&#45;&gt;Node3</title>
<path fill="none" stroke="midnightblue" d="M426.06,-190.49C438.39,-181.45 453.2,-168.66 462.5,-154 485.01,-118.52 494.81,-69.8 498.86,-40.89"/>
<polygon fill="midnightblue" stroke="midnightblue" points="502.35,-41.22 500.14,-30.85 495.4,-40.33 502.35,-41.22"/>
</g>
<!-- Node6 -->
<g id="node6" class="node">
<title>Node6</title>
<g id="a_node6"><a xlink:title=" ">
<polygon fill="white" stroke="#bfbfbf" points="186,-123.5 186,-153.5 311,-153.5 311,-123.5 186,-123.5"/>
<text text-anchor="start" x="194" y="-141.5" font-family="Helvetica,sans-Serif" font-size="10.00">sbml/common/libsbml</text>
<text text-anchor="middle" x="248.5" y="-130.5" font-family="Helvetica,sans-Serif" font-size="10.00">&#45;config&#45;common.h</text>
</a>
</g>
</g>
<!-- Node5&#45;&gt;Node6 -->
<g id="edge7" class="edge">
<title>Node5&#45;&gt;Node6</title>
<path fill="none" stroke="midnightblue" d="M370.65,-190.4C347.45,-180.73 316.47,-167.82 291.52,-157.43"/>
<polygon fill="midnightblue" stroke="midnightblue" points="292.86,-154.19 282.28,-153.58 290.17,-160.65 292.86,-154.19"/>
</g>
<!-- Node7 -->
<g id="node7" class="node">
<title>Node7</title>
<g id="a_node7"><a xlink:href="libsbml-version_8h.html" target="_top" xlink:title="Define libSBML version numbers for access from client software.">
<polygon fill="white" stroke="black" points="329,-123.5 329,-153.5 454,-153.5 454,-123.5 329,-123.5"/>
<text text-anchor="start" x="337" y="-141.5" font-family="Helvetica,sans-Serif" font-size="10.00">sbml/common/libsbml</text>
<text text-anchor="middle" x="391.5" y="-130.5" font-family="Helvetica,sans-Serif" font-size="10.00">&#45;version.h</text>
</a>
</g>
</g>
<!-- Node5&#45;&gt;Node7 -->
<g id="edge8" class="edge">
<title>Node5&#45;&gt;Node7</title>
<path fill="none" stroke="midnightblue" d="M401.68,-190.4C400.11,-182.56 398.12,-172.6 396.31,-163.57"/>
<polygon fill="midnightblue" stroke="midnightblue" points="399.71,-162.7 394.32,-153.58 392.84,-164.07 399.71,-162.7"/>
</g>
<!-- Node7&#45;&gt;Node2 -->
<g id="edge9" class="edge">
<title>Node7&#45;&gt;Node2</title>
<path fill="none" stroke="midnightblue" d="M336.34,-123.47C294.91,-112.94 238.97,-98.72 200.75,-89"/>
<polygon fill="midnightblue" stroke="midnightblue" points="201.51,-85.58 190.95,-86.51 199.78,-92.36 201.51,-85.58"/>
</g>
<!-- Node8&#45;&gt;Node2 -->
<g id="edge11" class="edge">
<title>Node8&#45;&gt;Node2</title>
<path fill="none" stroke="midnightblue" d="M224.85,-313.18C215.31,-283.59 193.01,-213.48 176.5,-154 171.11,-134.6 165.6,-112.21 161.91,-96.79"/>
<polygon fill="midnightblue" stroke="midnightblue" points="165.29,-95.85 159.58,-86.93 158.48,-97.47 165.29,-95.85"/>
</g>
<!-- Node9&#45;&gt;Node2 -->
<g id="edge13" class="edge">
<title>Node9&#45;&gt;Node2</title>
<path fill="none" stroke="midnightblue" d="M39.51,-492.49C29.41,-474.44 7.5,-430.69 7.5,-391 7.5,-391 7.5,-391 7.5,-204.5 7.5,-145.12 77.05,-107.95 121.43,-90.28"/>
<polygon fill="midnightblue" stroke="midnightblue" points="122.94,-93.45 131.03,-86.6 120.44,-86.91 122.94,-93.45"/>
</g>
<!-- Node10 -->
<g id="node10" class="node">
<title>Node10</title>
<g id="a_node10"><a xlink:title=" ">
<polygon fill="white" stroke="#bfbfbf" points="36,-436.5 36,-455.5 89,-455.5 89,-436.5 36,-436.5"/>
<text text-anchor="middle" x="62.5" y="-443.5" font-family="Helvetica,sans-Serif" font-size="10.00">string.h</text>
</a>
</g>
</g>
<!-- Node9&#45;&gt;Node10 -->
<g id="edge14" class="edge">
<title>Node9&#45;&gt;Node10</title>
<path fill="none" stroke="midnightblue" d="M47.47,-492.08C49.88,-484.85 53.36,-474.41 56.37,-465.4"/>
<polygon fill="midnightblue" stroke="midnightblue" points="59.74,-466.34 59.58,-455.75 53.1,-464.13 59.74,-466.34"/>
</g>
<!-- Node11&#45;&gt;Node4 -->
<g id="edge34" class="edge">
<title>Node11&#45;&gt;Node4</title>
<path fill="none" stroke="midnightblue" d="M439.2,-492.48C425.07,-485.08 406.94,-472.89 398.5,-456 370.22,-399.44 393.69,-321.29 406.94,-286.26"/>
<polygon fill="midnightblue" stroke="midnightblue" points="410.24,-287.44 410.66,-276.85 403.73,-284.86 410.24,-287.44"/>
</g>
<!-- Node12 -->
<g id="node12" class="node">
<title>Node12</title>
<g id="a_node12"><a xlink:href="_x_m_l_extern_8h.html" target="_top" xlink:title="Defines LIBLAX_EXTERN.">
<polygon fill="white" stroke="black" points="503,-257.5 503,-276.5 630,-276.5 630,-257.5 503,-257.5"/>
<text text-anchor="middle" x="566.5" y="-264.5" font-family="Helvetica,sans-Serif" font-size="10.00">sbml/xml/XMLExtern.h</text>
</a>
</g>
</g>
<!-- Node11&#45;&gt;Node12 -->
<g id="edge16" class="edge">
<title>Node11&#45;&gt;Node12</title>
<path fill="none" stroke="midnightblue" d="M462.48,-492.38C474.79,-465.7 513.37,-382.14 545.5,-313 549.68,-304 554.35,-293.98 558.23,-285.7"/>
<polygon fill="midnightblue" stroke="midnightblue" points="561.4,-287.16 562.47,-276.62 555.06,-284.2 561.4,-287.16"/>
</g>
<!-- Node13 -->
<g id="node13" class="node">
<title>Node13</title>
<g id="a_node13"><a xlink:href="_x_m_l_token_8h.html" target="_top" xlink:title="A unit of XML syntax, either an XML element or text.">
<polygon fill="white" stroke="black" points="513.5,-436.5 513.5,-455.5 635.5,-455.5 635.5,-436.5 513.5,-436.5"/>
<text text-anchor="middle" x="574.5" y="-443.5" font-family="Helvetica,sans-Serif" font-size="10.00">sbml/xml/XMLToken.h</text>
</a>
</g>
</g>
<!-- Node11&#45;&gt;Node13 -->
<g id="edge18" class="edge">
<title>Node11&#45;&gt;Node13</title>
<path fill="none" stroke="midnightblue" d="M476.88,-492.44C495.72,-483.68 525.23,-469.94 546.88,-459.86"/>
<polygon fill="midnightblue" stroke="midnightblue" points="548.62,-462.91 556.21,-455.52 545.66,-456.56 548.62,-462.91"/>
</g>
<!-- Node16 -->
<g id="node16" class="node">
<title>Node16</title>
<g id="a_node16"><a xlink:title=" ">
<polygon fill="white" stroke="#bfbfbf" points="898,-319 898,-338 945,-338 945,-319 898,-319"/>
<text text-anchor="middle" x="921.5" y="-326" font-family="Helvetica,sans-Serif" font-size="10.00">vector</text>
</a>
</g>
</g>
<!-- Node11&#45;&gt;Node16 -->
<g id="edge35" class="edge">
<title>Node11&#45;&gt;Node16</title>
<path fill="none" stroke="midnightblue" d="M508.16,-492.47C549.85,-484.73 610.72,-472.09 662.5,-456 725.71,-436.36 741.09,-429.18 800.5,-400 836.14,-382.5 875.55,-358.63 899.42,-343.65"/>
<polygon fill="midnightblue" stroke="midnightblue" points="901.48,-346.49 908.06,-338.19 897.73,-340.57 901.48,-346.49"/>
</g>
<!-- Node19 -->
<g id="node19" class="node">
<title>Node19</title>
<g id="a_node19"><a xlink:title=" ">
<polygon fill="white" stroke="#bfbfbf" points="408,-436.5 408,-455.5 457,-455.5 457,-436.5 408,-436.5"/>
<text text-anchor="middle" x="432.5" y="-443.5" font-family="Helvetica,sans-Serif" font-size="10.00">cstdlib</text>
</a>
</g>
</g>
<!-- Node11&#45;&gt;Node19 -->
<g id="edge36" class="edge">
<title>Node11&#45;&gt;Node19</title>
<path fill="none" stroke="midnightblue" d="M454.21,-492.08C450.65,-484.69 445.48,-473.95 441.08,-464.81"/>
<polygon fill="midnightblue" stroke="midnightblue" points="444.21,-463.24 436.71,-455.75 437.9,-466.28 444.21,-463.24"/>
</g>
<!-- Node12&#45;&gt;Node3 -->
<g id="edge17" class="edge">
<title>Node12&#45;&gt;Node3</title>
<path fill="none" stroke="midnightblue" d="M566.38,-257.33C565.73,-228.98 561.52,-136.84 534.5,-67 530.69,-57.14 524.75,-47.21 518.96,-38.79"/>
<polygon fill="midnightblue" stroke="midnightblue" points="521.76,-36.69 513.07,-30.63 516.08,-40.79 521.76,-36.69"/>
</g>
<!-- Node13&#45;&gt;Node4 -->
<g id="edge32" class="edge">
<title>Node13&#45;&gt;Node4</title>
<path fill="none" stroke="midnightblue" d="M566.78,-436.46C541.82,-408.85 462.94,-321.58 429.6,-284.71"/>
<polygon fill="midnightblue" stroke="midnightblue" points="431.82,-281.94 422.52,-276.87 426.63,-286.63 431.82,-281.94"/>
</g>
<!-- Node13&#45;&gt;Node12 -->
<g id="edge19" class="edge">
<title>Node13&#45;&gt;Node12</title>
<path fill="none" stroke="midnightblue" d="M570.98,-436.36C562.83,-415.3 543.94,-359.61 551.5,-313 552.97,-303.96 555.99,-294.28 558.94,-286.22"/>
<polygon fill="midnightblue" stroke="midnightblue" points="562.26,-287.34 562.64,-276.75 555.74,-284.79 562.26,-287.34"/>
</g>
<!-- Node13&#45;&gt;Node13 -->
<g id="edge31" class="edge">
<title>Node13&#45;&gt;Node13</title>
<path fill="none" stroke="midnightblue" d="M608.19,-455.53C631.09,-458.31 653.5,-455.13 653.5,-446 653.5,-438.22 637.25,-434.77 618.29,-435.63"/>
<polygon fill="midnightblue" stroke="midnightblue" points="617.87,-432.15 608.19,-436.47 618.45,-439.13 617.87,-432.15"/>
</g>
<!-- Node14 -->
<g id="node14" class="node">
<title>Node14</title>
<g id="a_node14"><a xlink:href="_x_m_l_attributes_8h.html" target="_top" xlink:title="XMLAttributes are a list of name/value pairs for XML elements.">
<polygon fill="white" stroke="black" points="598.5,-380.5 598.5,-399.5 742.5,-399.5 742.5,-380.5 598.5,-380.5"/>
<text text-anchor="middle" x="670.5" y="-387.5" font-family="Helvetica,sans-Serif" font-size="10.00">sbml/xml/XMLAttributes.h</text>
</a>
</g>
</g>
<!-- Node13&#45;&gt;Node14 -->
<g id="edge20" class="edge">
<title>Node13&#45;&gt;Node14</title>
<path fill="none" stroke="midnightblue" d="M589.92,-436.32C605.04,-427.82 628.32,-414.73 645.97,-404.8"/>
<polygon fill="midnightblue" stroke="midnightblue" points="648.11,-407.61 655.11,-399.65 644.68,-401.51 648.11,-407.61"/>
</g>
<!-- Node13&#45;&gt;Node15 -->
<g id="edge33" class="edge">
<title>Node13&#45;&gt;Node15</title>
<path fill="none" stroke="midnightblue" d="M635.73,-440.92C698.39,-433.07 792.61,-410.24 836.5,-344 847.71,-327.08 850.56,-303.62 851.02,-287.25"/>
<polygon fill="midnightblue" stroke="midnightblue" points="854.52,-286.79 851.01,-276.79 847.52,-286.79 854.52,-286.79"/>
</g>
<!-- Node14&#45;&gt;Node4 -->
<g id="edge22" class="edge">
<title>Node14&#45;&gt;Node4</title>
<path fill="none" stroke="midnightblue" d="M644.52,-380.4C620.11,-372.03 582.76,-358.49 551.5,-344 510,-324.77 463.9,-298 437.16,-281.91"/>
<polygon fill="midnightblue" stroke="midnightblue" points="438.91,-278.88 428.54,-276.69 435.28,-284.86 438.91,-278.88"/>
</g>
<!-- Node14&#45;&gt;Node8 -->
<g id="edge23" class="edge">
<title>Node14&#45;&gt;Node8</title>
<path fill="none" stroke="midnightblue" d="M607.32,-380.48C533.09,-370.46 409.24,-353.75 323.68,-342.21"/>
<polygon fill="midnightblue" stroke="midnightblue" points="324.08,-338.73 313.7,-340.86 323.14,-345.67 324.08,-338.73"/>
</g>
<!-- Node14&#45;&gt;Node12 -->
<g id="edge21" class="edge">
<title>Node14&#45;&gt;Node12</title>
<path fill="none" stroke="midnightblue" d="M677.1,-380.21C687.54,-365.15 705.22,-334 690.5,-313 678.58,-296 659.55,-285.39 639.94,-278.79"/>
<polygon fill="midnightblue" stroke="midnightblue" points="640.89,-275.42 630.3,-275.86 638.85,-282.11 640.89,-275.42"/>
</g>
<!-- Node14&#45;&gt;Node15 -->
<g id="edge24" class="edge">
<title>Node14&#45;&gt;Node15</title>
<path fill="none" stroke="midnightblue" d="M732.41,-380.5C759.47,-374.17 790.09,-363.15 812.5,-344 830.07,-328.99 840.37,-303.88 845.71,-286.66"/>
<polygon fill="midnightblue" stroke="midnightblue" points="849.19,-287.25 848.54,-276.67 842.45,-285.34 849.19,-287.25"/>
</g>
<!-- Node14&#45;&gt;Node16 -->
<g id="edge25" class="edge">
<title>Node14&#45;&gt;Node16</title>
<path fill="none" stroke="midnightblue" d="M706.46,-380.48C754.96,-368.98 840.67,-348.66 887.91,-337.46"/>
<polygon fill="midnightblue" stroke="midnightblue" points="888.74,-340.86 897.66,-335.15 887.12,-334.05 888.74,-340.86"/>
</g>
<!-- Node17 -->
<g id="node17" class="node">
<title>Node17</title>
<g id="a_node17"><a xlink:title=" ">
<polygon fill="white" stroke="#bfbfbf" points="738,-319 738,-338 803,-338 803,-319 738,-319"/>
<text text-anchor="middle" x="770.5" y="-326" font-family="Helvetica,sans-Serif" font-size="10.00">stdexcept</text>
</a>
</g>
</g>
<!-- Node14&#45;&gt;Node17 -->
<g id="edge26" class="edge">
<title>Node14&#45;&gt;Node17</title>
<path fill="none" stroke="midnightblue" d="M684.83,-380.48C701.16,-370.75 728.1,-354.73 747.41,-343.24"/>
<polygon fill="midnightblue" stroke="midnightblue" points="749.39,-346.13 756.2,-338.01 745.82,-340.11 749.39,-346.13"/>
</g>
<!-- Node18 -->
<g id="node18" class="node">
<title>Node18</title>
<g id="a_node18"><a xlink:href="_x_m_l_triple_8h.html" target="_top" xlink:title="Stores an XML namespace triple.">
<polygon fill="white" stroke="black" points="560,-319 560,-338 681,-338 681,-319 560,-319"/>
<text text-anchor="middle" x="620.5" y="-326" font-family="Helvetica,sans-Serif" font-size="10.00">sbml/xml/XMLTriple.h</text>
</a>
</g>
</g>
<!-- Node14&#45;&gt;Node18 -->
<g id="edge27" class="edge">
<title>Node14&#45;&gt;Node18</title>
<path fill="none" stroke="midnightblue" d="M663.34,-380.48C655.76,-371.46 643.63,-357.02 634.21,-345.81"/>
<polygon fill="midnightblue" stroke="midnightblue" points="636.76,-343.41 627.65,-338.01 631.4,-347.92 636.76,-343.41"/>
</g>
<!-- Node18&#45;&gt;Node4 -->
<g id="edge29" class="edge">
<title>Node18&#45;&gt;Node4</title>
<path fill="none" stroke="midnightblue" d="M590.99,-318.98C554.88,-308.55 493.65,-290.86 453.65,-279.31"/>
<polygon fill="midnightblue" stroke="midnightblue" points="454.54,-275.92 443.96,-276.51 452.6,-282.65 454.54,-275.92"/>
</g>
<!-- Node18&#45;&gt;Node12 -->
<g id="edge28" class="edge">
<title>Node18&#45;&gt;Node12</title>
<path fill="none" stroke="midnightblue" d="M612.76,-318.98C604.5,-309.87 591.22,-295.24 581.01,-283.98"/>
<polygon fill="midnightblue" stroke="midnightblue" points="583.53,-281.56 574.22,-276.51 578.35,-286.27 583.53,-281.56"/>
</g>
<!-- Node18&#45;&gt;Node15 -->
<g id="edge30" class="edge">
<title>Node18&#45;&gt;Node15</title>
<path fill="none" stroke="midnightblue" d="M653.45,-318.98C697.5,-307.58 775.04,-287.52 818.56,-276.26"/>
<polygon fill="midnightblue" stroke="midnightblue" points="819.53,-279.63 828.34,-273.73 817.78,-272.85 819.53,-279.63"/>
</g>
</g>
</svg>
