<?xml version="1.0" encoding="UTF-8" standalone="no"?>
<!DOCTYPE svg PUBLIC "-//W3C//DTD SVG 1.1//EN"
 "http://www.w3.org/Graphics/SVG/1.1/DTD/svg11.dtd">
<!-- Generated by graphviz version 2.43.0 (0)
 -->
<!-- Title: ModelHistory.h Pages: 1 -->
<!--zoomable 632 -->
<svg id="main" version="1.1" xmlns="http://www.w3.org/2000/svg" xmlns:xlink="http://www.w3.org/1999/xlink" xml:space="preserve" onload="init(evt)">
<style type="text/css"><![CDATA[
.edge:hover path { stroke: red; }
.edge:hover polygon { stroke: red; fill: red; }
]]></style>
<script type="text/javascript"><![CDATA[
var edges = document.getElementsByTagName('g');
if (edges && edges.length) {
  for (var i=0;i<edges.length;i++) {
    if (edges[i].id.substr(0,4)=='edge') {
      edges[i].setAttribute('class','edge');
    }
  }
}
]]></script>
        <defs>
                <circle id="rim" cx="0" cy="0" r="7"/>
                <circle id="rim2" cx="0" cy="0" r="3.5"/>
                <g id="zoomPlus">
                        <use xlink:href="#rim" fill="#404040">
                                <set attributeName="fill" to="#808080" begin="zoomplus.mouseover" end="zoomplus.mouseout"/>
                        </use>
                        <path d="M-4,0h8M0,-4v8" fill="none" stroke="white" stroke-width="1.5" pointer-events="none"/>
                </g>
                <g id="zoomMin">
                        <use xlink:href="#rim" fill="#404040">
                                <set attributeName="fill" to="#808080" begin="zoomminus.mouseover" end="zoomminus.mouseout"/>
                        </use>
                        <path d="M-4,0h8" fill="none" stroke="white" stroke-width="1.5" pointer-events="none"/>
                </g>
                <g id="dirArrow">
                        <path fill="none" stroke="white" stroke-width="1.5" d="M0,-3.0v7 M-2.5,-0.5L0,-3.0L2.5,-0.5"/>
                </g>
               <g id="resetDef">
                       <use xlink:href="#rim2" fill="#404040">
                               <set attributeName="fill" to="#808080" begin="reset.mouseover" end="reset.mouseout"/>
                       </use>
               </g>
        </defs>

<script type="text/javascript">
var viewWidth = 1133;
var viewHeight = 632;
var sectionId = 'dynsection-0';
</script>
<script xlink:href="svgpan.js"/>
<svg id="graph" class="graph">
<g id="viewport">
<title>ModelHistory.h</title>
<polygon fill="white" stroke="transparent" points="-4,4 -4,-628 1129,-628 1129,4 -4,4"/>
<!-- Node1 -->
<g id="node1" class="node">
<title>Node1</title>
<g id="a_node1"><a xlink:title="ModelHistory I/O.">
<polygon fill="#bfbfbf" stroke="black" points="225.5,-604.5 225.5,-623.5 314.5,-623.5 314.5,-604.5 225.5,-604.5"/>
<text text-anchor="middle" x="270" y="-611.5" font-family="Helvetica,sans-Serif" font-size="10.00">ModelHistory.h</text>
</a>
</g>
</g>
<!-- Node2 -->
<g id="node2" class="node">
<title>Node2</title>
<g id="a_node2"><a xlink:href="extern_8h.html" target="_top" xlink:title="Definitions of LIBSBML_EXTERN and related things.">
<polygon fill="white" stroke="black" points="123,-67.5 123,-86.5 253,-86.5 253,-67.5 123,-67.5"/>
<text text-anchor="middle" x="188" y="-74.5" font-family="Helvetica,sans-Serif" font-size="10.00">sbml/common/extern.h</text>
</a>
</g>
</g>
<!-- Node1&#45;&gt;Node2 -->
<g id="edge1" class="edge">
<title>Node1&#45;&gt;Node2</title>
<path fill="none" stroke="midnightblue" d="M225.72,-604.49C149.12,-588.48 0,-551.15 0,-503 0,-503 0,-503 0,-204.5 0,-161.29 18.81,-149.42 53,-123 74.48,-106.4 102.41,-95.75 127.28,-89.02"/>
<polygon fill="midnightblue" stroke="midnightblue" points="128.17,-92.4 137,-86.53 126.44,-85.62 128.17,-92.4"/>
</g>
<!-- Node4 -->
<g id="node4" class="node">
<title>Node4</title>
<g id="a_node4"><a xlink:href="sbmlfwd_8h.html" target="_top" xlink:title="Forward declarations for all opaque C types.">
<polygon fill="white" stroke="black" points="837,-257.5 837,-276.5 977,-276.5 977,-257.5 837,-257.5"/>
<text text-anchor="middle" x="907" y="-264.5" font-family="Helvetica,sans-Serif" font-size="10.00">sbml/common/sbmlfwd.h</text>
</a>
</g>
</g>
<!-- Node1&#45;&gt;Node4 -->
<g id="edge3" class="edge">
<title>Node1&#45;&gt;Node4</title>
<path fill="none" stroke="midnightblue" d="M314.76,-612C490.69,-607.49 1125,-585.5 1125,-503 1125,-503 1125,-503 1125,-389 1125,-351.24 1116.46,-336.63 1087,-313 1058.99,-290.53 1021.25,-279.1 987.56,-273.35"/>
<polygon fill="midnightblue" stroke="midnightblue" points="987.67,-269.83 977.25,-271.74 986.59,-276.74 987.67,-269.83"/>
</g>
<!-- Node8 -->
<g id="node8" class="node">
<title>Node8</title>
<g id="a_node8"><a xlink:href="operation_return_values_8h.html" target="_top" xlink:title="Enumeration of values returned by operations within libSBML.">
<polygon fill="white" stroke="black" points="104,-313.5 104,-343.5 272,-343.5 272,-313.5 104,-313.5"/>
<text text-anchor="start" x="112" y="-331.5" font-family="Helvetica,sans-Serif" font-size="10.00">sbml/common/operationReturn</text>
<text text-anchor="middle" x="188" y="-320.5" font-family="Helvetica,sans-Serif" font-size="10.00">Values.h</text>
</a>
</g>
</g>
<!-- Node1&#45;&gt;Node8 -->
<g id="edge10" class="edge">
<title>Node1&#45;&gt;Node8</title>
<path fill="none" stroke="midnightblue" d="M225.38,-609.05C198.16,-604.07 165.36,-592.91 148,-568 133.05,-546.55 158.48,-537.04 166,-512 182.49,-457.12 186.67,-389.44 187.7,-353.91"/>
<polygon fill="midnightblue" stroke="midnightblue" points="191.2,-353.64 187.93,-343.57 184.21,-353.49 191.2,-353.64"/>
</g>
<!-- Node9 -->
<g id="node9" class="node">
<title>Node9</title>
<g id="a_node9"><a xlink:href="_list_8h.html" target="_top" xlink:title="Simple, generic list utility class.">
<polygon fill="white" stroke="black" points="68.5,-492.5 68.5,-511.5 157.5,-511.5 157.5,-492.5 68.5,-492.5"/>
<text text-anchor="middle" x="113" y="-499.5" font-family="Helvetica,sans-Serif" font-size="10.00">sbml/util/List.h</text>
</a>
</g>
</g>
<!-- Node1&#45;&gt;Node9 -->
<g id="edge12" class="edge">
<title>Node1&#45;&gt;Node9</title>
<path fill="none" stroke="midnightblue" d="M225.17,-613.3C189.22,-610.89 140.67,-601.11 115,-568 104.96,-555.05 105.66,-535.88 108.15,-521.71"/>
<polygon fill="midnightblue" stroke="midnightblue" points="111.64,-522.15 110.37,-511.64 104.8,-520.65 111.64,-522.15"/>
</g>
<!-- Node11 -->
<g id="node11" class="node">
<title>Node11</title>
<g id="a_node11"><a xlink:href="_x_m_l_node_8h.html" target="_top" xlink:title="Class definition of XMLNode, a node in an XML document tree.">
<polygon fill="white" stroke="black" points="485.5,-492.5 485.5,-511.5 606.5,-511.5 606.5,-492.5 485.5,-492.5"/>
<text text-anchor="middle" x="546" y="-499.5" font-family="Helvetica,sans-Serif" font-size="10.00">sbml/xml/XMLNode.h</text>
</a>
</g>
</g>
<!-- Node1&#45;&gt;Node11 -->
<g id="edge15" class="edge">
<title>Node1&#45;&gt;Node11</title>
<path fill="none" stroke="midnightblue" d="M314.58,-610.77C379.67,-606.6 496.32,-595.45 527,-568 539.99,-556.38 544.3,-536.43 545.64,-521.68"/>
<polygon fill="midnightblue" stroke="midnightblue" points="549.14,-521.82 546.17,-511.65 542.15,-521.45 549.14,-521.82"/>
</g>
<!-- Node15 -->
<g id="node15" class="node">
<title>Node15</title>
<g id="a_node15"><a xlink:title=" ">
<polygon fill="white" stroke="#bfbfbf" points="414,-257.5 414,-276.5 458,-276.5 458,-257.5 414,-257.5"/>
<text text-anchor="middle" x="436" y="-264.5" font-family="Helvetica,sans-Serif" font-size="10.00">string</text>
</a>
</g>
</g>
<!-- Node1&#45;&gt;Node15 -->
<g id="edge51" class="edge">
<title>Node1&#45;&gt;Node15</title>
<path fill="none" stroke="midnightblue" d="M275.66,-604.2C281.34,-595.24 290.18,-580.88 297,-568 352.34,-463.53 408.6,-332.98 428.49,-285.93"/>
<polygon fill="midnightblue" stroke="midnightblue" points="431.8,-287.09 432.45,-276.51 425.35,-284.37 431.8,-287.09"/>
</g>
<!-- Node20 -->
<g id="node20" class="node">
<title>Node20</title>
<g id="a_node20"><a xlink:href="_date_8h.html" target="_top" xlink:title="Date I/O.">
<polygon fill="white" stroke="black" points="157.5,-548.5 157.5,-567.5 288.5,-567.5 288.5,-548.5 157.5,-548.5"/>
<text text-anchor="middle" x="223" y="-555.5" font-family="Helvetica,sans-Serif" font-size="10.00">sbml/annotation/Date.h</text>
</a>
</g>
</g>
<!-- Node1&#45;&gt;Node20 -->
<g id="edge37" class="edge">
<title>Node1&#45;&gt;Node20</title>
<path fill="none" stroke="midnightblue" d="M262.24,-604.08C255.46,-596.3 245.46,-584.8 237.24,-575.37"/>
<polygon fill="midnightblue" stroke="midnightblue" points="239.82,-573 230.62,-567.75 234.54,-577.59 239.82,-573"/>
</g>
<!-- Node21 -->
<g id="node21" class="node">
<title>Node21</title>
<g id="a_node21"><a xlink:href="_model_creator_8h.html" target="_top" xlink:title="ModelCreator I/O.">
<polygon fill="white" stroke="black" points="345.5,-548.5 345.5,-567.5 518.5,-567.5 518.5,-548.5 345.5,-548.5"/>
<text text-anchor="middle" x="432" y="-555.5" font-family="Helvetica,sans-Serif" font-size="10.00">sbml/annotation/ModelCreator.h</text>
</a>
</g>
</g>
<!-- Node1&#45;&gt;Node21 -->
<g id="edge44" class="edge">
<title>Node1&#45;&gt;Node21</title>
<path fill="none" stroke="midnightblue" d="M295.67,-604.44C322.92,-595.36 366.18,-580.94 396.65,-570.78"/>
<polygon fill="midnightblue" stroke="midnightblue" points="398.07,-574 406.45,-567.52 395.86,-567.36 398.07,-574"/>
</g>
<!-- Node3 -->
<g id="node3" class="node">
<title>Node3</title>
<g id="a_node3"><a xlink:title=" ">
<polygon fill="white" stroke="#bfbfbf" points="638.5,-0.5 638.5,-30.5 763.5,-30.5 763.5,-0.5 638.5,-0.5"/>
<text text-anchor="start" x="646.5" y="-18.5" font-family="Helvetica,sans-Serif" font-size="10.00">sbml/common/libsbml</text>
<text text-anchor="middle" x="701" y="-7.5" font-family="Helvetica,sans-Serif" font-size="10.00">&#45;namespace.h</text>
</a>
</g>
</g>
<!-- Node2&#45;&gt;Node3 -->
<g id="edge2" class="edge">
<title>Node2&#45;&gt;Node3</title>
<path fill="none" stroke="midnightblue" d="M253.23,-68.43C349.24,-57.3 528.03,-36.56 628.2,-24.94"/>
<polygon fill="midnightblue" stroke="midnightblue" points="628.7,-28.41 638.23,-23.78 627.9,-21.46 628.7,-28.41"/>
</g>
<!-- Node4&#45;&gt;Node3 -->
<g id="edge4" class="edge">
<title>Node4&#45;&gt;Node3</title>
<path fill="none" stroke="midnightblue" d="M901.95,-257.45C884.73,-228.71 825.95,-133.66 763,-67 752.75,-56.14 740.16,-45.49 729.02,-36.79"/>
<polygon fill="midnightblue" stroke="midnightblue" points="730.91,-33.83 720.84,-30.55 726.66,-39.4 730.91,-33.83"/>
</g>
<!-- Node5 -->
<g id="node5" class="node">
<title>Node5</title>
<g id="a_node5"><a xlink:href="libsbml-config_8h.html" target="_top" xlink:title="Decides whether to #include Unix or Windows configuration variables.">
<polygon fill="white" stroke="black" points="693.5,-190.5 693.5,-220.5 818.5,-220.5 818.5,-190.5 693.5,-190.5"/>
<text text-anchor="start" x="701.5" y="-208.5" font-family="Helvetica,sans-Serif" font-size="10.00">sbml/common/libsbml</text>
<text text-anchor="middle" x="756" y="-197.5" font-family="Helvetica,sans-Serif" font-size="10.00">&#45;config.h</text>
</a>
</g>
</g>
<!-- Node4&#45;&gt;Node5 -->
<g id="edge5" class="edge">
<title>Node4&#45;&gt;Node5</title>
<path fill="none" stroke="midnightblue" d="M885.37,-257.48C863.48,-248.85 829,-235.26 801.14,-224.29"/>
<polygon fill="midnightblue" stroke="midnightblue" points="802.17,-220.93 791.59,-220.52 799.61,-227.45 802.17,-220.93"/>
</g>
<!-- Node5&#45;&gt;Node3 -->
<g id="edge6" class="edge">
<title>Node5&#45;&gt;Node3</title>
<path fill="none" stroke="midnightblue" d="M762.86,-190.45C769.94,-174.04 779.02,-146.19 772,-123 762.1,-90.29 738.46,-58.44 721.17,-38.23"/>
<polygon fill="midnightblue" stroke="midnightblue" points="723.67,-35.76 714.44,-30.56 718.41,-40.38 723.67,-35.76"/>
</g>
<!-- Node6 -->
<g id="node6" class="node">
<title>Node6</title>
<g id="a_node6"><a xlink:title=" ">
<polygon fill="white" stroke="#bfbfbf" points="638.5,-123.5 638.5,-153.5 763.5,-153.5 763.5,-123.5 638.5,-123.5"/>
<text text-anchor="start" x="646.5" y="-141.5" font-family="Helvetica,sans-Serif" font-size="10.00">sbml/common/libsbml</text>
<text text-anchor="middle" x="701" y="-130.5" font-family="Helvetica,sans-Serif" font-size="10.00">&#45;config&#45;common.h</text>
</a>
</g>
</g>
<!-- Node5&#45;&gt;Node6 -->
<g id="edge7" class="edge">
<title>Node5&#45;&gt;Node6</title>
<path fill="none" stroke="midnightblue" d="M744.07,-190.4C736.86,-181.88 727.52,-170.85 719.39,-161.23"/>
<polygon fill="midnightblue" stroke="midnightblue" points="722.04,-158.95 712.91,-153.58 716.7,-163.47 722.04,-158.95"/>
</g>
<!-- Node7 -->
<g id="node7" class="node">
<title>Node7</title>
<g id="a_node7"><a xlink:href="libsbml-version_8h.html" target="_top" xlink:title="Define libSBML version numbers for access from client software.">
<polygon fill="white" stroke="black" points="433.5,-123.5 433.5,-153.5 558.5,-153.5 558.5,-123.5 433.5,-123.5"/>
<text text-anchor="start" x="441.5" y="-141.5" font-family="Helvetica,sans-Serif" font-size="10.00">sbml/common/libsbml</text>
<text text-anchor="middle" x="496" y="-130.5" font-family="Helvetica,sans-Serif" font-size="10.00">&#45;version.h</text>
</a>
</g>
</g>
<!-- Node5&#45;&gt;Node7 -->
<g id="edge8" class="edge">
<title>Node5&#45;&gt;Node7</title>
<path fill="none" stroke="midnightblue" d="M699.9,-190.48C659.46,-180.37 604.74,-166.68 562.16,-156.04"/>
<polygon fill="midnightblue" stroke="midnightblue" points="562.99,-152.64 552.44,-153.61 561.3,-159.43 562.99,-152.64"/>
</g>
<!-- Node7&#45;&gt;Node2 -->
<g id="edge9" class="edge">
<title>Node7&#45;&gt;Node2</title>
<path fill="none" stroke="midnightblue" d="M433.3,-125.39C377.12,-114.53 295.57,-98.78 242.16,-88.46"/>
<polygon fill="midnightblue" stroke="midnightblue" points="242.69,-85 232.2,-86.54 241.36,-91.87 242.69,-85"/>
</g>
<!-- Node8&#45;&gt;Node2 -->
<g id="edge11" class="edge">
<title>Node8&#45;&gt;Node2</title>
<path fill="none" stroke="midnightblue" d="M188,-313.37C188,-271.09 188,-145.49 188,-97.21"/>
<polygon fill="midnightblue" stroke="midnightblue" points="191.5,-96.93 188,-86.93 184.5,-96.93 191.5,-96.93"/>
</g>
<!-- Node9&#45;&gt;Node2 -->
<g id="edge13" class="edge">
<title>Node9&#45;&gt;Node2</title>
<path fill="none" stroke="midnightblue" d="M108.01,-492.49C97.91,-474.44 76,-430.69 76,-391 76,-391 76,-391 76,-204.5 76,-152.48 129.74,-111.83 162.77,-91.76"/>
<polygon fill="midnightblue" stroke="midnightblue" points="164.62,-94.73 171.47,-86.65 161.08,-88.69 164.62,-94.73"/>
</g>
<!-- Node10 -->
<g id="node10" class="node">
<title>Node10</title>
<g id="a_node10"><a xlink:title=" ">
<polygon fill="white" stroke="#bfbfbf" points="104.5,-436.5 104.5,-455.5 157.5,-455.5 157.5,-436.5 104.5,-436.5"/>
<text text-anchor="middle" x="131" y="-443.5" font-family="Helvetica,sans-Serif" font-size="10.00">string.h</text>
</a>
</g>
</g>
<!-- Node9&#45;&gt;Node10 -->
<g id="edge14" class="edge">
<title>Node9&#45;&gt;Node10</title>
<path fill="none" stroke="midnightblue" d="M115.97,-492.08C118.38,-484.85 121.86,-474.41 124.87,-465.4"/>
<polygon fill="midnightblue" stroke="midnightblue" points="128.24,-466.34 128.08,-455.75 121.6,-464.13 128.24,-466.34"/>
</g>
<!-- Node11&#45;&gt;Node4 -->
<g id="edge34" class="edge">
<title>Node11&#45;&gt;Node4</title>
<path fill="none" stroke="midnightblue" d="M606.61,-501.5C708.62,-498.57 911.34,-475.57 992,-344 999.2,-332.25 999.11,-324.8 992,-313 982.71,-297.57 966.17,-287.16 950.13,-280.27"/>
<polygon fill="midnightblue" stroke="midnightblue" points="951.39,-277.01 940.8,-276.61 948.83,-283.52 951.39,-277.01"/>
</g>
<!-- Node12 -->
<g id="node12" class="node">
<title>Node12</title>
<g id="a_node12"><a xlink:href="_x_m_l_extern_8h.html" target="_top" xlink:title="Defines LIBLAX_EXTERN.">
<polygon fill="white" stroke="black" points="546.5,-257.5 546.5,-276.5 673.5,-276.5 673.5,-257.5 546.5,-257.5"/>
<text text-anchor="middle" x="610" y="-264.5" font-family="Helvetica,sans-Serif" font-size="10.00">sbml/xml/XMLExtern.h</text>
</a>
</g>
</g>
<!-- Node11&#45;&gt;Node12 -->
<g id="edge16" class="edge">
<title>Node11&#45;&gt;Node12</title>
<path fill="none" stroke="midnightblue" d="M536.71,-492.39C528.42,-484.02 516.86,-470.48 512,-456 509.17,-447.57 509.73,-444.59 512,-436 528.2,-374.76 573.28,-313.06 596.22,-284.46"/>
<polygon fill="midnightblue" stroke="midnightblue" points="598.95,-286.64 602.57,-276.68 593.53,-282.21 598.95,-286.64"/>
</g>
<!-- Node13 -->
<g id="node13" class="node">
<title>Node13</title>
<g id="a_node13"><a xlink:href="_x_m_l_token_8h.html" target="_top" xlink:title="A unit of XML syntax, either an XML element or text.">
<polygon fill="white" stroke="black" points="589,-436.5 589,-455.5 711,-455.5 711,-436.5 589,-436.5"/>
<text text-anchor="middle" x="650" y="-443.5" font-family="Helvetica,sans-Serif" font-size="10.00">sbml/xml/XMLToken.h</text>
</a>
</g>
</g>
<!-- Node11&#45;&gt;Node13 -->
<g id="edge18" class="edge">
<title>Node11&#45;&gt;Node13</title>
<path fill="none" stroke="midnightblue" d="M562.71,-492.32C579.31,-483.7 605,-470.36 624.22,-460.39"/>
<polygon fill="midnightblue" stroke="midnightblue" points="626.07,-463.37 633.33,-455.65 622.84,-457.16 626.07,-463.37"/>
</g>
<!-- Node16 -->
<g id="node16" class="node">
<title>Node16</title>
<g id="a_node16"><a xlink:title=" ">
<polygon fill="white" stroke="#bfbfbf" points="935.5,-319 935.5,-338 982.5,-338 982.5,-319 935.5,-319"/>
<text text-anchor="middle" x="959" y="-326" font-family="Helvetica,sans-Serif" font-size="10.00">vector</text>
</a>
</g>
</g>
<!-- Node11&#45;&gt;Node16 -->
<g id="edge35" class="edge">
<title>Node11&#45;&gt;Node16</title>
<path fill="none" stroke="midnightblue" d="M601.07,-492.47C640.16,-485.37 693.4,-473.56 738,-456 816.12,-425.25 899.95,-370.51 938.03,-344.29"/>
<polygon fill="midnightblue" stroke="midnightblue" points="940.48,-346.85 946.7,-338.27 936.49,-341.1 940.48,-346.85"/>
</g>
<!-- Node19 -->
<g id="node19" class="node">
<title>Node19</title>
<g id="a_node19"><a xlink:title=" ">
<polygon fill="white" stroke="#bfbfbf" points="521.5,-436.5 521.5,-455.5 570.5,-455.5 570.5,-436.5 521.5,-436.5"/>
<text text-anchor="middle" x="546" y="-443.5" font-family="Helvetica,sans-Serif" font-size="10.00">cstdlib</text>
</a>
</g>
</g>
<!-- Node11&#45;&gt;Node19 -->
<g id="edge36" class="edge">
<title>Node11&#45;&gt;Node19</title>
<path fill="none" stroke="midnightblue" d="M546,-492.08C546,-485.01 546,-474.86 546,-465.99"/>
<polygon fill="midnightblue" stroke="midnightblue" points="549.5,-465.75 546,-455.75 542.5,-465.75 549.5,-465.75"/>
</g>
<!-- Node12&#45;&gt;Node3 -->
<g id="edge17" class="edge">
<title>Node12&#45;&gt;Node3</title>
<path fill="none" stroke="midnightblue" d="M609.79,-257.28C609.54,-234.43 610.67,-171.22 629,-123 641.2,-90.91 664.73,-58.94 681.57,-38.52"/>
<polygon fill="midnightblue" stroke="midnightblue" points="684.34,-40.68 688.11,-30.77 678.98,-36.16 684.34,-40.68"/>
</g>
<!-- Node13&#45;&gt;Node4 -->
<g id="edge32" class="edge">
<title>Node13&#45;&gt;Node4</title>
<path fill="none" stroke="midnightblue" d="M700.21,-436.41C752.56,-424.75 833.12,-398.73 878,-344 891.68,-327.32 899.36,-303.49 903.33,-286.98"/>
<polygon fill="midnightblue" stroke="midnightblue" points="906.82,-287.41 905.51,-276.89 899.97,-285.93 906.82,-287.41"/>
</g>
<!-- Node13&#45;&gt;Node12 -->
<g id="edge19" class="edge">
<title>Node13&#45;&gt;Node12</title>
<path fill="none" stroke="midnightblue" d="M642.33,-436.35C628.24,-419.82 598.74,-382.02 588,-344 584.26,-330.74 584.89,-326.42 588,-313 590.23,-303.36 594.82,-293.41 599.24,-285.31"/>
<polygon fill="midnightblue" stroke="midnightblue" points="602.35,-286.92 604.36,-276.52 596.3,-283.4 602.35,-286.92"/>
</g>
<!-- Node13&#45;&gt;Node13 -->
<g id="edge31" class="edge">
<title>Node13&#45;&gt;Node13</title>
<path fill="none" stroke="midnightblue" d="M683.69,-455.53C706.59,-458.31 729,-455.13 729,-446 729,-438.22 712.75,-434.77 693.79,-435.63"/>
<polygon fill="midnightblue" stroke="midnightblue" points="693.37,-432.15 683.69,-436.47 693.95,-439.13 693.37,-432.15"/>
</g>
<!-- Node14 -->
<g id="node14" class="node">
<title>Node14</title>
<g id="a_node14"><a xlink:href="_x_m_l_attributes_8h.html" target="_top" xlink:title="XMLAttributes are a list of name/value pairs for XML elements.">
<polygon fill="white" stroke="black" points="636,-380.5 636,-399.5 780,-399.5 780,-380.5 636,-380.5"/>
<text text-anchor="middle" x="708" y="-387.5" font-family="Helvetica,sans-Serif" font-size="10.00">sbml/xml/XMLAttributes.h</text>
</a>
</g>
</g>
<!-- Node13&#45;&gt;Node14 -->
<g id="edge20" class="edge">
<title>Node13&#45;&gt;Node14</title>
<path fill="none" stroke="midnightblue" d="M659.32,-436.32C667.89,-428.34 680.81,-416.31 691.19,-406.65"/>
<polygon fill="midnightblue" stroke="midnightblue" points="693.58,-409.21 698.51,-399.83 688.81,-404.09 693.58,-409.21"/>
</g>
<!-- Node13&#45;&gt;Node15 -->
<g id="edge33" class="edge">
<title>Node13&#45;&gt;Node15</title>
<path fill="none" stroke="midnightblue" d="M638.41,-436.33C615.58,-419.16 563.31,-379.42 521,-344 496.74,-323.69 469.63,-299.11 452.7,-283.52"/>
<polygon fill="midnightblue" stroke="midnightblue" points="454.98,-280.86 445.26,-276.64 450.22,-286 454.98,-280.86"/>
</g>
<!-- Node14&#45;&gt;Node4 -->
<g id="edge22" class="edge">
<title>Node14&#45;&gt;Node4</title>
<path fill="none" stroke="midnightblue" d="M760.44,-380.48C788.89,-373.96 823.53,-362.78 850,-344 871.48,-328.76 888.34,-302.97 897.98,-285.71"/>
<polygon fill="midnightblue" stroke="midnightblue" points="901.18,-287.15 902.81,-276.69 895.01,-283.85 901.18,-287.15"/>
</g>
<!-- Node14&#45;&gt;Node8 -->
<g id="edge23" class="edge">
<title>Node14&#45;&gt;Node8</title>
<path fill="none" stroke="midnightblue" d="M635.97,-380.76C543.81,-370.21 383.98,-351.92 282.23,-340.28"/>
<polygon fill="midnightblue" stroke="midnightblue" points="282.6,-336.8 272.27,-339.14 281.8,-343.76 282.6,-336.8"/>
</g>
<!-- Node14&#45;&gt;Node12 -->
<g id="edge21" class="edge">
<title>Node14&#45;&gt;Node12</title>
<path fill="none" stroke="midnightblue" d="M714.37,-380.22C724.44,-365.18 741.48,-334.08 727,-313 715.83,-296.73 697.89,-286.34 679.37,-279.71"/>
<polygon fill="midnightblue" stroke="midnightblue" points="680.27,-276.32 669.68,-276.57 678.11,-282.98 680.27,-276.32"/>
</g>
<!-- Node14&#45;&gt;Node15 -->
<g id="edge24" class="edge">
<title>Node14&#45;&gt;Node15</title>
<path fill="none" stroke="midnightblue" d="M682.87,-380.44C658.38,-371.9 620.22,-358.05 588,-344 542.12,-323.99 490.3,-297.13 460.56,-281.28"/>
<polygon fill="midnightblue" stroke="midnightblue" points="462.18,-278.18 451.71,-276.55 458.88,-284.35 462.18,-278.18"/>
</g>
<!-- Node14&#45;&gt;Node16 -->
<g id="edge25" class="edge">
<title>Node14&#45;&gt;Node16</title>
<path fill="none" stroke="midnightblue" d="M743.96,-380.48C792.46,-368.98 878.17,-348.66 925.41,-337.46"/>
<polygon fill="midnightblue" stroke="midnightblue" points="926.24,-340.86 935.16,-335.15 924.62,-334.05 926.24,-340.86"/>
</g>
<!-- Node17 -->
<g id="node17" class="node">
<title>Node17</title>
<g id="a_node17"><a xlink:title=" ">
<polygon fill="white" stroke="#bfbfbf" points="775.5,-319 775.5,-338 840.5,-338 840.5,-319 775.5,-319"/>
<text text-anchor="middle" x="808" y="-326" font-family="Helvetica,sans-Serif" font-size="10.00">stdexcept</text>
</a>
</g>
</g>
<!-- Node14&#45;&gt;Node17 -->
<g id="edge26" class="edge">
<title>Node14&#45;&gt;Node17</title>
<path fill="none" stroke="midnightblue" d="M722.33,-380.48C738.66,-370.75 765.6,-354.73 784.91,-343.24"/>
<polygon fill="midnightblue" stroke="midnightblue" points="786.89,-346.13 793.7,-338.01 783.32,-340.11 786.89,-346.13"/>
</g>
<!-- Node18 -->
<g id="node18" class="node">
<title>Node18</title>
<g id="a_node18"><a xlink:href="_x_m_l_triple_8h.html" target="_top" xlink:title="Stores an XML namespace triple.">
<polygon fill="white" stroke="black" points="597.5,-319 597.5,-338 718.5,-338 718.5,-319 597.5,-319"/>
<text text-anchor="middle" x="658" y="-326" font-family="Helvetica,sans-Serif" font-size="10.00">sbml/xml/XMLTriple.h</text>
</a>
</g>
</g>
<!-- Node14&#45;&gt;Node18 -->
<g id="edge27" class="edge">
<title>Node14&#45;&gt;Node18</title>
<path fill="none" stroke="midnightblue" d="M700.84,-380.48C693.26,-371.46 681.13,-357.02 671.71,-345.81"/>
<polygon fill="midnightblue" stroke="midnightblue" points="674.26,-343.41 665.15,-338.01 668.9,-347.92 674.26,-343.41"/>
</g>
<!-- Node18&#45;&gt;Node4 -->
<g id="edge29" class="edge">
<title>Node18&#45;&gt;Node4</title>
<path fill="none" stroke="midnightblue" d="M693.68,-318.98C737.87,-308.42 813.21,-290.41 861.51,-278.87"/>
<polygon fill="midnightblue" stroke="midnightblue" points="862.48,-282.24 871.39,-276.51 860.85,-275.43 862.48,-282.24"/>
</g>
<!-- Node18&#45;&gt;Node12 -->
<g id="edge28" class="edge">
<title>Node18&#45;&gt;Node12</title>
<path fill="none" stroke="midnightblue" d="M651.12,-318.98C643.85,-309.96 632.2,-295.52 623.16,-284.31"/>
<polygon fill="midnightblue" stroke="midnightblue" points="625.87,-282.09 616.86,-276.51 620.42,-286.49 625.87,-282.09"/>
</g>
<!-- Node18&#45;&gt;Node15 -->
<g id="edge30" class="edge">
<title>Node18&#45;&gt;Node15</title>
<path fill="none" stroke="midnightblue" d="M626.19,-318.98C583.99,-307.66 509.93,-287.81 467.76,-276.51"/>
<polygon fill="midnightblue" stroke="midnightblue" points="468.58,-273.11 458.01,-273.9 466.76,-279.87 468.58,-273.11"/>
</g>
<!-- Node20&#45;&gt;Node2 -->
<g id="edge38" class="edge">
<title>Node20&#45;&gt;Node2</title>
<path fill="none" stroke="midnightblue" d="M157.45,-553.51C124.13,-548.47 85.25,-537.1 59,-512 37.06,-491.02 38,-477.36 38,-447 38,-447 38,-447 38,-204.5 38,-145.12 107.55,-107.95 151.93,-90.28"/>
<polygon fill="midnightblue" stroke="midnightblue" points="153.44,-93.45 161.53,-86.6 150.94,-86.91 153.44,-93.45"/>
</g>
<!-- Node20&#45;&gt;Node4 -->
<g id="edge39" class="edge">
<title>Node20&#45;&gt;Node4</title>
<path fill="none" stroke="midnightblue" d="M288.51,-551.71C483.87,-535.5 1049,-485.29 1049,-447 1049,-447 1049,-447 1049,-389 1049,-350.62 1036.14,-339.09 1008,-313 991.5,-297.7 968.94,-286.98 949.33,-279.85"/>
<polygon fill="midnightblue" stroke="midnightblue" points="950.28,-276.48 939.68,-276.54 948,-283.1 950.28,-276.48"/>
</g>
<!-- Node20&#45;&gt;Node8 -->
<g id="edge40" class="edge">
<title>Node20&#45;&gt;Node8</title>
<path fill="none" stroke="midnightblue" d="M222.21,-548.48C219.77,-522.85 211.79,-444.31 200,-380 198.4,-371.27 196.26,-361.79 194.22,-353.43"/>
<polygon fill="midnightblue" stroke="midnightblue" points="197.58,-352.42 191.76,-343.57 190.79,-354.12 197.58,-352.42"/>
</g>
<!-- Node20&#45;&gt;Node9 -->
<g id="edge41" class="edge">
<title>Node20&#45;&gt;Node9</title>
<path fill="none" stroke="midnightblue" d="M205.33,-548.32C187.61,-539.62 160.1,-526.12 139.71,-516.11"/>
<polygon fill="midnightblue" stroke="midnightblue" points="141.15,-512.92 130.63,-511.65 138.06,-519.2 141.15,-512.92"/>
</g>
<!-- Node20&#45;&gt;Node11 -->
<g id="edge42" class="edge">
<title>Node20&#45;&gt;Node11</title>
<path fill="none" stroke="midnightblue" d="M274.18,-548.44C331.47,-538.87 424.24,-523.36 485.19,-513.17"/>
<polygon fill="midnightblue" stroke="midnightblue" points="485.77,-516.62 495.06,-511.52 484.62,-509.71 485.77,-516.62"/>
</g>
<!-- Node20&#45;&gt;Node15 -->
<g id="edge43" class="edge">
<title>Node20&#45;&gt;Node15</title>
<path fill="none" stroke="midnightblue" d="M224.7,-548.2C230.26,-521.12 249.78,-437.41 289,-380 320.13,-334.43 375.8,-299.53 408.97,-281.54"/>
<polygon fill="midnightblue" stroke="midnightblue" points="410.89,-284.48 418.09,-276.71 407.62,-278.29 410.89,-284.48"/>
</g>
<!-- Node21&#45;&gt;Node2 -->
<g id="edge45" class="edge">
<title>Node21&#45;&gt;Node2</title>
<path fill="none" stroke="midnightblue" d="M427.05,-548.33C407.94,-514.01 340,-383.84 340,-268 340,-268 340,-268 340,-204.5 340,-144.69 269.6,-107.7 224.63,-90.17"/>
<polygon fill="midnightblue" stroke="midnightblue" points="225.77,-86.86 215.17,-86.62 223.31,-93.41 225.77,-86.86"/>
</g>
<!-- Node21&#45;&gt;Node4 -->
<g id="edge46" class="edge">
<title>Node21&#45;&gt;Node4</title>
<path fill="none" stroke="midnightblue" d="M518.56,-555.97C681.31,-553.3 1020.49,-543.93 1063,-512 1087.62,-493.51 1087,-477.8 1087,-447 1087,-447 1087,-447 1087,-389 1087,-353.58 1088.36,-337.73 1063,-313 1042.69,-293.19 1014.24,-282.01 987.19,-275.72"/>
<polygon fill="midnightblue" stroke="midnightblue" points="987.81,-272.27 977.3,-273.62 986.36,-279.12 987.81,-272.27"/>
</g>
<!-- Node21&#45;&gt;Node8 -->
<g id="edge47" class="edge">
<title>Node21&#45;&gt;Node8</title>
<path fill="none" stroke="midnightblue" d="M417.26,-548.34C403.26,-539.84 381.88,-526.11 365,-512 302.29,-459.6 237.7,-387.53 206.75,-351.65"/>
<polygon fill="midnightblue" stroke="midnightblue" points="209.15,-349.07 199.98,-343.75 203.83,-353.62 209.15,-349.07"/>
</g>
<!-- Node21&#45;&gt;Node9 -->
<g id="edge48" class="edge">
<title>Node21&#45;&gt;Node9</title>
<path fill="none" stroke="midnightblue" d="M381.45,-548.44C323.16,-538.58 227.68,-522.41 167.69,-512.26"/>
<polygon fill="midnightblue" stroke="midnightblue" points="168.09,-508.78 157.65,-510.56 166.92,-515.68 168.09,-508.78"/>
</g>
<!-- Node21&#45;&gt;Node11 -->
<g id="edge49" class="edge">
<title>Node21&#45;&gt;Node11</title>
<path fill="none" stroke="midnightblue" d="M450.06,-548.44C468.57,-539.68 497.58,-525.94 518.86,-515.86"/>
<polygon fill="midnightblue" stroke="midnightblue" points="520.48,-518.96 528.02,-511.52 517.49,-512.63 520.48,-518.96"/>
</g>
<!-- Node21&#45;&gt;Node15 -->
<g id="edge50" class="edge">
<title>Node21&#45;&gt;Node15</title>
<path fill="none" stroke="midnightblue" d="M430.04,-548.5C425.97,-530.09 417,-485.16 417,-447 417,-447 417,-447 417,-389 417,-352.29 425.64,-310.06 431.27,-286.45"/>
<polygon fill="midnightblue" stroke="midnightblue" points="434.67,-287.28 433.67,-276.73 427.87,-285.6 434.67,-287.28"/>
</g>
</g>
</svg>
        <g id="navigator" transform="translate(0 0)" fill="#404254">
                <rect fill="#f2f5e9" fill-opacity="0.5" stroke="#606060" stroke-width=".5" x="0" y="0" width="60" height="60"/>
                <use id="zoomplus" xlink:href="#zoomPlus" x="17" y="9" onmousedown="handleZoom(evt,'in')"/>
                <use id="zoomminus" xlink:href="#zoomMin" x="42" y="9" onmousedown="handleZoom(evt,'out')"/>
                <use id="reset" xlink:href="#resetDef" x="30" y="36" onmousedown="handleReset()"/>
                <g id="arrowUp" xlink:href="#dirArrow" transform="translate(30 24)" onmousedown="handlePan(0,-1)">
                  <use xlink:href="#rim" fill="#404040">
                        <set attributeName="fill" to="#808080" begin="arrowUp.mouseover" end="arrowUp.mouseout"/>
                  </use>
                  <path fill="none" stroke="white" stroke-width="1.5" d="M0,-3.0v7 M-2.5,-0.5L0,-3.0L2.5,-0.5"/>
                </g>
                <g id="arrowRight" xlink:href="#dirArrow" transform="rotate(90) translate(36 -43)" onmousedown="handlePan(1,0)">
                  <use xlink:href="#rim" fill="#404040">
                        <set attributeName="fill" to="#808080" begin="arrowRight.mouseover" end="arrowRight.mouseout"/>
                  </use>
                  <path fill="none" stroke="white" stroke-width="1.5" d="M0,-3.0v7 M-2.5,-0.5L0,-3.0L2.5,-0.5"/>
                </g>
                <g id="arrowDown" xlink:href="#dirArrow" transform="rotate(180) translate(-30 -48)" onmousedown="handlePan(0,1)">
                  <use xlink:href="#rim" fill="#404040">
                        <set attributeName="fill" to="#808080" begin="arrowDown.mouseover" end="arrowDown.mouseout"/>
                  </use>
                  <path fill="none" stroke="white" stroke-width="1.5" d="M0,-3.0v7 M-2.5,-0.5L0,-3.0L2.5,-0.5"/>
                </g>
                <g id="arrowLeft" xlink:href="#dirArrow" transform="rotate(270) translate(-36 17)" onmousedown="handlePan(-1,0)">
                  <use xlink:href="#rim" fill="#404040">
                        <set attributeName="fill" to="#808080" begin="arrowLeft.mouseover" end="arrowLeft.mouseout"/>
                  </use>
                  <path fill="none" stroke="white" stroke-width="1.5" d="M0,-3.0v7 M-2.5,-0.5L0,-3.0L2.5,-0.5"/>
                </g>
        </g>
        <svg viewBox="0 0 15 15" width="100%" height="30px" preserveAspectRatio="xMaxYMin meet">
         <g id="arrow_out" transform="scale(0.3 0.3)">
          <a xlink:href="_model_history_8h__incl_org.svg" target="_base">
           <rect id="button" ry="5" rx="5" y="6" x="6" height="38" width="38"
                fill="#f2f5e9" fill-opacity="0.5" stroke="#606060" stroke-width="1.0"/>
           <path id="arrow"
             d="M 11.500037,31.436501 C 11.940474,20.09759 22.043105,11.32322 32.158766,21.979434 L 37.068811,17.246167 C 37.068811,17.246167 37.088388,32 37.088388,32 L 22.160133,31.978069 C 22.160133,31.978069 26.997745,27.140456 26.997745,27.140456 C 18.528582,18.264221 13.291696,25.230495 11.500037,31.436501 z"
             style="fill:#404040;"/>
          </a>
         </g>
        </svg>
</svg>
