<?xml version="1.0" encoding="UTF-8" standalone="no"?>
<!DOCTYPE svg PUBLIC "-//W3C//DTD SVG 1.1//EN"
 "http://www.w3.org/Graphics/SVG/1.1/DTD/svg11.dtd">
<!-- Generated by graphviz version 2.43.0 (0)
 -->
<!-- Title: MultiSBMLError.h Pages: 1 -->
<!--zoomable 151 -->
<svg id="main" version="1.1" xmlns="http://www.w3.org/2000/svg" xmlns:xlink="http://www.w3.org/1999/xlink" xml:space="preserve" onload="init(evt)">
<style type="text/css"><![CDATA[
.edge:hover path { stroke: red; }
.edge:hover polygon { stroke: red; fill: red; }
]]></style>
<script type="text/javascript"><![CDATA[
var edges = document.getElementsByTagName('g');
if (edges && edges.length) {
  for (var i=0;i<edges.length;i++) {
    if (edges[i].id.substr(0,4)=='edge') {
      edges[i].setAttribute('class','edge');
    }
  }
}
]]></script>
        <defs>
                <circle id="rim" cx="0" cy="0" r="7"/>
                <circle id="rim2" cx="0" cy="0" r="3.5"/>
                <g id="zoomPlus">
                        <use xlink:href="#rim" fill="#404040">
                                <set attributeName="fill" to="#808080" begin="zoomplus.mouseover" end="zoomplus.mouseout"/>
                        </use>
                        <path d="M-4,0h8M0,-4v8" fill="none" stroke="white" stroke-width="1.5" pointer-events="none"/>
                </g>
                <g id="zoomMin">
                        <use xlink:href="#rim" fill="#404040">
                                <set attributeName="fill" to="#808080" begin="zoomminus.mouseover" end="zoomminus.mouseout"/>
                        </use>
                        <path d="M-4,0h8" fill="none" stroke="white" stroke-width="1.5" pointer-events="none"/>
                </g>
                <g id="dirArrow">
                        <path fill="none" stroke="white" stroke-width="1.5" d="M0,-3.0v7 M-2.5,-0.5L0,-3.0L2.5,-0.5"/>
                </g>
               <g id="resetDef">
                       <use xlink:href="#rim2" fill="#404040">
                               <set attributeName="fill" to="#808080" begin="reset.mouseover" end="reset.mouseout"/>
                       </use>
               </g>
        </defs>

<script type="text/javascript">
var viewWidth = 3448;
var viewHeight = 151;
var sectionId = 'dynsection-0';
</script>
<script xlink:href="svgpan.js"/>
<svg id="graph" class="graph">
<g id="viewport">
<title>MultiSBMLError.h</title>
<polygon fill="white" stroke="transparent" points="-4,4 -4,-147 3443.5,-147 3443.5,4 -4,4"/>
<!-- Node1 -->
<g id="node1" class="node">
<title>Node1</title>
<g id="a_node1"><a xlink:title=": Implementation of the MultiSBMLError class">
<polygon fill="#bfbfbf" stroke="black" points="1679.5,-123.5 1679.5,-142.5 1779.5,-142.5 1779.5,-123.5 1679.5,-123.5"/>
<text text-anchor="middle" x="1729.5" y="-130.5" font-family="Helvetica,sans-Serif" font-size="10.00">MultiSBMLError.h</text>
</a>
</g>
</g>
<!-- Node2 -->
<g id="node2" class="node">
<title>Node2</title>
<g id="a_node2"><a xlink:href="_multi_compartment_plugin_8cpp.html" target="_top" xlink:title=": Implementation of the MultiCompartmentPlugin class">
<polygon fill="white" stroke="black" points="0,-62 0,-81 159,-81 159,-62 0,-62"/>
<text text-anchor="middle" x="79.5" y="-69" font-family="Helvetica,sans-Serif" font-size="10.00">MultiCompartmentPlugin.cpp</text>
</a>
</g>
</g>
<!-- Node1&#45;&gt;Node2 -->
<g id="edge1" class="edge">
<title>Node1&#45;&gt;Node2</title>
<path fill="none" stroke="midnightblue" d="M1668.98,-131.35C1419.11,-128.48 466.83,-115.84 167.5,-87 153.32,-85.63 137.97,-83.38 124.12,-81.05"/>
<polygon fill="midnightblue" stroke="midnightblue" points="1669.27,-134.85 1679.31,-131.46 1669.35,-127.85 1669.27,-134.85"/>
</g>
<!-- Node3 -->
<g id="node3" class="node">
<title>Node3</title>
<g id="a_node3"><a xlink:href="_multi_list_of_reactions_plugin_8cpp.html" target="_top" xlink:title=": Implementation of the MultiListOfReactionsPlugin class">
<polygon fill="white" stroke="black" points="176.5,-62 176.5,-81 344.5,-81 344.5,-62 176.5,-62"/>
<text text-anchor="middle" x="260.5" y="-69" font-family="Helvetica,sans-Serif" font-size="10.00">MultiListOfReactionsPlugin.cpp</text>
</a>
</g>
</g>
<!-- Node1&#45;&gt;Node3 -->
<g id="edge2" class="edge">
<title>Node1&#45;&gt;Node3</title>
<path fill="none" stroke="midnightblue" d="M1669.1,-131.01C1438.66,-127.06 614.53,-111.52 353.5,-87 338.69,-85.61 322.66,-83.37 308.15,-81.07"/>
<polygon fill="midnightblue" stroke="midnightblue" points="1669.25,-134.51 1679.31,-131.18 1669.37,-127.51 1669.25,-134.51"/>
</g>
<!-- Node4 -->
<g id="node4" class="node">
<title>Node4</title>
<g id="a_node4"><a xlink:href="_multi_model_plugin_8cpp.html" target="_top" xlink:title=": Implementation of the MultiModelPlugin class">
<polygon fill="white" stroke="black" points="362.5,-62 362.5,-81 484.5,-81 484.5,-62 362.5,-62"/>
<text text-anchor="middle" x="423.5" y="-69" font-family="Helvetica,sans-Serif" font-size="10.00">MultiModelPlugin.cpp</text>
</a>
</g>
</g>
<!-- Node1&#45;&gt;Node4 -->
<g id="edge3" class="edge">
<title>Node1&#45;&gt;Node4</title>
<path fill="none" stroke="midnightblue" d="M1669.28,-131.12C1454.42,-127.79 725.98,-114.66 494.5,-87 483.01,-85.63 470.61,-83.37 459.43,-81.04"/>
<polygon fill="midnightblue" stroke="midnightblue" points="1669.37,-134.62 1679.42,-131.28 1669.47,-127.63 1669.37,-134.62"/>
</g>
<!-- Node5 -->
<g id="node5" class="node">
<title>Node5</title>
<g id="a_node5"><a xlink:href="_multi_s_b_m_l_document_plugin_8cpp.html" target="_top" xlink:title=": Implementation of the MultiSBMLDocumentPlugin class">
<polygon fill="white" stroke="black" points="503,-62 503,-81 672,-81 672,-62 503,-62"/>
<text text-anchor="middle" x="587.5" y="-69" font-family="Helvetica,sans-Serif" font-size="10.00">MultiSBMLDocumentPlugin.cpp</text>
</a>
</g>
</g>
<!-- Node1&#45;&gt;Node5 -->
<g id="edge4" class="edge">
<title>Node1&#45;&gt;Node5</title>
<path fill="none" stroke="midnightblue" d="M1669.29,-131.73C1508.52,-130.51 1055.92,-123.8 681.5,-87 666.71,-85.55 650.7,-83.32 636.16,-81.05"/>
<polygon fill="midnightblue" stroke="midnightblue" points="1669.43,-135.23 1679.45,-131.8 1669.48,-128.23 1669.43,-135.23"/>
</g>
<!-- Node6 -->
<g id="node6" class="node">
<title>Node6</title>
<g id="a_node6"><a xlink:href="_multi_simple_species_reference_plugin_8cpp.html" target="_top" xlink:title=": Implementation of the MultiSimpleSpeciesReferencePlugin class">
<polygon fill="white" stroke="black" points="690.5,-56.5 690.5,-86.5 852.5,-86.5 852.5,-56.5 690.5,-56.5"/>
<text text-anchor="start" x="698.5" y="-74.5" font-family="Helvetica,sans-Serif" font-size="10.00">MultiSimpleSpeciesReference</text>
<text text-anchor="middle" x="771.5" y="-63.5" font-family="Helvetica,sans-Serif" font-size="10.00">Plugin.cpp</text>
</a>
</g>
</g>
<!-- Node1&#45;&gt;Node6 -->
<g id="edge5" class="edge">
<title>Node1&#45;&gt;Node6</title>
<path fill="none" stroke="midnightblue" d="M1668.81,-131.06C1527.21,-128.4 1164.11,-118.77 862.5,-87 859.32,-86.66 856.08,-86.29 852.81,-85.89"/>
<polygon fill="midnightblue" stroke="midnightblue" points="1668.96,-134.57 1679.02,-131.25 1669.09,-127.57 1668.96,-134.57"/>
</g>
<!-- Node7 -->
<g id="node7" class="node">
<title>Node7</title>
<g id="a_node7"><a xlink:href="_multi_species_plugin_8cpp.html" target="_top" xlink:title=": Implementation of the MultiSpeciesPlugin class">
<polygon fill="white" stroke="black" points="871,-62 871,-81 1000,-81 1000,-62 871,-62"/>
<text text-anchor="middle" x="935.5" y="-69" font-family="Helvetica,sans-Serif" font-size="10.00">MultiSpeciesPlugin.cpp</text>
</a>
</g>
</g>
<!-- Node1&#45;&gt;Node7 -->
<g id="edge6" class="edge">
<title>Node1&#45;&gt;Node7</title>
<path fill="none" stroke="midnightblue" d="M1669.03,-130.89C1544.92,-128.04 1252.66,-118.28 1009.5,-87 997.94,-85.51 985.48,-83.31 974.13,-81.06"/>
<polygon fill="midnightblue" stroke="midnightblue" points="1669.02,-134.39 1679.09,-131.12 1669.17,-127.4 1669.02,-134.39"/>
</g>
<!-- Node8 -->
<g id="node8" class="node">
<title>Node8</title>
<g id="a_node8"><a xlink:href="_binding_site_species_type_8cpp.html" target="_top" xlink:title=": Implementation of the BindingSiteSpeciesType class">
<polygon fill="white" stroke="black" points="1018.5,-62 1018.5,-81 1170.5,-81 1170.5,-62 1018.5,-62"/>
<text text-anchor="middle" x="1094.5" y="-69" font-family="Helvetica,sans-Serif" font-size="10.00">BindingSiteSpeciesType.cpp</text>
</a>
</g>
</g>
<!-- Node1&#45;&gt;Node8 -->
<g id="edge7" class="edge">
<title>Node1&#45;&gt;Node8</title>
<path fill="none" stroke="midnightblue" d="M1669.25,-128.8C1567.87,-123.02 1356.86,-109.34 1179.5,-87 1166.73,-85.39 1152.94,-83.23 1140.27,-81.06"/>
<polygon fill="midnightblue" stroke="midnightblue" points="1669.12,-132.29 1679.3,-129.36 1669.51,-125.31 1669.12,-132.29"/>
</g>
<!-- Node9 -->
<g id="node9" class="node">
<title>Node9</title>
<g id="a_node9"><a xlink:href="_compartment_reference_8cpp.html" target="_top" xlink:title=": Implementation of the CompartmentReference class">
<polygon fill="white" stroke="black" points="1188.5,-62 1188.5,-81 1342.5,-81 1342.5,-62 1188.5,-62"/>
<text text-anchor="middle" x="1265.5" y="-69" font-family="Helvetica,sans-Serif" font-size="10.00">CompartmentReference.cpp</text>
</a>
</g>
</g>
<!-- Node1&#45;&gt;Node9 -->
<g id="edge8" class="edge">
<title>Node1&#45;&gt;Node9</title>
<path fill="none" stroke="midnightblue" d="M1669.26,-125.68C1594.75,-117.66 1464.06,-102.95 1352.5,-87 1340.07,-85.22 1326.68,-83.1 1314.21,-81.03"/>
<polygon fill="midnightblue" stroke="midnightblue" points="1669.08,-129.18 1679.4,-126.77 1669.83,-122.22 1669.08,-129.18"/>
</g>
<!-- Node10 -->
<g id="node10" class="node">
<title>Node10</title>
<g id="a_node10"><a xlink:href="_in_species_type_bond_8cpp.html" target="_top" xlink:title=": Implementation of the InSpeciesTypeBond class">
<polygon fill="white" stroke="black" points="1361,-62 1361,-81 1492,-81 1492,-62 1361,-62"/>
<text text-anchor="middle" x="1426.5" y="-69" font-family="Helvetica,sans-Serif" font-size="10.00">InSpeciesTypeBond.cpp</text>
</a>
</g>
</g>
<!-- Node1&#45;&gt;Node10 -->
<g id="edge9" class="edge">
<title>Node1&#45;&gt;Node10</title>
<path fill="none" stroke="midnightblue" d="M1676.26,-121.55C1617.56,-110.02 1524.24,-91.69 1469.83,-81.01"/>
<polygon fill="midnightblue" stroke="midnightblue" points="1675.6,-124.98 1686.09,-123.48 1676.95,-118.11 1675.6,-124.98"/>
</g>
<!-- Node11 -->
<g id="node11" class="node">
<title>Node11</title>
<g id="a_node11"><a xlink:href="_intra_species_reaction_8cpp.html" target="_top" xlink:title=": Implementation of the IntraSpeciesReaction class">
<polygon fill="white" stroke="black" points="1510.5,-62 1510.5,-81 1650.5,-81 1650.5,-62 1510.5,-62"/>
<text text-anchor="middle" x="1580.5" y="-69" font-family="Helvetica,sans-Serif" font-size="10.00">IntraSpeciesReaction.cpp</text>
</a>
</g>
</g>
<!-- Node1&#45;&gt;Node11 -->
<g id="edge10" class="edge">
<title>Node1&#45;&gt;Node11</title>
<path fill="none" stroke="midnightblue" d="M1698.53,-119.63C1669.58,-108.07 1627.13,-91.12 1601.81,-81.01"/>
<polygon fill="midnightblue" stroke="midnightblue" points="1697.57,-123.02 1708.15,-123.48 1700.16,-116.52 1697.57,-123.02"/>
</g>
<!-- Node12 -->
<g id="node12" class="node">
<title>Node12</title>
<g id="a_node12"><a xlink:href="_multi_species_type_8cpp.html" target="_top" xlink:title=": Implementation of the MultiSpeciesType class">
<polygon fill="white" stroke="black" points="1668.5,-62 1668.5,-81 1790.5,-81 1790.5,-62 1668.5,-62"/>
<text text-anchor="middle" x="1729.5" y="-69" font-family="Helvetica,sans-Serif" font-size="10.00">MultiSpeciesType.cpp</text>
</a>
</g>
</g>
<!-- Node1&#45;&gt;Node12 -->
<g id="edge11" class="edge">
<title>Node1&#45;&gt;Node12</title>
<path fill="none" stroke="midnightblue" d="M1729.5,-113.32C1729.5,-102.5 1729.5,-89.4 1729.5,-81.01"/>
<polygon fill="midnightblue" stroke="midnightblue" points="1726,-113.48 1729.5,-123.48 1733,-113.48 1726,-113.48"/>
</g>
<!-- Node13 -->
<g id="node13" class="node">
<title>Node13</title>
<g id="a_node13"><a xlink:href="_outward_binding_site_8cpp.html" target="_top" xlink:title=": Implementation of the OutwardBindingSite class">
<polygon fill="white" stroke="black" points="1808.5,-62 1808.5,-81 1942.5,-81 1942.5,-62 1808.5,-62"/>
<text text-anchor="middle" x="1875.5" y="-69" font-family="Helvetica,sans-Serif" font-size="10.00">OutwardBindingSite.cpp</text>
</a>
</g>
</g>
<!-- Node1&#45;&gt;Node13 -->
<g id="edge12" class="edge">
<title>Node1&#45;&gt;Node13</title>
<path fill="none" stroke="midnightblue" d="M1759.85,-119.63C1788.21,-108.07 1829.81,-91.12 1854.62,-81.01"/>
<polygon fill="midnightblue" stroke="midnightblue" points="1758.36,-116.46 1750.42,-123.48 1761,-122.94 1758.36,-116.46"/>
</g>
<!-- Node14 -->
<g id="node14" class="node">
<title>Node14</title>
<g id="a_node14"><a xlink:href="_possible_species_feature_value_8cpp.html" target="_top" xlink:title=": Implementation of the PossibleSpeciesFeatureValue class">
<polygon fill="white" stroke="black" points="1961,-62 1961,-81 2140,-81 2140,-62 1961,-62"/>
<text text-anchor="middle" x="2050.5" y="-69" font-family="Helvetica,sans-Serif" font-size="10.00">PossibleSpeciesFeatureValue.cpp</text>
</a>
</g>
</g>
<!-- Node1&#45;&gt;Node14 -->
<g id="edge13" class="edge">
<title>Node1&#45;&gt;Node14</title>
<path fill="none" stroke="midnightblue" d="M1785.52,-121.62C1847.68,-110.09 1946.83,-91.72 2004.59,-81.01"/>
<polygon fill="midnightblue" stroke="midnightblue" points="1784.69,-118.21 1775.49,-123.48 1785.96,-125.09 1784.69,-118.21"/>
</g>
<!-- Node15 -->
<g id="node15" class="node">
<title>Node15</title>
<g id="a_node15"><a xlink:href="_species_feature_8cpp.html" target="_top" xlink:title=": Implementation of the SpeciesFeature class">
<polygon fill="white" stroke="black" points="2158,-62 2158,-81 2269,-81 2269,-62 2158,-62"/>
<text text-anchor="middle" x="2213.5" y="-69" font-family="Helvetica,sans-Serif" font-size="10.00">SpeciesFeature.cpp</text>
</a>
</g>
</g>
<!-- Node1&#45;&gt;Node15 -->
<g id="edge14" class="edge">
<title>Node1&#45;&gt;Node15</title>
<path fill="none" stroke="midnightblue" d="M1789.65,-127.76C1871.45,-121.5 2022.2,-108.17 2149.5,-87 2159.17,-85.39 2169.56,-83.23 2179.1,-81.06"/>
<polygon fill="midnightblue" stroke="midnightblue" points="1789.24,-124.28 1779.54,-128.53 1789.77,-131.26 1789.24,-124.28"/>
</g>
<!-- Node16 -->
<g id="node16" class="node">
<title>Node16</title>
<g id="a_node16"><a xlink:href="_species_feature_type_8cpp.html" target="_top" xlink:title=": Implementation of the SpeciesFeatureType class">
<polygon fill="white" stroke="black" points="2287.5,-62 2287.5,-81 2421.5,-81 2421.5,-62 2287.5,-62"/>
<text text-anchor="middle" x="2354.5" y="-69" font-family="Helvetica,sans-Serif" font-size="10.00">SpeciesFeatureType.cpp</text>
</a>
</g>
</g>
<!-- Node1&#45;&gt;Node16 -->
<g id="edge15" class="edge">
<title>Node1&#45;&gt;Node16</title>
<path fill="none" stroke="midnightblue" d="M1789.69,-129.17C1890.96,-123.94 2101.69,-111.04 2278.5,-87 2290.08,-85.43 2302.57,-83.25 2314.01,-81.06"/>
<polygon fill="midnightblue" stroke="midnightblue" points="1789.46,-125.68 1779.65,-129.68 1789.82,-132.67 1789.46,-125.68"/>
</g>
<!-- Node17 -->
<g id="node17" class="node">
<title>Node17</title>
<g id="a_node17"><a xlink:href="_species_feature_value_8cpp.html" target="_top" xlink:title=": Implementation of the SpeciesFeatureValue class">
<polygon fill="white" stroke="black" points="2439.5,-62 2439.5,-81 2577.5,-81 2577.5,-62 2439.5,-62"/>
<text text-anchor="middle" x="2508.5" y="-69" font-family="Helvetica,sans-Serif" font-size="10.00">SpeciesFeatureValue.cpp</text>
</a>
</g>
</g>
<!-- Node1&#45;&gt;Node17 -->
<g id="edge16" class="edge">
<title>Node1&#45;&gt;Node17</title>
<path fill="none" stroke="midnightblue" d="M1790.07,-130.55C1911.83,-127.1 2194.73,-116.37 2430.5,-87 2442.66,-85.48 2455.8,-83.27 2467.76,-81.03"/>
<polygon fill="midnightblue" stroke="midnightblue" points="1789.74,-127.06 1779.84,-130.83 1789.94,-134.06 1789.74,-127.06"/>
</g>
<!-- Node18 -->
<g id="node18" class="node">
<title>Node18</title>
<g id="a_node18"><a xlink:href="_species_type_component_index_8cpp.html" target="_top" xlink:title=": Implementation of the SpeciesTypeComponentIndex class">
<polygon fill="white" stroke="black" points="2595.5,-62 2595.5,-81 2775.5,-81 2775.5,-62 2595.5,-62"/>
<text text-anchor="middle" x="2685.5" y="-69" font-family="Helvetica,sans-Serif" font-size="10.00">SpeciesTypeComponentIndex.cpp</text>
</a>
</g>
</g>
<!-- Node1&#45;&gt;Node18 -->
<g id="edge17" class="edge">
<title>Node1&#45;&gt;Node18</title>
<path fill="none" stroke="midnightblue" d="M1789.97,-130.76C1930.24,-127.45 2288.54,-116.58 2586.5,-87 2601.88,-85.47 2618.54,-83.25 2633.72,-81.01"/>
<polygon fill="midnightblue" stroke="midnightblue" points="1789.77,-127.26 1779.85,-130.99 1789.93,-134.26 1789.77,-127.26"/>
</g>
<!-- Node19 -->
<g id="node19" class="node">
<title>Node19</title>
<g id="a_node19"><a xlink:href="_species_type_component_map_in_product_8cpp.html" target="_top" xlink:title=": Implementation of the SpeciesTypeComponentMapInProduct class">
<polygon fill="white" stroke="black" points="2794,-56.5 2794,-86.5 2957,-86.5 2957,-56.5 2794,-56.5"/>
<text text-anchor="start" x="2802" y="-74.5" font-family="Helvetica,sans-Serif" font-size="10.00">SpeciesTypeComponentMapIn</text>
<text text-anchor="middle" x="2875.5" y="-63.5" font-family="Helvetica,sans-Serif" font-size="10.00">Product.cpp</text>
</a>
</g>
</g>
<!-- Node1&#45;&gt;Node19 -->
<g id="edge18" class="edge">
<title>Node1&#45;&gt;Node19</title>
<path fill="none" stroke="midnightblue" d="M1789.83,-131.86C1951.45,-130.95 2407.45,-124.95 2784.5,-87 2787.52,-86.7 2790.6,-86.36 2793.71,-85.99"/>
<polygon fill="midnightblue" stroke="midnightblue" points="1789.6,-128.36 1779.62,-131.91 1789.64,-135.36 1789.6,-128.36"/>
</g>
<!-- Node20 -->
<g id="node20" class="node">
<title>Node20</title>
<g id="a_node20"><a xlink:href="_species_type_instance_8cpp.html" target="_top" xlink:title=": Implementation of the SpeciesTypeInstance class">
<polygon fill="white" stroke="black" points="2975.5,-62 2975.5,-81 3113.5,-81 3113.5,-62 2975.5,-62"/>
<text text-anchor="middle" x="3044.5" y="-69" font-family="Helvetica,sans-Serif" font-size="10.00">SpeciesTypeInstance.cpp</text>
</a>
</g>
</g>
<!-- Node1&#45;&gt;Node20 -->
<g id="edge19" class="edge">
<title>Node1&#45;&gt;Node20</title>
<path fill="none" stroke="midnightblue" d="M1789.8,-130.99C2004.96,-127.18 2734.41,-112.65 2966.5,-87 2979.1,-85.61 2992.71,-83.34 3004.99,-81.01"/>
<polygon fill="midnightblue" stroke="midnightblue" points="1789.59,-127.49 1779.65,-131.16 1789.71,-134.49 1789.59,-127.49"/>
</g>
<!-- Node21 -->
<g id="node21" class="node">
<title>Node21</title>
<g id="a_node21"><a xlink:href="_sub_list_of_species_features_8cpp.html" target="_top" xlink:title=": Implementation of the SubListOfSpeciesFeatures class">
<polygon fill="white" stroke="black" points="3132,-62 3132,-81 3295,-81 3295,-62 3132,-62"/>
<text text-anchor="middle" x="3213.5" y="-69" font-family="Helvetica,sans-Serif" font-size="10.00">SubListOfSpeciesFeatures.cpp</text>
</a>
</g>
</g>
<!-- Node1&#45;&gt;Node21 -->
<g id="edge20" class="edge">
<title>Node1&#45;&gt;Node21</title>
<path fill="none" stroke="midnightblue" d="M1789.86,-131.06C2022.07,-127.29 2857.99,-112.24 3122.5,-87 3137.15,-85.6 3153.02,-83.34 3167.35,-81.01"/>
<polygon fill="midnightblue" stroke="midnightblue" points="1789.53,-127.57 1779.59,-131.23 1789.64,-134.57 1789.53,-127.57"/>
</g>
<!-- Node22 -->
<g id="node22" class="node">
<title>Node22</title>
<g id="a_node22"><a xlink:href="_multi_s_b_m_l_error_table_8h.html" target="_top" xlink:title=": Implementation of the MultiSBMLErrorTable class">
<polygon fill="white" stroke="black" points="3313.5,-62 3313.5,-81 3439.5,-81 3439.5,-62 3313.5,-62"/>
<text text-anchor="middle" x="3376.5" y="-69" font-family="Helvetica,sans-Serif" font-size="10.00">MultiSBMLErrorTable.h</text>
</a>
</g>
</g>
<!-- Node1&#45;&gt;Node22 -->
<g id="edge21" class="edge">
<title>Node1&#45;&gt;Node22</title>
<path fill="none" stroke="midnightblue" d="M1789.76,-131.65C2040.6,-129.98 3002.92,-121.42 3304.5,-87 3316.28,-85.66 3329.01,-83.37 3340.43,-81.01"/>
<polygon fill="midnightblue" stroke="midnightblue" points="1789.72,-128.15 1779.74,-131.72 1789.76,-135.15 1789.72,-128.15"/>
</g>
<!-- Node23 -->
<g id="node23" class="node">
<title>Node23</title>
<g id="a_node23"><a xlink:href="_multi_extension_8cpp.html" target="_top" xlink:title=": Implementation of the MultiExtension class">
<polygon fill="white" stroke="black" points="3321.5,-0.5 3321.5,-19.5 3431.5,-19.5 3431.5,-0.5 3321.5,-0.5"/>
<text text-anchor="middle" x="3376.5" y="-7.5" font-family="Helvetica,sans-Serif" font-size="10.00">MultiExtension.cpp</text>
</a>
</g>
</g>
<!-- Node22&#45;&gt;Node23 -->
<g id="edge22" class="edge">
<title>Node22&#45;&gt;Node23</title>
<path fill="none" stroke="midnightblue" d="M3376.5,-51.82C3376.5,-41 3376.5,-27.9 3376.5,-19.51"/>
<polygon fill="midnightblue" stroke="midnightblue" points="3373,-51.98 3376.5,-61.98 3380,-51.98 3373,-51.98"/>
</g>
</g>
</svg>
        <g id="navigator" transform="translate(0 0)" fill="#404254">
                <rect fill="#f2f5e9" fill-opacity="0.5" stroke="#606060" stroke-width=".5" x="0" y="0" width="60" height="60"/>
                <use id="zoomplus" xlink:href="#zoomPlus" x="17" y="9" onmousedown="handleZoom(evt,'in')"/>
                <use id="zoomminus" xlink:href="#zoomMin" x="42" y="9" onmousedown="handleZoom(evt,'out')"/>
                <use id="reset" xlink:href="#resetDef" x="30" y="36" onmousedown="handleReset()"/>
                <g id="arrowUp" xlink:href="#dirArrow" transform="translate(30 24)" onmousedown="handlePan(0,-1)">
                  <use xlink:href="#rim" fill="#404040">
                        <set attributeName="fill" to="#808080" begin="arrowUp.mouseover" end="arrowUp.mouseout"/>
                  </use>
                  <path fill="none" stroke="white" stroke-width="1.5" d="M0,-3.0v7 M-2.5,-0.5L0,-3.0L2.5,-0.5"/>
                </g>
                <g id="arrowRight" xlink:href="#dirArrow" transform="rotate(90) translate(36 -43)" onmousedown="handlePan(1,0)">
                  <use xlink:href="#rim" fill="#404040">
                        <set attributeName="fill" to="#808080" begin="arrowRight.mouseover" end="arrowRight.mouseout"/>
                  </use>
                  <path fill="none" stroke="white" stroke-width="1.5" d="M0,-3.0v7 M-2.5,-0.5L0,-3.0L2.5,-0.5"/>
                </g>
                <g id="arrowDown" xlink:href="#dirArrow" transform="rotate(180) translate(-30 -48)" onmousedown="handlePan(0,1)">
                  <use xlink:href="#rim" fill="#404040">
                        <set attributeName="fill" to="#808080" begin="arrowDown.mouseover" end="arrowDown.mouseout"/>
                  </use>
                  <path fill="none" stroke="white" stroke-width="1.5" d="M0,-3.0v7 M-2.5,-0.5L0,-3.0L2.5,-0.5"/>
                </g>
                <g id="arrowLeft" xlink:href="#dirArrow" transform="rotate(270) translate(-36 17)" onmousedown="handlePan(-1,0)">
                  <use xlink:href="#rim" fill="#404040">
                        <set attributeName="fill" to="#808080" begin="arrowLeft.mouseover" end="arrowLeft.mouseout"/>
                  </use>
                  <path fill="none" stroke="white" stroke-width="1.5" d="M0,-3.0v7 M-2.5,-0.5L0,-3.0L2.5,-0.5"/>
                </g>
        </g>
        <svg viewBox="0 0 15 15" width="100%" height="30px" preserveAspectRatio="xMaxYMin meet">
         <g id="arrow_out" transform="scale(0.3 0.3)">
          <a xlink:href="_multi_s_b_m_l_error_8h__dep__incl_org.svg" target="_base">
           <rect id="button" ry="5" rx="5" y="6" x="6" height="38" width="38"
                fill="#f2f5e9" fill-opacity="0.5" stroke="#606060" stroke-width="1.0"/>
           <path id="arrow"
             d="M 11.500037,31.436501 C 11.940474,20.09759 22.043105,11.32322 32.158766,21.979434 L 37.068811,17.246167 C 37.068811,17.246167 37.088388,32 37.088388,32 L 22.160133,31.978069 C 22.160133,31.978069 26.997745,27.140456 26.997745,27.140456 C 18.528582,18.264221 13.291696,25.230495 11.500037,31.436501 z"
             style="fill:#404040;"/>
          </a>
         </g>
        </svg>
</svg>
