<?xml version="1.0" encoding="UTF-8" standalone="no"?>
<!DOCTYPE svg PUBLIC "-//W3C//DTD SVG 1.1//EN"
 "http://www.w3.org/Graphics/SVG/1.1/DTD/svg11.dtd">
<!-- Generated by graphviz version 2.43.0 (0)
 -->
<!-- Title: MultiSimpleSpeciesReferencePlugin.h Pages: 1 -->
<svg width="543pt" height="218pt"
 viewBox="0.00 0.00 543.00 218.00" xmlns="http://www.w3.org/2000/svg" xmlns:xlink="http://www.w3.org/1999/xlink">
<g id="graph0" class="graph" transform="scale(1 1) rotate(0) translate(4 214)">
<title>MultiSimpleSpeciesReferencePlugin.h</title>
<polygon fill="white" stroke="transparent" points="-4,4 -4,-214 539,-214 539,4 -4,4"/>
<!-- Node1 -->
<g id="node1" class="node">
<title>Node1</title>
<g id="a_node1"><a xlink:title=": Implementation of the MultiSimpleSpeciesReferencePlugin class">
<polygon fill="#bfbfbf" stroke="black" points="208,-179.5 208,-209.5 370,-209.5 370,-179.5 208,-179.5"/>
<text text-anchor="start" x="216" y="-197.5" font-family="Helvetica,sans-Serif" font-size="10.00">MultiSimpleSpeciesReference</text>
<text text-anchor="middle" x="289" y="-186.5" font-family="Helvetica,sans-Serif" font-size="10.00">Plugin.h</text>
</a>
</g>
</g>
<!-- Node2 -->
<g id="node2" class="node">
<title>Node2</title>
<g id="a_node2"><a xlink:href="_multi_extension_types_8h.html" target="_top" xlink:title=": Implementation of the MultiExtensionTypes class">
<polygon fill="white" stroke="black" points="0,-56.5 0,-75.5 126,-75.5 126,-56.5 0,-56.5"/>
<text text-anchor="middle" x="63" y="-63.5" font-family="Helvetica,sans-Serif" font-size="10.00">MultiExtensionTypes.h</text>
</a>
</g>
</g>
<!-- Node1&#45;&gt;Node2 -->
<g id="edge1" class="edge">
<title>Node1&#45;&gt;Node2</title>
<path fill="none" stroke="midnightblue" d="M219.88,-176.55C194.31,-168.56 165.79,-157.53 142,-143 111.14,-124.15 82.57,-91.41 69.89,-75.79"/>
<polygon fill="midnightblue" stroke="midnightblue" points="218.93,-179.92 229.52,-179.46 220.96,-173.22 218.93,-179.92"/>
</g>
<!-- Node4 -->
<g id="node4" class="node">
<title>Node4</title>
<g id="a_node4"><a xlink:href="_multi_extension_8cpp.html" target="_top" xlink:title=": Implementation of the MultiExtension class">
<polygon fill="white" stroke="black" points="342,-56.5 342,-75.5 452,-75.5 452,-56.5 342,-56.5"/>
<text text-anchor="middle" x="397" y="-63.5" font-family="Helvetica,sans-Serif" font-size="10.00">MultiExtension.cpp</text>
</a>
</g>
</g>
<!-- Node1&#45;&gt;Node4 -->
<g id="edge3" class="edge">
<title>Node1&#45;&gt;Node4</title>
<path fill="none" stroke="midnightblue" d="M307.58,-171.73C331.71,-143.48 372.71,-95.45 389.5,-75.79"/>
<polygon fill="midnightblue" stroke="midnightblue" points="304.8,-169.6 300.97,-179.48 310.13,-174.15 304.8,-169.6"/>
</g>
<!-- Node5 -->
<g id="node5" class="node">
<title>Node5</title>
<g id="a_node5"><a xlink:href="_multi_simple_species_reference_plugin_8cpp.html" target="_top" xlink:title=": Implementation of the MultiSimpleSpeciesReferencePlugin class">
<polygon fill="white" stroke="black" points="373,-112.5 373,-142.5 535,-142.5 535,-112.5 373,-112.5"/>
<text text-anchor="start" x="381" y="-130.5" font-family="Helvetica,sans-Serif" font-size="10.00">MultiSimpleSpeciesReference</text>
<text text-anchor="middle" x="454" y="-119.5" font-family="Helvetica,sans-Serif" font-size="10.00">Plugin.cpp</text>
</a>
</g>
</g>
<!-- Node1&#45;&gt;Node5 -->
<g id="edge4" class="edge">
<title>Node1&#45;&gt;Node5</title>
<path fill="none" stroke="midnightblue" d="M334.23,-175.68C360.69,-165.26 393.63,-152.28 418.27,-142.58"/>
<polygon fill="midnightblue" stroke="midnightblue" points="332.82,-172.47 324.8,-179.4 335.39,-178.99 332.82,-172.47"/>
</g>
<!-- Node6 -->
<g id="node6" class="node">
<title>Node6</title>
<g id="a_node6"><a xlink:href="_multi_species_reference_plugin_8h.html" target="_top" xlink:title=": Implementation of the MultiSpeciesReferencePlugin class">
<polygon fill="white" stroke="black" points="150.5,-118 150.5,-137 317.5,-137 317.5,-118 150.5,-118"/>
<text text-anchor="middle" x="234" y="-125" font-family="Helvetica,sans-Serif" font-size="10.00">MultiSpeciesReferencePlugin.h</text>
</a>
</g>
</g>
<!-- Node1&#45;&gt;Node6 -->
<g id="edge5" class="edge">
<title>Node1&#45;&gt;Node6</title>
<path fill="none" stroke="midnightblue" d="M270.52,-171.66C260.54,-159.86 248.78,-145.97 241.36,-137.19"/>
<polygon fill="midnightblue" stroke="midnightblue" points="267.93,-174.02 277.07,-179.4 273.28,-169.5 267.93,-174.02"/>
</g>
<!-- Node3 -->
<g id="node3" class="node">
<title>Node3</title>
<g id="a_node3"><a xlink:href="_multi_validator_8cpp.html" target="_top" xlink:title=": Implementation of the MultiValidator class">
<polygon fill="white" stroke="black" points="11,-0.5 11,-19.5 115,-19.5 115,-0.5 11,-0.5"/>
<text text-anchor="middle" x="63" y="-7.5" font-family="Helvetica,sans-Serif" font-size="10.00">MultiValidator.cpp</text>
</a>
</g>
</g>
<!-- Node2&#45;&gt;Node3 -->
<g id="edge2" class="edge">
<title>Node2&#45;&gt;Node3</title>
<path fill="none" stroke="midnightblue" d="M63,-45.8C63,-36.91 63,-26.78 63,-19.75"/>
<polygon fill="midnightblue" stroke="midnightblue" points="59.5,-46.08 63,-56.08 66.5,-46.08 59.5,-46.08"/>
</g>
<!-- Node6&#45;&gt;Node2 -->
<g id="edge6" class="edge">
<title>Node6&#45;&gt;Node2</title>
<path fill="none" stroke="midnightblue" d="M199.75,-114.58C166.51,-103.02 116.89,-85.75 87.45,-75.51"/>
<polygon fill="midnightblue" stroke="midnightblue" points="198.91,-117.99 209.5,-117.98 201.21,-111.38 198.91,-117.99"/>
</g>
<!-- Node6&#45;&gt;Node4 -->
<g id="edge7" class="edge">
<title>Node6&#45;&gt;Node4</title>
<path fill="none" stroke="midnightblue" d="M267.06,-114.43C298.74,-102.87 345.75,-85.71 373.69,-75.51"/>
<polygon fill="midnightblue" stroke="midnightblue" points="265.55,-111.26 257.35,-117.98 267.95,-117.83 265.55,-111.26"/>
</g>
<!-- Node7 -->
<g id="node7" class="node">
<title>Node7</title>
<g id="a_node7"><a xlink:href="_multi_species_reference_plugin_8cpp.html" target="_top" xlink:title=": Implementation of the MultiSpeciesReferencePlugin class">
<polygon fill="white" stroke="black" points="144.5,-56.5 144.5,-75.5 323.5,-75.5 323.5,-56.5 144.5,-56.5"/>
<text text-anchor="middle" x="234" y="-63.5" font-family="Helvetica,sans-Serif" font-size="10.00">MultiSpeciesReferencePlugin.cpp</text>
</a>
</g>
</g>
<!-- Node6&#45;&gt;Node7 -->
<g id="edge8" class="edge">
<title>Node6&#45;&gt;Node7</title>
<path fill="none" stroke="midnightblue" d="M234,-107.82C234,-97 234,-83.9 234,-75.51"/>
<polygon fill="midnightblue" stroke="midnightblue" points="230.5,-107.98 234,-117.98 237.5,-107.98 230.5,-107.98"/>
</g>
</g>
</svg>
