<?xml version="1.0" encoding="UTF-8" standalone="no"?>
<!DOCTYPE svg PUBLIC "-//W3C//DTD SVG 1.1//EN"
 "http://www.w3.org/Graphics/SVG/1.1/DTD/svg11.dtd">
<!-- Generated by graphviz version 2.43.0 (0)
 -->
<!-- Title: MultiCompartmentPlugin.h Pages: 1 -->
<svg width="440pt" height="140pt"
 viewBox="0.00 0.00 440.00 140.00" xmlns="http://www.w3.org/2000/svg" xmlns:xlink="http://www.w3.org/1999/xlink">
<g id="graph0" class="graph" transform="scale(1 1) rotate(0) translate(4 136)">
<title>MultiCompartmentPlugin.h</title>
<polygon fill="white" stroke="transparent" points="-4,4 -4,-136 436,-136 436,4 -4,4"/>
<!-- Node1 -->
<g id="node1" class="node">
<title>Node1</title>
<g id="a_node1"><a xlink:title=": Implementation of the MultiCompartmentPlugin class">
<polygon fill="#bfbfbf" stroke="black" points="150,-112.5 150,-131.5 298,-131.5 298,-112.5 150,-112.5"/>
<text text-anchor="middle" x="224" y="-119.5" font-family="Helvetica,sans-Serif" font-size="10.00">MultiCompartmentPlugin.h</text>
</a>
</g>
</g>
<!-- Node2 -->
<g id="node2" class="node">
<title>Node2</title>
<g id="a_node2"><a xlink:href="_multi_extension_types_8h.html" target="_top" xlink:title=": Implementation of the MultiExtensionTypes class">
<polygon fill="white" stroke="black" points="0,-56.5 0,-75.5 126,-75.5 126,-56.5 0,-56.5"/>
<text text-anchor="middle" x="63" y="-63.5" font-family="Helvetica,sans-Serif" font-size="10.00">MultiExtensionTypes.h</text>
</a>
</g>
</g>
<!-- Node1&#45;&gt;Node2 -->
<g id="edge1" class="edge">
<title>Node1&#45;&gt;Node2</title>
<path fill="none" stroke="midnightblue" d="M188.74,-109.17C158.42,-99 115.43,-84.59 88.39,-75.52"/>
<polygon fill="midnightblue" stroke="midnightblue" points="187.9,-112.58 198.49,-112.44 190.12,-105.95 187.9,-112.58"/>
</g>
<!-- Node4 -->
<g id="node4" class="node">
<title>Node4</title>
<g id="a_node4"><a xlink:href="_multi_compartment_plugin_8cpp.html" target="_top" xlink:title=": Implementation of the MultiCompartmentPlugin class">
<polygon fill="white" stroke="black" points="144.5,-56.5 144.5,-75.5 303.5,-75.5 303.5,-56.5 144.5,-56.5"/>
<text text-anchor="middle" x="224" y="-63.5" font-family="Helvetica,sans-Serif" font-size="10.00">MultiCompartmentPlugin.cpp</text>
</a>
</g>
</g>
<!-- Node1&#45;&gt;Node4 -->
<g id="edge3" class="edge">
<title>Node1&#45;&gt;Node4</title>
<path fill="none" stroke="midnightblue" d="M224,-101.8C224,-92.91 224,-82.78 224,-75.75"/>
<polygon fill="midnightblue" stroke="midnightblue" points="220.5,-102.08 224,-112.08 227.5,-102.08 220.5,-102.08"/>
</g>
<!-- Node5 -->
<g id="node5" class="node">
<title>Node5</title>
<g id="a_node5"><a xlink:href="_multi_extension_8cpp.html" target="_top" xlink:title=": Implementation of the MultiExtension class">
<polygon fill="white" stroke="black" points="322,-56.5 322,-75.5 432,-75.5 432,-56.5 322,-56.5"/>
<text text-anchor="middle" x="377" y="-63.5" font-family="Helvetica,sans-Serif" font-size="10.00">MultiExtension.cpp</text>
</a>
</g>
</g>
<!-- Node1&#45;&gt;Node5 -->
<g id="edge4" class="edge">
<title>Node1&#45;&gt;Node5</title>
<path fill="none" stroke="midnightblue" d="M257.89,-109.04C286.68,-98.88 327.29,-84.55 352.87,-75.52"/>
<polygon fill="midnightblue" stroke="midnightblue" points="256.51,-105.81 248.24,-112.44 258.84,-112.42 256.51,-105.81"/>
</g>
<!-- Node3 -->
<g id="node3" class="node">
<title>Node3</title>
<g id="a_node3"><a xlink:href="_multi_validator_8cpp.html" target="_top" xlink:title=": Implementation of the MultiValidator class">
<polygon fill="white" stroke="black" points="11,-0.5 11,-19.5 115,-19.5 115,-0.5 11,-0.5"/>
<text text-anchor="middle" x="63" y="-7.5" font-family="Helvetica,sans-Serif" font-size="10.00">MultiValidator.cpp</text>
</a>
</g>
</g>
<!-- Node2&#45;&gt;Node3 -->
<g id="edge2" class="edge">
<title>Node2&#45;&gt;Node3</title>
<path fill="none" stroke="midnightblue" d="M63,-45.8C63,-36.91 63,-26.78 63,-19.75"/>
<polygon fill="midnightblue" stroke="midnightblue" points="59.5,-46.08 63,-56.08 66.5,-46.08 59.5,-46.08"/>
</g>
</g>
</svg>
