<?xml version="1.0" encoding="UTF-8" standalone="no"?>
<!DOCTYPE svg PUBLIC "-//W3C//DTD SVG 1.1//EN"
 "http://www.w3.org/Graphics/SVG/1.1/DTD/svg11.dtd">
<!-- Generated by graphviz version 2.43.0 (0)
 -->
<!-- Title: OrdinalMapping.h Pages: 1 -->
<svg width="713pt" height="252pt"
 viewBox="0.00 0.00 713.00 252.00" xmlns="http://www.w3.org/2000/svg" xmlns:xlink="http://www.w3.org/1999/xlink">
<g id="graph0" class="graph" transform="scale(1 1) rotate(0) translate(4 248)">
<title>OrdinalMapping.h</title>
<polygon fill="white" stroke="transparent" points="-4,4 -4,-248 709,-248 709,4 -4,4"/>
<!-- Node1 -->
<g id="node1" class="node">
<title>Node1</title>
<g id="a_node1"><a xlink:title="Definition of the OrdinalMapping class.">
<polygon fill="#bfbfbf" stroke="black" points="268,-224.5 268,-243.5 371,-243.5 371,-224.5 268,-224.5"/>
<text text-anchor="middle" x="319.5" y="-231.5" font-family="Helvetica,sans-Serif" font-size="10.00">OrdinalMapping.h</text>
</a>
</g>
</g>
<!-- Node2 -->
<g id="node2" class="node">
<title>Node2</title>
<g id="a_node2"><a xlink:href="_spatial_extension_types_8h.html" target="_top" xlink:title="Definition of SpatialExtensionTypes.">
<polygon fill="white" stroke="black" points="0,-56.5 0,-75.5 135,-75.5 135,-56.5 0,-56.5"/>
<text text-anchor="middle" x="67.5" y="-63.5" font-family="Helvetica,sans-Serif" font-size="10.00">SpatialExtensionTypes.h</text>
</a>
</g>
</g>
<!-- Node1&#45;&gt;Node2 -->
<g id="edge1" class="edge">
<title>Node1&#45;&gt;Node2</title>
<path fill="none" stroke="midnightblue" d="M267.94,-221.92C217.37,-208.58 141.1,-181.53 93.5,-132 78,-115.88 71.35,-89.35 68.84,-75.71"/>
<polygon fill="midnightblue" stroke="midnightblue" points="267.15,-225.33 277.7,-224.41 268.88,-218.55 267.15,-225.33"/>
</g>
<!-- Node4 -->
<g id="node4" class="node">
<title>Node4</title>
<g id="a_node4"><a xlink:href="_list_of_ordinal_mappings_8h.html" target="_top" xlink:title="Definition of the ListOfOrdinalMappings class.">
<polygon fill="white" stroke="black" points="251,-168.5 251,-187.5 388,-187.5 388,-168.5 251,-168.5"/>
<text text-anchor="middle" x="319.5" y="-175.5" font-family="Helvetica,sans-Serif" font-size="10.00">ListOfOrdinalMappings.h</text>
</a>
</g>
</g>
<!-- Node1&#45;&gt;Node4 -->
<g id="edge3" class="edge">
<title>Node1&#45;&gt;Node4</title>
<path fill="none" stroke="midnightblue" d="M319.5,-213.8C319.5,-204.91 319.5,-194.78 319.5,-187.75"/>
<polygon fill="midnightblue" stroke="midnightblue" points="316,-214.08 319.5,-224.08 323,-214.08 316,-214.08"/>
</g>
<!-- Node11 -->
<g id="node11" class="node">
<title>Node11</title>
<g id="a_node11"><a xlink:href="_ordinal_mapping_8cpp.html" target="_top" xlink:title="Implementation of the OrdinalMapping class.">
<polygon fill="white" stroke="black" points="388.5,-112.5 388.5,-131.5 502.5,-131.5 502.5,-112.5 388.5,-112.5"/>
<text text-anchor="middle" x="445.5" y="-119.5" font-family="Helvetica,sans-Serif" font-size="10.00">OrdinalMapping.cpp</text>
</a>
</g>
</g>
<!-- Node1&#45;&gt;Node11 -->
<g id="edge12" class="edge">
<title>Node1&#45;&gt;Node11</title>
<path fill="none" stroke="midnightblue" d="M348.4,-219.94C363.97,-212.06 382.92,-201.02 397.5,-188 416.54,-170.99 432.77,-145.31 440.56,-131.89"/>
<polygon fill="midnightblue" stroke="midnightblue" points="346.66,-216.9 339.22,-224.44 349.74,-223.19 346.66,-216.9"/>
</g>
<!-- Node3 -->
<g id="node3" class="node">
<title>Node3</title>
<g id="a_node3"><a xlink:href="_spatial_validator_8cpp.html" target="_top" xlink:title="Definition of SpatialValidator.">
<polygon fill="white" stroke="black" points="11,-0.5 11,-19.5 124,-19.5 124,-0.5 11,-0.5"/>
<text text-anchor="middle" x="67.5" y="-7.5" font-family="Helvetica,sans-Serif" font-size="10.00">SpatialValidator.cpp</text>
</a>
</g>
</g>
<!-- Node2&#45;&gt;Node3 -->
<g id="edge2" class="edge">
<title>Node2&#45;&gt;Node3</title>
<path fill="none" stroke="midnightblue" d="M67.5,-45.8C67.5,-36.91 67.5,-26.78 67.5,-19.75"/>
<polygon fill="midnightblue" stroke="midnightblue" points="64,-46.08 67.5,-56.08 71,-46.08 64,-46.08"/>
</g>
<!-- Node5 -->
<g id="node5" class="node">
<title>Node5</title>
<g id="a_node5"><a xlink:href="_list_of_ordinal_mappings_8cpp.html" target="_top" xlink:title="Implementation of the ListOfOrdinalMappings class.">
<polygon fill="white" stroke="black" points="102.5,-112.5 102.5,-131.5 250.5,-131.5 250.5,-112.5 102.5,-112.5"/>
<text text-anchor="middle" x="176.5" y="-119.5" font-family="Helvetica,sans-Serif" font-size="10.00">ListOfOrdinalMappings.cpp</text>
</a>
</g>
</g>
<!-- Node4&#45;&gt;Node5 -->
<g id="edge4" class="edge">
<title>Node4&#45;&gt;Node5</title>
<path fill="none" stroke="midnightblue" d="M287.47,-164.91C260.59,-154.75 222.86,-140.51 199.05,-131.52"/>
<polygon fill="midnightblue" stroke="midnightblue" points="286.25,-168.19 296.84,-168.44 288.72,-161.64 286.25,-168.19"/>
</g>
<!-- Node6 -->
<g id="node6" class="node">
<title>Node6</title>
<g id="a_node6"><a xlink:href="_mixed_geometry_8h.html" target="_top" xlink:title="Definition of the MixedGeometry class.">
<polygon fill="white" stroke="black" points="268.5,-112.5 268.5,-131.5 370.5,-131.5 370.5,-112.5 268.5,-112.5"/>
<text text-anchor="middle" x="319.5" y="-119.5" font-family="Helvetica,sans-Serif" font-size="10.00">MixedGeometry.h</text>
</a>
</g>
</g>
<!-- Node4&#45;&gt;Node6 -->
<g id="edge5" class="edge">
<title>Node4&#45;&gt;Node6</title>
<path fill="none" stroke="midnightblue" d="M319.5,-157.8C319.5,-148.91 319.5,-138.78 319.5,-131.75"/>
<polygon fill="midnightblue" stroke="midnightblue" points="316,-158.08 319.5,-168.08 323,-158.08 316,-158.08"/>
</g>
<!-- Node4&#45;&gt;Node11 -->
<g id="edge11" class="edge">
<title>Node4&#45;&gt;Node11</title>
<path fill="none" stroke="midnightblue" d="M348.66,-164.5C372.28,-154.38 404.93,-140.39 425.63,-131.52"/>
<polygon fill="midnightblue" stroke="midnightblue" points="347.28,-161.29 339.47,-168.44 350.04,-167.72 347.28,-161.29"/>
</g>
<!-- Node6&#45;&gt;Node2 -->
<g id="edge6" class="edge">
<title>Node6&#45;&gt;Node2</title>
<path fill="none" stroke="midnightblue" d="M269.78,-110.35C222.16,-100.14 151.22,-84.94 107.24,-75.52"/>
<polygon fill="midnightblue" stroke="midnightblue" points="269.06,-113.77 279.57,-112.44 270.53,-106.93 269.06,-113.77"/>
</g>
<!-- Node7 -->
<g id="node7" class="node">
<title>Node7</title>
<g id="a_node7"><a xlink:href="_geometry_8cpp.html" target="_top" xlink:title="Implementation of the Geometry class.">
<polygon fill="white" stroke="black" points="153.5,-56.5 153.5,-75.5 237.5,-75.5 237.5,-56.5 153.5,-56.5"/>
<text text-anchor="middle" x="195.5" y="-63.5" font-family="Helvetica,sans-Serif" font-size="10.00">Geometry.cpp</text>
</a>
</g>
</g>
<!-- Node6&#45;&gt;Node7 -->
<g id="edge7" class="edge">
<title>Node6&#45;&gt;Node7</title>
<path fill="none" stroke="midnightblue" d="M290.49,-108.37C267.27,-98.26 235.34,-84.35 215.06,-75.52"/>
<polygon fill="midnightblue" stroke="midnightblue" points="289.29,-111.66 299.85,-112.44 292.08,-105.24 289.29,-111.66"/>
</g>
<!-- Node8 -->
<g id="node8" class="node">
<title>Node8</title>
<g id="a_node8"><a xlink:href="_geometry_definition_8cpp.html" target="_top" xlink:title="Implementation of the GeometryDefinition class.">
<polygon fill="white" stroke="black" points="256,-56.5 256,-75.5 389,-75.5 389,-56.5 256,-56.5"/>
<text text-anchor="middle" x="322.5" y="-63.5" font-family="Helvetica,sans-Serif" font-size="10.00">GeometryDefinition.cpp</text>
</a>
</g>
</g>
<!-- Node6&#45;&gt;Node8 -->
<g id="edge8" class="edge">
<title>Node6&#45;&gt;Node8</title>
<path fill="none" stroke="midnightblue" d="M320.57,-101.8C321.06,-92.91 321.62,-82.78 322.01,-75.75"/>
<polygon fill="midnightblue" stroke="midnightblue" points="317.06,-101.9 320,-112.08 324.04,-102.29 317.06,-101.9"/>
</g>
<!-- Node9 -->
<g id="node9" class="node">
<title>Node9</title>
<g id="a_node9"><a xlink:href="_list_of_geometry_definitions_8cpp.html" target="_top" xlink:title="Implementation of the ListOfGeometryDefinitions class.">
<polygon fill="white" stroke="black" points="407,-56.5 407,-75.5 574,-75.5 574,-56.5 407,-56.5"/>
<text text-anchor="middle" x="490.5" y="-63.5" font-family="Helvetica,sans-Serif" font-size="10.00">ListOfGeometryDefinitions.cpp</text>
</a>
</g>
</g>
<!-- Node6&#45;&gt;Node9 -->
<g id="edge9" class="edge">
<title>Node6&#45;&gt;Node9</title>
<path fill="none" stroke="midnightblue" d="M356.54,-109.3C388.76,-99.13 434.69,-84.62 463.53,-75.52"/>
<polygon fill="midnightblue" stroke="midnightblue" points="355.08,-106.09 346.6,-112.44 357.19,-112.77 355.08,-106.09"/>
</g>
<!-- Node10 -->
<g id="node10" class="node">
<title>Node10</title>
<g id="a_node10"><a xlink:href="_mixed_geometry_8cpp.html" target="_top" xlink:title="Implementation of the MixedGeometry class.">
<polygon fill="white" stroke="black" points="592,-56.5 592,-75.5 705,-75.5 705,-56.5 592,-56.5"/>
<text text-anchor="middle" x="648.5" y="-63.5" font-family="Helvetica,sans-Serif" font-size="10.00">MixedGeometry.cpp</text>
</a>
</g>
</g>
<!-- Node6&#45;&gt;Node10 -->
<g id="edge10" class="edge">
<title>Node6&#45;&gt;Node10</title>
<path fill="none" stroke="midnightblue" d="M380.6,-110.97C442.71,-100.78 537.91,-85.15 596.52,-75.53"/>
<polygon fill="midnightblue" stroke="midnightblue" points="379.85,-107.55 370.55,-112.62 380.98,-114.46 379.85,-107.55"/>
</g>
</g>
</svg>
