<?xml version="1.0" encoding="UTF-8" standalone="no"?>
<!DOCTYPE svg PUBLIC "-//W3C//DTD SVG 1.1//EN"
 "http://www.w3.org/Graphics/SVG/1.1/DTD/svg11.dtd">
<!-- Generated by graphviz version 2.43.0 (0)
 -->
<!-- Title: ParametricObject.h Pages: 1 -->
<svg width="868pt" height="252pt"
 viewBox="0.00 0.00 868.00 252.00" xmlns="http://www.w3.org/2000/svg" xmlns:xlink="http://www.w3.org/1999/xlink">
<g id="graph0" class="graph" transform="scale(1 1) rotate(0) translate(4 248)">
<title>ParametricObject.h</title>
<polygon fill="white" stroke="transparent" points="-4,4 -4,-248 864,-248 864,4 -4,4"/>
<!-- Node1 -->
<g id="node1" class="node">
<title>Node1</title>
<g id="a_node1"><a xlink:title="Definition of the ParametricObject class.">
<polygon fill="#bfbfbf" stroke="black" points="276.5,-224.5 276.5,-243.5 386.5,-243.5 386.5,-224.5 276.5,-224.5"/>
<text text-anchor="middle" x="331.5" y="-231.5" font-family="Helvetica,sans-Serif" font-size="10.00">ParametricObject.h</text>
</a>
</g>
</g>
<!-- Node2 -->
<g id="node2" class="node">
<title>Node2</title>
<g id="a_node2"><a xlink:href="_spatial_extension_types_8h.html" target="_top" xlink:title="Definition of SpatialExtensionTypes.">
<polygon fill="white" stroke="black" points="0,-56.5 0,-75.5 135,-75.5 135,-56.5 0,-56.5"/>
<text text-anchor="middle" x="67.5" y="-63.5" font-family="Helvetica,sans-Serif" font-size="10.00">SpatialExtensionTypes.h</text>
</a>
</g>
</g>
<!-- Node1&#45;&gt;Node2 -->
<g id="edge1" class="edge">
<title>Node1&#45;&gt;Node2</title>
<path fill="none" stroke="midnightblue" d="M266.23,-222.3C210.89,-209.88 133.25,-184.03 86.5,-132 72.04,-115.91 68.55,-89.37 67.73,-75.71"/>
<polygon fill="midnightblue" stroke="midnightblue" points="265.78,-225.78 276.3,-224.46 267.26,-218.94 265.78,-225.78"/>
</g>
<!-- Node4 -->
<g id="node4" class="node">
<title>Node4</title>
<g id="a_node4"><a xlink:href="_list_of_parametric_objects_8h.html" target="_top" xlink:title="Definition of the ListOfParametricObjects class.">
<polygon fill="white" stroke="black" points="260,-168.5 260,-187.5 403,-187.5 403,-168.5 260,-168.5"/>
<text text-anchor="middle" x="331.5" y="-175.5" font-family="Helvetica,sans-Serif" font-size="10.00">ListOfParametricObjects.h</text>
</a>
</g>
</g>
<!-- Node1&#45;&gt;Node4 -->
<g id="edge3" class="edge">
<title>Node1&#45;&gt;Node4</title>
<path fill="none" stroke="midnightblue" d="M331.5,-213.8C331.5,-204.91 331.5,-194.78 331.5,-187.75"/>
<polygon fill="midnightblue" stroke="midnightblue" points="328,-214.08 331.5,-224.08 335,-214.08 328,-214.08"/>
</g>
<!-- Node12 -->
<g id="node12" class="node">
<title>Node12</title>
<g id="a_node12"><a xlink:href="_parametric_object_8cpp.html" target="_top" xlink:title="Implementation of the ParametricObject class.">
<polygon fill="white" stroke="black" points="412,-112.5 412,-131.5 533,-131.5 533,-112.5 412,-112.5"/>
<text text-anchor="middle" x="472.5" y="-119.5" font-family="Helvetica,sans-Serif" font-size="10.00">ParametricObject.cpp</text>
</a>
</g>
</g>
<!-- Node1&#45;&gt;Node12 -->
<g id="edge13" class="edge">
<title>Node1&#45;&gt;Node12</title>
<path fill="none" stroke="midnightblue" d="M359.9,-220.03C376.09,-211.96 396.32,-200.72 412.5,-188 434.47,-170.73 455.53,-145.16 465.87,-131.82"/>
<polygon fill="midnightblue" stroke="midnightblue" points="358.36,-216.88 350.89,-224.4 361.41,-223.18 358.36,-216.88"/>
</g>
<!-- Node3 -->
<g id="node3" class="node">
<title>Node3</title>
<g id="a_node3"><a xlink:href="_spatial_validator_8cpp.html" target="_top" xlink:title="Definition of SpatialValidator.">
<polygon fill="white" stroke="black" points="11,-0.5 11,-19.5 124,-19.5 124,-0.5 11,-0.5"/>
<text text-anchor="middle" x="67.5" y="-7.5" font-family="Helvetica,sans-Serif" font-size="10.00">SpatialValidator.cpp</text>
</a>
</g>
</g>
<!-- Node2&#45;&gt;Node3 -->
<g id="edge2" class="edge">
<title>Node2&#45;&gt;Node3</title>
<path fill="none" stroke="midnightblue" d="M67.5,-45.8C67.5,-36.91 67.5,-26.78 67.5,-19.75"/>
<polygon fill="midnightblue" stroke="midnightblue" points="64,-46.08 67.5,-56.08 71,-46.08 64,-46.08"/>
</g>
<!-- Node5 -->
<g id="node5" class="node">
<title>Node5</title>
<g id="a_node5"><a xlink:href="_list_of_parametric_objects_8cpp.html" target="_top" xlink:title="Implementation of the ListOfParametricObjects class.">
<polygon fill="white" stroke="black" points="96,-112.5 96,-131.5 251,-131.5 251,-112.5 96,-112.5"/>
<text text-anchor="middle" x="173.5" y="-119.5" font-family="Helvetica,sans-Serif" font-size="10.00">ListOfParametricObjects.cpp</text>
</a>
</g>
</g>
<!-- Node4&#45;&gt;Node5 -->
<g id="edge4" class="edge">
<title>Node4&#45;&gt;Node5</title>
<path fill="none" stroke="midnightblue" d="M296.89,-165.17C267.14,-155 224.95,-140.59 198.42,-131.52"/>
<polygon fill="midnightblue" stroke="midnightblue" points="295.87,-168.52 306.46,-168.44 298.13,-161.9 295.87,-168.52"/>
</g>
<!-- Node6 -->
<g id="node6" class="node">
<title>Node6</title>
<g id="a_node6"><a xlink:href="_parametric_geometry_8h.html" target="_top" xlink:title="Definition of the ParametricGeometry class.">
<polygon fill="white" stroke="black" points="269,-112.5 269,-131.5 394,-131.5 394,-112.5 269,-112.5"/>
<text text-anchor="middle" x="331.5" y="-119.5" font-family="Helvetica,sans-Serif" font-size="10.00">ParametricGeometry.h</text>
</a>
</g>
</g>
<!-- Node4&#45;&gt;Node6 -->
<g id="edge5" class="edge">
<title>Node4&#45;&gt;Node6</title>
<path fill="none" stroke="midnightblue" d="M331.5,-157.8C331.5,-148.91 331.5,-138.78 331.5,-131.75"/>
<polygon fill="midnightblue" stroke="midnightblue" points="328,-158.08 331.5,-168.08 335,-158.08 328,-158.08"/>
</g>
<!-- Node4&#45;&gt;Node12 -->
<g id="edge12" class="edge">
<title>Node4&#45;&gt;Node12</title>
<path fill="none" stroke="midnightblue" d="M363.43,-164.77C389.91,-154.63 426.89,-140.47 450.26,-131.52"/>
<polygon fill="midnightblue" stroke="midnightblue" points="361.93,-161.6 353.84,-168.44 364.43,-168.14 361.93,-161.6"/>
</g>
<!-- Node6&#45;&gt;Node2 -->
<g id="edge6" class="edge">
<title>Node6&#45;&gt;Node2</title>
<path fill="none" stroke="midnightblue" d="M279.72,-110.41C229.83,-100.2 155.3,-84.96 109.14,-75.52"/>
<polygon fill="midnightblue" stroke="midnightblue" points="279.17,-113.87 289.67,-112.44 280.57,-107.01 279.17,-113.87"/>
</g>
<!-- Node7 -->
<g id="node7" class="node">
<title>Node7</title>
<g id="a_node7"><a xlink:href="_geometry_8cpp.html" target="_top" xlink:title="Implementation of the Geometry class.">
<polygon fill="white" stroke="black" points="153.5,-56.5 153.5,-75.5 237.5,-75.5 237.5,-56.5 153.5,-56.5"/>
<text text-anchor="middle" x="195.5" y="-63.5" font-family="Helvetica,sans-Serif" font-size="10.00">Geometry.cpp</text>
</a>
</g>
</g>
<!-- Node6&#45;&gt;Node7 -->
<g id="edge7" class="edge">
<title>Node6&#45;&gt;Node7</title>
<path fill="none" stroke="midnightblue" d="M300.37,-108.64C274.84,-98.5 239.39,-84.43 216.95,-75.52"/>
<polygon fill="midnightblue" stroke="midnightblue" points="299.36,-112.01 309.95,-112.44 301.95,-105.5 299.36,-112.01"/>
</g>
<!-- Node8 -->
<g id="node8" class="node">
<title>Node8</title>
<g id="a_node8"><a xlink:href="_geometry_definition_8cpp.html" target="_top" xlink:title="Implementation of the GeometryDefinition class.">
<polygon fill="white" stroke="black" points="256,-56.5 256,-75.5 389,-75.5 389,-56.5 256,-56.5"/>
<text text-anchor="middle" x="322.5" y="-63.5" font-family="Helvetica,sans-Serif" font-size="10.00">GeometryDefinition.cpp</text>
</a>
</g>
</g>
<!-- Node6&#45;&gt;Node8 -->
<g id="edge8" class="edge">
<title>Node6&#45;&gt;Node8</title>
<path fill="none" stroke="midnightblue" d="M328.35,-102.1C326.86,-93.14 325.14,-82.86 323.96,-75.75"/>
<polygon fill="midnightblue" stroke="midnightblue" points="324.92,-102.79 330.01,-112.08 331.82,-101.64 324.92,-102.79"/>
</g>
<!-- Node9 -->
<g id="node9" class="node">
<title>Node9</title>
<g id="a_node9"><a xlink:href="_list_of_geometry_definitions_8cpp.html" target="_top" xlink:title="Implementation of the ListOfGeometryDefinitions class.">
<polygon fill="white" stroke="black" points="407,-56.5 407,-75.5 574,-75.5 574,-56.5 407,-56.5"/>
<text text-anchor="middle" x="490.5" y="-63.5" font-family="Helvetica,sans-Serif" font-size="10.00">ListOfGeometryDefinitions.cpp</text>
</a>
</g>
</g>
<!-- Node6&#45;&gt;Node9 -->
<g id="edge9" class="edge">
<title>Node6&#45;&gt;Node9</title>
<path fill="none" stroke="midnightblue" d="M366.33,-109.17C396.27,-99 438.72,-84.59 465.42,-75.52"/>
<polygon fill="midnightblue" stroke="midnightblue" points="365.04,-105.91 356.69,-112.44 367.29,-112.54 365.04,-105.91"/>
</g>
<!-- Node10 -->
<g id="node10" class="node">
<title>Node10</title>
<g id="a_node10"><a xlink:href="_mixed_geometry_8cpp.html" target="_top" xlink:title="Implementation of the MixedGeometry class.">
<polygon fill="white" stroke="black" points="592,-56.5 592,-75.5 705,-75.5 705,-56.5 592,-56.5"/>
<text text-anchor="middle" x="648.5" y="-63.5" font-family="Helvetica,sans-Serif" font-size="10.00">MixedGeometry.cpp</text>
</a>
</g>
</g>
<!-- Node6&#45;&gt;Node10 -->
<g id="edge10" class="edge">
<title>Node6&#45;&gt;Node10</title>
<path fill="none" stroke="midnightblue" d="M391.8,-110.73C451.71,-100.52 542.49,-85.06 598.51,-75.52"/>
<polygon fill="midnightblue" stroke="midnightblue" points="391,-107.31 381.73,-112.44 392.18,-114.21 391,-107.31"/>
</g>
<!-- Node11 -->
<g id="node11" class="node">
<title>Node11</title>
<g id="a_node11"><a xlink:href="_parametric_geometry_8cpp.html" target="_top" xlink:title="Implementation of the ParametricGeometry class.">
<polygon fill="white" stroke="black" points="723,-56.5 723,-75.5 860,-75.5 860,-56.5 723,-56.5"/>
<text text-anchor="middle" x="791.5" y="-63.5" font-family="Helvetica,sans-Serif" font-size="10.00">ParametricGeometry.cpp</text>
</a>
</g>
</g>
<!-- Node6&#45;&gt;Node11 -->
<g id="edge11" class="edge">
<title>Node6&#45;&gt;Node11</title>
<path fill="none" stroke="midnightblue" d="M404.5,-111.89C543.33,-95.21 579.53,-91.7 714.5,-76 717.17,-75.69 719.9,-75.37 722.65,-75.05"/>
<polygon fill="midnightblue" stroke="midnightblue" points="403.83,-108.44 394.32,-113.11 404.67,-115.39 403.83,-108.44"/>
</g>
</g>
</svg>
