<?xml version="1.0" encoding="UTF-8" standalone="no"?>
<!DOCTYPE svg PUBLIC "-//W3C//DTD SVG 1.1//EN"
 "http://www.w3.org/Graphics/SVG/1.1/DTD/svg11.dtd">
<!-- Generated by graphviz version 2.43.0 (0)
 -->
<!-- Title: ParametricObject.h Pages: 1 -->
<!--zoomable 247 -->

<svg id="main" version="1.1" xmlns="http://www.w3.org/2000/svg" xmlns:xlink="http://www.w3.org/1999/xlink" xml:space="preserve" onload="init(evt)">
<style type="text/css"><![CDATA[
.node, .edge {opacity: 0.7;}
.node.selected, .edge.selected {opacity: 1;}
.edge:hover path { stroke: red; }
.edge:hover polygon { stroke: red; fill: red; }
]]></style>

<defs>
  <circle id="rim" cx="0" cy="0" r="7"/>
  <circle id="rim2" cx="0" cy="0" r="3.5"/>
  <g id="zoomPlus">
    <use xlink:href="#rim" fill="#404040"><set attributeName="fill" to="#808080" begin="zoomplus.mouseover" end="zoomplus.mouseout"/></use>
    <path d="M-4,0h8M0,-4v8" fill="none" stroke="white" stroke-width="1.5" pointer-events="none"/>
  </g>
  <g id="zoomMin">
    <use xlink:href="#rim" fill="#404040"><set attributeName="fill" to="#808080" begin="zoomminus.mouseover" end="zoomminus.mouseout"/></use>
    <path d="M-4,0h8" fill="none" stroke="white" stroke-width="1.5" pointer-events="none"/>
  </g>
  <g id="arrowUp" transform="translate(30 24)">
    <use xlink:href="#rim"/>
    <path pointer-events="none" fill="none" stroke="white" stroke-width="1.5" d="M0,-3.0v7 M-2.5,-0.5L0,-3.0L2.5,-0.5"/>
  </g>
  <g id="arrowRight" transform="rotate(90) translate(36 -43)">
    <use xlink:href="#rim"/>
    <path pointer-events="none" fill="none" stroke="white" stroke-width="1.5" d="M0,-3.0v7 M-2.5,-0.5L0,-3.0L2.5,-0.5"/>
  </g>
  <g id="arrowDown" transform="rotate(180) translate(-30 -48)">
    <use xlink:href="#rim"/>
    <path pointer-events="none" fill="none" stroke="white" stroke-width="1.5" d="M0,-3.0v7 M-2.5,-0.5L0,-3.0L2.5,-0.5"/>
  </g>
  <g id="arrowLeft" transform="rotate(270) translate(-36 17)">
    <use xlink:href="#rim"/>
    <path pointer-events="none" fill="none" stroke="white" stroke-width="1.5" d="M0,-3.0v7 M-2.5,-0.5L0,-3.0L2.5,-0.5"/>
  </g>
  <g id="resetDef">
    <use xlink:href="#rim2" fill="#404040"><set attributeName="fill" to="#808080" begin="reset.mouseover" end="reset.mouseout"/></use>
  </g>
</defs>
<script type="application/ecmascript">
var viewWidth = 868;
var viewHeight = 247;
var sectionId = 'dynsection-1';
</script>
<script type="application/ecmascript" xlink:href="svg.min.js"/>
<svg id="graph" class="graph">
<g id="viewport">
<title>ParametricObject.h</title>
<!-- Node1 -->
<g id="Node000001" class="node">
<title>Node1</title>
<g id="a_Node000001"><a xlink:title="Definition of the ParametricObject class.">
<polygon fill="#999999" stroke="#666666" points="691,-239 581,-239 581,-220 691,-220 691,-239"/>
<text text-anchor="middle" x="636" y="-227" font-family="Helvetica,sans-Serif" font-size="10.00">ParametricObject.h</text>
</a>
</g>
</g>
<!-- Node2 -->
<g id="Node000002" class="node">
<title>Node2</title>
<g id="a_Node000002"><a xlink:href="_list_of_parametric_objects_8h.html" target="_top" xlink:title="Definition of the ListOfParametricObjects class.">
<polygon fill="white" stroke="#666666" points="587.5,-184 444.5,-184 444.5,-165 587.5,-165 587.5,-184"/>
<text text-anchor="middle" x="516" y="-172" font-family="Helvetica,sans-Serif" font-size="10.00">ListOfParametricObjects.h</text>
</a>
</g>
</g>
<!-- Node1&#45;&gt;Node2 -->
<g id="edge1_Node000001_Node000002" class="edge">
<title>Node1&#45;&gt;Node2</title>
<g id="a_edge1_Node000001_Node000002"><a xlink:title=" ">
<path fill="none" stroke="#63b8ff" d="M607.47,-215.9C585.3,-206.11 555.15,-192.79 535.63,-184.17"/>
<polygon fill="#63b8ff" stroke="#63b8ff" points="606.16,-219.15 616.72,-219.98 608.99,-212.74 606.16,-219.15"/>
</a>
</g>
</g>
<!-- Node10 -->
<g id="Node000010" class="node">
<title>Node10</title>
<g id="a_Node000010"><a xlink:href="_spatial_extension_types_8h.html" target="_top" xlink:title="Definition of SpatialExtensionTypes.">
<polygon fill="white" stroke="#666666" points="859.5,-74 724.5,-74 724.5,-55 859.5,-55 859.5,-74"/>
<text text-anchor="middle" x="792" y="-62" font-family="Helvetica,sans-Serif" font-size="10.00">SpatialExtensionTypes.h</text>
</a>
</g>
</g>
<!-- Node1&#45;&gt;Node10 -->
<g id="edge13_Node000001_Node000010" class="edge">
<title>Node1&#45;&gt;Node10</title>
<g id="a_edge13_Node000001_Node000010"><a xlink:title=" ">
<path fill="none" stroke="#63b8ff" d="M651.33,-212.49C683.77,-178.59 758.44,-100.57 783.57,-74.31"/>
<polygon fill="#63b8ff" stroke="#63b8ff" points="648.77,-210.09 644.39,-219.74 653.83,-214.93 648.77,-210.09"/>
</a>
</g>
</g>
<!-- Node12 -->
<g id="Node000012" class="node">
<title>Node12</title>
<g id="a_Node000012"><a xlink:href="_parametric_object_8cpp.html" target="_top" xlink:title="Implementation of the ParametricObject class.">
<polygon fill="white" stroke="#666666" points="696.5,-129 575.5,-129 575.5,-110 696.5,-110 696.5,-129"/>
<text text-anchor="middle" x="636" y="-117" font-family="Helvetica,sans-Serif" font-size="10.00">ParametricObject.cpp</text>
</a>
</g>
</g>
<!-- Node1&#45;&gt;Node12 -->
<g id="edge12_Node000001_Node000012" class="edge">
<title>Node1&#45;&gt;Node12</title>
<g id="a_edge12_Node000001_Node000012"><a xlink:title=" ">
<path fill="none" stroke="#63b8ff" d="M636,-209.48C636,-185.84 636,-146.5 636,-129.16"/>
<polygon fill="#63b8ff" stroke="#63b8ff" points="632.5,-209.66 636,-219.66 639.5,-209.66 632.5,-209.66"/>
</a>
</g>
</g>
<!-- Node3 -->
<g id="Node000003" class="node">
<title>Node3</title>
<g id="a_Node000003"><a xlink:href="_list_of_parametric_objects_8cpp.html" target="_top" xlink:title="Implementation of the ListOfParametricObjects class.">
<polygon fill="white" stroke="#666666" points="414.5,-129 259.5,-129 259.5,-110 414.5,-110 414.5,-129"/>
<text text-anchor="middle" x="337" y="-117" font-family="Helvetica,sans-Serif" font-size="10.00">ListOfParametricObjects.cpp</text>
</a>
</g>
</g>
<!-- Node2&#45;&gt;Node3 -->
<g id="edge2_Node000002_Node000003" class="edge">
<title>Node2&#45;&gt;Node3</title>
<g id="a_edge2_Node000002_Node000003"><a xlink:title=" ">
<path fill="none" stroke="#63b8ff" d="M477.35,-162.06C443.89,-152.15 396.25,-138.04 365.98,-129.08"/>
<polygon fill="#63b8ff" stroke="#63b8ff" points="476.66,-165.5 487.24,-164.98 478.65,-158.79 476.66,-165.5"/>
</a>
</g>
</g>
<!-- Node4 -->
<g id="Node000004" class="node">
<title>Node4</title>
<g id="a_Node000004"><a xlink:href="_parametric_geometry_8h.html" target="_top" xlink:title="Definition of the ParametricGeometry class.">
<polygon fill="white" stroke="#666666" points="557.5,-129 432.5,-129 432.5,-110 557.5,-110 557.5,-129"/>
<text text-anchor="middle" x="495" y="-117" font-family="Helvetica,sans-Serif" font-size="10.00">ParametricGeometry.h</text>
</a>
</g>
</g>
<!-- Node2&#45;&gt;Node4 -->
<g id="edge3_Node000002_Node000004" class="edge">
<title>Node2&#45;&gt;Node4</title>
<g id="a_edge3_Node000002_Node000004"><a xlink:title=" ">
<path fill="none" stroke="#63b8ff" d="M508.76,-155.24C505.25,-146.37 501.2,-136.14 498.4,-129.09"/>
<polygon fill="#63b8ff" stroke="#63b8ff" points="505.59,-156.74 512.53,-164.75 512.1,-154.16 505.59,-156.74"/>
</a>
</g>
</g>
<!-- Node2&#45;&gt;Node12 -->
<g id="edge11_Node000002_Node000012" class="edge">
<title>Node2&#45;&gt;Node12</title>
<g id="a_edge11_Node000002_Node000012"><a xlink:title=" ">
<path fill="none" stroke="#63b8ff" d="M544.53,-160.9C566.7,-151.11 596.85,-137.79 616.37,-129.17"/>
<polygon fill="#63b8ff" stroke="#63b8ff" points="543.01,-157.74 535.28,-164.98 545.84,-164.15 543.01,-157.74"/>
</a>
</g>
</g>
<!-- Node5 -->
<g id="Node000005" class="node">
<title>Node5</title>
<g id="a_Node000005"><a xlink:href="_geometry_8cpp.html" target="_top" xlink:title="Implementation of the Geometry class.">
<polygon fill="white" stroke="#666666" points="84,-74 0,-74 0,-55 84,-55 84,-74"/>
<text text-anchor="middle" x="42" y="-62" font-family="Helvetica,sans-Serif" font-size="10.00">Geometry.cpp</text>
</a>
</g>
</g>
<!-- Node4&#45;&gt;Node5 -->
<g id="edge4_Node000004_Node000005" class="edge">
<title>Node4&#45;&gt;Node5</title>
<g id="a_edge4_Node000004_Node000005"><a xlink:title=" ">
<path fill="none" stroke="#63b8ff" d="M421.86,-109.88C274.68,-93.38 235.87,-93.68 93,-74 90.15,-73.61 87.22,-73.18 84.27,-72.73"/>
<polygon fill="#63b8ff" stroke="#63b8ff" points="421.85,-113.41 432.18,-111.05 422.63,-106.45 421.85,-113.41"/>
</a>
</g>
</g>
<!-- Node6 -->
<g id="Node000006" class="node">
<title>Node6</title>
<g id="a_Node000006"><a xlink:href="_geometry_definition_8cpp.html" target="_top" xlink:title="Implementation of the GeometryDefinition class.">
<polygon fill="white" stroke="#666666" points="235.5,-74 102.5,-74 102.5,-55 235.5,-55 235.5,-74"/>
<text text-anchor="middle" x="169" y="-62" font-family="Helvetica,sans-Serif" font-size="10.00">GeometryDefinition.cpp</text>
</a>
</g>
</g>
<!-- Node4&#45;&gt;Node6 -->
<g id="edge5_Node000004_Node000006" class="edge">
<title>Node4&#45;&gt;Node6</title>
<g id="a_edge5_Node000004_Node000006"><a xlink:title=" ">
<path fill="none" stroke="#63b8ff" d="M432.7,-108.37C371.49,-98.42 279.12,-83.4 221.52,-74.04"/>
<polygon fill="#63b8ff" stroke="#63b8ff" points="432.19,-111.83 442.62,-109.98 433.31,-104.93 432.19,-111.83"/>
</a>
</g>
</g>
<!-- Node7 -->
<g id="Node000007" class="node">
<title>Node7</title>
<g id="a_Node000007"><a xlink:href="_list_of_geometry_definitions_8cpp.html" target="_top" xlink:title="Implementation of the ListOfGeometryDefinitions class.">
<polygon fill="white" stroke="#666666" points="420.5,-74 253.5,-74 253.5,-55 420.5,-55 420.5,-74"/>
<text text-anchor="middle" x="337" y="-62" font-family="Helvetica,sans-Serif" font-size="10.00">ListOfGeometryDefinitions.cpp</text>
</a>
</g>
</g>
<!-- Node4&#45;&gt;Node7 -->
<g id="edge6_Node000004_Node000007" class="edge">
<title>Node4&#45;&gt;Node7</title>
<g id="a_edge6_Node000004_Node000007"><a xlink:title=" ">
<path fill="none" stroke="#63b8ff" d="M460.12,-106.8C430.63,-96.91 389.07,-82.97 362.58,-74.08"/>
<polygon fill="#63b8ff" stroke="#63b8ff" points="459.02,-110.12 469.61,-109.98 461.25,-103.49 459.02,-110.12"/>
</a>
</g>
</g>
<!-- Node8 -->
<g id="Node000008" class="node">
<title>Node8</title>
<g id="a_Node000008"><a xlink:href="_mixed_geometry_8cpp.html" target="_top" xlink:title="Implementation of the MixedGeometry class.">
<polygon fill="white" stroke="#666666" points="551.5,-74 438.5,-74 438.5,-55 551.5,-55 551.5,-74"/>
<text text-anchor="middle" x="495" y="-62" font-family="Helvetica,sans-Serif" font-size="10.00">MixedGeometry.cpp</text>
</a>
</g>
</g>
<!-- Node4&#45;&gt;Node8 -->
<g id="edge7_Node000004_Node000008" class="edge">
<title>Node4&#45;&gt;Node8</title>
<g id="a_edge7_Node000004_Node000008"><a xlink:title=" ">
<path fill="none" stroke="#63b8ff" d="M495,-99.66C495,-90.93 495,-80.99 495,-74.09"/>
<polygon fill="#63b8ff" stroke="#63b8ff" points="491.5,-99.75 495,-109.75 498.5,-99.75 491.5,-99.75"/>
</a>
</g>
</g>
<!-- Node9 -->
<g id="Node000009" class="node">
<title>Node9</title>
<g id="a_Node000009"><a xlink:href="_parametric_geometry_8cpp.html" target="_top" xlink:title="Implementation of the ParametricGeometry class.">
<polygon fill="white" stroke="#666666" points="706.5,-74 569.5,-74 569.5,-55 706.5,-55 706.5,-74"/>
<text text-anchor="middle" x="638" y="-62" font-family="Helvetica,sans-Serif" font-size="10.00">ParametricGeometry.cpp</text>
</a>
</g>
</g>
<!-- Node4&#45;&gt;Node9 -->
<g id="edge8_Node000004_Node000009" class="edge">
<title>Node4&#45;&gt;Node9</title>
<g id="a_edge8_Node000004_Node000009"><a xlink:title=" ">
<path fill="none" stroke="#63b8ff" d="M527.59,-106.42C554.12,-96.59 590.93,-82.95 614.61,-74.17"/>
<polygon fill="#63b8ff" stroke="#63b8ff" points="526.14,-103.23 517.98,-109.98 528.57,-109.79 526.14,-103.23"/>
</a>
</g>
</g>
<!-- Node4&#45;&gt;Node10 -->
<g id="edge9_Node000004_Node000010" class="edge">
<title>Node4&#45;&gt;Node10</title>
<g id="a_edge9_Node000004_Node000010"><a xlink:title=" ">
<path fill="none" stroke="#63b8ff" d="M552.78,-108.19C608.46,-98.25 691.74,-83.39 743.91,-74.08"/>
<polygon fill="#63b8ff" stroke="#63b8ff" points="551.95,-104.78 542.72,-109.98 553.18,-111.67 551.95,-104.78"/>
</a>
</g>
</g>
<!-- Node11 -->
<g id="Node000011" class="node">
<title>Node11</title>
<g id="a_Node000011"><a xlink:href="_spatial_validator_8cpp.html" target="_top" xlink:title="Definition of SpatialValidator.">
<polygon fill="white" stroke="#666666" points="848.5,-19 735.5,-19 735.5,0 848.5,0 848.5,-19"/>
<text text-anchor="middle" x="792" y="-7" font-family="Helvetica,sans-Serif" font-size="10.00">SpatialValidator.cpp</text>
</a>
</g>
</g>
<!-- Node10&#45;&gt;Node11 -->
<g id="edge10_Node000010_Node000011" class="edge">
<title>Node10&#45;&gt;Node11</title>
<g id="a_edge10_Node000010_Node000011"><a xlink:title=" ">
<path fill="none" stroke="#63b8ff" d="M792,-44.66C792,-35.93 792,-25.99 792,-19.09"/>
<polygon fill="#63b8ff" stroke="#63b8ff" points="788.5,-44.75 792,-54.75 795.5,-44.75 788.5,-44.75"/>
</a>
</g>
</g>
</g>
</svg>

<g id="navigator" transform="translate(0 0)" fill="#404254">
  <rect fill="#f2f5e9" fill-opacity="0.5" stroke="#606060" stroke-width=".5" x="0" y="0" width="60" height="60"/>
  <use id="zoomplus" xlink:href="#zoomPlus" x="17" y="9" onmousedown="handleZoom(evt,'in')"/>
  <use id="zoomminus" xlink:href="#zoomMin" x="42" y="9" onmousedown="handleZoom(evt,'out')"/>
  <use id="reset" xlink:href="#resetDef" x="30" y="36" onmousedown="handleReset()"/>
   <use id="arrowup" xlink:href="#arrowUp" x="0" y="0" onmousedown="handlePan(0,-1)"/>
  <use id="arrowright" xlink:href="#arrowRight" x="0" y="0" onmousedown="handlePan(1,0)"/>
  <use id="arrowdown" xlink:href="#arrowDown" x="0" y="0" onmousedown="handlePan(0,1)"/>
  <use id="arrowleft" xlink:href="#arrowLeft" x="0" y="0" onmousedown="handlePan(-1,0)"/>
</g>
<svg viewBox="0 0 15 15" width="100%" height="30px" preserveAspectRatio="xMaxYMin meet">
 <g id="arrow_out" transform="scale(0.3 0.3)">
  <a xlink:href="_parametric_object_8h__dep__incl_org.svg" target="_base">
   <rect id="button" ry="5" rx="5" y="6" x="6" height="38" width="38"
        fill="#f2f5e9" fill-opacity="0.5" stroke="#606060" stroke-width="1.0"/>
   <path id="arrow"
     d="M 11.500037,31.436501 C 11.940474,20.09759 22.043105,11.32322 32.158766,21.979434 L 37.068811,17.246167 C 37.068811,17.246167 37.088388,32 37.088388,32 L 22.160133,31.978069 C 22.160133,31.978069 26.997745,27.140456 26.997745,27.140456 C 18.528582,18.264221 13.291696,25.230495 11.500037,31.436501 z"
     style="fill:#404040;"/>
  </a>
 </g>
</svg>

<style type='text/css'>
<![CDATA[
[data-mouse-over-selected='false'] { opacity: 0.7; }
[data-mouse-over-selected='true']  { opacity: 1.0; }
]]>
</style>
<script type="application/ecmascript"><![CDATA[
document.addEventListener('DOMContentLoaded', (event) => {
  highlightEdges();
  highlightAdjacentNodes();
});
]]></script>
</svg>
