<?xml version="1.0" encoding="UTF-8" standalone="no"?>
<!DOCTYPE svg PUBLIC "-//W3C//DTD SVG 1.1//EN"
 "http://www.w3.org/Graphics/SVG/1.1/DTD/svg11.dtd">
<!-- Generated by graphviz version 2.43.0 (0)
 -->
<!-- Title: Port.h Pages: 1 -->
<!--zoomable 252 -->
<svg id="main" version="1.1" xmlns="http://www.w3.org/2000/svg" xmlns:xlink="http://www.w3.org/1999/xlink" xml:space="preserve" onload="init(evt)">
<style type="text/css"><![CDATA[
.edge:hover path { stroke: red; }
.edge:hover polygon { stroke: red; fill: red; }
]]></style>
<script type="text/javascript"><![CDATA[
var edges = document.getElementsByTagName('g');
if (edges && edges.length) {
  for (var i=0;i<edges.length;i++) {
    if (edges[i].id.substr(0,4)=='edge') {
      edges[i].setAttribute('class','edge');
    }
  }
}
]]></script>
        <defs>
                <circle id="rim" cx="0" cy="0" r="7"/>
                <circle id="rim2" cx="0" cy="0" r="3.5"/>
                <g id="zoomPlus">
                        <use xlink:href="#rim" fill="#404040">
                                <set attributeName="fill" to="#808080" begin="zoomplus.mouseover" end="zoomplus.mouseout"/>
                        </use>
                        <path d="M-4,0h8M0,-4v8" fill="none" stroke="white" stroke-width="1.5" pointer-events="none"/>
                </g>
                <g id="zoomMin">
                        <use xlink:href="#rim" fill="#404040">
                                <set attributeName="fill" to="#808080" begin="zoomminus.mouseover" end="zoomminus.mouseout"/>
                        </use>
                        <path d="M-4,0h8" fill="none" stroke="white" stroke-width="1.5" pointer-events="none"/>
                </g>
                <g id="dirArrow">
                        <path fill="none" stroke="white" stroke-width="1.5" d="M0,-3.0v7 M-2.5,-0.5L0,-3.0L2.5,-0.5"/>
                </g>
               <g id="resetDef">
                       <use xlink:href="#rim2" fill="#404040">
                               <set attributeName="fill" to="#808080" begin="reset.mouseover" end="reset.mouseout"/>
                       </use>
               </g>
        </defs>

<script type="text/javascript">
var viewWidth = 1348;
var viewHeight = 252;
var sectionId = 'dynsection-1';
</script>
<script xlink:href="svgpan.js"/>
<svg id="graph" class="graph">
<g id="viewport">
<title>Port.h</title>
<polygon fill="white" stroke="transparent" points="-4,4 -4,-248 1343.5,-248 1343.5,4 -4,4"/>
<!-- Node1 -->
<g id="node1" class="node">
<title>Node1</title>
<g id="a_node1"><a xlink:title="Definition of Port, the SBase derived class of the comp package.">
<polygon fill="#bfbfbf" stroke="black" points="1112,-224.5 1112,-243.5 1157,-243.5 1157,-224.5 1112,-224.5"/>
<text text-anchor="middle" x="1134.5" y="-231.5" font-family="Helvetica,sans-Serif" font-size="10.00">Port.h</text>
</a>
</g>
</g>
<!-- Node2 -->
<g id="node2" class="node">
<title>Node2</title>
<g id="a_node2"><a xlink:href="_comp_extension_types_8h.html" target="_top" xlink:title="Include all SBML types of Comp extension in a single header file.">
<polygon fill="white" stroke="black" points="1209.5,-56.5 1209.5,-75.5 1339.5,-75.5 1339.5,-56.5 1209.5,-56.5"/>
<text text-anchor="middle" x="1274.5" y="-63.5" font-family="Helvetica,sans-Serif" font-size="10.00">CompExtensionTypes.h</text>
</a>
</g>
</g>
<!-- Node1&#45;&gt;Node2 -->
<g id="edge1" class="edge">
<title>Node1&#45;&gt;Node2</title>
<path fill="none" stroke="midnightblue" d="M1148.66,-216.21C1178.13,-181.26 1245.16,-101.79 1267.27,-75.57"/>
<polygon fill="midnightblue" stroke="midnightblue" points="1145.8,-214.17 1142.03,-224.08 1151.15,-218.69 1145.8,-214.17"/>
</g>
<!-- Node5 -->
<g id="node5" class="node">
<title>Node5</title>
<g id="a_node5"><a xlink:href="_comp_base_8cpp.html" target="_top" xlink:title="Implementation of CompBase, the base class of extension entities plugged in SBase derived classes in ...">
<polygon fill="white" stroke="black" points="0,-56.5 0,-75.5 89,-75.5 89,-56.5 0,-56.5"/>
<text text-anchor="middle" x="44.5" y="-63.5" font-family="Helvetica,sans-Serif" font-size="10.00">CompBase.cpp</text>
</a>
</g>
</g>
<!-- Node1&#45;&gt;Node5 -->
<g id="edge4" class="edge">
<title>Node1&#45;&gt;Node5</title>
<path fill="none" stroke="midnightblue" d="M1101.94,-228.24C973.99,-209.52 493.42,-138.83 98.5,-76 95.5,-75.52 92.4,-75.02 89.28,-74.52"/>
<polygon fill="midnightblue" stroke="midnightblue" points="1101.48,-231.71 1111.88,-229.7 1102.49,-224.79 1101.48,-231.71"/>
</g>
<!-- Node6 -->
<g id="node6" class="node">
<title>Node6</title>
<g id="a_node6"><a xlink:href="_deletion_8cpp.html" target="_top" xlink:title="Implementation of Deletion, the SBaseRef derived class of deletions package.">
<polygon fill="white" stroke="black" points="1218.5,-168.5 1218.5,-187.5 1296.5,-187.5 1296.5,-168.5 1218.5,-168.5"/>
<text text-anchor="middle" x="1257.5" y="-175.5" font-family="Helvetica,sans-Serif" font-size="10.00">Deletion.cpp</text>
</a>
</g>
</g>
<!-- Node1&#45;&gt;Node6 -->
<g id="edge5" class="edge">
<title>Node1&#45;&gt;Node6</title>
<path fill="none" stroke="midnightblue" d="M1163.27,-220.37C1186.31,-210.26 1217.98,-196.35 1238.1,-187.52"/>
<polygon fill="midnightblue" stroke="midnightblue" points="1161.74,-217.22 1153.99,-224.44 1164.55,-223.63 1161.74,-217.22"/>
</g>
<!-- Node7 -->
<g id="node7" class="node">
<title>Node7</title>
<g id="a_node7"><a xlink:href="_list_of_ports_8h.html" target="_top" xlink:title="Definition of ListOfPorts, the SBase derived class of ports package.">
<polygon fill="white" stroke="black" points="968,-168.5 968,-187.5 1047,-187.5 1047,-168.5 968,-168.5"/>
<text text-anchor="middle" x="1007.5" y="-175.5" font-family="Helvetica,sans-Serif" font-size="10.00">ListOfPorts.h</text>
</a>
</g>
</g>
<!-- Node1&#45;&gt;Node7 -->
<g id="edge6" class="edge">
<title>Node1&#45;&gt;Node7</title>
<path fill="none" stroke="midnightblue" d="M1105.11,-220.5C1081.3,-210.38 1048.39,-196.39 1027.53,-187.52"/>
<polygon fill="midnightblue" stroke="midnightblue" points="1103.8,-223.75 1114.38,-224.44 1106.54,-217.31 1103.8,-223.75"/>
</g>
<!-- Node20 -->
<g id="node20" class="node">
<title>Node20</title>
<g id="a_node20"><a xlink:href="_port_8cpp.html" target="_top" xlink:title="Implementation of Port, the SBase&#45;derived class of the comp package.">
<polygon fill="white" stroke="black" points="1106.5,-112.5 1106.5,-131.5 1162.5,-131.5 1162.5,-112.5 1106.5,-112.5"/>
<text text-anchor="middle" x="1134.5" y="-119.5" font-family="Helvetica,sans-Serif" font-size="10.00">Port.cpp</text>
</a>
</g>
</g>
<!-- Node1&#45;&gt;Node20 -->
<g id="edge26" class="edge">
<title>Node1&#45;&gt;Node20</title>
<path fill="none" stroke="midnightblue" d="M1134.5,-214.35C1134.5,-190.25 1134.5,-149.31 1134.5,-131.59"/>
<polygon fill="midnightblue" stroke="midnightblue" points="1131,-214.37 1134.5,-224.37 1138,-214.37 1131,-214.37"/>
</g>
<!-- Node3 -->
<g id="node3" class="node">
<title>Node3</title>
<g id="a_node3"><a xlink:href="_comp_flattening_converter_8cpp.html" target="_top" xlink:title="Implementation of a first flattening converter.">
<polygon fill="white" stroke="black" points="867.5,-0.5 867.5,-19.5 1029.5,-19.5 1029.5,-0.5 867.5,-0.5"/>
<text text-anchor="middle" x="948.5" y="-7.5" font-family="Helvetica,sans-Serif" font-size="10.00">CompFlatteningConverter.cpp</text>
</a>
</g>
</g>
<!-- Node2&#45;&gt;Node3 -->
<g id="edge2" class="edge">
<title>Node2&#45;&gt;Node3</title>
<path fill="none" stroke="midnightblue" d="M1212.87,-54.79C1151.27,-44.59 1057.64,-29.08 999.91,-19.52"/>
<polygon fill="midnightblue" stroke="midnightblue" points="1212.41,-58.26 1222.84,-56.44 1213.55,-51.36 1212.41,-58.26"/>
</g>
<!-- Node4 -->
<g id="node4" class="node">
<title>Node4</title>
<g id="a_node4"><a xlink:href="_comp_validator_8cpp.html" target="_top" xlink:title=" ">
<polygon fill="white" stroke="black" points="1220.5,-0.5 1220.5,-19.5 1328.5,-19.5 1328.5,-0.5 1220.5,-0.5"/>
<text text-anchor="middle" x="1274.5" y="-7.5" font-family="Helvetica,sans-Serif" font-size="10.00">CompValidator.cpp</text>
</a>
</g>
</g>
<!-- Node2&#45;&gt;Node4 -->
<g id="edge3" class="edge">
<title>Node2&#45;&gt;Node4</title>
<path fill="none" stroke="midnightblue" d="M1274.5,-45.8C1274.5,-36.91 1274.5,-26.78 1274.5,-19.75"/>
<polygon fill="midnightblue" stroke="midnightblue" points="1271,-46.08 1274.5,-56.08 1278,-46.08 1271,-46.08"/>
</g>
<!-- Node7&#45;&gt;Node2 -->
<g id="edge7" class="edge">
<title>Node7&#45;&gt;Node2</title>
<path fill="none" stroke="midnightblue" d="M995.09,-159.93C986.33,-145.62 978.02,-125.44 989.5,-112 996.63,-103.66 1127.56,-85.65 1209.45,-75.12"/>
<polygon fill="midnightblue" stroke="midnightblue" points="992.25,-161.98 1000.71,-168.35 998.07,-158.09 992.25,-161.98"/>
</g>
<!-- Node8 -->
<g id="node8" class="node">
<title>Node8</title>
<g id="a_node8"><a xlink:href="_comp_model_plugin_8h.html" target="_top" xlink:title="Definition of CompModelPlugin, the plugin class of comp package for the Model element.">
<polygon fill="white" stroke="black" points="613.5,-112.5 613.5,-131.5 727.5,-131.5 727.5,-112.5 613.5,-112.5"/>
<text text-anchor="middle" x="670.5" y="-119.5" font-family="Helvetica,sans-Serif" font-size="10.00">CompModelPlugin.h</text>
</a>
</g>
</g>
<!-- Node7&#45;&gt;Node8 -->
<g id="edge8" class="edge">
<title>Node7&#45;&gt;Node8</title>
<path fill="none" stroke="midnightblue" d="M957.81,-169.04C895.13,-158.99 787.78,-141.79 723.55,-131.5"/>
<polygon fill="midnightblue" stroke="midnightblue" points="957.42,-172.52 967.85,-170.65 958.53,-165.61 957.42,-172.52"/>
</g>
<!-- Node18 -->
<g id="node18" class="node">
<title>Node18</title>
<g id="a_node18"><a xlink:href="_list_of_ports_8cpp.html" target="_top" xlink:title="Implementation of ListOfPorts.">
<polygon fill="white" stroke="black" points="998.5,-112.5 998.5,-131.5 1088.5,-131.5 1088.5,-112.5 998.5,-112.5"/>
<text text-anchor="middle" x="1043.5" y="-119.5" font-family="Helvetica,sans-Serif" font-size="10.00">ListOfPorts.cpp</text>
</a>
</g>
</g>
<!-- Node7&#45;&gt;Node18 -->
<g id="edge23" class="edge">
<title>Node7&#45;&gt;Node18</title>
<path fill="none" stroke="midnightblue" d="M1019.12,-159.57C1025.32,-150.27 1032.67,-139.25 1037.67,-131.75"/>
<polygon fill="midnightblue" stroke="midnightblue" points="1016.08,-157.82 1013.44,-168.08 1021.9,-161.7 1016.08,-157.82"/>
</g>
<!-- Node19 -->
<g id="node19" class="node">
<title>Node19</title>
<g id="a_node19"><a xlink:href="_model_definition_8cpp.html" target="_top" xlink:title="Implementation of ModelDefinition, the SBase&#45;derived class of the comp package.">
<polygon fill="white" stroke="black" points="828.5,-112.5 828.5,-131.5 942.5,-131.5 942.5,-112.5 828.5,-112.5"/>
<text text-anchor="middle" x="885.5" y="-119.5" font-family="Helvetica,sans-Serif" font-size="10.00">ModelDefinition.cpp</text>
</a>
</g>
</g>
<!-- Node7&#45;&gt;Node19 -->
<g id="edge24" class="edge">
<title>Node7&#45;&gt;Node19</title>
<path fill="none" stroke="midnightblue" d="M978.96,-164.37C956.11,-154.26 924.69,-140.35 904.74,-131.52"/>
<polygon fill="midnightblue" stroke="midnightblue" points="977.61,-167.6 988.17,-168.44 980.44,-161.2 977.61,-167.6"/>
</g>
<!-- Node7&#45;&gt;Node20 -->
<g id="edge25" class="edge">
<title>Node7&#45;&gt;Node20</title>
<path fill="none" stroke="midnightblue" d="M1036.89,-164.5C1060.7,-154.38 1093.61,-140.39 1114.47,-131.52"/>
<polygon fill="midnightblue" stroke="midnightblue" points="1035.46,-161.31 1027.62,-168.44 1038.2,-167.75 1035.46,-161.31"/>
</g>
<!-- Node8&#45;&gt;Node2 -->
<g id="edge9" class="edge">
<title>Node8&#45;&gt;Node2</title>
<path fill="none" stroke="midnightblue" d="M737.72,-116.03C838.27,-108.43 1033.73,-92.99 1199.5,-76 1202.76,-75.67 1206.1,-75.31 1209.47,-74.94"/>
<polygon fill="midnightblue" stroke="midnightblue" points="737.41,-112.54 727.71,-116.79 737.94,-119.52 737.41,-112.54"/>
</g>
<!-- Node8&#45;&gt;Node5 -->
<g id="edge13" class="edge">
<title>Node8&#45;&gt;Node5</title>
<path fill="none" stroke="midnightblue" d="M603.07,-117.59C495.91,-111.75 280.25,-98.25 98.5,-76 95.48,-75.63 92.37,-75.21 89.25,-74.76"/>
<polygon fill="midnightblue" stroke="midnightblue" points="602.92,-121.09 613.1,-118.13 603.3,-114.1 602.92,-121.09"/>
</g>
<!-- Node9 -->
<g id="node9" class="node">
<title>Node9</title>
<g id="a_node9"><a xlink:href="_comp_extension_8cpp.html" target="_top" xlink:title="Implementation of CompExtension, the core module of comp package.">
<polygon fill="white" stroke="black" points="562,-0.5 562,-19.5 675,-19.5 675,-0.5 562,-0.5"/>
<text text-anchor="middle" x="618.5" y="-7.5" font-family="Helvetica,sans-Serif" font-size="10.00">CompExtension.cpp</text>
</a>
</g>
</g>
<!-- Node8&#45;&gt;Node9 -->
<g id="edge10" class="edge">
<title>Node8&#45;&gt;Node9</title>
<path fill="none" stroke="midnightblue" d="M627.37,-108.73C611.33,-101.84 594.79,-91.43 585.5,-76 573.75,-56.48 594.84,-32.28 608.39,-19.62"/>
<polygon fill="midnightblue" stroke="midnightblue" points="626.11,-111.99 636.7,-112.39 628.67,-105.48 626.11,-111.99"/>
</g>
<!-- Node10 -->
<g id="node10" class="node">
<title>Node10</title>
<g id="a_node10"><a xlink:href="_comp_model_plugin_8cpp.html" target="_top" xlink:title="Implementation of CompModelPlugin, the plugin class of comp package for the SBase element.">
<polygon fill="white" stroke="black" points="764,-56.5 764,-75.5 889,-75.5 889,-56.5 764,-56.5"/>
<text text-anchor="middle" x="826.5" y="-63.5" font-family="Helvetica,sans-Serif" font-size="10.00">CompModelPlugin.cpp</text>
</a>
</g>
</g>
<!-- Node8&#45;&gt;Node10 -->
<g id="edge11" class="edge">
<title>Node8&#45;&gt;Node10</title>
<path fill="none" stroke="midnightblue" d="M704.67,-109.17C734.04,-99 775.7,-84.59 801.9,-75.52"/>
<polygon fill="midnightblue" stroke="midnightblue" points="703.52,-105.86 695.22,-112.44 705.81,-112.48 703.52,-105.86"/>
</g>
<!-- Node11 -->
<g id="node11" class="node">
<title>Node11</title>
<g id="a_node11"><a xlink:href="_comp_s_b_m_l_document_plugin_8cpp.html" target="_top" xlink:title="Implementation of CompSBMLDocumentPlugin, the plugin class of comp package for the SBase element.">
<polygon fill="white" stroke="black" points="907,-56.5 907,-75.5 1080,-75.5 1080,-56.5 907,-56.5"/>
<text text-anchor="middle" x="993.5" y="-63.5" font-family="Helvetica,sans-Serif" font-size="10.00">CompSBMLDocumentPlugin.cpp</text>
</a>
</g>
</g>
<!-- Node8&#45;&gt;Node11 -->
<g id="edge12" class="edge">
<title>Node8&#45;&gt;Node11</title>
<path fill="none" stroke="midnightblue" d="M731.57,-110.79C792.6,-100.59 885.37,-85.08 942.56,-75.52"/>
<polygon fill="midnightblue" stroke="midnightblue" points="730.97,-107.34 721.68,-112.44 732.12,-114.25 730.97,-107.34"/>
</g>
<!-- Node12 -->
<g id="node12" class="node">
<title>Node12</title>
<g id="a_node12"><a xlink:href="_replaced_by_8cpp.html" target="_top" xlink:title="Implementation of ReplacedBy, the SBaseRef derived class of the comp package.">
<polygon fill="white" stroke="black" points="1098,-56.5 1098,-75.5 1191,-75.5 1191,-56.5 1098,-56.5"/>
<text text-anchor="middle" x="1144.5" y="-63.5" font-family="Helvetica,sans-Serif" font-size="10.00">ReplacedBy.cpp</text>
</a>
</g>
</g>
<!-- Node8&#45;&gt;Node12 -->
<g id="edge14" class="edge">
<title>Node8&#45;&gt;Node12</title>
<path fill="none" stroke="midnightblue" d="M737.77,-114.85C820.47,-107.03 965.06,-92.55 1088.5,-76 1091.53,-75.59 1094.64,-75.15 1097.78,-74.7"/>
<polygon fill="midnightblue" stroke="midnightblue" points="737.37,-111.37 727.75,-115.79 738.03,-118.34 737.37,-111.37"/>
</g>
<!-- Node13 -->
<g id="node13" class="node">
<title>Node13</title>
<g id="a_node13"><a xlink:href="_replaced_element_8cpp.html" target="_top" xlink:title="Implementation of ReplacedElement, the SBaseRef derived class of replacedElements package.">
<polygon fill="white" stroke="black" points="107.5,-56.5 107.5,-75.5 229.5,-75.5 229.5,-56.5 107.5,-56.5"/>
<text text-anchor="middle" x="168.5" y="-63.5" font-family="Helvetica,sans-Serif" font-size="10.00">ReplacedElement.cpp</text>
</a>
</g>
</g>
<!-- Node8&#45;&gt;Node13 -->
<g id="edge15" class="edge">
<title>Node8&#45;&gt;Node13</title>
<path fill="none" stroke="midnightblue" d="M603.47,-114.52C518.49,-106.19 367.51,-91.01 238.5,-76 235.58,-75.66 232.59,-75.3 229.57,-74.94"/>
<polygon fill="midnightblue" stroke="midnightblue" points="603.2,-118.01 613.5,-115.5 603.89,-111.05 603.2,-118.01"/>
</g>
<!-- Node14 -->
<g id="node14" class="node">
<title>Node14</title>
<g id="a_node14"><a xlink:href="_replacing_8cpp.html" target="_top" xlink:title="Implementation of Replacing, the SBaseRef derived class of Replacings package.">
<polygon fill="white" stroke="black" points="248,-56.5 248,-75.5 333,-75.5 333,-56.5 248,-56.5"/>
<text text-anchor="middle" x="290.5" y="-63.5" font-family="Helvetica,sans-Serif" font-size="10.00">Replacing.cpp</text>
</a>
</g>
</g>
<!-- Node8&#45;&gt;Node14 -->
<g id="edge16" class="edge">
<title>Node8&#45;&gt;Node14</title>
<path fill="none" stroke="midnightblue" d="M603.4,-112.6C536.84,-104.08 431.97,-90.16 341.5,-76 338.75,-75.57 335.91,-75.11 333.06,-74.64"/>
<polygon fill="midnightblue" stroke="midnightblue" points="602.98,-116.07 613.34,-113.86 603.87,-109.13 602.98,-116.07"/>
</g>
<!-- Node15 -->
<g id="node15" class="node">
<title>Node15</title>
<g id="a_node15"><a xlink:href="_s_base_ref_8cpp.html" target="_top" xlink:title="Implementation of SBaseRef, the SBase&#45;derived class of the comp package.">
<polygon fill="white" stroke="black" points="351,-56.5 351,-75.5 434,-75.5 434,-56.5 351,-56.5"/>
<text text-anchor="middle" x="392.5" y="-63.5" font-family="Helvetica,sans-Serif" font-size="10.00">SBaseRef.cpp</text>
</a>
</g>
</g>
<!-- Node8&#45;&gt;Node15 -->
<g id="edge17" class="edge">
<title>Node8&#45;&gt;Node15</title>
<path fill="none" stroke="midnightblue" d="M616.49,-110.51C563.12,-100.14 482.64,-84.51 434.07,-75.08"/>
<polygon fill="midnightblue" stroke="midnightblue" points="615.97,-113.97 626.45,-112.44 617.3,-107.1 615.97,-113.97"/>
</g>
<!-- Node16 -->
<g id="node16" class="node">
<title>Node16</title>
<g id="a_node16"><a xlink:href="_submodel_8cpp.html" target="_top" xlink:title="Implementation of Submodel, the SBase&#45;derived class of the comp package.">
<polygon fill="white" stroke="black" points="452.5,-56.5 452.5,-75.5 538.5,-75.5 538.5,-56.5 452.5,-56.5"/>
<text text-anchor="middle" x="495.5" y="-63.5" font-family="Helvetica,sans-Serif" font-size="10.00">Submodel.cpp</text>
</a>
</g>
</g>
<!-- Node8&#45;&gt;Node16 -->
<g id="edge18" class="edge">
<title>Node8&#45;&gt;Node16</title>
<path fill="none" stroke="midnightblue" d="M633.03,-109.44C600.03,-99.26 552.74,-84.66 523.1,-75.52"/>
<polygon fill="midnightblue" stroke="midnightblue" points="632.18,-112.84 642.77,-112.44 634.25,-106.15 632.18,-112.84"/>
</g>
<!-- Node17 -->
<g id="node17" class="node">
<title>Node17</title>
<g id="a_node17"><a xlink:href="_comp_flattening_converter_8h.html" target="_top" xlink:title="Definition of a first flattening converter.">
<polygon fill="white" stroke="black" points="595,-56.5 595,-75.5 746,-75.5 746,-56.5 595,-56.5"/>
<text text-anchor="middle" x="670.5" y="-63.5" font-family="Helvetica,sans-Serif" font-size="10.00">CompFlatteningConverter.h</text>
</a>
</g>
</g>
<!-- Node8&#45;&gt;Node17 -->
<g id="edge19" class="edge">
<title>Node8&#45;&gt;Node17</title>
<path fill="none" stroke="midnightblue" d="M664.03,-102.1C663.4,-93.14 663.84,-82.86 665.37,-75.75"/>
<polygon fill="midnightblue" stroke="midnightblue" points="660.57,-102.62 665.33,-112.08 667.51,-101.71 660.57,-102.62"/>
</g>
<!-- Node17&#45;&gt;Node3 -->
<g id="edge22" class="edge">
<title>Node17&#45;&gt;Node3</title>
<path fill="none" stroke="midnightblue" d="M724.69,-54.47C777.23,-44.27 855.94,-28.98 904.66,-19.52"/>
<polygon fill="midnightblue" stroke="midnightblue" points="723.7,-51.1 714.55,-56.44 725.03,-57.97 723.7,-51.1"/>
</g>
<!-- Node17&#45;&gt;Node8 -->
<g id="edge21" class="edge">
<title>Node17&#45;&gt;Node8</title>
<path fill="none" stroke="midnightblue" d="M676.96,-85.69C677.61,-94.64 677.18,-104.93 675.67,-112.08"/>
<polygon fill="midnightblue" stroke="midnightblue" points="680.42,-85.2 675.63,-75.75 673.48,-86.13 680.42,-85.2"/>
</g>
<!-- Node17&#45;&gt;Node9 -->
<g id="edge20" class="edge">
<title>Node17&#45;&gt;Node9</title>
<path fill="none" stroke="midnightblue" d="M654.82,-48.72C645.66,-39.2 634.45,-27.56 626.93,-19.75"/>
<polygon fill="midnightblue" stroke="midnightblue" points="652.46,-51.31 661.91,-56.08 657.5,-46.45 652.46,-51.31"/>
</g>
</g>
</svg>
        <g id="navigator" transform="translate(0 0)" fill="#404254">
                <rect fill="#f2f5e9" fill-opacity="0.5" stroke="#606060" stroke-width=".5" x="0" y="0" width="60" height="60"/>
                <use id="zoomplus" xlink:href="#zoomPlus" x="17" y="9" onmousedown="handleZoom(evt,'in')"/>
                <use id="zoomminus" xlink:href="#zoomMin" x="42" y="9" onmousedown="handleZoom(evt,'out')"/>
                <use id="reset" xlink:href="#resetDef" x="30" y="36" onmousedown="handleReset()"/>
                <g id="arrowUp" xlink:href="#dirArrow" transform="translate(30 24)" onmousedown="handlePan(0,-1)">
                  <use xlink:href="#rim" fill="#404040">
                        <set attributeName="fill" to="#808080" begin="arrowUp.mouseover" end="arrowUp.mouseout"/>
                  </use>
                  <path fill="none" stroke="white" stroke-width="1.5" d="M0,-3.0v7 M-2.5,-0.5L0,-3.0L2.5,-0.5"/>
                </g>
                <g id="arrowRight" xlink:href="#dirArrow" transform="rotate(90) translate(36 -43)" onmousedown="handlePan(1,0)">
                  <use xlink:href="#rim" fill="#404040">
                        <set attributeName="fill" to="#808080" begin="arrowRight.mouseover" end="arrowRight.mouseout"/>
                  </use>
                  <path fill="none" stroke="white" stroke-width="1.5" d="M0,-3.0v7 M-2.5,-0.5L0,-3.0L2.5,-0.5"/>
                </g>
                <g id="arrowDown" xlink:href="#dirArrow" transform="rotate(180) translate(-30 -48)" onmousedown="handlePan(0,1)">
                  <use xlink:href="#rim" fill="#404040">
                        <set attributeName="fill" to="#808080" begin="arrowDown.mouseover" end="arrowDown.mouseout"/>
                  </use>
                  <path fill="none" stroke="white" stroke-width="1.5" d="M0,-3.0v7 M-2.5,-0.5L0,-3.0L2.5,-0.5"/>
                </g>
                <g id="arrowLeft" xlink:href="#dirArrow" transform="rotate(270) translate(-36 17)" onmousedown="handlePan(-1,0)">
                  <use xlink:href="#rim" fill="#404040">
                        <set attributeName="fill" to="#808080" begin="arrowLeft.mouseover" end="arrowLeft.mouseout"/>
                  </use>
                  <path fill="none" stroke="white" stroke-width="1.5" d="M0,-3.0v7 M-2.5,-0.5L0,-3.0L2.5,-0.5"/>
                </g>
        </g>
        <svg viewBox="0 0 15 15" width="100%" height="30px" preserveAspectRatio="xMaxYMin meet">
         <g id="arrow_out" transform="scale(0.3 0.3)">
          <a xlink:href="_port_8h__dep__incl_org.svg" target="_base">
           <rect id="button" ry="5" rx="5" y="6" x="6" height="38" width="38"
                fill="#f2f5e9" fill-opacity="0.5" stroke="#606060" stroke-width="1.0"/>
           <path id="arrow"
             d="M 11.500037,31.436501 C 11.940474,20.09759 22.043105,11.32322 32.158766,21.979434 L 37.068811,17.246167 C 37.068811,17.246167 37.088388,32 37.088388,32 L 22.160133,31.978069 C 22.160133,31.978069 26.997745,27.140456 26.997745,27.140456 C 18.528582,18.264221 13.291696,25.230495 11.500037,31.436501 z"
             style="fill:#404040;"/>
          </a>
         </g>
        </svg>
</svg>
