<?xml version="1.0" encoding="UTF-8" standalone="no"?>
<!DOCTYPE svg PUBLIC "-//W3C//DTD SVG 1.1//EN"
 "http://www.w3.org/Graphics/SVG/1.1/DTD/svg11.dtd">
<!-- Generated by graphviz version 2.43.0 (0)
 -->
<!-- Title: PossibleSpeciesFeatureValue.h Pages: 1 -->
<svg width="845pt" height="364pt"
 viewBox="0.00 0.00 844.50 364.00" xmlns="http://www.w3.org/2000/svg" xmlns:xlink="http://www.w3.org/1999/xlink">
<g id="graph0" class="graph" transform="scale(1 1) rotate(0) translate(4 360)">
<title>PossibleSpeciesFeatureValue.h</title>
<polygon fill="white" stroke="transparent" points="-4,4 -4,-360 840.5,-360 840.5,4 -4,4"/>
<!-- Node1 -->
<g id="node1" class="node">
<title>Node1</title>
<g id="a_node1"><a xlink:title=": Implementation of the PossibleSpeciesFeatureValue class">
<polygon fill="#bfbfbf" stroke="black" points="545.5,-336.5 545.5,-355.5 712.5,-355.5 712.5,-336.5 545.5,-336.5"/>
<text text-anchor="middle" x="629" y="-343.5" font-family="Helvetica,sans-Serif" font-size="10.00">PossibleSpeciesFeatureValue.h</text>
</a>
</g>
</g>
<!-- Node2 -->
<g id="node2" class="node">
<title>Node2</title>
<g id="a_node2"><a xlink:href="_multi_extension_types_8h.html" target="_top" xlink:title=": Implementation of the MultiExtensionTypes class">
<polygon fill="white" stroke="black" points="350,-56.5 350,-75.5 476,-75.5 476,-56.5 350,-56.5"/>
<text text-anchor="middle" x="413" y="-63.5" font-family="Helvetica,sans-Serif" font-size="10.00">MultiExtensionTypes.h</text>
</a>
</g>
</g>
<!-- Node1&#45;&gt;Node2 -->
<g id="edge1" class="edge">
<title>Node1&#45;&gt;Node2</title>
<path fill="none" stroke="midnightblue" d="M629,-326.25C629,-304.36 629,-267.05 629,-235 629,-235 629,-235 629,-177 629,-107.77 539.81,-82.09 476.06,-72.58"/>
<polygon fill="midnightblue" stroke="midnightblue" points="625.5,-326.44 629,-336.44 632.5,-326.44 625.5,-326.44"/>
</g>
<!-- Node4 -->
<g id="node4" class="node">
<title>Node4</title>
<g id="a_node4"><a xlink:href="_possible_species_feature_value_8cpp.html" target="_top" xlink:title=": Implementation of the PossibleSpeciesFeatureValue class">
<polygon fill="white" stroke="black" points="657.5,-280.5 657.5,-299.5 836.5,-299.5 836.5,-280.5 657.5,-280.5"/>
<text text-anchor="middle" x="747" y="-287.5" font-family="Helvetica,sans-Serif" font-size="10.00">PossibleSpeciesFeatureValue.cpp</text>
</a>
</g>
</g>
<!-- Node1&#45;&gt;Node4 -->
<g id="edge3" class="edge">
<title>Node1&#45;&gt;Node4</title>
<path fill="none" stroke="midnightblue" d="M656.9,-332.23C678.97,-322.13 709.18,-308.31 728.39,-299.52"/>
<polygon fill="midnightblue" stroke="midnightblue" points="655.33,-329.1 647.7,-336.44 658.25,-335.46 655.33,-329.1"/>
</g>
<!-- Node5 -->
<g id="node5" class="node">
<title>Node5</title>
<g id="a_node5"><a xlink:href="_species_feature_type_8h.html" target="_top" xlink:title=": Implementation of the SpeciesFeatureType class">
<polygon fill="white" stroke="black" points="457,-280.5 457,-299.5 579,-299.5 579,-280.5 457,-280.5"/>
<text text-anchor="middle" x="518" y="-287.5" font-family="Helvetica,sans-Serif" font-size="10.00">SpeciesFeatureType.h</text>
</a>
</g>
</g>
<!-- Node1&#45;&gt;Node5 -->
<g id="edge4" class="edge">
<title>Node1&#45;&gt;Node5</title>
<path fill="none" stroke="midnightblue" d="M601.99,-331.86C581.41,-321.85 553.66,-308.35 535.79,-299.65"/>
<polygon fill="midnightblue" stroke="midnightblue" points="600.64,-335.1 611.17,-336.32 603.7,-328.8 600.64,-335.1"/>
</g>
<!-- Node3 -->
<g id="node3" class="node">
<title>Node3</title>
<g id="a_node3"><a xlink:href="_multi_validator_8cpp.html" target="_top" xlink:title=": Implementation of the MultiValidator class">
<polygon fill="white" stroke="black" points="361,-0.5 361,-19.5 465,-19.5 465,-0.5 361,-0.5"/>
<text text-anchor="middle" x="413" y="-7.5" font-family="Helvetica,sans-Serif" font-size="10.00">MultiValidator.cpp</text>
</a>
</g>
</g>
<!-- Node2&#45;&gt;Node3 -->
<g id="edge2" class="edge">
<title>Node2&#45;&gt;Node3</title>
<path fill="none" stroke="midnightblue" d="M413,-45.8C413,-36.91 413,-26.78 413,-19.75"/>
<polygon fill="midnightblue" stroke="midnightblue" points="409.5,-46.08 413,-56.08 416.5,-46.08 409.5,-46.08"/>
</g>
<!-- Node5&#45;&gt;Node2 -->
<g id="edge5" class="edge">
<title>Node5&#45;&gt;Node2</title>
<path fill="none" stroke="midnightblue" d="M543.18,-275C554.19,-267.4 565.96,-256.91 572,-244 596.88,-190.87 607.39,-158.79 572,-112 559.37,-95.3 509.43,-83.01 468.84,-75.53"/>
<polygon fill="midnightblue" stroke="midnightblue" points="541.17,-272.13 534.63,-280.46 544.94,-278.03 541.17,-272.13"/>
</g>
<!-- Node6 -->
<g id="node6" class="node">
<title>Node6</title>
<g id="a_node6"><a xlink:href="_multi_species_type_8h.html" target="_top" xlink:title=": Implementation of the MultiSpeciesType class">
<polygon fill="white" stroke="black" points="278,-224.5 278,-243.5 388,-243.5 388,-224.5 278,-224.5"/>
<text text-anchor="middle" x="333" y="-231.5" font-family="Helvetica,sans-Serif" font-size="10.00">MultiSpeciesType.h</text>
</a>
</g>
</g>
<!-- Node5&#45;&gt;Node6 -->
<g id="edge6" class="edge">
<title>Node5&#45;&gt;Node6</title>
<path fill="none" stroke="midnightblue" d="M478.83,-277.57C443.93,-267.38 393.65,-252.7 362.18,-243.52"/>
<polygon fill="midnightblue" stroke="midnightblue" points="478.11,-281 488.69,-280.44 480.07,-274.28 478.11,-281"/>
</g>
<!-- Node13 -->
<g id="node13" class="node">
<title>Node13</title>
<g id="a_node13"><a xlink:href="_species_feature_type_8cpp.html" target="_top" xlink:title=": Implementation of the SpeciesFeatureType class">
<polygon fill="white" stroke="black" points="429,-224.5 429,-243.5 563,-243.5 563,-224.5 429,-224.5"/>
<text text-anchor="middle" x="496" y="-231.5" font-family="Helvetica,sans-Serif" font-size="10.00">SpeciesFeatureType.cpp</text>
</a>
</g>
</g>
<!-- Node5&#45;&gt;Node13 -->
<g id="edge18" class="edge">
<title>Node5&#45;&gt;Node13</title>
<path fill="none" stroke="midnightblue" d="M510.54,-270.69C506.83,-261.59 502.52,-251.01 499.57,-243.75"/>
<polygon fill="midnightblue" stroke="midnightblue" points="507.35,-272.14 514.37,-280.08 513.84,-269.5 507.35,-272.14"/>
</g>
<!-- Node6&#45;&gt;Node2 -->
<g id="edge7" class="edge">
<title>Node6&#45;&gt;Node2</title>
<path fill="none" stroke="midnightblue" d="M300.86,-220.21C284.97,-212.66 266.39,-201.86 253,-188 227.88,-162 201.59,-140.37 224,-112 239.58,-92.28 301.05,-80.27 349.71,-73.68"/>
<polygon fill="midnightblue" stroke="midnightblue" points="299.78,-223.56 310.34,-224.48 302.66,-217.18 299.78,-223.56"/>
</g>
<!-- Node7 -->
<g id="node7" class="node">
<title>Node7</title>
<g id="a_node7"><a xlink:href="_multi_model_plugin_8h.html" target="_top" xlink:title=": Implementation of the MultiModelPlugin class">
<polygon fill="white" stroke="black" points="67,-112.5 67,-131.5 177,-131.5 177,-112.5 67,-112.5"/>
<text text-anchor="middle" x="122" y="-119.5" font-family="Helvetica,sans-Serif" font-size="10.00">MultiModelPlugin.h</text>
</a>
</g>
</g>
<!-- Node6&#45;&gt;Node7 -->
<g id="edge8" class="edge">
<title>Node6&#45;&gt;Node7</title>
<path fill="none" stroke="midnightblue" d="M279.08,-221.98C251.49,-214.88 218.11,-203.93 191,-188 164.89,-172.66 140.67,-145.79 129.11,-131.89"/>
<polygon fill="midnightblue" stroke="midnightblue" points="278.41,-225.42 288.96,-224.43 280.09,-218.63 278.41,-225.42"/>
</g>
<!-- Node10 -->
<g id="node10" class="node">
<title>Node10</title>
<g id="a_node10"><a xlink:href="_binding_site_species_type_8h.html" target="_top" xlink:title=": Implementation of the BindingSiteSpeciesType class">
<polygon fill="white" stroke="black" points="262.5,-168.5 262.5,-187.5 403.5,-187.5 403.5,-168.5 262.5,-168.5"/>
<text text-anchor="middle" x="333" y="-175.5" font-family="Helvetica,sans-Serif" font-size="10.00">BindingSiteSpeciesType.h</text>
</a>
</g>
</g>
<!-- Node6&#45;&gt;Node10 -->
<g id="edge12" class="edge">
<title>Node6&#45;&gt;Node10</title>
<path fill="none" stroke="midnightblue" d="M333,-213.8C333,-204.91 333,-194.78 333,-187.75"/>
<polygon fill="midnightblue" stroke="midnightblue" points="329.5,-214.08 333,-224.08 336.5,-214.08 329.5,-214.08"/>
</g>
<!-- Node12 -->
<g id="node12" class="node">
<title>Node12</title>
<g id="a_node12"><a xlink:href="_multi_species_type_8cpp.html" target="_top" xlink:title=": Implementation of the MultiSpeciesType class">
<polygon fill="white" stroke="black" points="441,-112.5 441,-131.5 563,-131.5 563,-112.5 441,-112.5"/>
<text text-anchor="middle" x="502" y="-119.5" font-family="Helvetica,sans-Serif" font-size="10.00">MultiSpeciesType.cpp</text>
</a>
</g>
</g>
<!-- Node6&#45;&gt;Node12 -->
<g id="edge17" class="edge">
<title>Node6&#45;&gt;Node12</title>
<path fill="none" stroke="midnightblue" d="M358.43,-219.42C374.12,-210.83 394.52,-199.24 412,-188 441.34,-169.13 474.18,-144.45 490.91,-131.61"/>
<polygon fill="midnightblue" stroke="midnightblue" points="356.46,-216.51 349.34,-224.36 359.8,-222.67 356.46,-216.51"/>
</g>
<!-- Node7&#45;&gt;Node2 -->
<g id="edge9" class="edge">
<title>Node7&#45;&gt;Node2</title>
<path fill="none" stroke="midnightblue" d="M178.04,-110.6C233.04,-100.4 315.9,-85.02 367.11,-75.52"/>
<polygon fill="midnightblue" stroke="midnightblue" points="177.3,-107.18 168.11,-112.44 178.58,-114.06 177.3,-107.18"/>
</g>
<!-- Node8 -->
<g id="node8" class="node">
<title>Node8</title>
<g id="a_node8"><a xlink:href="_multi_extension_8cpp.html" target="_top" xlink:title=": Implementation of the MultiExtension class">
<polygon fill="white" stroke="black" points="0,-56.5 0,-75.5 110,-75.5 110,-56.5 0,-56.5"/>
<text text-anchor="middle" x="55" y="-63.5" font-family="Helvetica,sans-Serif" font-size="10.00">MultiExtension.cpp</text>
</a>
</g>
</g>
<!-- Node7&#45;&gt;Node8 -->
<g id="edge10" class="edge">
<title>Node7&#45;&gt;Node8</title>
<path fill="none" stroke="midnightblue" d="M103.17,-105.82C91.16,-96.15 76.03,-83.95 65.96,-75.83"/>
<polygon fill="midnightblue" stroke="midnightblue" points="101.25,-108.77 111.24,-112.32 105.65,-103.32 101.25,-108.77"/>
</g>
<!-- Node9 -->
<g id="node9" class="node">
<title>Node9</title>
<g id="a_node9"><a xlink:href="_multi_model_plugin_8cpp.html" target="_top" xlink:title=": Implementation of the MultiModelPlugin class">
<polygon fill="white" stroke="black" points="128,-56.5 128,-75.5 250,-75.5 250,-56.5 128,-56.5"/>
<text text-anchor="middle" x="189" y="-63.5" font-family="Helvetica,sans-Serif" font-size="10.00">MultiModelPlugin.cpp</text>
</a>
</g>
</g>
<!-- Node7&#45;&gt;Node9 -->
<g id="edge11" class="edge">
<title>Node7&#45;&gt;Node9</title>
<path fill="none" stroke="midnightblue" d="M140.83,-105.82C152.84,-96.15 167.97,-83.95 178.04,-75.83"/>
<polygon fill="midnightblue" stroke="midnightblue" points="138.35,-103.32 132.76,-112.32 142.75,-108.77 138.35,-103.32"/>
</g>
<!-- Node10&#45;&gt;Node2 -->
<g id="edge13" class="edge">
<title>Node10&#45;&gt;Node2</title>
<path fill="none" stroke="midnightblue" d="M359.09,-163.11C371.28,-155.42 385.05,-144.81 394,-132 406.25,-114.46 410.69,-89.01 412.23,-75.76"/>
<polygon fill="midnightblue" stroke="midnightblue" points="356.98,-160.29 350.18,-168.41 360.56,-166.31 356.98,-160.29"/>
</g>
<!-- Node10&#45;&gt;Node7 -->
<g id="edge14" class="edge">
<title>Node10&#45;&gt;Node7</title>
<path fill="none" stroke="midnightblue" d="M289.86,-165.96C250.01,-155.76 191.64,-140.82 155.28,-131.52"/>
<polygon fill="midnightblue" stroke="midnightblue" points="289.01,-169.35 299.57,-168.44 290.75,-162.57 289.01,-169.35"/>
</g>
<!-- Node11 -->
<g id="node11" class="node">
<title>Node11</title>
<g id="a_node11"><a xlink:href="_binding_site_species_type_8cpp.html" target="_top" xlink:title=": Implementation of the BindingSiteSpeciesType class">
<polygon fill="white" stroke="black" points="233,-112.5 233,-131.5 385,-131.5 385,-112.5 233,-112.5"/>
<text text-anchor="middle" x="309" y="-119.5" font-family="Helvetica,sans-Serif" font-size="10.00">BindingSiteSpeciesType.cpp</text>
</a>
</g>
</g>
<!-- Node10&#45;&gt;Node11 -->
<g id="edge15" class="edge">
<title>Node10&#45;&gt;Node11</title>
<path fill="none" stroke="midnightblue" d="M324.86,-158.69C320.82,-149.59 316.12,-139.01 312.89,-131.75"/>
<polygon fill="midnightblue" stroke="midnightblue" points="321.78,-160.37 329.04,-168.08 328.17,-157.52 321.78,-160.37"/>
</g>
<!-- Node10&#45;&gt;Node12 -->
<g id="edge16" class="edge">
<title>Node10&#45;&gt;Node12</title>
<path fill="none" stroke="midnightblue" d="M369.6,-165.3C401.45,-155.13 446.84,-140.62 475.35,-131.52"/>
<polygon fill="midnightblue" stroke="midnightblue" points="368.24,-162.07 359.78,-168.44 370.37,-168.73 368.24,-162.07"/>
</g>
</g>
</svg>
