<?xml version="1.0" encoding="UTF-8" standalone="no"?>
<!DOCTYPE svg PUBLIC "-//W3C//DTD SVG 1.1//EN"
 "http://www.w3.org/Graphics/SVG/1.1/DTD/svg11.dtd">
<!-- Generated by graphviz version 2.43.0 (0)
 -->
<!-- Title: QualModelPlugin.h Pages: 1 -->
<svg width="395pt" height="140pt"
 viewBox="0.00 0.00 394.50 140.00" xmlns="http://www.w3.org/2000/svg" xmlns:xlink="http://www.w3.org/1999/xlink">
<g id="graph0" class="graph" transform="scale(1 1) rotate(0) translate(4 136)">
<title>QualModelPlugin.h</title>
<polygon fill="white" stroke="transparent" points="-4,4 -4,-136 390.5,-136 390.5,4 -4,4"/>
<!-- Node1 -->
<g id="node1" class="node">
<title>Node1</title>
<g id="a_node1"><a xlink:title="Definition of QualModelPlugin, the plugin class of qual package for the Model element.">
<polygon fill="#bfbfbf" stroke="black" points="142,-112.5 142,-131.5 250,-131.5 250,-112.5 142,-112.5"/>
<text text-anchor="middle" x="196" y="-119.5" font-family="Helvetica,sans-Serif" font-size="10.00">QualModelPlugin.h</text>
</a>
</g>
</g>
<!-- Node2 -->
<g id="node2" class="node">
<title>Node2</title>
<g id="a_node2"><a xlink:href="_qual_extension_types_8h.html" target="_top" xlink:title="Include all SBML types of qual extension in a single header file.">
<polygon fill="white" stroke="black" points="0,-56.5 0,-75.5 124,-75.5 124,-56.5 0,-56.5"/>
<text text-anchor="middle" x="62" y="-63.5" font-family="Helvetica,sans-Serif" font-size="10.00">QualExtensionTypes.h</text>
</a>
</g>
</g>
<!-- Node1&#45;&gt;Node2 -->
<g id="edge1" class="edge">
<title>Node1&#45;&gt;Node2</title>
<path fill="none" stroke="midnightblue" d="M165.32,-108.64C140.18,-98.5 105.25,-84.43 83.13,-75.52"/>
<polygon fill="midnightblue" stroke="midnightblue" points="164.18,-111.95 174.77,-112.44 166.8,-105.46 164.18,-111.95"/>
</g>
<!-- Node4 -->
<g id="node4" class="node">
<title>Node4</title>
<g id="a_node4"><a xlink:href="_qual_extension_8cpp.html" target="_top" xlink:title="Implementation of QualExtension, the core module of qual package.">
<polygon fill="white" stroke="black" points="142.5,-56.5 142.5,-75.5 249.5,-75.5 249.5,-56.5 142.5,-56.5"/>
<text text-anchor="middle" x="196" y="-63.5" font-family="Helvetica,sans-Serif" font-size="10.00">QualExtension.cpp</text>
</a>
</g>
</g>
<!-- Node1&#45;&gt;Node4 -->
<g id="edge3" class="edge">
<title>Node1&#45;&gt;Node4</title>
<path fill="none" stroke="midnightblue" d="M196,-101.8C196,-92.91 196,-82.78 196,-75.75"/>
<polygon fill="midnightblue" stroke="midnightblue" points="192.5,-102.08 196,-112.08 199.5,-102.08 192.5,-102.08"/>
</g>
<!-- Node5 -->
<g id="node5" class="node">
<title>Node5</title>
<g id="a_node5"><a xlink:href="_qual_model_plugin_8cpp.html" target="_top" xlink:title="Implementation of QualModelPlugin, the plugin class of qual package for the Model element.">
<polygon fill="white" stroke="black" points="267.5,-56.5 267.5,-75.5 386.5,-75.5 386.5,-56.5 267.5,-56.5"/>
<text text-anchor="middle" x="327" y="-63.5" font-family="Helvetica,sans-Serif" font-size="10.00">QualModelPlugin.cpp</text>
</a>
</g>
</g>
<!-- Node1&#45;&gt;Node5 -->
<g id="edge4" class="edge">
<title>Node1&#45;&gt;Node5</title>
<path fill="none" stroke="midnightblue" d="M226.32,-108.5C250.88,-98.38 284.82,-84.39 306.34,-75.52"/>
<polygon fill="midnightblue" stroke="midnightblue" points="224.67,-105.4 216.76,-112.44 227.34,-111.87 224.67,-105.4"/>
</g>
<!-- Node3 -->
<g id="node3" class="node">
<title>Node3</title>
<g id="a_node3"><a xlink:href="_qual_validator_8cpp.html" target="_top" xlink:title="Base class for SBML Validators.">
<polygon fill="white" stroke="black" points="11,-0.5 11,-19.5 113,-19.5 113,-0.5 11,-0.5"/>
<text text-anchor="middle" x="62" y="-7.5" font-family="Helvetica,sans-Serif" font-size="10.00">QualValidator.cpp</text>
</a>
</g>
</g>
<!-- Node2&#45;&gt;Node3 -->
<g id="edge2" class="edge">
<title>Node2&#45;&gt;Node3</title>
<path fill="none" stroke="midnightblue" d="M62,-45.8C62,-36.91 62,-26.78 62,-19.75"/>
<polygon fill="midnightblue" stroke="midnightblue" points="58.5,-46.08 62,-56.08 65.5,-46.08 58.5,-46.08"/>
</g>
</g>
</svg>
