<?xml version="1.0" encoding="UTF-8" standalone="no"?>
<!DOCTYPE svg PUBLIC "-//W3C//DTD SVG 1.1//EN"
 "http://www.w3.org/Graphics/SVG/1.1/DTD/svg11.dtd">
<!-- Generated by graphviz version 2.43.0 (0)
 -->
<!-- Title: QualExtension.h Pages: 1 -->
<svg width="1012pt" height="364pt"
 viewBox="0.00 0.00 1011.50 364.00" xmlns="http://www.w3.org/2000/svg" xmlns:xlink="http://www.w3.org/1999/xlink">
<g id="graph0" class="graph" transform="scale(1 1) rotate(0) translate(4 360)">
<title>QualExtension.h</title>
<polygon fill="white" stroke="transparent" points="-4,4 -4,-360 1007.5,-360 1007.5,4 -4,4"/>
<!-- Node1 -->
<g id="node1" class="node">
<title>Node1</title>
<g id="a_node1"><a xlink:title="Definition of QualExtension, the core module of qual package.">
<polygon fill="#bfbfbf" stroke="black" points="614.5,-336.5 614.5,-355.5 710.5,-355.5 710.5,-336.5 614.5,-336.5"/>
<text text-anchor="middle" x="662.5" y="-343.5" font-family="Helvetica,sans-Serif" font-size="10.00">QualExtension.h</text>
</a>
</g>
</g>
<!-- Node2 -->
<g id="node2" class="node">
<title>Node2</title>
<g id="a_node2"><a xlink:href="_qual_extension_types_8h.html" target="_top" xlink:title="Include all SBML types of qual extension in a single header file.">
<polygon fill="white" stroke="black" points="508.5,-56.5 508.5,-75.5 632.5,-75.5 632.5,-56.5 508.5,-56.5"/>
<text text-anchor="middle" x="570.5" y="-63.5" font-family="Helvetica,sans-Serif" font-size="10.00">QualExtensionTypes.h</text>
</a>
</g>
</g>
<!-- Node1&#45;&gt;Node2 -->
<g id="edge1" class="edge">
<title>Node1&#45;&gt;Node2</title>
<path fill="none" stroke="midnightblue" d="M720.63,-338.38C817.99,-325.66 1003.5,-293.73 1003.5,-235 1003.5,-235 1003.5,-235 1003.5,-177 1003.5,-101.38 752.27,-77.14 632.54,-69.88"/>
<polygon fill="midnightblue" stroke="midnightblue" points="720.11,-334.92 710.63,-339.66 721,-341.86 720.11,-334.92"/>
</g>
<!-- Node4 -->
<g id="node4" class="node">
<title>Node4</title>
<g id="a_node4"><a xlink:href="_qual_extension_8cpp.html" target="_top" xlink:title="Implementation of QualExtension, the core module of qual package.">
<polygon fill="white" stroke="black" points="0,-56.5 0,-75.5 107,-75.5 107,-56.5 0,-56.5"/>
<text text-anchor="middle" x="53.5" y="-63.5" font-family="Helvetica,sans-Serif" font-size="10.00">QualExtension.cpp</text>
</a>
</g>
</g>
<!-- Node1&#45;&gt;Node4 -->
<g id="edge3" class="edge">
<title>Node1&#45;&gt;Node4</title>
<path fill="none" stroke="midnightblue" d="M604.16,-341.27C444.2,-330.27 10.5,-294.92 10.5,-235 10.5,-235 10.5,-235 10.5,-177 10.5,-136.81 35.71,-93.68 47.52,-75.67"/>
<polygon fill="midnightblue" stroke="midnightblue" points="604.08,-344.77 614.29,-341.96 604.55,-337.79 604.08,-344.77"/>
</g>
<!-- Node5 -->
<g id="node5" class="node">
<title>Node5</title>
<g id="a_node5"><a xlink:href="_qual_s_b_m_l_document_plugin_8h.html" target="_top" xlink:title="Implementation of the QualSBMLDocumentPlugin class.">
<polygon fill="white" stroke="black" points="39,-112.5 39,-131.5 194,-131.5 194,-112.5 39,-112.5"/>
<text text-anchor="middle" x="116.5" y="-119.5" font-family="Helvetica,sans-Serif" font-size="10.00">QualSBMLDocumentPlugin.h</text>
</a>
</g>
</g>
<!-- Node1&#45;&gt;Node5 -->
<g id="edge4" class="edge">
<title>Node1&#45;&gt;Node5</title>
<path fill="none" stroke="midnightblue" d="M609.68,-334.22C574.53,-326.37 527.62,-314.57 487.5,-300 343.96,-247.86 181.15,-159.21 131.59,-131.52"/>
<polygon fill="midnightblue" stroke="midnightblue" points="609.21,-337.7 619.73,-336.43 610.71,-330.86 609.21,-337.7"/>
</g>
<!-- Node7 -->
<g id="node7" class="node">
<title>Node7</title>
<g id="a_node7"><a xlink:href="_default_term_8h.html" target="_top" xlink:title="Implementation of the DefaultTerm class.">
<polygon fill="white" stroke="black" points="527.5,-280.5 527.5,-299.5 613.5,-299.5 613.5,-280.5 527.5,-280.5"/>
<text text-anchor="middle" x="570.5" y="-287.5" font-family="Helvetica,sans-Serif" font-size="10.00">DefaultTerm.h</text>
</a>
</g>
</g>
<!-- Node1&#45;&gt;Node7 -->
<g id="edge8" class="edge">
<title>Node1&#45;&gt;Node7</title>
<path fill="none" stroke="midnightblue" d="M638.95,-331.18C622.02,-321.24 599.72,-308.15 585.24,-299.65"/>
<polygon fill="midnightblue" stroke="midnightblue" points="637.32,-334.28 647.72,-336.32 640.87,-328.24 637.32,-334.28"/>
</g>
<!-- Node9 -->
<g id="node9" class="node">
<title>Node9</title>
<g id="a_node9"><a xlink:href="_function_term_8h.html" target="_top" xlink:title="Implementation of the FunctionTerm class.">
<polygon fill="white" stroke="black" points="617,-224.5 617,-243.5 708,-243.5 708,-224.5 617,-224.5"/>
<text text-anchor="middle" x="662.5" y="-231.5" font-family="Helvetica,sans-Serif" font-size="10.00">FunctionTerm.h</text>
</a>
</g>
</g>
<!-- Node1&#45;&gt;Node9 -->
<g id="edge22" class="edge">
<title>Node1&#45;&gt;Node9</title>
<path fill="none" stroke="midnightblue" d="M662.5,-326.35C662.5,-302.25 662.5,-261.31 662.5,-243.59"/>
<polygon fill="midnightblue" stroke="midnightblue" points="659,-326.37 662.5,-336.37 666,-326.37 659,-326.37"/>
</g>
<!-- Node11 -->
<g id="node11" class="node">
<title>Node11</title>
<g id="a_node11"><a xlink:href="_transition_8h.html" target="_top" xlink:title="Implementation of the Transition class.">
<polygon fill="white" stroke="black" points="763,-168.5 763,-187.5 836,-187.5 836,-168.5 763,-168.5"/>
<text text-anchor="middle" x="799.5" y="-175.5" font-family="Helvetica,sans-Serif" font-size="10.00">Transition.h</text>
</a>
</g>
</g>
<!-- Node1&#45;&gt;Node11 -->
<g id="edge35" class="edge">
<title>Node1&#45;&gt;Node11</title>
<path fill="none" stroke="midnightblue" d="M691.65,-331.93C723.14,-316.08 771.84,-286.15 794.5,-244 804.25,-225.86 802.67,-200.66 800.93,-187.61"/>
<polygon fill="midnightblue" stroke="midnightblue" points="689.94,-328.87 682.48,-336.39 693,-335.16 689.94,-328.87"/>
</g>
<!-- Node15 -->
<g id="node15" class="node">
<title>Node15</title>
<g id="a_node15"><a xlink:href="_input_8h.html" target="_top" xlink:title="Implementation of the Input class.">
<polygon fill="white" stroke="black" points="847.5,-224.5 847.5,-243.5 897.5,-243.5 897.5,-224.5 847.5,-224.5"/>
<text text-anchor="middle" x="872.5" y="-231.5" font-family="Helvetica,sans-Serif" font-size="10.00">Input.h</text>
</a>
</g>
</g>
<!-- Node1&#45;&gt;Node15 -->
<g id="edge23" class="edge">
<title>Node1&#45;&gt;Node15</title>
<path fill="none" stroke="midnightblue" d="M720.84,-339.12C754.49,-333.4 796.2,-322.15 827.5,-300 848.34,-285.26 862.65,-257.62 868.92,-243.61"/>
<polygon fill="midnightblue" stroke="midnightblue" points="720.01,-335.7 710.67,-340.72 721.1,-342.62 720.01,-335.7"/>
</g>
<!-- Node17 -->
<g id="node17" class="node">
<title>Node17</title>
<g id="a_node17"><a xlink:href="_output_8h.html" target="_top" xlink:title="Implementation of the Output class.">
<polygon fill="white" stroke="black" points="726,-224.5 726,-243.5 785,-243.5 785,-224.5 726,-224.5"/>
<text text-anchor="middle" x="755.5" y="-231.5" font-family="Helvetica,sans-Serif" font-size="10.00">Output.h</text>
</a>
</g>
</g>
<!-- Node1&#45;&gt;Node17 -->
<g id="edge27" class="edge">
<title>Node1&#45;&gt;Node17</title>
<path fill="none" stroke="midnightblue" d="M676.38,-328.59C696.43,-304.87 732.78,-261.87 748.24,-243.59"/>
<polygon fill="midnightblue" stroke="midnightblue" points="673.58,-326.47 669.8,-336.37 678.93,-330.99 673.58,-326.47"/>
</g>
<!-- Node19 -->
<g id="node19" class="node">
<title>Node19</title>
<g id="a_node19"><a xlink:href="_qualitative_species_8h.html" target="_top" xlink:title="Implementation of the QualitativeSpecies class.">
<polygon fill="white" stroke="black" points="362,-168.5 362,-187.5 479,-187.5 479,-168.5 362,-168.5"/>
<text text-anchor="middle" x="420.5" y="-175.5" font-family="Helvetica,sans-Serif" font-size="10.00">QualitativeSpecies.h</text>
</a>
</g>
</g>
<!-- Node1&#45;&gt;Node19 -->
<g id="edge31" class="edge">
<title>Node1&#45;&gt;Node19</title>
<path fill="none" stroke="midnightblue" d="M607.48,-334.07C579.56,-327.01 545.86,-316.07 518.5,-300 470.48,-271.8 436.29,-210.63 424.76,-187.82"/>
<polygon fill="midnightblue" stroke="midnightblue" points="606.94,-337.54 617.49,-336.5 608.6,-330.74 606.94,-337.54"/>
</g>
<!-- Node3 -->
<g id="node3" class="node">
<title>Node3</title>
<g id="a_node3"><a xlink:href="_qual_validator_8cpp.html" target="_top" xlink:title="Base class for SBML Validators.">
<polygon fill="white" stroke="black" points="519.5,-0.5 519.5,-19.5 621.5,-19.5 621.5,-0.5 519.5,-0.5"/>
<text text-anchor="middle" x="570.5" y="-7.5" font-family="Helvetica,sans-Serif" font-size="10.00">QualValidator.cpp</text>
</a>
</g>
</g>
<!-- Node2&#45;&gt;Node3 -->
<g id="edge2" class="edge">
<title>Node2&#45;&gt;Node3</title>
<path fill="none" stroke="midnightblue" d="M570.5,-45.8C570.5,-36.91 570.5,-26.78 570.5,-19.75"/>
<polygon fill="midnightblue" stroke="midnightblue" points="567,-46.08 570.5,-56.08 574,-46.08 567,-46.08"/>
</g>
<!-- Node5&#45;&gt;Node2 -->
<g id="edge5" class="edge">
<title>Node5&#45;&gt;Node2</title>
<path fill="none" stroke="midnightblue" d="M198.25,-111.28C287.31,-100.68 427.8,-83.97 508.31,-74.4"/>
<polygon fill="midnightblue" stroke="midnightblue" points="197.7,-107.82 188.19,-112.47 198.53,-114.77 197.7,-107.82"/>
</g>
<!-- Node5&#45;&gt;Node4 -->
<g id="edge6" class="edge">
<title>Node5&#45;&gt;Node4</title>
<path fill="none" stroke="midnightblue" d="M98.46,-105.54C87.23,-95.91 73.18,-83.87 63.81,-75.83"/>
<polygon fill="midnightblue" stroke="midnightblue" points="96.51,-108.47 106.38,-112.32 101.06,-103.16 96.51,-108.47"/>
</g>
<!-- Node6 -->
<g id="node6" class="node">
<title>Node6</title>
<g id="a_node6"><a xlink:href="_qual_s_b_m_l_document_plugin_8cpp.html" target="_top" xlink:title="Implementation of QualSBMLDocumentPlugin, the plugin class of qual package for the SBase element.">
<polygon fill="white" stroke="black" points="125,-56.5 125,-75.5 292,-75.5 292,-56.5 125,-56.5"/>
<text text-anchor="middle" x="208.5" y="-63.5" font-family="Helvetica,sans-Serif" font-size="10.00">QualSBMLDocumentPlugin.cpp</text>
</a>
</g>
</g>
<!-- Node5&#45;&gt;Node6 -->
<g id="edge7" class="edge">
<title>Node5&#45;&gt;Node6</title>
<path fill="none" stroke="midnightblue" d="M140.05,-107.18C156.98,-97.24 179.28,-84.15 193.76,-75.65"/>
<polygon fill="midnightblue" stroke="midnightblue" points="138.13,-104.24 131.28,-112.32 141.68,-110.28 138.13,-104.24"/>
</g>
<!-- Node7&#45;&gt;Node2 -->
<g id="edge9" class="edge">
<title>Node7&#45;&gt;Node2</title>
<path fill="none" stroke="midnightblue" d="M532.93,-276.54C517.89,-269.5 502.12,-259.01 493.5,-244 489.08,-236.29 491.49,-232.66 493.5,-224 507.63,-163.08 548.88,-98.54 564.45,-75.66"/>
<polygon fill="midnightblue" stroke="midnightblue" points="531.56,-279.76 542.13,-280.49 534.32,-273.33 531.56,-279.76"/>
</g>
<!-- Node8 -->
<g id="node8" class="node">
<title>Node8</title>
<g id="a_node8"><a xlink:href="_default_term_8cpp.html" target="_top" xlink:title="Implementation of the DefaultTerm class.">
<polygon fill="white" stroke="black" points="502,-224.5 502,-243.5 599,-243.5 599,-224.5 502,-224.5"/>
<text text-anchor="middle" x="550.5" y="-231.5" font-family="Helvetica,sans-Serif" font-size="10.00">DefaultTerm.cpp</text>
</a>
</g>
</g>
<!-- Node7&#45;&gt;Node8 -->
<g id="edge10" class="edge">
<title>Node7&#45;&gt;Node8</title>
<path fill="none" stroke="midnightblue" d="M563.72,-270.69C560.35,-261.59 556.43,-251.01 553.74,-243.75"/>
<polygon fill="midnightblue" stroke="midnightblue" points="560.44,-271.92 567.2,-280.08 567.01,-269.49 560.44,-271.92"/>
</g>
<!-- Node7&#45;&gt;Node9 -->
<g id="edge11" class="edge">
<title>Node7&#45;&gt;Node9</title>
<path fill="none" stroke="midnightblue" d="M594.05,-275.18C610.98,-265.24 633.28,-252.15 647.76,-243.65"/>
<polygon fill="midnightblue" stroke="midnightblue" points="592.13,-272.24 585.28,-280.32 595.68,-278.28 592.13,-272.24"/>
</g>
<!-- Node9&#45;&gt;Node2 -->
<g id="edge12" class="edge">
<title>Node9&#45;&gt;Node2</title>
<path fill="none" stroke="midnightblue" d="M649.29,-216.12C634.51,-196.68 610.55,-163.35 594.5,-132 584.63,-112.73 576.78,-88.42 572.98,-75.69"/>
<polygon fill="midnightblue" stroke="midnightblue" points="646.68,-218.47 655.55,-224.26 652.22,-214.2 646.68,-218.47"/>
</g>
<!-- Node10 -->
<g id="node10" class="node">
<title>Node10</title>
<g id="a_node10"><a xlink:href="_function_term_8cpp.html" target="_top" xlink:title="Implementation of the FunctionTerm class.">
<polygon fill="white" stroke="black" points="636.5,-112.5 636.5,-131.5 738.5,-131.5 738.5,-112.5 636.5,-112.5"/>
<text text-anchor="middle" x="687.5" y="-119.5" font-family="Helvetica,sans-Serif" font-size="10.00">FunctionTerm.cpp</text>
</a>
</g>
</g>
<!-- Node9&#45;&gt;Node10 -->
<g id="edge13" class="edge">
<title>Node9&#45;&gt;Node10</title>
<path fill="none" stroke="midnightblue" d="M661.37,-214.27C661.06,-201.12 661.6,-183.24 665.5,-168 668.95,-154.52 676.68,-140.31 681.99,-131.55"/>
<polygon fill="midnightblue" stroke="midnightblue" points="657.88,-214.58 661.8,-224.42 664.87,-214.28 657.88,-214.58"/>
</g>
<!-- Node9&#45;&gt;Node11 -->
<g id="edge14" class="edge">
<title>Node9&#45;&gt;Node11</title>
<path fill="none" stroke="midnightblue" d="M693.52,-220.77C719.26,-210.63 755.19,-196.47 777.89,-187.52"/>
<polygon fill="midnightblue" stroke="midnightblue" points="692.23,-217.52 684.21,-224.44 694.79,-224.03 692.23,-217.52"/>
</g>
<!-- Node11&#45;&gt;Node2 -->
<g id="edge15" class="edge">
<title>Node11&#45;&gt;Node2</title>
<path fill="none" stroke="midnightblue" d="M789.97,-159.59C780.95,-144.74 766.03,-123.95 747.5,-112 713.12,-89.84 668.44,-78.59 632.58,-72.88"/>
<polygon fill="midnightblue" stroke="midnightblue" points="786.99,-161.44 795.03,-168.34 793.05,-157.94 786.99,-161.44"/>
</g>
<!-- Node11&#45;&gt;Node10 -->
<g id="edge20" class="edge">
<title>Node11&#45;&gt;Node10</title>
<path fill="none" stroke="midnightblue" d="M772.25,-163.86C751.48,-153.85 723.48,-140.35 705.45,-131.65"/>
<polygon fill="midnightblue" stroke="midnightblue" points="770.98,-167.13 781.51,-168.32 774.02,-160.83 770.98,-167.13"/>
</g>
<!-- Node12 -->
<g id="node12" class="node">
<title>Node12</title>
<g id="a_node12"><a xlink:href="_qual_model_plugin_8h.html" target="_top" xlink:title="Definition of QualModelPlugin, the plugin class of qual package for the Model element.">
<polygon fill="white" stroke="black" points="358.5,-112.5 358.5,-131.5 466.5,-131.5 466.5,-112.5 358.5,-112.5"/>
<text text-anchor="middle" x="412.5" y="-119.5" font-family="Helvetica,sans-Serif" font-size="10.00">QualModelPlugin.h</text>
</a>
</g>
</g>
<!-- Node11&#45;&gt;Node12 -->
<g id="edge16" class="edge">
<title>Node11&#45;&gt;Node12</title>
<path fill="none" stroke="midnightblue" d="M752.84,-167.99C645.45,-150.61 532.05,-136.69 466.69,-129.1"/>
<polygon fill="midnightblue" stroke="midnightblue" points="752.45,-171.47 762.88,-169.62 753.57,-164.56 752.45,-171.47"/>
</g>
<!-- Node14 -->
<g id="node14" class="node">
<title>Node14</title>
<g id="a_node14"><a xlink:href="_transition_8cpp.html" target="_top" xlink:title="Implementation of the Transition class.">
<polygon fill="white" stroke="black" points="794.5,-112.5 794.5,-131.5 878.5,-131.5 878.5,-112.5 794.5,-112.5"/>
<text text-anchor="middle" x="836.5" y="-119.5" font-family="Helvetica,sans-Serif" font-size="10.00">Transition.cpp</text>
</a>
</g>
</g>
<!-- Node11&#45;&gt;Node14 -->
<g id="edge21" class="edge">
<title>Node11&#45;&gt;Node14</title>
<path fill="none" stroke="midnightblue" d="M811.45,-159.57C817.81,-150.27 825.37,-139.25 830.5,-131.75"/>
<polygon fill="midnightblue" stroke="midnightblue" points="808.37,-157.86 805.61,-168.08 814.15,-161.81 808.37,-157.86"/>
</g>
<!-- Node12&#45;&gt;Node2 -->
<g id="edge17" class="edge">
<title>Node12&#45;&gt;Node2</title>
<path fill="none" stroke="midnightblue" d="M447.11,-109.17C476.86,-99 519.05,-84.59 545.58,-75.52"/>
<polygon fill="midnightblue" stroke="midnightblue" points="445.87,-105.9 437.54,-112.44 448.13,-112.52 445.87,-105.9"/>
</g>
<!-- Node12&#45;&gt;Node4 -->
<g id="edge18" class="edge">
<title>Node12&#45;&gt;Node4</title>
<path fill="none" stroke="midnightblue" d="M348.09,-111.31C279.32,-100.97 171.55,-84.76 107.19,-75.08"/>
<polygon fill="midnightblue" stroke="midnightblue" points="347.96,-114.83 358.37,-112.86 349,-107.91 347.96,-114.83"/>
</g>
<!-- Node13 -->
<g id="node13" class="node">
<title>Node13</title>
<g id="a_node13"><a xlink:href="_qual_model_plugin_8cpp.html" target="_top" xlink:title="Implementation of QualModelPlugin, the plugin class of qual package for the Model element.">
<polygon fill="white" stroke="black" points="353,-56.5 353,-75.5 472,-75.5 472,-56.5 353,-56.5"/>
<text text-anchor="middle" x="412.5" y="-63.5" font-family="Helvetica,sans-Serif" font-size="10.00">QualModelPlugin.cpp</text>
</a>
</g>
</g>
<!-- Node12&#45;&gt;Node13 -->
<g id="edge19" class="edge">
<title>Node12&#45;&gt;Node13</title>
<path fill="none" stroke="midnightblue" d="M412.5,-101.8C412.5,-92.91 412.5,-82.78 412.5,-75.75"/>
<polygon fill="midnightblue" stroke="midnightblue" points="409,-102.08 412.5,-112.08 416,-102.08 409,-102.08"/>
</g>
<!-- Node15&#45;&gt;Node2 -->
<g id="edge24" class="edge">
<title>Node15&#45;&gt;Node2</title>
<path fill="none" stroke="midnightblue" d="M882.08,-215.37C894.72,-189.43 912.61,-140.93 887.5,-112 855.16,-74.75 715.27,-67.52 632.52,-66.59"/>
<polygon fill="midnightblue" stroke="midnightblue" points="878.89,-213.91 877.44,-224.41 885.12,-217.11 878.89,-213.91"/>
</g>
<!-- Node15&#45;&gt;Node11 -->
<g id="edge26" class="edge">
<title>Node15&#45;&gt;Node11</title>
<path fill="none" stroke="midnightblue" d="M852.36,-218.1C839.22,-208.38 822.52,-196.03 811.44,-187.83"/>
<polygon fill="midnightblue" stroke="midnightblue" points="850.65,-221.19 860.77,-224.32 854.81,-215.56 850.65,-221.19"/>
</g>
<!-- Node16 -->
<g id="node16" class="node">
<title>Node16</title>
<g id="a_node16"><a xlink:href="_input_8cpp.html" target="_top" xlink:title="Implementation of the Input class.">
<polygon fill="white" stroke="black" points="913.5,-168.5 913.5,-187.5 975.5,-187.5 975.5,-168.5 913.5,-168.5"/>
<text text-anchor="middle" x="944.5" y="-175.5" font-family="Helvetica,sans-Serif" font-size="10.00">Input.cpp</text>
</a>
</g>
</g>
<!-- Node15&#45;&gt;Node16 -->
<g id="edge25" class="edge">
<title>Node15&#45;&gt;Node16</title>
<path fill="none" stroke="midnightblue" d="M892.37,-218.1C905.32,-208.38 921.8,-196.03 932.72,-187.83"/>
<polygon fill="midnightblue" stroke="midnightblue" points="889.97,-215.52 884.07,-224.32 894.17,-221.12 889.97,-215.52"/>
</g>
<!-- Node17&#45;&gt;Node2 -->
<g id="edge28" class="edge">
<title>Node17&#45;&gt;Node2</title>
<path fill="none" stroke="midnightblue" d="M722.16,-220.53C704.23,-212.84 682.4,-201.79 665.5,-188 623.29,-153.55 588.02,-97.17 575.44,-75.69"/>
<polygon fill="midnightblue" stroke="midnightblue" points="721.08,-223.87 731.66,-224.46 723.75,-217.4 721.08,-223.87"/>
</g>
<!-- Node17&#45;&gt;Node11 -->
<g id="edge30" class="edge">
<title>Node17&#45;&gt;Node11</title>
<path fill="none" stroke="midnightblue" d="M769.23,-216.14C776.9,-206.74 786.13,-195.4 792.37,-187.75"/>
<polygon fill="midnightblue" stroke="midnightblue" points="766.37,-214.12 762.77,-224.08 771.8,-218.54 766.37,-214.12"/>
</g>
<!-- Node18 -->
<g id="node18" class="node">
<title>Node18</title>
<g id="a_node18"><a xlink:href="_output_8cpp.html" target="_top" xlink:title="Implementation of the Output class.">
<polygon fill="white" stroke="black" points="674.5,-168.5 674.5,-187.5 744.5,-187.5 744.5,-168.5 674.5,-168.5"/>
<text text-anchor="middle" x="709.5" y="-175.5" font-family="Helvetica,sans-Serif" font-size="10.00">Output.cpp</text>
</a>
</g>
</g>
<!-- Node17&#45;&gt;Node18 -->
<g id="edge29" class="edge">
<title>Node17&#45;&gt;Node18</title>
<path fill="none" stroke="midnightblue" d="M741.39,-216.43C733.32,-206.97 723.54,-195.48 716.95,-187.75"/>
<polygon fill="midnightblue" stroke="midnightblue" points="738.75,-218.74 747.9,-224.08 744.08,-214.2 738.75,-218.74"/>
</g>
<!-- Node19&#45;&gt;Node2 -->
<g id="edge32" class="edge">
<title>Node19&#45;&gt;Node2</title>
<path fill="none" stroke="midnightblue" d="M440.39,-162.42C472.11,-139.15 533.2,-94.35 558.78,-75.59"/>
<polygon fill="midnightblue" stroke="midnightblue" points="438.26,-159.63 432.27,-168.37 442.4,-165.28 438.26,-159.63"/>
</g>
<!-- Node19&#45;&gt;Node12 -->
<g id="edge33" class="edge">
<title>Node19&#45;&gt;Node12</title>
<path fill="none" stroke="midnightblue" d="M417.7,-158.1C416.37,-149.14 414.85,-138.86 413.8,-131.75"/>
<polygon fill="midnightblue" stroke="midnightblue" points="414.25,-158.7 419.18,-168.08 421.18,-157.68 414.25,-158.7"/>
</g>
<!-- Node20 -->
<g id="node20" class="node">
<title>Node20</title>
<g id="a_node20"><a xlink:href="_qualitative_species_8cpp.html" target="_top" xlink:title="Implementation of the QualitativeSpecies class.">
<polygon fill="white" stroke="black" points="212.5,-112.5 212.5,-131.5 340.5,-131.5 340.5,-112.5 212.5,-112.5"/>
<text text-anchor="middle" x="276.5" y="-119.5" font-family="Helvetica,sans-Serif" font-size="10.00">QualitativeSpecies.cpp</text>
</a>
</g>
</g>
<!-- Node19&#45;&gt;Node20 -->
<g id="edge34" class="edge">
<title>Node19&#45;&gt;Node20</title>
<path fill="none" stroke="midnightblue" d="M388.25,-164.91C361.18,-154.75 323.18,-140.51 299.21,-131.52"/>
<polygon fill="midnightblue" stroke="midnightblue" points="387.09,-168.21 397.68,-168.44 389.55,-161.66 387.09,-168.21"/>
</g>
</g>
</svg>
