<?xml version="1.0" encoding="UTF-8" standalone="no"?>
<!DOCTYPE svg PUBLIC "-//W3C//DTD SVG 1.1//EN"
 "http://www.w3.org/Graphics/SVG/1.1/DTD/svg11.dtd">
<!-- Generated by graphviz version 2.43.0 (0)
 -->
<!-- Title: QualSBMLError.h Pages: 1 -->
<svg width="1106pt" height="140pt"
 viewBox="0.00 0.00 1105.50 140.00" xmlns="http://www.w3.org/2000/svg" xmlns:xlink="http://www.w3.org/1999/xlink">
<g id="graph0" class="graph" transform="scale(1 1) rotate(0) translate(4 136)">
<title>QualSBMLError.h</title>
<polygon fill="white" stroke="transparent" points="-4,4 -4,-136 1101.5,-136 1101.5,4 -4,4"/>
<!-- Node1 -->
<g id="node1" class="node">
<title>Node1</title>
<g id="a_node1"><a xlink:title="Represents SBML errors and other diagnostics.">
<polygon fill="#bfbfbf" stroke="black" points="539.5,-112.5 539.5,-131.5 637.5,-131.5 637.5,-112.5 539.5,-112.5"/>
<text text-anchor="middle" x="588.5" y="-119.5" font-family="Helvetica,sans-Serif" font-size="10.00">QualSBMLError.h</text>
</a>
</g>
</g>
<!-- Node2 -->
<g id="node2" class="node">
<title>Node2</title>
<g id="a_node2"><a xlink:href="_qual_model_plugin_8cpp.html" target="_top" xlink:title="Implementation of QualModelPlugin, the plugin class of qual package for the Model element.">
<polygon fill="white" stroke="black" points="0,-56.5 0,-75.5 119,-75.5 119,-56.5 0,-56.5"/>
<text text-anchor="middle" x="59.5" y="-63.5" font-family="Helvetica,sans-Serif" font-size="10.00">QualModelPlugin.cpp</text>
</a>
</g>
</g>
<!-- Node1&#45;&gt;Node2 -->
<g id="edge1" class="edge">
<title>Node1&#45;&gt;Node2</title>
<path fill="none" stroke="midnightblue" d="M529.41,-115.83C441.8,-108.03 272.29,-92.41 128.5,-76 125.5,-75.66 122.43,-75.3 119.32,-74.92"/>
<polygon fill="midnightblue" stroke="midnightblue" points="529.16,-119.32 539.43,-116.72 529.78,-112.35 529.16,-119.32"/>
</g>
<!-- Node3 -->
<g id="node3" class="node">
<title>Node3</title>
<g id="a_node3"><a xlink:href="_qual_s_b_m_l_document_plugin_8cpp.html" target="_top" xlink:title="Implementation of QualSBMLDocumentPlugin, the plugin class of qual package for the SBase element.">
<polygon fill="white" stroke="black" points="137,-56.5 137,-75.5 304,-75.5 304,-56.5 137,-56.5"/>
<text text-anchor="middle" x="220.5" y="-63.5" font-family="Helvetica,sans-Serif" font-size="10.00">QualSBMLDocumentPlugin.cpp</text>
</a>
</g>
</g>
<!-- Node1&#45;&gt;Node3 -->
<g id="edge2" class="edge">
<title>Node1&#45;&gt;Node3</title>
<path fill="none" stroke="midnightblue" d="M528.98,-112.27C459.96,-102.14 346.94,-85.55 278.55,-75.52"/>
<polygon fill="midnightblue" stroke="midnightblue" points="528.85,-115.78 539.25,-113.77 529.87,-108.86 528.85,-115.78"/>
</g>
<!-- Node4 -->
<g id="node4" class="node">
<title>Node4</title>
<g id="a_node4"><a xlink:href="_default_term_8cpp.html" target="_top" xlink:title="Implementation of the DefaultTerm class.">
<polygon fill="white" stroke="black" points="322,-56.5 322,-75.5 419,-75.5 419,-56.5 322,-56.5"/>
<text text-anchor="middle" x="370.5" y="-63.5" font-family="Helvetica,sans-Serif" font-size="10.00">DefaultTerm.cpp</text>
</a>
</g>
</g>
<!-- Node1&#45;&gt;Node4 -->
<g id="edge3" class="edge">
<title>Node1&#45;&gt;Node4</title>
<path fill="none" stroke="midnightblue" d="M544.19,-110.02C503.01,-99.82 442.53,-84.84 404.88,-75.52"/>
<polygon fill="midnightblue" stroke="midnightblue" points="543.41,-113.44 553.96,-112.44 545.09,-106.64 543.41,-113.44"/>
</g>
<!-- Node5 -->
<g id="node5" class="node">
<title>Node5</title>
<g id="a_node5"><a xlink:href="_function_term_8cpp.html" target="_top" xlink:title="Implementation of the FunctionTerm class.">
<polygon fill="white" stroke="black" points="437.5,-56.5 437.5,-75.5 539.5,-75.5 539.5,-56.5 437.5,-56.5"/>
<text text-anchor="middle" x="488.5" y="-63.5" font-family="Helvetica,sans-Serif" font-size="10.00">FunctionTerm.cpp</text>
</a>
</g>
</g>
<!-- Node1&#45;&gt;Node5 -->
<g id="edge4" class="edge">
<title>Node1&#45;&gt;Node5</title>
<path fill="none" stroke="midnightblue" d="M563.41,-107.45C544.95,-97.48 520.4,-84.23 504.53,-75.65"/>
<polygon fill="midnightblue" stroke="midnightblue" points="561.97,-110.65 572.43,-112.32 565.3,-104.49 561.97,-110.65"/>
</g>
<!-- Node6 -->
<g id="node6" class="node">
<title>Node6</title>
<g id="a_node6"><a xlink:href="_input_8cpp.html" target="_top" xlink:title="Implementation of the Input class.">
<polygon fill="white" stroke="black" points="557.5,-56.5 557.5,-75.5 619.5,-75.5 619.5,-56.5 557.5,-56.5"/>
<text text-anchor="middle" x="588.5" y="-63.5" font-family="Helvetica,sans-Serif" font-size="10.00">Input.cpp</text>
</a>
</g>
</g>
<!-- Node1&#45;&gt;Node6 -->
<g id="edge5" class="edge">
<title>Node1&#45;&gt;Node6</title>
<path fill="none" stroke="midnightblue" d="M588.5,-101.8C588.5,-92.91 588.5,-82.78 588.5,-75.75"/>
<polygon fill="midnightblue" stroke="midnightblue" points="585,-102.08 588.5,-112.08 592,-102.08 585,-102.08"/>
</g>
<!-- Node7 -->
<g id="node7" class="node">
<title>Node7</title>
<g id="a_node7"><a xlink:href="_output_8cpp.html" target="_top" xlink:title="Implementation of the Output class.">
<polygon fill="white" stroke="black" points="637.5,-56.5 637.5,-75.5 707.5,-75.5 707.5,-56.5 637.5,-56.5"/>
<text text-anchor="middle" x="672.5" y="-63.5" font-family="Helvetica,sans-Serif" font-size="10.00">Output.cpp</text>
</a>
</g>
</g>
<!-- Node1&#45;&gt;Node7 -->
<g id="edge6" class="edge">
<title>Node1&#45;&gt;Node7</title>
<path fill="none" stroke="midnightblue" d="M610.43,-106.9C625.84,-97 645.95,-84.07 659.04,-75.65"/>
<polygon fill="midnightblue" stroke="midnightblue" points="608.52,-103.97 602,-112.32 612.3,-109.86 608.52,-103.97"/>
</g>
<!-- Node8 -->
<g id="node8" class="node">
<title>Node8</title>
<g id="a_node8"><a xlink:href="_qualitative_species_8cpp.html" target="_top" xlink:title="Implementation of the QualitativeSpecies class.">
<polygon fill="white" stroke="black" points="725.5,-56.5 725.5,-75.5 853.5,-75.5 853.5,-56.5 725.5,-56.5"/>
<text text-anchor="middle" x="789.5" y="-63.5" font-family="Helvetica,sans-Serif" font-size="10.00">QualitativeSpecies.cpp</text>
</a>
</g>
</g>
<!-- Node1&#45;&gt;Node8 -->
<g id="edge7" class="edge">
<title>Node1&#45;&gt;Node8</title>
<path fill="none" stroke="midnightblue" d="M630.08,-109.83C668.03,-99.63 723.31,-84.78 757.8,-75.52"/>
<polygon fill="midnightblue" stroke="midnightblue" points="629.1,-106.47 620.35,-112.44 630.91,-113.23 629.1,-106.47"/>
</g>
<!-- Node9 -->
<g id="node9" class="node">
<title>Node9</title>
<g id="a_node9"><a xlink:href="_transition_8cpp.html" target="_top" xlink:title="Implementation of the Transition class.">
<polygon fill="white" stroke="black" points="871.5,-56.5 871.5,-75.5 955.5,-75.5 955.5,-56.5 871.5,-56.5"/>
<text text-anchor="middle" x="913.5" y="-63.5" font-family="Helvetica,sans-Serif" font-size="10.00">Transition.cpp</text>
</a>
</g>
</g>
<!-- Node1&#45;&gt;Node9 -->
<g id="edge8" class="edge">
<title>Node1&#45;&gt;Node9</title>
<path fill="none" stroke="midnightblue" d="M647.54,-111.51C703.05,-102.54 788.46,-88.61 862.5,-76 865.42,-75.5 868.44,-74.98 871.48,-74.46"/>
<polygon fill="midnightblue" stroke="midnightblue" points="646.84,-108.08 637.53,-113.13 647.96,-114.99 646.84,-108.08"/>
</g>
<!-- Node10 -->
<g id="node10" class="node">
<title>Node10</title>
<g id="a_node10"><a xlink:href="_qual_s_b_m_l_error_table_8h.html" target="_top" xlink:title="Represents SBML errors and other diagnostics.">
<polygon fill="white" stroke="black" points="973.5,-56.5 973.5,-75.5 1097.5,-75.5 1097.5,-56.5 973.5,-56.5"/>
<text text-anchor="middle" x="1035.5" y="-63.5" font-family="Helvetica,sans-Serif" font-size="10.00">QualSBMLErrorTable.h</text>
</a>
</g>
</g>
<!-- Node1&#45;&gt;Node10 -->
<g id="edge9" class="edge">
<title>Node1&#45;&gt;Node10</title>
<path fill="none" stroke="midnightblue" d="M647.86,-114.03C721.98,-105.29 852.64,-89.78 964.5,-76 967.34,-75.65 970.24,-75.29 973.16,-74.93"/>
<polygon fill="midnightblue" stroke="midnightblue" points="647.31,-110.57 637.78,-115.21 648.13,-117.52 647.31,-110.57"/>
</g>
<!-- Node11 -->
<g id="node11" class="node">
<title>Node11</title>
<g id="a_node11"><a xlink:href="_qual_extension_8cpp.html" target="_top" xlink:title="Implementation of QualExtension, the core module of qual package.">
<polygon fill="white" stroke="black" points="982,-0.5 982,-19.5 1089,-19.5 1089,-0.5 982,-0.5"/>
<text text-anchor="middle" x="1035.5" y="-7.5" font-family="Helvetica,sans-Serif" font-size="10.00">QualExtension.cpp</text>
</a>
</g>
</g>
<!-- Node10&#45;&gt;Node11 -->
<g id="edge10" class="edge">
<title>Node10&#45;&gt;Node11</title>
<path fill="none" stroke="midnightblue" d="M1035.5,-45.8C1035.5,-36.91 1035.5,-26.78 1035.5,-19.75"/>
<polygon fill="midnightblue" stroke="midnightblue" points="1032,-46.08 1035.5,-56.08 1039,-46.08 1032,-46.08"/>
</g>
</g>
</svg>
