<?xml version="1.0" encoding="UTF-8" standalone="no"?>
<!DOCTYPE svg PUBLIC "-//W3C//DTD SVG 1.1//EN"
 "http://www.w3.org/Graphics/SVG/1.1/DTD/svg11.dtd">
<!-- Generated by graphviz version 2.43.0 (0)
 -->
<!-- Title: QualSBMLError.h Pages: 1 -->
<!--zoomable 140 -->
<svg id="main" version="1.1" xmlns="http://www.w3.org/2000/svg" xmlns:xlink="http://www.w3.org/1999/xlink" xml:space="preserve" onload="init(evt)">
<style type="text/css"><![CDATA[
.edge:hover path { stroke: red; }
.edge:hover polygon { stroke: red; fill: red; }
]]></style>
<script type="text/javascript"><![CDATA[
var edges = document.getElementsByTagName('g');
if (edges && edges.length) {
  for (var i=0;i<edges.length;i++) {
    if (edges[i].id.substr(0,4)=='edge') {
      edges[i].setAttribute('class','edge');
    }
  }
}
]]></script>
        <defs>
                <circle id="rim" cx="0" cy="0" r="7"/>
                <circle id="rim2" cx="0" cy="0" r="3.5"/>
                <g id="zoomPlus">
                        <use xlink:href="#rim" fill="#404040">
                                <set attributeName="fill" to="#808080" begin="zoomplus.mouseover" end="zoomplus.mouseout"/>
                        </use>
                        <path d="M-4,0h8M0,-4v8" fill="none" stroke="white" stroke-width="1.5" pointer-events="none"/>
                </g>
                <g id="zoomMin">
                        <use xlink:href="#rim" fill="#404040">
                                <set attributeName="fill" to="#808080" begin="zoomminus.mouseover" end="zoomminus.mouseout"/>
                        </use>
                        <path d="M-4,0h8" fill="none" stroke="white" stroke-width="1.5" pointer-events="none"/>
                </g>
                <g id="dirArrow">
                        <path fill="none" stroke="white" stroke-width="1.5" d="M0,-3.0v7 M-2.5,-0.5L0,-3.0L2.5,-0.5"/>
                </g>
               <g id="resetDef">
                       <use xlink:href="#rim2" fill="#404040">
                               <set attributeName="fill" to="#808080" begin="reset.mouseover" end="reset.mouseout"/>
                       </use>
               </g>
        </defs>

<script type="text/javascript">
var viewWidth = 1106;
var viewHeight = 140;
var sectionId = 'dynsection-0';
</script>
<script xlink:href="svgpan.js"/>
<svg id="graph" class="graph">
<g id="viewport">
<title>QualSBMLError.h</title>
<polygon fill="white" stroke="transparent" points="-4,4 -4,-136 1101.5,-136 1101.5,4 -4,4"/>
<!-- Node1 -->
<g id="node1" class="node">
<title>Node1</title>
<g id="a_node1"><a xlink:title="Represents SBML errors and other diagnostics.">
<polygon fill="#bfbfbf" stroke="black" points="539.5,-112.5 539.5,-131.5 637.5,-131.5 637.5,-112.5 539.5,-112.5"/>
<text text-anchor="middle" x="588.5" y="-119.5" font-family="Helvetica,sans-Serif" font-size="10.00">QualSBMLError.h</text>
</a>
</g>
</g>
<!-- Node2 -->
<g id="node2" class="node">
<title>Node2</title>
<g id="a_node2"><a xlink:href="_qual_model_plugin_8cpp.html" target="_top" xlink:title="Implementation of QualModelPlugin, the plugin class of qual package for the Model element.">
<polygon fill="white" stroke="black" points="0,-56.5 0,-75.5 119,-75.5 119,-56.5 0,-56.5"/>
<text text-anchor="middle" x="59.5" y="-63.5" font-family="Helvetica,sans-Serif" font-size="10.00">QualModelPlugin.cpp</text>
</a>
</g>
</g>
<!-- Node1&#45;&gt;Node2 -->
<g id="edge1" class="edge">
<title>Node1&#45;&gt;Node2</title>
<path fill="none" stroke="midnightblue" d="M529.41,-115.83C441.8,-108.03 272.29,-92.41 128.5,-76 125.5,-75.66 122.43,-75.3 119.32,-74.92"/>
<polygon fill="midnightblue" stroke="midnightblue" points="529.16,-119.32 539.43,-116.72 529.78,-112.35 529.16,-119.32"/>
</g>
<!-- Node3 -->
<g id="node3" class="node">
<title>Node3</title>
<g id="a_node3"><a xlink:href="_qual_s_b_m_l_document_plugin_8cpp.html" target="_top" xlink:title="Implementation of QualSBMLDocumentPlugin, the plugin class of qual package for the SBase element.">
<polygon fill="white" stroke="black" points="137,-56.5 137,-75.5 304,-75.5 304,-56.5 137,-56.5"/>
<text text-anchor="middle" x="220.5" y="-63.5" font-family="Helvetica,sans-Serif" font-size="10.00">QualSBMLDocumentPlugin.cpp</text>
</a>
</g>
</g>
<!-- Node1&#45;&gt;Node3 -->
<g id="edge2" class="edge">
<title>Node1&#45;&gt;Node3</title>
<path fill="none" stroke="midnightblue" d="M528.98,-112.27C459.96,-102.14 346.94,-85.55 278.55,-75.52"/>
<polygon fill="midnightblue" stroke="midnightblue" points="528.85,-115.78 539.25,-113.77 529.87,-108.86 528.85,-115.78"/>
</g>
<!-- Node4 -->
<g id="node4" class="node">
<title>Node4</title>
<g id="a_node4"><a xlink:href="_default_term_8cpp.html" target="_top" xlink:title="Implementation of the DefaultTerm class.">
<polygon fill="white" stroke="black" points="322,-56.5 322,-75.5 419,-75.5 419,-56.5 322,-56.5"/>
<text text-anchor="middle" x="370.5" y="-63.5" font-family="Helvetica,sans-Serif" font-size="10.00">DefaultTerm.cpp</text>
</a>
</g>
</g>
<!-- Node1&#45;&gt;Node4 -->
<g id="edge3" class="edge">
<title>Node1&#45;&gt;Node4</title>
<path fill="none" stroke="midnightblue" d="M544.19,-110.02C503.01,-99.82 442.53,-84.84 404.88,-75.52"/>
<polygon fill="midnightblue" stroke="midnightblue" points="543.41,-113.44 553.96,-112.44 545.09,-106.64 543.41,-113.44"/>
</g>
<!-- Node5 -->
<g id="node5" class="node">
<title>Node5</title>
<g id="a_node5"><a xlink:href="_function_term_8cpp.html" target="_top" xlink:title="Implementation of the FunctionTerm class.">
<polygon fill="white" stroke="black" points="437.5,-56.5 437.5,-75.5 539.5,-75.5 539.5,-56.5 437.5,-56.5"/>
<text text-anchor="middle" x="488.5" y="-63.5" font-family="Helvetica,sans-Serif" font-size="10.00">FunctionTerm.cpp</text>
</a>
</g>
</g>
<!-- Node1&#45;&gt;Node5 -->
<g id="edge4" class="edge">
<title>Node1&#45;&gt;Node5</title>
<path fill="none" stroke="midnightblue" d="M563.41,-107.45C544.95,-97.48 520.4,-84.23 504.53,-75.65"/>
<polygon fill="midnightblue" stroke="midnightblue" points="561.97,-110.65 572.43,-112.32 565.3,-104.49 561.97,-110.65"/>
</g>
<!-- Node6 -->
<g id="node6" class="node">
<title>Node6</title>
<g id="a_node6"><a xlink:href="_input_8cpp.html" target="_top" xlink:title="Implementation of the Input class.">
<polygon fill="white" stroke="black" points="557.5,-56.5 557.5,-75.5 619.5,-75.5 619.5,-56.5 557.5,-56.5"/>
<text text-anchor="middle" x="588.5" y="-63.5" font-family="Helvetica,sans-Serif" font-size="10.00">Input.cpp</text>
</a>
</g>
</g>
<!-- Node1&#45;&gt;Node6 -->
<g id="edge5" class="edge">
<title>Node1&#45;&gt;Node6</title>
<path fill="none" stroke="midnightblue" d="M588.5,-101.8C588.5,-92.91 588.5,-82.78 588.5,-75.75"/>
<polygon fill="midnightblue" stroke="midnightblue" points="585,-102.08 588.5,-112.08 592,-102.08 585,-102.08"/>
</g>
<!-- Node7 -->
<g id="node7" class="node">
<title>Node7</title>
<g id="a_node7"><a xlink:href="_output_8cpp.html" target="_top" xlink:title="Implementation of the Output class.">
<polygon fill="white" stroke="black" points="637.5,-56.5 637.5,-75.5 707.5,-75.5 707.5,-56.5 637.5,-56.5"/>
<text text-anchor="middle" x="672.5" y="-63.5" font-family="Helvetica,sans-Serif" font-size="10.00">Output.cpp</text>
</a>
</g>
</g>
<!-- Node1&#45;&gt;Node7 -->
<g id="edge6" class="edge">
<title>Node1&#45;&gt;Node7</title>
<path fill="none" stroke="midnightblue" d="M610.43,-106.9C625.84,-97 645.95,-84.07 659.04,-75.65"/>
<polygon fill="midnightblue" stroke="midnightblue" points="608.52,-103.97 602,-112.32 612.3,-109.86 608.52,-103.97"/>
</g>
<!-- Node8 -->
<g id="node8" class="node">
<title>Node8</title>
<g id="a_node8"><a xlink:href="_qualitative_species_8cpp.html" target="_top" xlink:title="Implementation of the QualitativeSpecies class.">
<polygon fill="white" stroke="black" points="725.5,-56.5 725.5,-75.5 853.5,-75.5 853.5,-56.5 725.5,-56.5"/>
<text text-anchor="middle" x="789.5" y="-63.5" font-family="Helvetica,sans-Serif" font-size="10.00">QualitativeSpecies.cpp</text>
</a>
</g>
</g>
<!-- Node1&#45;&gt;Node8 -->
<g id="edge7" class="edge">
<title>Node1&#45;&gt;Node8</title>
<path fill="none" stroke="midnightblue" d="M630.08,-109.83C668.03,-99.63 723.31,-84.78 757.8,-75.52"/>
<polygon fill="midnightblue" stroke="midnightblue" points="629.1,-106.47 620.35,-112.44 630.91,-113.23 629.1,-106.47"/>
</g>
<!-- Node9 -->
<g id="node9" class="node">
<title>Node9</title>
<g id="a_node9"><a xlink:href="_transition_8cpp.html" target="_top" xlink:title="Implementation of the Transition class.">
<polygon fill="white" stroke="black" points="871.5,-56.5 871.5,-75.5 955.5,-75.5 955.5,-56.5 871.5,-56.5"/>
<text text-anchor="middle" x="913.5" y="-63.5" font-family="Helvetica,sans-Serif" font-size="10.00">Transition.cpp</text>
</a>
</g>
</g>
<!-- Node1&#45;&gt;Node9 -->
<g id="edge8" class="edge">
<title>Node1&#45;&gt;Node9</title>
<path fill="none" stroke="midnightblue" d="M647.54,-111.51C703.05,-102.54 788.46,-88.61 862.5,-76 865.42,-75.5 868.44,-74.98 871.48,-74.46"/>
<polygon fill="midnightblue" stroke="midnightblue" points="646.84,-108.08 637.53,-113.13 647.96,-114.99 646.84,-108.08"/>
</g>
<!-- Node10 -->
<g id="node10" class="node">
<title>Node10</title>
<g id="a_node10"><a xlink:href="_qual_s_b_m_l_error_table_8h.html" target="_top" xlink:title="Represents SBML errors and other diagnostics.">
<polygon fill="white" stroke="black" points="973.5,-56.5 973.5,-75.5 1097.5,-75.5 1097.5,-56.5 973.5,-56.5"/>
<text text-anchor="middle" x="1035.5" y="-63.5" font-family="Helvetica,sans-Serif" font-size="10.00">QualSBMLErrorTable.h</text>
</a>
</g>
</g>
<!-- Node1&#45;&gt;Node10 -->
<g id="edge9" class="edge">
<title>Node1&#45;&gt;Node10</title>
<path fill="none" stroke="midnightblue" d="M647.86,-114.03C721.98,-105.29 852.64,-89.78 964.5,-76 967.34,-75.65 970.24,-75.29 973.16,-74.93"/>
<polygon fill="midnightblue" stroke="midnightblue" points="647.31,-110.57 637.78,-115.21 648.13,-117.52 647.31,-110.57"/>
</g>
<!-- Node11 -->
<g id="node11" class="node">
<title>Node11</title>
<g id="a_node11"><a xlink:href="_qual_extension_8cpp.html" target="_top" xlink:title="Implementation of QualExtension, the core module of qual package.">
<polygon fill="white" stroke="black" points="982,-0.5 982,-19.5 1089,-19.5 1089,-0.5 982,-0.5"/>
<text text-anchor="middle" x="1035.5" y="-7.5" font-family="Helvetica,sans-Serif" font-size="10.00">QualExtension.cpp</text>
</a>
</g>
</g>
<!-- Node10&#45;&gt;Node11 -->
<g id="edge10" class="edge">
<title>Node10&#45;&gt;Node11</title>
<path fill="none" stroke="midnightblue" d="M1035.5,-45.8C1035.5,-36.91 1035.5,-26.78 1035.5,-19.75"/>
<polygon fill="midnightblue" stroke="midnightblue" points="1032,-46.08 1035.5,-56.08 1039,-46.08 1032,-46.08"/>
</g>
</g>
</svg>
        <g id="navigator" transform="translate(0 0)" fill="#404254">
                <rect fill="#f2f5e9" fill-opacity="0.5" stroke="#606060" stroke-width=".5" x="0" y="0" width="60" height="60"/>
                <use id="zoomplus" xlink:href="#zoomPlus" x="17" y="9" onmousedown="handleZoom(evt,'in')"/>
                <use id="zoomminus" xlink:href="#zoomMin" x="42" y="9" onmousedown="handleZoom(evt,'out')"/>
                <use id="reset" xlink:href="#resetDef" x="30" y="36" onmousedown="handleReset()"/>
                <g id="arrowUp" xlink:href="#dirArrow" transform="translate(30 24)" onmousedown="handlePan(0,-1)">
                  <use xlink:href="#rim" fill="#404040">
                        <set attributeName="fill" to="#808080" begin="arrowUp.mouseover" end="arrowUp.mouseout"/>
                  </use>
                  <path fill="none" stroke="white" stroke-width="1.5" d="M0,-3.0v7 M-2.5,-0.5L0,-3.0L2.5,-0.5"/>
                </g>
                <g id="arrowRight" xlink:href="#dirArrow" transform="rotate(90) translate(36 -43)" onmousedown="handlePan(1,0)">
                  <use xlink:href="#rim" fill="#404040">
                        <set attributeName="fill" to="#808080" begin="arrowRight.mouseover" end="arrowRight.mouseout"/>
                  </use>
                  <path fill="none" stroke="white" stroke-width="1.5" d="M0,-3.0v7 M-2.5,-0.5L0,-3.0L2.5,-0.5"/>
                </g>
                <g id="arrowDown" xlink:href="#dirArrow" transform="rotate(180) translate(-30 -48)" onmousedown="handlePan(0,1)">
                  <use xlink:href="#rim" fill="#404040">
                        <set attributeName="fill" to="#808080" begin="arrowDown.mouseover" end="arrowDown.mouseout"/>
                  </use>
                  <path fill="none" stroke="white" stroke-width="1.5" d="M0,-3.0v7 M-2.5,-0.5L0,-3.0L2.5,-0.5"/>
                </g>
                <g id="arrowLeft" xlink:href="#dirArrow" transform="rotate(270) translate(-36 17)" onmousedown="handlePan(-1,0)">
                  <use xlink:href="#rim" fill="#404040">
                        <set attributeName="fill" to="#808080" begin="arrowLeft.mouseover" end="arrowLeft.mouseout"/>
                  </use>
                  <path fill="none" stroke="white" stroke-width="1.5" d="M0,-3.0v7 M-2.5,-0.5L0,-3.0L2.5,-0.5"/>
                </g>
        </g>
        <svg viewBox="0 0 15 15" width="100%" height="30px" preserveAspectRatio="xMaxYMin meet">
         <g id="arrow_out" transform="scale(0.3 0.3)">
          <a xlink:href="_qual_s_b_m_l_error_8h__dep__incl_org.svg" target="_base">
           <rect id="button" ry="5" rx="5" y="6" x="6" height="38" width="38"
                fill="#f2f5e9" fill-opacity="0.5" stroke="#606060" stroke-width="1.0"/>
           <path id="arrow"
             d="M 11.500037,31.436501 C 11.940474,20.09759 22.043105,11.32322 32.158766,21.979434 L 37.068811,17.246167 C 37.068811,17.246167 37.088388,32 37.088388,32 L 22.160133,31.978069 C 22.160133,31.978069 26.997745,27.140456 26.997745,27.140456 C 18.528582,18.264221 13.291696,25.230495 11.500037,31.436501 z"
             style="fill:#404040;"/>
          </a>
         </g>
        </svg>
</svg>
