<?xml version="1.0" encoding="UTF-8" standalone="no"?>
<!DOCTYPE svg PUBLIC "-//W3C//DTD SVG 1.1//EN"
 "http://www.w3.org/Graphics/SVG/1.1/DTD/svg11.dtd">
<!-- Generated by graphviz version 2.43.0 (0)
 -->
<!-- Title: RDFAnnotation.h Pages: 1 -->
<svg width="1464pt" height="744pt"
 viewBox="0.00 0.00 1464.00 744.00" xmlns="http://www.w3.org/2000/svg" xmlns:xlink="http://www.w3.org/1999/xlink">
<g id="graph0" class="graph" transform="scale(1 1) rotate(0) translate(4 740)">
<title>RDFAnnotation.h</title>
<polygon fill="white" stroke="transparent" points="-4,4 -4,-740 1460,-740 1460,4 -4,4"/>
<!-- Node1 -->
<g id="node1" class="node">
<title>Node1</title>
<g id="a_node1"><a xlink:title="RDFAnnotation I/O.">
<polygon fill="#bfbfbf" stroke="black" points="1149,-716.5 1149,-735.5 1247,-735.5 1247,-716.5 1149,-716.5"/>
<text text-anchor="middle" x="1198" y="-723.5" font-family="Helvetica,sans-Serif" font-size="10.00">RDFAnnotation.h</text>
</a>
</g>
</g>
<!-- Node2 -->
<g id="node2" class="node">
<title>Node2</title>
<g id="a_node2"><a xlink:href="_r_d_f_annotation_parser_8h.html" target="_top" xlink:title="RDFAnnotation I/O.">
<polygon fill="white" stroke="black" points="1134.5,-660.5 1134.5,-679.5 1261.5,-679.5 1261.5,-660.5 1134.5,-660.5"/>
<text text-anchor="middle" x="1198" y="-667.5" font-family="Helvetica,sans-Serif" font-size="10.00">RDFAnnotationParser.h</text>
</a>
</g>
</g>
<!-- Node1&#45;&gt;Node2 -->
<g id="edge1" class="edge">
<title>Node1&#45;&gt;Node2</title>
<path fill="none" stroke="midnightblue" d="M1198,-716.08C1198,-709.01 1198,-698.86 1198,-689.99"/>
<polygon fill="midnightblue" stroke="midnightblue" points="1201.5,-689.75 1198,-679.75 1194.5,-689.75 1201.5,-689.75"/>
</g>
<!-- Node3 -->
<g id="node3" class="node">
<title>Node3</title>
<g id="a_node3"><a xlink:href="extern_8h.html" target="_top" xlink:title="Definitions of LIBSBML_EXTERN and related things.">
<polygon fill="white" stroke="black" points="870,-67.5 870,-86.5 1000,-86.5 1000,-67.5 870,-67.5"/>
<text text-anchor="middle" x="935" y="-74.5" font-family="Helvetica,sans-Serif" font-size="10.00">sbml/common/extern.h</text>
</a>
</g>
</g>
<!-- Node2&#45;&gt;Node3 -->
<g id="edge2" class="edge">
<title>Node2&#45;&gt;Node3</title>
<path fill="none" stroke="midnightblue" d="M1203.28,-660.23C1213.73,-642.04 1236,-598.6 1236,-559 1236,-559 1236,-559 1236,-204.5 1236,-106.8 1099.56,-83.32 1010.4,-78.4"/>
<polygon fill="midnightblue" stroke="midnightblue" points="1010.47,-74.9 1000.31,-77.91 1010.13,-81.89 1010.47,-74.9"/>
</g>
<!-- Node5 -->
<g id="node5" class="node">
<title>Node5</title>
<g id="a_node5"><a xlink:href="sbmlfwd_8h.html" target="_top" xlink:title="Forward declarations for all opaque C types.">
<polygon fill="white" stroke="black" points="101,-257.5 101,-276.5 241,-276.5 241,-257.5 101,-257.5"/>
<text text-anchor="middle" x="171" y="-264.5" font-family="Helvetica,sans-Serif" font-size="10.00">sbml/common/sbmlfwd.h</text>
</a>
</g>
</g>
<!-- Node2&#45;&gt;Node5 -->
<g id="edge4" class="edge">
<title>Node2&#45;&gt;Node5</title>
<path fill="none" stroke="midnightblue" d="M1134.44,-666.53C886.77,-656.48 0,-616.5 0,-559 0,-559 0,-559 0,-389 0,-349.28 16.18,-338.05 47,-313 66.98,-296.76 93.33,-286.1 116.6,-279.26"/>
<polygon fill="midnightblue" stroke="midnightblue" points="117.65,-282.6 126.36,-276.55 115.79,-275.85 117.65,-282.6"/>
</g>
<!-- Node9 -->
<g id="node9" class="node">
<title>Node9</title>
<g id="a_node9"><a xlink:href="_x_m_l_attributes_8h.html" target="_top" xlink:title="XMLAttributes are a list of name/value pairs for XML elements.">
<polygon fill="white" stroke="black" points="367,-380.5 367,-399.5 511,-399.5 511,-380.5 367,-380.5"/>
<text text-anchor="middle" x="439" y="-387.5" font-family="Helvetica,sans-Serif" font-size="10.00">sbml/xml/XMLAttributes.h</text>
</a>
</g>
</g>
<!-- Node2&#45;&gt;Node9 -->
<g id="edge11" class="edge">
<title>Node2&#45;&gt;Node9</title>
<path fill="none" stroke="midnightblue" d="M1134.17,-667.62C933.72,-662.43 330,-640.08 330,-559 330,-559 330,-559 330,-501 330,-470.77 330.51,-459.11 350,-436 362.81,-420.81 382.02,-410.2 399.31,-403.11"/>
<polygon fill="midnightblue" stroke="midnightblue" points="400.58,-406.37 408.67,-399.53 398.08,-399.83 400.58,-406.37"/>
</g>
<!-- Node12 -->
<g id="node12" class="node">
<title>Node12</title>
<g id="a_node12"><a xlink:title=" ">
<polygon fill="white" stroke="#bfbfbf" points="724,-257.5 724,-276.5 768,-276.5 768,-257.5 724,-257.5"/>
<text text-anchor="middle" x="746" y="-264.5" font-family="Helvetica,sans-Serif" font-size="10.00">string</text>
</a>
</g>
</g>
<!-- Node2&#45;&gt;Node12 -->
<g id="edge59" class="edge">
<title>Node2&#45;&gt;Node12</title>
<path fill="none" stroke="midnightblue" d="M1195.39,-660.21C1186.8,-630.51 1160,-531.07 1160,-447 1160,-447 1160,-447 1160,-389 1160,-346.78 1139.51,-334.21 1103,-313 1048.19,-281.15 855.9,-271.52 778.57,-268.89"/>
<polygon fill="midnightblue" stroke="midnightblue" points="778.56,-265.39 768.45,-268.57 778.33,-272.39 778.56,-265.39"/>
</g>
<!-- Node16 -->
<g id="node16" class="node">
<title>Node16</title>
<g id="a_node16"><a xlink:href="_model_history_8h.html" target="_top" xlink:title="ModelHistory I/O.">
<polygon fill="white" stroke="black" points="883,-604.5 883,-623.5 1055,-623.5 1055,-604.5 883,-604.5"/>
<text text-anchor="middle" x="969" y="-611.5" font-family="Helvetica,sans-Serif" font-size="10.00">sbml/annotation/ModelHistory.h</text>
</a>
</g>
</g>
<!-- Node2&#45;&gt;Node16 -->
<g id="edge24" class="edge">
<title>Node2&#45;&gt;Node16</title>
<path fill="none" stroke="midnightblue" d="M1161.71,-660.44C1122.02,-651.08 1058.29,-636.06 1015.09,-625.87"/>
<polygon fill="midnightblue" stroke="midnightblue" points="1015.65,-622.41 1005.12,-623.52 1014.05,-629.22 1015.65,-622.41"/>
</g>
<!-- Node21 -->
<g id="node21" class="node">
<title>Node21</title>
<g id="a_node21"><a xlink:title=" ">
<polygon fill="white" stroke="#bfbfbf" points="358.5,-436.5 358.5,-455.5 407.5,-455.5 407.5,-436.5 358.5,-436.5"/>
<text text-anchor="middle" x="383" y="-443.5" font-family="Helvetica,sans-Serif" font-size="10.00">cstdlib</text>
</a>
</g>
</g>
<!-- Node2&#45;&gt;Node21 -->
<g id="edge61" class="edge">
<title>Node2&#45;&gt;Node21</title>
<path fill="none" stroke="midnightblue" d="M1134.29,-662.49C1068.67,-655.23 963.62,-642.1 874,-624 779.32,-604.88 755.27,-599.63 664,-568 568.02,-534.74 458.62,-483.64 409.41,-459.92"/>
<polygon fill="midnightblue" stroke="midnightblue" points="410.92,-456.77 400.4,-455.56 407.87,-463.07 410.92,-456.77"/>
</g>
<!-- Node24 -->
<g id="node24" class="node">
<title>Node24</title>
<g id="a_node24"><a xlink:title=" ">
<polygon fill="white" stroke="#bfbfbf" points="1264,-604.5 1264,-623.5 1308,-623.5 1308,-604.5 1264,-604.5"/>
<text text-anchor="middle" x="1286" y="-611.5" font-family="Helvetica,sans-Serif" font-size="10.00">limits</text>
</a>
</g>
</g>
<!-- Node2&#45;&gt;Node24 -->
<g id="edge57" class="edge">
<title>Node2&#45;&gt;Node24</title>
<path fill="none" stroke="midnightblue" d="M1212.14,-660.32C1225.87,-651.9 1246.94,-638.97 1263.06,-629.07"/>
<polygon fill="midnightblue" stroke="midnightblue" points="1265.2,-631.87 1271.9,-623.65 1261.54,-625.9 1265.2,-631.87"/>
</g>
<!-- Node25 -->
<g id="node25" class="node">
<title>Node25</title>
<g id="a_node25"><a xlink:title=" ">
<polygon fill="white" stroke="#bfbfbf" points="1326,-604.5 1326,-623.5 1382,-623.5 1382,-604.5 1326,-604.5"/>
<text text-anchor="middle" x="1354" y="-611.5" font-family="Helvetica,sans-Serif" font-size="10.00">iomanip</text>
</a>
</g>
</g>
<!-- Node2&#45;&gt;Node25 -->
<g id="edge58" class="edge">
<title>Node2&#45;&gt;Node25</title>
<path fill="none" stroke="midnightblue" d="M1222.72,-660.44C1248.85,-651.4 1290.26,-637.06 1319.58,-626.92"/>
<polygon fill="midnightblue" stroke="midnightblue" points="1321.09,-630.1 1329.4,-623.52 1318.8,-623.48 1321.09,-630.1"/>
</g>
<!-- Node26 -->
<g id="node26" class="node">
<title>Node26</title>
<g id="a_node26"><a xlink:title=" ">
<polygon fill="white" stroke="#bfbfbf" points="1400,-604.5 1400,-623.5 1456,-623.5 1456,-604.5 1400,-604.5"/>
<text text-anchor="middle" x="1428" y="-611.5" font-family="Helvetica,sans-Serif" font-size="10.00">sstream</text>
</a>
</g>
</g>
<!-- Node2&#45;&gt;Node26 -->
<g id="edge60" class="edge">
<title>Node2&#45;&gt;Node26</title>
<path fill="none" stroke="midnightblue" d="M1235.02,-660.48C1271.85,-651.98 1330.21,-638.44 1389.77,-624.28"/>
<polygon fill="midnightblue" stroke="midnightblue" points="1390.81,-627.63 1399.72,-621.91 1389.19,-620.82 1390.81,-627.63"/>
</g>
<!-- Node4 -->
<g id="node4" class="node">
<title>Node4</title>
<g id="a_node4"><a xlink:title=" ">
<polygon fill="white" stroke="#bfbfbf" points="386.5,-0.5 386.5,-30.5 511.5,-30.5 511.5,-0.5 386.5,-0.5"/>
<text text-anchor="start" x="394.5" y="-18.5" font-family="Helvetica,sans-Serif" font-size="10.00">sbml/common/libsbml</text>
<text text-anchor="middle" x="449" y="-7.5" font-family="Helvetica,sans-Serif" font-size="10.00">&#45;namespace.h</text>
</a>
</g>
</g>
<!-- Node3&#45;&gt;Node4 -->
<g id="edge3" class="edge">
<title>Node3&#45;&gt;Node4</title>
<path fill="none" stroke="midnightblue" d="M869.96,-68.04C779.49,-56.96 616.19,-36.97 521.77,-25.41"/>
<polygon fill="midnightblue" stroke="midnightblue" points="522.08,-21.92 511.73,-24.18 521.23,-28.87 522.08,-21.92"/>
</g>
<!-- Node5&#45;&gt;Node4 -->
<g id="edge5" class="edge">
<title>Node5&#45;&gt;Node4</title>
<path fill="none" stroke="midnightblue" d="M175.96,-257.19C193.48,-226.8 255.53,-125.02 332,-67 350.26,-53.15 372.9,-42.24 393.39,-34.16"/>
<polygon fill="midnightblue" stroke="midnightblue" points="394.83,-37.35 402.93,-30.53 392.34,-30.81 394.83,-37.35"/>
</g>
<!-- Node6 -->
<g id="node6" class="node">
<title>Node6</title>
<g id="a_node6"><a xlink:href="libsbml-config_8h.html" target="_top" xlink:title="Decides whether to #include Unix or Windows configuration variables.">
<polygon fill="white" stroke="black" points="270.5,-190.5 270.5,-220.5 395.5,-220.5 395.5,-190.5 270.5,-190.5"/>
<text text-anchor="start" x="278.5" y="-208.5" font-family="Helvetica,sans-Serif" font-size="10.00">sbml/common/libsbml</text>
<text text-anchor="middle" x="333" y="-197.5" font-family="Helvetica,sans-Serif" font-size="10.00">&#45;config.h</text>
</a>
</g>
</g>
<!-- Node5&#45;&gt;Node6 -->
<g id="edge6" class="edge">
<title>Node5&#45;&gt;Node6</title>
<path fill="none" stroke="midnightblue" d="M194.21,-257.48C217.89,-248.78 255.33,-235.03 285.36,-224"/>
<polygon fill="midnightblue" stroke="midnightblue" points="286.64,-227.26 294.82,-220.52 284.23,-220.69 286.64,-227.26"/>
</g>
<!-- Node6&#45;&gt;Node4 -->
<g id="edge7" class="edge">
<title>Node6&#45;&gt;Node4</title>
<path fill="none" stroke="midnightblue" d="M322.14,-190.44C310.7,-173.78 295.78,-145.45 307,-123 327.6,-81.81 372.54,-52.41 406.38,-35.08"/>
<polygon fill="midnightblue" stroke="midnightblue" points="408.2,-38.09 415.61,-30.51 405.09,-31.82 408.2,-38.09"/>
</g>
<!-- Node7 -->
<g id="node7" class="node">
<title>Node7</title>
<g id="a_node7"><a xlink:title=" ">
<polygon fill="white" stroke="#bfbfbf" points="315.5,-123.5 315.5,-153.5 440.5,-153.5 440.5,-123.5 315.5,-123.5"/>
<text text-anchor="start" x="323.5" y="-141.5" font-family="Helvetica,sans-Serif" font-size="10.00">sbml/common/libsbml</text>
<text text-anchor="middle" x="378" y="-130.5" font-family="Helvetica,sans-Serif" font-size="10.00">&#45;config&#45;common.h</text>
</a>
</g>
</g>
<!-- Node6&#45;&gt;Node7 -->
<g id="edge8" class="edge">
<title>Node6&#45;&gt;Node7</title>
<path fill="none" stroke="midnightblue" d="M342.76,-190.4C348.54,-182.05 355.99,-171.29 362.55,-161.81"/>
<polygon fill="midnightblue" stroke="midnightblue" points="365.44,-163.79 368.25,-153.58 359.68,-159.81 365.44,-163.79"/>
</g>
<!-- Node8 -->
<g id="node8" class="node">
<title>Node8</title>
<g id="a_node8"><a xlink:href="libsbml-version_8h.html" target="_top" xlink:title="Define libSBML version numbers for access from client software.">
<polygon fill="white" stroke="black" points="458.5,-123.5 458.5,-153.5 583.5,-153.5 583.5,-123.5 458.5,-123.5"/>
<text text-anchor="start" x="466.5" y="-141.5" font-family="Helvetica,sans-Serif" font-size="10.00">sbml/common/libsbml</text>
<text text-anchor="middle" x="521" y="-130.5" font-family="Helvetica,sans-Serif" font-size="10.00">&#45;version.h</text>
</a>
</g>
</g>
<!-- Node6&#45;&gt;Node8 -->
<g id="edge9" class="edge">
<title>Node6&#45;&gt;Node8</title>
<path fill="none" stroke="midnightblue" d="M373.79,-190.4C402.25,-180.56 440.4,-167.37 470.73,-156.88"/>
<polygon fill="midnightblue" stroke="midnightblue" points="471.98,-160.15 480.29,-153.58 469.69,-153.54 471.98,-160.15"/>
</g>
<!-- Node8&#45;&gt;Node3 -->
<g id="edge10" class="edge">
<title>Node8&#45;&gt;Node3</title>
<path fill="none" stroke="midnightblue" d="M583.88,-128.46C659.65,-117.57 786.56,-99.33 865.27,-88.02"/>
<polygon fill="midnightblue" stroke="midnightblue" points="866.17,-91.43 875.57,-86.54 865.17,-84.5 866.17,-91.43"/>
</g>
<!-- Node9&#45;&gt;Node5 -->
<g id="edge14" class="edge">
<title>Node9&#45;&gt;Node5</title>
<path fill="none" stroke="midnightblue" d="M366.71,-381.69C329.19,-375.57 283.65,-364.39 247,-344 220.34,-329.16 196.73,-302.28 183.16,-284.79"/>
<polygon fill="midnightblue" stroke="midnightblue" points="185.81,-282.5 177.01,-276.61 180.22,-286.7 185.81,-282.5"/>
</g>
<!-- Node10 -->
<g id="node10" class="node">
<title>Node10</title>
<g id="a_node10"><a xlink:href="_x_m_l_extern_8h.html" target="_top" xlink:title="Defines LIBLAX_EXTERN.">
<polygon fill="white" stroke="black" points="548.5,-257.5 548.5,-276.5 675.5,-276.5 675.5,-257.5 548.5,-257.5"/>
<text text-anchor="middle" x="612" y="-264.5" font-family="Helvetica,sans-Serif" font-size="10.00">sbml/xml/XMLExtern.h</text>
</a>
</g>
</g>
<!-- Node9&#45;&gt;Node10 -->
<g id="edge12" class="edge">
<title>Node9&#45;&gt;Node10</title>
<path fill="none" stroke="midnightblue" d="M415.21,-380.5C399.28,-373.41 379.54,-361.61 370,-344 363.44,-331.89 361.19,-323.6 370,-313 391.09,-287.63 474.77,-276.49 537.87,-271.65"/>
<polygon fill="midnightblue" stroke="midnightblue" points="538.49,-275.11 548.21,-270.9 537.98,-268.13 538.49,-275.11"/>
</g>
<!-- Node11 -->
<g id="node11" class="node">
<title>Node11</title>
<g id="a_node11"><a xlink:href="operation_return_values_8h.html" target="_top" xlink:title="Enumeration of values returned by operations within libSBML.">
<polygon fill="white" stroke="black" points="926,-313.5 926,-343.5 1094,-343.5 1094,-313.5 926,-313.5"/>
<text text-anchor="start" x="934" y="-331.5" font-family="Helvetica,sans-Serif" font-size="10.00">sbml/common/operationReturn</text>
<text text-anchor="middle" x="1010" y="-320.5" font-family="Helvetica,sans-Serif" font-size="10.00">Values.h</text>
</a>
</g>
</g>
<!-- Node9&#45;&gt;Node11 -->
<g id="edge15" class="edge">
<title>Node9&#45;&gt;Node11</title>
<path fill="none" stroke="midnightblue" d="M511.03,-381.49C613.62,-370.8 801.94,-351.18 915.59,-339.34"/>
<polygon fill="midnightblue" stroke="midnightblue" points="916.08,-342.81 925.67,-338.29 915.36,-335.84 916.08,-342.81"/>
</g>
<!-- Node9&#45;&gt;Node12 -->
<g id="edge17" class="edge">
<title>Node9&#45;&gt;Node12</title>
<path fill="none" stroke="midnightblue" d="M453.22,-380.44C467.56,-371.67 490.21,-357.46 509,-344 527,-331.11 528.04,-322.58 548,-313 577.09,-299.04 665.83,-282.03 714.03,-273.48"/>
<polygon fill="midnightblue" stroke="midnightblue" points="714.7,-276.91 723.94,-271.73 713.49,-270.02 714.7,-276.91"/>
</g>
<!-- Node13 -->
<g id="node13" class="node">
<title>Node13</title>
<g id="a_node13"><a xlink:title=" ">
<polygon fill="white" stroke="#bfbfbf" points="556.5,-319 556.5,-338 603.5,-338 603.5,-319 556.5,-319"/>
<text text-anchor="middle" x="580" y="-326" font-family="Helvetica,sans-Serif" font-size="10.00">vector</text>
</a>
</g>
</g>
<!-- Node9&#45;&gt;Node13 -->
<g id="edge18" class="edge">
<title>Node9&#45;&gt;Node13</title>
<path fill="none" stroke="midnightblue" d="M459.2,-380.48C483.07,-370.4 523,-353.55 550.37,-342"/>
<polygon fill="midnightblue" stroke="midnightblue" points="551.98,-345.12 559.84,-338.01 549.26,-338.67 551.98,-345.12"/>
</g>
<!-- Node14 -->
<g id="node14" class="node">
<title>Node14</title>
<g id="a_node14"><a xlink:title=" ">
<polygon fill="white" stroke="#bfbfbf" points="256.5,-319 256.5,-338 321.5,-338 321.5,-319 256.5,-319"/>
<text text-anchor="middle" x="289" y="-326" font-family="Helvetica,sans-Serif" font-size="10.00">stdexcept</text>
</a>
</g>
</g>
<!-- Node9&#45;&gt;Node14 -->
<g id="edge19" class="edge">
<title>Node9&#45;&gt;Node14</title>
<path fill="none" stroke="midnightblue" d="M417.51,-380.48C391.89,-370.31 348.89,-353.26 319.76,-341.7"/>
<polygon fill="midnightblue" stroke="midnightblue" points="321.04,-338.44 310.45,-338.01 318.46,-344.95 321.04,-338.44"/>
</g>
<!-- Node15 -->
<g id="node15" class="node">
<title>Node15</title>
<g id="a_node15"><a xlink:href="_x_m_l_triple_8h.html" target="_top" xlink:title="Stores an XML namespace triple.">
<polygon fill="white" stroke="black" points="378.5,-319 378.5,-338 499.5,-338 499.5,-319 378.5,-319"/>
<text text-anchor="middle" x="439" y="-326" font-family="Helvetica,sans-Serif" font-size="10.00">sbml/xml/XMLTriple.h</text>
</a>
</g>
</g>
<!-- Node9&#45;&gt;Node15 -->
<g id="edge20" class="edge">
<title>Node9&#45;&gt;Node15</title>
<path fill="none" stroke="midnightblue" d="M439,-380.48C439,-372.08 439,-358.98 439,-348.16"/>
<polygon fill="midnightblue" stroke="midnightblue" points="442.5,-348.01 439,-338.01 435.5,-348.01 442.5,-348.01"/>
</g>
<!-- Node10&#45;&gt;Node4 -->
<g id="edge13" class="edge">
<title>Node10&#45;&gt;Node4</title>
<path fill="none" stroke="midnightblue" d="M613.07,-257.2C615.51,-233.59 619.34,-167.65 593,-123 569.17,-82.61 523.44,-52.85 489.88,-35.21"/>
<polygon fill="midnightblue" stroke="midnightblue" points="491.27,-31.98 480.77,-30.55 488.08,-38.22 491.27,-31.98"/>
</g>
<!-- Node11&#45;&gt;Node3 -->
<g id="edge16" class="edge">
<title>Node11&#45;&gt;Node3</title>
<path fill="none" stroke="midnightblue" d="M1005.75,-313.37C992.99,-270.91 954.97,-144.43 940.59,-96.6"/>
<polygon fill="midnightblue" stroke="midnightblue" points="943.92,-95.5 937.68,-86.93 937.21,-97.51 943.92,-95.5"/>
</g>
<!-- Node15&#45;&gt;Node5 -->
<g id="edge22" class="edge">
<title>Node15&#45;&gt;Node5</title>
<path fill="none" stroke="midnightblue" d="M400.6,-318.98C352.84,-308.37 271.26,-290.26 219.3,-278.72"/>
<polygon fill="midnightblue" stroke="midnightblue" points="219.85,-275.26 209.33,-276.51 218.33,-282.09 219.85,-275.26"/>
</g>
<!-- Node15&#45;&gt;Node10 -->
<g id="edge21" class="edge">
<title>Node15&#45;&gt;Node10</title>
<path fill="none" stroke="midnightblue" d="M463.79,-318.98C493.59,-308.72 543.79,-291.46 577.4,-279.9"/>
<polygon fill="midnightblue" stroke="midnightblue" points="578.94,-283.07 587.26,-276.51 576.66,-276.45 578.94,-283.07"/>
</g>
<!-- Node15&#45;&gt;Node12 -->
<g id="edge23" class="edge">
<title>Node15&#45;&gt;Node12</title>
<path fill="none" stroke="midnightblue" d="M482.99,-318.98C545.44,-306.87 658.38,-284.98 713.7,-274.26"/>
<polygon fill="midnightblue" stroke="midnightblue" points="714.5,-277.67 723.65,-272.33 713.17,-270.8 714.5,-277.67"/>
</g>
<!-- Node16&#45;&gt;Node3 -->
<g id="edge25" class="edge">
<title>Node16&#45;&gt;Node3</title>
<path fill="none" stroke="midnightblue" d="M1005.79,-604.47C1070.53,-587.03 1198,-540.79 1198,-447 1198,-447 1198,-447 1198,-204.5 1198,-120.61 1087.99,-92.32 1010.27,-82.8"/>
<polygon fill="midnightblue" stroke="midnightblue" points="1010.34,-79.29 1000.01,-81.63 1009.55,-86.24 1010.34,-79.29"/>
</g>
<!-- Node16&#45;&gt;Node5 -->
<g id="edge26" class="edge">
<title>Node16&#45;&gt;Node5</title>
<path fill="none" stroke="midnightblue" d="M882.67,-611.77C651.87,-607.33 38,-587.58 38,-503 38,-503 38,-503 38,-389 38,-350.83 50.56,-339.53 78,-313 93.3,-298.21 114.4,-287.46 132.64,-280.18"/>
<polygon fill="midnightblue" stroke="midnightblue" points="134.02,-283.4 142.14,-276.59 131.55,-276.85 134.02,-283.4"/>
</g>
<!-- Node16&#45;&gt;Node11 -->
<g id="edge27" class="edge">
<title>Node16&#45;&gt;Node11</title>
<path fill="none" stroke="midnightblue" d="M1012.98,-604.46C1035.93,-597.96 1062.92,-586.8 1081,-568 1099.32,-548.95 1096.49,-538.04 1101,-512 1111.92,-448.97 1062.09,-384 1031.83,-351.23"/>
<polygon fill="midnightblue" stroke="midnightblue" points="1034.03,-348.46 1024.6,-343.61 1028.95,-353.27 1034.03,-348.46"/>
</g>
<!-- Node16&#45;&gt;Node12 -->
<g id="edge56" class="edge">
<title>Node16&#45;&gt;Node12</title>
<path fill="none" stroke="midnightblue" d="M897.4,-604.47C829.45,-595.64 736.08,-581.3 725,-568 689.38,-525.21 727.69,-345.49 741.47,-286.7"/>
<polygon fill="midnightblue" stroke="midnightblue" points="744.95,-287.17 743.86,-276.63 738.14,-285.55 744.95,-287.17"/>
</g>
<!-- Node17 -->
<g id="node17" class="node">
<title>Node17</title>
<g id="a_node17"><a xlink:href="_list_8h.html" target="_top" xlink:title="Simple, generic list utility class.">
<polygon fill="white" stroke="black" points="1002.5,-492.5 1002.5,-511.5 1091.5,-511.5 1091.5,-492.5 1002.5,-492.5"/>
<text text-anchor="middle" x="1047" y="-499.5" font-family="Helvetica,sans-Serif" font-size="10.00">sbml/util/List.h</text>
</a>
</g>
</g>
<!-- Node16&#45;&gt;Node17 -->
<g id="edge28" class="edge">
<title>Node16&#45;&gt;Node17</title>
<path fill="none" stroke="midnightblue" d="M1010.47,-604.5C1030.59,-598.06 1052.95,-586.95 1065,-568 1074.29,-553.39 1066.84,-533.97 1058.89,-520.17"/>
<polygon fill="midnightblue" stroke="midnightblue" points="1061.81,-518.23 1053.51,-511.65 1055.89,-521.97 1061.81,-518.23"/>
</g>
<!-- Node19 -->
<g id="node19" class="node">
<title>Node19</title>
<g id="a_node19"><a xlink:href="_x_m_l_node_8h.html" target="_top" xlink:title="Class definition of XMLNode, a node in an XML document tree.">
<polygon fill="white" stroke="black" points="578.5,-492.5 578.5,-511.5 699.5,-511.5 699.5,-492.5 578.5,-492.5"/>
<text text-anchor="middle" x="639" y="-499.5" font-family="Helvetica,sans-Serif" font-size="10.00">sbml/xml/XMLNode.h</text>
</a>
</g>
</g>
<!-- Node16&#45;&gt;Node19 -->
<g id="edge31" class="edge">
<title>Node16&#45;&gt;Node19</title>
<path fill="none" stroke="midnightblue" d="M882.81,-605.85C813.57,-598.88 722.83,-586.57 691,-568 671.96,-556.89 657.14,-535.93 648.28,-520.81"/>
<polygon fill="midnightblue" stroke="midnightblue" points="651.24,-518.93 643.33,-511.88 645.12,-522.33 651.24,-518.93"/>
</g>
<!-- Node22 -->
<g id="node22" class="node">
<title>Node22</title>
<g id="a_node22"><a xlink:href="_date_8h.html" target="_top" xlink:title="Date I/O.">
<polygon fill="white" stroke="black" points="733.5,-548.5 733.5,-567.5 864.5,-567.5 864.5,-548.5 733.5,-548.5"/>
<text text-anchor="middle" x="799" y="-555.5" font-family="Helvetica,sans-Serif" font-size="10.00">sbml/annotation/Date.h</text>
</a>
</g>
</g>
<!-- Node16&#45;&gt;Node22 -->
<g id="edge42" class="edge">
<title>Node16&#45;&gt;Node22</title>
<path fill="none" stroke="midnightblue" d="M942.06,-604.44C913.34,-595.32 867.67,-580.81 835.68,-570.65"/>
<polygon fill="midnightblue" stroke="midnightblue" points="836.4,-567.21 825.81,-567.52 834.28,-573.88 836.4,-567.21"/>
</g>
<!-- Node23 -->
<g id="node23" class="node">
<title>Node23</title>
<g id="a_node23"><a xlink:href="_model_creator_8h.html" target="_top" xlink:title="ModelCreator I/O.">
<polygon fill="white" stroke="black" points="882.5,-548.5 882.5,-567.5 1055.5,-567.5 1055.5,-548.5 882.5,-548.5"/>
<text text-anchor="middle" x="969" y="-555.5" font-family="Helvetica,sans-Serif" font-size="10.00">sbml/annotation/ModelCreator.h</text>
</a>
</g>
</g>
<!-- Node16&#45;&gt;Node23 -->
<g id="edge49" class="edge">
<title>Node16&#45;&gt;Node23</title>
<path fill="none" stroke="midnightblue" d="M969,-604.08C969,-597.01 969,-586.86 969,-577.99"/>
<polygon fill="midnightblue" stroke="midnightblue" points="972.5,-577.75 969,-567.75 965.5,-577.75 972.5,-577.75"/>
</g>
<!-- Node17&#45;&gt;Node3 -->
<g id="edge29" class="edge">
<title>Node17&#45;&gt;Node3</title>
<path fill="none" stroke="midnightblue" d="M1053.92,-492.3C1072.49,-468.06 1122,-397.09 1122,-329.5 1122,-329.5 1122,-329.5 1122,-204.5 1122,-138.5 1041.09,-104.59 985.71,-89.12"/>
<polygon fill="midnightblue" stroke="midnightblue" points="986.6,-85.73 976.04,-86.52 984.79,-92.49 986.6,-85.73"/>
</g>
<!-- Node18 -->
<g id="node18" class="node">
<title>Node18</title>
<g id="a_node18"><a xlink:title=" ">
<polygon fill="white" stroke="#bfbfbf" points="1002.5,-436.5 1002.5,-455.5 1055.5,-455.5 1055.5,-436.5 1002.5,-436.5"/>
<text text-anchor="middle" x="1029" y="-443.5" font-family="Helvetica,sans-Serif" font-size="10.00">string.h</text>
</a>
</g>
</g>
<!-- Node17&#45;&gt;Node18 -->
<g id="edge30" class="edge">
<title>Node17&#45;&gt;Node18</title>
<path fill="none" stroke="midnightblue" d="M1044.03,-492.08C1041.62,-484.85 1038.14,-474.41 1035.13,-465.4"/>
<polygon fill="midnightblue" stroke="midnightblue" points="1038.4,-464.13 1031.92,-455.75 1031.76,-466.34 1038.4,-464.13"/>
</g>
<!-- Node19&#45;&gt;Node5 -->
<g id="edge39" class="edge">
<title>Node19&#45;&gt;Node5</title>
<path fill="none" stroke="midnightblue" d="M590.37,-492.48C552.7,-485.09 499.59,-472.89 455,-456 437.15,-449.24 434.84,-442.79 417,-436 354.95,-412.37 333.22,-425.71 272,-400 228.21,-381.62 206.83,-383.85 181,-344 169.95,-326.94 168.52,-303.18 169.17,-286.79"/>
<polygon fill="midnightblue" stroke="midnightblue" points="172.67,-287.01 169.86,-276.79 165.68,-286.53 172.67,-287.01"/>
</g>
<!-- Node19&#45;&gt;Node10 -->
<g id="edge32" class="edge">
<title>Node19&#45;&gt;Node10</title>
<path fill="none" stroke="midnightblue" d="M639.48,-492.26C640.76,-465.24 643.25,-380.81 629,-313 627.07,-303.81 623.55,-294 620.21,-285.9"/>
<polygon fill="midnightblue" stroke="midnightblue" points="623.42,-284.49 616.22,-276.72 617,-287.29 623.42,-284.49"/>
</g>
<!-- Node19&#45;&gt;Node13 -->
<g id="edge40" class="edge">
<title>Node19&#45;&gt;Node13</title>
<path fill="none" stroke="midnightblue" d="M635.99,-492.26C626.8,-465.54 598.93,-384.52 586.32,-347.86"/>
<polygon fill="midnightblue" stroke="midnightblue" points="589.49,-346.34 582.93,-338.02 582.87,-348.61 589.49,-346.34"/>
</g>
<!-- Node20 -->
<g id="node20" class="node">
<title>Node20</title>
<g id="a_node20"><a xlink:href="_x_m_l_token_8h.html" target="_top" xlink:title="A unit of XML syntax, either an XML element or text.">
<polygon fill="white" stroke="black" points="464,-436.5 464,-455.5 586,-455.5 586,-436.5 464,-436.5"/>
<text text-anchor="middle" x="525" y="-443.5" font-family="Helvetica,sans-Serif" font-size="10.00">sbml/xml/XMLToken.h</text>
</a>
</g>
</g>
<!-- Node19&#45;&gt;Node20 -->
<g id="edge33" class="edge">
<title>Node19&#45;&gt;Node20</title>
<path fill="none" stroke="midnightblue" d="M620.94,-492.44C602.43,-483.68 573.42,-469.94 552.14,-459.86"/>
<polygon fill="midnightblue" stroke="midnightblue" points="553.51,-456.63 542.98,-455.52 550.52,-462.96 553.51,-456.63"/>
</g>
<!-- Node19&#45;&gt;Node21 -->
<g id="edge41" class="edge">
<title>Node19&#45;&gt;Node21</title>
<path fill="none" stroke="midnightblue" d="M596.53,-492.48C552.74,-483.64 482.51,-469.25 422,-456 420.56,-455.68 419.09,-455.36 417.6,-455.03"/>
<polygon fill="midnightblue" stroke="midnightblue" points="418.26,-451.59 407.74,-452.8 416.72,-458.42 418.26,-451.59"/>
</g>
<!-- Node20&#45;&gt;Node5 -->
<g id="edge37" class="edge">
<title>Node20&#45;&gt;Node5</title>
<path fill="none" stroke="midnightblue" d="M483.27,-436.5C406.28,-420.08 246.01,-382.24 205,-344 188.44,-328.55 179.41,-303.55 174.9,-286.47"/>
<polygon fill="midnightblue" stroke="midnightblue" points="178.27,-285.49 172.56,-276.57 171.46,-287.11 178.27,-285.49"/>
</g>
<!-- Node20&#45;&gt;Node9 -->
<g id="edge35" class="edge">
<title>Node20&#45;&gt;Node9</title>
<path fill="none" stroke="midnightblue" d="M511.18,-436.32C497.77,-427.9 477.18,-414.97 461.41,-405.07"/>
<polygon fill="midnightblue" stroke="midnightblue" points="463.11,-402.01 452.78,-399.65 459.39,-407.94 463.11,-402.01"/>
</g>
<!-- Node20&#45;&gt;Node10 -->
<g id="edge34" class="edge">
<title>Node20&#45;&gt;Node10</title>
<path fill="none" stroke="midnightblue" d="M536.76,-436.33C556.97,-420.6 597.58,-385.16 613,-344 619.93,-325.5 618.41,-302.66 615.96,-286.87"/>
<polygon fill="midnightblue" stroke="midnightblue" points="619.36,-285.99 614.11,-276.78 612.47,-287.25 619.36,-285.99"/>
</g>
<!-- Node20&#45;&gt;Node12 -->
<g id="edge38" class="edge">
<title>Node20&#45;&gt;Node12</title>
<path fill="none" stroke="midnightblue" d="M540.61,-436.44C555.75,-427.9 579.14,-414.05 598,-400 649.29,-361.78 704.08,-309.52 730.28,-283.72"/>
<polygon fill="midnightblue" stroke="midnightblue" points="732.82,-286.13 737.46,-276.61 727.89,-281.16 732.82,-286.13"/>
</g>
<!-- Node20&#45;&gt;Node20 -->
<g id="edge36" class="edge">
<title>Node20&#45;&gt;Node20</title>
<path fill="none" stroke="midnightblue" d="M558.69,-455.53C581.59,-458.31 604,-455.13 604,-446 604,-438.22 587.75,-434.77 568.79,-435.63"/>
<polygon fill="midnightblue" stroke="midnightblue" points="568.37,-432.15 558.69,-436.47 568.95,-439.13 568.37,-432.15"/>
</g>
<!-- Node22&#45;&gt;Node3 -->
<g id="edge43" class="edge">
<title>Node22&#45;&gt;Node3</title>
<path fill="none" stroke="midnightblue" d="M802.28,-548.15C814.95,-513.16 860,-380.81 860,-268 860,-268 860,-268 860,-204.5 860,-159.28 895.9,-116.08 918.03,-93.75"/>
<polygon fill="midnightblue" stroke="midnightblue" points="920.48,-96.24 925.2,-86.75 915.59,-91.23 920.48,-96.24"/>
</g>
<!-- Node22&#45;&gt;Node5 -->
<g id="edge44" class="edge">
<title>Node22&#45;&gt;Node5</title>
<path fill="none" stroke="midnightblue" d="M733.38,-556.79C569.16,-555.72 150.02,-549.3 100,-512 75.31,-493.59 76,-477.8 76,-447 76,-447 76,-447 76,-389 76,-353.58 78.4,-341.07 100,-313 110.59,-299.24 126.66,-288.56 140.84,-281.05"/>
<polygon fill="midnightblue" stroke="midnightblue" points="142.42,-284.18 149.81,-276.59 139.3,-277.91 142.42,-284.18"/>
</g>
<!-- Node22&#45;&gt;Node11 -->
<g id="edge45" class="edge">
<title>Node22&#45;&gt;Node11</title>
<path fill="none" stroke="midnightblue" d="M807.01,-548.36C837.25,-515.76 944.96,-399.63 989.99,-351.08"/>
<polygon fill="midnightblue" stroke="midnightblue" points="992.67,-353.34 996.9,-343.62 987.53,-348.58 992.67,-353.34"/>
</g>
<!-- Node22&#45;&gt;Node12 -->
<g id="edge48" class="edge">
<title>Node22&#45;&gt;Node12</title>
<path fill="none" stroke="midnightblue" d="M797.04,-548.5C792.97,-530.09 784,-485.16 784,-447 784,-447 784,-447 784,-389 784,-350.81 766.56,-308.83 755.31,-285.72"/>
<polygon fill="midnightblue" stroke="midnightblue" points="758.29,-283.86 750.66,-276.52 752.04,-287.02 758.29,-283.86"/>
</g>
<!-- Node22&#45;&gt;Node17 -->
<g id="edge46" class="edge">
<title>Node22&#45;&gt;Node17</title>
<path fill="none" stroke="midnightblue" d="M838.3,-548.44C881.56,-539.02 951.17,-523.87 997.97,-513.68"/>
<polygon fill="midnightblue" stroke="midnightblue" points="998.86,-517.06 1007.89,-511.52 997.37,-510.22 998.86,-517.06"/>
</g>
<!-- Node22&#45;&gt;Node19 -->
<g id="edge47" class="edge">
<title>Node22&#45;&gt;Node19</title>
<path fill="none" stroke="midnightblue" d="M773.65,-548.44C746.73,-539.36 704,-524.94 673.91,-514.78"/>
<polygon fill="midnightblue" stroke="midnightblue" points="674.83,-511.4 664.23,-511.52 672.59,-518.03 674.83,-511.4"/>
</g>
<!-- Node23&#45;&gt;Node3 -->
<g id="edge50" class="edge">
<title>Node23&#45;&gt;Node3</title>
<path fill="none" stroke="midnightblue" d="M962.19,-548.21C944.42,-524.37 898,-455.88 898,-391 898,-391 898,-391 898,-204.5 898,-164.44 915.31,-120 926.25,-95.92"/>
<polygon fill="midnightblue" stroke="midnightblue" points="929.52,-97.18 930.61,-86.64 923.19,-94.2 929.52,-97.18"/>
</g>
<!-- Node23&#45;&gt;Node5 -->
<g id="edge51" class="edge">
<title>Node23&#45;&gt;Node5</title>
<path fill="none" stroke="midnightblue" d="M885.85,-548.46C671,-526.12 114,-466.33 114,-447 114,-447 114,-447 114,-389 114,-348.59 140.34,-307.21 157.21,-284.85"/>
<polygon fill="midnightblue" stroke="midnightblue" points="160.15,-286.77 163.55,-276.74 154.63,-282.46 160.15,-286.77"/>
</g>
<!-- Node23&#45;&gt;Node11 -->
<g id="edge52" class="edge">
<title>Node23&#45;&gt;Node11</title>
<path fill="none" stroke="midnightblue" d="M970.56,-548.36C976.34,-516.3 996.68,-403.44 1005.67,-353.53"/>
<polygon fill="midnightblue" stroke="midnightblue" points="1009.13,-354.09 1007.45,-343.62 1002.24,-352.84 1009.13,-354.09"/>
</g>
<!-- Node23&#45;&gt;Node12 -->
<g id="edge55" class="edge">
<title>Node23&#45;&gt;Node12</title>
<path fill="none" stroke="midnightblue" d="M958.69,-548.25C948.74,-539.56 933.54,-525.61 922,-512 852.72,-430.3 851.94,-397.43 786,-313 778.28,-303.11 769.01,-292.61 761.34,-284.24"/>
<polygon fill="midnightblue" stroke="midnightblue" points="763.68,-281.62 754.31,-276.68 758.56,-286.39 763.68,-281.62"/>
</g>
<!-- Node23&#45;&gt;Node17 -->
<g id="edge53" class="edge">
<title>Node23&#45;&gt;Node17</title>
<path fill="none" stroke="midnightblue" d="M981.53,-548.32C993.59,-539.98 1012.03,-527.21 1026.27,-517.35"/>
<polygon fill="midnightblue" stroke="midnightblue" points="1028.27,-520.22 1034.5,-511.65 1024.28,-514.47 1028.27,-520.22"/>
</g>
<!-- Node23&#45;&gt;Node19 -->
<g id="edge54" class="edge">
<title>Node23&#45;&gt;Node19</title>
<path fill="none" stroke="midnightblue" d="M916.71,-548.44C858.18,-538.87 763.4,-523.36 701.13,-513.17"/>
<polygon fill="midnightblue" stroke="midnightblue" points="701.48,-509.68 691.04,-511.52 700.35,-516.59 701.48,-509.68"/>
</g>
</g>
</svg>
