<?xml version="1.0" encoding="UTF-8" standalone="no"?>
<!DOCTYPE svg PUBLIC "-//W3C//DTD SVG 1.1//EN"
 "http://www.w3.org/Graphics/SVG/1.1/DTD/svg11.dtd">
<!-- Generated by graphviz version 2.43.0 (0)
 -->
<!-- Title: RateRule.h Pages: 1 -->
<svg width="3498pt" height="968pt"
 viewBox="0.00 0.00 3498.09 968.00" xmlns="http://www.w3.org/2000/svg" xmlns:xlink="http://www.w3.org/1999/xlink">
<g id="graph0" class="graph" transform="scale(1 1) rotate(0) translate(4 964)">
<title>RateRule.h</title>
<polygon fill="white" stroke="transparent" points="-4,4 -4,-964 3494.09,-964 3494.09,4 -4,4"/>
<!-- Node1 -->
<g id="node1" class="node">
<title>Node1</title>
<g id="a_node1"><a xlink:title="Definitions of RateRule.">
<polygon fill="#bfbfbf" stroke="black" points="2820.09,-940.5 2820.09,-959.5 2890.09,-959.5 2890.09,-940.5 2820.09,-940.5"/>
<text text-anchor="middle" x="2855.09" y="-947.5" font-family="Helvetica,sans-Serif" font-size="10.00">RateRule.h</text>
</a>
</g>
</g>
<!-- Node2 -->
<g id="node2" class="node">
<title>Node2</title>
<g id="a_node2"><a xlink:href="extern_8h.html" target="_top" xlink:title="Definitions of LIBSBML_EXTERN and related things.">
<polygon fill="white" stroke="black" points="2806.09,-67.5 2806.09,-86.5 2936.09,-86.5 2936.09,-67.5 2806.09,-67.5"/>
<text text-anchor="middle" x="2871.09" y="-74.5" font-family="Helvetica,sans-Serif" font-size="10.00">sbml/common/extern.h</text>
</a>
</g>
</g>
<!-- Node1&#45;&gt;Node2 -->
<g id="edge1" class="edge">
<title>Node1&#45;&gt;Node2</title>
<path fill="none" stroke="midnightblue" d="M2890.11,-947.98C2991.96,-944.69 3286.62,-932.88 3378.09,-904 3432.97,-886.67 3490.09,-896.55 3490.09,-839 3490.09,-839 3490.09,-839 3490.09,-204.5 3490.09,-153.12 3454.73,-144.56 3408.09,-123 3327.99,-85.98 3074.35,-79.08 2946.42,-78.02"/>
<polygon fill="midnightblue" stroke="midnightblue" points="2946.33,-74.52 2936.31,-77.94 2946.28,-81.52 2946.33,-74.52"/>
</g>
<!-- Node4 -->
<g id="node4" class="node">
<title>Node4</title>
<g id="a_node4"><a xlink:href="sbmlfwd_8h.html" target="_top" xlink:title="Forward declarations for all opaque C types.">
<polygon fill="white" stroke="black" points="629.09,-263 629.09,-282 769.09,-282 769.09,-263 629.09,-263"/>
<text text-anchor="middle" x="699.09" y="-270" font-family="Helvetica,sans-Serif" font-size="10.00">sbml/common/sbmlfwd.h</text>
</a>
</g>
</g>
<!-- Node1&#45;&gt;Node4 -->
<g id="edge3" class="edge">
<title>Node1&#45;&gt;Node4</title>
<path fill="none" stroke="midnightblue" d="M2820.01,-948.52C2504,-944.1 159.09,-908.9 159.09,-839 159.09,-839 159.09,-839 159.09,-501 159.09,-373.42 267.44,-373.36 385.09,-324 460.36,-292.42 553.41,-280.47 618.61,-276.01"/>
<polygon fill="midnightblue" stroke="midnightblue" points="619.07,-279.49 628.82,-275.36 618.62,-272.51 619.07,-279.49"/>
</g>
<!-- Node8 -->
<g id="node8" class="node">
<title>Node8</title>
<g id="a_node8"><a xlink:title=" ">
<polygon fill="white" stroke="#bfbfbf" points="1905.09,-263 1905.09,-282 1949.09,-282 1949.09,-263 1905.09,-263"/>
<text text-anchor="middle" x="1927.09" y="-270" font-family="Helvetica,sans-Serif" font-size="10.00">string</text>
</a>
</g>
</g>
<!-- Node1&#45;&gt;Node8 -->
<g id="edge10" class="edge">
<title>Node1&#45;&gt;Node8</title>
<path fill="none" stroke="midnightblue" d="M2819.85,-948.8C2645.23,-947.34 1881.09,-935.47 1881.09,-839 1881.09,-839 1881.09,-839 1881.09,-781 1881.09,-750.9 1885.44,-742.3 1900.09,-716 1945.71,-634.06 2041.09,-652.79 2041.09,-559 2041.09,-559 2041.09,-559 2041.09,-501 2041.09,-413.48 1972.81,-325.17 1941.94,-289.71"/>
<polygon fill="midnightblue" stroke="midnightblue" points="1944.54,-287.38 1935.29,-282.23 1939.31,-292.03 1944.54,-287.38"/>
</g>
<!-- Node9 -->
<g id="node9" class="node">
<title>Node9</title>
<g id="a_node9"><a xlink:href="_rule_8h.html" target="_top" xlink:title="Definitions of Rule and ListOfRules.">
<polygon fill="white" stroke="black" points="2818.09,-884.5 2818.09,-903.5 2892.09,-903.5 2892.09,-884.5 2818.09,-884.5"/>
<text text-anchor="middle" x="2855.09" y="-891.5" font-family="Helvetica,sans-Serif" font-size="10.00">sbml/Rule.h</text>
</a>
</g>
</g>
<!-- Node1&#45;&gt;Node9 -->
<g id="edge11" class="edge">
<title>Node1&#45;&gt;Node9</title>
<path fill="none" stroke="midnightblue" d="M2849.92,-940.08C2848.41,-932.93 2847.98,-922.64 2848.63,-913.69"/>
<polygon fill="midnightblue" stroke="midnightblue" points="2852.1,-914.13 2849.96,-903.75 2845.16,-913.2 2852.1,-914.13"/>
</g>
<!-- Node45 -->
<g id="node45" class="node">
<title>Node45</title>
<g id="a_node45"><a xlink:href="_s_b_m_l_visitor_8h.html" target="_top" xlink:title="Visitor Design Pattern for the SBML object tree.">
<polygon fill="white" stroke="black" points="3276.09,-324.5 3276.09,-343.5 3386.09,-343.5 3386.09,-324.5 3276.09,-324.5"/>
<text text-anchor="middle" x="3331.09" y="-331.5" font-family="Helvetica,sans-Serif" font-size="10.00">sbml/SBMLVisitor.h</text>
</a>
</g>
</g>
<!-- Node1&#45;&gt;Node45 -->
<g id="edge177" class="edge">
<title>Node1&#45;&gt;Node45</title>
<path fill="none" stroke="midnightblue" d="M2890.48,-949.59C3013.36,-950.73 3414.09,-946.19 3414.09,-839 3414.09,-839 3414.09,-839 3414.09,-445 3414.09,-403.91 3376.73,-368.44 3352.14,-349.55"/>
<polygon fill="midnightblue" stroke="midnightblue" points="3354.18,-346.7 3344.06,-343.57 3350.02,-352.33 3354.18,-346.7"/>
</g>
<!-- Node3 -->
<g id="node3" class="node">
<title>Node3</title>
<g id="a_node3"><a xlink:title=" ">
<polygon fill="white" stroke="#bfbfbf" points="477.59,-0.5 477.59,-30.5 602.59,-30.5 602.59,-0.5 477.59,-0.5"/>
<text text-anchor="start" x="485.59" y="-18.5" font-family="Helvetica,sans-Serif" font-size="10.00">sbml/common/libsbml</text>
<text text-anchor="middle" x="540.09" y="-7.5" font-family="Helvetica,sans-Serif" font-size="10.00">&#45;namespace.h</text>
</a>
</g>
</g>
<!-- Node2&#45;&gt;Node3 -->
<g id="edge2" class="edge">
<title>Node2&#45;&gt;Node3</title>
<path fill="none" stroke="midnightblue" d="M2806,-74.34C2473.07,-65.84 962.55,-27.28 612.62,-18.35"/>
<polygon fill="midnightblue" stroke="midnightblue" points="612.69,-14.85 602.61,-18.1 612.51,-21.85 612.69,-14.85"/>
</g>
<!-- Node4&#45;&gt;Node3 -->
<g id="edge4" class="edge">
<title>Node4&#45;&gt;Node3</title>
<path fill="none" stroke="midnightblue" d="M653.57,-262.98C598.81,-250.03 509.23,-219.59 469.09,-154 444.62,-114.03 486.45,-64.7 515.6,-37.32"/>
<polygon fill="midnightblue" stroke="midnightblue" points="518.02,-39.85 523.05,-30.52 513.3,-34.67 518.02,-39.85"/>
</g>
<!-- Node5 -->
<g id="node5" class="node">
<title>Node5</title>
<g id="a_node5"><a xlink:href="libsbml-config_8h.html" target="_top" xlink:title="Decides whether to #include Unix or Windows configuration variables.">
<polygon fill="white" stroke="black" points="647.59,-190.5 647.59,-220.5 772.59,-220.5 772.59,-190.5 647.59,-190.5"/>
<text text-anchor="start" x="655.59" y="-208.5" font-family="Helvetica,sans-Serif" font-size="10.00">sbml/common/libsbml</text>
<text text-anchor="middle" x="710.09" y="-197.5" font-family="Helvetica,sans-Serif" font-size="10.00">&#45;config.h</text>
</a>
</g>
</g>
<!-- Node4&#45;&gt;Node5 -->
<g id="edge5" class="edge">
<title>Node4&#45;&gt;Node5</title>
<path fill="none" stroke="midnightblue" d="M700.57,-262.73C701.96,-254.54 704.09,-241.92 705.99,-230.71"/>
<polygon fill="midnightblue" stroke="midnightblue" points="709.48,-231.03 707.7,-220.59 702.58,-229.86 709.48,-231.03"/>
</g>
<!-- Node5&#45;&gt;Node3 -->
<g id="edge6" class="edge">
<title>Node5&#45;&gt;Node3</title>
<path fill="none" stroke="midnightblue" d="M692.04,-190.5C679.95,-180.78 663.96,-167.25 651.09,-154 614.43,-116.28 577.09,-67.41 556.42,-39.25"/>
<polygon fill="midnightblue" stroke="midnightblue" points="559.03,-36.89 550.32,-30.87 553.38,-41.01 559.03,-36.89"/>
</g>
<!-- Node6 -->
<g id="node6" class="node">
<title>Node6</title>
<g id="a_node6"><a xlink:title=" ">
<polygon fill="white" stroke="#bfbfbf" points="659.59,-123.5 659.59,-153.5 784.59,-153.5 784.59,-123.5 659.59,-123.5"/>
<text text-anchor="start" x="667.59" y="-141.5" font-family="Helvetica,sans-Serif" font-size="10.00">sbml/common/libsbml</text>
<text text-anchor="middle" x="722.09" y="-130.5" font-family="Helvetica,sans-Serif" font-size="10.00">&#45;config&#45;common.h</text>
</a>
</g>
</g>
<!-- Node5&#45;&gt;Node6 -->
<g id="edge7" class="edge">
<title>Node5&#45;&gt;Node6</title>
<path fill="none" stroke="midnightblue" d="M712.69,-190.4C714.14,-182.56 715.98,-172.6 717.64,-163.57"/>
<polygon fill="midnightblue" stroke="midnightblue" points="721.11,-164.05 719.49,-153.58 714.23,-162.77 721.11,-164.05"/>
</g>
<!-- Node7 -->
<g id="node7" class="node">
<title>Node7</title>
<g id="a_node7"><a xlink:href="libsbml-version_8h.html" target="_top" xlink:title="Define libSBML version numbers for access from client software.">
<polygon fill="white" stroke="black" points="477.59,-123.5 477.59,-153.5 602.59,-153.5 602.59,-123.5 477.59,-123.5"/>
<text text-anchor="start" x="485.59" y="-141.5" font-family="Helvetica,sans-Serif" font-size="10.00">sbml/common/libsbml</text>
<text text-anchor="middle" x="540.09" y="-130.5" font-family="Helvetica,sans-Serif" font-size="10.00">&#45;version.h</text>
</a>
</g>
</g>
<!-- Node5&#45;&gt;Node7 -->
<g id="edge8" class="edge">
<title>Node5&#45;&gt;Node7</title>
<path fill="none" stroke="midnightblue" d="M673.2,-190.4C647.69,-180.64 613.57,-167.59 586.25,-157.15"/>
<polygon fill="midnightblue" stroke="midnightblue" points="587.49,-153.88 576.9,-153.58 584.99,-160.42 587.49,-153.88"/>
</g>
<!-- Node7&#45;&gt;Node2 -->
<g id="edge9" class="edge">
<title>Node7&#45;&gt;Node2</title>
<path fill="none" stroke="midnightblue" d="M602.77,-128.09C618.51,-126.07 635.39,-124.18 651.09,-123 1081.61,-90.61 2458.31,-80.45 2795.84,-78.42"/>
<polygon fill="midnightblue" stroke="midnightblue" points="2796.02,-81.91 2805.99,-78.36 2795.97,-74.91 2796.02,-81.91"/>
</g>
<!-- Node9&#45;&gt;Node1 -->
<g id="edge176" class="edge">
<title>Node9&#45;&gt;Node1</title>
<path fill="none" stroke="midnightblue" d="M2860.22,-903.75C2861.74,-910.86 2862.19,-921.14 2861.56,-930.1"/>
<polygon fill="midnightblue" stroke="midnightblue" points="2858.08,-929.71 2860.25,-940.08 2865.02,-930.62 2858.08,-929.71"/>
</g>
<!-- Node9&#45;&gt;Node2 -->
<g id="edge12" class="edge">
<title>Node9&#45;&gt;Node2</title>
<path fill="none" stroke="midnightblue" d="M2892.24,-891.83C2984.7,-888.51 3222.94,-877.28 3296.09,-848 3377.55,-815.4 3452.09,-814.74 3452.09,-727 3452.09,-727 3452.09,-727 3452.09,-204.5 3452.09,-150.21 3410.86,-144.69 3361.09,-123 3288.61,-91.41 3064.76,-81.98 2946.33,-79.17"/>
<polygon fill="midnightblue" stroke="midnightblue" points="2946.33,-75.67 2936.25,-78.95 2946.17,-82.67 2946.33,-75.67"/>
</g>
<!-- Node9&#45;&gt;Node4 -->
<g id="edge13" class="edge">
<title>Node9&#45;&gt;Node4</title>
<path fill="none" stroke="midnightblue" d="M2817.75,-893.04C2515.11,-893.24 471.8,-892.94 351.09,-848 308.8,-832.26 273.09,-828.13 273.09,-783 273.09,-783 273.09,-783 273.09,-501 273.09,-346.05 495.09,-296.26 618.57,-280.55"/>
<polygon fill="midnightblue" stroke="midnightblue" points="619.24,-283.99 628.74,-279.3 618.39,-277.04 619.24,-283.99"/>
</g>
<!-- Node9&#45;&gt;Node8 -->
<g id="edge14" class="edge">
<title>Node9&#45;&gt;Node8</title>
<path fill="none" stroke="midnightblue" d="M2848.93,-884.39C2842.47,-875.35 2832.03,-860.7 2823.09,-848 2738.22,-727.43 2550.67,-384.21 2416.09,-324 2335.23,-287.82 2107,-298.9 2019.09,-288 1999.29,-285.54 1977.2,-282.09 1959.63,-279.16"/>
<polygon fill="midnightblue" stroke="midnightblue" points="1959.78,-275.64 1949.34,-277.43 1958.62,-282.54 1959.78,-275.64"/>
</g>
<!-- Node10 -->
<g id="node10" class="node">
<title>Node10</title>
<g id="a_node10"><a xlink:href="_s_base_8h.html" target="_top" xlink:title="Definition of SBase, the base object of all SBML objects.">
<polygon fill="white" stroke="black" points="2312.59,-772.5 2312.59,-791.5 2395.59,-791.5 2395.59,-772.5 2312.59,-772.5"/>
<text text-anchor="middle" x="2354.09" y="-779.5" font-family="Helvetica,sans-Serif" font-size="10.00">sbml/SBase.h</text>
</a>
</g>
</g>
<!-- Node9&#45;&gt;Node10 -->
<g id="edge15" class="edge">
<title>Node9&#45;&gt;Node10</title>
<path fill="none" stroke="midnightblue" d="M2817.84,-884.82C2728.61,-865.23 2502.62,-815.61 2402.78,-793.69"/>
<polygon fill="midnightblue" stroke="midnightblue" points="2403.47,-790.26 2392.95,-791.53 2401.97,-797.1 2403.47,-790.26"/>
</g>
<!-- Node14 -->
<g id="node14" class="node">
<title>Node14</title>
<g id="a_node14"><a xlink:href="_x_m_l_attributes_8h.html" target="_top" xlink:title="XMLAttributes are a list of name/value pairs for XML elements.">
<polygon fill="white" stroke="black" points="1159.09,-380.5 1159.09,-399.5 1303.09,-399.5 1303.09,-380.5 1159.09,-380.5"/>
<text text-anchor="middle" x="1231.09" y="-387.5" font-family="Helvetica,sans-Serif" font-size="10.00">sbml/xml/XMLAttributes.h</text>
</a>
</g>
</g>
<!-- Node9&#45;&gt;Node14 -->
<g id="edge146" class="edge">
<title>Node9&#45;&gt;Node14</title>
<path fill="none" stroke="midnightblue" d="M2818.03,-891.48C2606.54,-882.11 1553.27,-825.71 1315.09,-624 1251.83,-570.43 1254.41,-536.36 1234.09,-456 1230.23,-440.75 1229.68,-422.87 1229.98,-409.72"/>
<polygon fill="midnightblue" stroke="midnightblue" points="1233.49,-409.71 1230.4,-399.57 1226.49,-409.42 1233.49,-409.71"/>
</g>
<!-- Node42 -->
<g id="node42" class="node">
<title>Node42</title>
<g id="a_node42"><a xlink:href="_expected_attributes_8h.html" target="_top" xlink:title="Definition of ExpectedAttributes, the class allowing the specification of attributes to expect.">
<polygon fill="white" stroke="black" points="2583.09,-436.5 2583.09,-455.5 2729.09,-455.5 2729.09,-436.5 2583.09,-436.5"/>
<text text-anchor="middle" x="2656.09" y="-443.5" font-family="Helvetica,sans-Serif" font-size="10.00">sbml/ExpectedAttributes.h</text>
</a>
</g>
</g>
<!-- Node9&#45;&gt;Node42 -->
<g id="edge134" class="edge">
<title>Node9&#45;&gt;Node42</title>
<path fill="none" stroke="midnightblue" d="M2851.29,-884.49C2827.42,-831 2698.07,-541.08 2664.2,-465.19"/>
<polygon fill="midnightblue" stroke="midnightblue" points="2667.2,-463.31 2659.92,-455.6 2660.8,-466.16 2667.2,-463.31"/>
</g>
<!-- Node9&#45;&gt;Node45 -->
<g id="edge135" class="edge">
<title>Node9&#45;&gt;Node45</title>
<path fill="none" stroke="midnightblue" d="M2892.18,-892.47C3005.29,-889.85 3338.09,-874.38 3338.09,-783 3338.09,-783 3338.09,-783 3338.09,-445 3338.09,-412.88 3335.08,-375.6 3333.01,-353.73"/>
<polygon fill="midnightblue" stroke="midnightblue" points="3336.47,-353.15 3332,-343.55 3329.5,-353.84 3336.47,-353.15"/>
</g>
<!-- Node46 -->
<g id="node46" class="node">
<title>Node46</title>
<g id="a_node46"><a xlink:href="_list_of_8h.html" target="_top" xlink:title=" ">
<polygon fill="white" stroke="black" points="2863.09,-828.5 2863.09,-847.5 2943.09,-847.5 2943.09,-828.5 2863.09,-828.5"/>
<text text-anchor="middle" x="2903.09" y="-835.5" font-family="Helvetica,sans-Serif" font-size="10.00">sbml/ListOf.h</text>
</a>
</g>
</g>
<!-- Node9&#45;&gt;Node46 -->
<g id="edge138" class="edge">
<title>Node9&#45;&gt;Node46</title>
<path fill="none" stroke="midnightblue" d="M2863.01,-884.08C2869.93,-876.3 2880.15,-864.8 2888.54,-855.37"/>
<polygon fill="midnightblue" stroke="midnightblue" points="2891.28,-857.55 2895.31,-847.75 2886.05,-852.9 2891.28,-857.55"/>
</g>
<!-- Node48 -->
<g id="node48" class="node">
<title>Node48</title>
<g id="a_node48"><a xlink:href="_x_m_l_input_stream_8h.html" target="_top" xlink:title="XMLInputStream.">
<polygon fill="white" stroke="black" points="584.59,-492.5 584.59,-511.5 739.59,-511.5 739.59,-492.5 584.59,-492.5"/>
<text text-anchor="middle" x="662.09" y="-499.5" font-family="Helvetica,sans-Serif" font-size="10.00">sbml/xml/XMLInputStream.h</text>
</a>
</g>
</g>
<!-- Node9&#45;&gt;Node48 -->
<g id="edge147" class="edge">
<title>Node9&#45;&gt;Node48</title>
<path fill="none" stroke="midnightblue" d="M2817.89,-892.79C2573.5,-891.32 1194.53,-881.64 775.09,-848 584.18,-832.69 349.09,-974.52 349.09,-783 349.09,-783 349.09,-783 349.09,-669 349.09,-566.48 481.77,-527.09 574.36,-512.08"/>
<polygon fill="midnightblue" stroke="midnightblue" points="574.97,-515.53 584.31,-510.54 573.9,-508.61 574.97,-515.53"/>
</g>
<!-- Node50 -->
<g id="node50" class="node">
<title>Node50</title>
<g id="a_node50"><a xlink:href="_x_m_l_output_stream_8h.html" target="_top" xlink:title="XMLOutputStream.">
<polygon fill="white" stroke="black" points="123.09,-324.5 123.09,-343.5 287.09,-343.5 287.09,-324.5 123.09,-324.5"/>
<text text-anchor="middle" x="205.09" y="-331.5" font-family="Helvetica,sans-Serif" font-size="10.00">sbml/xml/XMLOutputStream.h</text>
</a>
</g>
</g>
<!-- Node9&#45;&gt;Node50 -->
<g id="edge155" class="edge">
<title>Node9&#45;&gt;Node50</title>
<path fill="none" stroke="midnightblue" d="M2817.83,-892.75C2504.59,-890.63 320.4,-874.88 259.09,-848 222.52,-831.97 197.09,-822.92 197.09,-783 197.09,-783 197.09,-783 197.09,-501 197.09,-447.53 201.28,-384.48 203.59,-353.74"/>
<polygon fill="midnightblue" stroke="midnightblue" points="207.09,-353.87 204.38,-343.63 200.12,-353.33 207.09,-353.87"/>
</g>
<!-- Node54 -->
<g id="node54" class="node">
<title>Node54</title>
<g id="a_node54"><a xlink:href="_algebraic_rule_8h.html" target="_top" xlink:title="Definitions of AlgebraicRule.">
<polygon fill="white" stroke="black" points="3184.09,-380.5 3184.09,-399.5 3304.09,-399.5 3304.09,-380.5 3184.09,-380.5"/>
<text text-anchor="middle" x="3244.09" y="-387.5" font-family="Helvetica,sans-Serif" font-size="10.00">sbml/AlgebraicRule.h</text>
</a>
</g>
</g>
<!-- Node9&#45;&gt;Node54 -->
<g id="edge164" class="edge">
<title>Node9&#45;&gt;Node54</title>
<path fill="none" stroke="midnightblue" d="M2892.29,-888.15C2977.76,-876.6 3180.09,-843.82 3180.09,-783 3180.09,-783 3180.09,-783 3180.09,-501 3180.09,-464.24 3204.96,-427.18 3223.99,-406.84"/>
<polygon fill="midnightblue" stroke="midnightblue" points="3226.57,-409.21 3231.18,-399.67 3221.63,-404.25 3226.57,-409.21"/>
</g>
<!-- Node55 -->
<g id="node55" class="node">
<title>Node55</title>
<g id="a_node55"><a xlink:href="_assignment_rule_8h.html" target="_top" xlink:title="Definitions of AssignmentRule.">
<polygon fill="white" stroke="black" points="3034.09,-380.5 3034.09,-399.5 3166.09,-399.5 3166.09,-380.5 3034.09,-380.5"/>
<text text-anchor="middle" x="3100.09" y="-387.5" font-family="Helvetica,sans-Serif" font-size="10.00">sbml/AssignmentRule.h</text>
</a>
</g>
</g>
<!-- Node9&#45;&gt;Node55 -->
<g id="edge170" class="edge">
<title>Node9&#45;&gt;Node55</title>
<path fill="none" stroke="midnightblue" d="M2892.23,-890.57C2953.4,-884.35 3068.09,-862.14 3068.09,-783 3068.09,-783 3068.09,-783 3068.09,-501 3068.09,-467.97 3078.15,-430.52 3087.56,-408.94"/>
<polygon fill="midnightblue" stroke="midnightblue" points="3090.83,-410.23 3092.09,-399.71 3084.54,-407.15 3090.83,-410.23"/>
</g>
<!-- Node10&#45;&gt;Node2 -->
<g id="edge16" class="edge">
<title>Node10&#45;&gt;Node2</title>
<path fill="none" stroke="midnightblue" d="M2395.98,-778.02C2528.52,-767.44 2930.09,-726.22 2930.09,-615 2930.09,-615 2930.09,-615 2930.09,-445 2930.09,-412.4 2940.12,-402.1 2964.09,-380 2994.25,-352.19 3026.43,-378.2 3049.09,-344 3054,-336.59 3050.03,-332.84 3049.09,-324 3039.3,-232.47 3063.05,-189.2 2999.09,-123 2983.05,-106.4 2960.53,-95.92 2938.85,-89.3"/>
<polygon fill="midnightblue" stroke="midnightblue" points="2939.55,-85.86 2928.97,-86.52 2937.65,-92.59 2939.55,-85.86"/>
</g>
<!-- Node10&#45;&gt;Node4 -->
<g id="edge17" class="edge">
<title>Node10&#45;&gt;Node4</title>
<path fill="none" stroke="midnightblue" d="M2312.45,-780.82C2086.55,-779.68 1013.01,-772.4 870.09,-736 656.25,-681.54 516.72,-669.27 460.09,-456 443.55,-393.72 464.64,-356.84 520.09,-324 553.84,-304.01 595.88,-291.62 630.73,-284.12"/>
<polygon fill="midnightblue" stroke="midnightblue" points="631.74,-287.48 640.83,-282.03 630.33,-280.63 631.74,-287.48"/>
</g>
<!-- Node10&#45;&gt;Node8 -->
<g id="edge131" class="edge">
<title>Node10&#45;&gt;Node8</title>
<path fill="none" stroke="midnightblue" d="M2312.37,-776.53C2254.02,-767.71 2155.09,-742.25 2155.09,-671 2155.09,-671 2155.09,-671 2155.09,-501 2155.09,-420.81 2175.04,-382.4 2120.09,-324 2098.3,-300.85 2008.56,-284.94 1959.49,-277.78"/>
<polygon fill="midnightblue" stroke="midnightblue" points="1959.78,-274.29 1949.39,-276.35 1958.8,-281.22 1959.78,-274.29"/>
</g>
<!-- Node11 -->
<g id="node11" class="node">
<title>Node11</title>
<g id="a_node11"><a xlink:href="_s_b_m_l_type_codes_8h.html" target="_top" xlink:title="Enumeration to identify SBML objects at runtime.">
<polygon fill="white" stroke="black" points="3069.59,-263 3069.59,-282 3200.59,-282 3200.59,-263 3069.59,-263"/>
<text text-anchor="middle" x="3135.09" y="-270" font-family="Helvetica,sans-Serif" font-size="10.00">sbml/SBMLTypeCodes.h</text>
</a>
</g>
</g>
<!-- Node10&#45;&gt;Node11 -->
<g id="edge18" class="edge">
<title>Node10&#45;&gt;Node11</title>
<path fill="none" stroke="midnightblue" d="M2395.83,-779C2455.29,-775.21 2567.26,-764.63 2658.09,-736 2747.23,-707.9 2774.59,-694.39 2836.09,-624 2920.77,-527.06 2889.54,-457.8 2992.09,-380 3035.77,-346.86 3070.46,-381.9 3110.09,-344 3124.29,-330.42 3130.43,-308.27 3133.09,-292.42"/>
<polygon fill="midnightblue" stroke="midnightblue" points="3136.6,-292.59 3134.47,-282.21 3129.66,-291.65 3136.6,-292.59"/>
</g>
<!-- Node12 -->
<g id="node12" class="node">
<title>Node12</title>
<g id="a_node12"><a xlink:href="_r_d_f_annotation_8h.html" target="_top" xlink:title="RDFAnnotation I/O.">
<polygon fill="white" stroke="black" points="1909.09,-716.5 1909.09,-735.5 2089.09,-735.5 2089.09,-716.5 1909.09,-716.5"/>
<text text-anchor="middle" x="1999.09" y="-723.5" font-family="Helvetica,sans-Serif" font-size="10.00">sbml/annotation/RDFAnnotation.h</text>
</a>
</g>
</g>
<!-- Node10&#45;&gt;Node12 -->
<g id="edge21" class="edge">
<title>Node10&#45;&gt;Node12</title>
<path fill="none" stroke="midnightblue" d="M2312.32,-774.65C2251.31,-765.37 2137.25,-748.02 2064.89,-737.01"/>
<polygon fill="midnightblue" stroke="midnightblue" points="2065.38,-733.54 2054.97,-735.5 2064.33,-740.46 2065.38,-733.54"/>
</g>
<!-- Node18 -->
<g id="node18" class="node">
<title>Node18</title>
<g id="a_node18"><a xlink:title=" ">
<polygon fill="white" stroke="#bfbfbf" points="2319.59,-324.5 2319.59,-343.5 2384.59,-343.5 2384.59,-324.5 2319.59,-324.5"/>
<text text-anchor="middle" x="2352.09" y="-331.5" font-family="Helvetica,sans-Serif" font-size="10.00">stdexcept</text>
</a>
</g>
</g>
<!-- Node10&#45;&gt;Node18 -->
<g id="edge132" class="edge">
<title>Node10&#45;&gt;Node18</title>
<path fill="none" stroke="midnightblue" d="M2348.66,-772.25C2337.95,-754.1 2315.09,-710.71 2315.09,-671 2315.09,-671 2315.09,-671 2315.09,-501 2315.09,-446.3 2334.46,-383.84 2345.17,-353.5"/>
<polygon fill="midnightblue" stroke="midnightblue" points="2348.55,-354.44 2348.67,-343.84 2341.97,-352.05 2348.55,-354.44"/>
</g>
<!-- Node21 -->
<g id="node21" class="node">
<title>Node21</title>
<g id="a_node21"><a xlink:href="_list_8h.html" target="_top" xlink:title="Simple, generic list utility class.">
<polygon fill="white" stroke="black" points="1017.59,-492.5 1017.59,-511.5 1106.59,-511.5 1106.59,-492.5 1017.59,-492.5"/>
<text text-anchor="middle" x="1062.09" y="-499.5" font-family="Helvetica,sans-Serif" font-size="10.00">sbml/util/List.h</text>
</a>
</g>
</g>
<!-- Node10&#45;&gt;Node21 -->
<g id="edge86" class="edge">
<title>Node10&#45;&gt;Node21</title>
<path fill="none" stroke="midnightblue" d="M2312.56,-779.91C2082.95,-773.59 979.09,-739.66 979.09,-671 979.09,-671 979.09,-671 979.09,-613 979.09,-571.91 1016.45,-536.44 1041.04,-517.55"/>
<polygon fill="midnightblue" stroke="midnightblue" points="1043.16,-520.33 1049.12,-511.57 1039,-514.7 1043.16,-520.33"/>
</g>
<!-- Node23 -->
<g id="node23" class="node">
<title>Node23</title>
<g id="a_node23"><a xlink:href="_x_m_l_node_8h.html" target="_top" xlink:title="Class definition of XMLNode, a node in an XML document tree.">
<polygon fill="white" stroke="black" points="791.59,-492.5 791.59,-511.5 912.59,-511.5 912.59,-492.5 791.59,-492.5"/>
<text text-anchor="middle" x="852.09" y="-499.5" font-family="Helvetica,sans-Serif" font-size="10.00">sbml/xml/XMLNode.h</text>
</a>
</g>
</g>
<!-- Node10&#45;&gt;Node23 -->
<g id="edge122" class="edge">
<title>Node10&#45;&gt;Node23</title>
<path fill="none" stroke="midnightblue" d="M2312.55,-780.36C2130.41,-777.41 1401.34,-764.03 1174.09,-736 1034.8,-718.82 865.09,-811.34 865.09,-671 865.09,-671 865.09,-671 865.09,-613 865.09,-580.58 859.45,-543.15 855.6,-521.37"/>
<polygon fill="midnightblue" stroke="midnightblue" points="859.04,-520.72 853.79,-511.52 852.15,-521.99 859.04,-520.72"/>
</g>
<!-- Node31 -->
<g id="node31" class="node">
<title>Node31</title>
<g id="a_node31"><a xlink:href="_c_v_term_8h.html" target="_top" xlink:title="Definition of a CVTerm class for adding annotations to a Model.">
<polygon fill="white" stroke="black" points="1259.09,-436.5 1259.09,-455.5 1405.09,-455.5 1405.09,-436.5 1259.09,-436.5"/>
<text text-anchor="middle" x="1332.09" y="-443.5" font-family="Helvetica,sans-Serif" font-size="10.00">sbml/annotation/CVTerm.h</text>
</a>
</g>
</g>
<!-- Node10&#45;&gt;Node31 -->
<g id="edge76" class="edge">
<title>Node10&#45;&gt;Node31</title>
<path fill="none" stroke="midnightblue" d="M2312.34,-779.25C2155.72,-772.14 1612.09,-742.34 1612.09,-671 1612.09,-671 1612.09,-671 1612.09,-613 1612.09,-515.66 1485.33,-474.16 1402.38,-457.42"/>
<polygon fill="midnightblue" stroke="midnightblue" points="1402.98,-453.97 1392.5,-455.5 1401.65,-460.84 1402.98,-453.97"/>
</g>
<!-- Node32 -->
<g id="node32" class="node">
<title>Node32</title>
<g id="a_node32"><a xlink:href="_s_b_m_l_namespaces_8h.html" target="_top" xlink:title="SBMLNamespaces class to store level/version and namespace.">
<polygon fill="white" stroke="black" points="2167.59,-380.5 2167.59,-399.5 2310.59,-399.5 2310.59,-380.5 2167.59,-380.5"/>
<text text-anchor="middle" x="2239.09" y="-387.5" font-family="Helvetica,sans-Serif" font-size="10.00">sbml/SBMLNamespaces.h</text>
</a>
</g>
</g>
<!-- Node10&#45;&gt;Node32 -->
<g id="edge87" class="edge">
<title>Node10&#45;&gt;Node32</title>
<path fill="none" stroke="midnightblue" d="M2333.26,-772.47C2300.12,-757.36 2239.09,-722.53 2239.09,-671 2239.09,-671 2239.09,-671 2239.09,-501 2239.09,-468.95 2239.09,-431.64 2239.09,-409.75"/>
<polygon fill="midnightblue" stroke="midnightblue" points="2242.59,-409.56 2239.09,-399.56 2235.59,-409.56 2242.59,-409.56"/>
</g>
<!-- Node39 -->
<g id="node39" class="node">
<title>Node39</title>
<g id="a_node39"><a xlink:href="_syntax_checker_8h.html" target="_top" xlink:title="Syntax checking functions.">
<polygon fill="white" stroke="black" points="2866.59,-324.5 2866.59,-343.5 2991.59,-343.5 2991.59,-324.5 2866.59,-324.5"/>
<text text-anchor="middle" x="2929.09" y="-331.5" font-family="Helvetica,sans-Serif" font-size="10.00">sbml/SyntaxChecker.h</text>
</a>
</g>
</g>
<!-- Node10&#45;&gt;Node39 -->
<g id="edge105" class="edge">
<title>Node10&#45;&gt;Node39</title>
<path fill="none" stroke="midnightblue" d="M2396,-781.49C2448.53,-780.12 2539.57,-771.92 2608.09,-736 2736.41,-668.73 2836.09,-647.89 2836.09,-503 2836.09,-503 2836.09,-503 2836.09,-445 2836.09,-403.37 2874.56,-367.71 2902.22,-349"/>
<polygon fill="midnightblue" stroke="midnightblue" points="2904.22,-351.88 2910.76,-343.54 2900.45,-345.98 2904.22,-351.88"/>
</g>
<!-- Node40 -->
<g id="node40" class="node">
<title>Node40</title>
<g id="a_node40"><a xlink:href="_s_b_m_l_constructor_exception_8h.html" target="_top" xlink:title="Definition of SBMLConstructorException, the exception class for constructor exceptions.">
<polygon fill="white" stroke="black" points="2343.09,-436.5 2343.09,-455.5 2527.09,-455.5 2527.09,-436.5 2343.09,-436.5"/>
<text text-anchor="middle" x="2435.09" y="-443.5" font-family="Helvetica,sans-Serif" font-size="10.00">sbml/SBMLConstructorException.h</text>
</a>
</g>
</g>
<!-- Node10&#45;&gt;Node40 -->
<g id="edge110" class="edge">
<title>Node10&#45;&gt;Node40</title>
<path fill="none" stroke="midnightblue" d="M2359.65,-772.27C2370.64,-754.15 2394.09,-710.83 2394.09,-671 2394.09,-671 2394.09,-671 2394.09,-557 2394.09,-522.52 2412,-485.56 2424.14,-464.47"/>
<polygon fill="midnightblue" stroke="midnightblue" points="2427.25,-466.09 2429.39,-455.71 2421.25,-462.49 2427.25,-466.09"/>
</g>
<!-- Node41 -->
<g id="node41" class="node">
<title>Node41</title>
<g id="a_node41"><a xlink:title=" ">
<polygon fill="white" stroke="#bfbfbf" points="2744.09,-380.5 2744.09,-399.5 2808.09,-399.5 2808.09,-380.5 2744.09,-380.5"/>
<text text-anchor="middle" x="2776.09" y="-387.5" font-family="Helvetica,sans-Serif" font-size="10.00">algorithm</text>
</a>
</g>
</g>
<!-- Node10&#45;&gt;Node41 -->
<g id="edge133" class="edge">
<title>Node10&#45;&gt;Node41</title>
<path fill="none" stroke="midnightblue" d="M2395.82,-777.4C2455.29,-771.56 2560.61,-758.36 2591.09,-736 2707.69,-650.43 2758.27,-468.71 2772.02,-409.84"/>
<polygon fill="midnightblue" stroke="midnightblue" points="2775.51,-410.29 2774.29,-399.76 2768.68,-408.75 2775.51,-410.29"/>
</g>
<!-- Node10&#45;&gt;Node42 -->
<g id="edge116" class="edge">
<title>Node10&#45;&gt;Node42</title>
<path fill="none" stroke="midnightblue" d="M2395.71,-780.58C2466.1,-777.44 2601.09,-759.84 2601.09,-671 2601.09,-671 2601.09,-671 2601.09,-557 2601.09,-520.57 2625.52,-483.84 2641.82,-463.39"/>
<polygon fill="midnightblue" stroke="midnightblue" points="2644.52,-465.6 2648.21,-455.67 2639.13,-461.14 2644.52,-465.6"/>
</g>
<!-- Node43 -->
<g id="node43" class="node">
<title>Node43</title>
<g id="a_node43"><a xlink:href="_x_m_l_error_8h.html" target="_top" xlink:title="Represents errors (and messages) encountered during an XML parse.">
<polygon fill="white" stroke="black" points="1993.09,-324.5 1993.09,-343.5 2111.09,-343.5 2111.09,-324.5 1993.09,-324.5"/>
<text text-anchor="middle" x="2052.09" y="-331.5" font-family="Helvetica,sans-Serif" font-size="10.00">sbml/xml/XMLError.h</text>
</a>
</g>
</g>
<!-- Node10&#45;&gt;Node43 -->
<g id="edge123" class="edge">
<title>Node10&#45;&gt;Node43</title>
<path fill="none" stroke="midnightblue" d="M2312.52,-776.99C2258.01,-770.94 2166.32,-757.81 2141.09,-736 2117.79,-715.86 2117.09,-701.8 2117.09,-671 2117.09,-671 2117.09,-671 2117.09,-557 2117.09,-478.08 2078.78,-389.5 2060.98,-352.6"/>
<polygon fill="midnightblue" stroke="midnightblue" points="2064.11,-351.04 2056.55,-343.61 2057.83,-354.13 2064.11,-351.04"/>
</g>
<!-- Node11&#45;&gt;Node2 -->
<g id="edge20" class="edge">
<title>Node11&#45;&gt;Node2</title>
<path fill="none" stroke="midnightblue" d="M3133.07,-262.85C3126.62,-237.17 3103.97,-160.8 3055.09,-123 3024.17,-99.09 2982.31,-87.69 2946.33,-82.32"/>
<polygon fill="midnightblue" stroke="midnightblue" points="2946.73,-78.85 2936.35,-80.97 2945.79,-85.78 2946.73,-78.85"/>
</g>
<!-- Node11&#45;&gt;Node5 -->
<g id="edge19" class="edge">
<title>Node11&#45;&gt;Node5</title>
<path fill="none" stroke="midnightblue" d="M3069.37,-266.7C3022.94,-263.48 2959.23,-259.4 2903.09,-257 2071.02,-221.43 1060.21,-209.78 783.24,-207.14"/>
<polygon fill="midnightblue" stroke="midnightblue" points="782.95,-203.64 772.92,-207.04 782.89,-210.64 782.95,-203.64"/>
</g>
<!-- Node13 -->
<g id="node13" class="node">
<title>Node13</title>
<g id="a_node13"><a xlink:href="_r_d_f_annotation_parser_8h.html" target="_top" xlink:title="RDFAnnotation I/O.">
<polygon fill="white" stroke="black" points="1692.59,-660.5 1692.59,-679.5 1819.59,-679.5 1819.59,-660.5 1692.59,-660.5"/>
<text text-anchor="middle" x="1756.09" y="-667.5" font-family="Helvetica,sans-Serif" font-size="10.00">RDFAnnotationParser.h</text>
</a>
</g>
</g>
<!-- Node12&#45;&gt;Node13 -->
<g id="edge22" class="edge">
<title>Node12&#45;&gt;Node13</title>
<path fill="none" stroke="midnightblue" d="M1960.58,-716.44C1918.28,-707.04 1850.27,-691.93 1804.41,-681.74"/>
<polygon fill="midnightblue" stroke="midnightblue" points="1804.93,-678.27 1794.41,-679.52 1803.41,-685.1 1804.93,-678.27"/>
</g>
<!-- Node13&#45;&gt;Node2 -->
<g id="edge23" class="edge">
<title>Node13&#45;&gt;Node2</title>
<path fill="none" stroke="midnightblue" d="M1813.16,-660.46C1852.99,-653.41 1906.89,-641.66 1952.09,-624 1988.63,-609.72 2565.09,-312.73 2565.09,-273.5 2565.09,-273.5 2565.09,-273.5 2565.09,-204.5 2565.09,-105 2704.96,-82.22 2795.57,-77.9"/>
<polygon fill="midnightblue" stroke="midnightblue" points="2795.97,-81.39 2805.82,-77.48 2795.68,-74.39 2795.97,-81.39"/>
</g>
<!-- Node13&#45;&gt;Node4 -->
<g id="edge24" class="edge">
<title>Node13&#45;&gt;Node4</title>
<path fill="none" stroke="midnightblue" d="M1692.49,-663.1C1606.71,-655.01 1449.24,-639.68 1315.09,-624 936.07,-579.7 668.1,-784 473.09,-456 422.71,-371.26 581.03,-309.53 658.71,-285.07"/>
<polygon fill="midnightblue" stroke="midnightblue" points="660.14,-288.29 668.66,-282 658.07,-281.61 660.14,-288.29"/>
</g>
<!-- Node13&#45;&gt;Node8 -->
<g id="edge73" class="edge">
<title>Node13&#45;&gt;Node8</title>
<path fill="none" stroke="midnightblue" d="M1819.64,-662.31C1881.13,-651.91 1965.09,-625.53 1965.09,-559 1965.09,-559 1965.09,-559 1965.09,-445 1965.09,-387.98 1944.82,-322.78 1933.89,-291.75"/>
<polygon fill="midnightblue" stroke="midnightblue" points="1937.15,-290.49 1930.46,-282.27 1930.57,-292.87 1937.15,-290.49"/>
</g>
<!-- Node13&#45;&gt;Node14 -->
<g id="edge25" class="edge">
<title>Node13&#45;&gt;Node14</title>
<path fill="none" stroke="midnightblue" d="M1739.33,-660.44C1714.64,-647.87 1666.98,-623.76 1626.09,-604 1573.09,-578.39 1560.5,-570.42 1506.09,-548 1450.19,-524.97 1291.52,-500.02 1250.09,-456 1238.39,-443.57 1233.85,-424.33 1232.11,-410.01"/>
<polygon fill="midnightblue" stroke="midnightblue" points="1235.57,-409.46 1231.23,-399.79 1228.6,-410.06 1235.57,-409.46"/>
</g>
<!-- Node20 -->
<g id="node20" class="node">
<title>Node20</title>
<g id="a_node20"><a xlink:href="_model_history_8h.html" target="_top" xlink:title="ModelHistory I/O.">
<polygon fill="white" stroke="black" points="1324.09,-604.5 1324.09,-623.5 1496.09,-623.5 1496.09,-604.5 1324.09,-604.5"/>
<text text-anchor="middle" x="1410.09" y="-611.5" font-family="Helvetica,sans-Serif" font-size="10.00">sbml/annotation/ModelHistory.h</text>
</a>
</g>
</g>
<!-- Node13&#45;&gt;Node20 -->
<g id="edge38" class="edge">
<title>Node13&#45;&gt;Node20</title>
<path fill="none" stroke="midnightblue" d="M1701.26,-660.44C1639.76,-650.85 1540.1,-635.29 1474.83,-625.1"/>
<polygon fill="midnightblue" stroke="midnightblue" points="1475.08,-621.6 1464.65,-623.52 1474,-628.52 1475.08,-621.6"/>
</g>
<!-- Node25 -->
<g id="node25" class="node">
<title>Node25</title>
<g id="a_node25"><a xlink:title=" ">
<polygon fill="white" stroke="#bfbfbf" points="1397.59,-380.5 1397.59,-399.5 1446.59,-399.5 1446.59,-380.5 1397.59,-380.5"/>
<text text-anchor="middle" x="1422.09" y="-387.5" font-family="Helvetica,sans-Serif" font-size="10.00">cstdlib</text>
</a>
</g>
</g>
<!-- Node13&#45;&gt;Node25 -->
<g id="edge75" class="edge">
<title>Node13&#45;&gt;Node25</title>
<path fill="none" stroke="midnightblue" d="M1754.22,-660.34C1749.23,-638.92 1733.72,-582.66 1702.09,-548 1631.74,-470.92 1514.49,-422.6 1456.6,-402.21"/>
<polygon fill="midnightblue" stroke="midnightblue" points="1457.43,-398.79 1446.83,-398.84 1455.14,-405.41 1457.43,-398.79"/>
</g>
<!-- Node28 -->
<g id="node28" class="node">
<title>Node28</title>
<g id="a_node28"><a xlink:title=" ">
<polygon fill="white" stroke="#bfbfbf" points="423.09,-263 423.09,-282 467.09,-282 467.09,-263 423.09,-263"/>
<text text-anchor="middle" x="445.09" y="-270" font-family="Helvetica,sans-Serif" font-size="10.00">limits</text>
</a>
</g>
</g>
<!-- Node13&#45;&gt;Node28 -->
<g id="edge71" class="edge">
<title>Node13&#45;&gt;Node28</title>
<path fill="none" stroke="midnightblue" d="M1692.44,-668.69C1467.03,-667.31 714.76,-660.01 613.09,-624 530.15,-594.63 382.07,-412.39 377.09,-400 364.49,-368.66 361.91,-354.18 377.09,-324 385.27,-307.73 401.46,-295.38 415.98,-286.97"/>
<polygon fill="midnightblue" stroke="midnightblue" points="418.04,-289.83 425.19,-282.01 414.72,-283.67 418.04,-289.83"/>
</g>
<!-- Node29 -->
<g id="node29" class="node">
<title>Node29</title>
<g id="a_node29"><a xlink:title=" ">
<polygon fill="white" stroke="#bfbfbf" points="1503.09,-380.5 1503.09,-399.5 1559.09,-399.5 1559.09,-380.5 1503.09,-380.5"/>
<text text-anchor="middle" x="1531.09" y="-387.5" font-family="Helvetica,sans-Serif" font-size="10.00">iomanip</text>
</a>
</g>
</g>
<!-- Node13&#45;&gt;Node29 -->
<g id="edge72" class="edge">
<title>Node13&#45;&gt;Node29</title>
<path fill="none" stroke="midnightblue" d="M1757.1,-660.36C1759.14,-639.46 1761.8,-585.14 1740.09,-548 1697.75,-475.58 1607.58,-425.89 1560.73,-403.86"/>
<polygon fill="midnightblue" stroke="midnightblue" points="1561.97,-400.58 1551.43,-399.58 1559.05,-406.94 1561.97,-400.58"/>
</g>
<!-- Node30 -->
<g id="node30" class="node">
<title>Node30</title>
<g id="a_node30"><a xlink:title=" ">
<polygon fill="white" stroke="#bfbfbf" points="1653.09,-380.5 1653.09,-399.5 1709.09,-399.5 1709.09,-380.5 1653.09,-380.5"/>
<text text-anchor="middle" x="1681.09" y="-387.5" font-family="Helvetica,sans-Serif" font-size="10.00">sstream</text>
</a>
</g>
</g>
<!-- Node13&#45;&gt;Node30 -->
<g id="edge74" class="edge">
<title>Node13&#45;&gt;Node30</title>
<path fill="none" stroke="midnightblue" d="M1801.01,-660.42C1851.68,-647.83 1927.09,-619.01 1927.09,-559 1927.09,-559 1927.09,-559 1927.09,-501 1927.09,-411.11 1788.51,-394.19 1719.38,-391.34"/>
<polygon fill="midnightblue" stroke="midnightblue" points="1719.42,-387.84 1709.31,-391 1719.18,-394.83 1719.42,-387.84"/>
</g>
<!-- Node14&#45;&gt;Node4 -->
<g id="edge28" class="edge">
<title>Node14&#45;&gt;Node4</title>
<path fill="none" stroke="midnightblue" d="M1162.66,-380.5C1104.86,-372.76 1020.09,-360.1 947.09,-344 870.57,-327.13 782.74,-300.37 734.84,-285.13"/>
<polygon fill="midnightblue" stroke="midnightblue" points="735.84,-281.77 725.25,-282.06 733.71,-288.44 735.84,-281.77"/>
</g>
<!-- Node14&#45;&gt;Node8 -->
<g id="edge31" class="edge">
<title>Node14&#45;&gt;Node8</title>
<path fill="none" stroke="midnightblue" d="M1303.34,-383.47C1402.59,-375.46 1575.8,-359.82 1637.09,-344 1659.46,-338.22 1663.01,-330.84 1685.09,-324 1758.69,-301.21 1848.06,-285.55 1894.9,-278.23"/>
<polygon fill="midnightblue" stroke="midnightblue" points="1895.69,-281.65 1905.04,-276.67 1894.63,-274.73 1895.69,-281.65"/>
</g>
<!-- Node15 -->
<g id="node15" class="node">
<title>Node15</title>
<g id="a_node15"><a xlink:href="_x_m_l_extern_8h.html" target="_top" xlink:title="Defines LIBLAX_EXTERN.">
<polygon fill="white" stroke="black" points="31.59,-263 31.59,-282 158.59,-282 158.59,-263 31.59,-263"/>
<text text-anchor="middle" x="95.09" y="-270" font-family="Helvetica,sans-Serif" font-size="10.00">sbml/xml/XMLExtern.h</text>
</a>
</g>
</g>
<!-- Node14&#45;&gt;Node15 -->
<g id="edge26" class="edge">
<title>Node14&#45;&gt;Node15</title>
<path fill="none" stroke="midnightblue" d="M1158.71,-388.42C917.66,-386.2 154.91,-376.61 114.09,-344 98.8,-331.79 95.04,-308.67 94.46,-292.24"/>
<polygon fill="midnightblue" stroke="midnightblue" points="97.96,-292.15 94.47,-282.14 90.96,-292.14 97.96,-292.15"/>
</g>
<!-- Node16 -->
<g id="node16" class="node">
<title>Node16</title>
<g id="a_node16"><a xlink:href="operation_return_values_8h.html" target="_top" xlink:title="Enumeration of values returned by operations within libSBML.">
<polygon fill="white" stroke="black" points="1287.09,-257.5 1287.09,-287.5 1455.09,-287.5 1455.09,-257.5 1287.09,-257.5"/>
<text text-anchor="start" x="1295.09" y="-275.5" font-family="Helvetica,sans-Serif" font-size="10.00">sbml/common/operationReturn</text>
<text text-anchor="middle" x="1371.09" y="-264.5" font-family="Helvetica,sans-Serif" font-size="10.00">Values.h</text>
</a>
</g>
</g>
<!-- Node14&#45;&gt;Node16 -->
<g id="edge29" class="edge">
<title>Node14&#45;&gt;Node16</title>
<path fill="none" stroke="midnightblue" d="M1222.52,-380.3C1210.61,-367.13 1191.92,-341.77 1205.09,-324 1222.17,-300.94 1249.53,-288.05 1277.15,-280.96"/>
<polygon fill="midnightblue" stroke="midnightblue" points="1277.97,-284.36 1286.91,-278.68 1276.38,-277.54 1277.97,-284.36"/>
</g>
<!-- Node17 -->
<g id="node17" class="node">
<title>Node17</title>
<g id="a_node17"><a xlink:title=" ">
<polygon fill="white" stroke="#bfbfbf" points="2148.59,-263 2148.59,-282 2195.59,-282 2195.59,-263 2148.59,-263"/>
<text text-anchor="middle" x="2172.09" y="-270" font-family="Helvetica,sans-Serif" font-size="10.00">vector</text>
</a>
</g>
</g>
<!-- Node14&#45;&gt;Node17 -->
<g id="edge32" class="edge">
<title>Node14&#45;&gt;Node17</title>
<path fill="none" stroke="midnightblue" d="M1303.44,-384.76C1330.33,-383.22 1361.1,-381.49 1389.09,-380 1470.29,-375.69 2048.42,-382.43 2120.09,-344 2141.29,-332.63 2156.14,-308.4 2164.4,-291.54"/>
<polygon fill="midnightblue" stroke="midnightblue" points="2167.7,-292.72 2168.68,-282.17 2161.34,-289.81 2167.7,-292.72"/>
</g>
<!-- Node14&#45;&gt;Node18 -->
<g id="edge33" class="edge">
<title>Node14&#45;&gt;Node18</title>
<path fill="none" stroke="midnightblue" d="M1303.44,-384.7C1330.33,-383.14 1361.1,-381.43 1389.09,-380 1745.43,-361.85 1834.74,-361.96 2191.09,-344 2231.2,-341.98 2276.92,-339.4 2309.36,-337.52"/>
<polygon fill="midnightblue" stroke="midnightblue" points="2309.63,-341.01 2319.41,-336.93 2309.22,-334.02 2309.63,-341.01"/>
</g>
<!-- Node19 -->
<g id="node19" class="node">
<title>Node19</title>
<g id="a_node19"><a xlink:href="_x_m_l_triple_8h.html" target="_top" xlink:title="Stores an XML namespace triple.">
<polygon fill="white" stroke="black" points="955.59,-324.5 955.59,-343.5 1076.59,-343.5 1076.59,-324.5 955.59,-324.5"/>
<text text-anchor="middle" x="1016.09" y="-331.5" font-family="Helvetica,sans-Serif" font-size="10.00">sbml/xml/XMLTriple.h</text>
</a>
</g>
</g>
<!-- Node14&#45;&gt;Node19 -->
<g id="edge34" class="edge">
<title>Node14&#45;&gt;Node19</title>
<path fill="none" stroke="midnightblue" d="M1197.02,-380.44C1159.91,-371.12 1100.43,-356.18 1059.87,-346"/>
<polygon fill="midnightblue" stroke="midnightblue" points="1060.55,-342.56 1049.99,-343.52 1058.84,-349.35 1060.55,-342.56"/>
</g>
<!-- Node15&#45;&gt;Node3 -->
<g id="edge27" class="edge">
<title>Node15&#45;&gt;Node3</title>
<path fill="none" stroke="midnightblue" d="M110.15,-262.87C173.2,-226.74 416.84,-87.12 506.62,-35.68"/>
<polygon fill="midnightblue" stroke="midnightblue" points="508.62,-38.56 515.56,-30.56 505.14,-32.49 508.62,-38.56"/>
</g>
<!-- Node16&#45;&gt;Node2 -->
<g id="edge30" class="edge">
<title>Node16&#45;&gt;Node2</title>
<path fill="none" stroke="midnightblue" d="M1395.66,-257.43C1451.6,-226.26 1593.61,-151.85 1723.09,-123 1928.39,-77.26 2574.58,-76.34 2795.87,-77.44"/>
<polygon fill="midnightblue" stroke="midnightblue" points="2796.07,-80.94 2806.09,-77.49 2796.11,-73.94 2796.07,-80.94"/>
</g>
<!-- Node19&#45;&gt;Node4 -->
<g id="edge36" class="edge">
<title>Node19&#45;&gt;Node4</title>
<path fill="none" stroke="midnightblue" d="M970.67,-324.48C913.58,-313.76 815.67,-295.38 754.31,-283.87"/>
<polygon fill="midnightblue" stroke="midnightblue" points="754.89,-280.41 744.42,-282.01 753.6,-287.29 754.89,-280.41"/>
</g>
<!-- Node19&#45;&gt;Node8 -->
<g id="edge37" class="edge">
<title>Node19&#45;&gt;Node8</title>
<path fill="none" stroke="midnightblue" d="M1076.92,-329.03C1253.33,-317.51 1761.03,-284.35 1894.58,-275.62"/>
<polygon fill="midnightblue" stroke="midnightblue" points="1895.19,-279.09 1904.94,-274.95 1894.73,-272.11 1895.19,-279.09"/>
</g>
<!-- Node19&#45;&gt;Node15 -->
<g id="edge35" class="edge">
<title>Node19&#45;&gt;Node15</title>
<path fill="none" stroke="midnightblue" d="M955.42,-332.75C815.87,-331.53 461.58,-324.74 168.09,-288 159.88,-286.97 151.22,-285.55 142.84,-284"/>
<polygon fill="midnightblue" stroke="midnightblue" points="143.29,-280.52 132.81,-282.06 141.96,-287.4 143.29,-280.52"/>
</g>
<!-- Node20&#45;&gt;Node2 -->
<g id="edge39" class="edge">
<title>Node20&#45;&gt;Node2</title>
<path fill="none" stroke="midnightblue" d="M1453.96,-604.47C1492.78,-596.49 1550.76,-583.48 1600.09,-568 1664.82,-547.69 1679,-536.94 1742.09,-512 1930.59,-437.48 1983.5,-432.02 2166.09,-344 2343.81,-258.33 2364.46,-187.01 2551.09,-123 2631.81,-95.31 2729.58,-84.64 2795.64,-80.54"/>
<polygon fill="midnightblue" stroke="midnightblue" points="2796.19,-84.01 2805.97,-79.94 2795.78,-77.03 2796.19,-84.01"/>
</g>
<!-- Node20&#45;&gt;Node4 -->
<g id="edge40" class="edge">
<title>Node20&#45;&gt;Node4</title>
<path fill="none" stroke="midnightblue" d="M1323.79,-612.98C1252.07,-610.36 1148.47,-600.45 1064.09,-568 1023.24,-552.29 1018.06,-538.31 983.09,-512 940.43,-479.91 934.9,-465 890.09,-436 860.05,-416.56 848.98,-418.04 818.09,-400 779.66,-377.56 764.59,-377.32 735.09,-344 721.45,-328.6 711.45,-307.11 705.5,-291.91"/>
<polygon fill="midnightblue" stroke="midnightblue" points="708.64,-290.3 701.89,-282.14 702.07,-292.73 708.64,-290.3"/>
</g>
<!-- Node20&#45;&gt;Node8 -->
<g id="edge70" class="edge">
<title>Node20&#45;&gt;Node8</title>
<path fill="none" stroke="midnightblue" d="M1439.5,-604.43C1521.91,-579.98 1752.88,-508.25 1811.09,-456 1865.27,-407.36 1903.93,-327.68 1919.49,-291.9"/>
<polygon fill="midnightblue" stroke="midnightblue" points="1922.89,-292.86 1923.57,-282.29 1916.44,-290.13 1922.89,-292.86"/>
</g>
<!-- Node20&#45;&gt;Node16 -->
<g id="edge41" class="edge">
<title>Node20&#45;&gt;Node16</title>
<path fill="none" stroke="midnightblue" d="M1428.31,-604.36C1456.28,-591.27 1511.67,-566.01 1560.09,-548 1610.28,-529.33 1636.04,-548.66 1675.09,-512 1720.07,-469.77 1758.94,-426.24 1718.09,-380 1675.09,-331.33 1484.85,-375.54 1428.09,-344 1408.54,-333.14 1393.13,-312.61 1383.28,-296.49"/>
<polygon fill="midnightblue" stroke="midnightblue" points="1386.19,-294.52 1378.14,-287.62 1380.13,-298.03 1386.19,-294.52"/>
</g>
<!-- Node20&#45;&gt;Node21 -->
<g id="edge42" class="edge">
<title>Node20&#45;&gt;Node21</title>
<path fill="none" stroke="midnightblue" d="M1323.85,-611.43C1239.11,-608.13 1117.51,-598.1 1082.09,-568 1068.75,-556.67 1064.15,-536.67 1062.65,-521.84"/>
<polygon fill="midnightblue" stroke="midnightblue" points="1066.13,-521.49 1062,-511.73 1059.14,-521.93 1066.13,-521.49"/>
</g>
<!-- Node20&#45;&gt;Node23 -->
<g id="edge45" class="edge">
<title>Node20&#45;&gt;Node23</title>
<path fill="none" stroke="midnightblue" d="M1323.85,-611.26C1204.64,-607.79 996.36,-597.57 927.09,-568 901.95,-557.27 879.17,-534.88 865.47,-519.4"/>
<polygon fill="midnightblue" stroke="midnightblue" points="868,-516.97 858.84,-511.63 862.67,-521.51 868,-516.97"/>
</g>
<!-- Node26 -->
<g id="node26" class="node">
<title>Node26</title>
<g id="a_node26"><a xlink:href="_date_8h.html" target="_top" xlink:title="Date I/O.">
<polygon fill="white" stroke="black" points="1090.59,-548.5 1090.59,-567.5 1221.59,-567.5 1221.59,-548.5 1090.59,-548.5"/>
<text text-anchor="middle" x="1156.09" y="-555.5" font-family="Helvetica,sans-Serif" font-size="10.00">sbml/annotation/Date.h</text>
</a>
</g>
</g>
<!-- Node20&#45;&gt;Node26 -->
<g id="edge56" class="edge">
<title>Node20&#45;&gt;Node26</title>
<path fill="none" stroke="midnightblue" d="M1369.84,-604.44C1325.44,-595 1253.93,-579.8 1206,-569.61"/>
<polygon fill="midnightblue" stroke="midnightblue" points="1206.65,-566.17 1196.15,-567.52 1205.2,-573.02 1206.65,-566.17"/>
</g>
<!-- Node27 -->
<g id="node27" class="node">
<title>Node27</title>
<g id="a_node27"><a xlink:href="_model_creator_8h.html" target="_top" xlink:title="ModelCreator I/O.">
<polygon fill="white" stroke="black" points="1323.59,-548.5 1323.59,-567.5 1496.59,-567.5 1496.59,-548.5 1323.59,-548.5"/>
<text text-anchor="middle" x="1410.09" y="-555.5" font-family="Helvetica,sans-Serif" font-size="10.00">sbml/annotation/ModelCreator.h</text>
</a>
</g>
</g>
<!-- Node20&#45;&gt;Node27 -->
<g id="edge63" class="edge">
<title>Node20&#45;&gt;Node27</title>
<path fill="none" stroke="midnightblue" d="M1410.09,-604.08C1410.09,-597.01 1410.09,-586.86 1410.09,-577.99"/>
<polygon fill="midnightblue" stroke="midnightblue" points="1413.59,-577.75 1410.09,-567.75 1406.59,-577.75 1413.59,-577.75"/>
</g>
<!-- Node21&#45;&gt;Node2 -->
<g id="edge43" class="edge">
<title>Node21&#45;&gt;Node2</title>
<path fill="none" stroke="midnightblue" d="M1047.38,-492.46C1012.39,-470.9 927.09,-410.59 927.09,-335 927.09,-335 927.09,-335 927.09,-204.5 927.09,-107.69 1034.3,-142.67 1129.09,-123 1293.47,-88.88 2482.54,-80.1 2795.68,-78.37"/>
<polygon fill="midnightblue" stroke="midnightblue" points="2796.02,-81.86 2806,-78.31 2795.99,-74.86 2796.02,-81.86"/>
</g>
<!-- Node22 -->
<g id="node22" class="node">
<title>Node22</title>
<g id="a_node22"><a xlink:title=" ">
<polygon fill="white" stroke="#bfbfbf" points="1035.59,-436.5 1035.59,-455.5 1088.59,-455.5 1088.59,-436.5 1035.59,-436.5"/>
<text text-anchor="middle" x="1062.09" y="-443.5" font-family="Helvetica,sans-Serif" font-size="10.00">string.h</text>
</a>
</g>
</g>
<!-- Node21&#45;&gt;Node22 -->
<g id="edge44" class="edge">
<title>Node21&#45;&gt;Node22</title>
<path fill="none" stroke="midnightblue" d="M1062.09,-492.08C1062.09,-485.01 1062.09,-474.86 1062.09,-465.99"/>
<polygon fill="midnightblue" stroke="midnightblue" points="1065.59,-465.75 1062.09,-455.75 1058.59,-465.75 1065.59,-465.75"/>
</g>
<!-- Node23&#45;&gt;Node4 -->
<g id="edge53" class="edge">
<title>Node23&#45;&gt;Node4</title>
<path fill="none" stroke="midnightblue" d="M859.7,-492.26C870.27,-479.04 886.72,-453.63 874.09,-436 845.11,-395.56 812.66,-422.11 768.09,-400 728.22,-380.23 705.98,-383.29 685.09,-344 676.33,-327.53 682.58,-306.25 689.29,-291.4"/>
<polygon fill="midnightblue" stroke="midnightblue" points="692.5,-292.79 693.83,-282.28 686.24,-289.67 692.5,-292.79"/>
</g>
<!-- Node23&#45;&gt;Node15 -->
<g id="edge46" class="edge">
<title>Node23&#45;&gt;Node15</title>
<path fill="none" stroke="midnightblue" d="M826.51,-492.45C778.51,-476.52 676.52,-443.26 640.09,-436 476.32,-403.36 429.81,-432.85 266.09,-400 183.53,-383.44 135.06,-411.77 85.09,-344 74,-328.96 79.49,-307.11 85.84,-291.73"/>
<polygon fill="midnightblue" stroke="midnightblue" points="89.19,-292.83 90.19,-282.28 82.83,-289.9 89.19,-292.83"/>
</g>
<!-- Node23&#45;&gt;Node17 -->
<g id="edge54" class="edge">
<title>Node23&#45;&gt;Node17</title>
<path fill="none" stroke="midnightblue" d="M912.72,-497.52C1050.1,-489.51 1381.78,-469.43 1493.09,-456 1566.06,-447.19 2088.28,-390.65 2145.09,-344 2160.56,-331.29 2167.18,-308.65 2170,-292.45"/>
<polygon fill="midnightblue" stroke="midnightblue" points="2173.48,-292.86 2171.41,-282.47 2166.55,-291.88 2173.48,-292.86"/>
</g>
<!-- Node24 -->
<g id="node24" class="node">
<title>Node24</title>
<g id="a_node24"><a xlink:href="_x_m_l_token_8h.html" target="_top" xlink:title="A unit of XML syntax, either an XML element or text.">
<polygon fill="white" stroke="black" points="725.09,-436.5 725.09,-455.5 847.09,-455.5 847.09,-436.5 725.09,-436.5"/>
<text text-anchor="middle" x="786.09" y="-443.5" font-family="Helvetica,sans-Serif" font-size="10.00">sbml/xml/XMLToken.h</text>
</a>
</g>
</g>
<!-- Node23&#45;&gt;Node24 -->
<g id="edge47" class="edge">
<title>Node23&#45;&gt;Node24</title>
<path fill="none" stroke="midnightblue" d="M841.48,-492.32C831.63,-484.26 816.74,-472.08 804.87,-462.37"/>
<polygon fill="midnightblue" stroke="midnightblue" points="806.84,-459.46 796.88,-455.83 802.41,-464.88 806.84,-459.46"/>
</g>
<!-- Node23&#45;&gt;Node25 -->
<g id="edge55" class="edge">
<title>Node23&#45;&gt;Node25</title>
<path fill="none" stroke="midnightblue" d="M912.69,-497.15C1056.13,-487.91 1405.11,-464.6 1414.09,-456 1426.25,-444.34 1427.01,-424.39 1425.5,-409.66"/>
<polygon fill="midnightblue" stroke="midnightblue" points="1428.94,-409.03 1424.04,-399.64 1422.01,-410.04 1428.94,-409.03"/>
</g>
<!-- Node24&#45;&gt;Node4 -->
<g id="edge51" class="edge">
<title>Node24&#45;&gt;Node4</title>
<path fill="none" stroke="midnightblue" d="M755.82,-436.43C734.37,-429.26 705.84,-417.37 685.09,-400 662.02,-380.7 655.92,-372.75 647.09,-344 644.48,-335.5 643.63,-332.19 647.09,-324 653.18,-309.59 665.62,-297.27 676.8,-288.4"/>
<polygon fill="midnightblue" stroke="midnightblue" points="679.04,-291.09 684.98,-282.32 674.87,-285.48 679.04,-291.09"/>
</g>
<!-- Node24&#45;&gt;Node8 -->
<g id="edge52" class="edge">
<title>Node24&#45;&gt;Node8</title>
<path fill="none" stroke="midnightblue" d="M826.29,-436.49C893.17,-422.64 1031.66,-395.23 1150.09,-380 1350.84,-354.18 1411.45,-406.13 1604.09,-344 1620.41,-338.74 1621.03,-330.02 1637.09,-324 1726.59,-290.45 1840.1,-278.97 1894.77,-275.22"/>
<polygon fill="midnightblue" stroke="midnightblue" points="1895.14,-278.7 1904.9,-274.56 1894.69,-271.71 1895.14,-278.7"/>
</g>
<!-- Node24&#45;&gt;Node14 -->
<g id="edge49" class="edge">
<title>Node24&#45;&gt;Node14</title>
<path fill="none" stroke="midnightblue" d="M847.49,-437.55C926.39,-427.97 1063.53,-411.33 1150.67,-400.76"/>
<polygon fill="midnightblue" stroke="midnightblue" points="1151.28,-404.21 1160.78,-399.53 1150.43,-397.26 1151.28,-404.21"/>
</g>
<!-- Node24&#45;&gt;Node15 -->
<g id="edge48" class="edge">
<title>Node24&#45;&gt;Node15</title>
<path fill="none" stroke="midnightblue" d="M725,-438.19C560.3,-419.55 117.99,-367.5 97.09,-344 84.66,-330.02 86.35,-307.63 89.74,-291.83"/>
<polygon fill="midnightblue" stroke="midnightblue" points="93.13,-292.69 92.2,-282.14 86.34,-290.97 93.13,-292.69"/>
</g>
<!-- Node24&#45;&gt;Node24 -->
<g id="edge50" class="edge">
<title>Node24&#45;&gt;Node24</title>
<path fill="none" stroke="midnightblue" d="M819.78,-455.53C842.67,-458.31 865.09,-455.13 865.09,-446 865.09,-438.22 848.83,-434.77 829.87,-435.63"/>
<polygon fill="midnightblue" stroke="midnightblue" points="829.45,-432.15 819.78,-436.47 830.04,-439.13 829.45,-432.15"/>
</g>
<!-- Node26&#45;&gt;Node2 -->
<g id="edge57" class="edge">
<title>Node26&#45;&gt;Node2</title>
<path fill="none" stroke="midnightblue" d="M1155.39,-548.19C1152.69,-513.36 1143.09,-381.9 1143.09,-273.5 1143.09,-273.5 1143.09,-273.5 1143.09,-204.5 1143.09,9.7 1405.02,-145 1618.09,-123 1848.51,-99.2 2561.87,-83.87 2795.89,-79.38"/>
<polygon fill="midnightblue" stroke="midnightblue" points="2796.07,-82.87 2806,-79.18 2795.94,-75.88 2796.07,-82.87"/>
</g>
<!-- Node26&#45;&gt;Node4 -->
<g id="edge58" class="edge">
<title>Node26&#45;&gt;Node4</title>
<path fill="none" stroke="midnightblue" d="M1103.27,-548.47C1073.76,-541.91 1037.37,-530.69 1009.09,-512 972.25,-487.65 980.26,-462.7 945.09,-436 914.35,-412.67 900.68,-417.09 866.09,-400 818.67,-376.58 802.55,-376.83 761.09,-344 741.22,-328.27 722.61,-305.64 711.07,-290.3"/>
<polygon fill="midnightblue" stroke="midnightblue" points="713.87,-288.2 705.13,-282.21 708.23,-292.34 713.87,-288.2"/>
</g>
<!-- Node26&#45;&gt;Node8 -->
<g id="edge62" class="edge">
<title>Node26&#45;&gt;Node8</title>
<path fill="none" stroke="midnightblue" d="M1213.55,-548.49C1321.6,-531.03 1560.73,-485.43 1745.09,-400 1753.86,-395.93 1861.15,-320.2 1906.77,-287.9"/>
<polygon fill="midnightblue" stroke="midnightblue" points="1908.89,-290.69 1915.03,-282.05 1904.84,-284.98 1908.89,-290.69"/>
</g>
<!-- Node26&#45;&gt;Node16 -->
<g id="edge59" class="edge">
<title>Node26&#45;&gt;Node16</title>
<path fill="none" stroke="midnightblue" d="M1160.28,-548.11C1167.59,-533.71 1184.09,-505.53 1207.09,-492 1294.75,-440.43 1353.33,-519.12 1433.09,-456 1460.76,-434.1 1475.25,-409.64 1456.09,-380 1434.92,-347.26 1398.4,-375.97 1376.09,-344 1366.85,-330.77 1365.79,-312.53 1366.93,-297.92"/>
<polygon fill="midnightblue" stroke="midnightblue" points="1370.45,-297.94 1368.14,-287.6 1363.5,-297.12 1370.45,-297.94"/>
</g>
<!-- Node26&#45;&gt;Node21 -->
<g id="edge60" class="edge">
<title>Node26&#45;&gt;Node21</title>
<path fill="none" stroke="midnightblue" d="M1140.98,-548.32C1126.18,-539.82 1103.39,-526.73 1086.1,-516.8"/>
<polygon fill="midnightblue" stroke="midnightblue" points="1087.57,-513.6 1077.15,-511.65 1084.08,-519.67 1087.57,-513.6"/>
</g>
<!-- Node26&#45;&gt;Node23 -->
<g id="edge61" class="edge">
<title>Node26&#45;&gt;Node23</title>
<path fill="none" stroke="midnightblue" d="M1107.92,-548.44C1054.22,-538.9 967.4,-523.48 910.03,-513.29"/>
<polygon fill="midnightblue" stroke="midnightblue" points="910.49,-509.82 900.03,-511.52 909.26,-516.71 910.49,-509.82"/>
</g>
<!-- Node27&#45;&gt;Node2 -->
<g id="edge64" class="edge">
<title>Node27&#45;&gt;Node2</title>
<path fill="none" stroke="midnightblue" d="M1439.57,-548.46C1463.02,-540.92 1496.09,-528.53 1522.09,-512 1552.87,-492.42 1557.17,-482.64 1582.09,-456 1611.87,-424.17 1615.97,-413.31 1644.09,-380 1684.62,-331.98 1737.09,-336.34 1737.09,-273.5 1737.09,-273.5 1737.09,-273.5 1737.09,-204.5 1737.09,-97.65 2542.6,-81.05 2795.84,-78.47"/>
<polygon fill="midnightblue" stroke="midnightblue" points="2796.08,-81.97 2806.05,-78.37 2796.01,-74.97 2796.08,-81.97"/>
</g>
<!-- Node27&#45;&gt;Node4 -->
<g id="edge65" class="edge">
<title>Node27&#45;&gt;Node4</title>
<path fill="none" stroke="midnightblue" d="M1390.69,-548.46C1342.13,-527.3 1211.13,-471.6 1098.09,-436 1033.93,-415.8 1015.41,-419.66 951.09,-400 882.24,-378.96 862.83,-377.47 799.09,-344 768.59,-327.99 736.6,-303.97 717.25,-288.52"/>
<polygon fill="midnightblue" stroke="midnightblue" points="719.27,-285.65 709.3,-282.08 714.87,-291.09 719.27,-285.65"/>
</g>
<!-- Node27&#45;&gt;Node8 -->
<g id="edge69" class="edge">
<title>Node27&#45;&gt;Node8</title>
<path fill="none" stroke="midnightblue" d="M1496.9,-555.08C1580.96,-548.79 1707.37,-527.03 1789.09,-456 1811.79,-436.27 1810.61,-425.16 1827.09,-400 1848.97,-366.58 1849.91,-355.02 1875.09,-324 1885.35,-311.35 1898.52,-298.59 1909.04,-289.06"/>
<polygon fill="midnightblue" stroke="midnightblue" points="1911.65,-291.42 1916.8,-282.17 1907,-286.19 1911.65,-291.42"/>
</g>
<!-- Node27&#45;&gt;Node16 -->
<g id="edge66" class="edge">
<title>Node27&#45;&gt;Node16</title>
<path fill="none" stroke="midnightblue" d="M1428.84,-548.41C1481.38,-523.22 1622.67,-447.11 1568.09,-380 1518.53,-319.07 1453.93,-396.02 1395.09,-344 1381.86,-332.31 1375.92,-313.04 1373.25,-297.6"/>
<polygon fill="midnightblue" stroke="midnightblue" points="1376.71,-297.09 1371.88,-287.66 1369.78,-298.05 1376.71,-297.09"/>
</g>
<!-- Node27&#45;&gt;Node21 -->
<g id="edge67" class="edge">
<title>Node27&#45;&gt;Node21</title>
<path fill="none" stroke="midnightblue" d="M1354.95,-548.44C1289.73,-538.32 1181.83,-521.58 1116.8,-511.49"/>
<polygon fill="midnightblue" stroke="midnightblue" points="1117.16,-508 1106.75,-509.93 1116.09,-514.92 1117.16,-508"/>
</g>
<!-- Node27&#45;&gt;Node23 -->
<g id="edge68" class="edge">
<title>Node27&#45;&gt;Node23</title>
<path fill="none" stroke="midnightblue" d="M1323.51,-548.62C1213.27,-537.95 1024.88,-519.72 922.81,-509.84"/>
<polygon fill="midnightblue" stroke="midnightblue" points="922.9,-506.34 912.61,-508.86 922.23,-513.3 922.9,-506.34"/>
</g>
<!-- Node31&#45;&gt;Node2 -->
<g id="edge77" class="edge">
<title>Node31&#45;&gt;Node2</title>
<path fill="none" stroke="midnightblue" d="M1259.92,-436.48C1117.32,-417.62 813.09,-366.5 813.09,-273.5 813.09,-273.5 813.09,-273.5 813.09,-204.5 813.09,-147.16 859.29,-142.84 913.09,-123 1002.8,-89.91 2447.01,-80.23 2795.74,-78.36"/>
<polygon fill="midnightblue" stroke="midnightblue" points="2796,-81.86 2805.98,-78.31 2795.96,-74.86 2796,-81.86"/>
</g>
<!-- Node31&#45;&gt;Node4 -->
<g id="edge78" class="edge">
<title>Node31&#45;&gt;Node4</title>
<path fill="none" stroke="midnightblue" d="M1277.55,-436.5C1189.81,-422.08 1012.44,-389.86 867.09,-344 815.97,-327.87 758.91,-302.2 726.17,-286.69"/>
<polygon fill="midnightblue" stroke="midnightblue" points="727.36,-283.38 716.83,-282.23 724.34,-289.7 727.36,-283.38"/>
</g>
<!-- Node31&#45;&gt;Node8 -->
<g id="edge83" class="edge">
<title>Node31&#45;&gt;Node8</title>
<path fill="none" stroke="midnightblue" d="M1336.74,-436.48C1345.11,-422.08 1364.16,-393.23 1389.09,-380 1502.24,-319.93 1549.5,-369.33 1675.09,-344 1755.37,-327.81 1847.55,-299.46 1895.05,-284.11"/>
<polygon fill="midnightblue" stroke="midnightblue" points="1896.34,-287.37 1904.77,-280.95 1894.18,-280.71 1896.34,-287.37"/>
</g>
<!-- Node31&#45;&gt;Node14 -->
<g id="edge80" class="edge">
<title>Node31&#45;&gt;Node14</title>
<path fill="none" stroke="midnightblue" d="M1315.86,-436.32C1299.74,-427.7 1274.79,-414.36 1256.12,-404.39"/>
<polygon fill="midnightblue" stroke="midnightblue" points="1257.74,-401.28 1247.27,-399.65 1254.44,-407.46 1257.74,-401.28"/>
</g>
<!-- Node31&#45;&gt;Node16 -->
<g id="edge79" class="edge">
<title>Node31&#45;&gt;Node16</title>
<path fill="none" stroke="midnightblue" d="M1331.53,-436.43C1330.24,-422.97 1325.99,-396.7 1312.09,-380 1286.82,-349.65 1220.87,-356.65 1243.09,-324 1253.03,-309.39 1267.92,-299 1284.06,-291.63"/>
<polygon fill="midnightblue" stroke="midnightblue" points="1285.79,-294.69 1293.68,-287.62 1283.1,-288.23 1285.79,-294.69"/>
</g>
<!-- Node31&#45;&gt;Node25 -->
<g id="edge85" class="edge">
<title>Node31&#45;&gt;Node25</title>
<path fill="none" stroke="midnightblue" d="M1346.55,-436.32C1360.59,-427.9 1382.14,-414.97 1398.63,-405.07"/>
<polygon fill="midnightblue" stroke="midnightblue" points="1400.89,-407.8 1407.66,-399.65 1397.29,-401.8 1400.89,-407.8"/>
</g>
<!-- Node31&#45;&gt;Node28 -->
<g id="edge81" class="edge">
<title>Node31&#45;&gt;Node28</title>
<path fill="none" stroke="midnightblue" d="M1258.99,-439.15C1181.98,-432.35 1057.38,-419.48 951.09,-400 769.95,-366.8 557.28,-306.52 477.49,-283.13"/>
<polygon fill="midnightblue" stroke="midnightblue" points="478.14,-279.68 467.56,-280.21 476.16,-286.39 478.14,-279.68"/>
</g>
<!-- Node31&#45;&gt;Node29 -->
<g id="edge82" class="edge">
<title>Node31&#45;&gt;Node29</title>
<path fill="none" stroke="midnightblue" d="M1363.62,-436.44C1398.68,-426.93 1455.31,-411.56 1492.87,-401.37"/>
<polygon fill="midnightblue" stroke="midnightblue" points="1494.19,-404.64 1502.92,-398.64 1492.35,-397.88 1494.19,-404.64"/>
</g>
<!-- Node31&#45;&gt;Node30 -->
<g id="edge84" class="edge">
<title>Node31&#45;&gt;Node30</title>
<path fill="none" stroke="midnightblue" d="M1387.39,-436.44C1458.61,-425.42 1580.58,-406.55 1642.54,-396.96"/>
<polygon fill="midnightblue" stroke="midnightblue" points="1643.32,-400.39 1652.67,-395.4 1642.25,-393.47 1643.32,-400.39"/>
</g>
<!-- Node32&#45;&gt;Node8 -->
<g id="edge103" class="edge">
<title>Node32&#45;&gt;Node8</title>
<path fill="none" stroke="midnightblue" d="M2230.4,-380.36C2215.76,-366.31 2184.68,-338.62 2153.09,-324 2118.8,-308.13 2013.02,-288.34 1959.22,-278.94"/>
<polygon fill="midnightblue" stroke="midnightblue" points="1959.64,-275.46 1949.19,-277.2 1958.45,-282.36 1959.64,-275.46"/>
</g>
<!-- Node32&#45;&gt;Node18 -->
<g id="edge104" class="edge">
<title>Node32&#45;&gt;Node18</title>
<path fill="none" stroke="midnightblue" d="M2256.99,-380.44C2275.34,-371.68 2304.09,-357.94 2325.18,-347.86"/>
<polygon fill="midnightblue" stroke="midnightblue" points="2326.75,-350.99 2334.27,-343.52 2323.73,-344.67 2326.75,-350.99"/>
</g>
<!-- Node33 -->
<g id="node33" class="node">
<title>Node33</title>
<g id="a_node33"><a xlink:href="_x_m_l_namespaces_8h.html" target="_top" xlink:title="A list of XMLNamespace declarations (URI/prefix pairs)">
<polygon fill="white" stroke="black" points="1437.09,-324.5 1437.09,-343.5 1595.09,-343.5 1595.09,-324.5 1437.09,-324.5"/>
<text text-anchor="middle" x="1516.09" y="-331.5" font-family="Helvetica,sans-Serif" font-size="10.00">sbml/xml/XMLNamespaces.h</text>
</a>
</g>
</g>
<!-- Node32&#45;&gt;Node33 -->
<g id="edge88" class="edge">
<title>Node32&#45;&gt;Node33</title>
<path fill="none" stroke="midnightblue" d="M2167.45,-383.65C2034.64,-373.73 1750.55,-352.51 1605.42,-341.67"/>
<polygon fill="midnightblue" stroke="midnightblue" points="1605.45,-338.16 1595.22,-340.91 1604.93,-345.15 1605.45,-338.16"/>
</g>
<!-- Node34 -->
<g id="node34" class="node">
<title>Node34</title>
<g id="a_node34"><a xlink:href="common_8h.html" target="_top" xlink:title="Common functions and macros for C and C++.">
<polygon fill="white" stroke="black" points="2707.59,-324.5 2707.59,-343.5 2848.59,-343.5 2848.59,-324.5 2707.59,-324.5"/>
<text text-anchor="middle" x="2778.09" y="-331.5" font-family="Helvetica,sans-Serif" font-size="10.00">sbml/common/common.h</text>
</a>
</g>
</g>
<!-- Node32&#45;&gt;Node34 -->
<g id="edge94" class="edge">
<title>Node32&#45;&gt;Node34</title>
<path fill="none" stroke="midnightblue" d="M2310.66,-381.83C2410.85,-371.79 2592.36,-353.61 2697.28,-343.1"/>
<polygon fill="midnightblue" stroke="midnightblue" points="2697.9,-346.55 2707.5,-342.07 2697.2,-339.59 2697.9,-346.55"/>
</g>
<!-- Node33&#45;&gt;Node4 -->
<g id="edge90" class="edge">
<title>Node33&#45;&gt;Node4</title>
<path fill="none" stroke="midnightblue" d="M1437.01,-327.24C1281.15,-315.89 935.84,-290.74 779.17,-279.33"/>
<polygon fill="midnightblue" stroke="midnightblue" points="779.35,-275.84 769.13,-278.6 778.84,-282.82 779.35,-275.84"/>
</g>
<!-- Node33&#45;&gt;Node8 -->
<g id="edge92" class="edge">
<title>Node33&#45;&gt;Node8</title>
<path fill="none" stroke="midnightblue" d="M1574.97,-324.48C1662.83,-311.76 1825.29,-288.24 1894.5,-278.22"/>
<polygon fill="midnightblue" stroke="midnightblue" points="1895.38,-281.63 1904.78,-276.73 1894.38,-274.7 1895.38,-281.63"/>
</g>
<!-- Node33&#45;&gt;Node15 -->
<g id="edge89" class="edge">
<title>Node33&#45;&gt;Node15</title>
<path fill="none" stroke="midnightblue" d="M1436.84,-331.11C1167,-324.56 293.7,-302.47 168.09,-288 159.6,-287.02 150.63,-285.58 141.98,-283.98"/>
<polygon fill="midnightblue" stroke="midnightblue" points="142.52,-280.52 132.04,-282.05 141.19,-287.39 142.52,-280.52"/>
</g>
<!-- Node33&#45;&gt;Node16 -->
<g id="edge91" class="edge">
<title>Node33&#45;&gt;Node16</title>
<path fill="none" stroke="midnightblue" d="M1495.31,-324.48C1474.39,-315.89 1441.47,-302.38 1414.78,-291.43"/>
<polygon fill="midnightblue" stroke="midnightblue" points="1415.84,-288.08 1405.26,-287.52 1413.18,-294.56 1415.84,-288.08"/>
</g>
<!-- Node33&#45;&gt;Node17 -->
<g id="edge93" class="edge">
<title>Node33&#45;&gt;Node17</title>
<path fill="none" stroke="midnightblue" d="M1595.47,-328.89C1705.63,-322.69 1911,-309.35 2085.09,-288 2102.79,-285.83 2122.4,-282.63 2138.51,-279.79"/>
<polygon fill="midnightblue" stroke="midnightblue" points="2139.31,-283.2 2148.53,-277.99 2138.07,-276.31 2139.31,-283.2"/>
</g>
<!-- Node34&#45;&gt;Node2 -->
<g id="edge97" class="edge">
<title>Node34&#45;&gt;Node2</title>
<path fill="none" stroke="midnightblue" d="M2707.28,-329.24C2678.56,-323.8 2648,-312.17 2630.09,-288 2621.88,-276.93 2623.9,-269.31 2630.09,-257 2674.27,-169.15 2784.23,-113.56 2839.01,-90.4"/>
<polygon fill="midnightblue" stroke="midnightblue" points="2840.35,-93.64 2848.26,-86.58 2837.68,-87.17 2840.35,-93.64"/>
</g>
<!-- Node34&#45;&gt;Node5 -->
<g id="edge95" class="edge">
<title>Node34&#45;&gt;Node5</title>
<path fill="none" stroke="midnightblue" d="M2726.91,-324.49C2626.94,-308.26 2398.6,-273.06 2205.09,-257 1660.16,-211.77 1000.31,-206.78 783.19,-206.43"/>
<polygon fill="midnightblue" stroke="midnightblue" points="782.89,-202.93 772.88,-206.42 782.88,-209.93 782.89,-202.93"/>
</g>
<!-- Node35 -->
<g id="node35" class="node">
<title>Node35</title>
<g id="a_node35"><a xlink:title=" ">
<polygon fill="white" stroke="#bfbfbf" points="2737.09,-196 2737.09,-215 2787.09,-215 2787.09,-196 2737.09,-196"/>
<text text-anchor="middle" x="2762.09" y="-203" font-family="Helvetica,sans-Serif" font-size="10.00">stdio.h</text>
</a>
</g>
</g>
<!-- Node34&#45;&gt;Node35 -->
<g id="edge96" class="edge">
<title>Node34&#45;&gt;Node35</title>
<path fill="none" stroke="midnightblue" d="M2776.99,-324.31C2774.42,-303.99 2767.97,-253.05 2764.46,-225.28"/>
<polygon fill="midnightblue" stroke="midnightblue" points="2767.92,-224.74 2763.19,-215.26 2760.98,-225.62 2767.92,-224.74"/>
</g>
<!-- Node36 -->
<g id="node36" class="node">
<title>Node36</title>
<g id="a_node36"><a xlink:href="memory_8h.html" target="_top" xlink:title=" ">
<polygon fill="white" stroke="black" points="2638.59,-263 2638.59,-282 2749.59,-282 2749.59,-263 2638.59,-263"/>
<text text-anchor="middle" x="2694.09" y="-270" font-family="Helvetica,sans-Serif" font-size="10.00">sbml/util/memory.h</text>
</a>
</g>
</g>
<!-- Node34&#45;&gt;Node36 -->
<g id="edge98" class="edge">
<title>Node34&#45;&gt;Node36</title>
<path fill="none" stroke="midnightblue" d="M2766.05,-324.48C2752.58,-314.93 2730.52,-299.31 2714.37,-287.87"/>
<polygon fill="midnightblue" stroke="midnightblue" points="2716.28,-284.93 2706.1,-282.01 2712.24,-290.65 2716.28,-284.93"/>
</g>
<!-- Node37 -->
<g id="node37" class="node">
<title>Node37</title>
<g id="a_node37"><a xlink:href="util_8h.html" target="_top" xlink:title="Utility functions.">
<polygon fill="white" stroke="black" points="2806.59,-263 2806.59,-282 2893.59,-282 2893.59,-263 2806.59,-263"/>
<text text-anchor="middle" x="2850.09" y="-270" font-family="Helvetica,sans-Serif" font-size="10.00">sbml/util/util.h</text>
</a>
</g>
</g>
<!-- Node34&#45;&gt;Node37 -->
<g id="edge99" class="edge">
<title>Node34&#45;&gt;Node37</title>
<path fill="none" stroke="midnightblue" d="M2788.4,-324.48C2799.74,-315.11 2818.16,-299.88 2831.93,-288.51"/>
<polygon fill="midnightblue" stroke="midnightblue" points="2834.31,-291.08 2839.79,-282.01 2829.85,-285.68 2834.31,-291.08"/>
</g>
<!-- Node37&#45;&gt;Node2 -->
<g id="edge102" class="edge">
<title>Node37&#45;&gt;Node2</title>
<path fill="none" stroke="midnightblue" d="M2846.41,-262.76C2842.45,-252.84 2836.42,-236.09 2834.09,-221 2826.99,-175.14 2848.42,-122.65 2861.59,-95.83"/>
<polygon fill="midnightblue" stroke="midnightblue" points="2864.88,-97.08 2866.31,-86.58 2858.65,-93.89 2864.88,-97.08"/>
</g>
<!-- Node37&#45;&gt;Node35 -->
<g id="edge100" class="edge">
<title>Node37&#45;&gt;Node35</title>
<path fill="none" stroke="midnightblue" d="M2838.22,-262.73C2823.84,-252.11 2799.38,-234.05 2782.08,-221.26"/>
<polygon fill="midnightblue" stroke="midnightblue" points="2783.89,-218.25 2773.77,-215.13 2779.73,-223.88 2783.89,-218.25"/>
</g>
<!-- Node38 -->
<g id="node38" class="node">
<title>Node38</title>
<g id="a_node38"><a xlink:title=" ">
<polygon fill="white" stroke="#bfbfbf" points="2843.09,-196 2843.09,-215 2899.09,-215 2899.09,-196 2843.09,-196"/>
<text text-anchor="middle" x="2871.09" y="-203" font-family="Helvetica,sans-Serif" font-size="10.00">stdarg.h</text>
</a>
</g>
</g>
<!-- Node37&#45;&gt;Node38 -->
<g id="edge101" class="edge">
<title>Node37&#45;&gt;Node38</title>
<path fill="none" stroke="midnightblue" d="M2852.92,-262.73C2856.04,-253.09 2861.14,-237.3 2865.14,-224.91"/>
<polygon fill="midnightblue" stroke="midnightblue" points="2868.56,-225.72 2868.3,-215.13 2861.89,-223.57 2868.56,-225.72"/>
</g>
<!-- Node39&#45;&gt;Node2 -->
<g id="edge106" class="edge">
<title>Node39&#45;&gt;Node2</title>
<path fill="none" stroke="midnightblue" d="M2928.33,-324.2C2926.27,-301.64 2919.94,-240.06 2908.09,-190 2900.1,-156.25 2886.48,-118.13 2878.18,-96.2"/>
<polygon fill="midnightblue" stroke="midnightblue" points="2881.34,-94.65 2874.49,-86.57 2874.8,-97.16 2881.34,-94.65"/>
</g>
<!-- Node39&#45;&gt;Node8 -->
<g id="edge109" class="edge">
<title>Node39&#45;&gt;Node8</title>
<path fill="none" stroke="midnightblue" d="M2866.4,-324.77C2863.59,-324.49 2860.81,-324.23 2858.09,-324 2486.19,-292.5 2390.47,-325.11 2019.09,-288 1999.23,-286.02 1977.15,-282.58 1959.59,-279.54"/>
<polygon fill="midnightblue" stroke="midnightblue" points="1959.76,-276.02 1949.3,-277.73 1958.54,-282.91 1959.76,-276.02"/>
</g>
<!-- Node39&#45;&gt;Node10 -->
<g id="edge107" class="edge">
<title>Node39&#45;&gt;Node10</title>
<path fill="none" stroke="midnightblue" d="M2921.16,-343.54C2901.34,-360.06 2854.09,-398.86 2854.09,-445 2854.09,-503 2854.09,-503 2854.09,-503 2854.09,-647.89 2754.41,-668.73 2626.09,-736 2556.37,-772.55 2463.33,-780.4 2406.01,-781.55"/>
<polygon fill="midnightblue" stroke="midnightblue" points="2405.69,-778.06 2395.74,-781.7 2405.79,-785.06 2405.69,-778.06"/>
</g>
<!-- Node39&#45;&gt;Node37 -->
<g id="edge108" class="edge">
<title>Node39&#45;&gt;Node37</title>
<path fill="none" stroke="midnightblue" d="M2917.77,-324.48C2905.21,-315.02 2884.74,-299.6 2869.59,-288.19"/>
<polygon fill="midnightblue" stroke="midnightblue" points="2871.48,-285.23 2861.38,-282.01 2867.27,-290.82 2871.48,-285.23"/>
</g>
<!-- Node40&#45;&gt;Node2 -->
<g id="edge111" class="edge">
<title>Node40&#45;&gt;Node2</title>
<path fill="none" stroke="midnightblue" d="M2464.41,-436.49C2512.72,-422.74 2612.25,-395.64 2698.09,-380 2764.79,-367.84 2956.06,-394.7 3001.09,-344 3022.87,-319.48 3084.18,-407.93 2907.09,-123 2900.82,-112.91 2892.62,-102.5 2885.63,-94.23"/>
<polygon fill="midnightblue" stroke="midnightblue" points="2888.11,-91.76 2878.91,-86.5 2882.83,-96.35 2888.11,-91.76"/>
</g>
<!-- Node40&#45;&gt;Node8 -->
<g id="edge113" class="edge">
<title>Node40&#45;&gt;Node8</title>
<path fill="none" stroke="midnightblue" d="M2435.1,-436.2C2434.63,-413.43 2429.9,-352.37 2394.09,-324 2328.46,-272.02 2102.14,-298.52 2019.09,-288 1999.29,-285.49 1977.21,-282.03 1959.64,-279.12"/>
<polygon fill="midnightblue" stroke="midnightblue" points="1959.78,-275.6 1949.34,-277.39 1958.62,-282.5 1959.78,-275.6"/>
</g>
<!-- Node40&#45;&gt;Node18 -->
<g id="edge114" class="edge">
<title>Node40&#45;&gt;Node18</title>
<path fill="none" stroke="midnightblue" d="M2428.57,-436.38C2421.72,-427.32 2410.64,-412.66 2401.09,-400 2388.77,-383.69 2374.74,-365.06 2364.85,-351.94"/>
<polygon fill="midnightblue" stroke="midnightblue" points="2367.55,-349.71 2358.74,-343.83 2361.96,-353.93 2367.55,-349.71"/>
</g>
<!-- Node40&#45;&gt;Node32 -->
<g id="edge112" class="edge">
<title>Node40&#45;&gt;Node32</title>
<path fill="none" stroke="midnightblue" d="M2404.03,-436.44C2370.48,-427.2 2316.89,-412.44 2279.95,-402.26"/>
<polygon fill="midnightblue" stroke="midnightblue" points="2280.57,-398.8 2270,-399.52 2278.71,-405.55 2280.57,-398.8"/>
</g>
<!-- Node40&#45;&gt;Node41 -->
<g id="edge115" class="edge">
<title>Node40&#45;&gt;Node41</title>
<path fill="none" stroke="midnightblue" d="M2489.12,-436.44C2556.93,-425.7 2671.84,-407.51 2733.68,-397.72"/>
<polygon fill="midnightblue" stroke="midnightblue" points="2734.53,-401.13 2743.86,-396.1 2733.43,-394.21 2734.53,-401.13"/>
</g>
<!-- Node42&#45;&gt;Node2 -->
<g id="edge117" class="edge">
<title>Node42&#45;&gt;Node2</title>
<path fill="none" stroke="midnightblue" d="M2663.35,-436.46C2676.17,-422.03 2704.39,-393.13 2735.09,-380 2796.62,-353.68 2989.68,-394.07 3034.09,-344 3039.98,-337.35 3035.27,-332.81 3034.09,-324 3031,-301.05 2994.38,-140.38 2979.09,-123 2964.91,-106.89 2944.04,-96.41 2924.42,-89.66"/>
<polygon fill="midnightblue" stroke="midnightblue" points="2925.21,-86.24 2914.62,-86.55 2923.09,-92.91 2925.21,-86.24"/>
</g>
<!-- Node42&#45;&gt;Node8 -->
<g id="edge118" class="edge">
<title>Node42&#45;&gt;Node8</title>
<path fill="none" stroke="midnightblue" d="M2643.41,-436.47C2603.97,-409.99 2484.91,-330.63 2465.09,-324 2276.48,-260.95 2216.56,-311.5 2019.09,-288 1999.28,-285.64 1977.19,-282.19 1959.62,-279.24"/>
<polygon fill="midnightblue" stroke="midnightblue" points="1959.78,-275.72 1949.33,-277.49 1958.6,-282.62 1959.78,-275.72"/>
</g>
<!-- Node42&#45;&gt;Node17 -->
<g id="edge119" class="edge">
<title>Node42&#45;&gt;Node17</title>
<path fill="none" stroke="midnightblue" d="M2653.1,-436.34C2648.02,-422.75 2636.54,-396.31 2619.09,-380 2577.26,-340.91 2558.04,-340.05 2503.09,-324 2373.34,-286.1 2330.57,-326.8 2201.09,-288 2199.42,-287.5 2197.73,-286.91 2196.05,-286.26"/>
<polygon fill="midnightblue" stroke="midnightblue" points="2197.29,-282.97 2186.73,-282.05 2194.41,-289.35 2197.29,-282.97"/>
</g>
<!-- Node42&#45;&gt;Node18 -->
<g id="edge120" class="edge">
<title>Node42&#45;&gt;Node18</title>
<path fill="none" stroke="midnightblue" d="M2632.49,-436.46C2578.83,-417.05 2447.57,-369.55 2385.57,-347.12"/>
<polygon fill="midnightblue" stroke="midnightblue" points="2386.48,-343.72 2375.88,-343.61 2384.1,-350.3 2386.48,-343.72"/>
</g>
<!-- Node42&#45;&gt;Node41 -->
<g id="edge121" class="edge">
<title>Node42&#45;&gt;Node41</title>
<path fill="none" stroke="midnightblue" d="M2675.1,-436.44C2694.67,-427.64 2725.39,-413.81 2747.82,-403.72"/>
<polygon fill="midnightblue" stroke="midnightblue" points="2749.48,-406.81 2757.16,-399.52 2746.61,-400.43 2749.48,-406.81"/>
</g>
<!-- Node43&#45;&gt;Node4 -->
<g id="edge126" class="edge">
<title>Node43&#45;&gt;Node4</title>
<path fill="none" stroke="midnightblue" d="M1993.08,-330.41C1776.74,-320.89 1026.77,-287.91 779.13,-277.02"/>
<polygon fill="midnightblue" stroke="midnightblue" points="779.27,-273.52 769.13,-276.58 778.96,-280.52 779.27,-273.52"/>
</g>
<!-- Node43&#45;&gt;Node8 -->
<g id="edge129" class="edge">
<title>Node43&#45;&gt;Node8</title>
<path fill="none" stroke="midnightblue" d="M2034.18,-324.48C2013.2,-314.49 1978.24,-297.85 1953.99,-286.31"/>
<polygon fill="midnightblue" stroke="midnightblue" points="1955.5,-283.15 1944.96,-282.01 1952.49,-289.47 1955.5,-283.15"/>
</g>
<!-- Node43&#45;&gt;Node15 -->
<g id="edge125" class="edge">
<title>Node43&#45;&gt;Node15</title>
<path fill="none" stroke="midnightblue" d="M1992.89,-331.73C1678.24,-324.94 214.52,-293.13 168.09,-288 159.5,-287.05 150.42,-285.61 141.69,-284"/>
<polygon fill="midnightblue" stroke="midnightblue" points="142.14,-280.52 131.66,-282.05 140.81,-287.39 142.14,-280.52"/>
</g>
<!-- Node43&#45;&gt;Node16 -->
<g id="edge130" class="edge">
<title>Node43&#45;&gt;Node16</title>
<path fill="none" stroke="midnightblue" d="M1992.84,-327.82C1874.5,-317.48 1607.98,-294.2 1465.36,-281.74"/>
<polygon fill="midnightblue" stroke="midnightblue" points="1465.57,-278.24 1455.31,-280.86 1464.96,-285.22 1465.57,-278.24"/>
</g>
<!-- Node43&#45;&gt;Node35 -->
<g id="edge124" class="edge">
<title>Node43&#45;&gt;Node35</title>
<path fill="none" stroke="midnightblue" d="M2058.72,-324.45C2072.05,-307.97 2103.97,-272.13 2140.09,-257 2247.29,-212.1 2611.69,-206.99 2726.88,-206.51"/>
<polygon fill="midnightblue" stroke="midnightblue" points="2726.94,-210.01 2736.93,-206.48 2726.91,-203.01 2726.94,-210.01"/>
</g>
<!-- Node43&#45;&gt;Node37 -->
<g id="edge127" class="edge">
<title>Node43&#45;&gt;Node37</title>
<path fill="none" stroke="midnightblue" d="M2111.38,-331.12C2233.08,-326.84 2519.81,-314.62 2759.09,-288 2771.14,-286.66 2784.03,-284.84 2796.2,-282.95"/>
<polygon fill="midnightblue" stroke="midnightblue" points="2796.91,-286.38 2806.23,-281.35 2795.8,-279.47 2796.91,-286.38"/>
</g>
<!-- Node44 -->
<g id="node44" class="node">
<title>Node44</title>
<g id="a_node44"><a xlink:title=" ">
<polygon fill="white" stroke="#bfbfbf" points="2028.09,-263 2028.09,-282 2076.09,-282 2076.09,-263 2028.09,-263"/>
<text text-anchor="middle" x="2052.09" y="-270" font-family="Helvetica,sans-Serif" font-size="10.00">iosfwd</text>
</a>
</g>
</g>
<!-- Node43&#45;&gt;Node44 -->
<g id="edge128" class="edge">
<title>Node43&#45;&gt;Node44</title>
<path fill="none" stroke="midnightblue" d="M2052.09,-324.48C2052.09,-316.08 2052.09,-302.98 2052.09,-292.16"/>
<polygon fill="midnightblue" stroke="midnightblue" points="2055.59,-292.01 2052.09,-282.01 2048.59,-292.01 2055.59,-292.01"/>
</g>
<!-- Node45&#45;&gt;Node2 -->
<g id="edge136" class="edge">
<title>Node45&#45;&gt;Node2</title>
<path fill="none" stroke="midnightblue" d="M3332.16,-324.07C3335.53,-291.33 3342.34,-177.07 3281.09,-123 3256.55,-101.34 3058.02,-87.67 2946.48,-81.62"/>
<polygon fill="midnightblue" stroke="midnightblue" points="2946.46,-78.12 2936.29,-81.08 2946.09,-85.11 2946.46,-78.12"/>
</g>
<!-- Node45&#45;&gt;Node11 -->
<g id="edge137" class="edge">
<title>Node45&#45;&gt;Node11</title>
<path fill="none" stroke="midnightblue" d="M3303,-324.48C3268.8,-314.09 3210.89,-296.51 3172.82,-284.95"/>
<polygon fill="midnightblue" stroke="midnightblue" points="3173.7,-281.56 3163.12,-282.01 3171.67,-288.26 3173.7,-281.56"/>
</g>
<!-- Node46&#45;&gt;Node2 -->
<g id="edge139" class="edge">
<title>Node46&#45;&gt;Node2</title>
<path fill="none" stroke="midnightblue" d="M2943.41,-831.7C3057.8,-815.54 3376.09,-762.38 3376.09,-671 3376.09,-671 3376.09,-671 3376.09,-445 3376.09,-366.93 3414.09,-351.57 3414.09,-273.5 3414.09,-273.5 3414.09,-273.5 3414.09,-204.5 3414.09,-144.72 3362.67,-145 3307.09,-123 3243.34,-97.77 3053.33,-85.76 2946.38,-80.86"/>
<polygon fill="midnightblue" stroke="midnightblue" points="2946.44,-77.36 2936.3,-80.41 2946.13,-84.36 2946.44,-77.36"/>
</g>
<!-- Node46&#45;&gt;Node4 -->
<g id="edge140" class="edge">
<title>Node46&#45;&gt;Node4</title>
<path fill="none" stroke="midnightblue" d="M2863.06,-836.33C2541.2,-830.85 387.09,-791.73 387.09,-727 387.09,-727 387.09,-727 387.09,-669 387.09,-497.27 415.14,-414.5 561.09,-324 589.96,-306.1 626.13,-293.16 654.19,-284.86"/>
<polygon fill="midnightblue" stroke="midnightblue" points="655.49,-288.13 664.14,-282.01 653.56,-281.4 655.49,-288.13"/>
</g>
<!-- Node46&#45;&gt;Node10 -->
<g id="edge145" class="edge">
<title>Node46&#45;&gt;Node10</title>
<path fill="none" stroke="midnightblue" d="M2862.72,-833.03C2764.72,-823.39 2514.35,-798.76 2405.7,-788.08"/>
<polygon fill="midnightblue" stroke="midnightblue" points="2405.93,-784.58 2395.64,-787.09 2405.25,-791.55 2405.93,-784.58"/>
</g>
<!-- Node46&#45;&gt;Node11 -->
<g id="edge141" class="edge">
<title>Node46&#45;&gt;Node11</title>
<path fill="none" stroke="midnightblue" d="M2927.14,-828.5C2944.55,-821.24 2967.49,-809.21 2982.09,-792 3002,-768.51 3006.09,-757.8 3006.09,-727 3006.09,-727 3006.09,-727 3006.09,-445 3006.09,-414.9 3004.3,-401.77 3025.09,-380 3059.16,-344.32 3100.01,-383.1 3130.09,-344 3141.28,-329.44 3141.1,-307.81 3139.01,-292.35"/>
<polygon fill="midnightblue" stroke="midnightblue" points="3142.44,-291.63 3137.29,-282.37 3135.54,-292.82 3142.44,-291.63"/>
</g>
<!-- Node46&#45;&gt;Node17 -->
<g id="edge142" class="edge">
<title>Node46&#45;&gt;Node17</title>
<path fill="none" stroke="midnightblue" d="M2912.68,-828.34C2930.76,-811.02 2968.09,-770.03 2968.09,-727 2968.09,-727 2968.09,-727 2968.09,-613 2968.09,-489.6 2918.87,-449.77 2817.09,-380 2766.9,-345.6 2609.2,-333.36 2549.09,-324 2395.45,-300.07 2350.38,-331.47 2201.09,-288 2199.41,-287.51 2197.72,-286.93 2196.04,-286.29"/>
<polygon fill="midnightblue" stroke="midnightblue" points="2197.27,-283 2186.72,-282.1 2194.4,-289.39 2197.27,-283"/>
</g>
<!-- Node46&#45;&gt;Node41 -->
<g id="edge143" class="edge">
<title>Node46&#45;&gt;Node41</title>
<path fill="none" stroke="midnightblue" d="M2905.07,-828.43C2907.05,-819.42 2909.96,-804.8 2911.09,-792 2914.06,-758.28 2913.96,-748.92 2906.09,-716 2876.85,-593.76 2810,-456.91 2785.4,-408.84"/>
<polygon fill="midnightblue" stroke="midnightblue" points="2788.39,-407.01 2780.7,-399.73 2782.17,-410.22 2788.39,-407.01"/>
</g>
<!-- Node47 -->
<g id="node47" class="node">
<title>Node47</title>
<g id="a_node47"><a xlink:title=" ">
<polygon fill="white" stroke="#bfbfbf" points="2836.59,-772.5 2836.59,-791.5 2901.59,-791.5 2901.59,-772.5 2836.59,-772.5"/>
<text text-anchor="middle" x="2869.09" y="-779.5" font-family="Helvetica,sans-Serif" font-size="10.00">functional</text>
</a>
</g>
</g>
<!-- Node46&#45;&gt;Node47 -->
<g id="edge144" class="edge">
<title>Node46&#45;&gt;Node47</title>
<path fill="none" stroke="midnightblue" d="M2897.47,-828.08C2892.72,-820.53 2885.77,-809.49 2879.94,-800.23"/>
<polygon fill="midnightblue" stroke="midnightblue" points="2882.89,-798.35 2874.6,-791.75 2876.96,-802.08 2882.89,-798.35"/>
</g>
<!-- Node48&#45;&gt;Node4 -->
<g id="edge150" class="edge">
<title>Node48&#45;&gt;Node4</title>
<path fill="none" stroke="midnightblue" d="M584.46,-499.79C526.07,-495.37 459.67,-480.79 482.09,-436 521.09,-358.07 617.19,-307.86 667.39,-286.04"/>
<polygon fill="midnightblue" stroke="midnightblue" points="668.95,-289.18 676.79,-282.06 666.22,-282.74 668.95,-289.18"/>
</g>
<!-- Node48&#45;&gt;Node8 -->
<g id="edge153" class="edge">
<title>Node48&#45;&gt;Node8</title>
<path fill="none" stroke="midnightblue" d="M739.86,-495.02C754.23,-493.97 769.11,-492.92 783.09,-492 1063.38,-473.58 1135.19,-489.51 1414.09,-456 1448.19,-451.9 1687.43,-415.49 1718.09,-400 1762.15,-377.74 1757.38,-350.42 1799.09,-324 1829.51,-304.73 1868.48,-290.64 1895.39,-282.32"/>
<polygon fill="midnightblue" stroke="midnightblue" points="1896.5,-285.64 1905.07,-279.41 1894.49,-278.94 1896.5,-285.64"/>
</g>
<!-- Node48&#45;&gt;Node15 -->
<g id="edge148" class="edge">
<title>Node48&#45;&gt;Node15</title>
<path fill="none" stroke="midnightblue" d="M584.42,-494.63C425.78,-479.8 73.71,-436.92 5.09,-344 -13.51,-318.82 24.95,-297.91 57.23,-285.57"/>
<polygon fill="midnightblue" stroke="midnightblue" points="58.79,-288.73 66.98,-282.02 56.39,-282.15 58.79,-288.73"/>
</g>
<!-- Node48&#45;&gt;Node16 -->
<g id="edge151" class="edge">
<title>Node48&#45;&gt;Node16</title>
<path fill="none" stroke="midnightblue" d="M666.81,-492.33C674.94,-478.24 692.97,-450.5 716.09,-436 716.88,-435.5 1137.76,-331.27 1304.35,-290.02"/>
<polygon fill="midnightblue" stroke="midnightblue" points="1305.6,-293.32 1314.47,-287.52 1303.92,-286.52 1305.6,-293.32"/>
</g>
<!-- Node48&#45;&gt;Node24 -->
<g id="edge149" class="edge">
<title>Node48&#45;&gt;Node24</title>
<path fill="none" stroke="midnightblue" d="M681.73,-492.44C702.05,-483.6 733.99,-469.69 757.18,-459.59"/>
<polygon fill="midnightblue" stroke="midnightblue" points="758.76,-462.72 766.53,-455.52 755.96,-456.3 758.76,-462.72"/>
</g>
<!-- Node48&#45;&gt;Node32 -->
<g id="edge152" class="edge">
<title>Node48&#45;&gt;Node32</title>
<path fill="none" stroke="midnightblue" d="M739.85,-494.89C754.22,-493.86 769.1,-492.84 783.09,-492 1128.61,-471.16 1215.81,-480.52 1561.09,-456 1776.7,-440.69 2030.09,-414.1 2157.37,-400.15"/>
<polygon fill="midnightblue" stroke="midnightblue" points="2157.87,-403.61 2167.43,-399.04 2157.11,-396.66 2157.87,-403.61"/>
</g>
<!-- Node49 -->
<g id="node49" class="node">
<title>Node49</title>
<g id="a_node49"><a xlink:href="_x_m_l_tokenizer_8h.html" target="_top" xlink:title=" ">
<polygon fill="white" stroke="black" points="491.09,-436.5 491.09,-455.5 631.09,-455.5 631.09,-436.5 491.09,-436.5"/>
<text text-anchor="middle" x="561.09" y="-443.5" font-family="Helvetica,sans-Serif" font-size="10.00">sbml/xml/XMLTokenizer.h</text>
</a>
</g>
</g>
<!-- Node48&#45;&gt;Node49 -->
<g id="edge154" class="edge">
<title>Node48&#45;&gt;Node49</title>
<path fill="none" stroke="midnightblue" d="M645.86,-492.32C629.74,-483.7 604.79,-470.36 586.12,-460.39"/>
<polygon fill="midnightblue" stroke="midnightblue" points="587.74,-457.28 577.27,-455.65 584.44,-463.46 587.74,-457.28"/>
</g>
<!-- Node50&#45;&gt;Node4 -->
<g id="edge156" class="edge">
<title>Node50&#45;&gt;Node4</title>
<path fill="none" stroke="midnightblue" d="M275.86,-324.48C366.6,-313.55 523.54,-294.64 618.69,-283.18"/>
<polygon fill="midnightblue" stroke="midnightblue" points="619.33,-286.63 628.84,-281.96 618.49,-279.68 619.33,-286.63"/>
</g>
<!-- Node50&#45;&gt;Node7 -->
<g id="edge162" class="edge">
<title>Node50&#45;&gt;Node7</title>
<path fill="none" stroke="midnightblue" d="M265.08,-324.46C299.12,-317.88 341.67,-306.65 376.09,-288 392.35,-279.19 476.96,-199.59 517.88,-160.7"/>
<polygon fill="midnightblue" stroke="midnightblue" points="520.38,-163.15 525.21,-153.72 515.56,-158.07 520.38,-163.15"/>
</g>
<!-- Node50&#45;&gt;Node8 -->
<g id="edge160" class="edge">
<title>Node50&#45;&gt;Node8</title>
<path fill="none" stroke="midnightblue" d="M287.27,-330.16C597.78,-319.43 1692.09,-281.62 1894.69,-274.62"/>
<polygon fill="midnightblue" stroke="midnightblue" points="1895.09,-278.11 1904.96,-274.26 1894.84,-271.11 1895.09,-278.11"/>
</g>
<!-- Node50&#45;&gt;Node15 -->
<g id="edge163" class="edge">
<title>Node50&#45;&gt;Node15</title>
<path fill="none" stroke="midnightblue" d="M189.33,-324.48C171.11,-314.62 140.91,-298.29 119.62,-286.77"/>
<polygon fill="midnightblue" stroke="midnightblue" points="121.28,-283.69 110.82,-282.01 117.95,-289.85 121.28,-283.69"/>
</g>
<!-- Node50&#45;&gt;Node28 -->
<g id="edge158" class="edge">
<title>Node50&#45;&gt;Node28</title>
<path fill="none" stroke="midnightblue" d="M254.73,-324.44C296.42,-316.68 357.29,-304.02 409.09,-288 411.37,-287.29 413.71,-286.51 416.05,-285.67"/>
<polygon fill="midnightblue" stroke="midnightblue" points="417.39,-288.9 425.49,-282.08 414.9,-282.36 417.39,-288.9"/>
</g>
<!-- Node51 -->
<g id="node51" class="node">
<title>Node51</title>
<g id="a_node51"><a xlink:title=" ">
<polygon fill="white" stroke="#bfbfbf" points="243.09,-263 243.09,-282 303.09,-282 303.09,-263 243.09,-263"/>
<text text-anchor="middle" x="273.09" y="-270" font-family="Helvetica,sans-Serif" font-size="10.00">iostream</text>
</a>
</g>
</g>
<!-- Node50&#45;&gt;Node51 -->
<g id="edge157" class="edge">
<title>Node50&#45;&gt;Node51</title>
<path fill="none" stroke="midnightblue" d="M214.83,-324.48C225.43,-315.2 242.61,-300.17 255.57,-288.83"/>
<polygon fill="midnightblue" stroke="midnightblue" points="258.14,-291.23 263.36,-282.01 253.53,-285.96 258.14,-291.23"/>
</g>
<!-- Node52 -->
<g id="node52" class="node">
<title>Node52</title>
<g id="a_node52"><a xlink:title=" ">
<polygon fill="white" stroke="#bfbfbf" points="321.09,-263 321.09,-282 367.09,-282 367.09,-263 321.09,-263"/>
<text text-anchor="middle" x="344.09" y="-270" font-family="Helvetica,sans-Serif" font-size="10.00">locale</text>
</a>
</g>
</g>
<!-- Node50&#45;&gt;Node52 -->
<g id="edge159" class="edge">
<title>Node50&#45;&gt;Node52</title>
<path fill="none" stroke="midnightblue" d="M226.07,-324.37C247.7,-315.44 282.35,-300.99 312.09,-288 313.45,-287.4 314.84,-286.79 316.25,-286.17"/>
<polygon fill="midnightblue" stroke="midnightblue" points="317.82,-289.3 325.51,-282.02 314.95,-282.91 317.82,-289.3"/>
</g>
<!-- Node53 -->
<g id="node53" class="node">
<title>Node53</title>
<g id="a_node53"><a xlink:title=" ">
<polygon fill="white" stroke="#bfbfbf" points="177.09,-263 177.09,-282 225.09,-282 225.09,-263 177.09,-263"/>
<text text-anchor="middle" x="201.09" y="-270" font-family="Helvetica,sans-Serif" font-size="10.00">time.h</text>
</a>
</g>
</g>
<!-- Node50&#45;&gt;Node53 -->
<g id="edge161" class="edge">
<title>Node50&#45;&gt;Node53</title>
<path fill="none" stroke="midnightblue" d="M204.51,-324.48C203.95,-316.08 203.07,-302.98 202.34,-292.16"/>
<polygon fill="midnightblue" stroke="midnightblue" points="205.82,-291.75 201.66,-282.01 198.84,-292.22 205.82,-291.75"/>
</g>
<!-- Node54&#45;&gt;Node2 -->
<g id="edge165" class="edge">
<title>Node54&#45;&gt;Node2</title>
<path fill="none" stroke="midnightblue" d="M3243.81,-380.5C3242.96,-359.29 3239.58,-302.45 3227.09,-257 3207.03,-184.05 3190.22,-155.91 3122.09,-123 3066.87,-96.33 2997.92,-85.35 2946.27,-80.88"/>
<polygon fill="midnightblue" stroke="midnightblue" points="2946.42,-77.38 2936.18,-80.07 2945.86,-84.36 2946.42,-77.38"/>
</g>
<!-- Node54&#45;&gt;Node4 -->
<g id="edge166" class="edge">
<title>Node54&#45;&gt;Node4</title>
<path fill="none" stroke="midnightblue" d="M3183.92,-380.76C3180.93,-380.47 3177.98,-380.22 3175.09,-380 2400.67,-321.69 2203.37,-389.41 1428.09,-344 1427.08,-343.94 968.65,-299.59 779.37,-281.27"/>
<polygon fill="midnightblue" stroke="midnightblue" points="779.49,-277.76 769.2,-280.29 778.82,-284.73 779.49,-277.76"/>
</g>
<!-- Node54&#45;&gt;Node8 -->
<g id="edge167" class="edge">
<title>Node54&#45;&gt;Node8</title>
<path fill="none" stroke="midnightblue" d="M3183.9,-380.95C3180.92,-380.62 3177.97,-380.3 3175.09,-380 2964.04,-358.27 2909.3,-372.66 2699.09,-344 2653.75,-337.82 2643.47,-329.88 2598.09,-324 2342.39,-290.88 2275.38,-316.1 2019.09,-288 1999.25,-285.83 1977.17,-282.38 1959.61,-279.39"/>
<polygon fill="midnightblue" stroke="midnightblue" points="1959.77,-275.87 1949.32,-277.61 1958.57,-282.76 1959.77,-275.87"/>
</g>
<!-- Node54&#45;&gt;Node9 -->
<g id="edge168" class="edge">
<title>Node54&#45;&gt;Node9</title>
<path fill="none" stroke="midnightblue" d="M3241.23,-399.67C3230,-417.33 3198.09,-459.36 3198.09,-501 3198.09,-783 3198.09,-783 3198.09,-783 3198.09,-843.68 2996.67,-876.45 2902.45,-888.07"/>
<polygon fill="midnightblue" stroke="midnightblue" points="2901.83,-884.62 2892.32,-889.28 2902.67,-891.57 2901.83,-884.62"/>
</g>
<!-- Node54&#45;&gt;Node45 -->
<g id="edge169" class="edge">
<title>Node54&#45;&gt;Node45</title>
<path fill="none" stroke="midnightblue" d="M3258.06,-380.32C3271.64,-371.9 3292.47,-358.97 3308.41,-349.07"/>
<polygon fill="midnightblue" stroke="midnightblue" points="3310.49,-351.9 3317.14,-343.65 3306.8,-345.95 3310.49,-351.9"/>
</g>
<!-- Node55&#45;&gt;Node2 -->
<g id="edge171" class="edge">
<title>Node55&#45;&gt;Node2</title>
<path fill="none" stroke="midnightblue" d="M3126.79,-380.47C3145.5,-373.32 3169.95,-361.44 3186.09,-344 3213.33,-314.56 3224.94,-294.26 3210.09,-257 3179.71,-180.78 3154.67,-163.11 3083.09,-123 3041.3,-99.59 2988.65,-88.33 2946.28,-82.93"/>
<polygon fill="midnightblue" stroke="midnightblue" points="2946.64,-79.45 2936.3,-81.75 2945.81,-86.4 2946.64,-79.45"/>
</g>
<!-- Node55&#45;&gt;Node4 -->
<g id="edge172" class="edge">
<title>Node55&#45;&gt;Node4</title>
<path fill="none" stroke="midnightblue" d="M3034.05,-386.75C2976.69,-384.84 2891.41,-382.07 2817.09,-380 2151.38,-361.42 1983.49,-389.67 1319.09,-344 1118.44,-330.21 882.75,-299.34 768.36,-283.42"/>
<polygon fill="midnightblue" stroke="midnightblue" points="768.73,-279.94 758.34,-282.02 767.76,-286.87 768.73,-279.94"/>
</g>
<!-- Node55&#45;&gt;Node8 -->
<g id="edge173" class="edge">
<title>Node55&#45;&gt;Node8</title>
<path fill="none" stroke="midnightblue" d="M3034.09,-382.58C2948.81,-374.2 2795.79,-358.83 2665.09,-344 2593,-335.82 2575.28,-331.14 2503.09,-324 2288.43,-302.78 2233.36,-312.81 2019.09,-288 1999.27,-285.71 1977.18,-282.25 1959.62,-279.29"/>
<polygon fill="midnightblue" stroke="midnightblue" points="1959.77,-275.77 1949.33,-277.53 1958.59,-282.67 1959.77,-275.77"/>
</g>
<!-- Node55&#45;&gt;Node9 -->
<g id="edge174" class="edge">
<title>Node55&#45;&gt;Node9</title>
<path fill="none" stroke="midnightblue" d="M3101.88,-399.71C3099.71,-418.14 3086.09,-462.56 3086.09,-501 3086.09,-783 3086.09,-783 3086.09,-783 3086.09,-862.68 2969.85,-884.64 2902.18,-890.7"/>
<polygon fill="midnightblue" stroke="midnightblue" points="2901.85,-887.21 2892.17,-891.51 2902.42,-894.19 2901.85,-887.21"/>
</g>
<!-- Node55&#45;&gt;Node45 -->
<g id="edge175" class="edge">
<title>Node55&#45;&gt;Node45</title>
<path fill="none" stroke="midnightblue" d="M3136.69,-380.44C3176.82,-371.06 3241.28,-355.99 3284.87,-345.8"/>
<polygon fill="midnightblue" stroke="midnightblue" points="3285.71,-349.2 3294.66,-343.52 3284.12,-342.38 3285.71,-349.2"/>
</g>
</g>
</svg>
