<?xml version="1.0" encoding="UTF-8" standalone="no"?>
<!DOCTYPE svg PUBLIC "-//W3C//DTD SVG 1.1//EN"
 "http://www.w3.org/Graphics/SVG/1.1/DTD/svg11.dtd">
<!-- Generated by graphviz version 2.43.0 (0)
 -->
<!-- Title: ReactionGlyph.h Pages: 1 -->
<!--zoomable 252 -->
<svg id="main" version="1.1" xmlns="http://www.w3.org/2000/svg" xmlns:xlink="http://www.w3.org/1999/xlink" xml:space="preserve" onload="init(evt)">
<style type="text/css"><![CDATA[
.edge:hover path { stroke: red; }
.edge:hover polygon { stroke: red; fill: red; }
]]></style>
<script type="text/javascript"><![CDATA[
var edges = document.getElementsByTagName('g');
if (edges && edges.length) {
  for (var i=0;i<edges.length;i++) {
    if (edges[i].id.substr(0,4)=='edge') {
      edges[i].setAttribute('class','edge');
    }
  }
}
]]></script>
        <defs>
                <circle id="rim" cx="0" cy="0" r="7"/>
                <circle id="rim2" cx="0" cy="0" r="3.5"/>
                <g id="zoomPlus">
                        <use xlink:href="#rim" fill="#404040">
                                <set attributeName="fill" to="#808080" begin="zoomplus.mouseover" end="zoomplus.mouseout"/>
                        </use>
                        <path d="M-4,0h8M0,-4v8" fill="none" stroke="white" stroke-width="1.5" pointer-events="none"/>
                </g>
                <g id="zoomMin">
                        <use xlink:href="#rim" fill="#404040">
                                <set attributeName="fill" to="#808080" begin="zoomminus.mouseover" end="zoomminus.mouseout"/>
                        </use>
                        <path d="M-4,0h8" fill="none" stroke="white" stroke-width="1.5" pointer-events="none"/>
                </g>
                <g id="dirArrow">
                        <path fill="none" stroke="white" stroke-width="1.5" d="M0,-3.0v7 M-2.5,-0.5L0,-3.0L2.5,-0.5"/>
                </g>
               <g id="resetDef">
                       <use xlink:href="#rim2" fill="#404040">
                               <set attributeName="fill" to="#808080" begin="reset.mouseover" end="reset.mouseout"/>
                       </use>
               </g>
        </defs>

<script type="text/javascript">
var viewWidth = 3394;
var viewHeight = 252;
var sectionId = 'dynsection-1';
</script>
<script xlink:href="svgpan.js"/>
<svg id="graph" class="graph">
<g id="viewport">
<title>ReactionGlyph.h</title>
<polygon fill="white" stroke="transparent" points="-4,4 -4,-248 3389.7,-248 3389.7,4 -4,4"/>
<!-- Node1 -->
<g id="node1" class="node">
<title>Node1</title>
<g id="a_node1"><a xlink:title="Definition of ReactionGlyph for SBML Layout.">
<polygon fill="#bfbfbf" stroke="black" points="507.2,-224.5 507.2,-243.5 604.2,-243.5 604.2,-224.5 507.2,-224.5"/>
<text text-anchor="middle" x="555.7" y="-231.5" font-family="Helvetica,sans-Serif" font-size="10.00">ReactionGlyph.h</text>
</a>
</g>
</g>
<!-- Node2 -->
<g id="node2" class="node">
<title>Node2</title>
<g id="a_node2"><a xlink:href="_layout_extension_types_8h.html" target="_top" xlink:title="Include all SBML types of layout extension in a single header file.">
<polygon fill="white" stroke="black" points="382.7,-56.5 382.7,-75.5 516.7,-75.5 516.7,-56.5 382.7,-56.5"/>
<text text-anchor="middle" x="449.7" y="-63.5" font-family="Helvetica,sans-Serif" font-size="10.00">LayoutExtensionTypes.h</text>
</a>
</g>
</g>
<!-- Node1&#45;&gt;Node2 -->
<g id="edge1" class="edge">
<title>Node1&#45;&gt;Node2</title>
<path fill="none" stroke="midnightblue" d="M496.69,-231.45C367.56,-226.68 66.58,-207.52 5.7,-132 -42.53,-72.19 247.16,-65.96 382.66,-66.25"/>
<polygon fill="midnightblue" stroke="midnightblue" points="496.68,-234.96 506.79,-231.81 496.92,-227.96 496.68,-234.96"/>
</g>
<!-- Node8 -->
<g id="node8" class="node">
<title>Node8</title>
<g id="a_node8"><a xlink:href="_general_glyph_8cpp.html" target="_top" xlink:title="Implementation of GeneralGlyph for SBML Layout.">
<polygon fill="white" stroke="black" points="14.7,-112.5 14.7,-131.5 118.7,-131.5 118.7,-112.5 14.7,-112.5"/>
<text text-anchor="middle" x="66.7" y="-119.5" font-family="Helvetica,sans-Serif" font-size="10.00">GeneralGlyph.cpp</text>
</a>
</g>
</g>
<!-- Node1&#45;&gt;Node8 -->
<g id="edge7" class="edge">
<title>Node1&#45;&gt;Node8</title>
<path fill="none" stroke="midnightblue" d="M507.9,-222.25C410.91,-200.43 192.71,-151.35 104.64,-131.53"/>
<polygon fill="midnightblue" stroke="midnightblue" points="507.21,-225.68 517.73,-224.46 508.74,-218.85 507.21,-225.68"/>
</g>
<!-- Node9 -->
<g id="node9" class="node">
<title>Node9</title>
<g id="a_node9"><a xlink:href="_layout_8h.html" target="_top" xlink:title="Definition of Layout for SBML Layout.">
<polygon fill="white" stroke="black" points="705.2,-168.5 705.2,-187.5 764.2,-187.5 764.2,-168.5 705.2,-168.5"/>
<text text-anchor="middle" x="734.7" y="-175.5" font-family="Helvetica,sans-Serif" font-size="10.00">Layout.h</text>
</a>
</g>
</g>
<!-- Node1&#45;&gt;Node9 -->
<g id="edge8" class="edge">
<title>Node1&#45;&gt;Node9</title>
<path fill="none" stroke="midnightblue" d="M594.03,-221.44C627.78,-211.26 676.14,-196.66 706.47,-187.52"/>
<polygon fill="midnightblue" stroke="midnightblue" points="592.62,-218.2 584.06,-224.44 594.64,-224.91 592.62,-218.2"/>
</g>
<!-- Node19 -->
<g id="node19" class="node">
<title>Node19</title>
<g id="a_node19"><a xlink:href="_reaction_glyph_8cpp.html" target="_top" xlink:title="Implementation of ReactionGlyph for SBML Layout.">
<polygon fill="white" stroke="black" points="2225.7,-112.5 2225.7,-131.5 2333.7,-131.5 2333.7,-112.5 2225.7,-112.5"/>
<text text-anchor="middle" x="2279.7" y="-119.5" font-family="Helvetica,sans-Serif" font-size="10.00">ReactionGlyph.cpp</text>
</a>
</g>
</g>
<!-- Node1&#45;&gt;Node19 -->
<g id="edge51" class="edge">
<title>Node1&#45;&gt;Node19</title>
<path fill="none" stroke="midnightblue" d="M614.46,-231.1C829.08,-223.82 1590.69,-194.86 2215.7,-132 2218.93,-131.67 2222.26,-131.31 2225.61,-130.91"/>
<polygon fill="midnightblue" stroke="midnightblue" points="614.23,-227.61 604.36,-231.44 614.47,-234.61 614.23,-227.61"/>
</g>
<!-- Node3 -->
<g id="node3" class="node">
<title>Node3</title>
<g id="a_node3"><a xlink:href="_graphical_object_8cpp.html" target="_top" xlink:title="Implementation of GraphicalObject for SBML Layout.">
<polygon fill="white" stroke="black" points="101.2,-0.5 101.2,-19.5 216.2,-19.5 216.2,-0.5 101.2,-0.5"/>
<text text-anchor="middle" x="158.7" y="-7.5" font-family="Helvetica,sans-Serif" font-size="10.00">GraphicalObject.cpp</text>
</a>
</g>
</g>
<!-- Node2&#45;&gt;Node3 -->
<g id="edge2" class="edge">
<title>Node2&#45;&gt;Node3</title>
<path fill="none" stroke="midnightblue" d="M393.66,-54.6C338.66,-44.4 255.8,-29.02 204.59,-19.52"/>
<polygon fill="midnightblue" stroke="midnightblue" points="393.12,-58.06 403.59,-56.44 394.39,-51.18 393.12,-58.06"/>
</g>
<!-- Node4 -->
<g id="node4" class="node">
<title>Node4</title>
<g id="a_node4"><a xlink:href="_layout_validator_8cpp.html" target="_top" xlink:title="Implementation of the LayoutValidator class.">
<polygon fill="white" stroke="black" points="234.2,-0.5 234.2,-19.5 347.2,-19.5 347.2,-0.5 234.2,-0.5"/>
<text text-anchor="middle" x="290.7" y="-7.5" font-family="Helvetica,sans-Serif" font-size="10.00">LayoutValidator.cpp</text>
</a>
</g>
</g>
<!-- Node2&#45;&gt;Node4 -->
<g id="edge3" class="edge">
<title>Node2&#45;&gt;Node4</title>
<path fill="none" stroke="midnightblue" d="M414.87,-53.17C384.93,-43 342.48,-28.59 315.77,-19.52"/>
<polygon fill="midnightblue" stroke="midnightblue" points="413.91,-56.54 424.5,-56.44 416.16,-49.91 413.91,-56.54"/>
</g>
<!-- Node5 -->
<g id="node5" class="node">
<title>Node5</title>
<g id="a_node5"><a xlink:href="_render_list_of_layouts_plugin_8cpp.html" target="_top" xlink:title="Implementation of RenderListOfLayoutsPlugin, the plugin class of the fbc package for the Model elemen...">
<polygon fill="white" stroke="black" points="365.7,-0.5 365.7,-19.5 533.7,-19.5 533.7,-0.5 365.7,-0.5"/>
<text text-anchor="middle" x="449.7" y="-7.5" font-family="Helvetica,sans-Serif" font-size="10.00">RenderListOfLayoutsPlugin.cpp</text>
</a>
</g>
</g>
<!-- Node2&#45;&gt;Node5 -->
<g id="edge4" class="edge">
<title>Node2&#45;&gt;Node5</title>
<path fill="none" stroke="midnightblue" d="M449.7,-45.8C449.7,-36.91 449.7,-26.78 449.7,-19.75"/>
<polygon fill="midnightblue" stroke="midnightblue" points="446.2,-46.08 449.7,-56.08 453.2,-46.08 446.2,-46.08"/>
</g>
<!-- Node6 -->
<g id="node6" class="node">
<title>Node6</title>
<g id="a_node6"><a xlink:href="_render_layout_converter_8cpp.html" target="_top" xlink:title="Simple converter to convert Layout + Render from l2 to L3 and vice versa.">
<polygon fill="white" stroke="black" points="551.7,-0.5 551.7,-19.5 703.7,-19.5 703.7,-0.5 551.7,-0.5"/>
<text text-anchor="middle" x="627.7" y="-7.5" font-family="Helvetica,sans-Serif" font-size="10.00">RenderLayoutConverter.cpp</text>
</a>
</g>
</g>
<!-- Node2&#45;&gt;Node6 -->
<g id="edge5" class="edge">
<title>Node2&#45;&gt;Node6</title>
<path fill="none" stroke="midnightblue" d="M487.81,-53.44C521.37,-43.26 569.47,-28.66 599.62,-19.52"/>
<polygon fill="midnightblue" stroke="midnightblue" points="486.45,-50.19 477.9,-56.44 488.49,-56.89 486.45,-50.19"/>
</g>
<!-- Node7 -->
<g id="node7" class="node">
<title>Node7</title>
<g id="a_node7"><a xlink:href="_render_utilities_8cpp.html" target="_top" xlink:title="implementation of RenderUtilities, a class of utility functions for the render package">
<polygon fill="white" stroke="black" points="721.7,-0.5 721.7,-19.5 831.7,-19.5 831.7,-0.5 721.7,-0.5"/>
<text text-anchor="middle" x="776.7" y="-7.5" font-family="Helvetica,sans-Serif" font-size="10.00">RenderUtilities.cpp</text>
</a>
</g>
</g>
<!-- Node2&#45;&gt;Node7 -->
<g id="edge6" class="edge">
<title>Node2&#45;&gt;Node7</title>
<path fill="none" stroke="midnightblue" d="M511.52,-54.79C573.31,-44.59 667.22,-29.08 725.12,-19.52"/>
<polygon fill="midnightblue" stroke="midnightblue" points="510.81,-51.36 501.51,-56.44 511.95,-58.27 510.81,-51.36"/>
</g>
<!-- Node9&#45;&gt;Node2 -->
<g id="edge9" class="edge">
<title>Node9&#45;&gt;Node2</title>
<path fill="none" stroke="midnightblue" d="M751.22,-160.6C763.45,-146.48 776.01,-126.21 763.7,-112 759.66,-107.34 607.75,-87.2 516.73,-75.5"/>
<polygon fill="midnightblue" stroke="midnightblue" points="748.49,-158.4 744.26,-168.11 753.63,-163.16 748.49,-158.4"/>
</g>
<!-- Node9&#45;&gt;Node8 -->
<g id="edge21" class="edge">
<title>Node9&#45;&gt;Node8</title>
<path fill="none" stroke="midnightblue" d="M694.68,-175.04C597.39,-170.05 340.8,-155.59 127.7,-132 124.82,-131.68 121.88,-131.33 118.91,-130.96"/>
<polygon fill="midnightblue" stroke="midnightblue" points="694.78,-178.55 704.94,-175.56 695.13,-171.56 694.78,-178.55"/>
</g>
<!-- Node10 -->
<g id="node10" class="node">
<title>Node10</title>
<g id="a_node10"><a xlink:href="_layout_model_plugin_8h.html" target="_top" xlink:title="Definition of LayoutModelPlugin, the plugin class of layout package for Model element.">
<polygon fill="white" stroke="black" points="811.2,-112.5 811.2,-131.5 930.2,-131.5 930.2,-112.5 811.2,-112.5"/>
<text text-anchor="middle" x="870.7" y="-119.5" font-family="Helvetica,sans-Serif" font-size="10.00">LayoutModelPlugin.h</text>
</a>
</g>
</g>
<!-- Node9&#45;&gt;Node10 -->
<g id="edge10" class="edge">
<title>Node9&#45;&gt;Node10</title>
<path fill="none" stroke="midnightblue" d="M765.83,-164.64C791.35,-154.5 826.81,-140.43 849.25,-131.52"/>
<polygon fill="midnightblue" stroke="midnightblue" points="764.25,-161.5 756.25,-168.44 766.83,-168.01 764.25,-161.5"/>
</g>
<!-- Node13 -->
<g id="node13" class="node">
<title>Node13</title>
<g id="a_node13"><a xlink:href="_layout_annotation_8cpp.html" target="_top" xlink:title="Layout annotation I/O.">
<polygon fill="white" stroke="black" points="809.2,-56.5 809.2,-75.5 932.2,-75.5 932.2,-56.5 809.2,-56.5"/>
<text text-anchor="middle" x="870.7" y="-63.5" font-family="Helvetica,sans-Serif" font-size="10.00">LayoutAnnotation.cpp</text>
</a>
</g>
</g>
<!-- Node9&#45;&gt;Node13 -->
<g id="edge27" class="edge">
<title>Node9&#45;&gt;Node13</title>
<path fill="none" stroke="midnightblue" d="M774.67,-175.46C871.04,-171.33 1110.02,-158.49 1133.7,-132 1139.62,-125.37 1139.43,-118.79 1133.7,-112 1127.2,-104.3 1008.04,-86.28 932.36,-75.52"/>
<polygon fill="midnightblue" stroke="midnightblue" points="774.29,-171.97 764.45,-175.89 774.59,-178.96 774.29,-171.97"/>
</g>
<!-- Node15 -->
<g id="node15" class="node">
<title>Node15</title>
<g id="a_node15"><a xlink:href="_layout_species_reference_plugin_8h.html" target="_top" xlink:title="Definition of LayoutSpeciesReferencePlugin, the plugin class of layout package (Level2) for the Speci...">
<polygon fill="white" stroke="black" points="948.7,-112.5 948.7,-131.5 1124.7,-131.5 1124.7,-112.5 948.7,-112.5"/>
<text text-anchor="middle" x="1036.7" y="-119.5" font-family="Helvetica,sans-Serif" font-size="10.00">LayoutSpeciesReferencePlugin.h</text>
</a>
</g>
</g>
<!-- Node9&#45;&gt;Node15 -->
<g id="edge16" class="edge">
<title>Node9&#45;&gt;Node15</title>
<path fill="none" stroke="midnightblue" d="M774.31,-169.92C829.6,-160.03 929.78,-142.12 989.07,-131.52"/>
<polygon fill="midnightblue" stroke="midnightblue" points="773.43,-166.52 764.2,-171.72 774.66,-173.41 773.43,-166.52"/>
</g>
<!-- Node17 -->
<g id="node17" class="node">
<title>Node17</title>
<g id="a_node17"><a xlink:href="_compartment_glyph_8cpp.html" target="_top" xlink:title="Implementation of CompartmentGlyph for SBML Layout.">
<polygon fill="white" stroke="black" points="2074.2,-112.5 2074.2,-131.5 2207.2,-131.5 2207.2,-112.5 2074.2,-112.5"/>
<text text-anchor="middle" x="2140.7" y="-119.5" font-family="Helvetica,sans-Serif" font-size="10.00">CompartmentGlyph.cpp</text>
</a>
</g>
</g>
<!-- Node9&#45;&gt;Node17 -->
<g id="edge20" class="edge">
<title>Node9&#45;&gt;Node17</title>
<path fill="none" stroke="midnightblue" d="M774.63,-176.87C936.1,-176.1 1556.32,-170.63 2064.7,-132 2067.74,-131.77 2070.86,-131.51 2074,-131.22"/>
<polygon fill="midnightblue" stroke="midnightblue" points="774.22,-173.37 764.23,-176.92 774.25,-180.37 774.22,-173.37"/>
</g>
<!-- Node18 -->
<g id="node18" class="node">
<title>Node18</title>
<g id="a_node18"><a xlink:href="_layout_8cpp.html" target="_top" xlink:title="Implementation of Layout for SBML Layout.">
<polygon fill="white" stroke="black" points="136.7,-112.5 136.7,-131.5 206.7,-131.5 206.7,-112.5 136.7,-112.5"/>
<text text-anchor="middle" x="171.7" y="-119.5" font-family="Helvetica,sans-Serif" font-size="10.00">Layout.cpp</text>
</a>
</g>
</g>
<!-- Node9&#45;&gt;Node18 -->
<g id="edge22" class="edge">
<title>Node9&#45;&gt;Node18</title>
<path fill="none" stroke="midnightblue" d="M694.76,-175.11C607.49,-170.63 393.34,-157.78 215.7,-132 212.76,-131.57 209.73,-131.08 206.7,-130.54"/>
<polygon fill="midnightblue" stroke="midnightblue" points="694.84,-178.62 705.01,-175.63 695.2,-171.63 694.84,-178.62"/>
</g>
<!-- Node9&#45;&gt;Node19 -->
<g id="edge23" class="edge">
<title>Node9&#45;&gt;Node19</title>
<path fill="none" stroke="midnightblue" d="M774.38,-176.38C979.8,-173.1 1923.93,-156.87 2215.7,-132 2218.94,-131.72 2222.27,-131.39 2225.62,-131.03"/>
<polygon fill="midnightblue" stroke="midnightblue" points="774.29,-172.88 764.35,-176.54 774.4,-179.88 774.29,-172.88"/>
</g>
<!-- Node20 -->
<g id="node20" class="node">
<title>Node20</title>
<g id="a_node20"><a xlink:href="_species_glyph_8cpp.html" target="_top" xlink:title="Implementation of SpeciesGlyph for SBML Layout.">
<polygon fill="white" stroke="black" points="225.2,-112.5 225.2,-131.5 328.2,-131.5 328.2,-112.5 225.2,-112.5"/>
<text text-anchor="middle" x="276.7" y="-119.5" font-family="Helvetica,sans-Serif" font-size="10.00">SpeciesGlyph.cpp</text>
</a>
</g>
</g>
<!-- Node9&#45;&gt;Node20 -->
<g id="edge24" class="edge">
<title>Node9&#45;&gt;Node20</title>
<path fill="none" stroke="midnightblue" d="M694.39,-172.88C622.59,-165.45 467.89,-148.98 337.7,-132 334.62,-131.6 331.45,-131.17 328.26,-130.73"/>
<polygon fill="midnightblue" stroke="midnightblue" points="694.47,-176.41 704.77,-173.96 695.19,-169.45 694.47,-176.41"/>
</g>
<!-- Node21 -->
<g id="node21" class="node">
<title>Node21</title>
<g id="a_node21"><a xlink:href="_species_reference_glyph_8cpp.html" target="_top" xlink:title="Implementation of SpeciesReferenceGlyph for SBML Layout.">
<polygon fill="white" stroke="black" points="346.7,-112.5 346.7,-131.5 498.7,-131.5 498.7,-112.5 346.7,-112.5"/>
<text text-anchor="middle" x="422.7" y="-119.5" font-family="Helvetica,sans-Serif" font-size="10.00">SpeciesReferenceGlyph.cpp</text>
</a>
</g>
</g>
<!-- Node9&#45;&gt;Node21 -->
<g id="edge25" class="edge">
<title>Node9&#45;&gt;Node21</title>
<path fill="none" stroke="midnightblue" d="M695.03,-170.13C638.19,-160.3 533.65,-142.2 471.94,-131.52"/>
<polygon fill="midnightblue" stroke="midnightblue" points="694.61,-173.61 705.06,-171.87 695.81,-166.72 694.61,-173.61"/>
</g>
<!-- Node22 -->
<g id="node22" class="node">
<title>Node22</title>
<g id="a_node22"><a xlink:href="_text_glyph_8cpp.html" target="_top" xlink:title="Implementation of TextGlyph for SBML Layout.">
<polygon fill="white" stroke="black" points="516.7,-112.5 516.7,-131.5 602.7,-131.5 602.7,-112.5 516.7,-112.5"/>
<text text-anchor="middle" x="559.7" y="-119.5" font-family="Helvetica,sans-Serif" font-size="10.00">TextGlyph.cpp</text>
</a>
</g>
</g>
<!-- Node9&#45;&gt;Node22 -->
<g id="edge26" class="edge">
<title>Node9&#45;&gt;Node22</title>
<path fill="none" stroke="midnightblue" d="M697.22,-165.44C664.23,-155.26 616.94,-140.66 587.3,-131.52"/>
<polygon fill="midnightblue" stroke="midnightblue" points="696.38,-168.84 706.97,-168.44 698.44,-162.15 696.38,-168.84"/>
</g>
<!-- Node23 -->
<g id="node23" class="node">
<title>Node23</title>
<g id="a_node23"><a xlink:href="_layout_annotation_8h.html" target="_top" xlink:title="Layout annotation I/O.">
<polygon fill="white" stroke="black" points="1943.7,-112.5 1943.7,-131.5 2055.7,-131.5 2055.7,-112.5 1943.7,-112.5"/>
<text text-anchor="middle" x="1999.7" y="-119.5" font-family="Helvetica,sans-Serif" font-size="10.00">LayoutAnnotation.h</text>
</a>
</g>
</g>
<!-- Node9&#45;&gt;Node23 -->
<g id="edge28" class="edge">
<title>Node9&#45;&gt;Node23</title>
<path fill="none" stroke="midnightblue" d="M774.46,-175.3C958.51,-167.45 1727.89,-134.6 1943.38,-125.4"/>
<polygon fill="midnightblue" stroke="midnightblue" points="774.25,-171.81 764.41,-175.73 774.55,-178.8 774.25,-171.81"/>
</g>
<!-- Node42 -->
<g id="node42" class="node">
<title>Node42</title>
<g id="a_node42"><a xlink:href="_render_layout_plugin_8cpp.html" target="_top" xlink:title="Implementation of RenderLayoutPlugin, the plugin class of the fbc package for the Model element.">
<polygon fill="white" stroke="black" points="620.7,-112.5 620.7,-131.5 754.7,-131.5 754.7,-112.5 620.7,-112.5"/>
<text text-anchor="middle" x="687.7" y="-119.5" font-family="Helvetica,sans-Serif" font-size="10.00">RenderLayoutPlugin.cpp</text>
</a>
</g>
</g>
<!-- Node9&#45;&gt;Node42 -->
<g id="edge50" class="edge">
<title>Node9&#45;&gt;Node42</title>
<path fill="none" stroke="midnightblue" d="M720.28,-160.43C712.04,-150.97 702.04,-139.48 695.31,-131.75"/>
<polygon fill="midnightblue" stroke="midnightblue" points="717.73,-162.84 726.94,-168.08 723.01,-158.24 717.73,-162.84"/>
</g>
<!-- Node10&#45;&gt;Node2 -->
<g id="edge11" class="edge">
<title>Node10&#45;&gt;Node2</title>
<path fill="none" stroke="midnightblue" d="M800.48,-111.99C721.41,-101.85 593.87,-85.49 516.31,-75.54"/>
<polygon fill="midnightblue" stroke="midnightblue" points="800.46,-115.52 810.82,-113.32 801.35,-108.58 800.46,-115.52"/>
</g>
<!-- Node11 -->
<g id="node11" class="node">
<title>Node11</title>
<g id="a_node11"><a xlink:href="_layout_extension_8cpp.html" target="_top" xlink:title="Implementation of LayoutExtension, the core module of layout package.">
<polygon fill="white" stroke="black" points="672.7,-56.5 672.7,-75.5 790.7,-75.5 790.7,-56.5 672.7,-56.5"/>
<text text-anchor="middle" x="731.7" y="-63.5" font-family="Helvetica,sans-Serif" font-size="10.00">LayoutExtension.cpp</text>
</a>
</g>
</g>
<!-- Node10&#45;&gt;Node11 -->
<g id="edge12" class="edge">
<title>Node10&#45;&gt;Node11</title>
<path fill="none" stroke="midnightblue" d="M839.22,-108.77C813.11,-98.63 776.66,-84.47 753.62,-75.52"/>
<polygon fill="midnightblue" stroke="midnightblue" points="838.08,-112.08 848.67,-112.44 840.62,-105.56 838.08,-112.08"/>
</g>
<!-- Node12 -->
<g id="node12" class="node">
<title>Node12</title>
<g id="a_node12"><a xlink:href="_layout_model_plugin_8cpp.html" target="_top" xlink:title="Implementation of LayoutModelPlugin, the plugin class of layout package for the Model element.">
<polygon fill="white" stroke="black" points="950.7,-56.5 950.7,-75.5 1080.7,-75.5 1080.7,-56.5 950.7,-56.5"/>
<text text-anchor="middle" x="1015.7" y="-63.5" font-family="Helvetica,sans-Serif" font-size="10.00">LayoutModelPlugin.cpp</text>
</a>
</g>
</g>
<!-- Node10&#45;&gt;Node12 -->
<g id="edge13" class="edge">
<title>Node10&#45;&gt;Node12</title>
<path fill="none" stroke="midnightblue" d="M903.17,-108.91C930.43,-98.75 968.69,-84.51 992.83,-75.52"/>
<polygon fill="midnightblue" stroke="midnightblue" points="901.82,-105.67 893.67,-112.44 904.27,-112.23 901.82,-105.67"/>
</g>
<!-- Node10&#45;&gt;Node13 -->
<g id="edge14" class="edge">
<title>Node10&#45;&gt;Node13</title>
<path fill="none" stroke="midnightblue" d="M870.7,-101.8C870.7,-92.91 870.7,-82.78 870.7,-75.75"/>
<polygon fill="midnightblue" stroke="midnightblue" points="867.2,-102.08 870.7,-112.08 874.2,-102.08 867.2,-102.08"/>
</g>
<!-- Node14 -->
<g id="node14" class="node">
<title>Node14</title>
<g id="a_node14"><a xlink:href="_render_extension_8cpp.html" target="_top" xlink:title="Implementation of RenderExtension, the core module of the render package.">
<polygon fill="white" stroke="black" points="535.2,-56.5 535.2,-75.5 654.2,-75.5 654.2,-56.5 535.2,-56.5"/>
<text text-anchor="middle" x="594.7" y="-63.5" font-family="Helvetica,sans-Serif" font-size="10.00">RenderExtension.cpp</text>
</a>
</g>
</g>
<!-- Node10&#45;&gt;Node14 -->
<g id="edge15" class="edge">
<title>Node10&#45;&gt;Node14</title>
<path fill="none" stroke="midnightblue" d="M816.89,-110.47C764.73,-100.27 686.59,-84.98 638.23,-75.52"/>
<polygon fill="midnightblue" stroke="midnightblue" points="816.48,-113.96 826.96,-112.44 817.82,-107.09 816.48,-113.96"/>
</g>
<!-- Node15&#45;&gt;Node11 -->
<g id="edge17" class="edge">
<title>Node15&#45;&gt;Node11</title>
<path fill="none" stroke="midnightblue" d="M978.32,-110.66C920.68,-100.46 833.58,-85.04 779.8,-75.52"/>
<polygon fill="midnightblue" stroke="midnightblue" points="977.91,-114.15 988.37,-112.44 979.13,-107.25 977.91,-114.15"/>
</g>
<!-- Node15&#45;&gt;Node13 -->
<g id="edge19" class="edge">
<title>Node15&#45;&gt;Node13</title>
<path fill="none" stroke="midnightblue" d="M1000.74,-109.3C969.46,-99.13 924.88,-84.62 896.88,-75.52"/>
<polygon fill="midnightblue" stroke="midnightblue" points="999.8,-112.68 1010.39,-112.44 1001.97,-106.02 999.8,-112.68"/>
</g>
<!-- Node16 -->
<g id="node16" class="node">
<title>Node16</title>
<g id="a_node16"><a xlink:href="_layout_species_reference_plugin_8cpp.html" target="_top" xlink:title="Implementation of LayoutSpeciesReferencePlugin, the plugin object of layout package (Level2) for the ...">
<polygon fill="white" stroke="black" points="1099.2,-56.5 1099.2,-75.5 1286.2,-75.5 1286.2,-56.5 1099.2,-56.5"/>
<text text-anchor="middle" x="1192.7" y="-63.5" font-family="Helvetica,sans-Serif" font-size="10.00">LayoutSpeciesReferencePlugin.cpp</text>
</a>
</g>
</g>
<!-- Node15&#45;&gt;Node16 -->
<g id="edge18" class="edge">
<title>Node15&#45;&gt;Node16</title>
<path fill="none" stroke="midnightblue" d="M1070.87,-109.17C1100.24,-99 1141.9,-84.59 1168.09,-75.52"/>
<polygon fill="midnightblue" stroke="midnightblue" points="1069.72,-105.86 1061.42,-112.44 1072.01,-112.48 1069.72,-105.86"/>
</g>
<!-- Node23&#45;&gt;Node12 -->
<g id="edge29" class="edge">
<title>Node23&#45;&gt;Node12</title>
<path fill="none" stroke="midnightblue" d="M1933.25,-119.34C1782.84,-115.24 1404.83,-102.92 1089.7,-76 1086.86,-75.76 1083.96,-75.49 1081.04,-75.2"/>
<polygon fill="midnightblue" stroke="midnightblue" points="1933.59,-122.86 1943.69,-119.63 1933.78,-115.86 1933.59,-122.86"/>
</g>
<!-- Node23&#45;&gt;Node13 -->
<g id="edge31" class="edge">
<title>Node23&#45;&gt;Node13</title>
<path fill="none" stroke="midnightblue" d="M1933.58,-120.11C1766.89,-117.44 1316.05,-107.63 941.7,-76 938.6,-75.74 935.43,-75.44 932.24,-75.12"/>
<polygon fill="midnightblue" stroke="midnightblue" points="1933.62,-123.61 1943.67,-120.26 1933.73,-116.61 1933.62,-123.61"/>
</g>
<!-- Node23&#45;&gt;Node16 -->
<g id="edge30" class="edge">
<title>Node23&#45;&gt;Node16</title>
<path fill="none" stroke="midnightblue" d="M1933.38,-117.28C1808.52,-110.16 1530,-93.72 1295.7,-76 1292.65,-75.77 1289.56,-75.53 1286.44,-75.28"/>
<polygon fill="midnightblue" stroke="midnightblue" points="1933.36,-120.78 1943.54,-117.86 1933.76,-113.79 1933.36,-120.78"/>
</g>
<!-- Node24 -->
<g id="node24" class="node">
<title>Node24</title>
<g id="a_node24"><a xlink:href="_ellipse_8cpp.html" target="_top" xlink:title="Implementation of the Ellipse class.">
<polygon fill="white" stroke="black" points="2714.2,-56.5 2714.2,-75.5 2783.2,-75.5 2783.2,-56.5 2714.2,-56.5"/>
<text text-anchor="middle" x="2748.7" y="-63.5" font-family="Helvetica,sans-Serif" font-size="10.00">Ellipse.cpp</text>
</a>
</g>
</g>
<!-- Node23&#45;&gt;Node24 -->
<g id="edge32" class="edge">
<title>Node23&#45;&gt;Node24</title>
<path fill="none" stroke="midnightblue" d="M2066.23,-111.93C2350.46,-85.08 2426.13,-112.9 2705.7,-76 2708.42,-75.64 2711.23,-75.2 2714.04,-74.72"/>
<polygon fill="midnightblue" stroke="midnightblue" points="2065.65,-108.47 2056.03,-112.91 2066.32,-115.44 2065.65,-108.47"/>
</g>
<!-- Node25 -->
<g id="node25" class="node">
<title>Node25</title>
<g id="a_node25"><a xlink:href="_global_style_8cpp.html" target="_top" xlink:title="Implementation of the GlobalStyle class.">
<polygon fill="white" stroke="black" points="2801.2,-56.5 2801.2,-75.5 2894.2,-75.5 2894.2,-56.5 2801.2,-56.5"/>
<text text-anchor="middle" x="2847.7" y="-63.5" font-family="Helvetica,sans-Serif" font-size="10.00">GlobalStyle.cpp</text>
</a>
</g>
</g>
<!-- Node23&#45;&gt;Node25 -->
<g id="edge33" class="edge">
<title>Node23&#45;&gt;Node25</title>
<path fill="none" stroke="midnightblue" d="M2066.14,-111.95C2388.97,-82.33 2473.86,-109.86 2792.7,-76 2795.39,-75.71 2798.15,-75.38 2800.94,-75.02"/>
<polygon fill="midnightblue" stroke="midnightblue" points="2065.66,-108.48 2056.03,-112.89 2066.31,-115.45 2065.66,-108.48"/>
</g>
<!-- Node26 -->
<g id="node26" class="node">
<title>Node26</title>
<g id="a_node26"><a xlink:href="_gradient_stop_8cpp.html" target="_top" xlink:title="class representing a stop in a gradient definition">
<polygon fill="white" stroke="black" points="2912.2,-56.5 2912.2,-75.5 3013.2,-75.5 3013.2,-56.5 2912.2,-56.5"/>
<text text-anchor="middle" x="2962.7" y="-63.5" font-family="Helvetica,sans-Serif" font-size="10.00">GradientStop.cpp</text>
</a>
</g>
</g>
<!-- Node23&#45;&gt;Node26 -->
<g id="edge34" class="edge">
<title>Node23&#45;&gt;Node26</title>
<path fill="none" stroke="midnightblue" d="M2065.99,-111.97C2438.12,-78.96 2535.49,-111.88 2903.7,-76 2906.38,-75.74 2909.12,-75.44 2911.89,-75.11"/>
<polygon fill="midnightblue" stroke="midnightblue" points="2065.68,-108.49 2056.03,-112.87 2066.3,-115.46 2065.68,-108.49"/>
</g>
<!-- Node27 -->
<g id="node27" class="node">
<title>Node27</title>
<g id="a_node27"><a xlink:href="_image_8cpp.html" target="_top" xlink:title="Implementation of the Image class.">
<polygon fill="white" stroke="black" points="3031.7,-56.5 3031.7,-75.5 3099.7,-75.5 3099.7,-56.5 3031.7,-56.5"/>
<text text-anchor="middle" x="3065.7" y="-63.5" font-family="Helvetica,sans-Serif" font-size="10.00">Image.cpp</text>
</a>
</g>
</g>
<!-- Node23&#45;&gt;Node27 -->
<g id="edge35" class="edge">
<title>Node23&#45;&gt;Node27</title>
<path fill="none" stroke="midnightblue" d="M2066.12,-111.97C2490.89,-75.56 2603.09,-127.42 3022.7,-76 3025.57,-75.65 3028.54,-75.2 3031.52,-74.7"/>
<polygon fill="midnightblue" stroke="midnightblue" points="2065.69,-108.5 2056.03,-112.85 2066.29,-115.47 2065.69,-108.5"/>
</g>
<!-- Node28 -->
<g id="node28" class="node">
<title>Node28</title>
<g id="a_node28"><a xlink:href="_linear_gradient_8cpp.html" target="_top" xlink:title="Implementation of the LinearGradient class.">
<polygon fill="white" stroke="black" points="3118.2,-56.5 3118.2,-75.5 3227.2,-75.5 3227.2,-56.5 3118.2,-56.5"/>
<text text-anchor="middle" x="3172.7" y="-63.5" font-family="Helvetica,sans-Serif" font-size="10.00">LinearGradient.cpp</text>
</a>
</g>
</g>
<!-- Node23&#45;&gt;Node28 -->
<g id="edge36" class="edge">
<title>Node23&#45;&gt;Node28</title>
<path fill="none" stroke="midnightblue" d="M2066.32,-111.96C2529.02,-72.75 2649.57,-116.09 3108.7,-76 3111.71,-75.74 3114.81,-75.43 3117.93,-75.09"/>
<polygon fill="midnightblue" stroke="midnightblue" points="2065.69,-108.5 2056.03,-112.84 2066.29,-115.47 2065.69,-108.5"/>
</g>
<!-- Node29 -->
<g id="node29" class="node">
<title>Node29</title>
<g id="a_node29"><a xlink:href="_list_of_curve_elements_8cpp.html" target="_top" xlink:title="storage class for curve elements">
<polygon fill="white" stroke="black" points="3245.7,-56.5 3245.7,-75.5 3385.7,-75.5 3385.7,-56.5 3245.7,-56.5"/>
<text text-anchor="middle" x="3315.7" y="-63.5" font-family="Helvetica,sans-Serif" font-size="10.00">ListOfCurveElements.cpp</text>
</a>
</g>
</g>
<!-- Node23&#45;&gt;Node29 -->
<g id="edge37" class="edge">
<title>Node23&#45;&gt;Node29</title>
<path fill="none" stroke="midnightblue" d="M2066.03,-111.99C2585.69,-68.77 2720.21,-113.29 3236.7,-76 3239.59,-75.79 3242.54,-75.56 3245.51,-75.3"/>
<polygon fill="midnightblue" stroke="midnightblue" points="2065.7,-108.5 2056.03,-112.83 2066.28,-115.48 2065.7,-108.5"/>
</g>
<!-- Node30 -->
<g id="node30" class="node">
<title>Node30</title>
<g id="a_node30"><a xlink:href="_list_of_gradient_stops_8cpp.html" target="_top" xlink:title="Implementation of the ListOfGradientStops class.">
<polygon fill="white" stroke="black" points="1304.7,-56.5 1304.7,-75.5 1438.7,-75.5 1438.7,-56.5 1304.7,-56.5"/>
<text text-anchor="middle" x="1371.7" y="-63.5" font-family="Helvetica,sans-Serif" font-size="10.00">ListOfGradientStops.cpp</text>
</a>
</g>
</g>
<!-- Node23&#45;&gt;Node30 -->
<g id="edge38" class="edge">
<title>Node23&#45;&gt;Node30</title>
<path fill="none" stroke="midnightblue" d="M1933.61,-116.4C1829.96,-109 1622.93,-93.51 1447.7,-76 1444.79,-75.71 1441.82,-75.4 1438.82,-75.08"/>
<polygon fill="midnightblue" stroke="midnightblue" points="1933.39,-119.89 1943.61,-117.11 1933.88,-112.91 1933.39,-119.89"/>
</g>
<!-- Node31 -->
<g id="node31" class="node">
<title>Node31</title>
<g id="a_node31"><a xlink:href="_local_render_information_8cpp.html" target="_top" xlink:title="Implementation of the LocalRenderInformation class.">
<polygon fill="white" stroke="black" points="1456.7,-56.5 1456.7,-75.5 1610.7,-75.5 1610.7,-56.5 1456.7,-56.5"/>
<text text-anchor="middle" x="1533.7" y="-63.5" font-family="Helvetica,sans-Serif" font-size="10.00">LocalRenderInformation.cpp</text>
</a>
</g>
</g>
<!-- Node23&#45;&gt;Node31 -->
<g id="edge39" class="edge">
<title>Node23&#45;&gt;Node31</title>
<path fill="none" stroke="midnightblue" d="M1933.3,-113.31C1847.07,-103.31 1697.02,-85.93 1607.37,-75.54"/>
<polygon fill="midnightblue" stroke="midnightblue" points="1933.15,-116.81 1943.49,-114.49 1933.96,-109.86 1933.15,-116.81"/>
</g>
<!-- Node32 -->
<g id="node32" class="node">
<title>Node32</title>
<g id="a_node32"><a xlink:href="_local_style_8cpp.html" target="_top" xlink:title="class for representing a local style">
<polygon fill="white" stroke="black" points="1629.2,-56.5 1629.2,-75.5 1716.2,-75.5 1716.2,-56.5 1629.2,-56.5"/>
<text text-anchor="middle" x="1672.7" y="-63.5" font-family="Helvetica,sans-Serif" font-size="10.00">LocalStyle.cpp</text>
</a>
</g>
</g>
<!-- Node23&#45;&gt;Node32 -->
<g id="edge40" class="edge">
<title>Node23&#45;&gt;Node32</title>
<path fill="none" stroke="midnightblue" d="M1937.37,-110.86C1881.83,-101.81 1798.32,-88.13 1725.7,-76 1722.66,-75.49 1719.52,-74.97 1716.37,-74.43"/>
<polygon fill="midnightblue" stroke="midnightblue" points="1936.98,-114.34 1947.41,-112.5 1938.1,-107.44 1936.98,-114.34"/>
</g>
<!-- Node33 -->
<g id="node33" class="node">
<title>Node33</title>
<g id="a_node33"><a xlink:href="_polygon_8cpp.html" target="_top" xlink:title="Implementation of the Polygon class.">
<polygon fill="white" stroke="black" points="1734.7,-56.5 1734.7,-75.5 1810.7,-75.5 1810.7,-56.5 1734.7,-56.5"/>
<text text-anchor="middle" x="1772.7" y="-63.5" font-family="Helvetica,sans-Serif" font-size="10.00">Polygon.cpp</text>
</a>
</g>
</g>
<!-- Node23&#45;&gt;Node33 -->
<g id="edge41" class="edge">
<title>Node23&#45;&gt;Node33</title>
<path fill="none" stroke="midnightblue" d="M1953.83,-110.09C1910.94,-99.89 1847.78,-84.86 1808.5,-75.52"/>
<polygon fill="midnightblue" stroke="midnightblue" points="1953.19,-113.53 1963.73,-112.44 1954.81,-106.72 1953.19,-113.53"/>
</g>
<!-- Node34 -->
<g id="node34" class="node">
<title>Node34</title>
<g id="a_node34"><a xlink:href="_radial_gradient_8cpp.html" target="_top" xlink:title="Implementation of the RadialGradient class.">
<polygon fill="white" stroke="black" points="1828.7,-56.5 1828.7,-75.5 1938.7,-75.5 1938.7,-56.5 1828.7,-56.5"/>
<text text-anchor="middle" x="1883.7" y="-63.5" font-family="Helvetica,sans-Serif" font-size="10.00">RadialGradient.cpp</text>
</a>
</g>
</g>
<!-- Node23&#45;&gt;Node34 -->
<g id="edge42" class="edge">
<title>Node23&#45;&gt;Node34</title>
<path fill="none" stroke="midnightblue" d="M1971.98,-108.1C1950.3,-98.01 1920.79,-84.27 1901.99,-75.52"/>
<polygon fill="midnightblue" stroke="midnightblue" points="1970.77,-111.4 1981.32,-112.44 1973.73,-105.05 1970.77,-111.4"/>
</g>
<!-- Node35 -->
<g id="node35" class="node">
<title>Node35</title>
<g id="a_node35"><a xlink:href="_rectangle_8cpp.html" target="_top" xlink:title="Implementation of the Rectangle class.">
<polygon fill="white" stroke="black" points="1956.7,-56.5 1956.7,-75.5 2042.7,-75.5 2042.7,-56.5 1956.7,-56.5"/>
<text text-anchor="middle" x="1999.7" y="-63.5" font-family="Helvetica,sans-Serif" font-size="10.00">Rectangle.cpp</text>
</a>
</g>
</g>
<!-- Node23&#45;&gt;Node35 -->
<g id="edge43" class="edge">
<title>Node23&#45;&gt;Node35</title>
<path fill="none" stroke="midnightblue" d="M1999.7,-101.8C1999.7,-92.91 1999.7,-82.78 1999.7,-75.75"/>
<polygon fill="midnightblue" stroke="midnightblue" points="1996.2,-102.08 1999.7,-112.08 2003.2,-102.08 1996.2,-102.08"/>
</g>
<!-- Node36 -->
<g id="node36" class="node">
<title>Node36</title>
<g id="a_node36"><a xlink:href="_render_cubic_bezier_8cpp.html" target="_top" xlink:title="Implementation of the RenderCubicBezier class.">
<polygon fill="white" stroke="black" points="2060.7,-56.5 2060.7,-75.5 2188.7,-75.5 2188.7,-56.5 2060.7,-56.5"/>
<text text-anchor="middle" x="2124.7" y="-63.5" font-family="Helvetica,sans-Serif" font-size="10.00">RenderCubicBezier.cpp</text>
</a>
</g>
</g>
<!-- Node23&#45;&gt;Node36 -->
<g id="edge44" class="edge">
<title>Node23&#45;&gt;Node36</title>
<path fill="none" stroke="midnightblue" d="M2028.94,-108.37C2052.35,-98.26 2084.54,-84.35 2104.98,-75.52"/>
<polygon fill="midnightblue" stroke="midnightblue" points="2027.3,-105.26 2019.5,-112.44 2030.07,-111.69 2027.3,-105.26"/>
</g>
<!-- Node37 -->
<g id="node37" class="node">
<title>Node37</title>
<g id="a_node37"><a xlink:href="_render_curve_8cpp.html" target="_top" xlink:title="Implementation of the RenderCurve class.">
<polygon fill="white" stroke="black" points="2206.7,-56.5 2206.7,-75.5 2306.7,-75.5 2306.7,-56.5 2206.7,-56.5"/>
<text text-anchor="middle" x="2256.7" y="-63.5" font-family="Helvetica,sans-Serif" font-size="10.00">RenderCurve.cpp</text>
</a>
</g>
</g>
<!-- Node23&#45;&gt;Node37 -->
<g id="edge45" class="edge">
<title>Node23&#45;&gt;Node37</title>
<path fill="none" stroke="midnightblue" d="M2050.4,-110.35C2098.97,-100.14 2171.32,-84.94 2216.16,-75.52"/>
<polygon fill="midnightblue" stroke="midnightblue" points="2049.49,-106.96 2040.42,-112.44 2050.93,-113.81 2049.49,-106.96"/>
</g>
<!-- Node38 -->
<g id="node38" class="node">
<title>Node38</title>
<g id="a_node38"><a xlink:href="_render_group_8cpp.html" target="_top" xlink:title="Implementation of the RenderGroup class.">
<polygon fill="white" stroke="black" points="2325.2,-56.5 2325.2,-75.5 2426.2,-75.5 2426.2,-56.5 2325.2,-56.5"/>
<text text-anchor="middle" x="2375.7" y="-63.5" font-family="Helvetica,sans-Serif" font-size="10.00">RenderGroup.cpp</text>
</a>
</g>
</g>
<!-- Node23&#45;&gt;Node38 -->
<g id="edge46" class="edge">
<title>Node23&#45;&gt;Node38</title>
<path fill="none" stroke="midnightblue" d="M2065.89,-111.72C2129.84,-102.72 2229.43,-88.61 2315.7,-76 2318.72,-75.56 2321.83,-75.1 2324.96,-74.64"/>
<polygon fill="midnightblue" stroke="midnightblue" points="2065.36,-108.26 2055.94,-113.12 2066.33,-115.19 2065.36,-108.26"/>
</g>
<!-- Node39 -->
<g id="node39" class="node">
<title>Node39</title>
<g id="a_node39"><a xlink:href="_render_point_8cpp.html" target="_top" xlink:title="Implementation of the RenderPoint class.">
<polygon fill="white" stroke="black" points="2444.7,-56.5 2444.7,-75.5 2540.7,-75.5 2540.7,-56.5 2444.7,-56.5"/>
<text text-anchor="middle" x="2492.7" y="-63.5" font-family="Helvetica,sans-Serif" font-size="10.00">RenderPoint.cpp</text>
</a>
</g>
</g>
<!-- Node23&#45;&gt;Node39 -->
<g id="edge47" class="edge">
<title>Node23&#45;&gt;Node39</title>
<path fill="none" stroke="midnightblue" d="M2065.69,-111.93C2230.47,-92.81 2273.98,-96.27 2434.7,-76 2437.93,-75.59 2441.26,-75.15 2444.62,-74.68"/>
<polygon fill="midnightblue" stroke="midnightblue" points="2065.22,-108.46 2055.7,-113.1 2066.04,-115.41 2065.22,-108.46"/>
</g>
<!-- Node40 -->
<g id="node40" class="node">
<title>Node40</title>
<g id="a_node40"><a xlink:href="_style_8cpp.html" target="_top" xlink:title="Implementation of the Style class.">
<polygon fill="white" stroke="black" points="2558.7,-56.5 2558.7,-75.5 2620.7,-75.5 2620.7,-56.5 2558.7,-56.5"/>
<text text-anchor="middle" x="2589.7" y="-63.5" font-family="Helvetica,sans-Serif" font-size="10.00">Style.cpp</text>
</a>
</g>
</g>
<!-- Node23&#45;&gt;Node40 -->
<g id="edge48" class="edge">
<title>Node23&#45;&gt;Node40</title>
<path fill="none" stroke="midnightblue" d="M2066.08,-111.92C2281.38,-89.72 2339.14,-107.33 2549.7,-76 2552.51,-75.58 2555.43,-75.07 2558.34,-74.51"/>
<polygon fill="midnightblue" stroke="midnightblue" points="2065.62,-108.45 2056.04,-112.98 2066.35,-115.41 2065.62,-108.45"/>
</g>
<!-- Node41 -->
<g id="node41" class="node">
<title>Node41</title>
<g id="a_node41"><a xlink:href="_text_8cpp.html" target="_top" xlink:title="Implementation of the Text class.">
<polygon fill="white" stroke="black" points="2639.2,-56.5 2639.2,-75.5 2696.2,-75.5 2696.2,-56.5 2639.2,-56.5"/>
<text text-anchor="middle" x="2667.7" y="-63.5" font-family="Helvetica,sans-Serif" font-size="10.00">Text.cpp</text>
</a>
</g>
</g>
<!-- Node23&#45;&gt;Node41 -->
<g id="edge49" class="edge">
<title>Node23&#45;&gt;Node41</title>
<path fill="none" stroke="midnightblue" d="M2066.18,-111.93C2316.81,-87.41 2384.11,-112.64 2629.7,-76 2632.78,-75.54 2635.98,-74.95 2639.16,-74.3"/>
<polygon fill="midnightblue" stroke="midnightblue" points="2065.64,-108.47 2056.04,-112.94 2066.33,-115.43 2065.64,-108.47"/>
</g>
</g>
</svg>
        <g id="navigator" transform="translate(0 0)" fill="#404254">
                <rect fill="#f2f5e9" fill-opacity="0.5" stroke="#606060" stroke-width=".5" x="0" y="0" width="60" height="60"/>
                <use id="zoomplus" xlink:href="#zoomPlus" x="17" y="9" onmousedown="handleZoom(evt,'in')"/>
                <use id="zoomminus" xlink:href="#zoomMin" x="42" y="9" onmousedown="handleZoom(evt,'out')"/>
                <use id="reset" xlink:href="#resetDef" x="30" y="36" onmousedown="handleReset()"/>
                <g id="arrowUp" xlink:href="#dirArrow" transform="translate(30 24)" onmousedown="handlePan(0,-1)">
                  <use xlink:href="#rim" fill="#404040">
                        <set attributeName="fill" to="#808080" begin="arrowUp.mouseover" end="arrowUp.mouseout"/>
                  </use>
                  <path fill="none" stroke="white" stroke-width="1.5" d="M0,-3.0v7 M-2.5,-0.5L0,-3.0L2.5,-0.5"/>
                </g>
                <g id="arrowRight" xlink:href="#dirArrow" transform="rotate(90) translate(36 -43)" onmousedown="handlePan(1,0)">
                  <use xlink:href="#rim" fill="#404040">
                        <set attributeName="fill" to="#808080" begin="arrowRight.mouseover" end="arrowRight.mouseout"/>
                  </use>
                  <path fill="none" stroke="white" stroke-width="1.5" d="M0,-3.0v7 M-2.5,-0.5L0,-3.0L2.5,-0.5"/>
                </g>
                <g id="arrowDown" xlink:href="#dirArrow" transform="rotate(180) translate(-30 -48)" onmousedown="handlePan(0,1)">
                  <use xlink:href="#rim" fill="#404040">
                        <set attributeName="fill" to="#808080" begin="arrowDown.mouseover" end="arrowDown.mouseout"/>
                  </use>
                  <path fill="none" stroke="white" stroke-width="1.5" d="M0,-3.0v7 M-2.5,-0.5L0,-3.0L2.5,-0.5"/>
                </g>
                <g id="arrowLeft" xlink:href="#dirArrow" transform="rotate(270) translate(-36 17)" onmousedown="handlePan(-1,0)">
                  <use xlink:href="#rim" fill="#404040">
                        <set attributeName="fill" to="#808080" begin="arrowLeft.mouseover" end="arrowLeft.mouseout"/>
                  </use>
                  <path fill="none" stroke="white" stroke-width="1.5" d="M0,-3.0v7 M-2.5,-0.5L0,-3.0L2.5,-0.5"/>
                </g>
        </g>
        <svg viewBox="0 0 15 15" width="100%" height="30px" preserveAspectRatio="xMaxYMin meet">
         <g id="arrow_out" transform="scale(0.3 0.3)">
          <a xlink:href="_reaction_glyph_8h__dep__incl_org.svg" target="_base">
           <rect id="button" ry="5" rx="5" y="6" x="6" height="38" width="38"
                fill="#f2f5e9" fill-opacity="0.5" stroke="#606060" stroke-width="1.0"/>
           <path id="arrow"
             d="M 11.500037,31.436501 C 11.940474,20.09759 22.043105,11.32322 32.158766,21.979434 L 37.068811,17.246167 C 37.068811,17.246167 37.088388,32 37.088388,32 L 22.160133,31.978069 C 22.160133,31.978069 26.997745,27.140456 26.997745,27.140456 C 18.528582,18.264221 13.291696,25.230495 11.500037,31.436501 z"
             style="fill:#404040;"/>
          </a>
         </g>
        </svg>
</svg>
