<?xml version="1.0" encoding="UTF-8" standalone="no"?>
<!DOCTYPE svg PUBLIC "-//W3C//DTD SVG 1.1//EN"
 "http://www.w3.org/Graphics/SVG/1.1/DTD/svg11.dtd">
<!-- Generated by graphviz version 2.43.0 (0)
 -->
<!-- Title: Rectangle.h Pages: 1 -->
<!--zoomable 196 -->
<svg id="main" version="1.1" xmlns="http://www.w3.org/2000/svg" xmlns:xlink="http://www.w3.org/1999/xlink" xml:space="preserve" onload="init(evt)">
<style type="text/css"><![CDATA[
.edge:hover path { stroke: red; }
.edge:hover polygon { stroke: red; fill: red; }
]]></style>
<script type="text/javascript"><![CDATA[
var edges = document.getElementsByTagName('g');
if (edges && edges.length) {
  for (var i=0;i<edges.length;i++) {
    if (edges[i].id.substr(0,4)=='edge') {
      edges[i].setAttribute('class','edge');
    }
  }
}
]]></script>
        <defs>
                <circle id="rim" cx="0" cy="0" r="7"/>
                <circle id="rim2" cx="0" cy="0" r="3.5"/>
                <g id="zoomPlus">
                        <use xlink:href="#rim" fill="#404040">
                                <set attributeName="fill" to="#808080" begin="zoomplus.mouseover" end="zoomplus.mouseout"/>
                        </use>
                        <path d="M-4,0h8M0,-4v8" fill="none" stroke="white" stroke-width="1.5" pointer-events="none"/>
                </g>
                <g id="zoomMin">
                        <use xlink:href="#rim" fill="#404040">
                                <set attributeName="fill" to="#808080" begin="zoomminus.mouseover" end="zoomminus.mouseout"/>
                        </use>
                        <path d="M-4,0h8" fill="none" stroke="white" stroke-width="1.5" pointer-events="none"/>
                </g>
                <g id="dirArrow">
                        <path fill="none" stroke="white" stroke-width="1.5" d="M0,-3.0v7 M-2.5,-0.5L0,-3.0L2.5,-0.5"/>
                </g>
               <g id="resetDef">
                       <use xlink:href="#rim2" fill="#404040">
                               <set attributeName="fill" to="#808080" begin="reset.mouseover" end="reset.mouseout"/>
                       </use>
               </g>
        </defs>

<script type="text/javascript">
var viewWidth = 1338;
var viewHeight = 196;
var sectionId = 'dynsection-1';
</script>
<script xlink:href="svgpan.js"/>
<svg id="graph" class="graph">
<g id="viewport">
<title>Rectangle.h</title>
<polygon fill="white" stroke="transparent" points="-4,4 -4,-192 1334,-192 1334,4 -4,4"/>
<!-- Node1 -->
<g id="node1" class="node">
<title>Node1</title>
<g id="a_node1"><a xlink:title="Definition of the Rectangle class.">
<polygon fill="#bfbfbf" stroke="black" points="800,-168.5 800,-187.5 874,-187.5 874,-168.5 800,-168.5"/>
<text text-anchor="middle" x="837" y="-175.5" font-family="Helvetica,sans-Serif" font-size="10.00">Rectangle.h</text>
</a>
</g>
</g>
<!-- Node2 -->
<g id="node2" class="node">
<title>Node2</title>
<g id="a_node2"><a xlink:href="_render_extension_types_8h.html" target="_top" xlink:title="Definition of RenderExtensionTypes.">
<polygon fill="white" stroke="black" points="246,-112.5 246,-131.5 382,-131.5 382,-112.5 246,-112.5"/>
<text text-anchor="middle" x="314" y="-119.5" font-family="Helvetica,sans-Serif" font-size="10.00">RenderExtensionTypes.h</text>
</a>
</g>
</g>
<!-- Node1&#45;&gt;Node2 -->
<g id="edge1" class="edge">
<title>Node1&#45;&gt;Node2</title>
<path fill="none" stroke="midnightblue" d="M789.35,-172.4C707.89,-164.5 536.63,-147.66 392,-132 388.75,-131.65 385.42,-131.28 382.06,-130.91"/>
<polygon fill="midnightblue" stroke="midnightblue" points="789.48,-175.93 799.77,-173.41 790.15,-168.97 789.48,-175.93"/>
</g>
<!-- Node9 -->
<g id="node9" class="node">
<title>Node9</title>
<g id="a_node9"><a xlink:href="_graphical_primitive1_d_8cpp.html" target="_top" xlink:title="abstract base class for graphical 1D objects">
<polygon fill="white" stroke="black" points="400.5,-112.5 400.5,-131.5 541.5,-131.5 541.5,-112.5 400.5,-112.5"/>
<text text-anchor="middle" x="471" y="-119.5" font-family="Helvetica,sans-Serif" font-size="10.00">GraphicalPrimitive1D.cpp</text>
</a>
</g>
</g>
<!-- Node1&#45;&gt;Node9 -->
<g id="edge10" class="edge">
<title>Node1&#45;&gt;Node9</title>
<path fill="none" stroke="midnightblue" d="M789.66,-170.01C722.83,-160.16 600.97,-142.18 528.86,-131.54"/>
<polygon fill="midnightblue" stroke="midnightblue" points="789.49,-173.53 799.89,-171.53 790.51,-166.6 789.49,-173.53"/>
</g>
<!-- Node10 -->
<g id="node10" class="node">
<title>Node10</title>
<g id="a_node10"><a xlink:href="_graphical_primitive2_d_8cpp.html" target="_top" xlink:title="Implementation of the GraphicalPrimitive2D class.">
<polygon fill="white" stroke="black" points="559.5,-112.5 559.5,-131.5 700.5,-131.5 700.5,-112.5 559.5,-112.5"/>
<text text-anchor="middle" x="630" y="-119.5" font-family="Helvetica,sans-Serif" font-size="10.00">GraphicalPrimitive2D.cpp</text>
</a>
</g>
</g>
<!-- Node1&#45;&gt;Node10 -->
<g id="edge11" class="edge">
<title>Node1&#45;&gt;Node10</title>
<path fill="none" stroke="midnightblue" d="M794.18,-165.83C755.09,-155.63 698.17,-140.78 662.65,-131.52"/>
<polygon fill="midnightblue" stroke="midnightblue" points="793.64,-169.31 804.2,-168.44 795.41,-162.53 793.64,-169.31"/>
</g>
<!-- Node11 -->
<g id="node11" class="node">
<title>Node11</title>
<g id="a_node11"><a xlink:href="_list_of_drawables_8cpp.html" target="_top" xlink:title="Implementation of the ListOfDrawables class.">
<polygon fill="white" stroke="black" points="718.5,-112.5 718.5,-131.5 835.5,-131.5 835.5,-112.5 718.5,-112.5"/>
<text text-anchor="middle" x="777" y="-119.5" font-family="Helvetica,sans-Serif" font-size="10.00">ListOfDrawables.cpp</text>
</a>
</g>
</g>
<!-- Node1&#45;&gt;Node11 -->
<g id="edge12" class="edge">
<title>Node1&#45;&gt;Node11</title>
<path fill="none" stroke="midnightblue" d="M819.82,-161.54C809.12,-151.91 795.74,-139.87 786.82,-131.83"/>
<polygon fill="midnightblue" stroke="midnightblue" points="817.59,-164.24 827.36,-168.32 822.27,-159.03 817.59,-164.24"/>
</g>
<!-- Node12 -->
<g id="node12" class="node">
<title>Node12</title>
<g id="a_node12"><a xlink:href="_rectangle_8cpp.html" target="_top" xlink:title="Implementation of the Rectangle class.">
<polygon fill="white" stroke="black" points="854,-112.5 854,-131.5 940,-131.5 940,-112.5 854,-112.5"/>
<text text-anchor="middle" x="897" y="-119.5" font-family="Helvetica,sans-Serif" font-size="10.00">Rectangle.cpp</text>
</a>
</g>
</g>
<!-- Node1&#45;&gt;Node12 -->
<g id="edge13" class="edge">
<title>Node1&#45;&gt;Node12</title>
<path fill="none" stroke="midnightblue" d="M854.18,-161.54C864.88,-151.91 878.26,-139.87 887.18,-131.83"/>
<polygon fill="midnightblue" stroke="midnightblue" points="851.73,-159.03 846.64,-168.32 856.41,-164.24 851.73,-159.03"/>
</g>
<!-- Node13 -->
<g id="node13" class="node">
<title>Node13</title>
<g id="a_node13"><a xlink:href="_render_group_8cpp.html" target="_top" xlink:title="Implementation of the RenderGroup class.">
<polygon fill="white" stroke="black" points="958.5,-112.5 958.5,-131.5 1059.5,-131.5 1059.5,-112.5 958.5,-112.5"/>
<text text-anchor="middle" x="1009" y="-119.5" font-family="Helvetica,sans-Serif" font-size="10.00">RenderGroup.cpp</text>
</a>
</g>
</g>
<!-- Node1&#45;&gt;Node13 -->
<g id="edge14" class="edge">
<title>Node1&#45;&gt;Node13</title>
<path fill="none" stroke="midnightblue" d="M873.83,-165.44C906.26,-155.26 952.74,-140.66 981.87,-131.52"/>
<polygon fill="midnightblue" stroke="midnightblue" points="872.75,-162.11 864.25,-168.44 874.84,-168.79 872.75,-162.11"/>
</g>
<!-- Node14 -->
<g id="node14" class="node">
<title>Node14</title>
<g id="a_node14"><a xlink:href="_transformation_8cpp.html" target="_top" xlink:title="class representing a 3D affine transformation">
<polygon fill="white" stroke="black" points="1078,-112.5 1078,-131.5 1188,-131.5 1188,-112.5 1078,-112.5"/>
<text text-anchor="middle" x="1133" y="-119.5" font-family="Helvetica,sans-Serif" font-size="10.00">Transformation.cpp</text>
</a>
</g>
</g>
<!-- Node1&#45;&gt;Node14 -->
<g id="edge15" class="edge">
<title>Node1&#45;&gt;Node14</title>
<path fill="none" stroke="midnightblue" d="M884.1,-168.41C939.51,-158.3 1030.95,-141.62 1086.22,-131.53"/>
<polygon fill="midnightblue" stroke="midnightblue" points="883.4,-164.98 874.19,-170.22 884.65,-171.86 883.4,-164.98"/>
</g>
<!-- Node15 -->
<g id="node15" class="node">
<title>Node15</title>
<g id="a_node15"><a xlink:href="_transformation2_d_8cpp.html" target="_top" xlink:title="class representing a 2D affine transformation">
<polygon fill="white" stroke="black" points="1206,-112.5 1206,-131.5 1330,-131.5 1330,-112.5 1206,-112.5"/>
<text text-anchor="middle" x="1268" y="-119.5" font-family="Helvetica,sans-Serif" font-size="10.00">Transformation2D.cpp</text>
</a>
</g>
</g>
<!-- Node1&#45;&gt;Node15 -->
<g id="edge16" class="edge">
<title>Node1&#45;&gt;Node15</title>
<path fill="none" stroke="midnightblue" d="M884.14,-171.13C952.92,-162.57 1084.8,-146.12 1197,-132 1199.84,-131.64 1202.73,-131.28 1205.66,-130.91"/>
<polygon fill="midnightblue" stroke="midnightblue" points="883.55,-167.68 874.06,-172.39 884.41,-174.63 883.55,-167.68"/>
</g>
<!-- Node3 -->
<g id="node3" class="node">
<title>Node3</title>
<g id="a_node3"><a xlink:href="_render_layout_plugin_8cpp.html" target="_top" xlink:title="Implementation of RenderLayoutPlugin, the plugin class of the fbc package for the Model element.">
<polygon fill="white" stroke="black" points="0,-0.5 0,-19.5 134,-19.5 134,-0.5 0,-0.5"/>
<text text-anchor="middle" x="67" y="-7.5" font-family="Helvetica,sans-Serif" font-size="10.00">RenderLayoutPlugin.cpp</text>
</a>
</g>
</g>
<!-- Node2&#45;&gt;Node3 -->
<g id="edge2" class="edge">
<title>Node2&#45;&gt;Node3</title>
<path fill="none" stroke="midnightblue" d="M235.63,-114.19C178.59,-107.67 107.7,-95.84 86,-76 69.86,-61.24 67.14,-33.62 66.86,-19.61"/>
<polygon fill="midnightblue" stroke="midnightblue" points="235.42,-117.69 245.74,-115.31 236.19,-110.73 235.42,-117.69"/>
</g>
<!-- Node4 -->
<g id="node4" class="node">
<title>Node4</title>
<g id="a_node4"><a xlink:href="_render_layout_converter_8cpp.html" target="_top" xlink:title="Simple converter to convert Layout + Render from l2 to L3 and vice versa.">
<polygon fill="white" stroke="black" points="95,-56.5 95,-75.5 247,-75.5 247,-56.5 95,-56.5"/>
<text text-anchor="middle" x="171" y="-63.5" font-family="Helvetica,sans-Serif" font-size="10.00">RenderLayoutConverter.cpp</text>
</a>
</g>
</g>
<!-- Node2&#45;&gt;Node4 -->
<g id="edge3" class="edge">
<title>Node2&#45;&gt;Node4</title>
<path fill="none" stroke="midnightblue" d="M281.97,-108.91C255.09,-98.75 217.36,-84.51 193.55,-75.52"/>
<polygon fill="midnightblue" stroke="midnightblue" points="280.75,-112.19 291.34,-112.44 283.22,-105.64 280.75,-112.19"/>
</g>
<!-- Node5 -->
<g id="node5" class="node">
<title>Node5</title>
<g id="a_node5"><a xlink:href="_render_utilities_8cpp.html" target="_top" xlink:title="implementation of RenderUtilities, a class of utility functions for the render package">
<polygon fill="white" stroke="black" points="338,-0.5 338,-19.5 448,-19.5 448,-0.5 338,-0.5"/>
<text text-anchor="middle" x="393" y="-7.5" font-family="Helvetica,sans-Serif" font-size="10.00">RenderUtilities.cpp</text>
</a>
</g>
</g>
<!-- Node2&#45;&gt;Node5 -->
<g id="edge4" class="edge">
<title>Node2&#45;&gt;Node5</title>
<path fill="none" stroke="midnightblue" d="M338.18,-107.06C349.85,-99.25 363.19,-88.55 372,-76 384.39,-58.33 389.78,-32.93 391.86,-19.72"/>
<polygon fill="midnightblue" stroke="midnightblue" points="336.26,-104.14 329.69,-112.45 340.01,-110.05 336.26,-104.14"/>
</g>
<!-- Node6 -->
<g id="node6" class="node">
<title>Node6</title>
<g id="a_node6"><a xlink:href="_render_utilities_8h.html" target="_top" xlink:title="Definition of RenderUtilities, a class of utility functions for the render package.">
<polygon fill="white" stroke="black" points="265,-56.5 265,-75.5 363,-75.5 363,-56.5 265,-56.5"/>
<text text-anchor="middle" x="314" y="-63.5" font-family="Helvetica,sans-Serif" font-size="10.00">RenderUtilities.h</text>
</a>
</g>
</g>
<!-- Node2&#45;&gt;Node6 -->
<g id="edge5" class="edge">
<title>Node2&#45;&gt;Node6</title>
<path fill="none" stroke="midnightblue" d="M314,-101.8C314,-92.91 314,-82.78 314,-75.75"/>
<polygon fill="midnightblue" stroke="midnightblue" points="310.5,-102.08 314,-112.08 317.5,-102.08 310.5,-102.08"/>
</g>
<!-- Node8 -->
<g id="node8" class="node">
<title>Node8</title>
<g id="a_node8"><a xlink:href="_render_validator_8cpp.html" target="_top" xlink:title="Definition of RenderValidator.">
<polygon fill="white" stroke="black" points="419,-56.5 419,-75.5 533,-75.5 533,-56.5 419,-56.5"/>
<text text-anchor="middle" x="476" y="-63.5" font-family="Helvetica,sans-Serif" font-size="10.00">RenderValidator.cpp</text>
</a>
</g>
</g>
<!-- Node2&#45;&gt;Node8 -->
<g id="edge9" class="edge">
<title>Node2&#45;&gt;Node8</title>
<path fill="none" stroke="midnightblue" d="M349.48,-109.17C379.99,-99 423.24,-84.59 450.45,-75.52"/>
<polygon fill="midnightblue" stroke="midnightblue" points="348.05,-105.96 339.67,-112.44 350.26,-112.6 348.05,-105.96"/>
</g>
<!-- Node6&#45;&gt;Node3 -->
<g id="edge6" class="edge">
<title>Node6&#45;&gt;Node3</title>
<path fill="none" stroke="midnightblue" d="M264.97,-54.28C218.3,-44.08 148.97,-28.92 105.95,-19.52"/>
<polygon fill="midnightblue" stroke="midnightblue" points="264.35,-57.73 274.86,-56.44 265.84,-50.89 264.35,-57.73"/>
</g>
<!-- Node6&#45;&gt;Node5 -->
<g id="edge8" class="edge">
<title>Node6&#45;&gt;Node5</title>
<path fill="none" stroke="midnightblue" d="M335.03,-50.62C349.47,-40.76 368.14,-27.99 380.34,-19.65"/>
<polygon fill="midnightblue" stroke="midnightblue" points="332.97,-47.79 326.69,-56.32 336.92,-53.57 332.97,-47.79"/>
</g>
<!-- Node7 -->
<g id="node7" class="node">
<title>Node7</title>
<g id="a_node7"><a xlink:href="_render_list_of_layouts_plugin_8cpp.html" target="_top" xlink:title="Implementation of RenderListOfLayoutsPlugin, the plugin class of the fbc package for the Model elemen...">
<polygon fill="white" stroke="black" points="152,-0.5 152,-19.5 320,-19.5 320,-0.5 152,-0.5"/>
<text text-anchor="middle" x="236" y="-7.5" font-family="Helvetica,sans-Serif" font-size="10.00">RenderListOfLayoutsPlugin.cpp</text>
</a>
</g>
</g>
<!-- Node6&#45;&gt;Node7 -->
<g id="edge7" class="edge">
<title>Node6&#45;&gt;Node7</title>
<path fill="none" stroke="midnightblue" d="M293.23,-50.62C278.98,-40.76 260.54,-27.99 248.5,-19.65"/>
<polygon fill="midnightblue" stroke="midnightblue" points="291.25,-53.51 301.47,-56.32 295.24,-47.75 291.25,-53.51"/>
</g>
</g>
</svg>
        <g id="navigator" transform="translate(0 0)" fill="#404254">
                <rect fill="#f2f5e9" fill-opacity="0.5" stroke="#606060" stroke-width=".5" x="0" y="0" width="60" height="60"/>
                <use id="zoomplus" xlink:href="#zoomPlus" x="17" y="9" onmousedown="handleZoom(evt,'in')"/>
                <use id="zoomminus" xlink:href="#zoomMin" x="42" y="9" onmousedown="handleZoom(evt,'out')"/>
                <use id="reset" xlink:href="#resetDef" x="30" y="36" onmousedown="handleReset()"/>
                <g id="arrowUp" xlink:href="#dirArrow" transform="translate(30 24)" onmousedown="handlePan(0,-1)">
                  <use xlink:href="#rim" fill="#404040">
                        <set attributeName="fill" to="#808080" begin="arrowUp.mouseover" end="arrowUp.mouseout"/>
                  </use>
                  <path fill="none" stroke="white" stroke-width="1.5" d="M0,-3.0v7 M-2.5,-0.5L0,-3.0L2.5,-0.5"/>
                </g>
                <g id="arrowRight" xlink:href="#dirArrow" transform="rotate(90) translate(36 -43)" onmousedown="handlePan(1,0)">
                  <use xlink:href="#rim" fill="#404040">
                        <set attributeName="fill" to="#808080" begin="arrowRight.mouseover" end="arrowRight.mouseout"/>
                  </use>
                  <path fill="none" stroke="white" stroke-width="1.5" d="M0,-3.0v7 M-2.5,-0.5L0,-3.0L2.5,-0.5"/>
                </g>
                <g id="arrowDown" xlink:href="#dirArrow" transform="rotate(180) translate(-30 -48)" onmousedown="handlePan(0,1)">
                  <use xlink:href="#rim" fill="#404040">
                        <set attributeName="fill" to="#808080" begin="arrowDown.mouseover" end="arrowDown.mouseout"/>
                  </use>
                  <path fill="none" stroke="white" stroke-width="1.5" d="M0,-3.0v7 M-2.5,-0.5L0,-3.0L2.5,-0.5"/>
                </g>
                <g id="arrowLeft" xlink:href="#dirArrow" transform="rotate(270) translate(-36 17)" onmousedown="handlePan(-1,0)">
                  <use xlink:href="#rim" fill="#404040">
                        <set attributeName="fill" to="#808080" begin="arrowLeft.mouseover" end="arrowLeft.mouseout"/>
                  </use>
                  <path fill="none" stroke="white" stroke-width="1.5" d="M0,-3.0v7 M-2.5,-0.5L0,-3.0L2.5,-0.5"/>
                </g>
        </g>
        <svg viewBox="0 0 15 15" width="100%" height="30px" preserveAspectRatio="xMaxYMin meet">
         <g id="arrow_out" transform="scale(0.3 0.3)">
          <a xlink:href="_rectangle_8h__dep__incl_org.svg" target="_base">
           <rect id="button" ry="5" rx="5" y="6" x="6" height="38" width="38"
                fill="#f2f5e9" fill-opacity="0.5" stroke="#606060" stroke-width="1.0"/>
           <path id="arrow"
             d="M 11.500037,31.436501 C 11.940474,20.09759 22.043105,11.32322 32.158766,21.979434 L 37.068811,17.246167 C 37.068811,17.246167 37.088388,32 37.088388,32 L 22.160133,31.978069 C 22.160133,31.978069 26.997745,27.140456 26.997745,27.140456 C 18.528582,18.264221 13.291696,25.230495 11.500037,31.436501 z"
             style="fill:#404040;"/>
          </a>
         </g>
        </svg>
</svg>
