<?xml version="1.0" encoding="UTF-8" standalone="no"?>
<!DOCTYPE svg PUBLIC "-//W3C//DTD SVG 1.1//EN"
 "http://www.w3.org/Graphics/SVG/1.1/DTD/svg11.dtd">
<!-- Generated by graphviz version 2.43.0 (0)
 -->
<!-- Title: RenderExtensionTypes.h Pages: 1 -->
<svg width="541pt" height="140pt"
 viewBox="0.00 0.00 541.00 140.00" xmlns="http://www.w3.org/2000/svg" xmlns:xlink="http://www.w3.org/1999/xlink">
<g id="graph0" class="graph" transform="scale(1 1) rotate(0) translate(4 136)">
<title>RenderExtensionTypes.h</title>
<polygon fill="white" stroke="transparent" points="-4,4 -4,-136 537,-136 537,4 -4,4"/>
<!-- Node1 -->
<g id="node1" class="node">
<title>Node1</title>
<g id="a_node1"><a xlink:title="Definition of RenderExtensionTypes.">
<polygon fill="#bfbfbf" stroke="black" points="246,-112.5 246,-131.5 382,-131.5 382,-112.5 246,-112.5"/>
<text text-anchor="middle" x="314" y="-119.5" font-family="Helvetica,sans-Serif" font-size="10.00">RenderExtensionTypes.h</text>
</a>
</g>
</g>
<!-- Node2 -->
<g id="node2" class="node">
<title>Node2</title>
<g id="a_node2"><a xlink:href="_render_layout_plugin_8cpp.html" target="_top" xlink:title="Implementation of RenderLayoutPlugin, the plugin class of the fbc package for the Model element.">
<polygon fill="white" stroke="black" points="0,-0.5 0,-19.5 134,-19.5 134,-0.5 0,-0.5"/>
<text text-anchor="middle" x="67" y="-7.5" font-family="Helvetica,sans-Serif" font-size="10.00">RenderLayoutPlugin.cpp</text>
</a>
</g>
</g>
<!-- Node1&#45;&gt;Node2 -->
<g id="edge1" class="edge">
<title>Node1&#45;&gt;Node2</title>
<path fill="none" stroke="midnightblue" d="M235.63,-114.19C178.59,-107.67 107.7,-95.84 86,-76 69.86,-61.24 67.14,-33.62 66.86,-19.61"/>
<polygon fill="midnightblue" stroke="midnightblue" points="235.42,-117.69 245.74,-115.31 236.19,-110.73 235.42,-117.69"/>
</g>
<!-- Node3 -->
<g id="node3" class="node">
<title>Node3</title>
<g id="a_node3"><a xlink:href="_render_layout_converter_8cpp.html" target="_top" xlink:title="Simple converter to convert Layout + Render from l2 to L3 and vice versa.">
<polygon fill="white" stroke="black" points="95,-56.5 95,-75.5 247,-75.5 247,-56.5 95,-56.5"/>
<text text-anchor="middle" x="171" y="-63.5" font-family="Helvetica,sans-Serif" font-size="10.00">RenderLayoutConverter.cpp</text>
</a>
</g>
</g>
<!-- Node1&#45;&gt;Node3 -->
<g id="edge2" class="edge">
<title>Node1&#45;&gt;Node3</title>
<path fill="none" stroke="midnightblue" d="M281.97,-108.91C255.09,-98.75 217.36,-84.51 193.55,-75.52"/>
<polygon fill="midnightblue" stroke="midnightblue" points="280.75,-112.19 291.34,-112.44 283.22,-105.64 280.75,-112.19"/>
</g>
<!-- Node4 -->
<g id="node4" class="node">
<title>Node4</title>
<g id="a_node4"><a xlink:href="_render_utilities_8cpp.html" target="_top" xlink:title="implementation of RenderUtilities, a class of utility functions for the render package">
<polygon fill="white" stroke="black" points="338,-0.5 338,-19.5 448,-19.5 448,-0.5 338,-0.5"/>
<text text-anchor="middle" x="393" y="-7.5" font-family="Helvetica,sans-Serif" font-size="10.00">RenderUtilities.cpp</text>
</a>
</g>
</g>
<!-- Node1&#45;&gt;Node4 -->
<g id="edge3" class="edge">
<title>Node1&#45;&gt;Node4</title>
<path fill="none" stroke="midnightblue" d="M338.18,-107.06C349.85,-99.25 363.19,-88.55 372,-76 384.39,-58.33 389.78,-32.93 391.86,-19.72"/>
<polygon fill="midnightblue" stroke="midnightblue" points="336.26,-104.14 329.69,-112.45 340.01,-110.05 336.26,-104.14"/>
</g>
<!-- Node5 -->
<g id="node5" class="node">
<title>Node5</title>
<g id="a_node5"><a xlink:href="_render_utilities_8h.html" target="_top" xlink:title="Definition of RenderUtilities, a class of utility functions for the render package.">
<polygon fill="white" stroke="black" points="265,-56.5 265,-75.5 363,-75.5 363,-56.5 265,-56.5"/>
<text text-anchor="middle" x="314" y="-63.5" font-family="Helvetica,sans-Serif" font-size="10.00">RenderUtilities.h</text>
</a>
</g>
</g>
<!-- Node1&#45;&gt;Node5 -->
<g id="edge4" class="edge">
<title>Node1&#45;&gt;Node5</title>
<path fill="none" stroke="midnightblue" d="M314,-101.8C314,-92.91 314,-82.78 314,-75.75"/>
<polygon fill="midnightblue" stroke="midnightblue" points="310.5,-102.08 314,-112.08 317.5,-102.08 310.5,-102.08"/>
</g>
<!-- Node7 -->
<g id="node7" class="node">
<title>Node7</title>
<g id="a_node7"><a xlink:href="_render_validator_8cpp.html" target="_top" xlink:title="Definition of RenderValidator.">
<polygon fill="white" stroke="black" points="419,-56.5 419,-75.5 533,-75.5 533,-56.5 419,-56.5"/>
<text text-anchor="middle" x="476" y="-63.5" font-family="Helvetica,sans-Serif" font-size="10.00">RenderValidator.cpp</text>
</a>
</g>
</g>
<!-- Node1&#45;&gt;Node7 -->
<g id="edge8" class="edge">
<title>Node1&#45;&gt;Node7</title>
<path fill="none" stroke="midnightblue" d="M349.48,-109.17C379.99,-99 423.24,-84.59 450.45,-75.52"/>
<polygon fill="midnightblue" stroke="midnightblue" points="348.05,-105.96 339.67,-112.44 350.26,-112.6 348.05,-105.96"/>
</g>
<!-- Node5&#45;&gt;Node2 -->
<g id="edge5" class="edge">
<title>Node5&#45;&gt;Node2</title>
<path fill="none" stroke="midnightblue" d="M264.97,-54.28C218.3,-44.08 148.97,-28.92 105.95,-19.52"/>
<polygon fill="midnightblue" stroke="midnightblue" points="264.35,-57.73 274.86,-56.44 265.84,-50.89 264.35,-57.73"/>
</g>
<!-- Node5&#45;&gt;Node4 -->
<g id="edge7" class="edge">
<title>Node5&#45;&gt;Node4</title>
<path fill="none" stroke="midnightblue" d="M335.03,-50.62C349.47,-40.76 368.14,-27.99 380.34,-19.65"/>
<polygon fill="midnightblue" stroke="midnightblue" points="332.97,-47.79 326.69,-56.32 336.92,-53.57 332.97,-47.79"/>
</g>
<!-- Node6 -->
<g id="node6" class="node">
<title>Node6</title>
<g id="a_node6"><a xlink:href="_render_list_of_layouts_plugin_8cpp.html" target="_top" xlink:title="Implementation of RenderListOfLayoutsPlugin, the plugin class of the fbc package for the Model elemen...">
<polygon fill="white" stroke="black" points="152,-0.5 152,-19.5 320,-19.5 320,-0.5 152,-0.5"/>
<text text-anchor="middle" x="236" y="-7.5" font-family="Helvetica,sans-Serif" font-size="10.00">RenderListOfLayoutsPlugin.cpp</text>
</a>
</g>
</g>
<!-- Node5&#45;&gt;Node6 -->
<g id="edge6" class="edge">
<title>Node5&#45;&gt;Node6</title>
<path fill="none" stroke="midnightblue" d="M293.23,-50.62C278.98,-40.76 260.54,-27.99 248.5,-19.65"/>
<polygon fill="midnightblue" stroke="midnightblue" points="291.25,-53.51 301.47,-56.32 295.24,-47.75 291.25,-53.51"/>
</g>
</g>
</svg>
