<?xml version="1.0" encoding="UTF-8" standalone="no"?>
<!DOCTYPE svg PUBLIC "-//W3C//DTD SVG 1.1//EN"
 "http://www.w3.org/Graphics/SVG/1.1/DTD/svg11.dtd">
<!-- Generated by graphviz version 2.43.0 (0)
 -->
<!-- Title: RenderPoint.h Pages: 1 -->
<svg width="1352pt" height="364pt"
 viewBox="0.00 0.00 1352.00 364.00" xmlns="http://www.w3.org/2000/svg" xmlns:xlink="http://www.w3.org/1999/xlink">
<g id="graph0" class="graph" transform="scale(1 1) rotate(0) translate(4 360)">
<title>RenderPoint.h</title>
<polygon fill="white" stroke="transparent" points="-4,4 -4,-360 1348,-360 1348,4 -4,4"/>
<!-- Node1 -->
<g id="node1" class="node">
<title>Node1</title>
<g id="a_node1"><a xlink:title="Definition of the RenderPoint class.">
<polygon fill="#bfbfbf" stroke="black" points="505.5,-336.5 505.5,-355.5 590.5,-355.5 590.5,-336.5 505.5,-336.5"/>
<text text-anchor="middle" x="548" y="-343.5" font-family="Helvetica,sans-Serif" font-size="10.00">RenderPoint.h</text>
</a>
</g>
</g>
<!-- Node2 -->
<g id="node2" class="node">
<title>Node2</title>
<g id="a_node2"><a xlink:href="_render_extension_types_8h.html" target="_top" xlink:title="Definition of RenderExtensionTypes.">
<polygon fill="white" stroke="black" points="246,-112.5 246,-131.5 382,-131.5 382,-112.5 246,-112.5"/>
<text text-anchor="middle" x="314" y="-119.5" font-family="Helvetica,sans-Serif" font-size="10.00">RenderExtensionTypes.h</text>
</a>
</g>
</g>
<!-- Node1&#45;&gt;Node2 -->
<g id="edge1" class="edge">
<title>Node1&#45;&gt;Node2</title>
<path fill="none" stroke="midnightblue" d="M531.51,-329.35C485.76,-285.95 358.31,-165.04 323.11,-131.64"/>
<polygon fill="midnightblue" stroke="midnightblue" points="529.16,-331.95 538.83,-336.3 533.98,-326.88 529.16,-331.95"/>
</g>
<!-- Node9 -->
<g id="node9" class="node">
<title>Node9</title>
<g id="a_node9"><a xlink:href="_list_of_curve_elements_8cpp.html" target="_top" xlink:title="storage class for curve elements">
<polygon fill="white" stroke="black" points="452,-168.5 452,-187.5 592,-187.5 592,-168.5 452,-168.5"/>
<text text-anchor="middle" x="522" y="-175.5" font-family="Helvetica,sans-Serif" font-size="10.00">ListOfCurveElements.cpp</text>
</a>
</g>
</g>
<!-- Node1&#45;&gt;Node9 -->
<g id="edge10" class="edge">
<title>Node1&#45;&gt;Node9</title>
<path fill="none" stroke="midnightblue" d="M545.01,-325.93C539.37,-289.92 527.36,-213.23 523.34,-187.57"/>
<polygon fill="midnightblue" stroke="midnightblue" points="541.6,-326.74 546.6,-336.08 548.51,-325.65 541.6,-326.74"/>
</g>
<!-- Node10 -->
<g id="node10" class="node">
<title>Node10</title>
<g id="a_node10"><a xlink:href="_list_of_curve_elements_8h.html" target="_top" xlink:title="Definition of the ListOfCurveElements class.">
<polygon fill="white" stroke="black" points="571,-224.5 571,-243.5 699,-243.5 699,-224.5 571,-224.5"/>
<text text-anchor="middle" x="635" y="-231.5" font-family="Helvetica,sans-Serif" font-size="10.00">ListOfCurveElements.h</text>
</a>
</g>
</g>
<!-- Node1&#45;&gt;Node10 -->
<g id="edge11" class="edge">
<title>Node1&#45;&gt;Node10</title>
<path fill="none" stroke="midnightblue" d="M550.41,-325.87C552.93,-312.03 557.99,-293.48 568,-280 580.28,-263.47 600.55,-251.08 615.58,-243.53"/>
<polygon fill="midnightblue" stroke="midnightblue" points="546.89,-325.76 548.84,-336.17 553.8,-326.81 546.89,-325.76"/>
</g>
<!-- Node15 -->
<g id="node15" class="node">
<title>Node15</title>
<g id="a_node15"><a xlink:href="_polygon_8cpp.html" target="_top" xlink:title="Implementation of the Polygon class.">
<polygon fill="white" stroke="black" points="152,-112.5 152,-131.5 228,-131.5 228,-112.5 152,-112.5"/>
<text text-anchor="middle" x="190" y="-119.5" font-family="Helvetica,sans-Serif" font-size="10.00">Polygon.cpp</text>
</a>
</g>
</g>
<!-- Node1&#45;&gt;Node15 -->
<g id="edge31" class="edge">
<title>Node1&#45;&gt;Node15</title>
<path fill="none" stroke="midnightblue" d="M525.32,-330.93C457.64,-288.97 258.46,-165.45 203.94,-131.64"/>
<polygon fill="midnightblue" stroke="midnightblue" points="523.62,-334 533.97,-336.3 527.31,-328.05 523.62,-334"/>
</g>
<!-- Node20 -->
<g id="node20" class="node">
<title>Node20</title>
<g id="a_node20"><a xlink:href="_render_curve_8cpp.html" target="_top" xlink:title="Implementation of the RenderCurve class.">
<polygon fill="white" stroke="black" points="1244,-112.5 1244,-131.5 1344,-131.5 1344,-112.5 1244,-112.5"/>
<text text-anchor="middle" x="1294" y="-119.5" font-family="Helvetica,sans-Serif" font-size="10.00">RenderCurve.cpp</text>
</a>
</g>
</g>
<!-- Node1&#45;&gt;Node20 -->
<g id="edge40" class="edge">
<title>Node1&#45;&gt;Node20</title>
<path fill="none" stroke="midnightblue" d="M600.69,-340.33C659.53,-334.32 757.26,-321.94 839,-300 1015,-252.76 1216.3,-160.02 1276.27,-131.53"/>
<polygon fill="midnightblue" stroke="midnightblue" points="600.13,-336.87 590.52,-341.35 600.82,-343.84 600.13,-336.87"/>
</g>
<!-- Node21 -->
<g id="node21" class="node">
<title>Node21</title>
<g id="a_node21"><a xlink:href="_render_point_8cpp.html" target="_top" xlink:title="Implementation of the RenderPoint class.">
<polygon fill="white" stroke="black" points="863,-168.5 863,-187.5 959,-187.5 959,-168.5 863,-168.5"/>
<text text-anchor="middle" x="911" y="-175.5" font-family="Helvetica,sans-Serif" font-size="10.00">RenderPoint.cpp</text>
</a>
</g>
</g>
<!-- Node1&#45;&gt;Node21 -->
<g id="edge41" class="edge">
<title>Node1&#45;&gt;Node21</title>
<path fill="none" stroke="midnightblue" d="M600.69,-338.2C692.18,-325.18 874.31,-293.58 912,-244 924.57,-227.47 918.55,-201.12 914.18,-187.61"/>
<polygon fill="midnightblue" stroke="midnightblue" points="599.95,-334.77 590.53,-339.62 600.92,-341.7 599.95,-334.77"/>
</g>
<!-- Node22 -->
<g id="node22" class="node">
<title>Node22</title>
<g id="a_node22"><a xlink:href="_render_cubic_bezier_8h.html" target="_top" xlink:title="Definition of the RenderCubicBezier class.">
<polygon fill="white" stroke="black" points="576.5,-280.5 576.5,-299.5 693.5,-299.5 693.5,-280.5 576.5,-280.5"/>
<text text-anchor="middle" x="635" y="-287.5" font-family="Helvetica,sans-Serif" font-size="10.00">RenderCubicBezier.h</text>
</a>
</g>
</g>
<!-- Node1&#45;&gt;Node22 -->
<g id="edge32" class="edge">
<title>Node1&#45;&gt;Node22</title>
<path fill="none" stroke="midnightblue" d="M570.72,-330.9C586.67,-321 607.5,-308.07 621.06,-299.65"/>
<polygon fill="midnightblue" stroke="midnightblue" points="568.63,-328.08 561.98,-336.32 572.32,-334.02 568.63,-328.08"/>
</g>
<!-- Node3 -->
<g id="node3" class="node">
<title>Node3</title>
<g id="a_node3"><a xlink:href="_render_layout_plugin_8cpp.html" target="_top" xlink:title="Implementation of RenderLayoutPlugin, the plugin class of the fbc package for the Model element.">
<polygon fill="white" stroke="black" points="0,-0.5 0,-19.5 134,-19.5 134,-0.5 0,-0.5"/>
<text text-anchor="middle" x="67" y="-7.5" font-family="Helvetica,sans-Serif" font-size="10.00">RenderLayoutPlugin.cpp</text>
</a>
</g>
</g>
<!-- Node2&#45;&gt;Node3 -->
<g id="edge2" class="edge">
<title>Node2&#45;&gt;Node3</title>
<path fill="none" stroke="midnightblue" d="M243.9,-110.9C181.31,-101.28 97.72,-86.72 86,-76 69.86,-61.24 67.14,-33.62 66.86,-19.61"/>
<polygon fill="midnightblue" stroke="midnightblue" points="243.73,-114.41 254.14,-112.46 244.78,-107.49 243.73,-114.41"/>
</g>
<!-- Node4 -->
<g id="node4" class="node">
<title>Node4</title>
<g id="a_node4"><a xlink:href="_render_layout_converter_8cpp.html" target="_top" xlink:title="Simple converter to convert Layout + Render from l2 to L3 and vice versa.">
<polygon fill="white" stroke="black" points="95,-56.5 95,-75.5 247,-75.5 247,-56.5 95,-56.5"/>
<text text-anchor="middle" x="171" y="-63.5" font-family="Helvetica,sans-Serif" font-size="10.00">RenderLayoutConverter.cpp</text>
</a>
</g>
</g>
<!-- Node2&#45;&gt;Node4 -->
<g id="edge3" class="edge">
<title>Node2&#45;&gt;Node4</title>
<path fill="none" stroke="midnightblue" d="M281.97,-108.91C255.09,-98.75 217.36,-84.51 193.55,-75.52"/>
<polygon fill="midnightblue" stroke="midnightblue" points="280.75,-112.19 291.34,-112.44 283.22,-105.64 280.75,-112.19"/>
</g>
<!-- Node5 -->
<g id="node5" class="node">
<title>Node5</title>
<g id="a_node5"><a xlink:href="_render_utilities_8cpp.html" target="_top" xlink:title="implementation of RenderUtilities, a class of utility functions for the render package">
<polygon fill="white" stroke="black" points="338,-0.5 338,-19.5 448,-19.5 448,-0.5 338,-0.5"/>
<text text-anchor="middle" x="393" y="-7.5" font-family="Helvetica,sans-Serif" font-size="10.00">RenderUtilities.cpp</text>
</a>
</g>
</g>
<!-- Node2&#45;&gt;Node5 -->
<g id="edge4" class="edge">
<title>Node2&#45;&gt;Node5</title>
<path fill="none" stroke="midnightblue" d="M338.18,-107.06C349.85,-99.25 363.19,-88.55 372,-76 384.39,-58.33 389.78,-32.93 391.86,-19.72"/>
<polygon fill="midnightblue" stroke="midnightblue" points="336.26,-104.14 329.69,-112.45 340.01,-110.05 336.26,-104.14"/>
</g>
<!-- Node6 -->
<g id="node6" class="node">
<title>Node6</title>
<g id="a_node6"><a xlink:href="_render_utilities_8h.html" target="_top" xlink:title="Definition of RenderUtilities, a class of utility functions for the render package.">
<polygon fill="white" stroke="black" points="265,-56.5 265,-75.5 363,-75.5 363,-56.5 265,-56.5"/>
<text text-anchor="middle" x="314" y="-63.5" font-family="Helvetica,sans-Serif" font-size="10.00">RenderUtilities.h</text>
</a>
</g>
</g>
<!-- Node2&#45;&gt;Node6 -->
<g id="edge5" class="edge">
<title>Node2&#45;&gt;Node6</title>
<path fill="none" stroke="midnightblue" d="M314,-101.8C314,-92.91 314,-82.78 314,-75.75"/>
<polygon fill="midnightblue" stroke="midnightblue" points="310.5,-102.08 314,-112.08 317.5,-102.08 310.5,-102.08"/>
</g>
<!-- Node8 -->
<g id="node8" class="node">
<title>Node8</title>
<g id="a_node8"><a xlink:href="_render_validator_8cpp.html" target="_top" xlink:title="Definition of RenderValidator.">
<polygon fill="white" stroke="black" points="419,-56.5 419,-75.5 533,-75.5 533,-56.5 419,-56.5"/>
<text text-anchor="middle" x="476" y="-63.5" font-family="Helvetica,sans-Serif" font-size="10.00">RenderValidator.cpp</text>
</a>
</g>
</g>
<!-- Node2&#45;&gt;Node8 -->
<g id="edge9" class="edge">
<title>Node2&#45;&gt;Node8</title>
<path fill="none" stroke="midnightblue" d="M349.48,-109.17C379.99,-99 423.24,-84.59 450.45,-75.52"/>
<polygon fill="midnightblue" stroke="midnightblue" points="348.05,-105.96 339.67,-112.44 350.26,-112.6 348.05,-105.96"/>
</g>
<!-- Node6&#45;&gt;Node3 -->
<g id="edge6" class="edge">
<title>Node6&#45;&gt;Node3</title>
<path fill="none" stroke="midnightblue" d="M264.97,-54.28C218.3,-44.08 148.97,-28.92 105.95,-19.52"/>
<polygon fill="midnightblue" stroke="midnightblue" points="264.35,-57.73 274.86,-56.44 265.84,-50.89 264.35,-57.73"/>
</g>
<!-- Node6&#45;&gt;Node5 -->
<g id="edge8" class="edge">
<title>Node6&#45;&gt;Node5</title>
<path fill="none" stroke="midnightblue" d="M335.03,-50.62C349.47,-40.76 368.14,-27.99 380.34,-19.65"/>
<polygon fill="midnightblue" stroke="midnightblue" points="332.97,-47.79 326.69,-56.32 336.92,-53.57 332.97,-47.79"/>
</g>
<!-- Node7 -->
<g id="node7" class="node">
<title>Node7</title>
<g id="a_node7"><a xlink:href="_render_list_of_layouts_plugin_8cpp.html" target="_top" xlink:title="Implementation of RenderListOfLayoutsPlugin, the plugin class of the fbc package for the Model elemen...">
<polygon fill="white" stroke="black" points="152,-0.5 152,-19.5 320,-19.5 320,-0.5 152,-0.5"/>
<text text-anchor="middle" x="236" y="-7.5" font-family="Helvetica,sans-Serif" font-size="10.00">RenderListOfLayoutsPlugin.cpp</text>
</a>
</g>
</g>
<!-- Node6&#45;&gt;Node7 -->
<g id="edge7" class="edge">
<title>Node6&#45;&gt;Node7</title>
<path fill="none" stroke="midnightblue" d="M293.23,-50.62C278.98,-40.76 260.54,-27.99 248.5,-19.65"/>
<polygon fill="midnightblue" stroke="midnightblue" points="291.25,-53.51 301.47,-56.32 295.24,-47.75 291.25,-53.51"/>
</g>
<!-- Node10&#45;&gt;Node9 -->
<g id="edge12" class="edge">
<title>Node10&#45;&gt;Node9</title>
<path fill="none" stroke="midnightblue" d="M608,-220.1C586.89,-210.01 558.14,-196.27 539.82,-187.52"/>
<polygon fill="midnightblue" stroke="midnightblue" points="606.56,-223.29 617.09,-224.44 609.58,-216.97 606.56,-223.29"/>
</g>
<!-- Node11 -->
<g id="node11" class="node">
<title>Node11</title>
<g id="a_node11"><a xlink:href="_polygon_8h.html" target="_top" xlink:title="class representing a polygon">
<polygon fill="white" stroke="black" points="610.5,-168.5 610.5,-187.5 675.5,-187.5 675.5,-168.5 610.5,-168.5"/>
<text text-anchor="middle" x="643" y="-175.5" font-family="Helvetica,sans-Serif" font-size="10.00">Polygon.h</text>
</a>
</g>
</g>
<!-- Node10&#45;&gt;Node11 -->
<g id="edge13" class="edge">
<title>Node10&#45;&gt;Node11</title>
<path fill="none" stroke="midnightblue" d="M637.8,-214.1C639.13,-205.14 640.65,-194.86 641.7,-187.75"/>
<polygon fill="midnightblue" stroke="midnightblue" points="634.32,-213.68 636.32,-224.08 641.25,-214.7 634.32,-213.68"/>
</g>
<!-- Node19 -->
<g id="node19" class="node">
<title>Node19</title>
<g id="a_node19"><a xlink:href="_render_curve_8h.html" target="_top" xlink:title="Definition of the RenderCurve class.">
<polygon fill="white" stroke="black" points="693.5,-168.5 693.5,-187.5 782.5,-187.5 782.5,-168.5 693.5,-168.5"/>
<text text-anchor="middle" x="738" y="-175.5" font-family="Helvetica,sans-Serif" font-size="10.00">RenderCurve.h</text>
</a>
</g>
</g>
<!-- Node10&#45;&gt;Node19 -->
<g id="edge22" class="edge">
<title>Node10&#45;&gt;Node19</title>
<path fill="none" stroke="midnightblue" d="M660.58,-219.59C679.62,-209.61 705.06,-196.27 721.49,-187.65"/>
<polygon fill="midnightblue" stroke="midnightblue" points="658.78,-216.58 651.55,-224.32 662.03,-222.78 658.78,-216.58"/>
</g>
<!-- Node10&#45;&gt;Node21 -->
<g id="edge30" class="edge">
<title>Node10&#45;&gt;Node21</title>
<path fill="none" stroke="midnightblue" d="M688.8,-222.47C740.96,-212.27 819.11,-196.98 867.47,-187.52"/>
<polygon fill="midnightblue" stroke="midnightblue" points="687.87,-219.09 678.73,-224.44 689.22,-225.96 687.87,-219.09"/>
</g>
<!-- Node11&#45;&gt;Node2 -->
<g id="edge14" class="edge">
<title>Node11&#45;&gt;Node2</title>
<path fill="none" stroke="midnightblue" d="M600.49,-168C516.31,-152.53 430.62,-139.59 374.64,-131.51"/>
<polygon fill="midnightblue" stroke="midnightblue" points="600.01,-171.47 610.48,-169.84 601.28,-164.58 600.01,-171.47"/>
</g>
<!-- Node12 -->
<g id="node12" class="node">
<title>Node12</title>
<g id="a_node12"><a xlink:href="_graphical_primitive1_d_8cpp.html" target="_top" xlink:title="abstract base class for graphical 1D objects">
<polygon fill="white" stroke="black" points="949.5,-112.5 949.5,-131.5 1090.5,-131.5 1090.5,-112.5 949.5,-112.5"/>
<text text-anchor="middle" x="1020" y="-119.5" font-family="Helvetica,sans-Serif" font-size="10.00">GraphicalPrimitive1D.cpp</text>
</a>
</g>
</g>
<!-- Node11&#45;&gt;Node12 -->
<g id="edge15" class="edge">
<title>Node11&#45;&gt;Node12</title>
<path fill="none" stroke="midnightblue" d="M685.5,-168.07C748.83,-157.52 873.6,-141.41 951.88,-131.51"/>
<polygon fill="midnightblue" stroke="midnightblue" points="684.78,-164.64 675.51,-169.77 685.96,-171.54 684.78,-164.64"/>
</g>
<!-- Node13 -->
<g id="node13" class="node">
<title>Node13</title>
<g id="a_node13"><a xlink:href="_graphical_primitive2_d_8cpp.html" target="_top" xlink:title="Implementation of the GraphicalPrimitive2D class.">
<polygon fill="white" stroke="black" points="400.5,-112.5 400.5,-131.5 541.5,-131.5 541.5,-112.5 400.5,-112.5"/>
<text text-anchor="middle" x="471" y="-119.5" font-family="Helvetica,sans-Serif" font-size="10.00">GraphicalPrimitive2D.cpp</text>
</a>
</g>
</g>
<!-- Node11&#45;&gt;Node13 -->
<g id="edge16" class="edge">
<title>Node11&#45;&gt;Node13</title>
<path fill="none" stroke="midnightblue" d="M606.17,-165.44C573.74,-155.26 527.26,-140.66 498.13,-131.52"/>
<polygon fill="midnightblue" stroke="midnightblue" points="605.16,-168.79 615.75,-168.44 607.25,-162.11 605.16,-168.79"/>
</g>
<!-- Node14 -->
<g id="node14" class="node">
<title>Node14</title>
<g id="a_node14"><a xlink:href="_list_of_drawables_8cpp.html" target="_top" xlink:title="Implementation of the ListOfDrawables class.">
<polygon fill="white" stroke="black" points="1108.5,-112.5 1108.5,-131.5 1225.5,-131.5 1225.5,-112.5 1108.5,-112.5"/>
<text text-anchor="middle" x="1167" y="-119.5" font-family="Helvetica,sans-Serif" font-size="10.00">ListOfDrawables.cpp</text>
</a>
</g>
</g>
<!-- Node11&#45;&gt;Node14 -->
<g id="edge17" class="edge">
<title>Node11&#45;&gt;Node14</title>
<path fill="none" stroke="midnightblue" d="M685.94,-168.04C869.82,-140.96 919.22,-151.97 1100,-132 1102.68,-131.7 1105.42,-131.39 1108.19,-131.06"/>
<polygon fill="midnightblue" stroke="midnightblue" points="685.32,-164.6 675.94,-169.54 686.35,-171.52 685.32,-164.6"/>
</g>
<!-- Node11&#45;&gt;Node15 -->
<g id="edge18" class="edge">
<title>Node11&#45;&gt;Node15</title>
<path fill="none" stroke="midnightblue" d="M599.77,-167.98C438.59,-143.42 394.59,-154.83 237,-132 234.12,-131.58 231.15,-131.11 228.17,-130.61"/>
<polygon fill="midnightblue" stroke="midnightblue" points="599.63,-171.5 610.05,-169.57 600.7,-164.59 599.63,-171.5"/>
</g>
<!-- Node16 -->
<g id="node16" class="node">
<title>Node16</title>
<g id="a_node16"><a xlink:href="_render_group_8cpp.html" target="_top" xlink:title="Implementation of the RenderGroup class.">
<polygon fill="white" stroke="black" points="559.5,-112.5 559.5,-131.5 660.5,-131.5 660.5,-112.5 559.5,-112.5"/>
<text text-anchor="middle" x="610" y="-119.5" font-family="Helvetica,sans-Serif" font-size="10.00">RenderGroup.cpp</text>
</a>
</g>
</g>
<!-- Node11&#45;&gt;Node16 -->
<g id="edge19" class="edge">
<title>Node11&#45;&gt;Node16</title>
<path fill="none" stroke="midnightblue" d="M632.17,-159.27C626.53,-150.05 619.88,-139.17 615.35,-131.75"/>
<polygon fill="midnightblue" stroke="midnightblue" points="629.35,-161.38 637.55,-168.08 635.32,-157.73 629.35,-161.38"/>
</g>
<!-- Node17 -->
<g id="node17" class="node">
<title>Node17</title>
<g id="a_node17"><a xlink:href="_transformation_8cpp.html" target="_top" xlink:title="class representing a 3D affine transformation">
<polygon fill="white" stroke="black" points="679,-112.5 679,-131.5 789,-131.5 789,-112.5 679,-112.5"/>
<text text-anchor="middle" x="734" y="-119.5" font-family="Helvetica,sans-Serif" font-size="10.00">Transformation.cpp</text>
</a>
</g>
</g>
<!-- Node11&#45;&gt;Node17 -->
<g id="edge20" class="edge">
<title>Node11&#45;&gt;Node17</title>
<path fill="none" stroke="midnightblue" d="M666.29,-163.18C683.04,-153.24 705.1,-140.15 719.42,-131.65"/>
<polygon fill="midnightblue" stroke="midnightblue" points="664.43,-160.21 657.62,-168.32 668.01,-166.23 664.43,-160.21"/>
</g>
<!-- Node18 -->
<g id="node18" class="node">
<title>Node18</title>
<g id="a_node18"><a xlink:href="_transformation2_d_8cpp.html" target="_top" xlink:title="class representing a 2D affine transformation">
<polygon fill="white" stroke="black" points="807,-112.5 807,-131.5 931,-131.5 931,-112.5 807,-112.5"/>
<text text-anchor="middle" x="869" y="-119.5" font-family="Helvetica,sans-Serif" font-size="10.00">Transformation2D.cpp</text>
</a>
</g>
</g>
<!-- Node11&#45;&gt;Node18 -->
<g id="edge21" class="edge">
<title>Node11&#45;&gt;Node18</title>
<path fill="none" stroke="midnightblue" d="M685.66,-166.81C728.28,-156.62 793.05,-141.15 833.11,-131.58"/>
<polygon fill="midnightblue" stroke="midnightblue" points="684.78,-163.42 675.86,-169.15 686.4,-170.23 684.78,-163.42"/>
</g>
<!-- Node19&#45;&gt;Node2 -->
<g id="edge23" class="edge">
<title>Node19&#45;&gt;Node2</title>
<path fill="none" stroke="midnightblue" d="M683.31,-167.83C613.25,-157.98 468.59,-140.92 382.34,-130.89"/>
<polygon fill="midnightblue" stroke="midnightblue" points="683.1,-171.33 693.49,-169.28 684.09,-164.4 683.1,-171.33"/>
</g>
<!-- Node19&#45;&gt;Node12 -->
<g id="edge24" class="edge">
<title>Node19&#45;&gt;Node12</title>
<path fill="none" stroke="midnightblue" d="M792.64,-166.54C845.94,-156.33 926,-141 975.53,-131.52"/>
<polygon fill="midnightblue" stroke="midnightblue" points="791.85,-163.13 782.68,-168.44 793.16,-170 791.85,-163.13"/>
</g>
<!-- Node19&#45;&gt;Node14 -->
<g id="edge25" class="edge">
<title>Node19&#45;&gt;Node14</title>
<path fill="none" stroke="midnightblue" d="M793.06,-168.54C794.39,-168.36 795.7,-168.18 797,-168 931.38,-149.77 965.46,-149.03 1100,-132 1102.68,-131.66 1105.42,-131.31 1108.18,-130.95"/>
<polygon fill="midnightblue" stroke="midnightblue" points="792.16,-165.13 782.76,-170.01 793.15,-172.06 792.16,-165.13"/>
</g>
<!-- Node19&#45;&gt;Node16 -->
<g id="edge27" class="edge">
<title>Node19&#45;&gt;Node16</title>
<path fill="none" stroke="midnightblue" d="M708.38,-164.5C684.38,-154.38 651.22,-140.39 630.19,-131.52"/>
<polygon fill="midnightblue" stroke="midnightblue" points="707.14,-167.78 717.72,-168.44 709.86,-161.33 707.14,-167.78"/>
</g>
<!-- Node19&#45;&gt;Node17 -->
<g id="edge28" class="edge">
<title>Node19&#45;&gt;Node17</title>
<path fill="none" stroke="midnightblue" d="M736.6,-158.1C735.94,-149.14 735.17,-138.86 734.65,-131.75"/>
<polygon fill="midnightblue" stroke="midnightblue" points="733.11,-158.37 737.34,-168.08 740.09,-157.85 733.11,-158.37"/>
</g>
<!-- Node19&#45;&gt;Node18 -->
<g id="edge29" class="edge">
<title>Node19&#45;&gt;Node18</title>
<path fill="none" stroke="midnightblue" d="M768.32,-164.5C792.88,-154.38 826.82,-140.39 848.34,-131.52"/>
<polygon fill="midnightblue" stroke="midnightblue" points="766.67,-161.4 758.76,-168.44 769.34,-167.87 766.67,-161.4"/>
</g>
<!-- Node19&#45;&gt;Node20 -->
<g id="edge26" class="edge">
<title>Node19&#45;&gt;Node20</title>
<path fill="none" stroke="midnightblue" d="M793.05,-168.48C794.38,-168.31 795.7,-168.15 797,-168 990.99,-145.26 1041.01,-154.74 1235,-132 1237.88,-131.66 1240.84,-131.29 1243.82,-130.9"/>
<polygon fill="midnightblue" stroke="midnightblue" points="792.19,-165.06 782.73,-169.84 793.11,-172 792.19,-165.06"/>
</g>
<!-- Node22&#45;&gt;Node2 -->
<g id="edge33" class="edge">
<title>Node22&#45;&gt;Node2</title>
<path fill="none" stroke="midnightblue" d="M607.64,-276.09C589.05,-267.24 563.93,-255.12 542,-244 461.47,-203.16 366.45,-151.65 329.65,-131.56"/>
<polygon fill="midnightblue" stroke="midnightblue" points="606.19,-279.28 616.72,-280.4 609.19,-272.95 606.19,-279.28"/>
</g>
<!-- Node22&#45;&gt;Node9 -->
<g id="edge34" class="edge">
<title>Node22&#45;&gt;Node9</title>
<path fill="none" stroke="midnightblue" d="M606.86,-275.68C592.31,-267.86 574.95,-256.96 562,-244 544.95,-226.94 531.93,-201.28 525.82,-187.88"/>
<polygon fill="midnightblue" stroke="midnightblue" points="605.45,-278.89 615.94,-280.37 608.66,-272.67 605.45,-278.89"/>
</g>
<!-- Node22&#45;&gt;Node10 -->
<g id="edge35" class="edge">
<title>Node22&#45;&gt;Node10</title>
<path fill="none" stroke="midnightblue" d="M635,-269.8C635,-260.91 635,-250.78 635,-243.75"/>
<polygon fill="midnightblue" stroke="midnightblue" points="631.5,-270.08 635,-280.08 638.5,-270.08 631.5,-270.08"/>
</g>
<!-- Node22&#45;&gt;Node15 -->
<g id="edge36" class="edge">
<title>Node22&#45;&gt;Node15</title>
<path fill="none" stroke="midnightblue" d="M598.65,-277.18C571.83,-268.34 534.51,-255.8 502,-244 391.68,-203.97 261.2,-151.77 211.06,-131.54"/>
<polygon fill="midnightblue" stroke="midnightblue" points="597.79,-280.58 608.38,-280.37 599.98,-273.93 597.79,-280.58"/>
</g>
<!-- Node22&#45;&gt;Node20 -->
<g id="edge38" class="edge">
<title>Node22&#45;&gt;Node20</title>
<path fill="none" stroke="midnightblue" d="M657.08,-275.18C703.99,-246.07 812.69,-180.16 854,-168 1017.17,-119.97 1066.19,-152.83 1235,-132 1237.88,-131.64 1240.83,-131.26 1243.81,-130.85"/>
<polygon fill="midnightblue" stroke="midnightblue" points="655.2,-272.22 648.56,-280.48 658.9,-278.17 655.2,-272.22"/>
</g>
<!-- Node22&#45;&gt;Node21 -->
<g id="edge39" class="edge">
<title>Node22&#45;&gt;Node21</title>
<path fill="none" stroke="midnightblue" d="M703.7,-285.05C770.2,-279.84 864.83,-268.31 892,-244 908.3,-229.42 910.94,-201.71 911.17,-187.65"/>
<polygon fill="midnightblue" stroke="midnightblue" points="703.4,-281.56 693.69,-285.8 703.93,-288.54 703.4,-281.56"/>
</g>
<!-- Node23 -->
<g id="node23" class="node">
<title>Node23</title>
<g id="a_node23"><a xlink:href="_render_cubic_bezier_8cpp.html" target="_top" xlink:title="Implementation of the RenderCubicBezier class.">
<polygon fill="white" stroke="black" points="755,-224.5 755,-243.5 883,-243.5 883,-224.5 755,-224.5"/>
<text text-anchor="middle" x="819" y="-231.5" font-family="Helvetica,sans-Serif" font-size="10.00">RenderCubicBezier.cpp</text>
</a>
</g>
</g>
<!-- Node22&#45;&gt;Node23 -->
<g id="edge37" class="edge">
<title>Node22&#45;&gt;Node23</title>
<path fill="none" stroke="midnightblue" d="M673.95,-277.57C708.66,-267.38 758.68,-252.7 789.98,-243.52"/>
<polygon fill="midnightblue" stroke="midnightblue" points="672.77,-274.27 664.16,-280.44 674.74,-280.99 672.77,-274.27"/>
</g>
</g>
</svg>
