<?xml version="1.0" encoding="UTF-8" standalone="no"?>
<!DOCTYPE svg PUBLIC "-//W3C//DTD SVG 1.1//EN"
 "http://www.w3.org/Graphics/SVG/1.1/DTD/svg11.dtd">
<!-- Generated by graphviz version 2.43.0 (0)
 -->
<!-- Title: RenderCubicBezier.h Pages: 1 -->
<svg width="1446pt" height="308pt"
 viewBox="0.00 0.00 1446.00 308.00" xmlns="http://www.w3.org/2000/svg" xmlns:xlink="http://www.w3.org/1999/xlink">
<g id="graph0" class="graph" transform="scale(1 1) rotate(0) translate(4 304)">
<title>RenderCubicBezier.h</title>
<polygon fill="white" stroke="transparent" points="-4,4 -4,-304 1442,-304 1442,4 -4,4"/>
<!-- Node1 -->
<g id="node1" class="node">
<title>Node1</title>
<g id="a_node1"><a xlink:title="Definition of the RenderCubicBezier class.">
<polygon fill="#bfbfbf" stroke="black" points="865.5,-280.5 865.5,-299.5 982.5,-299.5 982.5,-280.5 865.5,-280.5"/>
<text text-anchor="middle" x="924" y="-287.5" font-family="Helvetica,sans-Serif" font-size="10.00">RenderCubicBezier.h</text>
</a>
</g>
</g>
<!-- Node2 -->
<g id="node2" class="node">
<title>Node2</title>
<g id="a_node2"><a xlink:href="_render_extension_types_8h.html" target="_top" xlink:title="Definition of RenderExtensionTypes.">
<polygon fill="white" stroke="black" points="246,-112.5 246,-131.5 382,-131.5 382,-112.5 246,-112.5"/>
<text text-anchor="middle" x="314" y="-119.5" font-family="Helvetica,sans-Serif" font-size="10.00">RenderExtensionTypes.h</text>
</a>
</g>
</g>
<!-- Node1&#45;&gt;Node2 -->
<g id="edge1" class="edge">
<title>Node1&#45;&gt;Node2</title>
<path fill="none" stroke="midnightblue" d="M862.62,-278.68C816.72,-270.51 752.56,-258.15 697,-244 616.22,-223.42 597.49,-213.1 518,-188 454.37,-167.91 379.68,-144.04 340.72,-131.56"/>
<polygon fill="midnightblue" stroke="midnightblue" points="862.25,-282.17 872.71,-280.46 863.47,-275.27 862.25,-282.17"/>
</g>
<!-- Node9 -->
<g id="node9" class="node">
<title>Node9</title>
<g id="a_node9"><a xlink:href="_list_of_curve_elements_8cpp.html" target="_top" xlink:title="storage class for curve elements">
<polygon fill="white" stroke="black" points="527,-168.5 527,-187.5 667,-187.5 667,-168.5 527,-168.5"/>
<text text-anchor="middle" x="597" y="-175.5" font-family="Helvetica,sans-Serif" font-size="10.00">ListOfCurveElements.cpp</text>
</a>
</g>
</g>
<!-- Node1&#45;&gt;Node9 -->
<g id="edge10" class="edge">
<title>Node1&#45;&gt;Node9</title>
<path fill="none" stroke="midnightblue" d="M875.05,-278.14C840.34,-269.97 792.84,-257.83 752,-244 701.42,-226.87 643.95,-201.02 615.28,-187.66"/>
<polygon fill="midnightblue" stroke="midnightblue" points="874.41,-281.58 884.94,-280.44 876,-274.77 874.41,-281.58"/>
</g>
<!-- Node10 -->
<g id="node10" class="node">
<title>Node10</title>
<g id="a_node10"><a xlink:href="_list_of_curve_elements_8h.html" target="_top" xlink:title="Definition of the ListOfCurveElements class.">
<polygon fill="white" stroke="black" points="761,-224.5 761,-243.5 889,-243.5 889,-224.5 761,-224.5"/>
<text text-anchor="middle" x="825" y="-231.5" font-family="Helvetica,sans-Serif" font-size="10.00">ListOfCurveElements.h</text>
</a>
</g>
</g>
<!-- Node1&#45;&gt;Node10 -->
<g id="edge11" class="edge">
<title>Node1&#45;&gt;Node10</title>
<path fill="none" stroke="midnightblue" d="M899.16,-275.45C880.89,-265.48 856.58,-252.23 840.87,-243.65"/>
<polygon fill="midnightblue" stroke="midnightblue" points="897.64,-278.61 908.09,-280.32 900.99,-272.46 897.64,-278.61"/>
</g>
<!-- Node15 -->
<g id="node15" class="node">
<title>Node15</title>
<g id="a_node15"><a xlink:href="_polygon_8cpp.html" target="_top" xlink:title="Implementation of the Polygon class.">
<polygon fill="white" stroke="black" points="1362,-112.5 1362,-131.5 1438,-131.5 1438,-112.5 1362,-112.5"/>
<text text-anchor="middle" x="1400" y="-119.5" font-family="Helvetica,sans-Serif" font-size="10.00">Polygon.cpp</text>
</a>
</g>
</g>
<!-- Node1&#45;&gt;Node15 -->
<g id="edge31" class="edge">
<title>Node1&#45;&gt;Node15</title>
<path fill="none" stroke="midnightblue" d="M948.45,-275.5C974.72,-261.37 1017.95,-239.17 1057,-224 1166.08,-181.63 1300.49,-146.9 1363.79,-131.53"/>
<polygon fill="midnightblue" stroke="midnightblue" points="946.7,-272.47 939.58,-280.31 950.04,-278.62 946.7,-272.47"/>
</g>
<!-- Node20 -->
<g id="node20" class="node">
<title>Node20</title>
<g id="a_node20"><a xlink:href="_render_curve_8cpp.html" target="_top" xlink:title="Implementation of the RenderCurve class.">
<polygon fill="white" stroke="black" points="1244,-112.5 1244,-131.5 1344,-131.5 1344,-112.5 1244,-112.5"/>
<text text-anchor="middle" x="1294" y="-119.5" font-family="Helvetica,sans-Serif" font-size="10.00">RenderCurve.cpp</text>
</a>
</g>
</g>
<!-- Node1&#45;&gt;Node20 -->
<g id="edge33" class="edge">
<title>Node1&#45;&gt;Node20</title>
<path fill="none" stroke="midnightblue" d="M933.08,-271.41C948.06,-244.34 980.66,-192.97 1024,-168 1028.75,-165.26 1166.89,-143.1 1243.69,-130.93"/>
<polygon fill="midnightblue" stroke="midnightblue" points="929.85,-270.03 928.22,-280.49 936.02,-273.33 929.85,-270.03"/>
</g>
<!-- Node21 -->
<g id="node21" class="node">
<title>Node21</title>
<g id="a_node21"><a xlink:href="_render_point_8cpp.html" target="_top" xlink:title="Implementation of the RenderPoint class.">
<polygon fill="white" stroke="black" points="876,-168.5 876,-187.5 972,-187.5 972,-168.5 876,-168.5"/>
<text text-anchor="middle" x="924" y="-175.5" font-family="Helvetica,sans-Serif" font-size="10.00">RenderPoint.cpp</text>
</a>
</g>
</g>
<!-- Node1&#45;&gt;Node21 -->
<g id="edge34" class="edge">
<title>Node1&#45;&gt;Node21</title>
<path fill="none" stroke="midnightblue" d="M924,-270.35C924,-246.25 924,-205.31 924,-187.59"/>
<polygon fill="midnightblue" stroke="midnightblue" points="920.5,-270.37 924,-280.37 927.5,-270.37 920.5,-270.37"/>
</g>
<!-- Node22 -->
<g id="node22" class="node">
<title>Node22</title>
<g id="a_node22"><a xlink:href="_render_cubic_bezier_8cpp.html" target="_top" xlink:title="Implementation of the RenderCubicBezier class.">
<polygon fill="white" stroke="black" points="1066,-224.5 1066,-243.5 1194,-243.5 1194,-224.5 1066,-224.5"/>
<text text-anchor="middle" x="1130" y="-231.5" font-family="Helvetica,sans-Serif" font-size="10.00">RenderCubicBezier.cpp</text>
</a>
</g>
</g>
<!-- Node1&#45;&gt;Node22 -->
<g id="edge32" class="edge">
<title>Node1&#45;&gt;Node22</title>
<path fill="none" stroke="midnightblue" d="M966.62,-277.83C1005.51,-267.63 1062.16,-252.78 1097.51,-243.52"/>
<polygon fill="midnightblue" stroke="midnightblue" points="965.43,-274.52 956.64,-280.44 967.2,-281.29 965.43,-274.52"/>
</g>
<!-- Node3 -->
<g id="node3" class="node">
<title>Node3</title>
<g id="a_node3"><a xlink:href="_render_layout_plugin_8cpp.html" target="_top" xlink:title="Implementation of RenderLayoutPlugin, the plugin class of the fbc package for the Model element.">
<polygon fill="white" stroke="black" points="0,-0.5 0,-19.5 134,-19.5 134,-0.5 0,-0.5"/>
<text text-anchor="middle" x="67" y="-7.5" font-family="Helvetica,sans-Serif" font-size="10.00">RenderLayoutPlugin.cpp</text>
</a>
</g>
</g>
<!-- Node2&#45;&gt;Node3 -->
<g id="edge2" class="edge">
<title>Node2&#45;&gt;Node3</title>
<path fill="none" stroke="midnightblue" d="M235.63,-114.19C178.59,-107.67 107.7,-95.84 86,-76 69.86,-61.24 67.14,-33.62 66.86,-19.61"/>
<polygon fill="midnightblue" stroke="midnightblue" points="235.42,-117.69 245.74,-115.31 236.19,-110.73 235.42,-117.69"/>
</g>
<!-- Node4 -->
<g id="node4" class="node">
<title>Node4</title>
<g id="a_node4"><a xlink:href="_render_layout_converter_8cpp.html" target="_top" xlink:title="Simple converter to convert Layout + Render from l2 to L3 and vice versa.">
<polygon fill="white" stroke="black" points="95,-56.5 95,-75.5 247,-75.5 247,-56.5 95,-56.5"/>
<text text-anchor="middle" x="171" y="-63.5" font-family="Helvetica,sans-Serif" font-size="10.00">RenderLayoutConverter.cpp</text>
</a>
</g>
</g>
<!-- Node2&#45;&gt;Node4 -->
<g id="edge3" class="edge">
<title>Node2&#45;&gt;Node4</title>
<path fill="none" stroke="midnightblue" d="M281.97,-108.91C255.09,-98.75 217.36,-84.51 193.55,-75.52"/>
<polygon fill="midnightblue" stroke="midnightblue" points="280.75,-112.19 291.34,-112.44 283.22,-105.64 280.75,-112.19"/>
</g>
<!-- Node5 -->
<g id="node5" class="node">
<title>Node5</title>
<g id="a_node5"><a xlink:href="_render_utilities_8cpp.html" target="_top" xlink:title="implementation of RenderUtilities, a class of utility functions for the render package">
<polygon fill="white" stroke="black" points="338,-0.5 338,-19.5 448,-19.5 448,-0.5 338,-0.5"/>
<text text-anchor="middle" x="393" y="-7.5" font-family="Helvetica,sans-Serif" font-size="10.00">RenderUtilities.cpp</text>
</a>
</g>
</g>
<!-- Node2&#45;&gt;Node5 -->
<g id="edge4" class="edge">
<title>Node2&#45;&gt;Node5</title>
<path fill="none" stroke="midnightblue" d="M338.18,-107.06C349.85,-99.25 363.19,-88.55 372,-76 384.39,-58.33 389.78,-32.93 391.86,-19.72"/>
<polygon fill="midnightblue" stroke="midnightblue" points="336.26,-104.14 329.69,-112.45 340.01,-110.05 336.26,-104.14"/>
</g>
<!-- Node6 -->
<g id="node6" class="node">
<title>Node6</title>
<g id="a_node6"><a xlink:href="_render_utilities_8h.html" target="_top" xlink:title="Definition of RenderUtilities, a class of utility functions for the render package.">
<polygon fill="white" stroke="black" points="265,-56.5 265,-75.5 363,-75.5 363,-56.5 265,-56.5"/>
<text text-anchor="middle" x="314" y="-63.5" font-family="Helvetica,sans-Serif" font-size="10.00">RenderUtilities.h</text>
</a>
</g>
</g>
<!-- Node2&#45;&gt;Node6 -->
<g id="edge5" class="edge">
<title>Node2&#45;&gt;Node6</title>
<path fill="none" stroke="midnightblue" d="M314,-101.8C314,-92.91 314,-82.78 314,-75.75"/>
<polygon fill="midnightblue" stroke="midnightblue" points="310.5,-102.08 314,-112.08 317.5,-102.08 310.5,-102.08"/>
</g>
<!-- Node8 -->
<g id="node8" class="node">
<title>Node8</title>
<g id="a_node8"><a xlink:href="_render_validator_8cpp.html" target="_top" xlink:title="Definition of RenderValidator.">
<polygon fill="white" stroke="black" points="419,-56.5 419,-75.5 533,-75.5 533,-56.5 419,-56.5"/>
<text text-anchor="middle" x="476" y="-63.5" font-family="Helvetica,sans-Serif" font-size="10.00">RenderValidator.cpp</text>
</a>
</g>
</g>
<!-- Node2&#45;&gt;Node8 -->
<g id="edge9" class="edge">
<title>Node2&#45;&gt;Node8</title>
<path fill="none" stroke="midnightblue" d="M349.48,-109.17C379.99,-99 423.24,-84.59 450.45,-75.52"/>
<polygon fill="midnightblue" stroke="midnightblue" points="348.05,-105.96 339.67,-112.44 350.26,-112.6 348.05,-105.96"/>
</g>
<!-- Node6&#45;&gt;Node3 -->
<g id="edge6" class="edge">
<title>Node6&#45;&gt;Node3</title>
<path fill="none" stroke="midnightblue" d="M264.97,-54.28C218.3,-44.08 148.97,-28.92 105.95,-19.52"/>
<polygon fill="midnightblue" stroke="midnightblue" points="264.35,-57.73 274.86,-56.44 265.84,-50.89 264.35,-57.73"/>
</g>
<!-- Node6&#45;&gt;Node5 -->
<g id="edge8" class="edge">
<title>Node6&#45;&gt;Node5</title>
<path fill="none" stroke="midnightblue" d="M335.03,-50.62C349.47,-40.76 368.14,-27.99 380.34,-19.65"/>
<polygon fill="midnightblue" stroke="midnightblue" points="332.97,-47.79 326.69,-56.32 336.92,-53.57 332.97,-47.79"/>
</g>
<!-- Node7 -->
<g id="node7" class="node">
<title>Node7</title>
<g id="a_node7"><a xlink:href="_render_list_of_layouts_plugin_8cpp.html" target="_top" xlink:title="Implementation of RenderListOfLayoutsPlugin, the plugin class of the fbc package for the Model elemen...">
<polygon fill="white" stroke="black" points="152,-0.5 152,-19.5 320,-19.5 320,-0.5 152,-0.5"/>
<text text-anchor="middle" x="236" y="-7.5" font-family="Helvetica,sans-Serif" font-size="10.00">RenderListOfLayoutsPlugin.cpp</text>
</a>
</g>
</g>
<!-- Node6&#45;&gt;Node7 -->
<g id="edge7" class="edge">
<title>Node6&#45;&gt;Node7</title>
<path fill="none" stroke="midnightblue" d="M293.23,-50.62C278.98,-40.76 260.54,-27.99 248.5,-19.65"/>
<polygon fill="midnightblue" stroke="midnightblue" points="291.25,-53.51 301.47,-56.32 295.24,-47.75 291.25,-53.51"/>
</g>
<!-- Node10&#45;&gt;Node9 -->
<g id="edge12" class="edge">
<title>Node10&#45;&gt;Node9</title>
<path fill="none" stroke="midnightblue" d="M778.93,-222.09C735.85,-211.89 672.41,-196.86 632.96,-187.52"/>
<polygon fill="midnightblue" stroke="midnightblue" points="778.34,-225.54 788.87,-224.44 779.95,-218.73 778.34,-225.54"/>
</g>
<!-- Node11 -->
<g id="node11" class="node">
<title>Node11</title>
<g id="a_node11"><a xlink:href="_polygon_8h.html" target="_top" xlink:title="class representing a polygon">
<polygon fill="white" stroke="black" points="792.5,-168.5 792.5,-187.5 857.5,-187.5 857.5,-168.5 792.5,-168.5"/>
<text text-anchor="middle" x="825" y="-175.5" font-family="Helvetica,sans-Serif" font-size="10.00">Polygon.h</text>
</a>
</g>
</g>
<!-- Node10&#45;&gt;Node11 -->
<g id="edge13" class="edge">
<title>Node10&#45;&gt;Node11</title>
<path fill="none" stroke="midnightblue" d="M825,-213.8C825,-204.91 825,-194.78 825,-187.75"/>
<polygon fill="midnightblue" stroke="midnightblue" points="821.5,-214.08 825,-224.08 828.5,-214.08 821.5,-214.08"/>
</g>
<!-- Node19 -->
<g id="node19" class="node">
<title>Node19</title>
<g id="a_node19"><a xlink:href="_render_curve_8h.html" target="_top" xlink:title="Definition of the RenderCurve class.">
<polygon fill="white" stroke="black" points="685.5,-168.5 685.5,-187.5 774.5,-187.5 774.5,-168.5 685.5,-168.5"/>
<text text-anchor="middle" x="730" y="-175.5" font-family="Helvetica,sans-Serif" font-size="10.00">RenderCurve.h</text>
</a>
</g>
</g>
<!-- Node10&#45;&gt;Node19 -->
<g id="edge22" class="edge">
<title>Node10&#45;&gt;Node19</title>
<path fill="none" stroke="midnightblue" d="M800.68,-219.18C783.2,-209.24 760.17,-196.15 745.23,-187.65"/>
<polygon fill="midnightblue" stroke="midnightblue" points="799.31,-222.43 809.74,-224.32 802.77,-216.34 799.31,-222.43"/>
</g>
<!-- Node10&#45;&gt;Node21 -->
<g id="edge30" class="edge">
<title>Node10&#45;&gt;Node21</title>
<path fill="none" stroke="midnightblue" d="M849.84,-219.45C868.11,-209.48 892.42,-196.23 908.13,-187.65"/>
<polygon fill="midnightblue" stroke="midnightblue" points="848.01,-216.46 840.91,-224.32 851.36,-222.61 848.01,-216.46"/>
</g>
<!-- Node11&#45;&gt;Node2 -->
<g id="edge14" class="edge">
<title>Node11&#45;&gt;Node2</title>
<path fill="none" stroke="midnightblue" d="M782.06,-168.03C608.33,-141.93 561.78,-149.82 391,-132 388.05,-131.69 385.05,-131.37 382.01,-131.04"/>
<polygon fill="midnightblue" stroke="midnightblue" points="781.64,-171.51 792.05,-169.55 782.69,-164.59 781.64,-171.51"/>
</g>
<!-- Node12 -->
<g id="node12" class="node">
<title>Node12</title>
<g id="a_node12"><a xlink:href="_graphical_primitive1_d_8cpp.html" target="_top" xlink:title="abstract base class for graphical 1D objects">
<polygon fill="white" stroke="black" points="925.5,-112.5 925.5,-131.5 1066.5,-131.5 1066.5,-112.5 925.5,-112.5"/>
<text text-anchor="middle" x="996" y="-119.5" font-family="Helvetica,sans-Serif" font-size="10.00">GraphicalPrimitive1D.cpp</text>
</a>
</g>
</g>
<!-- Node11&#45;&gt;Node12 -->
<g id="edge15" class="edge">
<title>Node11&#45;&gt;Node12</title>
<path fill="none" stroke="midnightblue" d="M862.04,-165.3C894.26,-155.13 940.19,-140.62 969.03,-131.52"/>
<polygon fill="midnightblue" stroke="midnightblue" points="860.58,-162.09 852.1,-168.44 862.69,-168.77 860.58,-162.09"/>
</g>
<!-- Node13 -->
<g id="node13" class="node">
<title>Node13</title>
<g id="a_node13"><a xlink:href="_graphical_primitive2_d_8cpp.html" target="_top" xlink:title="Implementation of the GraphicalPrimitive2D class.">
<polygon fill="white" stroke="black" points="1084.5,-112.5 1084.5,-131.5 1225.5,-131.5 1225.5,-112.5 1084.5,-112.5"/>
<text text-anchor="middle" x="1155" y="-119.5" font-family="Helvetica,sans-Serif" font-size="10.00">GraphicalPrimitive2D.cpp</text>
</a>
</g>
</g>
<!-- Node11&#45;&gt;Node13 -->
<g id="edge16" class="edge">
<title>Node11&#45;&gt;Node13</title>
<path fill="none" stroke="midnightblue" d="M867.53,-167.99C951.84,-152.53 1037.68,-139.61 1093.87,-131.54"/>
<polygon fill="midnightblue" stroke="midnightblue" points="866.72,-164.58 857.52,-169.84 867.99,-171.47 866.72,-164.58"/>
</g>
<!-- Node14 -->
<g id="node14" class="node">
<title>Node14</title>
<g id="a_node14"><a xlink:href="_list_of_drawables_8cpp.html" target="_top" xlink:title="Implementation of the ListOfDrawables class.">
<polygon fill="white" stroke="black" points="400.5,-112.5 400.5,-131.5 517.5,-131.5 517.5,-112.5 400.5,-112.5"/>
<text text-anchor="middle" x="459" y="-119.5" font-family="Helvetica,sans-Serif" font-size="10.00">ListOfDrawables.cpp</text>
</a>
</g>
</g>
<!-- Node11&#45;&gt;Node14 -->
<g id="edge17" class="edge">
<title>Node11&#45;&gt;Node14</title>
<path fill="none" stroke="midnightblue" d="M782.52,-168.11C734.54,-160.38 597.54,-141.72 517.83,-130.93"/>
<polygon fill="midnightblue" stroke="midnightblue" points="782.04,-171.58 792.49,-169.79 783.21,-164.68 782.04,-171.58"/>
</g>
<!-- Node11&#45;&gt;Node15 -->
<g id="edge18" class="edge">
<title>Node11&#45;&gt;Node15</title>
<path fill="none" stroke="midnightblue" d="M867.97,-168.07C1083.15,-137.93 1141.53,-159.98 1353,-132 1355.88,-131.62 1358.86,-131.17 1361.84,-130.69"/>
<polygon fill="midnightblue" stroke="midnightblue" points="867.35,-164.62 857.94,-169.5 868.33,-171.55 867.35,-164.62"/>
</g>
<!-- Node16 -->
<g id="node16" class="node">
<title>Node16</title>
<g id="a_node16"><a xlink:href="_render_group_8cpp.html" target="_top" xlink:title="Implementation of the RenderGroup class.">
<polygon fill="white" stroke="black" points="535.5,-112.5 535.5,-131.5 636.5,-131.5 636.5,-112.5 535.5,-112.5"/>
<text text-anchor="middle" x="586" y="-119.5" font-family="Helvetica,sans-Serif" font-size="10.00">RenderGroup.cpp</text>
</a>
</g>
</g>
<!-- Node11&#45;&gt;Node16 -->
<g id="edge19" class="edge">
<title>Node11&#45;&gt;Node16</title>
<path fill="none" stroke="midnightblue" d="M782.51,-167.4C737.48,-157.23 667.03,-141.31 623.85,-131.55"/>
<polygon fill="midnightblue" stroke="midnightblue" points="781.74,-170.81 792.27,-169.6 783.29,-163.99 781.74,-170.81"/>
</g>
<!-- Node17 -->
<g id="node17" class="node">
<title>Node17</title>
<g id="a_node17"><a xlink:href="_transformation_8cpp.html" target="_top" xlink:title="class representing a 3D affine transformation">
<polygon fill="white" stroke="black" points="655,-112.5 655,-131.5 765,-131.5 765,-112.5 655,-112.5"/>
<text text-anchor="middle" x="710" y="-119.5" font-family="Helvetica,sans-Serif" font-size="10.00">Transformation.cpp</text>
</a>
</g>
</g>
<!-- Node11&#45;&gt;Node17 -->
<g id="edge20" class="edge">
<title>Node11&#45;&gt;Node17</title>
<path fill="none" stroke="midnightblue" d="M797.52,-164.1C776.03,-154.01 746.78,-140.27 728.14,-131.52"/>
<polygon fill="midnightblue" stroke="midnightblue" points="796.24,-167.36 806.78,-168.44 799.21,-161.02 796.24,-167.36"/>
</g>
<!-- Node18 -->
<g id="node18" class="node">
<title>Node18</title>
<g id="a_node18"><a xlink:href="_transformation2_d_8cpp.html" target="_top" xlink:title="class representing a 2D affine transformation">
<polygon fill="white" stroke="black" points="783,-112.5 783,-131.5 907,-131.5 907,-112.5 783,-112.5"/>
<text text-anchor="middle" x="845" y="-119.5" font-family="Helvetica,sans-Serif" font-size="10.00">Transformation2D.cpp</text>
</a>
</g>
</g>
<!-- Node11&#45;&gt;Node18 -->
<g id="edge21" class="edge">
<title>Node11&#45;&gt;Node18</title>
<path fill="none" stroke="midnightblue" d="M831.78,-158.69C835.15,-149.59 839.07,-139.01 841.76,-131.75"/>
<polygon fill="midnightblue" stroke="midnightblue" points="828.49,-157.49 828.3,-168.08 835.06,-159.92 828.49,-157.49"/>
</g>
<!-- Node19&#45;&gt;Node2 -->
<g id="edge23" class="edge">
<title>Node19&#45;&gt;Node2</title>
<path fill="none" stroke="midnightblue" d="M675.22,-167.95C606.42,-158.23 466.53,-141.25 382.18,-131.13"/>
<polygon fill="midnightblue" stroke="midnightblue" points="674.84,-171.44 685.23,-169.39 675.83,-164.51 674.84,-171.44"/>
</g>
<!-- Node19&#45;&gt;Node12 -->
<g id="edge24" class="edge">
<title>Node19&#45;&gt;Node12</title>
<path fill="none" stroke="midnightblue" d="M782.17,-166.41C832.44,-156.2 907.53,-140.96 954.05,-131.52"/>
<polygon fill="midnightblue" stroke="midnightblue" points="781.25,-163.02 772.15,-168.44 782.64,-169.88 781.25,-163.02"/>
</g>
<!-- Node19&#45;&gt;Node14 -->
<g id="edge25" class="edge">
<title>Node19&#45;&gt;Node14</title>
<path fill="none" stroke="midnightblue" d="M677.17,-166.47C625.96,-156.27 549.23,-140.98 501.74,-131.52"/>
<polygon fill="midnightblue" stroke="midnightblue" points="676.57,-169.92 687.06,-168.44 677.94,-163.06 676.57,-169.92"/>
</g>
<!-- Node19&#45;&gt;Node16 -->
<g id="edge27" class="edge">
<title>Node19&#45;&gt;Node16</title>
<path fill="none" stroke="midnightblue" d="M697.75,-164.91C670.68,-154.75 632.68,-140.51 608.71,-131.52"/>
<polygon fill="midnightblue" stroke="midnightblue" points="696.59,-168.21 707.18,-168.44 699.05,-161.66 696.59,-168.21"/>
</g>
<!-- Node19&#45;&gt;Node17 -->
<g id="edge28" class="edge">
<title>Node19&#45;&gt;Node17</title>
<path fill="none" stroke="midnightblue" d="M723.22,-158.69C719.85,-149.59 715.93,-139.01 713.24,-131.75"/>
<polygon fill="midnightblue" stroke="midnightblue" points="719.94,-159.92 726.7,-168.08 726.51,-157.49 719.94,-159.92"/>
</g>
<!-- Node19&#45;&gt;Node18 -->
<g id="edge29" class="edge">
<title>Node19&#45;&gt;Node18</title>
<path fill="none" stroke="midnightblue" d="M757.48,-164.1C778.97,-154.01 808.22,-140.27 826.86,-131.52"/>
<polygon fill="midnightblue" stroke="midnightblue" points="755.79,-161.02 748.22,-168.44 758.76,-167.36 755.79,-161.02"/>
</g>
<!-- Node19&#45;&gt;Node20 -->
<g id="edge26" class="edge">
<title>Node19&#45;&gt;Node20</title>
<path fill="none" stroke="midnightblue" d="M785,-167.85C984.3,-143.53 1037.55,-154.55 1234,-132 1237.24,-131.63 1240.58,-131.21 1243.94,-130.77"/>
<polygon fill="midnightblue" stroke="midnightblue" points="784.27,-164.41 774.78,-169.11 785.13,-171.36 784.27,-164.41"/>
</g>
</g>
</svg>
