<?xml version="1.0" encoding="UTF-8" standalone="no"?>
<!DOCTYPE svg PUBLIC "-//W3C//DTD SVG 1.1//EN"
 "http://www.w3.org/Graphics/SVG/1.1/DTD/svg11.dtd">
<!-- Generated by graphviz version 2.43.0 (0)
 -->
<!-- Title: RenderListOfLayoutsPlugin.h Pages: 1 -->
<svg width="705pt" height="196pt"
 viewBox="0.00 0.00 704.50 196.00" xmlns="http://www.w3.org/2000/svg" xmlns:xlink="http://www.w3.org/1999/xlink">
<g id="graph0" class="graph" transform="scale(1 1) rotate(0) translate(4 192)">
<title>RenderListOfLayoutsPlugin.h</title>
<polygon fill="white" stroke="transparent" points="-4,4 -4,-192 700.5,-192 700.5,4 -4,4"/>
<!-- Node1 -->
<g id="node1" class="node">
<title>Node1</title>
<g id="a_node1"><a xlink:title="Definition of RenderListOfLayoutsPlugin, the plugin class of fbc package for the Model element.">
<polygon fill="#bfbfbf" stroke="black" points="346.5,-168.5 346.5,-187.5 503.5,-187.5 503.5,-168.5 346.5,-168.5"/>
<text text-anchor="middle" x="425" y="-175.5" font-family="Helvetica,sans-Serif" font-size="10.00">RenderListOfLayoutsPlugin.h</text>
</a>
</g>
</g>
<!-- Node2 -->
<g id="node2" class="node">
<title>Node2</title>
<g id="a_node2"><a xlink:href="_render_extension_types_8h.html" target="_top" xlink:title="Definition of RenderExtensionTypes.">
<polygon fill="white" stroke="black" points="195,-112.5 195,-131.5 331,-131.5 331,-112.5 195,-112.5"/>
<text text-anchor="middle" x="263" y="-119.5" font-family="Helvetica,sans-Serif" font-size="10.00">RenderExtensionTypes.h</text>
</a>
</g>
</g>
<!-- Node1&#45;&gt;Node2 -->
<g id="edge1" class="edge">
<title>Node1&#45;&gt;Node2</title>
<path fill="none" stroke="midnightblue" d="M389.52,-165.17C359.01,-155 315.76,-140.59 288.55,-131.52"/>
<polygon fill="midnightblue" stroke="midnightblue" points="388.74,-168.6 399.33,-168.44 390.95,-161.96 388.74,-168.6"/>
</g>
<!-- Node5 -->
<g id="node5" class="node">
<title>Node5</title>
<g id="a_node5"><a xlink:href="_render_utilities_8cpp.html" target="_top" xlink:title="implementation of RenderUtilities, a class of utility functions for the render package">
<polygon fill="white" stroke="black" points="0,-0.5 0,-19.5 110,-19.5 110,-0.5 0,-0.5"/>
<text text-anchor="middle" x="55" y="-7.5" font-family="Helvetica,sans-Serif" font-size="10.00">RenderUtilities.cpp</text>
</a>
</g>
</g>
<!-- Node1&#45;&gt;Node5 -->
<g id="edge12" class="edge">
<title>Node1&#45;&gt;Node5</title>
<path fill="none" stroke="midnightblue" d="M345.52,-167.04C247.7,-152.88 90.5,-123.27 58,-76 46.35,-59.06 49.75,-33.35 52.69,-19.91"/>
<polygon fill="midnightblue" stroke="midnightblue" points="345.28,-170.54 355.67,-168.48 346.27,-163.61 345.28,-170.54"/>
</g>
<!-- Node7 -->
<g id="node7" class="node">
<title>Node7</title>
<g id="a_node7"><a xlink:href="_render_list_of_layouts_plugin_8cpp.html" target="_top" xlink:title="Implementation of RenderListOfLayoutsPlugin, the plugin class of the fbc package for the Model elemen...">
<polygon fill="white" stroke="black" points="425,-0.5 425,-19.5 593,-19.5 593,-0.5 425,-0.5"/>
<text text-anchor="middle" x="509" y="-7.5" font-family="Helvetica,sans-Serif" font-size="10.00">RenderListOfLayoutsPlugin.cpp</text>
</a>
</g>
</g>
<!-- Node1&#45;&gt;Node7 -->
<g id="edge11" class="edge">
<title>Node1&#45;&gt;Node7</title>
<path fill="none" stroke="midnightblue" d="M448.46,-162.82C474.03,-145.84 513.5,-114.76 530,-76 538.36,-56.36 524.58,-32.2 515.66,-19.59"/>
<polygon fill="midnightblue" stroke="midnightblue" points="446.25,-160.08 439.73,-168.43 450.04,-165.96 446.25,-160.08"/>
</g>
<!-- Node9 -->
<g id="node9" class="node">
<title>Node9</title>
<g id="a_node9"><a xlink:href="_render_extension_8cpp.html" target="_top" xlink:title="Implementation of RenderExtension, the core module of the render package.">
<polygon fill="white" stroke="black" points="577.5,-112.5 577.5,-131.5 696.5,-131.5 696.5,-112.5 577.5,-112.5"/>
<text text-anchor="middle" x="637" y="-119.5" font-family="Helvetica,sans-Serif" font-size="10.00">RenderExtension.cpp</text>
</a>
</g>
</g>
<!-- Node1&#45;&gt;Node9 -->
<g id="edge10" class="edge">
<title>Node1&#45;&gt;Node9</title>
<path fill="none" stroke="midnightblue" d="M468.35,-165.96C508.39,-155.76 567.03,-140.82 603.57,-131.52"/>
<polygon fill="midnightblue" stroke="midnightblue" points="467.42,-162.58 458.59,-168.44 469.15,-169.37 467.42,-162.58"/>
</g>
<!-- Node3 -->
<g id="node3" class="node">
<title>Node3</title>
<g id="a_node3"><a xlink:href="_render_layout_plugin_8cpp.html" target="_top" xlink:title="Implementation of RenderLayoutPlugin, the plugin class of the fbc package for the Model element.">
<polygon fill="white" stroke="black" points="196,-0.5 196,-19.5 330,-19.5 330,-0.5 196,-0.5"/>
<text text-anchor="middle" x="263" y="-7.5" font-family="Helvetica,sans-Serif" font-size="10.00">RenderLayoutPlugin.cpp</text>
</a>
</g>
</g>
<!-- Node2&#45;&gt;Node3 -->
<g id="edge2" class="edge">
<title>Node2&#45;&gt;Node3</title>
<path fill="none" stroke="midnightblue" d="M252.88,-103.12C246.76,-90.18 240.72,-72.18 244,-56 246.69,-42.7 253.44,-28.45 258.12,-19.63"/>
<polygon fill="midnightblue" stroke="midnightblue" points="249.92,-105.02 257.63,-112.29 256.14,-101.8 249.92,-105.02"/>
</g>
<!-- Node4 -->
<g id="node4" class="node">
<title>Node4</title>
<g id="a_node4"><a xlink:href="_render_layout_converter_8cpp.html" target="_top" xlink:title="Simple converter to convert Layout + Render from l2 to L3 and vice versa.">
<polygon fill="white" stroke="black" points="369,-56.5 369,-75.5 521,-75.5 521,-56.5 369,-56.5"/>
<text text-anchor="middle" x="445" y="-63.5" font-family="Helvetica,sans-Serif" font-size="10.00">RenderLayoutConverter.cpp</text>
</a>
</g>
</g>
<!-- Node2&#45;&gt;Node4 -->
<g id="edge3" class="edge">
<title>Node2&#45;&gt;Node4</title>
<path fill="none" stroke="midnightblue" d="M301.53,-109.57C335.86,-99.38 385.33,-84.7 416.3,-75.52"/>
<polygon fill="midnightblue" stroke="midnightblue" points="300.43,-106.24 291.84,-112.44 302.42,-112.95 300.43,-106.24"/>
</g>
<!-- Node2&#45;&gt;Node5 -->
<g id="edge4" class="edge">
<title>Node2&#45;&gt;Node5</title>
<path fill="none" stroke="midnightblue" d="M187.11,-110.82C142.01,-103.31 90.48,-91.66 74,-76 58.15,-60.93 55.3,-33.45 54.93,-19.54"/>
<polygon fill="midnightblue" stroke="midnightblue" points="186.78,-114.32 197.21,-112.46 187.9,-107.41 186.78,-114.32"/>
</g>
<!-- Node6 -->
<g id="node6" class="node">
<title>Node6</title>
<g id="a_node6"><a xlink:href="_render_utilities_8h.html" target="_top" xlink:title="Definition of RenderUtilities, a class of utility functions for the render package.">
<polygon fill="white" stroke="black" points="253,-56.5 253,-75.5 351,-75.5 351,-56.5 253,-56.5"/>
<text text-anchor="middle" x="302" y="-63.5" font-family="Helvetica,sans-Serif" font-size="10.00">RenderUtilities.h</text>
</a>
</g>
</g>
<!-- Node2&#45;&gt;Node6 -->
<g id="edge5" class="edge">
<title>Node2&#45;&gt;Node6</title>
<path fill="none" stroke="midnightblue" d="M275.38,-103.86C282.14,-94.5 290.21,-83.33 295.68,-75.75"/>
<polygon fill="midnightblue" stroke="midnightblue" points="272.46,-101.93 269.44,-112.08 278.13,-106.03 272.46,-101.93"/>
</g>
<!-- Node8 -->
<g id="node8" class="node">
<title>Node8</title>
<g id="a_node8"><a xlink:href="_render_validator_8cpp.html" target="_top" xlink:title="Definition of RenderValidator.">
<polygon fill="white" stroke="black" points="83,-56.5 83,-75.5 197,-75.5 197,-56.5 83,-56.5"/>
<text text-anchor="middle" x="140" y="-63.5" font-family="Helvetica,sans-Serif" font-size="10.00">RenderValidator.cpp</text>
</a>
</g>
</g>
<!-- Node2&#45;&gt;Node8 -->
<g id="edge9" class="edge">
<title>Node2&#45;&gt;Node8</title>
<path fill="none" stroke="midnightblue" d="M234.23,-108.37C211.19,-98.26 179.52,-84.35 159.4,-75.52"/>
<polygon fill="midnightblue" stroke="midnightblue" points="232.95,-111.63 243.51,-112.44 235.76,-105.22 232.95,-111.63"/>
</g>
<!-- Node6&#45;&gt;Node3 -->
<g id="edge6" class="edge">
<title>Node6&#45;&gt;Node3</title>
<path fill="none" stroke="midnightblue" d="M289.62,-47.86C282.86,-38.5 274.79,-27.33 269.32,-19.75"/>
<polygon fill="midnightblue" stroke="midnightblue" points="286.87,-50.03 295.56,-56.08 292.54,-45.93 286.87,-50.03"/>
</g>
<!-- Node6&#45;&gt;Node5 -->
<g id="edge8" class="edge">
<title>Node6&#45;&gt;Node5</title>
<path fill="none" stroke="midnightblue" d="M252.97,-54.28C206.3,-44.08 136.97,-28.92 93.95,-19.52"/>
<polygon fill="midnightblue" stroke="midnightblue" points="252.35,-57.73 262.86,-56.44 253.84,-50.89 252.35,-57.73"/>
</g>
<!-- Node6&#45;&gt;Node7 -->
<g id="edge7" class="edge">
<title>Node6&#45;&gt;Node7</title>
<path fill="none" stroke="midnightblue" d="M344.82,-53.83C383.91,-43.63 440.83,-28.78 476.35,-19.52"/>
<polygon fill="midnightblue" stroke="midnightblue" points="343.59,-50.53 334.8,-56.44 345.36,-57.31 343.59,-50.53"/>
</g>
</g>
</svg>
