<?xml version="1.0" encoding="UTF-8" standalone="no"?>
<!DOCTYPE svg PUBLIC "-//W3C//DTD SVG 1.1//EN"
 "http://www.w3.org/Graphics/SVG/1.1/DTD/svg11.dtd">
<!-- Generated by graphviz version 2.43.0 (0)
 -->
<!-- Title: RenderSBMLError.h Pages: 1 -->
<!--zoomable 140 -->
<svg id="main" version="1.1" xmlns="http://www.w3.org/2000/svg" xmlns:xlink="http://www.w3.org/1999/xlink" xml:space="preserve" onload="init(evt)">
<style type="text/css"><![CDATA[
.edge:hover path { stroke: red; }
.edge:hover polygon { stroke: red; fill: red; }
]]></style>
<script type="text/javascript"><![CDATA[
var edges = document.getElementsByTagName('g');
if (edges && edges.length) {
  for (var i=0;i<edges.length;i++) {
    if (edges[i].id.substr(0,4)=='edge') {
      edges[i].setAttribute('class','edge');
    }
  }
}
]]></script>
        <defs>
                <circle id="rim" cx="0" cy="0" r="7"/>
                <circle id="rim2" cx="0" cy="0" r="3.5"/>
                <g id="zoomPlus">
                        <use xlink:href="#rim" fill="#404040">
                                <set attributeName="fill" to="#808080" begin="zoomplus.mouseover" end="zoomplus.mouseout"/>
                        </use>
                        <path d="M-4,0h8M0,-4v8" fill="none" stroke="white" stroke-width="1.5" pointer-events="none"/>
                </g>
                <g id="zoomMin">
                        <use xlink:href="#rim" fill="#404040">
                                <set attributeName="fill" to="#808080" begin="zoomminus.mouseover" end="zoomminus.mouseout"/>
                        </use>
                        <path d="M-4,0h8" fill="none" stroke="white" stroke-width="1.5" pointer-events="none"/>
                </g>
                <g id="dirArrow">
                        <path fill="none" stroke="white" stroke-width="1.5" d="M0,-3.0v7 M-2.5,-0.5L0,-3.0L2.5,-0.5"/>
                </g>
               <g id="resetDef">
                       <use xlink:href="#rim2" fill="#404040">
                               <set attributeName="fill" to="#808080" begin="reset.mouseover" end="reset.mouseout"/>
                       </use>
               </g>
        </defs>

<script type="text/javascript">
var viewWidth = 5046;
var viewHeight = 140;
var sectionId = 'dynsection-0';
</script>
<script xlink:href="svgpan.js"/>
<svg id="graph" class="graph">
<g id="viewport">
<title>RenderSBMLError.h</title>
<polygon fill="white" stroke="transparent" points="-4,4 -4,-136 5041.5,-136 5041.5,4 -4,4"/>
<!-- Node1 -->
<g id="node1" class="node">
<title>Node1</title>
<g id="a_node1"><a xlink:title="Definition of the RenderSBMLError class.">
<polygon fill="#bfbfbf" stroke="black" points="2581.5,-112.5 2581.5,-131.5 2691.5,-131.5 2691.5,-112.5 2581.5,-112.5"/>
<text text-anchor="middle" x="2636.5" y="-119.5" font-family="Helvetica,sans-Serif" font-size="10.00">RenderSBMLError.h</text>
</a>
</g>
</g>
<!-- Node2 -->
<g id="node2" class="node">
<title>Node2</title>
<g id="a_node2"><a xlink:href="_render_s_b_m_l_document_plugin_8cpp.html" target="_top" xlink:title="Implementation of the RenderSBMLDocumentPlugin class.">
<polygon fill="white" stroke="black" points="0,-56.5 0,-75.5 179,-75.5 179,-56.5 0,-56.5"/>
<text text-anchor="middle" x="89.5" y="-63.5" font-family="Helvetica,sans-Serif" font-size="10.00">RenderSBMLDocumentPlugin.cpp</text>
</a>
</g>
</g>
<!-- Node1&#45;&gt;Node2 -->
<g id="edge1" class="edge">
<title>Node1&#45;&gt;Node2</title>
<path fill="none" stroke="midnightblue" d="M2571.37,-120.44C2232.91,-117.44 671.86,-102.38 188.5,-76 185.4,-75.83 182.24,-75.64 179.06,-75.43"/>
<polygon fill="midnightblue" stroke="midnightblue" points="2571.47,-123.94 2581.5,-120.53 2571.53,-116.94 2571.47,-123.94"/>
</g>
<!-- Node3 -->
<g id="node3" class="node">
<title>Node3</title>
<g id="a_node3"><a xlink:href="_color_definition_8cpp.html" target="_top" xlink:title="Implementation of the ColorDefinition class.">
<polygon fill="white" stroke="black" points="197.5,-56.5 197.5,-75.5 307.5,-75.5 307.5,-56.5 197.5,-56.5"/>
<text text-anchor="middle" x="252.5" y="-63.5" font-family="Helvetica,sans-Serif" font-size="10.00">ColorDefinition.cpp</text>
</a>
</g>
</g>
<!-- Node1&#45;&gt;Node3 -->
<g id="edge2" class="edge">
<title>Node1&#45;&gt;Node3</title>
<path fill="none" stroke="midnightblue" d="M2571.12,-120.78C2242.94,-119.5 772.96,-111.82 317.5,-76 314.32,-75.75 311.06,-75.45 307.77,-75.11"/>
<polygon fill="midnightblue" stroke="midnightblue" points="2571.39,-124.28 2581.41,-120.82 2571.42,-117.28 2571.39,-124.28"/>
</g>
<!-- Node4 -->
<g id="node4" class="node">
<title>Node4</title>
<g id="a_node4"><a xlink:href="_ellipse_8cpp.html" target="_top" xlink:title="Implementation of the Ellipse class.">
<polygon fill="white" stroke="black" points="326,-56.5 326,-75.5 395,-75.5 395,-56.5 326,-56.5"/>
<text text-anchor="middle" x="360.5" y="-63.5" font-family="Helvetica,sans-Serif" font-size="10.00">Ellipse.cpp</text>
</a>
</g>
</g>
<!-- Node1&#45;&gt;Node4 -->
<g id="edge3" class="edge">
<title>Node1&#45;&gt;Node4</title>
<path fill="none" stroke="midnightblue" d="M2571.44,-121.28C2251.23,-122.43 840.57,-124.59 404.5,-76 401.56,-75.67 398.52,-75.24 395.47,-74.75"/>
<polygon fill="midnightblue" stroke="midnightblue" points="2571.49,-124.78 2581.48,-121.25 2571.47,-117.78 2571.49,-124.78"/>
</g>
<!-- Node5 -->
<g id="node5" class="node">
<title>Node5</title>
<g id="a_node5"><a xlink:href="_global_render_information_8cpp.html" target="_top" xlink:title="class for the storage of global render information">
<polygon fill="white" stroke="black" points="413.5,-56.5 413.5,-75.5 573.5,-75.5 573.5,-56.5 413.5,-56.5"/>
<text text-anchor="middle" x="493.5" y="-63.5" font-family="Helvetica,sans-Serif" font-size="10.00">GlobalRenderInformation.cpp</text>
</a>
</g>
</g>
<!-- Node1&#45;&gt;Node5 -->
<g id="edge4" class="edge">
<title>Node1&#45;&gt;Node5</title>
<path fill="none" stroke="midnightblue" d="M2571.12,-121.41C2316.25,-122.64 1364.88,-123.56 583.5,-76 580.37,-75.81 577.17,-75.59 573.95,-75.36"/>
<polygon fill="midnightblue" stroke="midnightblue" points="2571.33,-124.91 2581.31,-121.36 2571.29,-117.91 2571.33,-124.91"/>
</g>
<!-- Node6 -->
<g id="node6" class="node">
<title>Node6</title>
<g id="a_node6"><a xlink:href="_global_style_8cpp.html" target="_top" xlink:title="Implementation of the GlobalStyle class.">
<polygon fill="white" stroke="black" points="592,-56.5 592,-75.5 685,-75.5 685,-56.5 592,-56.5"/>
<text text-anchor="middle" x="638.5" y="-63.5" font-family="Helvetica,sans-Serif" font-size="10.00">GlobalStyle.cpp</text>
</a>
</g>
</g>
<!-- Node1&#45;&gt;Node6 -->
<g id="edge5" class="edge">
<title>Node1&#45;&gt;Node6</title>
<path fill="none" stroke="midnightblue" d="M2571.05,-120.68C2276.38,-119.07 1070.8,-110.44 694.5,-76 691.46,-75.72 688.34,-75.38 685.19,-74.99"/>
<polygon fill="midnightblue" stroke="midnightblue" points="2571.13,-124.18 2581.15,-120.74 2571.17,-117.18 2571.13,-124.18"/>
</g>
<!-- Node7 -->
<g id="node7" class="node">
<title>Node7</title>
<g id="a_node7"><a xlink:href="_gradient_base_8cpp.html" target="_top" xlink:title="abstract base class for gradient objects">
<polygon fill="white" stroke="black" points="703,-56.5 703,-75.5 806,-75.5 806,-56.5 703,-56.5"/>
<text text-anchor="middle" x="754.5" y="-63.5" font-family="Helvetica,sans-Serif" font-size="10.00">GradientBase.cpp</text>
</a>
</g>
</g>
<!-- Node1&#45;&gt;Node7 -->
<g id="edge6" class="edge">
<title>Node1&#45;&gt;Node7</title>
<path fill="none" stroke="midnightblue" d="M2571.02,-120.45C2287.8,-117.92 1166.81,-106.14 815.5,-76 812.41,-75.73 809.23,-75.41 806.03,-75.05"/>
<polygon fill="midnightblue" stroke="midnightblue" points="2571.1,-123.95 2581.13,-120.54 2571.16,-116.95 2571.1,-123.95"/>
</g>
<!-- Node8 -->
<g id="node8" class="node">
<title>Node8</title>
<g id="a_node8"><a xlink:href="_gradient_stop_8cpp.html" target="_top" xlink:title="class representing a stop in a gradient definition">
<polygon fill="white" stroke="black" points="824,-56.5 824,-75.5 925,-75.5 925,-56.5 824,-56.5"/>
<text text-anchor="middle" x="874.5" y="-63.5" font-family="Helvetica,sans-Serif" font-size="10.00">GradientStop.cpp</text>
</a>
</g>
</g>
<!-- Node1&#45;&gt;Node8 -->
<g id="edge7" class="edge">
<title>Node1&#45;&gt;Node8</title>
<path fill="none" stroke="midnightblue" d="M2571.33,-120.35C2300.28,-117.46 1261.19,-104.71 934.5,-76 931.46,-75.73 928.33,-75.41 925.19,-75.05"/>
<polygon fill="midnightblue" stroke="midnightblue" points="2571.36,-123.85 2581.4,-120.45 2571.44,-116.85 2571.36,-123.85"/>
</g>
<!-- Node9 -->
<g id="node9" class="node">
<title>Node9</title>
<g id="a_node9"><a xlink:href="_graphical_primitive1_d_8cpp.html" target="_top" xlink:title="abstract base class for graphical 1D objects">
<polygon fill="white" stroke="black" points="943,-56.5 943,-75.5 1084,-75.5 1084,-56.5 943,-56.5"/>
<text text-anchor="middle" x="1013.5" y="-63.5" font-family="Helvetica,sans-Serif" font-size="10.00">GraphicalPrimitive1D.cpp</text>
</a>
</g>
</g>
<!-- Node1&#45;&gt;Node9 -->
<g id="edge8" class="edge">
<title>Node1&#45;&gt;Node9</title>
<path fill="none" stroke="midnightblue" d="M2571.35,-121.03C2358.62,-120.71 1665.24,-116.43 1093.5,-76 1090.43,-75.78 1087.3,-75.54 1084.14,-75.27"/>
<polygon fill="midnightblue" stroke="midnightblue" points="2571.4,-124.53 2581.41,-121.04 2571.41,-117.53 2571.4,-124.53"/>
</g>
<!-- Node10 -->
<g id="node10" class="node">
<title>Node10</title>
<g id="a_node10"><a xlink:href="_graphical_primitive2_d_8cpp.html" target="_top" xlink:title="Implementation of the GraphicalPrimitive2D class.">
<polygon fill="white" stroke="black" points="1102,-56.5 1102,-75.5 1243,-75.5 1243,-56.5 1102,-56.5"/>
<text text-anchor="middle" x="1172.5" y="-63.5" font-family="Helvetica,sans-Serif" font-size="10.00">GraphicalPrimitive2D.cpp</text>
</a>
</g>
</g>
<!-- Node1&#45;&gt;Node10 -->
<g id="edge9" class="edge">
<title>Node1&#45;&gt;Node10</title>
<path fill="none" stroke="midnightblue" d="M2571.11,-120.72C2372.56,-119.47 1759.25,-112.68 1252.5,-76 1249.43,-75.78 1246.3,-75.53 1243.14,-75.26"/>
<polygon fill="midnightblue" stroke="midnightblue" points="2571.35,-124.22 2581.37,-120.78 2571.39,-117.22 2571.35,-124.22"/>
</g>
<!-- Node11 -->
<g id="node11" class="node">
<title>Node11</title>
<g id="a_node11"><a xlink:href="_image_8cpp.html" target="_top" xlink:title="Implementation of the Image class.">
<polygon fill="white" stroke="black" points="1261.5,-56.5 1261.5,-75.5 1329.5,-75.5 1329.5,-56.5 1261.5,-56.5"/>
<text text-anchor="middle" x="1295.5" y="-63.5" font-family="Helvetica,sans-Serif" font-size="10.00">Image.cpp</text>
</a>
</g>
</g>
<!-- Node1&#45;&gt;Node11 -->
<g id="edge10" class="edge">
<title>Node1&#45;&gt;Node11</title>
<path fill="none" stroke="midnightblue" d="M2571.23,-120.18C2343.07,-117.08 1581.88,-104.79 1339.5,-76 1336.25,-75.61 1332.88,-75.11 1329.52,-74.54"/>
<polygon fill="midnightblue" stroke="midnightblue" points="2571.32,-123.68 2581.37,-120.31 2571.42,-116.68 2571.32,-123.68"/>
</g>
<!-- Node12 -->
<g id="node12" class="node">
<title>Node12</title>
<g id="a_node12"><a xlink:href="_linear_gradient_8cpp.html" target="_top" xlink:title="Implementation of the LinearGradient class.">
<polygon fill="white" stroke="black" points="1348,-56.5 1348,-75.5 1457,-75.5 1457,-56.5 1348,-56.5"/>
<text text-anchor="middle" x="1402.5" y="-63.5" font-family="Helvetica,sans-Serif" font-size="10.00">LinearGradient.cpp</text>
</a>
</g>
</g>
<!-- Node1&#45;&gt;Node12 -->
<g id="edge11" class="edge">
<title>Node1&#45;&gt;Node12</title>
<path fill="none" stroke="midnightblue" d="M2571.02,-120.8C2393.12,-119.77 1886.11,-113.48 1466.5,-76 1463.48,-75.73 1460.39,-75.42 1457.27,-75.07"/>
<polygon fill="midnightblue" stroke="midnightblue" points="2571.23,-124.3 2581.25,-120.86 2571.27,-117.3 2571.23,-124.3"/>
</g>
<!-- Node13 -->
<g id="node13" class="node">
<title>Node13</title>
<g id="a_node13"><a xlink:href="_line_ending_8cpp.html" target="_top" xlink:title="class representing line endings,e.g.">
<polygon fill="white" stroke="black" points="1475.5,-56.5 1475.5,-75.5 1565.5,-75.5 1565.5,-56.5 1475.5,-56.5"/>
<text text-anchor="middle" x="1520.5" y="-63.5" font-family="Helvetica,sans-Serif" font-size="10.00">LineEnding.cpp</text>
</a>
</g>
</g>
<!-- Node1&#45;&gt;Node13 -->
<g id="edge12" class="edge">
<title>Node1&#45;&gt;Node13</title>
<path fill="none" stroke="midnightblue" d="M2571.32,-120.95C2404.94,-120.22 1951.18,-114.56 1575.5,-76 1572.32,-75.67 1569.05,-75.28 1565.76,-74.85"/>
<polygon fill="midnightblue" stroke="midnightblue" points="2571.37,-124.45 2581.39,-120.99 2571.4,-117.45 2571.37,-124.45"/>
</g>
<!-- Node14 -->
<g id="node14" class="node">
<title>Node14</title>
<g id="a_node14"><a xlink:href="_list_of_color_definitions_8cpp.html" target="_top" xlink:title="Implementation of the ListOfColorDefinitions class.">
<polygon fill="white" stroke="black" points="1584,-56.5 1584,-75.5 1727,-75.5 1727,-56.5 1584,-56.5"/>
<text text-anchor="middle" x="1655.5" y="-63.5" font-family="Helvetica,sans-Serif" font-size="10.00">ListOfColorDefinitions.cpp</text>
</a>
</g>
</g>
<!-- Node1&#45;&gt;Node14 -->
<g id="edge13" class="edge">
<title>Node1&#45;&gt;Node14</title>
<path fill="none" stroke="midnightblue" d="M2571.08,-119.09C2422.54,-114.46 2048.5,-101.11 1736.5,-76 1733.4,-75.75 1730.23,-75.48 1727.03,-75.19"/>
<polygon fill="midnightblue" stroke="midnightblue" points="2571.28,-122.6 2581.38,-119.41 2571.49,-115.6 2571.28,-122.6"/>
</g>
<!-- Node15 -->
<g id="node15" class="node">
<title>Node15</title>
<g id="a_node15"><a xlink:href="_list_of_curve_elements_8cpp.html" target="_top" xlink:title="storage class for curve elements">
<polygon fill="white" stroke="black" points="1745.5,-56.5 1745.5,-75.5 1885.5,-75.5 1885.5,-56.5 1745.5,-56.5"/>
<text text-anchor="middle" x="1815.5" y="-63.5" font-family="Helvetica,sans-Serif" font-size="10.00">ListOfCurveElements.cpp</text>
</a>
</g>
</g>
<!-- Node1&#45;&gt;Node15 -->
<g id="edge14" class="edge">
<title>Node1&#45;&gt;Node15</title>
<path fill="none" stroke="midnightblue" d="M2570.99,-118.15C2441.69,-112.29 2144.6,-97.56 1895.5,-76 1892.3,-75.72 1889.02,-75.42 1885.72,-75.11"/>
<polygon fill="midnightblue" stroke="midnightblue" points="2570.97,-121.66 2581.12,-118.61 2571.29,-114.66 2570.97,-121.66"/>
</g>
<!-- Node16 -->
<g id="node16" class="node">
<title>Node16</title>
<g id="a_node16"><a xlink:href="_list_of_drawables_8cpp.html" target="_top" xlink:title="Implementation of the ListOfDrawables class.">
<polygon fill="white" stroke="black" points="1904,-56.5 1904,-75.5 2021,-75.5 2021,-56.5 1904,-56.5"/>
<text text-anchor="middle" x="1962.5" y="-63.5" font-family="Helvetica,sans-Serif" font-size="10.00">ListOfDrawables.cpp</text>
</a>
</g>
</g>
<!-- Node1&#45;&gt;Node16 -->
<g id="edge15" class="edge">
<title>Node1&#45;&gt;Node16</title>
<path fill="none" stroke="midnightblue" d="M2571.21,-117.39C2460.03,-110.95 2226.9,-96.27 2030.5,-76 2027.42,-75.68 2024.26,-75.34 2021.08,-74.97"/>
<polygon fill="midnightblue" stroke="midnightblue" points="2571.08,-120.88 2581.26,-117.96 2571.48,-113.9 2571.08,-120.88"/>
</g>
<!-- Node17 -->
<g id="node17" class="node">
<title>Node17</title>
<g id="a_node17"><a xlink:href="_list_of_global_render_information_8cpp.html" target="_top" xlink:title="Implementation of the ListOfGlobalRenderInformation class.">
<polygon fill="white" stroke="black" points="2039.5,-56.5 2039.5,-75.5 2227.5,-75.5 2227.5,-56.5 2039.5,-56.5"/>
<text text-anchor="middle" x="2133.5" y="-63.5" font-family="Helvetica,sans-Serif" font-size="10.00">ListOfGlobalRenderInformation.cpp</text>
</a>
</g>
</g>
<!-- Node1&#45;&gt;Node17 -->
<g id="edge16" class="edge">
<title>Node1&#45;&gt;Node17</title>
<path fill="none" stroke="midnightblue" d="M2571.22,-113.99C2479.26,-104.12 2311.77,-86.14 2212.78,-75.51"/>
<polygon fill="midnightblue" stroke="midnightblue" points="2570.91,-117.48 2581.23,-115.07 2571.66,-110.52 2570.91,-117.48"/>
</g>
<!-- Node18 -->
<g id="node18" class="node">
<title>Node18</title>
<g id="a_node18"><a xlink:href="_list_of_global_styles_8cpp.html" target="_top" xlink:title="Implementation of the ListOfGlobalStyles class.">
<polygon fill="white" stroke="black" points="2246,-56.5 2246,-75.5 2373,-75.5 2373,-56.5 2246,-56.5"/>
<text text-anchor="middle" x="2309.5" y="-63.5" font-family="Helvetica,sans-Serif" font-size="10.00">ListOfGlobalStyles.cpp</text>
</a>
</g>
</g>
<!-- Node1&#45;&gt;Node18 -->
<g id="edge17" class="edge">
<title>Node1&#45;&gt;Node18</title>
<path fill="none" stroke="midnightblue" d="M2574.68,-110.79C2512.89,-100.59 2418.97,-85.08 2361.07,-75.52"/>
<polygon fill="midnightblue" stroke="midnightblue" points="2574.25,-114.27 2584.69,-112.44 2575.39,-107.36 2574.25,-114.27"/>
</g>
<!-- Node19 -->
<g id="node19" class="node">
<title>Node19</title>
<g id="a_node19"><a xlink:href="_list_of_gradient_definitions_8cpp.html" target="_top" xlink:title="Implementation of the ListOfGradientDefinitions class.">
<polygon fill="white" stroke="black" points="2391.5,-56.5 2391.5,-75.5 2551.5,-75.5 2551.5,-56.5 2391.5,-56.5"/>
<text text-anchor="middle" x="2471.5" y="-63.5" font-family="Helvetica,sans-Serif" font-size="10.00">ListOfGradientDefinitions.cpp</text>
</a>
</g>
</g>
<!-- Node1&#45;&gt;Node19 -->
<g id="edge18" class="edge">
<title>Node1&#45;&gt;Node19</title>
<path fill="none" stroke="midnightblue" d="M2600.76,-109.3C2569.67,-99.13 2525.35,-84.62 2497.52,-75.52"/>
<polygon fill="midnightblue" stroke="midnightblue" points="2599.76,-112.66 2610.36,-112.44 2601.94,-106.01 2599.76,-112.66"/>
</g>
<!-- Node20 -->
<g id="node20" class="node">
<title>Node20</title>
<g id="a_node20"><a xlink:href="_list_of_gradient_stops_8cpp.html" target="_top" xlink:title="Implementation of the ListOfGradientStops class.">
<polygon fill="white" stroke="black" points="2569.5,-56.5 2569.5,-75.5 2703.5,-75.5 2703.5,-56.5 2569.5,-56.5"/>
<text text-anchor="middle" x="2636.5" y="-63.5" font-family="Helvetica,sans-Serif" font-size="10.00">ListOfGradientStops.cpp</text>
</a>
</g>
</g>
<!-- Node1&#45;&gt;Node20 -->
<g id="edge19" class="edge">
<title>Node1&#45;&gt;Node20</title>
<path fill="none" stroke="midnightblue" d="M2636.5,-101.8C2636.5,-92.91 2636.5,-82.78 2636.5,-75.75"/>
<polygon fill="midnightblue" stroke="midnightblue" points="2633,-102.08 2636.5,-112.08 2640,-102.08 2633,-102.08"/>
</g>
<!-- Node21 -->
<g id="node21" class="node">
<title>Node21</title>
<g id="a_node21"><a xlink:href="_list_of_line_endings_8cpp.html" target="_top" xlink:title="Implementation of the ListOfLineEndings class.">
<polygon fill="white" stroke="black" points="2721.5,-56.5 2721.5,-75.5 2845.5,-75.5 2845.5,-56.5 2721.5,-56.5"/>
<text text-anchor="middle" x="2783.5" y="-63.5" font-family="Helvetica,sans-Serif" font-size="10.00">ListOfLineEndings.cpp</text>
</a>
</g>
</g>
<!-- Node1&#45;&gt;Node21 -->
<g id="edge20" class="edge">
<title>Node1&#45;&gt;Node21</title>
<path fill="none" stroke="midnightblue" d="M2669.42,-108.91C2697.06,-98.75 2735.84,-84.51 2760.32,-75.52"/>
<polygon fill="midnightblue" stroke="midnightblue" points="2667.97,-105.71 2659.79,-112.44 2670.39,-112.28 2667.97,-105.71"/>
</g>
<!-- Node22 -->
<g id="node22" class="node">
<title>Node22</title>
<g id="a_node22"><a xlink:href="_list_of_local_render_information_8cpp.html" target="_top" xlink:title="Implementation of the ListOfLocalRenderInformation class.">
<polygon fill="white" stroke="black" points="2863.5,-56.5 2863.5,-75.5 3045.5,-75.5 3045.5,-56.5 2863.5,-56.5"/>
<text text-anchor="middle" x="2954.5" y="-63.5" font-family="Helvetica,sans-Serif" font-size="10.00">ListOfLocalRenderInformation.cpp</text>
</a>
</g>
</g>
<!-- Node1&#45;&gt;Node22 -->
<g id="edge21" class="edge">
<title>Node1&#45;&gt;Node22</title>
<path fill="none" stroke="midnightblue" d="M2696.99,-110.73C2757.09,-100.52 2848.16,-85.06 2904.35,-75.52"/>
<polygon fill="midnightblue" stroke="midnightblue" points="2696.16,-107.32 2686.89,-112.44 2697.33,-114.22 2696.16,-107.32"/>
</g>
<!-- Node23 -->
<g id="node23" class="node">
<title>Node23</title>
<g id="a_node23"><a xlink:href="_list_of_local_styles_8cpp.html" target="_top" xlink:title="Implementation of the ListOfLocalStyles class.">
<polygon fill="white" stroke="black" points="3064,-56.5 3064,-75.5 3185,-75.5 3185,-56.5 3064,-56.5"/>
<text text-anchor="middle" x="3124.5" y="-63.5" font-family="Helvetica,sans-Serif" font-size="10.00">ListOfLocalStyles.cpp</text>
</a>
</g>
</g>
<!-- Node1&#45;&gt;Node23 -->
<g id="edge22" class="edge">
<title>Node1&#45;&gt;Node23</title>
<path fill="none" stroke="midnightblue" d="M2701.6,-114.41C2783.87,-105.99 2929.77,-90.73 3054.5,-76 3057.54,-75.64 3060.66,-75.27 3063.8,-74.88"/>
<polygon fill="midnightblue" stroke="midnightblue" points="2701.24,-110.93 2691.65,-115.43 2701.95,-117.89 2701.24,-110.93"/>
</g>
<!-- Node24 -->
<g id="node24" class="node">
<title>Node24</title>
<g id="a_node24"><a xlink:href="_local_render_information_8cpp.html" target="_top" xlink:title="Implementation of the LocalRenderInformation class.">
<polygon fill="white" stroke="black" points="3203.5,-56.5 3203.5,-75.5 3357.5,-75.5 3357.5,-56.5 3203.5,-56.5"/>
<text text-anchor="middle" x="3280.5" y="-63.5" font-family="Helvetica,sans-Serif" font-size="10.00">LocalRenderInformation.cpp</text>
</a>
</g>
</g>
<!-- Node1&#45;&gt;Node24 -->
<g id="edge23" class="edge">
<title>Node1&#45;&gt;Node24</title>
<path fill="none" stroke="midnightblue" d="M2701.63,-116.25C2805.8,-108.55 3016.32,-92.51 3194.5,-76 3197.34,-75.74 3200.23,-75.46 3203.15,-75.18"/>
<polygon fill="midnightblue" stroke="midnightblue" points="2701.3,-112.77 2691.58,-116.99 2701.81,-119.75 2701.3,-112.77"/>
</g>
<!-- Node25 -->
<g id="node25" class="node">
<title>Node25</title>
<g id="a_node25"><a xlink:href="_local_style_8cpp.html" target="_top" xlink:title="class for representing a local style">
<polygon fill="white" stroke="black" points="3376,-56.5 3376,-75.5 3463,-75.5 3463,-56.5 3376,-56.5"/>
<text text-anchor="middle" x="3419.5" y="-63.5" font-family="Helvetica,sans-Serif" font-size="10.00">LocalStyle.cpp</text>
</a>
</g>
</g>
<!-- Node1&#45;&gt;Node25 -->
<g id="edge24" class="edge">
<title>Node1&#45;&gt;Node25</title>
<path fill="none" stroke="midnightblue" d="M2701.64,-119.31C2829.49,-115.49 3122.1,-104.2 3366.5,-76 3369.56,-75.65 3372.71,-75.24 3375.88,-74.79"/>
<polygon fill="midnightblue" stroke="midnightblue" points="2701.51,-115.82 2691.62,-119.61 2701.72,-122.81 2701.51,-115.82"/>
</g>
<!-- Node26 -->
<g id="node26" class="node">
<title>Node26</title>
<g id="a_node26"><a xlink:href="_polygon_8cpp.html" target="_top" xlink:title="Implementation of the Polygon class.">
<polygon fill="white" stroke="black" points="3481.5,-56.5 3481.5,-75.5 3557.5,-75.5 3557.5,-56.5 3481.5,-56.5"/>
<text text-anchor="middle" x="3519.5" y="-63.5" font-family="Helvetica,sans-Serif" font-size="10.00">Polygon.cpp</text>
</a>
</g>
</g>
<!-- Node1&#45;&gt;Node26 -->
<g id="edge25" class="edge">
<title>Node1&#45;&gt;Node26</title>
<path fill="none" stroke="midnightblue" d="M2701.71,-120.49C2842.8,-118.73 3186.77,-110.88 3472.5,-76 3475.39,-75.65 3478.36,-75.22 3481.35,-74.75"/>
<polygon fill="midnightblue" stroke="midnightblue" points="2701.46,-116.99 2691.5,-120.61 2701.54,-123.99 2701.46,-116.99"/>
</g>
<!-- Node27 -->
<g id="node27" class="node">
<title>Node27</title>
<g id="a_node27"><a xlink:href="_radial_gradient_8cpp.html" target="_top" xlink:title="Implementation of the RadialGradient class.">
<polygon fill="white" stroke="black" points="3575.5,-56.5 3575.5,-75.5 3685.5,-75.5 3685.5,-56.5 3575.5,-56.5"/>
<text text-anchor="middle" x="3630.5" y="-63.5" font-family="Helvetica,sans-Serif" font-size="10.00">RadialGradient.cpp</text>
</a>
</g>
</g>
<!-- Node1&#45;&gt;Node27 -->
<g id="edge26" class="edge">
<title>Node1&#45;&gt;Node27</title>
<path fill="none" stroke="midnightblue" d="M2701.75,-119.89C2853.69,-116.86 3242.82,-106.53 3566.5,-76 3569.4,-75.73 3572.38,-75.41 3575.38,-75.08"/>
<polygon fill="midnightblue" stroke="midnightblue" points="2701.59,-116.39 2691.66,-120.09 2701.72,-123.39 2701.59,-116.39"/>
</g>
<!-- Node28 -->
<g id="node28" class="node">
<title>Node28</title>
<g id="a_node28"><a xlink:href="_rectangle_8cpp.html" target="_top" xlink:title="Implementation of the Rectangle class.">
<polygon fill="white" stroke="black" points="3703.5,-56.5 3703.5,-75.5 3789.5,-75.5 3789.5,-56.5 3703.5,-56.5"/>
<text text-anchor="middle" x="3746.5" y="-63.5" font-family="Helvetica,sans-Serif" font-size="10.00">Rectangle.cpp</text>
</a>
</g>
</g>
<!-- Node1&#45;&gt;Node28 -->
<g id="edge27" class="edge">
<title>Node1&#45;&gt;Node28</title>
<path fill="none" stroke="midnightblue" d="M2701.82,-121.14C2868.01,-120.87 3320.29,-116.17 3694.5,-76 3697.42,-75.69 3700.41,-75.31 3703.43,-74.89"/>
<polygon fill="midnightblue" stroke="midnightblue" points="2701.75,-117.64 2691.76,-121.15 2701.76,-124.64 2701.75,-117.64"/>
</g>
<!-- Node29 -->
<g id="node29" class="node">
<title>Node29</title>
<g id="a_node29"><a xlink:href="_render_cubic_bezier_8cpp.html" target="_top" xlink:title="Implementation of the RenderCubicBezier class.">
<polygon fill="white" stroke="black" points="3807.5,-56.5 3807.5,-75.5 3935.5,-75.5 3935.5,-56.5 3807.5,-56.5"/>
<text text-anchor="middle" x="3871.5" y="-63.5" font-family="Helvetica,sans-Serif" font-size="10.00">RenderCubicBezier.cpp</text>
</a>
</g>
</g>
<!-- Node1&#45;&gt;Node29 -->
<g id="edge28" class="edge">
<title>Node1&#45;&gt;Node29</title>
<path fill="none" stroke="midnightblue" d="M2701.82,-120.39C2878.69,-118.33 3381.7,-109.7 3798.5,-76 3801.43,-75.76 3804.42,-75.5 3807.44,-75.21"/>
<polygon fill="midnightblue" stroke="midnightblue" points="2701.6,-116.89 2691.64,-120.51 2701.68,-123.89 2701.6,-116.89"/>
</g>
<!-- Node30 -->
<g id="node30" class="node">
<title>Node30</title>
<g id="a_node30"><a xlink:href="_render_curve_8cpp.html" target="_top" xlink:title="Implementation of the RenderCurve class.">
<polygon fill="white" stroke="black" points="3953.5,-56.5 3953.5,-75.5 4053.5,-75.5 4053.5,-56.5 3953.5,-56.5"/>
<text text-anchor="middle" x="4003.5" y="-63.5" font-family="Helvetica,sans-Serif" font-size="10.00">RenderCurve.cpp</text>
</a>
</g>
</g>
<!-- Node1&#45;&gt;Node30 -->
<g id="edge29" class="edge">
<title>Node1&#45;&gt;Node30</title>
<path fill="none" stroke="midnightblue" d="M2701.97,-121.45C2893.53,-122.19 3469.37,-120.26 3944.5,-76 3947.39,-75.73 3950.35,-75.41 3953.34,-75.06"/>
<polygon fill="midnightblue" stroke="midnightblue" points="2701.8,-117.95 2691.79,-121.41 2701.77,-124.95 2701.8,-117.95"/>
</g>
<!-- Node31 -->
<g id="node31" class="node">
<title>Node31</title>
<g id="a_node31"><a xlink:href="_render_group_8cpp.html" target="_top" xlink:title="Implementation of the RenderGroup class.">
<polygon fill="white" stroke="black" points="4072,-56.5 4072,-75.5 4173,-75.5 4173,-56.5 4072,-56.5"/>
<text text-anchor="middle" x="4122.5" y="-63.5" font-family="Helvetica,sans-Serif" font-size="10.00">RenderGroup.cpp</text>
</a>
</g>
</g>
<!-- Node1&#45;&gt;Node31 -->
<g id="edge30" class="edge">
<title>Node1&#45;&gt;Node31</title>
<path fill="none" stroke="midnightblue" d="M2701.62,-119.96C2943.86,-115.94 3792.86,-100.39 4062.5,-76 4065.54,-75.72 4068.67,-75.4 4071.81,-75.03"/>
<polygon fill="midnightblue" stroke="midnightblue" points="2701.5,-116.46 2691.56,-120.13 2701.61,-123.46 2701.5,-116.46"/>
</g>
<!-- Node32 -->
<g id="node32" class="node">
<title>Node32</title>
<g id="a_node32"><a xlink:href="_render_information_base_8cpp.html" target="_top" xlink:title="Implementation of the RenderInformationBase class.">
<polygon fill="white" stroke="black" points="4191.5,-56.5 4191.5,-75.5 4343.5,-75.5 4343.5,-56.5 4191.5,-56.5"/>
<text text-anchor="middle" x="4267.5" y="-63.5" font-family="Helvetica,sans-Serif" font-size="10.00">RenderInformationBase.cpp</text>
</a>
</g>
</g>
<!-- Node1&#45;&gt;Node32 -->
<g id="edge31" class="edge">
<title>Node1&#45;&gt;Node32</title>
<path fill="none" stroke="midnightblue" d="M2701.77,-120.88C2914.88,-120.12 3609.52,-114.62 4182.5,-76 4185.31,-75.81 4188.18,-75.6 4191.07,-75.37"/>
<polygon fill="midnightblue" stroke="midnightblue" points="2701.68,-117.38 2691.69,-120.92 2701.7,-124.38 2701.68,-117.38"/>
</g>
<!-- Node33 -->
<g id="node33" class="node">
<title>Node33</title>
<g id="a_node33"><a xlink:href="_render_point_8cpp.html" target="_top" xlink:title="Implementation of the RenderPoint class.">
<polygon fill="white" stroke="black" points="4361.5,-56.5 4361.5,-75.5 4457.5,-75.5 4457.5,-56.5 4361.5,-56.5"/>
<text text-anchor="middle" x="4409.5" y="-63.5" font-family="Helvetica,sans-Serif" font-size="10.00">RenderPoint.cpp</text>
</a>
</g>
</g>
<!-- Node1&#45;&gt;Node33 -->
<g id="edge32" class="edge">
<title>Node1&#45;&gt;Node33</title>
<path fill="none" stroke="midnightblue" d="M2701.76,-120.43C2974.35,-117.86 4023.05,-106.2 4352.5,-76 4355.39,-75.73 4358.36,-75.41 4361.35,-75.05"/>
<polygon fill="midnightblue" stroke="midnightblue" points="2701.6,-116.93 2691.63,-120.52 2701.66,-123.93 2701.6,-116.93"/>
</g>
<!-- Node34 -->
<g id="node34" class="node">
<title>Node34</title>
<g id="a_node34"><a xlink:href="_style_8cpp.html" target="_top" xlink:title="Implementation of the Style class.">
<polygon fill="white" stroke="black" points="4475.5,-56.5 4475.5,-75.5 4537.5,-75.5 4537.5,-56.5 4475.5,-56.5"/>
<text text-anchor="middle" x="4506.5" y="-63.5" font-family="Helvetica,sans-Serif" font-size="10.00">Style.cpp</text>
</a>
</g>
</g>
<!-- Node1&#45;&gt;Node34 -->
<g id="edge33" class="edge">
<title>Node1&#45;&gt;Node34</title>
<path fill="none" stroke="midnightblue" d="M2701.9,-121.12C2986.03,-121.35 4114.64,-119.48 4466.5,-76 4469.33,-75.65 4472.24,-75.19 4475.16,-74.66"/>
<polygon fill="midnightblue" stroke="midnightblue" points="2701.76,-117.62 2691.76,-121.11 2701.76,-124.62 2701.76,-117.62"/>
</g>
<!-- Node35 -->
<g id="node35" class="node">
<title>Node35</title>
<g id="a_node35"><a xlink:href="_text_8cpp.html" target="_top" xlink:title="Implementation of the Text class.">
<polygon fill="white" stroke="black" points="4556,-56.5 4556,-75.5 4613,-75.5 4613,-56.5 4556,-56.5"/>
<text text-anchor="middle" x="4584.5" y="-63.5" font-family="Helvetica,sans-Serif" font-size="10.00">Text.cpp</text>
</a>
</g>
</g>
<!-- Node1&#45;&gt;Node35 -->
<g id="edge34" class="edge">
<title>Node1&#45;&gt;Node35</title>
<path fill="none" stroke="midnightblue" d="M2702.33,-121.29C2994.85,-122.32 4178.49,-123.39 4546.5,-76 4549.59,-75.6 4552.8,-75.06 4555.98,-74.43"/>
<polygon fill="midnightblue" stroke="midnightblue" points="2701.91,-117.79 2691.9,-121.26 2701.89,-124.79 2701.91,-117.79"/>
</g>
<!-- Node36 -->
<g id="node36" class="node">
<title>Node36</title>
<g id="a_node36"><a xlink:href="_transformation_8cpp.html" target="_top" xlink:title="class representing a 3D affine transformation">
<polygon fill="white" stroke="black" points="4631.5,-56.5 4631.5,-75.5 4741.5,-75.5 4741.5,-56.5 4631.5,-56.5"/>
<text text-anchor="middle" x="4686.5" y="-63.5" font-family="Helvetica,sans-Serif" font-size="10.00">Transformation.cpp</text>
</a>
</g>
</g>
<!-- Node1&#45;&gt;Node36 -->
<g id="edge35" class="edge">
<title>Node1&#45;&gt;Node36</title>
<path fill="none" stroke="midnightblue" d="M2701.93,-120.55C3000.62,-118.33 4236.71,-107.39 4622.5,-76 4625.41,-75.76 4628.38,-75.48 4631.39,-75.17"/>
<polygon fill="midnightblue" stroke="midnightblue" points="2701.67,-117.05 2691.7,-120.62 2701.73,-124.05 2701.67,-117.05"/>
</g>
<!-- Node37 -->
<g id="node37" class="node">
<title>Node37</title>
<g id="a_node37"><a xlink:href="_transformation2_d_8cpp.html" target="_top" xlink:title="class representing a 2D affine transformation">
<polygon fill="white" stroke="black" points="4759.5,-56.5 4759.5,-75.5 4883.5,-75.5 4883.5,-56.5 4759.5,-56.5"/>
<text text-anchor="middle" x="4821.5" y="-63.5" font-family="Helvetica,sans-Serif" font-size="10.00">Transformation2D.cpp</text>
</a>
</g>
</g>
<!-- Node1&#45;&gt;Node37 -->
<g id="edge36" class="edge">
<title>Node1&#45;&gt;Node37</title>
<path fill="none" stroke="midnightblue" d="M2702.04,-120.53C3012.57,-118.17 4337.83,-106.46 4750.5,-76 4753.35,-75.79 4756.26,-75.54 4759.2,-75.27"/>
<polygon fill="midnightblue" stroke="midnightblue" points="2701.83,-117.03 2691.86,-120.61 2701.88,-124.03 2701.83,-117.03"/>
</g>
<!-- Node38 -->
<g id="node38" class="node">
<title>Node38</title>
<g id="a_node38"><a xlink:href="_render_s_b_m_l_error_table_8h.html" target="_top" xlink:title="Definition of the RenderSBMLErrorTable class.">
<polygon fill="white" stroke="black" points="4901.5,-56.5 4901.5,-75.5 5037.5,-75.5 5037.5,-56.5 4901.5,-56.5"/>
<text text-anchor="middle" x="4969.5" y="-63.5" font-family="Helvetica,sans-Serif" font-size="10.00">RenderSBMLErrorTable.h</text>
</a>
</g>
</g>
<!-- Node1&#45;&gt;Node38 -->
<g id="edge37" class="edge">
<title>Node1&#45;&gt;Node38</title>
<path fill="none" stroke="midnightblue" d="M2701.66,-120.55C3023.97,-118.19 4449.8,-106.22 4892.5,-76 4895.32,-75.81 4898.2,-75.59 4901.1,-75.34"/>
<polygon fill="midnightblue" stroke="midnightblue" points="2701.53,-117.05 2691.56,-120.62 2701.58,-124.05 2701.53,-117.05"/>
</g>
<!-- Node39 -->
<g id="node39" class="node">
<title>Node39</title>
<g id="a_node39"><a xlink:href="_render_extension_8cpp.html" target="_top" xlink:title="Implementation of RenderExtension, the core module of the render package.">
<polygon fill="white" stroke="black" points="4910,-0.5 4910,-19.5 5029,-19.5 5029,-0.5 4910,-0.5"/>
<text text-anchor="middle" x="4969.5" y="-7.5" font-family="Helvetica,sans-Serif" font-size="10.00">RenderExtension.cpp</text>
</a>
</g>
</g>
<!-- Node38&#45;&gt;Node39 -->
<g id="edge38" class="edge">
<title>Node38&#45;&gt;Node39</title>
<path fill="none" stroke="midnightblue" d="M4969.5,-45.8C4969.5,-36.91 4969.5,-26.78 4969.5,-19.75"/>
<polygon fill="midnightblue" stroke="midnightblue" points="4966,-46.08 4969.5,-56.08 4973,-46.08 4966,-46.08"/>
</g>
</g>
</svg>
        <g id="navigator" transform="translate(0 0)" fill="#404254">
                <rect fill="#f2f5e9" fill-opacity="0.5" stroke="#606060" stroke-width=".5" x="0" y="0" width="60" height="60"/>
                <use id="zoomplus" xlink:href="#zoomPlus" x="17" y="9" onmousedown="handleZoom(evt,'in')"/>
                <use id="zoomminus" xlink:href="#zoomMin" x="42" y="9" onmousedown="handleZoom(evt,'out')"/>
                <use id="reset" xlink:href="#resetDef" x="30" y="36" onmousedown="handleReset()"/>
                <g id="arrowUp" xlink:href="#dirArrow" transform="translate(30 24)" onmousedown="handlePan(0,-1)">
                  <use xlink:href="#rim" fill="#404040">
                        <set attributeName="fill" to="#808080" begin="arrowUp.mouseover" end="arrowUp.mouseout"/>
                  </use>
                  <path fill="none" stroke="white" stroke-width="1.5" d="M0,-3.0v7 M-2.5,-0.5L0,-3.0L2.5,-0.5"/>
                </g>
                <g id="arrowRight" xlink:href="#dirArrow" transform="rotate(90) translate(36 -43)" onmousedown="handlePan(1,0)">
                  <use xlink:href="#rim" fill="#404040">
                        <set attributeName="fill" to="#808080" begin="arrowRight.mouseover" end="arrowRight.mouseout"/>
                  </use>
                  <path fill="none" stroke="white" stroke-width="1.5" d="M0,-3.0v7 M-2.5,-0.5L0,-3.0L2.5,-0.5"/>
                </g>
                <g id="arrowDown" xlink:href="#dirArrow" transform="rotate(180) translate(-30 -48)" onmousedown="handlePan(0,1)">
                  <use xlink:href="#rim" fill="#404040">
                        <set attributeName="fill" to="#808080" begin="arrowDown.mouseover" end="arrowDown.mouseout"/>
                  </use>
                  <path fill="none" stroke="white" stroke-width="1.5" d="M0,-3.0v7 M-2.5,-0.5L0,-3.0L2.5,-0.5"/>
                </g>
                <g id="arrowLeft" xlink:href="#dirArrow" transform="rotate(270) translate(-36 17)" onmousedown="handlePan(-1,0)">
                  <use xlink:href="#rim" fill="#404040">
                        <set attributeName="fill" to="#808080" begin="arrowLeft.mouseover" end="arrowLeft.mouseout"/>
                  </use>
                  <path fill="none" stroke="white" stroke-width="1.5" d="M0,-3.0v7 M-2.5,-0.5L0,-3.0L2.5,-0.5"/>
                </g>
        </g>
        <svg viewBox="0 0 15 15" width="100%" height="30px" preserveAspectRatio="xMaxYMin meet">
         <g id="arrow_out" transform="scale(0.3 0.3)">
          <a xlink:href="_render_s_b_m_l_error_8h__dep__incl_org.svg" target="_base">
           <rect id="button" ry="5" rx="5" y="6" x="6" height="38" width="38"
                fill="#f2f5e9" fill-opacity="0.5" stroke="#606060" stroke-width="1.0"/>
           <path id="arrow"
             d="M 11.500037,31.436501 C 11.940474,20.09759 22.043105,11.32322 32.158766,21.979434 L 37.068811,17.246167 C 37.068811,17.246167 37.088388,32 37.088388,32 L 22.160133,31.978069 C 22.160133,31.978069 26.997745,27.140456 26.997745,27.140456 C 18.528582,18.264221 13.291696,25.230495 11.500037,31.436501 z"
             style="fill:#404040;"/>
          </a>
         </g>
        </svg>
</svg>
