<?xml version="1.0" encoding="UTF-8" standalone="no"?>
<!DOCTYPE svg PUBLIC "-//W3C//DTD SVG 1.1//EN"
 "http://www.w3.org/Graphics/SVG/1.1/DTD/svg11.dtd">
<!-- Generated by graphviz version 2.43.0 (0)
 -->
<!-- Title: RenderInformationBase.h Pages: 1 -->
<!--zoomable 364 -->
<svg id="main" version="1.1" xmlns="http://www.w3.org/2000/svg" xmlns:xlink="http://www.w3.org/1999/xlink" xml:space="preserve" onload="init(evt)">
<style type="text/css"><![CDATA[
.edge:hover path { stroke: red; }
.edge:hover polygon { stroke: red; fill: red; }
]]></style>
<script type="text/javascript"><![CDATA[
var edges = document.getElementsByTagName('g');
if (edges && edges.length) {
  for (var i=0;i<edges.length;i++) {
    if (edges[i].id.substr(0,4)=='edge') {
      edges[i].setAttribute('class','edge');
    }
  }
}
]]></script>
        <defs>
                <circle id="rim" cx="0" cy="0" r="7"/>
                <circle id="rim2" cx="0" cy="0" r="3.5"/>
                <g id="zoomPlus">
                        <use xlink:href="#rim" fill="#404040">
                                <set attributeName="fill" to="#808080" begin="zoomplus.mouseover" end="zoomplus.mouseout"/>
                        </use>
                        <path d="M-4,0h8M0,-4v8" fill="none" stroke="white" stroke-width="1.5" pointer-events="none"/>
                </g>
                <g id="zoomMin">
                        <use xlink:href="#rim" fill="#404040">
                                <set attributeName="fill" to="#808080" begin="zoomminus.mouseover" end="zoomminus.mouseout"/>
                        </use>
                        <path d="M-4,0h8" fill="none" stroke="white" stroke-width="1.5" pointer-events="none"/>
                </g>
                <g id="dirArrow">
                        <path fill="none" stroke="white" stroke-width="1.5" d="M0,-3.0v7 M-2.5,-0.5L0,-3.0L2.5,-0.5"/>
                </g>
               <g id="resetDef">
                       <use xlink:href="#rim2" fill="#404040">
                               <set attributeName="fill" to="#808080" begin="reset.mouseover" end="reset.mouseout"/>
                       </use>
               </g>
        </defs>

<script type="text/javascript">
var viewWidth = 1490;
var viewHeight = 364;
var sectionId = 'dynsection-1';
</script>
<script xlink:href="svgpan.js"/>
<svg id="graph" class="graph">
<g id="viewport">
<title>RenderInformationBase.h</title>
<polygon fill="white" stroke="transparent" points="-4,4 -4,-360 1486,-360 1486,4 -4,4"/>
<!-- Node1 -->
<g id="node1" class="node">
<title>Node1</title>
<g id="a_node1"><a xlink:title="Definition of the RenderInformationBase class.">
<polygon fill="#bfbfbf" stroke="black" points="683.5,-336.5 683.5,-355.5 824.5,-355.5 824.5,-336.5 683.5,-336.5"/>
<text text-anchor="middle" x="754" y="-343.5" font-family="Helvetica,sans-Serif" font-size="10.00">RenderInformationBase.h</text>
</a>
</g>
</g>
<!-- Node2 -->
<g id="node2" class="node">
<title>Node2</title>
<g id="a_node2"><a xlink:href="_render_extension_types_8h.html" target="_top" xlink:title="Definition of RenderExtensionTypes.">
<polygon fill="white" stroke="black" points="720,-112.5 720,-131.5 856,-131.5 856,-112.5 720,-112.5"/>
<text text-anchor="middle" x="788" y="-119.5" font-family="Helvetica,sans-Serif" font-size="10.00">RenderExtensionTypes.h</text>
</a>
</g>
</g>
<!-- Node1&#45;&gt;Node2 -->
<g id="edge1" class="edge">
<title>Node1&#45;&gt;Node2</title>
<path fill="none" stroke="midnightblue" d="M745.38,-327.02C730.78,-293.8 705.15,-221.34 731,-168 739.03,-151.43 756.44,-139.13 769.92,-131.61"/>
<polygon fill="midnightblue" stroke="midnightblue" points="742.31,-328.72 749.66,-336.35 748.67,-325.8 742.31,-328.72"/>
</g>
<!-- Node9 -->
<g id="node9" class="node">
<title>Node9</title>
<g id="a_node9"><a xlink:href="_global_render_information_8h.html" target="_top" xlink:title="Definition of the GlobalRenderInformation class.">
<polygon fill="white" stroke="black" points="434.5,-280.5 434.5,-299.5 583.5,-299.5 583.5,-280.5 434.5,-280.5"/>
<text text-anchor="middle" x="509" y="-287.5" font-family="Helvetica,sans-Serif" font-size="10.00">GlobalRenderInformation.h</text>
</a>
</g>
</g>
<!-- Node1&#45;&gt;Node9 -->
<g id="edge10" class="edge">
<title>Node1&#45;&gt;Node9</title>
<path fill="none" stroke="midnightblue" d="M705.37,-334.28C659.07,-324.08 590.31,-308.92 547.64,-299.52"/>
<polygon fill="midnightblue" stroke="midnightblue" points="704.66,-337.71 715.18,-336.44 706.17,-330.87 704.66,-337.71"/>
</g>
<!-- Node15 -->
<g id="node15" class="node">
<title>Node15</title>
<g id="a_node15"><a xlink:href="_render_information_base_8cpp.html" target="_top" xlink:title="Implementation of the RenderInformationBase class.">
<polygon fill="white" stroke="black" points="740,-168.5 740,-187.5 892,-187.5 892,-168.5 740,-168.5"/>
<text text-anchor="middle" x="816" y="-175.5" font-family="Helvetica,sans-Serif" font-size="10.00">RenderInformationBase.cpp</text>
</a>
</g>
</g>
<!-- Node1&#45;&gt;Node15 -->
<g id="edge43" class="edge">
<title>Node1&#45;&gt;Node15</title>
<path fill="none" stroke="midnightblue" d="M760.95,-326.39C774.32,-290.59 803.17,-213.34 812.8,-187.57"/>
<polygon fill="midnightblue" stroke="midnightblue" points="757.55,-325.48 757.33,-336.08 764.11,-327.93 757.55,-325.48"/>
</g>
<!-- Node16 -->
<g id="node16" class="node">
<title>Node16</title>
<g id="a_node16"><a xlink:href="_local_render_information_8h.html" target="_top" xlink:title="Definition of the LocalRenderInformation class.">
<polygon fill="white" stroke="black" points="848.5,-280.5 848.5,-299.5 991.5,-299.5 991.5,-280.5 848.5,-280.5"/>
<text text-anchor="middle" x="920" y="-287.5" font-family="Helvetica,sans-Serif" font-size="10.00">LocalRenderInformation.h</text>
</a>
</g>
</g>
<!-- Node1&#45;&gt;Node16 -->
<g id="edge27" class="edge">
<title>Node1&#45;&gt;Node16</title>
<path fill="none" stroke="midnightblue" d="M789.95,-333.3C821.23,-323.13 865.82,-308.62 893.82,-299.52"/>
<polygon fill="midnightblue" stroke="midnightblue" points="788.73,-330.02 780.3,-336.44 790.9,-336.68 788.73,-330.02"/>
</g>
<!-- Node3 -->
<g id="node3" class="node">
<title>Node3</title>
<g id="a_node3"><a xlink:href="_render_layout_plugin_8cpp.html" target="_top" xlink:title="Implementation of RenderLayoutPlugin, the plugin class of the fbc package for the Model element.">
<polygon fill="white" stroke="black" points="1032,-0.5 1032,-19.5 1166,-19.5 1166,-0.5 1032,-0.5"/>
<text text-anchor="middle" x="1099" y="-7.5" font-family="Helvetica,sans-Serif" font-size="10.00">RenderLayoutPlugin.cpp</text>
</a>
</g>
</g>
<!-- Node2&#45;&gt;Node3 -->
<g id="edge2" class="edge">
<title>Node2&#45;&gt;Node3</title>
<path fill="none" stroke="midnightblue" d="M866.07,-112.9C929.29,-105.3 1012.51,-92.62 1042,-76 1066.32,-62.3 1085.39,-34.19 1094,-19.85"/>
<polygon fill="midnightblue" stroke="midnightblue" points="865.62,-109.43 856.1,-114.08 866.44,-116.38 865.62,-109.43"/>
</g>
<!-- Node4 -->
<g id="node4" class="node">
<title>Node4</title>
<g id="a_node4"><a xlink:href="_render_layout_converter_8cpp.html" target="_top" xlink:title="Simple converter to convert Layout + Render from l2 to L3 and vice versa.">
<polygon fill="white" stroke="black" points="595,-56.5 595,-75.5 747,-75.5 747,-56.5 595,-56.5"/>
<text text-anchor="middle" x="671" y="-63.5" font-family="Helvetica,sans-Serif" font-size="10.00">RenderLayoutConverter.cpp</text>
</a>
</g>
</g>
<!-- Node2&#45;&gt;Node4 -->
<g id="edge3" class="edge">
<title>Node2&#45;&gt;Node4</title>
<path fill="none" stroke="midnightblue" d="M760.34,-108.23C738.45,-98.13 708.5,-84.31 689.45,-75.52"/>
<polygon fill="midnightblue" stroke="midnightblue" points="758.91,-111.43 769.46,-112.44 761.85,-105.08 758.91,-111.43"/>
</g>
<!-- Node5 -->
<g id="node5" class="node">
<title>Node5</title>
<g id="a_node5"><a xlink:href="_render_utilities_8cpp.html" target="_top" xlink:title="implementation of RenderUtilities, a class of utility functions for the render package">
<polygon fill="white" stroke="black" points="812,-0.5 812,-19.5 922,-19.5 922,-0.5 812,-0.5"/>
<text text-anchor="middle" x="867" y="-7.5" font-family="Helvetica,sans-Serif" font-size="10.00">RenderUtilities.cpp</text>
</a>
</g>
</g>
<!-- Node2&#45;&gt;Node5 -->
<g id="edge4" class="edge">
<title>Node2&#45;&gt;Node5</title>
<path fill="none" stroke="midnightblue" d="M785.47,-102C784.6,-88.23 785.51,-69.69 794,-56 804.91,-38.41 825.49,-26.66 842.03,-19.59"/>
<polygon fill="midnightblue" stroke="midnightblue" points="782.01,-102.64 786.49,-112.24 788.98,-101.94 782.01,-102.64"/>
</g>
<!-- Node6 -->
<g id="node6" class="node">
<title>Node6</title>
<g id="a_node6"><a xlink:href="_render_utilities_8h.html" target="_top" xlink:title="Definition of RenderUtilities, a class of utility functions for the render package.">
<polygon fill="white" stroke="black" points="935,-56.5 935,-75.5 1033,-75.5 1033,-56.5 935,-56.5"/>
<text text-anchor="middle" x="984" y="-63.5" font-family="Helvetica,sans-Serif" font-size="10.00">RenderUtilities.h</text>
</a>
</g>
</g>
<!-- Node2&#45;&gt;Node6 -->
<g id="edge5" class="edge">
<title>Node2&#45;&gt;Node6</title>
<path fill="none" stroke="midnightblue" d="M829.02,-109.7C866.01,-99.51 919.6,-84.74 953.09,-75.52"/>
<polygon fill="midnightblue" stroke="midnightblue" points="827.77,-106.41 819.06,-112.44 829.63,-113.16 827.77,-106.41"/>
</g>
<!-- Node8 -->
<g id="node8" class="node">
<title>Node8</title>
<g id="a_node8"><a xlink:href="_render_validator_8cpp.html" target="_top" xlink:title="Definition of RenderValidator.">
<polygon fill="white" stroke="black" points="803,-56.5 803,-75.5 917,-75.5 917,-56.5 803,-56.5"/>
<text text-anchor="middle" x="860" y="-63.5" font-family="Helvetica,sans-Serif" font-size="10.00">RenderValidator.cpp</text>
</a>
</g>
</g>
<!-- Node2&#45;&gt;Node8 -->
<g id="edge9" class="edge">
<title>Node2&#45;&gt;Node8</title>
<path fill="none" stroke="midnightblue" d="M807.87,-106.1C820.82,-96.38 837.3,-84.03 848.22,-75.83"/>
<polygon fill="midnightblue" stroke="midnightblue" points="805.47,-103.52 799.57,-112.32 809.67,-109.12 805.47,-103.52"/>
</g>
<!-- Node6&#45;&gt;Node3 -->
<g id="edge6" class="edge">
<title>Node6&#45;&gt;Node3</title>
<path fill="none" stroke="midnightblue" d="M1011.48,-52.1C1032.97,-42.01 1062.22,-28.27 1080.86,-19.52"/>
<polygon fill="midnightblue" stroke="midnightblue" points="1009.79,-49.02 1002.22,-56.44 1012.76,-55.36 1009.79,-49.02"/>
</g>
<!-- Node6&#45;&gt;Node5 -->
<g id="edge8" class="edge">
<title>Node6&#45;&gt;Node5</title>
<path fill="none" stroke="midnightblue" d="M956.34,-52.23C934.45,-42.13 904.5,-28.31 885.45,-19.52"/>
<polygon fill="midnightblue" stroke="midnightblue" points="954.91,-55.43 965.46,-56.44 957.85,-49.08 954.91,-55.43"/>
</g>
<!-- Node7 -->
<g id="node7" class="node">
<title>Node7</title>
<g id="a_node7"><a xlink:href="_render_list_of_layouts_plugin_8cpp.html" target="_top" xlink:title="Implementation of RenderListOfLayoutsPlugin, the plugin class of the fbc package for the Model elemen...">
<polygon fill="white" stroke="black" points="151,-0.5 151,-19.5 319,-19.5 319,-0.5 151,-0.5"/>
<text text-anchor="middle" x="235" y="-7.5" font-family="Helvetica,sans-Serif" font-size="10.00">RenderListOfLayoutsPlugin.cpp</text>
</a>
</g>
</g>
<!-- Node6&#45;&gt;Node7 -->
<g id="edge7" class="edge">
<title>Node6&#45;&gt;Node7</title>
<path fill="none" stroke="midnightblue" d="M924.99,-55.99C700.37,-31.66 447.69,-19.29 319.24,-14.07"/>
<polygon fill="midnightblue" stroke="midnightblue" points="924.67,-59.47 934.99,-57.08 925.43,-52.52 924.67,-59.47"/>
</g>
<!-- Node9&#45;&gt;Node2 -->
<g id="edge11" class="edge">
<title>Node9&#45;&gt;Node2</title>
<path fill="none" stroke="midnightblue" d="M529.85,-274.62C564.21,-251.16 635.18,-203.68 698,-168 722.15,-154.28 751.02,-140.25 769.43,-131.58"/>
<polygon fill="midnightblue" stroke="midnightblue" points="527.82,-271.77 521.55,-280.31 531.77,-277.54 527.82,-271.77"/>
</g>
<!-- Node9&#45;&gt;Node7 -->
<g id="edge12" class="edge">
<title>Node9&#45;&gt;Node7</title>
<path fill="none" stroke="midnightblue" d="M424.26,-287.94C279.49,-283.82 0,-264.75 0,-179 0,-179 0,-179 0,-121 0,-52.3 83.39,-26.42 150.82,-16.72"/>
<polygon fill="midnightblue" stroke="midnightblue" points="424.35,-291.45 434.44,-288.21 424.54,-284.45 424.35,-291.45"/>
</g>
<!-- Node10 -->
<g id="node10" class="node">
<title>Node10</title>
<g id="a_node10"><a xlink:href="_render_list_of_layouts_plugin_8h.html" target="_top" xlink:title="Definition of RenderListOfLayoutsPlugin, the plugin class of fbc package for the Model element.">
<polygon fill="white" stroke="black" points="488.5,-168.5 488.5,-187.5 645.5,-187.5 645.5,-168.5 488.5,-168.5"/>
<text text-anchor="middle" x="567" y="-175.5" font-family="Helvetica,sans-Serif" font-size="10.00">RenderListOfLayoutsPlugin.h</text>
</a>
</g>
</g>
<!-- Node9&#45;&gt;Node10 -->
<g id="edge13" class="edge">
<title>Node9&#45;&gt;Node10</title>
<path fill="none" stroke="midnightblue" d="M525.89,-273C533.57,-264.93 542.21,-254.62 548,-244 558.13,-225.42 563.41,-200.83 565.65,-187.87"/>
<polygon fill="midnightblue" stroke="midnightblue" points="523.24,-270.69 518.67,-280.25 528.21,-275.63 523.24,-270.69"/>
</g>
<!-- Node12 -->
<g id="node12" class="node">
<title>Node12</title>
<g id="a_node12"><a xlink:href="_global_render_information_8cpp.html" target="_top" xlink:title="class for the storage of global render information">
<polygon fill="white" stroke="black" points="28,-168.5 28,-187.5 188,-187.5 188,-168.5 28,-168.5"/>
<text text-anchor="middle" x="108" y="-175.5" font-family="Helvetica,sans-Serif" font-size="10.00">GlobalRenderInformation.cpp</text>
</a>
</g>
</g>
<!-- Node9&#45;&gt;Node12 -->
<g id="edge18" class="edge">
<title>Node9&#45;&gt;Node12</title>
<path fill="none" stroke="midnightblue" d="M468.1,-277.78C387.74,-255.74 210.83,-207.21 139.11,-187.53"/>
<polygon fill="midnightblue" stroke="midnightblue" points="467.3,-281.19 477.87,-280.46 469.15,-274.44 467.3,-281.19"/>
</g>
<!-- Node13 -->
<g id="node13" class="node">
<title>Node13</title>
<g id="a_node13"><a xlink:href="_list_of_global_render_information_8h.html" target="_top" xlink:title="Definition of the ListOfGlobalRenderInformation class.">
<polygon fill="white" stroke="black" points="362.5,-224.5 362.5,-243.5 539.5,-243.5 539.5,-224.5 362.5,-224.5"/>
<text text-anchor="middle" x="451" y="-231.5" font-family="Helvetica,sans-Serif" font-size="10.00">ListOfGlobalRenderInformation.h</text>
</a>
</g>
</g>
<!-- Node9&#45;&gt;Node13 -->
<g id="edge19" class="edge">
<title>Node9&#45;&gt;Node13</title>
<path fill="none" stroke="midnightblue" d="M486.56,-273.82C475.1,-264.15 462.33,-251.95 455.34,-243.83"/>
<polygon fill="midnightblue" stroke="midnightblue" points="484.6,-276.74 494.57,-280.32 489.01,-271.3 484.6,-276.74"/>
</g>
<!-- Node9&#45;&gt;Node15 -->
<g id="edge26" class="edge">
<title>Node9&#45;&gt;Node15</title>
<path fill="none" stroke="midnightblue" d="M548.8,-277.59C578.1,-268.96 618.78,-256.51 654,-244 705.97,-225.54 765.93,-200.48 796.25,-187.53"/>
<polygon fill="midnightblue" stroke="midnightblue" points="547.56,-274.31 538.95,-280.47 549.53,-281.02 547.56,-274.31"/>
</g>
<!-- Node10&#45;&gt;Node2 -->
<g id="edge14" class="edge">
<title>Node10&#45;&gt;Node2</title>
<path fill="none" stroke="midnightblue" d="M611.92,-166.02C653.67,-155.82 714.98,-140.84 753.15,-131.52"/>
<polygon fill="midnightblue" stroke="midnightblue" points="610.9,-162.67 602.02,-168.44 612.56,-169.47 610.9,-162.67"/>
</g>
<!-- Node10&#45;&gt;Node5 -->
<g id="edge17" class="edge">
<title>Node10&#45;&gt;Node5</title>
<path fill="none" stroke="midnightblue" d="M563.85,-158.23C560.55,-131.58 559.07,-83.01 586,-56 616.83,-25.08 739.04,-15.4 811.75,-12.38"/>
<polygon fill="midnightblue" stroke="midnightblue" points="560.39,-158.79 565.3,-168.18 567.32,-157.78 560.39,-158.79"/>
</g>
<!-- Node10&#45;&gt;Node7 -->
<g id="edge16" class="edge">
<title>Node10&#45;&gt;Node7</title>
<path fill="none" stroke="midnightblue" d="M540.35,-163.67C474.68,-130.84 306.54,-46.77 252.21,-19.61"/>
<polygon fill="midnightblue" stroke="midnightblue" points="539.11,-166.97 549.62,-168.31 542.24,-160.71 539.11,-166.97"/>
</g>
<!-- Node11 -->
<g id="node11" class="node">
<title>Node11</title>
<g id="a_node11"><a xlink:href="_render_extension_8cpp.html" target="_top" xlink:title="Implementation of RenderExtension, the core module of the render package.">
<polygon fill="white" stroke="black" points="900.5,-112.5 900.5,-131.5 1019.5,-131.5 1019.5,-112.5 900.5,-112.5"/>
<text text-anchor="middle" x="960" y="-119.5" font-family="Helvetica,sans-Serif" font-size="10.00">RenderExtension.cpp</text>
</a>
</g>
</g>
<!-- Node10&#45;&gt;Node11 -->
<g id="edge15" class="edge">
<title>Node10&#45;&gt;Node11</title>
<path fill="none" stroke="midnightblue" d="M639.58,-167.03C714.61,-156.72 830.36,-140.81 900.27,-131.21"/>
<polygon fill="midnightblue" stroke="midnightblue" points="638.7,-163.61 629.27,-168.44 639.66,-170.55 638.7,-163.61"/>
</g>
<!-- Node13&#45;&gt;Node2 -->
<g id="edge20" class="edge">
<title>Node13&#45;&gt;Node2</title>
<path fill="none" stroke="midnightblue" d="M454.03,-214.03C457.45,-199.12 464.55,-179.08 479,-168 515.67,-139.87 640.56,-129.25 719.89,-125.29"/>
<polygon fill="midnightblue" stroke="midnightblue" points="450.52,-213.72 452.07,-224.2 457.4,-215.04 450.52,-213.72"/>
</g>
<!-- Node13&#45;&gt;Node7 -->
<g id="edge21" class="edge">
<title>Node13&#45;&gt;Node7</title>
<path fill="none" stroke="midnightblue" d="M352.32,-224.47C302.84,-217.93 250.23,-206.73 235,-188 193.51,-136.98 221.39,-47.57 231.65,-19.61"/>
<polygon fill="midnightblue" stroke="midnightblue" points="352.13,-227.97 362.49,-225.75 353.01,-221.03 352.13,-227.97"/>
</g>
<!-- Node13&#45;&gt;Node9 -->
<g id="edge24" class="edge">
<title>Node13&#45;&gt;Node9</title>
<path fill="none" stroke="midnightblue" d="M473.51,-250.23C484.91,-259.87 497.6,-271.98 504.59,-280.08"/>
<polygon fill="midnightblue" stroke="midnightblue" points="475.5,-247.34 465.53,-243.75 471.08,-252.77 475.5,-247.34"/>
</g>
<!-- Node13&#45;&gt;Node10 -->
<g id="edge22" class="edge">
<title>Node13&#45;&gt;Node10</title>
<path fill="none" stroke="midnightblue" d="M478.72,-220.1C500.39,-210.01 529.9,-196.27 548.71,-187.52"/>
<polygon fill="midnightblue" stroke="midnightblue" points="476.97,-217.05 469.38,-224.44 479.92,-223.4 476.97,-217.05"/>
</g>
<!-- Node13&#45;&gt;Node12 -->
<g id="edge23" class="edge">
<title>Node13&#45;&gt;Node12</title>
<path fill="none" stroke="midnightblue" d="M386.55,-222.85C321.75,-212.65 222.95,-197.1 162.1,-187.52"/>
<polygon fill="midnightblue" stroke="midnightblue" points="386.23,-226.35 396.65,-224.44 387.32,-219.43 386.23,-226.35"/>
</g>
<!-- Node14 -->
<g id="node14" class="node">
<title>Node14</title>
<g id="a_node14"><a xlink:href="_list_of_global_render_information_8cpp.html" target="_top" xlink:title="Implementation of the ListOfGlobalRenderInformation class.">
<polygon fill="white" stroke="black" points="244,-168.5 244,-187.5 432,-187.5 432,-168.5 244,-168.5"/>
<text text-anchor="middle" x="338" y="-175.5" font-family="Helvetica,sans-Serif" font-size="10.00">ListOfGlobalRenderInformation.cpp</text>
</a>
</g>
</g>
<!-- Node13&#45;&gt;Node14 -->
<g id="edge25" class="edge">
<title>Node13&#45;&gt;Node14</title>
<path fill="none" stroke="midnightblue" d="M424,-220.1C402.89,-210.01 374.14,-196.27 355.82,-187.52"/>
<polygon fill="midnightblue" stroke="midnightblue" points="422.56,-223.29 433.09,-224.44 425.58,-216.97 422.56,-223.29"/>
</g>
<!-- Node16&#45;&gt;Node2 -->
<g id="edge28" class="edge">
<title>Node16&#45;&gt;Node2</title>
<path fill="none" stroke="midnightblue" d="M922.37,-270.25C924.58,-244.37 924.58,-197.53 901,-168 885.78,-148.94 861.29,-137.92 839,-131.56"/>
<polygon fill="midnightblue" stroke="midnightblue" points="918.89,-269.93 921.32,-280.25 925.85,-270.67 918.89,-269.93"/>
</g>
<!-- Node16&#45;&gt;Node10 -->
<g id="edge34" class="edge">
<title>Node16&#45;&gt;Node10</title>
<path fill="none" stroke="midnightblue" d="M882.7,-277.38C811.47,-255.18 657.54,-207.21 594.63,-187.61"/>
<polygon fill="midnightblue" stroke="midnightblue" points="882.01,-280.83 892.59,-280.46 884.09,-274.14 882.01,-280.83"/>
</g>
<!-- Node16&#45;&gt;Node15 -->
<g id="edge42" class="edge">
<title>Node16&#45;&gt;Node15</title>
<path fill="none" stroke="midnightblue" d="M904.77,-272.9C882.42,-249.25 841.48,-205.95 824.12,-187.59"/>
<polygon fill="midnightblue" stroke="midnightblue" points="902.43,-275.51 911.84,-280.37 907.51,-270.7 902.43,-275.51"/>
</g>
<!-- Node17 -->
<g id="node17" class="node">
<title>Node17</title>
<g id="a_node17"><a xlink:href="_render_layout_plugin_8h.html" target="_top" xlink:title="Definition of RenderLayoutPlugin, the plugin class of fbc package for the Model element.">
<polygon fill="white" stroke="black" points="1186.5,-168.5 1186.5,-187.5 1309.5,-187.5 1309.5,-168.5 1186.5,-168.5"/>
<text text-anchor="middle" x="1248" y="-175.5" font-family="Helvetica,sans-Serif" font-size="10.00">RenderLayoutPlugin.h</text>
</a>
</g>
</g>
<!-- Node16&#45;&gt;Node17 -->
<g id="edge29" class="edge">
<title>Node16&#45;&gt;Node17</title>
<path fill="none" stroke="midnightblue" d="M1001.53,-280.96C1046.55,-274.58 1102.76,-263.39 1150,-244 1185.13,-229.58 1220.95,-201.8 1237.91,-187.69"/>
<polygon fill="midnightblue" stroke="midnightblue" points="1000.95,-277.5 991.52,-282.32 1001.9,-284.44 1000.95,-277.5"/>
</g>
<!-- Node18 -->
<g id="node18" class="node">
<title>Node18</title>
<g id="a_node18"><a xlink:href="_list_of_local_render_information_8h.html" target="_top" xlink:title="Definition of the ListOfLocalRenderInformation class.">
<polygon fill="white" stroke="black" points="969.5,-224.5 969.5,-243.5 1140.5,-243.5 1140.5,-224.5 969.5,-224.5"/>
<text text-anchor="middle" x="1055" y="-231.5" font-family="Helvetica,sans-Serif" font-size="10.00">ListOfLocalRenderInformation.h</text>
</a>
</g>
</g>
<!-- Node16&#45;&gt;Node18 -->
<g id="edge35" class="edge">
<title>Node16&#45;&gt;Node18</title>
<path fill="none" stroke="midnightblue" d="M950.91,-276.64C976.24,-266.5 1011.43,-252.43 1033.71,-243.52"/>
<polygon fill="midnightblue" stroke="midnightblue" points="949.38,-273.48 941.39,-280.44 951.98,-279.98 949.38,-273.48"/>
</g>
<!-- Node20 -->
<g id="node20" class="node">
<title>Node20</title>
<g id="a_node20"><a xlink:href="_local_render_information_8cpp.html" target="_top" xlink:title="Implementation of the LocalRenderInformation class.">
<polygon fill="white" stroke="black" points="1328,-168.5 1328,-187.5 1482,-187.5 1482,-168.5 1328,-168.5"/>
<text text-anchor="middle" x="1405" y="-175.5" font-family="Helvetica,sans-Serif" font-size="10.00">LocalRenderInformation.cpp</text>
</a>
</g>
</g>
<!-- Node16&#45;&gt;Node20 -->
<g id="edge41" class="edge">
<title>Node16&#45;&gt;Node20</title>
<path fill="none" stroke="midnightblue" d="M991.24,-279C1044.18,-271.03 1118,-258.77 1182,-244 1254.3,-227.31 1337.87,-201.03 1379.16,-187.57"/>
<polygon fill="midnightblue" stroke="midnightblue" points="990.65,-275.55 981.27,-280.49 991.68,-282.47 990.65,-275.55"/>
</g>
<!-- Node17&#45;&gt;Node2 -->
<g id="edge30" class="edge">
<title>Node17&#45;&gt;Node2</title>
<path fill="none" stroke="midnightblue" d="M1176.42,-167.94C1057.52,-153.57 931.75,-139.2 856.19,-130.66"/>
<polygon fill="midnightblue" stroke="midnightblue" points="1176.08,-171.43 1186.43,-169.15 1176.92,-164.48 1176.08,-171.43"/>
</g>
<!-- Node17&#45;&gt;Node3 -->
<g id="edge32" class="edge">
<title>Node17&#45;&gt;Node3</title>
<path fill="none" stroke="midnightblue" d="M1232.93,-160.21C1201.56,-125.26 1130.22,-45.79 1106.69,-19.57"/>
<polygon fill="midnightblue" stroke="midnightblue" points="1230.7,-162.97 1239.99,-168.08 1235.91,-158.3 1230.7,-162.97"/>
</g>
<!-- Node17&#45;&gt;Node5 -->
<g id="edge33" class="edge">
<title>Node17&#45;&gt;Node5</title>
<path fill="none" stroke="midnightblue" d="M1227.48,-162.29C1191.54,-137.16 1114.15,-85.78 1042,-56 1000.53,-38.89 950.79,-26.85 914.95,-19.56"/>
<polygon fill="midnightblue" stroke="midnightblue" points="1225.9,-165.46 1236.09,-168.37 1229.94,-159.74 1225.9,-165.46"/>
</g>
<!-- Node17&#45;&gt;Node11 -->
<g id="edge31" class="edge">
<title>Node17&#45;&gt;Node11</title>
<path fill="none" stroke="midnightblue" d="M1192.2,-166.54C1137.77,-156.33 1056,-141 1005.42,-131.52"/>
<polygon fill="midnightblue" stroke="midnightblue" points="1191.89,-170.04 1202.37,-168.44 1193.18,-163.16 1191.89,-170.04"/>
</g>
<!-- Node18&#45;&gt;Node2 -->
<g id="edge36" class="edge">
<title>Node18&#45;&gt;Node2</title>
<path fill="none" stroke="midnightblue" d="M1032.65,-219.29C1008.84,-205.09 969.74,-182.94 934,-168 896.8,-152.45 852.31,-139.5 822.29,-131.55"/>
<polygon fill="midnightblue" stroke="midnightblue" points="1030.9,-222.32 1041.28,-224.48 1034.52,-216.33 1030.9,-222.32"/>
</g>
<!-- Node18&#45;&gt;Node15 -->
<g id="edge40" class="edge">
<title>Node18&#45;&gt;Node15</title>
<path fill="none" stroke="midnightblue" d="M1007.28,-222.22C962.11,-212.01 895.23,-196.9 853.69,-187.52"/>
<polygon fill="midnightblue" stroke="midnightblue" points="1006.6,-225.65 1017.13,-224.44 1008.15,-218.83 1006.6,-225.65"/>
</g>
<!-- Node18&#45;&gt;Node17 -->
<g id="edge37" class="edge">
<title>Node18&#45;&gt;Node17</title>
<path fill="none" stroke="midnightblue" d="M1095.39,-221.7C1131.82,-211.51 1184.59,-196.74 1217.56,-187.52"/>
<polygon fill="midnightblue" stroke="midnightblue" points="1094.27,-218.38 1085.58,-224.44 1096.15,-225.12 1094.27,-218.38"/>
</g>
<!-- Node19 -->
<g id="node19" class="node">
<title>Node19</title>
<g id="a_node19"><a xlink:href="_list_of_local_render_information_8cpp.html" target="_top" xlink:title="Implementation of the ListOfLocalRenderInformation class.">
<polygon fill="white" stroke="black" points="986,-168.5 986,-187.5 1168,-187.5 1168,-168.5 986,-168.5"/>
<text text-anchor="middle" x="1077" y="-175.5" font-family="Helvetica,sans-Serif" font-size="10.00">ListOfLocalRenderInformation.cpp</text>
</a>
</g>
</g>
<!-- Node18&#45;&gt;Node19 -->
<g id="edge38" class="edge">
<title>Node18&#45;&gt;Node19</title>
<path fill="none" stroke="midnightblue" d="M1062.46,-214.69C1066.17,-205.59 1070.48,-195.01 1073.43,-187.75"/>
<polygon fill="midnightblue" stroke="midnightblue" points="1059.16,-213.5 1058.63,-224.08 1065.65,-216.14 1059.16,-213.5"/>
</g>
<!-- Node18&#45;&gt;Node20 -->
<g id="edge39" class="edge">
<title>Node18&#45;&gt;Node20</title>
<path fill="none" stroke="midnightblue" d="M1120.36,-222.92C1186.48,-212.71 1287.57,-197.12 1349.8,-187.52"/>
<polygon fill="midnightblue" stroke="midnightblue" points="1119.81,-219.46 1110.46,-224.44 1120.88,-226.38 1119.81,-219.46"/>
</g>
</g>
</svg>
        <g id="navigator" transform="translate(0 0)" fill="#404254">
                <rect fill="#f2f5e9" fill-opacity="0.5" stroke="#606060" stroke-width=".5" x="0" y="0" width="60" height="60"/>
                <use id="zoomplus" xlink:href="#zoomPlus" x="17" y="9" onmousedown="handleZoom(evt,'in')"/>
                <use id="zoomminus" xlink:href="#zoomMin" x="42" y="9" onmousedown="handleZoom(evt,'out')"/>
                <use id="reset" xlink:href="#resetDef" x="30" y="36" onmousedown="handleReset()"/>
                <g id="arrowUp" xlink:href="#dirArrow" transform="translate(30 24)" onmousedown="handlePan(0,-1)">
                  <use xlink:href="#rim" fill="#404040">
                        <set attributeName="fill" to="#808080" begin="arrowUp.mouseover" end="arrowUp.mouseout"/>
                  </use>
                  <path fill="none" stroke="white" stroke-width="1.5" d="M0,-3.0v7 M-2.5,-0.5L0,-3.0L2.5,-0.5"/>
                </g>
                <g id="arrowRight" xlink:href="#dirArrow" transform="rotate(90) translate(36 -43)" onmousedown="handlePan(1,0)">
                  <use xlink:href="#rim" fill="#404040">
                        <set attributeName="fill" to="#808080" begin="arrowRight.mouseover" end="arrowRight.mouseout"/>
                  </use>
                  <path fill="none" stroke="white" stroke-width="1.5" d="M0,-3.0v7 M-2.5,-0.5L0,-3.0L2.5,-0.5"/>
                </g>
                <g id="arrowDown" xlink:href="#dirArrow" transform="rotate(180) translate(-30 -48)" onmousedown="handlePan(0,1)">
                  <use xlink:href="#rim" fill="#404040">
                        <set attributeName="fill" to="#808080" begin="arrowDown.mouseover" end="arrowDown.mouseout"/>
                  </use>
                  <path fill="none" stroke="white" stroke-width="1.5" d="M0,-3.0v7 M-2.5,-0.5L0,-3.0L2.5,-0.5"/>
                </g>
                <g id="arrowLeft" xlink:href="#dirArrow" transform="rotate(270) translate(-36 17)" onmousedown="handlePan(-1,0)">
                  <use xlink:href="#rim" fill="#404040">
                        <set attributeName="fill" to="#808080" begin="arrowLeft.mouseover" end="arrowLeft.mouseout"/>
                  </use>
                  <path fill="none" stroke="white" stroke-width="1.5" d="M0,-3.0v7 M-2.5,-0.5L0,-3.0L2.5,-0.5"/>
                </g>
        </g>
        <svg viewBox="0 0 15 15" width="100%" height="30px" preserveAspectRatio="xMaxYMin meet">
         <g id="arrow_out" transform="scale(0.3 0.3)">
          <a xlink:href="_render_information_base_8h__dep__incl_org.svg" target="_base">
           <rect id="button" ry="5" rx="5" y="6" x="6" height="38" width="38"
                fill="#f2f5e9" fill-opacity="0.5" stroke="#606060" stroke-width="1.0"/>
           <path id="arrow"
             d="M 11.500037,31.436501 C 11.940474,20.09759 22.043105,11.32322 32.158766,21.979434 L 37.068811,17.246167 C 37.068811,17.246167 37.088388,32 37.088388,32 L 22.160133,31.978069 C 22.160133,31.978069 26.997745,27.140456 26.997745,27.140456 C 18.528582,18.264221 13.291696,25.230495 11.500037,31.436501 z"
             style="fill:#404040;"/>
          </a>
         </g>
        </svg>
</svg>
