<?xml version="1.0" encoding="UTF-8" standalone="no"?>
<!DOCTYPE svg PUBLIC "-//W3C//DTD SVG 1.1//EN"
 "http://www.w3.org/Graphics/SVG/1.1/DTD/svg11.dtd">
<!-- Generated by graphviz version 2.43.0 (0)
 -->
<!-- Title: ReplacedBy.h Pages: 1 -->
<svg width="1385pt" height="252pt"
 viewBox="0.00 0.00 1384.50 252.00" xmlns="http://www.w3.org/2000/svg" xmlns:xlink="http://www.w3.org/1999/xlink">
<g id="graph0" class="graph" transform="scale(1 1) rotate(0) translate(4 248)">
<title>ReplacedBy.h</title>
<polygon fill="white" stroke="transparent" points="-4,4 -4,-248 1380.5,-248 1380.5,4 -4,4"/>
<!-- Node1 -->
<g id="node1" class="node">
<title>Node1</title>
<g id="a_node1"><a xlink:title="Definition of ReplacedBy, the Replacing&#45;derived class of the comp package.">
<polygon fill="#bfbfbf" stroke="black" points="360.5,-224.5 360.5,-243.5 442.5,-243.5 442.5,-224.5 360.5,-224.5"/>
<text text-anchor="middle" x="401.5" y="-231.5" font-family="Helvetica,sans-Serif" font-size="10.00">ReplacedBy.h</text>
</a>
</g>
</g>
<!-- Node2 -->
<g id="node2" class="node">
<title>Node2</title>
<g id="a_node2"><a xlink:href="_comp_extension_types_8h.html" target="_top" xlink:title="Include all SBML types of Comp extension in a single header file.">
<polygon fill="white" stroke="black" points="1246.5,-56.5 1246.5,-75.5 1376.5,-75.5 1376.5,-56.5 1246.5,-56.5"/>
<text text-anchor="middle" x="1311.5" y="-63.5" font-family="Helvetica,sans-Serif" font-size="10.00">CompExtensionTypes.h</text>
</a>
</g>
</g>
<!-- Node1&#45;&gt;Node2 -->
<g id="edge1" class="edge">
<title>Node1&#45;&gt;Node2</title>
<path fill="none" stroke="midnightblue" d="M452.8,-223.64C614.13,-194.21 1109.63,-103.82 1264.64,-75.55"/>
<polygon fill="midnightblue" stroke="midnightblue" points="451.88,-220.25 442.67,-225.49 453.13,-227.14 451.88,-220.25"/>
</g>
<!-- Node5 -->
<g id="node5" class="node">
<title>Node5</title>
<g id="a_node5"><a xlink:href="_comp_s_base_plugin_8h.html" target="_top" xlink:title="Definition of CompSBasePlugin, the plugin class of comp package for the Model element.">
<polygon fill="white" stroke="black" points="344.5,-168.5 344.5,-187.5 458.5,-187.5 458.5,-168.5 344.5,-168.5"/>
<text text-anchor="middle" x="401.5" y="-175.5" font-family="Helvetica,sans-Serif" font-size="10.00">CompSBasePlugin.h</text>
</a>
</g>
</g>
<!-- Node1&#45;&gt;Node5 -->
<g id="edge4" class="edge">
<title>Node1&#45;&gt;Node5</title>
<path fill="none" stroke="midnightblue" d="M401.5,-213.8C401.5,-204.91 401.5,-194.78 401.5,-187.75"/>
<polygon fill="midnightblue" stroke="midnightblue" points="398,-214.08 401.5,-224.08 405,-214.08 398,-214.08"/>
</g>
<!-- Node11 -->
<g id="node11" class="node">
<title>Node11</title>
<g id="a_node11"><a xlink:href="_replaced_by_8cpp.html" target="_top" xlink:title="Implementation of ReplacedBy, the SBaseRef derived class of the comp package.">
<polygon fill="white" stroke="black" points="0,-56.5 0,-75.5 93,-75.5 93,-56.5 0,-56.5"/>
<text text-anchor="middle" x="46.5" y="-63.5" font-family="Helvetica,sans-Serif" font-size="10.00">ReplacedBy.cpp</text>
</a>
</g>
</g>
<!-- Node1&#45;&gt;Node11 -->
<g id="edge25" class="edge">
<title>Node1&#45;&gt;Node11</title>
<path fill="none" stroke="midnightblue" d="M350.12,-229.34C280.88,-221.89 157.24,-199.43 78.5,-132 60.73,-116.78 51.89,-89.36 48.38,-75.51"/>
<polygon fill="midnightblue" stroke="midnightblue" points="350.04,-232.85 360.34,-230.37 350.74,-225.88 350.04,-232.85"/>
</g>
<!-- Node3 -->
<g id="node3" class="node">
<title>Node3</title>
<g id="a_node3"><a xlink:href="_comp_flattening_converter_8cpp.html" target="_top" xlink:title="Implementation of a first flattening converter.">
<polygon fill="white" stroke="black" points="1074.5,-0.5 1074.5,-19.5 1236.5,-19.5 1236.5,-0.5 1074.5,-0.5"/>
<text text-anchor="middle" x="1155.5" y="-7.5" font-family="Helvetica,sans-Serif" font-size="10.00">CompFlatteningConverter.cpp</text>
</a>
</g>
</g>
<!-- Node2&#45;&gt;Node3 -->
<g id="edge2" class="edge">
<title>Node2&#45;&gt;Node3</title>
<path fill="none" stroke="midnightblue" d="M1277.33,-53.17C1247.96,-43 1206.3,-28.59 1180.1,-19.52"/>
<polygon fill="midnightblue" stroke="midnightblue" points="1276.19,-56.48 1286.78,-56.44 1278.48,-49.86 1276.19,-56.48"/>
</g>
<!-- Node4 -->
<g id="node4" class="node">
<title>Node4</title>
<g id="a_node4"><a xlink:href="_comp_validator_8cpp.html" target="_top" xlink:title=" ">
<polygon fill="white" stroke="black" points="1257.5,-0.5 1257.5,-19.5 1365.5,-19.5 1365.5,-0.5 1257.5,-0.5"/>
<text text-anchor="middle" x="1311.5" y="-7.5" font-family="Helvetica,sans-Serif" font-size="10.00">CompValidator.cpp</text>
</a>
</g>
</g>
<!-- Node2&#45;&gt;Node4 -->
<g id="edge3" class="edge">
<title>Node2&#45;&gt;Node4</title>
<path fill="none" stroke="midnightblue" d="M1311.5,-45.8C1311.5,-36.91 1311.5,-26.78 1311.5,-19.75"/>
<polygon fill="midnightblue" stroke="midnightblue" points="1308,-46.08 1311.5,-56.08 1315,-46.08 1308,-46.08"/>
</g>
<!-- Node5&#45;&gt;Node2 -->
<g id="edge5" class="edge">
<title>Node5&#45;&gt;Node2</title>
<path fill="none" stroke="midnightblue" d="M469.15,-169.76C518.43,-163.21 586.3,-151.52 643.5,-132 661.94,-125.71 663.72,-117.18 682.5,-112 920.78,-46.23 991.38,-98.93 1237.5,-76 1240.33,-75.74 1243.23,-75.45 1246.15,-75.15"/>
<polygon fill="midnightblue" stroke="midnightblue" points="468.39,-166.33 458.92,-171.08 469.29,-173.27 468.39,-166.33"/>
</g>
<!-- Node6 -->
<g id="node6" class="node">
<title>Node6</title>
<g id="a_node6"><a xlink:href="_comp_extension_8cpp.html" target="_top" xlink:title="Implementation of CompExtension, the core module of comp package.">
<polygon fill="white" stroke="black" points="347,-0.5 347,-19.5 460,-19.5 460,-0.5 347,-0.5"/>
<text text-anchor="middle" x="403.5" y="-7.5" font-family="Helvetica,sans-Serif" font-size="10.00">CompExtension.cpp</text>
</a>
</g>
</g>
<!-- Node5&#45;&gt;Node6 -->
<g id="edge6" class="edge">
<title>Node5&#45;&gt;Node6</title>
<path fill="none" stroke="midnightblue" d="M334.17,-169.96C238.73,-157.37 81.86,-125.53 140.5,-56 166.37,-25.33 277.68,-15.56 346.94,-12.45"/>
<polygon fill="midnightblue" stroke="midnightblue" points="333.98,-173.46 344.35,-171.26 334.87,-166.52 333.98,-173.46"/>
</g>
<!-- Node7 -->
<g id="node7" class="node">
<title>Node7</title>
<g id="a_node7"><a xlink:href="_comp_model_plugin_8h.html" target="_top" xlink:title="Definition of CompModelPlugin, the plugin class of comp package for the Model element.">
<polygon fill="white" stroke="black" points="520.5,-112.5 520.5,-131.5 634.5,-131.5 634.5,-112.5 520.5,-112.5"/>
<text text-anchor="middle" x="577.5" y="-119.5" font-family="Helvetica,sans-Serif" font-size="10.00">CompModelPlugin.h</text>
</a>
</g>
</g>
<!-- Node5&#45;&gt;Node7 -->
<g id="edge7" class="edge">
<title>Node5&#45;&gt;Node7</title>
<path fill="none" stroke="midnightblue" d="M439.19,-165.44C472.37,-155.26 519.93,-140.66 549.74,-131.52"/>
<polygon fill="midnightblue" stroke="midnightblue" points="437.92,-162.16 429.39,-168.44 439.97,-168.86 437.92,-162.16"/>
</g>
<!-- Node5&#45;&gt;Node11 -->
<g id="edge23" class="edge">
<title>Node5&#45;&gt;Node11</title>
<path fill="none" stroke="midnightblue" d="M334.26,-171.82C259.98,-165.21 145.79,-152.16 107.5,-132 82.03,-118.59 61.37,-90.35 51.97,-75.91"/>
<polygon fill="midnightblue" stroke="midnightblue" points="334.2,-175.33 344.46,-172.71 334.81,-168.35 334.2,-175.33"/>
</g>
<!-- Node12 -->
<g id="node12" class="node">
<title>Node12</title>
<g id="a_node12"><a xlink:href="_replaced_element_8cpp.html" target="_top" xlink:title="Implementation of ReplacedElement, the SBaseRef derived class of replacedElements package.">
<polygon fill="white" stroke="black" points="149.5,-56.5 149.5,-75.5 271.5,-75.5 271.5,-56.5 149.5,-56.5"/>
<text text-anchor="middle" x="210.5" y="-63.5" font-family="Helvetica,sans-Serif" font-size="10.00">ReplacedElement.cpp</text>
</a>
</g>
</g>
<!-- Node5&#45;&gt;Node12 -->
<g id="edge24" class="edge">
<title>Node5&#45;&gt;Node12</title>
<path fill="none" stroke="midnightblue" d="M377.71,-163.3C337.78,-140.3 258.41,-94.59 225.42,-75.59"/>
<polygon fill="midnightblue" stroke="midnightblue" points="376.1,-166.41 386.51,-168.37 379.59,-160.34 376.1,-166.41"/>
</g>
<!-- Node17 -->
<g id="node17" class="node">
<title>Node17</title>
<g id="a_node17"><a xlink:href="_comp_s_base_plugin_8cpp.html" target="_top" xlink:title="Implementation of CompSBasePlugin, the plugin class of comp package for the SBase element.">
<polygon fill="white" stroke="black" points="691,-112.5 691,-131.5 816,-131.5 816,-112.5 691,-112.5"/>
<text text-anchor="middle" x="753.5" y="-119.5" font-family="Helvetica,sans-Serif" font-size="10.00">CompSBasePlugin.cpp</text>
</a>
</g>
</g>
<!-- Node5&#45;&gt;Node17 -->
<g id="edge22" class="edge">
<title>Node5&#45;&gt;Node17</title>
<path fill="none" stroke="midnightblue" d="M467.23,-166.92C533.73,-156.71 635.4,-141.12 697.99,-131.52"/>
<polygon fill="midnightblue" stroke="midnightblue" points="466.63,-163.47 457.28,-168.44 467.69,-170.39 466.63,-163.47"/>
</g>
<!-- Node7&#45;&gt;Node2 -->
<g id="edge8" class="edge">
<title>Node7&#45;&gt;Node2</title>
<path fill="none" stroke="midnightblue" d="M645.13,-112.32C646.26,-112.21 647.39,-112.1 648.5,-112 909.62,-87.5 976.32,-99.84 1237.5,-76 1240.34,-75.74 1243.23,-75.46 1246.15,-75.16"/>
<polygon fill="midnightblue" stroke="midnightblue" points="644.39,-108.88 634.82,-113.41 645.13,-115.84 644.39,-108.88"/>
</g>
<!-- Node7&#45;&gt;Node6 -->
<g id="edge9" class="edge">
<title>Node7&#45;&gt;Node6</title>
<path fill="none" stroke="midnightblue" d="M510.27,-115.68C480.23,-110.03 446.49,-98.66 423.5,-76 408.03,-60.75 404.47,-33.84 403.69,-19.91"/>
<polygon fill="midnightblue" stroke="midnightblue" points="509.85,-119.16 520.29,-117.39 511.02,-112.26 509.85,-119.16"/>
</g>
<!-- Node8 -->
<g id="node8" class="node">
<title>Node8</title>
<g id="a_node8"><a xlink:href="_comp_model_plugin_8cpp.html" target="_top" xlink:title="Implementation of CompModelPlugin, the plugin class of comp package for the SBase element.">
<polygon fill="white" stroke="black" points="432,-56.5 432,-75.5 557,-75.5 557,-56.5 432,-56.5"/>
<text text-anchor="middle" x="494.5" y="-63.5" font-family="Helvetica,sans-Serif" font-size="10.00">CompModelPlugin.cpp</text>
</a>
</g>
</g>
<!-- Node7&#45;&gt;Node8 -->
<g id="edge10" class="edge">
<title>Node7&#45;&gt;Node8</title>
<path fill="none" stroke="midnightblue" d="M555.4,-106.62C540.24,-96.76 520.62,-83.99 507.8,-75.65"/>
<polygon fill="midnightblue" stroke="midnightblue" points="553.87,-109.8 564.16,-112.32 557.69,-103.94 553.87,-109.8"/>
</g>
<!-- Node9 -->
<g id="node9" class="node">
<title>Node9</title>
<g id="a_node9"><a xlink:href="_comp_s_b_m_l_document_plugin_8cpp.html" target="_top" xlink:title="Implementation of CompSBMLDocumentPlugin, the plugin class of comp package for the SBase element.">
<polygon fill="white" stroke="black" points="575,-56.5 575,-75.5 748,-75.5 748,-56.5 575,-56.5"/>
<text text-anchor="middle" x="661.5" y="-63.5" font-family="Helvetica,sans-Serif" font-size="10.00">CompSBMLDocumentPlugin.cpp</text>
</a>
</g>
</g>
<!-- Node7&#45;&gt;Node9 -->
<g id="edge11" class="edge">
<title>Node7&#45;&gt;Node9</title>
<path fill="none" stroke="midnightblue" d="M599.43,-106.9C614.84,-97 634.95,-84.07 648.04,-75.65"/>
<polygon fill="midnightblue" stroke="midnightblue" points="597.52,-103.97 591,-112.32 601.3,-109.86 597.52,-103.97"/>
</g>
<!-- Node10 -->
<g id="node10" class="node">
<title>Node10</title>
<g id="a_node10"><a xlink:href="_comp_base_8cpp.html" target="_top" xlink:title="Implementation of CompBase, the base class of extension entities plugged in SBase derived classes in ...">
<polygon fill="white" stroke="black" points="766,-56.5 766,-75.5 855,-75.5 855,-56.5 766,-56.5"/>
<text text-anchor="middle" x="810.5" y="-63.5" font-family="Helvetica,sans-Serif" font-size="10.00">CompBase.cpp</text>
</a>
</g>
</g>
<!-- Node7&#45;&gt;Node10 -->
<g id="edge12" class="edge">
<title>Node7&#45;&gt;Node10</title>
<path fill="none" stroke="midnightblue" d="M624.3,-110.15C668.33,-99.95 733.35,-84.88 773.75,-75.52"/>
<polygon fill="midnightblue" stroke="midnightblue" points="623.37,-106.78 614.42,-112.44 624.95,-113.6 623.37,-106.78"/>
</g>
<!-- Node7&#45;&gt;Node11 -->
<g id="edge13" class="edge">
<title>Node7&#45;&gt;Node11</title>
<path fill="none" stroke="midnightblue" d="M510.18,-114.15C400.86,-103.04 187.52,-81.34 93.23,-71.75"/>
<polygon fill="midnightblue" stroke="midnightblue" points="510.12,-117.67 520.42,-115.2 510.83,-110.7 510.12,-117.67"/>
</g>
<!-- Node7&#45;&gt;Node12 -->
<g id="edge14" class="edge">
<title>Node7&#45;&gt;Node12</title>
<path fill="none" stroke="midnightblue" d="M510.21,-111.1C440.9,-100.9 333.99,-85.17 268.35,-75.51"/>
<polygon fill="midnightblue" stroke="midnightblue" points="509.75,-114.57 520.16,-112.56 510.77,-107.64 509.75,-114.57"/>
</g>
<!-- Node13 -->
<g id="node13" class="node">
<title>Node13</title>
<g id="a_node13"><a xlink:href="_replacing_8cpp.html" target="_top" xlink:title="Implementation of Replacing, the SBaseRef derived class of Replacings package.">
<polygon fill="white" stroke="black" points="873,-56.5 873,-75.5 958,-75.5 958,-56.5 873,-56.5"/>
<text text-anchor="middle" x="915.5" y="-63.5" font-family="Helvetica,sans-Serif" font-size="10.00">Replacing.cpp</text>
</a>
</g>
</g>
<!-- Node7&#45;&gt;Node13 -->
<g id="edge15" class="edge">
<title>Node7&#45;&gt;Node13</title>
<path fill="none" stroke="midnightblue" d="M644.08,-110.93C702.29,-102.04 789.06,-88.57 864.5,-76 867.25,-75.54 870.08,-75.06 872.93,-74.57"/>
<polygon fill="midnightblue" stroke="midnightblue" points="643.27,-107.51 633.91,-112.48 644.33,-114.43 643.27,-107.51"/>
</g>
<!-- Node14 -->
<g id="node14" class="node">
<title>Node14</title>
<g id="a_node14"><a xlink:href="_s_base_ref_8cpp.html" target="_top" xlink:title="Implementation of SBaseRef, the SBase&#45;derived class of the comp package.">
<polygon fill="white" stroke="black" points="976,-56.5 976,-75.5 1059,-75.5 1059,-56.5 976,-56.5"/>
<text text-anchor="middle" x="1017.5" y="-63.5" font-family="Helvetica,sans-Serif" font-size="10.00">SBaseRef.cpp</text>
</a>
</g>
</g>
<!-- Node7&#45;&gt;Node14 -->
<g id="edge16" class="edge">
<title>Node7&#45;&gt;Node14</title>
<path fill="none" stroke="midnightblue" d="M645.14,-112.4C646.27,-112.27 647.39,-112.13 648.5,-112 790.16,-95.03 826.32,-96.65 967.5,-76 970.21,-75.6 972.99,-75.17 975.79,-74.72"/>
<polygon fill="midnightblue" stroke="midnightblue" points="644.34,-108.98 634.84,-113.66 645.19,-115.92 644.34,-108.98"/>
</g>
<!-- Node15 -->
<g id="node15" class="node">
<title>Node15</title>
<g id="a_node15"><a xlink:href="_submodel_8cpp.html" target="_top" xlink:title="Implementation of Submodel, the SBase&#45;derived class of the comp package.">
<polygon fill="white" stroke="black" points="289.5,-56.5 289.5,-75.5 375.5,-75.5 375.5,-56.5 289.5,-56.5"/>
<text text-anchor="middle" x="332.5" y="-63.5" font-family="Helvetica,sans-Serif" font-size="10.00">Submodel.cpp</text>
</a>
</g>
</g>
<!-- Node7&#45;&gt;Node15 -->
<g id="edge17" class="edge">
<title>Node7&#45;&gt;Node15</title>
<path fill="none" stroke="midnightblue" d="M528.87,-110.28C482.57,-100.08 413.81,-84.92 371.14,-75.52"/>
<polygon fill="midnightblue" stroke="midnightblue" points="528.16,-113.71 538.68,-112.44 529.67,-106.87 528.16,-113.71"/>
</g>
<!-- Node16 -->
<g id="node16" class="node">
<title>Node16</title>
<g id="a_node16"><a xlink:href="_comp_flattening_converter_8h.html" target="_top" xlink:title="Definition of a first flattening converter.">
<polygon fill="white" stroke="black" points="1077,-56.5 1077,-75.5 1228,-75.5 1228,-56.5 1077,-56.5"/>
<text text-anchor="middle" x="1152.5" y="-63.5" font-family="Helvetica,sans-Serif" font-size="10.00">CompFlatteningConverter.h</text>
</a>
</g>
</g>
<!-- Node7&#45;&gt;Node16 -->
<g id="edge18" class="edge">
<title>Node7&#45;&gt;Node16</title>
<path fill="none" stroke="midnightblue" d="M644.58,-111.48C827.51,-92.27 876.29,-93.66 1059.5,-76 1065.05,-75.47 1070.8,-74.89 1076.6,-74.3"/>
<polygon fill="midnightblue" stroke="midnightblue" points="644.21,-108 634.63,-112.53 644.94,-114.96 644.21,-108"/>
</g>
<!-- Node16&#45;&gt;Node3 -->
<g id="edge21" class="edge">
<title>Node16&#45;&gt;Node3</title>
<path fill="none" stroke="midnightblue" d="M1153.57,-45.8C1154.06,-36.91 1154.62,-26.78 1155.01,-19.75"/>
<polygon fill="midnightblue" stroke="midnightblue" points="1150.06,-45.9 1153,-56.08 1157.04,-46.29 1150.06,-45.9"/>
</g>
<!-- Node16&#45;&gt;Node6 -->
<g id="edge19" class="edge">
<title>Node16&#45;&gt;Node6</title>
<path fill="none" stroke="midnightblue" d="M1066.67,-55.87C835.59,-35.87 573.16,-20.4 460.05,-14.08"/>
<polygon fill="midnightblue" stroke="midnightblue" points="1066.69,-59.38 1076.96,-56.77 1067.3,-52.41 1066.69,-59.38"/>
</g>
<!-- Node16&#45;&gt;Node7 -->
<g id="edge20" class="edge">
<title>Node16&#45;&gt;Node7</title>
<path fill="none" stroke="midnightblue" d="M1072.41,-76.48C889.31,-93.93 840.53,-92.56 657.5,-112 650.21,-112.77 642.51,-113.67 634.86,-114.59"/>
<polygon fill="midnightblue" stroke="midnightblue" points="1072.74,-79.96 1082.36,-75.53 1072.08,-73 1072.74,-79.96"/>
</g>
</g>
</svg>
