<?xml version="1.0" encoding="UTF-8" standalone="no"?>
<!DOCTYPE svg PUBLIC "-//W3C//DTD SVG 1.1//EN"
 "http://www.w3.org/Graphics/SVG/1.1/DTD/svg11.dtd">
<!-- Generated by graphviz version 2.43.0 (0)
 -->
<!-- Title: Replacing.h Pages: 1 -->
<svg width="1386pt" height="364pt"
 viewBox="0.00 0.00 1385.50 364.00" xmlns="http://www.w3.org/2000/svg" xmlns:xlink="http://www.w3.org/1999/xlink">
<g id="graph0" class="graph" transform="scale(1 1) rotate(0) translate(4 360)">
<title>Replacing.h</title>
<polygon fill="white" stroke="transparent" points="-4,4 -4,-360 1381.5,-360 1381.5,4 -4,4"/>
<!-- Node1 -->
<g id="node1" class="node">
<title>Node1</title>
<g id="a_node1"><a xlink:title="Definition of Replacing, the SBaseRef&#45;derived class of the comp package.">
<polygon fill="#bfbfbf" stroke="black" points="653.5,-336.5 653.5,-355.5 727.5,-355.5 727.5,-336.5 653.5,-336.5"/>
<text text-anchor="middle" x="690.5" y="-343.5" font-family="Helvetica,sans-Serif" font-size="10.00">Replacing.h</text>
</a>
</g>
</g>
<!-- Node2 -->
<g id="node2" class="node">
<title>Node2</title>
<g id="a_node2"><a xlink:href="_replaced_by_8h.html" target="_top" xlink:title="Definition of ReplacedBy, the Replacing&#45;derived class of the comp package.">
<polygon fill="white" stroke="black" points="649.5,-224.5 649.5,-243.5 731.5,-243.5 731.5,-224.5 649.5,-224.5"/>
<text text-anchor="middle" x="690.5" y="-231.5" font-family="Helvetica,sans-Serif" font-size="10.00">ReplacedBy.h</text>
</a>
</g>
</g>
<!-- Node1&#45;&gt;Node2 -->
<g id="edge1" class="edge">
<title>Node1&#45;&gt;Node2</title>
<path fill="none" stroke="midnightblue" d="M690.5,-326.35C690.5,-302.25 690.5,-261.31 690.5,-243.59"/>
<polygon fill="midnightblue" stroke="midnightblue" points="687,-326.37 690.5,-336.37 694,-326.37 687,-326.37"/>
</g>
<!-- Node14 -->
<g id="node14" class="node">
<title>Node14</title>
<g id="a_node14"><a xlink:href="_replacing_8cpp.html" target="_top" xlink:title="Implementation of Replacing, the SBaseRef derived class of Replacings package.">
<polygon fill="white" stroke="black" points="0,-56.5 0,-75.5 85,-75.5 85,-56.5 0,-56.5"/>
<text text-anchor="middle" x="42.5" y="-63.5" font-family="Helvetica,sans-Serif" font-size="10.00">Replacing.cpp</text>
</a>
</g>
</g>
<!-- Node1&#45;&gt;Node14 -->
<g id="edge35" class="edge">
<title>Node1&#45;&gt;Node14</title>
<path fill="none" stroke="midnightblue" d="M643.35,-341.76C496.88,-331.09 59.5,-294.25 59.5,-235 59.5,-235 59.5,-235 59.5,-177 59.5,-138.93 49.43,-94.31 44.79,-75.77"/>
<polygon fill="midnightblue" stroke="midnightblue" points="643.16,-345.26 653.38,-342.49 643.66,-338.28 643.16,-345.26"/>
</g>
<!-- Node19 -->
<g id="node19" class="node">
<title>Node19</title>
<g id="a_node19"><a xlink:href="_replaced_element_8h.html" target="_top" xlink:title="Definition of ReplacedElement, the SBase derived class of replacedElements package.">
<polygon fill="white" stroke="black" points="1017,-280.5 1017,-299.5 1128,-299.5 1128,-280.5 1017,-280.5"/>
<text text-anchor="middle" x="1072.5" y="-287.5" font-family="Helvetica,sans-Serif" font-size="10.00">ReplacedElement.h</text>
</a>
</g>
</g>
<!-- Node1&#45;&gt;Node19 -->
<g id="edge27" class="edge">
<title>Node1&#45;&gt;Node19</title>
<path fill="none" stroke="midnightblue" d="M737.8,-338.31C808.55,-328.31 941.66,-309.5 1016.94,-298.85"/>
<polygon fill="midnightblue" stroke="midnightblue" points="737.23,-334.86 727.82,-339.72 738.21,-341.79 737.23,-334.86"/>
</g>
<!-- Node3 -->
<g id="node3" class="node">
<title>Node3</title>
<g id="a_node3"><a xlink:href="_comp_extension_types_8h.html" target="_top" xlink:title="Include all SBML types of Comp extension in a single header file.">
<polygon fill="white" stroke="black" points="1107.5,-56.5 1107.5,-75.5 1237.5,-75.5 1237.5,-56.5 1107.5,-56.5"/>
<text text-anchor="middle" x="1172.5" y="-63.5" font-family="Helvetica,sans-Serif" font-size="10.00">CompExtensionTypes.h</text>
</a>
</g>
</g>
<!-- Node2&#45;&gt;Node3 -->
<g id="edge2" class="edge">
<title>Node2&#45;&gt;Node3</title>
<path fill="none" stroke="midnightblue" d="M692.97,-214.16C695.45,-200.46 700.3,-181.95 709.5,-168 731.06,-135.32 741.44,-127.26 777.5,-112 909.71,-56.05 955.91,-92.67 1098.5,-76 1101.33,-75.67 1104.22,-75.33 1107.13,-74.98"/>
<polygon fill="midnightblue" stroke="midnightblue" points="689.47,-213.91 691.39,-224.32 696.38,-214.98 689.47,-213.91"/>
</g>
<!-- Node6 -->
<g id="node6" class="node">
<title>Node6</title>
<g id="a_node6"><a xlink:href="_comp_s_base_plugin_8h.html" target="_top" xlink:title="Definition of CompSBasePlugin, the plugin class of comp package for the Model element.">
<polygon fill="white" stroke="black" points="718.5,-168.5 718.5,-187.5 832.5,-187.5 832.5,-168.5 718.5,-168.5"/>
<text text-anchor="middle" x="775.5" y="-175.5" font-family="Helvetica,sans-Serif" font-size="10.00">CompSBasePlugin.h</text>
</a>
</g>
</g>
<!-- Node2&#45;&gt;Node6 -->
<g id="edge5" class="edge">
<title>Node2&#45;&gt;Node6</title>
<path fill="none" stroke="midnightblue" d="M712.69,-218.9C728.28,-209 748.63,-196.07 761.88,-187.65"/>
<polygon fill="midnightblue" stroke="midnightblue" points="710.72,-216.01 704.16,-224.32 714.47,-221.92 710.72,-216.01"/>
</g>
<!-- Node12 -->
<g id="node12" class="node">
<title>Node12</title>
<g id="a_node12"><a xlink:href="_replaced_by_8cpp.html" target="_top" xlink:title="Implementation of ReplacedBy, the SBaseRef derived class of the comp package.">
<polygon fill="white" stroke="black" points="142,-56.5 142,-75.5 235,-75.5 235,-56.5 142,-56.5"/>
<text text-anchor="middle" x="188.5" y="-63.5" font-family="Helvetica,sans-Serif" font-size="10.00">ReplacedBy.cpp</text>
</a>
</g>
</g>
<!-- Node2&#45;&gt;Node12 -->
<g id="edge26" class="edge">
<title>Node2&#45;&gt;Node12</title>
<path fill="none" stroke="midnightblue" d="M655.05,-221.28C559.38,-189.64 297.53,-103.06 214.28,-75.52"/>
<polygon fill="midnightblue" stroke="midnightblue" points="653.97,-224.61 664.57,-224.42 656.17,-217.96 653.97,-224.61"/>
</g>
<!-- Node4 -->
<g id="node4" class="node">
<title>Node4</title>
<g id="a_node4"><a xlink:href="_comp_flattening_converter_8cpp.html" target="_top" xlink:title="Implementation of a first flattening converter.">
<polygon fill="white" stroke="black" points="741.5,-0.5 741.5,-19.5 903.5,-19.5 903.5,-0.5 741.5,-0.5"/>
<text text-anchor="middle" x="822.5" y="-7.5" font-family="Helvetica,sans-Serif" font-size="10.00">CompFlatteningConverter.cpp</text>
</a>
</g>
</g>
<!-- Node3&#45;&gt;Node4 -->
<g id="edge3" class="edge">
<title>Node3&#45;&gt;Node4</title>
<path fill="none" stroke="midnightblue" d="M1107.14,-54.92C1041.02,-44.71 939.93,-29.12 877.7,-19.52"/>
<polygon fill="midnightblue" stroke="midnightblue" points="1106.62,-58.38 1117.04,-56.44 1107.69,-51.46 1106.62,-58.38"/>
</g>
<!-- Node5 -->
<g id="node5" class="node">
<title>Node5</title>
<g id="a_node5"><a xlink:href="_comp_validator_8cpp.html" target="_top" xlink:title=" ">
<polygon fill="white" stroke="black" points="1118.5,-0.5 1118.5,-19.5 1226.5,-19.5 1226.5,-0.5 1118.5,-0.5"/>
<text text-anchor="middle" x="1172.5" y="-7.5" font-family="Helvetica,sans-Serif" font-size="10.00">CompValidator.cpp</text>
</a>
</g>
</g>
<!-- Node3&#45;&gt;Node5 -->
<g id="edge4" class="edge">
<title>Node3&#45;&gt;Node5</title>
<path fill="none" stroke="midnightblue" d="M1172.5,-45.8C1172.5,-36.91 1172.5,-26.78 1172.5,-19.75"/>
<polygon fill="midnightblue" stroke="midnightblue" points="1169,-46.08 1172.5,-56.08 1176,-46.08 1169,-46.08"/>
</g>
<!-- Node6&#45;&gt;Node3 -->
<g id="edge6" class="edge">
<title>Node6&#45;&gt;Node3</title>
<path fill="none" stroke="midnightblue" d="M776,-158.1C777.48,-143.23 782.06,-123.21 795.5,-112 847.57,-68.56 1031.18,-84.09 1098.5,-76 1101.33,-75.66 1104.21,-75.31 1107.13,-74.96"/>
<polygon fill="midnightblue" stroke="midnightblue" points="772.5,-158.04 775.39,-168.23 779.49,-158.47 772.5,-158.04"/>
</g>
<!-- Node7 -->
<g id="node7" class="node">
<title>Node7</title>
<g id="a_node7"><a xlink:href="_comp_extension_8cpp.html" target="_top" xlink:title="Implementation of CompExtension, the core module of comp package.">
<polygon fill="white" stroke="black" points="412,-0.5 412,-19.5 525,-19.5 525,-0.5 412,-0.5"/>
<text text-anchor="middle" x="468.5" y="-7.5" font-family="Helvetica,sans-Serif" font-size="10.00">CompExtension.cpp</text>
</a>
</g>
</g>
<!-- Node6&#45;&gt;Node7 -->
<g id="edge7" class="edge">
<title>Node6&#45;&gt;Node7</title>
<path fill="none" stroke="midnightblue" d="M708.35,-177.19C558.48,-176.02 204.19,-163.82 132.5,-76 126.88,-69.11 126.65,-62.69 132.5,-56 168.11,-15.31 325.71,-9.85 411.83,-10.01"/>
<polygon fill="midnightblue" stroke="midnightblue" points="708.33,-180.69 718.36,-177.26 708.38,-173.69 708.33,-180.69"/>
</g>
<!-- Node8 -->
<g id="node8" class="node">
<title>Node8</title>
<g id="a_node8"><a xlink:href="_comp_model_plugin_8h.html" target="_top" xlink:title="Definition of CompModelPlugin, the plugin class of comp package for the Model element.">
<polygon fill="white" stroke="black" points="515.5,-112.5 515.5,-131.5 629.5,-131.5 629.5,-112.5 515.5,-112.5"/>
<text text-anchor="middle" x="572.5" y="-119.5" font-family="Helvetica,sans-Serif" font-size="10.00">CompModelPlugin.h</text>
</a>
</g>
</g>
<!-- Node6&#45;&gt;Node8 -->
<g id="edge8" class="edge">
<title>Node6&#45;&gt;Node8</title>
<path fill="none" stroke="midnightblue" d="M733.51,-165.83C695.18,-155.63 639.35,-140.78 604.52,-131.52"/>
<polygon fill="midnightblue" stroke="midnightblue" points="732.77,-169.26 743.33,-168.44 734.57,-162.49 732.77,-169.26"/>
</g>
<!-- Node6&#45;&gt;Node12 -->
<g id="edge24" class="edge">
<title>Node6&#45;&gt;Node12</title>
<path fill="none" stroke="midnightblue" d="M711.16,-166.9C656.6,-158.18 576.29,-144.97 506.5,-132 405.95,-113.32 288.13,-88.45 228.07,-75.56"/>
<polygon fill="midnightblue" stroke="midnightblue" points="710.62,-170.36 721.04,-168.48 711.72,-163.45 710.62,-170.36"/>
</g>
<!-- Node13 -->
<g id="node13" class="node">
<title>Node13</title>
<g id="a_node13"><a xlink:href="_replaced_element_8cpp.html" target="_top" xlink:title="Implementation of ReplacedElement, the SBaseRef derived class of replacedElements package.">
<polygon fill="white" stroke="black" points="1255.5,-56.5 1255.5,-75.5 1377.5,-75.5 1377.5,-56.5 1255.5,-56.5"/>
<text text-anchor="middle" x="1316.5" y="-63.5" font-family="Helvetica,sans-Serif" font-size="10.00">ReplacedElement.cpp</text>
</a>
</g>
</g>
<!-- Node6&#45;&gt;Node13 -->
<g id="edge25" class="edge">
<title>Node6&#45;&gt;Node13</title>
<path fill="none" stroke="midnightblue" d="M827.4,-166.45C934.22,-144.73 1176.79,-95.41 1274.53,-75.53"/>
<polygon fill="midnightblue" stroke="midnightblue" points="826.6,-163.04 817.5,-168.46 828,-169.9 826.6,-163.04"/>
</g>
<!-- Node18 -->
<g id="node18" class="node">
<title>Node18</title>
<g id="a_node18"><a xlink:href="_comp_s_base_plugin_8cpp.html" target="_top" xlink:title="Implementation of CompSBasePlugin, the plugin class of comp package for the SBase element.">
<polygon fill="white" stroke="black" points="804,-112.5 804,-131.5 929,-131.5 929,-112.5 804,-112.5"/>
<text text-anchor="middle" x="866.5" y="-119.5" font-family="Helvetica,sans-Serif" font-size="10.00">CompSBasePlugin.cpp</text>
</a>
</g>
</g>
<!-- Node6&#45;&gt;Node18 -->
<g id="edge23" class="edge">
<title>Node6&#45;&gt;Node18</title>
<path fill="none" stroke="midnightblue" d="M798.79,-163.18C815.54,-153.24 837.6,-140.15 851.92,-131.65"/>
<polygon fill="midnightblue" stroke="midnightblue" points="796.93,-160.21 790.12,-168.32 800.51,-166.23 796.93,-160.21"/>
</g>
<!-- Node8&#45;&gt;Node3 -->
<g id="edge9" class="edge">
<title>Node8&#45;&gt;Node3</title>
<path fill="none" stroke="midnightblue" d="M639.84,-115.16C652.04,-114.11 664.65,-113.02 676.5,-112 864.05,-95.89 911.26,-95.37 1098.5,-76 1101.33,-75.71 1104.22,-75.4 1107.14,-75.08"/>
<polygon fill="midnightblue" stroke="midnightblue" points="639.38,-111.69 629.72,-116.04 639.98,-118.66 639.38,-111.69"/>
</g>
<!-- Node8&#45;&gt;Node7 -->
<g id="edge10" class="edge">
<title>Node8&#45;&gt;Node7</title>
<path fill="none" stroke="midnightblue" d="M534.39,-108.54C517.87,-101.39 499.59,-90.82 487.5,-76 473.83,-59.24 469.99,-32.99 468.92,-19.55"/>
<polygon fill="midnightblue" stroke="midnightblue" points="533.26,-111.86 543.85,-112.36 535.89,-105.37 533.26,-111.86"/>
</g>
<!-- Node9 -->
<g id="node9" class="node">
<title>Node9</title>
<g id="a_node9"><a xlink:href="_comp_model_plugin_8cpp.html" target="_top" xlink:title="Implementation of CompModelPlugin, the plugin class of comp package for the SBase element.">
<polygon fill="white" stroke="black" points="666,-56.5 666,-75.5 791,-75.5 791,-56.5 666,-56.5"/>
<text text-anchor="middle" x="728.5" y="-63.5" font-family="Helvetica,sans-Serif" font-size="10.00">CompModelPlugin.cpp</text>
</a>
</g>
</g>
<!-- Node8&#45;&gt;Node9 -->
<g id="edge11" class="edge">
<title>Node8&#45;&gt;Node9</title>
<path fill="none" stroke="midnightblue" d="M606.67,-109.17C636.04,-99 677.7,-84.59 703.9,-75.52"/>
<polygon fill="midnightblue" stroke="midnightblue" points="605.52,-105.86 597.22,-112.44 607.81,-112.48 605.52,-105.86"/>
</g>
<!-- Node10 -->
<g id="node10" class="node">
<title>Node10</title>
<g id="a_node10"><a xlink:href="_comp_s_b_m_l_document_plugin_8cpp.html" target="_top" xlink:title="Implementation of CompSBMLDocumentPlugin, the plugin class of comp package for the SBase element.">
<polygon fill="white" stroke="black" points="809,-56.5 809,-75.5 982,-75.5 982,-56.5 809,-56.5"/>
<text text-anchor="middle" x="895.5" y="-63.5" font-family="Helvetica,sans-Serif" font-size="10.00">CompSBMLDocumentPlugin.cpp</text>
</a>
</g>
</g>
<!-- Node8&#45;&gt;Node10 -->
<g id="edge12" class="edge">
<title>Node8&#45;&gt;Node10</title>
<path fill="none" stroke="midnightblue" d="M633.57,-110.79C694.6,-100.59 787.37,-85.08 844.56,-75.52"/>
<polygon fill="midnightblue" stroke="midnightblue" points="632.97,-107.34 623.68,-112.44 634.12,-114.25 632.97,-107.34"/>
</g>
<!-- Node11 -->
<g id="node11" class="node">
<title>Node11</title>
<g id="a_node11"><a xlink:href="_comp_base_8cpp.html" target="_top" xlink:title="Implementation of CompBase, the base class of extension entities plugged in SBase derived classes in ...">
<polygon fill="white" stroke="black" points="1000,-56.5 1000,-75.5 1089,-75.5 1089,-56.5 1000,-56.5"/>
<text text-anchor="middle" x="1044.5" y="-63.5" font-family="Helvetica,sans-Serif" font-size="10.00">CompBase.cpp</text>
</a>
</g>
</g>
<!-- Node8&#45;&gt;Node11 -->
<g id="edge13" class="edge">
<title>Node8&#45;&gt;Node11</title>
<path fill="none" stroke="midnightblue" d="M639.6,-115.07C722.47,-107.45 867.67,-93.15 991.5,-76 994.27,-75.62 997.12,-75.2 1000,-74.76"/>
<polygon fill="midnightblue" stroke="midnightblue" points="639.2,-111.59 629.56,-115.99 639.84,-118.56 639.2,-111.59"/>
</g>
<!-- Node8&#45;&gt;Node12 -->
<g id="edge14" class="edge">
<title>Node8&#45;&gt;Node12</title>
<path fill="none" stroke="midnightblue" d="M505.44,-112.35C438.9,-103.65 334.06,-89.6 243.5,-76 240.82,-75.6 238.07,-75.18 235.29,-74.74"/>
<polygon fill="midnightblue" stroke="midnightblue" points="505.01,-115.83 515.38,-113.65 505.91,-108.88 505.01,-115.83"/>
</g>
<!-- Node8&#45;&gt;Node13 -->
<g id="edge15" class="edge">
<title>Node8&#45;&gt;Node13</title>
<path fill="none" stroke="midnightblue" d="M640.11,-117.86C761.66,-111.9 1025.06,-97.61 1246.5,-76 1249.43,-75.71 1252.42,-75.4 1255.44,-75.07"/>
<polygon fill="midnightblue" stroke="midnightblue" points="639.67,-114.38 629.85,-118.36 640.01,-121.37 639.67,-114.38"/>
</g>
<!-- Node8&#45;&gt;Node14 -->
<g id="edge16" class="edge">
<title>Node8&#45;&gt;Node14</title>
<path fill="none" stroke="midnightblue" d="M505.23,-114.15C394.51,-102.86 177.01,-80.7 85.1,-71.34"/>
<polygon fill="midnightblue" stroke="midnightblue" points="504.97,-117.64 515.28,-115.17 505.68,-110.67 504.97,-117.64"/>
</g>
<!-- Node15 -->
<g id="node15" class="node">
<title>Node15</title>
<g id="a_node15"><a xlink:href="_s_base_ref_8cpp.html" target="_top" xlink:title="Implementation of SBaseRef, the SBase&#45;derived class of the comp package.">
<polygon fill="white" stroke="black" points="253,-56.5 253,-75.5 336,-75.5 336,-56.5 253,-56.5"/>
<text text-anchor="middle" x="294.5" y="-63.5" font-family="Helvetica,sans-Serif" font-size="10.00">SBaseRef.cpp</text>
</a>
</g>
</g>
<!-- Node8&#45;&gt;Node15 -->
<g id="edge17" class="edge">
<title>Node8&#45;&gt;Node15</title>
<path fill="none" stroke="midnightblue" d="M518.49,-110.51C465.12,-100.14 384.64,-84.51 336.07,-75.08"/>
<polygon fill="midnightblue" stroke="midnightblue" points="517.97,-113.97 528.45,-112.44 519.3,-107.1 517.97,-113.97"/>
</g>
<!-- Node16 -->
<g id="node16" class="node">
<title>Node16</title>
<g id="a_node16"><a xlink:href="_submodel_8cpp.html" target="_top" xlink:title="Implementation of Submodel, the SBase&#45;derived class of the comp package.">
<polygon fill="white" stroke="black" points="354.5,-56.5 354.5,-75.5 440.5,-75.5 440.5,-56.5 354.5,-56.5"/>
<text text-anchor="middle" x="397.5" y="-63.5" font-family="Helvetica,sans-Serif" font-size="10.00">Submodel.cpp</text>
</a>
</g>
</g>
<!-- Node8&#45;&gt;Node16 -->
<g id="edge18" class="edge">
<title>Node8&#45;&gt;Node16</title>
<path fill="none" stroke="midnightblue" d="M535.03,-109.44C502.03,-99.26 454.74,-84.66 425.1,-75.52"/>
<polygon fill="midnightblue" stroke="midnightblue" points="534.18,-112.84 544.77,-112.44 536.25,-106.15 534.18,-112.84"/>
</g>
<!-- Node17 -->
<g id="node17" class="node">
<title>Node17</title>
<g id="a_node17"><a xlink:href="_comp_flattening_converter_8h.html" target="_top" xlink:title="Definition of a first flattening converter.">
<polygon fill="white" stroke="black" points="497,-56.5 497,-75.5 648,-75.5 648,-56.5 497,-56.5"/>
<text text-anchor="middle" x="572.5" y="-63.5" font-family="Helvetica,sans-Serif" font-size="10.00">CompFlatteningConverter.h</text>
</a>
</g>
</g>
<!-- Node8&#45;&gt;Node17 -->
<g id="edge19" class="edge">
<title>Node8&#45;&gt;Node17</title>
<path fill="none" stroke="midnightblue" d="M566.03,-102.1C565.4,-93.14 565.84,-82.86 567.37,-75.75"/>
<polygon fill="midnightblue" stroke="midnightblue" points="562.57,-102.62 567.33,-112.08 569.51,-101.71 562.57,-102.62"/>
</g>
<!-- Node17&#45;&gt;Node4 -->
<g id="edge22" class="edge">
<title>Node17&#45;&gt;Node4</title>
<path fill="none" stroke="midnightblue" d="M622.12,-54.28C669.37,-44.08 739.54,-28.92 783.07,-19.52"/>
<polygon fill="midnightblue" stroke="midnightblue" points="621.15,-50.91 612.11,-56.44 622.63,-57.75 621.15,-50.91"/>
</g>
<!-- Node17&#45;&gt;Node7 -->
<g id="edge20" class="edge">
<title>Node17&#45;&gt;Node7</title>
<path fill="none" stroke="midnightblue" d="M546.67,-51.59C527.44,-41.61 501.76,-28.27 485.17,-19.65"/>
<polygon fill="midnightblue" stroke="midnightblue" points="545.3,-54.82 555.79,-56.32 548.53,-48.61 545.3,-54.82"/>
</g>
<!-- Node17&#45;&gt;Node8 -->
<g id="edge21" class="edge">
<title>Node17&#45;&gt;Node8</title>
<path fill="none" stroke="midnightblue" d="M578.96,-85.69C579.61,-94.64 579.18,-104.93 577.67,-112.08"/>
<polygon fill="midnightblue" stroke="midnightblue" points="582.42,-85.2 577.63,-75.75 575.48,-86.13 582.42,-85.2"/>
</g>
<!-- Node19&#45;&gt;Node3 -->
<g id="edge28" class="edge">
<title>Node19&#45;&gt;Node3</title>
<path fill="none" stroke="midnightblue" d="M1059.48,-272.15C1053.92,-264.07 1047.94,-253.99 1044.5,-244 1033.47,-211.96 1023.38,-198.32 1038.5,-168 1062.15,-120.55 1119.9,-89.52 1151.31,-75.54"/>
<polygon fill="midnightblue" stroke="midnightblue" points="1056.7,-274.28 1065.41,-280.31 1062.36,-270.16 1056.7,-274.28"/>
</g>
<!-- Node19&#45;&gt;Node13 -->
<g id="edge34" class="edge">
<title>Node19&#45;&gt;Node13</title>
<path fill="none" stroke="midnightblue" d="M1128.22,-277.93C1153.91,-271.02 1183.87,-260.25 1207.5,-244 1260.58,-207.5 1270.23,-189.38 1299.5,-132 1309.04,-113.3 1313.57,-88.76 1315.42,-75.84"/>
<polygon fill="midnightblue" stroke="midnightblue" points="1127.06,-274.62 1118.24,-280.48 1128.79,-281.4 1127.06,-274.62"/>
</g>
<!-- Node20 -->
<g id="node20" class="node">
<title>Node20</title>
<g id="a_node20"><a xlink:href="_list_of_replaced_elements_8h.html" target="_top" xlink:title="Definition of ListOfReplacedElements, the SBase derived class of replacedElements package.">
<polygon fill="white" stroke="black" points="1053,-224.5 1053,-243.5 1198,-243.5 1198,-224.5 1053,-224.5"/>
<text text-anchor="middle" x="1125.5" y="-231.5" font-family="Helvetica,sans-Serif" font-size="10.00">ListOfReplacedElements.h</text>
</a>
</g>
</g>
<!-- Node19&#45;&gt;Node20 -->
<g id="edge29" class="edge">
<title>Node19&#45;&gt;Node20</title>
<path fill="none" stroke="midnightblue" d="M1088.48,-272.72C1097.82,-263.2 1109.25,-251.56 1116.91,-243.75"/>
<polygon fill="midnightblue" stroke="midnightblue" points="1085.76,-270.49 1081.25,-280.08 1090.75,-275.4 1085.76,-270.49"/>
</g>
<!-- Node20&#45;&gt;Node3 -->
<g id="edge30" class="edge">
<title>Node20&#45;&gt;Node3</title>
<path fill="none" stroke="midnightblue" d="M1170,-220.81C1186.29,-213.95 1203.04,-203.54 1212.5,-188 1235.74,-149.82 1197.4,-96.56 1180.19,-75.78"/>
<polygon fill="midnightblue" stroke="midnightblue" points="1168.6,-217.6 1160.51,-224.45 1171.1,-224.13 1168.6,-217.6"/>
</g>
<!-- Node20&#45;&gt;Node6 -->
<g id="edge31" class="edge">
<title>Node20&#45;&gt;Node6</title>
<path fill="none" stroke="midnightblue" d="M1060.14,-222.92C994.02,-212.71 892.93,-197.12 830.7,-187.52"/>
<polygon fill="midnightblue" stroke="midnightblue" points="1059.62,-226.38 1070.04,-224.44 1060.69,-219.46 1059.62,-226.38"/>
</g>
<!-- Node20&#45;&gt;Node13 -->
<g id="edge33" class="edge">
<title>Node20&#45;&gt;Node13</title>
<path fill="none" stroke="midnightblue" d="M1166.21,-221.14C1186.64,-213.83 1210.93,-202.95 1229.5,-188 1270.81,-154.74 1301.75,-97.15 1312.44,-75.53"/>
<polygon fill="midnightblue" stroke="midnightblue" points="1164.86,-217.9 1156.53,-224.45 1167.12,-224.53 1164.86,-217.9"/>
</g>
<!-- Node21 -->
<g id="node21" class="node">
<title>Node21</title>
<g id="a_node21"><a xlink:href="_list_of_replaced_elements_8cpp.html" target="_top" xlink:title="Implementation of ListOfReplacedElements from the comp package.">
<polygon fill="white" stroke="black" points="1047.5,-168.5 1047.5,-187.5 1203.5,-187.5 1203.5,-168.5 1047.5,-168.5"/>
<text text-anchor="middle" x="1125.5" y="-175.5" font-family="Helvetica,sans-Serif" font-size="10.00">ListOfReplacedElements.cpp</text>
</a>
</g>
</g>
<!-- Node20&#45;&gt;Node21 -->
<g id="edge32" class="edge">
<title>Node20&#45;&gt;Node21</title>
<path fill="none" stroke="midnightblue" d="M1125.5,-213.8C1125.5,-204.91 1125.5,-194.78 1125.5,-187.75"/>
<polygon fill="midnightblue" stroke="midnightblue" points="1122,-214.08 1125.5,-224.08 1129,-214.08 1122,-214.08"/>
</g>
</g>
</svg>
