<?xml version="1.0" encoding="UTF-8" standalone="no"?>
<!DOCTYPE svg PUBLIC "-//W3C//DTD SVG 1.1//EN"
 "http://www.w3.org/Graphics/SVG/1.1/DTD/svg11.dtd">
<!-- Generated by graphviz version 2.43.0 (0)
 -->
<!-- Title: ReplacedElement.h Pages: 1 -->
<svg width="1386pt" height="308pt"
 viewBox="0.00 0.00 1386.00 308.00" xmlns="http://www.w3.org/2000/svg" xmlns:xlink="http://www.w3.org/1999/xlink">
<g id="graph0" class="graph" transform="scale(1 1) rotate(0) translate(4 304)">
<title>ReplacedElement.h</title>
<polygon fill="white" stroke="transparent" points="-4,4 -4,-304 1382,-304 1382,4 -4,4"/>
<!-- Node1 -->
<g id="node1" class="node">
<title>Node1</title>
<g id="a_node1"><a xlink:title="Definition of ReplacedElement, the SBase derived class of replacedElements package.">
<polygon fill="#bfbfbf" stroke="black" points="200.5,-280.5 200.5,-299.5 311.5,-299.5 311.5,-280.5 200.5,-280.5"/>
<text text-anchor="middle" x="256" y="-287.5" font-family="Helvetica,sans-Serif" font-size="10.00">ReplacedElement.h</text>
</a>
</g>
</g>
<!-- Node2 -->
<g id="node2" class="node">
<title>Node2</title>
<g id="a_node2"><a xlink:href="_comp_extension_types_8h.html" target="_top" xlink:title="Include all SBML types of Comp extension in a single header file.">
<polygon fill="white" stroke="black" points="1248,-56.5 1248,-75.5 1378,-75.5 1378,-56.5 1248,-56.5"/>
<text text-anchor="middle" x="1313" y="-63.5" font-family="Helvetica,sans-Serif" font-size="10.00">CompExtensionTypes.h</text>
</a>
</g>
</g>
<!-- Node1&#45;&gt;Node2 -->
<g id="edge1" class="edge">
<title>Node1&#45;&gt;Node2</title>
<path fill="none" stroke="midnightblue" d="M306.63,-278.37C488.61,-240.15 1107.42,-110.18 1272.33,-75.54"/>
<polygon fill="midnightblue" stroke="midnightblue" points="305.86,-274.95 296.79,-280.43 307.29,-281.8 305.86,-274.95"/>
</g>
<!-- Node5 -->
<g id="node5" class="node">
<title>Node5</title>
<g id="a_node5"><a xlink:href="_list_of_replaced_elements_8h.html" target="_top" xlink:title="Definition of ListOfReplacedElements, the SBase derived class of replacedElements package.">
<polygon fill="white" stroke="black" points="183.5,-224.5 183.5,-243.5 328.5,-243.5 328.5,-224.5 183.5,-224.5"/>
<text text-anchor="middle" x="256" y="-231.5" font-family="Helvetica,sans-Serif" font-size="10.00">ListOfReplacedElements.h</text>
</a>
</g>
</g>
<!-- Node1&#45;&gt;Node5 -->
<g id="edge4" class="edge">
<title>Node1&#45;&gt;Node5</title>
<path fill="none" stroke="midnightblue" d="M256,-269.8C256,-260.91 256,-250.78 256,-243.75"/>
<polygon fill="midnightblue" stroke="midnightblue" points="252.5,-270.08 256,-280.08 259.5,-270.08 252.5,-270.08"/>
</g>
<!-- Node13 -->
<g id="node13" class="node">
<title>Node13</title>
<g id="a_node13"><a xlink:href="_replaced_element_8cpp.html" target="_top" xlink:title="Implementation of ReplacedElement, the SBaseRef derived class of replacedElements package.">
<polygon fill="white" stroke="black" points="0,-56.5 0,-75.5 122,-75.5 122,-56.5 0,-56.5"/>
<text text-anchor="middle" x="61" y="-63.5" font-family="Helvetica,sans-Serif" font-size="10.00">ReplacedElement.cpp</text>
</a>
</g>
</g>
<!-- Node1&#45;&gt;Node13 -->
<g id="edge29" class="edge">
<title>Node1&#45;&gt;Node13</title>
<path fill="none" stroke="midnightblue" d="M216.81,-277.2C175.51,-262.77 111.51,-234.36 75,-188 48.31,-154.11 55.27,-97.4 59.19,-75.75"/>
<polygon fill="midnightblue" stroke="midnightblue" points="215.93,-280.6 226.53,-280.49 218.18,-273.97 215.93,-280.6"/>
</g>
<!-- Node3 -->
<g id="node3" class="node">
<title>Node3</title>
<g id="a_node3"><a xlink:href="_comp_flattening_converter_8cpp.html" target="_top" xlink:title="Implementation of a first flattening converter.">
<polygon fill="white" stroke="black" points="803,-0.5 803,-19.5 965,-19.5 965,-0.5 803,-0.5"/>
<text text-anchor="middle" x="884" y="-7.5" font-family="Helvetica,sans-Serif" font-size="10.00">CompFlatteningConverter.cpp</text>
</a>
</g>
</g>
<!-- Node2&#45;&gt;Node3 -->
<g id="edge2" class="edge">
<title>Node2&#45;&gt;Node3</title>
<path fill="none" stroke="midnightblue" d="M1237.72,-55.52C1156.8,-45.34 1029.34,-29.29 951.54,-19.5"/>
<polygon fill="midnightblue" stroke="midnightblue" points="1237.49,-59.02 1247.84,-56.8 1238.36,-52.08 1237.49,-59.02"/>
</g>
<!-- Node4 -->
<g id="node4" class="node">
<title>Node4</title>
<g id="a_node4"><a xlink:href="_comp_validator_8cpp.html" target="_top" xlink:title=" ">
<polygon fill="white" stroke="black" points="1259,-0.5 1259,-19.5 1367,-19.5 1367,-0.5 1259,-0.5"/>
<text text-anchor="middle" x="1313" y="-7.5" font-family="Helvetica,sans-Serif" font-size="10.00">CompValidator.cpp</text>
</a>
</g>
</g>
<!-- Node2&#45;&gt;Node4 -->
<g id="edge3" class="edge">
<title>Node2&#45;&gt;Node4</title>
<path fill="none" stroke="midnightblue" d="M1313,-45.8C1313,-36.91 1313,-26.78 1313,-19.75"/>
<polygon fill="midnightblue" stroke="midnightblue" points="1309.5,-46.08 1313,-56.08 1316.5,-46.08 1309.5,-46.08"/>
</g>
<!-- Node5&#45;&gt;Node2 -->
<g id="edge5" class="edge">
<title>Node5&#45;&gt;Node2</title>
<path fill="none" stroke="midnightblue" d="M320.18,-222.92C512.23,-192.76 1080.16,-103.57 1258.66,-75.53"/>
<polygon fill="midnightblue" stroke="midnightblue" points="319.57,-219.47 310.24,-224.48 320.66,-226.39 319.57,-219.47"/>
</g>
<!-- Node6 -->
<g id="node6" class="node">
<title>Node6</title>
<g id="a_node6"><a xlink:href="_comp_s_base_plugin_8h.html" target="_top" xlink:title="Definition of CompSBasePlugin, the plugin class of comp package for the Model element.">
<polygon fill="white" stroke="black" points="276,-168.5 276,-187.5 390,-187.5 390,-168.5 276,-168.5"/>
<text text-anchor="middle" x="333" y="-175.5" font-family="Helvetica,sans-Serif" font-size="10.00">CompSBasePlugin.h</text>
</a>
</g>
</g>
<!-- Node5&#45;&gt;Node6 -->
<g id="edge6" class="edge">
<title>Node5&#45;&gt;Node6</title>
<path fill="none" stroke="midnightblue" d="M276.9,-218.34C290.91,-208.52 308.88,-195.91 320.66,-187.65"/>
<polygon fill="midnightblue" stroke="midnightblue" points="274.55,-215.72 268.37,-224.32 278.57,-221.45 274.55,-215.72"/>
</g>
<!-- Node5&#45;&gt;Node13 -->
<g id="edge28" class="edge">
<title>Node5&#45;&gt;Node13</title>
<path fill="none" stroke="midnightblue" d="M173.23,-226.93C144.46,-220.85 114.15,-209.38 93,-188 61.67,-156.33 60,-97.79 60.57,-75.72"/>
<polygon fill="midnightblue" stroke="midnightblue" points="172.84,-230.41 183.32,-228.86 174.16,-223.54 172.84,-230.41"/>
</g>
<!-- Node19 -->
<g id="node19" class="node">
<title>Node19</title>
<g id="a_node19"><a xlink:href="_list_of_replaced_elements_8cpp.html" target="_top" xlink:title="Implementation of ListOfReplacedElements from the comp package.">
<polygon fill="white" stroke="black" points="102,-168.5 102,-187.5 258,-187.5 258,-168.5 102,-168.5"/>
<text text-anchor="middle" x="180" y="-175.5" font-family="Helvetica,sans-Serif" font-size="10.00">ListOfReplacedElements.cpp</text>
</a>
</g>
</g>
<!-- Node5&#45;&gt;Node19 -->
<g id="edge27" class="edge">
<title>Node5&#45;&gt;Node19</title>
<path fill="none" stroke="midnightblue" d="M235.42,-218.38C221.69,-208.62 204.07,-196.11 192.43,-187.83"/>
<polygon fill="midnightblue" stroke="midnightblue" points="233.61,-221.38 243.79,-224.32 237.66,-215.68 233.61,-221.38"/>
</g>
<!-- Node6&#45;&gt;Node2 -->
<g id="edge7" class="edge">
<title>Node6&#45;&gt;Node2</title>
<path fill="none" stroke="midnightblue" d="M400.42,-169.57C581.52,-149.61 1075.83,-95.02 1239,-76 1241.83,-75.67 1244.72,-75.33 1247.63,-74.99"/>
<polygon fill="midnightblue" stroke="midnightblue" points="399.79,-166.12 390.24,-170.7 400.56,-173.08 399.79,-166.12"/>
</g>
<!-- Node7 -->
<g id="node7" class="node">
<title>Node7</title>
<g id="a_node7"><a xlink:href="_comp_extension_8cpp.html" target="_top" xlink:title="Implementation of CompExtension, the core module of comp package.">
<polygon fill="white" stroke="black" points="243.5,-0.5 243.5,-19.5 356.5,-19.5 356.5,-0.5 243.5,-0.5"/>
<text text-anchor="middle" x="300" y="-7.5" font-family="Helvetica,sans-Serif" font-size="10.00">CompExtension.cpp</text>
</a>
</g>
</g>
<!-- Node6&#45;&gt;Node7 -->
<g id="edge8" class="edge">
<title>Node6&#45;&gt;Node7</title>
<path fill="none" stroke="midnightblue" d="M265.96,-166.77C226.54,-159.25 182.11,-147.61 170,-132 149.3,-105.31 149.37,-83.49 169,-56 185.91,-32.32 216.1,-20.97 243.24,-15.59"/>
<polygon fill="midnightblue" stroke="midnightblue" points="265.38,-170.22 275.85,-168.59 266.65,-163.34 265.38,-170.22"/>
</g>
<!-- Node8 -->
<g id="node8" class="node">
<title>Node8</title>
<g id="a_node8"><a xlink:href="_comp_model_plugin_8h.html" target="_top" xlink:title="Definition of CompModelPlugin, the plugin class of comp package for the Model element.">
<polygon fill="white" stroke="black" points="551,-112.5 551,-131.5 665,-131.5 665,-112.5 551,-112.5"/>
<text text-anchor="middle" x="608" y="-119.5" font-family="Helvetica,sans-Serif" font-size="10.00">CompModelPlugin.h</text>
</a>
</g>
</g>
<!-- Node6&#45;&gt;Node8 -->
<g id="edge9" class="edge">
<title>Node6&#45;&gt;Node8</title>
<path fill="none" stroke="midnightblue" d="M386.61,-166.47C438.58,-156.27 516.44,-140.98 564.63,-131.52"/>
<polygon fill="midnightblue" stroke="midnightblue" points="385.71,-163.08 376.57,-168.44 387.06,-169.95 385.71,-163.08"/>
</g>
<!-- Node12 -->
<g id="node12" class="node">
<title>Node12</title>
<g id="a_node12"><a xlink:href="_replaced_by_8cpp.html" target="_top" xlink:title="Implementation of ReplacedBy, the SBaseRef derived class of the comp package.">
<polygon fill="white" stroke="black" points="178.5,-56.5 178.5,-75.5 271.5,-75.5 271.5,-56.5 178.5,-56.5"/>
<text text-anchor="middle" x="225" y="-63.5" font-family="Helvetica,sans-Serif" font-size="10.00">ReplacedBy.cpp</text>
</a>
</g>
</g>
<!-- Node6&#45;&gt;Node12 -->
<g id="edge25" class="edge">
<title>Node6&#45;&gt;Node12</title>
<path fill="none" stroke="midnightblue" d="M331.2,-158.39C328.97,-144.27 324.02,-125.13 313,-112 298,-94.13 274.1,-82.54 254.99,-75.61"/>
<polygon fill="midnightblue" stroke="midnightblue" points="327.74,-158.93 332.46,-168.42 334.68,-158.06 327.74,-158.93"/>
</g>
<!-- Node6&#45;&gt;Node13 -->
<g id="edge26" class="edge">
<title>Node6&#45;&gt;Node13</title>
<path fill="none" stroke="midnightblue" d="M273.23,-166.65C224.39,-157.58 159.71,-144.02 136,-132 107.42,-117.5 80.78,-89.76 68.34,-75.67"/>
<polygon fill="midnightblue" stroke="midnightblue" points="272.61,-170.09 283.07,-168.45 273.87,-163.21 272.61,-170.09"/>
</g>
<!-- Node18 -->
<g id="node18" class="node">
<title>Node18</title>
<g id="a_node18"><a xlink:href="_comp_s_base_plugin_8cpp.html" target="_top" xlink:title="Implementation of CompSBasePlugin, the plugin class of comp package for the SBase element.">
<polygon fill="white" stroke="black" points="179.5,-112.5 179.5,-131.5 304.5,-131.5 304.5,-112.5 179.5,-112.5"/>
<text text-anchor="middle" x="242" y="-119.5" font-family="Helvetica,sans-Serif" font-size="10.00">CompSBasePlugin.cpp</text>
</a>
</g>
</g>
<!-- Node6&#45;&gt;Node18 -->
<g id="edge24" class="edge">
<title>Node6&#45;&gt;Node18</title>
<path fill="none" stroke="midnightblue" d="M309.71,-163.18C292.96,-153.24 270.9,-140.15 256.58,-131.65"/>
<polygon fill="midnightblue" stroke="midnightblue" points="307.99,-166.23 318.38,-168.32 311.57,-160.21 307.99,-166.23"/>
</g>
<!-- Node8&#45;&gt;Node2 -->
<g id="edge10" class="edge">
<title>Node8&#45;&gt;Node2</title>
<path fill="none" stroke="midnightblue" d="M675.17,-117.31C790.58,-110.73 1033.93,-95.77 1239,-76 1241.83,-75.73 1244.73,-75.43 1247.65,-75.13"/>
<polygon fill="midnightblue" stroke="midnightblue" points="674.86,-113.82 665.07,-117.89 675.25,-120.81 674.86,-113.82"/>
</g>
<!-- Node8&#45;&gt;Node7 -->
<g id="edge11" class="edge">
<title>Node8&#45;&gt;Node7</title>
<path fill="none" stroke="midnightblue" d="M540.52,-118.69C465.63,-114.74 351.07,-104.16 319,-76 302.57,-61.57 299.98,-33.8 299.8,-19.69"/>
<polygon fill="midnightblue" stroke="midnightblue" points="540.65,-122.2 550.81,-119.2 541,-115.2 540.65,-122.2"/>
</g>
<!-- Node9 -->
<g id="node9" class="node">
<title>Node9</title>
<g id="a_node9"><a xlink:href="_comp_model_plugin_8cpp.html" target="_top" xlink:title="Implementation of CompModelPlugin, the plugin class of comp package for the SBase element.">
<polygon fill="white" stroke="black" points="806.5,-56.5 806.5,-75.5 931.5,-75.5 931.5,-56.5 806.5,-56.5"/>
<text text-anchor="middle" x="869" y="-63.5" font-family="Helvetica,sans-Serif" font-size="10.00">CompModelPlugin.cpp</text>
</a>
</g>
</g>
<!-- Node8&#45;&gt;Node9 -->
<g id="edge12" class="edge">
<title>Node8&#45;&gt;Node9</title>
<path fill="none" stroke="midnightblue" d="M659.19,-110.41C708.51,-100.2 782.19,-84.96 827.84,-75.52"/>
<polygon fill="midnightblue" stroke="midnightblue" points="658.44,-106.99 649.36,-112.44 659.86,-113.84 658.44,-106.99"/>
</g>
<!-- Node10 -->
<g id="node10" class="node">
<title>Node10</title>
<g id="a_node10"><a xlink:href="_comp_s_b_m_l_document_plugin_8cpp.html" target="_top" xlink:title="Implementation of CompSBMLDocumentPlugin, the plugin class of comp package for the SBase element.">
<polygon fill="white" stroke="black" points="949.5,-56.5 949.5,-75.5 1122.5,-75.5 1122.5,-56.5 949.5,-56.5"/>
<text text-anchor="middle" x="1036" y="-63.5" font-family="Helvetica,sans-Serif" font-size="10.00">CompSBMLDocumentPlugin.cpp</text>
</a>
</g>
</g>
<!-- Node8&#45;&gt;Node10 -->
<g id="edge13" class="edge">
<title>Node8&#45;&gt;Node10</title>
<path fill="none" stroke="midnightblue" d="M675.25,-112.51C755.33,-102.41 888.3,-85.64 968.49,-75.52"/>
<polygon fill="midnightblue" stroke="midnightblue" points="674.76,-109.05 665.28,-113.77 675.64,-115.99 674.76,-109.05"/>
</g>
<!-- Node11 -->
<g id="node11" class="node">
<title>Node11</title>
<g id="a_node11"><a xlink:href="_comp_base_8cpp.html" target="_top" xlink:title="Implementation of CompBase, the base class of extension entities plugged in SBase derived classes in ...">
<polygon fill="white" stroke="black" points="1140.5,-56.5 1140.5,-75.5 1229.5,-75.5 1229.5,-56.5 1140.5,-56.5"/>
<text text-anchor="middle" x="1185" y="-63.5" font-family="Helvetica,sans-Serif" font-size="10.00">CompBase.cpp</text>
</a>
</g>
</g>
<!-- Node8&#45;&gt;Node11 -->
<g id="edge14" class="edge">
<title>Node8&#45;&gt;Node11</title>
<path fill="none" stroke="midnightblue" d="M675.41,-117C775.36,-110.66 968.64,-96.85 1132,-76 1134.68,-75.66 1137.44,-75.28 1140.22,-74.87"/>
<polygon fill="midnightblue" stroke="midnightblue" points="674.92,-113.52 665.15,-117.64 675.35,-120.51 674.92,-113.52"/>
</g>
<!-- Node8&#45;&gt;Node12 -->
<g id="edge15" class="edge">
<title>Node8&#45;&gt;Node12</title>
<path fill="none" stroke="midnightblue" d="M540.84,-111.77C475.69,-102.77 374.04,-88.65 286,-76 281.34,-75.33 276.48,-74.62 271.62,-73.92"/>
<polygon fill="midnightblue" stroke="midnightblue" points="540.59,-115.27 550.98,-113.17 541.55,-108.33 540.59,-115.27"/>
</g>
<!-- Node8&#45;&gt;Node13 -->
<g id="edge16" class="edge">
<title>Node8&#45;&gt;Node13</title>
<path fill="none" stroke="midnightblue" d="M540.7,-114.36C433.54,-103.78 225.69,-83.26 122.38,-73.06"/>
<polygon fill="midnightblue" stroke="midnightblue" points="540.46,-117.85 550.75,-115.35 541.14,-110.88 540.46,-117.85"/>
</g>
<!-- Node14 -->
<g id="node14" class="node">
<title>Node14</title>
<g id="a_node14"><a xlink:href="_replacing_8cpp.html" target="_top" xlink:title="Implementation of Replacing, the SBaseRef derived class of Replacings package.">
<polygon fill="white" stroke="black" points="328.5,-56.5 328.5,-75.5 413.5,-75.5 413.5,-56.5 328.5,-56.5"/>
<text text-anchor="middle" x="371" y="-63.5" font-family="Helvetica,sans-Serif" font-size="10.00">Replacing.cpp</text>
</a>
</g>
</g>
<!-- Node8&#45;&gt;Node14 -->
<g id="edge17" class="edge">
<title>Node8&#45;&gt;Node14</title>
<path fill="none" stroke="midnightblue" d="M560.68,-110.22C515.89,-100.01 449.56,-84.9 408.38,-75.52"/>
<polygon fill="midnightblue" stroke="midnightblue" points="559.92,-113.63 570.45,-112.44 561.47,-106.81 559.92,-113.63"/>
</g>
<!-- Node15 -->
<g id="node15" class="node">
<title>Node15</title>
<g id="a_node15"><a xlink:href="_s_base_ref_8cpp.html" target="_top" xlink:title="Implementation of SBaseRef, the SBase&#45;derived class of the comp package.">
<polygon fill="white" stroke="black" points="431.5,-56.5 431.5,-75.5 514.5,-75.5 514.5,-56.5 431.5,-56.5"/>
<text text-anchor="middle" x="473" y="-63.5" font-family="Helvetica,sans-Serif" font-size="10.00">SBaseRef.cpp</text>
</a>
</g>
</g>
<!-- Node8&#45;&gt;Node15 -->
<g id="edge18" class="edge">
<title>Node8&#45;&gt;Node15</title>
<path fill="none" stroke="midnightblue" d="M577.09,-108.64C551.76,-98.5 516.57,-84.43 494.29,-75.52"/>
<polygon fill="midnightblue" stroke="midnightblue" points="576.02,-111.98 586.61,-112.44 578.62,-105.48 576.02,-111.98"/>
</g>
<!-- Node16 -->
<g id="node16" class="node">
<title>Node16</title>
<g id="a_node16"><a xlink:href="_submodel_8cpp.html" target="_top" xlink:title="Implementation of Submodel, the SBase&#45;derived class of the comp package.">
<polygon fill="white" stroke="black" points="702,-56.5 702,-75.5 788,-75.5 788,-56.5 702,-56.5"/>
<text text-anchor="middle" x="745" y="-63.5" font-family="Helvetica,sans-Serif" font-size="10.00">Submodel.cpp</text>
</a>
</g>
</g>
<!-- Node8&#45;&gt;Node16 -->
<g id="edge19" class="edge">
<title>Node8&#45;&gt;Node16</title>
<path fill="none" stroke="midnightblue" d="M639.02,-108.77C664.76,-98.63 700.69,-84.47 723.39,-75.52"/>
<polygon fill="midnightblue" stroke="midnightblue" points="637.73,-105.52 629.71,-112.44 640.29,-112.03 637.73,-105.52"/>
</g>
<!-- Node17 -->
<g id="node17" class="node">
<title>Node17</title>
<g id="a_node17"><a xlink:href="_comp_flattening_converter_8h.html" target="_top" xlink:title="Definition of a first flattening converter.">
<polygon fill="white" stroke="black" points="532.5,-56.5 532.5,-75.5 683.5,-75.5 683.5,-56.5 532.5,-56.5"/>
<text text-anchor="middle" x="608" y="-63.5" font-family="Helvetica,sans-Serif" font-size="10.00">CompFlatteningConverter.h</text>
</a>
</g>
</g>
<!-- Node8&#45;&gt;Node17 -->
<g id="edge20" class="edge">
<title>Node8&#45;&gt;Node17</title>
<path fill="none" stroke="midnightblue" d="M601.53,-102.1C600.9,-93.14 601.34,-82.86 602.87,-75.75"/>
<polygon fill="midnightblue" stroke="midnightblue" points="598.07,-102.62 602.83,-112.08 605.01,-101.71 598.07,-102.62"/>
</g>
<!-- Node17&#45;&gt;Node3 -->
<g id="edge23" class="edge">
<title>Node17&#45;&gt;Node3</title>
<path fill="none" stroke="midnightblue" d="M661.8,-54.47C713.96,-44.27 792.11,-28.98 840.47,-19.52"/>
<polygon fill="midnightblue" stroke="midnightblue" points="660.87,-51.09 651.73,-56.44 662.22,-57.96 660.87,-51.09"/>
</g>
<!-- Node17&#45;&gt;Node7 -->
<g id="edge21" class="edge">
<title>Node17&#45;&gt;Node7</title>
<path fill="none" stroke="midnightblue" d="M549.05,-54.66C490.84,-44.46 402.89,-29.04 348.58,-19.52"/>
<polygon fill="midnightblue" stroke="midnightblue" points="548.74,-58.16 559.2,-56.44 549.95,-51.27 548.74,-58.16"/>
</g>
<!-- Node17&#45;&gt;Node8 -->
<g id="edge22" class="edge">
<title>Node17&#45;&gt;Node8</title>
<path fill="none" stroke="midnightblue" d="M614.46,-85.69C615.11,-94.64 614.68,-104.93 613.17,-112.08"/>
<polygon fill="midnightblue" stroke="midnightblue" points="617.92,-85.2 613.13,-75.75 610.98,-86.13 617.92,-85.2"/>
</g>
</g>
</svg>
