<?xml version="1.0" encoding="UTF-8" standalone="no"?>
<!DOCTYPE svg PUBLIC "-//W3C//DTD SVG 1.1//EN"
 "http://www.w3.org/Graphics/SVG/1.1/DTD/svg11.dtd">
<!-- Generated by graphviz version 2.43.0 (0)
 -->
<!-- Title: SBasePluginCreator.h Pages: 1 -->
<svg width="1179pt" height="84pt"
 viewBox="0.00 0.00 1179.00 84.00" xmlns="http://www.w3.org/2000/svg" xmlns:xlink="http://www.w3.org/1999/xlink">
<g id="graph0" class="graph" transform="scale(1 1) rotate(0) translate(4 80)">
<title>SBasePluginCreator.h</title>
<polygon fill="white" stroke="transparent" points="-4,4 -4,-80 1175,-80 1175,4 -4,4"/>
<!-- Node1 -->
<g id="node1" class="node">
<title>Node1</title>
<g id="a_node1"><a xlink:title="Template class for SBasePlugin&#45;based classes.">
<polygon fill="#bfbfbf" stroke="black" points="525,-56.5 525,-75.5 646,-75.5 646,-56.5 525,-56.5"/>
<text text-anchor="middle" x="585.5" y="-63.5" font-family="Helvetica,sans-Serif" font-size="10.00">SBasePluginCreator.h</text>
</a>
</g>
</g>
<!-- Node2 -->
<g id="node2" class="node">
<title>Node2</title>
<g id="a_node2"><a xlink:href="_comp_extension_8cpp.html" target="_top" xlink:title="Implementation of CompExtension, the core module of comp package.">
<polygon fill="white" stroke="black" points="0,-0.5 0,-19.5 113,-19.5 113,-0.5 0,-0.5"/>
<text text-anchor="middle" x="56.5" y="-7.5" font-family="Helvetica,sans-Serif" font-size="10.00">CompExtension.cpp</text>
</a>
</g>
</g>
<!-- Node1&#45;&gt;Node2 -->
<g id="edge1" class="edge">
<title>Node1&#45;&gt;Node2</title>
<path fill="none" stroke="midnightblue" d="M514.56,-58.96C423.63,-51.03 261.14,-36.18 122.5,-20 119.4,-19.64 116.22,-19.25 113.01,-18.85"/>
<polygon fill="midnightblue" stroke="midnightblue" points="514.48,-62.47 524.75,-59.85 515.09,-55.5 514.48,-62.47"/>
</g>
<!-- Node3 -->
<g id="node3" class="node">
<title>Node3</title>
<g id="a_node3"><a xlink:href="_fbc_extension_8cpp.html" target="_top" xlink:title="Implementation of FbcExtension, the core module of fbc package.">
<polygon fill="white" stroke="black" points="131.5,-0.5 131.5,-19.5 233.5,-19.5 233.5,-0.5 131.5,-0.5"/>
<text text-anchor="middle" x="182.5" y="-7.5" font-family="Helvetica,sans-Serif" font-size="10.00">FbcExtension.cpp</text>
</a>
</g>
</g>
<!-- Node1&#45;&gt;Node3 -->
<g id="edge2" class="edge">
<title>Node1&#45;&gt;Node3</title>
<path fill="none" stroke="midnightblue" d="M514.79,-56.11C445.4,-47.29 336.6,-33.23 242.5,-20 239.58,-19.59 236.58,-19.16 233.55,-18.72"/>
<polygon fill="midnightblue" stroke="midnightblue" points="514.37,-59.59 524.73,-57.37 515.25,-52.64 514.37,-59.59"/>
</g>
<!-- Node4 -->
<g id="node4" class="node">
<title>Node4</title>
<g id="a_node4"><a xlink:href="_groups_extension_8cpp.html" target="_top" xlink:title="Implementation of GroupsExtension.">
<polygon fill="white" stroke="black" points="252,-0.5 252,-19.5 371,-19.5 371,-0.5 252,-0.5"/>
<text text-anchor="middle" x="311.5" y="-7.5" font-family="Helvetica,sans-Serif" font-size="10.00">GroupsExtension.cpp</text>
</a>
</g>
</g>
<!-- Node1&#45;&gt;Node4 -->
<g id="edge3" class="edge">
<title>Node1&#45;&gt;Node4</title>
<path fill="none" stroke="midnightblue" d="M532.09,-54.47C480.3,-44.27 402.73,-28.98 354.71,-19.52"/>
<polygon fill="midnightblue" stroke="midnightblue" points="531.6,-57.94 542.08,-56.44 532.95,-51.08 531.6,-57.94"/>
</g>
<!-- Node5 -->
<g id="node5" class="node">
<title>Node5</title>
<g id="a_node5"><a xlink:href="_layout_extension_8cpp.html" target="_top" xlink:title="Implementation of LayoutExtension, the core module of layout package.">
<polygon fill="white" stroke="black" points="389.5,-0.5 389.5,-19.5 507.5,-19.5 507.5,-0.5 389.5,-0.5"/>
<text text-anchor="middle" x="448.5" y="-7.5" font-family="Helvetica,sans-Serif" font-size="10.00">LayoutExtension.cpp</text>
</a>
</g>
</g>
<!-- Node1&#45;&gt;Node5 -->
<g id="edge4" class="edge">
<title>Node1&#45;&gt;Node5</title>
<path fill="none" stroke="midnightblue" d="M554.48,-52.77C528.74,-42.63 492.81,-28.47 470.11,-19.52"/>
<polygon fill="midnightblue" stroke="midnightblue" points="553.21,-56.03 563.79,-56.44 555.77,-49.52 553.21,-56.03"/>
</g>
<!-- Node6 -->
<g id="node6" class="node">
<title>Node6</title>
<g id="a_node6"><a xlink:href="_render_extension_8cpp.html" target="_top" xlink:title="Implementation of RenderExtension, the core module of the render package.">
<polygon fill="white" stroke="black" points="526,-0.5 526,-19.5 645,-19.5 645,-0.5 526,-0.5"/>
<text text-anchor="middle" x="585.5" y="-7.5" font-family="Helvetica,sans-Serif" font-size="10.00">RenderExtension.cpp</text>
</a>
</g>
</g>
<!-- Node1&#45;&gt;Node6 -->
<g id="edge5" class="edge">
<title>Node1&#45;&gt;Node6</title>
<path fill="none" stroke="midnightblue" d="M585.5,-45.8C585.5,-36.91 585.5,-26.78 585.5,-19.75"/>
<polygon fill="midnightblue" stroke="midnightblue" points="582,-46.08 585.5,-56.08 589,-46.08 582,-46.08"/>
</g>
<!-- Node7 -->
<g id="node7" class="node">
<title>Node7</title>
<g id="a_node7"><a xlink:href="_spatial_extension_8cpp.html" target="_top" xlink:title="Implementation of SpatialExtension.">
<polygon fill="white" stroke="black" points="663,-0.5 663,-19.5 782,-19.5 782,-0.5 663,-0.5"/>
<text text-anchor="middle" x="722.5" y="-7.5" font-family="Helvetica,sans-Serif" font-size="10.00">SpatialExtension.cpp</text>
</a>
</g>
</g>
<!-- Node1&#45;&gt;Node7 -->
<g id="edge6" class="edge">
<title>Node1&#45;&gt;Node7</title>
<path fill="none" stroke="midnightblue" d="M616.52,-52.77C642.26,-42.63 678.19,-28.47 700.89,-19.52"/>
<polygon fill="midnightblue" stroke="midnightblue" points="615.23,-49.52 607.21,-56.44 617.79,-56.03 615.23,-49.52"/>
</g>
<!-- Node8 -->
<g id="node8" class="node">
<title>Node8</title>
<g id="a_node8"><a xlink:href="_distrib_extension_8cpp.html" target="_top" xlink:title="Implementation of DistribExtension.">
<polygon fill="white" stroke="black" points="800,-0.5 800,-19.5 917,-19.5 917,-0.5 800,-0.5"/>
<text text-anchor="middle" x="858.5" y="-7.5" font-family="Helvetica,sans-Serif" font-size="10.00">DistribExtension.cpp</text>
</a>
</g>
</g>
<!-- Node1&#45;&gt;Node8 -->
<g id="edge7" class="edge">
<title>Node1&#45;&gt;Node8</title>
<path fill="none" stroke="midnightblue" d="M638.72,-54.47C690.31,-44.27 767.6,-28.98 815.44,-19.52"/>
<polygon fill="midnightblue" stroke="midnightblue" points="637.89,-51.07 628.76,-56.44 639.25,-57.94 637.89,-51.07"/>
</g>
<!-- Node9 -->
<g id="node9" class="node">
<title>Node9</title>
<g id="a_node9"><a xlink:href="_multi_extension_8cpp.html" target="_top" xlink:title=": Implementation of the MultiExtension class">
<polygon fill="white" stroke="black" points="935.5,-0.5 935.5,-19.5 1045.5,-19.5 1045.5,-0.5 935.5,-0.5"/>
<text text-anchor="middle" x="990.5" y="-7.5" font-family="Helvetica,sans-Serif" font-size="10.00">MultiExtension.cpp</text>
</a>
</g>
</g>
<!-- Node1&#45;&gt;Node9 -->
<g id="edge8" class="edge">
<title>Node1&#45;&gt;Node9</title>
<path fill="none" stroke="midnightblue" d="M656.51,-55.81C725.5,-46.83 833.22,-32.71 926.5,-20 929.39,-19.61 932.35,-19.2 935.35,-18.79"/>
<polygon fill="midnightblue" stroke="midnightblue" points="655.66,-52.39 646.19,-57.15 656.56,-59.33 655.66,-52.39"/>
</g>
<!-- Node10 -->
<g id="node10" class="node">
<title>Node10</title>
<g id="a_node10"><a xlink:href="_qual_extension_8cpp.html" target="_top" xlink:title="Implementation of QualExtension, the core module of qual package.">
<polygon fill="white" stroke="black" points="1064,-0.5 1064,-19.5 1171,-19.5 1171,-0.5 1064,-0.5"/>
<text text-anchor="middle" x="1117.5" y="-7.5" font-family="Helvetica,sans-Serif" font-size="10.00">QualExtension.cpp</text>
</a>
</g>
</g>
<!-- Node1&#45;&gt;Node10 -->
<g id="edge9" class="edge">
<title>Node1&#45;&gt;Node10</title>
<path fill="none" stroke="midnightblue" d="M656.33,-59.23C748.26,-51.51 913.58,-36.82 1054.5,-20 1057.57,-19.63 1060.73,-19.24 1063.91,-18.83"/>
<polygon fill="midnightblue" stroke="midnightblue" points="655.98,-55.75 646.31,-60.07 656.56,-62.72 655.98,-55.75"/>
</g>
</g>
</svg>
