<?xml version="1.0" encoding="UTF-8" standalone="no"?>
<!DOCTYPE svg PUBLIC "-//W3C//DTD SVG 1.1//EN"
 "http://www.w3.org/Graphics/SVG/1.1/DTD/svg11.dtd">
<!-- Generated by graphviz version 2.43.0 (0)
 -->
<!-- Title: SBMLExtensionException.h Pages: 1 -->
<!--zoomable 341 -->
<svg id="main" version="1.1" xmlns="http://www.w3.org/2000/svg" xmlns:xlink="http://www.w3.org/1999/xlink" xml:space="preserve" onload="init(evt)">
<style type="text/css"><![CDATA[
.edge:hover path { stroke: red; }
.edge:hover polygon { stroke: red; fill: red; }
]]></style>
<script type="text/javascript"><![CDATA[
var edges = document.getElementsByTagName('g');
if (edges && edges.length) {
  for (var i=0;i<edges.length;i++) {
    if (edges[i].id.substr(0,4)=='edge') {
      edges[i].setAttribute('class','edge');
    }
  }
}
]]></script>
        <defs>
                <circle id="rim" cx="0" cy="0" r="7"/>
                <circle id="rim2" cx="0" cy="0" r="3.5"/>
                <g id="zoomPlus">
                        <use xlink:href="#rim" fill="#404040">
                                <set attributeName="fill" to="#808080" begin="zoomplus.mouseover" end="zoomplus.mouseout"/>
                        </use>
                        <path d="M-4,0h8M0,-4v8" fill="none" stroke="white" stroke-width="1.5" pointer-events="none"/>
                </g>
                <g id="zoomMin">
                        <use xlink:href="#rim" fill="#404040">
                                <set attributeName="fill" to="#808080" begin="zoomminus.mouseover" end="zoomminus.mouseout"/>
                        </use>
                        <path d="M-4,0h8" fill="none" stroke="white" stroke-width="1.5" pointer-events="none"/>
                </g>
                <g id="dirArrow">
                        <path fill="none" stroke="white" stroke-width="1.5" d="M0,-3.0v7 M-2.5,-0.5L0,-3.0L2.5,-0.5"/>
                </g>
               <g id="resetDef">
                       <use xlink:href="#rim2" fill="#404040">
                               <set attributeName="fill" to="#808080" begin="reset.mouseover" end="reset.mouseout"/>
                       </use>
               </g>
        </defs>

<script type="text/javascript">
var viewWidth = 605;
var viewHeight = 341;
var sectionId = 'dynsection-0';
</script>
<script xlink:href="svgpan.js"/>
<svg id="graph" class="graph">
<g id="viewport">
<title>SBMLExtensionException.h</title>
<polygon fill="white" stroke="transparent" points="-4,4 -4,-337 601.06,-337 601.06,4 -4,4"/>
<!-- Node1 -->
<g id="node1" class="node">
<title>Node1</title>
<g id="a_node1"><a xlink:title="Class of exceptions thrown in some situations.">
<polygon fill="#bfbfbf" stroke="black" points="389.06,-313.5 389.06,-332.5 538.06,-332.5 538.06,-313.5 389.06,-313.5"/>
<text text-anchor="middle" x="463.56" y="-320.5" font-family="Helvetica,sans-Serif" font-size="10.00">SBMLExtensionException.h</text>
</a>
</g>
</g>
<!-- Node2 -->
<g id="node2" class="node">
<title>Node2</title>
<g id="a_node2"><a xlink:href="common_8h.html" target="_top" xlink:title="Common functions and macros for C and C++.">
<polygon fill="white" stroke="black" points="282.06,-257.5 282.06,-276.5 423.06,-276.5 423.06,-257.5 282.06,-257.5"/>
<text text-anchor="middle" x="352.56" y="-264.5" font-family="Helvetica,sans-Serif" font-size="10.00">sbml/common/common.h</text>
</a>
</g>
</g>
<!-- Node1&#45;&gt;Node2 -->
<g id="edge1" class="edge">
<title>Node1&#45;&gt;Node2</title>
<path fill="none" stroke="midnightblue" d="M445.73,-313.32C427.84,-304.62 400.09,-291.12 379.52,-281.11"/>
<polygon fill="midnightblue" stroke="midnightblue" points="380.87,-277.88 370.35,-276.65 377.81,-284.18 380.87,-277.88"/>
</g>
<!-- Node12 -->
<g id="node12" class="node">
<title>Node12</title>
<g id="a_node12"><a xlink:title=" ">
<polygon fill="white" stroke="#bfbfbf" points="441.56,-257.5 441.56,-276.5 485.56,-276.5 485.56,-257.5 441.56,-257.5"/>
<text text-anchor="middle" x="463.56" y="-264.5" font-family="Helvetica,sans-Serif" font-size="10.00">string</text>
</a>
</g>
</g>
<!-- Node1&#45;&gt;Node12 -->
<g id="edge15" class="edge">
<title>Node1&#45;&gt;Node12</title>
<path fill="none" stroke="midnightblue" d="M463.56,-313.08C463.56,-306.01 463.56,-295.86 463.56,-286.99"/>
<polygon fill="midnightblue" stroke="midnightblue" points="467.06,-286.75 463.56,-276.75 460.06,-286.75 467.06,-286.75"/>
</g>
<!-- Node13 -->
<g id="node13" class="node">
<title>Node13</title>
<g id="a_node13"><a xlink:title=" ">
<polygon fill="white" stroke="#bfbfbf" points="504.06,-257.5 504.06,-276.5 569.06,-276.5 569.06,-257.5 504.06,-257.5"/>
<text text-anchor="middle" x="536.56" y="-264.5" font-family="Helvetica,sans-Serif" font-size="10.00">stdexcept</text>
</a>
</g>
</g>
<!-- Node1&#45;&gt;Node13 -->
<g id="edge16" class="edge">
<title>Node1&#45;&gt;Node13</title>
<path fill="none" stroke="midnightblue" d="M475.29,-313.32C486.4,-305.11 503.3,-292.6 516.54,-282.81"/>
<polygon fill="midnightblue" stroke="midnightblue" points="518.66,-285.59 524.62,-276.83 514.5,-279.97 518.66,-285.59"/>
</g>
<!-- Node3 -->
<g id="node3" class="node">
<title>Node3</title>
<g id="a_node3"><a xlink:href="libsbml-config_8h.html" target="_top" xlink:title="Decides whether to #include Unix or Windows configuration variables.">
<polygon fill="white" stroke="black" points="90.06,-190.5 90.06,-220.5 215.06,-220.5 215.06,-190.5 90.06,-190.5"/>
<text text-anchor="start" x="98.06" y="-208.5" font-family="Helvetica,sans-Serif" font-size="10.00">sbml/common/libsbml</text>
<text text-anchor="middle" x="152.56" y="-197.5" font-family="Helvetica,sans-Serif" font-size="10.00">&#45;config.h</text>
</a>
</g>
</g>
<!-- Node2&#45;&gt;Node3 -->
<g id="edge2" class="edge">
<title>Node2&#45;&gt;Node3</title>
<path fill="none" stroke="midnightblue" d="M323.91,-257.48C294.16,-248.63 246.84,-234.55 209.46,-223.43"/>
<polygon fill="midnightblue" stroke="midnightblue" points="210.28,-220.02 199.7,-220.52 208.28,-226.73 210.28,-220.02"/>
</g>
<!-- Node7 -->
<g id="node7" class="node">
<title>Node7</title>
<g id="a_node7"><a xlink:href="extern_8h.html" target="_top" xlink:title="Definitions of LIBSBML_EXTERN and related things.">
<polygon fill="white" stroke="black" points="203.56,-67.5 203.56,-86.5 333.56,-86.5 333.56,-67.5 203.56,-67.5"/>
<text text-anchor="middle" x="268.56" y="-74.5" font-family="Helvetica,sans-Serif" font-size="10.00">sbml/common/extern.h</text>
</a>
</g>
</g>
<!-- Node2&#45;&gt;Node7 -->
<g id="edge9" class="edge">
<title>Node2&#45;&gt;Node7</title>
<path fill="none" stroke="midnightblue" d="M349.56,-257.44C341.58,-234.96 318.8,-172.58 294.56,-123 290,-113.68 284.29,-103.65 279.39,-95.43"/>
<polygon fill="midnightblue" stroke="midnightblue" points="282.3,-93.49 274.11,-86.77 276.32,-97.13 282.3,-93.49"/>
</g>
<!-- Node8 -->
<g id="node8" class="node">
<title>Node8</title>
<g id="a_node8"><a xlink:title=" ">
<polygon fill="white" stroke="#bfbfbf" points="362.56,-129 362.56,-148 412.56,-148 412.56,-129 362.56,-129"/>
<text text-anchor="middle" x="387.56" y="-136" font-family="Helvetica,sans-Serif" font-size="10.00">stdio.h</text>
</a>
</g>
</g>
<!-- Node2&#45;&gt;Node8 -->
<g id="edge8" class="edge">
<title>Node2&#45;&gt;Node8</title>
<path fill="none" stroke="midnightblue" d="M354.61,-257.06C357.91,-242.81 364.74,-214.08 371.56,-190 374.62,-179.2 378.4,-167.22 381.52,-157.64"/>
<polygon fill="midnightblue" stroke="midnightblue" points="384.88,-158.62 384.68,-148.03 378.23,-156.43 384.88,-158.62"/>
</g>
<!-- Node9 -->
<g id="node9" class="node">
<title>Node9</title>
<g id="a_node9"><a xlink:href="memory_8h.html" target="_top" xlink:title=" ">
<polygon fill="white" stroke="black" points="381.06,-196 381.06,-215 492.06,-215 492.06,-196 381.06,-196"/>
<text text-anchor="middle" x="436.56" y="-203" font-family="Helvetica,sans-Serif" font-size="10.00">sbml/util/memory.h</text>
</a>
</g>
</g>
<!-- Node2&#45;&gt;Node9 -->
<g id="edge10" class="edge">
<title>Node2&#45;&gt;Node9</title>
<path fill="none" stroke="midnightblue" d="M364.6,-257.48C378.07,-247.93 400.13,-232.31 416.28,-220.87"/>
<polygon fill="midnightblue" stroke="midnightblue" points="418.41,-223.65 424.55,-215.01 414.36,-217.93 418.41,-223.65"/>
</g>
<!-- Node10 -->
<g id="node10" class="node">
<title>Node10</title>
<g id="a_node10"><a xlink:href="util_8h.html" target="_top" xlink:title="Utility functions.">
<polygon fill="white" stroke="black" points="510.06,-196 510.06,-215 597.06,-215 597.06,-196 510.06,-196"/>
<text text-anchor="middle" x="553.56" y="-203" font-family="Helvetica,sans-Serif" font-size="10.00">sbml/util/util.h</text>
</a>
</g>
</g>
<!-- Node2&#45;&gt;Node10 -->
<g id="edge11" class="edge">
<title>Node2&#45;&gt;Node10</title>
<path fill="none" stroke="midnightblue" d="M381.36,-257.48C416.43,-247.09 475.82,-229.51 514.87,-217.95"/>
<polygon fill="midnightblue" stroke="midnightblue" points="516.22,-221.2 524.82,-215.01 514.23,-214.49 516.22,-221.2"/>
</g>
<!-- Node4 -->
<g id="node4" class="node">
<title>Node4</title>
<g id="a_node4"><a xlink:title=" ">
<polygon fill="white" stroke="#bfbfbf" points="44.06,-0.5 44.06,-30.5 169.06,-30.5 169.06,-0.5 44.06,-0.5"/>
<text text-anchor="start" x="52.06" y="-18.5" font-family="Helvetica,sans-Serif" font-size="10.00">sbml/common/libsbml</text>
<text text-anchor="middle" x="106.56" y="-7.5" font-family="Helvetica,sans-Serif" font-size="10.00">&#45;namespace.h</text>
</a>
</g>
</g>
<!-- Node3&#45;&gt;Node4 -->
<g id="edge3" class="edge">
<title>Node3&#45;&gt;Node4</title>
<path fill="none" stroke="midnightblue" d="M89.76,-198.92C60.01,-192.76 27.03,-180.04 8.56,-154 -21.23,-111.98 36.04,-62.87 74.9,-36.19"/>
<polygon fill="midnightblue" stroke="midnightblue" points="76.99,-39.01 83.35,-30.54 73.09,-33.19 76.99,-39.01"/>
</g>
<!-- Node5 -->
<g id="node5" class="node">
<title>Node5</title>
<g id="a_node5"><a xlink:title=" ">
<polygon fill="white" stroke="#bfbfbf" points="18.06,-123.5 18.06,-153.5 143.06,-153.5 143.06,-123.5 18.06,-123.5"/>
<text text-anchor="start" x="26.06" y="-141.5" font-family="Helvetica,sans-Serif" font-size="10.00">sbml/common/libsbml</text>
<text text-anchor="middle" x="80.56" y="-130.5" font-family="Helvetica,sans-Serif" font-size="10.00">&#45;config&#45;common.h</text>
</a>
</g>
</g>
<!-- Node3&#45;&gt;Node5 -->
<g id="edge4" class="edge">
<title>Node3&#45;&gt;Node5</title>
<path fill="none" stroke="midnightblue" d="M136.94,-190.4C127.22,-181.62 114.55,-170.18 103.68,-160.37"/>
<polygon fill="midnightblue" stroke="midnightblue" points="105.92,-157.68 96.15,-153.58 101.23,-162.88 105.92,-157.68"/>
</g>
<!-- Node6 -->
<g id="node6" class="node">
<title>Node6</title>
<g id="a_node6"><a xlink:href="libsbml-version_8h.html" target="_top" xlink:title="Define libSBML version numbers for access from client software.">
<polygon fill="white" stroke="black" points="161.06,-123.5 161.06,-153.5 286.06,-153.5 286.06,-123.5 161.06,-123.5"/>
<text text-anchor="start" x="169.06" y="-141.5" font-family="Helvetica,sans-Serif" font-size="10.00">sbml/common/libsbml</text>
<text text-anchor="middle" x="223.56" y="-130.5" font-family="Helvetica,sans-Serif" font-size="10.00">&#45;version.h</text>
</a>
</g>
</g>
<!-- Node3&#45;&gt;Node6 -->
<g id="edge5" class="edge">
<title>Node3&#45;&gt;Node6</title>
<path fill="none" stroke="midnightblue" d="M167.97,-190.4C177.55,-181.62 190.05,-170.18 200.76,-160.37"/>
<polygon fill="midnightblue" stroke="midnightblue" points="203.17,-162.91 208.18,-153.58 198.45,-157.75 203.17,-162.91"/>
</g>
<!-- Node6&#45;&gt;Node7 -->
<g id="edge6" class="edge">
<title>Node6&#45;&gt;Node7</title>
<path fill="none" stroke="midnightblue" d="M234.23,-123.4C240.7,-114.84 248.99,-103.87 255.81,-94.86"/>
<polygon fill="midnightblue" stroke="midnightblue" points="258.77,-96.74 262.01,-86.66 253.19,-92.52 258.77,-96.74"/>
</g>
<!-- Node7&#45;&gt;Node4 -->
<g id="edge7" class="edge">
<title>Node7&#45;&gt;Node4</title>
<path fill="none" stroke="midnightblue" d="M245.35,-67.48C221.67,-58.78 184.23,-45.03 154.2,-34"/>
<polygon fill="midnightblue" stroke="midnightblue" points="155.33,-30.69 144.74,-30.52 152.92,-37.26 155.33,-30.69"/>
</g>
<!-- Node10&#45;&gt;Node7 -->
<g id="edge14" class="edge">
<title>Node10&#45;&gt;Node7</title>
<path fill="none" stroke="midnightblue" d="M542.14,-195.97C519.95,-179.75 469.03,-144.18 421.56,-123 388.17,-108.1 348.51,-96.6 317.93,-88.95"/>
<polygon fill="midnightblue" stroke="midnightblue" points="318.48,-85.48 307.94,-86.51 316.82,-92.28 318.48,-85.48"/>
</g>
<!-- Node10&#45;&gt;Node8 -->
<g id="edge12" class="edge">
<title>Node10&#45;&gt;Node8</title>
<path fill="none" stroke="midnightblue" d="M531.52,-195.87C502.66,-184.57 451.91,-164.7 419.02,-151.82"/>
<polygon fill="midnightblue" stroke="midnightblue" points="420.02,-148.45 409.43,-148.06 417.47,-154.97 420.02,-148.45"/>
</g>
<!-- Node11 -->
<g id="node11" class="node">
<title>Node11</title>
<g id="a_node11"><a xlink:title=" ">
<polygon fill="white" stroke="#bfbfbf" points="525.56,-129 525.56,-148 581.56,-148 581.56,-129 525.56,-129"/>
<text text-anchor="middle" x="553.56" y="-136" font-family="Helvetica,sans-Serif" font-size="10.00">stdarg.h</text>
</a>
</g>
</g>
<!-- Node10&#45;&gt;Node11 -->
<g id="edge13" class="edge">
<title>Node10&#45;&gt;Node11</title>
<path fill="none" stroke="midnightblue" d="M553.56,-195.73C553.56,-186.18 553.56,-170.62 553.56,-158.28"/>
<polygon fill="midnightblue" stroke="midnightblue" points="557.06,-158.13 553.56,-148.13 550.06,-158.13 557.06,-158.13"/>
</g>
</g>
</svg>
        <g id="navigator" transform="translate(0 0)" fill="#404254">
                <rect fill="#f2f5e9" fill-opacity="0.5" stroke="#606060" stroke-width=".5" x="0" y="0" width="60" height="60"/>
                <use id="zoomplus" xlink:href="#zoomPlus" x="17" y="9" onmousedown="handleZoom(evt,'in')"/>
                <use id="zoomminus" xlink:href="#zoomMin" x="42" y="9" onmousedown="handleZoom(evt,'out')"/>
                <use id="reset" xlink:href="#resetDef" x="30" y="36" onmousedown="handleReset()"/>
                <g id="arrowUp" xlink:href="#dirArrow" transform="translate(30 24)" onmousedown="handlePan(0,-1)">
                  <use xlink:href="#rim" fill="#404040">
                        <set attributeName="fill" to="#808080" begin="arrowUp.mouseover" end="arrowUp.mouseout"/>
                  </use>
                  <path fill="none" stroke="white" stroke-width="1.5" d="M0,-3.0v7 M-2.5,-0.5L0,-3.0L2.5,-0.5"/>
                </g>
                <g id="arrowRight" xlink:href="#dirArrow" transform="rotate(90) translate(36 -43)" onmousedown="handlePan(1,0)">
                  <use xlink:href="#rim" fill="#404040">
                        <set attributeName="fill" to="#808080" begin="arrowRight.mouseover" end="arrowRight.mouseout"/>
                  </use>
                  <path fill="none" stroke="white" stroke-width="1.5" d="M0,-3.0v7 M-2.5,-0.5L0,-3.0L2.5,-0.5"/>
                </g>
                <g id="arrowDown" xlink:href="#dirArrow" transform="rotate(180) translate(-30 -48)" onmousedown="handlePan(0,1)">
                  <use xlink:href="#rim" fill="#404040">
                        <set attributeName="fill" to="#808080" begin="arrowDown.mouseover" end="arrowDown.mouseout"/>
                  </use>
                  <path fill="none" stroke="white" stroke-width="1.5" d="M0,-3.0v7 M-2.5,-0.5L0,-3.0L2.5,-0.5"/>
                </g>
                <g id="arrowLeft" xlink:href="#dirArrow" transform="rotate(270) translate(-36 17)" onmousedown="handlePan(-1,0)">
                  <use xlink:href="#rim" fill="#404040">
                        <set attributeName="fill" to="#808080" begin="arrowLeft.mouseover" end="arrowLeft.mouseout"/>
                  </use>
                  <path fill="none" stroke="white" stroke-width="1.5" d="M0,-3.0v7 M-2.5,-0.5L0,-3.0L2.5,-0.5"/>
                </g>
        </g>
        <svg viewBox="0 0 15 15" width="100%" height="30px" preserveAspectRatio="xMaxYMin meet">
         <g id="arrow_out" transform="scale(0.3 0.3)">
          <a xlink:href="_s_b_m_l_extension_exception_8h__incl_org.svg" target="_base">
           <rect id="button" ry="5" rx="5" y="6" x="6" height="38" width="38"
                fill="#f2f5e9" fill-opacity="0.5" stroke="#606060" stroke-width="1.0"/>
           <path id="arrow"
             d="M 11.500037,31.436501 C 11.940474,20.09759 22.043105,11.32322 32.158766,21.979434 L 37.068811,17.246167 C 37.068811,17.246167 37.088388,32 37.088388,32 L 22.160133,31.978069 C 22.160133,31.978069 26.997745,27.140456 26.997745,27.140456 C 18.528582,18.264221 13.291696,25.230495 11.500037,31.436501 z"
             style="fill:#404040;"/>
          </a>
         </g>
        </svg>
</svg>
