<?xml version="1.0" encoding="UTF-8" standalone="no"?>
<!DOCTYPE svg PUBLIC "-//W3C//DTD SVG 1.1//EN"
 "http://www.w3.org/Graphics/SVG/1.1/DTD/svg11.dtd">
<!-- Generated by graphviz version 2.43.0 (0)
 -->
<!-- Title: SBMLResolver.h Pages: 1 -->
<svg width="667pt" height="140pt"
 viewBox="0.00 0.00 667.00 140.00" xmlns="http://www.w3.org/2000/svg" xmlns:xlink="http://www.w3.org/1999/xlink">
<g id="graph0" class="graph" transform="scale(1 1) rotate(0) translate(4 136)">
<title>SBMLResolver.h</title>
<polygon fill="white" stroke="transparent" points="-4,4 -4,-136 663,-136 663,4 -4,4"/>
<!-- Node1 -->
<g id="node1" class="node">
<title>Node1</title>
<g id="a_node1"><a xlink:title="Definition of SBMLResolver, the base class for resolving SBML documents.">
<polygon fill="#bfbfbf" stroke="black" points="408,-112.5 408,-131.5 503,-131.5 503,-112.5 408,-112.5"/>
<text text-anchor="middle" x="455.5" y="-119.5" font-family="Helvetica,sans-Serif" font-size="10.00">SBMLResolver.h</text>
</a>
</g>
</g>
<!-- Node2 -->
<g id="node2" class="node">
<title>Node2</title>
<g id="a_node2"><a xlink:href="_s_b_m_l_file_resolver_8h.html" target="_top" xlink:title="A file&#45;based resolver for SBML Documents.">
<polygon fill="white" stroke="black" points="357.5,-56.5 357.5,-75.5 469.5,-75.5 469.5,-56.5 357.5,-56.5"/>
<text text-anchor="middle" x="413.5" y="-63.5" font-family="Helvetica,sans-Serif" font-size="10.00">SBMLFileResolver.h</text>
</a>
</g>
</g>
<!-- Node1&#45;&gt;Node2 -->
<g id="edge1" class="edge">
<title>Node1&#45;&gt;Node2</title>
<path fill="none" stroke="midnightblue" d="M442.39,-104.14C435.07,-94.74 426.26,-83.4 420.31,-75.75"/>
<polygon fill="midnightblue" stroke="midnightblue" points="439.66,-106.34 448.56,-112.08 445.19,-102.04 439.66,-106.34"/>
</g>
<!-- Node5 -->
<g id="node5" class="node">
<title>Node5</title>
<g id="a_node5"><a xlink:href="_s_b_m_l_resolver_registry_8cpp.html" target="_top" xlink:title="Implementation of SBMLResolverRegistry, a registry of available resolvers.">
<polygon fill="white" stroke="black" points="371.5,-0.5 371.5,-19.5 517.5,-19.5 517.5,-0.5 371.5,-0.5"/>
<text text-anchor="middle" x="444.5" y="-7.5" font-family="Helvetica,sans-Serif" font-size="10.00">SBMLResolverRegistry.cpp</text>
</a>
</g>
</g>
<!-- Node1&#45;&gt;Node5 -->
<g id="edge6" class="edge">
<title>Node1&#45;&gt;Node5</title>
<path fill="none" stroke="midnightblue" d="M468.13,-103.74C476.1,-90.67 483.95,-72.26 478.5,-56 473.64,-41.52 462.08,-27.98 453.79,-19.61"/>
<polygon fill="midnightblue" stroke="midnightblue" points="465.12,-101.94 462.49,-112.2 470.95,-105.82 465.12,-101.94"/>
</g>
<!-- Node6 -->
<g id="node6" class="node">
<title>Node6</title>
<g id="a_node6"><a xlink:href="_s_b_m_l_resolver_8cpp.html" target="_top" xlink:title="Implementation of SBMLResolver, the base class of package extensions.">
<polygon fill="white" stroke="black" points="525.5,-56.5 525.5,-75.5 631.5,-75.5 631.5,-56.5 525.5,-56.5"/>
<text text-anchor="middle" x="578.5" y="-63.5" font-family="Helvetica,sans-Serif" font-size="10.00">SBMLResolver.cpp</text>
</a>
</g>
</g>
<!-- Node1&#45;&gt;Node6 -->
<g id="edge5" class="edge">
<title>Node1&#45;&gt;Node6</title>
<path fill="none" stroke="midnightblue" d="M484.27,-108.37C507.31,-98.26 538.98,-84.35 559.1,-75.52"/>
<polygon fill="midnightblue" stroke="midnightblue" points="482.74,-105.22 474.99,-112.44 485.55,-111.63 482.74,-105.22"/>
</g>
<!-- Node7 -->
<g id="node7" class="node">
<title>Node7</title>
<g id="a_node7"><a xlink:href="_s_b_m_l_resolver_registry_8h.html" target="_top" xlink:title="Definition of SBMLResolverRegistry, a registry of available resolvers.">
<polygon fill="white" stroke="black" points="205.5,-56.5 205.5,-75.5 339.5,-75.5 339.5,-56.5 205.5,-56.5"/>
<text text-anchor="middle" x="272.5" y="-63.5" font-family="Helvetica,sans-Serif" font-size="10.00">SBMLResolverRegistry.h</text>
</a>
</g>
</g>
<!-- Node1&#45;&gt;Node7 -->
<g id="edge7" class="edge">
<title>Node1&#45;&gt;Node7</title>
<path fill="none" stroke="midnightblue" d="M416.76,-109.57C382.24,-99.38 332.49,-84.7 301.36,-75.52"/>
<polygon fill="midnightblue" stroke="midnightblue" points="415.92,-112.97 426.5,-112.44 417.9,-106.26 415.92,-112.97"/>
</g>
<!-- Node3 -->
<g id="node3" class="node">
<title>Node3</title>
<g id="a_node3"><a xlink:href="_comp_flattening_converter_8cpp.html" target="_top" xlink:title="Implementation of a first flattening converter.">
<polygon fill="white" stroke="black" points="191.5,-0.5 191.5,-19.5 353.5,-19.5 353.5,-0.5 191.5,-0.5"/>
<text text-anchor="middle" x="272.5" y="-7.5" font-family="Helvetica,sans-Serif" font-size="10.00">CompFlatteningConverter.cpp</text>
</a>
</g>
</g>
<!-- Node2&#45;&gt;Node3 -->
<g id="edge2" class="edge">
<title>Node2&#45;&gt;Node3</title>
<path fill="none" stroke="midnightblue" d="M381.57,-52.77C355.09,-42.63 318.11,-28.47 294.74,-19.52"/>
<polygon fill="midnightblue" stroke="midnightblue" points="380.57,-56.14 391.16,-56.44 383.07,-49.6 380.57,-56.14"/>
</g>
<!-- Node4 -->
<g id="node4" class="node">
<title>Node4</title>
<g id="a_node4"><a xlink:href="_s_b_m_l_file_resolver_8cpp.html" target="_top" xlink:title="Implementation of SBMLFileResolver, the file system based resolver for SBML Documents.">
<polygon fill="white" stroke="black" points="536,-0.5 536,-19.5 659,-19.5 659,-0.5 536,-0.5"/>
<text text-anchor="middle" x="597.5" y="-7.5" font-family="Helvetica,sans-Serif" font-size="10.00">SBMLFileResolver.cpp</text>
</a>
</g>
</g>
<!-- Node2&#45;&gt;Node4 -->
<g id="edge3" class="edge">
<title>Node2&#45;&gt;Node4</title>
<path fill="none" stroke="midnightblue" d="M452.45,-53.57C487.16,-43.38 537.18,-28.7 568.48,-19.52"/>
<polygon fill="midnightblue" stroke="midnightblue" points="451.27,-50.27 442.66,-56.44 453.24,-56.99 451.27,-50.27"/>
</g>
<!-- Node2&#45;&gt;Node5 -->
<g id="edge4" class="edge">
<title>Node2&#45;&gt;Node5</title>
<path fill="none" stroke="midnightblue" d="M423.68,-47.27C428.97,-38.05 435.22,-27.17 439.48,-19.75"/>
<polygon fill="midnightblue" stroke="midnightblue" points="420.56,-45.67 418.62,-56.08 426.63,-49.15 420.56,-45.67"/>
</g>
<!-- Node7&#45;&gt;Node3 -->
<g id="edge9" class="edge">
<title>Node7&#45;&gt;Node3</title>
<path fill="none" stroke="midnightblue" d="M272.5,-45.8C272.5,-36.91 272.5,-26.78 272.5,-19.75"/>
<polygon fill="midnightblue" stroke="midnightblue" points="269,-46.08 272.5,-56.08 276,-46.08 269,-46.08"/>
</g>
<!-- Node7&#45;&gt;Node5 -->
<g id="edge10" class="edge">
<title>Node7&#45;&gt;Node5</title>
<path fill="none" stroke="midnightblue" d="M309.33,-53.44C341.76,-43.26 388.24,-28.66 417.37,-19.52"/>
<polygon fill="midnightblue" stroke="midnightblue" points="308.25,-50.11 299.75,-56.44 310.34,-56.79 308.25,-50.11"/>
</g>
<!-- Node8 -->
<g id="node8" class="node">
<title>Node8</title>
<g id="a_node8"><a xlink:href="_comp_s_b_m_l_document_plugin_8cpp.html" target="_top" xlink:title="Implementation of CompSBMLDocumentPlugin, the plugin class of comp package for the SBase element.">
<polygon fill="white" stroke="black" points="0,-0.5 0,-19.5 173,-19.5 173,-0.5 0,-0.5"/>
<text text-anchor="middle" x="86.5" y="-7.5" font-family="Helvetica,sans-Serif" font-size="10.00">CompSBMLDocumentPlugin.cpp</text>
</a>
</g>
</g>
<!-- Node7&#45;&gt;Node8 -->
<g id="edge8" class="edge">
<title>Node7&#45;&gt;Node8</title>
<path fill="none" stroke="midnightblue" d="M233.12,-53.57C198.03,-43.38 147.48,-28.7 115.83,-19.52"/>
<polygon fill="midnightblue" stroke="midnightblue" points="232.45,-57.02 243.03,-56.44 234.4,-50.29 232.45,-57.02"/>
</g>
</g>
</svg>
