<?xml version="1.0" encoding="UTF-8" standalone="no"?>
<!DOCTYPE svg PUBLIC "-//W3C//DTD SVG 1.1//EN"
 "http://www.w3.org/Graphics/SVG/1.1/DTD/svg11.dtd">
<!-- Generated by graphviz version 2.43.0 (0)
 -->
<!-- Title: SBMLFileResolver.h Pages: 1 -->
<svg width="354pt" height="408pt"
 viewBox="0.00 0.00 354.43 408.00" xmlns="http://www.w3.org/2000/svg" xmlns:xlink="http://www.w3.org/1999/xlink">
<g id="graph0" class="graph" transform="scale(1 1) rotate(0) translate(4 404)">
<title>SBMLFileResolver.h</title>
<polygon fill="white" stroke="transparent" points="-4,4 -4,-404 350.43,-404 350.43,4 -4,4"/>
<!-- Node1 -->
<g id="node1" class="node">
<title>Node1</title>
<g id="a_node1"><a xlink:title="A file&#45;based resolver for SBML Documents.">
<polygon fill="#bfbfbf" stroke="black" points="108,-380.5 108,-399.5 220,-399.5 220,-380.5 108,-380.5"/>
<text text-anchor="middle" x="164" y="-387.5" font-family="Helvetica,sans-Serif" font-size="10.00">SBMLFileResolver.h</text>
</a>
</g>
</g>
<!-- Node2 -->
<g id="node2" class="node">
<title>Node2</title>
<g id="a_node2"><a xlink:href="sbmlfwd_8h.html" target="_top" xlink:title="Forward declarations for all opaque C types.">
<polygon fill="white" stroke="black" points="0,-257.5 0,-276.5 140,-276.5 140,-257.5 0,-257.5"/>
<text text-anchor="middle" x="70" y="-264.5" font-family="Helvetica,sans-Serif" font-size="10.00">sbml/common/sbmlfwd.h</text>
</a>
</g>
</g>
<!-- Node1&#45;&gt;Node2 -->
<g id="edge1" class="edge">
<title>Node1&#45;&gt;Node2</title>
<path fill="none" stroke="midnightblue" d="M107.99,-381.94C84.48,-375.91 59.31,-364.72 45,-344 32.48,-325.87 45.07,-301.03 56.46,-284.75"/>
<polygon fill="midnightblue" stroke="midnightblue" points="59.31,-286.79 62.5,-276.69 53.71,-282.6 59.31,-286.79"/>
</g>
<!-- Node8 -->
<g id="node8" class="node">
<title>Node8</title>
<g id="a_node8"><a xlink:title=" ">
<polygon fill="white" stroke="#bfbfbf" points="201,-257.5 201,-276.5 245,-276.5 245,-257.5 201,-257.5"/>
<text text-anchor="middle" x="223" y="-264.5" font-family="Helvetica,sans-Serif" font-size="10.00">string</text>
</a>
</g>
</g>
<!-- Node1&#45;&gt;Node8 -->
<g id="edge9" class="edge">
<title>Node1&#45;&gt;Node8</title>
<path fill="none" stroke="midnightblue" d="M196.99,-380.44C215.46,-373.77 236.95,-362.45 248,-344 259.09,-325.47 247.49,-301.41 236.67,-285.38"/>
<polygon fill="midnightblue" stroke="midnightblue" points="239.27,-283.01 230.56,-276.97 233.6,-287.12 239.27,-283.01"/>
</g>
<!-- Node9 -->
<g id="node9" class="node">
<title>Node9</title>
<g id="a_node9"><a xlink:title=" ">
<polygon fill="white" stroke="#bfbfbf" points="191.5,-319 191.5,-338 238.5,-338 238.5,-319 191.5,-319"/>
<text text-anchor="middle" x="215" y="-326" font-family="Helvetica,sans-Serif" font-size="10.00">vector</text>
</a>
</g>
</g>
<!-- Node1&#45;&gt;Node9 -->
<g id="edge10" class="edge">
<title>Node1&#45;&gt;Node9</title>
<path fill="none" stroke="midnightblue" d="M171.31,-380.48C179.03,-371.46 191.41,-357.02 201.02,-345.81"/>
<polygon fill="midnightblue" stroke="midnightblue" points="203.86,-347.88 207.71,-338.01 198.54,-343.32 203.86,-347.88"/>
</g>
<!-- Node10 -->
<g id="node10" class="node">
<title>Node10</title>
<g id="a_node10"><a xlink:href="_s_b_m_l_resolver_8h.html" target="_top" xlink:title="Definition of SBMLResolver, the base class for resolving SBML documents.">
<polygon fill="white" stroke="black" points="54.5,-313.5 54.5,-343.5 173.5,-343.5 173.5,-313.5 54.5,-313.5"/>
<text text-anchor="start" x="62.5" y="-331.5" font-family="Helvetica,sans-Serif" font-size="10.00">sbml/packages/comp</text>
<text text-anchor="middle" x="114" y="-320.5" font-family="Helvetica,sans-Serif" font-size="10.00">/util/SBMLResolver.h</text>
</a>
</g>
</g>
<!-- Node1&#45;&gt;Node10 -->
<g id="edge11" class="edge">
<title>Node1&#45;&gt;Node10</title>
<path fill="none" stroke="midnightblue" d="M156.84,-380.48C150.44,-372.87 140.81,-361.4 132.29,-351.26"/>
<polygon fill="midnightblue" stroke="midnightblue" points="134.9,-348.93 125.78,-343.52 129.54,-353.43 134.9,-348.93"/>
</g>
<!-- Node3 -->
<g id="node3" class="node">
<title>Node3</title>
<g id="a_node3"><a xlink:title=" ">
<polygon fill="white" stroke="#bfbfbf" points="194.5,-0.5 194.5,-30.5 319.5,-30.5 319.5,-0.5 194.5,-0.5"/>
<text text-anchor="start" x="202.5" y="-18.5" font-family="Helvetica,sans-Serif" font-size="10.00">sbml/common/libsbml</text>
<text text-anchor="middle" x="257" y="-7.5" font-family="Helvetica,sans-Serif" font-size="10.00">&#45;namespace.h</text>
</a>
</g>
</g>
<!-- Node2&#45;&gt;Node3 -->
<g id="edge2" class="edge">
<title>Node2&#45;&gt;Node3</title>
<path fill="none" stroke="midnightblue" d="M64.49,-257.17C50.49,-233.51 16.54,-167.43 44,-123 74.57,-73.54 135.82,-46.29 184.83,-31.76"/>
<polygon fill="midnightblue" stroke="midnightblue" points="185.8,-35.13 194.46,-29.02 183.88,-28.39 185.8,-35.13"/>
</g>
<!-- Node4 -->
<g id="node4" class="node">
<title>Node4</title>
<g id="a_node4"><a xlink:href="libsbml-config_8h.html" target="_top" xlink:title="Decides whether to #include Unix or Windows configuration variables.">
<polygon fill="white" stroke="black" points="124.5,-190.5 124.5,-220.5 249.5,-220.5 249.5,-190.5 124.5,-190.5"/>
<text text-anchor="start" x="132.5" y="-208.5" font-family="Helvetica,sans-Serif" font-size="10.00">sbml/common/libsbml</text>
<text text-anchor="middle" x="187" y="-197.5" font-family="Helvetica,sans-Serif" font-size="10.00">&#45;config.h</text>
</a>
</g>
</g>
<!-- Node2&#45;&gt;Node4 -->
<g id="edge3" class="edge">
<title>Node2&#45;&gt;Node4</title>
<path fill="none" stroke="midnightblue" d="M86.76,-257.48C103.28,-249.08 129.05,-235.97 150.32,-225.15"/>
<polygon fill="midnightblue" stroke="midnightblue" points="152.1,-228.18 159.43,-220.52 148.93,-221.94 152.1,-228.18"/>
</g>
<!-- Node4&#45;&gt;Node3 -->
<g id="edge4" class="edge">
<title>Node4&#45;&gt;Node3</title>
<path fill="none" stroke="midnightblue" d="M249.8,-198.92C279.55,-192.76 312.54,-180.04 331,-154 353.36,-122.46 349.06,-101.19 331,-67 324.1,-53.94 312.14,-43.62 299.82,-35.81"/>
<polygon fill="midnightblue" stroke="midnightblue" points="301.25,-32.59 290.85,-30.56 297.71,-38.63 301.25,-32.59"/>
</g>
<!-- Node5 -->
<g id="node5" class="node">
<title>Node5</title>
<g id="a_node5"><a xlink:title=" ">
<polygon fill="white" stroke="#bfbfbf" points="53.5,-123.5 53.5,-153.5 178.5,-153.5 178.5,-123.5 53.5,-123.5"/>
<text text-anchor="start" x="61.5" y="-141.5" font-family="Helvetica,sans-Serif" font-size="10.00">sbml/common/libsbml</text>
<text text-anchor="middle" x="116" y="-130.5" font-family="Helvetica,sans-Serif" font-size="10.00">&#45;config&#45;common.h</text>
</a>
</g>
</g>
<!-- Node4&#45;&gt;Node5 -->
<g id="edge5" class="edge">
<title>Node4&#45;&gt;Node5</title>
<path fill="none" stroke="midnightblue" d="M171.59,-190.4C162.01,-181.62 149.51,-170.18 138.8,-160.37"/>
<polygon fill="midnightblue" stroke="midnightblue" points="141.12,-157.75 131.38,-153.58 136.39,-162.91 141.12,-157.75"/>
</g>
<!-- Node6 -->
<g id="node6" class="node">
<title>Node6</title>
<g id="a_node6"><a xlink:href="libsbml-version_8h.html" target="_top" xlink:title="Define libSBML version numbers for access from client software.">
<polygon fill="white" stroke="black" points="196.5,-123.5 196.5,-153.5 321.5,-153.5 321.5,-123.5 196.5,-123.5"/>
<text text-anchor="start" x="204.5" y="-141.5" font-family="Helvetica,sans-Serif" font-size="10.00">sbml/common/libsbml</text>
<text text-anchor="middle" x="259" y="-130.5" font-family="Helvetica,sans-Serif" font-size="10.00">&#45;version.h</text>
</a>
</g>
</g>
<!-- Node4&#45;&gt;Node6 -->
<g id="edge6" class="edge">
<title>Node4&#45;&gt;Node6</title>
<path fill="none" stroke="midnightblue" d="M202.62,-190.4C212.34,-181.62 225.01,-170.18 235.88,-160.37"/>
<polygon fill="midnightblue" stroke="midnightblue" points="238.33,-162.88 243.41,-153.58 233.64,-157.68 238.33,-162.88"/>
</g>
<!-- Node7 -->
<g id="node7" class="node">
<title>Node7</title>
<g id="a_node7"><a xlink:href="extern_8h.html" target="_top" xlink:title="Definitions of LIBSBML_EXTERN and related things.">
<polygon fill="white" stroke="black" points="192,-67.5 192,-86.5 322,-86.5 322,-67.5 192,-67.5"/>
<text text-anchor="middle" x="257" y="-74.5" font-family="Helvetica,sans-Serif" font-size="10.00">sbml/common/extern.h</text>
</a>
</g>
</g>
<!-- Node6&#45;&gt;Node7 -->
<g id="edge7" class="edge">
<title>Node6&#45;&gt;Node7</title>
<path fill="none" stroke="midnightblue" d="M258.53,-123.4C258.26,-115.47 257.92,-105.46 257.63,-96.86"/>
<polygon fill="midnightblue" stroke="midnightblue" points="261.13,-96.53 257.29,-86.66 254.13,-96.77 261.13,-96.53"/>
</g>
<!-- Node7&#45;&gt;Node3 -->
<g id="edge8" class="edge">
<title>Node7&#45;&gt;Node3</title>
<path fill="none" stroke="midnightblue" d="M257,-67.48C257,-60.47 257,-50.19 257,-40.7"/>
<polygon fill="midnightblue" stroke="midnightblue" points="260.5,-40.52 257,-30.52 253.5,-40.52 260.5,-40.52"/>
</g>
<!-- Node10&#45;&gt;Node2 -->
<g id="edge12" class="edge">
<title>Node10&#45;&gt;Node2</title>
<path fill="none" stroke="midnightblue" d="M103.57,-313.4C97.24,-304.84 89.13,-293.87 82.47,-284.86"/>
<polygon fill="midnightblue" stroke="midnightblue" points="85.16,-282.62 76.4,-276.66 79.53,-286.78 85.16,-282.62"/>
</g>
<!-- Node10&#45;&gt;Node8 -->
<g id="edge13" class="edge">
<title>Node10&#45;&gt;Node8</title>
<path fill="none" stroke="midnightblue" d="M139.83,-313.4C157.47,-303.77 180.7,-291.09 198.13,-281.58"/>
<polygon fill="midnightblue" stroke="midnightblue" points="200.04,-284.52 207.14,-276.66 196.69,-278.38 200.04,-284.52"/>
</g>
</g>
</svg>
