<?xml version="1.0" encoding="UTF-8" standalone="no"?>
<!DOCTYPE svg PUBLIC "-//W3C//DTD SVG 1.1//EN"
 "http://www.w3.org/Graphics/SVG/1.1/DTD/svg11.dtd">
<!-- Generated by graphviz version 2.43.0 (0)
 -->
<!-- Title: SBaseRef.h Pages: 1 -->
<!--zoomable 420 -->
<svg id="main" version="1.1" xmlns="http://www.w3.org/2000/svg" xmlns:xlink="http://www.w3.org/1999/xlink" xml:space="preserve" onload="init(evt)">
<style type="text/css"><![CDATA[
.edge:hover path { stroke: red; }
.edge:hover polygon { stroke: red; fill: red; }
]]></style>
<script type="text/javascript"><![CDATA[
var edges = document.getElementsByTagName('g');
if (edges && edges.length) {
  for (var i=0;i<edges.length;i++) {
    if (edges[i].id.substr(0,4)=='edge') {
      edges[i].setAttribute('class','edge');
    }
  }
}
]]></script>
        <defs>
                <circle id="rim" cx="0" cy="0" r="7"/>
                <circle id="rim2" cx="0" cy="0" r="3.5"/>
                <g id="zoomPlus">
                        <use xlink:href="#rim" fill="#404040">
                                <set attributeName="fill" to="#808080" begin="zoomplus.mouseover" end="zoomplus.mouseout"/>
                        </use>
                        <path d="M-4,0h8M0,-4v8" fill="none" stroke="white" stroke-width="1.5" pointer-events="none"/>
                </g>
                <g id="zoomMin">
                        <use xlink:href="#rim" fill="#404040">
                                <set attributeName="fill" to="#808080" begin="zoomminus.mouseover" end="zoomminus.mouseout"/>
                        </use>
                        <path d="M-4,0h8" fill="none" stroke="white" stroke-width="1.5" pointer-events="none"/>
                </g>
                <g id="dirArrow">
                        <path fill="none" stroke="white" stroke-width="1.5" d="M0,-3.0v7 M-2.5,-0.5L0,-3.0L2.5,-0.5"/>
                </g>
               <g id="resetDef">
                       <use xlink:href="#rim2" fill="#404040">
                               <set attributeName="fill" to="#808080" begin="reset.mouseover" end="reset.mouseout"/>
                       </use>
               </g>
        </defs>

<script type="text/javascript">
var viewWidth = 1663;
var viewHeight = 420;
var sectionId = 'dynsection-1';
</script>
<script xlink:href="svgpan.js"/>
<svg id="graph" class="graph">
<g id="viewport">
<title>SBaseRef.h</title>
<polygon fill="white" stroke="transparent" points="-4,4 -4,-416 1658.5,-416 1658.5,4 -4,4"/>
<!-- Node1 -->
<g id="node1" class="node">
<title>Node1</title>
<g id="a_node1"><a xlink:title="Definition of SBaseRef, the SBase derived class of the comp package.">
<polygon fill="#bfbfbf" stroke="black" points="574.5,-392.5 574.5,-411.5 645.5,-411.5 645.5,-392.5 574.5,-392.5"/>
<text text-anchor="middle" x="610" y="-399.5" font-family="Helvetica,sans-Serif" font-size="10.00">SBaseRef.h</text>
</a>
</g>
</g>
<!-- Node2 -->
<g id="node2" class="node">
<title>Node2</title>
<g id="a_node2"><a xlink:href="_comp_extension_types_8h.html" target="_top" xlink:title="Include all SBML types of Comp extension in a single header file.">
<polygon fill="white" stroke="black" points="276,-56.5 276,-75.5 406,-75.5 406,-56.5 276,-56.5"/>
<text text-anchor="middle" x="341" y="-63.5" font-family="Helvetica,sans-Serif" font-size="10.00">CompExtensionTypes.h</text>
</a>
</g>
</g>
<!-- Node1&#45;&gt;Node2 -->
<g id="edge1" class="edge">
<title>Node1&#45;&gt;Node2</title>
<path fill="none" stroke="midnightblue" d="M563.99,-397.57C421.98,-386.37 0,-348.28 0,-291 0,-291 0,-291 0,-177 0,-136.77 27.33,-130.6 63,-112 99.03,-93.21 205.51,-79.84 275.74,-72.78"/>
<polygon fill="midnightblue" stroke="midnightblue" points="563.88,-401.07 574.12,-398.36 564.42,-394.09 563.88,-401.07"/>
</g>
<!-- Node5 -->
<g id="node5" class="node">
<title>Node5</title>
<g id="a_node5"><a xlink:href="_deletion_8h.html" target="_top" xlink:title="Definition of Deletion, the SBase derived class of deletions package.">
<polygon fill="white" stroke="black" points="344.5,-336.5 344.5,-355.5 411.5,-355.5 411.5,-336.5 344.5,-336.5"/>
<text text-anchor="middle" x="378" y="-343.5" font-family="Helvetica,sans-Serif" font-size="10.00">Deletion.h</text>
</a>
</g>
</g>
<!-- Node1&#45;&gt;Node5 -->
<g id="edge4" class="edge">
<title>Node1&#45;&gt;Node5</title>
<path fill="none" stroke="midnightblue" d="M564.47,-390.4C519.5,-379.94 451.78,-364.17 411.52,-354.8"/>
<polygon fill="midnightblue" stroke="midnightblue" points="563.73,-393.82 574.26,-392.68 565.31,-387 563.73,-393.82"/>
</g>
<!-- Node19 -->
<g id="node19" class="node">
<title>Node19</title>
<g id="a_node19"><a xlink:href="_s_base_ref_8cpp.html" target="_top" xlink:title="Implementation of SBaseRef, the SBase&#45;derived class of the comp package.">
<polygon fill="white" stroke="black" points="1571.5,-56.5 1571.5,-75.5 1654.5,-75.5 1654.5,-56.5 1571.5,-56.5"/>
<text text-anchor="middle" x="1613" y="-63.5" font-family="Helvetica,sans-Serif" font-size="10.00">SBaseRef.cpp</text>
</a>
</g>
</g>
<!-- Node1&#45;&gt;Node19 -->
<g id="edge64" class="edge">
<title>Node1&#45;&gt;Node19</title>
<path fill="none" stroke="midnightblue" d="M655.98,-400.6C846.74,-398.36 1566,-383.74 1566,-291 1566,-291 1566,-291 1566,-177 1566,-136.3 1593.55,-93.44 1606.46,-75.59"/>
<polygon fill="midnightblue" stroke="midnightblue" points="655.69,-397.11 645.73,-400.72 655.77,-404.11 655.69,-397.11"/>
</g>
<!-- Node24 -->
<g id="node24" class="node">
<title>Node24</title>
<g id="a_node24"><a xlink:href="_port_8h.html" target="_top" xlink:title="Definition of Port, the SBase derived class of the comp package.">
<polygon fill="white" stroke="black" points="587.5,-224.5 587.5,-243.5 632.5,-243.5 632.5,-224.5 587.5,-224.5"/>
<text text-anchor="middle" x="610" y="-231.5" font-family="Helvetica,sans-Serif" font-size="10.00">Port.h</text>
</a>
</g>
</g>
<!-- Node1&#45;&gt;Node24 -->
<g id="edge33" class="edge">
<title>Node1&#45;&gt;Node24</title>
<path fill="none" stroke="midnightblue" d="M610,-381.93C610,-345.92 610,-269.23 610,-243.57"/>
<polygon fill="midnightblue" stroke="midnightblue" points="606.5,-382.08 610,-392.08 613.5,-382.08 606.5,-382.08"/>
</g>
<!-- Node28 -->
<g id="node28" class="node">
<title>Node28</title>
<g id="a_node28"><a xlink:href="_replacing_8h.html" target="_top" xlink:title="Definition of Replacing, the SBaseRef&#45;derived class of the comp package.">
<polygon fill="white" stroke="black" points="1039,-336.5 1039,-355.5 1113,-355.5 1113,-336.5 1039,-336.5"/>
<text text-anchor="middle" x="1076" y="-343.5" font-family="Helvetica,sans-Serif" font-size="10.00">Replacing.h</text>
</a>
</g>
</g>
<!-- Node1&#45;&gt;Node28 -->
<g id="edge44" class="edge">
<title>Node1&#45;&gt;Node28</title>
<path fill="none" stroke="midnightblue" d="M655.94,-395.68C748.18,-384.99 954.31,-361.1 1038.8,-351.31"/>
<polygon fill="midnightblue" stroke="midnightblue" points="655.32,-392.22 645.79,-396.85 656.13,-399.18 655.32,-392.22"/>
</g>
<!-- Node3 -->
<g id="node3" class="node">
<title>Node3</title>
<g id="a_node3"><a xlink:href="_comp_flattening_converter_8cpp.html" target="_top" xlink:title="Implementation of a first flattening converter.">
<polygon fill="white" stroke="black" points="591,-0.5 591,-19.5 753,-19.5 753,-0.5 591,-0.5"/>
<text text-anchor="middle" x="672" y="-7.5" font-family="Helvetica,sans-Serif" font-size="10.00">CompFlatteningConverter.cpp</text>
</a>
</g>
</g>
<!-- Node2&#45;&gt;Node3 -->
<g id="edge2" class="edge">
<title>Node2&#45;&gt;Node3</title>
<path fill="none" stroke="midnightblue" d="M403.58,-54.79C466.12,-44.59 561.19,-29.08 619.8,-19.52"/>
<polygon fill="midnightblue" stroke="midnightblue" points="402.75,-51.38 393.45,-56.44 403.88,-58.29 402.75,-51.38"/>
</g>
<!-- Node4 -->
<g id="node4" class="node">
<title>Node4</title>
<g id="a_node4"><a xlink:href="_comp_validator_8cpp.html" target="_top" xlink:title=" ">
<polygon fill="white" stroke="black" points="287,-0.5 287,-19.5 395,-19.5 395,-0.5 287,-0.5"/>
<text text-anchor="middle" x="341" y="-7.5" font-family="Helvetica,sans-Serif" font-size="10.00">CompValidator.cpp</text>
</a>
</g>
</g>
<!-- Node2&#45;&gt;Node4 -->
<g id="edge3" class="edge">
<title>Node2&#45;&gt;Node4</title>
<path fill="none" stroke="midnightblue" d="M341,-45.8C341,-36.91 341,-26.78 341,-19.75"/>
<polygon fill="midnightblue" stroke="midnightblue" points="337.5,-46.08 341,-56.08 344.5,-46.08 337.5,-46.08"/>
</g>
<!-- Node5&#45;&gt;Node2 -->
<g id="edge5" class="edge">
<title>Node5&#45;&gt;Node2</title>
<path fill="none" stroke="midnightblue" d="M383.4,-326.48C392.05,-293.94 406.71,-224.57 393,-168 384.04,-131.01 359.03,-92.39 347.27,-75.62"/>
<polygon fill="midnightblue" stroke="midnightblue" points="379.96,-325.81 380.65,-336.38 386.7,-327.68 379.96,-325.81"/>
</g>
<!-- Node6 -->
<g id="node6" class="node">
<title>Node6</title>
<g id="a_node6"><a xlink:href="_deletion_8cpp.html" target="_top" xlink:title="Implementation of Deletion, the SBaseRef derived class of deletions package.">
<polygon fill="white" stroke="black" points="142,-168.5 142,-187.5 220,-187.5 220,-168.5 142,-168.5"/>
<text text-anchor="middle" x="181" y="-175.5" font-family="Helvetica,sans-Serif" font-size="10.00">Deletion.cpp</text>
</a>
</g>
</g>
<!-- Node5&#45;&gt;Node6 -->
<g id="edge6" class="edge">
<title>Node5&#45;&gt;Node6</title>
<path fill="none" stroke="midnightblue" d="M367.47,-327.62C351.23,-302.03 317.85,-254.02 279,-224 257.37,-207.29 228.54,-195 207.75,-187.53"/>
<polygon fill="midnightblue" stroke="midnightblue" points="364.58,-329.6 372.83,-336.24 370.52,-325.9 364.58,-329.6"/>
</g>
<!-- Node7 -->
<g id="node7" class="node">
<title>Node7</title>
<g id="a_node7"><a xlink:href="_list_of_deletions_8h.html" target="_top" xlink:title="Definition of ListOfDeletions, the SBase derived class of deletions package.">
<polygon fill="white" stroke="black" points="127.5,-280.5 127.5,-299.5 228.5,-299.5 228.5,-280.5 127.5,-280.5"/>
<text text-anchor="middle" x="178" y="-287.5" font-family="Helvetica,sans-Serif" font-size="10.00">ListOfDeletions.h</text>
</a>
</g>
</g>
<!-- Node5&#45;&gt;Node7 -->
<g id="edge7" class="edge">
<title>Node5&#45;&gt;Node7</title>
<path fill="none" stroke="midnightblue" d="M336.63,-333.83C298.86,-323.63 243.86,-308.78 209.54,-299.52"/>
<polygon fill="midnightblue" stroke="midnightblue" points="335.74,-337.22 346.31,-336.44 337.57,-330.46 335.74,-337.22"/>
</g>
<!-- Node7&#45;&gt;Node2 -->
<g id="edge8" class="edge">
<title>Node7&#45;&gt;Node2</title>
<path fill="none" stroke="midnightblue" d="M117.3,-281.2C94.52,-274.99 70.82,-263.88 57,-244 33.17,-209.72 -15.18,-205.1 84,-112 111.08,-86.58 208.94,-75.26 275.77,-70.41"/>
<polygon fill="midnightblue" stroke="midnightblue" points="116.77,-284.68 127.32,-283.65 118.43,-277.88 116.77,-284.68"/>
</g>
<!-- Node8 -->
<g id="node8" class="node">
<title>Node8</title>
<g id="a_node8"><a xlink:href="_list_of_deletions_8cpp.html" target="_top" xlink:title="Implementation of ListOfDeletions.">
<polygon fill="white" stroke="black" points="66,-224.5 66,-243.5 178,-243.5 178,-224.5 66,-224.5"/>
<text text-anchor="middle" x="122" y="-231.5" font-family="Helvetica,sans-Serif" font-size="10.00">ListOfDeletions.cpp</text>
</a>
</g>
</g>
<!-- Node7&#45;&gt;Node8 -->
<g id="edge9" class="edge">
<title>Node7&#45;&gt;Node8</title>
<path fill="none" stroke="midnightblue" d="M161.67,-273.25C151.74,-263.67 139.41,-251.79 131.16,-243.83"/>
<polygon fill="midnightblue" stroke="midnightblue" points="159.37,-275.9 169,-280.32 164.23,-270.86 159.37,-275.9"/>
</g>
<!-- Node9 -->
<g id="node9" class="node">
<title>Node9</title>
<g id="a_node9"><a xlink:href="_submodel_8h.html" target="_top" xlink:title="Definition of Submodel, the SBase derived class of the comp package.">
<polygon fill="white" stroke="black" points="196,-224.5 196,-243.5 270,-243.5 270,-224.5 196,-224.5"/>
<text text-anchor="middle" x="233" y="-231.5" font-family="Helvetica,sans-Serif" font-size="10.00">Submodel.h</text>
</a>
</g>
</g>
<!-- Node7&#45;&gt;Node9 -->
<g id="edge10" class="edge">
<title>Node7&#45;&gt;Node9</title>
<path fill="none" stroke="midnightblue" d="M194.29,-273C204.04,-263.43 216.05,-251.64 224.09,-243.75"/>
<polygon fill="midnightblue" stroke="midnightblue" points="191.77,-270.58 187.08,-280.08 196.67,-275.57 191.77,-270.58"/>
</g>
<!-- Node9&#45;&gt;Node2 -->
<g id="edge11" class="edge">
<title>Node9&#45;&gt;Node2</title>
<path fill="none" stroke="midnightblue" d="M185.92,-223.16C151.96,-215 110.35,-202.42 100,-188 80.31,-160.55 78.42,-137.98 100,-112 121.99,-85.52 212.41,-74.54 276,-70.04"/>
<polygon fill="midnightblue" stroke="midnightblue" points="185.18,-226.58 195.71,-225.45 186.77,-219.77 185.18,-226.58"/>
</g>
<!-- Node9&#45;&gt;Node6 -->
<g id="edge12" class="edge">
<title>Node9&#45;&gt;Node6</title>
<path fill="none" stroke="midnightblue" d="M217.32,-216.72C208.16,-207.2 196.95,-195.56 189.43,-187.75"/>
<polygon fill="midnightblue" stroke="midnightblue" points="214.96,-219.31 224.41,-224.08 220,-214.45 214.96,-219.31"/>
</g>
<!-- Node10 -->
<g id="node10" class="node">
<title>Node10</title>
<g id="a_node10"><a xlink:href="_list_of_submodels_8h.html" target="_top" xlink:title="Definition of ListOfSubmodels, the SBase derived class of submodels package.">
<polygon fill="white" stroke="black" points="276,-168.5 276,-187.5 384,-187.5 384,-168.5 276,-168.5"/>
<text text-anchor="middle" x="330" y="-175.5" font-family="Helvetica,sans-Serif" font-size="10.00">ListOfSubmodels.h</text>
</a>
</g>
</g>
<!-- Node9&#45;&gt;Node10 -->
<g id="edge13" class="edge">
<title>Node9&#45;&gt;Node10</title>
<path fill="none" stroke="midnightblue" d="M257.34,-219.45C275.24,-209.48 299.05,-196.23 314.45,-187.65"/>
<polygon fill="midnightblue" stroke="midnightblue" points="255.62,-216.4 248.58,-224.32 259.02,-222.52 255.62,-216.4"/>
</g>
<!-- Node20 -->
<g id="node20" class="node">
<title>Node20</title>
<g id="a_node20"><a xlink:href="_submodel_8cpp.html" target="_top" xlink:title="Implementation of Submodel, the SBase&#45;derived class of the comp package.">
<polygon fill="white" stroke="black" points="424,-56.5 424,-75.5 510,-75.5 510,-56.5 424,-56.5"/>
<text text-anchor="middle" x="467" y="-63.5" font-family="Helvetica,sans-Serif" font-size="10.00">Submodel.cpp</text>
</a>
</g>
</g>
<!-- Node9&#45;&gt;Node20 -->
<g id="edge32" class="edge">
<title>Node9&#45;&gt;Node20</title>
<path fill="none" stroke="midnightblue" d="M196.08,-221.12C170.73,-212.14 140.39,-199.43 133,-188 119.82,-167.62 136.69,-123.34 150,-112 195.24,-73.46 356.27,-85.07 415,-76 417.9,-75.55 420.88,-75.08 423.89,-74.59"/>
<polygon fill="midnightblue" stroke="midnightblue" points="195.25,-224.54 205.84,-224.49 197.53,-217.92 195.25,-224.54"/>
</g>
<!-- Node10&#45;&gt;Node2 -->
<g id="edge14" class="edge">
<title>Node10&#45;&gt;Node2</title>
<path fill="none" stroke="midnightblue" d="M331.87,-158.35C334.27,-134.25 338.37,-93.31 340.14,-75.59"/>
<polygon fill="midnightblue" stroke="midnightblue" points="328.38,-158.07 330.86,-168.37 335.34,-158.77 328.38,-158.07"/>
</g>
<!-- Node11 -->
<g id="node11" class="node">
<title>Node11</title>
<g id="a_node11"><a xlink:href="_comp_model_plugin_8h.html" target="_top" xlink:title="Definition of CompModelPlugin, the plugin class of comp package for the Model element.">
<polygon fill="white" stroke="black" points="937,-112.5 937,-131.5 1051,-131.5 1051,-112.5 937,-112.5"/>
<text text-anchor="middle" x="994" y="-119.5" font-family="Helvetica,sans-Serif" font-size="10.00">CompModelPlugin.h</text>
</a>
</g>
</g>
<!-- Node10&#45;&gt;Node11 -->
<g id="edge15" class="edge">
<title>Node10&#45;&gt;Node11</title>
<path fill="none" stroke="midnightblue" d="M394.21,-171.78C523.59,-161.26 813.79,-137.66 936.97,-127.64"/>
<polygon fill="midnightblue" stroke="midnightblue" points="393.74,-168.3 384.06,-172.6 394.31,-175.28 393.74,-168.3"/>
</g>
<!-- Node22 -->
<g id="node22" class="node">
<title>Node22</title>
<g id="a_node22"><a xlink:href="_list_of_submodels_8cpp.html" target="_top" xlink:title="Implementation of ListOfSubmodels.">
<polygon fill="white" stroke="black" points="181.5,-112.5 181.5,-131.5 300.5,-131.5 300.5,-112.5 181.5,-112.5"/>
<text text-anchor="middle" x="241" y="-119.5" font-family="Helvetica,sans-Serif" font-size="10.00">ListOfSubmodels.cpp</text>
</a>
</g>
</g>
<!-- Node10&#45;&gt;Node22 -->
<g id="edge30" class="edge">
<title>Node10&#45;&gt;Node22</title>
<path fill="none" stroke="midnightblue" d="M306.76,-162.9C290.44,-153 269.13,-140.07 255.26,-131.65"/>
<polygon fill="midnightblue" stroke="midnightblue" points="305.34,-166.13 315.7,-168.32 308.97,-160.14 305.34,-166.13"/>
</g>
<!-- Node23 -->
<g id="node23" class="node">
<title>Node23</title>
<g id="a_node23"><a xlink:href="_model_definition_8cpp.html" target="_top" xlink:title="Implementation of ModelDefinition, the SBase&#45;derived class of the comp package.">
<polygon fill="white" stroke="black" points="395,-112.5 395,-131.5 509,-131.5 509,-112.5 395,-112.5"/>
<text text-anchor="middle" x="452" y="-119.5" font-family="Helvetica,sans-Serif" font-size="10.00">ModelDefinition.cpp</text>
</a>
</g>
</g>
<!-- Node10&#45;&gt;Node23 -->
<g id="edge31" class="edge">
<title>Node10&#45;&gt;Node23</title>
<path fill="none" stroke="midnightblue" d="M358.54,-164.37C381.39,-154.26 412.81,-140.35 432.76,-131.52"/>
<polygon fill="midnightblue" stroke="midnightblue" points="357.06,-161.2 349.33,-168.44 359.89,-167.6 357.06,-161.2"/>
</g>
<!-- Node11&#45;&gt;Node2 -->
<g id="edge16" class="edge">
<title>Node11&#45;&gt;Node2</title>
<path fill="none" stroke="midnightblue" d="M926.36,-112.34C925.24,-112.22 924.11,-112.11 923,-112 697.75,-89.76 640.3,-97.67 415,-76 412.17,-75.73 409.27,-75.44 406.35,-75.13"/>
<polygon fill="midnightblue" stroke="midnightblue" points="926.36,-115.86 936.68,-113.46 927.12,-108.9 926.36,-115.86"/>
</g>
<!-- Node12 -->
<g id="node12" class="node">
<title>Node12</title>
<g id="a_node12"><a xlink:href="_comp_extension_8cpp.html" target="_top" xlink:title="Implementation of CompExtension, the core module of comp package.">
<polygon fill="white" stroke="black" points="949.5,-0.5 949.5,-19.5 1062.5,-19.5 1062.5,-0.5 949.5,-0.5"/>
<text text-anchor="middle" x="1006" y="-7.5" font-family="Helvetica,sans-Serif" font-size="10.00">CompExtension.cpp</text>
</a>
</g>
</g>
<!-- Node11&#45;&gt;Node12 -->
<g id="edge17" class="edge">
<title>Node11&#45;&gt;Node12</title>
<path fill="none" stroke="midnightblue" d="M996.03,-102.35C998.66,-78.25 1003.13,-37.31 1005.06,-19.59"/>
<polygon fill="midnightblue" stroke="midnightblue" points="992.55,-102.05 994.94,-112.37 999.51,-102.81 992.55,-102.05"/>
</g>
<!-- Node13 -->
<g id="node13" class="node">
<title>Node13</title>
<g id="a_node13"><a xlink:href="_comp_model_plugin_8cpp.html" target="_top" xlink:title="Implementation of CompModelPlugin, the plugin class of comp package for the SBase element.">
<polygon fill="white" stroke="black" points="1034.5,-56.5 1034.5,-75.5 1159.5,-75.5 1159.5,-56.5 1034.5,-56.5"/>
<text text-anchor="middle" x="1097" y="-63.5" font-family="Helvetica,sans-Serif" font-size="10.00">CompModelPlugin.cpp</text>
</a>
</g>
</g>
<!-- Node11&#45;&gt;Node13 -->
<g id="edge18" class="edge">
<title>Node11&#45;&gt;Node13</title>
<path fill="none" stroke="midnightblue" d="M1019.58,-107.59C1038.62,-97.61 1064.06,-84.27 1080.49,-75.65"/>
<polygon fill="midnightblue" stroke="midnightblue" points="1017.78,-104.58 1010.55,-112.32 1021.03,-110.78 1017.78,-104.58"/>
</g>
<!-- Node14 -->
<g id="node14" class="node">
<title>Node14</title>
<g id="a_node14"><a xlink:href="_comp_s_b_m_l_document_plugin_8cpp.html" target="_top" xlink:title="Implementation of CompSBMLDocumentPlugin, the plugin class of comp package for the SBase element.">
<polygon fill="white" stroke="black" points="635.5,-56.5 635.5,-75.5 808.5,-75.5 808.5,-56.5 635.5,-56.5"/>
<text text-anchor="middle" x="722" y="-63.5" font-family="Helvetica,sans-Serif" font-size="10.00">CompSBMLDocumentPlugin.cpp</text>
</a>
</g>
</g>
<!-- Node11&#45;&gt;Node14 -->
<g id="edge19" class="edge">
<title>Node11&#45;&gt;Node14</title>
<path fill="none" stroke="midnightblue" d="M940.98,-110.47C889.57,-100.27 812.56,-84.98 764.9,-75.52"/>
<polygon fill="midnightblue" stroke="midnightblue" points="940.41,-113.93 950.9,-112.44 941.77,-107.06 940.41,-113.93"/>
</g>
<!-- Node15 -->
<g id="node15" class="node">
<title>Node15</title>
<g id="a_node15"><a xlink:href="_comp_base_8cpp.html" target="_top" xlink:title="Implementation of CompBase, the base class of extension entities plugged in SBase derived classes in ...">
<polygon fill="white" stroke="black" points="528.5,-56.5 528.5,-75.5 617.5,-75.5 617.5,-56.5 528.5,-56.5"/>
<text text-anchor="middle" x="573" y="-63.5" font-family="Helvetica,sans-Serif" font-size="10.00">CompBase.cpp</text>
</a>
</g>
</g>
<!-- Node11&#45;&gt;Node15 -->
<g id="edge20" class="edge">
<title>Node11&#45;&gt;Node15</title>
<path fill="none" stroke="midnightblue" d="M926.36,-112.42C925.23,-112.28 924.11,-112.14 923,-112 791.04,-95.64 757.58,-95.14 626,-76 623.23,-75.6 620.38,-75.16 617.51,-74.72"/>
<polygon fill="midnightblue" stroke="midnightblue" points="926.3,-115.94 936.65,-113.7 927.16,-108.99 926.3,-115.94"/>
</g>
<!-- Node16 -->
<g id="node16" class="node">
<title>Node16</title>
<g id="a_node16"><a xlink:href="_replaced_by_8cpp.html" target="_top" xlink:title="Implementation of ReplacedBy, the SBaseRef derived class of the comp package.">
<polygon fill="white" stroke="black" points="1177.5,-56.5 1177.5,-75.5 1270.5,-75.5 1270.5,-56.5 1177.5,-56.5"/>
<text text-anchor="middle" x="1224" y="-63.5" font-family="Helvetica,sans-Serif" font-size="10.00">ReplacedBy.cpp</text>
</a>
</g>
</g>
<!-- Node11&#45;&gt;Node16 -->
<g id="edge21" class="edge">
<title>Node11&#45;&gt;Node16</title>
<path fill="none" stroke="midnightblue" d="M1040.2,-110.15C1083.66,-99.95 1147.84,-84.88 1187.73,-75.52"/>
<polygon fill="midnightblue" stroke="midnightblue" points="1039.38,-106.75 1030.44,-112.44 1040.98,-113.57 1039.38,-106.75"/>
</g>
<!-- Node17 -->
<g id="node17" class="node">
<title>Node17</title>
<g id="a_node17"><a xlink:href="_replaced_element_8cpp.html" target="_top" xlink:title="Implementation of ReplacedElement, the SBaseRef derived class of replacedElements package.">
<polygon fill="white" stroke="black" points="1431,-56.5 1431,-75.5 1553,-75.5 1553,-56.5 1431,-56.5"/>
<text text-anchor="middle" x="1492" y="-63.5" font-family="Helvetica,sans-Serif" font-size="10.00">ReplacedElement.cpp</text>
</a>
</g>
</g>
<!-- Node11&#45;&gt;Node17 -->
<g id="edge22" class="edge">
<title>Node11&#45;&gt;Node17</title>
<path fill="none" stroke="midnightblue" d="M1061.21,-114.36C1145.37,-105.94 1293.94,-90.75 1421,-76 1424.21,-75.63 1427.5,-75.24 1430.82,-74.84"/>
<polygon fill="midnightblue" stroke="midnightblue" points="1060.63,-110.9 1051.02,-115.38 1061.32,-117.87 1060.63,-110.9"/>
</g>
<!-- Node18 -->
<g id="node18" class="node">
<title>Node18</title>
<g id="a_node18"><a xlink:href="_replacing_8cpp.html" target="_top" xlink:title="Implementation of Replacing, the SBaseRef derived class of Replacings package.">
<polygon fill="white" stroke="black" points="1327.5,-56.5 1327.5,-75.5 1412.5,-75.5 1412.5,-56.5 1327.5,-56.5"/>
<text text-anchor="middle" x="1370" y="-63.5" font-family="Helvetica,sans-Serif" font-size="10.00">Replacing.cpp</text>
</a>
</g>
</g>
<!-- Node11&#45;&gt;Node18 -->
<g id="edge23" class="edge">
<title>Node11&#45;&gt;Node18</title>
<path fill="none" stroke="midnightblue" d="M1061.2,-111.35C1138.28,-100.28 1262.36,-82.46 1327.28,-73.13"/>
<polygon fill="midnightblue" stroke="midnightblue" points="1060.51,-107.91 1051.11,-112.8 1061.5,-114.84 1060.51,-107.91"/>
</g>
<!-- Node11&#45;&gt;Node19 -->
<g id="edge24" class="edge">
<title>Node11&#45;&gt;Node19</title>
<path fill="none" stroke="midnightblue" d="M1061.34,-115.08C1073.54,-114.04 1086.15,-112.97 1098,-112 1304.15,-95.08 1356.8,-102 1562,-76 1565.03,-75.62 1568.16,-75.17 1571.3,-74.7"/>
<polygon fill="midnightblue" stroke="midnightblue" points="1060.87,-111.61 1051.21,-115.96 1061.47,-118.59 1060.87,-111.61"/>
</g>
<!-- Node11&#45;&gt;Node20 -->
<g id="edge25" class="edge">
<title>Node11&#45;&gt;Node20</title>
<path fill="none" stroke="midnightblue" d="M926.36,-112.37C925.23,-112.24 924.11,-112.12 923,-112 743.77,-92.66 697.74,-99.39 519,-76 516.09,-75.62 513.1,-75.19 510.09,-74.74"/>
<polygon fill="midnightblue" stroke="midnightblue" points="926.34,-115.89 936.67,-113.55 927.13,-108.93 926.34,-115.89"/>
</g>
<!-- Node21 -->
<g id="node21" class="node">
<title>Node21</title>
<g id="a_node21"><a xlink:href="_comp_flattening_converter_8h.html" target="_top" xlink:title="Definition of a first flattening converter.">
<polygon fill="white" stroke="black" points="826.5,-56.5 826.5,-75.5 977.5,-75.5 977.5,-56.5 826.5,-56.5"/>
<text text-anchor="middle" x="902" y="-63.5" font-family="Helvetica,sans-Serif" font-size="10.00">CompFlatteningConverter.h</text>
</a>
</g>
</g>
<!-- Node11&#45;&gt;Node21 -->
<g id="edge26" class="edge">
<title>Node11&#45;&gt;Node21</title>
<path fill="none" stroke="midnightblue" d="M965.23,-107.59C946.89,-97.61 924.44,-84.27 911.63,-75.65"/>
<polygon fill="midnightblue" stroke="midnightblue" points="963.63,-110.71 974.1,-112.32 966.93,-104.53 963.63,-110.71"/>
</g>
<!-- Node21&#45;&gt;Node3 -->
<g id="edge29" class="edge">
<title>Node21&#45;&gt;Node3</title>
<path fill="none" stroke="midnightblue" d="M855.8,-54.15C812.34,-43.95 748.16,-28.88 708.27,-19.52"/>
<polygon fill="midnightblue" stroke="midnightblue" points="855.02,-57.57 865.56,-56.44 856.62,-50.75 855.02,-57.57"/>
</g>
<!-- Node21&#45;&gt;Node11 -->
<g id="edge28" class="edge">
<title>Node21&#45;&gt;Node11</title>
<path fill="none" stroke="midnightblue" d="M930.73,-80.39C949.06,-90.36 971.51,-103.7 984.33,-112.32"/>
<polygon fill="midnightblue" stroke="midnightblue" points="932.33,-77.27 921.85,-75.65 929.03,-83.45 932.33,-77.27"/>
</g>
<!-- Node21&#45;&gt;Node12 -->
<g id="edge27" class="edge">
<title>Node21&#45;&gt;Node12</title>
<path fill="none" stroke="midnightblue" d="M927.83,-51.59C947.06,-41.61 972.74,-28.27 989.33,-19.65"/>
<polygon fill="midnightblue" stroke="midnightblue" points="925.97,-48.61 918.71,-56.32 929.2,-54.82 925.97,-48.61"/>
</g>
<!-- Node24&#45;&gt;Node2 -->
<g id="edge34" class="edge">
<title>Node24&#45;&gt;Node2</title>
<path fill="none" stroke="midnightblue" d="M641.54,-220.51C690.66,-199.33 776.04,-154.52 738,-112 689.84,-58.18 486.74,-84.36 415,-76 412.17,-75.67 409.28,-75.33 406.37,-74.99"/>
<polygon fill="midnightblue" stroke="midnightblue" points="640.1,-217.31 632.25,-224.42 642.82,-223.76 640.1,-217.31"/>
</g>
<!-- Node24&#45;&gt;Node6 -->
<g id="edge36" class="edge">
<title>Node24&#45;&gt;Node6</title>
<path fill="none" stroke="midnightblue" d="M577.4,-229.64C512.1,-222.8 360.66,-206.32 234,-188 229.47,-187.35 224.74,-186.61 220.04,-185.85"/>
<polygon fill="midnightblue" stroke="midnightblue" points="577.18,-233.14 587.49,-230.7 577.9,-226.18 577.18,-233.14"/>
</g>
<!-- Node24&#45;&gt;Node15 -->
<g id="edge35" class="edge">
<title>Node24&#45;&gt;Node15</title>
<path fill="none" stroke="midnightblue" d="M577.21,-233.01C514.99,-232.11 376.24,-225.61 267,-188 261.21,-186.01 175.04,-137.32 172,-132 123.58,-47.26 -89.77,-158.23 519,-76 522.01,-75.59 525.12,-75.15 528.24,-74.68"/>
<polygon fill="midnightblue" stroke="midnightblue" points="577.18,-236.51 587.22,-233.12 577.26,-229.51 577.18,-236.51"/>
</g>
<!-- Node25 -->
<g id="node25" class="node">
<title>Node25</title>
<g id="a_node25"><a xlink:href="_list_of_ports_8h.html" target="_top" xlink:title="Definition of ListOfPorts, the SBase derived class of ports package.">
<polygon fill="white" stroke="black" points="570.5,-168.5 570.5,-187.5 649.5,-187.5 649.5,-168.5 570.5,-168.5"/>
<text text-anchor="middle" x="610" y="-175.5" font-family="Helvetica,sans-Serif" font-size="10.00">ListOfPorts.h</text>
</a>
</g>
</g>
<!-- Node24&#45;&gt;Node25 -->
<g id="edge37" class="edge">
<title>Node24&#45;&gt;Node25</title>
<path fill="none" stroke="midnightblue" d="M610,-213.8C610,-204.91 610,-194.78 610,-187.75"/>
<polygon fill="midnightblue" stroke="midnightblue" points="606.5,-214.08 610,-224.08 613.5,-214.08 606.5,-214.08"/>
</g>
<!-- Node27 -->
<g id="node27" class="node">
<title>Node27</title>
<g id="a_node27"><a xlink:href="_port_8cpp.html" target="_top" xlink:title="Implementation of Port, the SBase&#45;derived class of the comp package.">
<polygon fill="white" stroke="black" points="673,-112.5 673,-131.5 729,-131.5 729,-112.5 673,-112.5"/>
<text text-anchor="middle" x="701" y="-119.5" font-family="Helvetica,sans-Serif" font-size="10.00">Port.cpp</text>
</a>
</g>
</g>
<!-- Node24&#45;&gt;Node27 -->
<g id="edge43" class="edge">
<title>Node24&#45;&gt;Node27</title>
<path fill="none" stroke="midnightblue" d="M628.25,-217.71C637.65,-209.4 649,-198.67 658,-188 673.71,-169.39 688.59,-144.81 696.03,-131.86"/>
<polygon fill="midnightblue" stroke="midnightblue" points="625.88,-215.14 620.6,-224.33 630.45,-220.44 625.88,-215.14"/>
</g>
<!-- Node25&#45;&gt;Node2 -->
<g id="edge38" class="edge">
<title>Node25&#45;&gt;Node2</title>
<path fill="none" stroke="midnightblue" d="M592.83,-161.92C575.19,-147.17 546.39,-125.09 518,-112 478.98,-94.01 431.68,-82.46 395.8,-75.57"/>
<polygon fill="midnightblue" stroke="midnightblue" points="590.66,-164.67 600.54,-168.49 595.2,-159.34 590.66,-164.67"/>
</g>
<!-- Node25&#45;&gt;Node11 -->
<g id="edge39" class="edge">
<title>Node25&#45;&gt;Node11</title>
<path fill="none" stroke="midnightblue" d="M659.71,-170.01C730.96,-159.99 861.79,-141.59 936.91,-131.03"/>
<polygon fill="midnightblue" stroke="midnightblue" points="659.06,-166.57 649.65,-171.42 660.04,-173.5 659.06,-166.57"/>
</g>
<!-- Node25&#45;&gt;Node23 -->
<g id="edge41" class="edge">
<title>Node25&#45;&gt;Node23</title>
<path fill="none" stroke="midnightblue" d="M575.39,-165.17C545.64,-155 503.45,-140.59 476.92,-131.52"/>
<polygon fill="midnightblue" stroke="midnightblue" points="574.37,-168.52 584.96,-168.44 576.63,-161.9 574.37,-168.52"/>
</g>
<!-- Node26 -->
<g id="node26" class="node">
<title>Node26</title>
<g id="a_node26"><a xlink:href="_list_of_ports_8cpp.html" target="_top" xlink:title="Implementation of ListOfPorts.">
<polygon fill="white" stroke="black" points="565,-112.5 565,-131.5 655,-131.5 655,-112.5 565,-112.5"/>
<text text-anchor="middle" x="610" y="-119.5" font-family="Helvetica,sans-Serif" font-size="10.00">ListOfPorts.cpp</text>
</a>
</g>
</g>
<!-- Node25&#45;&gt;Node26 -->
<g id="edge40" class="edge">
<title>Node25&#45;&gt;Node26</title>
<path fill="none" stroke="midnightblue" d="M610,-157.8C610,-148.91 610,-138.78 610,-131.75"/>
<polygon fill="midnightblue" stroke="midnightblue" points="606.5,-158.08 610,-168.08 613.5,-158.08 606.5,-158.08"/>
</g>
<!-- Node25&#45;&gt;Node27 -->
<g id="edge42" class="edge">
<title>Node25&#45;&gt;Node27</title>
<path fill="none" stroke="midnightblue" d="M633.29,-163.18C650.04,-153.24 672.1,-140.15 686.42,-131.65"/>
<polygon fill="midnightblue" stroke="midnightblue" points="631.43,-160.21 624.62,-168.32 635.01,-166.23 631.43,-160.21"/>
</g>
<!-- Node28&#45;&gt;Node18 -->
<g id="edge63" class="edge">
<title>Node28&#45;&gt;Node18</title>
<path fill="none" stroke="midnightblue" d="M1122.88,-336.58C1192.75,-321.16 1321.49,-281 1373,-188 1393.67,-150.69 1379.67,-96.46 1372.99,-75.61"/>
<polygon fill="midnightblue" stroke="midnightblue" points="1122.07,-333.17 1113.02,-338.68 1123.53,-340.02 1122.07,-333.17"/>
</g>
<!-- Node29 -->
<g id="node29" class="node">
<title>Node29</title>
<g id="a_node29"><a xlink:href="_replaced_by_8h.html" target="_top" xlink:title="Definition of ReplacedBy, the Replacing&#45;derived class of the comp package.">
<polygon fill="white" stroke="black" points="969,-224.5 969,-243.5 1051,-243.5 1051,-224.5 969,-224.5"/>
<text text-anchor="middle" x="1010" y="-231.5" font-family="Helvetica,sans-Serif" font-size="10.00">ReplacedBy.h</text>
</a>
</g>
</g>
<!-- Node28&#45;&gt;Node29 -->
<g id="edge45" class="edge">
<title>Node28&#45;&gt;Node29</title>
<path fill="none" stroke="midnightblue" d="M1065.58,-327.64C1051.25,-303.74 1025.98,-261.63 1015.15,-243.59"/>
<polygon fill="midnightblue" stroke="midnightblue" points="1062.67,-329.59 1070.82,-336.37 1068.68,-325.99 1062.67,-329.59"/>
</g>
<!-- Node32 -->
<g id="node32" class="node">
<title>Node32</title>
<g id="a_node32"><a xlink:href="_replaced_element_8h.html" target="_top" xlink:title="Definition of ReplacedElement, the SBase derived class of replacedElements package.">
<polygon fill="white" stroke="black" points="1074.5,-280.5 1074.5,-299.5 1185.5,-299.5 1185.5,-280.5 1074.5,-280.5"/>
<text text-anchor="middle" x="1130" y="-287.5" font-family="Helvetica,sans-Serif" font-size="10.00">ReplacedElement.h</text>
</a>
</g>
</g>
<!-- Node28&#45;&gt;Node32 -->
<g id="edge55" class="edge">
<title>Node28&#45;&gt;Node32</title>
<path fill="none" stroke="midnightblue" d="M1092,-329C1101.57,-319.43 1113.36,-307.64 1121.25,-299.75"/>
<polygon fill="midnightblue" stroke="midnightblue" points="1089.51,-326.54 1084.92,-336.08 1094.46,-331.49 1089.51,-326.54"/>
</g>
<!-- Node29&#45;&gt;Node2 -->
<g id="edge46" class="edge">
<title>Node29&#45;&gt;Node2</title>
<path fill="none" stroke="midnightblue" d="M988.96,-218.67C945.59,-189.4 847.12,-124.49 809,-112 641.89,-57.27 589.85,-94.62 415,-76 412.17,-75.7 409.28,-75.38 406.36,-75.06"/>
<polygon fill="midnightblue" stroke="midnightblue" points="987.09,-221.63 997.34,-224.34 991.02,-215.83 987.09,-221.63"/>
</g>
<!-- Node29&#45;&gt;Node16 -->
<g id="edge54" class="edge">
<title>Node29&#45;&gt;Node16</title>
<path fill="none" stroke="midnightblue" d="M1018.55,-215.17C1031.96,-188.98 1060.37,-140.17 1098,-112 1122.55,-93.63 1155.28,-82.24 1181.23,-75.51"/>
<polygon fill="midnightblue" stroke="midnightblue" points="1015.32,-213.79 1014.01,-224.31 1021.59,-216.91 1015.32,-213.79"/>
</g>
<!-- Node30 -->
<g id="node30" class="node">
<title>Node30</title>
<g id="a_node30"><a xlink:href="_comp_s_base_plugin_8h.html" target="_top" xlink:title="Definition of CompSBasePlugin, the plugin class of comp package for the Model element.">
<polygon fill="white" stroke="black" points="1076,-168.5 1076,-187.5 1190,-187.5 1190,-168.5 1076,-168.5"/>
<text text-anchor="middle" x="1133" y="-175.5" font-family="Helvetica,sans-Serif" font-size="10.00">CompSBasePlugin.h</text>
</a>
</g>
</g>
<!-- Node29&#45;&gt;Node30 -->
<g id="edge47" class="edge">
<title>Node29&#45;&gt;Node30</title>
<path fill="none" stroke="midnightblue" d="M1038.77,-220.37C1061.81,-210.26 1093.48,-196.35 1113.6,-187.52"/>
<polygon fill="midnightblue" stroke="midnightblue" points="1037.24,-217.22 1029.49,-224.44 1040.05,-223.63 1037.24,-217.22"/>
</g>
<!-- Node30&#45;&gt;Node2 -->
<g id="edge48" class="edge">
<title>Node30&#45;&gt;Node2</title>
<path fill="none" stroke="midnightblue" d="M1069.18,-166.72C1028.22,-159.21 974.24,-147.62 928,-132 908.03,-125.26 905.39,-117.33 885,-112 682.32,-58.97 623.48,-96.65 415,-76 412.17,-75.72 409.27,-75.42 406.35,-75.11"/>
<polygon fill="midnightblue" stroke="midnightblue" points="1068.57,-170.17 1079.03,-168.49 1069.81,-163.28 1068.57,-170.17"/>
</g>
<!-- Node30&#45;&gt;Node11 -->
<g id="edge50" class="edge">
<title>Node30&#45;&gt;Node11</title>
<path fill="none" stroke="midnightblue" d="M1101.52,-164.77C1075.41,-154.63 1038.96,-140.47 1015.92,-131.52"/>
<polygon fill="midnightblue" stroke="midnightblue" points="1100.39,-168.08 1110.98,-168.44 1102.92,-161.56 1100.39,-168.08"/>
</g>
<!-- Node30&#45;&gt;Node12 -->
<g id="edge49" class="edge">
<title>Node30&#45;&gt;Node12</title>
<path fill="none" stroke="midnightblue" d="M1195.87,-165.75C1217.85,-159.1 1241.2,-148.58 1258,-132 1282.94,-107.38 1301.68,-82.72 1279,-56 1251.8,-23.95 1134.22,-14.69 1062.53,-12.04"/>
<polygon fill="midnightblue" stroke="midnightblue" points="1194.92,-162.38 1186.24,-168.45 1196.81,-169.12 1194.92,-162.38"/>
</g>
<!-- Node30&#45;&gt;Node16 -->
<g id="edge52" class="edge">
<title>Node30&#45;&gt;Node16</title>
<path fill="none" stroke="midnightblue" d="M1194.27,-165.21C1212.37,-158.56 1230.21,-148.19 1241,-132 1252.78,-114.34 1239.22,-88.94 1230.39,-75.73"/>
<polygon fill="midnightblue" stroke="midnightblue" points="1192.92,-161.97 1184.53,-168.44 1195.12,-168.61 1192.92,-161.97"/>
</g>
<!-- Node30&#45;&gt;Node17 -->
<g id="edge53" class="edge">
<title>Node30&#45;&gt;Node17</title>
<path fill="none" stroke="midnightblue" d="M1181.81,-166.24C1218.24,-157.86 1269.07,-145.43 1313,-132 1370.86,-114.31 1437.47,-88.7 1470.75,-75.53"/>
<polygon fill="midnightblue" stroke="midnightblue" points="1180.91,-162.85 1171.94,-168.49 1182.47,-169.68 1180.91,-162.85"/>
</g>
<!-- Node31 -->
<g id="node31" class="node">
<title>Node31</title>
<g id="a_node31"><a xlink:href="_comp_s_base_plugin_8cpp.html" target="_top" xlink:title="Implementation of CompSBasePlugin, the plugin class of comp package for the SBase element.">
<polygon fill="white" stroke="black" points="1107.5,-112.5 1107.5,-131.5 1232.5,-131.5 1232.5,-112.5 1107.5,-112.5"/>
<text text-anchor="middle" x="1170" y="-119.5" font-family="Helvetica,sans-Serif" font-size="10.00">CompSBasePlugin.cpp</text>
</a>
</g>
</g>
<!-- Node30&#45;&gt;Node31 -->
<g id="edge51" class="edge">
<title>Node30&#45;&gt;Node31</title>
<path fill="none" stroke="midnightblue" d="M1144.95,-159.57C1151.31,-150.27 1158.87,-139.25 1164,-131.75"/>
<polygon fill="midnightblue" stroke="midnightblue" points="1141.87,-157.86 1139.11,-168.08 1147.65,-161.81 1141.87,-157.86"/>
</g>
<!-- Node32&#45;&gt;Node2 -->
<g id="edge56" class="edge">
<title>Node32&#45;&gt;Node2</title>
<path fill="none" stroke="midnightblue" d="M1071.62,-278.35C1038.07,-271.06 995.66,-259.82 960,-244 861.63,-200.35 858.43,-147.96 757,-112 612.95,-60.93 566.87,-93.23 415,-76 412.17,-75.68 409.28,-75.35 406.36,-75.01"/>
<polygon fill="midnightblue" stroke="midnightblue" points="1071.22,-281.84 1081.73,-280.49 1072.66,-275 1071.22,-281.84"/>
</g>
<!-- Node32&#45;&gt;Node17 -->
<g id="edge62" class="edge">
<title>Node32&#45;&gt;Node17</title>
<path fill="none" stroke="midnightblue" d="M1175.99,-277.76C1232.26,-262.74 1329.14,-232.73 1403,-188 1434.76,-168.77 1443.58,-162.33 1465,-132 1477.83,-113.83 1486.06,-88.65 1489.75,-75.6"/>
<polygon fill="midnightblue" stroke="midnightblue" points="1174.75,-274.46 1165.97,-280.39 1176.53,-281.23 1174.75,-274.46"/>
</g>
<!-- Node33 -->
<g id="node33" class="node">
<title>Node33</title>
<g id="a_node33"><a xlink:href="_list_of_replaced_elements_8h.html" target="_top" xlink:title="Definition of ListOfReplacedElements, the SBase derived class of replacedElements package.">
<polygon fill="white" stroke="black" points="1069.5,-224.5 1069.5,-243.5 1214.5,-243.5 1214.5,-224.5 1069.5,-224.5"/>
<text text-anchor="middle" x="1142" y="-231.5" font-family="Helvetica,sans-Serif" font-size="10.00">ListOfReplacedElements.h</text>
</a>
</g>
</g>
<!-- Node32&#45;&gt;Node33 -->
<g id="edge57" class="edge">
<title>Node32&#45;&gt;Node33</title>
<path fill="none" stroke="midnightblue" d="M1134.2,-270.1C1136.19,-261.14 1138.48,-250.86 1140.06,-243.75"/>
<polygon fill="midnightblue" stroke="midnightblue" points="1130.73,-269.56 1131.98,-280.08 1137.57,-271.08 1130.73,-269.56"/>
</g>
<!-- Node33&#45;&gt;Node2 -->
<g id="edge58" class="edge">
<title>Node33&#45;&gt;Node2</title>
<path fill="none" stroke="midnightblue" d="M1109.27,-220.98C1060.14,-202.74 964.61,-166.55 885,-132 866.03,-123.77 862.96,-117.4 843,-112 658.73,-62.16 604.89,-95.53 415,-76 412.17,-75.71 409.28,-75.4 406.36,-75.08"/>
<polygon fill="midnightblue" stroke="midnightblue" points="1108.15,-224.29 1118.74,-224.48 1110.58,-217.73 1108.15,-224.29"/>
</g>
<!-- Node33&#45;&gt;Node17 -->
<g id="edge61" class="edge">
<title>Node33&#45;&gt;Node17</title>
<path fill="none" stroke="midnightblue" d="M1224.9,-228.85C1270.8,-223.69 1327.58,-212.41 1373,-188 1426.47,-159.27 1470.94,-98.43 1486.27,-75.76"/>
<polygon fill="midnightblue" stroke="midnightblue" points="1224.26,-225.4 1214.68,-229.92 1224.99,-232.36 1224.26,-225.4"/>
</g>
<!-- Node33&#45;&gt;Node30 -->
<g id="edge59" class="edge">
<title>Node33&#45;&gt;Node30</title>
<path fill="none" stroke="midnightblue" d="M1138.85,-214.1C1137.36,-205.14 1135.64,-194.86 1134.46,-187.75"/>
<polygon fill="midnightblue" stroke="midnightblue" points="1135.42,-214.79 1140.51,-224.08 1142.32,-213.64 1135.42,-214.79"/>
</g>
<!-- Node34 -->
<g id="node34" class="node">
<title>Node34</title>
<g id="a_node34"><a xlink:href="_list_of_replaced_elements_8cpp.html" target="_top" xlink:title="Implementation of ListOfReplacedElements from the comp package.">
<polygon fill="white" stroke="black" points="1208,-168.5 1208,-187.5 1364,-187.5 1364,-168.5 1208,-168.5"/>
<text text-anchor="middle" x="1286" y="-175.5" font-family="Helvetica,sans-Serif" font-size="10.00">ListOfReplacedElements.cpp</text>
</a>
</g>
</g>
<!-- Node33&#45;&gt;Node34 -->
<g id="edge60" class="edge">
<title>Node33&#45;&gt;Node34</title>
<path fill="none" stroke="midnightblue" d="M1174.25,-220.91C1201.32,-210.75 1239.32,-196.51 1263.29,-187.52"/>
<polygon fill="midnightblue" stroke="midnightblue" points="1172.95,-217.66 1164.82,-224.44 1175.41,-224.21 1172.95,-217.66"/>
</g>
</g>
</svg>
        <g id="navigator" transform="translate(0 0)" fill="#404254">
                <rect fill="#f2f5e9" fill-opacity="0.5" stroke="#606060" stroke-width=".5" x="0" y="0" width="60" height="60"/>
                <use id="zoomplus" xlink:href="#zoomPlus" x="17" y="9" onmousedown="handleZoom(evt,'in')"/>
                <use id="zoomminus" xlink:href="#zoomMin" x="42" y="9" onmousedown="handleZoom(evt,'out')"/>
                <use id="reset" xlink:href="#resetDef" x="30" y="36" onmousedown="handleReset()"/>
                <g id="arrowUp" xlink:href="#dirArrow" transform="translate(30 24)" onmousedown="handlePan(0,-1)">
                  <use xlink:href="#rim" fill="#404040">
                        <set attributeName="fill" to="#808080" begin="arrowUp.mouseover" end="arrowUp.mouseout"/>
                  </use>
                  <path fill="none" stroke="white" stroke-width="1.5" d="M0,-3.0v7 M-2.5,-0.5L0,-3.0L2.5,-0.5"/>
                </g>
                <g id="arrowRight" xlink:href="#dirArrow" transform="rotate(90) translate(36 -43)" onmousedown="handlePan(1,0)">
                  <use xlink:href="#rim" fill="#404040">
                        <set attributeName="fill" to="#808080" begin="arrowRight.mouseover" end="arrowRight.mouseout"/>
                  </use>
                  <path fill="none" stroke="white" stroke-width="1.5" d="M0,-3.0v7 M-2.5,-0.5L0,-3.0L2.5,-0.5"/>
                </g>
                <g id="arrowDown" xlink:href="#dirArrow" transform="rotate(180) translate(-30 -48)" onmousedown="handlePan(0,1)">
                  <use xlink:href="#rim" fill="#404040">
                        <set attributeName="fill" to="#808080" begin="arrowDown.mouseover" end="arrowDown.mouseout"/>
                  </use>
                  <path fill="none" stroke="white" stroke-width="1.5" d="M0,-3.0v7 M-2.5,-0.5L0,-3.0L2.5,-0.5"/>
                </g>
                <g id="arrowLeft" xlink:href="#dirArrow" transform="rotate(270) translate(-36 17)" onmousedown="handlePan(-1,0)">
                  <use xlink:href="#rim" fill="#404040">
                        <set attributeName="fill" to="#808080" begin="arrowLeft.mouseover" end="arrowLeft.mouseout"/>
                  </use>
                  <path fill="none" stroke="white" stroke-width="1.5" d="M0,-3.0v7 M-2.5,-0.5L0,-3.0L2.5,-0.5"/>
                </g>
        </g>
        <svg viewBox="0 0 15 15" width="100%" height="30px" preserveAspectRatio="xMaxYMin meet">
         <g id="arrow_out" transform="scale(0.3 0.3)">
          <a xlink:href="_s_base_ref_8h__dep__incl_org.svg" target="_base">
           <rect id="button" ry="5" rx="5" y="6" x="6" height="38" width="38"
                fill="#f2f5e9" fill-opacity="0.5" stroke="#606060" stroke-width="1.0"/>
           <path id="arrow"
             d="M 11.500037,31.436501 C 11.940474,20.09759 22.043105,11.32322 32.158766,21.979434 L 37.068811,17.246167 C 37.068811,17.246167 37.088388,32 37.088388,32 L 22.160133,31.978069 C 22.160133,31.978069 26.997745,27.140456 26.997745,27.140456 C 18.528582,18.264221 13.291696,25.230495 11.500037,31.436501 z"
             style="fill:#404040;"/>
          </a>
         </g>
        </svg>
</svg>
