<?xml version="1.0" encoding="UTF-8" standalone="no"?>
<!DOCTYPE svg PUBLIC "-//W3C//DTD SVG 1.1//EN"
 "http://www.w3.org/Graphics/SVG/1.1/DTD/svg11.dtd">
<!-- Generated by graphviz version 2.43.0 (0)
 -->
<!-- Title: SBMLConverterRegistry.h Pages: 1 -->
<!--zoomable 84 -->
<svg id="main" version="1.1" xmlns="http://www.w3.org/2000/svg" xmlns:xlink="http://www.w3.org/1999/xlink" xml:space="preserve" onload="init(evt)">
<style type="text/css"><![CDATA[
.edge:hover path { stroke: red; }
.edge:hover polygon { stroke: red; fill: red; }
]]></style>
<script type="text/javascript"><![CDATA[
var edges = document.getElementsByTagName('g');
if (edges && edges.length) {
  for (var i=0;i<edges.length;i++) {
    if (edges[i].id.substr(0,4)=='edge') {
      edges[i].setAttribute('class','edge');
    }
  }
}
]]></script>
        <defs>
                <circle id="rim" cx="0" cy="0" r="7"/>
                <circle id="rim2" cx="0" cy="0" r="3.5"/>
                <g id="zoomPlus">
                        <use xlink:href="#rim" fill="#404040">
                                <set attributeName="fill" to="#808080" begin="zoomplus.mouseover" end="zoomplus.mouseout"/>
                        </use>
                        <path d="M-4,0h8M0,-4v8" fill="none" stroke="white" stroke-width="1.5" pointer-events="none"/>
                </g>
                <g id="zoomMin">
                        <use xlink:href="#rim" fill="#404040">
                                <set attributeName="fill" to="#808080" begin="zoomminus.mouseover" end="zoomminus.mouseout"/>
                        </use>
                        <path d="M-4,0h8" fill="none" stroke="white" stroke-width="1.5" pointer-events="none"/>
                </g>
                <g id="dirArrow">
                        <path fill="none" stroke="white" stroke-width="1.5" d="M0,-3.0v7 M-2.5,-0.5L0,-3.0L2.5,-0.5"/>
                </g>
               <g id="resetDef">
                       <use xlink:href="#rim2" fill="#404040">
                               <set attributeName="fill" to="#808080" begin="reset.mouseover" end="reset.mouseout"/>
                       </use>
               </g>
        </defs>

<script type="text/javascript">
var viewWidth = 4349;
var viewHeight = 84;
var sectionId = 'dynsection-1';
</script>
<script xlink:href="svgpan.js"/>
<svg id="graph" class="graph">
<g id="viewport">
<title>SBMLConverterRegistry.h</title>
<polygon fill="white" stroke="transparent" points="-4,4 -4,-80 4344.5,-80 4344.5,4 -4,4"/>
<!-- Node1 -->
<g id="node1" class="node">
<title>Node1</title>
<g id="a_node1"><a xlink:title="Definition of SBMLConverterRegistry, a registry of available converters.">
<polygon fill="#bfbfbf" stroke="black" points="2253.5,-56.5 2253.5,-75.5 2393.5,-75.5 2393.5,-56.5 2253.5,-56.5"/>
<text text-anchor="middle" x="2323.5" y="-63.5" font-family="Helvetica,sans-Serif" font-size="10.00">SBMLConverterRegistry.h</text>
</a>
</g>
</g>
<!-- Node2 -->
<g id="node2" class="node">
<title>Node2</title>
<g id="a_node2"><a xlink:href="_s_b_m_l_converter_registry_8cpp.html" target="_top" xlink:title="Implementation of SBMLConverterRegistry, a registry of available converters.">
<polygon fill="white" stroke="black" points="0,-0.5 0,-19.5 151,-19.5 151,-0.5 0,-0.5"/>
<text text-anchor="middle" x="75.5" y="-7.5" font-family="Helvetica,sans-Serif" font-size="10.00">SBMLConverterRegistry.cpp</text>
</a>
</g>
</g>
<!-- Node1&#45;&gt;Node2 -->
<g id="edge1" class="edge">
<title>Node1&#45;&gt;Node2</title>
<path fill="none" stroke="midnightblue" d="M2243.22,-64.24C1902.85,-60.89 577.41,-46.36 160.5,-20 157.39,-19.8 154.22,-19.58 151.02,-19.33"/>
<polygon fill="midnightblue" stroke="midnightblue" points="2243.2,-67.74 2253.24,-64.34 2243.27,-60.74 2243.2,-67.74"/>
</g>
<!-- Node3 -->
<g id="node3" class="node">
<title>Node3</title>
<g id="a_node3"><a xlink:href="_s_b_m_l_converter_types_8h.html" target="_top" xlink:title="Definition of SBMLConverterTypes.">
<polygon fill="white" stroke="black" points="169.5,-0.5 169.5,-19.5 297.5,-19.5 297.5,-0.5 169.5,-0.5"/>
<text text-anchor="middle" x="233.5" y="-7.5" font-family="Helvetica,sans-Serif" font-size="10.00">SBMLConverterTypes.h</text>
</a>
</g>
</g>
<!-- Node1&#45;&gt;Node3 -->
<g id="edge2" class="edge">
<title>Node1&#45;&gt;Node3</title>
<path fill="none" stroke="midnightblue" d="M2243.06,-64.29C1917.01,-61.22 692.8,-48.05 306.5,-20 303.57,-19.79 300.58,-19.54 297.56,-19.27"/>
<polygon fill="midnightblue" stroke="midnightblue" points="2243.33,-67.79 2253.37,-64.38 2243.4,-60.79 2243.33,-67.79"/>
</g>
<!-- Node4 -->
<g id="node4" class="node">
<title>Node4</title>
<g id="a_node4"><a xlink:href="_s_b_m_l_function_definition_converter_8cpp.html" target="_top" xlink:title="Implementation of SBMLFunctionDefinitionConverter, a converter replacing function definitions.">
<polygon fill="white" stroke="black" points="315.5,-0.5 315.5,-19.5 515.5,-19.5 515.5,-0.5 315.5,-0.5"/>
<text text-anchor="middle" x="415.5" y="-7.5" font-family="Helvetica,sans-Serif" font-size="10.00">SBMLFunctionDefinitionConverter.cpp</text>
</a>
</g>
</g>
<!-- Node1&#45;&gt;Node4 -->
<g id="edge3" class="edge">
<title>Node1&#45;&gt;Node4</title>
<path fill="none" stroke="midnightblue" d="M2242.94,-64.63C1989.77,-63.12 1187.61,-55.64 524.5,-20 521.56,-19.84 518.58,-19.67 515.57,-19.49"/>
<polygon fill="midnightblue" stroke="midnightblue" points="2243.13,-68.13 2253.15,-64.69 2243.17,-61.13 2243.13,-68.13"/>
</g>
<!-- Node5 -->
<g id="node5" class="node">
<title>Node5</title>
<g id="a_node5"><a xlink:href="_s_b_m_l_id_converter_8cpp.html" target="_top" xlink:title="Implementation of SBMLIdConverter, a converter renaming SIds.">
<polygon fill="white" stroke="black" points="533.5,-0.5 533.5,-19.5 653.5,-19.5 653.5,-0.5 533.5,-0.5"/>
<text text-anchor="middle" x="593.5" y="-7.5" font-family="Helvetica,sans-Serif" font-size="10.00">SBMLIdConverter.cpp</text>
</a>
</g>
</g>
<!-- Node1&#45;&gt;Node5 -->
<g id="edge4" class="edge">
<title>Node1&#45;&gt;Node5</title>
<path fill="none" stroke="midnightblue" d="M2243.07,-63.92C1954.98,-59.86 975.16,-44.56 662.5,-20 659.61,-19.77 656.65,-19.51 653.67,-19.22"/>
<polygon fill="midnightblue" stroke="midnightblue" points="2243.38,-67.42 2253.43,-64.06 2243.48,-60.42 2243.38,-67.42"/>
</g>
<!-- Node6 -->
<g id="node6" class="node">
<title>Node6</title>
<g id="a_node6"><a xlink:href="_s_b_m_l_infer_units_converter_8cpp.html" target="_top" xlink:title="Implementation of SBMLInferUnitsConverter.">
<polygon fill="white" stroke="black" points="672,-0.5 672,-19.5 831,-19.5 831,-0.5 672,-0.5"/>
<text text-anchor="middle" x="751.5" y="-7.5" font-family="Helvetica,sans-Serif" font-size="10.00">SBMLInferUnitsConverter.cpp</text>
</a>
</g>
</g>
<!-- Node1&#45;&gt;Node6 -->
<g id="edge5" class="edge">
<title>Node1&#45;&gt;Node6</title>
<path fill="none" stroke="midnightblue" d="M2243.2,-64.58C2020.23,-63 1374.65,-55.43 839.5,-20 836.74,-19.82 833.94,-19.62 831.1,-19.4"/>
<polygon fill="midnightblue" stroke="midnightblue" points="2243.48,-68.09 2253.5,-64.66 2243.52,-61.09 2243.48,-68.09"/>
</g>
<!-- Node7 -->
<g id="node7" class="node">
<title>Node7</title>
<g id="a_node7"><a xlink:href="_s_b_m_l_initial_assignment_converter_8cpp.html" target="_top" xlink:title="Implementation of SBMLInitialAssignmentConverter, a converter inlining initial assignments.">
<polygon fill="white" stroke="black" points="849,-0.5 849,-19.5 1046,-19.5 1046,-0.5 849,-0.5"/>
<text text-anchor="middle" x="947.5" y="-7.5" font-family="Helvetica,sans-Serif" font-size="10.00">SBMLInitialAssignmentConverter.cpp</text>
</a>
</g>
</g>
<!-- Node1&#45;&gt;Node7 -->
<g id="edge6" class="edge">
<title>Node1&#45;&gt;Node7</title>
<path fill="none" stroke="midnightblue" d="M2243.13,-63.5C2042.46,-59.47 1503.32,-46.82 1054.5,-20 1051.71,-19.83 1048.88,-19.66 1046.02,-19.47"/>
<polygon fill="midnightblue" stroke="midnightblue" points="2243.22,-67 2253.28,-63.7 2243.36,-60.01 2243.22,-67"/>
</g>
<!-- Node8 -->
<g id="node8" class="node">
<title>Node8</title>
<g id="a_node8"><a xlink:href="_s_b_m_l_level1_version1_converter_8cpp.html" target="_top" xlink:title="Implementation of SBMLLevel1Version1Converter.">
<polygon fill="white" stroke="black" points="1064,-0.5 1064,-19.5 1249,-19.5 1249,-0.5 1064,-0.5"/>
<text text-anchor="middle" x="1156.5" y="-7.5" font-family="Helvetica,sans-Serif" font-size="10.00">SBMLLevel1Version1Converter.cpp</text>
</a>
</g>
</g>
<!-- Node1&#45;&gt;Node8 -->
<g id="edge7" class="edge">
<title>Node1&#45;&gt;Node8</title>
<path fill="none" stroke="midnightblue" d="M2243.23,-62.89C2065.49,-57.94 1625.35,-44.14 1257.5,-20 1254.78,-19.82 1252.01,-19.63 1249.22,-19.43"/>
<polygon fill="midnightblue" stroke="midnightblue" points="2243.19,-66.39 2253.28,-63.17 2243.38,-59.39 2243.19,-66.39"/>
</g>
<!-- Node9 -->
<g id="node9" class="node">
<title>Node9</title>
<g id="a_node9"><a xlink:href="_s_b_m_l_level_version_converter_8cpp.html" target="_top" xlink:title="Implementation of SBMLLevelVersionConverter, the base class of package extensions.">
<polygon fill="white" stroke="black" points="1267,-0.5 1267,-19.5 1440,-19.5 1440,-0.5 1267,-0.5"/>
<text text-anchor="middle" x="1353.5" y="-7.5" font-family="Helvetica,sans-Serif" font-size="10.00">SBMLLevelVersionConverter.cpp</text>
</a>
</g>
</g>
<!-- Node1&#45;&gt;Node9 -->
<g id="edge8" class="edge">
<title>Node1&#45;&gt;Node9</title>
<path fill="none" stroke="midnightblue" d="M2243.08,-62.02C2088.84,-56.06 1740.83,-41.35 1448.5,-20 1445.77,-19.8 1443,-19.59 1440.21,-19.37"/>
<polygon fill="midnightblue" stroke="midnightblue" points="2243.27,-65.53 2253.4,-62.42 2243.54,-58.54 2243.27,-65.53"/>
</g>
<!-- Node10 -->
<g id="node10" class="node">
<title>Node10</title>
<g id="a_node10"><a xlink:href="_s_b_m_l_local_parameter_converter_8cpp.html" target="_top" xlink:title="Implementation of SBMLLocalParameterConverter, a converter replacing local parameters with global one...">
<polygon fill="white" stroke="black" points="1458,-0.5 1458,-19.5 1645,-19.5 1645,-0.5 1458,-0.5"/>
<text text-anchor="middle" x="1551.5" y="-7.5" font-family="Helvetica,sans-Serif" font-size="10.00">SBMLLocalParameterConverter.cpp</text>
</a>
</g>
</g>
<!-- Node1&#45;&gt;Node10 -->
<g id="edge9" class="edge">
<title>Node1&#45;&gt;Node10</title>
<path fill="none" stroke="midnightblue" d="M2242.73,-60.12C2116.79,-52.4 1866.04,-36.51 1653.5,-20 1650.75,-19.79 1647.96,-19.57 1645.15,-19.34"/>
<polygon fill="midnightblue" stroke="midnightblue" points="2242.85,-63.64 2253.05,-60.76 2243.28,-56.65 2242.85,-63.64"/>
</g>
<!-- Node11 -->
<g id="node11" class="node">
<title>Node11</title>
<g id="a_node11"><a xlink:href="_s_b_m_l_rate_of_converter_8cpp.html" target="_top" xlink:title="Implementation of SBMLRateOfConverter, a converter changing &#39;rateOf&#39; into functionDefinition.">
<polygon fill="white" stroke="black" points="1663,-0.5 1663,-19.5 1808,-19.5 1808,-0.5 1663,-0.5"/>
<text text-anchor="middle" x="1735.5" y="-7.5" font-family="Helvetica,sans-Serif" font-size="10.00">SBMLRateOfConverter.cpp</text>
</a>
</g>
</g>
<!-- Node1&#45;&gt;Node11 -->
<g id="edge10" class="edge">
<title>Node1&#45;&gt;Node11</title>
<path fill="none" stroke="midnightblue" d="M2243.3,-58.43C2143.31,-50.12 1967.18,-35.06 1816.5,-20 1813.83,-19.73 1811.1,-19.46 1808.35,-19.17"/>
<polygon fill="midnightblue" stroke="midnightblue" points="2243.08,-61.93 2253.33,-59.27 2243.66,-54.95 2243.08,-61.93"/>
</g>
<!-- Node12 -->
<g id="node12" class="node">
<title>Node12</title>
<g id="a_node12"><a xlink:href="_s_b_m_l_rate_rule_converter_8cpp.html" target="_top" xlink:title="Implementation of SBMLRateRuleConverter, a converter from raterule to reaction.">
<polygon fill="white" stroke="black" points="1826,-0.5 1826,-19.5 1981,-19.5 1981,-0.5 1826,-0.5"/>
<text text-anchor="middle" x="1903.5" y="-7.5" font-family="Helvetica,sans-Serif" font-size="10.00">SBMLRateRuleConverter.cpp</text>
</a>
</g>
</g>
<!-- Node1&#45;&gt;Node12 -->
<g id="edge11" class="edge">
<title>Node1&#45;&gt;Node12</title>
<path fill="none" stroke="midnightblue" d="M2247.02,-55.17C2167.72,-44.97 2045.03,-29.2 1969.74,-19.52"/>
<polygon fill="midnightblue" stroke="midnightblue" points="2246.59,-58.64 2256.95,-56.44 2247.48,-51.7 2246.59,-58.64"/>
</g>
<!-- Node13 -->
<g id="node13" class="node">
<title>Node13</title>
<g id="a_node13"><a xlink:href="_s_b_m_l_reaction_converter_8cpp.html" target="_top" xlink:title="Implementation of SBMLReactionConverter, a converter changing reactions into rate rules.">
<polygon fill="white" stroke="black" points="1999.5,-0.5 1999.5,-19.5 2153.5,-19.5 2153.5,-0.5 1999.5,-0.5"/>
<text text-anchor="middle" x="2076.5" y="-7.5" font-family="Helvetica,sans-Serif" font-size="10.00">SBMLReactionConverter.cpp</text>
</a>
</g>
</g>
<!-- Node1&#45;&gt;Node13 -->
<g id="edge12" class="edge">
<title>Node1&#45;&gt;Node13</title>
<path fill="none" stroke="midnightblue" d="M2274.47,-54.28C2227.8,-44.08 2158.47,-28.92 2115.45,-19.52"/>
<polygon fill="midnightblue" stroke="midnightblue" points="2273.85,-57.73 2284.36,-56.44 2275.34,-50.89 2273.85,-57.73"/>
</g>
<!-- Node14 -->
<g id="node14" class="node">
<title>Node14</title>
<g id="a_node14"><a xlink:href="_s_b_m_l_rule_converter_8cpp.html" target="_top" xlink:title="Implementation of SBMLRuleConverter, a converter sorting rules.">
<polygon fill="white" stroke="black" points="2172,-0.5 2172,-19.5 2305,-19.5 2305,-0.5 2172,-0.5"/>
<text text-anchor="middle" x="2238.5" y="-7.5" font-family="Helvetica,sans-Serif" font-size="10.00">SBMLRuleConverter.cpp</text>
</a>
</g>
</g>
<!-- Node1&#45;&gt;Node14 -->
<g id="edge13" class="edge">
<title>Node1&#45;&gt;Node14</title>
<path fill="none" stroke="midnightblue" d="M2301.31,-50.9C2285.72,-41 2265.37,-28.07 2252.12,-19.65"/>
<polygon fill="midnightblue" stroke="midnightblue" points="2299.53,-53.92 2309.84,-56.32 2303.28,-48.01 2299.53,-53.92"/>
</g>
<!-- Node15 -->
<g id="node15" class="node">
<title>Node15</title>
<g id="a_node15"><a xlink:href="_s_b_m_l_strip_package_converter_8cpp.html" target="_top" xlink:title="Implementation of SBMLStripPackageConverter, the base class of package extensions.">
<polygon fill="white" stroke="black" points="2323,-0.5 2323,-19.5 2496,-19.5 2496,-0.5 2323,-0.5"/>
<text text-anchor="middle" x="2409.5" y="-7.5" font-family="Helvetica,sans-Serif" font-size="10.00">SBMLStripPackageConverter.cpp</text>
</a>
</g>
</g>
<!-- Node1&#45;&gt;Node15 -->
<g id="edge14" class="edge">
<title>Node1&#45;&gt;Node15</title>
<path fill="none" stroke="midnightblue" d="M2345.95,-50.9C2361.72,-41 2382.31,-28.07 2395.72,-19.65"/>
<polygon fill="midnightblue" stroke="midnightblue" points="2343.93,-48.04 2337.32,-56.32 2347.65,-53.97 2343.93,-48.04"/>
</g>
<!-- Node16 -->
<g id="node16" class="node">
<title>Node16</title>
<g id="a_node16"><a xlink:href="_s_b_m_l_units_converter_8cpp.html" target="_top" xlink:title="Implementation of SBMLUnitsConverter, for converting units to SI.">
<polygon fill="white" stroke="black" points="2514,-0.5 2514,-19.5 2651,-19.5 2651,-0.5 2514,-0.5"/>
<text text-anchor="middle" x="2582.5" y="-7.5" font-family="Helvetica,sans-Serif" font-size="10.00">SBMLUnitsConverter.cpp</text>
</a>
</g>
</g>
<!-- Node1&#45;&gt;Node16 -->
<g id="edge15" class="edge">
<title>Node1&#45;&gt;Node16</title>
<path fill="none" stroke="midnightblue" d="M2374.6,-54.35C2423.55,-44.14 2496.45,-28.94 2541.65,-19.52"/>
<polygon fill="midnightblue" stroke="midnightblue" points="2373.61,-50.98 2364.54,-56.44 2375.04,-57.83 2373.61,-50.98"/>
</g>
<!-- Node17 -->
<g id="node17" class="node">
<title>Node17</title>
<g id="a_node17"><a xlink:href="_s_b_m_l_document_8cpp.html" target="_top" xlink:title="Implementation of the top&#45;level container for an SBML Model and associated data.">
<polygon fill="white" stroke="black" points="2669.5,-0.5 2669.5,-19.5 2783.5,-19.5 2783.5,-0.5 2669.5,-0.5"/>
<text text-anchor="middle" x="2726.5" y="-7.5" font-family="Helvetica,sans-Serif" font-size="10.00">SBMLDocument.cpp</text>
</a>
</g>
</g>
<!-- Node1&#45;&gt;Node17 -->
<g id="edge16" class="edge">
<title>Node1&#45;&gt;Node17</title>
<path fill="none" stroke="midnightblue" d="M2398.03,-55.11C2466.32,-46.03 2570.22,-32.18 2660.5,-20 2663.37,-19.61 2666.3,-19.22 2669.26,-18.81"/>
<polygon fill="midnightblue" stroke="midnightblue" points="2397.25,-51.68 2387.8,-56.47 2398.17,-58.62 2397.25,-51.68"/>
</g>
<!-- Node18 -->
<g id="node18" class="node">
<title>Node18</title>
<g id="a_node18"><a xlink:href="_comp_extension_8cpp.html" target="_top" xlink:title="Implementation of CompExtension, the core module of comp package.">
<polygon fill="white" stroke="black" points="2802,-0.5 2802,-19.5 2915,-19.5 2915,-0.5 2802,-0.5"/>
<text text-anchor="middle" x="2858.5" y="-7.5" font-family="Helvetica,sans-Serif" font-size="10.00">CompExtension.cpp</text>
</a>
</g>
</g>
<!-- Node1&#45;&gt;Node18 -->
<g id="edge17" class="edge">
<title>Node1&#45;&gt;Node18</title>
<path fill="none" stroke="midnightblue" d="M2403.75,-58.28C2497.22,-50.23 2656.23,-35.82 2792.5,-20 2795.6,-19.64 2798.78,-19.26 2801.99,-18.86"/>
<polygon fill="midnightblue" stroke="midnightblue" points="2403.18,-54.82 2393.52,-59.16 2403.78,-61.79 2403.18,-54.82"/>
</g>
<!-- Node19 -->
<g id="node19" class="node">
<title>Node19</title>
<g id="a_node19"><a xlink:href="_comp_s_b_m_l_document_plugin_8cpp.html" target="_top" xlink:title="Implementation of CompSBMLDocumentPlugin, the plugin class of comp package for the SBase element.">
<polygon fill="white" stroke="black" points="2933,-0.5 2933,-19.5 3106,-19.5 3106,-0.5 2933,-0.5"/>
<text text-anchor="middle" x="3019.5" y="-7.5" font-family="Helvetica,sans-Serif" font-size="10.00">CompSBMLDocumentPlugin.cpp</text>
</a>
</g>
</g>
<!-- Node1&#45;&gt;Node19 -->
<g id="edge18" class="edge">
<title>Node1&#45;&gt;Node19</title>
<path fill="none" stroke="midnightblue" d="M2404.01,-59.48C2519.36,-51.45 2738.29,-35.79 2924.5,-20 2927.22,-19.77 2929.99,-19.53 2932.78,-19.29"/>
<polygon fill="midnightblue" stroke="midnightblue" points="2403.59,-56 2393.86,-60.18 2404.07,-62.98 2403.59,-56"/>
</g>
<!-- Node20 -->
<g id="node20" class="node">
<title>Node20</title>
<g id="a_node20"><a xlink:href="_comp_flattening_converter_8cpp.html" target="_top" xlink:title="Implementation of a first flattening converter.">
<polygon fill="white" stroke="black" points="3124.5,-0.5 3124.5,-19.5 3286.5,-19.5 3286.5,-0.5 3124.5,-0.5"/>
<text text-anchor="middle" x="3205.5" y="-7.5" font-family="Helvetica,sans-Serif" font-size="10.00">CompFlatteningConverter.cpp</text>
</a>
</g>
</g>
<!-- Node1&#45;&gt;Node20 -->
<g id="edge19" class="edge">
<title>Node1&#45;&gt;Node20</title>
<path fill="none" stroke="midnightblue" d="M2403.78,-61.58C2546.9,-55.23 2855.55,-40.37 3115.5,-20 3118.32,-19.78 3121.18,-19.54 3124.08,-19.3"/>
<polygon fill="midnightblue" stroke="midnightblue" points="2403.59,-58.08 2393.76,-62.02 2403.9,-65.08 2403.59,-58.08"/>
</g>
<!-- Node21 -->
<g id="node21" class="node">
<title>Node21</title>
<g id="a_node21"><a xlink:href="_fbc_extension_8cpp.html" target="_top" xlink:title="Implementation of FbcExtension, the core module of fbc package.">
<polygon fill="white" stroke="black" points="3304.5,-0.5 3304.5,-19.5 3406.5,-19.5 3406.5,-0.5 3304.5,-0.5"/>
<text text-anchor="middle" x="3355.5" y="-7.5" font-family="Helvetica,sans-Serif" font-size="10.00">FbcExtension.cpp</text>
</a>
</g>
</g>
<!-- Node1&#45;&gt;Node21 -->
<g id="edge20" class="edge">
<title>Node1&#45;&gt;Node21</title>
<path fill="none" stroke="midnightblue" d="M2403.67,-64.07C2570.19,-61.52 2965.52,-52.3 3295.5,-20 3298.44,-19.71 3301.45,-19.38 3304.48,-19.02"/>
<polygon fill="midnightblue" stroke="midnightblue" points="2403.46,-60.57 2393.51,-64.22 2403.57,-67.57 2403.46,-60.57"/>
</g>
<!-- Node22 -->
<g id="node22" class="node">
<title>Node22</title>
<g id="a_node22"><a xlink:href="_cobra_to_fbc_converter_8cpp.html" target="_top" xlink:title="Implementation of a cobra 2 fbc converter.">
<polygon fill="white" stroke="black" points="3424.5,-0.5 3424.5,-19.5 3564.5,-19.5 3564.5,-0.5 3424.5,-0.5"/>
<text text-anchor="middle" x="3494.5" y="-7.5" font-family="Helvetica,sans-Serif" font-size="10.00">CobraToFbcConverter.cpp</text>
</a>
</g>
</g>
<!-- Node1&#45;&gt;Node22 -->
<g id="edge21" class="edge">
<title>Node1&#45;&gt;Node22</title>
<path fill="none" stroke="midnightblue" d="M2403.77,-63.68C2584.61,-60.26 3037.62,-49.27 3415.5,-20 3418.39,-19.78 3421.34,-19.53 3424.31,-19.26"/>
<polygon fill="midnightblue" stroke="midnightblue" points="2403.48,-60.18 2393.55,-63.87 2403.61,-67.18 2403.48,-60.18"/>
</g>
<!-- Node23 -->
<g id="node23" class="node">
<title>Node23</title>
<g id="a_node23"><a xlink:href="_fbc_to_cobra_converter_8cpp.html" target="_top" xlink:title="Implementation of a fbc 2 cobra converter.">
<polygon fill="white" stroke="black" points="3582.5,-0.5 3582.5,-19.5 3722.5,-19.5 3722.5,-0.5 3582.5,-0.5"/>
<text text-anchor="middle" x="3652.5" y="-7.5" font-family="Helvetica,sans-Serif" font-size="10.00">FbcToCobraConverter.cpp</text>
</a>
</g>
</g>
<!-- Node1&#45;&gt;Node23 -->
<g id="edge22" class="edge">
<title>Node1&#45;&gt;Node23</title>
<path fill="none" stroke="midnightblue" d="M2403.8,-64.26C2602.43,-61.97 3132.64,-53 3573.5,-20 3576.39,-19.78 3579.34,-19.54 3582.32,-19.28"/>
<polygon fill="midnightblue" stroke="midnightblue" points="2403.7,-60.76 2393.74,-64.38 2403.78,-67.76 2403.7,-60.76"/>
</g>
<!-- Node24 -->
<g id="node24" class="node">
<title>Node24</title>
<g id="a_node24"><a xlink:href="_fbc_v1_to_v2_converter_8cpp.html" target="_top" xlink:title="Implementation of a fbc v1 to fbc v2 converter.">
<polygon fill="white" stroke="black" points="3741,-0.5 3741,-19.5 3878,-19.5 3878,-0.5 3741,-0.5"/>
<text text-anchor="middle" x="3809.5" y="-7.5" font-family="Helvetica,sans-Serif" font-size="10.00">FbcV1ToV2Converter.cpp</text>
</a>
</g>
</g>
<!-- Node1&#45;&gt;Node24 -->
<g id="edge23" class="edge">
<title>Node1&#45;&gt;Node24</title>
<path fill="none" stroke="midnightblue" d="M2403.83,-64.76C2619.17,-63.62 3227.24,-57.09 3731.5,-20 3734.49,-19.78 3737.54,-19.53 3740.63,-19.26"/>
<polygon fill="midnightblue" stroke="midnightblue" points="2403.55,-61.26 2393.56,-64.81 2403.58,-68.26 2403.55,-61.26"/>
</g>
<!-- Node25 -->
<g id="node25" class="node">
<title>Node25</title>
<g id="a_node25"><a xlink:href="_fbc_v2_to_v1_converter_8cpp.html" target="_top" xlink:title="Implementation of a fbc v2 to fbc v1 converter.">
<polygon fill="white" stroke="black" points="3896,-0.5 3896,-19.5 4033,-19.5 4033,-0.5 3896,-0.5"/>
<text text-anchor="middle" x="3964.5" y="-7.5" font-family="Helvetica,sans-Serif" font-size="10.00">FbcV2ToV1Converter.cpp</text>
</a>
</g>
</g>
<!-- Node1&#45;&gt;Node25 -->
<g id="edge24" class="edge">
<title>Node1&#45;&gt;Node25</title>
<path fill="none" stroke="midnightblue" d="M2404.1,-65.17C2635.29,-65.12 3320.5,-61.21 3887.5,-20 3890.18,-19.8 3892.92,-19.59 3895.68,-19.35"/>
<polygon fill="midnightblue" stroke="midnightblue" points="2403.76,-61.67 2393.76,-65.17 2403.76,-68.67 2403.76,-61.67"/>
</g>
<!-- Node26 -->
<g id="node26" class="node">
<title>Node26</title>
<g id="a_node26"><a xlink:href="_render_extension_8cpp.html" target="_top" xlink:title="Implementation of RenderExtension, the core module of the render package.">
<polygon fill="white" stroke="black" points="4051,-0.5 4051,-19.5 4170,-19.5 4170,-0.5 4051,-0.5"/>
<text text-anchor="middle" x="4110.5" y="-7.5" font-family="Helvetica,sans-Serif" font-size="10.00">RenderExtension.cpp</text>
</a>
</g>
</g>
<!-- Node1&#45;&gt;Node26 -->
<g id="edge25" class="edge">
<title>Node1&#45;&gt;Node26</title>
<path fill="none" stroke="midnightblue" d="M2403.78,-64.02C2698.12,-60.27 3717.86,-45.66 4042.5,-20 4045.23,-19.78 4048.02,-19.53 4050.83,-19.26"/>
<polygon fill="midnightblue" stroke="midnightblue" points="2403.57,-60.53 2393.62,-64.15 2403.66,-67.52 2403.57,-60.53"/>
</g>
<!-- Node27 -->
<g id="node27" class="node">
<title>Node27</title>
<g id="a_node27"><a xlink:href="_render_layout_converter_8cpp.html" target="_top" xlink:title="Simple converter to convert Layout + Render from l2 to L3 and vice versa.">
<polygon fill="white" stroke="black" points="4188.5,-0.5 4188.5,-19.5 4340.5,-19.5 4340.5,-0.5 4188.5,-0.5"/>
<text text-anchor="middle" x="4264.5" y="-7.5" font-family="Helvetica,sans-Serif" font-size="10.00">RenderLayoutConverter.cpp</text>
</a>
</g>
</g>
<!-- Node1&#45;&gt;Node27 -->
<g id="edge26" class="edge">
<title>Node1&#45;&gt;Node27</title>
<path fill="none" stroke="midnightblue" d="M2403.56,-65.38C2661.38,-66.11 3493.13,-64.58 4179.5,-20 4182.31,-19.82 4185.18,-19.61 4188.07,-19.39"/>
<polygon fill="midnightblue" stroke="midnightblue" points="2403.55,-61.88 2393.54,-65.35 2403.53,-68.88 2403.55,-61.88"/>
</g>
</g>
</svg>
        <g id="navigator" transform="translate(0 0)" fill="#404254">
                <rect fill="#f2f5e9" fill-opacity="0.5" stroke="#606060" stroke-width=".5" x="0" y="0" width="60" height="60"/>
                <use id="zoomplus" xlink:href="#zoomPlus" x="17" y="9" onmousedown="handleZoom(evt,'in')"/>
                <use id="zoomminus" xlink:href="#zoomMin" x="42" y="9" onmousedown="handleZoom(evt,'out')"/>
                <use id="reset" xlink:href="#resetDef" x="30" y="36" onmousedown="handleReset()"/>
                <g id="arrowUp" xlink:href="#dirArrow" transform="translate(30 24)" onmousedown="handlePan(0,-1)">
                  <use xlink:href="#rim" fill="#404040">
                        <set attributeName="fill" to="#808080" begin="arrowUp.mouseover" end="arrowUp.mouseout"/>
                  </use>
                  <path fill="none" stroke="white" stroke-width="1.5" d="M0,-3.0v7 M-2.5,-0.5L0,-3.0L2.5,-0.5"/>
                </g>
                <g id="arrowRight" xlink:href="#dirArrow" transform="rotate(90) translate(36 -43)" onmousedown="handlePan(1,0)">
                  <use xlink:href="#rim" fill="#404040">
                        <set attributeName="fill" to="#808080" begin="arrowRight.mouseover" end="arrowRight.mouseout"/>
                  </use>
                  <path fill="none" stroke="white" stroke-width="1.5" d="M0,-3.0v7 M-2.5,-0.5L0,-3.0L2.5,-0.5"/>
                </g>
                <g id="arrowDown" xlink:href="#dirArrow" transform="rotate(180) translate(-30 -48)" onmousedown="handlePan(0,1)">
                  <use xlink:href="#rim" fill="#404040">
                        <set attributeName="fill" to="#808080" begin="arrowDown.mouseover" end="arrowDown.mouseout"/>
                  </use>
                  <path fill="none" stroke="white" stroke-width="1.5" d="M0,-3.0v7 M-2.5,-0.5L0,-3.0L2.5,-0.5"/>
                </g>
                <g id="arrowLeft" xlink:href="#dirArrow" transform="rotate(270) translate(-36 17)" onmousedown="handlePan(-1,0)">
                  <use xlink:href="#rim" fill="#404040">
                        <set attributeName="fill" to="#808080" begin="arrowLeft.mouseover" end="arrowLeft.mouseout"/>
                  </use>
                  <path fill="none" stroke="white" stroke-width="1.5" d="M0,-3.0v7 M-2.5,-0.5L0,-3.0L2.5,-0.5"/>
                </g>
        </g>
        <svg viewBox="0 0 15 15" width="100%" height="30px" preserveAspectRatio="xMaxYMin meet">
         <g id="arrow_out" transform="scale(0.3 0.3)">
          <a xlink:href="_s_b_m_l_converter_registry_8h__dep__incl_org.svg" target="_base">
           <rect id="button" ry="5" rx="5" y="6" x="6" height="38" width="38"
                fill="#f2f5e9" fill-opacity="0.5" stroke="#606060" stroke-width="1.0"/>
           <path id="arrow"
             d="M 11.500037,31.436501 C 11.940474,20.09759 22.043105,11.32322 32.158766,21.979434 L 37.068811,17.246167 C 37.068811,17.246167 37.088388,32 37.088388,32 L 22.160133,31.978069 C 22.160133,31.978069 26.997745,27.140456 26.997745,27.140456 C 18.528582,18.264221 13.291696,25.230495 11.500037,31.436501 z"
             style="fill:#404040;"/>
          </a>
         </g>
        </svg>
</svg>
