<?xml version="1.0" encoding="UTF-8" standalone="no"?>
<!DOCTYPE svg PUBLIC "-//W3C//DTD SVG 1.1//EN"
 "http://www.w3.org/Graphics/SVG/1.1/DTD/svg11.dtd">
<!-- Generated by graphviz version 2.43.0 (0)
 -->
<!-- Title: SBMLConstructorException.cpp Pages: 1 -->
<svg width="1155pt" height="509pt"
 viewBox="0.00 0.00 1155.00 509.00" xmlns="http://www.w3.org/2000/svg" xmlns:xlink="http://www.w3.org/1999/xlink">
<g id="graph0" class="graph" transform="scale(1 1) rotate(0) translate(4 505)">
<title>SBMLConstructorException.cpp</title>
<polygon fill="white" stroke="transparent" points="-4,4 -4,-505 1151,-505 1151,4 -4,4"/>
<!-- Node1 -->
<g id="node1" class="node">
<title>Node1</title>
<g id="a_node1"><a xlink:title="Implementation of SBMLConstructorException, the exception class for constructor exceptions.">
<polygon fill="#bfbfbf" stroke="black" points="689,-481.5 689,-500.5 857,-500.5 857,-481.5 689,-481.5"/>
<text text-anchor="middle" x="773" y="-488.5" font-family="Helvetica,sans-Serif" font-size="10.00">SBMLConstructorException.cpp</text>
</a>
</g>
</g>
<!-- Node2 -->
<g id="node2" class="node">
<title>Node2</title>
<g id="a_node2"><a xlink:href="_s_b_m_l_constructor_exception_8h.html" target="_top" xlink:title="Definition of SBMLConstructorException, the exception class for constructor exceptions.">
<polygon fill="white" stroke="black" points="841,-425.5 841,-444.5 1025,-444.5 1025,-425.5 841,-425.5"/>
<text text-anchor="middle" x="933" y="-432.5" font-family="Helvetica,sans-Serif" font-size="10.00">sbml/SBMLConstructorException.h</text>
</a>
</g>
</g>
<!-- Node1&#45;&gt;Node2 -->
<g id="edge1" class="edge">
<title>Node1&#45;&gt;Node2</title>
<path fill="none" stroke="midnightblue" d="M798.35,-481.44C825.27,-472.36 868,-457.94 898.09,-447.78"/>
<polygon fill="midnightblue" stroke="midnightblue" points="899.41,-451.03 907.77,-444.52 897.17,-444.4 899.41,-451.03"/>
</g>
<!-- Node5 -->
<g id="node5" class="node">
<title>Node5</title>
<g id="a_node5"><a xlink:href="_s_b_m_l_namespaces_8h.html" target="_top" xlink:title="SBMLNamespaces class to store level/version and namespace.">
<polygon fill="white" stroke="black" points="761.5,-369.5 761.5,-388.5 904.5,-388.5 904.5,-369.5 761.5,-369.5"/>
<text text-anchor="middle" x="833" y="-376.5" font-family="Helvetica,sans-Serif" font-size="10.00">sbml/SBMLNamespaces.h</text>
</a>
</g>
</g>
<!-- Node1&#45;&gt;Node5 -->
<g id="edge33" class="edge">
<title>Node1&#45;&gt;Node5</title>
<path fill="none" stroke="midnightblue" d="M777.71,-481.37C787.52,-463.38 810.34,-421.55 823.39,-397.63"/>
<polygon fill="midnightblue" stroke="midnightblue" points="826.6,-399.05 828.31,-388.59 820.45,-395.69 826.6,-399.05"/>
</g>
<!-- Node6 -->
<g id="node6" class="node">
<title>Node6</title>
<g id="a_node6"><a xlink:href="_x_m_l_namespaces_8h.html" target="_top" xlink:title="A list of XMLNamespace declarations (URI/prefix pairs)">
<polygon fill="white" stroke="black" points="547,-313.5 547,-332.5 705,-332.5 705,-313.5 547,-313.5"/>
<text text-anchor="middle" x="626" y="-320.5" font-family="Helvetica,sans-Serif" font-size="10.00">sbml/xml/XMLNamespaces.h</text>
</a>
</g>
</g>
<!-- Node1&#45;&gt;Node6 -->
<g id="edge34" class="edge">
<title>Node1&#45;&gt;Node6</title>
<path fill="none" stroke="midnightblue" d="M761.19,-481.38C749.8,-472.78 732.36,-458.9 719,-445 686.26,-410.94 654,-365.62 637.45,-341.25"/>
<polygon fill="midnightblue" stroke="midnightblue" points="640.2,-339.08 631.72,-332.73 634.39,-342.98 640.2,-339.08"/>
</g>
<!-- Node13 -->
<g id="node13" class="node">
<title>Node13</title>
<g id="a_node13"><a xlink:title=" ">
<polygon fill="white" stroke="#bfbfbf" points="716,-257.5 716,-276.5 760,-276.5 760,-257.5 716,-257.5"/>
<text text-anchor="middle" x="738" y="-264.5" font-family="Helvetica,sans-Serif" font-size="10.00">string</text>
</a>
</g>
</g>
<!-- Node1&#45;&gt;Node13 -->
<g id="edge44" class="edge">
<title>Node1&#45;&gt;Node13</title>
<path fill="none" stroke="midnightblue" d="M771.08,-481.39C767.24,-464 758.53,-423.41 753,-389 747.2,-352.9 742.4,-310.43 739.89,-286.62"/>
<polygon fill="midnightblue" stroke="midnightblue" points="743.35,-286.13 738.84,-276.54 736.39,-286.85 743.35,-286.13"/>
</g>
<!-- Node22 -->
<g id="node22" class="node">
<title>Node22</title>
<g id="a_node22"><a xlink:href="_x_m_l_output_stream_8h.html" target="_top" xlink:title="XMLOutputStream.">
<polygon fill="white" stroke="black" points="198,-313.5 198,-332.5 362,-332.5 362,-313.5 198,-313.5"/>
<text text-anchor="middle" x="280" y="-320.5" font-family="Helvetica,sans-Serif" font-size="10.00">sbml/xml/XMLOutputStream.h</text>
</a>
</g>
</g>
<!-- Node1&#45;&gt;Node22 -->
<g id="edge35" class="edge">
<title>Node1&#45;&gt;Node22</title>
<path fill="none" stroke="midnightblue" d="M747.53,-481.42C665.63,-453.85 408.91,-367.41 314.93,-335.76"/>
<polygon fill="midnightblue" stroke="midnightblue" points="315.91,-332.4 305.32,-332.52 313.68,-339.03 315.91,-332.4"/>
</g>
<!-- Node27 -->
<g id="node27" class="node">
<title>Node27</title>
<g id="a_node27"><a xlink:title=" ">
<polygon fill="white" stroke="#bfbfbf" points="1043,-425.5 1043,-444.5 1099,-444.5 1099,-425.5 1043,-425.5"/>
<text text-anchor="middle" x="1071" y="-432.5" font-family="Helvetica,sans-Serif" font-size="10.00">sstream</text>
</a>
</g>
</g>
<!-- Node1&#45;&gt;Node27 -->
<g id="edge45" class="edge">
<title>Node1&#45;&gt;Node27</title>
<path fill="none" stroke="midnightblue" d="M828.96,-481.48C879.67,-473.5 956.69,-460.76 1032.55,-445.19"/>
<polygon fill="midnightblue" stroke="midnightblue" points="1033.68,-448.53 1042.76,-443.08 1032.26,-441.68 1033.68,-448.53"/>
</g>
<!-- Node3 -->
<g id="node3" class="node">
<title>Node3</title>
<g id="a_node3"><a xlink:href="extern_8h.html" target="_top" xlink:title="Definitions of LIBSBML_EXTERN and related things.">
<polygon fill="white" stroke="black" points="623,-67.5 623,-86.5 753,-86.5 753,-67.5 623,-67.5"/>
<text text-anchor="middle" x="688" y="-74.5" font-family="Helvetica,sans-Serif" font-size="10.00">sbml/common/extern.h</text>
</a>
</g>
</g>
<!-- Node2&#45;&gt;Node3 -->
<g id="edge2" class="edge">
<title>Node2&#45;&gt;Node3</title>
<path fill="none" stroke="midnightblue" d="M955.95,-425.48C991.29,-410.71 1055,-376.76 1055,-324 1055,-324 1055,-324 1055,-204.5 1055,-143.05 868.76,-104.95 761.62,-88.12"/>
<polygon fill="midnightblue" stroke="midnightblue" points="761.92,-84.63 751.51,-86.56 760.86,-91.55 761.92,-84.63"/>
</g>
<!-- Node2&#45;&gt;Node5 -->
<g id="edge4" class="edge">
<title>Node2&#45;&gt;Node5</title>
<path fill="none" stroke="midnightblue" d="M916.93,-425.32C901.04,-416.74 876.49,-403.49 858.04,-393.52"/>
<polygon fill="midnightblue" stroke="midnightblue" points="859.49,-390.33 849.03,-388.65 856.16,-396.49 859.49,-390.33"/>
</g>
<!-- Node2&#45;&gt;Node13 -->
<g id="edge30" class="edge">
<title>Node2&#45;&gt;Node13</title>
<path fill="none" stroke="midnightblue" d="M937.99,-425.19C949.58,-403.41 975.34,-346.42 948,-313 898.89,-252.97 852.25,-292.56 770.47,-276.72"/>
<polygon fill="midnightblue" stroke="midnightblue" points="770.84,-273.22 760.32,-274.51 769.35,-280.06 770.84,-273.22"/>
</g>
<!-- Node20 -->
<g id="node20" class="node">
<title>Node20</title>
<g id="a_node20"><a xlink:title=" ">
<polygon fill="white" stroke="#bfbfbf" points="873.5,-313.5 873.5,-332.5 938.5,-332.5 938.5,-313.5 873.5,-313.5"/>
<text text-anchor="middle" x="906" y="-320.5" font-family="Helvetica,sans-Serif" font-size="10.00">stdexcept</text>
</a>
</g>
</g>
<!-- Node2&#45;&gt;Node20 -->
<g id="edge31" class="edge">
<title>Node2&#45;&gt;Node20</title>
<path fill="none" stroke="midnightblue" d="M930.88,-425.37C926.52,-407.62 916.47,-366.67 910.56,-342.6"/>
<polygon fill="midnightblue" stroke="midnightblue" points="913.89,-341.47 908.11,-332.59 907.09,-343.14 913.89,-341.47"/>
</g>
<!-- Node21 -->
<g id="node21" class="node">
<title>Node21</title>
<g id="a_node21"><a xlink:title=" ">
<polygon fill="white" stroke="#bfbfbf" points="1083,-369.5 1083,-388.5 1147,-388.5 1147,-369.5 1083,-369.5"/>
<text text-anchor="middle" x="1115" y="-376.5" font-family="Helvetica,sans-Serif" font-size="10.00">algorithm</text>
</a>
</g>
</g>
<!-- Node2&#45;&gt;Node21 -->
<g id="edge32" class="edge">
<title>Node2&#45;&gt;Node21</title>
<path fill="none" stroke="midnightblue" d="M961.84,-425.44C992.86,-416.24 1042.33,-401.56 1076.62,-391.39"/>
<polygon fill="midnightblue" stroke="midnightblue" points="1077.71,-394.72 1086.3,-388.52 1075.71,-388.01 1077.71,-394.72"/>
</g>
<!-- Node4 -->
<g id="node4" class="node">
<title>Node4</title>
<g id="a_node4"><a xlink:title=" ">
<polygon fill="white" stroke="#bfbfbf" points="333.5,-0.5 333.5,-30.5 458.5,-30.5 458.5,-0.5 333.5,-0.5"/>
<text text-anchor="start" x="341.5" y="-18.5" font-family="Helvetica,sans-Serif" font-size="10.00">sbml/common/libsbml</text>
<text text-anchor="middle" x="396" y="-7.5" font-family="Helvetica,sans-Serif" font-size="10.00">&#45;namespace.h</text>
</a>
</g>
</g>
<!-- Node3&#45;&gt;Node4 -->
<g id="edge3" class="edge">
<title>Node3&#45;&gt;Node4</title>
<path fill="none" stroke="midnightblue" d="M646.16,-67.48C599.9,-58.05 524.51,-42.69 468.57,-31.29"/>
<polygon fill="midnightblue" stroke="midnightblue" points="469.21,-27.85 458.72,-29.28 467.82,-34.71 469.21,-27.85"/>
</g>
<!-- Node5&#45;&gt;Node6 -->
<g id="edge5" class="edge">
<title>Node5&#45;&gt;Node6</title>
<path fill="none" stroke="midnightblue" d="M800.2,-369.44C764.62,-360.16 707.69,-345.31 668.65,-335.13"/>
<polygon fill="midnightblue" stroke="midnightblue" points="669.21,-331.65 658.65,-332.52 667.44,-338.43 669.21,-331.65"/>
</g>
<!-- Node5&#45;&gt;Node13 -->
<g id="edge28" class="edge">
<title>Node5&#45;&gt;Node13</title>
<path fill="none" stroke="midnightblue" d="M825.55,-369.37C809.73,-351.05 772.59,-308.05 752.13,-284.36"/>
<polygon fill="midnightblue" stroke="midnightblue" points="754.6,-281.87 745.42,-276.59 749.31,-286.45 754.6,-281.87"/>
</g>
<!-- Node15 -->
<g id="node15" class="node">
<title>Node15</title>
<g id="a_node15"><a xlink:href="common_8h.html" target="_top" xlink:title="Common functions and macros for C and C++.">
<polygon fill="white" stroke="black" points="778.5,-257.5 778.5,-276.5 919.5,-276.5 919.5,-257.5 778.5,-257.5"/>
<text text-anchor="middle" x="849" y="-264.5" font-family="Helvetica,sans-Serif" font-size="10.00">sbml/common/common.h</text>
</a>
</g>
</g>
<!-- Node5&#45;&gt;Node15 -->
<g id="edge19" class="edge">
<title>Node5&#45;&gt;Node15</title>
<path fill="none" stroke="midnightblue" d="M834.26,-369.37C836.84,-351.62 842.79,-310.67 846.29,-286.6"/>
<polygon fill="midnightblue" stroke="midnightblue" points="849.77,-286.99 847.75,-276.59 842.85,-285.98 849.77,-286.99"/>
</g>
<!-- Node5&#45;&gt;Node20 -->
<g id="edge29" class="edge">
<title>Node5&#45;&gt;Node20</title>
<path fill="none" stroke="midnightblue" d="M844.73,-369.32C855.84,-361.11 872.74,-348.6 885.98,-338.81"/>
<polygon fill="midnightblue" stroke="midnightblue" points="888.1,-341.59 894.06,-332.83 883.94,-335.97 888.1,-341.59"/>
</g>
<!-- Node7 -->
<g id="node7" class="node">
<title>Node7</title>
<g id="a_node7"><a xlink:href="_x_m_l_extern_8h.html" target="_top" xlink:title="Defines LIBLAX_EXTERN.">
<polygon fill="white" stroke="black" points="308.5,-257.5 308.5,-276.5 435.5,-276.5 435.5,-257.5 308.5,-257.5"/>
<text text-anchor="middle" x="372" y="-264.5" font-family="Helvetica,sans-Serif" font-size="10.00">sbml/xml/XMLExtern.h</text>
</a>
</g>
</g>
<!-- Node6&#45;&gt;Node7 -->
<g id="edge6" class="edge">
<title>Node6&#45;&gt;Node7</title>
<path fill="none" stroke="midnightblue" d="M585.75,-313.44C541.35,-304 469.85,-288.8 421.91,-278.61"/>
<polygon fill="midnightblue" stroke="midnightblue" points="422.57,-275.17 412.06,-276.52 421.11,-282.02 422.57,-275.17"/>
</g>
<!-- Node8 -->
<g id="node8" class="node">
<title>Node8</title>
<g id="a_node8"><a xlink:href="sbmlfwd_8h.html" target="_top" xlink:title="Forward declarations for all opaque C types.">
<polygon fill="white" stroke="black" points="454,-257.5 454,-276.5 594,-276.5 594,-257.5 454,-257.5"/>
<text text-anchor="middle" x="524" y="-264.5" font-family="Helvetica,sans-Serif" font-size="10.00">sbml/common/sbmlfwd.h</text>
</a>
</g>
</g>
<!-- Node6&#45;&gt;Node8 -->
<g id="edge8" class="edge">
<title>Node6&#45;&gt;Node8</title>
<path fill="none" stroke="midnightblue" d="M609.61,-313.32C593.33,-304.7 568.13,-291.36 549.28,-281.39"/>
<polygon fill="midnightblue" stroke="midnightblue" points="550.82,-278.24 540.35,-276.65 547.55,-284.43 550.82,-278.24"/>
</g>
<!-- Node12 -->
<g id="node12" class="node">
<title>Node12</title>
<g id="a_node12"><a xlink:href="operation_return_values_8h.html" target="_top" xlink:title="Enumeration of values returned by operations within libSBML.">
<polygon fill="white" stroke="black" points="547,-190.5 547,-220.5 715,-220.5 715,-190.5 547,-190.5"/>
<text text-anchor="start" x="555" y="-208.5" font-family="Helvetica,sans-Serif" font-size="10.00">sbml/common/operationReturn</text>
<text text-anchor="middle" x="631" y="-197.5" font-family="Helvetica,sans-Serif" font-size="10.00">Values.h</text>
</a>
</g>
</g>
<!-- Node6&#45;&gt;Node12 -->
<g id="edge15" class="edge">
<title>Node6&#45;&gt;Node12</title>
<path fill="none" stroke="midnightblue" d="M626.38,-313.32C627.13,-295.97 628.84,-256.46 629.95,-230.66"/>
<polygon fill="midnightblue" stroke="midnightblue" points="633.46,-230.69 630.39,-220.55 626.46,-230.38 633.46,-230.69"/>
</g>
<!-- Node6&#45;&gt;Node13 -->
<g id="edge17" class="edge">
<title>Node6&#45;&gt;Node13</title>
<path fill="none" stroke="midnightblue" d="M643.99,-313.32C662.04,-304.62 690.05,-291.12 710.8,-281.11"/>
<polygon fill="midnightblue" stroke="midnightblue" points="712.56,-284.15 720.05,-276.65 709.52,-277.84 712.56,-284.15"/>
</g>
<!-- Node14 -->
<g id="node14" class="node">
<title>Node14</title>
<g id="a_node14"><a xlink:title=" ">
<polygon fill="white" stroke="#bfbfbf" points="650.5,-257.5 650.5,-276.5 697.5,-276.5 697.5,-257.5 650.5,-257.5"/>
<text text-anchor="middle" x="674" y="-264.5" font-family="Helvetica,sans-Serif" font-size="10.00">vector</text>
</a>
</g>
</g>
<!-- Node6&#45;&gt;Node14 -->
<g id="edge18" class="edge">
<title>Node6&#45;&gt;Node14</title>
<path fill="none" stroke="midnightblue" d="M633.93,-313.08C640.85,-305.3 651.07,-293.8 659.45,-284.37"/>
<polygon fill="midnightblue" stroke="midnightblue" points="662.19,-286.55 666.22,-276.75 656.96,-281.9 662.19,-286.55"/>
</g>
<!-- Node7&#45;&gt;Node4 -->
<g id="edge7" class="edge">
<title>Node7&#45;&gt;Node4</title>
<path fill="none" stroke="midnightblue" d="M350.84,-257.43C335.42,-250.07 315.32,-237.95 304,-221 265.85,-163.88 254.44,-125.15 291,-67 300,-52.68 314.33,-42.32 329.55,-34.87"/>
<polygon fill="midnightblue" stroke="midnightblue" points="331.4,-37.88 339.09,-30.6 328.54,-31.49 331.4,-37.88"/>
</g>
<!-- Node8&#45;&gt;Node4 -->
<g id="edge9" class="edge">
<title>Node8&#45;&gt;Node4</title>
<path fill="none" stroke="midnightblue" d="M479.56,-257.42C429.12,-244.85 350.42,-215.85 324,-154 305.81,-111.42 344.49,-64.05 371.88,-37.5"/>
<polygon fill="midnightblue" stroke="midnightblue" points="374.35,-39.98 379.25,-30.59 369.56,-34.88 374.35,-39.98"/>
</g>
<!-- Node9 -->
<g id="node9" class="node">
<title>Node9</title>
<g id="a_node9"><a xlink:href="libsbml-config_8h.html" target="_top" xlink:title="Decides whether to #include Unix or Windows configuration variables.">
<polygon fill="white" stroke="black" points="403.5,-190.5 403.5,-220.5 528.5,-220.5 528.5,-190.5 403.5,-190.5"/>
<text text-anchor="start" x="411.5" y="-208.5" font-family="Helvetica,sans-Serif" font-size="10.00">sbml/common/libsbml</text>
<text text-anchor="middle" x="466" y="-197.5" font-family="Helvetica,sans-Serif" font-size="10.00">&#45;config.h</text>
</a>
</g>
</g>
<!-- Node8&#45;&gt;Node9 -->
<g id="edge10" class="edge">
<title>Node8&#45;&gt;Node9</title>
<path fill="none" stroke="midnightblue" d="M515.69,-257.48C508.2,-249.79 496.87,-238.17 486.92,-227.96"/>
<polygon fill="midnightblue" stroke="midnightblue" points="489.16,-225.24 479.67,-220.52 484.14,-230.13 489.16,-225.24"/>
</g>
<!-- Node9&#45;&gt;Node4 -->
<g id="edge11" class="edge">
<title>Node9&#45;&gt;Node4</title>
<path fill="none" stroke="midnightblue" d="M468.72,-190.3C471.31,-173.74 473.89,-145.75 467,-123 457.1,-90.29 433.46,-58.44 416.17,-38.23"/>
<polygon fill="midnightblue" stroke="midnightblue" points="418.67,-35.76 409.44,-30.56 413.41,-40.38 418.67,-35.76"/>
</g>
<!-- Node10 -->
<g id="node10" class="node">
<title>Node10</title>
<g id="a_node10"><a xlink:title=" ">
<polygon fill="white" stroke="#bfbfbf" points="515.5,-123.5 515.5,-153.5 640.5,-153.5 640.5,-123.5 515.5,-123.5"/>
<text text-anchor="start" x="523.5" y="-141.5" font-family="Helvetica,sans-Serif" font-size="10.00">sbml/common/libsbml</text>
<text text-anchor="middle" x="578" y="-130.5" font-family="Helvetica,sans-Serif" font-size="10.00">&#45;config&#45;common.h</text>
</a>
</g>
</g>
<!-- Node9&#45;&gt;Node10 -->
<g id="edge12" class="edge">
<title>Node9&#45;&gt;Node10</title>
<path fill="none" stroke="midnightblue" d="M490.3,-190.4C506.3,-181.11 527.44,-168.84 544.96,-158.67"/>
<polygon fill="midnightblue" stroke="midnightblue" points="546.85,-161.62 553.75,-153.58 543.34,-155.57 546.85,-161.62"/>
</g>
<!-- Node11 -->
<g id="node11" class="node">
<title>Node11</title>
<g id="a_node11"><a xlink:href="libsbml-version_8h.html" target="_top" xlink:title="Define libSBML version numbers for access from client software.">
<polygon fill="white" stroke="black" points="333.5,-123.5 333.5,-153.5 458.5,-153.5 458.5,-123.5 333.5,-123.5"/>
<text text-anchor="start" x="341.5" y="-141.5" font-family="Helvetica,sans-Serif" font-size="10.00">sbml/common/libsbml</text>
<text text-anchor="middle" x="396" y="-130.5" font-family="Helvetica,sans-Serif" font-size="10.00">&#45;version.h</text>
</a>
</g>
</g>
<!-- Node9&#45;&gt;Node11 -->
<g id="edge13" class="edge">
<title>Node9&#45;&gt;Node11</title>
<path fill="none" stroke="midnightblue" d="M450.81,-190.4C441.45,-181.71 429.28,-170.4 418.79,-160.66"/>
<polygon fill="midnightblue" stroke="midnightblue" points="420.87,-157.82 411.16,-153.58 416.11,-162.95 420.87,-157.82"/>
</g>
<!-- Node11&#45;&gt;Node3 -->
<g id="edge14" class="edge">
<title>Node11&#45;&gt;Node3</title>
<path fill="none" stroke="midnightblue" d="M458.64,-124.74C511.63,-113.94 586.65,-98.65 636.28,-88.54"/>
<polygon fill="midnightblue" stroke="midnightblue" points="637.06,-91.95 646.16,-86.53 635.66,-85.09 637.06,-91.95"/>
</g>
<!-- Node12&#45;&gt;Node3 -->
<g id="edge16" class="edge">
<title>Node12&#45;&gt;Node3</title>
<path fill="none" stroke="midnightblue" d="M637.32,-190.48C647.71,-167.41 668.41,-121.48 679.88,-96.03"/>
<polygon fill="midnightblue" stroke="midnightblue" points="683.12,-97.34 684.04,-86.79 676.74,-94.47 683.12,-97.34"/>
</g>
<!-- Node15&#45;&gt;Node3 -->
<g id="edge22" class="edge">
<title>Node15&#45;&gt;Node3</title>
<path fill="none" stroke="midnightblue" d="M853.94,-257.48C867.16,-233.46 900.21,-164.26 868,-123 854.76,-106.04 806.32,-94.53 763.02,-87.39"/>
<polygon fill="midnightblue" stroke="midnightblue" points="763.44,-83.92 753.02,-85.81 762.34,-90.83 763.44,-83.92"/>
</g>
<!-- Node15&#45;&gt;Node9 -->
<g id="edge20" class="edge">
<title>Node15&#45;&gt;Node9</title>
<path fill="none" stroke="midnightblue" d="M782.7,-257.48C721.84,-249.42 628.94,-236.5 538.65,-221.05"/>
<polygon fill="midnightblue" stroke="midnightblue" points="539.24,-217.6 528.79,-219.36 538.05,-224.5 539.24,-217.6"/>
</g>
<!-- Node16 -->
<g id="node16" class="node">
<title>Node16</title>
<g id="a_node16"><a xlink:title=" ">
<polygon fill="white" stroke="#bfbfbf" points="809,-129 809,-148 859,-148 859,-129 809,-129"/>
<text text-anchor="middle" x="834" y="-136" font-family="Helvetica,sans-Serif" font-size="10.00">stdio.h</text>
</a>
</g>
</g>
<!-- Node15&#45;&gt;Node16 -->
<g id="edge21" class="edge">
<title>Node15&#45;&gt;Node16</title>
<path fill="none" stroke="midnightblue" d="M847.97,-257.31C845.56,-236.99 839.52,-186.05 836.23,-158.28"/>
<polygon fill="midnightblue" stroke="midnightblue" points="839.69,-157.77 835.04,-148.26 832.74,-158.6 839.69,-157.77"/>
</g>
<!-- Node17 -->
<g id="node17" class="node">
<title>Node17</title>
<g id="a_node17"><a xlink:href="memory_8h.html" target="_top" xlink:title=" ">
<polygon fill="white" stroke="black" points="915.5,-196 915.5,-215 1026.5,-215 1026.5,-196 915.5,-196"/>
<text text-anchor="middle" x="971" y="-203" font-family="Helvetica,sans-Serif" font-size="10.00">sbml/util/memory.h</text>
</a>
</g>
</g>
<!-- Node15&#45;&gt;Node17 -->
<g id="edge23" class="edge">
<title>Node15&#45;&gt;Node17</title>
<path fill="none" stroke="midnightblue" d="M866.48,-257.48C886.86,-247.53 920.78,-230.99 944.42,-219.46"/>
<polygon fill="midnightblue" stroke="midnightblue" points="946.1,-222.54 953.55,-215.01 943.03,-216.25 946.1,-222.54"/>
</g>
<!-- Node18 -->
<g id="node18" class="node">
<title>Node18</title>
<g id="a_node18"><a xlink:href="util_8h.html" target="_top" xlink:title="Utility functions.">
<polygon fill="white" stroke="black" points="733.5,-196 733.5,-215 820.5,-215 820.5,-196 733.5,-196"/>
<text text-anchor="middle" x="777" y="-203" font-family="Helvetica,sans-Serif" font-size="10.00">sbml/util/util.h</text>
</a>
</g>
</g>
<!-- Node15&#45;&gt;Node18 -->
<g id="edge24" class="edge">
<title>Node15&#45;&gt;Node18</title>
<path fill="none" stroke="midnightblue" d="M838.68,-257.48C827.35,-248.11 808.93,-232.88 795.16,-221.51"/>
<polygon fill="midnightblue" stroke="midnightblue" points="797.23,-218.68 787.3,-215.01 792.78,-224.08 797.23,-218.68"/>
</g>
<!-- Node18&#45;&gt;Node3 -->
<g id="edge27" class="edge">
<title>Node18&#45;&gt;Node3</title>
<path fill="none" stroke="midnightblue" d="M766.21,-195.69C755.12,-186.23 737.84,-170.35 726,-154 712.79,-135.77 701.83,-112.28 695.13,-96.27"/>
<polygon fill="midnightblue" stroke="midnightblue" points="698.36,-94.91 691.36,-86.96 691.87,-97.54 698.36,-94.91"/>
</g>
<!-- Node18&#45;&gt;Node16 -->
<g id="edge25" class="edge">
<title>Node18&#45;&gt;Node16</title>
<path fill="none" stroke="midnightblue" d="M784.69,-195.73C793.66,-185.5 808.69,-168.36 819.8,-155.69"/>
<polygon fill="midnightblue" stroke="midnightblue" points="822.47,-157.95 826.43,-148.13 817.21,-153.34 822.47,-157.95"/>
</g>
<!-- Node19 -->
<g id="node19" class="node">
<title>Node19</title>
<g id="a_node19"><a xlink:title=" ">
<polygon fill="white" stroke="#bfbfbf" points="735,-129 735,-148 791,-148 791,-129 735,-129"/>
<text text-anchor="middle" x="763" y="-136" font-family="Helvetica,sans-Serif" font-size="10.00">stdarg.h</text>
</a>
</g>
</g>
<!-- Node18&#45;&gt;Node19 -->
<g id="edge26" class="edge">
<title>Node18&#45;&gt;Node19</title>
<path fill="none" stroke="midnightblue" d="M775.11,-195.73C773.03,-186.09 769.63,-170.3 766.96,-157.91"/>
<polygon fill="midnightblue" stroke="midnightblue" points="770.39,-157.17 764.86,-148.13 763.54,-158.64 770.39,-157.17"/>
</g>
<!-- Node22&#45;&gt;Node7 -->
<g id="edge43" class="edge">
<title>Node22&#45;&gt;Node7</title>
<path fill="none" stroke="midnightblue" d="M294.78,-313.32C309.27,-304.82 331.57,-291.73 348.49,-281.8"/>
<polygon fill="midnightblue" stroke="midnightblue" points="350.4,-284.74 357.26,-276.65 346.86,-278.7 350.4,-284.74"/>
</g>
<!-- Node22&#45;&gt;Node8 -->
<g id="edge36" class="edge">
<title>Node22&#45;&gt;Node8</title>
<path fill="none" stroke="midnightblue" d="M318.66,-313.44C361.14,-304.04 429.43,-288.93 475.47,-278.74"/>
<polygon fill="midnightblue" stroke="midnightblue" points="476.51,-282.09 485.52,-276.52 475,-275.26 476.51,-282.09"/>
</g>
<!-- Node22&#45;&gt;Node11 -->
<g id="edge42" class="edge">
<title>Node22&#45;&gt;Node11</title>
<path fill="none" stroke="midnightblue" d="M281.41,-313.16C283.72,-300.24 289.09,-275.7 299,-257 318.83,-219.57 351.8,-183 373.72,-160.85"/>
<polygon fill="midnightblue" stroke="midnightblue" points="376.35,-163.17 380.97,-153.64 371.41,-158.21 376.35,-163.17"/>
</g>
<!-- Node22&#45;&gt;Node13 -->
<g id="edge40" class="edge">
<title>Node22&#45;&gt;Node13</title>
<path fill="none" stroke="midnightblue" d="M362.1,-317.69C446.27,-312.28 580.99,-300.91 705.66,-276.94"/>
<polygon fill="midnightblue" stroke="midnightblue" points="706.62,-280.32 715.77,-274.97 705.28,-273.45 706.62,-280.32"/>
</g>
<!-- Node23 -->
<g id="node23" class="node">
<title>Node23</title>
<g id="a_node23"><a xlink:title=" ">
<polygon fill="white" stroke="#bfbfbf" points="0,-257.5 0,-276.5 60,-276.5 60,-257.5 0,-257.5"/>
<text text-anchor="middle" x="30" y="-264.5" font-family="Helvetica,sans-Serif" font-size="10.00">iostream</text>
</a>
</g>
</g>
<!-- Node22&#45;&gt;Node23 -->
<g id="edge37" class="edge">
<title>Node22&#45;&gt;Node23</title>
<path fill="none" stroke="midnightblue" d="M239.11,-313.49C198.65,-305.02 134.68,-291.51 70.16,-277.23"/>
<polygon fill="midnightblue" stroke="midnightblue" points="70.74,-273.78 60.22,-275.03 69.23,-280.61 70.74,-273.78"/>
</g>
<!-- Node24 -->
<g id="node24" class="node">
<title>Node24</title>
<g id="a_node24"><a xlink:title=" ">
<polygon fill="white" stroke="#bfbfbf" points="78,-257.5 78,-276.5 122,-276.5 122,-257.5 78,-257.5"/>
<text text-anchor="middle" x="100" y="-264.5" font-family="Helvetica,sans-Serif" font-size="10.00">limits</text>
</a>
</g>
</g>
<!-- Node22&#45;&gt;Node24 -->
<g id="edge38" class="edge">
<title>Node22&#45;&gt;Node24</title>
<path fill="none" stroke="midnightblue" d="M251.48,-313.44C218.96,-303.69 165.92,-287.78 132.01,-277.6"/>
<polygon fill="midnightblue" stroke="midnightblue" points="132.73,-274.17 122.15,-274.64 130.72,-280.87 132.73,-274.17"/>
</g>
<!-- Node25 -->
<g id="node25" class="node">
<title>Node25</title>
<g id="a_node25"><a xlink:title=" ">
<polygon fill="white" stroke="#bfbfbf" points="140,-257.5 140,-276.5 186,-276.5 186,-257.5 140,-257.5"/>
<text text-anchor="middle" x="163" y="-264.5" font-family="Helvetica,sans-Serif" font-size="10.00">locale</text>
</a>
</g>
</g>
<!-- Node22&#45;&gt;Node25 -->
<g id="edge39" class="edge">
<title>Node22&#45;&gt;Node25</title>
<path fill="none" stroke="midnightblue" d="M261.46,-313.44C242.38,-304.64 212.43,-290.81 190.56,-280.72"/>
<polygon fill="midnightblue" stroke="midnightblue" points="192,-277.53 181.45,-276.52 189.07,-283.88 192,-277.53"/>
</g>
<!-- Node26 -->
<g id="node26" class="node">
<title>Node26</title>
<g id="a_node26"><a xlink:title=" ">
<polygon fill="white" stroke="#bfbfbf" points="204,-257.5 204,-276.5 252,-276.5 252,-257.5 204,-257.5"/>
<text text-anchor="middle" x="228" y="-264.5" font-family="Helvetica,sans-Serif" font-size="10.00">time.h</text>
</a>
</g>
</g>
<!-- Node22&#45;&gt;Node26 -->
<g id="edge41" class="edge">
<title>Node22&#45;&gt;Node26</title>
<path fill="none" stroke="midnightblue" d="M271.41,-313.08C263.84,-305.22 252.62,-293.57 243.49,-284.08"/>
<polygon fill="midnightblue" stroke="midnightblue" points="245.88,-281.53 236.43,-276.75 240.84,-286.38 245.88,-281.53"/>
</g>
</g>
</svg>
