<?xml version="1.0" encoding="UTF-8" standalone="no"?>
<!DOCTYPE svg PUBLIC "-//W3C//DTD SVG 1.1//EN"
 "http://www.w3.org/Graphics/SVG/1.1/DTD/svg11.dtd">
<!-- Generated by graphviz version 2.43.0 (0)
 -->
<!-- Title: SBaseExtensionPoint.cpp Pages: 1 -->
<!--zoomable 408 -->
<svg id="main" version="1.1" xmlns="http://www.w3.org/2000/svg" xmlns:xlink="http://www.w3.org/1999/xlink" xml:space="preserve" onload="init(evt)">
<style type="text/css"><![CDATA[
.edge:hover path { stroke: red; }
.edge:hover polygon { stroke: red; fill: red; }
]]></style>
<script type="text/javascript"><![CDATA[
var edges = document.getElementsByTagName('g');
if (edges && edges.length) {
  for (var i=0;i<edges.length;i++) {
    if (edges[i].id.substr(0,4)=='edge') {
      edges[i].setAttribute('class','edge');
    }
  }
}
]]></script>
        <defs>
                <circle id="rim" cx="0" cy="0" r="7"/>
                <circle id="rim2" cx="0" cy="0" r="3.5"/>
                <g id="zoomPlus">
                        <use xlink:href="#rim" fill="#404040">
                                <set attributeName="fill" to="#808080" begin="zoomplus.mouseover" end="zoomplus.mouseout"/>
                        </use>
                        <path d="M-4,0h8M0,-4v8" fill="none" stroke="white" stroke-width="1.5" pointer-events="none"/>
                </g>
                <g id="zoomMin">
                        <use xlink:href="#rim" fill="#404040">
                                <set attributeName="fill" to="#808080" begin="zoomminus.mouseover" end="zoomminus.mouseout"/>
                        </use>
                        <path d="M-4,0h8" fill="none" stroke="white" stroke-width="1.5" pointer-events="none"/>
                </g>
                <g id="dirArrow">
                        <path fill="none" stroke="white" stroke-width="1.5" d="M0,-3.0v7 M-2.5,-0.5L0,-3.0L2.5,-0.5"/>
                </g>
               <g id="resetDef">
                       <use xlink:href="#rim2" fill="#404040">
                               <set attributeName="fill" to="#808080" begin="reset.mouseover" end="reset.mouseout"/>
                       </use>
               </g>
        </defs>

<script type="text/javascript">
var viewWidth = 941;
var viewHeight = 408;
var sectionId = 'dynsection-0';
</script>
<script xlink:href="svgpan.js"/>
<svg id="graph" class="graph">
<g id="viewport">
<title>SBaseExtensionPoint.cpp</title>
<polygon fill="white" stroke="transparent" points="-4,4 -4,-404 937.22,-404 937.22,4 -4,4"/>
<!-- Node1 -->
<g id="node1" class="node">
<title>Node1</title>
<g id="a_node1"><a xlink:title="Implementation of SBaseExtensionPoint.">
<polygon fill="#bfbfbf" stroke="black" points="290.22,-380.5 290.22,-399.5 430.22,-399.5 430.22,-380.5 290.22,-380.5"/>
<text text-anchor="middle" x="360.22" y="-387.5" font-family="Helvetica,sans-Serif" font-size="10.00">SBaseExtensionPoint.cpp</text>
</a>
</g>
</g>
<!-- Node2 -->
<g id="node2" class="node">
<title>Node2</title>
<g id="a_node2"><a xlink:href="common_8h.html" target="_top" xlink:title="Common functions and macros for C and C++.">
<polygon fill="white" stroke="black" points="193.72,-257.5 193.72,-276.5 334.72,-276.5 334.72,-257.5 193.72,-257.5"/>
<text text-anchor="middle" x="264.22" y="-264.5" font-family="Helvetica,sans-Serif" font-size="10.00">sbml/common/common.h</text>
</a>
</g>
</g>
<!-- Node1&#45;&gt;Node2 -->
<g id="edge1" class="edge">
<title>Node1&#45;&gt;Node2</title>
<path fill="none" stroke="midnightblue" d="M353.31,-380.3C337.4,-360.24 297.93,-310.49 277.28,-284.46"/>
<polygon fill="midnightblue" stroke="midnightblue" points="280.02,-282.28 271.06,-276.62 274.53,-286.63 280.02,-282.28"/>
</g>
<!-- Node12 -->
<g id="node12" class="node">
<title>Node12</title>
<g id="a_node12"><a xlink:href="operation_return_values_8h.html" target="_top" xlink:title="Enumeration of values returned by operations within libSBML.">
<polygon fill="white" stroke="black" points="7.22,-313.5 7.22,-343.5 175.22,-343.5 175.22,-313.5 7.22,-313.5"/>
<text text-anchor="start" x="15.22" y="-331.5" font-family="Helvetica,sans-Serif" font-size="10.00">sbml/common/operationReturn</text>
<text text-anchor="middle" x="91.22" y="-320.5" font-family="Helvetica,sans-Serif" font-size="10.00">Values.h</text>
</a>
</g>
</g>
<!-- Node1&#45;&gt;Node12 -->
<g id="edge15" class="edge">
<title>Node1&#45;&gt;Node12</title>
<path fill="none" stroke="midnightblue" d="M321.68,-380.48C280.82,-371.44 215.31,-356.95 164.56,-345.72"/>
<polygon fill="midnightblue" stroke="midnightblue" points="165.14,-342.27 154.62,-343.52 163.62,-349.1 165.14,-342.27"/>
</g>
<!-- Node13 -->
<g id="node13" class="node">
<title>Node13</title>
<g id="a_node13"><a xlink:href="_s_base_extension_point_8h.html" target="_top" xlink:title="Definition of SBaseExtensionPoint.">
<polygon fill="white" stroke="black" points="665.72,-313.5 665.72,-343.5 838.72,-343.5 838.72,-313.5 665.72,-313.5"/>
<text text-anchor="start" x="673.72" y="-331.5" font-family="Helvetica,sans-Serif" font-size="10.00">sbml/extension/SBaseExtension</text>
<text text-anchor="middle" x="752.22" y="-320.5" font-family="Helvetica,sans-Serif" font-size="10.00">Point.h</text>
</a>
</g>
</g>
<!-- Node1&#45;&gt;Node13 -->
<g id="edge17" class="edge">
<title>Node1&#45;&gt;Node13</title>
<path fill="none" stroke="midnightblue" d="M416.38,-380.48C478.68,-371.02 580.32,-355.59 655.48,-344.18"/>
<polygon fill="midnightblue" stroke="midnightblue" points="656.08,-347.63 665.44,-342.67 655.03,-340.71 656.08,-347.63"/>
</g>
<!-- Node16 -->
<g id="node16" class="node">
<title>Node16</title>
<g id="a_node16"><a xlink:href="_s_b_m_l_type_codes_8h.html" target="_top" xlink:title="Enumeration to identify SBML objects at runtime.">
<polygon fill="white" stroke="black" points="352.72,-257.5 352.72,-276.5 483.72,-276.5 483.72,-257.5 352.72,-257.5"/>
<text text-anchor="middle" x="418.22" y="-264.5" font-family="Helvetica,sans-Serif" font-size="10.00">sbml/SBMLTypeCodes.h</text>
</a>
</g>
</g>
<!-- Node1&#45;&gt;Node16 -->
<g id="edge23" class="edge">
<title>Node1&#45;&gt;Node16</title>
<path fill="none" stroke="midnightblue" d="M364.39,-380.3C373.84,-360.59 397.03,-312.21 409.67,-285.84"/>
<polygon fill="midnightblue" stroke="midnightblue" points="412.92,-287.15 414.09,-276.62 406.61,-284.13 412.92,-287.15"/>
</g>
<!-- Node3 -->
<g id="node3" class="node">
<title>Node3</title>
<g id="a_node3"><a xlink:href="libsbml-config_8h.html" target="_top" xlink:title="Decides whether to #include Unix or Windows configuration variables.">
<polygon fill="white" stroke="black" points="387.72,-190.5 387.72,-220.5 512.72,-220.5 512.72,-190.5 387.72,-190.5"/>
<text text-anchor="start" x="395.72" y="-208.5" font-family="Helvetica,sans-Serif" font-size="10.00">sbml/common/libsbml</text>
<text text-anchor="middle" x="450.22" y="-197.5" font-family="Helvetica,sans-Serif" font-size="10.00">&#45;config.h</text>
</a>
</g>
</g>
<!-- Node2&#45;&gt;Node3 -->
<g id="edge2" class="edge">
<title>Node2&#45;&gt;Node3</title>
<path fill="none" stroke="midnightblue" d="M290.87,-257.48C318.41,-248.66 362.16,-234.67 396.86,-223.57"/>
<polygon fill="midnightblue" stroke="midnightblue" points="397.92,-226.9 406.38,-220.52 395.79,-220.24 397.92,-226.9"/>
</g>
<!-- Node7 -->
<g id="node7" class="node">
<title>Node7</title>
<g id="a_node7"><a xlink:href="extern_8h.html" target="_top" xlink:title="Definitions of LIBSBML_EXTERN and related things.">
<polygon fill="white" stroke="black" points="220.22,-67.5 220.22,-86.5 350.22,-86.5 350.22,-67.5 220.22,-67.5"/>
<text text-anchor="middle" x="285.22" y="-74.5" font-family="Helvetica,sans-Serif" font-size="10.00">sbml/common/extern.h</text>
</a>
</g>
</g>
<!-- Node2&#45;&gt;Node7 -->
<g id="edge9" class="edge">
<title>Node2&#45;&gt;Node7</title>
<path fill="none" stroke="midnightblue" d="M265.18,-257.43C268.37,-228.87 278.69,-136.43 283.14,-96.57"/>
<polygon fill="midnightblue" stroke="midnightblue" points="286.62,-96.94 284.26,-86.62 279.67,-96.17 286.62,-96.94"/>
</g>
<!-- Node8 -->
<g id="node8" class="node">
<title>Node8</title>
<g id="a_node8"><a xlink:title=" ">
<polygon fill="white" stroke="#bfbfbf" points="205.22,-129 205.22,-148 255.22,-148 255.22,-129 205.22,-129"/>
<text text-anchor="middle" x="230.22" y="-136" font-family="Helvetica,sans-Serif" font-size="10.00">stdio.h</text>
</a>
</g>
</g>
<!-- Node2&#45;&gt;Node8 -->
<g id="edge8" class="edge">
<title>Node2&#45;&gt;Node8</title>
<path fill="none" stroke="midnightblue" d="M261.92,-257.1C258.23,-242.89 250.77,-214.24 244.22,-190 241.32,-179.28 238,-167.3 235.33,-157.7"/>
<polygon fill="midnightblue" stroke="midnightblue" points="238.7,-156.76 232.63,-148.07 231.96,-158.64 238.7,-156.76"/>
</g>
<!-- Node9 -->
<g id="node9" class="node">
<title>Node9</title>
<g id="a_node9"><a xlink:href="memory_8h.html" target="_top" xlink:title=" ">
<polygon fill="white" stroke="black" points="124.72,-196 124.72,-215 235.72,-215 235.72,-196 124.72,-196"/>
<text text-anchor="middle" x="180.22" y="-203" font-family="Helvetica,sans-Serif" font-size="10.00">sbml/util/memory.h</text>
</a>
</g>
</g>
<!-- Node2&#45;&gt;Node9 -->
<g id="edge10" class="edge">
<title>Node2&#45;&gt;Node9</title>
<path fill="none" stroke="midnightblue" d="M252.18,-257.48C238.71,-247.93 216.65,-232.31 200.5,-220.87"/>
<polygon fill="midnightblue" stroke="midnightblue" points="202.41,-217.93 192.23,-215.01 198.37,-223.65 202.41,-217.93"/>
</g>
<!-- Node10 -->
<g id="node10" class="node">
<title>Node10</title>
<g id="a_node10"><a xlink:href="util_8h.html" target="_top" xlink:title="Utility functions.">
<polygon fill="white" stroke="black" points="19.72,-196 19.72,-215 106.72,-215 106.72,-196 19.72,-196"/>
<text text-anchor="middle" x="63.22" y="-203" font-family="Helvetica,sans-Serif" font-size="10.00">sbml/util/util.h</text>
</a>
</g>
</g>
<!-- Node2&#45;&gt;Node10 -->
<g id="edge11" class="edge">
<title>Node2&#45;&gt;Node10</title>
<path fill="none" stroke="midnightblue" d="M235.42,-257.48C200.34,-247.09 140.96,-229.51 101.91,-217.95"/>
<polygon fill="midnightblue" stroke="midnightblue" points="102.55,-214.49 91.96,-215.01 100.56,-221.2 102.55,-214.49"/>
</g>
<!-- Node4 -->
<g id="node4" class="node">
<title>Node4</title>
<g id="a_node4"><a xlink:title=" ">
<polygon fill="white" stroke="#bfbfbf" points="315.72,-0.5 315.72,-30.5 440.72,-30.5 440.72,-0.5 315.72,-0.5"/>
<text text-anchor="start" x="323.72" y="-18.5" font-family="Helvetica,sans-Serif" font-size="10.00">sbml/common/libsbml</text>
<text text-anchor="middle" x="378.22" y="-7.5" font-family="Helvetica,sans-Serif" font-size="10.00">&#45;namespace.h</text>
</a>
</g>
</g>
<!-- Node3&#45;&gt;Node4 -->
<g id="edge3" class="edge">
<title>Node3&#45;&gt;Node4</title>
<path fill="none" stroke="midnightblue" d="M429.55,-190.32C418.09,-181.3 404.69,-168.59 397.22,-154 378.69,-117.84 376.33,-69.66 376.87,-40.98"/>
<polygon fill="midnightblue" stroke="midnightblue" points="380.38,-40.78 377.21,-30.67 373.39,-40.55 380.38,-40.78"/>
</g>
<!-- Node5 -->
<g id="node5" class="node">
<title>Node5</title>
<g id="a_node5"><a xlink:title=" ">
<polygon fill="white" stroke="#bfbfbf" points="406.72,-123.5 406.72,-153.5 531.72,-153.5 531.72,-123.5 406.72,-123.5"/>
<text text-anchor="start" x="414.72" y="-141.5" font-family="Helvetica,sans-Serif" font-size="10.00">sbml/common/libsbml</text>
<text text-anchor="middle" x="469.22" y="-130.5" font-family="Helvetica,sans-Serif" font-size="10.00">&#45;config&#45;common.h</text>
</a>
</g>
</g>
<!-- Node3&#45;&gt;Node5 -->
<g id="edge4" class="edge">
<title>Node3&#45;&gt;Node5</title>
<path fill="none" stroke="midnightblue" d="M454.34,-190.4C456.66,-182.47 459.61,-172.38 462.27,-163.27"/>
<polygon fill="midnightblue" stroke="midnightblue" points="465.66,-164.16 465.1,-153.58 458.94,-162.19 465.66,-164.16"/>
</g>
<!-- Node6 -->
<g id="node6" class="node">
<title>Node6</title>
<g id="a_node6"><a xlink:href="libsbml-version_8h.html" target="_top" xlink:title="Define libSBML version numbers for access from client software.">
<polygon fill="white" stroke="black" points="549.72,-123.5 549.72,-153.5 674.72,-153.5 674.72,-123.5 549.72,-123.5"/>
<text text-anchor="start" x="557.72" y="-141.5" font-family="Helvetica,sans-Serif" font-size="10.00">sbml/common/libsbml</text>
<text text-anchor="middle" x="612.22" y="-130.5" font-family="Helvetica,sans-Serif" font-size="10.00">&#45;version.h</text>
</a>
</g>
</g>
<!-- Node3&#45;&gt;Node6 -->
<g id="edge5" class="edge">
<title>Node3&#45;&gt;Node6</title>
<path fill="none" stroke="midnightblue" d="M485.37,-190.4C509.46,-180.73 541.63,-167.82 567.54,-157.43"/>
<polygon fill="midnightblue" stroke="midnightblue" points="569.16,-160.55 577.14,-153.58 566.55,-154.05 569.16,-160.55"/>
</g>
<!-- Node6&#45;&gt;Node7 -->
<g id="edge6" class="edge">
<title>Node6&#45;&gt;Node7</title>
<path fill="none" stroke="midnightblue" d="M549.41,-124.76C546.3,-124.16 543.23,-123.57 540.22,-123 473.75,-110.44 397.32,-97.1 345.61,-88.24"/>
<polygon fill="midnightblue" stroke="midnightblue" points="346.05,-84.76 335.6,-86.52 344.87,-91.66 346.05,-84.76"/>
</g>
<!-- Node7&#45;&gt;Node4 -->
<g id="edge7" class="edge">
<title>Node7&#45;&gt;Node4</title>
<path fill="none" stroke="midnightblue" d="M298.54,-67.48C311.26,-59.34 330.87,-46.79 347.46,-36.18"/>
<polygon fill="midnightblue" stroke="midnightblue" points="349.76,-38.86 356.3,-30.52 345.99,-32.96 349.76,-38.86"/>
</g>
<!-- Node10&#45;&gt;Node7 -->
<g id="edge14" class="edge">
<title>Node10&#45;&gt;Node7</title>
<path fill="none" stroke="midnightblue" d="M76.6,-195.8C100.33,-180.48 151.52,-147.94 196.22,-123 216.63,-111.61 240.26,-99.72 258.05,-91.02"/>
<polygon fill="midnightblue" stroke="midnightblue" points="259.8,-94.06 267.26,-86.54 256.74,-87.77 259.8,-94.06"/>
</g>
<!-- Node10&#45;&gt;Node8 -->
<g id="edge12" class="edge">
<title>Node10&#45;&gt;Node8</title>
<path fill="none" stroke="midnightblue" d="M85.39,-195.87C114.42,-184.57 165.48,-164.7 198.57,-151.82"/>
<polygon fill="midnightblue" stroke="midnightblue" points="200.17,-154.95 208.22,-148.06 197.63,-148.43 200.17,-154.95"/>
</g>
<!-- Node11 -->
<g id="node11" class="node">
<title>Node11</title>
<g id="a_node11"><a xlink:title=" ">
<polygon fill="white" stroke="#bfbfbf" points="35.22,-129 35.22,-148 91.22,-148 91.22,-129 35.22,-129"/>
<text text-anchor="middle" x="63.22" y="-136" font-family="Helvetica,sans-Serif" font-size="10.00">stdarg.h</text>
</a>
</g>
</g>
<!-- Node10&#45;&gt;Node11 -->
<g id="edge13" class="edge">
<title>Node10&#45;&gt;Node11</title>
<path fill="none" stroke="midnightblue" d="M63.22,-195.73C63.22,-186.18 63.22,-170.62 63.22,-158.28"/>
<polygon fill="midnightblue" stroke="midnightblue" points="66.72,-158.13 63.22,-148.13 59.72,-158.13 66.72,-158.13"/>
</g>
<!-- Node12&#45;&gt;Node7 -->
<g id="edge16" class="edge">
<title>Node12&#45;&gt;Node7</title>
<path fill="none" stroke="midnightblue" d="M75.24,-313.18C55.53,-294.33 23.06,-259.08 10.22,-221 -3.88,-179.18 -5.95,-153.22 26.22,-123 52.24,-98.55 143.21,-87.18 210.01,-82.03"/>
<polygon fill="midnightblue" stroke="midnightblue" points="210.38,-85.51 220.09,-81.29 209.86,-78.53 210.38,-85.51"/>
</g>
<!-- Node13&#45;&gt;Node7 -->
<g id="edge18" class="edge">
<title>Node13&#45;&gt;Node7</title>
<path fill="none" stroke="midnightblue" d="M742.09,-313.07C735.62,-303.28 727.48,-289.83 722.22,-277 695.48,-211.77 737.19,-169.52 684.22,-123 660.43,-102.11 469.53,-88.21 360.63,-81.9"/>
<polygon fill="midnightblue" stroke="midnightblue" points="360.54,-78.39 350.36,-81.31 360.14,-85.38 360.54,-78.39"/>
</g>
<!-- Node14 -->
<g id="node14" class="node">
<title>Node14</title>
<g id="a_node14"><a xlink:href="sbmlfwd_8h.html" target="_top" xlink:title="Forward declarations for all opaque C types.">
<polygon fill="white" stroke="black" points="731.22,-257.5 731.22,-276.5 871.22,-276.5 871.22,-257.5 731.22,-257.5"/>
<text text-anchor="middle" x="801.22" y="-264.5" font-family="Helvetica,sans-Serif" font-size="10.00">sbml/common/sbmlfwd.h</text>
</a>
</g>
</g>
<!-- Node13&#45;&gt;Node14 -->
<g id="edge19" class="edge">
<title>Node13&#45;&gt;Node14</title>
<path fill="none" stroke="midnightblue" d="M763.83,-313.4C770.95,-304.75 780.1,-293.64 787.57,-284.58"/>
<polygon fill="midnightblue" stroke="midnightblue" points="790.43,-286.6 794.09,-276.66 785.03,-282.15 790.43,-286.6"/>
</g>
<!-- Node15 -->
<g id="node15" class="node">
<title>Node15</title>
<g id="a_node15"><a xlink:title=" ">
<polygon fill="white" stroke="#bfbfbf" points="889.22,-257.5 889.22,-276.5 933.22,-276.5 933.22,-257.5 889.22,-257.5"/>
<text text-anchor="middle" x="911.22" y="-264.5" font-family="Helvetica,sans-Serif" font-size="10.00">string</text>
</a>
</g>
</g>
<!-- Node13&#45;&gt;Node15 -->
<g id="edge22" class="edge">
<title>Node13&#45;&gt;Node15</title>
<path fill="none" stroke="midnightblue" d="M789.9,-313.4C817.14,-303.21 853.54,-289.59 879.34,-279.93"/>
<polygon fill="midnightblue" stroke="midnightblue" points="880.87,-283.1 889.01,-276.31 878.41,-276.54 880.87,-283.1"/>
</g>
<!-- Node14&#45;&gt;Node3 -->
<g id="edge21" class="edge">
<title>Node14&#45;&gt;Node3</title>
<path fill="none" stroke="midnightblue" d="M750.93,-257.48C691.25,-247.36 591.26,-230.41 523.1,-218.85"/>
<polygon fill="midnightblue" stroke="midnightblue" points="523.31,-215.34 512.87,-217.12 522.14,-222.24 523.31,-215.34"/>
</g>
<!-- Node14&#45;&gt;Node4 -->
<g id="edge20" class="edge">
<title>Node14&#45;&gt;Node4</title>
<path fill="none" stroke="midnightblue" d="M798.64,-257.45C790.75,-232.75 764.54,-160.64 717.22,-123 639.3,-61.01 524.87,-34.85 450.95,-23.98"/>
<polygon fill="midnightblue" stroke="midnightblue" points="451.19,-20.48 440.8,-22.55 450.21,-27.41 451.19,-20.48"/>
</g>
<!-- Node16&#45;&gt;Node3 -->
<g id="edge24" class="edge">
<title>Node16&#45;&gt;Node3</title>
<path fill="none" stroke="midnightblue" d="M422.8,-257.48C426.73,-250.17 432.58,-239.3 437.86,-229.47"/>
<polygon fill="midnightblue" stroke="midnightblue" points="441.02,-230.99 442.68,-220.52 434.86,-227.67 441.02,-230.99"/>
</g>
<!-- Node16&#45;&gt;Node7 -->
<g id="edge25" class="edge">
<title>Node16&#45;&gt;Node7</title>
<path fill="none" stroke="midnightblue" d="M409.84,-257.37C401.45,-248.55 388.36,-234.3 378.22,-221 345.27,-177.8 311.78,-123.07 295.45,-95.53"/>
<polygon fill="midnightblue" stroke="midnightblue" points="298.33,-93.53 290.24,-86.68 292.3,-97.08 298.33,-93.53"/>
</g>
</g>
</svg>
        <g id="navigator" transform="translate(0 0)" fill="#404254">
                <rect fill="#f2f5e9" fill-opacity="0.5" stroke="#606060" stroke-width=".5" x="0" y="0" width="60" height="60"/>
                <use id="zoomplus" xlink:href="#zoomPlus" x="17" y="9" onmousedown="handleZoom(evt,'in')"/>
                <use id="zoomminus" xlink:href="#zoomMin" x="42" y="9" onmousedown="handleZoom(evt,'out')"/>
                <use id="reset" xlink:href="#resetDef" x="30" y="36" onmousedown="handleReset()"/>
                <g id="arrowUp" xlink:href="#dirArrow" transform="translate(30 24)" onmousedown="handlePan(0,-1)">
                  <use xlink:href="#rim" fill="#404040">
                        <set attributeName="fill" to="#808080" begin="arrowUp.mouseover" end="arrowUp.mouseout"/>
                  </use>
                  <path fill="none" stroke="white" stroke-width="1.5" d="M0,-3.0v7 M-2.5,-0.5L0,-3.0L2.5,-0.5"/>
                </g>
                <g id="arrowRight" xlink:href="#dirArrow" transform="rotate(90) translate(36 -43)" onmousedown="handlePan(1,0)">
                  <use xlink:href="#rim" fill="#404040">
                        <set attributeName="fill" to="#808080" begin="arrowRight.mouseover" end="arrowRight.mouseout"/>
                  </use>
                  <path fill="none" stroke="white" stroke-width="1.5" d="M0,-3.0v7 M-2.5,-0.5L0,-3.0L2.5,-0.5"/>
                </g>
                <g id="arrowDown" xlink:href="#dirArrow" transform="rotate(180) translate(-30 -48)" onmousedown="handlePan(0,1)">
                  <use xlink:href="#rim" fill="#404040">
                        <set attributeName="fill" to="#808080" begin="arrowDown.mouseover" end="arrowDown.mouseout"/>
                  </use>
                  <path fill="none" stroke="white" stroke-width="1.5" d="M0,-3.0v7 M-2.5,-0.5L0,-3.0L2.5,-0.5"/>
                </g>
                <g id="arrowLeft" xlink:href="#dirArrow" transform="rotate(270) translate(-36 17)" onmousedown="handlePan(-1,0)">
                  <use xlink:href="#rim" fill="#404040">
                        <set attributeName="fill" to="#808080" begin="arrowLeft.mouseover" end="arrowLeft.mouseout"/>
                  </use>
                  <path fill="none" stroke="white" stroke-width="1.5" d="M0,-3.0v7 M-2.5,-0.5L0,-3.0L2.5,-0.5"/>
                </g>
        </g>
        <svg viewBox="0 0 15 15" width="100%" height="30px" preserveAspectRatio="xMaxYMin meet">
         <g id="arrow_out" transform="scale(0.3 0.3)">
          <a xlink:href="_s_base_extension_point_8cpp__incl_org.svg" target="_base">
           <rect id="button" ry="5" rx="5" y="6" x="6" height="38" width="38"
                fill="#f2f5e9" fill-opacity="0.5" stroke="#606060" stroke-width="1.0"/>
           <path id="arrow"
             d="M 11.500037,31.436501 C 11.940474,20.09759 22.043105,11.32322 32.158766,21.979434 L 37.068811,17.246167 C 37.068811,17.246167 37.088388,32 37.088388,32 L 22.160133,31.978069 C 22.160133,31.978069 26.997745,27.140456 26.997745,27.140456 C 18.528582,18.264221 13.291696,25.230495 11.500037,31.436501 z"
             style="fill:#404040;"/>
          </a>
         </g>
        </svg>
</svg>
