<?xml version="1.0" encoding="UTF-8" standalone="no"?>
<!DOCTYPE svg PUBLIC "-//W3C//DTD SVG 1.1//EN"
 "http://www.w3.org/Graphics/SVG/1.1/DTD/svg11.dtd">
<!-- Generated by graphviz version 2.43.0 (0)
 -->
<!-- Title: SBMLFileResolver.h Pages: 1 -->
<svg width="476pt" height="84pt"
 viewBox="0.00 0.00 476.00 84.00" xmlns="http://www.w3.org/2000/svg" xmlns:xlink="http://www.w3.org/1999/xlink">
<g id="graph0" class="graph" transform="scale(1 1) rotate(0) translate(4 80)">
<title>SBMLFileResolver.h</title>
<polygon fill="white" stroke="transparent" points="-4,4 -4,-80 472,-80 472,4 -4,4"/>
<!-- Node1 -->
<g id="node1" class="node">
<title>Node1</title>
<g id="a_node1"><a xlink:title="A file&#45;based resolver for SBML Documents.">
<polygon fill="#bfbfbf" stroke="black" points="186,-56.5 186,-75.5 298,-75.5 298,-56.5 186,-56.5"/>
<text text-anchor="middle" x="242" y="-63.5" font-family="Helvetica,sans-Serif" font-size="10.00">SBMLFileResolver.h</text>
</a>
</g>
</g>
<!-- Node2 -->
<g id="node2" class="node">
<title>Node2</title>
<g id="a_node2"><a xlink:href="_comp_flattening_converter_8cpp.html" target="_top" xlink:title="Implementation of a first flattening converter.">
<polygon fill="white" stroke="black" points="0,-0.5 0,-19.5 162,-19.5 162,-0.5 0,-0.5"/>
<text text-anchor="middle" x="81" y="-7.5" font-family="Helvetica,sans-Serif" font-size="10.00">CompFlatteningConverter.cpp</text>
</a>
</g>
</g>
<!-- Node1&#45;&gt;Node2 -->
<g id="edge1" class="edge">
<title>Node1&#45;&gt;Node2</title>
<path fill="none" stroke="midnightblue" d="M206.74,-53.17C176.42,-43 133.43,-28.59 106.39,-19.52"/>
<polygon fill="midnightblue" stroke="midnightblue" points="205.9,-56.58 216.49,-56.44 208.12,-49.95 205.9,-56.58"/>
</g>
<!-- Node3 -->
<g id="node3" class="node">
<title>Node3</title>
<g id="a_node3"><a xlink:href="_s_b_m_l_file_resolver_8cpp.html" target="_top" xlink:title="Implementation of SBMLFileResolver, the file system based resolver for SBML Documents.">
<polygon fill="white" stroke="black" points="180.5,-0.5 180.5,-19.5 303.5,-19.5 303.5,-0.5 180.5,-0.5"/>
<text text-anchor="middle" x="242" y="-7.5" font-family="Helvetica,sans-Serif" font-size="10.00">SBMLFileResolver.cpp</text>
</a>
</g>
</g>
<!-- Node1&#45;&gt;Node3 -->
<g id="edge2" class="edge">
<title>Node1&#45;&gt;Node3</title>
<path fill="none" stroke="midnightblue" d="M242,-45.8C242,-36.91 242,-26.78 242,-19.75"/>
<polygon fill="midnightblue" stroke="midnightblue" points="238.5,-46.08 242,-56.08 245.5,-46.08 238.5,-46.08"/>
</g>
<!-- Node4 -->
<g id="node4" class="node">
<title>Node4</title>
<g id="a_node4"><a xlink:href="_s_b_m_l_resolver_registry_8cpp.html" target="_top" xlink:title="Implementation of SBMLResolverRegistry, a registry of available resolvers.">
<polygon fill="white" stroke="black" points="322,-0.5 322,-19.5 468,-19.5 468,-0.5 322,-0.5"/>
<text text-anchor="middle" x="395" y="-7.5" font-family="Helvetica,sans-Serif" font-size="10.00">SBMLResolverRegistry.cpp</text>
</a>
</g>
</g>
<!-- Node1&#45;&gt;Node4 -->
<g id="edge3" class="edge">
<title>Node1&#45;&gt;Node4</title>
<path fill="none" stroke="midnightblue" d="M275.89,-53.04C304.68,-42.88 345.29,-28.55 370.87,-19.52"/>
<polygon fill="midnightblue" stroke="midnightblue" points="274.51,-49.81 266.24,-56.44 276.84,-56.42 274.51,-49.81"/>
</g>
</g>
</svg>
