<?xml version="1.0" encoding="UTF-8" standalone="no"?>
<!DOCTYPE svg PUBLIC "-//W3C//DTD SVG 1.1//EN"
 "http://www.w3.org/Graphics/SVG/1.1/DTD/svg11.dtd">
<!-- Generated by graphviz version 2.43.0 (0)
 -->
<!-- Title: SBMLValidator.h Pages: 1 -->
<svg width="344pt" height="140pt"
 viewBox="0.00 0.00 344.00 140.00" xmlns="http://www.w3.org/2000/svg" xmlns:xlink="http://www.w3.org/1999/xlink">
<g id="graph0" class="graph" transform="scale(1 1) rotate(0) translate(4 136)">
<title>SBMLValidator.h</title>
<polygon fill="white" stroke="transparent" points="-4,4 -4,-136 340,-136 340,4 -4,4"/>
<!-- Node1 -->
<g id="node1" class="node">
<title>Node1</title>
<g id="a_node1"><a xlink:title="Definition of SBMLValidator, the base class for user callable SBML validators.">
<polygon fill="#bfbfbf" stroke="black" points="166.5,-112.5 166.5,-131.5 261.5,-131.5 261.5,-112.5 166.5,-112.5"/>
<text text-anchor="middle" x="214" y="-119.5" font-family="Helvetica,sans-Serif" font-size="10.00">SBMLValidator.h</text>
</a>
</g>
</g>
<!-- Node2 -->
<g id="node2" class="node">
<title>Node2</title>
<g id="a_node2"><a xlink:href="_s_b_m_l_internal_validator_8h.html" target="_top" xlink:title="Definition of SBMLInternalValidator, the validator for all internal validation performed by libSBML.">
<polygon fill="white" stroke="black" points="78.5,-56.5 78.5,-75.5 211.5,-75.5 211.5,-56.5 78.5,-56.5"/>
<text text-anchor="middle" x="145" y="-63.5" font-family="Helvetica,sans-Serif" font-size="10.00">SBMLInternalValidator.h</text>
</a>
</g>
</g>
<!-- Node1&#45;&gt;Node2 -->
<g id="edge1" class="edge">
<title>Node1&#45;&gt;Node2</title>
<path fill="none" stroke="midnightblue" d="M194.96,-106.1C182.54,-96.38 166.76,-84.03 156.29,-75.83"/>
<polygon fill="midnightblue" stroke="midnightblue" points="192.88,-108.92 202.91,-112.32 197.2,-103.4 192.88,-108.92"/>
</g>
<!-- Node5 -->
<g id="node5" class="node">
<title>Node5</title>
<g id="a_node5"><a xlink:href="_s_b_m_l_validator_8cpp.html" target="_top" xlink:title="Implementation of SBMLValidator, the base class for user callable SBML validators.">
<polygon fill="white" stroke="black" points="230,-56.5 230,-75.5 336,-75.5 336,-56.5 230,-56.5"/>
<text text-anchor="middle" x="283" y="-63.5" font-family="Helvetica,sans-Serif" font-size="10.00">SBMLValidator.cpp</text>
</a>
</g>
</g>
<!-- Node1&#45;&gt;Node5 -->
<g id="edge4" class="edge">
<title>Node1&#45;&gt;Node5</title>
<path fill="none" stroke="midnightblue" d="M233.04,-106.1C245.46,-96.38 261.24,-84.03 271.71,-75.83"/>
<polygon fill="midnightblue" stroke="midnightblue" points="230.8,-103.4 225.09,-112.32 235.12,-108.92 230.8,-103.4"/>
</g>
<!-- Node3 -->
<g id="node3" class="node">
<title>Node3</title>
<g id="a_node3"><a xlink:href="_s_b_m_l_internal_validator_8cpp.html" target="_top" xlink:title="Implementation of SBMLInternalValidator, the validator for all internal validation performed by libSB...">
<polygon fill="white" stroke="black" points="0,-0.5 0,-19.5 144,-19.5 144,-0.5 0,-0.5"/>
<text text-anchor="middle" x="72" y="-7.5" font-family="Helvetica,sans-Serif" font-size="10.00">SBMLInternalValidator.cpp</text>
</a>
</g>
</g>
<!-- Node2&#45;&gt;Node3 -->
<g id="edge2" class="edge">
<title>Node2&#45;&gt;Node3</title>
<path fill="none" stroke="midnightblue" d="M124.86,-50.1C111.72,-40.38 95.02,-28.03 83.94,-19.83"/>
<polygon fill="midnightblue" stroke="midnightblue" points="123.15,-53.19 133.27,-56.32 127.31,-47.56 123.15,-53.19"/>
</g>
<!-- Node4 -->
<g id="node4" class="node">
<title>Node4</title>
<g id="a_node4"><a xlink:href="_s_b_m_l_document_8cpp.html" target="_top" xlink:title="Implementation of the top&#45;level container for an SBML Model and associated data.">
<polygon fill="white" stroke="black" points="162,-0.5 162,-19.5 276,-19.5 276,-0.5 162,-0.5"/>
<text text-anchor="middle" x="219" y="-7.5" font-family="Helvetica,sans-Serif" font-size="10.00">SBMLDocument.cpp</text>
</a>
</g>
</g>
<!-- Node2&#45;&gt;Node4 -->
<g id="edge3" class="edge">
<title>Node2&#45;&gt;Node4</title>
<path fill="none" stroke="midnightblue" d="M165.03,-50.38C178.41,-40.62 195.56,-28.11 206.89,-19.83"/>
<polygon fill="midnightblue" stroke="midnightblue" points="162.9,-47.6 156.89,-56.32 167.03,-53.26 162.9,-47.6"/>
</g>
</g>
</svg>
