<?xml version="1.0" encoding="UTF-8" standalone="no"?>
<!DOCTYPE svg PUBLIC "-//W3C//DTD SVG 1.1//EN"
 "http://www.w3.org/Graphics/SVG/1.1/DTD/svg11.dtd">
<!-- Generated by graphviz version 2.43.0 (0)
 -->
<!-- Title: SBMLTypeCodes.h Pages: 1 -->
<svg width="308pt" height="285pt"
 viewBox="0.00 0.00 308.11 285.00" xmlns="http://www.w3.org/2000/svg" xmlns:xlink="http://www.w3.org/1999/xlink">
<g id="graph0" class="graph" transform="scale(1 1) rotate(0) translate(4 281)">
<title>SBMLTypeCodes.h</title>
<polygon fill="white" stroke="transparent" points="-4,4 -4,-281 304.11,-281 304.11,4 -4,4"/>
<!-- Node1 -->
<g id="node1" class="node">
<title>Node1</title>
<g id="a_node1"><a xlink:title="Enumeration to identify SBML objects at runtime.">
<polygon fill="#bfbfbf" stroke="black" points="145.56,-257.5 145.56,-276.5 249.56,-276.5 249.56,-257.5 145.56,-257.5"/>
<text text-anchor="middle" x="197.56" y="-264.5" font-family="Helvetica,sans-Serif" font-size="10.00">SBMLTypeCodes.h</text>
</a>
</g>
</g>
<!-- Node2 -->
<g id="node2" class="node">
<title>Node2</title>
<g id="a_node2"><a xlink:href="libsbml-config_8h.html" target="_top" xlink:title="Decides whether to #include Unix or Windows configuration variables.">
<polygon fill="white" stroke="black" points="90.06,-190.5 90.06,-220.5 215.06,-220.5 215.06,-190.5 90.06,-190.5"/>
<text text-anchor="start" x="98.06" y="-208.5" font-family="Helvetica,sans-Serif" font-size="10.00">sbml/common/libsbml</text>
<text text-anchor="middle" x="152.56" y="-197.5" font-family="Helvetica,sans-Serif" font-size="10.00">&#45;config.h</text>
</a>
</g>
</g>
<!-- Node1&#45;&gt;Node2 -->
<g id="edge1" class="edge">
<title>Node1&#45;&gt;Node2</title>
<path fill="none" stroke="midnightblue" d="M191.11,-257.48C185.42,-249.94 176.86,-238.63 169.25,-228.57"/>
<polygon fill="midnightblue" stroke="midnightblue" points="171.99,-226.39 163.17,-220.52 166.41,-230.61 171.99,-226.39"/>
</g>
<!-- Node6 -->
<g id="node6" class="node">
<title>Node6</title>
<g id="a_node6"><a xlink:href="extern_8h.html" target="_top" xlink:title="Definitions of LIBSBML_EXTERN and related things.">
<polygon fill="white" stroke="black" points="158.56,-67.5 158.56,-86.5 288.56,-86.5 288.56,-67.5 158.56,-67.5"/>
<text text-anchor="middle" x="223.56" y="-74.5" font-family="Helvetica,sans-Serif" font-size="10.00">sbml/common/extern.h</text>
</a>
</g>
</g>
<!-- Node1&#45;&gt;Node6 -->
<g id="edge7" class="edge">
<title>Node1&#45;&gt;Node6</title>
<path fill="none" stroke="midnightblue" d="M209.26,-257.47C231.23,-240.63 278.02,-200.68 295.56,-154 300.41,-141.1 302.24,-135.05 295.56,-123 287.47,-108.41 272.46,-97.92 258.22,-90.76"/>
<polygon fill="midnightblue" stroke="midnightblue" points="259.61,-87.55 249.07,-86.53 256.67,-93.9 259.61,-87.55"/>
</g>
<!-- Node3 -->
<g id="node3" class="node">
<title>Node3</title>
<g id="a_node3"><a xlink:title=" ">
<polygon fill="white" stroke="#bfbfbf" points="44.06,-0.5 44.06,-30.5 169.06,-30.5 169.06,-0.5 44.06,-0.5"/>
<text text-anchor="start" x="52.06" y="-18.5" font-family="Helvetica,sans-Serif" font-size="10.00">sbml/common/libsbml</text>
<text text-anchor="middle" x="106.56" y="-7.5" font-family="Helvetica,sans-Serif" font-size="10.00">&#45;namespace.h</text>
</a>
</g>
</g>
<!-- Node2&#45;&gt;Node3 -->
<g id="edge2" class="edge">
<title>Node2&#45;&gt;Node3</title>
<path fill="none" stroke="midnightblue" d="M89.76,-198.92C60.01,-192.76 27.03,-180.04 8.56,-154 -21.23,-111.98 36.04,-62.87 74.9,-36.19"/>
<polygon fill="midnightblue" stroke="midnightblue" points="76.99,-39.01 83.35,-30.54 73.09,-33.19 76.99,-39.01"/>
</g>
<!-- Node4 -->
<g id="node4" class="node">
<title>Node4</title>
<g id="a_node4"><a xlink:title=" ">
<polygon fill="white" stroke="#bfbfbf" points="18.06,-123.5 18.06,-153.5 143.06,-153.5 143.06,-123.5 18.06,-123.5"/>
<text text-anchor="start" x="26.06" y="-141.5" font-family="Helvetica,sans-Serif" font-size="10.00">sbml/common/libsbml</text>
<text text-anchor="middle" x="80.56" y="-130.5" font-family="Helvetica,sans-Serif" font-size="10.00">&#45;config&#45;common.h</text>
</a>
</g>
</g>
<!-- Node2&#45;&gt;Node4 -->
<g id="edge3" class="edge">
<title>Node2&#45;&gt;Node4</title>
<path fill="none" stroke="midnightblue" d="M136.94,-190.4C127.22,-181.62 114.55,-170.18 103.68,-160.37"/>
<polygon fill="midnightblue" stroke="midnightblue" points="105.92,-157.68 96.15,-153.58 101.23,-162.88 105.92,-157.68"/>
</g>
<!-- Node5 -->
<g id="node5" class="node">
<title>Node5</title>
<g id="a_node5"><a xlink:href="libsbml-version_8h.html" target="_top" xlink:title="Define libSBML version numbers for access from client software.">
<polygon fill="white" stroke="black" points="161.06,-123.5 161.06,-153.5 286.06,-153.5 286.06,-123.5 161.06,-123.5"/>
<text text-anchor="start" x="169.06" y="-141.5" font-family="Helvetica,sans-Serif" font-size="10.00">sbml/common/libsbml</text>
<text text-anchor="middle" x="223.56" y="-130.5" font-family="Helvetica,sans-Serif" font-size="10.00">&#45;version.h</text>
</a>
</g>
</g>
<!-- Node2&#45;&gt;Node5 -->
<g id="edge4" class="edge">
<title>Node2&#45;&gt;Node5</title>
<path fill="none" stroke="midnightblue" d="M167.97,-190.4C177.55,-181.62 190.05,-170.18 200.76,-160.37"/>
<polygon fill="midnightblue" stroke="midnightblue" points="203.17,-162.91 208.18,-153.58 198.45,-157.75 203.17,-162.91"/>
</g>
<!-- Node5&#45;&gt;Node6 -->
<g id="edge5" class="edge">
<title>Node5&#45;&gt;Node6</title>
<path fill="none" stroke="midnightblue" d="M223.56,-123.4C223.56,-115.47 223.56,-105.46 223.56,-96.86"/>
<polygon fill="midnightblue" stroke="midnightblue" points="227.06,-96.66 223.56,-86.66 220.06,-96.66 227.06,-96.66"/>
</g>
<!-- Node6&#45;&gt;Node3 -->
<g id="edge6" class="edge">
<title>Node6&#45;&gt;Node3</title>
<path fill="none" stroke="midnightblue" d="M206.8,-67.48C190.29,-59.08 164.52,-45.97 143.24,-35.15"/>
<polygon fill="midnightblue" stroke="midnightblue" points="144.64,-31.94 134.14,-30.52 141.46,-38.18 144.64,-31.94"/>
</g>
</g>
</svg>
