<?xml version="1.0" encoding="UTF-8" standalone="no"?>
<!DOCTYPE svg PUBLIC "-//W3C//DTD SVG 1.1//EN"
 "http://www.w3.org/Graphics/SVG/1.1/DTD/svg11.dtd">
<!-- Generated by graphviz version 2.43.0 (0)
 -->
<!-- Title: SBMLError.h Pages: 1 -->
<svg width="1088pt" height="464pt"
 viewBox="0.00 0.00 1088.00 464.00" xmlns="http://www.w3.org/2000/svg" xmlns:xlink="http://www.w3.org/1999/xlink">
<g id="graph0" class="graph" transform="scale(1 1) rotate(0) translate(4 460)">
<title>SBMLError.h</title>
<polygon fill="white" stroke="transparent" points="-4,4 -4,-460 1084,-460 1084,4 -4,4"/>
<!-- Node1 -->
<g id="node1" class="node">
<title>Node1</title>
<g id="a_node1"><a xlink:title="Represents SBML errors and other diagnostics.">
<polygon fill="#bfbfbf" stroke="black" points="527.5,-436.5 527.5,-455.5 602.5,-455.5 602.5,-436.5 527.5,-436.5"/>
<text text-anchor="middle" x="565" y="-443.5" font-family="Helvetica,sans-Serif" font-size="10.00">SBMLError.h</text>
</a>
</g>
</g>
<!-- Node2 -->
<g id="node2" class="node">
<title>Node2</title>
<g id="a_node2"><a xlink:href="extern_8h.html" target="_top" xlink:title="Definitions of LIBSBML_EXTERN and related things.">
<polygon fill="white" stroke="black" points="292,-67.5 292,-86.5 422,-86.5 422,-67.5 292,-67.5"/>
<text text-anchor="middle" x="357" y="-74.5" font-family="Helvetica,sans-Serif" font-size="10.00">sbml/common/extern.h</text>
</a>
</g>
</g>
<!-- Node1&#45;&gt;Node2 -->
<g id="edge1" class="edge">
<title>Node1&#45;&gt;Node2</title>
<path fill="none" stroke="midnightblue" d="M527.49,-445.69C401.3,-447.03 0,-442.8 0,-335 0,-335 0,-335 0,-204.5 0,-144.2 183.21,-105.38 287.14,-88.2"/>
<polygon fill="midnightblue" stroke="midnightblue" points="287.94,-91.62 297.25,-86.56 286.81,-84.71 287.94,-91.62"/>
</g>
<!-- Node4 -->
<g id="node4" class="node">
<title>Node4</title>
<g id="a_node4"><a xlink:href="_x_m_l_error_8h.html" target="_top" xlink:title="Represents errors (and messages) encountered during an XML parse.">
<polygon fill="white" stroke="black" points="506,-324.5 506,-343.5 624,-343.5 624,-324.5 506,-324.5"/>
<text text-anchor="middle" x="565" y="-331.5" font-family="Helvetica,sans-Serif" font-size="10.00">sbml/xml/XMLError.h</text>
</a>
</g>
</g>
<!-- Node1&#45;&gt;Node4 -->
<g id="edge3" class="edge">
<title>Node1&#45;&gt;Node4</title>
<path fill="none" stroke="midnightblue" d="M565,-436.37C565,-418.62 565,-377.67 565,-353.6"/>
<polygon fill="midnightblue" stroke="midnightblue" points="568.5,-353.59 565,-343.59 561.5,-353.59 568.5,-353.59"/>
</g>
<!-- Node16 -->
<g id="node16" class="node">
<title>Node16</title>
<g id="a_node16"><a xlink:href="_s_b_m_l_namespaces_8h.html" target="_top" xlink:title="SBMLNamespaces class to store level/version and namespace.">
<polygon fill="white" stroke="black" points="624.5,-380.5 624.5,-399.5 767.5,-399.5 767.5,-380.5 624.5,-380.5"/>
<text text-anchor="middle" x="696" y="-387.5" font-family="Helvetica,sans-Serif" font-size="10.00">sbml/SBMLNamespaces.h</text>
</a>
</g>
</g>
<!-- Node1&#45;&gt;Node16 -->
<g id="edge22" class="edge">
<title>Node1&#45;&gt;Node16</title>
<path fill="none" stroke="midnightblue" d="M585.76,-436.44C607.32,-427.56 641.26,-413.56 665.79,-403.45"/>
<polygon fill="midnightblue" stroke="midnightblue" points="667.43,-406.56 675.34,-399.52 664.76,-400.09 667.43,-406.56"/>
</g>
<!-- Node3 -->
<g id="node3" class="node">
<title>Node3</title>
<g id="a_node3"><a xlink:title=" ">
<polygon fill="white" stroke="#bfbfbf" points="617.5,-0.5 617.5,-30.5 742.5,-30.5 742.5,-0.5 617.5,-0.5"/>
<text text-anchor="start" x="625.5" y="-18.5" font-family="Helvetica,sans-Serif" font-size="10.00">sbml/common/libsbml</text>
<text text-anchor="middle" x="680" y="-7.5" font-family="Helvetica,sans-Serif" font-size="10.00">&#45;namespace.h</text>
</a>
</g>
</g>
<!-- Node2&#45;&gt;Node3 -->
<g id="edge2" class="edge">
<title>Node2&#45;&gt;Node3</title>
<path fill="none" stroke="midnightblue" d="M403.28,-67.48C456.57,-57.66 544.78,-41.41 607.27,-29.9"/>
<polygon fill="midnightblue" stroke="midnightblue" points="608.26,-33.27 617.46,-28.02 606.99,-26.39 608.26,-33.27"/>
</g>
<!-- Node5 -->
<g id="node5" class="node">
<title>Node5</title>
<g id="a_node5"><a xlink:title=" ">
<polygon fill="white" stroke="#bfbfbf" points="233,-196 233,-215 283,-215 283,-196 233,-196"/>
<text text-anchor="middle" x="258" y="-203" font-family="Helvetica,sans-Serif" font-size="10.00">stdio.h</text>
</a>
</g>
</g>
<!-- Node4&#45;&gt;Node5 -->
<g id="edge4" class="edge">
<title>Node4&#45;&gt;Node5</title>
<path fill="none" stroke="midnightblue" d="M525.61,-324.5C492.92,-316.82 445.54,-304.23 406,-288 359.19,-268.78 308.27,-238.46 280.03,-220.72"/>
<polygon fill="midnightblue" stroke="midnightblue" points="281.68,-217.62 271.36,-215.22 277.93,-223.54 281.68,-217.62"/>
</g>
<!-- Node6 -->
<g id="node6" class="node">
<title>Node6</title>
<g id="a_node6"><a xlink:href="_x_m_l_extern_8h.html" target="_top" xlink:title="Defines LIBLAX_EXTERN.">
<polygon fill="white" stroke="black" points="825.5,-263 825.5,-282 952.5,-282 952.5,-263 825.5,-263"/>
<text text-anchor="middle" x="889" y="-270" font-family="Helvetica,sans-Serif" font-size="10.00">sbml/xml/XMLExtern.h</text>
</a>
</g>
</g>
<!-- Node4&#45;&gt;Node6 -->
<g id="edge5" class="edge">
<title>Node4&#45;&gt;Node6</title>
<path fill="none" stroke="midnightblue" d="M614.11,-324.48C664.74,-315.62 745.96,-301.23 816,-288 822.65,-286.74 829.64,-285.39 836.55,-284.04"/>
<polygon fill="midnightblue" stroke="midnightblue" points="837.43,-287.43 846.56,-282.07 836.08,-280.57 837.43,-287.43"/>
</g>
<!-- Node7 -->
<g id="node7" class="node">
<title>Node7</title>
<g id="a_node7"><a xlink:href="sbmlfwd_8h.html" target="_top" xlink:title="Forward declarations for all opaque C types.">
<polygon fill="white" stroke="black" points="667,-263 667,-282 807,-282 807,-263 667,-263"/>
<text text-anchor="middle" x="737" y="-270" font-family="Helvetica,sans-Serif" font-size="10.00">sbml/common/sbmlfwd.h</text>
</a>
</g>
</g>
<!-- Node4&#45;&gt;Node7 -->
<g id="edge7" class="edge">
<title>Node4&#45;&gt;Node7</title>
<path fill="none" stroke="midnightblue" d="M589.64,-324.48C619.28,-314.22 669.18,-296.96 702.6,-285.4"/>
<polygon fill="midnightblue" stroke="midnightblue" points="704.1,-288.59 712.4,-282.01 701.81,-281.97 704.1,-288.59"/>
</g>
<!-- Node11 -->
<g id="node11" class="node">
<title>Node11</title>
<g id="a_node11"><a xlink:href="util_8h.html" target="_top" xlink:title="Utility functions.">
<polygon fill="white" stroke="black" points="157.5,-263 157.5,-282 244.5,-282 244.5,-263 157.5,-263"/>
<text text-anchor="middle" x="201" y="-270" font-family="Helvetica,sans-Serif" font-size="10.00">sbml/util/util.h</text>
</a>
</g>
</g>
<!-- Node4&#45;&gt;Node11 -->
<g id="edge14" class="edge">
<title>Node4&#45;&gt;Node11</title>
<path fill="none" stroke="midnightblue" d="M512.85,-324.48C444.23,-313.26 324.21,-293.64 254.79,-282.29"/>
<polygon fill="midnightblue" stroke="midnightblue" points="254.94,-278.77 244.51,-280.61 253.81,-285.68 254.94,-278.77"/>
</g>
<!-- Node13 -->
<g id="node13" class="node">
<title>Node13</title>
<g id="a_node13"><a xlink:title=" ">
<polygon fill="white" stroke="#bfbfbf" points="415,-263 415,-282 463,-282 463,-263 415,-263"/>
<text text-anchor="middle" x="439" y="-270" font-family="Helvetica,sans-Serif" font-size="10.00">iosfwd</text>
</a>
</g>
</g>
<!-- Node4&#45;&gt;Node13 -->
<g id="edge18" class="edge">
<title>Node4&#45;&gt;Node13</title>
<path fill="none" stroke="midnightblue" d="M546.95,-324.48C525.8,-314.49 490.56,-297.85 466.12,-286.31"/>
<polygon fill="midnightblue" stroke="midnightblue" points="467.56,-283.11 457.02,-282.01 464.57,-289.44 467.56,-283.11"/>
</g>
<!-- Node14 -->
<g id="node14" class="node">
<title>Node14</title>
<g id="a_node14"><a xlink:title=" ">
<polygon fill="white" stroke="#bfbfbf" points="1036,-263 1036,-282 1080,-282 1080,-263 1036,-263"/>
<text text-anchor="middle" x="1058" y="-270" font-family="Helvetica,sans-Serif" font-size="10.00">string</text>
</a>
</g>
</g>
<!-- Node4&#45;&gt;Node14 -->
<g id="edge19" class="edge">
<title>Node4&#45;&gt;Node14</title>
<path fill="none" stroke="midnightblue" d="M624.06,-327.07C634.37,-326.04 645,-324.98 655,-324 820.31,-307.74 866.78,-331.82 1027,-288 1028.93,-287.47 1030.9,-286.83 1032.85,-286.11"/>
<polygon fill="midnightblue" stroke="midnightblue" points="1034.47,-289.23 1042.31,-282.1 1031.73,-282.78 1034.47,-289.23"/>
</g>
<!-- Node15 -->
<g id="node15" class="node">
<title>Node15</title>
<g id="a_node15"><a xlink:href="operation_return_values_8h.html" target="_top" xlink:title="Enumeration of values returned by operations within libSBML.">
<polygon fill="white" stroke="black" points="481,-257.5 481,-287.5 649,-287.5 649,-257.5 481,-257.5"/>
<text text-anchor="start" x="489" y="-275.5" font-family="Helvetica,sans-Serif" font-size="10.00">sbml/common/operationReturn</text>
<text text-anchor="middle" x="565" y="-264.5" font-family="Helvetica,sans-Serif" font-size="10.00">Values.h</text>
</a>
</g>
</g>
<!-- Node4&#45;&gt;Node15 -->
<g id="edge20" class="edge">
<title>Node4&#45;&gt;Node15</title>
<path fill="none" stroke="midnightblue" d="M565,-324.48C565,-317.47 565,-307.19 565,-297.7"/>
<polygon fill="midnightblue" stroke="midnightblue" points="568.5,-297.52 565,-287.52 561.5,-297.52 568.5,-297.52"/>
</g>
<!-- Node6&#45;&gt;Node3 -->
<g id="edge6" class="edge">
<title>Node6&#45;&gt;Node3</title>
<path fill="none" stroke="midnightblue" d="M881.81,-262.72C852.51,-226.98 741.67,-91.74 697.92,-38.36"/>
<polygon fill="midnightblue" stroke="midnightblue" points="700.54,-36.04 691.5,-30.53 695.13,-40.48 700.54,-36.04"/>
</g>
<!-- Node7&#45;&gt;Node3 -->
<g id="edge8" class="edge">
<title>Node7&#45;&gt;Node3</title>
<path fill="none" stroke="midnightblue" d="M735.04,-262.72C727.15,-227.42 697.56,-95.07 685.34,-40.38"/>
<polygon fill="midnightblue" stroke="midnightblue" points="688.73,-39.52 683.14,-30.53 681.9,-41.05 688.73,-39.52"/>
</g>
<!-- Node8 -->
<g id="node8" class="node">
<title>Node8</title>
<g id="a_node8"><a xlink:href="libsbml-config_8h.html" target="_top" xlink:title="Decides whether to #include Unix or Windows configuration variables.">
<polygon fill="white" stroke="black" points="482.5,-190.5 482.5,-220.5 607.5,-220.5 607.5,-190.5 482.5,-190.5"/>
<text text-anchor="start" x="490.5" y="-208.5" font-family="Helvetica,sans-Serif" font-size="10.00">sbml/common/libsbml</text>
<text text-anchor="middle" x="545" y="-197.5" font-family="Helvetica,sans-Serif" font-size="10.00">&#45;config.h</text>
</a>
</g>
</g>
<!-- Node7&#45;&gt;Node8 -->
<g id="edge9" class="edge">
<title>Node7&#45;&gt;Node8</title>
<path fill="none" stroke="midnightblue" d="M711.5,-262.87C682.19,-252.95 633.35,-236.41 596.12,-223.81"/>
<polygon fill="midnightblue" stroke="midnightblue" points="597.03,-220.42 586.44,-220.53 594.79,-227.05 597.03,-220.42"/>
</g>
<!-- Node8&#45;&gt;Node3 -->
<g id="edge10" class="edge">
<title>Node8&#45;&gt;Node3</title>
<path fill="none" stroke="midnightblue" d="M571.97,-190.3C586.77,-181.45 604.59,-168.9 617,-154 645.73,-119.5 664.19,-69.74 673.28,-40.5"/>
<polygon fill="midnightblue" stroke="midnightblue" points="676.69,-41.3 676.21,-30.72 669.98,-39.3 676.69,-41.3"/>
</g>
<!-- Node9 -->
<g id="node9" class="node">
<title>Node9</title>
<g id="a_node9"><a xlink:title=" ">
<polygon fill="white" stroke="#bfbfbf" points="482.5,-123.5 482.5,-153.5 607.5,-153.5 607.5,-123.5 482.5,-123.5"/>
<text text-anchor="start" x="490.5" y="-141.5" font-family="Helvetica,sans-Serif" font-size="10.00">sbml/common/libsbml</text>
<text text-anchor="middle" x="545" y="-130.5" font-family="Helvetica,sans-Serif" font-size="10.00">&#45;config&#45;common.h</text>
</a>
</g>
</g>
<!-- Node8&#45;&gt;Node9 -->
<g id="edge11" class="edge">
<title>Node8&#45;&gt;Node9</title>
<path fill="none" stroke="midnightblue" d="M545,-190.4C545,-182.64 545,-172.81 545,-163.86"/>
<polygon fill="midnightblue" stroke="midnightblue" points="548.5,-163.58 545,-153.58 541.5,-163.58 548.5,-163.58"/>
</g>
<!-- Node10 -->
<g id="node10" class="node">
<title>Node10</title>
<g id="a_node10"><a xlink:href="libsbml-version_8h.html" target="_top" xlink:title="Define libSBML version numbers for access from client software.">
<polygon fill="white" stroke="black" points="339.5,-123.5 339.5,-153.5 464.5,-153.5 464.5,-123.5 339.5,-123.5"/>
<text text-anchor="start" x="347.5" y="-141.5" font-family="Helvetica,sans-Serif" font-size="10.00">sbml/common/libsbml</text>
<text text-anchor="middle" x="402" y="-130.5" font-family="Helvetica,sans-Serif" font-size="10.00">&#45;version.h</text>
</a>
</g>
</g>
<!-- Node8&#45;&gt;Node10 -->
<g id="edge12" class="edge">
<title>Node8&#45;&gt;Node10</title>
<path fill="none" stroke="midnightblue" d="M513.97,-190.4C492.98,-180.86 465.06,-168.16 442.35,-157.84"/>
<polygon fill="midnightblue" stroke="midnightblue" points="443.52,-154.53 432.97,-153.58 440.62,-160.9 443.52,-154.53"/>
</g>
<!-- Node10&#45;&gt;Node2 -->
<g id="edge13" class="edge">
<title>Node10&#45;&gt;Node2</title>
<path fill="none" stroke="midnightblue" d="M391.34,-123.4C384.86,-114.84 376.57,-103.87 369.75,-94.86"/>
<polygon fill="midnightblue" stroke="midnightblue" points="372.37,-92.52 363.55,-86.66 366.79,-96.74 372.37,-92.52"/>
</g>
<!-- Node11&#45;&gt;Node2 -->
<g id="edge17" class="edge">
<title>Node11&#45;&gt;Node2</title>
<path fill="none" stroke="midnightblue" d="M201.88,-262.79C203.78,-247.16 209.36,-213.79 224,-190 251.24,-145.73 302.01,-110.35 332.33,-91.92"/>
<polygon fill="midnightblue" stroke="midnightblue" points="334.22,-94.87 341.03,-86.75 330.65,-88.85 334.22,-94.87"/>
</g>
<!-- Node11&#45;&gt;Node5 -->
<g id="edge15" class="edge">
<title>Node11&#45;&gt;Node5</title>
<path fill="none" stroke="midnightblue" d="M208.69,-262.73C217.66,-252.5 232.69,-235.36 243.8,-222.69"/>
<polygon fill="midnightblue" stroke="midnightblue" points="246.47,-224.95 250.43,-215.13 241.21,-220.34 246.47,-224.95"/>
</g>
<!-- Node12 -->
<g id="node12" class="node">
<title>Node12</title>
<g id="a_node12"><a xlink:title=" ">
<polygon fill="white" stroke="#bfbfbf" points="121,-196 121,-215 177,-215 177,-196 121,-196"/>
<text text-anchor="middle" x="149" y="-203" font-family="Helvetica,sans-Serif" font-size="10.00">stdarg.h</text>
</a>
</g>
</g>
<!-- Node11&#45;&gt;Node12 -->
<g id="edge16" class="edge">
<title>Node11&#45;&gt;Node12</title>
<path fill="none" stroke="midnightblue" d="M193.99,-262.73C185.88,-252.6 172.35,-235.69 162.24,-223.06"/>
<polygon fill="midnightblue" stroke="midnightblue" points="164.88,-220.75 155.9,-215.13 159.42,-225.12 164.88,-220.75"/>
</g>
<!-- Node15&#45;&gt;Node2 -->
<g id="edge21" class="edge">
<title>Node15&#45;&gt;Node2</title>
<path fill="none" stroke="midnightblue" d="M586.3,-257.38C597.73,-248.46 610.73,-235.84 617,-221 633.96,-180.88 645.05,-156.32 617,-123 593.74,-95.37 500.52,-84.71 432.33,-80.59"/>
<polygon fill="midnightblue" stroke="midnightblue" points="432.22,-77.08 422.04,-80.01 431.83,-84.07 432.22,-77.08"/>
</g>
<!-- Node16&#45;&gt;Node14 -->
<g id="edge35" class="edge">
<title>Node16&#45;&gt;Node14</title>
<path fill="none" stroke="midnightblue" d="M767.53,-384.95C821.08,-379.96 895.26,-368.83 956,-344 988.98,-330.52 1021.95,-305 1041.14,-288.65"/>
<polygon fill="midnightblue" stroke="midnightblue" points="1043.46,-291.26 1048.71,-282.06 1038.87,-285.98 1043.46,-291.26"/>
</g>
<!-- Node17 -->
<g id="node17" class="node">
<title>Node17</title>
<g id="a_node17"><a xlink:href="_x_m_l_namespaces_8h.html" target="_top" xlink:title="A list of XMLNamespace declarations (URI/prefix pairs)">
<polygon fill="white" stroke="black" points="789,-324.5 789,-343.5 947,-343.5 947,-324.5 789,-324.5"/>
<text text-anchor="middle" x="868" y="-331.5" font-family="Helvetica,sans-Serif" font-size="10.00">sbml/xml/XMLNamespaces.h</text>
</a>
</g>
</g>
<!-- Node16&#45;&gt;Node17 -->
<g id="edge23" class="edge">
<title>Node16&#45;&gt;Node17</title>
<path fill="none" stroke="midnightblue" d="M723.25,-380.44C752.44,-371.28 798.92,-356.69 831.31,-346.52"/>
<polygon fill="midnightblue" stroke="midnightblue" points="832.38,-349.85 840.87,-343.52 830.28,-343.17 832.38,-349.85"/>
</g>
<!-- Node19 -->
<g id="node19" class="node">
<title>Node19</title>
<g id="a_node19"><a xlink:href="common_8h.html" target="_top" xlink:title="Common functions and macros for C and C++.">
<polygon fill="white" stroke="black" points="221.5,-324.5 221.5,-343.5 362.5,-343.5 362.5,-324.5 221.5,-324.5"/>
<text text-anchor="middle" x="292" y="-331.5" font-family="Helvetica,sans-Serif" font-size="10.00">sbml/common/common.h</text>
</a>
</g>
</g>
<!-- Node16&#45;&gt;Node19 -->
<g id="edge29" class="edge">
<title>Node16&#45;&gt;Node19</title>
<path fill="none" stroke="midnightblue" d="M631.98,-380.44C559.59,-370.77 441.89,-355.04 365.72,-344.85"/>
<polygon fill="midnightblue" stroke="midnightblue" points="366.09,-341.37 355.72,-343.52 365.16,-348.31 366.09,-341.37"/>
</g>
<!-- Node21 -->
<g id="node21" class="node">
<title>Node21</title>
<g id="a_node21"><a xlink:title=" ">
<polygon fill="white" stroke="#bfbfbf" points="663.5,-324.5 663.5,-343.5 728.5,-343.5 728.5,-324.5 663.5,-324.5"/>
<text text-anchor="middle" x="696" y="-331.5" font-family="Helvetica,sans-Serif" font-size="10.00">stdexcept</text>
</a>
</g>
</g>
<!-- Node16&#45;&gt;Node21 -->
<g id="edge36" class="edge">
<title>Node16&#45;&gt;Node21</title>
<path fill="none" stroke="midnightblue" d="M696,-380.08C696,-373.01 696,-362.86 696,-353.99"/>
<polygon fill="midnightblue" stroke="midnightblue" points="699.5,-353.75 696,-343.75 692.5,-353.75 699.5,-353.75"/>
</g>
<!-- Node17&#45;&gt;Node6 -->
<g id="edge24" class="edge">
<title>Node17&#45;&gt;Node6</title>
<path fill="none" stroke="midnightblue" d="M871.01,-324.48C874.03,-315.9 878.79,-302.43 882.65,-291.48"/>
<polygon fill="midnightblue" stroke="midnightblue" points="885.97,-292.6 886,-282.01 879.37,-290.27 885.97,-292.6"/>
</g>
<!-- Node17&#45;&gt;Node7 -->
<g id="edge25" class="edge">
<title>Node17&#45;&gt;Node7</title>
<path fill="none" stroke="midnightblue" d="M849.23,-324.48C827.15,-314.45 790.28,-297.7 764.86,-286.15"/>
<polygon fill="midnightblue" stroke="midnightblue" points="766.29,-282.96 755.73,-282.01 763.39,-289.33 766.29,-282.96"/>
</g>
<!-- Node17&#45;&gt;Node14 -->
<g id="edge27" class="edge">
<title>Node17&#45;&gt;Node14</title>
<path fill="none" stroke="midnightblue" d="M904.53,-324.45C937.11,-316.41 985.87,-303.33 1027,-288 1028.43,-287.47 1029.88,-286.9 1031.34,-286.3"/>
<polygon fill="midnightblue" stroke="midnightblue" points="1033.08,-289.36 1040.83,-282.13 1030.27,-282.95 1033.08,-289.36"/>
</g>
<!-- Node17&#45;&gt;Node15 -->
<g id="edge26" class="edge">
<title>Node17&#45;&gt;Node15</title>
<path fill="none" stroke="midnightblue" d="M824.59,-324.48C778.28,-315.38 703.85,-300.77 646.54,-289.51"/>
<polygon fill="midnightblue" stroke="midnightblue" points="646.9,-286.02 636.41,-287.52 645.55,-292.88 646.9,-286.02"/>
</g>
<!-- Node18 -->
<g id="node18" class="node">
<title>Node18</title>
<g id="a_node18"><a xlink:title=" ">
<polygon fill="white" stroke="#bfbfbf" points="970.5,-263 970.5,-282 1017.5,-282 1017.5,-263 970.5,-263"/>
<text text-anchor="middle" x="994" y="-270" font-family="Helvetica,sans-Serif" font-size="10.00">vector</text>
</a>
</g>
</g>
<!-- Node17&#45;&gt;Node18 -->
<g id="edge28" class="edge">
<title>Node17&#45;&gt;Node18</title>
<path fill="none" stroke="midnightblue" d="M886.05,-324.48C907.2,-314.49 942.44,-297.85 966.88,-286.31"/>
<polygon fill="midnightblue" stroke="midnightblue" points="968.43,-289.44 975.98,-282.01 965.44,-283.11 968.43,-289.44"/>
</g>
<!-- Node19&#45;&gt;Node2 -->
<g id="edge32" class="edge">
<title>Node19&#45;&gt;Node2</title>
<path fill="none" stroke="midnightblue" d="M292.45,-324.3C294.22,-295 301.96,-197.56 330,-123 333.64,-113.32 339.37,-103.37 344.61,-95.3"/>
<polygon fill="midnightblue" stroke="midnightblue" points="347.65,-97.05 350.39,-86.81 341.87,-93.11 347.65,-97.05"/>
</g>
<!-- Node19&#45;&gt;Node5 -->
<g id="edge31" class="edge">
<title>Node19&#45;&gt;Node5</title>
<path fill="none" stroke="midnightblue" d="M289.66,-324.31C284.2,-303.99 270.51,-253.05 263.05,-225.28"/>
<polygon fill="midnightblue" stroke="midnightblue" points="266.33,-224 260.35,-215.26 259.57,-225.82 266.33,-224"/>
</g>
<!-- Node19&#45;&gt;Node8 -->
<g id="edge30" class="edge">
<title>Node19&#45;&gt;Node8</title>
<path fill="none" stroke="midnightblue" d="M303.09,-324.28C322.86,-309.04 365.88,-277.29 406,-257 432.11,-243.8 462.51,-232.34 488.21,-223.7"/>
<polygon fill="midnightblue" stroke="midnightblue" points="489.42,-226.98 497.82,-220.52 487.22,-220.34 489.42,-226.98"/>
</g>
<!-- Node19&#45;&gt;Node11 -->
<g id="edge34" class="edge">
<title>Node19&#45;&gt;Node11</title>
<path fill="none" stroke="midnightblue" d="M278.96,-324.48C264.23,-314.84 240.03,-299.02 222.49,-287.55"/>
<polygon fill="midnightblue" stroke="midnightblue" points="224.3,-284.55 214.01,-282.01 220.47,-290.41 224.3,-284.55"/>
</g>
<!-- Node20 -->
<g id="node20" class="node">
<title>Node20</title>
<g id="a_node20"><a xlink:href="memory_8h.html" target="_top" xlink:title=" ">
<polygon fill="white" stroke="black" points="28.5,-263 28.5,-282 139.5,-282 139.5,-263 28.5,-263"/>
<text text-anchor="middle" x="84" y="-270" font-family="Helvetica,sans-Serif" font-size="10.00">sbml/util/memory.h</text>
</a>
</g>
</g>
<!-- Node19&#45;&gt;Node20 -->
<g id="edge33" class="edge">
<title>Node19&#45;&gt;Node20</title>
<path fill="none" stroke="midnightblue" d="M262.2,-324.48C225.75,-314.05 163.92,-296.36 123.53,-284.81"/>
<polygon fill="midnightblue" stroke="midnightblue" points="124.32,-281.39 113.75,-282.01 122.4,-288.12 124.32,-281.39"/>
</g>
</g>
</svg>
