<?xml version="1.0" encoding="UTF-8" standalone="no"?>
<!DOCTYPE svg PUBLIC "-//W3C//DTD SVG 1.1//EN"
 "http://www.w3.org/Graphics/SVG/1.1/DTD/svg11.dtd">
<!-- Generated by graphviz version 2.43.0 (0)
 -->
<!-- Title: SBMLResolverRegistry.h Pages: 1 -->
<svg width="403pt" height="408pt"
 viewBox="0.00 0.00 403.00 408.00" xmlns="http://www.w3.org/2000/svg" xmlns:xlink="http://www.w3.org/1999/xlink">
<g id="graph0" class="graph" transform="scale(1 1) rotate(0) translate(4 404)">
<title>SBMLResolverRegistry.h</title>
<polygon fill="white" stroke="transparent" points="-4,4 -4,-404 399,-404 399,4 -4,4"/>
<!-- Node1 -->
<g id="node1" class="node">
<title>Node1</title>
<g id="a_node1"><a xlink:title="Definition of SBMLResolverRegistry, a registry of available resolvers.">
<polygon fill="#bfbfbf" stroke="black" points="169,-380.5 169,-399.5 303,-399.5 303,-380.5 169,-380.5"/>
<text text-anchor="middle" x="236" y="-387.5" font-family="Helvetica,sans-Serif" font-size="10.00">SBMLResolverRegistry.h</text>
</a>
</g>
</g>
<!-- Node2 -->
<g id="node2" class="node">
<title>Node2</title>
<g id="a_node2"><a xlink:href="sbmlfwd_8h.html" target="_top" xlink:title="Forward declarations for all opaque C types.">
<polygon fill="white" stroke="black" points="0,-257.5 0,-276.5 140,-276.5 140,-257.5 0,-257.5"/>
<text text-anchor="middle" x="70" y="-264.5" font-family="Helvetica,sans-Serif" font-size="10.00">sbml/common/sbmlfwd.h</text>
</a>
</g>
</g>
<!-- Node1&#45;&gt;Node2 -->
<g id="edge1" class="edge">
<title>Node1&#45;&gt;Node2</title>
<path fill="none" stroke="midnightblue" d="M168.6,-380.83C123.54,-373.82 70.03,-361.96 56,-344 43.01,-327.36 51.28,-302.47 59.58,-285.75"/>
<polygon fill="midnightblue" stroke="midnightblue" points="62.88,-287 64.56,-276.54 56.72,-283.67 62.88,-287"/>
</g>
<!-- Node8 -->
<g id="node8" class="node">
<title>Node8</title>
<g id="a_node8"><a xlink:href="_s_b_m_l_resolver_8h.html" target="_top" xlink:title="Definition of SBMLResolver, the base class for resolving SBML documents.">
<polygon fill="white" stroke="black" points="65.5,-313.5 65.5,-343.5 184.5,-343.5 184.5,-313.5 65.5,-313.5"/>
<text text-anchor="start" x="73.5" y="-331.5" font-family="Helvetica,sans-Serif" font-size="10.00">sbml/packages/comp</text>
<text text-anchor="middle" x="125" y="-320.5" font-family="Helvetica,sans-Serif" font-size="10.00">/util/SBMLResolver.h</text>
</a>
</g>
</g>
<!-- Node1&#45;&gt;Node8 -->
<g id="edge9" class="edge">
<title>Node1&#45;&gt;Node8</title>
<path fill="none" stroke="midnightblue" d="M220.1,-380.48C204.5,-372.12 180.2,-359.09 160.07,-348.3"/>
<polygon fill="midnightblue" stroke="midnightblue" points="161.63,-345.16 151.16,-343.52 158.32,-351.33 161.63,-345.16"/>
</g>
<!-- Node9 -->
<g id="node9" class="node">
<title>Node9</title>
<g id="a_node9"><a xlink:title=" ">
<polygon fill="white" stroke="#bfbfbf" points="174,-257.5 174,-276.5 218,-276.5 218,-257.5 174,-257.5"/>
<text text-anchor="middle" x="196" y="-264.5" font-family="Helvetica,sans-Serif" font-size="10.00">string</text>
</a>
</g>
</g>
<!-- Node1&#45;&gt;Node9 -->
<g id="edge14" class="edge">
<title>Node1&#45;&gt;Node9</title>
<path fill="none" stroke="midnightblue" d="M233.12,-380.3C226.64,-360.68 210.76,-312.64 202.01,-286.19"/>
<polygon fill="midnightblue" stroke="midnightblue" points="205.31,-285.02 198.85,-276.62 198.67,-287.22 205.31,-285.02"/>
</g>
<!-- Node10 -->
<g id="node10" class="node">
<title>Node10</title>
<g id="a_node10"><a xlink:title=" ">
<polygon fill="white" stroke="#bfbfbf" points="241,-319 241,-338 279,-338 279,-319 241,-319"/>
<text text-anchor="middle" x="260" y="-326" font-family="Helvetica,sans-Serif" font-size="10.00">map</text>
</a>
</g>
</g>
<!-- Node1&#45;&gt;Node10 -->
<g id="edge12" class="edge">
<title>Node1&#45;&gt;Node10</title>
<path fill="none" stroke="midnightblue" d="M239.44,-380.48C242.9,-371.9 248.33,-358.43 252.75,-347.48"/>
<polygon fill="midnightblue" stroke="midnightblue" points="256.07,-348.59 256.57,-338.01 249.58,-345.97 256.07,-348.59"/>
</g>
<!-- Node11 -->
<g id="node11" class="node">
<title>Node11</title>
<g id="a_node11"><a xlink:title=" ">
<polygon fill="white" stroke="#bfbfbf" points="297.5,-319 297.5,-338 344.5,-338 344.5,-319 297.5,-319"/>
<text text-anchor="middle" x="321" y="-326" font-family="Helvetica,sans-Serif" font-size="10.00">vector</text>
</a>
</g>
</g>
<!-- Node1&#45;&gt;Node11 -->
<g id="edge13" class="edge">
<title>Node1&#45;&gt;Node11</title>
<path fill="none" stroke="midnightblue" d="M248.18,-380.48C261.81,-370.93 284.13,-355.31 300.47,-343.87"/>
<polygon fill="midnightblue" stroke="midnightblue" points="302.66,-346.61 308.84,-338.01 298.64,-340.88 302.66,-346.61"/>
</g>
<!-- Node12 -->
<g id="node12" class="node">
<title>Node12</title>
<g id="a_node12"><a xlink:title=" ">
<polygon fill="white" stroke="#bfbfbf" points="363,-319 363,-338 395,-338 395,-319 363,-319"/>
<text text-anchor="middle" x="379" y="-326" font-family="Helvetica,sans-Serif" font-size="10.00">set</text>
</a>
</g>
</g>
<!-- Node1&#45;&gt;Node12 -->
<g id="edge15" class="edge">
<title>Node1&#45;&gt;Node12</title>
<path fill="none" stroke="midnightblue" d="M262.28,-380.34C286.54,-372.04 323.32,-358.63 354,-344 354.7,-343.67 355.4,-343.32 356.11,-342.97"/>
<polygon fill="midnightblue" stroke="midnightblue" points="358.08,-345.88 365.2,-338.04 354.74,-339.73 358.08,-345.88"/>
</g>
<!-- Node3 -->
<g id="node3" class="node">
<title>Node3</title>
<g id="a_node3"><a xlink:title=" ">
<polygon fill="white" stroke="#bfbfbf" points="0.5,-0.5 0.5,-30.5 125.5,-30.5 125.5,-0.5 0.5,-0.5"/>
<text text-anchor="start" x="8.5" y="-18.5" font-family="Helvetica,sans-Serif" font-size="10.00">sbml/common/libsbml</text>
<text text-anchor="middle" x="63" y="-7.5" font-family="Helvetica,sans-Serif" font-size="10.00">&#45;namespace.h</text>
</a>
</g>
</g>
<!-- Node2&#45;&gt;Node3 -->
<g id="edge2" class="edge">
<title>Node2&#45;&gt;Node3</title>
<path fill="none" stroke="midnightblue" d="M68.34,-257.41C66.67,-248.39 64.18,-233.75 63,-221 56.7,-152.82 56.29,-135.41 59,-67 59.34,-58.45 60,-49.09 60.69,-40.79"/>
<polygon fill="midnightblue" stroke="midnightblue" points="64.19,-40.9 61.58,-30.63 57.22,-40.29 64.19,-40.9"/>
</g>
<!-- Node4 -->
<g id="node4" class="node">
<title>Node4</title>
<g id="a_node4"><a xlink:href="libsbml-config_8h.html" target="_top" xlink:title="Decides whether to #include Unix or Windows configuration variables.">
<polygon fill="white" stroke="black" points="72.5,-190.5 72.5,-220.5 197.5,-220.5 197.5,-190.5 72.5,-190.5"/>
<text text-anchor="start" x="80.5" y="-208.5" font-family="Helvetica,sans-Serif" font-size="10.00">sbml/common/libsbml</text>
<text text-anchor="middle" x="135" y="-197.5" font-family="Helvetica,sans-Serif" font-size="10.00">&#45;config.h</text>
</a>
</g>
</g>
<!-- Node2&#45;&gt;Node4 -->
<g id="edge3" class="edge">
<title>Node2&#45;&gt;Node4</title>
<path fill="none" stroke="midnightblue" d="M79.31,-257.48C87.87,-249.64 100.9,-237.71 112.21,-227.37"/>
<polygon fill="midnightblue" stroke="midnightblue" points="114.67,-229.86 119.68,-220.52 109.94,-224.69 114.67,-229.86"/>
</g>
<!-- Node4&#45;&gt;Node3 -->
<g id="edge4" class="edge">
<title>Node4&#45;&gt;Node3</title>
<path fill="none" stroke="midnightblue" d="M114.33,-190.32C102.87,-181.3 89.48,-168.59 82,-154 63.47,-117.84 61.11,-69.66 61.65,-40.98"/>
<polygon fill="midnightblue" stroke="midnightblue" points="65.16,-40.78 61.99,-30.67 58.17,-40.55 65.16,-40.78"/>
</g>
<!-- Node5 -->
<g id="node5" class="node">
<title>Node5</title>
<g id="a_node5"><a xlink:title=" ">
<polygon fill="white" stroke="#bfbfbf" points="91.5,-123.5 91.5,-153.5 216.5,-153.5 216.5,-123.5 91.5,-123.5"/>
<text text-anchor="start" x="99.5" y="-141.5" font-family="Helvetica,sans-Serif" font-size="10.00">sbml/common/libsbml</text>
<text text-anchor="middle" x="154" y="-130.5" font-family="Helvetica,sans-Serif" font-size="10.00">&#45;config&#45;common.h</text>
</a>
</g>
</g>
<!-- Node4&#45;&gt;Node5 -->
<g id="edge5" class="edge">
<title>Node4&#45;&gt;Node5</title>
<path fill="none" stroke="midnightblue" d="M139.12,-190.4C141.44,-182.47 144.39,-172.38 147.05,-163.27"/>
<polygon fill="midnightblue" stroke="midnightblue" points="150.44,-164.16 149.89,-153.58 143.72,-162.19 150.44,-164.16"/>
</g>
<!-- Node6 -->
<g id="node6" class="node">
<title>Node6</title>
<g id="a_node6"><a xlink:href="libsbml-version_8h.html" target="_top" xlink:title="Define libSBML version numbers for access from client software.">
<polygon fill="white" stroke="black" points="234.5,-123.5 234.5,-153.5 359.5,-153.5 359.5,-123.5 234.5,-123.5"/>
<text text-anchor="start" x="242.5" y="-141.5" font-family="Helvetica,sans-Serif" font-size="10.00">sbml/common/libsbml</text>
<text text-anchor="middle" x="297" y="-130.5" font-family="Helvetica,sans-Serif" font-size="10.00">&#45;version.h</text>
</a>
</g>
</g>
<!-- Node4&#45;&gt;Node6 -->
<g id="edge6" class="edge">
<title>Node4&#45;&gt;Node6</title>
<path fill="none" stroke="midnightblue" d="M170.15,-190.4C194.25,-180.73 226.41,-167.82 252.32,-157.43"/>
<polygon fill="midnightblue" stroke="midnightblue" points="253.94,-160.55 261.92,-153.58 251.33,-154.05 253.94,-160.55"/>
</g>
<!-- Node7 -->
<g id="node7" class="node">
<title>Node7</title>
<g id="a_node7"><a xlink:href="extern_8h.html" target="_top" xlink:title="Definitions of LIBSBML_EXTERN and related things.">
<polygon fill="white" stroke="black" points="161,-67.5 161,-86.5 291,-86.5 291,-67.5 161,-67.5"/>
<text text-anchor="middle" x="226" y="-74.5" font-family="Helvetica,sans-Serif" font-size="10.00">sbml/common/extern.h</text>
</a>
</g>
</g>
<!-- Node6&#45;&gt;Node7 -->
<g id="edge7" class="edge">
<title>Node6&#45;&gt;Node7</title>
<path fill="none" stroke="midnightblue" d="M280.17,-123.4C269.33,-114.31 255.22,-102.49 244.13,-93.19"/>
<polygon fill="midnightblue" stroke="midnightblue" points="246.24,-90.4 236.33,-86.66 241.75,-95.76 246.24,-90.4"/>
</g>
<!-- Node7&#45;&gt;Node3 -->
<g id="edge8" class="edge">
<title>Node7&#45;&gt;Node3</title>
<path fill="none" stroke="midnightblue" d="M202.65,-67.48C178.82,-58.78 141.15,-45.03 110.94,-34"/>
<polygon fill="midnightblue" stroke="midnightblue" points="112.01,-30.66 101.42,-30.52 109.61,-37.24 112.01,-30.66"/>
</g>
<!-- Node8&#45;&gt;Node2 -->
<g id="edge10" class="edge">
<title>Node8&#45;&gt;Node2</title>
<path fill="none" stroke="midnightblue" d="M111.97,-313.4C103.81,-304.58 93.28,-293.18 84.81,-284.02"/>
<polygon fill="midnightblue" stroke="midnightblue" points="87.36,-281.63 78,-276.66 82.22,-286.38 87.36,-281.63"/>
</g>
<!-- Node8&#45;&gt;Node9 -->
<g id="edge11" class="edge">
<title>Node8&#45;&gt;Node9</title>
<path fill="none" stroke="midnightblue" d="M141.83,-313.4C152.67,-304.31 166.78,-292.49 177.87,-283.19"/>
<polygon fill="midnightblue" stroke="midnightblue" points="180.25,-285.76 185.67,-276.66 175.76,-280.4 180.25,-285.76"/>
</g>
</g>
</svg>
