<?xml version="1.0" encoding="UTF-8" standalone="no"?>
<!DOCTYPE svg PUBLIC "-//W3C//DTD SVG 1.1//EN"
 "http://www.w3.org/Graphics/SVG/1.1/DTD/svg11.dtd">
<!-- Generated by graphviz version 2.43.0 (0)
 -->
<!-- Title: SBMLErrorLog.h Pages: 1 -->
<!--zoomable 520 -->
<svg id="main" version="1.1" xmlns="http://www.w3.org/2000/svg" xmlns:xlink="http://www.w3.org/1999/xlink" xml:space="preserve" onload="init(evt)">
<style type="text/css"><![CDATA[
.edge:hover path { stroke: red; }
.edge:hover polygon { stroke: red; fill: red; }
]]></style>
<script type="text/javascript"><![CDATA[
var edges = document.getElementsByTagName('g');
if (edges && edges.length) {
  for (var i=0;i<edges.length;i++) {
    if (edges[i].id.substr(0,4)=='edge') {
      edges[i].setAttribute('class','edge');
    }
  }
}
]]></script>
        <defs>
                <circle id="rim" cx="0" cy="0" r="7"/>
                <circle id="rim2" cx="0" cy="0" r="3.5"/>
                <g id="zoomPlus">
                        <use xlink:href="#rim" fill="#404040">
                                <set attributeName="fill" to="#808080" begin="zoomplus.mouseover" end="zoomplus.mouseout"/>
                        </use>
                        <path d="M-4,0h8M0,-4v8" fill="none" stroke="white" stroke-width="1.5" pointer-events="none"/>
                </g>
                <g id="zoomMin">
                        <use xlink:href="#rim" fill="#404040">
                                <set attributeName="fill" to="#808080" begin="zoomminus.mouseover" end="zoomminus.mouseout"/>
                        </use>
                        <path d="M-4,0h8" fill="none" stroke="white" stroke-width="1.5" pointer-events="none"/>
                </g>
                <g id="dirArrow">
                        <path fill="none" stroke="white" stroke-width="1.5" d="M0,-3.0v7 M-2.5,-0.5L0,-3.0L2.5,-0.5"/>
                </g>
               <g id="resetDef">
                       <use xlink:href="#rim2" fill="#404040">
                               <set attributeName="fill" to="#808080" begin="reset.mouseover" end="reset.mouseout"/>
                       </use>
               </g>
        </defs>

<script type="text/javascript">
var viewWidth = 1126;
var viewHeight = 520;
var sectionId = 'dynsection-0';
</script>
<script xlink:href="svgpan.js"/>
<svg id="graph" class="graph">
<g id="viewport">
<title>SBMLErrorLog.h</title>
<polygon fill="white" stroke="transparent" points="-4,4 -4,-516 1121.5,-516 1121.5,4 -4,4"/>
<!-- Node1 -->
<g id="node1" class="node">
<title>Node1</title>
<g id="a_node1"><a xlink:title="Stores errors (and messages) encountered while processing SBML.">
<polygon fill="#bfbfbf" stroke="black" points="498.5,-492.5 498.5,-511.5 591.5,-511.5 591.5,-492.5 498.5,-492.5"/>
<text text-anchor="middle" x="545" y="-499.5" font-family="Helvetica,sans-Serif" font-size="10.00">SBMLErrorLog.h</text>
</a>
</g>
</g>
<!-- Node2 -->
<g id="node2" class="node">
<title>Node2</title>
<g id="a_node2"><a xlink:href="extern_8h.html" target="_top" xlink:title="Definitions of LIBSBML_EXTERN and related things.">
<polygon fill="white" stroke="black" points="221,-67.5 221,-86.5 351,-86.5 351,-67.5 221,-67.5"/>
<text text-anchor="middle" x="286" y="-74.5" font-family="Helvetica,sans-Serif" font-size="10.00">sbml/common/extern.h</text>
</a>
</g>
</g>
<!-- Node1&#45;&gt;Node2 -->
<g id="edge1" class="edge">
<title>Node1&#45;&gt;Node2</title>
<path fill="none" stroke="midnightblue" d="M498.06,-501.44C365.86,-501.42 0,-492.23 0,-391 0,-391 0,-391 0,-204.5 0,-112.29 125.89,-86.75 210.63,-80.01"/>
<polygon fill="midnightblue" stroke="midnightblue" points="211.02,-83.49 220.74,-79.27 210.52,-76.5 211.02,-83.49"/>
</g>
<!-- Node4 -->
<g id="node4" class="node">
<title>Node4</title>
<g id="a_node4"><a xlink:href="_x_m_l_error_8h.html" target="_top" xlink:title="Represents errors (and messages) encountered during an XML parse.">
<polygon fill="white" stroke="black" points="480,-324.5 480,-343.5 598,-343.5 598,-324.5 480,-324.5"/>
<text text-anchor="middle" x="539" y="-331.5" font-family="Helvetica,sans-Serif" font-size="10.00">sbml/xml/XMLError.h</text>
</a>
</g>
</g>
<!-- Node1&#45;&gt;Node4 -->
<g id="edge3" class="edge">
<title>Node1&#45;&gt;Node4</title>
<path fill="none" stroke="midnightblue" d="M544.68,-492.08C543.73,-465.95 540.96,-389.21 539.67,-353.58"/>
<polygon fill="midnightblue" stroke="midnightblue" points="543.17,-353.44 539.31,-343.57 536.17,-353.69 543.17,-353.44"/>
</g>
<!-- Node16 -->
<g id="node16" class="node">
<title>Node16</title>
<g id="a_node16"><a xlink:href="_x_m_l_error_log_8h.html" target="_top" xlink:title="Stores errors (and messages) encountered while processing XML.">
<polygon fill="white" stroke="black" points="762,-380.5 762,-399.5 898,-399.5 898,-380.5 762,-380.5"/>
<text text-anchor="middle" x="830" y="-387.5" font-family="Helvetica,sans-Serif" font-size="10.00">sbml/xml/XMLErrorLog.h</text>
</a>
</g>
</g>
<!-- Node1&#45;&gt;Node16 -->
<g id="edge22" class="edge">
<title>Node1&#45;&gt;Node16</title>
<path fill="none" stroke="midnightblue" d="M567.36,-492.37C617.73,-472.93 740.16,-425.67 798.32,-403.23"/>
<polygon fill="midnightblue" stroke="midnightblue" points="799.67,-406.46 807.74,-399.59 797.15,-399.93 799.67,-406.46"/>
</g>
<!-- Node18 -->
<g id="node18" class="node">
<title>Node18</title>
<g id="a_node18"><a xlink:title=" ">
<polygon fill="white" stroke="#bfbfbf" points="1070.5,-263 1070.5,-282 1117.5,-282 1117.5,-263 1070.5,-263"/>
<text text-anchor="middle" x="1094" y="-270" font-family="Helvetica,sans-Serif" font-size="10.00">vector</text>
</a>
</g>
</g>
<!-- Node1&#45;&gt;Node18 -->
<g id="edge48" class="edge">
<title>Node1&#45;&gt;Node18</title>
<path fill="none" stroke="midnightblue" d="M591.81,-495.16C682.8,-481.91 886.71,-442.65 1025,-344 1046.68,-328.54 1067.48,-305.85 1080.47,-290.42"/>
<polygon fill="midnightblue" stroke="midnightblue" points="1083.51,-292.23 1087.16,-282.28 1078.11,-287.78 1083.51,-292.23"/>
</g>
<!-- Node20 -->
<g id="node20" class="node">
<title>Node20</title>
<g id="a_node20"><a xlink:href="_s_b_m_l_error_8h.html" target="_top" xlink:title="Represents SBML errors and other diagnostics.">
<polygon fill="white" stroke="black" points="385,-436.5 385,-455.5 487,-455.5 487,-436.5 385,-436.5"/>
<text text-anchor="middle" x="436" y="-443.5" font-family="Helvetica,sans-Serif" font-size="10.00">sbml/SBMLError.h</text>
</a>
</g>
</g>
<!-- Node1&#45;&gt;Node20 -->
<g id="edge30" class="edge">
<title>Node1&#45;&gt;Node20</title>
<path fill="none" stroke="midnightblue" d="M527.49,-492.32C509.93,-483.62 482.67,-470.12 462.47,-460.11"/>
<polygon fill="midnightblue" stroke="midnightblue" points="463.98,-456.96 453.47,-455.65 460.88,-463.23 463.98,-456.96"/>
</g>
<!-- Node3 -->
<g id="node3" class="node">
<title>Node3</title>
<g id="a_node3"><a xlink:title=" ">
<polygon fill="white" stroke="#bfbfbf" points="751.5,-0.5 751.5,-30.5 876.5,-30.5 876.5,-0.5 751.5,-0.5"/>
<text text-anchor="start" x="759.5" y="-18.5" font-family="Helvetica,sans-Serif" font-size="10.00">sbml/common/libsbml</text>
<text text-anchor="middle" x="814" y="-7.5" font-family="Helvetica,sans-Serif" font-size="10.00">&#45;namespace.h</text>
</a>
</g>
</g>
<!-- Node2&#45;&gt;Node3 -->
<g id="edge2" class="edge">
<title>Node2&#45;&gt;Node3</title>
<path fill="none" stroke="midnightblue" d="M351.01,-68.67C449.98,-57.52 637.82,-36.35 741.22,-24.7"/>
<polygon fill="midnightblue" stroke="midnightblue" points="741.72,-28.17 751.27,-23.57 740.94,-21.21 741.72,-28.17"/>
</g>
<!-- Node5 -->
<g id="node5" class="node">
<title>Node5</title>
<g id="a_node5"><a xlink:title=" ">
<polygon fill="white" stroke="#bfbfbf" points="324,-196 324,-215 374,-215 374,-196 324,-196"/>
<text text-anchor="middle" x="349" y="-203" font-family="Helvetica,sans-Serif" font-size="10.00">stdio.h</text>
</a>
</g>
</g>
<!-- Node4&#45;&gt;Node5 -->
<g id="edge4" class="edge">
<title>Node4&#45;&gt;Node5</title>
<path fill="none" stroke="midnightblue" d="M532.88,-324.37C521.61,-309 496.11,-276.66 468,-257 442.14,-238.91 408.78,-225.46 383.97,-217"/>
<polygon fill="midnightblue" stroke="midnightblue" points="384.83,-213.6 374.24,-213.8 382.64,-220.25 384.83,-213.6"/>
</g>
<!-- Node6 -->
<g id="node6" class="node">
<title>Node6</title>
<g id="a_node6"><a xlink:href="_x_m_l_extern_8h.html" target="_top" xlink:title="Defines LIBLAX_EXTERN.">
<polygon fill="white" stroke="black" points="925.5,-263 925.5,-282 1052.5,-282 1052.5,-263 925.5,-263"/>
<text text-anchor="middle" x="989" y="-270" font-family="Helvetica,sans-Serif" font-size="10.00">sbml/xml/XMLExtern.h</text>
</a>
</g>
</g>
<!-- Node4&#45;&gt;Node6 -->
<g id="edge5" class="edge">
<title>Node4&#45;&gt;Node6</title>
<path fill="none" stroke="midnightblue" d="M598.33,-325.09C601.26,-324.72 604.16,-324.35 607,-324 744.2,-306.93 779.42,-309.49 916,-288 923.46,-286.83 931.31,-285.43 938.99,-283.98"/>
<polygon fill="midnightblue" stroke="midnightblue" points="939.79,-287.39 948.94,-282.06 938.46,-280.52 939.79,-287.39"/>
</g>
<!-- Node7 -->
<g id="node7" class="node">
<title>Node7</title>
<g id="a_node7"><a xlink:href="sbmlfwd_8h.html" target="_top" xlink:title="Forward declarations for all opaque C types.">
<polygon fill="white" stroke="black" points="767,-263 767,-282 907,-282 907,-263 767,-263"/>
<text text-anchor="middle" x="837" y="-270" font-family="Helvetica,sans-Serif" font-size="10.00">sbml/common/sbmlfwd.h</text>
</a>
</g>
</g>
<!-- Node4&#45;&gt;Node7 -->
<g id="edge7" class="edge">
<title>Node4&#45;&gt;Node7</title>
<path fill="none" stroke="midnightblue" d="M581.7,-324.48C635.14,-313.8 726.65,-295.53 784.37,-284.01"/>
<polygon fill="midnightblue" stroke="midnightblue" points="785.26,-287.4 794.38,-282.01 783.89,-280.53 785.26,-287.4"/>
</g>
<!-- Node11 -->
<g id="node11" class="node">
<title>Node11</title>
<g id="a_node11"><a xlink:href="util_8h.html" target="_top" xlink:title="Utility functions.">
<polygon fill="white" stroke="black" points="233.5,-263 233.5,-282 320.5,-282 320.5,-263 233.5,-263"/>
<text text-anchor="middle" x="277" y="-270" font-family="Helvetica,sans-Serif" font-size="10.00">sbml/util/util.h</text>
</a>
</g>
</g>
<!-- Node4&#45;&gt;Node11 -->
<g id="edge14" class="edge">
<title>Node4&#45;&gt;Node11</title>
<path fill="none" stroke="midnightblue" d="M501.46,-324.48C454.77,-313.87 375.02,-295.76 324.22,-284.22"/>
<polygon fill="midnightblue" stroke="midnightblue" points="325,-280.81 314.47,-282.01 323.45,-287.64 325,-280.81"/>
</g>
<!-- Node13 -->
<g id="node13" class="node">
<title>Node13</title>
<g id="a_node13"><a xlink:title=" ">
<polygon fill="white" stroke="#bfbfbf" points="515,-263 515,-282 563,-282 563,-263 515,-263"/>
<text text-anchor="middle" x="539" y="-270" font-family="Helvetica,sans-Serif" font-size="10.00">iosfwd</text>
</a>
</g>
</g>
<!-- Node4&#45;&gt;Node13 -->
<g id="edge18" class="edge">
<title>Node4&#45;&gt;Node13</title>
<path fill="none" stroke="midnightblue" d="M539,-324.48C539,-316.08 539,-302.98 539,-292.16"/>
<polygon fill="midnightblue" stroke="midnightblue" points="542.5,-292.01 539,-282.01 535.5,-292.01 542.5,-292.01"/>
</g>
<!-- Node14 -->
<g id="node14" class="node">
<title>Node14</title>
<g id="a_node14"><a xlink:title=" ">
<polygon fill="white" stroke="#bfbfbf" points="415,-263 415,-282 459,-282 459,-263 415,-263"/>
<text text-anchor="middle" x="437" y="-270" font-family="Helvetica,sans-Serif" font-size="10.00">string</text>
</a>
</g>
</g>
<!-- Node4&#45;&gt;Node14 -->
<g id="edge19" class="edge">
<title>Node4&#45;&gt;Node14</title>
<path fill="none" stroke="midnightblue" d="M524.39,-324.48C507.65,-314.71 480,-298.58 460.28,-287.08"/>
<polygon fill="midnightblue" stroke="midnightblue" points="461.99,-284.02 451.59,-282.01 458.46,-290.07 461.99,-284.02"/>
</g>
<!-- Node15 -->
<g id="node15" class="node">
<title>Node15</title>
<g id="a_node15"><a xlink:href="operation_return_values_8h.html" target="_top" xlink:title="Enumeration of values returned by operations within libSBML.">
<polygon fill="white" stroke="black" points="581,-257.5 581,-287.5 749,-287.5 749,-257.5 581,-257.5"/>
<text text-anchor="start" x="589" y="-275.5" font-family="Helvetica,sans-Serif" font-size="10.00">sbml/common/operationReturn</text>
<text text-anchor="middle" x="665" y="-264.5" font-family="Helvetica,sans-Serif" font-size="10.00">Values.h</text>
</a>
</g>
</g>
<!-- Node4&#45;&gt;Node15 -->
<g id="edge20" class="edge">
<title>Node4&#45;&gt;Node15</title>
<path fill="none" stroke="midnightblue" d="M557.05,-324.48C574.99,-316 603.09,-302.74 626.11,-291.86"/>
<polygon fill="midnightblue" stroke="midnightblue" points="627.76,-294.96 635.3,-287.52 624.77,-288.63 627.76,-294.96"/>
</g>
<!-- Node6&#45;&gt;Node3 -->
<g id="edge6" class="edge">
<title>Node6&#45;&gt;Node3</title>
<path fill="none" stroke="midnightblue" d="M982.98,-262.72C958.55,-227.12 866.4,-92.86 829.46,-39.03"/>
<polygon fill="midnightblue" stroke="midnightblue" points="832.17,-36.79 823.63,-30.53 826.4,-40.75 832.17,-36.79"/>
</g>
<!-- Node7&#45;&gt;Node3 -->
<g id="edge8" class="edge">
<title>Node7&#45;&gt;Node3</title>
<path fill="none" stroke="midnightblue" d="M836.21,-262.72C833.03,-227.49 821.14,-95.62 816.18,-40.72"/>
<polygon fill="midnightblue" stroke="midnightblue" points="819.65,-40.17 815.27,-30.53 812.68,-40.8 819.65,-40.17"/>
</g>
<!-- Node8 -->
<g id="node8" class="node">
<title>Node8</title>
<g id="a_node8"><a xlink:href="libsbml-config_8h.html" target="_top" xlink:title="Decides whether to #include Unix or Windows configuration variables.">
<polygon fill="white" stroke="black" points="636.5,-190.5 636.5,-220.5 761.5,-220.5 761.5,-190.5 636.5,-190.5"/>
<text text-anchor="start" x="644.5" y="-208.5" font-family="Helvetica,sans-Serif" font-size="10.00">sbml/common/libsbml</text>
<text text-anchor="middle" x="699" y="-197.5" font-family="Helvetica,sans-Serif" font-size="10.00">&#45;config.h</text>
</a>
</g>
</g>
<!-- Node7&#45;&gt;Node8 -->
<g id="edge9" class="edge">
<title>Node7&#45;&gt;Node8</title>
<path fill="none" stroke="midnightblue" d="M818.67,-262.87C798.24,-253.24 764.58,-237.39 738.15,-224.94"/>
<polygon fill="midnightblue" stroke="midnightblue" points="739.32,-221.62 728.78,-220.53 736.34,-227.96 739.32,-221.62"/>
</g>
<!-- Node8&#45;&gt;Node3 -->
<g id="edge10" class="edge">
<title>Node8&#45;&gt;Node3</title>
<path fill="none" stroke="midnightblue" d="M727.42,-190.47C742.31,-181.81 759.74,-169.41 771,-154 796.13,-119.62 806.85,-70.16 811.22,-40.87"/>
<polygon fill="midnightblue" stroke="midnightblue" points="814.72,-41.09 812.59,-30.71 807.78,-40.15 814.72,-41.09"/>
</g>
<!-- Node9 -->
<g id="node9" class="node">
<title>Node9</title>
<g id="a_node9"><a xlink:title=" ">
<polygon fill="white" stroke="#bfbfbf" points="636.5,-123.5 636.5,-153.5 761.5,-153.5 761.5,-123.5 636.5,-123.5"/>
<text text-anchor="start" x="644.5" y="-141.5" font-family="Helvetica,sans-Serif" font-size="10.00">sbml/common/libsbml</text>
<text text-anchor="middle" x="699" y="-130.5" font-family="Helvetica,sans-Serif" font-size="10.00">&#45;config&#45;common.h</text>
</a>
</g>
</g>
<!-- Node8&#45;&gt;Node9 -->
<g id="edge11" class="edge">
<title>Node8&#45;&gt;Node9</title>
<path fill="none" stroke="midnightblue" d="M699,-190.4C699,-182.64 699,-172.81 699,-163.86"/>
<polygon fill="midnightblue" stroke="midnightblue" points="702.5,-163.58 699,-153.58 695.5,-163.58 702.5,-163.58"/>
</g>
<!-- Node10 -->
<g id="node10" class="node">
<title>Node10</title>
<g id="a_node10"><a xlink:href="libsbml-version_8h.html" target="_top" xlink:title="Define libSBML version numbers for access from client software.">
<polygon fill="white" stroke="black" points="484.5,-123.5 484.5,-153.5 609.5,-153.5 609.5,-123.5 484.5,-123.5"/>
<text text-anchor="start" x="492.5" y="-141.5" font-family="Helvetica,sans-Serif" font-size="10.00">sbml/common/libsbml</text>
<text text-anchor="middle" x="547" y="-130.5" font-family="Helvetica,sans-Serif" font-size="10.00">&#45;version.h</text>
</a>
</g>
</g>
<!-- Node8&#45;&gt;Node10 -->
<g id="edge12" class="edge">
<title>Node8&#45;&gt;Node10</title>
<path fill="none" stroke="midnightblue" d="M666.02,-190.4C643.51,-180.77 613.5,-167.94 589.24,-157.56"/>
<polygon fill="midnightblue" stroke="midnightblue" points="590.49,-154.29 579.92,-153.58 587.74,-160.73 590.49,-154.29"/>
</g>
<!-- Node10&#45;&gt;Node2 -->
<g id="edge13" class="edge">
<title>Node10&#45;&gt;Node2</title>
<path fill="none" stroke="midnightblue" d="M485.48,-123.47C438.88,-112.85 375.81,-98.47 333.16,-88.75"/>
<polygon fill="midnightblue" stroke="midnightblue" points="333.84,-85.32 323.31,-86.51 332.29,-92.14 333.84,-85.32"/>
</g>
<!-- Node11&#45;&gt;Node2 -->
<g id="edge17" class="edge">
<title>Node11&#45;&gt;Node2</title>
<path fill="none" stroke="midnightblue" d="M277.4,-262.94C278.75,-233.79 283.21,-137.97 285.12,-96.93"/>
<polygon fill="midnightblue" stroke="midnightblue" points="288.62,-97.06 285.59,-86.91 281.62,-96.73 288.62,-97.06"/>
</g>
<!-- Node11&#45;&gt;Node5 -->
<g id="edge15" class="edge">
<title>Node11&#45;&gt;Node5</title>
<path fill="none" stroke="midnightblue" d="M286.71,-262.73C298.26,-252.31 317.75,-234.71 331.86,-221.97"/>
<polygon fill="midnightblue" stroke="midnightblue" points="334.37,-224.43 339.44,-215.13 329.68,-219.23 334.37,-224.43"/>
</g>
<!-- Node12 -->
<g id="node12" class="node">
<title>Node12</title>
<g id="a_node12"><a xlink:title=" ">
<polygon fill="white" stroke="#bfbfbf" points="202,-196 202,-215 258,-215 258,-196 202,-196"/>
<text text-anchor="middle" x="230" y="-203" font-family="Helvetica,sans-Serif" font-size="10.00">stdarg.h</text>
</a>
</g>
</g>
<!-- Node11&#45;&gt;Node12 -->
<g id="edge16" class="edge">
<title>Node11&#45;&gt;Node12</title>
<path fill="none" stroke="midnightblue" d="M270.66,-262.73C263.4,-252.7 251.34,-236.01 242.24,-223.42"/>
<polygon fill="midnightblue" stroke="midnightblue" points="244.93,-221.18 236.24,-215.13 239.26,-225.28 244.93,-221.18"/>
</g>
<!-- Node15&#45;&gt;Node2 -->
<g id="edge21" class="edge">
<title>Node15&#45;&gt;Node2</title>
<path fill="none" stroke="midnightblue" d="M637.44,-257.43C566.98,-221.45 380.97,-126.49 312.12,-91.33"/>
<polygon fill="midnightblue" stroke="midnightblue" points="313.33,-88.03 302.84,-86.6 310.15,-94.26 313.33,-88.03"/>
</g>
<!-- Node16&#45;&gt;Node4 -->
<g id="edge24" class="edge">
<title>Node16&#45;&gt;Node4</title>
<path fill="none" stroke="midnightblue" d="M783.89,-380.44C732.59,-370.92 649.73,-355.55 594.81,-345.36"/>
<polygon fill="midnightblue" stroke="midnightblue" points="595.36,-341.9 584.89,-343.52 594.09,-348.78 595.36,-341.9"/>
</g>
<!-- Node16&#45;&gt;Node6 -->
<g id="edge23" class="edge">
<title>Node16&#45;&gt;Node6</title>
<path fill="none" stroke="midnightblue" d="M840.7,-380.35C856.5,-367.68 887.09,-343.44 914,-324 931.6,-311.29 952.07,-297.57 967.18,-287.65"/>
<polygon fill="midnightblue" stroke="midnightblue" points="969.36,-290.4 975.81,-282 965.53,-284.54 969.36,-290.4"/>
</g>
<!-- Node16&#45;&gt;Node7 -->
<g id="edge25" class="edge">
<title>Node16&#45;&gt;Node7</title>
<path fill="none" stroke="midnightblue" d="M830.6,-380.37C831.22,-371.32 832.22,-356.66 833,-344 834.08,-326.43 835.21,-306.39 835.99,-292.17"/>
<polygon fill="midnightblue" stroke="midnightblue" points="839.49,-292.36 836.53,-282.18 832.5,-291.98 839.49,-292.36"/>
</g>
<!-- Node16&#45;&gt;Node14 -->
<g id="edge27" class="edge">
<title>Node16&#45;&gt;Node14</title>
<path fill="none" stroke="midnightblue" d="M761.82,-388.07C670.92,-385.56 516.21,-376.48 471,-344 453.96,-331.76 445.11,-308.64 440.77,-292.22"/>
<polygon fill="midnightblue" stroke="midnightblue" points="444.1,-291.09 438.43,-282.14 437.28,-292.67 444.1,-291.09"/>
</g>
<!-- Node17 -->
<g id="node17" class="node">
<title>Node17</title>
<g id="a_node17"><a xlink:title=" ">
<polygon fill="white" stroke="#bfbfbf" points="956,-324.5 956,-343.5 1016,-343.5 1016,-324.5 956,-324.5"/>
<text text-anchor="middle" x="986" y="-331.5" font-family="Helvetica,sans-Serif" font-size="10.00">iostream</text>
</a>
</g>
</g>
<!-- Node16&#45;&gt;Node17 -->
<g id="edge26" class="edge">
<title>Node16&#45;&gt;Node17</title>
<path fill="none" stroke="midnightblue" d="M854.72,-380.44C880.85,-371.4 922.26,-357.06 951.58,-346.92"/>
<polygon fill="midnightblue" stroke="midnightblue" points="953.09,-350.1 961.4,-343.52 950.8,-343.48 953.09,-350.1"/>
</g>
<!-- Node16&#45;&gt;Node18 -->
<g id="edge28" class="edge">
<title>Node16&#45;&gt;Node18</title>
<path fill="none" stroke="midnightblue" d="M846.56,-380.46C863.6,-371.59 890.86,-357.2 914,-344 928.9,-335.5 931.37,-331.06 947,-324 995.81,-301.96 1011.96,-307.09 1062,-288 1063.61,-287.39 1065.25,-286.73 1066.89,-286.06"/>
<polygon fill="midnightblue" stroke="midnightblue" points="1068.43,-289.2 1076.22,-282.02 1065.66,-282.78 1068.43,-289.2"/>
</g>
<!-- Node19 -->
<g id="node19" class="node">
<title>Node19</title>
<g id="a_node19"><a xlink:title=" ">
<polygon fill="white" stroke="#bfbfbf" points="792,-324.5 792,-343.5 824,-343.5 824,-324.5 792,-324.5"/>
<text text-anchor="middle" x="808" y="-331.5" font-family="Helvetica,sans-Serif" font-size="10.00">list</text>
</a>
</g>
</g>
<!-- Node16&#45;&gt;Node19 -->
<g id="edge29" class="edge">
<title>Node16&#45;&gt;Node19</title>
<path fill="none" stroke="midnightblue" d="M826.37,-380.08C823.39,-372.77 819.07,-362.18 815.38,-353.1"/>
<polygon fill="midnightblue" stroke="midnightblue" points="818.58,-351.69 811.57,-343.75 812.1,-354.33 818.58,-351.69"/>
</g>
<!-- Node20&#45;&gt;Node2 -->
<g id="edge31" class="edge">
<title>Node20&#45;&gt;Node2</title>
<path fill="none" stroke="midnightblue" d="M384.78,-441.61C277.29,-433.1 38,-406.15 38,-335 38,-335 38,-335 38,-204.5 38,-126.02 137.76,-96.21 210.73,-84.89"/>
<polygon fill="midnightblue" stroke="midnightblue" points="211.45,-88.33 220.84,-83.42 210.44,-81.4 211.45,-88.33"/>
</g>
<!-- Node20&#45;&gt;Node4 -->
<g id="edge32" class="edge">
<title>Node20&#45;&gt;Node4</title>
<path fill="none" stroke="midnightblue" d="M447.04,-436.2C457.72,-427.48 474.13,-413.51 487,-400 501.58,-384.7 516.47,-365.67 526.56,-352.16"/>
<polygon fill="midnightblue" stroke="midnightblue" points="529.6,-353.93 532.72,-343.81 523.97,-349.78 529.6,-353.93"/>
</g>
<!-- Node21 -->
<g id="node21" class="node">
<title>Node21</title>
<g id="a_node21"><a xlink:href="_s_b_m_l_namespaces_8h.html" target="_top" xlink:title="SBMLNamespaces class to store level/version and namespace.">
<polygon fill="white" stroke="black" points="335.5,-380.5 335.5,-399.5 478.5,-399.5 478.5,-380.5 335.5,-380.5"/>
<text text-anchor="middle" x="407" y="-387.5" font-family="Helvetica,sans-Serif" font-size="10.00">sbml/SBMLNamespaces.h</text>
</a>
</g>
</g>
<!-- Node20&#45;&gt;Node21 -->
<g id="edge33" class="edge">
<title>Node20&#45;&gt;Node21</title>
<path fill="none" stroke="midnightblue" d="M431.21,-436.08C427.24,-428.69 421.47,-417.95 416.57,-408.81"/>
<polygon fill="midnightblue" stroke="midnightblue" points="419.51,-406.91 411.7,-399.75 413.35,-410.22 419.51,-406.91"/>
</g>
<!-- Node21&#45;&gt;Node14 -->
<g id="edge46" class="edge">
<title>Node21&#45;&gt;Node14</title>
<path fill="none" stroke="midnightblue" d="M409.25,-380.32C414.1,-361.67 425.59,-317.44 432.16,-292.13"/>
<polygon fill="midnightblue" stroke="midnightblue" points="435.59,-292.84 434.72,-282.28 428.82,-291.08 435.59,-292.84"/>
</g>
<!-- Node22 -->
<g id="node22" class="node">
<title>Node22</title>
<g id="a_node22"><a xlink:href="_x_m_l_namespaces_8h.html" target="_top" xlink:title="A list of XMLNamespace declarations (URI/prefix pairs)">
<polygon fill="white" stroke="black" points="616,-324.5 616,-343.5 774,-343.5 774,-324.5 616,-324.5"/>
<text text-anchor="middle" x="695" y="-331.5" font-family="Helvetica,sans-Serif" font-size="10.00">sbml/xml/XMLNamespaces.h</text>
</a>
</g>
</g>
<!-- Node21&#45;&gt;Node22 -->
<g id="edge34" class="edge">
<title>Node21&#45;&gt;Node22</title>
<path fill="none" stroke="midnightblue" d="M452.63,-380.44C503.3,-370.94 585.07,-355.61 639.43,-345.42"/>
<polygon fill="midnightblue" stroke="midnightblue" points="640.4,-348.8 649.58,-343.52 639.11,-341.92 640.4,-348.8"/>
</g>
<!-- Node23 -->
<g id="node23" class="node">
<title>Node23</title>
<g id="a_node23"><a xlink:href="common_8h.html" target="_top" xlink:title="Common functions and macros for C and C++.">
<polygon fill="white" stroke="black" points="244.5,-324.5 244.5,-343.5 385.5,-343.5 385.5,-324.5 244.5,-324.5"/>
<text text-anchor="middle" x="315" y="-331.5" font-family="Helvetica,sans-Serif" font-size="10.00">sbml/common/common.h</text>
</a>
</g>
</g>
<!-- Node21&#45;&gt;Node23 -->
<g id="edge40" class="edge">
<title>Node21&#45;&gt;Node23</title>
<path fill="none" stroke="midnightblue" d="M392.22,-380.32C377.73,-371.82 355.43,-358.73 338.51,-348.8"/>
<polygon fill="midnightblue" stroke="midnightblue" points="340.14,-345.7 329.74,-343.65 336.6,-351.74 340.14,-345.7"/>
</g>
<!-- Node25 -->
<g id="node25" class="node">
<title>Node25</title>
<g id="a_node25"><a xlink:title=" ">
<polygon fill="white" stroke="#bfbfbf" points="161.5,-324.5 161.5,-343.5 226.5,-343.5 226.5,-324.5 161.5,-324.5"/>
<text text-anchor="middle" x="194" y="-331.5" font-family="Helvetica,sans-Serif" font-size="10.00">stdexcept</text>
</a>
</g>
</g>
<!-- Node21&#45;&gt;Node25 -->
<g id="edge47" class="edge">
<title>Node21&#45;&gt;Node25</title>
<path fill="none" stroke="midnightblue" d="M373.25,-380.44C336.16,-371.04 276.51,-355.92 236.32,-345.73"/>
<polygon fill="midnightblue" stroke="midnightblue" points="237.1,-342.32 226.54,-343.25 235.38,-349.1 237.1,-342.32"/>
</g>
<!-- Node22&#45;&gt;Node6 -->
<g id="edge35" class="edge">
<title>Node22&#45;&gt;Node6</title>
<path fill="none" stroke="midnightblue" d="M737.12,-324.48C789.85,-313.8 880.13,-295.53 937.07,-284.01"/>
<polygon fill="midnightblue" stroke="midnightblue" points="937.85,-287.42 946.96,-282.01 936.46,-280.56 937.85,-287.42"/>
</g>
<!-- Node22&#45;&gt;Node7 -->
<g id="edge36" class="edge">
<title>Node22&#45;&gt;Node7</title>
<path fill="none" stroke="midnightblue" d="M715.35,-324.48C739.39,-314.4 779.6,-297.55 807.16,-286"/>
<polygon fill="midnightblue" stroke="midnightblue" points="808.82,-289.1 816.69,-282.01 806.12,-282.65 808.82,-289.1"/>
</g>
<!-- Node22&#45;&gt;Node14 -->
<g id="edge38" class="edge">
<title>Node22&#45;&gt;Node14</title>
<path fill="none" stroke="midnightblue" d="M658.03,-324.48C607.28,-312.77 516.86,-291.92 468.91,-280.86"/>
<polygon fill="midnightblue" stroke="midnightblue" points="469.6,-277.43 459.07,-278.59 468.03,-284.25 469.6,-277.43"/>
</g>
<!-- Node22&#45;&gt;Node15 -->
<g id="edge37" class="edge">
<title>Node22&#45;&gt;Node15</title>
<path fill="none" stroke="midnightblue" d="M690.7,-324.48C687.02,-317.17 681.54,-306.3 676.58,-296.47"/>
<polygon fill="midnightblue" stroke="midnightblue" points="679.7,-294.88 672.07,-287.52 673.45,-298.03 679.7,-294.88"/>
</g>
<!-- Node22&#45;&gt;Node18 -->
<g id="edge39" class="edge">
<title>Node22&#45;&gt;Node18</title>
<path fill="none" stroke="midnightblue" d="M774.28,-324.57C873.85,-313.78 1035,-295.58 1062,-288 1064.15,-287.4 1066.33,-286.67 1068.5,-285.87"/>
<polygon fill="midnightblue" stroke="midnightblue" points="1069.87,-289.09 1077.75,-282.01 1067.17,-282.63 1069.87,-289.09"/>
</g>
<!-- Node23&#45;&gt;Node2 -->
<g id="edge43" class="edge">
<title>Node23&#45;&gt;Node2</title>
<path fill="none" stroke="midnightblue" d="M253.82,-324.5C192.29,-315.32 105.09,-300.36 95,-288 31.44,-210.12 190.41,-123.03 257.66,-90.85"/>
<polygon fill="midnightblue" stroke="midnightblue" points="259.32,-93.93 266.88,-86.5 256.34,-87.6 259.32,-93.93"/>
</g>
<!-- Node23&#45;&gt;Node5 -->
<g id="edge42" class="edge">
<title>Node23&#45;&gt;Node5</title>
<path fill="none" stroke="midnightblue" d="M317.84,-324.42C320.79,-315.4 325.45,-300.77 329,-288 334.96,-266.56 340.93,-241.69 344.77,-225.11"/>
<polygon fill="midnightblue" stroke="midnightblue" points="348.24,-225.64 347.07,-215.11 341.42,-224.07 348.24,-225.64"/>
</g>
<!-- Node23&#45;&gt;Node8 -->
<g id="edge41" class="edge">
<title>Node23&#45;&gt;Node8</title>
<path fill="none" stroke="midnightblue" d="M322.49,-324.24C336.88,-308.05 370.13,-273.59 406,-257 476.31,-224.48 564.87,-212.73 626.13,-208.58"/>
<polygon fill="midnightblue" stroke="midnightblue" points="626.71,-212.05 636.47,-207.93 626.28,-205.06 626.71,-212.05"/>
</g>
<!-- Node23&#45;&gt;Node11 -->
<g id="edge45" class="edge">
<title>Node23&#45;&gt;Node11</title>
<path fill="none" stroke="midnightblue" d="M309.56,-324.48C303.91,-315.64 294.94,-301.59 287.84,-290.48"/>
<polygon fill="midnightblue" stroke="midnightblue" points="290.77,-288.55 282.43,-282.01 284.87,-292.32 290.77,-288.55"/>
</g>
<!-- Node24 -->
<g id="node24" class="node">
<title>Node24</title>
<g id="a_node24"><a xlink:href="memory_8h.html" target="_top" xlink:title=" ">
<polygon fill="white" stroke="black" points="104.5,-263 104.5,-282 215.5,-282 215.5,-263 104.5,-263"/>
<text text-anchor="middle" x="160" y="-270" font-family="Helvetica,sans-Serif" font-size="10.00">sbml/util/memory.h</text>
</a>
</g>
</g>
<!-- Node23&#45;&gt;Node24 -->
<g id="edge44" class="edge">
<title>Node23&#45;&gt;Node24</title>
<path fill="none" stroke="midnightblue" d="M292.79,-324.48C266.32,-314.31 221.89,-297.26 191.78,-285.7"/>
<polygon fill="midnightblue" stroke="midnightblue" points="192.76,-282.33 182.17,-282.01 190.25,-288.86 192.76,-282.33"/>
</g>
</g>
</svg>
        <g id="navigator" transform="translate(0 0)" fill="#404254">
                <rect fill="#f2f5e9" fill-opacity="0.5" stroke="#606060" stroke-width=".5" x="0" y="0" width="60" height="60"/>
                <use id="zoomplus" xlink:href="#zoomPlus" x="17" y="9" onmousedown="handleZoom(evt,'in')"/>
                <use id="zoomminus" xlink:href="#zoomMin" x="42" y="9" onmousedown="handleZoom(evt,'out')"/>
                <use id="reset" xlink:href="#resetDef" x="30" y="36" onmousedown="handleReset()"/>
                <g id="arrowUp" xlink:href="#dirArrow" transform="translate(30 24)" onmousedown="handlePan(0,-1)">
                  <use xlink:href="#rim" fill="#404040">
                        <set attributeName="fill" to="#808080" begin="arrowUp.mouseover" end="arrowUp.mouseout"/>
                  </use>
                  <path fill="none" stroke="white" stroke-width="1.5" d="M0,-3.0v7 M-2.5,-0.5L0,-3.0L2.5,-0.5"/>
                </g>
                <g id="arrowRight" xlink:href="#dirArrow" transform="rotate(90) translate(36 -43)" onmousedown="handlePan(1,0)">
                  <use xlink:href="#rim" fill="#404040">
                        <set attributeName="fill" to="#808080" begin="arrowRight.mouseover" end="arrowRight.mouseout"/>
                  </use>
                  <path fill="none" stroke="white" stroke-width="1.5" d="M0,-3.0v7 M-2.5,-0.5L0,-3.0L2.5,-0.5"/>
                </g>
                <g id="arrowDown" xlink:href="#dirArrow" transform="rotate(180) translate(-30 -48)" onmousedown="handlePan(0,1)">
                  <use xlink:href="#rim" fill="#404040">
                        <set attributeName="fill" to="#808080" begin="arrowDown.mouseover" end="arrowDown.mouseout"/>
                  </use>
                  <path fill="none" stroke="white" stroke-width="1.5" d="M0,-3.0v7 M-2.5,-0.5L0,-3.0L2.5,-0.5"/>
                </g>
                <g id="arrowLeft" xlink:href="#dirArrow" transform="rotate(270) translate(-36 17)" onmousedown="handlePan(-1,0)">
                  <use xlink:href="#rim" fill="#404040">
                        <set attributeName="fill" to="#808080" begin="arrowLeft.mouseover" end="arrowLeft.mouseout"/>
                  </use>
                  <path fill="none" stroke="white" stroke-width="1.5" d="M0,-3.0v7 M-2.5,-0.5L0,-3.0L2.5,-0.5"/>
                </g>
        </g>
        <svg viewBox="0 0 15 15" width="100%" height="30px" preserveAspectRatio="xMaxYMin meet">
         <g id="arrow_out" transform="scale(0.3 0.3)">
          <a xlink:href="_s_b_m_l_error_log_8h__incl_org.svg" target="_base">
           <rect id="button" ry="5" rx="5" y="6" x="6" height="38" width="38"
                fill="#f2f5e9" fill-opacity="0.5" stroke="#606060" stroke-width="1.0"/>
           <path id="arrow"
             d="M 11.500037,31.436501 C 11.940474,20.09759 22.043105,11.32322 32.158766,21.979434 L 37.068811,17.246167 C 37.068811,17.246167 37.088388,32 37.088388,32 L 22.160133,31.978069 C 22.160133,31.978069 26.997745,27.140456 26.997745,27.140456 C 18.528582,18.264221 13.291696,25.230495 11.500037,31.436501 z"
             style="fill:#404040;"/>
          </a>
         </g>
        </svg>
</svg>
