<?xml version="1.0" encoding="UTF-8" standalone="no"?>
<!DOCTYPE svg PUBLIC "-//W3C//DTD SVG 1.1//EN"
 "http://www.w3.org/Graphics/SVG/1.1/DTD/svg11.dtd">
<!-- Generated by graphviz version 2.43.0 (0)
 -->
<!-- Title: SBMLErrorLog.cpp Pages: 1 -->
<!--zoomable 576 -->
<svg id="main" version="1.1" xmlns="http://www.w3.org/2000/svg" xmlns:xlink="http://www.w3.org/1999/xlink" xml:space="preserve" onload="init(evt)">
<style type="text/css"><![CDATA[
.edge:hover path { stroke: red; }
.edge:hover polygon { stroke: red; fill: red; }
]]></style>
<script type="text/javascript"><![CDATA[
var edges = document.getElementsByTagName('g');
if (edges && edges.length) {
  for (var i=0;i<edges.length;i++) {
    if (edges[i].id.substr(0,4)=='edge') {
      edges[i].setAttribute('class','edge');
    }
  }
}
]]></script>
        <defs>
                <circle id="rim" cx="0" cy="0" r="7"/>
                <circle id="rim2" cx="0" cy="0" r="3.5"/>
                <g id="zoomPlus">
                        <use xlink:href="#rim" fill="#404040">
                                <set attributeName="fill" to="#808080" begin="zoomplus.mouseover" end="zoomplus.mouseout"/>
                        </use>
                        <path d="M-4,0h8M0,-4v8" fill="none" stroke="white" stroke-width="1.5" pointer-events="none"/>
                </g>
                <g id="zoomMin">
                        <use xlink:href="#rim" fill="#404040">
                                <set attributeName="fill" to="#808080" begin="zoomminus.mouseover" end="zoomminus.mouseout"/>
                        </use>
                        <path d="M-4,0h8" fill="none" stroke="white" stroke-width="1.5" pointer-events="none"/>
                </g>
                <g id="dirArrow">
                        <path fill="none" stroke="white" stroke-width="1.5" d="M0,-3.0v7 M-2.5,-0.5L0,-3.0L2.5,-0.5"/>
                </g>
               <g id="resetDef">
                       <use xlink:href="#rim2" fill="#404040">
                               <set attributeName="fill" to="#808080" begin="reset.mouseover" end="reset.mouseout"/>
                       </use>
               </g>
        </defs>

<script type="text/javascript">
var viewWidth = 1703;
var viewHeight = 576;
var sectionId = 'dynsection-0';
</script>
<script xlink:href="svgpan.js"/>
<svg id="graph" class="graph">
<g id="viewport">
<title>SBMLErrorLog.cpp</title>
<polygon fill="white" stroke="transparent" points="-4,4 -4,-572 1699,-572 1699,4 -4,4"/>
<!-- Node1 -->
<g id="node1" class="node">
<title>Node1</title>
<g id="a_node1"><a xlink:title="Stores errors (and messages) encountered while processing SBML.">
<polygon fill="#bfbfbf" stroke="black" points="788,-548.5 788,-567.5 892,-567.5 892,-548.5 788,-548.5"/>
<text text-anchor="middle" x="840" y="-555.5" font-family="Helvetica,sans-Serif" font-size="10.00">SBMLErrorLog.cpp</text>
</a>
</g>
</g>
<!-- Node2 -->
<g id="node2" class="node">
<title>Node2</title>
<g id="a_node2"><a xlink:title=" ">
<polygon fill="white" stroke="#bfbfbf" points="0,-492.5 0,-511.5 64,-511.5 64,-492.5 0,-492.5"/>
<text text-anchor="middle" x="32" y="-499.5" font-family="Helvetica,sans-Serif" font-size="10.00">algorithm</text>
</a>
</g>
</g>
<!-- Node1&#45;&gt;Node2 -->
<g id="edge1" class="edge">
<title>Node1&#45;&gt;Node2</title>
<path fill="none" stroke="midnightblue" d="M787.64,-556.76C664.67,-555.6 347.77,-549.05 74.26,-511.95"/>
<polygon fill="midnightblue" stroke="midnightblue" points="74.53,-508.45 64.14,-510.56 73.57,-515.39 74.53,-508.45"/>
</g>
<!-- Node3 -->
<g id="node3" class="node">
<title>Node3</title>
<g id="a_node3"><a xlink:title=" ">
<polygon fill="white" stroke="#bfbfbf" points="82.5,-492.5 82.5,-511.5 147.5,-511.5 147.5,-492.5 82.5,-492.5"/>
<text text-anchor="middle" x="115" y="-499.5" font-family="Helvetica,sans-Serif" font-size="10.00">functional</text>
</a>
</g>
</g>
<!-- Node1&#45;&gt;Node3 -->
<g id="edge2" class="edge">
<title>Node1&#45;&gt;Node3</title>
<path fill="none" stroke="midnightblue" d="M787.9,-555.72C673.97,-552.46 394.26,-541.83 162,-512 160.53,-511.81 159.04,-511.61 157.54,-511.39"/>
<polygon fill="midnightblue" stroke="midnightblue" points="157.96,-507.91 147.53,-509.77 156.85,-514.82 157.96,-507.91"/>
</g>
<!-- Node4 -->
<g id="node4" class="node">
<title>Node4</title>
<g id="a_node4"><a xlink:title=" ">
<polygon fill="white" stroke="#bfbfbf" points="325,-263 325,-282 369,-282 369,-263 325,-263"/>
<text text-anchor="middle" x="347" y="-270" font-family="Helvetica,sans-Serif" font-size="10.00">string</text>
</a>
</g>
</g>
<!-- Node1&#45;&gt;Node4 -->
<g id="edge3" class="edge">
<title>Node1&#45;&gt;Node4</title>
<path fill="none" stroke="midnightblue" d="M787.9,-553.86C631.37,-543.73 176,-508.93 176,-447 176,-447 176,-447 176,-389 176,-322.61 265.61,-291.81 315.09,-279.87"/>
<polygon fill="midnightblue" stroke="midnightblue" points="316.03,-283.25 324.99,-277.6 314.47,-276.42 316.03,-283.25"/>
</g>
<!-- Node5 -->
<g id="node5" class="node">
<title>Node5</title>
<g id="a_node5"><a xlink:title=" ">
<polygon fill="white" stroke="#bfbfbf" points="1022,-324.5 1022,-343.5 1054,-343.5 1054,-324.5 1022,-324.5"/>
<text text-anchor="middle" x="1038" y="-331.5" font-family="Helvetica,sans-Serif" font-size="10.00">list</text>
</a>
</g>
</g>
<!-- Node1&#45;&gt;Node5 -->
<g id="edge4" class="edge">
<title>Node1&#45;&gt;Node5</title>
<path fill="none" stroke="midnightblue" d="M847.76,-548.3C877.45,-515.01 984.11,-395.42 1023.37,-351.41"/>
<polygon fill="midnightblue" stroke="midnightblue" points="1026.03,-353.68 1030.08,-343.88 1020.81,-349.02 1026.03,-353.68"/>
</g>
<!-- Node6 -->
<g id="node6" class="node">
<title>Node6</title>
<g id="a_node6"><a xlink:href="_x_m_l_token_8h.html" target="_top" xlink:title="A unit of XML syntax, either an XML element or text.">
<polygon fill="white" stroke="black" points="521,-436.5 521,-455.5 643,-455.5 643,-436.5 521,-436.5"/>
<text text-anchor="middle" x="582" y="-443.5" font-family="Helvetica,sans-Serif" font-size="10.00">sbml/xml/XMLToken.h</text>
</a>
</g>
</g>
<!-- Node1&#45;&gt;Node6 -->
<g id="edge5" class="edge">
<title>Node1&#45;&gt;Node6</title>
<path fill="none" stroke="midnightblue" d="M819.76,-548.37C774.45,-529.05 664.7,-482.26 611.67,-459.65"/>
<polygon fill="midnightblue" stroke="midnightblue" points="612.72,-456.29 602.15,-455.59 609.98,-462.73 612.72,-456.29"/>
</g>
<!-- Node19 -->
<g id="node19" class="node">
<title>Node19</title>
<g id="a_node19"><a xlink:href="_x_m_l_parser_8h.html" target="_top" xlink:title=" ">
<polygon fill="white" stroke="black" points="955.5,-492.5 955.5,-511.5 1080.5,-511.5 1080.5,-492.5 955.5,-492.5"/>
<text text-anchor="middle" x="1018" y="-499.5" font-family="Helvetica,sans-Serif" font-size="10.00">sbml/xml/XMLParser.h</text>
</a>
</g>
</g>
<!-- Node1&#45;&gt;Node19 -->
<g id="edge30" class="edge">
<title>Node1&#45;&gt;Node19</title>
<path fill="none" stroke="midnightblue" d="M868.2,-548.44C898.41,-539.28 946.51,-524.69 980.03,-514.52"/>
<polygon fill="midnightblue" stroke="midnightblue" points="981.37,-517.77 989.93,-511.52 979.34,-511.07 981.37,-517.77"/>
</g>
<!-- Node20 -->
<g id="node20" class="node">
<title>Node20</title>
<g id="a_node20"><a xlink:href="_s_b_m_l_error_8h.html" target="_top" xlink:title="Represents SBML errors and other diagnostics.">
<polygon fill="white" stroke="black" points="1302,-436.5 1302,-455.5 1404,-455.5 1404,-436.5 1302,-436.5"/>
<text text-anchor="middle" x="1353" y="-443.5" font-family="Helvetica,sans-Serif" font-size="10.00">sbml/SBMLError.h</text>
</a>
</g>
</g>
<!-- Node1&#45;&gt;Node20 -->
<g id="edge31" class="edge">
<title>Node1&#45;&gt;Node20</title>
<path fill="none" stroke="midnightblue" d="M892.39,-557.77C1000.49,-558.46 1243.94,-555.01 1313,-512 1330.18,-501.3 1341.1,-480.23 1347.11,-464.97"/>
<polygon fill="midnightblue" stroke="midnightblue" points="1350.42,-466.13 1350.51,-455.53 1343.83,-463.76 1350.42,-466.13"/>
</g>
<!-- Node30 -->
<g id="node30" class="node">
<title>Node30</title>
<g id="a_node30"><a xlink:href="_s_b_m_l_error_log_8h.html" target="_top" xlink:title="Stores errors (and messages) encountered while processing SBML.">
<polygon fill="white" stroke="black" points="1184,-492.5 1184,-511.5 1304,-511.5 1304,-492.5 1184,-492.5"/>
<text text-anchor="middle" x="1244" y="-499.5" font-family="Helvetica,sans-Serif" font-size="10.00">sbml/SBMLErrorLog.h</text>
</a>
</g>
</g>
<!-- Node1&#45;&gt;Node30 -->
<g id="edge59" class="edge">
<title>Node1&#45;&gt;Node30</title>
<path fill="none" stroke="midnightblue" d="M892.4,-550C964.27,-540.39 1093.6,-523.1 1173.79,-512.39"/>
<polygon fill="midnightblue" stroke="midnightblue" points="1174.35,-515.84 1183.8,-511.05 1173.42,-508.9 1174.35,-515.84"/>
</g>
<!-- Node6&#45;&gt;Node4 -->
<g id="edge29" class="edge">
<title>Node6&#45;&gt;Node4</title>
<path fill="none" stroke="midnightblue" d="M520.68,-437C472.35,-429.55 410.05,-417.03 391,-400 359.6,-371.93 350.61,-320.25 348.03,-292.43"/>
<polygon fill="midnightblue" stroke="midnightblue" points="351.5,-291.82 347.28,-282.1 344.52,-292.33 351.5,-291.82"/>
</g>
<!-- Node6&#45;&gt;Node6 -->
<g id="edge27" class="edge">
<title>Node6&#45;&gt;Node6</title>
<path fill="none" stroke="midnightblue" d="M615.69,-455.53C638.59,-458.31 661,-455.13 661,-446 661,-438.22 644.75,-434.77 625.79,-435.63"/>
<polygon fill="midnightblue" stroke="midnightblue" points="625.37,-432.15 615.69,-436.47 625.95,-439.13 625.37,-432.15"/>
</g>
<!-- Node7 -->
<g id="node7" class="node">
<title>Node7</title>
<g id="a_node7"><a xlink:href="_x_m_l_extern_8h.html" target="_top" xlink:title="Defines LIBLAX_EXTERN.">
<polygon fill="white" stroke="black" points="628.5,-263 628.5,-282 755.5,-282 755.5,-263 628.5,-263"/>
<text text-anchor="middle" x="692" y="-270" font-family="Helvetica,sans-Serif" font-size="10.00">sbml/xml/XMLExtern.h</text>
</a>
</g>
</g>
<!-- Node6&#45;&gt;Node7 -->
<g id="edge6" class="edge">
<title>Node6&#45;&gt;Node7</title>
<path fill="none" stroke="midnightblue" d="M539.06,-436.49C467.37,-420.43 335.77,-381.98 385,-324 414.33,-289.45 537.14,-278.49 618.26,-275.05"/>
<polygon fill="midnightblue" stroke="midnightblue" points="618.58,-278.54 628.43,-274.65 618.3,-271.54 618.58,-278.54"/>
</g>
<!-- Node9 -->
<g id="node9" class="node">
<title>Node9</title>
<g id="a_node9"><a xlink:href="_x_m_l_attributes_8h.html" target="_top" xlink:title="XMLAttributes are a list of name/value pairs for XML elements.">
<polygon fill="white" stroke="black" points="510,-380.5 510,-399.5 654,-399.5 654,-380.5 510,-380.5"/>
<text text-anchor="middle" x="582" y="-387.5" font-family="Helvetica,sans-Serif" font-size="10.00">sbml/xml/XMLAttributes.h</text>
</a>
</g>
</g>
<!-- Node6&#45;&gt;Node9 -->
<g id="edge8" class="edge">
<title>Node6&#45;&gt;Node9</title>
<path fill="none" stroke="midnightblue" d="M582,-436.08C582,-429.01 582,-418.86 582,-409.99"/>
<polygon fill="midnightblue" stroke="midnightblue" points="585.5,-409.75 582,-399.75 578.5,-409.75 585.5,-409.75"/>
</g>
<!-- Node10 -->
<g id="node10" class="node">
<title>Node10</title>
<g id="a_node10"><a xlink:href="sbmlfwd_8h.html" target="_top" xlink:title="Forward declarations for all opaque C types.">
<polygon fill="white" stroke="black" points="774,-263 774,-282 914,-282 914,-263 774,-263"/>
<text text-anchor="middle" x="844" y="-270" font-family="Helvetica,sans-Serif" font-size="10.00">sbml/common/sbmlfwd.h</text>
</a>
</g>
</g>
<!-- Node6&#45;&gt;Node10 -->
<g id="edge28" class="edge">
<title>Node6&#45;&gt;Node10</title>
<path fill="none" stroke="midnightblue" d="M599.2,-436.42C615.9,-427.86 641.79,-414 663,-400 709,-369.64 715.61,-355.26 761,-324 780.34,-310.68 803.19,-296.91 820.02,-287.12"/>
<polygon fill="midnightblue" stroke="midnightblue" points="821.77,-290.15 828.68,-282.12 818.27,-284.09 821.77,-290.15"/>
</g>
<!-- Node8 -->
<g id="node8" class="node">
<title>Node8</title>
<g id="a_node8"><a xlink:title=" ">
<polygon fill="white" stroke="#bfbfbf" points="812.5,-0.5 812.5,-30.5 937.5,-30.5 937.5,-0.5 812.5,-0.5"/>
<text text-anchor="start" x="820.5" y="-18.5" font-family="Helvetica,sans-Serif" font-size="10.00">sbml/common/libsbml</text>
<text text-anchor="middle" x="875" y="-7.5" font-family="Helvetica,sans-Serif" font-size="10.00">&#45;namespace.h</text>
</a>
</g>
</g>
<!-- Node7&#45;&gt;Node8 -->
<g id="edge7" class="edge">
<title>Node7&#45;&gt;Node8</title>
<path fill="none" stroke="midnightblue" d="M698.3,-262.72C723.9,-227.05 820.6,-92.3 859.07,-38.69"/>
<polygon fill="midnightblue" stroke="midnightblue" points="861.95,-40.69 864.93,-30.53 856.26,-36.61 861.95,-40.69"/>
</g>
<!-- Node9&#45;&gt;Node4 -->
<g id="edge20" class="edge">
<title>Node9&#45;&gt;Node4</title>
<path fill="none" stroke="midnightblue" d="M509.79,-387.04C439.14,-383.41 338.65,-373.13 314,-344 300.17,-327.66 316.09,-304.55 330.24,-289.31"/>
<polygon fill="midnightblue" stroke="midnightblue" points="332.78,-291.71 337.31,-282.13 327.79,-286.8 332.78,-291.71"/>
</g>
<!-- Node9&#45;&gt;Node7 -->
<g id="edge9" class="edge">
<title>Node9&#45;&gt;Node7</title>
<path fill="none" stroke="midnightblue" d="M576.23,-380.22C568.3,-366.93 556.28,-341.43 568,-324 581.22,-304.34 603.57,-292.33 625.68,-285"/>
<polygon fill="midnightblue" stroke="midnightblue" points="626.89,-288.29 635.45,-282.04 624.87,-281.59 626.89,-288.29"/>
</g>
<!-- Node9&#45;&gt;Node10 -->
<g id="edge10" class="edge">
<title>Node9&#45;&gt;Node10</title>
<path fill="none" stroke="midnightblue" d="M581.88,-380.41C582.18,-366.43 584.93,-338.84 601,-324 607.87,-317.65 717.3,-296.67 786.94,-283.83"/>
<polygon fill="midnightblue" stroke="midnightblue" points="787.71,-287.25 796.91,-282 786.45,-280.37 787.71,-287.25"/>
</g>
<!-- Node15 -->
<g id="node15" class="node">
<title>Node15</title>
<g id="a_node15"><a xlink:href="operation_return_values_8h.html" target="_top" xlink:title="Enumeration of values returned by operations within libSBML.">
<polygon fill="white" stroke="black" points="997,-257.5 997,-287.5 1165,-287.5 1165,-257.5 997,-257.5"/>
<text text-anchor="start" x="1005" y="-275.5" font-family="Helvetica,sans-Serif" font-size="10.00">sbml/common/operationReturn</text>
<text text-anchor="middle" x="1081" y="-264.5" font-family="Helvetica,sans-Serif" font-size="10.00">Values.h</text>
</a>
</g>
</g>
<!-- Node9&#45;&gt;Node15 -->
<g id="edge18" class="edge">
<title>Node9&#45;&gt;Node15</title>
<path fill="none" stroke="midnightblue" d="M654.11,-383.76C746.83,-376.43 902.43,-361.98 957,-344 992.61,-332.27 1029.47,-309.75 1053.65,-293.31"/>
<polygon fill="midnightblue" stroke="midnightblue" points="1055.73,-296.13 1061.96,-287.56 1051.74,-290.38 1055.73,-296.13"/>
</g>
<!-- Node16 -->
<g id="node16" class="node">
<title>Node16</title>
<g id="a_node16"><a xlink:title=" ">
<polygon fill="white" stroke="#bfbfbf" points="932.5,-263 932.5,-282 979.5,-282 979.5,-263 932.5,-263"/>
<text text-anchor="middle" x="956" y="-270" font-family="Helvetica,sans-Serif" font-size="10.00">vector</text>
</a>
</g>
</g>
<!-- Node9&#45;&gt;Node16 -->
<g id="edge21" class="edge">
<title>Node9&#45;&gt;Node16</title>
<path fill="none" stroke="midnightblue" d="M654.16,-384.13C751.75,-376.91 916.1,-362.21 937,-344 951.46,-331.4 955.46,-309.07 956.32,-292.91"/>
<polygon fill="midnightblue" stroke="midnightblue" points="959.83,-292.52 956.49,-282.47 952.83,-292.41 959.83,-292.52"/>
</g>
<!-- Node17 -->
<g id="node17" class="node">
<title>Node17</title>
<g id="a_node17"><a xlink:title=" ">
<polygon fill="white" stroke="#bfbfbf" points="610.5,-324.5 610.5,-343.5 675.5,-343.5 675.5,-324.5 610.5,-324.5"/>
<text text-anchor="middle" x="643" y="-331.5" font-family="Helvetica,sans-Serif" font-size="10.00">stdexcept</text>
</a>
</g>
</g>
<!-- Node9&#45;&gt;Node17 -->
<g id="edge22" class="edge">
<title>Node9&#45;&gt;Node17</title>
<path fill="none" stroke="midnightblue" d="M591.8,-380.32C600.82,-372.34 614.41,-360.31 625.32,-350.65"/>
<polygon fill="midnightblue" stroke="midnightblue" points="627.85,-353.08 633.02,-343.83 623.21,-347.84 627.85,-353.08"/>
</g>
<!-- Node18 -->
<g id="node18" class="node">
<title>Node18</title>
<g id="a_node18"><a xlink:href="_x_m_l_triple_8h.html" target="_top" xlink:title="Stores an XML namespace triple.">
<polygon fill="white" stroke="black" points="394.5,-324.5 394.5,-343.5 515.5,-343.5 515.5,-324.5 394.5,-324.5"/>
<text text-anchor="middle" x="455" y="-331.5" font-family="Helvetica,sans-Serif" font-size="10.00">sbml/xml/XMLTriple.h</text>
</a>
</g>
</g>
<!-- Node9&#45;&gt;Node18 -->
<g id="edge23" class="edge">
<title>Node9&#45;&gt;Node18</title>
<path fill="none" stroke="midnightblue" d="M561.88,-380.44C540.98,-371.56 508.07,-357.56 484.28,-347.45"/>
<polygon fill="midnightblue" stroke="midnightblue" points="485.6,-344.21 475.03,-343.52 482.86,-350.65 485.6,-344.21"/>
</g>
<!-- Node10&#45;&gt;Node8 -->
<g id="edge11" class="edge">
<title>Node10&#45;&gt;Node8</title>
<path fill="none" stroke="midnightblue" d="M845.07,-262.72C849.35,-227.49 865.38,-95.62 872.06,-40.72"/>
<polygon fill="midnightblue" stroke="midnightblue" points="875.56,-40.88 873.29,-30.53 868.61,-40.03 875.56,-40.88"/>
</g>
<!-- Node11 -->
<g id="node11" class="node">
<title>Node11</title>
<g id="a_node11"><a xlink:href="libsbml-config_8h.html" target="_top" xlink:title="Decides whether to #include Unix or Windows configuration variables.">
<polygon fill="white" stroke="black" points="971.5,-190.5 971.5,-220.5 1096.5,-220.5 1096.5,-190.5 971.5,-190.5"/>
<text text-anchor="start" x="979.5" y="-208.5" font-family="Helvetica,sans-Serif" font-size="10.00">sbml/common/libsbml</text>
<text text-anchor="middle" x="1034" y="-197.5" font-family="Helvetica,sans-Serif" font-size="10.00">&#45;config.h</text>
</a>
</g>
</g>
<!-- Node10&#45;&gt;Node11 -->
<g id="edge12" class="edge">
<title>Node10&#45;&gt;Node11</title>
<path fill="none" stroke="midnightblue" d="M869.23,-262.87C898.23,-252.95 946.58,-236.41 983.42,-223.81"/>
<polygon fill="midnightblue" stroke="midnightblue" points="984.67,-227.08 992.99,-220.53 982.4,-220.45 984.67,-227.08"/>
</g>
<!-- Node11&#45;&gt;Node8 -->
<g id="edge13" class="edge">
<title>Node11&#45;&gt;Node8</title>
<path fill="none" stroke="midnightblue" d="M1009.52,-190.4C994.94,-181.24 976.66,-168.35 963,-154 929.29,-118.59 901.05,-68.47 886.22,-39.54"/>
<polygon fill="midnightblue" stroke="midnightblue" points="889.34,-37.95 881.71,-30.6 883.09,-41.1 889.34,-37.95"/>
</g>
<!-- Node12 -->
<g id="node12" class="node">
<title>Node12</title>
<g id="a_node12"><a xlink:title=" ">
<polygon fill="white" stroke="#bfbfbf" points="971.5,-123.5 971.5,-153.5 1096.5,-153.5 1096.5,-123.5 971.5,-123.5"/>
<text text-anchor="start" x="979.5" y="-141.5" font-family="Helvetica,sans-Serif" font-size="10.00">sbml/common/libsbml</text>
<text text-anchor="middle" x="1034" y="-130.5" font-family="Helvetica,sans-Serif" font-size="10.00">&#45;config&#45;common.h</text>
</a>
</g>
</g>
<!-- Node11&#45;&gt;Node12 -->
<g id="edge14" class="edge">
<title>Node11&#45;&gt;Node12</title>
<path fill="none" stroke="midnightblue" d="M1034,-190.4C1034,-182.64 1034,-172.81 1034,-163.86"/>
<polygon fill="midnightblue" stroke="midnightblue" points="1037.5,-163.58 1034,-153.58 1030.5,-163.58 1037.5,-163.58"/>
</g>
<!-- Node13 -->
<g id="node13" class="node">
<title>Node13</title>
<g id="a_node13"><a xlink:href="libsbml-version_8h.html" target="_top" xlink:title="Define libSBML version numbers for access from client software.">
<polygon fill="white" stroke="black" points="1138.5,-123.5 1138.5,-153.5 1263.5,-153.5 1263.5,-123.5 1138.5,-123.5"/>
<text text-anchor="start" x="1146.5" y="-141.5" font-family="Helvetica,sans-Serif" font-size="10.00">sbml/common/libsbml</text>
<text text-anchor="middle" x="1201" y="-130.5" font-family="Helvetica,sans-Serif" font-size="10.00">&#45;version.h</text>
</a>
</g>
</g>
<!-- Node11&#45;&gt;Node13 -->
<g id="edge15" class="edge">
<title>Node11&#45;&gt;Node13</title>
<path fill="none" stroke="midnightblue" d="M1070.24,-190.4C1095.18,-180.69 1128.53,-167.71 1155.3,-157.29"/>
<polygon fill="midnightblue" stroke="midnightblue" points="1156.78,-160.47 1164.83,-153.58 1154.25,-153.94 1156.78,-160.47"/>
</g>
<!-- Node14 -->
<g id="node14" class="node">
<title>Node14</title>
<g id="a_node14"><a xlink:href="extern_8h.html" target="_top" xlink:title="Definitions of LIBSBML_EXTERN and related things.">
<polygon fill="white" stroke="black" points="1374,-67.5 1374,-86.5 1504,-86.5 1504,-67.5 1374,-67.5"/>
<text text-anchor="middle" x="1439" y="-74.5" font-family="Helvetica,sans-Serif" font-size="10.00">sbml/common/extern.h</text>
</a>
</g>
</g>
<!-- Node13&#45;&gt;Node14 -->
<g id="edge16" class="edge">
<title>Node13&#45;&gt;Node14</title>
<path fill="none" stroke="midnightblue" d="M1257.1,-123.47C1299.24,-112.94 1356.14,-98.72 1395.01,-89"/>
<polygon fill="midnightblue" stroke="midnightblue" points="1396.12,-92.33 1404.97,-86.51 1394.42,-85.54 1396.12,-92.33"/>
</g>
<!-- Node14&#45;&gt;Node8 -->
<g id="edge17" class="edge">
<title>Node14&#45;&gt;Node8</title>
<path fill="none" stroke="midnightblue" d="M1373.75,-69.12C1267.6,-57.92 1058.28,-35.84 947.58,-24.16"/>
<polygon fill="midnightblue" stroke="midnightblue" points="947.82,-20.66 937.51,-23.09 947.09,-27.62 947.82,-20.66"/>
</g>
<!-- Node15&#45;&gt;Node14 -->
<g id="edge19" class="edge">
<title>Node15&#45;&gt;Node14</title>
<path fill="none" stroke="midnightblue" d="M1107.03,-257.43C1173.46,-221.53 1348.57,-126.88 1413.93,-91.55"/>
<polygon fill="midnightblue" stroke="midnightblue" points="1415.96,-94.43 1423.1,-86.6 1412.63,-88.27 1415.96,-94.43"/>
</g>
<!-- Node18&#45;&gt;Node4 -->
<g id="edge26" class="edge">
<title>Node18&#45;&gt;Node4</title>
<path fill="none" stroke="midnightblue" d="M439.53,-324.48C421.72,-314.67 392.26,-298.43 371.37,-286.92"/>
<polygon fill="midnightblue" stroke="midnightblue" points="372.89,-283.77 362.45,-282.01 369.51,-289.9 372.89,-283.77"/>
</g>
<!-- Node18&#45;&gt;Node7 -->
<g id="edge24" class="edge">
<title>Node18&#45;&gt;Node7</title>
<path fill="none" stroke="midnightblue" d="M488.96,-324.48C530.84,-313.96 602.13,-296.06 648.13,-284.51"/>
<polygon fill="midnightblue" stroke="midnightblue" points="649.26,-287.84 658.11,-282.01 647.56,-281.05 649.26,-287.84"/>
</g>
<!-- Node18&#45;&gt;Node10 -->
<g id="edge25" class="edge">
<title>Node18&#45;&gt;Node10</title>
<path fill="none" stroke="midnightblue" d="M515.78,-324.78C578.16,-316.2 678,-302.05 764,-288 771.92,-286.71 780.27,-285.27 788.47,-283.82"/>
<polygon fill="midnightblue" stroke="midnightblue" points="789.13,-287.26 798.36,-282.06 787.9,-280.37 789.13,-287.26"/>
</g>
<!-- Node20&#45;&gt;Node14 -->
<g id="edge32" class="edge">
<title>Node20&#45;&gt;Node14</title>
<path fill="none" stroke="midnightblue" d="M1404.23,-437.3C1490.86,-422.81 1657,-388.11 1657,-335 1657,-335 1657,-335 1657,-204.5 1657,-134.72 1572.41,-102.79 1508.61,-88.63"/>
<polygon fill="midnightblue" stroke="midnightblue" points="1509.08,-85.15 1498.57,-86.51 1507.63,-92 1509.08,-85.15"/>
</g>
<!-- Node21 -->
<g id="node21" class="node">
<title>Node21</title>
<g id="a_node21"><a xlink:href="_x_m_l_error_8h.html" target="_top" xlink:title="Represents errors (and messages) encountered during an XML parse.">
<polygon fill="white" stroke="black" points="1264,-324.5 1264,-343.5 1382,-343.5 1382,-324.5 1264,-324.5"/>
<text text-anchor="middle" x="1323" y="-331.5" font-family="Helvetica,sans-Serif" font-size="10.00">sbml/xml/XMLError.h</text>
</a>
</g>
</g>
<!-- Node20&#45;&gt;Node21 -->
<g id="edge33" class="edge">
<title>Node20&#45;&gt;Node21</title>
<path fill="none" stroke="midnightblue" d="M1350.65,-436.37C1345.78,-418.54 1334.54,-377.3 1327.98,-353.27"/>
<polygon fill="midnightblue" stroke="midnightblue" points="1331.35,-352.32 1325.34,-343.59 1324.6,-354.16 1331.35,-352.32"/>
</g>
<!-- Node26 -->
<g id="node26" class="node">
<title>Node26</title>
<g id="a_node26"><a xlink:href="_s_b_m_l_namespaces_8h.html" target="_top" xlink:title="SBMLNamespaces class to store level/version and namespace.">
<polygon fill="white" stroke="black" points="755.5,-380.5 755.5,-399.5 898.5,-399.5 898.5,-380.5 755.5,-380.5"/>
<text text-anchor="middle" x="827" y="-387.5" font-family="Helvetica,sans-Serif" font-size="10.00">sbml/SBMLNamespaces.h</text>
</a>
</g>
</g>
<!-- Node20&#45;&gt;Node26 -->
<g id="edge44" class="edge">
<title>Node20&#45;&gt;Node26</title>
<path fill="none" stroke="midnightblue" d="M1301.61,-439.72C1210.11,-430.33 1018.3,-410.64 908.6,-399.38"/>
<polygon fill="midnightblue" stroke="midnightblue" points="908.87,-395.89 898.57,-398.35 908.16,-402.85 908.87,-395.89"/>
</g>
<!-- Node21&#45;&gt;Node4 -->
<g id="edge42" class="edge">
<title>Node21&#45;&gt;Node4</title>
<path fill="none" stroke="midnightblue" d="M1263.87,-327.7C1248.61,-326.41 1232.2,-325.09 1217,-324 1049.31,-312.02 517.14,-282.78 379.67,-275.28"/>
<polygon fill="midnightblue" stroke="midnightblue" points="379.56,-271.77 369.38,-274.72 379.18,-278.76 379.56,-271.77"/>
</g>
<!-- Node21&#45;&gt;Node7 -->
<g id="edge35" class="edge">
<title>Node21&#45;&gt;Node7</title>
<path fill="none" stroke="midnightblue" d="M1263.86,-327.92C1248.59,-326.63 1232.19,-325.25 1217,-324 1016.15,-307.48 964.62,-315.68 765,-288 756.99,-286.89 748.54,-285.46 740.34,-283.92"/>
<polygon fill="midnightblue" stroke="midnightblue" points="740.98,-280.48 730.5,-282.02 739.65,-287.36 740.98,-280.48"/>
</g>
<!-- Node21&#45;&gt;Node10 -->
<g id="edge36" class="edge">
<title>Node21&#45;&gt;Node10</title>
<path fill="none" stroke="midnightblue" d="M1263.69,-327.56C1185.61,-320.12 1044.18,-305.65 924,-288 915.57,-286.76 906.66,-285.3 897.98,-283.79"/>
<polygon fill="midnightblue" stroke="midnightblue" points="898.38,-280.31 887.93,-282.01 897.16,-287.2 898.38,-280.31"/>
</g>
<!-- Node21&#45;&gt;Node15 -->
<g id="edge43" class="edge">
<title>Node21&#45;&gt;Node15</title>
<path fill="none" stroke="midnightblue" d="M1288.33,-324.48C1251.8,-315.49 1193.37,-301.13 1147.84,-289.93"/>
<polygon fill="midnightblue" stroke="midnightblue" points="1148.58,-286.51 1138.03,-287.52 1146.91,-293.31 1148.58,-286.51"/>
</g>
<!-- Node22 -->
<g id="node22" class="node">
<title>Node22</title>
<g id="a_node22"><a xlink:title=" ">
<polygon fill="white" stroke="#bfbfbf" points="1467,-196 1467,-215 1517,-215 1517,-196 1467,-196"/>
<text text-anchor="middle" x="1492" y="-203" font-family="Helvetica,sans-Serif" font-size="10.00">stdio.h</text>
</a>
</g>
</g>
<!-- Node21&#45;&gt;Node22 -->
<g id="edge34" class="edge">
<title>Node21&#45;&gt;Node22</title>
<path fill="none" stroke="midnightblue" d="M1268.92,-324.47C1247.48,-318.15 1224.9,-307.14 1212,-288 1204.3,-276.57 1203.16,-267.57 1212,-257 1227.59,-238.34 1384.83,-218.51 1456.61,-210.35"/>
<polygon fill="midnightblue" stroke="midnightblue" points="1457.41,-213.78 1466.95,-209.19 1456.63,-206.83 1457.41,-213.78"/>
</g>
<!-- Node23 -->
<g id="node23" class="node">
<title>Node23</title>
<g id="a_node23"><a xlink:href="util_8h.html" target="_top" xlink:title="Utility functions.">
<polygon fill="white" stroke="black" points="1531.5,-263 1531.5,-282 1618.5,-282 1618.5,-263 1531.5,-263"/>
<text text-anchor="middle" x="1575" y="-270" font-family="Helvetica,sans-Serif" font-size="10.00">sbml/util/util.h</text>
</a>
</g>
</g>
<!-- Node21&#45;&gt;Node23 -->
<g id="edge37" class="edge">
<title>Node21&#45;&gt;Node23</title>
<path fill="none" stroke="midnightblue" d="M1359.11,-324.48C1403.83,-313.92 1480.08,-295.91 1528.97,-284.37"/>
<polygon fill="midnightblue" stroke="midnightblue" points="1530.03,-287.71 1538.96,-282.01 1528.42,-280.9 1530.03,-287.71"/>
</g>
<!-- Node25 -->
<g id="node25" class="node">
<title>Node25</title>
<g id="a_node25"><a xlink:title=" ">
<polygon fill="white" stroke="#bfbfbf" points="1221,-263 1221,-282 1269,-282 1269,-263 1221,-263"/>
<text text-anchor="middle" x="1245" y="-270" font-family="Helvetica,sans-Serif" font-size="10.00">iosfwd</text>
</a>
</g>
</g>
<!-- Node21&#45;&gt;Node25 -->
<g id="edge41" class="edge">
<title>Node21&#45;&gt;Node25</title>
<path fill="none" stroke="midnightblue" d="M1311.82,-324.48C1299.43,-315.02 1279.21,-299.6 1264.25,-288.19"/>
<polygon fill="midnightblue" stroke="midnightblue" points="1266.23,-285.29 1256.15,-282.01 1261.98,-290.86 1266.23,-285.29"/>
</g>
<!-- Node23&#45;&gt;Node14 -->
<g id="edge40" class="edge">
<title>Node23&#45;&gt;Node14</title>
<path fill="none" stroke="midnightblue" d="M1570.18,-262.72C1561.75,-247.55 1543.55,-215.6 1526,-190 1501.9,-154.84 1470.6,-116 1452.87,-94.55"/>
<polygon fill="midnightblue" stroke="midnightblue" points="1455.45,-92.18 1446.36,-86.73 1450.07,-96.66 1455.45,-92.18"/>
</g>
<!-- Node23&#45;&gt;Node22 -->
<g id="edge38" class="edge">
<title>Node23&#45;&gt;Node22</title>
<path fill="none" stroke="midnightblue" d="M1563.81,-262.73C1550.37,-252.21 1527.6,-234.38 1511.3,-221.62"/>
<polygon fill="midnightblue" stroke="midnightblue" points="1513.05,-218.54 1503.02,-215.13 1508.73,-224.05 1513.05,-218.54"/>
</g>
<!-- Node24 -->
<g id="node24" class="node">
<title>Node24</title>
<g id="a_node24"><a xlink:title=" ">
<polygon fill="white" stroke="#bfbfbf" points="1573,-196 1573,-215 1629,-215 1629,-196 1573,-196"/>
<text text-anchor="middle" x="1601" y="-203" font-family="Helvetica,sans-Serif" font-size="10.00">stdarg.h</text>
</a>
</g>
</g>
<!-- Node23&#45;&gt;Node24 -->
<g id="edge39" class="edge">
<title>Node23&#45;&gt;Node24</title>
<path fill="none" stroke="midnightblue" d="M1578.51,-262.73C1582.4,-252.99 1588.81,-236.98 1593.79,-224.53"/>
<polygon fill="midnightblue" stroke="midnightblue" points="1597.08,-225.71 1597.55,-215.13 1590.59,-223.11 1597.08,-225.71"/>
</g>
<!-- Node26&#45;&gt;Node4 -->
<g id="edge57" class="edge">
<title>Node26&#45;&gt;Node4</title>
<path fill="none" stroke="midnightblue" d="M755.39,-384.64C626.13,-376.42 365.89,-358.22 352,-344 338.9,-330.59 339.66,-308.08 342.39,-292.11"/>
<polygon fill="midnightblue" stroke="midnightblue" points="345.83,-292.79 344.46,-282.29 338.98,-291.35 345.83,-292.79"/>
</g>
<!-- Node26&#45;&gt;Node17 -->
<g id="edge58" class="edge">
<title>Node26&#45;&gt;Node17</title>
<path fill="none" stroke="midnightblue" d="M797.84,-380.44C766.49,-371.24 716.47,-356.56 681.8,-346.39"/>
<polygon fill="midnightblue" stroke="midnightblue" points="682.6,-342.97 672.02,-343.52 680.63,-349.69 682.6,-342.97"/>
</g>
<!-- Node27 -->
<g id="node27" class="node">
<title>Node27</title>
<g id="a_node27"><a xlink:href="_x_m_l_namespaces_8h.html" target="_top" xlink:title="A list of XMLNamespace declarations (URI/prefix pairs)">
<polygon fill="white" stroke="black" points="770,-324.5 770,-343.5 928,-343.5 928,-324.5 770,-324.5"/>
<text text-anchor="middle" x="849" y="-331.5" font-family="Helvetica,sans-Serif" font-size="10.00">sbml/xml/XMLNamespaces.h</text>
</a>
</g>
</g>
<!-- Node26&#45;&gt;Node27 -->
<g id="edge45" class="edge">
<title>Node26&#45;&gt;Node27</title>
<path fill="none" stroke="midnightblue" d="M830.63,-380.08C833.61,-372.77 837.93,-362.18 841.62,-353.1"/>
<polygon fill="midnightblue" stroke="midnightblue" points="844.9,-354.33 845.43,-343.75 838.42,-351.69 844.9,-354.33"/>
</g>
<!-- Node28 -->
<g id="node28" class="node">
<title>Node28</title>
<g id="a_node28"><a xlink:href="common_8h.html" target="_top" xlink:title="Common functions and macros for C and C++.">
<polygon fill="white" stroke="black" points="1400.5,-324.5 1400.5,-343.5 1541.5,-343.5 1541.5,-324.5 1400.5,-324.5"/>
<text text-anchor="middle" x="1471" y="-331.5" font-family="Helvetica,sans-Serif" font-size="10.00">sbml/common/common.h</text>
</a>
</g>
</g>
<!-- Node26&#45;&gt;Node28 -->
<g id="edge51" class="edge">
<title>Node26&#45;&gt;Node28</title>
<path fill="none" stroke="midnightblue" d="M898.74,-384.02C1004,-376.56 1206.77,-361.54 1390.24,-344.04"/>
<polygon fill="midnightblue" stroke="midnightblue" points="1390.72,-347.51 1400.34,-343.07 1390.05,-340.54 1390.72,-347.51"/>
</g>
<!-- Node27&#45;&gt;Node4 -->
<g id="edge49" class="edge">
<title>Node27&#45;&gt;Node4</title>
<path fill="none" stroke="midnightblue" d="M777.08,-324.48C666.51,-311.37 459.22,-286.8 379.44,-277.35"/>
<polygon fill="midnightblue" stroke="midnightblue" points="379.4,-273.82 369.05,-276.11 378.57,-280.77 379.4,-273.82"/>
</g>
<!-- Node27&#45;&gt;Node7 -->
<g id="edge46" class="edge">
<title>Node27&#45;&gt;Node7</title>
<path fill="none" stroke="midnightblue" d="M826.51,-324.48C799.69,-314.31 754.68,-297.26 724.19,-285.7"/>
<polygon fill="midnightblue" stroke="midnightblue" points="725.04,-282.28 714.45,-282.01 722.56,-288.83 725.04,-282.28"/>
</g>
<!-- Node27&#45;&gt;Node10 -->
<g id="edge47" class="edge">
<title>Node27&#45;&gt;Node10</title>
<path fill="none" stroke="midnightblue" d="M848.28,-324.48C847.58,-316.08 846.48,-302.98 845.57,-292.16"/>
<polygon fill="midnightblue" stroke="midnightblue" points="849.04,-291.68 844.72,-282.01 842.06,-292.27 849.04,-291.68"/>
</g>
<!-- Node27&#45;&gt;Node15 -->
<g id="edge48" class="edge">
<title>Node27&#45;&gt;Node15</title>
<path fill="none" stroke="midnightblue" d="M882.24,-324.48C917.11,-315.53 972.8,-301.25 1016.38,-290.07"/>
<polygon fill="midnightblue" stroke="midnightblue" points="1017.51,-293.4 1026.32,-287.52 1015.77,-286.62 1017.51,-293.4"/>
</g>
<!-- Node27&#45;&gt;Node16 -->
<g id="edge50" class="edge">
<title>Node27&#45;&gt;Node16</title>
<path fill="none" stroke="midnightblue" d="M864.33,-324.48C881.97,-314.67 911.16,-298.43 931.86,-286.92"/>
<polygon fill="midnightblue" stroke="midnightblue" points="933.66,-289.93 940.7,-282.01 930.26,-283.81 933.66,-289.93"/>
</g>
<!-- Node28&#45;&gt;Node11 -->
<g id="edge52" class="edge">
<title>Node28&#45;&gt;Node11</title>
<path fill="none" stroke="midnightblue" d="M1425.1,-324.48C1393.52,-317.46 1351.25,-305.74 1317,-288 1297.34,-277.82 1298.05,-266.39 1278,-257 1223.75,-231.6 1156.81,-218.91 1106.77,-212.6"/>
<polygon fill="midnightblue" stroke="midnightblue" points="1107.03,-209.11 1096.68,-211.39 1106.19,-216.06 1107.03,-209.11"/>
</g>
<!-- Node28&#45;&gt;Node14 -->
<g id="edge54" class="edge">
<title>Node28&#45;&gt;Node14</title>
<path fill="none" stroke="midnightblue" d="M1469.9,-324.22C1465.32,-287.75 1447.74,-147.68 1441.35,-96.7"/>
<polygon fill="midnightblue" stroke="midnightblue" points="1444.81,-96.23 1440.1,-86.74 1437.87,-97.1 1444.81,-96.23"/>
</g>
<!-- Node28&#45;&gt;Node22 -->
<g id="edge53" class="edge">
<title>Node28&#45;&gt;Node22</title>
<path fill="none" stroke="midnightblue" d="M1472.58,-324.38C1474.23,-315.33 1476.86,-300.68 1479,-288 1482.64,-266.42 1486.56,-241.58 1489.14,-225.05"/>
<polygon fill="midnightblue" stroke="midnightblue" points="1492.61,-225.49 1490.68,-215.07 1485.69,-224.42 1492.61,-225.49"/>
</g>
<!-- Node28&#45;&gt;Node23 -->
<g id="edge56" class="edge">
<title>Node28&#45;&gt;Node23</title>
<path fill="none" stroke="midnightblue" d="M1485.9,-324.48C1502.97,-314.71 1531.16,-298.58 1551.26,-287.08"/>
<polygon fill="midnightblue" stroke="midnightblue" points="1553.19,-290.01 1560.13,-282.01 1549.71,-283.94 1553.19,-290.01"/>
</g>
<!-- Node29 -->
<g id="node29" class="node">
<title>Node29</title>
<g id="a_node29"><a xlink:href="memory_8h.html" target="_top" xlink:title=" ">
<polygon fill="white" stroke="black" points="1325.5,-263 1325.5,-282 1436.5,-282 1436.5,-263 1325.5,-263"/>
<text text-anchor="middle" x="1381" y="-270" font-family="Helvetica,sans-Serif" font-size="10.00">sbml/util/memory.h</text>
</a>
</g>
</g>
<!-- Node28&#45;&gt;Node29 -->
<g id="edge55" class="edge">
<title>Node28&#45;&gt;Node29</title>
<path fill="none" stroke="midnightblue" d="M1458.11,-324.48C1443.54,-314.84 1419.6,-299.02 1402.25,-287.55"/>
<polygon fill="midnightblue" stroke="midnightblue" points="1404.14,-284.6 1393.87,-282.01 1400.28,-290.44 1404.14,-284.6"/>
</g>
<!-- Node30&#45;&gt;Node14 -->
<g id="edge60" class="edge">
<title>Node30&#45;&gt;Node14</title>
<path fill="none" stroke="midnightblue" d="M1304.36,-498.84C1427.25,-492.79 1695,-470.49 1695,-391 1695,-391 1695,-391 1695,-204.5 1695,-123.13 1589.77,-94.1 1514.24,-83.74"/>
<polygon fill="midnightblue" stroke="midnightblue" points="1514.63,-80.27 1504.26,-82.46 1513.73,-87.21 1514.63,-80.27"/>
</g>
<!-- Node30&#45;&gt;Node16 -->
<g id="edge71" class="edge">
<title>Node30&#45;&gt;Node16</title>
<path fill="none" stroke="midnightblue" d="M1245.77,-492.48C1251.15,-464.02 1264.15,-371.36 1217,-324 1144.31,-250.98 1086.71,-317.53 988,-288 986.07,-287.42 984.11,-286.75 982.15,-286.03"/>
<polygon fill="midnightblue" stroke="midnightblue" points="983.19,-282.67 972.61,-282.05 980.5,-289.13 983.19,-282.67"/>
</g>
<!-- Node30&#45;&gt;Node20 -->
<g id="edge70" class="edge">
<title>Node30&#45;&gt;Node20</title>
<path fill="none" stroke="midnightblue" d="M1261.51,-492.32C1279.07,-483.62 1306.33,-470.12 1326.53,-460.11"/>
<polygon fill="midnightblue" stroke="midnightblue" points="1328.12,-463.23 1335.53,-455.65 1325.02,-456.96 1328.12,-463.23"/>
</g>
<!-- Node30&#45;&gt;Node21 -->
<g id="edge61" class="edge">
<title>Node30&#45;&gt;Node21</title>
<path fill="none" stroke="midnightblue" d="M1248.25,-492.08C1260.79,-465.72 1297.84,-387.88 1314.6,-352.66"/>
<polygon fill="midnightblue" stroke="midnightblue" points="1317.79,-354.1 1318.92,-343.57 1311.46,-351.09 1317.79,-354.1"/>
</g>
<!-- Node31 -->
<g id="node31" class="node">
<title>Node31</title>
<g id="a_node31"><a xlink:href="_x_m_l_error_log_8h.html" target="_top" xlink:title="Stores errors (and messages) encountered while processing XML.">
<polygon fill="white" stroke="black" points="1033,-380.5 1033,-399.5 1169,-399.5 1169,-380.5 1033,-380.5"/>
<text text-anchor="middle" x="1101" y="-387.5" font-family="Helvetica,sans-Serif" font-size="10.00">sbml/xml/XMLErrorLog.h</text>
</a>
</g>
</g>
<!-- Node30&#45;&gt;Node31 -->
<g id="edge62" class="edge">
<title>Node30&#45;&gt;Node31</title>
<path fill="none" stroke="midnightblue" d="M1232.78,-492.37C1208.45,-473.65 1150.6,-429.15 1120.28,-405.83"/>
<polygon fill="midnightblue" stroke="midnightblue" points="1122.23,-402.91 1112.17,-399.59 1117.96,-408.46 1122.23,-402.91"/>
</g>
<!-- Node31&#45;&gt;Node4 -->
<g id="edge67" class="edge">
<title>Node31&#45;&gt;Node4</title>
<path fill="none" stroke="midnightblue" d="M1032.88,-385.59C856.67,-376.66 398.55,-352.67 385,-344 366.75,-332.31 356.64,-308.72 351.52,-292.06"/>
<polygon fill="midnightblue" stroke="midnightblue" points="354.86,-291.02 348.84,-282.3 348.11,-292.87 354.86,-291.02"/>
</g>
<!-- Node31&#45;&gt;Node5 -->
<g id="edge69" class="edge">
<title>Node31&#45;&gt;Node5</title>
<path fill="none" stroke="midnightblue" d="M1090.88,-380.32C1081.47,-372.26 1067.26,-360.08 1055.93,-350.37"/>
<polygon fill="midnightblue" stroke="midnightblue" points="1058.18,-347.68 1048.31,-343.83 1053.62,-353 1058.18,-347.68"/>
</g>
<!-- Node31&#45;&gt;Node7 -->
<g id="edge63" class="edge">
<title>Node31&#45;&gt;Node7</title>
<path fill="none" stroke="midnightblue" d="M1032.96,-385.24C947.75,-379.64 807.33,-367.18 761,-344 736.45,-331.72 715.59,-307.17 703.42,-290.54"/>
<polygon fill="midnightblue" stroke="midnightblue" points="706.2,-288.41 697.59,-282.24 700.48,-292.43 706.2,-288.41"/>
</g>
<!-- Node31&#45;&gt;Node10 -->
<g id="edge65" class="edge">
<title>Node31&#45;&gt;Node10</title>
<path fill="none" stroke="midnightblue" d="M1098.42,-380.31C1093.77,-366.19 1082.59,-338.41 1063,-324 1049.85,-314.33 960.34,-295.73 899.9,-284"/>
<polygon fill="midnightblue" stroke="midnightblue" points="900.2,-280.49 889.72,-282.04 898.88,-287.37 900.2,-280.49"/>
</g>
<!-- Node31&#45;&gt;Node16 -->
<g id="edge68" class="edge">
<title>Node31&#45;&gt;Node16</title>
<path fill="none" stroke="midnightblue" d="M1103.08,-380.36C1105.79,-366.81 1108.82,-340.41 1096,-324 1064.86,-284.12 1035.11,-306.47 988,-288 986.58,-287.44 985.13,-286.86 983.68,-286.25"/>
<polygon fill="midnightblue" stroke="midnightblue" points="984.7,-282.88 974.14,-282.11 981.92,-289.3 984.7,-282.88"/>
</g>
<!-- Node31&#45;&gt;Node21 -->
<g id="edge64" class="edge">
<title>Node31&#45;&gt;Node21</title>
<path fill="none" stroke="midnightblue" d="M1136.18,-380.44C1174.58,-371.1 1236.18,-356.12 1278.06,-345.93"/>
<polygon fill="midnightblue" stroke="midnightblue" points="1279.1,-349.28 1287.99,-343.52 1277.44,-342.48 1279.1,-349.28"/>
</g>
<!-- Node32 -->
<g id="node32" class="node">
<title>Node32</title>
<g id="a_node32"><a xlink:title=" ">
<polygon fill="white" stroke="#bfbfbf" points="1148,-324.5 1148,-343.5 1208,-343.5 1208,-324.5 1148,-324.5"/>
<text text-anchor="middle" x="1178" y="-331.5" font-family="Helvetica,sans-Serif" font-size="10.00">iostream</text>
</a>
</g>
</g>
<!-- Node31&#45;&gt;Node32 -->
<g id="edge66" class="edge">
<title>Node31&#45;&gt;Node32</title>
<path fill="none" stroke="midnightblue" d="M1113.37,-380.32C1125.16,-372.06 1143.13,-359.45 1157.14,-349.63"/>
<polygon fill="midnightblue" stroke="midnightblue" points="1159.48,-352.26 1165.66,-343.65 1155.46,-346.53 1159.48,-352.26"/>
</g>
</g>
</svg>
        <g id="navigator" transform="translate(0 0)" fill="#404254">
                <rect fill="#f2f5e9" fill-opacity="0.5" stroke="#606060" stroke-width=".5" x="0" y="0" width="60" height="60"/>
                <use id="zoomplus" xlink:href="#zoomPlus" x="17" y="9" onmousedown="handleZoom(evt,'in')"/>
                <use id="zoomminus" xlink:href="#zoomMin" x="42" y="9" onmousedown="handleZoom(evt,'out')"/>
                <use id="reset" xlink:href="#resetDef" x="30" y="36" onmousedown="handleReset()"/>
                <g id="arrowUp" xlink:href="#dirArrow" transform="translate(30 24)" onmousedown="handlePan(0,-1)">
                  <use xlink:href="#rim" fill="#404040">
                        <set attributeName="fill" to="#808080" begin="arrowUp.mouseover" end="arrowUp.mouseout"/>
                  </use>
                  <path fill="none" stroke="white" stroke-width="1.5" d="M0,-3.0v7 M-2.5,-0.5L0,-3.0L2.5,-0.5"/>
                </g>
                <g id="arrowRight" xlink:href="#dirArrow" transform="rotate(90) translate(36 -43)" onmousedown="handlePan(1,0)">
                  <use xlink:href="#rim" fill="#404040">
                        <set attributeName="fill" to="#808080" begin="arrowRight.mouseover" end="arrowRight.mouseout"/>
                  </use>
                  <path fill="none" stroke="white" stroke-width="1.5" d="M0,-3.0v7 M-2.5,-0.5L0,-3.0L2.5,-0.5"/>
                </g>
                <g id="arrowDown" xlink:href="#dirArrow" transform="rotate(180) translate(-30 -48)" onmousedown="handlePan(0,1)">
                  <use xlink:href="#rim" fill="#404040">
                        <set attributeName="fill" to="#808080" begin="arrowDown.mouseover" end="arrowDown.mouseout"/>
                  </use>
                  <path fill="none" stroke="white" stroke-width="1.5" d="M0,-3.0v7 M-2.5,-0.5L0,-3.0L2.5,-0.5"/>
                </g>
                <g id="arrowLeft" xlink:href="#dirArrow" transform="rotate(270) translate(-36 17)" onmousedown="handlePan(-1,0)">
                  <use xlink:href="#rim" fill="#404040">
                        <set attributeName="fill" to="#808080" begin="arrowLeft.mouseover" end="arrowLeft.mouseout"/>
                  </use>
                  <path fill="none" stroke="white" stroke-width="1.5" d="M0,-3.0v7 M-2.5,-0.5L0,-3.0L2.5,-0.5"/>
                </g>
        </g>
        <svg viewBox="0 0 15 15" width="100%" height="30px" preserveAspectRatio="xMaxYMin meet">
         <g id="arrow_out" transform="scale(0.3 0.3)">
          <a xlink:href="_s_b_m_l_error_log_8cpp__incl_org.svg" target="_base">
           <rect id="button" ry="5" rx="5" y="6" x="6" height="38" width="38"
                fill="#f2f5e9" fill-opacity="0.5" stroke="#606060" stroke-width="1.0"/>
           <path id="arrow"
             d="M 11.500037,31.436501 C 11.940474,20.09759 22.043105,11.32322 32.158766,21.979434 L 37.068811,17.246167 C 37.068811,17.246167 37.088388,32 37.088388,32 L 22.160133,31.978069 C 22.160133,31.978069 26.997745,27.140456 26.997745,27.140456 C 18.528582,18.264221 13.291696,25.230495 11.500037,31.436501 z"
             style="fill:#404040;"/>
          </a>
         </g>
        </svg>
</svg>
