<?xml version="1.0" encoding="UTF-8" standalone="no"?>
<!DOCTYPE svg PUBLIC "-//W3C//DTD SVG 1.1//EN"
 "http://www.w3.org/Graphics/SVG/1.1/DTD/svg11.dtd">
<!-- Generated by graphviz version 2.43.0 (0)
 -->
<!-- Title: SBMLInternalValidator.h Pages: 1 -->
<svg width="284pt" height="84pt"
 viewBox="0.00 0.00 284.00 84.00" xmlns="http://www.w3.org/2000/svg" xmlns:xlink="http://www.w3.org/1999/xlink">
<g id="graph0" class="graph" transform="scale(1 1) rotate(0) translate(4 80)">
<title>SBMLInternalValidator.h</title>
<polygon fill="white" stroke="transparent" points="-4,4 -4,-80 280,-80 280,4 -4,4"/>
<!-- Node1 -->
<g id="node1" class="node">
<title>Node1</title>
<g id="a_node1"><a xlink:title="Definition of SBMLInternalValidator, the validator for all internal validation performed by libSBML.">
<polygon fill="#bfbfbf" stroke="black" points="78.5,-56.5 78.5,-75.5 211.5,-75.5 211.5,-56.5 78.5,-56.5"/>
<text text-anchor="middle" x="145" y="-63.5" font-family="Helvetica,sans-Serif" font-size="10.00">SBMLInternalValidator.h</text>
</a>
</g>
</g>
<!-- Node2 -->
<g id="node2" class="node">
<title>Node2</title>
<g id="a_node2"><a xlink:href="_s_b_m_l_internal_validator_8cpp.html" target="_top" xlink:title="Implementation of SBMLInternalValidator, the validator for all internal validation performed by libSB...">
<polygon fill="white" stroke="black" points="0,-0.5 0,-19.5 144,-19.5 144,-0.5 0,-0.5"/>
<text text-anchor="middle" x="72" y="-7.5" font-family="Helvetica,sans-Serif" font-size="10.00">SBMLInternalValidator.cpp</text>
</a>
</g>
</g>
<!-- Node1&#45;&gt;Node2 -->
<g id="edge1" class="edge">
<title>Node1&#45;&gt;Node2</title>
<path fill="none" stroke="midnightblue" d="M124.86,-50.1C111.72,-40.38 95.02,-28.03 83.94,-19.83"/>
<polygon fill="midnightblue" stroke="midnightblue" points="123.15,-53.19 133.27,-56.32 127.31,-47.56 123.15,-53.19"/>
</g>
<!-- Node3 -->
<g id="node3" class="node">
<title>Node3</title>
<g id="a_node3"><a xlink:href="_s_b_m_l_document_8cpp.html" target="_top" xlink:title="Implementation of the top&#45;level container for an SBML Model and associated data.">
<polygon fill="white" stroke="black" points="162,-0.5 162,-19.5 276,-19.5 276,-0.5 162,-0.5"/>
<text text-anchor="middle" x="219" y="-7.5" font-family="Helvetica,sans-Serif" font-size="10.00">SBMLDocument.cpp</text>
</a>
</g>
</g>
<!-- Node1&#45;&gt;Node3 -->
<g id="edge2" class="edge">
<title>Node1&#45;&gt;Node3</title>
<path fill="none" stroke="midnightblue" d="M165.03,-50.38C178.41,-40.62 195.56,-28.11 206.89,-19.83"/>
<polygon fill="midnightblue" stroke="midnightblue" points="162.9,-47.6 156.89,-56.32 167.03,-53.26 162.9,-47.6"/>
</g>
</g>
</svg>
