<?xml version="1.0" encoding="UTF-8" standalone="no"?>
<!DOCTYPE svg PUBLIC "-//W3C//DTD SVG 1.1//EN"
 "http://www.w3.org/Graphics/SVG/1.1/DTD/svg11.dtd">
<!-- Generated by graphviz version 2.43.0 (0)
 -->
<!-- Title: SBMLErrorTable.h Pages: 1 -->
<!--zoomable 520 -->
<svg id="main" version="1.1" xmlns="http://www.w3.org/2000/svg" xmlns:xlink="http://www.w3.org/1999/xlink" xml:space="preserve" onload="init(evt)">
<style type="text/css"><![CDATA[
.edge:hover path { stroke: red; }
.edge:hover polygon { stroke: red; fill: red; }
]]></style>
<script type="text/javascript"><![CDATA[
var edges = document.getElementsByTagName('g');
if (edges && edges.length) {
  for (var i=0;i<edges.length;i++) {
    if (edges[i].id.substr(0,4)=='edge') {
      edges[i].setAttribute('class','edge');
    }
  }
}
]]></script>
        <defs>
                <circle id="rim" cx="0" cy="0" r="7"/>
                <circle id="rim2" cx="0" cy="0" r="3.5"/>
                <g id="zoomPlus">
                        <use xlink:href="#rim" fill="#404040">
                                <set attributeName="fill" to="#808080" begin="zoomplus.mouseover" end="zoomplus.mouseout"/>
                        </use>
                        <path d="M-4,0h8M0,-4v8" fill="none" stroke="white" stroke-width="1.5" pointer-events="none"/>
                </g>
                <g id="zoomMin">
                        <use xlink:href="#rim" fill="#404040">
                                <set attributeName="fill" to="#808080" begin="zoomminus.mouseover" end="zoomminus.mouseout"/>
                        </use>
                        <path d="M-4,0h8" fill="none" stroke="white" stroke-width="1.5" pointer-events="none"/>
                </g>
                <g id="dirArrow">
                        <path fill="none" stroke="white" stroke-width="1.5" d="M0,-3.0v7 M-2.5,-0.5L0,-3.0L2.5,-0.5"/>
                </g>
               <g id="resetDef">
                       <use xlink:href="#rim2" fill="#404040">
                               <set attributeName="fill" to="#808080" begin="reset.mouseover" end="reset.mouseout"/>
                       </use>
               </g>
        </defs>

<script type="text/javascript">
var viewWidth = 1110;
var viewHeight = 520;
var sectionId = 'dynsection-0';
</script>
<script xlink:href="svgpan.js"/>
<svg id="graph" class="graph">
<g id="viewport">
<title>SBMLErrorTable.h</title>
<polygon fill="white" stroke="transparent" points="-4,4 -4,-516 1106,-516 1106,4 -4,4"/>
<!-- Node1 -->
<g id="node1" class="node">
<title>Node1</title>
<g id="a_node1"><a xlink:title="Represents SBML errors and other diagnostics.">
<polygon fill="#bfbfbf" stroke="black" points="460.5,-492.5 460.5,-511.5 561.5,-511.5 561.5,-492.5 460.5,-492.5"/>
<text text-anchor="middle" x="511" y="-499.5" font-family="Helvetica,sans-Serif" font-size="10.00">SBMLErrorTable.h</text>
</a>
</g>
</g>
<!-- Node2 -->
<g id="node2" class="node">
<title>Node2</title>
<g id="a_node2"><a xlink:title=" ">
<polygon fill="white" stroke="#bfbfbf" points="0,-263 0,-282 44,-282 44,-263 0,-263"/>
<text text-anchor="middle" x="22" y="-270" font-family="Helvetica,sans-Serif" font-size="10.00">string</text>
</a>
</g>
</g>
<!-- Node1&#45;&gt;Node2 -->
<g id="edge1" class="edge">
<title>Node1&#45;&gt;Node2</title>
<path fill="none" stroke="midnightblue" d="M467.59,-492.47C386.78,-475.05 210.19,-429.59 86,-344 64.61,-329.26 45.36,-306.05 33.69,-290.32"/>
<polygon fill="midnightblue" stroke="midnightblue" points="36.42,-288.12 27.73,-282.05 30.73,-292.21 36.42,-288.12"/>
</g>
<!-- Node3 -->
<g id="node3" class="node">
<title>Node3</title>
<g id="a_node3"><a xlink:title=" ">
<polygon fill="white" stroke="#bfbfbf" points="539,-436.5 539,-455.5 599,-455.5 599,-436.5 539,-436.5"/>
<text text-anchor="middle" x="569" y="-443.5" font-family="Helvetica,sans-Serif" font-size="10.00">iostream</text>
</a>
</g>
</g>
<!-- Node1&#45;&gt;Node3 -->
<g id="edge2" class="edge">
<title>Node1&#45;&gt;Node3</title>
<path fill="none" stroke="midnightblue" d="M520.32,-492.32C528.89,-484.34 541.81,-472.31 552.19,-462.65"/>
<polygon fill="midnightblue" stroke="midnightblue" points="554.58,-465.21 559.51,-455.83 549.81,-460.09 554.58,-465.21"/>
</g>
<!-- Node4 -->
<g id="node4" class="node">
<title>Node4</title>
<g id="a_node4"><a xlink:title=" ">
<polygon fill="white" stroke="#bfbfbf" points="617,-436.5 617,-455.5 673,-455.5 673,-436.5 617,-436.5"/>
<text text-anchor="middle" x="645" y="-443.5" font-family="Helvetica,sans-Serif" font-size="10.00">sstream</text>
</a>
</g>
</g>
<!-- Node1&#45;&gt;Node4 -->
<g id="edge3" class="edge">
<title>Node1&#45;&gt;Node4</title>
<path fill="none" stroke="midnightblue" d="M532.23,-492.44C554.38,-483.52 589.32,-469.44 614.44,-459.32"/>
<polygon fill="midnightblue" stroke="midnightblue" points="615.9,-462.5 623.87,-455.52 613.28,-456.01 615.9,-462.5"/>
</g>
<!-- Node5 -->
<g id="node5" class="node">
<title>Node5</title>
<g id="a_node5"><a xlink:href="_x_m_l_error_8h.html" target="_top" xlink:title="Represents errors (and messages) encountered during an XML parse.">
<polygon fill="white" stroke="black" points="452,-324.5 452,-343.5 570,-343.5 570,-324.5 452,-324.5"/>
<text text-anchor="middle" x="511" y="-331.5" font-family="Helvetica,sans-Serif" font-size="10.00">sbml/xml/XMLError.h</text>
</a>
</g>
</g>
<!-- Node1&#45;&gt;Node5 -->
<g id="edge4" class="edge">
<title>Node1&#45;&gt;Node5</title>
<path fill="none" stroke="midnightblue" d="M511,-492.08C511,-465.95 511,-389.21 511,-353.58"/>
<polygon fill="midnightblue" stroke="midnightblue" points="514.5,-353.57 511,-343.57 507.5,-353.57 514.5,-353.57"/>
</g>
<!-- Node18 -->
<g id="node18" class="node">
<title>Node18</title>
<g id="a_node18"><a xlink:href="_s_b_m_l_error_8h.html" target="_top" xlink:title="Represents SBML errors and other diagnostics.">
<polygon fill="white" stroke="black" points="381,-436.5 381,-455.5 483,-455.5 483,-436.5 381,-436.5"/>
<text text-anchor="middle" x="432" y="-443.5" font-family="Helvetica,sans-Serif" font-size="10.00">sbml/SBMLError.h</text>
</a>
</g>
</g>
<!-- Node1&#45;&gt;Node18 -->
<g id="edge24" class="edge">
<title>Node1&#45;&gt;Node18</title>
<path fill="none" stroke="midnightblue" d="M498.31,-492.32C486.1,-483.98 467.42,-471.21 453,-461.35"/>
<polygon fill="midnightblue" stroke="midnightblue" points="454.89,-458.41 444.66,-455.65 450.94,-464.19 454.89,-458.41"/>
</g>
<!-- Node5&#45;&gt;Node2 -->
<g id="edge21" class="edge">
<title>Node5&#45;&gt;Node2</title>
<path fill="none" stroke="midnightblue" d="M451.78,-328.31C336.64,-319.02 90.56,-298.3 53,-288 51.07,-287.47 49.1,-286.83 47.15,-286.11"/>
<polygon fill="midnightblue" stroke="midnightblue" points="48.27,-282.78 37.69,-282.1 45.53,-289.23 48.27,-282.78"/>
</g>
<!-- Node6 -->
<g id="node6" class="node">
<title>Node6</title>
<g id="a_node6"><a xlink:title=" ">
<polygon fill="white" stroke="#bfbfbf" points="912,-196 912,-215 962,-215 962,-196 912,-196"/>
<text text-anchor="middle" x="937" y="-203" font-family="Helvetica,sans-Serif" font-size="10.00">stdio.h</text>
</a>
</g>
</g>
<!-- Node5&#45;&gt;Node6 -->
<g id="edge5" class="edge">
<title>Node5&#45;&gt;Node6</title>
<path fill="none" stroke="midnightblue" d="M533.39,-324.49C553.59,-316.37 583.77,-303.17 608,-288 626.47,-276.43 626.17,-266.05 646,-257 731.9,-217.81 844.78,-208.87 901.38,-206.94"/>
<polygon fill="midnightblue" stroke="midnightblue" points="901.71,-210.43 911.61,-206.65 901.51,-203.43 901.71,-210.43"/>
</g>
<!-- Node7 -->
<g id="node7" class="node">
<title>Node7</title>
<g id="a_node7"><a xlink:href="_x_m_l_extern_8h.html" target="_top" xlink:title="Defines LIBLAX_EXTERN.">
<polygon fill="white" stroke="black" points="127.5,-263 127.5,-282 254.5,-282 254.5,-263 127.5,-263"/>
<text text-anchor="middle" x="191" y="-270" font-family="Helvetica,sans-Serif" font-size="10.00">sbml/xml/XMLExtern.h</text>
</a>
</g>
</g>
<!-- Node5&#45;&gt;Node7 -->
<g id="edge6" class="edge">
<title>Node5&#45;&gt;Node7</title>
<path fill="none" stroke="midnightblue" d="M462.68,-324.43C412.86,-315.54 332.94,-301.13 264,-288 257.35,-286.73 250.36,-285.38 243.45,-284.02"/>
<polygon fill="midnightblue" stroke="midnightblue" points="243.93,-280.55 233.44,-282.05 242.57,-287.42 243.93,-280.55"/>
</g>
<!-- Node9 -->
<g id="node9" class="node">
<title>Node9</title>
<g id="a_node9"><a xlink:href="sbmlfwd_8h.html" target="_top" xlink:title="Forward declarations for all opaque C types.">
<polygon fill="white" stroke="black" points="273,-263 273,-282 413,-282 413,-263 273,-263"/>
<text text-anchor="middle" x="343" y="-270" font-family="Helvetica,sans-Serif" font-size="10.00">sbml/common/sbmlfwd.h</text>
</a>
</g>
</g>
<!-- Node5&#45;&gt;Node9 -->
<g id="edge8" class="edge">
<title>Node5&#45;&gt;Node9</title>
<path fill="none" stroke="midnightblue" d="M486.93,-324.48C457.99,-314.22 409.24,-296.96 376.6,-285.4"/>
<polygon fill="midnightblue" stroke="midnightblue" points="377.62,-282.05 367.03,-282.01 375.28,-288.65 377.62,-282.05"/>
</g>
<!-- Node14 -->
<g id="node14" class="node">
<title>Node14</title>
<g id="a_node14"><a xlink:href="util_8h.html" target="_top" xlink:title="Utility functions.">
<polygon fill="white" stroke="black" points="965.5,-263 965.5,-282 1052.5,-282 1052.5,-263 965.5,-263"/>
<text text-anchor="middle" x="1009" y="-270" font-family="Helvetica,sans-Serif" font-size="10.00">sbml/util/util.h</text>
</a>
</g>
</g>
<!-- Node5&#45;&gt;Node14 -->
<g id="edge16" class="edge">
<title>Node5&#45;&gt;Node14</title>
<path fill="none" stroke="midnightblue" d="M570.08,-325.94C667.68,-314.28 861.11,-291.17 955.15,-279.93"/>
<polygon fill="midnightblue" stroke="midnightblue" points="955.79,-283.38 965.3,-278.72 954.96,-276.43 955.79,-283.38"/>
</g>
<!-- Node16 -->
<g id="node16" class="node">
<title>Node16</title>
<g id="a_node16"><a xlink:title=" ">
<polygon fill="white" stroke="#bfbfbf" points="655,-263 655,-282 703,-282 703,-263 655,-263"/>
<text text-anchor="middle" x="679" y="-270" font-family="Helvetica,sans-Serif" font-size="10.00">iosfwd</text>
</a>
</g>
</g>
<!-- Node5&#45;&gt;Node16 -->
<g id="edge20" class="edge">
<title>Node5&#45;&gt;Node16</title>
<path fill="none" stroke="midnightblue" d="M536.49,-324.44C562.76,-315.55 604.86,-301.14 641,-288 643.1,-287.24 645.27,-286.44 647.45,-285.63"/>
<polygon fill="midnightblue" stroke="midnightblue" points="648.82,-288.85 656.94,-282.05 646.35,-282.3 648.82,-288.85"/>
</g>
<!-- Node17 -->
<g id="node17" class="node">
<title>Node17</title>
<g id="a_node17"><a xlink:href="operation_return_values_8h.html" target="_top" xlink:title="Enumeration of values returned by operations within libSBML.">
<polygon fill="white" stroke="black" points="431,-257.5 431,-287.5 599,-287.5 599,-257.5 431,-257.5"/>
<text text-anchor="start" x="439" y="-275.5" font-family="Helvetica,sans-Serif" font-size="10.00">sbml/common/operationReturn</text>
<text text-anchor="middle" x="515" y="-264.5" font-family="Helvetica,sans-Serif" font-size="10.00">Values.h</text>
</a>
</g>
</g>
<!-- Node5&#45;&gt;Node17 -->
<g id="edge22" class="edge">
<title>Node5&#45;&gt;Node17</title>
<path fill="none" stroke="midnightblue" d="M511.57,-324.48C512.04,-317.47 512.73,-307.19 513.37,-297.7"/>
<polygon fill="midnightblue" stroke="midnightblue" points="516.88,-297.74 514.06,-287.52 509.89,-297.27 516.88,-297.74"/>
</g>
<!-- Node8 -->
<g id="node8" class="node">
<title>Node8</title>
<g id="a_node8"><a xlink:title=" ">
<polygon fill="white" stroke="#bfbfbf" points="420.5,-0.5 420.5,-30.5 545.5,-30.5 545.5,-0.5 420.5,-0.5"/>
<text text-anchor="start" x="428.5" y="-18.5" font-family="Helvetica,sans-Serif" font-size="10.00">sbml/common/libsbml</text>
<text text-anchor="middle" x="483" y="-7.5" font-family="Helvetica,sans-Serif" font-size="10.00">&#45;namespace.h</text>
</a>
</g>
</g>
<!-- Node7&#45;&gt;Node8 -->
<g id="edge7" class="edge">
<title>Node7&#45;&gt;Node8</title>
<path fill="none" stroke="midnightblue" d="M201.05,-262.72C242.24,-226.76 398.75,-90.07 459.09,-37.38"/>
<polygon fill="midnightblue" stroke="midnightblue" points="461.71,-39.74 466.94,-30.53 457.1,-34.47 461.71,-39.74"/>
</g>
<!-- Node9&#45;&gt;Node8 -->
<g id="edge9" class="edge">
<title>Node9&#45;&gt;Node8</title>
<path fill="none" stroke="midnightblue" d="M347.82,-262.72C367.32,-227.2 440.77,-93.41 470.45,-39.36"/>
<polygon fill="midnightblue" stroke="midnightblue" points="473.55,-40.98 475.3,-30.53 467.42,-37.61 473.55,-40.98"/>
</g>
<!-- Node10 -->
<g id="node10" class="node">
<title>Node10</title>
<g id="a_node10"><a xlink:href="libsbml-config_8h.html" target="_top" xlink:title="Decides whether to #include Unix or Windows configuration variables.">
<polygon fill="white" stroke="black" points="585.5,-190.5 585.5,-220.5 710.5,-220.5 710.5,-190.5 585.5,-190.5"/>
<text text-anchor="start" x="593.5" y="-208.5" font-family="Helvetica,sans-Serif" font-size="10.00">sbml/common/libsbml</text>
<text text-anchor="middle" x="648" y="-197.5" font-family="Helvetica,sans-Serif" font-size="10.00">&#45;config.h</text>
</a>
</g>
</g>
<!-- Node9&#45;&gt;Node10 -->
<g id="edge10" class="edge">
<title>Node9&#45;&gt;Node10</title>
<path fill="none" stroke="midnightblue" d="M383.19,-262.94C432.07,-252.52 515.49,-234.74 575.66,-221.92"/>
<polygon fill="midnightblue" stroke="midnightblue" points="576.43,-225.33 585.48,-219.82 574.97,-218.49 576.43,-225.33"/>
</g>
<!-- Node10&#45;&gt;Node8 -->
<g id="edge11" class="edge">
<title>Node10&#45;&gt;Node8</title>
<path fill="none" stroke="midnightblue" d="M624.01,-190.46C609.43,-181.23 590.99,-168.25 577,-154 542.06,-118.4 511.53,-68.35 495.33,-39.48"/>
<polygon fill="midnightblue" stroke="midnightblue" points="498.29,-37.62 490.4,-30.56 492.17,-41 498.29,-37.62"/>
</g>
<!-- Node11 -->
<g id="node11" class="node">
<title>Node11</title>
<g id="a_node11"><a xlink:title=" ">
<polygon fill="white" stroke="#bfbfbf" points="585.5,-123.5 585.5,-153.5 710.5,-153.5 710.5,-123.5 585.5,-123.5"/>
<text text-anchor="start" x="593.5" y="-141.5" font-family="Helvetica,sans-Serif" font-size="10.00">sbml/common/libsbml</text>
<text text-anchor="middle" x="648" y="-130.5" font-family="Helvetica,sans-Serif" font-size="10.00">&#45;config&#45;common.h</text>
</a>
</g>
</g>
<!-- Node10&#45;&gt;Node11 -->
<g id="edge12" class="edge">
<title>Node10&#45;&gt;Node11</title>
<path fill="none" stroke="midnightblue" d="M648,-190.4C648,-182.64 648,-172.81 648,-163.86"/>
<polygon fill="midnightblue" stroke="midnightblue" points="651.5,-163.58 648,-153.58 644.5,-163.58 651.5,-163.58"/>
</g>
<!-- Node12 -->
<g id="node12" class="node">
<title>Node12</title>
<g id="a_node12"><a xlink:href="libsbml-version_8h.html" target="_top" xlink:title="Define libSBML version numbers for access from client software.">
<polygon fill="white" stroke="black" points="729.5,-123.5 729.5,-153.5 854.5,-153.5 854.5,-123.5 729.5,-123.5"/>
<text text-anchor="start" x="737.5" y="-141.5" font-family="Helvetica,sans-Serif" font-size="10.00">sbml/common/libsbml</text>
<text text-anchor="middle" x="792" y="-130.5" font-family="Helvetica,sans-Serif" font-size="10.00">&#45;version.h</text>
</a>
</g>
</g>
<!-- Node10&#45;&gt;Node12 -->
<g id="edge13" class="edge">
<title>Node10&#45;&gt;Node12</title>
<path fill="none" stroke="midnightblue" d="M679.25,-190.4C700.47,-180.81 728.75,-168.05 751.68,-157.7"/>
<polygon fill="midnightblue" stroke="midnightblue" points="753.14,-160.88 760.82,-153.58 750.26,-154.5 753.14,-160.88"/>
</g>
<!-- Node13 -->
<g id="node13" class="node">
<title>Node13</title>
<g id="a_node13"><a xlink:href="extern_8h.html" target="_top" xlink:title="Definitions of LIBSBML_EXTERN and related things.">
<polygon fill="white" stroke="black" points="773,-67.5 773,-86.5 903,-86.5 903,-67.5 773,-67.5"/>
<text text-anchor="middle" x="838" y="-74.5" font-family="Helvetica,sans-Serif" font-size="10.00">sbml/common/extern.h</text>
</a>
</g>
</g>
<!-- Node12&#45;&gt;Node13 -->
<g id="edge14" class="edge">
<title>Node12&#45;&gt;Node13</title>
<path fill="none" stroke="midnightblue" d="M802.9,-123.4C809.59,-114.75 818.18,-103.64 825.18,-94.58"/>
<polygon fill="midnightblue" stroke="midnightblue" points="827.96,-96.71 831.31,-86.66 822.42,-92.43 827.96,-96.71"/>
</g>
<!-- Node13&#45;&gt;Node8 -->
<g id="edge15" class="edge">
<title>Node13&#45;&gt;Node8</title>
<path fill="none" stroke="midnightblue" d="M787.14,-67.48C726.47,-57.31 624.62,-40.24 555.66,-28.68"/>
<polygon fill="midnightblue" stroke="midnightblue" points="556.18,-25.22 545.74,-27.02 555.02,-32.12 556.18,-25.22"/>
</g>
<!-- Node14&#45;&gt;Node6 -->
<g id="edge17" class="edge">
<title>Node14&#45;&gt;Node6</title>
<path fill="none" stroke="midnightblue" d="M999.29,-262.73C987.74,-252.31 968.25,-234.71 954.14,-221.97"/>
<polygon fill="midnightblue" stroke="midnightblue" points="956.32,-219.23 946.56,-215.13 951.63,-224.43 956.32,-219.23"/>
</g>
<!-- Node14&#45;&gt;Node13 -->
<g id="edge19" class="edge">
<title>Node14&#45;&gt;Node13</title>
<path fill="none" stroke="midnightblue" d="M1006.22,-262.81C1000.97,-247.23 988.53,-213.93 971,-190 940.09,-147.81 890.1,-111.43 861.02,-92.32"/>
<polygon fill="midnightblue" stroke="midnightblue" points="862.66,-89.21 852.36,-86.73 858.87,-95.09 862.66,-89.21"/>
</g>
<!-- Node15 -->
<g id="node15" class="node">
<title>Node15</title>
<g id="a_node15"><a xlink:title=" ">
<polygon fill="white" stroke="#bfbfbf" points="1018,-196 1018,-215 1074,-215 1074,-196 1018,-196"/>
<text text-anchor="middle" x="1046" y="-203" font-family="Helvetica,sans-Serif" font-size="10.00">stdarg.h</text>
</a>
</g>
</g>
<!-- Node14&#45;&gt;Node15 -->
<g id="edge18" class="edge">
<title>Node14&#45;&gt;Node15</title>
<path fill="none" stroke="midnightblue" d="M1013.99,-262.73C1019.59,-252.89 1028.83,-236.66 1035.95,-224.16"/>
<polygon fill="midnightblue" stroke="midnightblue" points="1039.18,-225.55 1041.09,-215.13 1033.1,-222.09 1039.18,-225.55"/>
</g>
<!-- Node17&#45;&gt;Node13 -->
<g id="edge23" class="edge">
<title>Node17&#45;&gt;Node13</title>
<path fill="none" stroke="midnightblue" d="M516.44,-257.4C520.31,-227.46 533.74,-157.48 577,-123 605.09,-100.61 696.1,-88.79 762.77,-82.98"/>
<polygon fill="midnightblue" stroke="midnightblue" points="763.16,-86.45 772.83,-82.13 762.57,-79.48 763.16,-86.45"/>
</g>
<!-- Node18&#45;&gt;Node5 -->
<g id="edge26" class="edge">
<title>Node18&#45;&gt;Node5</title>
<path fill="none" stroke="midnightblue" d="M438.2,-436.37C451.24,-418.22 481.7,-375.8 498.8,-351.99"/>
<polygon fill="midnightblue" stroke="midnightblue" points="501.84,-353.76 504.83,-343.59 496.15,-349.67 501.84,-353.76"/>
</g>
<!-- Node18&#45;&gt;Node13 -->
<g id="edge25" class="edge">
<title>Node18&#45;&gt;Node13</title>
<path fill="none" stroke="midnightblue" d="M483.18,-439.29C639.81,-421.5 1102,-366.33 1102,-335 1102,-335 1102,-335 1102,-204.5 1102,-120.35 991.57,-92.14 913.56,-82.7"/>
<polygon fill="midnightblue" stroke="midnightblue" points="913.59,-79.18 903.26,-81.54 912.8,-86.14 913.59,-79.18"/>
</g>
<!-- Node19 -->
<g id="node19" class="node">
<title>Node19</title>
<g id="a_node19"><a xlink:href="_s_b_m_l_namespaces_8h.html" target="_top" xlink:title="SBMLNamespaces class to store level/version and namespace.">
<polygon fill="white" stroke="black" points="279.5,-380.5 279.5,-399.5 422.5,-399.5 422.5,-380.5 279.5,-380.5"/>
<text text-anchor="middle" x="351" y="-387.5" font-family="Helvetica,sans-Serif" font-size="10.00">sbml/SBMLNamespaces.h</text>
</a>
</g>
</g>
<!-- Node18&#45;&gt;Node19 -->
<g id="edge27" class="edge">
<title>Node18&#45;&gt;Node19</title>
<path fill="none" stroke="midnightblue" d="M418.99,-436.32C406.47,-427.98 387.32,-415.21 372.53,-405.35"/>
<polygon fill="midnightblue" stroke="midnightblue" points="374.24,-402.29 363.98,-399.65 370.36,-408.11 374.24,-402.29"/>
</g>
<!-- Node19&#45;&gt;Node2 -->
<g id="edge40" class="edge">
<title>Node19&#45;&gt;Node2</title>
<path fill="none" stroke="midnightblue" d="M279.44,-382.06C234.13,-375.9 175.05,-364.54 126,-344 92.87,-330.13 59.34,-304.94 39.63,-288.73"/>
<polygon fill="midnightblue" stroke="midnightblue" points="41.74,-285.93 31.83,-282.19 37.24,-291.3 41.74,-285.93"/>
</g>
<!-- Node20 -->
<g id="node20" class="node">
<title>Node20</title>
<g id="a_node20"><a xlink:href="_x_m_l_namespaces_8h.html" target="_top" xlink:title="A list of XMLNamespace declarations (URI/prefix pairs)">
<polygon fill="white" stroke="black" points="135,-324.5 135,-343.5 293,-343.5 293,-324.5 135,-324.5"/>
<text text-anchor="middle" x="214" y="-331.5" font-family="Helvetica,sans-Serif" font-size="10.00">sbml/xml/XMLNamespaces.h</text>
</a>
</g>
</g>
<!-- Node19&#45;&gt;Node20 -->
<g id="edge28" class="edge">
<title>Node19&#45;&gt;Node20</title>
<path fill="none" stroke="midnightblue" d="M329.29,-380.44C306.65,-371.52 270.93,-357.44 245.25,-347.32"/>
<polygon fill="midnightblue" stroke="midnightblue" points="246.19,-343.93 235.61,-343.52 243.63,-350.44 246.19,-343.93"/>
</g>
<!-- Node22 -->
<g id="node22" class="node">
<title>Node22</title>
<g id="a_node22"><a xlink:href="common_8h.html" target="_top" xlink:title="Common functions and macros for C and C++.">
<polygon fill="white" stroke="black" points="809.5,-324.5 809.5,-343.5 950.5,-343.5 950.5,-324.5 809.5,-324.5"/>
<text text-anchor="middle" x="880" y="-331.5" font-family="Helvetica,sans-Serif" font-size="10.00">sbml/common/common.h</text>
</a>
</g>
</g>
<!-- Node19&#45;&gt;Node22 -->
<g id="edge34" class="edge">
<title>Node19&#45;&gt;Node22</title>
<path fill="none" stroke="midnightblue" d="M422.62,-381.69C520.82,-371.66 696.76,-353.71 799.44,-343.22"/>
<polygon fill="midnightblue" stroke="midnightblue" points="799.85,-346.7 809.45,-342.2 799.14,-339.74 799.85,-346.7"/>
</g>
<!-- Node24 -->
<g id="node24" class="node">
<title>Node24</title>
<g id="a_node24"><a xlink:title=" ">
<polygon fill="white" stroke="#bfbfbf" points="318.5,-324.5 318.5,-343.5 383.5,-343.5 383.5,-324.5 318.5,-324.5"/>
<text text-anchor="middle" x="351" y="-331.5" font-family="Helvetica,sans-Serif" font-size="10.00">stdexcept</text>
</a>
</g>
</g>
<!-- Node19&#45;&gt;Node24 -->
<g id="edge41" class="edge">
<title>Node19&#45;&gt;Node24</title>
<path fill="none" stroke="midnightblue" d="M351,-380.08C351,-373.01 351,-362.86 351,-353.99"/>
<polygon fill="midnightblue" stroke="midnightblue" points="354.5,-353.75 351,-343.75 347.5,-353.75 354.5,-353.75"/>
</g>
<!-- Node20&#45;&gt;Node2 -->
<g id="edge32" class="edge">
<title>Node20&#45;&gt;Node2</title>
<path fill="none" stroke="midnightblue" d="M176.68,-324.43C143.69,-316.41 94.5,-303.39 53,-288 51.57,-287.47 50.12,-286.9 48.66,-286.31"/>
<polygon fill="midnightblue" stroke="midnightblue" points="49.73,-282.95 39.16,-282.14 46.92,-289.36 49.73,-282.95"/>
</g>
<!-- Node20&#45;&gt;Node7 -->
<g id="edge29" class="edge">
<title>Node20&#45;&gt;Node7</title>
<path fill="none" stroke="midnightblue" d="M210.7,-324.48C207.39,-315.9 202.18,-302.43 197.95,-291.48"/>
<polygon fill="midnightblue" stroke="midnightblue" points="201.16,-290.07 194.29,-282.01 194.63,-292.6 201.16,-290.07"/>
</g>
<!-- Node20&#45;&gt;Node9 -->
<g id="edge30" class="edge">
<title>Node20&#45;&gt;Node9</title>
<path fill="none" stroke="midnightblue" d="M232.48,-324.48C254.13,-314.49 290.21,-297.85 315.23,-286.31"/>
<polygon fill="midnightblue" stroke="midnightblue" points="316.94,-289.38 324.55,-282.01 314.01,-283.02 316.94,-289.38"/>
</g>
<!-- Node20&#45;&gt;Node17 -->
<g id="edge31" class="edge">
<title>Node20&#45;&gt;Node17</title>
<path fill="none" stroke="midnightblue" d="M257.13,-324.48C303.13,-315.38 377.07,-300.77 434,-289.51"/>
<polygon fill="midnightblue" stroke="midnightblue" points="434.93,-292.9 444.06,-287.52 433.57,-286.03 434.93,-292.9"/>
</g>
<!-- Node21 -->
<g id="node21" class="node">
<title>Node21</title>
<g id="a_node21"><a xlink:title=" ">
<polygon fill="white" stroke="#bfbfbf" points="62.5,-263 62.5,-282 109.5,-282 109.5,-263 62.5,-263"/>
<text text-anchor="middle" x="86" y="-270" font-family="Helvetica,sans-Serif" font-size="10.00">vector</text>
</a>
</g>
</g>
<!-- Node20&#45;&gt;Node21 -->
<g id="edge33" class="edge">
<title>Node20&#45;&gt;Node21</title>
<path fill="none" stroke="midnightblue" d="M195.66,-324.48C174.18,-314.49 138.38,-297.85 113.55,-286.31"/>
<polygon fill="midnightblue" stroke="midnightblue" points="114.85,-283.05 104.31,-282.01 111.9,-289.4 114.85,-283.05"/>
</g>
<!-- Node22&#45;&gt;Node6 -->
<g id="edge36" class="edge">
<title>Node22&#45;&gt;Node6</title>
<path fill="none" stroke="midnightblue" d="M887.82,-324.3C895.23,-315.64 906.21,-301.72 913,-288 923.09,-267.61 929.73,-242.21 933.42,-225.24"/>
<polygon fill="midnightblue" stroke="midnightblue" points="936.85,-225.93 935.42,-215.44 929.99,-224.53 936.85,-225.93"/>
</g>
<!-- Node22&#45;&gt;Node10 -->
<g id="edge35" class="edge">
<title>Node22&#45;&gt;Node10</title>
<path fill="none" stroke="midnightblue" d="M878.19,-324.47C874.38,-308.66 864.01,-274.83 842,-257 807.92,-229.39 760.38,-216.72 720.89,-210.98"/>
<polygon fill="midnightblue" stroke="midnightblue" points="721.15,-207.49 710.77,-209.63 720.22,-214.42 721.15,-207.49"/>
</g>
<!-- Node22&#45;&gt;Node13 -->
<g id="edge37" class="edge">
<title>Node22&#45;&gt;Node13</title>
<path fill="none" stroke="midnightblue" d="M880.69,-324.34C882.73,-295.18 887.23,-198.1 864,-123 860.97,-113.21 855.51,-103.25 850.38,-95.2"/>
<polygon fill="midnightblue" stroke="midnightblue" points="853.16,-93.07 844.66,-86.75 847.36,-96.99 853.16,-93.07"/>
</g>
<!-- Node22&#45;&gt;Node14 -->
<g id="edge39" class="edge">
<title>Node22&#45;&gt;Node14</title>
<path fill="none" stroke="midnightblue" d="M898.48,-324.48C920.13,-314.49 956.21,-297.85 981.23,-286.31"/>
<polygon fill="midnightblue" stroke="midnightblue" points="982.94,-289.38 990.55,-282.01 980.01,-283.02 982.94,-289.38"/>
</g>
<!-- Node23 -->
<g id="node23" class="node">
<title>Node23</title>
<g id="a_node23"><a xlink:href="memory_8h.html" target="_top" xlink:title=" ">
<polygon fill="white" stroke="black" points="721.5,-263 721.5,-282 832.5,-282 832.5,-263 721.5,-263"/>
<text text-anchor="middle" x="777" y="-270" font-family="Helvetica,sans-Serif" font-size="10.00">sbml/util/memory.h</text>
</a>
</g>
</g>
<!-- Node22&#45;&gt;Node23 -->
<g id="edge38" class="edge">
<title>Node22&#45;&gt;Node23</title>
<path fill="none" stroke="midnightblue" d="M865.24,-324.48C848.34,-314.71 820.42,-298.58 800.51,-287.08"/>
<polygon fill="midnightblue" stroke="midnightblue" points="802.14,-283.98 791.73,-282.01 798.64,-290.04 802.14,-283.98"/>
</g>
</g>
</svg>
        <g id="navigator" transform="translate(0 0)" fill="#404254">
                <rect fill="#f2f5e9" fill-opacity="0.5" stroke="#606060" stroke-width=".5" x="0" y="0" width="60" height="60"/>
                <use id="zoomplus" xlink:href="#zoomPlus" x="17" y="9" onmousedown="handleZoom(evt,'in')"/>
                <use id="zoomminus" xlink:href="#zoomMin" x="42" y="9" onmousedown="handleZoom(evt,'out')"/>
                <use id="reset" xlink:href="#resetDef" x="30" y="36" onmousedown="handleReset()"/>
                <g id="arrowUp" xlink:href="#dirArrow" transform="translate(30 24)" onmousedown="handlePan(0,-1)">
                  <use xlink:href="#rim" fill="#404040">
                        <set attributeName="fill" to="#808080" begin="arrowUp.mouseover" end="arrowUp.mouseout"/>
                  </use>
                  <path fill="none" stroke="white" stroke-width="1.5" d="M0,-3.0v7 M-2.5,-0.5L0,-3.0L2.5,-0.5"/>
                </g>
                <g id="arrowRight" xlink:href="#dirArrow" transform="rotate(90) translate(36 -43)" onmousedown="handlePan(1,0)">
                  <use xlink:href="#rim" fill="#404040">
                        <set attributeName="fill" to="#808080" begin="arrowRight.mouseover" end="arrowRight.mouseout"/>
                  </use>
                  <path fill="none" stroke="white" stroke-width="1.5" d="M0,-3.0v7 M-2.5,-0.5L0,-3.0L2.5,-0.5"/>
                </g>
                <g id="arrowDown" xlink:href="#dirArrow" transform="rotate(180) translate(-30 -48)" onmousedown="handlePan(0,1)">
                  <use xlink:href="#rim" fill="#404040">
                        <set attributeName="fill" to="#808080" begin="arrowDown.mouseover" end="arrowDown.mouseout"/>
                  </use>
                  <path fill="none" stroke="white" stroke-width="1.5" d="M0,-3.0v7 M-2.5,-0.5L0,-3.0L2.5,-0.5"/>
                </g>
                <g id="arrowLeft" xlink:href="#dirArrow" transform="rotate(270) translate(-36 17)" onmousedown="handlePan(-1,0)">
                  <use xlink:href="#rim" fill="#404040">
                        <set attributeName="fill" to="#808080" begin="arrowLeft.mouseover" end="arrowLeft.mouseout"/>
                  </use>
                  <path fill="none" stroke="white" stroke-width="1.5" d="M0,-3.0v7 M-2.5,-0.5L0,-3.0L2.5,-0.5"/>
                </g>
        </g>
        <svg viewBox="0 0 15 15" width="100%" height="30px" preserveAspectRatio="xMaxYMin meet">
         <g id="arrow_out" transform="scale(0.3 0.3)">
          <a xlink:href="_s_b_m_l_error_table_8h__incl_org.svg" target="_base">
           <rect id="button" ry="5" rx="5" y="6" x="6" height="38" width="38"
                fill="#f2f5e9" fill-opacity="0.5" stroke="#606060" stroke-width="1.0"/>
           <path id="arrow"
             d="M 11.500037,31.436501 C 11.940474,20.09759 22.043105,11.32322 32.158766,21.979434 L 37.068811,17.246167 C 37.068811,17.246167 37.088388,32 37.088388,32 L 22.160133,31.978069 C 22.160133,31.978069 26.997745,27.140456 26.997745,27.140456 C 18.528582,18.264221 13.291696,25.230495 11.500037,31.436501 z"
             style="fill:#404040;"/>
          </a>
         </g>
        </svg>
</svg>
