<?xml version="1.0" encoding="UTF-8" standalone="no"?>
<!DOCTYPE svg PUBLIC "-//W3C//DTD SVG 1.1//EN"
 "http://www.w3.org/Graphics/SVG/1.1/DTD/svg11.dtd">
<!-- Generated by graphviz version 2.43.0 (0)
 -->
<!-- Title: SBMLNamespaces.h Pages: 1 -->
<svg width="848pt" height="397pt"
 viewBox="0.00 0.00 848.00 397.00" xmlns="http://www.w3.org/2000/svg" xmlns:xlink="http://www.w3.org/1999/xlink">
<g id="graph0" class="graph" transform="scale(1 1) rotate(0) translate(4 393)">
<title>SBMLNamespaces.h</title>
<polygon fill="white" stroke="transparent" points="-4,4 -4,-393 844,-393 844,4 -4,4"/>
<!-- Node1 -->
<g id="node1" class="node">
<title>Node1</title>
<g id="a_node1"><a xlink:title="SBMLNamespaces class to store level/version and namespace.">
<polygon fill="#bfbfbf" stroke="black" points="388.5,-369.5 388.5,-388.5 504.5,-388.5 504.5,-369.5 388.5,-369.5"/>
<text text-anchor="middle" x="446.5" y="-376.5" font-family="Helvetica,sans-Serif" font-size="10.00">SBMLNamespaces.h</text>
</a>
</g>
</g>
<!-- Node2 -->
<g id="node2" class="node">
<title>Node2</title>
<g id="a_node2"><a xlink:href="_x_m_l_namespaces_8h.html" target="_top" xlink:title="A list of XMLNamespace declarations (URI/prefix pairs)">
<polygon fill="white" stroke="black" points="221.5,-313.5 221.5,-332.5 379.5,-332.5 379.5,-313.5 221.5,-313.5"/>
<text text-anchor="middle" x="300.5" y="-320.5" font-family="Helvetica,sans-Serif" font-size="10.00">sbml/xml/XMLNamespaces.h</text>
</a>
</g>
</g>
<!-- Node1&#45;&gt;Node2 -->
<g id="edge1" class="edge">
<title>Node1&#45;&gt;Node2</title>
<path fill="none" stroke="midnightblue" d="M423.37,-369.44C399.02,-360.44 360.49,-346.19 333.08,-336.05"/>
<polygon fill="midnightblue" stroke="midnightblue" points="334.12,-332.7 323.53,-332.52 331.69,-339.27 334.12,-332.7"/>
</g>
<!-- Node11 -->
<g id="node11" class="node">
<title>Node11</title>
<g id="a_node11"><a xlink:title=" ">
<polygon fill="white" stroke="#bfbfbf" points="405.5,-257.5 405.5,-276.5 449.5,-276.5 449.5,-257.5 405.5,-257.5"/>
<text text-anchor="middle" x="427.5" y="-264.5" font-family="Helvetica,sans-Serif" font-size="10.00">string</text>
</a>
</g>
</g>
<!-- Node1&#45;&gt;Node11 -->
<g id="edge25" class="edge">
<title>Node1&#45;&gt;Node11</title>
<path fill="none" stroke="midnightblue" d="M445.01,-369.37C441.94,-351.62 434.87,-310.67 430.71,-286.6"/>
<polygon fill="midnightblue" stroke="midnightblue" points="434.14,-285.85 428.98,-276.59 427.24,-287.04 434.14,-285.85"/>
</g>
<!-- Node13 -->
<g id="node13" class="node">
<title>Node13</title>
<g id="a_node13"><a xlink:href="common_8h.html" target="_top" xlink:title="Common functions and macros for C and C++.">
<polygon fill="white" stroke="black" points="522,-257.5 522,-276.5 663,-276.5 663,-257.5 522,-257.5"/>
<text text-anchor="middle" x="592.5" y="-264.5" font-family="Helvetica,sans-Serif" font-size="10.00">sbml/common/common.h</text>
</a>
</g>
</g>
<!-- Node1&#45;&gt;Node13 -->
<g id="edge16" class="edge">
<title>Node1&#45;&gt;Node13</title>
<path fill="none" stroke="midnightblue" d="M449.68,-369.23C455.06,-355.5 467.2,-328.86 485.5,-313 503.38,-297.5 527.36,-286.75 548.09,-279.66"/>
<polygon fill="midnightblue" stroke="midnightblue" points="549.23,-282.97 557.66,-276.56 547.07,-276.31 549.23,-282.97"/>
</g>
<!-- Node18 -->
<g id="node18" class="node">
<title>Node18</title>
<g id="a_node18"><a xlink:title=" ">
<polygon fill="white" stroke="#bfbfbf" points="494,-313.5 494,-332.5 559,-332.5 559,-313.5 494,-313.5"/>
<text text-anchor="middle" x="526.5" y="-320.5" font-family="Helvetica,sans-Serif" font-size="10.00">stdexcept</text>
</a>
</g>
</g>
<!-- Node1&#45;&gt;Node18 -->
<g id="edge26" class="edge">
<title>Node1&#45;&gt;Node18</title>
<path fill="none" stroke="midnightblue" d="M459.35,-369.32C471.72,-360.98 490.63,-348.21 505.24,-338.35"/>
<polygon fill="midnightblue" stroke="midnightblue" points="507.35,-341.15 513.68,-332.65 503.43,-335.35 507.35,-341.15"/>
</g>
<!-- Node3 -->
<g id="node3" class="node">
<title>Node3</title>
<g id="a_node3"><a xlink:href="_x_m_l_extern_8h.html" target="_top" xlink:title="Defines LIBLAX_EXTERN.">
<polygon fill="white" stroke="black" points="0,-67.5 0,-86.5 127,-86.5 127,-67.5 0,-67.5"/>
<text text-anchor="middle" x="63.5" y="-74.5" font-family="Helvetica,sans-Serif" font-size="10.00">sbml/xml/XMLExtern.h</text>
</a>
</g>
</g>
<!-- Node2&#45;&gt;Node3 -->
<g id="edge2" class="edge">
<title>Node2&#45;&gt;Node3</title>
<path fill="none" stroke="midnightblue" d="M221.09,-316.06C190.8,-310.11 157.96,-298.69 134.5,-277 81.31,-227.81 67.93,-136.07 64.6,-96.72"/>
<polygon fill="midnightblue" stroke="midnightblue" points="68.08,-96.41 63.87,-86.69 61.1,-96.91 68.08,-96.41"/>
</g>
<!-- Node5 -->
<g id="node5" class="node">
<title>Node5</title>
<g id="a_node5"><a xlink:href="sbmlfwd_8h.html" target="_top" xlink:title="Forward declarations for all opaque C types.">
<polygon fill="white" stroke="black" points="209.5,-257.5 209.5,-276.5 349.5,-276.5 349.5,-257.5 209.5,-257.5"/>
<text text-anchor="middle" x="279.5" y="-264.5" font-family="Helvetica,sans-Serif" font-size="10.00">sbml/common/sbmlfwd.h</text>
</a>
</g>
</g>
<!-- Node2&#45;&gt;Node5 -->
<g id="edge4" class="edge">
<title>Node2&#45;&gt;Node5</title>
<path fill="none" stroke="midnightblue" d="M297.03,-313.08C294.19,-305.77 290.07,-295.18 286.54,-286.1"/>
<polygon fill="midnightblue" stroke="midnightblue" points="289.79,-284.8 282.9,-276.75 283.27,-287.34 289.79,-284.8"/>
</g>
<!-- Node10 -->
<g id="node10" class="node">
<title>Node10</title>
<g id="a_node10"><a xlink:href="operation_return_values_8h.html" target="_top" xlink:title="Enumeration of values returned by operations within libSBML.">
<polygon fill="white" stroke="black" points="360.5,-190.5 360.5,-220.5 528.5,-220.5 528.5,-190.5 360.5,-190.5"/>
<text text-anchor="start" x="368.5" y="-208.5" font-family="Helvetica,sans-Serif" font-size="10.00">sbml/common/operationReturn</text>
<text text-anchor="middle" x="444.5" y="-197.5" font-family="Helvetica,sans-Serif" font-size="10.00">Values.h</text>
</a>
</g>
</g>
<!-- Node2&#45;&gt;Node10 -->
<g id="edge12" class="edge">
<title>Node2&#45;&gt;Node10</title>
<path fill="none" stroke="midnightblue" d="M311.69,-313.46C323.42,-304.47 342.36,-289.87 358.5,-277 379.25,-260.45 402.52,-241.34 419.62,-227.19"/>
<polygon fill="midnightblue" stroke="midnightblue" points="422.01,-229.76 427.48,-220.68 417.54,-224.37 422.01,-229.76"/>
</g>
<!-- Node2&#45;&gt;Node11 -->
<g id="edge14" class="edge">
<title>Node2&#45;&gt;Node11</title>
<path fill="none" stroke="midnightblue" d="M320.62,-313.44C341.52,-304.56 374.43,-290.56 398.22,-280.45"/>
<polygon fill="midnightblue" stroke="midnightblue" points="399.64,-283.65 407.47,-276.52 396.9,-277.21 399.64,-283.65"/>
</g>
<!-- Node12 -->
<g id="node12" class="node">
<title>Node12</title>
<g id="a_node12"><a xlink:title=" ">
<polygon fill="white" stroke="#bfbfbf" points="144,-257.5 144,-276.5 191,-276.5 191,-257.5 144,-257.5"/>
<text text-anchor="middle" x="167.5" y="-264.5" font-family="Helvetica,sans-Serif" font-size="10.00">vector</text>
</a>
</g>
</g>
<!-- Node2&#45;&gt;Node12 -->
<g id="edge15" class="edge">
<title>Node2&#45;&gt;Node12</title>
<path fill="none" stroke="midnightblue" d="M279.43,-313.44C257.44,-304.52 222.77,-290.44 197.84,-280.32"/>
<polygon fill="midnightblue" stroke="midnightblue" points="199.06,-277.04 188.48,-276.52 196.42,-283.52 199.06,-277.04"/>
</g>
<!-- Node4 -->
<g id="node4" class="node">
<title>Node4</title>
<g id="a_node4"><a xlink:title=" ">
<polygon fill="white" stroke="#bfbfbf" points="112,-0.5 112,-30.5 237,-30.5 237,-0.5 112,-0.5"/>
<text text-anchor="start" x="120" y="-18.5" font-family="Helvetica,sans-Serif" font-size="10.00">sbml/common/libsbml</text>
<text text-anchor="middle" x="174.5" y="-7.5" font-family="Helvetica,sans-Serif" font-size="10.00">&#45;namespace.h</text>
</a>
</g>
</g>
<!-- Node3&#45;&gt;Node4 -->
<g id="edge3" class="edge">
<title>Node3&#45;&gt;Node4</title>
<path fill="none" stroke="midnightblue" d="M79.4,-67.48C95,-59.12 119.3,-46.09 139.43,-35.3"/>
<polygon fill="midnightblue" stroke="midnightblue" points="141.18,-38.33 148.34,-30.52 137.87,-32.16 141.18,-38.33"/>
</g>
<!-- Node5&#45;&gt;Node4 -->
<g id="edge5" class="edge">
<title>Node5&#45;&gt;Node4</title>
<path fill="none" stroke="midnightblue" d="M256.92,-257.49C240.72,-250.23 219.68,-238.2 207.5,-221 168.56,-166.02 168.94,-82.01 171.94,-40.89"/>
<polygon fill="midnightblue" stroke="midnightblue" points="175.45,-40.97 172.81,-30.71 168.47,-40.38 175.45,-40.97"/>
</g>
<!-- Node6 -->
<g id="node6" class="node">
<title>Node6</title>
<g id="a_node6"><a xlink:href="libsbml-config_8h.html" target="_top" xlink:title="Decides whether to #include Unix or Windows configuration variables.">
<polygon fill="white" stroke="black" points="217,-190.5 217,-220.5 342,-220.5 342,-190.5 217,-190.5"/>
<text text-anchor="start" x="225" y="-208.5" font-family="Helvetica,sans-Serif" font-size="10.00">sbml/common/libsbml</text>
<text text-anchor="middle" x="279.5" y="-197.5" font-family="Helvetica,sans-Serif" font-size="10.00">&#45;config.h</text>
</a>
</g>
</g>
<!-- Node5&#45;&gt;Node6 -->
<g id="edge6" class="edge">
<title>Node5&#45;&gt;Node6</title>
<path fill="none" stroke="midnightblue" d="M279.5,-257.48C279.5,-250.47 279.5,-240.19 279.5,-230.7"/>
<polygon fill="midnightblue" stroke="midnightblue" points="283,-230.52 279.5,-220.52 276,-230.52 283,-230.52"/>
</g>
<!-- Node6&#45;&gt;Node4 -->
<g id="edge7" class="edge">
<title>Node6&#45;&gt;Node4</title>
<path fill="none" stroke="midnightblue" d="M253.2,-190.4C239.21,-181.65 222.82,-169.18 212.5,-154 188.79,-119.14 179.81,-69.83 176.45,-40.71"/>
<polygon fill="midnightblue" stroke="midnightblue" points="179.92,-40.21 175.42,-30.61 172.96,-40.92 179.92,-40.21"/>
</g>
<!-- Node7 -->
<g id="node7" class="node">
<title>Node7</title>
<g id="a_node7"><a xlink:title=" ">
<polygon fill="white" stroke="#bfbfbf" points="222,-123.5 222,-153.5 347,-153.5 347,-123.5 222,-123.5"/>
<text text-anchor="start" x="230" y="-141.5" font-family="Helvetica,sans-Serif" font-size="10.00">sbml/common/libsbml</text>
<text text-anchor="middle" x="284.5" y="-130.5" font-family="Helvetica,sans-Serif" font-size="10.00">&#45;config&#45;common.h</text>
</a>
</g>
</g>
<!-- Node6&#45;&gt;Node7 -->
<g id="edge8" class="edge">
<title>Node6&#45;&gt;Node7</title>
<path fill="none" stroke="midnightblue" d="M280.58,-190.4C281.19,-182.56 281.95,-172.6 282.65,-163.57"/>
<polygon fill="midnightblue" stroke="midnightblue" points="286.14,-163.82 283.42,-153.58 279.16,-163.28 286.14,-163.82"/>
</g>
<!-- Node8 -->
<g id="node8" class="node">
<title>Node8</title>
<g id="a_node8"><a xlink:href="libsbml-version_8h.html" target="_top" xlink:title="Define libSBML version numbers for access from client software.">
<polygon fill="white" stroke="black" points="365,-123.5 365,-153.5 490,-153.5 490,-123.5 365,-123.5"/>
<text text-anchor="start" x="373" y="-141.5" font-family="Helvetica,sans-Serif" font-size="10.00">sbml/common/libsbml</text>
<text text-anchor="middle" x="427.5" y="-130.5" font-family="Helvetica,sans-Serif" font-size="10.00">&#45;version.h</text>
</a>
</g>
</g>
<!-- Node6&#45;&gt;Node8 -->
<g id="edge9" class="edge">
<title>Node6&#45;&gt;Node8</title>
<path fill="none" stroke="midnightblue" d="M311.61,-190.4C333.43,-180.81 362.49,-168.05 386.06,-157.7"/>
<polygon fill="midnightblue" stroke="midnightblue" points="387.7,-160.8 395.45,-153.58 384.89,-154.39 387.7,-160.8"/>
</g>
<!-- Node9 -->
<g id="node9" class="node">
<title>Node9</title>
<g id="a_node9"><a xlink:href="extern_8h.html" target="_top" xlink:title="Definitions of LIBSBML_EXTERN and related things.">
<polygon fill="white" stroke="black" points="453.5,-67.5 453.5,-86.5 583.5,-86.5 583.5,-67.5 453.5,-67.5"/>
<text text-anchor="middle" x="518.5" y="-74.5" font-family="Helvetica,sans-Serif" font-size="10.00">sbml/common/extern.h</text>
</a>
</g>
</g>
<!-- Node8&#45;&gt;Node9 -->
<g id="edge10" class="edge">
<title>Node8&#45;&gt;Node9</title>
<path fill="none" stroke="midnightblue" d="M449.07,-123.4C463.38,-114.04 482.11,-101.79 496.51,-92.38"/>
<polygon fill="midnightblue" stroke="midnightblue" points="498.8,-95.06 505.26,-86.66 494.97,-89.2 498.8,-95.06"/>
</g>
<!-- Node9&#45;&gt;Node4 -->
<g id="edge11" class="edge">
<title>Node9&#45;&gt;Node4</title>
<path fill="none" stroke="midnightblue" d="M469.21,-67.48C411.08,-57.42 313.91,-40.61 247.14,-29.06"/>
<polygon fill="midnightblue" stroke="midnightblue" points="247.56,-25.59 237.11,-27.33 246.37,-32.48 247.56,-25.59"/>
</g>
<!-- Node10&#45;&gt;Node9 -->
<g id="edge13" class="edge">
<title>Node10&#45;&gt;Node9</title>
<path fill="none" stroke="midnightblue" d="M464.39,-190.46C475.94,-181.32 489.88,-168.44 498.5,-154 509.08,-136.28 514.14,-112.96 516.51,-96.85"/>
<polygon fill="midnightblue" stroke="midnightblue" points="520.03,-96.93 517.8,-86.58 513.08,-96.06 520.03,-96.93"/>
</g>
<!-- Node13&#45;&gt;Node6 -->
<g id="edge17" class="edge">
<title>Node13&#45;&gt;Node6</title>
<path fill="none" stroke="midnightblue" d="M545.81,-257.48C499.32,-248.96 425.65,-235.33 352.21,-221.12"/>
<polygon fill="midnightblue" stroke="midnightblue" points="352.8,-217.67 342.32,-219.21 351.47,-224.54 352.8,-217.67"/>
</g>
<!-- Node13&#45;&gt;Node9 -->
<g id="edge19" class="edge">
<title>Node13&#45;&gt;Node9</title>
<path fill="none" stroke="midnightblue" d="M589.13,-257.43C577.84,-228.74 541.19,-135.63 525.61,-96.06"/>
<polygon fill="midnightblue" stroke="midnightblue" points="528.81,-94.64 521.89,-86.62 522.3,-97.2 528.81,-94.64"/>
</g>
<!-- Node14 -->
<g id="node14" class="node">
<title>Node14</title>
<g id="a_node14"><a xlink:title=" ">
<polygon fill="white" stroke="#bfbfbf" points="696.5,-129 696.5,-148 746.5,-148 746.5,-129 696.5,-129"/>
<text text-anchor="middle" x="721.5" y="-136" font-family="Helvetica,sans-Serif" font-size="10.00">stdio.h</text>
</a>
</g>
</g>
<!-- Node13&#45;&gt;Node14 -->
<g id="edge18" class="edge">
<title>Node13&#45;&gt;Node14</title>
<path fill="none" stroke="midnightblue" d="M619.86,-257.43C639.08,-250.25 664.34,-238.36 681.5,-221 699.2,-203.09 710.38,-175.8 716.29,-157.8"/>
<polygon fill="midnightblue" stroke="midnightblue" points="719.65,-158.79 719.24,-148.2 712.96,-156.73 719.65,-158.79"/>
</g>
<!-- Node15 -->
<g id="node15" class="node">
<title>Node15</title>
<g id="a_node15"><a xlink:href="memory_8h.html" target="_top" xlink:title=" ">
<polygon fill="white" stroke="black" points="729,-196 729,-215 840,-215 840,-196 729,-196"/>
<text text-anchor="middle" x="784.5" y="-203" font-family="Helvetica,sans-Serif" font-size="10.00">sbml/util/memory.h</text>
</a>
</g>
</g>
<!-- Node13&#45;&gt;Node15 -->
<g id="edge20" class="edge">
<title>Node13&#45;&gt;Node15</title>
<path fill="none" stroke="midnightblue" d="M620.01,-257.48C653.37,-247.14 709.76,-229.66 747.06,-218.1"/>
<polygon fill="midnightblue" stroke="midnightblue" points="748.53,-221.31 757.04,-215.01 746.45,-214.63 748.53,-221.31"/>
</g>
<!-- Node16 -->
<g id="node16" class="node">
<title>Node16</title>
<g id="a_node16"><a xlink:href="util_8h.html" target="_top" xlink:title="Utility functions.">
<polygon fill="white" stroke="black" points="585,-196 585,-215 672,-215 672,-196 585,-196"/>
<text text-anchor="middle" x="628.5" y="-203" font-family="Helvetica,sans-Serif" font-size="10.00">sbml/util/util.h</text>
</a>
</g>
</g>
<!-- Node13&#45;&gt;Node16 -->
<g id="edge21" class="edge">
<title>Node13&#45;&gt;Node16</title>
<path fill="none" stroke="midnightblue" d="M597.66,-257.48C602.95,-248.73 611.34,-234.87 618.03,-223.81"/>
<polygon fill="midnightblue" stroke="midnightblue" points="621.17,-225.38 623.35,-215.01 615.18,-221.75 621.17,-225.38"/>
</g>
<!-- Node16&#45;&gt;Node9 -->
<g id="edge24" class="edge">
<title>Node16&#45;&gt;Node9</title>
<path fill="none" stroke="midnightblue" d="M623.35,-195.91C613.9,-180.48 592.7,-147.41 570.5,-123 560.59,-112.1 548.14,-101.25 537.91,-92.93"/>
<polygon fill="midnightblue" stroke="midnightblue" points="539.95,-90.08 529.95,-86.6 535.6,-95.56 539.95,-90.08"/>
</g>
<!-- Node16&#45;&gt;Node14 -->
<g id="edge22" class="edge">
<title>Node16&#45;&gt;Node14</title>
<path fill="none" stroke="midnightblue" d="M641.04,-195.73C656.38,-185.01 682.56,-166.72 700.88,-153.91"/>
<polygon fill="midnightblue" stroke="midnightblue" points="702.96,-156.72 709.16,-148.13 698.95,-150.99 702.96,-156.72"/>
</g>
<!-- Node17 -->
<g id="node17" class="node">
<title>Node17</title>
<g id="a_node17"><a xlink:title=" ">
<polygon fill="white" stroke="#bfbfbf" points="622.5,-129 622.5,-148 678.5,-148 678.5,-129 622.5,-129"/>
<text text-anchor="middle" x="650.5" y="-136" font-family="Helvetica,sans-Serif" font-size="10.00">stdarg.h</text>
</a>
</g>
</g>
<!-- Node16&#45;&gt;Node17 -->
<g id="edge23" class="edge">
<title>Node16&#45;&gt;Node17</title>
<path fill="none" stroke="midnightblue" d="M631.47,-195.73C634.73,-186.09 640.08,-170.3 644.27,-157.91"/>
<polygon fill="midnightblue" stroke="midnightblue" points="647.69,-158.72 647.58,-148.13 641.06,-156.48 647.69,-158.72"/>
</g>
</g>
</svg>
