<?xml version="1.0" encoding="UTF-8" standalone="no"?>
<!DOCTYPE svg PUBLIC "-//W3C//DTD SVG 1.1//EN"
 "http://www.w3.org/Graphics/SVG/1.1/DTD/svg11.dtd">
<!-- Generated by graphviz version 2.43.0 (0)
 -->
<!-- Title: SBMLWriter.h Pages: 1 -->
<svg width="427pt" height="341pt"
 viewBox="0.00 0.00 426.54 341.00" xmlns="http://www.w3.org/2000/svg" xmlns:xlink="http://www.w3.org/1999/xlink">
<g id="graph0" class="graph" transform="scale(1 1) rotate(0) translate(4 337)">
<title>SBMLWriter.h</title>
<polygon fill="white" stroke="transparent" points="-4,4 -4,-337 422.54,-337 422.54,4 -4,4"/>
<!-- Node1 -->
<g id="node1" class="node">
<title>Node1</title>
<g id="a_node1"><a xlink:title="Writes an SBML Document to file or in&#45;memory string.">
<polygon fill="#bfbfbf" stroke="black" points="236.04,-313.5 236.04,-332.5 317.04,-332.5 317.04,-313.5 236.04,-313.5"/>
<text text-anchor="middle" x="276.54" y="-320.5" font-family="Helvetica,sans-Serif" font-size="10.00">SBMLWriter.h</text>
</a>
</g>
</g>
<!-- Node2 -->
<g id="node2" class="node">
<title>Node2</title>
<g id="a_node2"><a xlink:href="extern_8h.html" target="_top" xlink:title="Definitions of LIBSBML_EXTERN and related things.">
<polygon fill="white" stroke="black" points="153.54,-67.5 153.54,-86.5 283.54,-86.5 283.54,-67.5 153.54,-67.5"/>
<text text-anchor="middle" x="218.54" y="-74.5" font-family="Helvetica,sans-Serif" font-size="10.00">sbml/common/extern.h</text>
</a>
</g>
</g>
<!-- Node1&#45;&gt;Node2 -->
<g id="edge1" class="edge">
<title>Node1&#45;&gt;Node2</title>
<path fill="none" stroke="midnightblue" d="M240.3,-313.43C176.82,-296.11 48.22,-250.13 5.54,-154 -0.05,-141.41 -3.13,-133.7 5.54,-123 22.85,-101.65 89.25,-90.03 143.37,-83.98"/>
<polygon fill="midnightblue" stroke="midnightblue" points="143.75,-87.46 153.32,-82.92 143,-80.5 143.75,-87.46"/>
</g>
<!-- Node4 -->
<g id="node4" class="node">
<title>Node4</title>
<g id="a_node4"><a xlink:href="sbmlfwd_8h.html" target="_top" xlink:title="Forward declarations for all opaque C types.">
<polygon fill="white" stroke="black" points="150.54,-257.5 150.54,-276.5 290.54,-276.5 290.54,-257.5 150.54,-257.5"/>
<text text-anchor="middle" x="220.54" y="-264.5" font-family="Helvetica,sans-Serif" font-size="10.00">sbml/common/sbmlfwd.h</text>
</a>
</g>
</g>
<!-- Node1&#45;&gt;Node4 -->
<g id="edge3" class="edge">
<title>Node1&#45;&gt;Node4</title>
<path fill="none" stroke="midnightblue" d="M267.55,-313.32C259.35,-305.42 247.04,-293.55 237.07,-283.94"/>
<polygon fill="midnightblue" stroke="midnightblue" points="239.33,-281.26 229.7,-276.83 234.47,-286.29 239.33,-281.26"/>
</g>
<!-- Node8 -->
<g id="node8" class="node">
<title>Node8</title>
<g id="a_node8"><a xlink:title=" ">
<polygon fill="white" stroke="#bfbfbf" points="308.54,-257.5 308.54,-276.5 356.54,-276.5 356.54,-257.5 308.54,-257.5"/>
<text text-anchor="middle" x="332.54" y="-264.5" font-family="Helvetica,sans-Serif" font-size="10.00">iosfwd</text>
</a>
</g>
</g>
<!-- Node1&#45;&gt;Node8 -->
<g id="edge10" class="edge">
<title>Node1&#45;&gt;Node8</title>
<path fill="none" stroke="midnightblue" d="M285.54,-313.32C293.74,-305.42 306.05,-293.55 316.02,-283.94"/>
<polygon fill="midnightblue" stroke="midnightblue" points="318.61,-286.29 323.38,-276.83 313.75,-281.26 318.61,-286.29"/>
</g>
<!-- Node9 -->
<g id="node9" class="node">
<title>Node9</title>
<g id="a_node9"><a xlink:title=" ">
<polygon fill="white" stroke="#bfbfbf" points="374.54,-257.5 374.54,-276.5 418.54,-276.5 418.54,-257.5 374.54,-257.5"/>
<text text-anchor="middle" x="396.54" y="-264.5" font-family="Helvetica,sans-Serif" font-size="10.00">string</text>
</a>
</g>
</g>
<!-- Node1&#45;&gt;Node9 -->
<g id="edge11" class="edge">
<title>Node1&#45;&gt;Node9</title>
<path fill="none" stroke="midnightblue" d="M295.56,-313.44C315.13,-304.64 345.85,-290.81 368.27,-280.72"/>
<polygon fill="midnightblue" stroke="midnightblue" points="369.93,-283.81 377.62,-276.52 367.06,-277.43 369.93,-283.81"/>
</g>
<!-- Node3 -->
<g id="node3" class="node">
<title>Node3</title>
<g id="a_node3"><a xlink:title=" ">
<polygon fill="white" stroke="#bfbfbf" points="249.04,-0.5 249.04,-30.5 374.04,-30.5 374.04,-0.5 249.04,-0.5"/>
<text text-anchor="start" x="257.04" y="-18.5" font-family="Helvetica,sans-Serif" font-size="10.00">sbml/common/libsbml</text>
<text text-anchor="middle" x="311.54" y="-7.5" font-family="Helvetica,sans-Serif" font-size="10.00">&#45;namespace.h</text>
</a>
</g>
</g>
<!-- Node2&#45;&gt;Node3 -->
<g id="edge2" class="edge">
<title>Node2&#45;&gt;Node3</title>
<path fill="none" stroke="midnightblue" d="M231.87,-67.48C244.58,-59.34 264.2,-46.79 280.78,-36.18"/>
<polygon fill="midnightblue" stroke="midnightblue" points="283.09,-38.86 289.62,-30.52 279.32,-32.96 283.09,-38.86"/>
</g>
<!-- Node4&#45;&gt;Node3 -->
<g id="edge4" class="edge">
<title>Node4&#45;&gt;Node3</title>
<path fill="none" stroke="midnightblue" d="M241.74,-257.42C257.59,-249.99 278.66,-237.78 291.54,-221 334.29,-165.33 336.64,-136.46 326.54,-67 325.27,-58.22 322.8,-48.84 320.24,-40.58"/>
<polygon fill="midnightblue" stroke="midnightblue" points="323.48,-39.23 317.01,-30.84 316.83,-41.43 323.48,-39.23"/>
</g>
<!-- Node5 -->
<g id="node5" class="node">
<title>Node5</title>
<g id="a_node5"><a xlink:href="libsbml-config_8h.html" target="_top" xlink:title="Decides whether to #include Unix or Windows configuration variables.">
<polygon fill="white" stroke="black" points="158.04,-190.5 158.04,-220.5 283.04,-220.5 283.04,-190.5 158.04,-190.5"/>
<text text-anchor="start" x="166.04" y="-208.5" font-family="Helvetica,sans-Serif" font-size="10.00">sbml/common/libsbml</text>
<text text-anchor="middle" x="220.54" y="-197.5" font-family="Helvetica,sans-Serif" font-size="10.00">&#45;config.h</text>
</a>
</g>
</g>
<!-- Node4&#45;&gt;Node5 -->
<g id="edge5" class="edge">
<title>Node4&#45;&gt;Node5</title>
<path fill="none" stroke="midnightblue" d="M220.54,-257.48C220.54,-250.47 220.54,-240.19 220.54,-230.7"/>
<polygon fill="midnightblue" stroke="midnightblue" points="224.04,-230.52 220.54,-220.52 217.04,-230.52 224.04,-230.52"/>
</g>
<!-- Node5&#45;&gt;Node3 -->
<g id="edge6" class="edge">
<title>Node5&#45;&gt;Node3</title>
<path fill="none" stroke="midnightblue" d="M250.63,-190.42C265.35,-181.95 281.92,-169.75 291.54,-154 312.96,-118.96 314.73,-69.71 313.52,-40.65"/>
<polygon fill="midnightblue" stroke="midnightblue" points="317.01,-40.36 312.95,-30.57 310.02,-40.76 317.01,-40.36"/>
</g>
<!-- Node6 -->
<g id="node6" class="node">
<title>Node6</title>
<g id="a_node6"><a xlink:title=" ">
<polygon fill="white" stroke="#bfbfbf" points="15.04,-123.5 15.04,-153.5 140.04,-153.5 140.04,-123.5 15.04,-123.5"/>
<text text-anchor="start" x="23.04" y="-141.5" font-family="Helvetica,sans-Serif" font-size="10.00">sbml/common/libsbml</text>
<text text-anchor="middle" x="77.54" y="-130.5" font-family="Helvetica,sans-Serif" font-size="10.00">&#45;config&#45;common.h</text>
</a>
</g>
</g>
<!-- Node5&#45;&gt;Node6 -->
<g id="edge7" class="edge">
<title>Node5&#45;&gt;Node6</title>
<path fill="none" stroke="midnightblue" d="M189.51,-190.4C168.53,-180.86 140.6,-168.16 117.89,-157.84"/>
<polygon fill="midnightblue" stroke="midnightblue" points="119.06,-154.53 108.51,-153.58 116.17,-160.9 119.06,-154.53"/>
</g>
<!-- Node7 -->
<g id="node7" class="node">
<title>Node7</title>
<g id="a_node7"><a xlink:href="libsbml-version_8h.html" target="_top" xlink:title="Define libSBML version numbers for access from client software.">
<polygon fill="white" stroke="black" points="158.04,-123.5 158.04,-153.5 283.04,-153.5 283.04,-123.5 158.04,-123.5"/>
<text text-anchor="start" x="166.04" y="-141.5" font-family="Helvetica,sans-Serif" font-size="10.00">sbml/common/libsbml</text>
<text text-anchor="middle" x="220.54" y="-130.5" font-family="Helvetica,sans-Serif" font-size="10.00">&#45;version.h</text>
</a>
</g>
</g>
<!-- Node5&#45;&gt;Node7 -->
<g id="edge8" class="edge">
<title>Node5&#45;&gt;Node7</title>
<path fill="none" stroke="midnightblue" d="M220.54,-190.4C220.54,-182.64 220.54,-172.81 220.54,-163.86"/>
<polygon fill="midnightblue" stroke="midnightblue" points="224.04,-163.58 220.54,-153.58 217.04,-163.58 224.04,-163.58"/>
</g>
<!-- Node7&#45;&gt;Node2 -->
<g id="edge9" class="edge">
<title>Node7&#45;&gt;Node2</title>
<path fill="none" stroke="midnightblue" d="M220.07,-123.4C219.8,-115.47 219.47,-105.46 219.18,-96.86"/>
<polygon fill="midnightblue" stroke="midnightblue" points="222.67,-96.53 218.83,-86.66 215.67,-96.77 222.67,-96.53"/>
</g>
</g>
</svg>
