<?xml version="1.0" encoding="UTF-8" standalone="no"?>
<!DOCTYPE svg PUBLIC "-//W3C//DTD SVG 1.1//EN"
 "http://www.w3.org/Graphics/SVG/1.1/DTD/svg11.dtd">
<!-- Generated by graphviz version 2.43.0 (0)
 -->
<!-- Title: SBMLUri.h Pages: 1 -->
<svg width="543pt" height="84pt"
 viewBox="0.00 0.00 542.50 84.00" xmlns="http://www.w3.org/2000/svg" xmlns:xlink="http://www.w3.org/1999/xlink">
<g id="graph0" class="graph" transform="scale(1 1) rotate(0) translate(4 80)">
<title>SBMLUri.h</title>
<polygon fill="white" stroke="transparent" points="-4,4 -4,-80 538.5,-80 538.5,4 -4,4"/>
<!-- Node1 -->
<g id="node1" class="node">
<title>Node1</title>
<g id="a_node1"><a xlink:title="Definition of SBMLUri, the utility class for handling URIs.">
<polygon fill="#bfbfbf" stroke="black" points="285,-56.5 285,-75.5 352,-75.5 352,-56.5 285,-56.5"/>
<text text-anchor="middle" x="318.5" y="-63.5" font-family="Helvetica,sans-Serif" font-size="10.00">SBMLUri.h</text>
</a>
</g>
</g>
<!-- Node2 -->
<g id="node2" class="node">
<title>Node2</title>
<g id="a_node2"><a xlink:href="_comp_s_b_m_l_document_plugin_8cpp.html" target="_top" xlink:title="Implementation of CompSBMLDocumentPlugin, the plugin class of comp package for the SBase element.">
<polygon fill="white" stroke="black" points="0,-0.5 0,-19.5 173,-19.5 173,-0.5 0,-0.5"/>
<text text-anchor="middle" x="86.5" y="-7.5" font-family="Helvetica,sans-Serif" font-size="10.00">CompSBMLDocumentPlugin.cpp</text>
</a>
</g>
</g>
<!-- Node1&#45;&gt;Node2 -->
<g id="edge1" class="edge">
<title>Node1&#45;&gt;Node2</title>
<path fill="none" stroke="midnightblue" d="M274.98,-54.87C231.24,-44.69 164.55,-29.17 123.34,-19.58"/>
<polygon fill="midnightblue" stroke="midnightblue" points="274.23,-58.29 284.77,-57.15 275.82,-51.47 274.23,-58.29"/>
</g>
<!-- Node3 -->
<g id="node3" class="node">
<title>Node3</title>
<g id="a_node3"><a xlink:href="_s_b_m_l_file_resolver_8cpp.html" target="_top" xlink:title="Implementation of SBMLFileResolver, the file system based resolver for SBML Documents.">
<polygon fill="white" stroke="black" points="191,-0.5 191,-19.5 314,-19.5 314,-0.5 191,-0.5"/>
<text text-anchor="middle" x="252.5" y="-7.5" font-family="Helvetica,sans-Serif" font-size="10.00">SBMLFileResolver.cpp</text>
</a>
</g>
</g>
<!-- Node1&#45;&gt;Node3 -->
<g id="edge2" class="edge">
<title>Node1&#45;&gt;Node3</title>
<path fill="none" stroke="midnightblue" d="M299.95,-49.82C288.12,-40.15 273.21,-27.95 263.3,-19.83"/>
<polygon fill="midnightblue" stroke="midnightblue" points="297.94,-52.7 307.9,-56.32 302.37,-47.28 297.94,-52.7"/>
</g>
<!-- Node4 -->
<g id="node4" class="node">
<title>Node4</title>
<g id="a_node4"><a xlink:href="_s_b_m_l_resolver_8cpp.html" target="_top" xlink:title="Implementation of SBMLResolver, the base class of package extensions.">
<polygon fill="white" stroke="black" points="332.5,-0.5 332.5,-19.5 438.5,-19.5 438.5,-0.5 332.5,-0.5"/>
<text text-anchor="middle" x="385.5" y="-7.5" font-family="Helvetica,sans-Serif" font-size="10.00">SBMLResolver.cpp</text>
</a>
</g>
</g>
<!-- Node1&#45;&gt;Node4 -->
<g id="edge3" class="edge">
<title>Node1&#45;&gt;Node4</title>
<path fill="none" stroke="midnightblue" d="M337.33,-49.82C349.34,-40.15 364.47,-27.95 374.54,-19.83"/>
<polygon fill="midnightblue" stroke="midnightblue" points="334.85,-47.32 329.26,-56.32 339.25,-52.77 334.85,-47.32"/>
</g>
<!-- Node5 -->
<g id="node5" class="node">
<title>Node5</title>
<g id="a_node5"><a xlink:href="_s_b_m_l_uri_8cpp.html" target="_top" xlink:title="Implementation of SBMLUri, the utility class for handling uris.">
<polygon fill="white" stroke="black" points="456.5,-0.5 456.5,-19.5 534.5,-19.5 534.5,-0.5 456.5,-0.5"/>
<text text-anchor="middle" x="495.5" y="-7.5" font-family="Helvetica,sans-Serif" font-size="10.00">SBMLUri.cpp</text>
</a>
</g>
</g>
<!-- Node1&#45;&gt;Node5 -->
<g id="edge4" class="edge">
<title>Node1&#45;&gt;Node5</title>
<path fill="none" stroke="midnightblue" d="M356.4,-53.44C389.78,-43.26 437.6,-28.66 467.59,-19.52"/>
<polygon fill="midnightblue" stroke="midnightblue" points="355.09,-50.18 346.55,-56.44 357.13,-56.87 355.09,-50.18"/>
</g>
</g>
</svg>
