<?xml version="1.0" encoding="UTF-8" standalone="no"?>
<!DOCTYPE svg PUBLIC "-//W3C//DTD SVG 1.1//EN"
 "http://www.w3.org/Graphics/SVG/1.1/DTD/svg11.dtd">
<!-- Generated by graphviz version 2.43.0 (0)
 -->
<!-- Title: SBMLRateRuleConverter.h Pages: 1 -->
<svg width="483pt" height="140pt"
 viewBox="0.00 0.00 482.50 140.00" xmlns="http://www.w3.org/2000/svg" xmlns:xlink="http://www.w3.org/1999/xlink">
<g id="graph0" class="graph" transform="scale(1 1) rotate(0) translate(4 136)">
<title>SBMLRateRuleConverter.h</title>
<polygon fill="white" stroke="transparent" points="-4,4 -4,-136 478.5,-136 478.5,4 -4,4"/>
<!-- Node1 -->
<g id="node1" class="node">
<title>Node1</title>
<g id="a_node1"><a xlink:title="Definition of SBMLRateRuleConverter, a converter from raterule to reaction.">
<polygon fill="#bfbfbf" stroke="black" points="127,-112.5 127,-131.5 271,-131.5 271,-112.5 127,-112.5"/>
<text text-anchor="middle" x="199" y="-119.5" font-family="Helvetica,sans-Serif" font-size="10.00">SBMLRateRuleConverter.h</text>
</a>
</g>
</g>
<!-- Node2 -->
<g id="node2" class="node">
<title>Node2</title>
<g id="a_node2"><a xlink:href="_expression_analyser_8cpp.html" target="_top" xlink:title="Implementation of ExpressionAnalyser.">
<polygon fill="white" stroke="black" points="0,-0.5 0,-19.5 132,-19.5 132,-0.5 0,-0.5"/>
<text text-anchor="middle" x="66" y="-7.5" font-family="Helvetica,sans-Serif" font-size="10.00">ExpressionAnalyser.cpp</text>
</a>
</g>
</g>
<!-- Node1&#45;&gt;Node2 -->
<g id="edge1" class="edge">
<title>Node1&#45;&gt;Node2</title>
<path fill="none" stroke="midnightblue" d="M141.95,-109.54C121.54,-102.84 99.92,-92.35 85,-76 70.42,-60.02 66.98,-33.43 66.2,-19.74"/>
<polygon fill="midnightblue" stroke="midnightblue" points="140.93,-112.89 151.52,-112.44 142.97,-106.19 140.93,-112.89"/>
</g>
<!-- Node3 -->
<g id="node3" class="node">
<title>Node3</title>
<g id="a_node3"><a xlink:href="_expression_analyser_8h.html" target="_top" xlink:title="Definition of ExpressionAnalyser, a class for analysing expressions.">
<polygon fill="white" stroke="black" points="94.5,-56.5 94.5,-75.5 215.5,-75.5 215.5,-56.5 94.5,-56.5"/>
<text text-anchor="middle" x="155" y="-63.5" font-family="Helvetica,sans-Serif" font-size="10.00">ExpressionAnalyser.h</text>
</a>
</g>
</g>
<!-- Node1&#45;&gt;Node3 -->
<g id="edge2" class="edge">
<title>Node1&#45;&gt;Node3</title>
<path fill="none" stroke="midnightblue" d="M185.27,-104.14C177.6,-94.74 168.37,-83.4 162.13,-75.75"/>
<polygon fill="midnightblue" stroke="midnightblue" points="182.7,-106.54 191.73,-112.08 188.13,-102.12 182.7,-106.54"/>
</g>
<!-- Node4 -->
<g id="node4" class="node">
<title>Node4</title>
<g id="a_node4"><a xlink:href="_s_b_m_l_rate_rule_converter_8cpp.html" target="_top" xlink:title="Implementation of SBMLRateRuleConverter, a converter from raterule to reaction.">
<polygon fill="white" stroke="black" points="150.5,-0.5 150.5,-19.5 305.5,-19.5 305.5,-0.5 150.5,-0.5"/>
<text text-anchor="middle" x="228" y="-7.5" font-family="Helvetica,sans-Serif" font-size="10.00">SBMLRateRuleConverter.cpp</text>
</a>
</g>
</g>
<!-- Node1&#45;&gt;Node4 -->
<g id="edge7" class="edge">
<title>Node1&#45;&gt;Node4</title>
<path fill="none" stroke="midnightblue" d="M210.96,-103.76C215.91,-95.7 221.15,-85.74 224,-76 229.71,-56.47 229.37,-32.27 228.66,-19.62"/>
<polygon fill="midnightblue" stroke="midnightblue" points="207.97,-101.94 205.44,-112.22 213.84,-105.76 207.97,-101.94"/>
</g>
<!-- Node5 -->
<g id="node5" class="node">
<title>Node5</title>
<g id="a_node5"><a xlink:href="_register_converters_8cpp.html" target="_top" xlink:title="Registers all available converters.">
<polygon fill="white" stroke="black" points="302.5,-56.5 302.5,-75.5 433.5,-75.5 433.5,-56.5 302.5,-56.5"/>
<text text-anchor="middle" x="368" y="-63.5" font-family="Helvetica,sans-Serif" font-size="10.00">RegisterConverters.cpp</text>
</a>
</g>
</g>
<!-- Node1&#45;&gt;Node5 -->
<g id="edge5" class="edge">
<title>Node1&#45;&gt;Node5</title>
<path fill="none" stroke="midnightblue" d="M235.6,-109.3C267.45,-99.13 312.84,-84.62 341.35,-75.52"/>
<polygon fill="midnightblue" stroke="midnightblue" points="234.24,-106.07 225.78,-112.44 236.37,-112.73 234.24,-106.07"/>
</g>
<!-- Node3&#45;&gt;Node2 -->
<g id="edge3" class="edge">
<title>Node3&#45;&gt;Node2</title>
<path fill="none" stroke="midnightblue" d="M131.76,-50.9C115.44,-41 94.13,-28.07 80.26,-19.65"/>
<polygon fill="midnightblue" stroke="midnightblue" points="130.34,-54.13 140.7,-56.32 133.97,-48.14 130.34,-54.13"/>
</g>
<!-- Node3&#45;&gt;Node4 -->
<g id="edge4" class="edge">
<title>Node3&#45;&gt;Node4</title>
<path fill="none" stroke="midnightblue" d="M175.14,-50.1C188.28,-40.38 204.98,-28.03 216.06,-19.83"/>
<polygon fill="midnightblue" stroke="midnightblue" points="172.69,-47.56 166.73,-56.32 176.85,-53.19 172.69,-47.56"/>
</g>
<!-- Node6 -->
<g id="node6" class="node">
<title>Node6</title>
<g id="a_node6"><a xlink:href="_s_b_m_l_converter_registry_8cpp.html" target="_top" xlink:title="Implementation of SBMLConverterRegistry, a registry of available converters.">
<polygon fill="white" stroke="black" points="323.5,-0.5 323.5,-19.5 474.5,-19.5 474.5,-0.5 323.5,-0.5"/>
<text text-anchor="middle" x="399" y="-7.5" font-family="Helvetica,sans-Serif" font-size="10.00">SBMLConverterRegistry.cpp</text>
</a>
</g>
</g>
<!-- Node5&#45;&gt;Node6 -->
<g id="edge6" class="edge">
<title>Node5&#45;&gt;Node6</title>
<path fill="none" stroke="midnightblue" d="M378.18,-47.27C383.47,-38.05 389.72,-27.17 393.98,-19.75"/>
<polygon fill="midnightblue" stroke="midnightblue" points="375.06,-45.67 373.12,-56.08 381.13,-49.15 375.06,-45.67"/>
</g>
</g>
</svg>
