<?xml version="1.0" encoding="UTF-8" standalone="no"?>
<!DOCTYPE svg PUBLIC "-//W3C//DTD SVG 1.1//EN"
 "http://www.w3.org/Graphics/SVG/1.1/DTD/svg11.dtd">
<!-- Generated by graphviz version 2.43.0 (0)
 -->
<!-- Title: SBMLConverterRegistry.h Pages: 1 -->
<!--zoomable 84 -->
<svg id="main" version="1.1" xmlns="http://www.w3.org/2000/svg" xmlns:xlink="http://www.w3.org/1999/xlink" xml:space="preserve" onload="init(evt)">
<style type="text/css"><![CDATA[
.edge:hover path { stroke: red; }
.edge:hover polygon { stroke: red; fill: red; }
]]></style>
<script type="text/javascript"><![CDATA[
var edges = document.getElementsByTagName('g');
if (edges && edges.length) {
  for (var i=0;i<edges.length;i++) {
    if (edges[i].id.substr(0,4)=='edge') {
      edges[i].setAttribute('class','edge');
    }
  }
}
]]></script>
        <defs>
                <circle id="rim" cx="0" cy="0" r="7"/>
                <circle id="rim2" cx="0" cy="0" r="3.5"/>
                <g id="zoomPlus">
                        <use xlink:href="#rim" fill="#404040">
                                <set attributeName="fill" to="#808080" begin="zoomplus.mouseover" end="zoomplus.mouseout"/>
                        </use>
                        <path d="M-4,0h8M0,-4v8" fill="none" stroke="white" stroke-width="1.5" pointer-events="none"/>
                </g>
                <g id="zoomMin">
                        <use xlink:href="#rim" fill="#404040">
                                <set attributeName="fill" to="#808080" begin="zoomminus.mouseover" end="zoomminus.mouseout"/>
                        </use>
                        <path d="M-4,0h8" fill="none" stroke="white" stroke-width="1.5" pointer-events="none"/>
                </g>
                <g id="dirArrow">
                        <path fill="none" stroke="white" stroke-width="1.5" d="M0,-3.0v7 M-2.5,-0.5L0,-3.0L2.5,-0.5"/>
                </g>
               <g id="resetDef">
                       <use xlink:href="#rim2" fill="#404040">
                               <set attributeName="fill" to="#808080" begin="reset.mouseover" end="reset.mouseout"/>
                       </use>
               </g>
        </defs>

<script type="text/javascript">
var viewWidth = 4484;
var viewHeight = 84;
var sectionId = 'dynsection-1';
</script>
<script xlink:href="svgpan.js"/>
<svg id="graph" class="graph">
<g id="viewport">
<title>SBMLConverterRegistry.h</title>
<polygon fill="white" stroke="transparent" points="-4,4 -4,-80 4480,-80 4480,4 -4,4"/>
<!-- Node1 -->
<g id="node1" class="node">
<title>Node1</title>
<g id="a_node1"><a xlink:title="Definition of SBMLConverterRegistry, a registry of available converters.">
<polygon fill="#bfbfbf" stroke="black" points="2339.5,-56.5 2339.5,-75.5 2479.5,-75.5 2479.5,-56.5 2339.5,-56.5"/>
<text text-anchor="middle" x="2409.5" y="-63.5" font-family="Helvetica,sans-Serif" font-size="10.00">SBMLConverterRegistry.h</text>
</a>
</g>
</g>
<!-- Node2 -->
<g id="node2" class="node">
<title>Node2</title>
<g id="a_node2"><a xlink:href="_s_b_m_l_converter_registry_8cpp.html" target="_top" xlink:title="Implementation of SBMLConverterRegistry, a registry of available converters.">
<polygon fill="white" stroke="black" points="0,-0.5 0,-19.5 151,-19.5 151,-0.5 0,-0.5"/>
<text text-anchor="middle" x="75.5" y="-7.5" font-family="Helvetica,sans-Serif" font-size="10.00">SBMLConverterRegistry.cpp</text>
</a>
</g>
</g>
<!-- Node1&#45;&gt;Node2 -->
<g id="edge1" class="edge">
<title>Node1&#45;&gt;Node2</title>
<path fill="none" stroke="midnightblue" d="M2329.21,-64.32C1980.48,-61.2 595.3,-47.32 160.5,-20 157.39,-19.8 154.22,-19.58 151.02,-19.33"/>
<polygon fill="midnightblue" stroke="midnightblue" points="2329.19,-67.82 2339.23,-64.4 2329.26,-60.82 2329.19,-67.82"/>
</g>
<!-- Node3 -->
<g id="node3" class="node">
<title>Node3</title>
<g id="a_node3"><a xlink:href="_s_b_m_l_converter_types_8h.html" target="_top" xlink:title="Definition of SBMLConverterTypes.">
<polygon fill="white" stroke="black" points="169.5,-0.5 169.5,-19.5 297.5,-19.5 297.5,-0.5 169.5,-0.5"/>
<text text-anchor="middle" x="233.5" y="-7.5" font-family="Helvetica,sans-Serif" font-size="10.00">SBMLConverterTypes.h</text>
</a>
</g>
</g>
<!-- Node1&#45;&gt;Node3 -->
<g id="edge2" class="edge">
<title>Node1&#45;&gt;Node3</title>
<path fill="none" stroke="midnightblue" d="M2329.24,-64.37C1994.81,-61.58 710.72,-49.17 306.5,-20 303.57,-19.79 300.58,-19.54 297.56,-19.27"/>
<polygon fill="midnightblue" stroke="midnightblue" points="2329.3,-67.87 2339.33,-64.46 2329.36,-60.87 2329.3,-67.87"/>
</g>
<!-- Node4 -->
<g id="node4" class="node">
<title>Node4</title>
<g id="a_node4"><a xlink:href="_s_b_m_l_function_definition_converter_8cpp.html" target="_top" xlink:title="Implementation of SBMLFunctionDefinitionConverter, a converter replacing function definitions.">
<polygon fill="white" stroke="black" points="315.5,-0.5 315.5,-19.5 515.5,-19.5 515.5,-0.5 315.5,-0.5"/>
<text text-anchor="middle" x="415.5" y="-7.5" font-family="Helvetica,sans-Serif" font-size="10.00">SBMLFunctionDefinitionConverter.cpp</text>
</a>
</g>
</g>
<!-- Node1&#45;&gt;Node4 -->
<g id="edge3" class="edge">
<title>Node1&#45;&gt;Node4</title>
<path fill="none" stroke="midnightblue" d="M2329.13,-64.76C2068.45,-63.63 1222.88,-57.14 524.5,-20 521.56,-19.84 518.58,-19.67 515.57,-19.49"/>
<polygon fill="midnightblue" stroke="midnightblue" points="2329.25,-68.26 2339.26,-64.8 2329.28,-61.26 2329.25,-68.26"/>
</g>
<!-- Node5 -->
<g id="node5" class="node">
<title>Node5</title>
<g id="a_node5"><a xlink:href="_s_b_m_l_id_converter_8cpp.html" target="_top" xlink:title="Implementation of SBMLIdConverter, a converter renaming SIds.">
<polygon fill="white" stroke="black" points="533.5,-0.5 533.5,-19.5 653.5,-19.5 653.5,-0.5 533.5,-0.5"/>
<text text-anchor="middle" x="593.5" y="-7.5" font-family="Helvetica,sans-Serif" font-size="10.00">SBMLIdConverter.cpp</text>
</a>
</g>
</g>
<!-- Node1&#45;&gt;Node5 -->
<g id="edge4" class="edge">
<title>Node1&#45;&gt;Node5</title>
<path fill="none" stroke="midnightblue" d="M2328.93,-64.04C2031.13,-60.31 992.83,-45.73 662.5,-20 659.61,-19.77 656.65,-19.51 653.67,-19.22"/>
<polygon fill="midnightblue" stroke="midnightblue" points="2329.16,-67.54 2339.21,-64.17 2329.25,-60.54 2329.16,-67.54"/>
</g>
<!-- Node6 -->
<g id="node6" class="node">
<title>Node6</title>
<g id="a_node6"><a xlink:href="_s_b_m_l_infer_units_converter_8cpp.html" target="_top" xlink:title="Implementation of SBMLInferUnitsConverter.">
<polygon fill="white" stroke="black" points="672,-0.5 672,-19.5 831,-19.5 831,-0.5 672,-0.5"/>
<text text-anchor="middle" x="751.5" y="-7.5" font-family="Helvetica,sans-Serif" font-size="10.00">SBMLInferUnitsConverter.cpp</text>
</a>
</g>
</g>
<!-- Node1&#45;&gt;Node6 -->
<g id="edge5" class="edge">
<title>Node1&#45;&gt;Node6</title>
<path fill="none" stroke="midnightblue" d="M2329.38,-64.77C2098.1,-63.68 1409.58,-57.27 839.5,-20 836.74,-19.82 833.94,-19.62 831.1,-19.41"/>
<polygon fill="midnightblue" stroke="midnightblue" points="2329.37,-68.27 2339.39,-64.82 2329.4,-61.27 2329.37,-68.27"/>
</g>
<!-- Node7 -->
<g id="node7" class="node">
<title>Node7</title>
<g id="a_node7"><a xlink:href="_s_b_m_l_initial_assignment_converter_8cpp.html" target="_top" xlink:title="Implementation of SBMLInitialAssignmentConverter, a converter inlining initial assignments.">
<polygon fill="white" stroke="black" points="849,-0.5 849,-19.5 1046,-19.5 1046,-0.5 849,-0.5"/>
<text text-anchor="middle" x="947.5" y="-7.5" font-family="Helvetica,sans-Serif" font-size="10.00">SBMLInitialAssignmentConverter.cpp</text>
</a>
</g>
</g>
<!-- Node1&#45;&gt;Node7 -->
<g id="edge6" class="edge">
<title>Node1&#45;&gt;Node7</title>
<path fill="none" stroke="midnightblue" d="M2329.27,-63.76C2119.59,-60.19 1537.96,-48.34 1054.5,-20 1051.71,-19.84 1048.88,-19.66 1046.02,-19.48"/>
<polygon fill="midnightblue" stroke="midnightblue" points="2329.21,-67.25 2339.27,-63.92 2329.33,-60.26 2329.21,-67.25"/>
</g>
<!-- Node8 -->
<g id="node8" class="node">
<title>Node8</title>
<g id="a_node8"><a xlink:href="_s_b_m_l_level1_version1_converter_8cpp.html" target="_top" xlink:title="Implementation of SBMLLevel1Version1Converter.">
<polygon fill="white" stroke="black" points="1064,-0.5 1064,-19.5 1249,-19.5 1249,-0.5 1064,-0.5"/>
<text text-anchor="middle" x="1156.5" y="-7.5" font-family="Helvetica,sans-Serif" font-size="10.00">SBMLLevel1Version1Converter.cpp</text>
</a>
</g>
</g>
<!-- Node1&#45;&gt;Node8 -->
<g id="edge7" class="edge">
<title>Node1&#45;&gt;Node8</title>
<path fill="none" stroke="midnightblue" d="M2329.25,-63.24C2141.61,-58.83 1659.58,-45.75 1257.5,-20 1254.78,-19.83 1252.01,-19.64 1249.22,-19.44"/>
<polygon fill="midnightblue" stroke="midnightblue" points="2329.23,-66.74 2339.31,-63.48 2329.39,-59.74 2329.23,-66.74"/>
</g>
<!-- Node9 -->
<g id="node9" class="node">
<title>Node9</title>
<g id="a_node9"><a xlink:href="_s_b_m_l_level_version_converter_8cpp.html" target="_top" xlink:title="Implementation of SBMLLevelVersionConverter, the base class of package extensions.">
<polygon fill="white" stroke="black" points="1267,-0.5 1267,-19.5 1440,-19.5 1440,-0.5 1267,-0.5"/>
<text text-anchor="middle" x="1353.5" y="-7.5" font-family="Helvetica,sans-Serif" font-size="10.00">SBMLLevelVersionConverter.cpp</text>
</a>
</g>
</g>
<!-- Node1&#45;&gt;Node9 -->
<g id="edge8" class="edge">
<title>Node1&#45;&gt;Node9</title>
<path fill="none" stroke="midnightblue" d="M2329.43,-62.54C2164.49,-57.19 1774.88,-43.09 1448.5,-20 1445.77,-19.81 1443,-19.6 1440.21,-19.39"/>
<polygon fill="midnightblue" stroke="midnightblue" points="2329.39,-66.04 2339.5,-62.87 2329.61,-59.05 2329.39,-66.04"/>
</g>
<!-- Node10 -->
<g id="node10" class="node">
<title>Node10</title>
<g id="a_node10"><a xlink:href="_s_b_m_l_local_parameter_converter_8cpp.html" target="_top" xlink:title="Implementation of SBMLLocalParameterConverter, a converter replacing local parameters with global one...">
<polygon fill="white" stroke="black" points="1458,-0.5 1458,-19.5 1645,-19.5 1645,-0.5 1458,-0.5"/>
<text text-anchor="middle" x="1551.5" y="-7.5" font-family="Helvetica,sans-Serif" font-size="10.00">SBMLLocalParameterConverter.cpp</text>
</a>
</g>
</g>
<!-- Node1&#45;&gt;Node10 -->
<g id="edge9" class="edge">
<title>Node1&#45;&gt;Node10</title>
<path fill="none" stroke="midnightblue" d="M2329.29,-60.98C2191.18,-53.89 1899.59,-38.18 1653.5,-20 1650.75,-19.8 1647.96,-19.59 1645.15,-19.37"/>
<polygon fill="midnightblue" stroke="midnightblue" points="2329.2,-64.48 2339.36,-61.5 2329.56,-57.49 2329.2,-64.48"/>
</g>
<!-- Node11 -->
<g id="node11" class="node">
<title>Node11</title>
<g id="a_node11"><a xlink:href="_s_b_m_l_rate_of_converter_8cpp.html" target="_top" xlink:title="Implementation of SBMLRateOfConverter, a converter changing &#39;rateOf&#39; into functionDefinition.">
<polygon fill="white" stroke="black" points="1663,-0.5 1663,-19.5 1808,-19.5 1808,-0.5 1663,-0.5"/>
<text text-anchor="middle" x="1735.5" y="-7.5" font-family="Helvetica,sans-Serif" font-size="10.00">SBMLRateOfConverter.cpp</text>
</a>
</g>
</g>
<!-- Node1&#45;&gt;Node11 -->
<g id="edge10" class="edge">
<title>Node1&#45;&gt;Node11</title>
<path fill="none" stroke="midnightblue" d="M2329.09,-59.79C2215,-52.2 1999.61,-37.12 1816.5,-20 1813.82,-19.75 1811.1,-19.49 1808.35,-19.22"/>
<polygon fill="midnightblue" stroke="midnightblue" points="2328.93,-63.29 2339.14,-60.46 2329.4,-56.3 2328.93,-63.29"/>
</g>
<!-- Node12 -->
<g id="node12" class="node">
<title>Node12</title>
<g id="a_node12"><a xlink:href="_s_b_m_l_rate_rule_converter_8cpp.html" target="_top" xlink:title="Implementation of SBMLRateRuleConverter, a converter from raterule to reaction.">
<polygon fill="white" stroke="black" points="1826,-0.5 1826,-19.5 1981,-19.5 1981,-0.5 1826,-0.5"/>
<text text-anchor="middle" x="1903.5" y="-7.5" font-family="Helvetica,sans-Serif" font-size="10.00">SBMLRateRuleConverter.cpp</text>
</a>
</g>
</g>
<!-- Node1&#45;&gt;Node12 -->
<g id="edge11" class="edge">
<title>Node1&#45;&gt;Node12</title>
<path fill="none" stroke="midnightblue" d="M2329.23,-56.43C2233.78,-46.25 2075.54,-29.36 1981.22,-19.29"/>
<polygon fill="midnightblue" stroke="midnightblue" points="2329.09,-59.94 2339.41,-57.52 2329.84,-52.98 2329.09,-59.94"/>
</g>
<!-- Node13 -->
<g id="node13" class="node">
<title>Node13</title>
<g id="a_node13"><a xlink:href="_s_b_m_l_reaction_converter_8cpp.html" target="_top" xlink:title="Implementation of SBMLReactionConverter, a converter changing reactions into rate rules.">
<polygon fill="white" stroke="black" points="1999.5,-0.5 1999.5,-19.5 2153.5,-19.5 2153.5,-0.5 1999.5,-0.5"/>
<text text-anchor="middle" x="2076.5" y="-7.5" font-family="Helvetica,sans-Serif" font-size="10.00">SBMLReactionConverter.cpp</text>
</a>
</g>
</g>
<!-- Node1&#45;&gt;Node13 -->
<g id="edge12" class="edge">
<title>Node1&#45;&gt;Node13</title>
<path fill="none" stroke="midnightblue" d="M2346.54,-54.79C2283.62,-44.59 2187.98,-29.08 2129.02,-19.52"/>
<polygon fill="midnightblue" stroke="midnightblue" points="2346.3,-58.3 2356.74,-56.44 2347.42,-51.39 2346.3,-58.3"/>
</g>
<!-- Node14 -->
<g id="node14" class="node">
<title>Node14</title>
<g id="a_node14"><a xlink:href="_s_b_m_l_rule_converter_8cpp.html" target="_top" xlink:title="Implementation of SBMLRuleConverter, a converter sorting rules.">
<polygon fill="white" stroke="black" points="2172,-0.5 2172,-19.5 2305,-19.5 2305,-0.5 2172,-0.5"/>
<text text-anchor="middle" x="2238.5" y="-7.5" font-family="Helvetica,sans-Serif" font-size="10.00">SBMLRuleConverter.cpp</text>
</a>
</g>
</g>
<!-- Node1&#45;&gt;Node14 -->
<g id="edge13" class="edge">
<title>Node1&#45;&gt;Node14</title>
<path fill="none" stroke="midnightblue" d="M2372.46,-53.3C2340.24,-43.13 2294.31,-28.62 2265.47,-19.52"/>
<polygon fill="midnightblue" stroke="midnightblue" points="2371.81,-56.77 2382.4,-56.44 2373.92,-50.09 2371.81,-56.77"/>
</g>
<!-- Node15 -->
<g id="node15" class="node">
<title>Node15</title>
<g id="a_node15"><a xlink:href="_s_b_m_l_strip_package_converter_8cpp.html" target="_top" xlink:title="Implementation of SBMLStripPackageConverter, the base class of package extensions.">
<polygon fill="white" stroke="black" points="2323,-0.5 2323,-19.5 2496,-19.5 2496,-0.5 2323,-0.5"/>
<text text-anchor="middle" x="2409.5" y="-7.5" font-family="Helvetica,sans-Serif" font-size="10.00">SBMLStripPackageConverter.cpp</text>
</a>
</g>
</g>
<!-- Node1&#45;&gt;Node15 -->
<g id="edge14" class="edge">
<title>Node1&#45;&gt;Node15</title>
<path fill="none" stroke="midnightblue" d="M2409.5,-45.8C2409.5,-36.91 2409.5,-26.78 2409.5,-19.75"/>
<polygon fill="midnightblue" stroke="midnightblue" points="2406,-46.08 2409.5,-56.08 2413,-46.08 2406,-46.08"/>
</g>
<!-- Node16 -->
<g id="node16" class="node">
<title>Node16</title>
<g id="a_node16"><a xlink:href="_s_b_m_l_units_converter_8cpp.html" target="_top" xlink:title="Implementation of SBMLUnitsConverter, for converting units to SI.">
<polygon fill="white" stroke="black" points="2514,-0.5 2514,-19.5 2651,-19.5 2651,-0.5 2514,-0.5"/>
<text text-anchor="middle" x="2582.5" y="-7.5" font-family="Helvetica,sans-Serif" font-size="10.00">SBMLUnitsConverter.cpp</text>
</a>
</g>
</g>
<!-- Node1&#45;&gt;Node16 -->
<g id="edge15" class="edge">
<title>Node1&#45;&gt;Node16</title>
<path fill="none" stroke="midnightblue" d="M2446.55,-53.44C2479.16,-43.26 2525.91,-28.66 2555.22,-19.52"/>
<polygon fill="midnightblue" stroke="midnightblue" points="2445.42,-50.12 2436.91,-56.44 2447.5,-56.8 2445.42,-50.12"/>
</g>
<!-- Node17 -->
<g id="node17" class="node">
<title>Node17</title>
<g id="a_node17"><a xlink:href="_s_b_m_l_document_8cpp.html" target="_top" xlink:title="Implementation of the top&#45;level container for an SBML Model and associated data.">
<polygon fill="white" stroke="black" points="2669.5,-0.5 2669.5,-19.5 2783.5,-19.5 2783.5,-0.5 2669.5,-0.5"/>
<text text-anchor="middle" x="2726.5" y="-7.5" font-family="Helvetica,sans-Serif" font-size="10.00">SBMLDocument.cpp</text>
</a>
</g>
</g>
<!-- Node1&#45;&gt;Node17 -->
<g id="edge16" class="edge">
<title>Node1&#45;&gt;Node17</title>
<path fill="none" stroke="midnightblue" d="M2469.8,-54.73C2529.71,-44.52 2620.49,-29.06 2676.51,-19.52"/>
<polygon fill="midnightblue" stroke="midnightblue" points="2469,-51.31 2459.73,-56.44 2470.18,-58.21 2469,-51.31"/>
</g>
<!-- Node18 -->
<g id="node18" class="node">
<title>Node18</title>
<g id="a_node18"><a xlink:href="_comp_extension_8cpp.html" target="_top" xlink:title="Implementation of CompExtension, the core module of comp package.">
<polygon fill="white" stroke="black" points="2802,-0.5 2802,-19.5 2915,-19.5 2915,-0.5 2802,-0.5"/>
<text text-anchor="middle" x="2858.5" y="-7.5" font-family="Helvetica,sans-Serif" font-size="10.00">CompExtension.cpp</text>
</a>
</g>
</g>
<!-- Node1&#45;&gt;Node18 -->
<g id="edge17" class="edge">
<title>Node1&#45;&gt;Node18</title>
<path fill="none" stroke="midnightblue" d="M2489.96,-55.99C2567.5,-47.2 2688.1,-33.25 2792.5,-20 2795.6,-19.61 2798.78,-19.2 2801.98,-18.78"/>
<polygon fill="midnightblue" stroke="midnightblue" points="2489.33,-52.54 2479.79,-57.14 2490.12,-59.49 2489.33,-52.54"/>
</g>
<!-- Node19 -->
<g id="node19" class="node">
<title>Node19</title>
<g id="a_node19"><a xlink:href="_comp_s_b_m_l_document_plugin_8cpp.html" target="_top" xlink:title="Implementation of CompSBMLDocumentPlugin, the plugin class of comp package for the SBase element.">
<polygon fill="white" stroke="black" points="2933,-0.5 2933,-19.5 3106,-19.5 3106,-0.5 2933,-0.5"/>
<text text-anchor="middle" x="3019.5" y="-7.5" font-family="Helvetica,sans-Serif" font-size="10.00">CompSBMLDocumentPlugin.cpp</text>
</a>
</g>
</g>
<!-- Node1&#45;&gt;Node19 -->
<g id="edge18" class="edge">
<title>Node1&#45;&gt;Node19</title>
<path fill="none" stroke="midnightblue" d="M2490.07,-58.14C2591.45,-49.47 2770.9,-33.99 2924.5,-20 2927.22,-19.75 2929.99,-19.5 2932.78,-19.24"/>
<polygon fill="midnightblue" stroke="midnightblue" points="2489.57,-54.67 2479.9,-59.01 2490.17,-61.65 2489.57,-54.67"/>
</g>
<!-- Node20 -->
<g id="node20" class="node">
<title>Node20</title>
<g id="a_node20"><a xlink:href="_comp_flattening_converter_8cpp.html" target="_top" xlink:title="Implementation of a first flattening converter.">
<polygon fill="white" stroke="black" points="3124.5,-0.5 3124.5,-19.5 3286.5,-19.5 3286.5,-0.5 3124.5,-0.5"/>
<text text-anchor="middle" x="3205.5" y="-7.5" font-family="Helvetica,sans-Serif" font-size="10.00">CompFlatteningConverter.cpp</text>
</a>
</g>
</g>
<!-- Node1&#45;&gt;Node20 -->
<g id="edge19" class="edge">
<title>Node1&#45;&gt;Node20</title>
<path fill="none" stroke="midnightblue" d="M2490.06,-60.81C2621.22,-53.78 2889.06,-38.53 3115.5,-20 3118.32,-19.77 3121.18,-19.53 3124.08,-19.27"/>
<polygon fill="midnightblue" stroke="midnightblue" points="2489.5,-57.34 2479.71,-61.36 2489.88,-64.33 2489.5,-57.34"/>
</g>
<!-- Node21 -->
<g id="node21" class="node">
<title>Node21</title>
<g id="a_node21"><a xlink:href="_fbc_extension_8cpp.html" target="_top" xlink:title="Implementation of FbcExtension, the core module of fbc package.">
<polygon fill="white" stroke="black" points="3304.5,-0.5 3304.5,-19.5 3406.5,-19.5 3406.5,-0.5 3304.5,-0.5"/>
<text text-anchor="middle" x="3355.5" y="-7.5" font-family="Helvetica,sans-Serif" font-size="10.00">FbcExtension.cpp</text>
</a>
</g>
</g>
<!-- Node1&#45;&gt;Node21 -->
<g id="edge20" class="edge">
<title>Node1&#45;&gt;Node21</title>
<path fill="none" stroke="midnightblue" d="M2490.17,-63.55C2646.11,-60.16 2999.63,-49.63 3295.5,-20 3298.43,-19.71 3301.45,-19.37 3304.48,-19"/>
<polygon fill="midnightblue" stroke="midnightblue" points="2489.66,-60.06 2479.74,-63.77 2489.81,-67.06 2489.66,-60.06"/>
</g>
<!-- Node22 -->
<g id="node22" class="node">
<title>Node22</title>
<g id="a_node22"><a xlink:href="_cobra_to_fbc_converter_8cpp.html" target="_top" xlink:title="Implementation of a cobra 2 fbc converter.">
<polygon fill="white" stroke="black" points="3424.5,-0.5 3424.5,-19.5 3564.5,-19.5 3564.5,-0.5 3424.5,-0.5"/>
<text text-anchor="middle" x="3494.5" y="-7.5" font-family="Helvetica,sans-Serif" font-size="10.00">CobraToFbcConverter.cpp</text>
</a>
</g>
</g>
<!-- Node1&#45;&gt;Node22 -->
<g id="edge21" class="edge">
<title>Node1&#45;&gt;Node22</title>
<path fill="none" stroke="midnightblue" d="M2489.89,-63.28C2660.59,-59.21 3071.78,-47.23 3415.5,-20 3418.39,-19.77 3421.34,-19.52 3424.31,-19.25"/>
<polygon fill="midnightblue" stroke="midnightblue" points="2489.65,-59.78 2479.73,-63.52 2489.81,-66.78 2489.65,-59.78"/>
</g>
<!-- Node23 -->
<g id="node23" class="node">
<title>Node23</title>
<g id="a_node23"><a xlink:href="_fbc_to_cobra_converter_8cpp.html" target="_top" xlink:title="Implementation of a fbc 2 cobra converter.">
<polygon fill="white" stroke="black" points="3582.5,-0.5 3582.5,-19.5 3722.5,-19.5 3722.5,-0.5 3582.5,-0.5"/>
<text text-anchor="middle" x="3652.5" y="-7.5" font-family="Helvetica,sans-Serif" font-size="10.00">FbcToCobraConverter.cpp</text>
</a>
</g>
</g>
<!-- Node1&#45;&gt;Node23 -->
<g id="edge22" class="edge">
<title>Node1&#45;&gt;Node23</title>
<path fill="none" stroke="midnightblue" d="M2489.94,-63.96C2679.15,-61.06 3167.09,-50.96 3573.5,-20 3576.39,-19.78 3579.34,-19.54 3582.31,-19.27"/>
<polygon fill="midnightblue" stroke="midnightblue" points="2489.75,-60.46 2479.8,-64.11 2489.85,-67.46 2489.75,-60.46"/>
</g>
<!-- Node24 -->
<g id="node24" class="node">
<title>Node24</title>
<g id="a_node24"><a xlink:href="_fbc_v1_to_v2_converter_8cpp.html" target="_top" xlink:title="Implementation of a fbc v1 to fbc v2 converter.">
<polygon fill="white" stroke="black" points="3741,-0.5 3741,-19.5 3878,-19.5 3878,-0.5 3741,-0.5"/>
<text text-anchor="middle" x="3809.5" y="-7.5" font-family="Helvetica,sans-Serif" font-size="10.00">FbcV1ToV2Converter.cpp</text>
</a>
</g>
</g>
<!-- Node1&#45;&gt;Node24 -->
<g id="edge23" class="edge">
<title>Node1&#45;&gt;Node24</title>
<path fill="none" stroke="midnightblue" d="M2489.98,-64.52C2696.5,-62.81 3261.94,-55.02 3731.5,-20 3734.49,-19.78 3737.54,-19.53 3740.63,-19.25"/>
<polygon fill="midnightblue" stroke="midnightblue" points="2489.81,-61.03 2479.83,-64.61 2489.86,-68.03 2489.81,-61.03"/>
</g>
<!-- Node25 -->
<g id="node25" class="node">
<title>Node25</title>
<g id="a_node25"><a xlink:href="_fbc_v2_to_v1_converter_8cpp.html" target="_top" xlink:title="Implementation of a fbc v2 to fbc v1 converter.">
<polygon fill="white" stroke="black" points="3896,-0.5 3896,-19.5 4033,-19.5 4033,-0.5 3896,-0.5"/>
<text text-anchor="middle" x="3964.5" y="-7.5" font-family="Helvetica,sans-Serif" font-size="10.00">FbcV2ToV1Converter.cpp</text>
</a>
</g>
</g>
<!-- Node1&#45;&gt;Node25 -->
<g id="edge24" class="edge">
<title>Node1&#45;&gt;Node25</title>
<path fill="none" stroke="midnightblue" d="M2489.89,-64.98C2712.4,-64.39 3355.1,-59.15 3887.5,-20 3890.18,-19.8 3892.92,-19.58 3895.68,-19.34"/>
<polygon fill="midnightblue" stroke="midnightblue" points="2489.61,-61.48 2479.62,-65 2489.63,-68.48 2489.61,-61.48"/>
</g>
<!-- Node26 -->
<g id="node26" class="node">
<title>Node26</title>
<g id="a_node26"><a xlink:href="_render_extension_8cpp.html" target="_top" xlink:title="Implementation of RenderExtension, the core module of the render package.">
<polygon fill="white" stroke="black" points="4051,-0.5 4051,-19.5 4170,-19.5 4170,-0.5 4051,-0.5"/>
<text text-anchor="middle" x="4110.5" y="-7.5" font-family="Helvetica,sans-Serif" font-size="10.00">RenderExtension.cpp</text>
</a>
</g>
</g>
<!-- Node1&#45;&gt;Node26 -->
<g id="edge25" class="edge">
<title>Node1&#45;&gt;Node26</title>
<path fill="none" stroke="midnightblue" d="M2490.03,-63.89C2775.1,-59.8 3735.66,-44.47 4042.5,-20 4045.23,-19.78 4048.02,-19.53 4050.83,-19.25"/>
<polygon fill="midnightblue" stroke="midnightblue" points="2489.72,-60.4 2479.77,-64.04 2489.82,-67.4 2489.72,-60.4"/>
</g>
<!-- Node27 -->
<g id="node27" class="node">
<title>Node27</title>
<g id="a_node27"><a xlink:href="_render_layout_converter_8cpp.html" target="_top" xlink:title="Simple converter to convert Layout + Render from l2 to L3 and vice versa.">
<polygon fill="white" stroke="black" points="4188.5,-0.5 4188.5,-19.5 4340.5,-19.5 4340.5,-0.5 4188.5,-0.5"/>
<text text-anchor="middle" x="4264.5" y="-7.5" font-family="Helvetica,sans-Serif" font-size="10.00">RenderLayoutConverter.cpp</text>
</a>
</g>
</g>
<!-- Node1&#45;&gt;Node27 -->
<g id="edge26" class="edge">
<title>Node1&#45;&gt;Node27</title>
<path fill="none" stroke="midnightblue" d="M2489.67,-65.25C2739.84,-65.52 3528.28,-62.69 4179.5,-20 4182.31,-19.82 4185.18,-19.61 4188.07,-19.38"/>
<polygon fill="midnightblue" stroke="midnightblue" points="2489.58,-61.75 2479.58,-65.23 2489.58,-68.75 2489.58,-61.75"/>
</g>
<!-- Node28 -->
<g id="node28" class="node">
<title>Node28</title>
<g id="a_node28"><a xlink:href="_distrib_extension_8cpp.html" target="_top" xlink:title="Implementation of DistribExtension.">
<polygon fill="white" stroke="black" points="4359,-0.5 4359,-19.5 4476,-19.5 4476,-0.5 4359,-0.5"/>
<text text-anchor="middle" x="4417.5" y="-7.5" font-family="Helvetica,sans-Serif" font-size="10.00">DistribExtension.cpp</text>
</a>
</g>
</g>
<!-- Node1&#45;&gt;Node28 -->
<g id="edge27" class="edge">
<title>Node1&#45;&gt;Node28</title>
<path fill="none" stroke="midnightblue" d="M2489.79,-64.3C2807.74,-61.35 3979.22,-48.71 4349.5,-20 4352.59,-19.76 4355.75,-19.48 4358.94,-19.16"/>
<polygon fill="midnightblue" stroke="midnightblue" points="2489.7,-60.8 2479.74,-64.39 2489.77,-67.8 2489.7,-60.8"/>
</g>
</g>
</svg>
        <g id="navigator" transform="translate(0 0)" fill="#404254">
                <rect fill="#f2f5e9" fill-opacity="0.5" stroke="#606060" stroke-width=".5" x="0" y="0" width="60" height="60"/>
                <use id="zoomplus" xlink:href="#zoomPlus" x="17" y="9" onmousedown="handleZoom(evt,'in')"/>
                <use id="zoomminus" xlink:href="#zoomMin" x="42" y="9" onmousedown="handleZoom(evt,'out')"/>
                <use id="reset" xlink:href="#resetDef" x="30" y="36" onmousedown="handleReset()"/>
                <g id="arrowUp" xlink:href="#dirArrow" transform="translate(30 24)" onmousedown="handlePan(0,-1)">
                  <use xlink:href="#rim" fill="#404040">
                        <set attributeName="fill" to="#808080" begin="arrowUp.mouseover" end="arrowUp.mouseout"/>
                  </use>
                  <path fill="none" stroke="white" stroke-width="1.5" d="M0,-3.0v7 M-2.5,-0.5L0,-3.0L2.5,-0.5"/>
                </g>
                <g id="arrowRight" xlink:href="#dirArrow" transform="rotate(90) translate(36 -43)" onmousedown="handlePan(1,0)">
                  <use xlink:href="#rim" fill="#404040">
                        <set attributeName="fill" to="#808080" begin="arrowRight.mouseover" end="arrowRight.mouseout"/>
                  </use>
                  <path fill="none" stroke="white" stroke-width="1.5" d="M0,-3.0v7 M-2.5,-0.5L0,-3.0L2.5,-0.5"/>
                </g>
                <g id="arrowDown" xlink:href="#dirArrow" transform="rotate(180) translate(-30 -48)" onmousedown="handlePan(0,1)">
                  <use xlink:href="#rim" fill="#404040">
                        <set attributeName="fill" to="#808080" begin="arrowDown.mouseover" end="arrowDown.mouseout"/>
                  </use>
                  <path fill="none" stroke="white" stroke-width="1.5" d="M0,-3.0v7 M-2.5,-0.5L0,-3.0L2.5,-0.5"/>
                </g>
                <g id="arrowLeft" xlink:href="#dirArrow" transform="rotate(270) translate(-36 17)" onmousedown="handlePan(-1,0)">
                  <use xlink:href="#rim" fill="#404040">
                        <set attributeName="fill" to="#808080" begin="arrowLeft.mouseover" end="arrowLeft.mouseout"/>
                  </use>
                  <path fill="none" stroke="white" stroke-width="1.5" d="M0,-3.0v7 M-2.5,-0.5L0,-3.0L2.5,-0.5"/>
                </g>
        </g>
        <svg viewBox="0 0 15 15" width="100%" height="30px" preserveAspectRatio="xMaxYMin meet">
         <g id="arrow_out" transform="scale(0.3 0.3)">
          <a xlink:href="_s_b_m_l_converter_registry_8h__dep__incl_org.svg" target="_base">
           <rect id="button" ry="5" rx="5" y="6" x="6" height="38" width="38"
                fill="#f2f5e9" fill-opacity="0.5" stroke="#606060" stroke-width="1.0"/>
           <path id="arrow"
             d="M 11.500037,31.436501 C 11.940474,20.09759 22.043105,11.32322 32.158766,21.979434 L 37.068811,17.246167 C 37.068811,17.246167 37.088388,32 37.088388,32 L 22.160133,31.978069 C 22.160133,31.978069 26.997745,27.140456 26.997745,27.140456 C 18.528582,18.264221 13.291696,25.230495 11.500037,31.436501 z"
             style="fill:#404040;"/>
          </a>
         </g>
        </svg>
</svg>
