<?xml version="1.0" encoding="UTF-8" standalone="no"?>
<!DOCTYPE svg PUBLIC "-//W3C//DTD SVG 1.1//EN"
 "http://www.w3.org/Graphics/SVG/1.1/DTD/svg11.dtd">
<!-- Generated by graphviz version 2.43.0 (0)
 -->
<!-- Title: SBMLConstructorException.h Pages: 1 -->
<!--zoomable 453 -->
<svg id="main" version="1.1" xmlns="http://www.w3.org/2000/svg" xmlns:xlink="http://www.w3.org/1999/xlink" xml:space="preserve" onload="init(evt)">
<style type="text/css"><![CDATA[
.edge:hover path { stroke: red; }
.edge:hover polygon { stroke: red; fill: red; }
]]></style>
<script type="text/javascript"><![CDATA[
var edges = document.getElementsByTagName('g');
if (edges && edges.length) {
  for (var i=0;i<edges.length;i++) {
    if (edges[i].id.substr(0,4)=='edge') {
      edges[i].setAttribute('class','edge');
    }
  }
}
]]></script>
        <defs>
                <circle id="rim" cx="0" cy="0" r="7"/>
                <circle id="rim2" cx="0" cy="0" r="3.5"/>
                <g id="zoomPlus">
                        <use xlink:href="#rim" fill="#404040">
                                <set attributeName="fill" to="#808080" begin="zoomplus.mouseover" end="zoomplus.mouseout"/>
                        </use>
                        <path d="M-4,0h8M0,-4v8" fill="none" stroke="white" stroke-width="1.5" pointer-events="none"/>
                </g>
                <g id="zoomMin">
                        <use xlink:href="#rim" fill="#404040">
                                <set attributeName="fill" to="#808080" begin="zoomminus.mouseover" end="zoomminus.mouseout"/>
                        </use>
                        <path d="M-4,0h8" fill="none" stroke="white" stroke-width="1.5" pointer-events="none"/>
                </g>
                <g id="dirArrow">
                        <path fill="none" stroke="white" stroke-width="1.5" d="M0,-3.0v7 M-2.5,-0.5L0,-3.0L2.5,-0.5"/>
                </g>
               <g id="resetDef">
                       <use xlink:href="#rim2" fill="#404040">
                               <set attributeName="fill" to="#808080" begin="reset.mouseover" end="reset.mouseout"/>
                       </use>
               </g>
        </defs>

<script type="text/javascript">
var viewWidth = 1002;
var viewHeight = 453;
var sectionId = 'dynsection-0';
</script>
<script xlink:href="svgpan.js"/>
<svg id="graph" class="graph">
<g id="viewport">
<title>SBMLConstructorException.h</title>
<polygon fill="white" stroke="transparent" points="-4,4 -4,-449 998,-449 998,4 -4,4"/>
<!-- Node1 -->
<g id="node1" class="node">
<title>Node1</title>
<g id="a_node1"><a xlink:title="Definition of SBMLConstructorException, the exception class for constructor exceptions.">
<polygon fill="#bfbfbf" stroke="black" points="773.5,-425.5 773.5,-444.5 930.5,-444.5 930.5,-425.5 773.5,-425.5"/>
<text text-anchor="middle" x="852" y="-432.5" font-family="Helvetica,sans-Serif" font-size="10.00">SBMLConstructorException.h</text>
</a>
</g>
</g>
<!-- Node2 -->
<g id="node2" class="node">
<title>Node2</title>
<g id="a_node2"><a xlink:href="extern_8h.html" target="_top" xlink:title="Definitions of LIBSBML_EXTERN and related things.">
<polygon fill="white" stroke="black" points="260,-67.5 260,-86.5 390,-86.5 390,-67.5 260,-67.5"/>
<text text-anchor="middle" x="325" y="-74.5" font-family="Helvetica,sans-Serif" font-size="10.00">sbml/common/extern.h</text>
</a>
</g>
</g>
<!-- Node1&#45;&gt;Node2 -->
<g id="edge1" class="edge">
<title>Node1&#45;&gt;Node2</title>
<path fill="none" stroke="midnightblue" d="M773.37,-432.03C562.45,-425.7 0,-401.56 0,-324 0,-324 0,-324 0,-204.5 0,-148.05 172.41,-106.73 266.08,-88.44"/>
<polygon fill="midnightblue" stroke="midnightblue" points="266.83,-91.86 275.99,-86.53 265.51,-84.98 266.83,-91.86"/>
</g>
<!-- Node4 -->
<g id="node4" class="node">
<title>Node4</title>
<g id="a_node4"><a xlink:href="_s_b_m_l_namespaces_8h.html" target="_top" xlink:title="SBMLNamespaces class to store level/version and namespace.">
<polygon fill="white" stroke="black" points="680.5,-369.5 680.5,-388.5 823.5,-388.5 823.5,-369.5 680.5,-369.5"/>
<text text-anchor="middle" x="752" y="-376.5" font-family="Helvetica,sans-Serif" font-size="10.00">sbml/SBMLNamespaces.h</text>
</a>
</g>
</g>
<!-- Node1&#45;&gt;Node4 -->
<g id="edge3" class="edge">
<title>Node1&#45;&gt;Node4</title>
<path fill="none" stroke="midnightblue" d="M835.93,-425.32C820.04,-416.74 795.49,-403.49 777.04,-393.52"/>
<polygon fill="midnightblue" stroke="midnightblue" points="778.49,-390.33 768.03,-388.65 775.16,-396.49 778.49,-390.33"/>
</g>
<!-- Node12 -->
<g id="node12" class="node">
<title>Node12</title>
<g id="a_node12"><a xlink:title=" ">
<polygon fill="white" stroke="#bfbfbf" points="873,-257.5 873,-276.5 917,-276.5 917,-257.5 873,-257.5"/>
<text text-anchor="middle" x="895" y="-264.5" font-family="Helvetica,sans-Serif" font-size="10.00">string</text>
</a>
</g>
</g>
<!-- Node1&#45;&gt;Node12 -->
<g id="edge29" class="edge">
<title>Node1&#45;&gt;Node12</title>
<path fill="none" stroke="midnightblue" d="M854.99,-425.45C860.96,-408.16 874.49,-367.74 883,-333 886.76,-317.66 889.94,-300.02 892.09,-286.99"/>
<polygon fill="midnightblue" stroke="midnightblue" points="895.58,-287.33 893.69,-276.9 888.66,-286.23 895.58,-287.33"/>
</g>
<!-- Node19 -->
<g id="node19" class="node">
<title>Node19</title>
<g id="a_node19"><a xlink:title=" ">
<polygon fill="white" stroke="#bfbfbf" points="808.5,-313.5 808.5,-332.5 873.5,-332.5 873.5,-313.5 808.5,-313.5"/>
<text text-anchor="middle" x="841" y="-320.5" font-family="Helvetica,sans-Serif" font-size="10.00">stdexcept</text>
</a>
</g>
</g>
<!-- Node1&#45;&gt;Node19 -->
<g id="edge30" class="edge">
<title>Node1&#45;&gt;Node19</title>
<path fill="none" stroke="midnightblue" d="M851.14,-425.37C849.36,-407.62 845.27,-366.67 842.86,-342.6"/>
<polygon fill="midnightblue" stroke="midnightblue" points="846.34,-342.19 841.86,-332.59 839.37,-342.89 846.34,-342.19"/>
</g>
<!-- Node20 -->
<g id="node20" class="node">
<title>Node20</title>
<g id="a_node20"><a xlink:title=" ">
<polygon fill="white" stroke="#bfbfbf" points="930,-369.5 930,-388.5 994,-388.5 994,-369.5 930,-369.5"/>
<text text-anchor="middle" x="962" y="-376.5" font-family="Helvetica,sans-Serif" font-size="10.00">algorithm</text>
</a>
</g>
</g>
<!-- Node1&#45;&gt;Node20 -->
<g id="edge31" class="edge">
<title>Node1&#45;&gt;Node20</title>
<path fill="none" stroke="midnightblue" d="M869.67,-425.32C887.39,-416.62 914.9,-403.12 935.29,-393.11"/>
<polygon fill="midnightblue" stroke="midnightblue" points="936.94,-396.2 944.37,-388.65 933.85,-389.92 936.94,-396.2"/>
</g>
<!-- Node3 -->
<g id="node3" class="node">
<title>Node3</title>
<g id="a_node3"><a xlink:title=" ">
<polygon fill="white" stroke="#bfbfbf" points="659.5,-0.5 659.5,-30.5 784.5,-30.5 784.5,-0.5 659.5,-0.5"/>
<text text-anchor="start" x="667.5" y="-18.5" font-family="Helvetica,sans-Serif" font-size="10.00">sbml/common/libsbml</text>
<text text-anchor="middle" x="722" y="-7.5" font-family="Helvetica,sans-Serif" font-size="10.00">&#45;namespace.h</text>
</a>
</g>
</g>
<!-- Node2&#45;&gt;Node3 -->
<g id="edge2" class="edge">
<title>Node2&#45;&gt;Node3</title>
<path fill="none" stroke="midnightblue" d="M381.88,-67.48C452.26,-56.93 572.2,-38.95 649.22,-27.41"/>
<polygon fill="midnightblue" stroke="midnightblue" points="649.96,-30.84 659.33,-25.89 648.92,-23.91 649.96,-30.84"/>
</g>
<!-- Node5 -->
<g id="node5" class="node">
<title>Node5</title>
<g id="a_node5"><a xlink:href="_x_m_l_namespaces_8h.html" target="_top" xlink:title="A list of XMLNamespace declarations (URI/prefix pairs)">
<polygon fill="white" stroke="black" points="594,-313.5 594,-332.5 752,-332.5 752,-313.5 594,-313.5"/>
<text text-anchor="middle" x="673" y="-320.5" font-family="Helvetica,sans-Serif" font-size="10.00">sbml/xml/XMLNamespaces.h</text>
</a>
</g>
</g>
<!-- Node4&#45;&gt;Node5 -->
<g id="edge4" class="edge">
<title>Node4&#45;&gt;Node5</title>
<path fill="none" stroke="midnightblue" d="M739.31,-369.32C727.1,-360.98 708.42,-348.21 694,-338.35"/>
<polygon fill="midnightblue" stroke="midnightblue" points="695.89,-335.41 685.66,-332.65 691.94,-341.19 695.89,-335.41"/>
</g>
<!-- Node4&#45;&gt;Node12 -->
<g id="edge27" class="edge">
<title>Node4&#45;&gt;Node12</title>
<path fill="none" stroke="midnightblue" d="M756.53,-369.36C763.99,-355.8 780.07,-329.4 800,-313 818.81,-297.52 843.82,-285.95 863.46,-278.42"/>
<polygon fill="midnightblue" stroke="midnightblue" points="864.72,-281.69 872.9,-274.95 862.31,-275.12 864.72,-281.69"/>
</g>
<!-- Node14 -->
<g id="node14" class="node">
<title>Node14</title>
<g id="a_node14"><a xlink:href="common_8h.html" target="_top" xlink:title="Common functions and macros for C and C++.">
<polygon fill="white" stroke="black" points="221.5,-257.5 221.5,-276.5 362.5,-276.5 362.5,-257.5 221.5,-257.5"/>
<text text-anchor="middle" x="292" y="-264.5" font-family="Helvetica,sans-Serif" font-size="10.00">sbml/common/common.h</text>
</a>
</g>
</g>
<!-- Node4&#45;&gt;Node14 -->
<g id="edge18" class="edge">
<title>Node4&#45;&gt;Node14</title>
<path fill="none" stroke="midnightblue" d="M716.29,-369.46C633.58,-349.68 428.99,-300.76 337.49,-278.88"/>
<polygon fill="midnightblue" stroke="midnightblue" points="338.23,-275.46 327.69,-276.53 336.6,-282.26 338.23,-275.46"/>
</g>
<!-- Node4&#45;&gt;Node19 -->
<g id="edge28" class="edge">
<title>Node4&#45;&gt;Node19</title>
<path fill="none" stroke="midnightblue" d="M766.3,-369.32C780.18,-360.9 801.49,-347.97 817.8,-338.07"/>
<polygon fill="midnightblue" stroke="midnightblue" points="820,-340.83 826.74,-332.65 816.37,-334.85 820,-340.83"/>
</g>
<!-- Node6 -->
<g id="node6" class="node">
<title>Node6</title>
<g id="a_node6"><a xlink:href="_x_m_l_extern_8h.html" target="_top" xlink:title="Defines LIBLAX_EXTERN.">
<polygon fill="white" stroke="black" points="769.5,-67.5 769.5,-86.5 896.5,-86.5 896.5,-67.5 769.5,-67.5"/>
<text text-anchor="middle" x="833" y="-74.5" font-family="Helvetica,sans-Serif" font-size="10.00">sbml/xml/XMLExtern.h</text>
</a>
</g>
</g>
<!-- Node5&#45;&gt;Node6 -->
<g id="edge5" class="edge">
<title>Node5&#45;&gt;Node6</title>
<path fill="none" stroke="midnightblue" d="M696.89,-313.36C714.21,-306.02 737.12,-293.97 752,-277 800.13,-222.1 822.02,-134.8 829.65,-96.76"/>
<polygon fill="midnightblue" stroke="midnightblue" points="833.15,-97.1 831.58,-86.62 826.27,-95.79 833.15,-97.1"/>
</g>
<!-- Node7 -->
<g id="node7" class="node">
<title>Node7</title>
<g id="a_node7"><a xlink:href="sbmlfwd_8h.html" target="_top" xlink:title="Forward declarations for all opaque C types.">
<polygon fill="white" stroke="black" points="603,-257.5 603,-276.5 743,-276.5 743,-257.5 603,-257.5"/>
<text text-anchor="middle" x="673" y="-264.5" font-family="Helvetica,sans-Serif" font-size="10.00">sbml/common/sbmlfwd.h</text>
</a>
</g>
</g>
<!-- Node5&#45;&gt;Node7 -->
<g id="edge7" class="edge">
<title>Node5&#45;&gt;Node7</title>
<path fill="none" stroke="midnightblue" d="M673,-313.08C673,-306.01 673,-295.86 673,-286.99"/>
<polygon fill="midnightblue" stroke="midnightblue" points="676.5,-286.75 673,-276.75 669.5,-286.75 676.5,-286.75"/>
</g>
<!-- Node11 -->
<g id="node11" class="node">
<title>Node11</title>
<g id="a_node11"><a xlink:href="operation_return_values_8h.html" target="_top" xlink:title="Enumeration of values returned by operations within libSBML.">
<polygon fill="white" stroke="black" points="359,-190.5 359,-220.5 527,-220.5 527,-190.5 359,-190.5"/>
<text text-anchor="start" x="367" y="-208.5" font-family="Helvetica,sans-Serif" font-size="10.00">sbml/common/operationReturn</text>
<text text-anchor="middle" x="443" y="-197.5" font-family="Helvetica,sans-Serif" font-size="10.00">Values.h</text>
</a>
</g>
</g>
<!-- Node5&#45;&gt;Node11 -->
<g id="edge14" class="edge">
<title>Node5&#45;&gt;Node11</title>
<path fill="none" stroke="midnightblue" d="M655.71,-313.32C618.54,-294.65 530.28,-250.33 479.91,-225.04"/>
<polygon fill="midnightblue" stroke="midnightblue" points="481.48,-221.91 470.97,-220.55 478.33,-228.16 481.48,-221.91"/>
</g>
<!-- Node5&#45;&gt;Node12 -->
<g id="edge16" class="edge">
<title>Node5&#45;&gt;Node12</title>
<path fill="none" stroke="midnightblue" d="M711.92,-313.44C748.5,-305.26 805.01,-292.28 862.67,-277.25"/>
<polygon fill="midnightblue" stroke="midnightblue" points="863.9,-280.55 872.69,-274.63 862.13,-273.78 863.9,-280.55"/>
</g>
<!-- Node13 -->
<g id="node13" class="node">
<title>Node13</title>
<g id="a_node13"><a xlink:title=" ">
<polygon fill="white" stroke="#bfbfbf" points="807.5,-257.5 807.5,-276.5 854.5,-276.5 854.5,-257.5 807.5,-257.5"/>
<text text-anchor="middle" x="831" y="-264.5" font-family="Helvetica,sans-Serif" font-size="10.00">vector</text>
</a>
</g>
</g>
<!-- Node5&#45;&gt;Node13 -->
<g id="edge17" class="edge">
<title>Node5&#45;&gt;Node13</title>
<path fill="none" stroke="midnightblue" d="M698.04,-313.44C725.01,-304.23 768.05,-289.51 797.83,-279.34"/>
<polygon fill="midnightblue" stroke="midnightblue" points="799.04,-282.62 807.37,-276.08 796.78,-276 799.04,-282.62"/>
</g>
<!-- Node6&#45;&gt;Node3 -->
<g id="edge6" class="edge">
<title>Node6&#45;&gt;Node3</title>
<path fill="none" stroke="midnightblue" d="M817.1,-67.48C801.5,-59.12 777.2,-46.09 757.07,-35.3"/>
<polygon fill="midnightblue" stroke="midnightblue" points="758.63,-32.16 748.16,-30.52 755.32,-38.33 758.63,-32.16"/>
</g>
<!-- Node7&#45;&gt;Node3 -->
<g id="edge8" class="edge">
<title>Node7&#45;&gt;Node3</title>
<path fill="none" stroke="midnightblue" d="M676.64,-257.27C687.09,-231.69 717.05,-154.44 727,-87 729.26,-71.67 728.08,-54.32 726.29,-40.66"/>
<polygon fill="midnightblue" stroke="midnightblue" points="729.73,-39.99 724.79,-30.61 722.81,-41.02 729.73,-39.99"/>
</g>
<!-- Node8 -->
<g id="node8" class="node">
<title>Node8</title>
<g id="a_node8"><a xlink:href="libsbml-config_8h.html" target="_top" xlink:title="Decides whether to #include Unix or Windows configuration variables.">
<polygon fill="white" stroke="black" points="549.5,-190.5 549.5,-220.5 674.5,-220.5 674.5,-190.5 549.5,-190.5"/>
<text text-anchor="start" x="557.5" y="-208.5" font-family="Helvetica,sans-Serif" font-size="10.00">sbml/common/libsbml</text>
<text text-anchor="middle" x="612" y="-197.5" font-family="Helvetica,sans-Serif" font-size="10.00">&#45;config.h</text>
</a>
</g>
</g>
<!-- Node7&#45;&gt;Node8 -->
<g id="edge9" class="edge">
<title>Node7&#45;&gt;Node8</title>
<path fill="none" stroke="midnightblue" d="M664.26,-257.48C656.31,-249.72 644.24,-237.94 633.7,-227.66"/>
<polygon fill="midnightblue" stroke="midnightblue" points="635.98,-225 626.38,-220.52 631.09,-230.01 635.98,-225"/>
</g>
<!-- Node8&#45;&gt;Node3 -->
<g id="edge10" class="edge">
<title>Node8&#45;&gt;Node3</title>
<path fill="none" stroke="midnightblue" d="M640.98,-190.41C655.85,-181.8 673.09,-169.47 684,-154 708.31,-119.55 717.09,-70.11 720.25,-40.85"/>
<polygon fill="midnightblue" stroke="midnightblue" points="723.75,-40.98 721.2,-30.7 716.78,-40.33 723.75,-40.98"/>
</g>
<!-- Node9 -->
<g id="node9" class="node">
<title>Node9</title>
<g id="a_node9"><a xlink:title=" ">
<polygon fill="white" stroke="#bfbfbf" points="549.5,-123.5 549.5,-153.5 674.5,-153.5 674.5,-123.5 549.5,-123.5"/>
<text text-anchor="start" x="557.5" y="-141.5" font-family="Helvetica,sans-Serif" font-size="10.00">sbml/common/libsbml</text>
<text text-anchor="middle" x="612" y="-130.5" font-family="Helvetica,sans-Serif" font-size="10.00">&#45;config&#45;common.h</text>
</a>
</g>
</g>
<!-- Node8&#45;&gt;Node9 -->
<g id="edge11" class="edge">
<title>Node8&#45;&gt;Node9</title>
<path fill="none" stroke="midnightblue" d="M612,-190.4C612,-182.64 612,-172.81 612,-163.86"/>
<polygon fill="midnightblue" stroke="midnightblue" points="615.5,-163.58 612,-153.58 608.5,-163.58 615.5,-163.58"/>
</g>
<!-- Node10 -->
<g id="node10" class="node">
<title>Node10</title>
<g id="a_node10"><a xlink:href="libsbml-version_8h.html" target="_top" xlink:title="Define libSBML version numbers for access from client software.">
<polygon fill="white" stroke="black" points="406.5,-123.5 406.5,-153.5 531.5,-153.5 531.5,-123.5 406.5,-123.5"/>
<text text-anchor="start" x="414.5" y="-141.5" font-family="Helvetica,sans-Serif" font-size="10.00">sbml/common/libsbml</text>
<text text-anchor="middle" x="469" y="-130.5" font-family="Helvetica,sans-Serif" font-size="10.00">&#45;version.h</text>
</a>
</g>
</g>
<!-- Node8&#45;&gt;Node10 -->
<g id="edge12" class="edge">
<title>Node8&#45;&gt;Node10</title>
<path fill="none" stroke="midnightblue" d="M580.97,-190.4C559.98,-180.86 532.06,-168.16 509.35,-157.84"/>
<polygon fill="midnightblue" stroke="midnightblue" points="510.52,-154.53 499.97,-153.58 507.62,-160.9 510.52,-154.53"/>
</g>
<!-- Node10&#45;&gt;Node2 -->
<g id="edge13" class="edge">
<title>Node10&#45;&gt;Node2</title>
<path fill="none" stroke="midnightblue" d="M434.87,-123.4C410.71,-113.42 378.6,-100.15 355.33,-90.53"/>
<polygon fill="midnightblue" stroke="midnightblue" points="356.53,-87.24 345.95,-86.66 353.86,-93.71 356.53,-87.24"/>
</g>
<!-- Node11&#45;&gt;Node2 -->
<g id="edge15" class="edge">
<title>Node11&#45;&gt;Node2</title>
<path fill="none" stroke="midnightblue" d="M429.92,-190.48C407.93,-166.9 363.65,-119.43 340.26,-94.36"/>
<polygon fill="midnightblue" stroke="midnightblue" points="342.58,-91.71 333.2,-86.79 337.46,-96.49 342.58,-91.71"/>
</g>
<!-- Node14&#45;&gt;Node2 -->
<g id="edge21" class="edge">
<title>Node14&#45;&gt;Node2</title>
<path fill="none" stroke="midnightblue" d="M262.36,-257.4C243.08,-250.42 218.7,-238.78 203,-221 173.32,-187.39 152.37,-159.08 179,-123 195.48,-100.67 222.88,-89.08 249.52,-83.17"/>
<polygon fill="midnightblue" stroke="midnightblue" points="250.53,-86.54 259.67,-81.18 249.18,-79.67 250.53,-86.54"/>
</g>
<!-- Node14&#45;&gt;Node8 -->
<g id="edge19" class="edge">
<title>Node14&#45;&gt;Node8</title>
<path fill="none" stroke="midnightblue" d="M338.79,-257.46C387.92,-248.47 467.41,-233.87 536,-221 537.09,-220.8 538.19,-220.59 539.29,-220.38"/>
<polygon fill="midnightblue" stroke="midnightblue" points="540.2,-223.77 549.38,-218.48 538.91,-216.89 540.2,-223.77"/>
</g>
<!-- Node15 -->
<g id="node15" class="node">
<title>Node15</title>
<g id="a_node15"><a xlink:title=" ">
<polygon fill="white" stroke="#bfbfbf" points="300,-129 300,-148 350,-148 350,-129 300,-129"/>
<text text-anchor="middle" x="325" y="-136" font-family="Helvetica,sans-Serif" font-size="10.00">stdio.h</text>
</a>
</g>
</g>
<!-- Node14&#45;&gt;Node15 -->
<g id="edge20" class="edge">
<title>Node14&#45;&gt;Node15</title>
<path fill="none" stroke="midnightblue" d="M295.42,-257.49C298.93,-248.52 304.37,-233.93 308,-221 313.97,-199.74 318.86,-174.84 321.85,-158.2"/>
<polygon fill="midnightblue" stroke="midnightblue" points="325.33,-158.61 323.59,-148.16 318.43,-157.41 325.33,-158.61"/>
</g>
<!-- Node16 -->
<g id="node16" class="node">
<title>Node16</title>
<g id="a_node16"><a xlink:href="memory_8h.html" target="_top" xlink:title=" ">
<polygon fill="white" stroke="black" points="28.5,-196 28.5,-215 139.5,-215 139.5,-196 28.5,-196"/>
<text text-anchor="middle" x="84" y="-203" font-family="Helvetica,sans-Serif" font-size="10.00">sbml/util/memory.h</text>
</a>
</g>
</g>
<!-- Node14&#45;&gt;Node16 -->
<g id="edge22" class="edge">
<title>Node14&#45;&gt;Node16</title>
<path fill="none" stroke="midnightblue" d="M262.2,-257.48C225.75,-247.05 163.92,-229.36 123.53,-217.81"/>
<polygon fill="midnightblue" stroke="midnightblue" points="124.32,-214.39 113.75,-215.01 122.4,-221.12 124.32,-214.39"/>
</g>
<!-- Node17 -->
<g id="node17" class="node">
<title>Node17</title>
<g id="a_node17"><a xlink:href="util_8h.html" target="_top" xlink:title="Utility functions.">
<polygon fill="white" stroke="black" points="212.5,-196 212.5,-215 299.5,-215 299.5,-196 212.5,-196"/>
<text text-anchor="middle" x="256" y="-203" font-family="Helvetica,sans-Serif" font-size="10.00">sbml/util/util.h</text>
</a>
</g>
</g>
<!-- Node14&#45;&gt;Node17 -->
<g id="edge23" class="edge">
<title>Node14&#45;&gt;Node17</title>
<path fill="none" stroke="midnightblue" d="M286.84,-257.48C281.55,-248.73 273.16,-234.87 266.47,-223.81"/>
<polygon fill="midnightblue" stroke="midnightblue" points="269.32,-221.75 261.15,-215.01 263.33,-225.38 269.32,-221.75"/>
</g>
<!-- Node17&#45;&gt;Node2 -->
<g id="edge26" class="edge">
<title>Node17&#45;&gt;Node2</title>
<path fill="none" stroke="midnightblue" d="M259.02,-195.6C264.4,-180.25 276.46,-148.03 291,-123 296.84,-112.95 304.58,-102.54 311.2,-94.27"/>
<polygon fill="midnightblue" stroke="midnightblue" points="313.92,-96.47 317.56,-86.52 308.51,-92.03 313.92,-96.47"/>
</g>
<!-- Node17&#45;&gt;Node15 -->
<g id="edge24" class="edge">
<title>Node17&#45;&gt;Node15</title>
<path fill="none" stroke="midnightblue" d="M265.31,-195.73C276.27,-185.4 294.71,-168.04 308.19,-155.33"/>
<polygon fill="midnightblue" stroke="midnightblue" points="310.96,-157.53 315.84,-148.13 306.16,-152.44 310.96,-157.53"/>
</g>
<!-- Node18 -->
<g id="node18" class="node">
<title>Node18</title>
<g id="a_node18"><a xlink:title=" ">
<polygon fill="white" stroke="#bfbfbf" points="188,-129 188,-148 244,-148 244,-129 188,-129"/>
<text text-anchor="middle" x="216" y="-136" font-family="Helvetica,sans-Serif" font-size="10.00">stdarg.h</text>
</a>
</g>
</g>
<!-- Node17&#45;&gt;Node18 -->
<g id="edge25" class="edge">
<title>Node17&#45;&gt;Node18</title>
<path fill="none" stroke="midnightblue" d="M250.61,-195.73C244.49,-185.79 234.36,-169.34 226.64,-156.79"/>
<polygon fill="midnightblue" stroke="midnightblue" points="229.53,-154.81 221.31,-148.13 223.57,-158.48 229.53,-154.81"/>
</g>
</g>
</svg>
        <g id="navigator" transform="translate(0 0)" fill="#404254">
                <rect fill="#f2f5e9" fill-opacity="0.5" stroke="#606060" stroke-width=".5" x="0" y="0" width="60" height="60"/>
                <use id="zoomplus" xlink:href="#zoomPlus" x="17" y="9" onmousedown="handleZoom(evt,'in')"/>
                <use id="zoomminus" xlink:href="#zoomMin" x="42" y="9" onmousedown="handleZoom(evt,'out')"/>
                <use id="reset" xlink:href="#resetDef" x="30" y="36" onmousedown="handleReset()"/>
                <g id="arrowUp" xlink:href="#dirArrow" transform="translate(30 24)" onmousedown="handlePan(0,-1)">
                  <use xlink:href="#rim" fill="#404040">
                        <set attributeName="fill" to="#808080" begin="arrowUp.mouseover" end="arrowUp.mouseout"/>
                  </use>
                  <path fill="none" stroke="white" stroke-width="1.5" d="M0,-3.0v7 M-2.5,-0.5L0,-3.0L2.5,-0.5"/>
                </g>
                <g id="arrowRight" xlink:href="#dirArrow" transform="rotate(90) translate(36 -43)" onmousedown="handlePan(1,0)">
                  <use xlink:href="#rim" fill="#404040">
                        <set attributeName="fill" to="#808080" begin="arrowRight.mouseover" end="arrowRight.mouseout"/>
                  </use>
                  <path fill="none" stroke="white" stroke-width="1.5" d="M0,-3.0v7 M-2.5,-0.5L0,-3.0L2.5,-0.5"/>
                </g>
                <g id="arrowDown" xlink:href="#dirArrow" transform="rotate(180) translate(-30 -48)" onmousedown="handlePan(0,1)">
                  <use xlink:href="#rim" fill="#404040">
                        <set attributeName="fill" to="#808080" begin="arrowDown.mouseover" end="arrowDown.mouseout"/>
                  </use>
                  <path fill="none" stroke="white" stroke-width="1.5" d="M0,-3.0v7 M-2.5,-0.5L0,-3.0L2.5,-0.5"/>
                </g>
                <g id="arrowLeft" xlink:href="#dirArrow" transform="rotate(270) translate(-36 17)" onmousedown="handlePan(-1,0)">
                  <use xlink:href="#rim" fill="#404040">
                        <set attributeName="fill" to="#808080" begin="arrowLeft.mouseover" end="arrowLeft.mouseout"/>
                  </use>
                  <path fill="none" stroke="white" stroke-width="1.5" d="M0,-3.0v7 M-2.5,-0.5L0,-3.0L2.5,-0.5"/>
                </g>
        </g>
        <svg viewBox="0 0 15 15" width="100%" height="30px" preserveAspectRatio="xMaxYMin meet">
         <g id="arrow_out" transform="scale(0.3 0.3)">
          <a xlink:href="_s_b_m_l_constructor_exception_8h__incl_org.svg" target="_base">
           <rect id="button" ry="5" rx="5" y="6" x="6" height="38" width="38"
                fill="#f2f5e9" fill-opacity="0.5" stroke="#606060" stroke-width="1.0"/>
           <path id="arrow"
             d="M 11.500037,31.436501 C 11.940474,20.09759 22.043105,11.32322 32.158766,21.979434 L 37.068811,17.246167 C 37.068811,17.246167 37.088388,32 37.088388,32 L 22.160133,31.978069 C 22.160133,31.978069 26.997745,27.140456 26.997745,27.140456 C 18.528582,18.264221 13.291696,25.230495 11.500037,31.436501 z"
             style="fill:#404040;"/>
          </a>
         </g>
        </svg>
</svg>
