<?xml version="1.0" encoding="UTF-8" standalone="no"?>
<!DOCTYPE svg PUBLIC "-//W3C//DTD SVG 1.1//EN"
 "http://www.w3.org/Graphics/SVG/1.1/DTD/svg11.dtd">
<!-- Generated by graphviz version 2.43.0 (0)
 -->
<!-- Title: SBO.h Pages: 1 -->
<!--zoomable 453 -->
<svg id="main" version="1.1" xmlns="http://www.w3.org/2000/svg" xmlns:xlink="http://www.w3.org/1999/xlink" xml:space="preserve" onload="init(evt)">
<style type="text/css"><![CDATA[
.edge:hover path { stroke: red; }
.edge:hover polygon { stroke: red; fill: red; }
]]></style>
<script type="text/javascript"><![CDATA[
var edges = document.getElementsByTagName('g');
if (edges && edges.length) {
  for (var i=0;i<edges.length;i++) {
    if (edges[i].id.substr(0,4)=='edge') {
      edges[i].setAttribute('class','edge');
    }
  }
}
]]></script>
        <defs>
                <circle id="rim" cx="0" cy="0" r="7"/>
                <circle id="rim2" cx="0" cy="0" r="3.5"/>
                <g id="zoomPlus">
                        <use xlink:href="#rim" fill="#404040">
                                <set attributeName="fill" to="#808080" begin="zoomplus.mouseover" end="zoomplus.mouseout"/>
                        </use>
                        <path d="M-4,0h8M0,-4v8" fill="none" stroke="white" stroke-width="1.5" pointer-events="none"/>
                </g>
                <g id="zoomMin">
                        <use xlink:href="#rim" fill="#404040">
                                <set attributeName="fill" to="#808080" begin="zoomminus.mouseover" end="zoomminus.mouseout"/>
                        </use>
                        <path d="M-4,0h8" fill="none" stroke="white" stroke-width="1.5" pointer-events="none"/>
                </g>
                <g id="dirArrow">
                        <path fill="none" stroke="white" stroke-width="1.5" d="M0,-3.0v7 M-2.5,-0.5L0,-3.0L2.5,-0.5"/>
                </g>
               <g id="resetDef">
                       <use xlink:href="#rim2" fill="#404040">
                               <set attributeName="fill" to="#808080" begin="reset.mouseover" end="reset.mouseout"/>
                       </use>
               </g>
        </defs>

<script type="text/javascript">
var viewWidth = 1055;
var viewHeight = 453;
var sectionId = 'dynsection-0';
</script>
<script xlink:href="svgpan.js"/>
<svg id="graph" class="graph">
<g id="viewport">
<title>SBO.h</title>
<polygon fill="white" stroke="transparent" points="-4,4 -4,-449 1051,-449 1051,4 -4,4"/>
<!-- Node1 -->
<g id="node1" class="node">
<title>Node1</title>
<g id="a_node1"><a xlink:title="SBO utility Function.">
<polygon fill="#bfbfbf" stroke="black" points="794,-425.5 794,-444.5 840,-444.5 840,-425.5 794,-425.5"/>
<text text-anchor="middle" x="817" y="-432.5" font-family="Helvetica,sans-Serif" font-size="10.00">SBO.h</text>
</a>
</g>
</g>
<!-- Node2 -->
<g id="node2" class="node">
<title>Node2</title>
<g id="a_node2"><a xlink:href="extern_8h.html" target="_top" xlink:title="Definitions of LIBSBML_EXTERN and related things.">
<polygon fill="white" stroke="black" points="173,-67.5 173,-86.5 303,-86.5 303,-67.5 173,-67.5"/>
<text text-anchor="middle" x="238" y="-74.5" font-family="Helvetica,sans-Serif" font-size="10.00">sbml/common/extern.h</text>
</a>
</g>
</g>
<!-- Node1&#45;&gt;Node2 -->
<g id="edge1" class="edge">
<title>Node1&#45;&gt;Node2</title>
<path fill="none" stroke="midnightblue" d="M793.86,-433.39C660.91,-429.56 0,-406.38 0,-324 0,-324 0,-324 0,-204.5 0,-129.57 93.11,-98.89 162.86,-86.41"/>
<polygon fill="midnightblue" stroke="midnightblue" points="163.69,-89.82 172.97,-84.7 162.52,-82.92 163.69,-89.82"/>
</g>
<!-- Node4 -->
<g id="node4" class="node">
<title>Node4</title>
<g id="a_node4"><a xlink:href="_s_b_m_l_namespaces_8h.html" target="_top" xlink:title="SBMLNamespaces class to store level/version and namespace.">
<polygon fill="white" stroke="black" points="546.5,-369.5 546.5,-388.5 689.5,-388.5 689.5,-369.5 546.5,-369.5"/>
<text text-anchor="middle" x="618" y="-376.5" font-family="Helvetica,sans-Serif" font-size="10.00">sbml/SBMLNamespaces.h</text>
</a>
</g>
</g>
<!-- Node1&#45;&gt;Node4 -->
<g id="edge3" class="edge">
<title>Node1&#45;&gt;Node4</title>
<path fill="none" stroke="midnightblue" d="M793.78,-427.7C760.89,-418.77 700.2,-402.31 659.47,-391.25"/>
<polygon fill="midnightblue" stroke="midnightblue" points="660.14,-387.81 649.57,-388.57 658.3,-394.56 660.14,-387.81"/>
</g>
<!-- Node12 -->
<g id="node12" class="node">
<title>Node12</title>
<g id="a_node12"><a xlink:title=" ">
<polygon fill="white" stroke="#bfbfbf" points="744,-257.5 744,-276.5 788,-276.5 788,-257.5 744,-257.5"/>
<text text-anchor="middle" x="766" y="-264.5" font-family="Helvetica,sans-Serif" font-size="10.00">string</text>
</a>
</g>
</g>
<!-- Node1&#45;&gt;Node12 -->
<g id="edge29" class="edge">
<title>Node1&#45;&gt;Node12</title>
<path fill="none" stroke="midnightblue" d="M807.88,-425.29C799.65,-416.84 787.96,-403.24 782,-389 767.74,-354.91 765.48,-311.12 765.49,-286.66"/>
<polygon fill="midnightblue" stroke="midnightblue" points="768.99,-286.66 765.63,-276.61 761.99,-286.56 768.99,-286.66"/>
</g>
<!-- Node20 -->
<g id="node20" class="node">
<title>Node20</title>
<g id="a_node20"><a xlink:title=" ">
<polygon fill="white" stroke="#bfbfbf" points="791,-369.5 791,-388.5 843,-388.5 843,-369.5 791,-369.5"/>
<text text-anchor="middle" x="817" y="-376.5" font-family="Helvetica,sans-Serif" font-size="10.00">cassert</text>
</a>
</g>
</g>
<!-- Node1&#45;&gt;Node20 -->
<g id="edge30" class="edge">
<title>Node1&#45;&gt;Node20</title>
<path fill="none" stroke="midnightblue" d="M817,-425.08C817,-418.01 817,-407.86 817,-398.99"/>
<polygon fill="midnightblue" stroke="midnightblue" points="820.5,-398.75 817,-388.75 813.5,-398.75 820.5,-398.75"/>
</g>
<!-- Node21 -->
<g id="node21" class="node">
<title>Node21</title>
<g id="a_node21"><a xlink:title=" ">
<polygon fill="white" stroke="#bfbfbf" points="861,-369.5 861,-388.5 925,-388.5 925,-369.5 861,-369.5"/>
<text text-anchor="middle" x="893" y="-376.5" font-family="Helvetica,sans-Serif" font-size="10.00">algorithm</text>
</a>
</g>
</g>
<!-- Node1&#45;&gt;Node21 -->
<g id="edge31" class="edge">
<title>Node1&#45;&gt;Node21</title>
<path fill="none" stroke="midnightblue" d="M829.21,-425.32C840.78,-417.11 858.38,-404.6 872.16,-394.81"/>
<polygon fill="midnightblue" stroke="midnightblue" points="874.44,-397.48 880.57,-388.83 870.39,-391.77 874.44,-397.48"/>
</g>
<!-- Node22 -->
<g id="node22" class="node">
<title>Node22</title>
<g id="a_node22"><a xlink:title=" ">
<polygon fill="white" stroke="#bfbfbf" points="943.5,-369.5 943.5,-388.5 990.5,-388.5 990.5,-369.5 943.5,-369.5"/>
<text text-anchor="middle" x="967" y="-376.5" font-family="Helvetica,sans-Serif" font-size="10.00">deque</text>
</a>
</g>
</g>
<!-- Node1&#45;&gt;Node22 -->
<g id="edge32" class="edge">
<title>Node1&#45;&gt;Node22</title>
<path fill="none" stroke="midnightblue" d="M840.11,-425.68C865.1,-416.68 905.18,-402.26 933.6,-392.02"/>
<polygon fill="midnightblue" stroke="midnightblue" points="934.9,-395.28 943.12,-388.6 932.53,-388.69 934.9,-395.28"/>
</g>
<!-- Node23 -->
<g id="node23" class="node">
<title>Node23</title>
<g id="a_node23"><a xlink:title=" ">
<polygon fill="white" stroke="#bfbfbf" points="1009,-369.5 1009,-388.5 1047,-388.5 1047,-369.5 1009,-369.5"/>
<text text-anchor="middle" x="1028" y="-376.5" font-family="Helvetica,sans-Serif" font-size="10.00">map</text>
</a>
</g>
</g>
<!-- Node1&#45;&gt;Node23 -->
<g id="edge33" class="edge">
<title>Node1&#45;&gt;Node23</title>
<path fill="none" stroke="midnightblue" d="M840.25,-428.83C873.43,-421.34 936.47,-406.67 999.13,-389.1"/>
<polygon fill="midnightblue" stroke="midnightblue" points="1000.1,-392.46 1008.77,-386.37 998.2,-385.73 1000.1,-392.46"/>
</g>
<!-- Node3 -->
<g id="node3" class="node">
<title>Node3</title>
<g id="a_node3"><a xlink:title=" ">
<polygon fill="white" stroke="#bfbfbf" points="596.5,-0.5 596.5,-30.5 721.5,-30.5 721.5,-0.5 596.5,-0.5"/>
<text text-anchor="start" x="604.5" y="-18.5" font-family="Helvetica,sans-Serif" font-size="10.00">sbml/common/libsbml</text>
<text text-anchor="middle" x="659" y="-7.5" font-family="Helvetica,sans-Serif" font-size="10.00">&#45;namespace.h</text>
</a>
</g>
</g>
<!-- Node2&#45;&gt;Node3 -->
<g id="edge2" class="edge">
<title>Node2&#45;&gt;Node3</title>
<path fill="none" stroke="midnightblue" d="M298.32,-67.48C374.31,-56.74 504.77,-38.3 586.22,-26.79"/>
<polygon fill="midnightblue" stroke="midnightblue" points="586.98,-30.21 596.39,-25.35 586,-23.28 586.98,-30.21"/>
</g>
<!-- Node5 -->
<g id="node5" class="node">
<title>Node5</title>
<g id="a_node5"><a xlink:href="_x_m_l_namespaces_8h.html" target="_top" xlink:title="A list of XMLNamespace declarations (URI/prefix pairs)">
<polygon fill="white" stroke="black" points="539,-313.5 539,-332.5 697,-332.5 697,-313.5 539,-313.5"/>
<text text-anchor="middle" x="618" y="-320.5" font-family="Helvetica,sans-Serif" font-size="10.00">sbml/xml/XMLNamespaces.h</text>
</a>
</g>
</g>
<!-- Node4&#45;&gt;Node5 -->
<g id="edge4" class="edge">
<title>Node4&#45;&gt;Node5</title>
<path fill="none" stroke="midnightblue" d="M618,-369.08C618,-362.01 618,-351.86 618,-342.99"/>
<polygon fill="midnightblue" stroke="midnightblue" points="621.5,-342.75 618,-332.75 614.5,-342.75 621.5,-342.75"/>
</g>
<!-- Node4&#45;&gt;Node12 -->
<g id="edge27" class="edge">
<title>Node4&#45;&gt;Node12</title>
<path fill="none" stroke="midnightblue" d="M639.85,-369.4C658.45,-361.5 685.36,-348.66 706,-333 724.44,-319.01 741.96,-298.96 753.26,-284.84"/>
<polygon fill="midnightblue" stroke="midnightblue" points="756.05,-286.96 759.44,-276.92 750.53,-282.65 756.05,-286.96"/>
</g>
<!-- Node14 -->
<g id="node14" class="node">
<title>Node14</title>
<g id="a_node14"><a xlink:href="common_8h.html" target="_top" xlink:title="Common functions and macros for C and C++.">
<polygon fill="white" stroke="black" points="198.5,-257.5 198.5,-276.5 339.5,-276.5 339.5,-257.5 198.5,-257.5"/>
<text text-anchor="middle" x="269" y="-264.5" font-family="Helvetica,sans-Serif" font-size="10.00">sbml/common/common.h</text>
</a>
</g>
</g>
<!-- Node4&#45;&gt;Node14 -->
<g id="edge18" class="edge">
<title>Node4&#45;&gt;Node14</title>
<path fill="none" stroke="midnightblue" d="M581.14,-369.44C546.11,-361.05 492.09,-347.46 446,-333 394.12,-316.73 335.05,-294.21 299.96,-280.4"/>
<polygon fill="midnightblue" stroke="midnightblue" points="300.88,-277 290.3,-276.58 298.31,-283.51 300.88,-277"/>
</g>
<!-- Node19 -->
<g id="node19" class="node">
<title>Node19</title>
<g id="a_node19"><a xlink:title=" ">
<polygon fill="white" stroke="#bfbfbf" points="455.5,-313.5 455.5,-332.5 520.5,-332.5 520.5,-313.5 455.5,-313.5"/>
<text text-anchor="middle" x="488" y="-320.5" font-family="Helvetica,sans-Serif" font-size="10.00">stdexcept</text>
</a>
</g>
</g>
<!-- Node4&#45;&gt;Node19 -->
<g id="edge28" class="edge">
<title>Node4&#45;&gt;Node19</title>
<path fill="none" stroke="midnightblue" d="M597.4,-369.44C576.01,-360.56 542.32,-346.56 517.98,-336.45"/>
<polygon fill="midnightblue" stroke="midnightblue" points="519.08,-333.12 508.5,-332.52 516.39,-339.58 519.08,-333.12"/>
</g>
<!-- Node6 -->
<g id="node6" class="node">
<title>Node6</title>
<g id="a_node6"><a xlink:href="_x_m_l_extern_8h.html" target="_top" xlink:title="Defines LIBLAX_EXTERN.">
<polygon fill="white" stroke="black" points="706.5,-67.5 706.5,-86.5 833.5,-86.5 833.5,-67.5 706.5,-67.5"/>
<text text-anchor="middle" x="770" y="-74.5" font-family="Helvetica,sans-Serif" font-size="10.00">sbml/xml/XMLExtern.h</text>
</a>
</g>
</g>
<!-- Node5&#45;&gt;Node6 -->
<g id="edge5" class="edge">
<title>Node5&#45;&gt;Node6</title>
<path fill="none" stroke="midnightblue" d="M642.43,-313.36C659.8,-306.08 682.52,-294.11 697,-277 743.53,-222.01 761.59,-134.76 767.51,-96.74"/>
<polygon fill="midnightblue" stroke="midnightblue" points="771,-97.01 768.97,-86.61 764.07,-96.01 771,-97.01"/>
</g>
<!-- Node7 -->
<g id="node7" class="node">
<title>Node7</title>
<g id="a_node7"><a xlink:href="sbmlfwd_8h.html" target="_top" xlink:title="Forward declarations for all opaque C types.">
<polygon fill="white" stroke="black" points="548,-257.5 548,-276.5 688,-276.5 688,-257.5 548,-257.5"/>
<text text-anchor="middle" x="618" y="-264.5" font-family="Helvetica,sans-Serif" font-size="10.00">sbml/common/sbmlfwd.h</text>
</a>
</g>
</g>
<!-- Node5&#45;&gt;Node7 -->
<g id="edge7" class="edge">
<title>Node5&#45;&gt;Node7</title>
<path fill="none" stroke="midnightblue" d="M618,-313.08C618,-306.01 618,-295.86 618,-286.99"/>
<polygon fill="midnightblue" stroke="midnightblue" points="621.5,-286.75 618,-276.75 614.5,-286.75 621.5,-286.75"/>
</g>
<!-- Node11 -->
<g id="node11" class="node">
<title>Node11</title>
<g id="a_node11"><a xlink:href="operation_return_values_8h.html" target="_top" xlink:title="Enumeration of values returned by operations within libSBML.">
<polygon fill="white" stroke="black" points="339,-190.5 339,-220.5 507,-220.5 507,-190.5 339,-190.5"/>
<text text-anchor="start" x="347" y="-208.5" font-family="Helvetica,sans-Serif" font-size="10.00">sbml/common/operationReturn</text>
<text text-anchor="middle" x="423" y="-197.5" font-family="Helvetica,sans-Serif" font-size="10.00">Values.h</text>
</a>
</g>
</g>
<!-- Node5&#45;&gt;Node11 -->
<g id="edge14" class="edge">
<title>Node5&#45;&gt;Node11</title>
<path fill="none" stroke="midnightblue" d="M561.8,-313.44C533.18,-306.98 499.03,-295.88 473,-277 456.1,-264.74 442.8,-244.99 434.18,-229.5"/>
<polygon fill="midnightblue" stroke="midnightblue" points="437.2,-227.72 429.43,-220.52 431.01,-230.99 437.2,-227.72"/>
</g>
<!-- Node5&#45;&gt;Node12 -->
<g id="edge16" class="edge">
<title>Node5&#45;&gt;Node12</title>
<path fill="none" stroke="midnightblue" d="M641.45,-313.44C666.42,-304.33 706.11,-289.85 733.95,-279.69"/>
<polygon fill="midnightblue" stroke="midnightblue" points="735.43,-282.88 743.63,-276.16 733.03,-276.3 735.43,-282.88"/>
</g>
<!-- Node13 -->
<g id="node13" class="node">
<title>Node13</title>
<g id="a_node13"><a xlink:title=" ">
<polygon fill="white" stroke="#bfbfbf" points="482.5,-257.5 482.5,-276.5 529.5,-276.5 529.5,-257.5 482.5,-257.5"/>
<text text-anchor="middle" x="506" y="-264.5" font-family="Helvetica,sans-Serif" font-size="10.00">vector</text>
</a>
</g>
</g>
<!-- Node5&#45;&gt;Node13 -->
<g id="edge17" class="edge">
<title>Node5&#45;&gt;Node13</title>
<path fill="none" stroke="midnightblue" d="M600.01,-313.32C581.96,-304.62 553.95,-291.12 533.2,-281.11"/>
<polygon fill="midnightblue" stroke="midnightblue" points="534.48,-277.84 523.95,-276.65 531.44,-284.15 534.48,-277.84"/>
</g>
<!-- Node6&#45;&gt;Node3 -->
<g id="edge6" class="edge">
<title>Node6&#45;&gt;Node3</title>
<path fill="none" stroke="midnightblue" d="M754.1,-67.48C738.5,-59.12 714.2,-46.09 694.07,-35.3"/>
<polygon fill="midnightblue" stroke="midnightblue" points="695.63,-32.16 685.16,-30.52 692.32,-38.33 695.63,-32.16"/>
</g>
<!-- Node7&#45;&gt;Node3 -->
<g id="edge8" class="edge">
<title>Node7&#45;&gt;Node3</title>
<path fill="none" stroke="midnightblue" d="M629.51,-257.48C639.43,-249.36 653.07,-236.16 659,-221 683.02,-159.66 672.22,-79.8 664.46,-40.5"/>
<polygon fill="midnightblue" stroke="midnightblue" points="667.85,-39.61 662.38,-30.54 660.99,-41.04 667.85,-39.61"/>
</g>
<!-- Node8 -->
<g id="node8" class="node">
<title>Node8</title>
<g id="a_node8"><a xlink:href="libsbml-config_8h.html" target="_top" xlink:title="Decides whether to #include Unix or Windows configuration variables.">
<polygon fill="white" stroke="black" points="524.5,-190.5 524.5,-220.5 649.5,-220.5 649.5,-190.5 524.5,-190.5"/>
<text text-anchor="start" x="532.5" y="-208.5" font-family="Helvetica,sans-Serif" font-size="10.00">sbml/common/libsbml</text>
<text text-anchor="middle" x="587" y="-197.5" font-family="Helvetica,sans-Serif" font-size="10.00">&#45;config.h</text>
</a>
</g>
</g>
<!-- Node7&#45;&gt;Node8 -->
<g id="edge9" class="edge">
<title>Node7&#45;&gt;Node8</title>
<path fill="none" stroke="midnightblue" d="M613.56,-257.48C609.75,-250.17 604.09,-239.3 598.97,-229.47"/>
<polygon fill="midnightblue" stroke="midnightblue" points="602.03,-227.77 594.31,-220.52 595.82,-231.01 602.03,-227.77"/>
</g>
<!-- Node8&#45;&gt;Node3 -->
<g id="edge10" class="edge">
<title>Node8&#45;&gt;Node3</title>
<path fill="none" stroke="midnightblue" d="M598.45,-190.22C605.77,-180.5 614.99,-167.06 621,-154 638.36,-116.26 649.28,-68.95 654.75,-40.81"/>
<polygon fill="midnightblue" stroke="midnightblue" points="658.25,-41.15 656.65,-30.68 651.37,-39.87 658.25,-41.15"/>
</g>
<!-- Node9 -->
<g id="node9" class="node">
<title>Node9</title>
<g id="a_node9"><a xlink:title=" ">
<polygon fill="white" stroke="#bfbfbf" points="486.5,-123.5 486.5,-153.5 611.5,-153.5 611.5,-123.5 486.5,-123.5"/>
<text text-anchor="start" x="494.5" y="-141.5" font-family="Helvetica,sans-Serif" font-size="10.00">sbml/common/libsbml</text>
<text text-anchor="middle" x="549" y="-130.5" font-family="Helvetica,sans-Serif" font-size="10.00">&#45;config&#45;common.h</text>
</a>
</g>
</g>
<!-- Node8&#45;&gt;Node9 -->
<g id="edge11" class="edge">
<title>Node8&#45;&gt;Node9</title>
<path fill="none" stroke="midnightblue" d="M578.75,-190.4C573.97,-182.22 567.84,-171.73 562.38,-162.39"/>
<polygon fill="midnightblue" stroke="midnightblue" points="565.3,-160.44 557.23,-153.58 559.25,-163.98 565.3,-160.44"/>
</g>
<!-- Node10 -->
<g id="node10" class="node">
<title>Node10</title>
<g id="a_node10"><a xlink:href="libsbml-version_8h.html" target="_top" xlink:title="Define libSBML version numbers for access from client software.">
<polygon fill="white" stroke="black" points="340.5,-123.5 340.5,-153.5 465.5,-153.5 465.5,-123.5 340.5,-123.5"/>
<text text-anchor="start" x="348.5" y="-141.5" font-family="Helvetica,sans-Serif" font-size="10.00">sbml/common/libsbml</text>
<text text-anchor="middle" x="403" y="-130.5" font-family="Helvetica,sans-Serif" font-size="10.00">&#45;version.h</text>
</a>
</g>
</g>
<!-- Node8&#45;&gt;Node10 -->
<g id="edge12" class="edge">
<title>Node8&#45;&gt;Node10</title>
<path fill="none" stroke="midnightblue" d="M547.07,-190.4C519.35,-180.6 482.21,-167.48 452.58,-157.02"/>
<polygon fill="midnightblue" stroke="midnightblue" points="453.44,-153.61 442.85,-153.58 451.11,-160.21 453.44,-153.61"/>
</g>
<!-- Node10&#45;&gt;Node2 -->
<g id="edge13" class="edge">
<title>Node10&#45;&gt;Node2</title>
<path fill="none" stroke="midnightblue" d="M363.9,-123.4C335.84,-113.28 298.43,-99.79 271.69,-90.15"/>
<polygon fill="midnightblue" stroke="midnightblue" points="272.6,-86.76 262.01,-86.66 270.23,-93.34 272.6,-86.76"/>
</g>
<!-- Node11&#45;&gt;Node2 -->
<g id="edge15" class="edge">
<title>Node11&#45;&gt;Node2</title>
<path fill="none" stroke="midnightblue" d="M394.02,-190.33C375.5,-180.85 351.24,-167.66 331,-154 303.07,-135.16 273.36,-109.83 255.23,-93.7"/>
<polygon fill="midnightblue" stroke="midnightblue" points="257.1,-90.68 247.32,-86.6 252.42,-95.88 257.1,-90.68"/>
</g>
<!-- Node14&#45;&gt;Node2 -->
<g id="edge21" class="edge">
<title>Node14&#45;&gt;Node2</title>
<path fill="none" stroke="midnightblue" d="M198.37,-260.43C143.8,-254.49 74.67,-242.82 57,-221 40.63,-200.79 61.15,-135.23 73,-123 96.3,-98.94 131.1,-87.35 162.74,-81.91"/>
<polygon fill="midnightblue" stroke="midnightblue" points="163.53,-85.33 172.89,-80.35 162.47,-78.41 163.53,-85.33"/>
</g>
<!-- Node14&#45;&gt;Node8 -->
<g id="edge19" class="edge">
<title>Node14&#45;&gt;Node8</title>
<path fill="none" stroke="midnightblue" d="M317.8,-257.43C365.52,-248.97 440.52,-235.49 514.36,-221.3"/>
<polygon fill="midnightblue" stroke="midnightblue" points="515.14,-224.71 524.29,-219.38 513.81,-217.84 515.14,-224.71"/>
</g>
<!-- Node15 -->
<g id="node15" class="node">
<title>Node15</title>
<g id="a_node15"><a xlink:title=" ">
<polygon fill="white" stroke="#bfbfbf" points="218,-129 218,-148 268,-148 268,-129 218,-129"/>
<text text-anchor="middle" x="243" y="-136" font-family="Helvetica,sans-Serif" font-size="10.00">stdio.h</text>
</a>
</g>
</g>
<!-- Node14&#45;&gt;Node15 -->
<g id="edge20" class="edge">
<title>Node14&#45;&gt;Node15</title>
<path fill="none" stroke="midnightblue" d="M275.16,-257.38C284.57,-243.1 300.48,-213.73 291,-190 285.41,-176 273.88,-163.65 263.52,-154.68"/>
<polygon fill="midnightblue" stroke="midnightblue" points="265.57,-151.83 255.6,-148.23 261.15,-157.26 265.57,-151.83"/>
</g>
<!-- Node16 -->
<g id="node16" class="node">
<title>Node16</title>
<g id="a_node16"><a xlink:href="memory_8h.html" target="_top" xlink:title=" ">
<polygon fill="white" stroke="black" points="171.5,-196 171.5,-215 282.5,-215 282.5,-196 171.5,-196"/>
<text text-anchor="middle" x="227" y="-203" font-family="Helvetica,sans-Serif" font-size="10.00">sbml/util/memory.h</text>
</a>
</g>
</g>
<!-- Node14&#45;&gt;Node16 -->
<g id="edge22" class="edge">
<title>Node14&#45;&gt;Node16</title>
<path fill="none" stroke="midnightblue" d="M262.98,-257.48C256.74,-248.64 246.83,-234.59 238.98,-223.48"/>
<polygon fill="midnightblue" stroke="midnightblue" points="241.63,-221.16 233.01,-215.01 235.91,-225.2 241.63,-221.16"/>
</g>
<!-- Node17 -->
<g id="node17" class="node">
<title>Node17</title>
<g id="a_node17"><a xlink:href="util_8h.html" target="_top" xlink:title="Utility functions.">
<polygon fill="white" stroke="black" points="66.5,-196 66.5,-215 153.5,-215 153.5,-196 66.5,-196"/>
<text text-anchor="middle" x="110" y="-203" font-family="Helvetica,sans-Serif" font-size="10.00">sbml/util/util.h</text>
</a>
</g>
</g>
<!-- Node14&#45;&gt;Node17 -->
<g id="edge23" class="edge">
<title>Node14&#45;&gt;Node17</title>
<path fill="none" stroke="midnightblue" d="M246.22,-257.48C218.95,-247.27 173.09,-230.11 142.2,-218.55"/>
<polygon fill="midnightblue" stroke="midnightblue" points="143.33,-215.24 132.74,-215.01 140.88,-221.79 143.33,-215.24"/>
</g>
<!-- Node17&#45;&gt;Node2 -->
<g id="edge26" class="edge">
<title>Node17&#45;&gt;Node2</title>
<path fill="none" stroke="midnightblue" d="M118.8,-195.81C140.08,-174.77 194.6,-120.89 221.91,-93.9"/>
<polygon fill="midnightblue" stroke="midnightblue" points="224.49,-96.27 229.14,-86.76 219.57,-91.3 224.49,-96.27"/>
</g>
<!-- Node17&#45;&gt;Node15 -->
<g id="edge24" class="edge">
<title>Node17&#45;&gt;Node15</title>
<path fill="none" stroke="midnightblue" d="M127.66,-195.87C150.32,-184.8 189.83,-165.49 216.2,-152.6"/>
<polygon fill="midnightblue" stroke="midnightblue" points="217.82,-155.7 225.27,-148.17 214.74,-149.41 217.82,-155.7"/>
</g>
<!-- Node18 -->
<g id="node18" class="node">
<title>Node18</title>
<g id="a_node18"><a xlink:title=" ">
<polygon fill="white" stroke="#bfbfbf" points="82,-129 82,-148 138,-148 138,-129 82,-129"/>
<text text-anchor="middle" x="110" y="-136" font-family="Helvetica,sans-Serif" font-size="10.00">stdarg.h</text>
</a>
</g>
</g>
<!-- Node17&#45;&gt;Node18 -->
<g id="edge25" class="edge">
<title>Node17&#45;&gt;Node18</title>
<path fill="none" stroke="midnightblue" d="M110,-195.73C110,-186.18 110,-170.62 110,-158.28"/>
<polygon fill="midnightblue" stroke="midnightblue" points="113.5,-158.13 110,-148.13 106.5,-158.13 113.5,-158.13"/>
</g>
</g>
</svg>
        <g id="navigator" transform="translate(0 0)" fill="#404254">
                <rect fill="#f2f5e9" fill-opacity="0.5" stroke="#606060" stroke-width=".5" x="0" y="0" width="60" height="60"/>
                <use id="zoomplus" xlink:href="#zoomPlus" x="17" y="9" onmousedown="handleZoom(evt,'in')"/>
                <use id="zoomminus" xlink:href="#zoomMin" x="42" y="9" onmousedown="handleZoom(evt,'out')"/>
                <use id="reset" xlink:href="#resetDef" x="30" y="36" onmousedown="handleReset()"/>
                <g id="arrowUp" xlink:href="#dirArrow" transform="translate(30 24)" onmousedown="handlePan(0,-1)">
                  <use xlink:href="#rim" fill="#404040">
                        <set attributeName="fill" to="#808080" begin="arrowUp.mouseover" end="arrowUp.mouseout"/>
                  </use>
                  <path fill="none" stroke="white" stroke-width="1.5" d="M0,-3.0v7 M-2.5,-0.5L0,-3.0L2.5,-0.5"/>
                </g>
                <g id="arrowRight" xlink:href="#dirArrow" transform="rotate(90) translate(36 -43)" onmousedown="handlePan(1,0)">
                  <use xlink:href="#rim" fill="#404040">
                        <set attributeName="fill" to="#808080" begin="arrowRight.mouseover" end="arrowRight.mouseout"/>
                  </use>
                  <path fill="none" stroke="white" stroke-width="1.5" d="M0,-3.0v7 M-2.5,-0.5L0,-3.0L2.5,-0.5"/>
                </g>
                <g id="arrowDown" xlink:href="#dirArrow" transform="rotate(180) translate(-30 -48)" onmousedown="handlePan(0,1)">
                  <use xlink:href="#rim" fill="#404040">
                        <set attributeName="fill" to="#808080" begin="arrowDown.mouseover" end="arrowDown.mouseout"/>
                  </use>
                  <path fill="none" stroke="white" stroke-width="1.5" d="M0,-3.0v7 M-2.5,-0.5L0,-3.0L2.5,-0.5"/>
                </g>
                <g id="arrowLeft" xlink:href="#dirArrow" transform="rotate(270) translate(-36 17)" onmousedown="handlePan(-1,0)">
                  <use xlink:href="#rim" fill="#404040">
                        <set attributeName="fill" to="#808080" begin="arrowLeft.mouseover" end="arrowLeft.mouseout"/>
                  </use>
                  <path fill="none" stroke="white" stroke-width="1.5" d="M0,-3.0v7 M-2.5,-0.5L0,-3.0L2.5,-0.5"/>
                </g>
        </g>
        <svg viewBox="0 0 15 15" width="100%" height="30px" preserveAspectRatio="xMaxYMin meet">
         <g id="arrow_out" transform="scale(0.3 0.3)">
          <a xlink:href="_s_b_o_8h__incl_org.svg" target="_base">
           <rect id="button" ry="5" rx="5" y="6" x="6" height="38" width="38"
                fill="#f2f5e9" fill-opacity="0.5" stroke="#606060" stroke-width="1.0"/>
           <path id="arrow"
             d="M 11.500037,31.436501 C 11.940474,20.09759 22.043105,11.32322 32.158766,21.979434 L 37.068811,17.246167 C 37.068811,17.246167 37.088388,32 37.088388,32 L 22.160133,31.978069 C 22.160133,31.978069 26.997745,27.140456 26.997745,27.140456 C 18.528582,18.264221 13.291696,25.230495 11.500037,31.436501 z"
             style="fill:#404040;"/>
          </a>
         </g>
        </svg>
</svg>
