<?xml version="1.0" encoding="UTF-8" standalone="no"?>
<!DOCTYPE svg PUBLIC "-//W3C//DTD SVG 1.1//EN"
 "http://www.w3.org/Graphics/SVG/1.1/DTD/svg11.dtd">
<!-- Generated by graphviz version 2.43.0 (0)
 -->
<!-- Title: SampledField.h Pages: 1 -->
<svg width="483pt" height="308pt"
 viewBox="0.00 0.00 483.00 308.00" xmlns="http://www.w3.org/2000/svg" xmlns:xlink="http://www.w3.org/1999/xlink">
<g id="graph0" class="graph" transform="scale(1 1) rotate(0) translate(4 304)">
<title>SampledField.h</title>
<polygon fill="white" stroke="transparent" points="-4,4 -4,-304 479,-304 479,4 -4,4"/>
<!-- Node1 -->
<g id="node1" class="node">
<title>Node1</title>
<g id="a_node1"><a xlink:title="Definition of the SampledField class.">
<polygon fill="#bfbfbf" stroke="black" points="239.5,-280.5 239.5,-299.5 331.5,-299.5 331.5,-280.5 239.5,-280.5"/>
<text text-anchor="middle" x="285.5" y="-287.5" font-family="Helvetica,sans-Serif" font-size="10.00">SampledField.h</text>
</a>
</g>
</g>
<!-- Node2 -->
<g id="node2" class="node">
<title>Node2</title>
<g id="a_node2"><a xlink:href="_spatial_extension_types_8h.html" target="_top" xlink:title="Definition of SpatialExtensionTypes.">
<polygon fill="white" stroke="black" points="0,-56.5 0,-75.5 135,-75.5 135,-56.5 0,-56.5"/>
<text text-anchor="middle" x="67.5" y="-63.5" font-family="Helvetica,sans-Serif" font-size="10.00">SpatialExtensionTypes.h</text>
</a>
</g>
</g>
<!-- Node1&#45;&gt;Node2 -->
<g id="edge1" class="edge">
<title>Node1&#45;&gt;Node2</title>
<path fill="none" stroke="midnightblue" d="M251.94,-276.6C214.29,-261.15 153.66,-231.36 116.5,-188 86.42,-152.89 73.16,-96.9 69.02,-75.6"/>
<polygon fill="midnightblue" stroke="midnightblue" points="250.86,-279.94 261.45,-280.4 253.46,-273.44 250.86,-279.94"/>
</g>
<!-- Node4 -->
<g id="node4" class="node">
<title>Node4</title>
<g id="a_node4"><a xlink:href="_list_of_sampled_fields_8h.html" target="_top" xlink:title="Definition of the ListOfSampledFields class.">
<polygon fill="white" stroke="black" points="223,-224.5 223,-243.5 348,-243.5 348,-224.5 223,-224.5"/>
<text text-anchor="middle" x="285.5" y="-231.5" font-family="Helvetica,sans-Serif" font-size="10.00">ListOfSampledFields.h</text>
</a>
</g>
</g>
<!-- Node1&#45;&gt;Node4 -->
<g id="edge3" class="edge">
<title>Node1&#45;&gt;Node4</title>
<path fill="none" stroke="midnightblue" d="M285.5,-269.8C285.5,-260.91 285.5,-250.78 285.5,-243.75"/>
<polygon fill="midnightblue" stroke="midnightblue" points="282,-270.08 285.5,-280.08 289,-270.08 282,-270.08"/>
</g>
<!-- Node11 -->
<g id="node11" class="node">
<title>Node11</title>
<g id="a_node11"><a xlink:href="_sampled_field_8cpp.html" target="_top" xlink:title="Implementation of the SampledField class.">
<polygon fill="white" stroke="black" points="372,-168.5 372,-187.5 475,-187.5 475,-168.5 372,-168.5"/>
<text text-anchor="middle" x="423.5" y="-175.5" font-family="Helvetica,sans-Serif" font-size="10.00">SampledField.cpp</text>
</a>
</g>
</g>
<!-- Node1&#45;&gt;Node11 -->
<g id="edge13" class="edge">
<title>Node1&#45;&gt;Node11</title>
<path fill="none" stroke="midnightblue" d="M309.74,-275.33C323.86,-266.95 341.74,-255.64 356.5,-244 379.66,-225.74 403.76,-200.59 415.75,-187.58"/>
<polygon fill="midnightblue" stroke="midnightblue" points="307.95,-272.32 301.07,-280.38 311.47,-278.37 307.95,-272.32"/>
</g>
<!-- Node3 -->
<g id="node3" class="node">
<title>Node3</title>
<g id="a_node3"><a xlink:href="_spatial_validator_8cpp.html" target="_top" xlink:title="Definition of SpatialValidator.">
<polygon fill="white" stroke="black" points="11,-0.5 11,-19.5 124,-19.5 124,-0.5 11,-0.5"/>
<text text-anchor="middle" x="67.5" y="-7.5" font-family="Helvetica,sans-Serif" font-size="10.00">SpatialValidator.cpp</text>
</a>
</g>
</g>
<!-- Node2&#45;&gt;Node3 -->
<g id="edge2" class="edge">
<title>Node2&#45;&gt;Node3</title>
<path fill="none" stroke="midnightblue" d="M67.5,-45.8C67.5,-36.91 67.5,-26.78 67.5,-19.75"/>
<polygon fill="midnightblue" stroke="midnightblue" points="64,-46.08 67.5,-56.08 71,-46.08 64,-46.08"/>
</g>
<!-- Node5 -->
<g id="node5" class="node">
<title>Node5</title>
<g id="a_node5"><a xlink:href="_geometry_8h.html" target="_top" xlink:title="Definition of the Geometry class.">
<polygon fill="white" stroke="black" points="126,-168.5 126,-187.5 199,-187.5 199,-168.5 126,-168.5"/>
<text text-anchor="middle" x="162.5" y="-175.5" font-family="Helvetica,sans-Serif" font-size="10.00">Geometry.h</text>
</a>
</g>
</g>
<!-- Node4&#45;&gt;Node5 -->
<g id="edge4" class="edge">
<title>Node4&#45;&gt;Node5</title>
<path fill="none" stroke="midnightblue" d="M256.73,-220.37C233.69,-210.26 202.02,-196.35 181.9,-187.52"/>
<polygon fill="midnightblue" stroke="midnightblue" points="255.45,-223.63 266.01,-224.44 258.26,-217.22 255.45,-223.63"/>
</g>
<!-- Node10 -->
<g id="node10" class="node">
<title>Node10</title>
<g id="a_node10"><a xlink:href="_list_of_sampled_fields_8cpp.html" target="_top" xlink:title="Implementation of the ListOfSampledFields class.">
<polygon fill="white" stroke="black" points="217,-168.5 217,-187.5 354,-187.5 354,-168.5 217,-168.5"/>
<text text-anchor="middle" x="285.5" y="-175.5" font-family="Helvetica,sans-Serif" font-size="10.00">ListOfSampledFields.cpp</text>
</a>
</g>
</g>
<!-- Node4&#45;&gt;Node10 -->
<g id="edge11" class="edge">
<title>Node4&#45;&gt;Node10</title>
<path fill="none" stroke="midnightblue" d="M285.5,-213.8C285.5,-204.91 285.5,-194.78 285.5,-187.75"/>
<polygon fill="midnightblue" stroke="midnightblue" points="282,-214.08 285.5,-224.08 289,-214.08 282,-214.08"/>
</g>
<!-- Node4&#45;&gt;Node11 -->
<g id="edge12" class="edge">
<title>Node4&#45;&gt;Node11</title>
<path fill="none" stroke="midnightblue" d="M316.75,-220.77C342.67,-210.63 378.86,-196.47 401.74,-187.52"/>
<polygon fill="midnightblue" stroke="midnightblue" points="315.4,-217.54 307.37,-224.44 317.95,-224.06 315.4,-217.54"/>
</g>
<!-- Node5&#45;&gt;Node2 -->
<g id="edge5" class="edge">
<title>Node5&#45;&gt;Node2</title>
<path fill="none" stroke="midnightblue" d="M148.32,-160.59C127.84,-136.87 90.71,-93.87 74.92,-75.59"/>
<polygon fill="midnightblue" stroke="midnightblue" points="145.86,-163.09 155.05,-168.37 151.16,-158.51 145.86,-163.09"/>
</g>
<!-- Node6 -->
<g id="node6" class="node">
<title>Node6</title>
<g id="a_node6"><a xlink:href="_spatial_model_plugin_8h.html" target="_top" xlink:title="Definition of the SpatialModelPlugin class.">
<polygon fill="white" stroke="black" points="134,-112.5 134,-131.5 253,-131.5 253,-112.5 134,-112.5"/>
<text text-anchor="middle" x="193.5" y="-119.5" font-family="Helvetica,sans-Serif" font-size="10.00">SpatialModelPlugin.h</text>
</a>
</g>
</g>
<!-- Node5&#45;&gt;Node6 -->
<g id="edge6" class="edge">
<title>Node5&#45;&gt;Node6</title>
<path fill="none" stroke="midnightblue" d="M172.68,-159.27C177.97,-150.05 184.22,-139.17 188.48,-131.75"/>
<polygon fill="midnightblue" stroke="midnightblue" points="169.56,-157.67 167.62,-168.08 175.63,-161.15 169.56,-157.67"/>
</g>
<!-- Node9 -->
<g id="node9" class="node">
<title>Node9</title>
<g id="a_node9"><a xlink:href="_geometry_8cpp.html" target="_top" xlink:title="Implementation of the Geometry class.">
<polygon fill="white" stroke="black" points="271.5,-112.5 271.5,-131.5 355.5,-131.5 355.5,-112.5 271.5,-112.5"/>
<text text-anchor="middle" x="313.5" y="-119.5" font-family="Helvetica,sans-Serif" font-size="10.00">Geometry.cpp</text>
</a>
</g>
</g>
<!-- Node5&#45;&gt;Node9 -->
<g id="edge10" class="edge">
<title>Node5&#45;&gt;Node9</title>
<path fill="none" stroke="midnightblue" d="M195.95,-165.04C224.36,-154.88 264.44,-140.55 289.69,-131.52"/>
<polygon fill="midnightblue" stroke="midnightblue" points="194.66,-161.78 186.43,-168.44 197.02,-168.37 194.66,-161.78"/>
</g>
<!-- Node6&#45;&gt;Node2 -->
<g id="edge7" class="edge">
<title>Node6&#45;&gt;Node2</title>
<path fill="none" stroke="midnightblue" d="M164.34,-108.5C140.72,-98.38 108.07,-84.39 87.37,-75.52"/>
<polygon fill="midnightblue" stroke="midnightblue" points="162.96,-111.72 173.53,-112.44 165.72,-105.29 162.96,-111.72"/>
</g>
<!-- Node7 -->
<g id="node7" class="node">
<title>Node7</title>
<g id="a_node7"><a xlink:href="_spatial_extension_8cpp.html" target="_top" xlink:title="Implementation of SpatialExtension.">
<polygon fill="white" stroke="black" points="153,-56.5 153,-75.5 272,-75.5 272,-56.5 153,-56.5"/>
<text text-anchor="middle" x="212.5" y="-63.5" font-family="Helvetica,sans-Serif" font-size="10.00">SpatialExtension.cpp</text>
</a>
</g>
</g>
<!-- Node6&#45;&gt;Node7 -->
<g id="edge8" class="edge">
<title>Node6&#45;&gt;Node7</title>
<path fill="none" stroke="midnightblue" d="M200.05,-102.4C203.22,-93.36 206.89,-82.94 209.42,-75.75"/>
<polygon fill="midnightblue" stroke="midnightblue" points="196.65,-101.49 196.64,-112.08 203.26,-103.81 196.65,-101.49"/>
</g>
<!-- Node8 -->
<g id="node8" class="node">
<title>Node8</title>
<g id="a_node8"><a xlink:href="_spatial_model_plugin_8cpp.html" target="_top" xlink:title="Implementation of the SpatialModelPlugin class.">
<polygon fill="white" stroke="black" points="290,-56.5 290,-75.5 421,-75.5 421,-56.5 290,-56.5"/>
<text text-anchor="middle" x="355.5" y="-63.5" font-family="Helvetica,sans-Serif" font-size="10.00">SpatialModelPlugin.cpp</text>
</a>
</g>
</g>
<!-- Node6&#45;&gt;Node8 -->
<g id="edge9" class="edge">
<title>Node6&#45;&gt;Node8</title>
<path fill="none" stroke="midnightblue" d="M228.98,-109.17C259.49,-99 302.74,-84.59 329.95,-75.52"/>
<polygon fill="midnightblue" stroke="midnightblue" points="227.55,-105.96 219.17,-112.44 229.76,-112.6 227.55,-105.96"/>
</g>
</g>
</svg>
