<?xml version="1.0" encoding="UTF-8" standalone="no"?>
<!DOCTYPE svg PUBLIC "-//W3C//DTD SVG 1.1//EN"
 "http://www.w3.org/Graphics/SVG/1.1/DTD/svg11.dtd">
<!-- Generated by graphviz version 2.43.0 (0)
 -->
<!-- Title: SpatialPoints.h Pages: 1 -->
<svg width="868pt" height="196pt"
 viewBox="0.00 0.00 868.00 196.00" xmlns="http://www.w3.org/2000/svg" xmlns:xlink="http://www.w3.org/1999/xlink">
<g id="graph0" class="graph" transform="scale(1 1) rotate(0) translate(4 192)">
<title>SpatialPoints.h</title>
<polygon fill="white" stroke="transparent" points="-4,4 -4,-192 864,-192 864,4 -4,4"/>
<!-- Node1 -->
<g id="node1" class="node">
<title>Node1</title>
<g id="a_node1"><a xlink:title="Definition of the SpatialPoints class.">
<polygon fill="#bfbfbf" stroke="black" points="278,-168.5 278,-187.5 367,-187.5 367,-168.5 278,-168.5"/>
<text text-anchor="middle" x="322.5" y="-175.5" font-family="Helvetica,sans-Serif" font-size="10.00">SpatialPoints.h</text>
</a>
</g>
</g>
<!-- Node2 -->
<g id="node2" class="node">
<title>Node2</title>
<g id="a_node2"><a xlink:href="_spatial_extension_types_8h.html" target="_top" xlink:title="Definition of SpatialExtensionTypes.">
<polygon fill="white" stroke="black" points="0,-56.5 0,-75.5 135,-75.5 135,-56.5 0,-56.5"/>
<text text-anchor="middle" x="67.5" y="-63.5" font-family="Helvetica,sans-Serif" font-size="10.00">SpatialExtensionTypes.h</text>
</a>
</g>
</g>
<!-- Node1&#45;&gt;Node2 -->
<g id="edge1" class="edge">
<title>Node1&#45;&gt;Node2</title>
<path fill="none" stroke="midnightblue" d="M293.07,-164.3C240.58,-141.66 132.11,-94.87 87.42,-75.59"/>
<polygon fill="midnightblue" stroke="midnightblue" points="291.92,-167.62 302.49,-168.37 294.69,-161.19 291.92,-167.62"/>
</g>
<!-- Node4 -->
<g id="node4" class="node">
<title>Node4</title>
<g id="a_node4"><a xlink:href="_parametric_geometry_8h.html" target="_top" xlink:title="Definition of the ParametricGeometry class.">
<polygon fill="white" stroke="black" points="260,-112.5 260,-131.5 385,-131.5 385,-112.5 260,-112.5"/>
<text text-anchor="middle" x="322.5" y="-119.5" font-family="Helvetica,sans-Serif" font-size="10.00">ParametricGeometry.h</text>
</a>
</g>
</g>
<!-- Node1&#45;&gt;Node4 -->
<g id="edge3" class="edge">
<title>Node1&#45;&gt;Node4</title>
<path fill="none" stroke="midnightblue" d="M322.5,-157.8C322.5,-148.91 322.5,-138.78 322.5,-131.75"/>
<polygon fill="midnightblue" stroke="midnightblue" points="319,-158.08 322.5,-168.08 326,-158.08 319,-158.08"/>
</g>
<!-- Node10 -->
<g id="node10" class="node">
<title>Node10</title>
<g id="a_node10"><a xlink:href="_spatial_points_8cpp.html" target="_top" xlink:title="Implementation of the SpatialPoints class.">
<polygon fill="white" stroke="black" points="403,-112.5 403,-131.5 504,-131.5 504,-112.5 403,-112.5"/>
<text text-anchor="middle" x="453.5" y="-119.5" font-family="Helvetica,sans-Serif" font-size="10.00">SpatialPoints.cpp</text>
</a>
</g>
</g>
<!-- Node1&#45;&gt;Node10 -->
<g id="edge10" class="edge">
<title>Node1&#45;&gt;Node10</title>
<path fill="none" stroke="midnightblue" d="M352.82,-164.5C377.38,-154.38 411.32,-140.39 432.84,-131.52"/>
<polygon fill="midnightblue" stroke="midnightblue" points="351.17,-161.4 343.26,-168.44 353.84,-167.87 351.17,-161.4"/>
</g>
<!-- Node3 -->
<g id="node3" class="node">
<title>Node3</title>
<g id="a_node3"><a xlink:href="_spatial_validator_8cpp.html" target="_top" xlink:title="Definition of SpatialValidator.">
<polygon fill="white" stroke="black" points="11,-0.5 11,-19.5 124,-19.5 124,-0.5 11,-0.5"/>
<text text-anchor="middle" x="67.5" y="-7.5" font-family="Helvetica,sans-Serif" font-size="10.00">SpatialValidator.cpp</text>
</a>
</g>
</g>
<!-- Node2&#45;&gt;Node3 -->
<g id="edge2" class="edge">
<title>Node2&#45;&gt;Node3</title>
<path fill="none" stroke="midnightblue" d="M67.5,-45.8C67.5,-36.91 67.5,-26.78 67.5,-19.75"/>
<polygon fill="midnightblue" stroke="midnightblue" points="64,-46.08 67.5,-56.08 71,-46.08 64,-46.08"/>
</g>
<!-- Node4&#45;&gt;Node2 -->
<g id="edge4" class="edge">
<title>Node4&#45;&gt;Node2</title>
<path fill="none" stroke="midnightblue" d="M272.19,-110.35C224,-100.14 152.22,-84.94 107.72,-75.52"/>
<polygon fill="midnightblue" stroke="midnightblue" points="271.59,-113.8 282.09,-112.44 273.04,-106.95 271.59,-113.8"/>
</g>
<!-- Node5 -->
<g id="node5" class="node">
<title>Node5</title>
<g id="a_node5"><a xlink:href="_geometry_8cpp.html" target="_top" xlink:title="Implementation of the Geometry class.">
<polygon fill="white" stroke="black" points="153.5,-56.5 153.5,-75.5 237.5,-75.5 237.5,-56.5 153.5,-56.5"/>
<text text-anchor="middle" x="195.5" y="-63.5" font-family="Helvetica,sans-Serif" font-size="10.00">Geometry.cpp</text>
</a>
</g>
</g>
<!-- Node4&#45;&gt;Node5 -->
<g id="edge5" class="edge">
<title>Node4&#45;&gt;Node5</title>
<path fill="none" stroke="midnightblue" d="M293.11,-108.5C269.3,-98.38 236.39,-84.39 215.53,-75.52"/>
<polygon fill="midnightblue" stroke="midnightblue" points="291.8,-111.75 302.38,-112.44 294.54,-105.31 291.8,-111.75"/>
</g>
<!-- Node6 -->
<g id="node6" class="node">
<title>Node6</title>
<g id="a_node6"><a xlink:href="_geometry_definition_8cpp.html" target="_top" xlink:title="Implementation of the GeometryDefinition class.">
<polygon fill="white" stroke="black" points="256,-56.5 256,-75.5 389,-75.5 389,-56.5 256,-56.5"/>
<text text-anchor="middle" x="322.5" y="-63.5" font-family="Helvetica,sans-Serif" font-size="10.00">GeometryDefinition.cpp</text>
</a>
</g>
</g>
<!-- Node4&#45;&gt;Node6 -->
<g id="edge6" class="edge">
<title>Node4&#45;&gt;Node6</title>
<path fill="none" stroke="midnightblue" d="M322.5,-101.8C322.5,-92.91 322.5,-82.78 322.5,-75.75"/>
<polygon fill="midnightblue" stroke="midnightblue" points="319,-102.08 322.5,-112.08 326,-102.08 319,-102.08"/>
</g>
<!-- Node7 -->
<g id="node7" class="node">
<title>Node7</title>
<g id="a_node7"><a xlink:href="_list_of_geometry_definitions_8cpp.html" target="_top" xlink:title="Implementation of the ListOfGeometryDefinitions class.">
<polygon fill="white" stroke="black" points="407,-56.5 407,-75.5 574,-75.5 574,-56.5 407,-56.5"/>
<text text-anchor="middle" x="490.5" y="-63.5" font-family="Helvetica,sans-Serif" font-size="10.00">ListOfGeometryDefinitions.cpp</text>
</a>
</g>
</g>
<!-- Node4&#45;&gt;Node7 -->
<g id="edge7" class="edge">
<title>Node4&#45;&gt;Node7</title>
<path fill="none" stroke="midnightblue" d="M358.89,-109.3C390.54,-99.13 435.67,-84.62 464,-75.52"/>
<polygon fill="midnightblue" stroke="midnightblue" points="357.57,-106.05 349.12,-112.44 359.71,-112.72 357.57,-106.05"/>
</g>
<!-- Node8 -->
<g id="node8" class="node">
<title>Node8</title>
<g id="a_node8"><a xlink:href="_mixed_geometry_8cpp.html" target="_top" xlink:title="Implementation of the MixedGeometry class.">
<polygon fill="white" stroke="black" points="592,-56.5 592,-75.5 705,-75.5 705,-56.5 592,-56.5"/>
<text text-anchor="middle" x="648.5" y="-63.5" font-family="Helvetica,sans-Serif" font-size="10.00">MixedGeometry.cpp</text>
</a>
</g>
</g>
<!-- Node4&#45;&gt;Node8 -->
<g id="edge8" class="edge">
<title>Node4&#45;&gt;Node8</title>
<path fill="none" stroke="midnightblue" d="M384.13,-110.79C445.73,-100.59 539.36,-85.08 597.09,-75.52"/>
<polygon fill="midnightblue" stroke="midnightblue" points="383.45,-107.36 374.16,-112.44 384.59,-114.26 383.45,-107.36"/>
</g>
<!-- Node9 -->
<g id="node9" class="node">
<title>Node9</title>
<g id="a_node9"><a xlink:href="_parametric_geometry_8cpp.html" target="_top" xlink:title="Implementation of the ParametricGeometry class.">
<polygon fill="white" stroke="black" points="723,-56.5 723,-75.5 860,-75.5 860,-56.5 723,-56.5"/>
<text text-anchor="middle" x="791.5" y="-63.5" font-family="Helvetica,sans-Serif" font-size="10.00">ParametricGeometry.cpp</text>
</a>
</g>
</g>
<!-- Node4&#45;&gt;Node9 -->
<g id="edge9" class="edge">
<title>Node4&#45;&gt;Node9</title>
<path fill="none" stroke="midnightblue" d="M395.35,-111.91C538.28,-94.99 575.51,-91.94 714.5,-76 717.17,-75.69 719.9,-75.38 722.65,-75.06"/>
<polygon fill="midnightblue" stroke="midnightblue" points="394.84,-108.45 385.32,-113.1 395.67,-115.4 394.84,-108.45"/>
</g>
</g>
</svg>
