<?xml version="1.0" encoding="UTF-8" standalone="no"?>
<!DOCTYPE svg PUBLIC "-//W3C//DTD SVG 1.1//EN"
 "http://www.w3.org/Graphics/SVG/1.1/DTD/svg11.dtd">
<!-- Generated by graphviz version 2.43.0 (0)
 -->
<!-- Title: SpatialReactionPlugin.h Pages: 1 -->
<svg width="441pt" height="140pt"
 viewBox="0.00 0.00 441.00 140.00" xmlns="http://www.w3.org/2000/svg" xmlns:xlink="http://www.w3.org/1999/xlink">
<g id="graph0" class="graph" transform="scale(1 1) rotate(0) translate(4 136)">
<title>SpatialReactionPlugin.h</title>
<polygon fill="white" stroke="transparent" points="-4,4 -4,-136 437,-136 437,4 -4,4"/>
<!-- Node1 -->
<g id="node1" class="node">
<title>Node1</title>
<g id="a_node1"><a xlink:title="Definition of the SpatialReactionPlugin class.">
<polygon fill="#bfbfbf" stroke="black" points="146.5,-112.5 146.5,-131.5 278.5,-131.5 278.5,-112.5 146.5,-112.5"/>
<text text-anchor="middle" x="212.5" y="-119.5" font-family="Helvetica,sans-Serif" font-size="10.00">SpatialReactionPlugin.h</text>
</a>
</g>
</g>
<!-- Node2 -->
<g id="node2" class="node">
<title>Node2</title>
<g id="a_node2"><a xlink:href="_spatial_extension_types_8h.html" target="_top" xlink:title="Definition of SpatialExtensionTypes.">
<polygon fill="white" stroke="black" points="0,-56.5 0,-75.5 135,-75.5 135,-56.5 0,-56.5"/>
<text text-anchor="middle" x="67.5" y="-63.5" font-family="Helvetica,sans-Serif" font-size="10.00">SpatialExtensionTypes.h</text>
</a>
</g>
</g>
<!-- Node1&#45;&gt;Node2 -->
<g id="edge1" class="edge">
<title>Node1&#45;&gt;Node2</title>
<path fill="none" stroke="midnightblue" d="M180.02,-108.91C152.76,-98.75 114.51,-84.51 90.37,-75.52"/>
<polygon fill="midnightblue" stroke="midnightblue" points="178.93,-112.23 189.52,-112.44 181.37,-105.67 178.93,-112.23"/>
</g>
<!-- Node4 -->
<g id="node4" class="node">
<title>Node4</title>
<g id="a_node4"><a xlink:href="_spatial_extension_8cpp.html" target="_top" xlink:title="Implementation of SpatialExtension.">
<polygon fill="white" stroke="black" points="153,-56.5 153,-75.5 272,-75.5 272,-56.5 153,-56.5"/>
<text text-anchor="middle" x="212.5" y="-63.5" font-family="Helvetica,sans-Serif" font-size="10.00">SpatialExtension.cpp</text>
</a>
</g>
</g>
<!-- Node1&#45;&gt;Node4 -->
<g id="edge3" class="edge">
<title>Node1&#45;&gt;Node4</title>
<path fill="none" stroke="midnightblue" d="M212.5,-101.8C212.5,-92.91 212.5,-82.78 212.5,-75.75"/>
<polygon fill="midnightblue" stroke="midnightblue" points="209,-102.08 212.5,-112.08 216,-102.08 209,-102.08"/>
</g>
<!-- Node5 -->
<g id="node5" class="node">
<title>Node5</title>
<g id="a_node5"><a xlink:href="_spatial_reaction_plugin_8cpp.html" target="_top" xlink:title="Implementation of the SpatialReactionPlugin class.">
<polygon fill="white" stroke="black" points="290,-56.5 290,-75.5 433,-75.5 433,-56.5 290,-56.5"/>
<text text-anchor="middle" x="361.5" y="-63.5" font-family="Helvetica,sans-Serif" font-size="10.00">SpatialReactionPlugin.cpp</text>
</a>
</g>
</g>
<!-- Node1&#45;&gt;Node5 -->
<g id="edge4" class="edge">
<title>Node1&#45;&gt;Node5</title>
<path fill="none" stroke="midnightblue" d="M245.87,-108.91C273.88,-98.75 313.2,-84.51 338,-75.52"/>
<polygon fill="midnightblue" stroke="midnightblue" points="244.32,-105.75 236.11,-112.44 246.7,-112.33 244.32,-105.75"/>
</g>
<!-- Node3 -->
<g id="node3" class="node">
<title>Node3</title>
<g id="a_node3"><a xlink:href="_spatial_validator_8cpp.html" target="_top" xlink:title="Definition of SpatialValidator.">
<polygon fill="white" stroke="black" points="11,-0.5 11,-19.5 124,-19.5 124,-0.5 11,-0.5"/>
<text text-anchor="middle" x="67.5" y="-7.5" font-family="Helvetica,sans-Serif" font-size="10.00">SpatialValidator.cpp</text>
</a>
</g>
</g>
<!-- Node2&#45;&gt;Node3 -->
<g id="edge2" class="edge">
<title>Node2&#45;&gt;Node3</title>
<path fill="none" stroke="midnightblue" d="M67.5,-45.8C67.5,-36.91 67.5,-26.78 67.5,-19.75"/>
<polygon fill="midnightblue" stroke="midnightblue" points="64,-46.08 67.5,-56.08 71,-46.08 64,-46.08"/>
</g>
</g>
</svg>
