<?xml version="1.0" encoding="UTF-8" standalone="no"?>
<!DOCTYPE svg PUBLIC "-//W3C//DTD SVG 1.1//EN"
 "http://www.w3.org/Graphics/SVG/1.1/DTD/svg11.dtd">
<!-- Generated by graphviz version 2.43.0 (0)
 -->
<!-- Title: SpeciesFeatureValue.h Pages: 1 -->
<svg width="572pt" height="308pt"
 viewBox="0.00 0.00 571.50 308.00" xmlns="http://www.w3.org/2000/svg" xmlns:xlink="http://www.w3.org/1999/xlink">
<g id="graph0" class="graph" transform="scale(1 1) rotate(0) translate(4 304)">
<title>SpeciesFeatureValue.h</title>
<polygon fill="white" stroke="transparent" points="-4,4 -4,-304 567.5,-304 567.5,4 -4,4"/>
<!-- Node1 -->
<g id="node1" class="node">
<title>Node1</title>
<g id="a_node1"><a xlink:title=": Implementation of the SpeciesFeatureValue class">
<polygon fill="#bfbfbf" stroke="black" points="107.5,-280.5 107.5,-299.5 234.5,-299.5 234.5,-280.5 107.5,-280.5"/>
<text text-anchor="middle" x="171" y="-287.5" font-family="Helvetica,sans-Serif" font-size="10.00">SpeciesFeatureValue.h</text>
</a>
</g>
</g>
<!-- Node2 -->
<g id="node2" class="node">
<title>Node2</title>
<g id="a_node2"><a xlink:href="_multi_extension_types_8h.html" target="_top" xlink:title=": Implementation of the MultiExtensionTypes class">
<polygon fill="white" stroke="black" points="0,-56.5 0,-75.5 126,-75.5 126,-56.5 0,-56.5"/>
<text text-anchor="middle" x="63" y="-63.5" font-family="Helvetica,sans-Serif" font-size="10.00">MultiExtensionTypes.h</text>
</a>
</g>
</g>
<!-- Node1&#45;&gt;Node2 -->
<g id="edge1" class="edge">
<title>Node1&#45;&gt;Node2</title>
<path fill="none" stroke="midnightblue" d="M145.93,-275.14C134.06,-267.41 120.63,-256.76 112,-244 73.95,-187.74 65.3,-102.57 63.46,-75.54"/>
<polygon fill="midnightblue" stroke="midnightblue" points="144.25,-278.22 154.6,-280.48 147.91,-272.26 144.25,-278.22"/>
</g>
<!-- Node4 -->
<g id="node4" class="node">
<title>Node4</title>
<g id="a_node4"><a xlink:href="_species_feature_8h.html" target="_top" xlink:title=": Implementation of the SpeciesFeature class">
<polygon fill="white" stroke="black" points="121,-224.5 121,-243.5 221,-243.5 221,-224.5 121,-224.5"/>
<text text-anchor="middle" x="171" y="-231.5" font-family="Helvetica,sans-Serif" font-size="10.00">SpeciesFeature.h</text>
</a>
</g>
</g>
<!-- Node1&#45;&gt;Node4 -->
<g id="edge3" class="edge">
<title>Node1&#45;&gt;Node4</title>
<path fill="none" stroke="midnightblue" d="M171,-269.8C171,-260.91 171,-250.78 171,-243.75"/>
<polygon fill="midnightblue" stroke="midnightblue" points="167.5,-270.08 171,-280.08 174.5,-270.08 167.5,-270.08"/>
</g>
<!-- Node11 -->
<g id="node11" class="node">
<title>Node11</title>
<g id="a_node11"><a xlink:href="_species_feature_value_8cpp.html" target="_top" xlink:title=": Implementation of the SpeciesFeatureValue class">
<polygon fill="white" stroke="black" points="239,-224.5 239,-243.5 377,-243.5 377,-224.5 239,-224.5"/>
<text text-anchor="middle" x="308" y="-231.5" font-family="Helvetica,sans-Serif" font-size="10.00">SpeciesFeatureValue.cpp</text>
</a>
</g>
</g>
<!-- Node1&#45;&gt;Node11 -->
<g id="edge16" class="edge">
<title>Node1&#45;&gt;Node11</title>
<path fill="none" stroke="midnightblue" d="M202.02,-276.77C227.76,-266.63 263.69,-252.47 286.39,-243.52"/>
<polygon fill="midnightblue" stroke="midnightblue" points="200.73,-273.52 192.71,-280.44 203.29,-280.03 200.73,-273.52"/>
</g>
<!-- Node3 -->
<g id="node3" class="node">
<title>Node3</title>
<g id="a_node3"><a xlink:href="_multi_validator_8cpp.html" target="_top" xlink:title=": Implementation of the MultiValidator class">
<polygon fill="white" stroke="black" points="11,-0.5 11,-19.5 115,-19.5 115,-0.5 11,-0.5"/>
<text text-anchor="middle" x="63" y="-7.5" font-family="Helvetica,sans-Serif" font-size="10.00">MultiValidator.cpp</text>
</a>
</g>
</g>
<!-- Node2&#45;&gt;Node3 -->
<g id="edge2" class="edge">
<title>Node2&#45;&gt;Node3</title>
<path fill="none" stroke="midnightblue" d="M63,-45.8C63,-36.91 63,-26.78 63,-19.75"/>
<polygon fill="midnightblue" stroke="midnightblue" points="59.5,-46.08 63,-56.08 66.5,-46.08 59.5,-46.08"/>
</g>
<!-- Node4&#45;&gt;Node2 -->
<g id="edge4" class="edge">
<title>Node4&#45;&gt;Node2</title>
<path fill="none" stroke="midnightblue" d="M155.75,-216.96C148.19,-208.64 139.17,-198.12 132,-188 103.75,-148.15 77.12,-95.85 67.14,-75.56"/>
<polygon fill="midnightblue" stroke="midnightblue" points="153.33,-219.5 162.7,-224.45 158.46,-214.74 153.33,-219.5"/>
</g>
<!-- Node5 -->
<g id="node5" class="node">
<title>Node5</title>
<g id="a_node5"><a xlink:href="_multi_species_plugin_8h.html" target="_top" xlink:title=": Implementation of the MultiSpeciesPlugin class">
<polygon fill="white" stroke="black" points="135,-112.5 135,-131.5 253,-131.5 253,-112.5 135,-112.5"/>
<text text-anchor="middle" x="194" y="-119.5" font-family="Helvetica,sans-Serif" font-size="10.00">MultiSpeciesPlugin.h</text>
</a>
</g>
</g>
<!-- Node4&#45;&gt;Node5 -->
<g id="edge5" class="edge">
<title>Node4&#45;&gt;Node5</title>
<path fill="none" stroke="midnightblue" d="M153.87,-216.92C142.1,-203.82 129.94,-184.82 138,-168 145.92,-151.47 163.21,-139.08 176.5,-131.54"/>
<polygon fill="midnightblue" stroke="midnightblue" points="151.49,-219.49 160.96,-224.23 156.52,-214.62 151.49,-219.49"/>
</g>
<!-- Node8 -->
<g id="node8" class="node">
<title>Node8</title>
<g id="a_node8"><a xlink:href="_species_feature_8cpp.html" target="_top" xlink:title=": Implementation of the SpeciesFeature class">
<polygon fill="white" stroke="black" points="271.5,-112.5 271.5,-131.5 382.5,-131.5 382.5,-112.5 271.5,-112.5"/>
<text text-anchor="middle" x="327" y="-119.5" font-family="Helvetica,sans-Serif" font-size="10.00">SpeciesFeature.cpp</text>
</a>
</g>
</g>
<!-- Node4&#45;&gt;Node8 -->
<g id="edge9" class="edge">
<title>Node4&#45;&gt;Node8</title>
<path fill="none" stroke="midnightblue" d="M219.99,-222.02C254.06,-213.46 295.52,-200.9 308,-188 323.04,-172.45 326.28,-145.68 326.91,-131.84"/>
<polygon fill="midnightblue" stroke="midnightblue" points="219.03,-218.65 210.15,-224.43 220.7,-225.45 219.03,-218.65"/>
</g>
<!-- Node9 -->
<g id="node9" class="node">
<title>Node9</title>
<g id="a_node9"><a xlink:href="_sub_list_of_species_features_8cpp.html" target="_top" xlink:title=": Implementation of the SubListOfSpeciesFeatures class">
<polygon fill="white" stroke="black" points="400.5,-112.5 400.5,-131.5 563.5,-131.5 563.5,-112.5 400.5,-112.5"/>
<text text-anchor="middle" x="482" y="-119.5" font-family="Helvetica,sans-Serif" font-size="10.00">SubListOfSpeciesFeatures.cpp</text>
</a>
</g>
</g>
<!-- Node4&#45;&gt;Node9 -->
<g id="edge10" class="edge">
<title>Node4&#45;&gt;Node9</title>
<path fill="none" stroke="midnightblue" d="M215.22,-221.85C246.93,-213.49 290.48,-201.24 328,-188 378.08,-170.33 435.26,-144.71 463.79,-131.53"/>
<polygon fill="midnightblue" stroke="midnightblue" points="214.16,-218.51 205.37,-224.42 215.93,-225.28 214.16,-218.51"/>
</g>
<!-- Node10 -->
<g id="node10" class="node">
<title>Node10</title>
<g id="a_node10"><a xlink:href="_sub_list_of_species_features_8h.html" target="_top" xlink:title=": Implementation of the SubListOfSpeciesFeatures class">
<polygon fill="white" stroke="black" points="147,-168.5 147,-187.5 299,-187.5 299,-168.5 147,-168.5"/>
<text text-anchor="middle" x="223" y="-175.5" font-family="Helvetica,sans-Serif" font-size="10.00">SubListOfSpeciesFeatures.h</text>
</a>
</g>
</g>
<!-- Node4&#45;&gt;Node10 -->
<g id="edge11" class="edge">
<title>Node4&#45;&gt;Node10</title>
<path fill="none" stroke="midnightblue" d="M186.68,-216.72C195.84,-207.2 207.05,-195.56 214.57,-187.75"/>
<polygon fill="midnightblue" stroke="midnightblue" points="184,-214.45 179.59,-224.08 189.04,-219.31 184,-214.45"/>
</g>
<!-- Node5&#45;&gt;Node2 -->
<g id="edge6" class="edge">
<title>Node5&#45;&gt;Node2</title>
<path fill="none" stroke="midnightblue" d="M163.68,-108.5C139.12,-98.38 105.18,-84.39 83.66,-75.52"/>
<polygon fill="midnightblue" stroke="midnightblue" points="162.66,-111.87 173.24,-112.44 165.33,-105.4 162.66,-111.87"/>
</g>
<!-- Node6 -->
<g id="node6" class="node">
<title>Node6</title>
<g id="a_node6"><a xlink:href="_multi_extension_8cpp.html" target="_top" xlink:title=": Implementation of the MultiExtension class">
<polygon fill="white" stroke="black" points="144,-56.5 144,-75.5 254,-75.5 254,-56.5 144,-56.5"/>
<text text-anchor="middle" x="199" y="-63.5" font-family="Helvetica,sans-Serif" font-size="10.00">MultiExtension.cpp</text>
</a>
</g>
</g>
<!-- Node5&#45;&gt;Node6 -->
<g id="edge7" class="edge">
<title>Node5&#45;&gt;Node6</title>
<path fill="none" stroke="midnightblue" d="M195.75,-102.1C196.58,-93.14 197.53,-82.86 198.19,-75.75"/>
<polygon fill="midnightblue" stroke="midnightblue" points="192.26,-101.8 194.83,-112.08 199.23,-102.45 192.26,-101.8"/>
</g>
<!-- Node7 -->
<g id="node7" class="node">
<title>Node7</title>
<g id="a_node7"><a xlink:href="_multi_species_plugin_8cpp.html" target="_top" xlink:title=": Implementation of the MultiSpeciesPlugin class">
<polygon fill="white" stroke="black" points="272.5,-56.5 272.5,-75.5 401.5,-75.5 401.5,-56.5 272.5,-56.5"/>
<text text-anchor="middle" x="337" y="-63.5" font-family="Helvetica,sans-Serif" font-size="10.00">MultiSpeciesPlugin.cpp</text>
</a>
</g>
</g>
<!-- Node5&#45;&gt;Node7 -->
<g id="edge8" class="edge">
<title>Node5&#45;&gt;Node7</title>
<path fill="none" stroke="midnightblue" d="M226.03,-108.91C252.91,-98.75 290.64,-84.51 314.45,-75.52"/>
<polygon fill="midnightblue" stroke="midnightblue" points="224.78,-105.64 216.66,-112.44 227.25,-112.19 224.78,-105.64"/>
</g>
<!-- Node10&#45;&gt;Node2 -->
<g id="edge12" class="edge">
<title>Node10&#45;&gt;Node2</title>
<path fill="none" stroke="midnightblue" d="M188.78,-164.72C169.42,-156.92 145.29,-145.7 126,-132 102.43,-115.25 80.19,-89 69.55,-75.56"/>
<polygon fill="midnightblue" stroke="midnightblue" points="187.56,-168 198.15,-168.38 190.11,-161.48 187.56,-168"/>
</g>
<!-- Node10&#45;&gt;Node5 -->
<g id="edge13" class="edge">
<title>Node10&#45;&gt;Node5</title>
<path fill="none" stroke="midnightblue" d="M213.32,-158.98C208.4,-149.82 202.64,-139.09 198.7,-131.75"/>
<polygon fill="midnightblue" stroke="midnightblue" points="210.4,-160.93 218.21,-168.08 216.56,-157.62 210.4,-160.93"/>
</g>
<!-- Node10&#45;&gt;Node8 -->
<g id="edge14" class="edge">
<title>Node10&#45;&gt;Node8</title>
<path fill="none" stroke="midnightblue" d="M248.83,-163.59C268.06,-153.61 293.74,-140.27 310.33,-131.65"/>
<polygon fill="midnightblue" stroke="midnightblue" points="246.97,-160.61 239.71,-168.32 250.2,-166.82 246.97,-160.61"/>
</g>
<!-- Node10&#45;&gt;Node9 -->
<g id="edge15" class="edge">
<title>Node10&#45;&gt;Node9</title>
<path fill="none" stroke="midnightblue" d="M274.1,-166.35C323.05,-156.14 395.95,-140.94 441.15,-131.52"/>
<polygon fill="midnightblue" stroke="midnightblue" points="273.11,-162.98 264.04,-168.44 274.54,-169.83 273.11,-162.98"/>
</g>
</g>
</svg>
