<?xml version="1.0" encoding="UTF-8" standalone="no"?>
<!DOCTYPE svg PUBLIC "-//W3C//DTD SVG 1.1//EN"
 "http://www.w3.org/Graphics/SVG/1.1/DTD/svg11.dtd">
<!-- Generated by graphviz version 2.43.0 (0)
 -->
<!-- Title: SpeciesReferenceGlyph.h Pages: 1 -->
<!--zoomable 308 -->
<svg id="main" version="1.1" xmlns="http://www.w3.org/2000/svg" xmlns:xlink="http://www.w3.org/1999/xlink" xml:space="preserve" onload="init(evt)">
<style type="text/css"><![CDATA[
.edge:hover path { stroke: red; }
.edge:hover polygon { stroke: red; fill: red; }
]]></style>
<script type="text/javascript"><![CDATA[
var edges = document.getElementsByTagName('g');
if (edges && edges.length) {
  for (var i=0;i<edges.length;i++) {
    if (edges[i].id.substr(0,4)=='edge') {
      edges[i].setAttribute('class','edge');
    }
  }
}
]]></script>
        <defs>
                <circle id="rim" cx="0" cy="0" r="7"/>
                <circle id="rim2" cx="0" cy="0" r="3.5"/>
                <g id="zoomPlus">
                        <use xlink:href="#rim" fill="#404040">
                                <set attributeName="fill" to="#808080" begin="zoomplus.mouseover" end="zoomplus.mouseout"/>
                        </use>
                        <path d="M-4,0h8M0,-4v8" fill="none" stroke="white" stroke-width="1.5" pointer-events="none"/>
                </g>
                <g id="zoomMin">
                        <use xlink:href="#rim" fill="#404040">
                                <set attributeName="fill" to="#808080" begin="zoomminus.mouseover" end="zoomminus.mouseout"/>
                        </use>
                        <path d="M-4,0h8" fill="none" stroke="white" stroke-width="1.5" pointer-events="none"/>
                </g>
                <g id="dirArrow">
                        <path fill="none" stroke="white" stroke-width="1.5" d="M0,-3.0v7 M-2.5,-0.5L0,-3.0L2.5,-0.5"/>
                </g>
               <g id="resetDef">
                       <use xlink:href="#rim2" fill="#404040">
                               <set attributeName="fill" to="#808080" begin="reset.mouseover" end="reset.mouseout"/>
                       </use>
               </g>
        </defs>

<script type="text/javascript">
var viewWidth = 3326;
var viewHeight = 308;
var sectionId = 'dynsection-1';
</script>
<script xlink:href="svgpan.js"/>
<svg id="graph" class="graph">
<g id="viewport">
<title>SpeciesReferenceGlyph.h</title>
<polygon fill="white" stroke="transparent" points="-4,4 -4,-304 3321.5,-304 3321.5,4 -4,4"/>
<!-- Node1 -->
<g id="node1" class="node">
<title>Node1</title>
<g id="a_node1"><a xlink:title="Definition of SpeciesReferenceGlyph for SBML Layout.">
<polygon fill="#bfbfbf" stroke="black" points="2801,-280.5 2801,-299.5 2942,-299.5 2942,-280.5 2801,-280.5"/>
<text text-anchor="middle" x="2871.5" y="-287.5" font-family="Helvetica,sans-Serif" font-size="10.00">SpeciesReferenceGlyph.h</text>
</a>
</g>
</g>
<!-- Node2 -->
<g id="node2" class="node">
<title>Node2</title>
<g id="a_node2"><a xlink:href="_layout_extension_types_8h.html" target="_top" xlink:title="Include all SBML types of layout extension in a single header file.">
<polygon fill="white" stroke="black" points="2868.5,-56.5 2868.5,-75.5 3002.5,-75.5 3002.5,-56.5 2868.5,-56.5"/>
<text text-anchor="middle" x="2935.5" y="-63.5" font-family="Helvetica,sans-Serif" font-size="10.00">LayoutExtensionTypes.h</text>
</a>
</g>
</g>
<!-- Node1&#45;&gt;Node2 -->
<g id="edge1" class="edge">
<title>Node1&#45;&gt;Node2</title>
<path fill="none" stroke="midnightblue" d="M2898.32,-275.8C2940.47,-253.24 3020.12,-202.76 3046.5,-132 3057.97,-101.24 3019.67,-84.37 2984.97,-75.59"/>
<polygon fill="midnightblue" stroke="midnightblue" points="2896.69,-272.7 2889.44,-280.44 2899.93,-278.91 2896.69,-272.7"/>
</g>
<!-- Node8 -->
<g id="node8" class="node">
<title>Node8</title>
<g id="a_node8"><a xlink:href="_layout_8h.html" target="_top" xlink:title="Definition of Layout for SBML Layout.">
<polygon fill="white" stroke="black" points="2441,-168.5 2441,-187.5 2500,-187.5 2500,-168.5 2441,-168.5"/>
<text text-anchor="middle" x="2470.5" y="-175.5" font-family="Helvetica,sans-Serif" font-size="10.00">Layout.h</text>
</a>
</g>
</g>
<!-- Node1&#45;&gt;Node8 -->
<g id="edge7" class="edge">
<title>Node1&#45;&gt;Node8</title>
<path fill="none" stroke="midnightblue" d="M2830.54,-277.76C2749.63,-255.57 2571.04,-206.58 2500.25,-187.16"/>
<polygon fill="midnightblue" stroke="midnightblue" points="2829.8,-281.19 2840.37,-280.46 2831.65,-274.44 2829.8,-281.19"/>
</g>
<!-- Node19 -->
<g id="node19" class="node">
<title>Node19</title>
<g id="a_node19"><a xlink:href="_reaction_glyph_8cpp.html" target="_top" xlink:title="Implementation of ReactionGlyph for SBML Layout.">
<polygon fill="white" stroke="black" points="2929.5,-112.5 2929.5,-131.5 3037.5,-131.5 3037.5,-112.5 2929.5,-112.5"/>
<text text-anchor="middle" x="2983.5" y="-119.5" font-family="Helvetica,sans-Serif" font-size="10.00">ReactionGlyph.cpp</text>
</a>
</g>
</g>
<!-- Node1&#45;&gt;Node19 -->
<g id="edge50" class="edge">
<title>Node1&#45;&gt;Node19</title>
<path fill="none" stroke="midnightblue" d="M2894.9,-274.8C2906.47,-266.87 2919.97,-256.14 2929.5,-244 2958.33,-207.26 2975.39,-152.7 2981.22,-131.69"/>
<polygon fill="midnightblue" stroke="midnightblue" points="2892.96,-271.89 2886.52,-280.3 2896.8,-277.74 2892.96,-271.89"/>
</g>
<!-- Node21 -->
<g id="node21" class="node">
<title>Node21</title>
<g id="a_node21"><a xlink:href="_species_reference_glyph_8cpp.html" target="_top" xlink:title="Implementation of SpeciesReferenceGlyph for SBML Layout.">
<polygon fill="white" stroke="black" points="1150.5,-112.5 1150.5,-131.5 1302.5,-131.5 1302.5,-112.5 1150.5,-112.5"/>
<text text-anchor="middle" x="1226.5" y="-119.5" font-family="Helvetica,sans-Serif" font-size="10.00">SpeciesReferenceGlyph.cpp</text>
</a>
</g>
</g>
<!-- Node1&#45;&gt;Node21 -->
<g id="edge56" class="edge">
<title>Node1&#45;&gt;Node21</title>
<path fill="none" stroke="midnightblue" d="M2790.75,-281.02C2559.98,-258.19 1877.77,-190.47 1311.5,-132 1308.7,-131.71 1305.84,-131.41 1302.95,-131.11"/>
<polygon fill="midnightblue" stroke="midnightblue" points="2790.45,-284.51 2800.74,-282.01 2791.13,-277.54 2790.45,-284.51"/>
</g>
<!-- Node43 -->
<g id="node43" class="node">
<title>Node43</title>
<g id="a_node43"><a xlink:href="_reaction_glyph_8h.html" target="_top" xlink:title="Definition of ReactionGlyph for SBML Layout.">
<polygon fill="white" stroke="black" points="2823,-224.5 2823,-243.5 2920,-243.5 2920,-224.5 2823,-224.5"/>
<text text-anchor="middle" x="2871.5" y="-231.5" font-family="Helvetica,sans-Serif" font-size="10.00">ReactionGlyph.h</text>
</a>
</g>
</g>
<!-- Node1&#45;&gt;Node43 -->
<g id="edge51" class="edge">
<title>Node1&#45;&gt;Node43</title>
<path fill="none" stroke="midnightblue" d="M2871.5,-269.8C2871.5,-260.91 2871.5,-250.78 2871.5,-243.75"/>
<polygon fill="midnightblue" stroke="midnightblue" points="2868,-270.08 2871.5,-280.08 2875,-270.08 2868,-270.08"/>
</g>
<!-- Node3 -->
<g id="node3" class="node">
<title>Node3</title>
<g id="a_node3"><a xlink:href="_graphical_object_8cpp.html" target="_top" xlink:title="Implementation of GraphicalObject for SBML Layout.">
<polygon fill="white" stroke="black" points="2587,-0.5 2587,-19.5 2702,-19.5 2702,-0.5 2587,-0.5"/>
<text text-anchor="middle" x="2644.5" y="-7.5" font-family="Helvetica,sans-Serif" font-size="10.00">GraphicalObject.cpp</text>
</a>
</g>
</g>
<!-- Node2&#45;&gt;Node3 -->
<g id="edge2" class="edge">
<title>Node2&#45;&gt;Node3</title>
<path fill="none" stroke="midnightblue" d="M2879.46,-54.6C2824.46,-44.4 2741.6,-29.02 2690.39,-19.52"/>
<polygon fill="midnightblue" stroke="midnightblue" points="2878.92,-58.06 2889.39,-56.44 2880.2,-51.18 2878.92,-58.06"/>
</g>
<!-- Node4 -->
<g id="node4" class="node">
<title>Node4</title>
<g id="a_node4"><a xlink:href="_layout_validator_8cpp.html" target="_top" xlink:title="Implementation of the LayoutValidator class.">
<polygon fill="white" stroke="black" points="2720,-0.5 2720,-19.5 2833,-19.5 2833,-0.5 2720,-0.5"/>
<text text-anchor="middle" x="2776.5" y="-7.5" font-family="Helvetica,sans-Serif" font-size="10.00">LayoutValidator.cpp</text>
</a>
</g>
</g>
<!-- Node2&#45;&gt;Node4 -->
<g id="edge3" class="edge">
<title>Node2&#45;&gt;Node4</title>
<path fill="none" stroke="midnightblue" d="M2900.67,-53.17C2870.73,-43 2828.28,-28.59 2801.58,-19.52"/>
<polygon fill="midnightblue" stroke="midnightblue" points="2899.71,-56.54 2910.31,-56.44 2901.96,-49.91 2899.71,-56.54"/>
</g>
<!-- Node5 -->
<g id="node5" class="node">
<title>Node5</title>
<g id="a_node5"><a xlink:href="_render_list_of_layouts_plugin_8cpp.html" target="_top" xlink:title="Implementation of RenderListOfLayoutsPlugin, the plugin class of the fbc package for the Model elemen...">
<polygon fill="white" stroke="black" points="2851.5,-0.5 2851.5,-19.5 3019.5,-19.5 3019.5,-0.5 2851.5,-0.5"/>
<text text-anchor="middle" x="2935.5" y="-7.5" font-family="Helvetica,sans-Serif" font-size="10.00">RenderListOfLayoutsPlugin.cpp</text>
</a>
</g>
</g>
<!-- Node2&#45;&gt;Node5 -->
<g id="edge4" class="edge">
<title>Node2&#45;&gt;Node5</title>
<path fill="none" stroke="midnightblue" d="M2935.5,-45.8C2935.5,-36.91 2935.5,-26.78 2935.5,-19.75"/>
<polygon fill="midnightblue" stroke="midnightblue" points="2932,-46.08 2935.5,-56.08 2939,-46.08 2932,-46.08"/>
</g>
<!-- Node6 -->
<g id="node6" class="node">
<title>Node6</title>
<g id="a_node6"><a xlink:href="_render_layout_converter_8cpp.html" target="_top" xlink:title="Simple converter to convert Layout + Render from l2 to L3 and vice versa.">
<polygon fill="white" stroke="black" points="3037.5,-0.5 3037.5,-19.5 3189.5,-19.5 3189.5,-0.5 3037.5,-0.5"/>
<text text-anchor="middle" x="3113.5" y="-7.5" font-family="Helvetica,sans-Serif" font-size="10.00">RenderLayoutConverter.cpp</text>
</a>
</g>
</g>
<!-- Node2&#45;&gt;Node6 -->
<g id="edge5" class="edge">
<title>Node2&#45;&gt;Node6</title>
<path fill="none" stroke="midnightblue" d="M2973.62,-53.44C3007.18,-43.26 3055.27,-28.66 3085.43,-19.52"/>
<polygon fill="midnightblue" stroke="midnightblue" points="2972.26,-50.19 2963.7,-56.44 2974.29,-56.89 2972.26,-50.19"/>
</g>
<!-- Node7 -->
<g id="node7" class="node">
<title>Node7</title>
<g id="a_node7"><a xlink:href="_render_utilities_8cpp.html" target="_top" xlink:title="implementation of RenderUtilities, a class of utility functions for the render package">
<polygon fill="white" stroke="black" points="3207.5,-0.5 3207.5,-19.5 3317.5,-19.5 3317.5,-0.5 3207.5,-0.5"/>
<text text-anchor="middle" x="3262.5" y="-7.5" font-family="Helvetica,sans-Serif" font-size="10.00">RenderUtilities.cpp</text>
</a>
</g>
</g>
<!-- Node2&#45;&gt;Node7 -->
<g id="edge6" class="edge">
<title>Node2&#45;&gt;Node7</title>
<path fill="none" stroke="midnightblue" d="M2997.32,-54.79C3059.11,-44.59 3153.03,-29.08 3210.93,-19.52"/>
<polygon fill="midnightblue" stroke="midnightblue" points="2996.61,-51.36 2987.31,-56.44 2997.75,-58.27 2996.61,-51.36"/>
</g>
<!-- Node8&#45;&gt;Node2 -->
<g id="edge8" class="edge">
<title>Node8&#45;&gt;Node2</title>
<path fill="none" stroke="midnightblue" d="M2510.52,-173.68C2561.04,-168.63 2650.09,-156.85 2722.5,-132 2740.55,-125.8 2742.69,-118.87 2760.5,-112 2803.53,-95.41 2854.84,-83.03 2890.74,-75.5"/>
<polygon fill="midnightblue" stroke="midnightblue" points="2509.96,-170.22 2500.34,-174.66 2510.63,-177.19 2509.96,-170.22"/>
</g>
<!-- Node9 -->
<g id="node9" class="node">
<title>Node9</title>
<g id="a_node9"><a xlink:href="_layout_model_plugin_8h.html" target="_top" xlink:title="Definition of LayoutModelPlugin, the plugin class of layout package for Model element.">
<polygon fill="white" stroke="black" points="2594,-112.5 2594,-131.5 2713,-131.5 2713,-112.5 2594,-112.5"/>
<text text-anchor="middle" x="2653.5" y="-119.5" font-family="Helvetica,sans-Serif" font-size="10.00">LayoutModelPlugin.h</text>
</a>
</g>
</g>
<!-- Node8&#45;&gt;Node9 -->
<g id="edge9" class="edge">
<title>Node8&#45;&gt;Node9</title>
<path fill="none" stroke="midnightblue" d="M2509.24,-165.57C2543.76,-155.38 2593.51,-140.7 2624.64,-131.52"/>
<polygon fill="midnightblue" stroke="midnightblue" points="2508.1,-162.26 2499.5,-168.44 2510.08,-168.97 2508.1,-162.26"/>
</g>
<!-- Node12 -->
<g id="node12" class="node">
<title>Node12</title>
<g id="a_node12"><a xlink:href="_layout_annotation_8cpp.html" target="_top" xlink:title="Layout annotation I/O.">
<polygon fill="white" stroke="black" points="2453,-56.5 2453,-75.5 2576,-75.5 2576,-56.5 2453,-56.5"/>
<text text-anchor="middle" x="2514.5" y="-63.5" font-family="Helvetica,sans-Serif" font-size="10.00">LayoutAnnotation.cpp</text>
</a>
</g>
</g>
<!-- Node8&#45;&gt;Node12 -->
<g id="edge26" class="edge">
<title>Node8&#45;&gt;Node12</title>
<path fill="none" stroke="midnightblue" d="M2508.02,-164.23C2522.73,-157.16 2538.09,-146.75 2546.5,-132 2557.71,-112.33 2537.34,-88.19 2524.25,-75.58"/>
<polygon fill="midnightblue" stroke="midnightblue" points="2506.26,-161.17 2498.52,-168.4 2509.08,-167.58 2506.26,-161.17"/>
</g>
<!-- Node14 -->
<g id="node14" class="node">
<title>Node14</title>
<g id="a_node14"><a xlink:href="_layout_species_reference_plugin_8h.html" target="_top" xlink:title="Definition of LayoutSpeciesReferencePlugin, the plugin class of layout package (Level2) for the Speci...">
<polygon fill="white" stroke="black" points="1743.5,-112.5 1743.5,-131.5 1919.5,-131.5 1919.5,-112.5 1743.5,-112.5"/>
<text text-anchor="middle" x="1831.5" y="-119.5" font-family="Helvetica,sans-Serif" font-size="10.00">LayoutSpeciesReferencePlugin.h</text>
</a>
</g>
</g>
<!-- Node8&#45;&gt;Node14 -->
<g id="edge15" class="edge">
<title>Node8&#45;&gt;Node14</title>
<path fill="none" stroke="midnightblue" d="M2430.83,-173.84C2341.25,-166.67 2116.46,-148.52 1928.5,-132 1925.55,-131.74 1922.55,-131.48 1919.53,-131.2"/>
<polygon fill="midnightblue" stroke="midnightblue" points="2430.57,-177.33 2440.82,-174.64 2431.13,-170.35 2430.57,-177.33"/>
</g>
<!-- Node16 -->
<g id="node16" class="node">
<title>Node16</title>
<g id="a_node16"><a xlink:href="_compartment_glyph_8cpp.html" target="_top" xlink:title="Implementation of CompartmentGlyph for SBML Layout.">
<polygon fill="white" stroke="black" points="1938,-112.5 1938,-131.5 2071,-131.5 2071,-112.5 1938,-112.5"/>
<text text-anchor="middle" x="2004.5" y="-119.5" font-family="Helvetica,sans-Serif" font-size="10.00">CompartmentGlyph.cpp</text>
</a>
</g>
</g>
<!-- Node8&#45;&gt;Node16 -->
<g id="edge19" class="edge">
<title>Node8&#45;&gt;Node16</title>
<path fill="none" stroke="midnightblue" d="M2430.42,-172.42C2359.74,-164.32 2208.32,-146.94 2080.5,-132 2077.46,-131.65 2074.36,-131.28 2071.23,-130.91"/>
<polygon fill="midnightblue" stroke="midnightblue" points="2430.32,-175.93 2440.65,-173.59 2431.11,-168.97 2430.32,-175.93"/>
</g>
<!-- Node17 -->
<g id="node17" class="node">
<title>Node17</title>
<g id="a_node17"><a xlink:href="_general_glyph_8cpp.html" target="_top" xlink:title="Implementation of GeneralGlyph for SBML Layout.">
<polygon fill="white" stroke="black" points="2769.5,-112.5 2769.5,-131.5 2873.5,-131.5 2873.5,-112.5 2769.5,-112.5"/>
<text text-anchor="middle" x="2821.5" y="-119.5" font-family="Helvetica,sans-Serif" font-size="10.00">GeneralGlyph.cpp</text>
</a>
</g>
</g>
<!-- Node8&#45;&gt;Node17 -->
<g id="edge20" class="edge">
<title>Node8&#45;&gt;Node17</title>
<path fill="none" stroke="midnightblue" d="M2510.16,-170.9C2573.78,-161.11 2698.65,-141.9 2769.39,-131.02"/>
<polygon fill="midnightblue" stroke="midnightblue" points="2509.48,-167.46 2500.12,-172.44 2510.54,-174.38 2509.48,-167.46"/>
</g>
<!-- Node18 -->
<g id="node18" class="node">
<title>Node18</title>
<g id="a_node18"><a xlink:href="_layout_8cpp.html" target="_top" xlink:title="Implementation of Layout for SBML Layout.">
<polygon fill="white" stroke="black" points="2089.5,-112.5 2089.5,-131.5 2159.5,-131.5 2159.5,-112.5 2089.5,-112.5"/>
<text text-anchor="middle" x="2124.5" y="-119.5" font-family="Helvetica,sans-Serif" font-size="10.00">Layout.cpp</text>
</a>
</g>
</g>
<!-- Node8&#45;&gt;Node18 -->
<g id="edge21" class="edge">
<title>Node8&#45;&gt;Node18</title>
<path fill="none" stroke="midnightblue" d="M2430.66,-171.76C2372.78,-163.99 2262.12,-148.54 2168.5,-132 2165.58,-131.48 2162.56,-130.92 2159.53,-130.34"/>
<polygon fill="midnightblue" stroke="midnightblue" points="2430.46,-175.26 2440.84,-173.12 2431.39,-168.33 2430.46,-175.26"/>
</g>
<!-- Node8&#45;&gt;Node19 -->
<g id="edge22" class="edge">
<title>Node8&#45;&gt;Node19</title>
<path fill="none" stroke="midnightblue" d="M2510.51,-172.79C2601.83,-163.18 2825.72,-139.61 2929.3,-128.7"/>
<polygon fill="midnightblue" stroke="midnightblue" points="2509.88,-169.34 2500.3,-173.86 2510.61,-176.3 2509.88,-169.34"/>
</g>
<!-- Node20 -->
<g id="node20" class="node">
<title>Node20</title>
<g id="a_node20"><a xlink:href="_species_glyph_8cpp.html" target="_top" xlink:title="Implementation of SpeciesGlyph for SBML Layout.">
<polygon fill="white" stroke="black" points="2178,-112.5 2178,-131.5 2281,-131.5 2281,-112.5 2178,-112.5"/>
<text text-anchor="middle" x="2229.5" y="-119.5" font-family="Helvetica,sans-Serif" font-size="10.00">SpeciesGlyph.cpp</text>
</a>
</g>
</g>
<!-- Node8&#45;&gt;Node20 -->
<g id="edge23" class="edge">
<title>Node8&#45;&gt;Node20</title>
<path fill="none" stroke="midnightblue" d="M2430.92,-168.13C2385.71,-158 2312.24,-141.54 2267.64,-131.55"/>
<polygon fill="midnightblue" stroke="midnightblue" points="2430.43,-171.61 2440.95,-170.38 2431.96,-164.78 2430.43,-171.61"/>
</g>
<!-- Node8&#45;&gt;Node21 -->
<g id="edge24" class="edge">
<title>Node8&#45;&gt;Node21</title>
<path fill="none" stroke="midnightblue" d="M2430.5,-176.41C2282.15,-174.03 1749.43,-163.65 1311.5,-132 1308.69,-131.8 1305.82,-131.57 1302.93,-131.34"/>
<polygon fill="midnightblue" stroke="midnightblue" points="2430.85,-179.92 2440.91,-176.58 2430.96,-172.92 2430.85,-179.92"/>
</g>
<!-- Node22 -->
<g id="node22" class="node">
<title>Node22</title>
<g id="a_node22"><a xlink:href="_text_glyph_8cpp.html" target="_top" xlink:title="Implementation of TextGlyph for SBML Layout.">
<polygon fill="white" stroke="black" points="2299.5,-112.5 2299.5,-131.5 2385.5,-131.5 2385.5,-112.5 2299.5,-112.5"/>
<text text-anchor="middle" x="2342.5" y="-119.5" font-family="Helvetica,sans-Serif" font-size="10.00">TextGlyph.cpp</text>
</a>
</g>
</g>
<!-- Node8&#45;&gt;Node22 -->
<g id="edge25" class="edge">
<title>Node8&#45;&gt;Node22</title>
<path fill="none" stroke="midnightblue" d="M2440.88,-164.5C2416.88,-154.38 2383.72,-140.39 2362.69,-131.52"/>
<polygon fill="midnightblue" stroke="midnightblue" points="2439.64,-167.78 2450.22,-168.44 2442.36,-161.33 2439.64,-167.78"/>
</g>
<!-- Node23 -->
<g id="node23" class="node">
<title>Node23</title>
<g id="a_node23"><a xlink:href="_layout_annotation_8h.html" target="_top" xlink:title="Layout annotation I/O.">
<polygon fill="white" stroke="black" points="1320.5,-112.5 1320.5,-131.5 1432.5,-131.5 1432.5,-112.5 1320.5,-112.5"/>
<text text-anchor="middle" x="1376.5" y="-119.5" font-family="Helvetica,sans-Serif" font-size="10.00">LayoutAnnotation.h</text>
</a>
</g>
</g>
<!-- Node8&#45;&gt;Node23 -->
<g id="edge27" class="edge">
<title>Node8&#45;&gt;Node23</title>
<path fill="none" stroke="midnightblue" d="M2430.71,-175.04C2264.68,-166.84 1626.75,-135.35 1432.78,-125.78"/>
<polygon fill="midnightblue" stroke="midnightblue" points="2430.79,-178.54 2440.96,-175.54 2431.14,-171.55 2430.79,-178.54"/>
</g>
<!-- Node42 -->
<g id="node42" class="node">
<title>Node42</title>
<g id="a_node42"><a xlink:href="_render_layout_plugin_8cpp.html" target="_top" xlink:title="Implementation of RenderLayoutPlugin, the plugin class of the fbc package for the Model element.">
<polygon fill="white" stroke="black" points="2403.5,-112.5 2403.5,-131.5 2537.5,-131.5 2537.5,-112.5 2403.5,-112.5"/>
<text text-anchor="middle" x="2470.5" y="-119.5" font-family="Helvetica,sans-Serif" font-size="10.00">RenderLayoutPlugin.cpp</text>
</a>
</g>
</g>
<!-- Node8&#45;&gt;Node42 -->
<g id="edge49" class="edge">
<title>Node8&#45;&gt;Node42</title>
<path fill="none" stroke="midnightblue" d="M2470.5,-157.8C2470.5,-148.91 2470.5,-138.78 2470.5,-131.75"/>
<polygon fill="midnightblue" stroke="midnightblue" points="2467,-158.08 2470.5,-168.08 2474,-158.08 2467,-158.08"/>
</g>
<!-- Node9&#45;&gt;Node2 -->
<g id="edge10" class="edge">
<title>Node9&#45;&gt;Node2</title>
<path fill="none" stroke="midnightblue" d="M2708.14,-110.54C2761.44,-100.33 2841.5,-85 2891.03,-75.52"/>
<polygon fill="midnightblue" stroke="midnightblue" points="2707.35,-107.13 2698.18,-112.44 2708.66,-114 2707.35,-107.13"/>
</g>
<!-- Node10 -->
<g id="node10" class="node">
<title>Node10</title>
<g id="a_node10"><a xlink:href="_layout_extension_8cpp.html" target="_top" xlink:title="Implementation of LayoutExtension, the core module of layout package.">
<polygon fill="white" stroke="black" points="2594.5,-56.5 2594.5,-75.5 2712.5,-75.5 2712.5,-56.5 2594.5,-56.5"/>
<text text-anchor="middle" x="2653.5" y="-63.5" font-family="Helvetica,sans-Serif" font-size="10.00">LayoutExtension.cpp</text>
</a>
</g>
</g>
<!-- Node9&#45;&gt;Node10 -->
<g id="edge11" class="edge">
<title>Node9&#45;&gt;Node10</title>
<path fill="none" stroke="midnightblue" d="M2653.5,-101.8C2653.5,-92.91 2653.5,-82.78 2653.5,-75.75"/>
<polygon fill="midnightblue" stroke="midnightblue" points="2650,-102.08 2653.5,-112.08 2657,-102.08 2650,-102.08"/>
</g>
<!-- Node11 -->
<g id="node11" class="node">
<title>Node11</title>
<g id="a_node11"><a xlink:href="_layout_model_plugin_8cpp.html" target="_top" xlink:title="Implementation of LayoutModelPlugin, the plugin class of layout package for the Model element.">
<polygon fill="white" stroke="black" points="2304.5,-56.5 2304.5,-75.5 2434.5,-75.5 2434.5,-56.5 2304.5,-56.5"/>
<text text-anchor="middle" x="2369.5" y="-63.5" font-family="Helvetica,sans-Serif" font-size="10.00">LayoutModelPlugin.cpp</text>
</a>
</g>
</g>
<!-- Node9&#45;&gt;Node11 -->
<g id="edge12" class="edge">
<title>Node9&#45;&gt;Node11</title>
<path fill="none" stroke="midnightblue" d="M2598.47,-110.54C2544.8,-100.33 2464.16,-85 2414.29,-75.52"/>
<polygon fill="midnightblue" stroke="midnightblue" points="2598.02,-114.01 2608.5,-112.44 2599.33,-107.14 2598.02,-114.01"/>
</g>
<!-- Node9&#45;&gt;Node12 -->
<g id="edge13" class="edge">
<title>Node9&#45;&gt;Node12</title>
<path fill="none" stroke="midnightblue" d="M2622.02,-108.77C2595.91,-98.63 2559.46,-84.47 2536.42,-75.52"/>
<polygon fill="midnightblue" stroke="midnightblue" points="2620.89,-112.08 2631.48,-112.44 2623.42,-105.56 2620.89,-112.08"/>
</g>
<!-- Node13 -->
<g id="node13" class="node">
<title>Node13</title>
<g id="a_node13"><a xlink:href="_render_extension_8cpp.html" target="_top" xlink:title="Implementation of RenderExtension, the core module of the render package.">
<polygon fill="white" stroke="black" points="2731,-56.5 2731,-75.5 2850,-75.5 2850,-56.5 2731,-56.5"/>
<text text-anchor="middle" x="2790.5" y="-63.5" font-family="Helvetica,sans-Serif" font-size="10.00">RenderExtension.cpp</text>
</a>
</g>
</g>
<!-- Node9&#45;&gt;Node13 -->
<g id="edge14" class="edge">
<title>Node9&#45;&gt;Node13</title>
<path fill="none" stroke="midnightblue" d="M2684.52,-108.77C2710.26,-98.63 2746.19,-84.47 2768.89,-75.52"/>
<polygon fill="midnightblue" stroke="midnightblue" points="2683.23,-105.52 2675.21,-112.44 2685.79,-112.03 2683.23,-105.52"/>
</g>
<!-- Node14&#45;&gt;Node10 -->
<g id="edge16" class="edge">
<title>Node14&#45;&gt;Node10</title>
<path fill="none" stroke="midnightblue" d="M1929.56,-111.95C2221.84,-90.77 2297.6,-102.9 2585.5,-76 2588.35,-75.73 2591.26,-75.44 2594.19,-75.12"/>
<polygon fill="midnightblue" stroke="midnightblue" points="1929.23,-108.47 1919.52,-112.69 1929.75,-115.45 1929.23,-108.47"/>
</g>
<!-- Node14&#45;&gt;Node12 -->
<g id="edge18" class="edge">
<title>Node14&#45;&gt;Node12</title>
<path fill="none" stroke="midnightblue" d="M1929.51,-111.94C2158.87,-93.54 2218.39,-98.12 2443.5,-76 2446.59,-75.7 2449.76,-75.37 2452.95,-75.02"/>
<polygon fill="midnightblue" stroke="midnightblue" points="1929.21,-108.45 1919.52,-112.75 1929.77,-115.43 1929.21,-108.45"/>
</g>
<!-- Node15 -->
<g id="node15" class="node">
<title>Node15</title>
<g id="a_node15"><a xlink:href="_layout_species_reference_plugin_8cpp.html" target="_top" xlink:title="Implementation of LayoutSpeciesReferencePlugin, the plugin object of layout package (Level2) for the ...">
<polygon fill="white" stroke="black" points="2099,-56.5 2099,-75.5 2286,-75.5 2286,-56.5 2099,-56.5"/>
<text text-anchor="middle" x="2192.5" y="-63.5" font-family="Helvetica,sans-Serif" font-size="10.00">LayoutSpeciesReferencePlugin.cpp</text>
</a>
</g>
</g>
<!-- Node14&#45;&gt;Node15 -->
<g id="edge17" class="edge">
<title>Node14&#45;&gt;Node15</title>
<path fill="none" stroke="midnightblue" d="M1898.91,-110.92C1967.11,-100.71 2071.38,-85.12 2135.57,-75.52"/>
<polygon fill="midnightblue" stroke="midnightblue" points="1898.07,-107.5 1888.7,-112.44 1899.11,-114.43 1898.07,-107.5"/>
</g>
<!-- Node23&#45;&gt;Node11 -->
<g id="edge28" class="edge">
<title>Node23&#45;&gt;Node11</title>
<path fill="none" stroke="midnightblue" d="M1442.79,-119.35C1594.03,-115.24 1976.06,-102.88 2294.5,-76 2297.77,-75.72 2301.11,-75.42 2304.49,-75.09"/>
<polygon fill="midnightblue" stroke="midnightblue" points="1442.64,-115.85 1432.74,-119.62 1442.83,-122.85 1442.64,-115.85"/>
</g>
<!-- Node23&#45;&gt;Node12 -->
<g id="edge30" class="edge">
<title>Node23&#45;&gt;Node12</title>
<path fill="none" stroke="midnightblue" d="M1442.69,-118.94C1644.08,-112.55 2247.6,-92.52 2443.5,-76 2446.6,-75.74 2449.76,-75.44 2452.96,-75.12"/>
<polygon fill="midnightblue" stroke="midnightblue" points="1442.44,-115.44 1432.55,-119.26 1442.66,-122.44 1442.44,-115.44"/>
</g>
<!-- Node23&#45;&gt;Node15 -->
<g id="edge29" class="edge">
<title>Node23&#45;&gt;Node15</title>
<path fill="none" stroke="midnightblue" d="M1443.18,-117.33C1569.41,-110.26 1851.91,-93.88 2089.5,-76 2092.54,-75.77 2095.64,-75.53 2098.76,-75.29"/>
<polygon fill="midnightblue" stroke="midnightblue" points="1442.7,-113.85 1432.91,-117.9 1443.09,-120.84 1442.7,-113.85"/>
</g>
<!-- Node24 -->
<g id="node24" class="node">
<title>Node24</title>
<g id="a_node24"><a xlink:href="_ellipse_8cpp.html" target="_top" xlink:title="Implementation of the Ellipse class.">
<polygon fill="white" stroke="black" points="389,-56.5 389,-75.5 458,-75.5 458,-56.5 389,-56.5"/>
<text text-anchor="middle" x="423.5" y="-63.5" font-family="Helvetica,sans-Serif" font-size="10.00">Ellipse.cpp</text>
</a>
</g>
</g>
<!-- Node23&#45;&gt;Node24 -->
<g id="edge31" class="edge">
<title>Node23&#45;&gt;Node24</title>
<path fill="none" stroke="midnightblue" d="M1310.13,-111.97C935.39,-78.96 836.21,-122.25 466.5,-76 463.78,-75.66 460.97,-75.24 458.15,-74.76"/>
<polygon fill="midnightblue" stroke="midnightblue" points="1309.9,-115.46 1320.17,-112.87 1310.52,-108.49 1309.9,-115.46"/>
</g>
<!-- Node25 -->
<g id="node25" class="node">
<title>Node25</title>
<g id="a_node25"><a xlink:href="_global_style_8cpp.html" target="_top" xlink:title="Implementation of the GlobalStyle class.">
<polygon fill="white" stroke="black" points="476,-56.5 476,-75.5 569,-75.5 569,-56.5 476,-56.5"/>
<text text-anchor="middle" x="522.5" y="-63.5" font-family="Helvetica,sans-Serif" font-size="10.00">GlobalStyle.cpp</text>
</a>
</g>
</g>
<!-- Node23&#45;&gt;Node25 -->
<g id="edge32" class="edge">
<title>Node23&#45;&gt;Node25</title>
<path fill="none" stroke="midnightblue" d="M1309.97,-111.94C984.56,-82.16 898.96,-110.07 577.5,-76 574.81,-75.71 572.04,-75.38 569.26,-75.02"/>
<polygon fill="midnightblue" stroke="midnightblue" points="1309.88,-115.45 1320.17,-112.89 1310.53,-108.48 1309.88,-115.45"/>
</g>
<!-- Node26 -->
<g id="node26" class="node">
<title>Node26</title>
<g id="a_node26"><a xlink:href="_gradient_stop_8cpp.html" target="_top" xlink:title="class representing a stop in a gradient definition">
<polygon fill="white" stroke="black" points="587,-56.5 587,-75.5 688,-75.5 688,-56.5 587,-56.5"/>
<text text-anchor="middle" x="637.5" y="-63.5" font-family="Helvetica,sans-Serif" font-size="10.00">GradientStop.cpp</text>
</a>
</g>
</g>
<!-- Node23&#45;&gt;Node26 -->
<g id="edge33" class="edge">
<title>Node23&#45;&gt;Node26</title>
<path fill="none" stroke="midnightblue" d="M1309.98,-111.93C1037.72,-85.69 966.07,-103.96 697.5,-76 694.46,-75.68 691.34,-75.32 688.2,-74.93"/>
<polygon fill="midnightblue" stroke="midnightblue" points="1309.87,-115.43 1320.16,-112.92 1310.55,-108.47 1309.87,-115.43"/>
</g>
<!-- Node27 -->
<g id="node27" class="node">
<title>Node27</title>
<g id="a_node27"><a xlink:href="_image_8cpp.html" target="_top" xlink:title="Implementation of the Image class.">
<polygon fill="white" stroke="black" points="706.5,-56.5 706.5,-75.5 774.5,-75.5 774.5,-56.5 706.5,-56.5"/>
<text text-anchor="middle" x="740.5" y="-63.5" font-family="Helvetica,sans-Serif" font-size="10.00">Image.cpp</text>
</a>
</g>
</g>
<!-- Node23&#45;&gt;Node27 -->
<g id="edge34" class="edge">
<title>Node23&#45;&gt;Node27</title>
<path fill="none" stroke="midnightblue" d="M1309.96,-111.92C1075.77,-88.42 1013.2,-107.71 783.5,-76 780.63,-75.6 777.66,-75.13 774.69,-74.6"/>
<polygon fill="midnightblue" stroke="midnightblue" points="1309.86,-115.42 1320.16,-112.95 1310.57,-108.46 1309.86,-115.42"/>
</g>
<!-- Node28 -->
<g id="node28" class="node">
<title>Node28</title>
<g id="a_node28"><a xlink:href="_linear_gradient_8cpp.html" target="_top" xlink:title="Implementation of the LinearGradient class.">
<polygon fill="white" stroke="black" points="793,-56.5 793,-75.5 902,-75.5 902,-56.5 793,-56.5"/>
<text text-anchor="middle" x="847.5" y="-63.5" font-family="Helvetica,sans-Serif" font-size="10.00">LinearGradient.cpp</text>
</a>
</g>
</g>
<!-- Node23&#45;&gt;Node28 -->
<g id="edge35" class="edge">
<title>Node23&#45;&gt;Node28</title>
<path fill="none" stroke="midnightblue" d="M1310.21,-111.9C1132.47,-91.91 1085.62,-96.07 911.5,-76 908.49,-75.65 905.4,-75.28 902.29,-74.89"/>
<polygon fill="midnightblue" stroke="midnightblue" points="1309.82,-115.38 1320.15,-113.03 1310.61,-108.42 1309.82,-115.38"/>
</g>
<!-- Node29 -->
<g id="node29" class="node">
<title>Node29</title>
<g id="a_node29"><a xlink:href="_list_of_curve_elements_8cpp.html" target="_top" xlink:title="storage class for curve elements">
<polygon fill="white" stroke="black" points="920.5,-56.5 920.5,-75.5 1060.5,-75.5 1060.5,-56.5 920.5,-56.5"/>
<text text-anchor="middle" x="990.5" y="-63.5" font-family="Helvetica,sans-Serif" font-size="10.00">ListOfCurveElements.cpp</text>
</a>
</g>
</g>
<!-- Node23&#45;&gt;Node29 -->
<g id="edge36" class="edge">
<title>Node23&#45;&gt;Node29</title>
<path fill="none" stroke="midnightblue" d="M1310.42,-111.76C1237.77,-101.59 1122.02,-85.4 1051.48,-75.53"/>
<polygon fill="midnightblue" stroke="midnightblue" points="1309.98,-115.23 1320.37,-113.15 1310.95,-108.3 1309.98,-115.23"/>
</g>
<!-- Node30 -->
<g id="node30" class="node">
<title>Node30</title>
<g id="a_node30"><a xlink:href="_list_of_gradient_stops_8cpp.html" target="_top" xlink:title="Implementation of the ListOfGradientStops class.">
<polygon fill="white" stroke="black" points="1078.5,-56.5 1078.5,-75.5 1212.5,-75.5 1212.5,-56.5 1078.5,-56.5"/>
<text text-anchor="middle" x="1145.5" y="-63.5" font-family="Helvetica,sans-Serif" font-size="10.00">ListOfGradientStops.cpp</text>
</a>
</g>
</g>
<!-- Node23&#45;&gt;Node30 -->
<g id="edge37" class="edge">
<title>Node23&#45;&gt;Node30</title>
<path fill="none" stroke="midnightblue" d="M1330.1,-110.15C1286.45,-99.95 1221.99,-84.88 1181.93,-75.52"/>
<polygon fill="midnightblue" stroke="midnightblue" points="1329.36,-113.58 1339.9,-112.44 1330.96,-106.76 1329.36,-113.58"/>
</g>
<!-- Node31 -->
<g id="node31" class="node">
<title>Node31</title>
<g id="a_node31"><a xlink:href="_local_render_information_8cpp.html" target="_top" xlink:title="Implementation of the LocalRenderInformation class.">
<polygon fill="white" stroke="black" points="1230.5,-56.5 1230.5,-75.5 1384.5,-75.5 1384.5,-56.5 1230.5,-56.5"/>
<text text-anchor="middle" x="1307.5" y="-63.5" font-family="Helvetica,sans-Serif" font-size="10.00">LocalRenderInformation.cpp</text>
</a>
</g>
</g>
<!-- Node23&#45;&gt;Node31 -->
<g id="edge38" class="edge">
<title>Node23&#45;&gt;Node31</title>
<path fill="none" stroke="midnightblue" d="M1357.46,-106.1C1345.04,-96.38 1329.26,-84.03 1318.79,-75.83"/>
<polygon fill="midnightblue" stroke="midnightblue" points="1355.38,-108.92 1365.41,-112.32 1359.7,-103.4 1355.38,-108.92"/>
</g>
<!-- Node32 -->
<g id="node32" class="node">
<title>Node32</title>
<g id="a_node32"><a xlink:href="_local_style_8cpp.html" target="_top" xlink:title="class for representing a local style">
<polygon fill="white" stroke="black" points="1403,-56.5 1403,-75.5 1490,-75.5 1490,-56.5 1403,-56.5"/>
<text text-anchor="middle" x="1446.5" y="-63.5" font-family="Helvetica,sans-Serif" font-size="10.00">LocalStyle.cpp</text>
</a>
</g>
</g>
<!-- Node23&#45;&gt;Node32 -->
<g id="edge39" class="edge">
<title>Node23&#45;&gt;Node32</title>
<path fill="none" stroke="midnightblue" d="M1395.81,-106.1C1408.41,-96.38 1424.43,-84.03 1435.05,-75.83"/>
<polygon fill="midnightblue" stroke="midnightblue" points="1393.53,-103.44 1387.75,-112.32 1397.8,-108.99 1393.53,-103.44"/>
</g>
<!-- Node33 -->
<g id="node33" class="node">
<title>Node33</title>
<g id="a_node33"><a xlink:href="_polygon_8cpp.html" target="_top" xlink:title="Implementation of the Polygon class.">
<polygon fill="white" stroke="black" points="1508.5,-56.5 1508.5,-75.5 1584.5,-75.5 1584.5,-56.5 1508.5,-56.5"/>
<text text-anchor="middle" x="1546.5" y="-63.5" font-family="Helvetica,sans-Serif" font-size="10.00">Polygon.cpp</text>
</a>
</g>
</g>
<!-- Node23&#45;&gt;Node33 -->
<g id="edge40" class="edge">
<title>Node23&#45;&gt;Node33</title>
<path fill="none" stroke="midnightblue" d="M1413.32,-109.3C1445.35,-99.13 1491.02,-84.62 1519.69,-75.52"/>
<polygon fill="midnightblue" stroke="midnightblue" points="1411.91,-106.08 1403.44,-112.44 1414.03,-112.75 1411.91,-106.08"/>
</g>
<!-- Node34 -->
<g id="node34" class="node">
<title>Node34</title>
<g id="a_node34"><a xlink:href="_radial_gradient_8cpp.html" target="_top" xlink:title="Implementation of the RadialGradient class.">
<polygon fill="white" stroke="black" points="1602.5,-56.5 1602.5,-75.5 1712.5,-75.5 1712.5,-56.5 1602.5,-56.5"/>
<text text-anchor="middle" x="1657.5" y="-63.5" font-family="Helvetica,sans-Serif" font-size="10.00">RadialGradient.cpp</text>
</a>
</g>
</g>
<!-- Node23&#45;&gt;Node34 -->
<g id="edge41" class="edge">
<title>Node23&#45;&gt;Node34</title>
<path fill="none" stroke="midnightblue" d="M1430.95,-110.54C1484.05,-100.33 1563.84,-85 1613.18,-75.52"/>
<polygon fill="midnightblue" stroke="midnightblue" points="1430.19,-107.12 1421.03,-112.44 1431.51,-113.99 1430.19,-107.12"/>
</g>
<!-- Node35 -->
<g id="node35" class="node">
<title>Node35</title>
<g id="a_node35"><a xlink:href="_rectangle_8cpp.html" target="_top" xlink:title="Implementation of the Rectangle class.">
<polygon fill="white" stroke="black" points="1730.5,-56.5 1730.5,-75.5 1816.5,-75.5 1816.5,-56.5 1730.5,-56.5"/>
<text text-anchor="middle" x="1773.5" y="-63.5" font-family="Helvetica,sans-Serif" font-size="10.00">Rectangle.cpp</text>
</a>
</g>
</g>
<!-- Node23&#45;&gt;Node35 -->
<g id="edge42" class="edge">
<title>Node23&#45;&gt;Node35</title>
<path fill="none" stroke="midnightblue" d="M1442.71,-113.19C1512.25,-104.8 1624.73,-90.68 1721.5,-76 1724.4,-75.56 1727.39,-75.09 1730.39,-74.6"/>
<polygon fill="midnightblue" stroke="midnightblue" points="1442.28,-109.72 1432.77,-114.39 1443.12,-116.67 1442.28,-109.72"/>
</g>
<!-- Node36 -->
<g id="node36" class="node">
<title>Node36</title>
<g id="a_node36"><a xlink:href="_render_cubic_bezier_8cpp.html" target="_top" xlink:title="Implementation of the RenderCubicBezier class.">
<polygon fill="white" stroke="black" points="1834.5,-56.5 1834.5,-75.5 1962.5,-75.5 1962.5,-56.5 1834.5,-56.5"/>
<text text-anchor="middle" x="1898.5" y="-63.5" font-family="Helvetica,sans-Serif" font-size="10.00">RenderCubicBezier.cpp</text>
</a>
</g>
</g>
<!-- Node23&#45;&gt;Node36 -->
<g id="edge43" class="edge">
<title>Node23&#45;&gt;Node36</title>
<path fill="none" stroke="midnightblue" d="M1442.61,-114.85C1530.21,-106.59 1689.57,-91.19 1825.5,-76 1828.42,-75.67 1831.4,-75.33 1834.42,-74.98"/>
<polygon fill="midnightblue" stroke="midnightblue" points="1442.17,-111.38 1432.54,-115.8 1442.83,-118.34 1442.17,-111.38"/>
</g>
<!-- Node37 -->
<g id="node37" class="node">
<title>Node37</title>
<g id="a_node37"><a xlink:href="_render_curve_8cpp.html" target="_top" xlink:title="Implementation of the RenderCurve class.">
<polygon fill="white" stroke="black" points="1980.5,-56.5 1980.5,-75.5 2080.5,-75.5 2080.5,-56.5 1980.5,-56.5"/>
<text text-anchor="middle" x="2030.5" y="-63.5" font-family="Helvetica,sans-Serif" font-size="10.00">RenderCurve.cpp</text>
</a>
</g>
</g>
<!-- Node23&#45;&gt;Node37 -->
<g id="edge44" class="edge">
<title>Node23&#45;&gt;Node37</title>
<path fill="none" stroke="midnightblue" d="M1443.12,-117.61C1553.3,-111.65 1780.3,-97.78 1971.5,-76 1974.38,-75.67 1977.34,-75.31 1980.32,-74.92"/>
<polygon fill="midnightblue" stroke="midnightblue" points="1442.63,-114.14 1432.83,-118.17 1443,-121.13 1442.63,-114.14"/>
</g>
<!-- Node38 -->
<g id="node38" class="node">
<title>Node38</title>
<g id="a_node38"><a xlink:href="_render_group_8cpp.html" target="_top" xlink:title="Implementation of the RenderGroup class.">
<polygon fill="white" stroke="black" points="0,-56.5 0,-75.5 101,-75.5 101,-56.5 0,-56.5"/>
<text text-anchor="middle" x="50.5" y="-63.5" font-family="Helvetica,sans-Serif" font-size="10.00">RenderGroup.cpp</text>
</a>
</g>
</g>
<!-- Node23&#45;&gt;Node38 -->
<g id="edge45" class="edge">
<title>Node23&#45;&gt;Node38</title>
<path fill="none" stroke="midnightblue" d="M1309.92,-111.97C777.6,-68.03 639.01,-123.39 110.5,-76 107.46,-75.73 104.33,-75.4 101.19,-75.04"/>
<polygon fill="midnightblue" stroke="midnightblue" points="1309.91,-115.48 1320.17,-112.82 1310.5,-108.5 1309.91,-115.48"/>
</g>
<!-- Node39 -->
<g id="node39" class="node">
<title>Node39</title>
<g id="a_node39"><a xlink:href="_render_point_8cpp.html" target="_top" xlink:title="Implementation of the RenderPoint class.">
<polygon fill="white" stroke="black" points="119.5,-56.5 119.5,-75.5 215.5,-75.5 215.5,-56.5 119.5,-56.5"/>
<text text-anchor="middle" x="167.5" y="-63.5" font-family="Helvetica,sans-Serif" font-size="10.00">RenderPoint.cpp</text>
</a>
</g>
</g>
<!-- Node23&#45;&gt;Node39 -->
<g id="edge46" class="edge">
<title>Node23&#45;&gt;Node39</title>
<path fill="none" stroke="midnightblue" d="M1310.17,-111.98C828.17,-71.49 702.41,-121.47 224.5,-76 221.61,-75.72 218.64,-75.4 215.65,-75.03"/>
<polygon fill="midnightblue" stroke="midnightblue" points="1309.91,-115.48 1320.17,-112.83 1310.5,-108.5 1309.91,-115.48"/>
</g>
<!-- Node40 -->
<g id="node40" class="node">
<title>Node40</title>
<g id="a_node40"><a xlink:href="_style_8cpp.html" target="_top" xlink:title="Implementation of the Style class.">
<polygon fill="white" stroke="black" points="233.5,-56.5 233.5,-75.5 295.5,-75.5 295.5,-56.5 233.5,-56.5"/>
<text text-anchor="middle" x="264.5" y="-63.5" font-family="Helvetica,sans-Serif" font-size="10.00">Style.cpp</text>
</a>
</g>
</g>
<!-- Node23&#45;&gt;Node40 -->
<g id="edge47" class="edge">
<title>Node23&#45;&gt;Node40</title>
<path fill="none" stroke="midnightblue" d="M1309.9,-111.96C863.55,-74.14 745.29,-132.97 304.5,-76 301.68,-75.64 298.76,-75.16 295.84,-74.63"/>
<polygon fill="midnightblue" stroke="midnightblue" points="1309.91,-115.47 1320.17,-112.84 1310.51,-108.5 1309.91,-115.47"/>
</g>
<!-- Node41 -->
<g id="node41" class="node">
<title>Node41</title>
<g id="a_node41"><a xlink:href="_text_8cpp.html" target="_top" xlink:title="Implementation of the Text class.">
<polygon fill="white" stroke="black" points="314,-56.5 314,-75.5 371,-75.5 371,-56.5 314,-56.5"/>
<text text-anchor="middle" x="342.5" y="-63.5" font-family="Helvetica,sans-Serif" font-size="10.00">Text.cpp</text>
</a>
</g>
</g>
<!-- Node23&#45;&gt;Node41 -->
<g id="edge48" class="edge">
<title>Node23&#45;&gt;Node41</title>
<path fill="none" stroke="midnightblue" d="M1310.04,-111.97C896.81,-76.45 786.75,-132.81 379.5,-76 376.75,-75.62 373.91,-75.12 371.07,-74.55"/>
<polygon fill="midnightblue" stroke="midnightblue" points="1309.9,-115.47 1320.17,-112.85 1310.51,-108.5 1309.9,-115.47"/>
</g>
<!-- Node43&#45;&gt;Node2 -->
<g id="edge52" class="edge">
<title>Node43&#45;&gt;Node2</title>
<path fill="none" stroke="midnightblue" d="M2878.67,-214.39C2892.48,-178.59 2922.26,-101.34 2932.2,-75.57"/>
<polygon fill="midnightblue" stroke="midnightblue" points="2875.27,-213.49 2874.94,-224.08 2881.8,-216 2875.27,-213.49"/>
</g>
<!-- Node43&#45;&gt;Node8 -->
<g id="edge54" class="edge">
<title>Node43&#45;&gt;Node8</title>
<path fill="none" stroke="midnightblue" d="M2812.76,-225.09C2725.82,-213.38 2566.08,-191.87 2500.16,-182.99"/>
<polygon fill="midnightblue" stroke="midnightblue" points="2812.35,-228.57 2822.73,-226.43 2813.29,-221.63 2812.35,-228.57"/>
</g>
<!-- Node43&#45;&gt;Node17 -->
<g id="edge53" class="edge">
<title>Node43&#45;&gt;Node17</title>
<path fill="none" stroke="midnightblue" d="M2863.32,-215C2852.41,-191 2833.53,-149.47 2825.41,-131.59"/>
<polygon fill="midnightblue" stroke="midnightblue" points="2860.25,-216.71 2867.58,-224.37 2866.62,-213.82 2860.25,-216.71"/>
</g>
<!-- Node43&#45;&gt;Node19 -->
<g id="edge55" class="edge">
<title>Node43&#45;&gt;Node19</title>
<path fill="none" stroke="midnightblue" d="M2887.58,-217.21C2911.59,-193.63 2955.98,-150.03 2974.75,-131.59"/>
<polygon fill="midnightblue" stroke="midnightblue" points="2884.97,-214.86 2880.29,-224.37 2889.88,-219.86 2884.97,-214.86"/>
</g>
</g>
</svg>
        <g id="navigator" transform="translate(0 0)" fill="#404254">
                <rect fill="#f2f5e9" fill-opacity="0.5" stroke="#606060" stroke-width=".5" x="0" y="0" width="60" height="60"/>
                <use id="zoomplus" xlink:href="#zoomPlus" x="17" y="9" onmousedown="handleZoom(evt,'in')"/>
                <use id="zoomminus" xlink:href="#zoomMin" x="42" y="9" onmousedown="handleZoom(evt,'out')"/>
                <use id="reset" xlink:href="#resetDef" x="30" y="36" onmousedown="handleReset()"/>
                <g id="arrowUp" xlink:href="#dirArrow" transform="translate(30 24)" onmousedown="handlePan(0,-1)">
                  <use xlink:href="#rim" fill="#404040">
                        <set attributeName="fill" to="#808080" begin="arrowUp.mouseover" end="arrowUp.mouseout"/>
                  </use>
                  <path fill="none" stroke="white" stroke-width="1.5" d="M0,-3.0v7 M-2.5,-0.5L0,-3.0L2.5,-0.5"/>
                </g>
                <g id="arrowRight" xlink:href="#dirArrow" transform="rotate(90) translate(36 -43)" onmousedown="handlePan(1,0)">
                  <use xlink:href="#rim" fill="#404040">
                        <set attributeName="fill" to="#808080" begin="arrowRight.mouseover" end="arrowRight.mouseout"/>
                  </use>
                  <path fill="none" stroke="white" stroke-width="1.5" d="M0,-3.0v7 M-2.5,-0.5L0,-3.0L2.5,-0.5"/>
                </g>
                <g id="arrowDown" xlink:href="#dirArrow" transform="rotate(180) translate(-30 -48)" onmousedown="handlePan(0,1)">
                  <use xlink:href="#rim" fill="#404040">
                        <set attributeName="fill" to="#808080" begin="arrowDown.mouseover" end="arrowDown.mouseout"/>
                  </use>
                  <path fill="none" stroke="white" stroke-width="1.5" d="M0,-3.0v7 M-2.5,-0.5L0,-3.0L2.5,-0.5"/>
                </g>
                <g id="arrowLeft" xlink:href="#dirArrow" transform="rotate(270) translate(-36 17)" onmousedown="handlePan(-1,0)">
                  <use xlink:href="#rim" fill="#404040">
                        <set attributeName="fill" to="#808080" begin="arrowLeft.mouseover" end="arrowLeft.mouseout"/>
                  </use>
                  <path fill="none" stroke="white" stroke-width="1.5" d="M0,-3.0v7 M-2.5,-0.5L0,-3.0L2.5,-0.5"/>
                </g>
        </g>
        <svg viewBox="0 0 15 15" width="100%" height="30px" preserveAspectRatio="xMaxYMin meet">
         <g id="arrow_out" transform="scale(0.3 0.3)">
          <a xlink:href="_species_reference_glyph_8h__dep__incl_org.svg" target="_base">
           <rect id="button" ry="5" rx="5" y="6" x="6" height="38" width="38"
                fill="#f2f5e9" fill-opacity="0.5" stroke="#606060" stroke-width="1.0"/>
           <path id="arrow"
             d="M 11.500037,31.436501 C 11.940474,20.09759 22.043105,11.32322 32.158766,21.979434 L 37.068811,17.246167 C 37.068811,17.246167 37.088388,32 37.088388,32 L 22.160133,31.978069 C 22.160133,31.978069 26.997745,27.140456 26.997745,27.140456 C 18.528582,18.264221 13.291696,25.230495 11.500037,31.436501 z"
             style="fill:#404040;"/>
          </a>
         </g>
        </svg>
</svg>
