<?xml version="1.0" encoding="UTF-8" standalone="no"?>
<!DOCTYPE svg PUBLIC "-//W3C//DTD SVG 1.1//EN"
 "http://www.w3.org/Graphics/SVG/1.1/DTD/svg11.dtd">
<!-- Generated by graphviz version 2.43.0 (0)
 -->
<!-- Title: Style.h Pages: 1 -->
<!--zoomable 476 -->
<svg id="main" version="1.1" xmlns="http://www.w3.org/2000/svg" xmlns:xlink="http://www.w3.org/1999/xlink" xml:space="preserve" onload="init(evt)">
<style type="text/css"><![CDATA[
.edge:hover path { stroke: red; }
.edge:hover polygon { stroke: red; fill: red; }
]]></style>
<script type="text/javascript"><![CDATA[
var edges = document.getElementsByTagName('g');
if (edges && edges.length) {
  for (var i=0;i<edges.length;i++) {
    if (edges[i].id.substr(0,4)=='edge') {
      edges[i].setAttribute('class','edge');
    }
  }
}
]]></script>
        <defs>
                <circle id="rim" cx="0" cy="0" r="7"/>
                <circle id="rim2" cx="0" cy="0" r="3.5"/>
                <g id="zoomPlus">
                        <use xlink:href="#rim" fill="#404040">
                                <set attributeName="fill" to="#808080" begin="zoomplus.mouseover" end="zoomplus.mouseout"/>
                        </use>
                        <path d="M-4,0h8M0,-4v8" fill="none" stroke="white" stroke-width="1.5" pointer-events="none"/>
                </g>
                <g id="zoomMin">
                        <use xlink:href="#rim" fill="#404040">
                                <set attributeName="fill" to="#808080" begin="zoomminus.mouseover" end="zoomminus.mouseout"/>
                        </use>
                        <path d="M-4,0h8" fill="none" stroke="white" stroke-width="1.5" pointer-events="none"/>
                </g>
                <g id="dirArrow">
                        <path fill="none" stroke="white" stroke-width="1.5" d="M0,-3.0v7 M-2.5,-0.5L0,-3.0L2.5,-0.5"/>
                </g>
               <g id="resetDef">
                       <use xlink:href="#rim2" fill="#404040">
                               <set attributeName="fill" to="#808080" begin="reset.mouseover" end="reset.mouseout"/>
                       </use>
               </g>
        </defs>

<script type="text/javascript">
var viewWidth = 1566;
var viewHeight = 476;
var sectionId = 'dynsection-1';
</script>
<script xlink:href="svgpan.js"/>
<svg id="graph" class="graph">
<g id="viewport">
<title>Style.h</title>
<polygon fill="white" stroke="transparent" points="-4,4 -4,-472 1561.5,-472 1561.5,4 -4,4"/>
<!-- Node1 -->
<g id="node1" class="node">
<title>Node1</title>
<g id="a_node1"><a xlink:title="Definition of the Style class.">
<polygon fill="#bfbfbf" stroke="black" points="706,-448.5 706,-467.5 756,-467.5 756,-448.5 706,-448.5"/>
<text text-anchor="middle" x="731" y="-455.5" font-family="Helvetica,sans-Serif" font-size="10.00">Style.h</text>
</a>
</g>
</g>
<!-- Node2 -->
<g id="node2" class="node">
<title>Node2</title>
<g id="a_node2"><a xlink:href="_render_extension_types_8h.html" target="_top" xlink:title="Definition of RenderExtensionTypes.">
<polygon fill="white" stroke="black" points="682,-112.5 682,-131.5 818,-131.5 818,-112.5 682,-112.5"/>
<text text-anchor="middle" x="750" y="-119.5" font-family="Helvetica,sans-Serif" font-size="10.00">RenderExtensionTypes.h</text>
</a>
</g>
</g>
<!-- Node1&#45;&gt;Node2 -->
<g id="edge1" class="edge">
<title>Node1&#45;&gt;Node2</title>
<path fill="none" stroke="midnightblue" d="M695.64,-455.46C549.45,-448.63 0,-418.21 0,-347 0,-347 0,-347 0,-233 0,-199.54 9.51,-185.56 38,-168 91.9,-134.77 514.03,-125.91 681.69,-123.7"/>
<polygon fill="midnightblue" stroke="midnightblue" points="695.69,-458.96 705.84,-455.93 696.01,-451.97 695.69,-458.96"/>
</g>
<!-- Node9 -->
<g id="node9" class="node">
<title>Node9</title>
<g id="a_node9"><a xlink:href="_global_style_8h.html" target="_top" xlink:title="Definition of the GlobalStyle class.">
<polygon fill="white" stroke="black" points="628,-392.5 628,-411.5 710,-411.5 710,-392.5 628,-392.5"/>
<text text-anchor="middle" x="669" y="-399.5" font-family="Helvetica,sans-Serif" font-size="10.00">GlobalStyle.h</text>
</a>
</g>
</g>
<!-- Node1&#45;&gt;Node9 -->
<g id="edge10" class="edge">
<title>Node1&#45;&gt;Node9</title>
<path fill="none" stroke="midnightblue" d="M713.25,-441.54C702.19,-431.91 688.37,-419.87 679.14,-411.83"/>
<polygon fill="midnightblue" stroke="midnightblue" points="711.2,-444.4 721.04,-448.32 715.8,-439.12 711.2,-444.4"/>
</g>
<!-- Node20 -->
<g id="node20" class="node">
<title>Node20</title>
<g id="a_node20"><a xlink:href="_style_8cpp.html" target="_top" xlink:title="Implementation of the Style class.">
<polygon fill="white" stroke="black" points="843,-280.5 843,-299.5 905,-299.5 905,-280.5 843,-280.5"/>
<text text-anchor="middle" x="874" y="-287.5" font-family="Helvetica,sans-Serif" font-size="10.00">Style.cpp</text>
</a>
</g>
</g>
<!-- Node1&#45;&gt;Node20 -->
<g id="edge62" class="edge">
<title>Node1&#45;&gt;Node20</title>
<path fill="none" stroke="midnightblue" d="M745.46,-440.21C775.57,-405.26 844.03,-325.79 866.62,-299.57"/>
<polygon fill="midnightblue" stroke="midnightblue" points="742.56,-438.21 738.69,-448.08 747.87,-442.78 742.56,-438.21"/>
</g>
<!-- Node21 -->
<g id="node21" class="node">
<title>Node21</title>
<g id="a_node21"><a xlink:href="_local_style_8h.html" target="_top" xlink:title="Definition of the LocalStyle class.">
<polygon fill="white" stroke="black" points="920,-392.5 920,-411.5 996,-411.5 996,-392.5 920,-392.5"/>
<text text-anchor="middle" x="958" y="-399.5" font-family="Helvetica,sans-Serif" font-size="10.00">LocalStyle.h</text>
</a>
</g>
</g>
<!-- Node1&#45;&gt;Node21 -->
<g id="edge36" class="edge">
<title>Node1&#45;&gt;Node21</title>
<path fill="none" stroke="midnightblue" d="M766.01,-448.67C808.31,-438.61 879.12,-421.76 921.9,-411.59"/>
<polygon fill="midnightblue" stroke="midnightblue" points="765.08,-445.3 756.16,-451.01 766.7,-452.11 765.08,-445.3"/>
</g>
<!-- Node3 -->
<g id="node3" class="node">
<title>Node3</title>
<g id="a_node3"><a xlink:href="_render_layout_plugin_8cpp.html" target="_top" xlink:title="Implementation of RenderLayoutPlugin, the plugin class of the fbc package for the Model element.">
<polygon fill="white" stroke="black" points="930,-0.5 930,-19.5 1064,-19.5 1064,-0.5 930,-0.5"/>
<text text-anchor="middle" x="997" y="-7.5" font-family="Helvetica,sans-Serif" font-size="10.00">RenderLayoutPlugin.cpp</text>
</a>
</g>
</g>
<!-- Node2&#45;&gt;Node3 -->
<g id="edge2" class="edge">
<title>Node2&#45;&gt;Node3</title>
<path fill="none" stroke="midnightblue" d="M828.45,-118.81C870.22,-114.21 920.54,-102.84 958,-76 977.9,-61.74 989.47,-33.89 994.31,-19.72"/>
<polygon fill="midnightblue" stroke="midnightblue" points="827.91,-115.34 818.3,-119.81 828.6,-122.31 827.91,-115.34"/>
</g>
<!-- Node4 -->
<g id="node4" class="node">
<title>Node4</title>
<g id="a_node4"><a xlink:href="_render_layout_converter_8cpp.html" target="_top" xlink:title="Simple converter to convert Layout + Render from l2 to L3 and vice versa.">
<polygon fill="white" stroke="black" points="531,-56.5 531,-75.5 683,-75.5 683,-56.5 531,-56.5"/>
<text text-anchor="middle" x="607" y="-63.5" font-family="Helvetica,sans-Serif" font-size="10.00">RenderLayoutConverter.cpp</text>
</a>
</g>
</g>
<!-- Node2&#45;&gt;Node4 -->
<g id="edge3" class="edge">
<title>Node2&#45;&gt;Node4</title>
<path fill="none" stroke="midnightblue" d="M717.97,-108.91C691.09,-98.75 653.36,-84.51 629.55,-75.52"/>
<polygon fill="midnightblue" stroke="midnightblue" points="716.75,-112.19 727.34,-112.44 719.22,-105.64 716.75,-112.19"/>
</g>
<!-- Node5 -->
<g id="node5" class="node">
<title>Node5</title>
<g id="a_node5"><a xlink:href="_render_utilities_8cpp.html" target="_top" xlink:title="implementation of RenderUtilities, a class of utility functions for the render package">
<polygon fill="white" stroke="black" points="749,-0.5 749,-19.5 859,-19.5 859,-0.5 749,-0.5"/>
<text text-anchor="middle" x="804" y="-7.5" font-family="Helvetica,sans-Serif" font-size="10.00">RenderUtilities.cpp</text>
</a>
</g>
</g>
<!-- Node2&#45;&gt;Node5 -->
<g id="edge4" class="edge">
<title>Node2&#45;&gt;Node5</title>
<path fill="none" stroke="midnightblue" d="M828.09,-112.31C874.04,-105.42 925.85,-93.9 940,-76 965.73,-43.47 907.46,-26.3 859.35,-17.95"/>
<polygon fill="midnightblue" stroke="midnightblue" points="827.48,-108.87 818.09,-113.76 828.48,-115.79 827.48,-108.87"/>
</g>
<!-- Node6 -->
<g id="node6" class="node">
<title>Node6</title>
<g id="a_node6"><a xlink:href="_render_utilities_8h.html" target="_top" xlink:title="Definition of RenderUtilities, a class of utility functions for the render package.">
<polygon fill="white" stroke="black" points="701,-56.5 701,-75.5 799,-75.5 799,-56.5 701,-56.5"/>
<text text-anchor="middle" x="750" y="-63.5" font-family="Helvetica,sans-Serif" font-size="10.00">RenderUtilities.h</text>
</a>
</g>
</g>
<!-- Node2&#45;&gt;Node6 -->
<g id="edge5" class="edge">
<title>Node2&#45;&gt;Node6</title>
<path fill="none" stroke="midnightblue" d="M750,-101.8C750,-92.91 750,-82.78 750,-75.75"/>
<polygon fill="midnightblue" stroke="midnightblue" points="746.5,-102.08 750,-112.08 753.5,-102.08 746.5,-102.08"/>
</g>
<!-- Node8 -->
<g id="node8" class="node">
<title>Node8</title>
<g id="a_node8"><a xlink:href="_render_validator_8cpp.html" target="_top" xlink:title="Definition of RenderValidator.">
<polygon fill="white" stroke="black" points="817,-56.5 817,-75.5 931,-75.5 931,-56.5 817,-56.5"/>
<text text-anchor="middle" x="874" y="-63.5" font-family="Helvetica,sans-Serif" font-size="10.00">RenderValidator.cpp</text>
</a>
</g>
</g>
<!-- Node2&#45;&gt;Node8 -->
<g id="edge9" class="edge">
<title>Node2&#45;&gt;Node8</title>
<path fill="none" stroke="midnightblue" d="M779.01,-108.37C802.23,-98.26 834.16,-84.35 854.44,-75.52"/>
<polygon fill="midnightblue" stroke="midnightblue" points="777.42,-105.24 769.65,-112.44 780.21,-111.66 777.42,-105.24"/>
</g>
<!-- Node6&#45;&gt;Node3 -->
<g id="edge6" class="edge">
<title>Node6&#45;&gt;Node3</title>
<path fill="none" stroke="midnightblue" d="M799.03,-54.28C845.7,-44.08 915.03,-28.92 958.05,-19.52"/>
<polygon fill="midnightblue" stroke="midnightblue" points="798.16,-50.89 789.14,-56.44 799.65,-57.73 798.16,-50.89"/>
</g>
<!-- Node6&#45;&gt;Node5 -->
<g id="edge8" class="edge">
<title>Node6&#45;&gt;Node5</title>
<path fill="none" stroke="midnightblue" d="M766,-49C775.57,-39.43 787.36,-27.64 795.25,-19.75"/>
<polygon fill="midnightblue" stroke="midnightblue" points="763.51,-46.54 758.92,-56.08 768.46,-51.49 763.51,-46.54"/>
</g>
<!-- Node7 -->
<g id="node7" class="node">
<title>Node7</title>
<g id="a_node7"><a xlink:href="_render_list_of_layouts_plugin_8cpp.html" target="_top" xlink:title="Implementation of RenderListOfLayoutsPlugin, the plugin class of the fbc package for the Model elemen...">
<polygon fill="white" stroke="black" points="4,-0.5 4,-19.5 172,-19.5 172,-0.5 4,-0.5"/>
<text text-anchor="middle" x="88" y="-7.5" font-family="Helvetica,sans-Serif" font-size="10.00">RenderListOfLayoutsPlugin.cpp</text>
</a>
</g>
</g>
<!-- Node6&#45;&gt;Node7 -->
<g id="edge7" class="edge">
<title>Node6&#45;&gt;Node7</title>
<path fill="none" stroke="midnightblue" d="M691.03,-55.98C499.67,-34.34 287.14,-21.3 172.23,-15.15"/>
<polygon fill="midnightblue" stroke="midnightblue" points="690.66,-59.46 700.99,-57.11 691.45,-52.5 690.66,-59.46"/>
</g>
<!-- Node9&#45;&gt;Node2 -->
<g id="edge11" class="edge">
<title>Node9&#45;&gt;Node2</title>
<path fill="none" stroke="midnightblue" d="M617.23,-397.43C466.41,-386.33 38,-349.64 38,-291 38,-291 38,-291 38,-233 38,-202.9 33.51,-186.82 57,-168 104.98,-129.55 516.55,-123.8 681.78,-123.06"/>
<polygon fill="midnightblue" stroke="midnightblue" points="617.37,-400.95 627.6,-398.18 617.88,-393.96 617.37,-400.95"/>
</g>
<!-- Node10 -->
<g id="node10" class="node">
<title>Node10</title>
<g id="a_node10"><a xlink:href="_global_style_8cpp.html" target="_top" xlink:title="Implementation of the GlobalStyle class.">
<polygon fill="white" stroke="black" points="381.5,-280.5 381.5,-299.5 474.5,-299.5 474.5,-280.5 381.5,-280.5"/>
<text text-anchor="middle" x="428" y="-287.5" font-family="Helvetica,sans-Serif" font-size="10.00">GlobalStyle.cpp</text>
</a>
</g>
</g>
<!-- Node9&#45;&gt;Node10 -->
<g id="edge12" class="edge">
<title>Node9&#45;&gt;Node10</title>
<path fill="none" stroke="midnightblue" d="M640.88,-388.16C591.15,-365.47 488.98,-318.83 446.82,-299.59"/>
<polygon fill="midnightblue" stroke="midnightblue" points="639.54,-391.4 650.09,-392.37 642.45,-385.03 639.54,-391.4"/>
</g>
<!-- Node11 -->
<g id="node11" class="node">
<title>Node11</title>
<g id="a_node11"><a xlink:href="_list_of_global_styles_8h.html" target="_top" xlink:title="Definition of the ListOfGlobalStyles class.">
<polygon fill="white" stroke="black" points="611,-336.5 611,-355.5 727,-355.5 727,-336.5 611,-336.5"/>
<text text-anchor="middle" x="669" y="-343.5" font-family="Helvetica,sans-Serif" font-size="10.00">ListOfGlobalStyles.h</text>
</a>
</g>
</g>
<!-- Node9&#45;&gt;Node11 -->
<g id="edge13" class="edge">
<title>Node9&#45;&gt;Node11</title>
<path fill="none" stroke="midnightblue" d="M669,-381.8C669,-372.91 669,-362.78 669,-355.75"/>
<polygon fill="midnightblue" stroke="midnightblue" points="665.5,-382.08 669,-392.08 672.5,-382.08 665.5,-382.08"/>
</g>
<!-- Node9&#45;&gt;Node20 -->
<g id="edge35" class="edge">
<title>Node9&#45;&gt;Node20</title>
<path fill="none" stroke="midnightblue" d="M693.99,-387.59C736.67,-364.69 822.43,-318.67 857.99,-299.59"/>
<polygon fill="midnightblue" stroke="midnightblue" points="692.24,-384.56 685.09,-392.37 695.55,-390.72 692.24,-384.56"/>
</g>
<!-- Node11&#45;&gt;Node2 -->
<g id="edge14" class="edge">
<title>Node11&#45;&gt;Node2</title>
<path fill="none" stroke="midnightblue" d="M673.95,-326.38C677.55,-313.31 682.7,-295.47 688,-280 707.67,-222.62 736.07,-155.38 746.22,-131.75"/>
<polygon fill="midnightblue" stroke="midnightblue" points="670.56,-325.52 671.33,-336.09 677.32,-327.35 670.56,-325.52"/>
</g>
<!-- Node11&#45;&gt;Node10 -->
<g id="edge32" class="edge">
<title>Node11&#45;&gt;Node10</title>
<path fill="none" stroke="midnightblue" d="M620.88,-334.22C575.34,-324.01 507.89,-308.9 466.01,-299.52"/>
<polygon fill="midnightblue" stroke="midnightblue" points="620.29,-337.67 630.81,-336.44 621.82,-330.84 620.29,-337.67"/>
</g>
<!-- Node12 -->
<g id="node12" class="node">
<title>Node12</title>
<g id="a_node12"><a xlink:href="_global_render_information_8h.html" target="_top" xlink:title="Definition of the GlobalRenderInformation class.">
<polygon fill="white" stroke="black" points="492.5,-280.5 492.5,-299.5 641.5,-299.5 641.5,-280.5 492.5,-280.5"/>
<text text-anchor="middle" x="567" y="-287.5" font-family="Helvetica,sans-Serif" font-size="10.00">GlobalRenderInformation.h</text>
</a>
</g>
</g>
<!-- Node11&#45;&gt;Node12 -->
<g id="edge15" class="edge">
<title>Node11&#45;&gt;Node12</title>
<path fill="none" stroke="midnightblue" d="M643.67,-331.59C624.81,-321.61 599.62,-308.27 583.35,-299.65"/>
<polygon fill="midnightblue" stroke="midnightblue" points="642.14,-334.74 652.61,-336.32 645.41,-328.55 642.14,-334.74"/>
</g>
<!-- Node19 -->
<g id="node19" class="node">
<title>Node19</title>
<g id="a_node19"><a xlink:href="_list_of_global_styles_8cpp.html" target="_top" xlink:title="Implementation of the ListOfGlobalStyles class.">
<polygon fill="white" stroke="black" points="697.5,-280.5 697.5,-299.5 824.5,-299.5 824.5,-280.5 697.5,-280.5"/>
<text text-anchor="middle" x="761" y="-287.5" font-family="Helvetica,sans-Serif" font-size="10.00">ListOfGlobalStyles.cpp</text>
</a>
</g>
</g>
<!-- Node11&#45;&gt;Node19 -->
<g id="edge33" class="edge">
<title>Node11&#45;&gt;Node19</title>
<path fill="none" stroke="midnightblue" d="M692.55,-331.18C709.48,-321.24 731.78,-308.15 746.26,-299.65"/>
<polygon fill="midnightblue" stroke="midnightblue" points="690.63,-328.24 683.78,-336.32 694.18,-334.28 690.63,-328.24"/>
</g>
<!-- Node11&#45;&gt;Node20 -->
<g id="edge34" class="edge">
<title>Node11&#45;&gt;Node20</title>
<path fill="none" stroke="midnightblue" d="M711.5,-333.8C750.58,-323.51 807.61,-308.49 842.68,-299.25"/>
<polygon fill="midnightblue" stroke="midnightblue" points="710.26,-330.51 701.48,-336.44 712.04,-337.28 710.26,-330.51"/>
</g>
<!-- Node12&#45;&gt;Node2 -->
<g id="edge16" class="edge">
<title>Node12&#45;&gt;Node2</title>
<path fill="none" stroke="midnightblue" d="M583.56,-273.39C608.26,-250.17 656.32,-205.27 698,-168 712.42,-155.11 729.41,-140.51 739.95,-131.53"/>
<polygon fill="midnightblue" stroke="midnightblue" points="581,-270.99 576.12,-280.39 585.8,-276.08 581,-270.99"/>
</g>
<!-- Node12&#45;&gt;Node7 -->
<g id="edge17" class="edge">
<title>Node12&#45;&gt;Node7</title>
<path fill="none" stroke="midnightblue" d="M488.29,-279.16C349.14,-261 71.5,-221.06 42,-188 2.87,-144.15 23.22,-108.32 50,-56 57.27,-41.8 69.79,-28.2 78.46,-19.74"/>
<polygon fill="midnightblue" stroke="midnightblue" points="488.11,-282.66 498.47,-280.48 489.01,-275.72 488.11,-282.66"/>
</g>
<!-- Node13 -->
<g id="node13" class="node">
<title>Node13</title>
<g id="a_node13"><a xlink:href="_render_list_of_layouts_plugin_8h.html" target="_top" xlink:title="Definition of RenderListOfLayoutsPlugin, the plugin class of fbc package for the Model element.">
<polygon fill="white" stroke="black" points="488.5,-168.5 488.5,-187.5 645.5,-187.5 645.5,-168.5 488.5,-168.5"/>
<text text-anchor="middle" x="567" y="-175.5" font-family="Helvetica,sans-Serif" font-size="10.00">RenderListOfLayoutsPlugin.h</text>
</a>
</g>
</g>
<!-- Node12&#45;&gt;Node13 -->
<g id="edge18" class="edge">
<title>Node12&#45;&gt;Node13</title>
<path fill="none" stroke="midnightblue" d="M567,-270.35C567,-246.25 567,-205.31 567,-187.59"/>
<polygon fill="midnightblue" stroke="midnightblue" points="563.5,-270.37 567,-280.37 570.5,-270.37 563.5,-270.37"/>
</g>
<!-- Node15 -->
<g id="node15" class="node">
<title>Node15</title>
<g id="a_node15"><a xlink:href="_global_render_information_8cpp.html" target="_top" xlink:title="class for the storage of global render information">
<polygon fill="white" stroke="black" points="310,-168.5 310,-187.5 470,-187.5 470,-168.5 310,-168.5"/>
<text text-anchor="middle" x="390" y="-175.5" font-family="Helvetica,sans-Serif" font-size="10.00">GlobalRenderInformation.cpp</text>
</a>
</g>
</g>
<!-- Node12&#45;&gt;Node15 -->
<g id="edge23" class="edge">
<title>Node12&#45;&gt;Node15</title>
<path fill="none" stroke="midnightblue" d="M550.02,-273.1C534.44,-259.04 510.31,-238.56 487,-224 462.75,-208.85 432.58,-195.65 412.38,-187.53"/>
<polygon fill="midnightblue" stroke="midnightblue" points="548,-276 557.74,-280.17 552.73,-270.83 548,-276"/>
</g>
<!-- Node16 -->
<g id="node16" class="node">
<title>Node16</title>
<g id="a_node16"><a xlink:href="_list_of_global_render_information_8h.html" target="_top" xlink:title="Definition of the ListOfGlobalRenderInformation class.">
<polygon fill="white" stroke="black" points="301.5,-224.5 301.5,-243.5 478.5,-243.5 478.5,-224.5 301.5,-224.5"/>
<text text-anchor="middle" x="390" y="-231.5" font-family="Helvetica,sans-Serif" font-size="10.00">ListOfGlobalRenderInformation.h</text>
</a>
</g>
</g>
<!-- Node12&#45;&gt;Node16 -->
<g id="edge24" class="edge">
<title>Node12&#45;&gt;Node16</title>
<path fill="none" stroke="midnightblue" d="M523.89,-277.57C488.85,-267.38 440.92,-252.7 412.83,-243.52"/>
<polygon fill="midnightblue" stroke="midnightblue" points="523.29,-281.03 533.87,-280.44 525.23,-274.31 523.29,-281.03"/>
</g>
<!-- Node18 -->
<g id="node18" class="node">
<title>Node18</title>
<g id="a_node18"><a xlink:href="_render_information_base_8cpp.html" target="_top" xlink:title="Implementation of the RenderInformationBase class.">
<polygon fill="white" stroke="black" points="778,-168.5 778,-187.5 930,-187.5 930,-168.5 778,-168.5"/>
<text text-anchor="middle" x="854" y="-175.5" font-family="Helvetica,sans-Serif" font-size="10.00">RenderInformationBase.cpp</text>
</a>
</g>
</g>
<!-- Node12&#45;&gt;Node18 -->
<g id="edge31" class="edge">
<title>Node12&#45;&gt;Node18</title>
<path fill="none" stroke="midnightblue" d="M599.73,-277C624.11,-268.02 658.19,-255.38 688,-244 740.05,-224.13 800.97,-200.07 832.56,-187.53"/>
<polygon fill="midnightblue" stroke="midnightblue" points="598.42,-273.75 590.24,-280.49 600.83,-280.32 598.42,-273.75"/>
</g>
<!-- Node13&#45;&gt;Node2 -->
<g id="edge19" class="edge">
<title>Node13&#45;&gt;Node2</title>
<path fill="none" stroke="midnightblue" d="M605.74,-165.57C640.26,-155.38 690.01,-140.7 721.14,-131.52"/>
<polygon fill="midnightblue" stroke="midnightblue" points="604.6,-162.26 596,-168.44 606.58,-168.97 604.6,-162.26"/>
</g>
<!-- Node13&#45;&gt;Node5 -->
<g id="edge22" class="edge">
<title>Node13&#45;&gt;Node5</title>
<path fill="none" stroke="midnightblue" d="M551.72,-160.82C529.92,-135.78 495.34,-87.25 522,-56 550.56,-22.53 675.08,-13.84 748.77,-11.66"/>
<polygon fill="midnightblue" stroke="midnightblue" points="549.21,-163.27 558.51,-168.36 554.41,-158.59 549.21,-163.27"/>
</g>
<!-- Node13&#45;&gt;Node7 -->
<g id="edge21" class="edge">
<title>Node13&#45;&gt;Node7</title>
<path fill="none" stroke="midnightblue" d="M532.62,-165.08C440.88,-133.29 191.88,-47 112.6,-19.52"/>
<polygon fill="midnightblue" stroke="midnightblue" points="531.66,-168.46 542.26,-168.42 533.95,-161.84 531.66,-168.46"/>
</g>
<!-- Node14 -->
<g id="node14" class="node">
<title>Node14</title>
<g id="a_node14"><a xlink:href="_render_extension_8cpp.html" target="_top" xlink:title="Implementation of RenderExtension, the core module of the render package.">
<polygon fill="white" stroke="black" points="968.5,-112.5 968.5,-131.5 1087.5,-131.5 1087.5,-112.5 968.5,-112.5"/>
<text text-anchor="middle" x="1028" y="-119.5" font-family="Helvetica,sans-Serif" font-size="10.00">RenderExtension.cpp</text>
</a>
</g>
</g>
<!-- Node13&#45;&gt;Node14 -->
<g id="edge20" class="edge">
<title>Node13&#45;&gt;Node14</title>
<path fill="none" stroke="midnightblue" d="M649.88,-167.29C741.64,-156.54 887.27,-139.48 968.42,-129.98"/>
<polygon fill="midnightblue" stroke="midnightblue" points="649.32,-163.83 639.79,-168.47 650.13,-170.79 649.32,-163.83"/>
</g>
<!-- Node16&#45;&gt;Node2 -->
<g id="edge25" class="edge">
<title>Node16&#45;&gt;Node2</title>
<path fill="none" stroke="midnightblue" d="M350.62,-221.1C318.34,-209.4 280.99,-190.12 301,-168 326.03,-140.33 562.44,-128.92 681.78,-124.9"/>
<polygon fill="midnightblue" stroke="midnightblue" points="349.82,-224.52 360.41,-224.48 352.1,-217.91 349.82,-224.52"/>
</g>
<!-- Node16&#45;&gt;Node7 -->
<g id="edge26" class="edge">
<title>Node16&#45;&gt;Node7</title>
<path fill="none" stroke="midnightblue" d="M291.09,-233.45C204.16,-231.49 86.96,-222.28 57,-188 13.07,-137.73 64.25,-47.82 82.22,-19.67"/>
<polygon fill="midnightblue" stroke="midnightblue" points="291.2,-236.95 301.26,-233.65 291.33,-229.96 291.2,-236.95"/>
</g>
<!-- Node16&#45;&gt;Node12 -->
<g id="edge29" class="edge">
<title>Node16&#45;&gt;Node12</title>
<path fill="none" stroke="midnightblue" d="M432.95,-246.39C467.96,-256.56 515.9,-271.24 544.04,-280.44"/>
<polygon fill="midnightblue" stroke="midnightblue" points="433.57,-242.92 422.99,-243.52 431.63,-249.65 433.57,-242.92"/>
</g>
<!-- Node16&#45;&gt;Node13 -->
<g id="edge27" class="edge">
<title>Node16&#45;&gt;Node13</title>
<path fill="none" stroke="midnightblue" d="M427.9,-221.44C461.28,-211.26 509.1,-196.66 539.09,-187.52"/>
<polygon fill="midnightblue" stroke="midnightblue" points="426.59,-218.18 418.05,-224.44 428.63,-224.87 426.59,-218.18"/>
</g>
<!-- Node16&#45;&gt;Node15 -->
<g id="edge28" class="edge">
<title>Node16&#45;&gt;Node15</title>
<path fill="none" stroke="midnightblue" d="M390,-213.8C390,-204.91 390,-194.78 390,-187.75"/>
<polygon fill="midnightblue" stroke="midnightblue" points="386.5,-214.08 390,-224.08 393.5,-214.08 386.5,-214.08"/>
</g>
<!-- Node17 -->
<g id="node17" class="node">
<title>Node17</title>
<g id="a_node17"><a xlink:href="_list_of_global_render_information_8cpp.html" target="_top" xlink:title="Implementation of the ListOfGlobalRenderInformation class.">
<polygon fill="white" stroke="black" points="66,-168.5 66,-187.5 254,-187.5 254,-168.5 66,-168.5"/>
<text text-anchor="middle" x="160" y="-175.5" font-family="Helvetica,sans-Serif" font-size="10.00">ListOfGlobalRenderInformation.cpp</text>
</a>
</g>
</g>
<!-- Node16&#45;&gt;Node17 -->
<g id="edge30" class="edge">
<title>Node16&#45;&gt;Node17</title>
<path fill="none" stroke="midnightblue" d="M343.8,-222.15C300.34,-211.95 236.16,-196.88 196.27,-187.52"/>
<polygon fill="midnightblue" stroke="midnightblue" points="343.02,-225.57 353.56,-224.44 344.62,-218.75 343.02,-225.57"/>
</g>
<!-- Node21&#45;&gt;Node2 -->
<g id="edge37" class="edge">
<title>Node21&#45;&gt;Node2</title>
<path fill="none" stroke="midnightblue" d="M955.09,-382.31C950.32,-356.83 938.77,-310.82 914,-280 866.18,-220.51 814.88,-248.99 769,-188 756.14,-170.9 751.96,-145.26 750.62,-131.87"/>
<polygon fill="midnightblue" stroke="midnightblue" points="951.69,-383.19 956.83,-392.45 958.59,-382 951.69,-383.19"/>
</g>
<!-- Node21&#45;&gt;Node20 -->
<g id="edge61" class="edge">
<title>Node21&#45;&gt;Node20</title>
<path fill="none" stroke="midnightblue" d="M943.11,-384.69C935.65,-376.3 926.6,-365.8 919,-356 903.86,-336.48 887.76,-312.28 879.54,-299.62"/>
<polygon fill="midnightblue" stroke="midnightblue" points="940.65,-387.18 949.94,-392.28 945.85,-382.5 940.65,-387.18"/>
</g>
<!-- Node22 -->
<g id="node22" class="node">
<title>Node22</title>
<g id="a_node22"><a xlink:href="_list_of_local_styles_8h.html" target="_top" xlink:title="Definition of the ListOfLocalStyles class.">
<polygon fill="white" stroke="black" points="1069,-336.5 1069,-355.5 1179,-355.5 1179,-336.5 1069,-336.5"/>
<text text-anchor="middle" x="1124" y="-343.5" font-family="Helvetica,sans-Serif" font-size="10.00">ListOfLocalStyles.h</text>
</a>
</g>
</g>
<!-- Node21&#45;&gt;Node22 -->
<g id="edge38" class="edge">
<title>Node21&#45;&gt;Node22</title>
<path fill="none" stroke="midnightblue" d="M993.95,-389.3C1025.23,-379.13 1069.82,-364.62 1097.82,-355.52"/>
<polygon fill="midnightblue" stroke="midnightblue" points="992.73,-386.02 984.3,-392.44 994.9,-392.68 992.73,-386.02"/>
</g>
<!-- Node24 -->
<g id="node24" class="node">
<title>Node24</title>
<g id="a_node24"><a xlink:href="_local_render_information_8h.html" target="_top" xlink:title="Definition of the LocalRenderInformation class.">
<polygon fill="white" stroke="black" points="1005.5,-280.5 1005.5,-299.5 1148.5,-299.5 1148.5,-280.5 1005.5,-280.5"/>
<text text-anchor="middle" x="1077" y="-287.5" font-family="Helvetica,sans-Serif" font-size="10.00">LocalRenderInformation.h</text>
</a>
</g>
</g>
<!-- Node21&#45;&gt;Node24 -->
<g id="edge59" class="edge">
<title>Node21&#45;&gt;Node24</title>
<path fill="none" stroke="midnightblue" d="M974.76,-385.51C1000.18,-362.01 1047.67,-318.11 1067.71,-299.59"/>
<polygon fill="midnightblue" stroke="midnightblue" points="972.31,-383.01 967.34,-392.37 977.06,-388.15 972.31,-383.01"/>
</g>
<!-- Node29 -->
<g id="node29" class="node">
<title>Node29</title>
<g id="a_node29"><a xlink:href="_local_style_8cpp.html" target="_top" xlink:title="class for representing a local style">
<polygon fill="white" stroke="black" points="1434.5,-280.5 1434.5,-299.5 1521.5,-299.5 1521.5,-280.5 1434.5,-280.5"/>
<text text-anchor="middle" x="1478" y="-287.5" font-family="Helvetica,sans-Serif" font-size="10.00">LocalStyle.cpp</text>
</a>
</g>
</g>
<!-- Node21&#45;&gt;Node29 -->
<g id="edge60" class="edge">
<title>Node21&#45;&gt;Node29</title>
<path fill="none" stroke="midnightblue" d="M1006.43,-391.92C1053.03,-383.09 1125.44,-369.13 1188,-356 1279.4,-336.82 1386.52,-312.27 1441.45,-299.53"/>
<polygon fill="midnightblue" stroke="midnightblue" points="1005.49,-388.54 996.32,-393.83 1006.8,-395.42 1005.49,-388.54"/>
</g>
<!-- Node22&#45;&gt;Node2 -->
<g id="edge39" class="edge">
<title>Node22&#45;&gt;Node2</title>
<path fill="none" stroke="midnightblue" d="M1183.29,-334.51C1225.93,-326.07 1278.96,-313.42 1297,-300 1349.94,-260.6 1409.93,-216.34 1365,-168 1355.78,-158.08 976.34,-135.7 818.14,-126.77"/>
<polygon fill="midnightblue" stroke="midnightblue" points="1182.41,-331.12 1173.26,-336.46 1183.74,-337.99 1182.41,-331.12"/>
</g>
<!-- Node22&#45;&gt;Node20 -->
<g id="edge58" class="edge">
<title>Node22&#45;&gt;Node20</title>
<path fill="none" stroke="midnightblue" d="M1074.37,-334.28C1023.99,-323.4 947.56,-306.89 905.13,-297.73"/>
<polygon fill="midnightblue" stroke="midnightblue" points="1073.87,-337.75 1084.39,-336.44 1075.35,-330.91 1073.87,-337.75"/>
</g>
<!-- Node23 -->
<g id="node23" class="node">
<title>Node23</title>
<g id="a_node23"><a xlink:href="_list_of_local_styles_8cpp.html" target="_top" xlink:title="Implementation of the ListOfLocalStyles class.">
<polygon fill="white" stroke="black" points="1166.5,-280.5 1166.5,-299.5 1287.5,-299.5 1287.5,-280.5 1166.5,-280.5"/>
<text text-anchor="middle" x="1227" y="-287.5" font-family="Helvetica,sans-Serif" font-size="10.00">ListOfLocalStyles.cpp</text>
</a>
</g>
</g>
<!-- Node22&#45;&gt;Node23 -->
<g id="edge40" class="edge">
<title>Node22&#45;&gt;Node23</title>
<path fill="none" stroke="midnightblue" d="M1149.58,-331.59C1168.62,-321.61 1194.06,-308.27 1210.49,-299.65"/>
<polygon fill="midnightblue" stroke="midnightblue" points="1147.78,-328.58 1140.55,-336.32 1151.03,-334.78 1147.78,-328.58"/>
</g>
<!-- Node22&#45;&gt;Node24 -->
<g id="edge41" class="edge">
<title>Node22&#45;&gt;Node24</title>
<path fill="none" stroke="midnightblue" d="M1109.58,-328.43C1101.34,-318.97 1091.35,-307.48 1084.62,-299.75"/>
<polygon fill="midnightblue" stroke="midnightblue" points="1107.03,-330.84 1116.24,-336.08 1112.31,-326.24 1107.03,-330.84"/>
</g>
<!-- Node22&#45;&gt;Node29 -->
<g id="edge57" class="edge">
<title>Node22&#45;&gt;Node29</title>
<path fill="none" stroke="midnightblue" d="M1189.19,-335.15C1249.17,-326.07 1340.59,-312.2 1420,-300 1424.63,-299.29 1429.47,-298.54 1434.3,-297.8"/>
<polygon fill="midnightblue" stroke="midnightblue" points="1188.47,-331.72 1179.11,-336.67 1189.52,-338.64 1188.47,-331.72"/>
</g>
<!-- Node24&#45;&gt;Node2 -->
<g id="edge42" class="edge">
<title>Node24&#45;&gt;Node2</title>
<path fill="none" stroke="midnightblue" d="M1121.77,-277.97C1207.46,-255.83 1383.28,-204.95 1349,-168 1331.16,-148.77 971.18,-131.96 818.03,-125.66"/>
<polygon fill="midnightblue" stroke="midnightblue" points="1120.86,-274.59 1112.04,-280.46 1122.59,-281.37 1120.86,-274.59"/>
</g>
<!-- Node24&#45;&gt;Node13 -->
<g id="edge48" class="edge">
<title>Node24&#45;&gt;Node13</title>
<path fill="none" stroke="midnightblue" d="M1027.46,-278.31C926.45,-256.53 698.52,-207.37 606.57,-187.53"/>
<polygon fill="midnightblue" stroke="midnightblue" points="1026.89,-281.77 1037.41,-280.46 1028.37,-274.93 1026.89,-281.77"/>
</g>
<!-- Node24&#45;&gt;Node18 -->
<g id="edge56" class="edge">
<title>Node24&#45;&gt;Node18</title>
<path fill="none" stroke="midnightblue" d="M1049.09,-276.03C1030.11,-267.14 1004.46,-255.02 982,-244 941.72,-224.24 894.81,-200.13 870.5,-187.56"/>
<polygon fill="midnightblue" stroke="midnightblue" points="1047.82,-279.29 1058.36,-280.36 1050.78,-272.95 1047.82,-279.29"/>
</g>
<!-- Node25 -->
<g id="node25" class="node">
<title>Node25</title>
<g id="a_node25"><a xlink:href="_render_layout_plugin_8h.html" target="_top" xlink:title="Definition of RenderLayoutPlugin, the plugin class of fbc package for the Model element.">
<polygon fill="white" stroke="black" points="1434.5,-168.5 1434.5,-187.5 1557.5,-187.5 1557.5,-168.5 1434.5,-168.5"/>
<text text-anchor="middle" x="1496" y="-175.5" font-family="Helvetica,sans-Serif" font-size="10.00">RenderLayoutPlugin.h</text>
</a>
</g>
</g>
<!-- Node24&#45;&gt;Node25 -->
<g id="edge43" class="edge">
<title>Node24&#45;&gt;Node25</title>
<path fill="none" stroke="midnightblue" d="M1147.7,-279.02C1214.01,-269.31 1308.18,-254.52 1344,-244 1395.22,-228.96 1452.25,-201.46 1479.61,-187.55"/>
<polygon fill="midnightblue" stroke="midnightblue" points="1147.11,-275.57 1137.72,-280.47 1148.12,-282.5 1147.11,-275.57"/>
</g>
<!-- Node26 -->
<g id="node26" class="node">
<title>Node26</title>
<g id="a_node26"><a xlink:href="_list_of_local_render_information_8h.html" target="_top" xlink:title="Definition of the ListOfLocalRenderInformation class.">
<polygon fill="white" stroke="black" points="991.5,-224.5 991.5,-243.5 1162.5,-243.5 1162.5,-224.5 991.5,-224.5"/>
<text text-anchor="middle" x="1077" y="-231.5" font-family="Helvetica,sans-Serif" font-size="10.00">ListOfLocalRenderInformation.h</text>
</a>
</g>
</g>
<!-- Node24&#45;&gt;Node26 -->
<g id="edge49" class="edge">
<title>Node24&#45;&gt;Node26</title>
<path fill="none" stroke="midnightblue" d="M1077,-269.8C1077,-260.91 1077,-250.78 1077,-243.75"/>
<polygon fill="midnightblue" stroke="midnightblue" points="1073.5,-270.08 1077,-280.08 1080.5,-270.08 1073.5,-270.08"/>
</g>
<!-- Node28 -->
<g id="node28" class="node">
<title>Node28</title>
<g id="a_node28"><a xlink:href="_local_render_information_8cpp.html" target="_top" xlink:title="Implementation of the LocalRenderInformation class.">
<polygon fill="white" stroke="black" points="1186,-168.5 1186,-187.5 1340,-187.5 1340,-168.5 1186,-168.5"/>
<text text-anchor="middle" x="1263" y="-175.5" font-family="Helvetica,sans-Serif" font-size="10.00">LocalRenderInformation.cpp</text>
</a>
</g>
</g>
<!-- Node24&#45;&gt;Node28 -->
<g id="edge55" class="edge">
<title>Node24&#45;&gt;Node28</title>
<path fill="none" stroke="midnightblue" d="M1107.29,-276.31C1126.31,-267.94 1151.1,-256.28 1172,-244 1202.46,-226.1 1235.61,-200.8 1252.22,-187.67"/>
<polygon fill="midnightblue" stroke="midnightblue" points="1105.71,-273.18 1097.93,-280.37 1108.49,-279.6 1105.71,-273.18"/>
</g>
<!-- Node25&#45;&gt;Node2 -->
<g id="edge44" class="edge">
<title>Node25&#45;&gt;Node2</title>
<path fill="none" stroke="midnightblue" d="M1423.94,-168.37C1422.62,-168.25 1421.3,-168.12 1420,-168 1200.31,-147.63 939.28,-132.78 818.09,-126.43"/>
<polygon fill="midnightblue" stroke="midnightblue" points="1423.92,-171.89 1434.23,-169.42 1424.63,-164.93 1423.92,-171.89"/>
</g>
<!-- Node25&#45;&gt;Node3 -->
<g id="edge46" class="edge">
<title>Node25&#45;&gt;Node3</title>
<path fill="none" stroke="midnightblue" d="M1463.72,-164.77C1403.45,-142.12 1269.55,-92.59 1155,-56 1111.8,-42.2 1061.31,-28.18 1029.26,-19.54"/>
<polygon fill="midnightblue" stroke="midnightblue" points="1462.83,-168.18 1473.42,-168.43 1465.3,-161.63 1462.83,-168.18"/>
</g>
<!-- Node25&#45;&gt;Node5 -->
<g id="edge47" class="edge">
<title>Node25&#45;&gt;Node5</title>
<path fill="none" stroke="midnightblue" d="M1450.29,-166.03C1321.11,-135.05 955.23,-47.28 839.53,-19.52"/>
<polygon fill="midnightblue" stroke="midnightblue" points="1449.71,-169.5 1460.25,-168.42 1451.34,-162.69 1449.71,-169.5"/>
</g>
<!-- Node25&#45;&gt;Node14 -->
<g id="edge45" class="edge">
<title>Node25&#45;&gt;Node14</title>
<path fill="none" stroke="midnightblue" d="M1423.93,-168.46C1422.61,-168.3 1421.3,-168.15 1420,-168 1302.29,-154.27 1164.65,-138.55 1087.78,-129.8"/>
<polygon fill="midnightblue" stroke="midnightblue" points="1423.86,-171.97 1434.2,-169.66 1424.68,-165.02 1423.86,-171.97"/>
</g>
<!-- Node26&#45;&gt;Node2 -->
<g id="edge50" class="edge">
<title>Node26&#45;&gt;Node2</title>
<path fill="none" stroke="midnightblue" d="M1047.68,-220.37C1027.63,-211.6 1000.53,-199.47 977,-188 959.85,-179.64 956.87,-174.71 939,-168 893.53,-150.93 839.41,-138.83 800.76,-131.5"/>
<polygon fill="midnightblue" stroke="midnightblue" points="1046.34,-223.61 1056.91,-224.39 1049.14,-217.19 1046.34,-223.61"/>
</g>
<!-- Node26&#45;&gt;Node18 -->
<g id="edge54" class="edge">
<title>Node26&#45;&gt;Node18</title>
<path fill="none" stroke="midnightblue" d="M1031.94,-222.09C989.81,-211.89 927.76,-196.86 889.17,-187.52"/>
<polygon fill="midnightblue" stroke="midnightblue" points="1031.12,-225.49 1041.66,-224.44 1032.77,-218.69 1031.12,-225.49"/>
</g>
<!-- Node26&#45;&gt;Node25 -->
<g id="edge51" class="edge">
<title>Node26&#45;&gt;Node25</title>
<path fill="none" stroke="midnightblue" d="M1153.49,-223.14C1234.18,-212.74 1359.77,-196.56 1434.35,-186.94"/>
<polygon fill="midnightblue" stroke="midnightblue" points="1152.86,-219.69 1143.39,-224.44 1153.76,-226.64 1152.86,-219.69"/>
</g>
<!-- Node27 -->
<g id="node27" class="node">
<title>Node27</title>
<g id="a_node27"><a xlink:href="_list_of_local_render_information_8cpp.html" target="_top" xlink:title="Implementation of the ListOfLocalRenderInformation class.">
<polygon fill="white" stroke="black" points="986,-168.5 986,-187.5 1168,-187.5 1168,-168.5 986,-168.5"/>
<text text-anchor="middle" x="1077" y="-175.5" font-family="Helvetica,sans-Serif" font-size="10.00">ListOfLocalRenderInformation.cpp</text>
</a>
</g>
</g>
<!-- Node26&#45;&gt;Node27 -->
<g id="edge52" class="edge">
<title>Node26&#45;&gt;Node27</title>
<path fill="none" stroke="midnightblue" d="M1077,-213.8C1077,-204.91 1077,-194.78 1077,-187.75"/>
<polygon fill="midnightblue" stroke="midnightblue" points="1073.5,-214.08 1077,-224.08 1080.5,-214.08 1073.5,-214.08"/>
</g>
<!-- Node26&#45;&gt;Node28 -->
<g id="edge53" class="edge">
<title>Node26&#45;&gt;Node28</title>
<path fill="none" stroke="midnightblue" d="M1116.38,-221.57C1151.47,-211.38 1202.02,-196.7 1233.67,-187.52"/>
<polygon fill="midnightblue" stroke="midnightblue" points="1115.1,-218.29 1106.47,-224.44 1117.05,-225.02 1115.1,-218.29"/>
</g>
</g>
</svg>
        <g id="navigator" transform="translate(0 0)" fill="#404254">
                <rect fill="#f2f5e9" fill-opacity="0.5" stroke="#606060" stroke-width=".5" x="0" y="0" width="60" height="60"/>
                <use id="zoomplus" xlink:href="#zoomPlus" x="17" y="9" onmousedown="handleZoom(evt,'in')"/>
                <use id="zoomminus" xlink:href="#zoomMin" x="42" y="9" onmousedown="handleZoom(evt,'out')"/>
                <use id="reset" xlink:href="#resetDef" x="30" y="36" onmousedown="handleReset()"/>
                <g id="arrowUp" xlink:href="#dirArrow" transform="translate(30 24)" onmousedown="handlePan(0,-1)">
                  <use xlink:href="#rim" fill="#404040">
                        <set attributeName="fill" to="#808080" begin="arrowUp.mouseover" end="arrowUp.mouseout"/>
                  </use>
                  <path fill="none" stroke="white" stroke-width="1.5" d="M0,-3.0v7 M-2.5,-0.5L0,-3.0L2.5,-0.5"/>
                </g>
                <g id="arrowRight" xlink:href="#dirArrow" transform="rotate(90) translate(36 -43)" onmousedown="handlePan(1,0)">
                  <use xlink:href="#rim" fill="#404040">
                        <set attributeName="fill" to="#808080" begin="arrowRight.mouseover" end="arrowRight.mouseout"/>
                  </use>
                  <path fill="none" stroke="white" stroke-width="1.5" d="M0,-3.0v7 M-2.5,-0.5L0,-3.0L2.5,-0.5"/>
                </g>
                <g id="arrowDown" xlink:href="#dirArrow" transform="rotate(180) translate(-30 -48)" onmousedown="handlePan(0,1)">
                  <use xlink:href="#rim" fill="#404040">
                        <set attributeName="fill" to="#808080" begin="arrowDown.mouseover" end="arrowDown.mouseout"/>
                  </use>
                  <path fill="none" stroke="white" stroke-width="1.5" d="M0,-3.0v7 M-2.5,-0.5L0,-3.0L2.5,-0.5"/>
                </g>
                <g id="arrowLeft" xlink:href="#dirArrow" transform="rotate(270) translate(-36 17)" onmousedown="handlePan(-1,0)">
                  <use xlink:href="#rim" fill="#404040">
                        <set attributeName="fill" to="#808080" begin="arrowLeft.mouseover" end="arrowLeft.mouseout"/>
                  </use>
                  <path fill="none" stroke="white" stroke-width="1.5" d="M0,-3.0v7 M-2.5,-0.5L0,-3.0L2.5,-0.5"/>
                </g>
        </g>
        <svg viewBox="0 0 15 15" width="100%" height="30px" preserveAspectRatio="xMaxYMin meet">
         <g id="arrow_out" transform="scale(0.3 0.3)">
          <a xlink:href="_style_8h__dep__incl_org.svg" target="_base">
           <rect id="button" ry="5" rx="5" y="6" x="6" height="38" width="38"
                fill="#f2f5e9" fill-opacity="0.5" stroke="#606060" stroke-width="1.0"/>
           <path id="arrow"
             d="M 11.500037,31.436501 C 11.940474,20.09759 22.043105,11.32322 32.158766,21.979434 L 37.068811,17.246167 C 37.068811,17.246167 37.088388,32 37.088388,32 L 22.160133,31.978069 C 22.160133,31.978069 26.997745,27.140456 26.997745,27.140456 C 18.528582,18.264221 13.291696,25.230495 11.500037,31.436501 z"
             style="fill:#404040;"/>
          </a>
         </g>
        </svg>
</svg>
