<?xml version="1.0" encoding="UTF-8" standalone="no"?>
<!DOCTYPE svg PUBLIC "-//W3C//DTD SVG 1.1//EN"
 "http://www.w3.org/Graphics/SVG/1.1/DTD/svg11.dtd">
<!-- Generated by graphviz version 2.43.0 (0)
 -->
<!-- Title: SubListOfSpeciesFeatures.h Pages: 1 -->
<svg width="564pt" height="196pt"
 viewBox="0.00 0.00 563.50 196.00" xmlns="http://www.w3.org/2000/svg" xmlns:xlink="http://www.w3.org/1999/xlink">
<g id="graph0" class="graph" transform="scale(1 1) rotate(0) translate(4 192)">
<title>SubListOfSpeciesFeatures.h</title>
<polygon fill="white" stroke="transparent" points="-4,4 -4,-192 559.5,-192 559.5,4 -4,4"/>
<!-- Node1 -->
<g id="node1" class="node">
<title>Node1</title>
<g id="a_node1"><a xlink:title=": Implementation of the SubListOfSpeciesFeatures class">
<polygon fill="#bfbfbf" stroke="black" points="176,-168.5 176,-187.5 328,-187.5 328,-168.5 176,-168.5"/>
<text text-anchor="middle" x="252" y="-175.5" font-family="Helvetica,sans-Serif" font-size="10.00">SubListOfSpeciesFeatures.h</text>
</a>
</g>
</g>
<!-- Node2 -->
<g id="node2" class="node">
<title>Node2</title>
<g id="a_node2"><a xlink:href="_multi_extension_types_8h.html" target="_top" xlink:title=": Implementation of the MultiExtensionTypes class">
<polygon fill="white" stroke="black" points="0,-56.5 0,-75.5 126,-75.5 126,-56.5 0,-56.5"/>
<text text-anchor="middle" x="63" y="-63.5" font-family="Helvetica,sans-Serif" font-size="10.00">MultiExtensionTypes.h</text>
</a>
</g>
</g>
<!-- Node1&#45;&gt;Node2 -->
<g id="edge1" class="edge">
<title>Node1&#45;&gt;Node2</title>
<path fill="none" stroke="midnightblue" d="M197.38,-165.86C171.78,-158.9 141.75,-148.12 118,-132 95.49,-116.73 76.93,-89.83 68.26,-75.91"/>
<polygon fill="midnightblue" stroke="midnightblue" points="196.76,-169.32 207.32,-168.43 198.51,-162.54 196.76,-169.32"/>
</g>
<!-- Node4 -->
<g id="node4" class="node">
<title>Node4</title>
<g id="a_node4"><a xlink:href="_multi_species_plugin_8h.html" target="_top" xlink:title=": Implementation of the MultiSpeciesPlugin class">
<polygon fill="white" stroke="black" points="127,-112.5 127,-131.5 245,-131.5 245,-112.5 127,-112.5"/>
<text text-anchor="middle" x="186" y="-119.5" font-family="Helvetica,sans-Serif" font-size="10.00">MultiSpeciesPlugin.h</text>
</a>
</g>
</g>
<!-- Node1&#45;&gt;Node4 -->
<g id="edge3" class="edge">
<title>Node1&#45;&gt;Node4</title>
<path fill="none" stroke="midnightblue" d="M233.45,-161.82C221.62,-152.15 206.71,-139.95 196.8,-131.83"/>
<polygon fill="midnightblue" stroke="midnightblue" points="231.44,-164.7 241.4,-168.32 235.87,-159.28 231.44,-164.7"/>
</g>
<!-- Node7 -->
<g id="node7" class="node">
<title>Node7</title>
<g id="a_node7"><a xlink:href="_species_feature_8cpp.html" target="_top" xlink:title=": Implementation of the SpeciesFeature class">
<polygon fill="white" stroke="black" points="263.5,-112.5 263.5,-131.5 374.5,-131.5 374.5,-112.5 263.5,-112.5"/>
<text text-anchor="middle" x="319" y="-119.5" font-family="Helvetica,sans-Serif" font-size="10.00">SpeciesFeature.cpp</text>
</a>
</g>
</g>
<!-- Node1&#45;&gt;Node7 -->
<g id="edge7" class="edge">
<title>Node1&#45;&gt;Node7</title>
<path fill="none" stroke="midnightblue" d="M270.83,-161.82C282.84,-152.15 297.97,-139.95 308.04,-131.83"/>
<polygon fill="midnightblue" stroke="midnightblue" points="268.35,-159.32 262.76,-168.32 272.75,-164.77 268.35,-159.32"/>
</g>
<!-- Node8 -->
<g id="node8" class="node">
<title>Node8</title>
<g id="a_node8"><a xlink:href="_sub_list_of_species_features_8cpp.html" target="_top" xlink:title=": Implementation of the SubListOfSpeciesFeatures class">
<polygon fill="white" stroke="black" points="392.5,-112.5 392.5,-131.5 555.5,-131.5 555.5,-112.5 392.5,-112.5"/>
<text text-anchor="middle" x="474" y="-119.5" font-family="Helvetica,sans-Serif" font-size="10.00">SubListOfSpeciesFeatures.cpp</text>
</a>
</g>
</g>
<!-- Node1&#45;&gt;Node8 -->
<g id="edge8" class="edge">
<title>Node1&#45;&gt;Node8</title>
<path fill="none" stroke="midnightblue" d="M297.12,-166.02C339.06,-155.82 400.65,-140.84 438.99,-131.52"/>
<polygon fill="midnightblue" stroke="midnightblue" points="296.07,-162.68 287.18,-168.44 297.72,-169.48 296.07,-162.68"/>
</g>
<!-- Node3 -->
<g id="node3" class="node">
<title>Node3</title>
<g id="a_node3"><a xlink:href="_multi_validator_8cpp.html" target="_top" xlink:title=": Implementation of the MultiValidator class">
<polygon fill="white" stroke="black" points="11,-0.5 11,-19.5 115,-19.5 115,-0.5 11,-0.5"/>
<text text-anchor="middle" x="63" y="-7.5" font-family="Helvetica,sans-Serif" font-size="10.00">MultiValidator.cpp</text>
</a>
</g>
</g>
<!-- Node2&#45;&gt;Node3 -->
<g id="edge2" class="edge">
<title>Node2&#45;&gt;Node3</title>
<path fill="none" stroke="midnightblue" d="M63,-45.8C63,-36.91 63,-26.78 63,-19.75"/>
<polygon fill="midnightblue" stroke="midnightblue" points="59.5,-46.08 63,-56.08 66.5,-46.08 59.5,-46.08"/>
</g>
<!-- Node4&#45;&gt;Node2 -->
<g id="edge4" class="edge">
<title>Node4&#45;&gt;Node2</title>
<path fill="none" stroke="midnightblue" d="M157.23,-108.37C134.19,-98.26 102.52,-84.35 82.4,-75.52"/>
<polygon fill="midnightblue" stroke="midnightblue" points="155.95,-111.63 166.51,-112.44 158.76,-105.22 155.95,-111.63"/>
</g>
<!-- Node5 -->
<g id="node5" class="node">
<title>Node5</title>
<g id="a_node5"><a xlink:href="_multi_extension_8cpp.html" target="_top" xlink:title=": Implementation of the MultiExtension class">
<polygon fill="white" stroke="black" points="144,-56.5 144,-75.5 254,-75.5 254,-56.5 144,-56.5"/>
<text text-anchor="middle" x="199" y="-63.5" font-family="Helvetica,sans-Serif" font-size="10.00">MultiExtension.cpp</text>
</a>
</g>
</g>
<!-- Node4&#45;&gt;Node5 -->
<g id="edge5" class="edge">
<title>Node4&#45;&gt;Node5</title>
<path fill="none" stroke="midnightblue" d="M190.55,-102.1C192.71,-93.14 195.18,-82.86 196.89,-75.75"/>
<polygon fill="midnightblue" stroke="midnightblue" points="187.08,-101.54 188.15,-112.08 193.89,-103.18 187.08,-101.54"/>
</g>
<!-- Node6 -->
<g id="node6" class="node">
<title>Node6</title>
<g id="a_node6"><a xlink:href="_multi_species_plugin_8cpp.html" target="_top" xlink:title=": Implementation of the MultiSpeciesPlugin class">
<polygon fill="white" stroke="black" points="272.5,-56.5 272.5,-75.5 401.5,-75.5 401.5,-56.5 272.5,-56.5"/>
<text text-anchor="middle" x="337" y="-63.5" font-family="Helvetica,sans-Serif" font-size="10.00">MultiSpeciesPlugin.cpp</text>
</a>
</g>
</g>
<!-- Node4&#45;&gt;Node6 -->
<g id="edge6" class="edge">
<title>Node4&#45;&gt;Node6</title>
<path fill="none" stroke="midnightblue" d="M219.45,-109.04C247.86,-98.88 287.94,-84.55 313.19,-75.52"/>
<polygon fill="midnightblue" stroke="midnightblue" points="218.16,-105.78 209.93,-112.44 220.52,-112.37 218.16,-105.78"/>
</g>
</g>
</svg>
