<?xml version="1.0" encoding="UTF-8" standalone="no"?>
<!DOCTYPE svg PUBLIC "-//W3C//DTD SVG 1.1//EN"
 "http://www.w3.org/Graphics/SVG/1.1/DTD/svg11.dtd">
<!-- Generated by graphviz version 2.43.0 (0)
 -->
<!-- Title: TextGlyph.h Pages: 1 -->
<!--zoomable 252 -->
<svg id="main" version="1.1" xmlns="http://www.w3.org/2000/svg" xmlns:xlink="http://www.w3.org/1999/xlink" xml:space="preserve" onload="init(evt)">
<style type="text/css"><![CDATA[
.edge:hover path { stroke: red; }
.edge:hover polygon { stroke: red; fill: red; }
]]></style>
<script type="text/javascript"><![CDATA[
var edges = document.getElementsByTagName('g');
if (edges && edges.length) {
  for (var i=0;i<edges.length;i++) {
    if (edges[i].id.substr(0,4)=='edge') {
      edges[i].setAttribute('class','edge');
    }
  }
}
]]></script>
        <defs>
                <circle id="rim" cx="0" cy="0" r="7"/>
                <circle id="rim2" cx="0" cy="0" r="3.5"/>
                <g id="zoomPlus">
                        <use xlink:href="#rim" fill="#404040">
                                <set attributeName="fill" to="#808080" begin="zoomplus.mouseover" end="zoomplus.mouseout"/>
                        </use>
                        <path d="M-4,0h8M0,-4v8" fill="none" stroke="white" stroke-width="1.5" pointer-events="none"/>
                </g>
                <g id="zoomMin">
                        <use xlink:href="#rim" fill="#404040">
                                <set attributeName="fill" to="#808080" begin="zoomminus.mouseover" end="zoomminus.mouseout"/>
                        </use>
                        <path d="M-4,0h8" fill="none" stroke="white" stroke-width="1.5" pointer-events="none"/>
                </g>
                <g id="dirArrow">
                        <path fill="none" stroke="white" stroke-width="1.5" d="M0,-3.0v7 M-2.5,-0.5L0,-3.0L2.5,-0.5"/>
                </g>
               <g id="resetDef">
                       <use xlink:href="#rim2" fill="#404040">
                               <set attributeName="fill" to="#808080" begin="reset.mouseover" end="reset.mouseout"/>
                       </use>
               </g>
        </defs>

<script type="text/javascript">
var viewWidth = 3414;
var viewHeight = 252;
var sectionId = 'dynsection-1';
</script>
<script xlink:href="svgpan.js"/>
<svg id="graph" class="graph">
<g id="viewport">
<title>TextGlyph.h</title>
<polygon fill="white" stroke="transparent" points="-4,4 -4,-248 3410.39,-248 3410.39,4 -4,4"/>
<!-- Node1 -->
<g id="node1" class="node">
<title>Node1</title>
<g id="a_node1"><a xlink:title="Definition of TextGlyph for SBML Layout.">
<polygon fill="#bfbfbf" stroke="black" points="533.39,-224.5 533.39,-243.5 607.39,-243.5 607.39,-224.5 533.39,-224.5"/>
<text text-anchor="middle" x="570.39" y="-231.5" font-family="Helvetica,sans-Serif" font-size="10.00">TextGlyph.h</text>
</a>
</g>
</g>
<!-- Node2 -->
<g id="node2" class="node">
<title>Node2</title>
<g id="a_node2"><a xlink:href="_layout_extension_types_8h.html" target="_top" xlink:title="Include all SBML types of layout extension in a single header file.">
<polygon fill="white" stroke="black" points="403.39,-56.5 403.39,-75.5 537.39,-75.5 537.39,-56.5 403.39,-56.5"/>
<text text-anchor="middle" x="470.39" y="-63.5" font-family="Helvetica,sans-Serif" font-size="10.00">LayoutExtensionTypes.h</text>
</a>
</g>
</g>
<!-- Node1&#45;&gt;Node2 -->
<g id="edge1" class="edge">
<title>Node1&#45;&gt;Node2</title>
<path fill="none" stroke="midnightblue" d="M522.77,-232.12C398.48,-228.71 69.36,-212.14 4.39,-132 -1.21,-125.1 -1.59,-118.58 4.39,-112 30.65,-83.08 280.28,-72.22 402.97,-68.6"/>
<polygon fill="midnightblue" stroke="midnightblue" points="523.02,-235.63 533.11,-232.39 523.2,-228.63 523.02,-235.63"/>
</g>
<!-- Node8 -->
<g id="node8" class="node">
<title>Node8</title>
<g id="a_node8"><a xlink:href="_general_glyph_8cpp.html" target="_top" xlink:title="Implementation of GeneralGlyph for SBML Layout.">
<polygon fill="white" stroke="black" points="13.39,-112.5 13.39,-131.5 117.39,-131.5 117.39,-112.5 13.39,-112.5"/>
<text text-anchor="middle" x="65.39" y="-119.5" font-family="Helvetica,sans-Serif" font-size="10.00">GeneralGlyph.cpp</text>
</a>
</g>
</g>
<!-- Node1&#45;&gt;Node8 -->
<g id="edge7" class="edge">
<title>Node1&#45;&gt;Node8</title>
<path fill="none" stroke="midnightblue" d="M523.24,-222.73C424.25,-201.17 196.34,-151.52 104.65,-131.55"/>
<polygon fill="midnightblue" stroke="midnightblue" points="522.74,-226.2 533.25,-224.91 524.23,-219.36 522.74,-226.2"/>
</g>
<!-- Node9 -->
<g id="node9" class="node">
<title>Node9</title>
<g id="a_node9"><a xlink:href="_layout_8h.html" target="_top" xlink:title="Definition of Layout for SBML Layout.">
<polygon fill="white" stroke="black" points="725.89,-168.5 725.89,-187.5 784.89,-187.5 784.89,-168.5 725.89,-168.5"/>
<text text-anchor="middle" x="755.39" y="-175.5" font-family="Helvetica,sans-Serif" font-size="10.00">Layout.h</text>
</a>
</g>
</g>
<!-- Node1&#45;&gt;Node9 -->
<g id="edge8" class="edge">
<title>Node1&#45;&gt;Node9</title>
<path fill="none" stroke="midnightblue" d="M609.55,-221.57C644.45,-211.38 694.74,-196.7 726.21,-187.52"/>
<polygon fill="midnightblue" stroke="midnightblue" points="608.32,-218.28 599.7,-224.44 610.28,-225 608.32,-218.28"/>
</g>
<!-- Node22 -->
<g id="node22" class="node">
<title>Node22</title>
<g id="a_node22"><a xlink:href="_text_glyph_8cpp.html" target="_top" xlink:title="Implementation of TextGlyph for SBML Layout.">
<polygon fill="white" stroke="black" points="2246.39,-112.5 2246.39,-131.5 2332.39,-131.5 2332.39,-112.5 2246.39,-112.5"/>
<text text-anchor="middle" x="2289.39" y="-119.5" font-family="Helvetica,sans-Serif" font-size="10.00">TextGlyph.cpp</text>
</a>
</g>
</g>
<!-- Node1&#45;&gt;Node22 -->
<g id="edge51" class="edge">
<title>Node1&#45;&gt;Node22</title>
<path fill="none" stroke="midnightblue" d="M617.51,-232C815.32,-227.41 1597.94,-205.35 2236.39,-132 2239.63,-131.63 2242.98,-131.19 2246.34,-130.71"/>
<polygon fill="midnightblue" stroke="midnightblue" points="617.37,-228.5 607.45,-232.23 617.53,-235.5 617.37,-228.5"/>
</g>
<!-- Node3 -->
<g id="node3" class="node">
<title>Node3</title>
<g id="a_node3"><a xlink:href="_graphical_object_8cpp.html" target="_top" xlink:title="Implementation of GraphicalObject for SBML Layout.">
<polygon fill="white" stroke="black" points="121.89,-0.5 121.89,-19.5 236.89,-19.5 236.89,-0.5 121.89,-0.5"/>
<text text-anchor="middle" x="179.39" y="-7.5" font-family="Helvetica,sans-Serif" font-size="10.00">GraphicalObject.cpp</text>
</a>
</g>
</g>
<!-- Node2&#45;&gt;Node3 -->
<g id="edge2" class="edge">
<title>Node2&#45;&gt;Node3</title>
<path fill="none" stroke="midnightblue" d="M414.35,-54.6C359.35,-44.4 276.49,-29.02 225.28,-19.52"/>
<polygon fill="midnightblue" stroke="midnightblue" points="413.81,-58.06 424.28,-56.44 415.08,-51.18 413.81,-58.06"/>
</g>
<!-- Node4 -->
<g id="node4" class="node">
<title>Node4</title>
<g id="a_node4"><a xlink:href="_layout_validator_8cpp.html" target="_top" xlink:title="Implementation of the LayoutValidator class.">
<polygon fill="white" stroke="black" points="254.89,-0.5 254.89,-19.5 367.89,-19.5 367.89,-0.5 254.89,-0.5"/>
<text text-anchor="middle" x="311.39" y="-7.5" font-family="Helvetica,sans-Serif" font-size="10.00">LayoutValidator.cpp</text>
</a>
</g>
</g>
<!-- Node2&#45;&gt;Node4 -->
<g id="edge3" class="edge">
<title>Node2&#45;&gt;Node4</title>
<path fill="none" stroke="midnightblue" d="M435.56,-53.17C405.62,-43 363.17,-28.59 336.46,-19.52"/>
<polygon fill="midnightblue" stroke="midnightblue" points="434.6,-56.54 445.19,-56.44 436.85,-49.91 434.6,-56.54"/>
</g>
<!-- Node5 -->
<g id="node5" class="node">
<title>Node5</title>
<g id="a_node5"><a xlink:href="_render_list_of_layouts_plugin_8cpp.html" target="_top" xlink:title="Implementation of RenderListOfLayoutsPlugin, the plugin class of the fbc package for the Model elemen...">
<polygon fill="white" stroke="black" points="386.39,-0.5 386.39,-19.5 554.39,-19.5 554.39,-0.5 386.39,-0.5"/>
<text text-anchor="middle" x="470.39" y="-7.5" font-family="Helvetica,sans-Serif" font-size="10.00">RenderListOfLayoutsPlugin.cpp</text>
</a>
</g>
</g>
<!-- Node2&#45;&gt;Node5 -->
<g id="edge4" class="edge">
<title>Node2&#45;&gt;Node5</title>
<path fill="none" stroke="midnightblue" d="M470.39,-45.8C470.39,-36.91 470.39,-26.78 470.39,-19.75"/>
<polygon fill="midnightblue" stroke="midnightblue" points="466.89,-46.08 470.39,-56.08 473.89,-46.08 466.89,-46.08"/>
</g>
<!-- Node6 -->
<g id="node6" class="node">
<title>Node6</title>
<g id="a_node6"><a xlink:href="_render_layout_converter_8cpp.html" target="_top" xlink:title="Simple converter to convert Layout + Render from l2 to L3 and vice versa.">
<polygon fill="white" stroke="black" points="572.39,-0.5 572.39,-19.5 724.39,-19.5 724.39,-0.5 572.39,-0.5"/>
<text text-anchor="middle" x="648.39" y="-7.5" font-family="Helvetica,sans-Serif" font-size="10.00">RenderLayoutConverter.cpp</text>
</a>
</g>
</g>
<!-- Node2&#45;&gt;Node6 -->
<g id="edge5" class="edge">
<title>Node2&#45;&gt;Node6</title>
<path fill="none" stroke="midnightblue" d="M508.5,-53.44C542.07,-43.26 590.16,-28.66 620.31,-19.52"/>
<polygon fill="midnightblue" stroke="midnightblue" points="507.15,-50.19 498.59,-56.44 509.18,-56.89 507.15,-50.19"/>
</g>
<!-- Node7 -->
<g id="node7" class="node">
<title>Node7</title>
<g id="a_node7"><a xlink:href="_render_utilities_8cpp.html" target="_top" xlink:title="implementation of RenderUtilities, a class of utility functions for the render package">
<polygon fill="white" stroke="black" points="742.39,-0.5 742.39,-19.5 852.39,-19.5 852.39,-0.5 742.39,-0.5"/>
<text text-anchor="middle" x="797.39" y="-7.5" font-family="Helvetica,sans-Serif" font-size="10.00">RenderUtilities.cpp</text>
</a>
</g>
</g>
<!-- Node2&#45;&gt;Node7 -->
<g id="edge6" class="edge">
<title>Node2&#45;&gt;Node7</title>
<path fill="none" stroke="midnightblue" d="M532.21,-54.79C594,-44.59 687.91,-29.08 745.82,-19.52"/>
<polygon fill="midnightblue" stroke="midnightblue" points="531.5,-51.36 522.2,-56.44 532.64,-58.27 531.5,-51.36"/>
</g>
<!-- Node9&#45;&gt;Node2 -->
<g id="edge9" class="edge">
<title>Node9&#45;&gt;Node2</title>
<path fill="none" stroke="midnightblue" d="M771.91,-160.6C784.14,-146.48 796.7,-126.21 784.39,-112 780.35,-107.34 628.44,-87.2 537.43,-75.5"/>
<polygon fill="midnightblue" stroke="midnightblue" points="769.19,-158.4 764.95,-168.11 774.32,-163.16 769.19,-158.4"/>
</g>
<!-- Node9&#45;&gt;Node8 -->
<g id="edge21" class="edge">
<title>Node9&#45;&gt;Node8</title>
<path fill="none" stroke="midnightblue" d="M715.65,-175.19C616.17,-170.45 348.47,-156.29 126.39,-132 123.51,-131.69 120.57,-131.34 117.6,-130.97"/>
<polygon fill="midnightblue" stroke="midnightblue" points="715.69,-178.7 725.84,-175.68 716.02,-171.71 715.69,-178.7"/>
</g>
<!-- Node10 -->
<g id="node10" class="node">
<title>Node10</title>
<g id="a_node10"><a xlink:href="_layout_model_plugin_8h.html" target="_top" xlink:title="Definition of LayoutModelPlugin, the plugin class of layout package for Model element.">
<polygon fill="white" stroke="black" points="831.89,-112.5 831.89,-131.5 950.89,-131.5 950.89,-112.5 831.89,-112.5"/>
<text text-anchor="middle" x="891.39" y="-119.5" font-family="Helvetica,sans-Serif" font-size="10.00">LayoutModelPlugin.h</text>
</a>
</g>
</g>
<!-- Node9&#45;&gt;Node10 -->
<g id="edge10" class="edge">
<title>Node9&#45;&gt;Node10</title>
<path fill="none" stroke="midnightblue" d="M786.52,-164.64C812.04,-154.5 847.5,-140.43 869.94,-131.52"/>
<polygon fill="midnightblue" stroke="midnightblue" points="784.94,-161.5 776.94,-168.44 787.52,-168.01 784.94,-161.5"/>
</g>
<!-- Node13 -->
<g id="node13" class="node">
<title>Node13</title>
<g id="a_node13"><a xlink:href="_layout_annotation_8cpp.html" target="_top" xlink:title="Layout annotation I/O.">
<polygon fill="white" stroke="black" points="829.89,-56.5 829.89,-75.5 952.89,-75.5 952.89,-56.5 829.89,-56.5"/>
<text text-anchor="middle" x="891.39" y="-63.5" font-family="Helvetica,sans-Serif" font-size="10.00">LayoutAnnotation.cpp</text>
</a>
</g>
</g>
<!-- Node9&#45;&gt;Node13 -->
<g id="edge27" class="edge">
<title>Node9&#45;&gt;Node13</title>
<path fill="none" stroke="midnightblue" d="M795.36,-175.46C891.73,-171.33 1130.72,-158.49 1154.39,-132 1160.31,-125.37 1160.12,-118.79 1154.39,-112 1147.89,-104.3 1028.73,-86.28 953.05,-75.52"/>
<polygon fill="midnightblue" stroke="midnightblue" points="794.98,-171.97 785.14,-175.89 795.28,-178.96 794.98,-171.97"/>
</g>
<!-- Node15 -->
<g id="node15" class="node">
<title>Node15</title>
<g id="a_node15"><a xlink:href="_layout_species_reference_plugin_8h.html" target="_top" xlink:title="Definition of LayoutSpeciesReferencePlugin, the plugin class of layout package (Level2) for the Speci...">
<polygon fill="white" stroke="black" points="969.39,-112.5 969.39,-131.5 1145.39,-131.5 1145.39,-112.5 969.39,-112.5"/>
<text text-anchor="middle" x="1057.39" y="-119.5" font-family="Helvetica,sans-Serif" font-size="10.00">LayoutSpeciesReferencePlugin.h</text>
</a>
</g>
</g>
<!-- Node9&#45;&gt;Node15 -->
<g id="edge16" class="edge">
<title>Node9&#45;&gt;Node15</title>
<path fill="none" stroke="midnightblue" d="M795,-169.92C850.29,-160.03 950.47,-142.12 1009.76,-131.52"/>
<polygon fill="midnightblue" stroke="midnightblue" points="794.12,-166.52 784.89,-171.72 795.35,-173.41 794.12,-166.52"/>
</g>
<!-- Node17 -->
<g id="node17" class="node">
<title>Node17</title>
<g id="a_node17"><a xlink:href="_compartment_glyph_8cpp.html" target="_top" xlink:title="Implementation of CompartmentGlyph for SBML Layout.">
<polygon fill="white" stroke="black" points="2094.89,-112.5 2094.89,-131.5 2227.89,-131.5 2227.89,-112.5 2094.89,-112.5"/>
<text text-anchor="middle" x="2161.39" y="-119.5" font-family="Helvetica,sans-Serif" font-size="10.00">CompartmentGlyph.cpp</text>
</a>
</g>
</g>
<!-- Node9&#45;&gt;Node17 -->
<g id="edge20" class="edge">
<title>Node9&#45;&gt;Node17</title>
<path fill="none" stroke="midnightblue" d="M795.32,-176.87C956.79,-176.1 1577.01,-170.63 2085.39,-132 2088.43,-131.77 2091.55,-131.51 2094.69,-131.22"/>
<polygon fill="midnightblue" stroke="midnightblue" points="794.91,-173.37 784.93,-176.92 794.94,-180.37 794.91,-173.37"/>
</g>
<!-- Node18 -->
<g id="node18" class="node">
<title>Node18</title>
<g id="a_node18"><a xlink:href="_layout_8cpp.html" target="_top" xlink:title="Implementation of Layout for SBML Layout.">
<polygon fill="white" stroke="black" points="135.39,-112.5 135.39,-131.5 205.39,-131.5 205.39,-112.5 135.39,-112.5"/>
<text text-anchor="middle" x="170.39" y="-119.5" font-family="Helvetica,sans-Serif" font-size="10.00">Layout.cpp</text>
</a>
</g>
</g>
<!-- Node9&#45;&gt;Node18 -->
<g id="edge22" class="edge">
<title>Node9&#45;&gt;Node18</title>
<path fill="none" stroke="midnightblue" d="M715.62,-175.31C625.85,-171.15 400.82,-158.72 214.39,-132 211.61,-131.6 208.74,-131.14 205.87,-130.63"/>
<polygon fill="midnightblue" stroke="midnightblue" points="715.48,-178.81 725.63,-175.77 715.8,-171.82 715.48,-178.81"/>
</g>
<!-- Node19 -->
<g id="node19" class="node">
<title>Node19</title>
<g id="a_node19"><a xlink:href="_reaction_glyph_8cpp.html" target="_top" xlink:title="Implementation of ReactionGlyph for SBML Layout.">
<polygon fill="white" stroke="black" points="223.39,-112.5 223.39,-131.5 331.39,-131.5 331.39,-112.5 223.39,-112.5"/>
<text text-anchor="middle" x="277.39" y="-119.5" font-family="Helvetica,sans-Serif" font-size="10.00">ReactionGlyph.cpp</text>
</a>
</g>
</g>
<!-- Node9&#45;&gt;Node19 -->
<g id="edge23" class="edge">
<title>Node9&#45;&gt;Node19</title>
<path fill="none" stroke="midnightblue" d="M715.39,-173.12C641.32,-165.83 477.8,-149.26 340.39,-132 337.54,-131.64 334.62,-131.26 331.67,-130.87"/>
<polygon fill="midnightblue" stroke="midnightblue" points="715.36,-176.63 725.66,-174.13 716.05,-169.67 715.36,-176.63"/>
</g>
<!-- Node20 -->
<g id="node20" class="node">
<title>Node20</title>
<g id="a_node20"><a xlink:href="_species_glyph_8cpp.html" target="_top" xlink:title="Implementation of SpeciesGlyph for SBML Layout.">
<polygon fill="white" stroke="black" points="349.89,-112.5 349.89,-131.5 452.89,-131.5 452.89,-112.5 349.89,-112.5"/>
<text text-anchor="middle" x="401.39" y="-119.5" font-family="Helvetica,sans-Serif" font-size="10.00">SpeciesGlyph.cpp</text>
</a>
</g>
</g>
<!-- Node9&#45;&gt;Node20 -->
<g id="edge24" class="edge">
<title>Node9&#45;&gt;Node20</title>
<path fill="none" stroke="midnightblue" d="M715.67,-170.94C651.35,-161.13 524.42,-141.77 453.12,-130.89"/>
<polygon fill="midnightblue" stroke="midnightblue" points="715.4,-174.44 725.81,-172.49 716.46,-167.52 715.4,-174.44"/>
</g>
<!-- Node21 -->
<g id="node21" class="node">
<title>Node21</title>
<g id="a_node21"><a xlink:href="_species_reference_glyph_8cpp.html" target="_top" xlink:title="Implementation of SpeciesReferenceGlyph for SBML Layout.">
<polygon fill="white" stroke="black" points="471.39,-112.5 471.39,-131.5 623.39,-131.5 623.39,-112.5 471.39,-112.5"/>
<text text-anchor="middle" x="547.39" y="-119.5" font-family="Helvetica,sans-Serif" font-size="10.00">SpeciesReferenceGlyph.cpp</text>
</a>
</g>
</g>
<!-- Node9&#45;&gt;Node21 -->
<g id="edge25" class="edge">
<title>Node9&#45;&gt;Node21</title>
<path fill="none" stroke="midnightblue" d="M715.81,-166.73C676.52,-156.52 616.98,-141.07 580.22,-131.52"/>
<polygon fill="midnightblue" stroke="midnightblue" points="715.03,-170.14 725.59,-169.26 716.79,-163.36 715.03,-170.14"/>
</g>
<!-- Node9&#45;&gt;Node22 -->
<g id="edge26" class="edge">
<title>Node9&#45;&gt;Node22</title>
<path fill="none" stroke="midnightblue" d="M795.09,-176.54C1000.57,-174.02 1945.01,-161.03 2236.39,-132 2239.64,-131.68 2242.99,-131.27 2246.36,-130.82"/>
<polygon fill="midnightblue" stroke="midnightblue" points="795,-173.04 785.05,-176.66 795.09,-180.04 795,-173.04"/>
</g>
<!-- Node23 -->
<g id="node23" class="node">
<title>Node23</title>
<g id="a_node23"><a xlink:href="_layout_annotation_8h.html" target="_top" xlink:title="Layout annotation I/O.">
<polygon fill="white" stroke="black" points="1964.39,-112.5 1964.39,-131.5 2076.39,-131.5 2076.39,-112.5 1964.39,-112.5"/>
<text text-anchor="middle" x="2020.39" y="-119.5" font-family="Helvetica,sans-Serif" font-size="10.00">LayoutAnnotation.h</text>
</a>
</g>
</g>
<!-- Node9&#45;&gt;Node23 -->
<g id="edge28" class="edge">
<title>Node9&#45;&gt;Node23</title>
<path fill="none" stroke="midnightblue" d="M795.15,-175.3C979.2,-167.45 1748.58,-134.6 1964.07,-125.4"/>
<polygon fill="midnightblue" stroke="midnightblue" points="794.94,-171.81 785.1,-175.73 795.24,-178.8 794.94,-171.81"/>
</g>
<!-- Node42 -->
<g id="node42" class="node">
<title>Node42</title>
<g id="a_node42"><a xlink:href="_render_layout_plugin_8cpp.html" target="_top" xlink:title="Implementation of RenderLayoutPlugin, the plugin class of the fbc package for the Model element.">
<polygon fill="white" stroke="black" points="641.39,-112.5 641.39,-131.5 775.39,-131.5 775.39,-112.5 641.39,-112.5"/>
<text text-anchor="middle" x="708.39" y="-119.5" font-family="Helvetica,sans-Serif" font-size="10.00">RenderLayoutPlugin.cpp</text>
</a>
</g>
</g>
<!-- Node9&#45;&gt;Node42 -->
<g id="edge50" class="edge">
<title>Node9&#45;&gt;Node42</title>
<path fill="none" stroke="midnightblue" d="M740.97,-160.43C732.73,-150.97 722.73,-139.48 716,-131.75"/>
<polygon fill="midnightblue" stroke="midnightblue" points="738.42,-162.84 747.63,-168.08 743.7,-158.24 738.42,-162.84"/>
</g>
<!-- Node10&#45;&gt;Node2 -->
<g id="edge11" class="edge">
<title>Node10&#45;&gt;Node2</title>
<path fill="none" stroke="midnightblue" d="M821.17,-111.99C742.1,-101.85 614.56,-85.49 537,-75.54"/>
<polygon fill="midnightblue" stroke="midnightblue" points="821.15,-115.52 831.52,-113.32 822.04,-108.58 821.15,-115.52"/>
</g>
<!-- Node11 -->
<g id="node11" class="node">
<title>Node11</title>
<g id="a_node11"><a xlink:href="_layout_extension_8cpp.html" target="_top" xlink:title="Implementation of LayoutExtension, the core module of layout package.">
<polygon fill="white" stroke="black" points="693.39,-56.5 693.39,-75.5 811.39,-75.5 811.39,-56.5 693.39,-56.5"/>
<text text-anchor="middle" x="752.39" y="-63.5" font-family="Helvetica,sans-Serif" font-size="10.00">LayoutExtension.cpp</text>
</a>
</g>
</g>
<!-- Node10&#45;&gt;Node11 -->
<g id="edge12" class="edge">
<title>Node10&#45;&gt;Node11</title>
<path fill="none" stroke="midnightblue" d="M859.91,-108.77C833.8,-98.63 797.35,-84.47 774.31,-75.52"/>
<polygon fill="midnightblue" stroke="midnightblue" points="858.77,-112.08 869.36,-112.44 861.31,-105.56 858.77,-112.08"/>
</g>
<!-- Node12 -->
<g id="node12" class="node">
<title>Node12</title>
<g id="a_node12"><a xlink:href="_layout_model_plugin_8cpp.html" target="_top" xlink:title="Implementation of LayoutModelPlugin, the plugin class of layout package for the Model element.">
<polygon fill="white" stroke="black" points="971.39,-56.5 971.39,-75.5 1101.39,-75.5 1101.39,-56.5 971.39,-56.5"/>
<text text-anchor="middle" x="1036.39" y="-63.5" font-family="Helvetica,sans-Serif" font-size="10.00">LayoutModelPlugin.cpp</text>
</a>
</g>
</g>
<!-- Node10&#45;&gt;Node12 -->
<g id="edge13" class="edge">
<title>Node10&#45;&gt;Node12</title>
<path fill="none" stroke="midnightblue" d="M923.86,-108.91C951.12,-98.75 989.38,-84.51 1013.52,-75.52"/>
<polygon fill="midnightblue" stroke="midnightblue" points="922.51,-105.67 914.36,-112.44 924.96,-112.23 922.51,-105.67"/>
</g>
<!-- Node10&#45;&gt;Node13 -->
<g id="edge14" class="edge">
<title>Node10&#45;&gt;Node13</title>
<path fill="none" stroke="midnightblue" d="M891.39,-101.8C891.39,-92.91 891.39,-82.78 891.39,-75.75"/>
<polygon fill="midnightblue" stroke="midnightblue" points="887.89,-102.08 891.39,-112.08 894.89,-102.08 887.89,-102.08"/>
</g>
<!-- Node14 -->
<g id="node14" class="node">
<title>Node14</title>
<g id="a_node14"><a xlink:href="_render_extension_8cpp.html" target="_top" xlink:title="Implementation of RenderExtension, the core module of the render package.">
<polygon fill="white" stroke="black" points="555.89,-56.5 555.89,-75.5 674.89,-75.5 674.89,-56.5 555.89,-56.5"/>
<text text-anchor="middle" x="615.39" y="-63.5" font-family="Helvetica,sans-Serif" font-size="10.00">RenderExtension.cpp</text>
</a>
</g>
</g>
<!-- Node10&#45;&gt;Node14 -->
<g id="edge15" class="edge">
<title>Node10&#45;&gt;Node14</title>
<path fill="none" stroke="midnightblue" d="M837.58,-110.47C785.42,-100.27 707.28,-84.98 658.92,-75.52"/>
<polygon fill="midnightblue" stroke="midnightblue" points="837.17,-113.96 847.65,-112.44 838.51,-107.09 837.17,-113.96"/>
</g>
<!-- Node15&#45;&gt;Node11 -->
<g id="edge17" class="edge">
<title>Node15&#45;&gt;Node11</title>
<path fill="none" stroke="midnightblue" d="M999.01,-110.66C941.37,-100.46 854.27,-85.04 800.49,-75.52"/>
<polygon fill="midnightblue" stroke="midnightblue" points="998.6,-114.15 1009.06,-112.44 999.82,-107.25 998.6,-114.15"/>
</g>
<!-- Node15&#45;&gt;Node13 -->
<g id="edge19" class="edge">
<title>Node15&#45;&gt;Node13</title>
<path fill="none" stroke="midnightblue" d="M1021.43,-109.3C990.16,-99.13 945.57,-84.62 917.57,-75.52"/>
<polygon fill="midnightblue" stroke="midnightblue" points="1020.49,-112.68 1031.08,-112.44 1022.66,-106.02 1020.49,-112.68"/>
</g>
<!-- Node16 -->
<g id="node16" class="node">
<title>Node16</title>
<g id="a_node16"><a xlink:href="_layout_species_reference_plugin_8cpp.html" target="_top" xlink:title="Implementation of LayoutSpeciesReferencePlugin, the plugin object of layout package (Level2) for the ...">
<polygon fill="white" stroke="black" points="1119.89,-56.5 1119.89,-75.5 1306.89,-75.5 1306.89,-56.5 1119.89,-56.5"/>
<text text-anchor="middle" x="1213.39" y="-63.5" font-family="Helvetica,sans-Serif" font-size="10.00">LayoutSpeciesReferencePlugin.cpp</text>
</a>
</g>
</g>
<!-- Node15&#45;&gt;Node16 -->
<g id="edge18" class="edge">
<title>Node15&#45;&gt;Node16</title>
<path fill="none" stroke="midnightblue" d="M1091.56,-109.17C1120.93,-99 1162.59,-84.59 1188.78,-75.52"/>
<polygon fill="midnightblue" stroke="midnightblue" points="1090.41,-105.86 1082.11,-112.44 1092.7,-112.48 1090.41,-105.86"/>
</g>
<!-- Node23&#45;&gt;Node12 -->
<g id="edge29" class="edge">
<title>Node23&#45;&gt;Node12</title>
<path fill="none" stroke="midnightblue" d="M1953.94,-119.34C1803.53,-115.24 1425.52,-102.92 1110.39,-76 1107.55,-75.76 1104.65,-75.49 1101.73,-75.2"/>
<polygon fill="midnightblue" stroke="midnightblue" points="1954.29,-122.86 1964.38,-119.63 1954.47,-115.86 1954.29,-122.86"/>
</g>
<!-- Node23&#45;&gt;Node13 -->
<g id="edge31" class="edge">
<title>Node23&#45;&gt;Node13</title>
<path fill="none" stroke="midnightblue" d="M1954.27,-120.11C1787.58,-117.44 1336.74,-107.63 962.39,-76 959.29,-75.74 956.12,-75.44 952.93,-75.12"/>
<polygon fill="midnightblue" stroke="midnightblue" points="1954.31,-123.61 1964.36,-120.26 1954.42,-116.61 1954.31,-123.61"/>
</g>
<!-- Node23&#45;&gt;Node16 -->
<g id="edge30" class="edge">
<title>Node23&#45;&gt;Node16</title>
<path fill="none" stroke="midnightblue" d="M1954.07,-117.28C1829.21,-110.16 1550.69,-93.72 1316.39,-76 1313.34,-75.77 1310.25,-75.53 1307.13,-75.28"/>
<polygon fill="midnightblue" stroke="midnightblue" points="1954.05,-120.78 1964.23,-117.86 1954.45,-113.79 1954.05,-120.78"/>
</g>
<!-- Node24 -->
<g id="node24" class="node">
<title>Node24</title>
<g id="a_node24"><a xlink:href="_ellipse_8cpp.html" target="_top" xlink:title="Implementation of the Ellipse class.">
<polygon fill="white" stroke="black" points="2734.89,-56.5 2734.89,-75.5 2803.89,-75.5 2803.89,-56.5 2734.89,-56.5"/>
<text text-anchor="middle" x="2769.39" y="-63.5" font-family="Helvetica,sans-Serif" font-size="10.00">Ellipse.cpp</text>
</a>
</g>
</g>
<!-- Node23&#45;&gt;Node24 -->
<g id="edge32" class="edge">
<title>Node23&#45;&gt;Node24</title>
<path fill="none" stroke="midnightblue" d="M2086.92,-111.93C2371.15,-85.08 2446.82,-112.9 2726.39,-76 2729.11,-75.64 2731.92,-75.2 2734.73,-74.72"/>
<polygon fill="midnightblue" stroke="midnightblue" points="2086.34,-108.47 2076.72,-112.91 2087.01,-115.44 2086.34,-108.47"/>
</g>
<!-- Node25 -->
<g id="node25" class="node">
<title>Node25</title>
<g id="a_node25"><a xlink:href="_global_style_8cpp.html" target="_top" xlink:title="Implementation of the GlobalStyle class.">
<polygon fill="white" stroke="black" points="2821.89,-56.5 2821.89,-75.5 2914.89,-75.5 2914.89,-56.5 2821.89,-56.5"/>
<text text-anchor="middle" x="2868.39" y="-63.5" font-family="Helvetica,sans-Serif" font-size="10.00">GlobalStyle.cpp</text>
</a>
</g>
</g>
<!-- Node23&#45;&gt;Node25 -->
<g id="edge33" class="edge">
<title>Node23&#45;&gt;Node25</title>
<path fill="none" stroke="midnightblue" d="M2086.83,-111.95C2409.66,-82.33 2494.55,-109.86 2813.39,-76 2816.08,-75.71 2818.84,-75.38 2821.63,-75.02"/>
<polygon fill="midnightblue" stroke="midnightblue" points="2086.36,-108.48 2076.72,-112.89 2087,-115.45 2086.36,-108.48"/>
</g>
<!-- Node26 -->
<g id="node26" class="node">
<title>Node26</title>
<g id="a_node26"><a xlink:href="_gradient_stop_8cpp.html" target="_top" xlink:title="class representing a stop in a gradient definition">
<polygon fill="white" stroke="black" points="2932.89,-56.5 2932.89,-75.5 3033.89,-75.5 3033.89,-56.5 2932.89,-56.5"/>
<text text-anchor="middle" x="2983.39" y="-63.5" font-family="Helvetica,sans-Serif" font-size="10.00">GradientStop.cpp</text>
</a>
</g>
</g>
<!-- Node23&#45;&gt;Node26 -->
<g id="edge34" class="edge">
<title>Node23&#45;&gt;Node26</title>
<path fill="none" stroke="midnightblue" d="M2086.68,-111.97C2458.81,-78.96 2556.18,-111.88 2924.39,-76 2927.07,-75.74 2929.81,-75.44 2932.58,-75.11"/>
<polygon fill="midnightblue" stroke="midnightblue" points="2086.37,-108.49 2076.72,-112.87 2086.99,-115.46 2086.37,-108.49"/>
</g>
<!-- Node27 -->
<g id="node27" class="node">
<title>Node27</title>
<g id="a_node27"><a xlink:href="_image_8cpp.html" target="_top" xlink:title="Implementation of the Image class.">
<polygon fill="white" stroke="black" points="3052.39,-56.5 3052.39,-75.5 3120.39,-75.5 3120.39,-56.5 3052.39,-56.5"/>
<text text-anchor="middle" x="3086.39" y="-63.5" font-family="Helvetica,sans-Serif" font-size="10.00">Image.cpp</text>
</a>
</g>
</g>
<!-- Node23&#45;&gt;Node27 -->
<g id="edge35" class="edge">
<title>Node23&#45;&gt;Node27</title>
<path fill="none" stroke="midnightblue" d="M2086.81,-111.97C2511.58,-75.56 2623.78,-127.42 3043.39,-76 3046.26,-75.65 3049.23,-75.2 3052.21,-74.7"/>
<polygon fill="midnightblue" stroke="midnightblue" points="2086.38,-108.5 2076.72,-112.85 2086.98,-115.47 2086.38,-108.5"/>
</g>
<!-- Node28 -->
<g id="node28" class="node">
<title>Node28</title>
<g id="a_node28"><a xlink:href="_linear_gradient_8cpp.html" target="_top" xlink:title="Implementation of the LinearGradient class.">
<polygon fill="white" stroke="black" points="3138.89,-56.5 3138.89,-75.5 3247.89,-75.5 3247.89,-56.5 3138.89,-56.5"/>
<text text-anchor="middle" x="3193.39" y="-63.5" font-family="Helvetica,sans-Serif" font-size="10.00">LinearGradient.cpp</text>
</a>
</g>
</g>
<!-- Node23&#45;&gt;Node28 -->
<g id="edge36" class="edge">
<title>Node23&#45;&gt;Node28</title>
<path fill="none" stroke="midnightblue" d="M2087.02,-111.96C2549.71,-72.75 2670.26,-116.09 3129.39,-76 3132.41,-75.74 3135.5,-75.43 3138.62,-75.09"/>
<polygon fill="midnightblue" stroke="midnightblue" points="2086.38,-108.5 2076.72,-112.84 2086.98,-115.47 2086.38,-108.5"/>
</g>
<!-- Node29 -->
<g id="node29" class="node">
<title>Node29</title>
<g id="a_node29"><a xlink:href="_list_of_curve_elements_8cpp.html" target="_top" xlink:title="storage class for curve elements">
<polygon fill="white" stroke="black" points="3266.39,-56.5 3266.39,-75.5 3406.39,-75.5 3406.39,-56.5 3266.39,-56.5"/>
<text text-anchor="middle" x="3336.39" y="-63.5" font-family="Helvetica,sans-Serif" font-size="10.00">ListOfCurveElements.cpp</text>
</a>
</g>
</g>
<!-- Node23&#45;&gt;Node29 -->
<g id="edge37" class="edge">
<title>Node23&#45;&gt;Node29</title>
<path fill="none" stroke="midnightblue" d="M2086.72,-111.99C2606.38,-68.77 2740.91,-113.29 3257.39,-76 3260.28,-75.79 3263.23,-75.56 3266.2,-75.3"/>
<polygon fill="midnightblue" stroke="midnightblue" points="2086.39,-108.5 2076.72,-112.83 2086.97,-115.48 2086.39,-108.5"/>
</g>
<!-- Node30 -->
<g id="node30" class="node">
<title>Node30</title>
<g id="a_node30"><a xlink:href="_list_of_gradient_stops_8cpp.html" target="_top" xlink:title="Implementation of the ListOfGradientStops class.">
<polygon fill="white" stroke="black" points="1325.39,-56.5 1325.39,-75.5 1459.39,-75.5 1459.39,-56.5 1325.39,-56.5"/>
<text text-anchor="middle" x="1392.39" y="-63.5" font-family="Helvetica,sans-Serif" font-size="10.00">ListOfGradientStops.cpp</text>
</a>
</g>
</g>
<!-- Node23&#45;&gt;Node30 -->
<g id="edge38" class="edge">
<title>Node23&#45;&gt;Node30</title>
<path fill="none" stroke="midnightblue" d="M1954.3,-116.4C1850.65,-109 1643.62,-93.51 1468.39,-76 1465.48,-75.71 1462.51,-75.4 1459.51,-75.08"/>
<polygon fill="midnightblue" stroke="midnightblue" points="1954.08,-119.89 1964.3,-117.11 1954.58,-112.91 1954.08,-119.89"/>
</g>
<!-- Node31 -->
<g id="node31" class="node">
<title>Node31</title>
<g id="a_node31"><a xlink:href="_local_render_information_8cpp.html" target="_top" xlink:title="Implementation of the LocalRenderInformation class.">
<polygon fill="white" stroke="black" points="1477.39,-56.5 1477.39,-75.5 1631.39,-75.5 1631.39,-56.5 1477.39,-56.5"/>
<text text-anchor="middle" x="1554.39" y="-63.5" font-family="Helvetica,sans-Serif" font-size="10.00">LocalRenderInformation.cpp</text>
</a>
</g>
</g>
<!-- Node23&#45;&gt;Node31 -->
<g id="edge39" class="edge">
<title>Node23&#45;&gt;Node31</title>
<path fill="none" stroke="midnightblue" d="M1953.99,-113.31C1867.76,-103.31 1717.71,-85.93 1628.06,-75.54"/>
<polygon fill="midnightblue" stroke="midnightblue" points="1953.84,-116.81 1964.18,-114.49 1954.65,-109.86 1953.84,-116.81"/>
</g>
<!-- Node32 -->
<g id="node32" class="node">
<title>Node32</title>
<g id="a_node32"><a xlink:href="_local_style_8cpp.html" target="_top" xlink:title="class for representing a local style">
<polygon fill="white" stroke="black" points="1649.89,-56.5 1649.89,-75.5 1736.89,-75.5 1736.89,-56.5 1649.89,-56.5"/>
<text text-anchor="middle" x="1693.39" y="-63.5" font-family="Helvetica,sans-Serif" font-size="10.00">LocalStyle.cpp</text>
</a>
</g>
</g>
<!-- Node23&#45;&gt;Node32 -->
<g id="edge40" class="edge">
<title>Node23&#45;&gt;Node32</title>
<path fill="none" stroke="midnightblue" d="M1958.06,-110.86C1902.52,-101.81 1819.01,-88.13 1746.39,-76 1743.35,-75.49 1740.21,-74.97 1737.06,-74.43"/>
<polygon fill="midnightblue" stroke="midnightblue" points="1957.67,-114.34 1968.1,-112.5 1958.79,-107.44 1957.67,-114.34"/>
</g>
<!-- Node33 -->
<g id="node33" class="node">
<title>Node33</title>
<g id="a_node33"><a xlink:href="_polygon_8cpp.html" target="_top" xlink:title="Implementation of the Polygon class.">
<polygon fill="white" stroke="black" points="1755.39,-56.5 1755.39,-75.5 1831.39,-75.5 1831.39,-56.5 1755.39,-56.5"/>
<text text-anchor="middle" x="1793.39" y="-63.5" font-family="Helvetica,sans-Serif" font-size="10.00">Polygon.cpp</text>
</a>
</g>
</g>
<!-- Node23&#45;&gt;Node33 -->
<g id="edge41" class="edge">
<title>Node23&#45;&gt;Node33</title>
<path fill="none" stroke="midnightblue" d="M1974.52,-110.09C1931.63,-99.89 1868.47,-84.86 1829.19,-75.52"/>
<polygon fill="midnightblue" stroke="midnightblue" points="1973.88,-113.53 1984.42,-112.44 1975.5,-106.72 1973.88,-113.53"/>
</g>
<!-- Node34 -->
<g id="node34" class="node">
<title>Node34</title>
<g id="a_node34"><a xlink:href="_radial_gradient_8cpp.html" target="_top" xlink:title="Implementation of the RadialGradient class.">
<polygon fill="white" stroke="black" points="1849.39,-56.5 1849.39,-75.5 1959.39,-75.5 1959.39,-56.5 1849.39,-56.5"/>
<text text-anchor="middle" x="1904.39" y="-63.5" font-family="Helvetica,sans-Serif" font-size="10.00">RadialGradient.cpp</text>
</a>
</g>
</g>
<!-- Node23&#45;&gt;Node34 -->
<g id="edge42" class="edge">
<title>Node23&#45;&gt;Node34</title>
<path fill="none" stroke="midnightblue" d="M1992.67,-108.1C1971,-98.01 1941.49,-84.27 1922.68,-75.52"/>
<polygon fill="midnightblue" stroke="midnightblue" points="1991.46,-111.4 2002.01,-112.44 1994.42,-105.05 1991.46,-111.4"/>
</g>
<!-- Node35 -->
<g id="node35" class="node">
<title>Node35</title>
<g id="a_node35"><a xlink:href="_rectangle_8cpp.html" target="_top" xlink:title="Implementation of the Rectangle class.">
<polygon fill="white" stroke="black" points="1977.39,-56.5 1977.39,-75.5 2063.39,-75.5 2063.39,-56.5 1977.39,-56.5"/>
<text text-anchor="middle" x="2020.39" y="-63.5" font-family="Helvetica,sans-Serif" font-size="10.00">Rectangle.cpp</text>
</a>
</g>
</g>
<!-- Node23&#45;&gt;Node35 -->
<g id="edge43" class="edge">
<title>Node23&#45;&gt;Node35</title>
<path fill="none" stroke="midnightblue" d="M2020.39,-101.8C2020.39,-92.91 2020.39,-82.78 2020.39,-75.75"/>
<polygon fill="midnightblue" stroke="midnightblue" points="2016.89,-102.08 2020.39,-112.08 2023.89,-102.08 2016.89,-102.08"/>
</g>
<!-- Node36 -->
<g id="node36" class="node">
<title>Node36</title>
<g id="a_node36"><a xlink:href="_render_cubic_bezier_8cpp.html" target="_top" xlink:title="Implementation of the RenderCubicBezier class.">
<polygon fill="white" stroke="black" points="2081.39,-56.5 2081.39,-75.5 2209.39,-75.5 2209.39,-56.5 2081.39,-56.5"/>
<text text-anchor="middle" x="2145.39" y="-63.5" font-family="Helvetica,sans-Serif" font-size="10.00">RenderCubicBezier.cpp</text>
</a>
</g>
</g>
<!-- Node23&#45;&gt;Node36 -->
<g id="edge44" class="edge">
<title>Node23&#45;&gt;Node36</title>
<path fill="none" stroke="midnightblue" d="M2049.63,-108.37C2073.04,-98.26 2105.23,-84.35 2125.67,-75.52"/>
<polygon fill="midnightblue" stroke="midnightblue" points="2047.99,-105.26 2040.19,-112.44 2050.76,-111.69 2047.99,-105.26"/>
</g>
<!-- Node37 -->
<g id="node37" class="node">
<title>Node37</title>
<g id="a_node37"><a xlink:href="_render_curve_8cpp.html" target="_top" xlink:title="Implementation of the RenderCurve class.">
<polygon fill="white" stroke="black" points="2227.39,-56.5 2227.39,-75.5 2327.39,-75.5 2327.39,-56.5 2227.39,-56.5"/>
<text text-anchor="middle" x="2277.39" y="-63.5" font-family="Helvetica,sans-Serif" font-size="10.00">RenderCurve.cpp</text>
</a>
</g>
</g>
<!-- Node23&#45;&gt;Node37 -->
<g id="edge45" class="edge">
<title>Node23&#45;&gt;Node37</title>
<path fill="none" stroke="midnightblue" d="M2071.09,-110.35C2119.66,-100.14 2192.01,-84.94 2236.86,-75.52"/>
<polygon fill="midnightblue" stroke="midnightblue" points="2070.18,-106.96 2061.11,-112.44 2071.62,-113.81 2070.18,-106.96"/>
</g>
<!-- Node38 -->
<g id="node38" class="node">
<title>Node38</title>
<g id="a_node38"><a xlink:href="_render_group_8cpp.html" target="_top" xlink:title="Implementation of the RenderGroup class.">
<polygon fill="white" stroke="black" points="2345.89,-56.5 2345.89,-75.5 2446.89,-75.5 2446.89,-56.5 2345.89,-56.5"/>
<text text-anchor="middle" x="2396.39" y="-63.5" font-family="Helvetica,sans-Serif" font-size="10.00">RenderGroup.cpp</text>
</a>
</g>
</g>
<!-- Node23&#45;&gt;Node38 -->
<g id="edge46" class="edge">
<title>Node23&#45;&gt;Node38</title>
<path fill="none" stroke="midnightblue" d="M2086.58,-111.72C2150.53,-102.72 2250.12,-88.61 2336.39,-76 2339.41,-75.56 2342.52,-75.1 2345.65,-74.64"/>
<polygon fill="midnightblue" stroke="midnightblue" points="2086.05,-108.26 2076.63,-113.12 2087.02,-115.19 2086.05,-108.26"/>
</g>
<!-- Node39 -->
<g id="node39" class="node">
<title>Node39</title>
<g id="a_node39"><a xlink:href="_render_point_8cpp.html" target="_top" xlink:title="Implementation of the RenderPoint class.">
<polygon fill="white" stroke="black" points="2465.39,-56.5 2465.39,-75.5 2561.39,-75.5 2561.39,-56.5 2465.39,-56.5"/>
<text text-anchor="middle" x="2513.39" y="-63.5" font-family="Helvetica,sans-Serif" font-size="10.00">RenderPoint.cpp</text>
</a>
</g>
</g>
<!-- Node23&#45;&gt;Node39 -->
<g id="edge47" class="edge">
<title>Node23&#45;&gt;Node39</title>
<path fill="none" stroke="midnightblue" d="M2086.38,-111.93C2251.16,-92.81 2294.67,-96.27 2455.39,-76 2458.62,-75.59 2461.96,-75.15 2465.31,-74.68"/>
<polygon fill="midnightblue" stroke="midnightblue" points="2085.91,-108.46 2076.39,-113.1 2086.73,-115.41 2085.91,-108.46"/>
</g>
<!-- Node40 -->
<g id="node40" class="node">
<title>Node40</title>
<g id="a_node40"><a xlink:href="_style_8cpp.html" target="_top" xlink:title="Implementation of the Style class.">
<polygon fill="white" stroke="black" points="2579.39,-56.5 2579.39,-75.5 2641.39,-75.5 2641.39,-56.5 2579.39,-56.5"/>
<text text-anchor="middle" x="2610.39" y="-63.5" font-family="Helvetica,sans-Serif" font-size="10.00">Style.cpp</text>
</a>
</g>
</g>
<!-- Node23&#45;&gt;Node40 -->
<g id="edge48" class="edge">
<title>Node23&#45;&gt;Node40</title>
<path fill="none" stroke="midnightblue" d="M2086.77,-111.92C2302.07,-89.72 2359.83,-107.33 2570.39,-76 2573.2,-75.58 2576.12,-75.07 2579.03,-74.51"/>
<polygon fill="midnightblue" stroke="midnightblue" points="2086.31,-108.45 2076.73,-112.98 2087.04,-115.41 2086.31,-108.45"/>
</g>
<!-- Node41 -->
<g id="node41" class="node">
<title>Node41</title>
<g id="a_node41"><a xlink:href="_text_8cpp.html" target="_top" xlink:title="Implementation of the Text class.">
<polygon fill="white" stroke="black" points="2659.89,-56.5 2659.89,-75.5 2716.89,-75.5 2716.89,-56.5 2659.89,-56.5"/>
<text text-anchor="middle" x="2688.39" y="-63.5" font-family="Helvetica,sans-Serif" font-size="10.00">Text.cpp</text>
</a>
</g>
</g>
<!-- Node23&#45;&gt;Node41 -->
<g id="edge49" class="edge">
<title>Node23&#45;&gt;Node41</title>
<path fill="none" stroke="midnightblue" d="M2086.87,-111.93C2337.5,-87.41 2404.8,-112.64 2650.39,-76 2653.47,-75.54 2656.67,-74.95 2659.85,-74.3"/>
<polygon fill="midnightblue" stroke="midnightblue" points="2086.33,-108.47 2076.73,-112.94 2087.02,-115.43 2086.33,-108.47"/>
</g>
</g>
</svg>
        <g id="navigator" transform="translate(0 0)" fill="#404254">
                <rect fill="#f2f5e9" fill-opacity="0.5" stroke="#606060" stroke-width=".5" x="0" y="0" width="60" height="60"/>
                <use id="zoomplus" xlink:href="#zoomPlus" x="17" y="9" onmousedown="handleZoom(evt,'in')"/>
                <use id="zoomminus" xlink:href="#zoomMin" x="42" y="9" onmousedown="handleZoom(evt,'out')"/>
                <use id="reset" xlink:href="#resetDef" x="30" y="36" onmousedown="handleReset()"/>
                <g id="arrowUp" xlink:href="#dirArrow" transform="translate(30 24)" onmousedown="handlePan(0,-1)">
                  <use xlink:href="#rim" fill="#404040">
                        <set attributeName="fill" to="#808080" begin="arrowUp.mouseover" end="arrowUp.mouseout"/>
                  </use>
                  <path fill="none" stroke="white" stroke-width="1.5" d="M0,-3.0v7 M-2.5,-0.5L0,-3.0L2.5,-0.5"/>
                </g>
                <g id="arrowRight" xlink:href="#dirArrow" transform="rotate(90) translate(36 -43)" onmousedown="handlePan(1,0)">
                  <use xlink:href="#rim" fill="#404040">
                        <set attributeName="fill" to="#808080" begin="arrowRight.mouseover" end="arrowRight.mouseout"/>
                  </use>
                  <path fill="none" stroke="white" stroke-width="1.5" d="M0,-3.0v7 M-2.5,-0.5L0,-3.0L2.5,-0.5"/>
                </g>
                <g id="arrowDown" xlink:href="#dirArrow" transform="rotate(180) translate(-30 -48)" onmousedown="handlePan(0,1)">
                  <use xlink:href="#rim" fill="#404040">
                        <set attributeName="fill" to="#808080" begin="arrowDown.mouseover" end="arrowDown.mouseout"/>
                  </use>
                  <path fill="none" stroke="white" stroke-width="1.5" d="M0,-3.0v7 M-2.5,-0.5L0,-3.0L2.5,-0.5"/>
                </g>
                <g id="arrowLeft" xlink:href="#dirArrow" transform="rotate(270) translate(-36 17)" onmousedown="handlePan(-1,0)">
                  <use xlink:href="#rim" fill="#404040">
                        <set attributeName="fill" to="#808080" begin="arrowLeft.mouseover" end="arrowLeft.mouseout"/>
                  </use>
                  <path fill="none" stroke="white" stroke-width="1.5" d="M0,-3.0v7 M-2.5,-0.5L0,-3.0L2.5,-0.5"/>
                </g>
        </g>
        <svg viewBox="0 0 15 15" width="100%" height="30px" preserveAspectRatio="xMaxYMin meet">
         <g id="arrow_out" transform="scale(0.3 0.3)">
          <a xlink:href="_text_glyph_8h__dep__incl_org.svg" target="_base">
           <rect id="button" ry="5" rx="5" y="6" x="6" height="38" width="38"
                fill="#f2f5e9" fill-opacity="0.5" stroke="#606060" stroke-width="1.0"/>
           <path id="arrow"
             d="M 11.500037,31.436501 C 11.940474,20.09759 22.043105,11.32322 32.158766,21.979434 L 37.068811,17.246167 C 37.068811,17.246167 37.088388,32 37.088388,32 L 22.160133,31.978069 C 22.160133,31.978069 26.997745,27.140456 26.997745,27.140456 C 18.528582,18.264221 13.291696,25.230495 11.500037,31.436501 z"
             style="fill:#404040;"/>
          </a>
         </g>
        </svg>
</svg>
