<?xml version="1.0" encoding="UTF-8" standalone="no"?>
<!DOCTYPE svg PUBLIC "-//W3C//DTD SVG 1.1//EN"
 "http://www.w3.org/Graphics/SVG/1.1/DTD/svg11.dtd">
<!-- Generated by graphviz version 2.43.0 (0)
 -->
<!-- Title: Transition.h Pages: 1 -->
<svg width="467pt" height="196pt"
 viewBox="0.00 0.00 467.00 196.00" xmlns="http://www.w3.org/2000/svg" xmlns:xlink="http://www.w3.org/1999/xlink">
<g id="graph0" class="graph" transform="scale(1 1) rotate(0) translate(4 192)">
<title>Transition.h</title>
<polygon fill="white" stroke="transparent" points="-4,4 -4,-192 463,-192 463,4 -4,4"/>
<!-- Node1 -->
<g id="node1" class="node">
<title>Node1</title>
<g id="a_node1"><a xlink:title="Implementation of the Transition class.">
<polygon fill="#bfbfbf" stroke="black" points="207.5,-168.5 207.5,-187.5 280.5,-187.5 280.5,-168.5 207.5,-168.5"/>
<text text-anchor="middle" x="244" y="-175.5" font-family="Helvetica,sans-Serif" font-size="10.00">Transition.h</text>
</a>
</g>
</g>
<!-- Node2 -->
<g id="node2" class="node">
<title>Node2</title>
<g id="a_node2"><a xlink:href="_qual_extension_types_8h.html" target="_top" xlink:title="Include all SBML types of qual extension in a single header file.">
<polygon fill="white" stroke="black" points="0,-56.5 0,-75.5 124,-75.5 124,-56.5 0,-56.5"/>
<text text-anchor="middle" x="62" y="-63.5" font-family="Helvetica,sans-Serif" font-size="10.00">QualExtensionTypes.h</text>
</a>
</g>
</g>
<!-- Node1&#45;&gt;Node2 -->
<g id="edge1" class="edge">
<title>Node1&#45;&gt;Node2</title>
<path fill="none" stroke="midnightblue" d="M197.55,-166.06C173.1,-158.89 143.42,-147.86 120,-132 96.96,-116.4 77.08,-89.64 67.71,-75.83"/>
<polygon fill="midnightblue" stroke="midnightblue" points="196.75,-169.47 207.32,-168.8 198.64,-162.73 196.75,-169.47"/>
</g>
<!-- Node4 -->
<g id="node4" class="node">
<title>Node4</title>
<g id="a_node4"><a xlink:href="_qual_model_plugin_8h.html" target="_top" xlink:title="Definition of QualModelPlugin, the plugin class of qual package for the Model element.">
<polygon fill="white" stroke="black" points="129,-112.5 129,-131.5 237,-131.5 237,-112.5 129,-112.5"/>
<text text-anchor="middle" x="183" y="-119.5" font-family="Helvetica,sans-Serif" font-size="10.00">QualModelPlugin.h</text>
</a>
</g>
</g>
<!-- Node1&#45;&gt;Node4 -->
<g id="edge3" class="edge">
<title>Node1&#45;&gt;Node4</title>
<path fill="none" stroke="midnightblue" d="M226.53,-161.54C215.66,-151.91 202.06,-139.87 192.98,-131.83"/>
<polygon fill="midnightblue" stroke="midnightblue" points="224.39,-164.32 234.2,-168.32 229.03,-159.07 224.39,-164.32"/>
</g>
<!-- Node7 -->
<g id="node7" class="node">
<title>Node7</title>
<g id="a_node7"><a xlink:href="_function_term_8cpp.html" target="_top" xlink:title="Implementation of the FunctionTerm class.">
<polygon fill="white" stroke="black" points="255,-112.5 255,-131.5 357,-131.5 357,-112.5 255,-112.5"/>
<text text-anchor="middle" x="306" y="-119.5" font-family="Helvetica,sans-Serif" font-size="10.00">FunctionTerm.cpp</text>
</a>
</g>
</g>
<!-- Node1&#45;&gt;Node7 -->
<g id="edge7" class="edge">
<title>Node1&#45;&gt;Node7</title>
<path fill="none" stroke="midnightblue" d="M261.75,-161.54C272.81,-151.91 286.63,-139.87 295.86,-131.83"/>
<polygon fill="midnightblue" stroke="midnightblue" points="259.2,-159.12 253.96,-168.32 263.8,-164.4 259.2,-159.12"/>
</g>
<!-- Node8 -->
<g id="node8" class="node">
<title>Node8</title>
<g id="a_node8"><a xlink:href="_transition_8cpp.html" target="_top" xlink:title="Implementation of the Transition class.">
<polygon fill="white" stroke="black" points="375,-112.5 375,-131.5 459,-131.5 459,-112.5 375,-112.5"/>
<text text-anchor="middle" x="417" y="-119.5" font-family="Helvetica,sans-Serif" font-size="10.00">Transition.cpp</text>
</a>
</g>
</g>
<!-- Node1&#45;&gt;Node8 -->
<g id="edge8" class="edge">
<title>Node1&#45;&gt;Node8</title>
<path fill="none" stroke="midnightblue" d="M281.05,-165.44C313.66,-155.26 360.41,-140.66 389.72,-131.52"/>
<polygon fill="midnightblue" stroke="midnightblue" points="279.92,-162.12 271.41,-168.44 282,-168.8 279.92,-162.12"/>
</g>
<!-- Node3 -->
<g id="node3" class="node">
<title>Node3</title>
<g id="a_node3"><a xlink:href="_qual_validator_8cpp.html" target="_top" xlink:title="Base class for SBML Validators.">
<polygon fill="white" stroke="black" points="11,-0.5 11,-19.5 113,-19.5 113,-0.5 11,-0.5"/>
<text text-anchor="middle" x="62" y="-7.5" font-family="Helvetica,sans-Serif" font-size="10.00">QualValidator.cpp</text>
</a>
</g>
</g>
<!-- Node2&#45;&gt;Node3 -->
<g id="edge2" class="edge">
<title>Node2&#45;&gt;Node3</title>
<path fill="none" stroke="midnightblue" d="M62,-45.8C62,-36.91 62,-26.78 62,-19.75"/>
<polygon fill="midnightblue" stroke="midnightblue" points="58.5,-46.08 62,-56.08 65.5,-46.08 58.5,-46.08"/>
</g>
<!-- Node4&#45;&gt;Node2 -->
<g id="edge4" class="edge">
<title>Node4&#45;&gt;Node2</title>
<path fill="none" stroke="midnightblue" d="M154.69,-108.37C132.03,-98.26 100.87,-84.35 81.08,-75.52"/>
<polygon fill="midnightblue" stroke="midnightblue" points="153.27,-111.56 163.83,-112.44 156.12,-105.17 153.27,-111.56"/>
</g>
<!-- Node5 -->
<g id="node5" class="node">
<title>Node5</title>
<g id="a_node5"><a xlink:href="_qual_extension_8cpp.html" target="_top" xlink:title="Implementation of QualExtension, the core module of qual package.">
<polygon fill="white" stroke="black" points="142.5,-56.5 142.5,-75.5 249.5,-75.5 249.5,-56.5 142.5,-56.5"/>
<text text-anchor="middle" x="196" y="-63.5" font-family="Helvetica,sans-Serif" font-size="10.00">QualExtension.cpp</text>
</a>
</g>
</g>
<!-- Node4&#45;&gt;Node5 -->
<g id="edge5" class="edge">
<title>Node4&#45;&gt;Node5</title>
<path fill="none" stroke="midnightblue" d="M187.55,-102.1C189.71,-93.14 192.18,-82.86 193.89,-75.75"/>
<polygon fill="midnightblue" stroke="midnightblue" points="184.08,-101.54 185.15,-112.08 190.89,-103.18 184.08,-101.54"/>
</g>
<!-- Node6 -->
<g id="node6" class="node">
<title>Node6</title>
<g id="a_node6"><a xlink:href="_qual_model_plugin_8cpp.html" target="_top" xlink:title="Implementation of QualModelPlugin, the plugin class of qual package for the Model element.">
<polygon fill="white" stroke="black" points="267.5,-56.5 267.5,-75.5 386.5,-75.5 386.5,-56.5 267.5,-56.5"/>
<text text-anchor="middle" x="327" y="-63.5" font-family="Helvetica,sans-Serif" font-size="10.00">QualModelPlugin.cpp</text>
</a>
</g>
</g>
<!-- Node4&#45;&gt;Node6 -->
<g id="edge6" class="edge">
<title>Node4&#45;&gt;Node6</title>
<path fill="none" stroke="midnightblue" d="M215.25,-108.91C242.32,-98.75 280.32,-84.51 304.29,-75.52"/>
<polygon fill="midnightblue" stroke="midnightblue" points="213.95,-105.66 205.82,-112.44 216.41,-112.21 213.95,-105.66"/>
</g>
</g>
</svg>
