<?xml version="1.0" encoding="UTF-8" standalone="no"?>
<!DOCTYPE svg PUBLIC "-//W3C//DTD SVG 1.1//EN"
 "http://www.w3.org/Graphics/SVG/1.1/DTD/svg11.dtd">
<!-- Generated by graphviz version 2.43.0 (0)
 -->
<!-- Title: UncertParameter.h Pages: 1 -->
<!--zoomable 420 -->
<svg id="main" version="1.1" xmlns="http://www.w3.org/2000/svg" xmlns:xlink="http://www.w3.org/1999/xlink" xml:space="preserve" onload="init(evt)">
<style type="text/css"><![CDATA[
.edge:hover path { stroke: red; }
.edge:hover polygon { stroke: red; fill: red; }
]]></style>
<script type="text/javascript"><![CDATA[
var edges = document.getElementsByTagName('g');
if (edges && edges.length) {
  for (var i=0;i<edges.length;i++) {
    if (edges[i].id.substr(0,4)=='edge') {
      edges[i].setAttribute('class','edge');
    }
  }
}
]]></script>
        <defs>
                <circle id="rim" cx="0" cy="0" r="7"/>
                <circle id="rim2" cx="0" cy="0" r="3.5"/>
                <g id="zoomPlus">
                        <use xlink:href="#rim" fill="#404040">
                                <set attributeName="fill" to="#808080" begin="zoomplus.mouseover" end="zoomplus.mouseout"/>
                        </use>
                        <path d="M-4,0h8M0,-4v8" fill="none" stroke="white" stroke-width="1.5" pointer-events="none"/>
                </g>
                <g id="zoomMin">
                        <use xlink:href="#rim" fill="#404040">
                                <set attributeName="fill" to="#808080" begin="zoomminus.mouseover" end="zoomminus.mouseout"/>
                        </use>
                        <path d="M-4,0h8" fill="none" stroke="white" stroke-width="1.5" pointer-events="none"/>
                </g>
                <g id="dirArrow">
                        <path fill="none" stroke="white" stroke-width="1.5" d="M0,-3.0v7 M-2.5,-0.5L0,-3.0L2.5,-0.5"/>
                </g>
               <g id="resetDef">
                       <use xlink:href="#rim2" fill="#404040">
                               <set attributeName="fill" to="#808080" begin="reset.mouseover" end="reset.mouseout"/>
                       </use>
               </g>
        </defs>

<script type="text/javascript">
var viewWidth = 799;
var viewHeight = 420;
var sectionId = 'dynsection-1';
</script>
<script xlink:href="svgpan.js"/>
<svg id="graph" class="graph">
<g id="viewport">
<title>UncertParameter.h</title>
<polygon fill="white" stroke="transparent" points="-4,4 -4,-416 795,-416 795,4 -4,4"/>
<!-- Node1 -->
<g id="node1" class="node">
<title>Node1</title>
<g id="a_node1"><a xlink:title="Definition of the UncertParameter class.">
<polygon fill="#bfbfbf" stroke="black" points="551,-392.5 551,-411.5 658,-411.5 658,-392.5 551,-392.5"/>
<text text-anchor="middle" x="604.5" y="-399.5" font-family="Helvetica,sans-Serif" font-size="10.00">UncertParameter.h</text>
</a>
</g>
</g>
<!-- Node2 -->
<g id="node2" class="node">
<title>Node2</title>
<g id="a_node2"><a xlink:href="_distrib_extension_types_8h.html" target="_top" xlink:title="Definition of DistribExtensionTypes.">
<polygon fill="white" stroke="black" points="489.5,-56.5 489.5,-75.5 623.5,-75.5 623.5,-56.5 489.5,-56.5"/>
<text text-anchor="middle" x="556.5" y="-63.5" font-family="Helvetica,sans-Serif" font-size="10.00">DistribExtensionTypes.h</text>
</a>
</g>
</g>
<!-- Node1&#45;&gt;Node2 -->
<g id="edge1" class="edge">
<title>Node1&#45;&gt;Node2</title>
<path fill="none" stroke="midnightblue" d="M611.8,-382.86C619.8,-361.32 631.5,-324.14 631.5,-291 631.5,-291 631.5,-291 631.5,-177 631.5,-132.39 588.87,-92.52 567.89,-75.6"/>
<polygon fill="midnightblue" stroke="midnightblue" points="608.48,-381.75 608.14,-392.34 615.01,-384.27 608.48,-381.75"/>
</g>
<!-- Node4 -->
<g id="node4" class="node">
<title>Node4</title>
<g id="a_node4"><a xlink:href="_list_of_uncert_parameters_8h.html" target="_top" xlink:title="Definition of the ListOfUncertParameters class.">
<polygon fill="white" stroke="black" points="455.5,-280.5 455.5,-299.5 597.5,-299.5 597.5,-280.5 455.5,-280.5"/>
<text text-anchor="middle" x="526.5" y="-287.5" font-family="Helvetica,sans-Serif" font-size="10.00">ListOfUncertParameters.h</text>
</a>
</g>
</g>
<!-- Node1&#45;&gt;Node4 -->
<g id="edge3" class="edge">
<title>Node1&#45;&gt;Node4</title>
<path fill="none" stroke="midnightblue" d="M592.42,-383.96C575.51,-360.12 545.44,-317.71 532.59,-299.59"/>
<polygon fill="midnightblue" stroke="midnightblue" points="589.74,-386.24 598.38,-392.37 595.45,-382.19 589.74,-386.24"/>
</g>
<!-- Node14 -->
<g id="node14" class="node">
<title>Node14</title>
<g id="a_node14"><a xlink:href="_uncert_parameter_8cpp.html" target="_top" xlink:title="Implementation of the UncertParameter class.">
<polygon fill="white" stroke="black" points="214,-224.5 214,-243.5 333,-243.5 333,-224.5 214,-224.5"/>
<text text-anchor="middle" x="273.5" y="-231.5" font-family="Helvetica,sans-Serif" font-size="10.00">UncertParameter.cpp</text>
</a>
</g>
</g>
<!-- Node1&#45;&gt;Node14 -->
<g id="edge18" class="edge">
<title>Node1&#45;&gt;Node14</title>
<path fill="none" stroke="midnightblue" d="M577.93,-387.67C512.46,-354.84 344.82,-270.77 290.66,-243.61"/>
<polygon fill="midnightblue" stroke="midnightblue" points="576.66,-390.95 587.17,-392.31 579.8,-384.7 576.66,-390.95"/>
</g>
<!-- Node15 -->
<g id="node15" class="node">
<title>Node15</title>
<g id="a_node15"><a xlink:href="_uncert_span_8h.html" target="_top" xlink:title="Definition of the UncertSpan class.">
<polygon fill="white" stroke="black" points="659.5,-336.5 659.5,-355.5 741.5,-355.5 741.5,-336.5 659.5,-336.5"/>
<text text-anchor="middle" x="700.5" y="-343.5" font-family="Helvetica,sans-Serif" font-size="10.00">UncertSpan.h</text>
</a>
</g>
</g>
<!-- Node1&#45;&gt;Node15 -->
<g id="edge19" class="edge">
<title>Node1&#45;&gt;Node15</title>
<path fill="none" stroke="midnightblue" d="M629.07,-387.18C646.74,-377.24 670.01,-364.15 685.11,-355.65"/>
<polygon fill="midnightblue" stroke="midnightblue" points="626.92,-384.37 619.92,-392.32 630.36,-390.47 626.92,-384.37"/>
</g>
<!-- Node3 -->
<g id="node3" class="node">
<title>Node3</title>
<g id="a_node3"><a xlink:href="_distrib_validator_8cpp.html" target="_top" xlink:title="Definition of DistribValidator.">
<polygon fill="white" stroke="black" points="500.5,-0.5 500.5,-19.5 612.5,-19.5 612.5,-0.5 500.5,-0.5"/>
<text text-anchor="middle" x="556.5" y="-7.5" font-family="Helvetica,sans-Serif" font-size="10.00">DistribValidator.cpp</text>
</a>
</g>
</g>
<!-- Node2&#45;&gt;Node3 -->
<g id="edge2" class="edge">
<title>Node2&#45;&gt;Node3</title>
<path fill="none" stroke="midnightblue" d="M556.5,-45.8C556.5,-36.91 556.5,-26.78 556.5,-19.75"/>
<polygon fill="midnightblue" stroke="midnightblue" points="553,-46.08 556.5,-56.08 560,-46.08 553,-46.08"/>
</g>
<!-- Node5 -->
<g id="node5" class="node">
<title>Node5</title>
<g id="a_node5"><a xlink:href="_list_of_uncert_parameters_8cpp.html" target="_top" xlink:title="Implementation of the ListOfUncertParameters class.">
<polygon fill="white" stroke="black" points="450,-224.5 450,-243.5 603,-243.5 603,-224.5 450,-224.5"/>
<text text-anchor="middle" x="526.5" y="-231.5" font-family="Helvetica,sans-Serif" font-size="10.00">ListOfUncertParameters.cpp</text>
</a>
</g>
</g>
<!-- Node4&#45;&gt;Node5 -->
<g id="edge4" class="edge">
<title>Node4&#45;&gt;Node5</title>
<path fill="none" stroke="midnightblue" d="M526.5,-269.8C526.5,-260.91 526.5,-250.78 526.5,-243.75"/>
<polygon fill="midnightblue" stroke="midnightblue" points="523,-270.08 526.5,-280.08 530,-270.08 523,-270.08"/>
</g>
<!-- Node6 -->
<g id="node6" class="node">
<title>Node6</title>
<g id="a_node6"><a xlink:href="_uncertainty_8h.html" target="_top" xlink:title="Definition of the Uncertainty class.">
<polygon fill="white" stroke="black" points="351,-224.5 351,-243.5 432,-243.5 432,-224.5 351,-224.5"/>
<text text-anchor="middle" x="391.5" y="-231.5" font-family="Helvetica,sans-Serif" font-size="10.00">Uncertainty.h</text>
</a>
</g>
</g>
<!-- Node4&#45;&gt;Node6 -->
<g id="edge5" class="edge">
<title>Node4&#45;&gt;Node6</title>
<path fill="none" stroke="midnightblue" d="M495.59,-276.64C470.26,-266.5 435.07,-252.43 412.79,-243.52"/>
<polygon fill="midnightblue" stroke="midnightblue" points="494.52,-279.98 505.11,-280.44 497.12,-273.48 494.52,-279.98"/>
</g>
<!-- Node4&#45;&gt;Node14 -->
<g id="edge17" class="edge">
<title>Node4&#45;&gt;Node14</title>
<path fill="none" stroke="midnightblue" d="M476.58,-278.35C428.77,-268.14 357.55,-252.94 313.4,-243.52"/>
<polygon fill="midnightblue" stroke="midnightblue" points="475.9,-281.78 486.41,-280.44 477.36,-274.93 475.9,-281.78"/>
</g>
<!-- Node6&#45;&gt;Node2 -->
<g id="edge6" class="edge">
<title>Node6&#45;&gt;Node2</title>
<path fill="none" stroke="midnightblue" d="M407.75,-216.65C442.25,-181.94 521.81,-101.9 547.98,-75.57"/>
<polygon fill="midnightblue" stroke="midnightblue" points="404.94,-214.52 400.37,-224.08 409.9,-219.45 404.94,-214.52"/>
</g>
<!-- Node7 -->
<g id="node7" class="node">
<title>Node7</title>
<g id="a_node7"><a xlink:href="_distrib_s_base_plugin_8h.html" target="_top" xlink:title="Definition of the DistribSBasePlugin class.">
<polygon fill="white" stroke="black" points="75.5,-112.5 75.5,-131.5 193.5,-131.5 193.5,-112.5 75.5,-112.5"/>
<text text-anchor="middle" x="134.5" y="-119.5" font-family="Helvetica,sans-Serif" font-size="10.00">DistribSBasePlugin.h</text>
</a>
</g>
</g>
<!-- Node6&#45;&gt;Node7 -->
<g id="edge7" class="edge">
<title>Node6&#45;&gt;Node7</title>
<path fill="none" stroke="midnightblue" d="M343.93,-222.09C302.67,-212.27 246.38,-197.89 225.5,-188 193.04,-172.62 159.97,-145.52 144.13,-131.68"/>
<polygon fill="midnightblue" stroke="midnightblue" points="343.27,-225.53 353.8,-224.42 344.88,-218.72 343.27,-225.53"/>
</g>
<!-- Node10 -->
<g id="node10" class="node">
<title>Node10</title>
<g id="a_node10"><a xlink:href="_distrib_base_8cpp.html" target="_top" xlink:title="Implementation of the DistribBase class.">
<polygon fill="white" stroke="black" points="510,-168.5 510,-187.5 603,-187.5 603,-168.5 510,-168.5"/>
<text text-anchor="middle" x="556.5" y="-175.5" font-family="Helvetica,sans-Serif" font-size="10.00">DistribBase.cpp</text>
</a>
</g>
</g>
<!-- Node6&#45;&gt;Node10 -->
<g id="edge11" class="edge">
<title>Node6&#45;&gt;Node10</title>
<path fill="none" stroke="midnightblue" d="M427.24,-221.3C458.33,-211.13 502.65,-196.62 530.48,-187.52"/>
<polygon fill="midnightblue" stroke="midnightblue" points="426.06,-218.01 417.64,-224.44 428.24,-224.66 426.06,-218.01"/>
</g>
<!-- Node11 -->
<g id="node11" class="node">
<title>Node11</title>
<g id="a_node11"><a xlink:href="_list_of_uncertainties_8h.html" target="_top" xlink:title="Definition of the ListOfUncertainties class.">
<polygon fill="white" stroke="black" points="235,-168.5 235,-187.5 354,-187.5 354,-168.5 235,-168.5"/>
<text text-anchor="middle" x="294.5" y="-175.5" font-family="Helvetica,sans-Serif" font-size="10.00">ListOfUncertainties.h</text>
</a>
</g>
</g>
<!-- Node6&#45;&gt;Node11 -->
<g id="edge12" class="edge">
<title>Node6&#45;&gt;Node11</title>
<path fill="none" stroke="midnightblue" d="M367.16,-219.45C349.26,-209.48 325.45,-196.23 310.05,-187.65"/>
<polygon fill="midnightblue" stroke="midnightblue" points="365.48,-222.52 375.92,-224.32 368.88,-216.4 365.48,-222.52"/>
</g>
<!-- Node13 -->
<g id="node13" class="node">
<title>Node13</title>
<g id="a_node13"><a xlink:href="_uncertainty_8cpp.html" target="_top" xlink:title="Implementation of the Uncertainty class.">
<polygon fill="white" stroke="black" points="361.5,-112.5 361.5,-131.5 453.5,-131.5 453.5,-112.5 361.5,-112.5"/>
<text text-anchor="middle" x="407.5" y="-119.5" font-family="Helvetica,sans-Serif" font-size="10.00">Uncertainty.cpp</text>
</a>
</g>
</g>
<!-- Node6&#45;&gt;Node13 -->
<g id="edge16" class="edge">
<title>Node6&#45;&gt;Node13</title>
<path fill="none" stroke="midnightblue" d="M394.21,-214.35C397.72,-190.25 403.67,-149.31 406.25,-131.59"/>
<polygon fill="midnightblue" stroke="midnightblue" points="390.73,-213.97 392.76,-224.37 397.66,-214.98 390.73,-213.97"/>
</g>
<!-- Node7&#45;&gt;Node2 -->
<g id="edge8" class="edge">
<title>Node7&#45;&gt;Node2</title>
<path fill="none" stroke="midnightblue" d="M204.03,-111.81C309.53,-98.14 420.29,-84.13 489.28,-75.44"/>
<polygon fill="midnightblue" stroke="midnightblue" points="203.3,-108.37 193.84,-113.13 204.2,-115.31 203.3,-108.37"/>
</g>
<!-- Node8 -->
<g id="node8" class="node">
<title>Node8</title>
<g id="a_node8"><a xlink:href="_distrib_extension_8cpp.html" target="_top" xlink:title="Implementation of DistribExtension.">
<polygon fill="white" stroke="black" points="147,-56.5 147,-75.5 264,-75.5 264,-56.5 147,-56.5"/>
<text text-anchor="middle" x="205.5" y="-63.5" font-family="Helvetica,sans-Serif" font-size="10.00">DistribExtension.cpp</text>
</a>
</g>
</g>
<!-- Node7&#45;&gt;Node8 -->
<g id="edge9" class="edge">
<title>Node7&#45;&gt;Node8</title>
<path fill="none" stroke="midnightblue" d="M154.09,-106.1C166.87,-96.38 183.11,-84.03 193.89,-75.83"/>
<polygon fill="midnightblue" stroke="midnightblue" points="151.75,-103.48 145.91,-112.32 155.99,-109.06 151.75,-103.48"/>
</g>
<!-- Node9 -->
<g id="node9" class="node">
<title>Node9</title>
<g id="a_node9"><a xlink:href="_distrib_s_base_plugin_8cpp.html" target="_top" xlink:title="Implementation of the DistribSBasePlugin class.">
<polygon fill="white" stroke="black" points="0,-56.5 0,-75.5 129,-75.5 129,-56.5 0,-56.5"/>
<text text-anchor="middle" x="64.5" y="-63.5" font-family="Helvetica,sans-Serif" font-size="10.00">DistribSBasePlugin.cpp</text>
</a>
</g>
</g>
<!-- Node7&#45;&gt;Node9 -->
<g id="edge10" class="edge">
<title>Node7&#45;&gt;Node9</title>
<path fill="none" stroke="midnightblue" d="M115.19,-106.1C102.59,-96.38 86.57,-84.03 75.95,-75.83"/>
<polygon fill="midnightblue" stroke="midnightblue" points="113.2,-108.99 123.25,-112.32 117.47,-103.44 113.2,-108.99"/>
</g>
<!-- Node11&#45;&gt;Node7 -->
<g id="edge13" class="edge">
<title>Node11&#45;&gt;Node7</title>
<path fill="none" stroke="midnightblue" d="M259.45,-165.17C229.33,-155 186.6,-140.59 159.73,-131.52"/>
<polygon fill="midnightblue" stroke="midnightblue" points="258.55,-168.56 269.15,-168.44 260.79,-161.93 258.55,-168.56"/>
</g>
<!-- Node12 -->
<g id="node12" class="node">
<title>Node12</title>
<g id="a_node12"><a xlink:href="_list_of_uncertainties_8cpp.html" target="_top" xlink:title="Implementation of the ListOfUncertainties class.">
<polygon fill="white" stroke="black" points="212,-112.5 212,-131.5 343,-131.5 343,-112.5 212,-112.5"/>
<text text-anchor="middle" x="277.5" y="-119.5" font-family="Helvetica,sans-Serif" font-size="10.00">ListOfUncertainties.cpp</text>
</a>
</g>
</g>
<!-- Node11&#45;&gt;Node12 -->
<g id="edge14" class="edge">
<title>Node11&#45;&gt;Node12</title>
<path fill="none" stroke="midnightblue" d="M288.64,-158.4C285.8,-149.36 282.52,-138.94 280.25,-131.75"/>
<polygon fill="midnightblue" stroke="midnightblue" points="285.35,-159.6 291.69,-168.08 292.03,-157.49 285.35,-159.6"/>
</g>
<!-- Node11&#45;&gt;Node13 -->
<g id="edge15" class="edge">
<title>Node11&#45;&gt;Node13</title>
<path fill="none" stroke="midnightblue" d="M321.5,-164.1C342.61,-154.01 371.36,-140.27 389.68,-131.52"/>
<polygon fill="midnightblue" stroke="midnightblue" points="319.92,-160.97 312.41,-168.44 322.94,-167.29 319.92,-160.97"/>
</g>
<!-- Node15&#45;&gt;Node2 -->
<g id="edge20" class="edge">
<title>Node15&#45;&gt;Node2</title>
<path fill="none" stroke="midnightblue" d="M692.24,-327.25C683.06,-305.86 669.5,-268.59 669.5,-235 669.5,-235 669.5,-235 669.5,-177 669.5,-146.2 665.99,-134.99 645.5,-112 629.6,-94.17 604.98,-82.48 585.66,-75.5"/>
<polygon fill="midnightblue" stroke="midnightblue" points="689.05,-328.69 696.32,-336.39 695.44,-325.83 689.05,-328.69"/>
</g>
<!-- Node15&#45;&gt;Node4 -->
<g id="edge21" class="edge">
<title>Node15&#45;&gt;Node4</title>
<path fill="none" stroke="midnightblue" d="M663.24,-333.44C630.43,-323.26 583.42,-308.66 553.94,-299.52"/>
<polygon fill="midnightblue" stroke="midnightblue" points="662.34,-336.82 672.93,-336.44 664.42,-330.14 662.34,-336.82"/>
</g>
<!-- Node16 -->
<g id="node16" class="node">
<title>Node16</title>
<g id="a_node16"><a xlink:href="_uncert_span_8cpp.html" target="_top" xlink:title="Implementation of the UncertSpan class.">
<polygon fill="white" stroke="black" points="698,-280.5 698,-299.5 791,-299.5 791,-280.5 698,-280.5"/>
<text text-anchor="middle" x="744.5" y="-287.5" font-family="Helvetica,sans-Serif" font-size="10.00">UncertSpan.cpp</text>
</a>
</g>
</g>
<!-- Node15&#45;&gt;Node16 -->
<g id="edge22" class="edge">
<title>Node15&#45;&gt;Node16</title>
<path fill="none" stroke="midnightblue" d="M714.23,-328.14C721.9,-318.74 731.13,-307.4 737.37,-299.75"/>
<polygon fill="midnightblue" stroke="midnightblue" points="711.37,-326.12 707.77,-336.08 716.8,-330.54 711.37,-326.12"/>
</g>
</g>
</svg>
        <g id="navigator" transform="translate(0 0)" fill="#404254">
                <rect fill="#f2f5e9" fill-opacity="0.5" stroke="#606060" stroke-width=".5" x="0" y="0" width="60" height="60"/>
                <use id="zoomplus" xlink:href="#zoomPlus" x="17" y="9" onmousedown="handleZoom(evt,'in')"/>
                <use id="zoomminus" xlink:href="#zoomMin" x="42" y="9" onmousedown="handleZoom(evt,'out')"/>
                <use id="reset" xlink:href="#resetDef" x="30" y="36" onmousedown="handleReset()"/>
                <g id="arrowUp" xlink:href="#dirArrow" transform="translate(30 24)" onmousedown="handlePan(0,-1)">
                  <use xlink:href="#rim" fill="#404040">
                        <set attributeName="fill" to="#808080" begin="arrowUp.mouseover" end="arrowUp.mouseout"/>
                  </use>
                  <path fill="none" stroke="white" stroke-width="1.5" d="M0,-3.0v7 M-2.5,-0.5L0,-3.0L2.5,-0.5"/>
                </g>
                <g id="arrowRight" xlink:href="#dirArrow" transform="rotate(90) translate(36 -43)" onmousedown="handlePan(1,0)">
                  <use xlink:href="#rim" fill="#404040">
                        <set attributeName="fill" to="#808080" begin="arrowRight.mouseover" end="arrowRight.mouseout"/>
                  </use>
                  <path fill="none" stroke="white" stroke-width="1.5" d="M0,-3.0v7 M-2.5,-0.5L0,-3.0L2.5,-0.5"/>
                </g>
                <g id="arrowDown" xlink:href="#dirArrow" transform="rotate(180) translate(-30 -48)" onmousedown="handlePan(0,1)">
                  <use xlink:href="#rim" fill="#404040">
                        <set attributeName="fill" to="#808080" begin="arrowDown.mouseover" end="arrowDown.mouseout"/>
                  </use>
                  <path fill="none" stroke="white" stroke-width="1.5" d="M0,-3.0v7 M-2.5,-0.5L0,-3.0L2.5,-0.5"/>
                </g>
                <g id="arrowLeft" xlink:href="#dirArrow" transform="rotate(270) translate(-36 17)" onmousedown="handlePan(-1,0)">
                  <use xlink:href="#rim" fill="#404040">
                        <set attributeName="fill" to="#808080" begin="arrowLeft.mouseover" end="arrowLeft.mouseout"/>
                  </use>
                  <path fill="none" stroke="white" stroke-width="1.5" d="M0,-3.0v7 M-2.5,-0.5L0,-3.0L2.5,-0.5"/>
                </g>
        </g>
        <svg viewBox="0 0 15 15" width="100%" height="30px" preserveAspectRatio="xMaxYMin meet">
         <g id="arrow_out" transform="scale(0.3 0.3)">
          <a xlink:href="_uncert_parameter_8h__dep__incl_org.svg" target="_base">
           <rect id="button" ry="5" rx="5" y="6" x="6" height="38" width="38"
                fill="#f2f5e9" fill-opacity="0.5" stroke="#606060" stroke-width="1.0"/>
           <path id="arrow"
             d="M 11.500037,31.436501 C 11.940474,20.09759 22.043105,11.32322 32.158766,21.979434 L 37.068811,17.246167 C 37.068811,17.246167 37.088388,32 37.088388,32 L 22.160133,31.978069 C 22.160133,31.978069 26.997745,27.140456 26.997745,27.140456 C 18.528582,18.264221 13.291696,25.230495 11.500037,31.436501 z"
             style="fill:#404040;"/>
          </a>
         </g>
        </svg>
</svg>
