<?xml version="1.0" encoding="UTF-8" standalone="no"?>
<!DOCTYPE svg PUBLIC "-//W3C//DTD SVG 1.1//EN"
 "http://www.w3.org/Graphics/SVG/1.1/DTD/svg11.dtd">
<!-- Generated by graphviz version 2.43.0 (0)
 -->
<!-- Title: UncertSpan.h Pages: 1 -->
<svg width="545pt" height="364pt"
 viewBox="0.00 0.00 545.00 364.00" xmlns="http://www.w3.org/2000/svg" xmlns:xlink="http://www.w3.org/1999/xlink">
<g id="graph0" class="graph" transform="scale(1 1) rotate(0) translate(4 360)">
<title>UncertSpan.h</title>
<polygon fill="white" stroke="transparent" points="-4,4 -4,-360 541,-360 541,4 -4,4"/>
<!-- Node1 -->
<g id="node1" class="node">
<title>Node1</title>
<g id="a_node1"><a xlink:title="Definition of the UncertSpan class.">
<polygon fill="#bfbfbf" stroke="black" points="181,-336.5 181,-355.5 263,-355.5 263,-336.5 181,-336.5"/>
<text text-anchor="middle" x="222" y="-343.5" font-family="Helvetica,sans-Serif" font-size="10.00">UncertSpan.h</text>
</a>
</g>
</g>
<!-- Node2 -->
<g id="node2" class="node">
<title>Node2</title>
<g id="a_node2"><a xlink:href="_distrib_extension_types_8h.html" target="_top" xlink:title="Definition of DistribExtensionTypes.">
<polygon fill="white" stroke="black" points="0,-56.5 0,-75.5 134,-75.5 134,-56.5 0,-56.5"/>
<text text-anchor="middle" x="67" y="-63.5" font-family="Helvetica,sans-Serif" font-size="10.00">DistribExtensionTypes.h</text>
</a>
</g>
</g>
<!-- Node1&#45;&gt;Node2 -->
<g id="edge1" class="edge">
<title>Node1&#45;&gt;Node2</title>
<path fill="none" stroke="midnightblue" d="M170.95,-335.02C120.24,-321.78 50,-292.99 50,-235 50,-235 50,-235 50,-177 50,-138.93 60.07,-94.31 64.71,-75.77"/>
<polygon fill="midnightblue" stroke="midnightblue" points="170.25,-338.45 180.8,-337.46 171.94,-331.66 170.25,-338.45"/>
</g>
<!-- Node4 -->
<g id="node4" class="node">
<title>Node4</title>
<g id="a_node4"><a xlink:href="_list_of_uncert_parameters_8h.html" target="_top" xlink:title="Definition of the ListOfUncertParameters class.">
<polygon fill="white" stroke="black" points="151,-280.5 151,-299.5 293,-299.5 293,-280.5 151,-280.5"/>
<text text-anchor="middle" x="222" y="-287.5" font-family="Helvetica,sans-Serif" font-size="10.00">ListOfUncertParameters.h</text>
</a>
</g>
</g>
<!-- Node1&#45;&gt;Node4 -->
<g id="edge3" class="edge">
<title>Node1&#45;&gt;Node4</title>
<path fill="none" stroke="midnightblue" d="M222,-325.8C222,-316.91 222,-306.78 222,-299.75"/>
<polygon fill="midnightblue" stroke="midnightblue" points="218.5,-326.08 222,-336.08 225.5,-326.08 218.5,-326.08"/>
</g>
<!-- Node15 -->
<g id="node15" class="node">
<title>Node15</title>
<g id="a_node15"><a xlink:href="_uncert_span_8cpp.html" target="_top" xlink:title="Implementation of the UncertSpan class.">
<polygon fill="white" stroke="black" points="311.5,-280.5 311.5,-299.5 404.5,-299.5 404.5,-280.5 311.5,-280.5"/>
<text text-anchor="middle" x="358" y="-287.5" font-family="Helvetica,sans-Serif" font-size="10.00">UncertSpan.cpp</text>
</a>
</g>
</g>
<!-- Node1&#45;&gt;Node15 -->
<g id="edge18" class="edge">
<title>Node1&#45;&gt;Node15</title>
<path fill="none" stroke="midnightblue" d="M253.13,-332.64C278.66,-322.5 314.11,-308.43 336.55,-299.52"/>
<polygon fill="midnightblue" stroke="midnightblue" points="251.55,-329.5 243.55,-336.44 254.14,-336.01 251.55,-329.5"/>
</g>
<!-- Node3 -->
<g id="node3" class="node">
<title>Node3</title>
<g id="a_node3"><a xlink:href="_distrib_validator_8cpp.html" target="_top" xlink:title="Definition of DistribValidator.">
<polygon fill="white" stroke="black" points="11,-0.5 11,-19.5 123,-19.5 123,-0.5 11,-0.5"/>
<text text-anchor="middle" x="67" y="-7.5" font-family="Helvetica,sans-Serif" font-size="10.00">DistribValidator.cpp</text>
</a>
</g>
</g>
<!-- Node2&#45;&gt;Node3 -->
<g id="edge2" class="edge">
<title>Node2&#45;&gt;Node3</title>
<path fill="none" stroke="midnightblue" d="M67,-45.8C67,-36.91 67,-26.78 67,-19.75"/>
<polygon fill="midnightblue" stroke="midnightblue" points="63.5,-46.08 67,-56.08 70.5,-46.08 63.5,-46.08"/>
</g>
<!-- Node5 -->
<g id="node5" class="node">
<title>Node5</title>
<g id="a_node5"><a xlink:href="_list_of_uncert_parameters_8cpp.html" target="_top" xlink:title="Implementation of the ListOfUncertParameters class.">
<polygon fill="white" stroke="black" points="78.5,-224.5 78.5,-243.5 231.5,-243.5 231.5,-224.5 78.5,-224.5"/>
<text text-anchor="middle" x="155" y="-231.5" font-family="Helvetica,sans-Serif" font-size="10.00">ListOfUncertParameters.cpp</text>
</a>
</g>
</g>
<!-- Node4&#45;&gt;Node5 -->
<g id="edge4" class="edge">
<title>Node4&#45;&gt;Node5</title>
<path fill="none" stroke="midnightblue" d="M203.17,-273.82C191.16,-264.15 176.03,-251.95 165.96,-243.83"/>
<polygon fill="midnightblue" stroke="midnightblue" points="201.25,-276.77 211.24,-280.32 205.65,-271.32 201.25,-276.77"/>
</g>
<!-- Node6 -->
<g id="node6" class="node">
<title>Node6</title>
<g id="a_node6"><a xlink:href="_uncertainty_8h.html" target="_top" xlink:title="Definition of the Uncertainty class.">
<polygon fill="white" stroke="black" points="249.5,-224.5 249.5,-243.5 330.5,-243.5 330.5,-224.5 249.5,-224.5"/>
<text text-anchor="middle" x="290" y="-231.5" font-family="Helvetica,sans-Serif" font-size="10.00">Uncertainty.h</text>
</a>
</g>
</g>
<!-- Node4&#45;&gt;Node6 -->
<g id="edge5" class="edge">
<title>Node4&#45;&gt;Node6</title>
<path fill="none" stroke="midnightblue" d="M240.76,-274.1C253,-264.38 268.56,-252.03 278.88,-243.83"/>
<polygon fill="midnightblue" stroke="midnightblue" points="238.58,-271.36 232.93,-280.32 242.93,-276.85 238.58,-271.36"/>
</g>
<!-- Node14 -->
<g id="node14" class="node">
<title>Node14</title>
<g id="a_node14"><a xlink:href="_uncert_parameter_8cpp.html" target="_top" xlink:title="Implementation of the UncertParameter class.">
<polygon fill="white" stroke="black" points="348.5,-224.5 348.5,-243.5 467.5,-243.5 467.5,-224.5 348.5,-224.5"/>
<text text-anchor="middle" x="408" y="-231.5" font-family="Helvetica,sans-Serif" font-size="10.00">UncertParameter.cpp</text>
</a>
</g>
</g>
<!-- Node4&#45;&gt;Node14 -->
<g id="edge17" class="edge">
<title>Node4&#45;&gt;Node14</title>
<path fill="none" stroke="midnightblue" d="M261.38,-277.57C296.47,-267.38 347.02,-252.7 378.67,-243.52"/>
<polygon fill="midnightblue" stroke="midnightblue" points="260.1,-274.29 251.47,-280.44 262.05,-281.02 260.1,-274.29"/>
</g>
<!-- Node6&#45;&gt;Node2 -->
<g id="edge6" class="edge">
<title>Node6&#45;&gt;Node2</title>
<path fill="none" stroke="midnightblue" d="M264.38,-219.56C248.86,-211.09 228.85,-199.59 212,-188 157.16,-150.28 98.12,-96.3 76.02,-75.56"/>
<polygon fill="midnightblue" stroke="midnightblue" points="262.94,-222.76 273.41,-224.42 266.26,-216.6 262.94,-222.76"/>
</g>
<!-- Node7 -->
<g id="node7" class="node">
<title>Node7</title>
<g id="a_node7"><a xlink:href="_distrib_s_base_plugin_8h.html" target="_top" xlink:title="Definition of the DistribSBasePlugin class.">
<polygon fill="white" stroke="black" points="152,-112.5 152,-131.5 270,-131.5 270,-112.5 152,-112.5"/>
<text text-anchor="middle" x="211" y="-119.5" font-family="Helvetica,sans-Serif" font-size="10.00">DistribSBasePlugin.h</text>
</a>
</g>
</g>
<!-- Node6&#45;&gt;Node7 -->
<g id="edge7" class="edge">
<title>Node6&#45;&gt;Node7</title>
<path fill="none" stroke="midnightblue" d="M260.95,-219.73C247.72,-212.24 233.02,-201.62 224,-188 212.44,-170.54 210.74,-145.05 210.73,-131.78"/>
<polygon fill="midnightblue" stroke="midnightblue" points="259.32,-222.82 269.8,-224.41 262.6,-216.64 259.32,-222.82"/>
</g>
<!-- Node10 -->
<g id="node10" class="node">
<title>Node10</title>
<g id="a_node10"><a xlink:href="_distrib_base_8cpp.html" target="_top" xlink:title="Implementation of the DistribBase class.">
<polygon fill="white" stroke="black" points="232.5,-168.5 232.5,-187.5 325.5,-187.5 325.5,-168.5 232.5,-168.5"/>
<text text-anchor="middle" x="279" y="-175.5" font-family="Helvetica,sans-Serif" font-size="10.00">DistribBase.cpp</text>
</a>
</g>
</g>
<!-- Node6&#45;&gt;Node10 -->
<g id="edge11" class="edge">
<title>Node6&#45;&gt;Node10</title>
<path fill="none" stroke="midnightblue" d="M286.15,-214.1C284.32,-205.14 282.23,-194.86 280.78,-187.75"/>
<polygon fill="midnightblue" stroke="midnightblue" points="282.76,-214.98 288.18,-224.08 289.62,-213.59 282.76,-214.98"/>
</g>
<!-- Node11 -->
<g id="node11" class="node">
<title>Node11</title>
<g id="a_node11"><a xlink:href="_list_of_uncertainties_8h.html" target="_top" xlink:title="Definition of the ListOfUncertainties class.">
<polygon fill="white" stroke="black" points="343.5,-168.5 343.5,-187.5 462.5,-187.5 462.5,-168.5 343.5,-168.5"/>
<text text-anchor="middle" x="403" y="-175.5" font-family="Helvetica,sans-Serif" font-size="10.00">ListOfUncertainties.h</text>
</a>
</g>
</g>
<!-- Node6&#45;&gt;Node11 -->
<g id="edge12" class="edge">
<title>Node6&#45;&gt;Node11</title>
<path fill="none" stroke="midnightblue" d="M317,-220.1C338.11,-210.01 366.86,-196.27 385.18,-187.52"/>
<polygon fill="midnightblue" stroke="midnightblue" points="315.42,-216.97 307.91,-224.44 318.44,-223.29 315.42,-216.97"/>
</g>
<!-- Node13 -->
<g id="node13" class="node">
<title>Node13</title>
<g id="a_node13"><a xlink:href="_uncertainty_8cpp.html" target="_top" xlink:title="Implementation of the Uncertainty class.">
<polygon fill="white" stroke="black" points="445,-112.5 445,-131.5 537,-131.5 537,-112.5 445,-112.5"/>
<text text-anchor="middle" x="491" y="-119.5" font-family="Helvetica,sans-Serif" font-size="10.00">Uncertainty.cpp</text>
</a>
</g>
</g>
<!-- Node6&#45;&gt;Node13 -->
<g id="edge16" class="edge">
<title>Node6&#45;&gt;Node13</title>
<path fill="none" stroke="midnightblue" d="M341.02,-223.09C391.45,-212.87 462.44,-197.17 472,-188 487.78,-172.87 490.66,-145.41 491.06,-131.53"/>
<polygon fill="midnightblue" stroke="midnightblue" points="340.03,-219.72 330.91,-225.12 341.41,-226.58 340.03,-219.72"/>
</g>
<!-- Node7&#45;&gt;Node2 -->
<g id="edge8" class="edge">
<title>Node7&#45;&gt;Node2</title>
<path fill="none" stroke="midnightblue" d="M178.75,-108.91C151.68,-98.75 113.68,-84.51 89.71,-75.52"/>
<polygon fill="midnightblue" stroke="midnightblue" points="177.59,-112.21 188.18,-112.44 180.05,-105.66 177.59,-112.21"/>
</g>
<!-- Node8 -->
<g id="node8" class="node">
<title>Node8</title>
<g id="a_node8"><a xlink:href="_distrib_extension_8cpp.html" target="_top" xlink:title="Implementation of DistribExtension.">
<polygon fill="white" stroke="black" points="152.5,-56.5 152.5,-75.5 269.5,-75.5 269.5,-56.5 152.5,-56.5"/>
<text text-anchor="middle" x="211" y="-63.5" font-family="Helvetica,sans-Serif" font-size="10.00">DistribExtension.cpp</text>
</a>
</g>
</g>
<!-- Node7&#45;&gt;Node8 -->
<g id="edge9" class="edge">
<title>Node7&#45;&gt;Node8</title>
<path fill="none" stroke="midnightblue" d="M211,-101.8C211,-92.91 211,-82.78 211,-75.75"/>
<polygon fill="midnightblue" stroke="midnightblue" points="207.5,-102.08 211,-112.08 214.5,-102.08 207.5,-102.08"/>
</g>
<!-- Node9 -->
<g id="node9" class="node">
<title>Node9</title>
<g id="a_node9"><a xlink:href="_distrib_s_base_plugin_8cpp.html" target="_top" xlink:title="Implementation of the DistribSBasePlugin class.">
<polygon fill="white" stroke="black" points="287.5,-56.5 287.5,-75.5 416.5,-75.5 416.5,-56.5 287.5,-56.5"/>
<text text-anchor="middle" x="352" y="-63.5" font-family="Helvetica,sans-Serif" font-size="10.00">DistribSBasePlugin.cpp</text>
</a>
</g>
</g>
<!-- Node7&#45;&gt;Node9 -->
<g id="edge10" class="edge">
<title>Node7&#45;&gt;Node9</title>
<path fill="none" stroke="midnightblue" d="M242.93,-108.77C269.41,-98.63 306.39,-84.47 329.76,-75.52"/>
<polygon fill="midnightblue" stroke="midnightblue" points="241.43,-105.6 233.34,-112.44 243.93,-112.14 241.43,-105.6"/>
</g>
<!-- Node11&#45;&gt;Node7 -->
<g id="edge13" class="edge">
<title>Node11&#45;&gt;Node7</title>
<path fill="none" stroke="midnightblue" d="M362.82,-165.7C326.58,-155.51 274.09,-140.74 241.28,-131.52"/>
<polygon fill="midnightblue" stroke="midnightblue" points="362,-169.11 372.58,-168.44 363.9,-162.37 362,-169.11"/>
</g>
<!-- Node12 -->
<g id="node12" class="node">
<title>Node12</title>
<g id="a_node12"><a xlink:href="_list_of_uncertainties_8cpp.html" target="_top" xlink:title="Implementation of the ListOfUncertainties class.">
<polygon fill="white" stroke="black" points="295.5,-112.5 295.5,-131.5 426.5,-131.5 426.5,-112.5 295.5,-112.5"/>
<text text-anchor="middle" x="361" y="-119.5" font-family="Helvetica,sans-Serif" font-size="10.00">ListOfUncertainties.cpp</text>
</a>
</g>
</g>
<!-- Node11&#45;&gt;Node12 -->
<g id="edge14" class="edge">
<title>Node11&#45;&gt;Node12</title>
<path fill="none" stroke="midnightblue" d="M389.89,-160.14C382.57,-150.74 373.76,-139.4 367.81,-131.75"/>
<polygon fill="midnightblue" stroke="midnightblue" points="387.16,-162.34 396.06,-168.08 392.69,-158.04 387.16,-162.34"/>
</g>
<!-- Node11&#45;&gt;Node13 -->
<g id="edge15" class="edge">
<title>Node11&#45;&gt;Node13</title>
<path fill="none" stroke="midnightblue" d="M425.98,-162.9C442.11,-153 463.18,-140.07 476.9,-131.65"/>
<polygon fill="midnightblue" stroke="midnightblue" points="423.83,-160.11 417.14,-168.32 427.49,-166.08 423.83,-160.11"/>
</g>
</g>
</svg>
