<?xml version="1.0" encoding="UTF-8" standalone="no"?>
<!DOCTYPE svg PUBLIC "-//W3C//DTD SVG 1.1//EN"
 "http://www.w3.org/Graphics/SVG/1.1/DTD/svg11.dtd">
<!-- Generated by graphviz version 2.43.0 (0)
 -->
<!-- Title: UnitKind.h Pages: 1 -->
<svg width="138pt" height="151pt"
 viewBox="0.00 0.00 138.00 151.00" xmlns="http://www.w3.org/2000/svg" xmlns:xlink="http://www.w3.org/1999/xlink">
<g id="graph0" class="graph" transform="scale(1 1) rotate(0) translate(4 147)">
<title>UnitKind.h</title>
<polygon fill="white" stroke="transparent" points="-4,4 -4,-147 134,-147 134,4 -4,4"/>
<!-- Node1 -->
<g id="node1" class="node">
<title>Node1</title>
<g id="a_node1"><a xlink:title="Definition of SBML&#39;s UnitKind enumeration.">
<polygon fill="#bfbfbf" stroke="black" points="31,-123.5 31,-142.5 99,-142.5 99,-123.5 31,-123.5"/>
<text text-anchor="middle" x="65" y="-130.5" font-family="Helvetica,sans-Serif" font-size="10.00">UnitKind.h</text>
</a>
</g>
</g>
<!-- Node2 -->
<g id="node2" class="node">
<title>Node2</title>
<g id="a_node2"><a xlink:href="extern_8h.html" target="_top" xlink:title="Definitions of LIBSBML_EXTERN and related things.">
<polygon fill="white" stroke="black" points="0,-67.5 0,-86.5 130,-86.5 130,-67.5 0,-67.5"/>
<text text-anchor="middle" x="65" y="-74.5" font-family="Helvetica,sans-Serif" font-size="10.00">sbml/common/extern.h</text>
</a>
</g>
</g>
<!-- Node1&#45;&gt;Node2 -->
<g id="edge1" class="edge">
<title>Node1&#45;&gt;Node2</title>
<path fill="none" stroke="midnightblue" d="M65,-123.08C65,-116.01 65,-105.86 65,-96.99"/>
<polygon fill="midnightblue" stroke="midnightblue" points="68.5,-96.75 65,-86.75 61.5,-96.75 68.5,-96.75"/>
</g>
<!-- Node3 -->
<g id="node3" class="node">
<title>Node3</title>
<g id="a_node3"><a xlink:title=" ">
<polygon fill="white" stroke="#bfbfbf" points="2.5,-0.5 2.5,-30.5 127.5,-30.5 127.5,-0.5 2.5,-0.5"/>
<text text-anchor="start" x="10.5" y="-18.5" font-family="Helvetica,sans-Serif" font-size="10.00">sbml/common/libsbml</text>
<text text-anchor="middle" x="65" y="-7.5" font-family="Helvetica,sans-Serif" font-size="10.00">&#45;namespace.h</text>
</a>
</g>
</g>
<!-- Node2&#45;&gt;Node3 -->
<g id="edge2" class="edge">
<title>Node2&#45;&gt;Node3</title>
<path fill="none" stroke="midnightblue" d="M65,-67.48C65,-60.47 65,-50.19 65,-40.7"/>
<polygon fill="midnightblue" stroke="midnightblue" points="68.5,-40.52 65,-30.52 61.5,-40.52 68.5,-40.52"/>
</g>
</g>
</svg>
