<?xml version="1.0" encoding="UTF-8" standalone="no"?>
<!DOCTYPE svg PUBLIC "-//W3C//DTD SVG 1.1//EN"
 "http://www.w3.org/Graphics/SVG/1.1/DTD/svg11.dtd">
<!-- Generated by graphviz version 2.43.0 (0)
 -->
<!-- Title: VConstraint.h Pages: 1 -->
<svg width="1080pt" height="84pt"
 viewBox="0.00 0.00 1080.00 84.00" xmlns="http://www.w3.org/2000/svg" xmlns:xlink="http://www.w3.org/1999/xlink">
<g id="graph0" class="graph" transform="scale(1 1) rotate(0) translate(4 80)">
<title>VConstraint.h</title>
<polygon fill="white" stroke="transparent" points="-4,4 -4,-80 1076,-80 1076,4 -4,4"/>
<!-- Node1 -->
<g id="node1" class="node">
<title>Node1</title>
<g id="a_node1"><a xlink:title="Base class for all SBML Validator Constraints.">
<polygon fill="#bfbfbf" stroke="black" points="467.5,-56.5 467.5,-75.5 550.5,-75.5 550.5,-56.5 467.5,-56.5"/>
<text text-anchor="middle" x="509" y="-63.5" font-family="Helvetica,sans-Serif" font-size="10.00">VConstraint.h</text>
</a>
</g>
</g>
<!-- Node2 -->
<g id="node2" class="node">
<title>Node2</title>
<g id="a_node2"><a xlink:href="_validator_8cpp.html" target="_top" xlink:title="Base class for SBML Validators.">
<polygon fill="white" stroke="black" points="0,-0.5 0,-19.5 80,-19.5 80,-0.5 0,-0.5"/>
<text text-anchor="middle" x="40" y="-7.5" font-family="Helvetica,sans-Serif" font-size="10.00">Validator.cpp</text>
</a>
</g>
</g>
<!-- Node1&#45;&gt;Node2 -->
<g id="edge1" class="edge">
<title>Node1&#45;&gt;Node2</title>
<path fill="none" stroke="midnightblue" d="M457.21,-60.71C377.77,-53.84 221.14,-39.19 89,-20 86.09,-19.58 83.09,-19.11 80.07,-18.61"/>
<polygon fill="midnightblue" stroke="midnightblue" points="457.18,-64.22 467.44,-61.59 457.77,-57.24 457.18,-64.22"/>
</g>
<!-- Node3 -->
<g id="node3" class="node">
<title>Node3</title>
<g id="a_node3"><a xlink:href="_v_constraint_8cpp.html" target="_top" xlink:title="Base class for all SBML Validator Constraints.">
<polygon fill="white" stroke="black" points="98,-0.5 98,-19.5 192,-19.5 192,-0.5 98,-0.5"/>
<text text-anchor="middle" x="145" y="-7.5" font-family="Helvetica,sans-Serif" font-size="10.00">VConstraint.cpp</text>
</a>
</g>
</g>
<!-- Node1&#45;&gt;Node3 -->
<g id="edge2" class="edge">
<title>Node1&#45;&gt;Node3</title>
<path fill="none" stroke="midnightblue" d="M456.94,-57.62C395.67,-48.89 290.88,-33.79 201,-20 198.08,-19.55 195.08,-19.09 192.05,-18.61"/>
<polygon fill="midnightblue" stroke="midnightblue" points="456.73,-61.13 467.12,-59.08 457.72,-54.2 456.73,-61.13"/>
</g>
<!-- Node4 -->
<g id="node4" class="node">
<title>Node4</title>
<g id="a_node4"><a xlink:href="_comp_validator_8cpp.html" target="_top" xlink:title=" ">
<polygon fill="white" stroke="black" points="210,-0.5 210,-19.5 318,-19.5 318,-0.5 210,-0.5"/>
<text text-anchor="middle" x="264" y="-7.5" font-family="Helvetica,sans-Serif" font-size="10.00">CompValidator.cpp</text>
</a>
</g>
</g>
<!-- Node1&#45;&gt;Node4 -->
<g id="edge3" class="edge">
<title>Node1&#45;&gt;Node4</title>
<path fill="none" stroke="midnightblue" d="M460.37,-54.28C414.07,-44.08 345.31,-28.92 302.64,-19.52"/>
<polygon fill="midnightblue" stroke="midnightblue" points="459.66,-57.71 470.18,-56.44 461.17,-50.87 459.66,-57.71"/>
</g>
<!-- Node5 -->
<g id="node5" class="node">
<title>Node5</title>
<g id="a_node5"><a xlink:href="_fbc_validator_8cpp.html" target="_top" xlink:title="Base class for SBML Validators.">
<polygon fill="white" stroke="black" points="336.5,-0.5 336.5,-19.5 433.5,-19.5 433.5,-0.5 336.5,-0.5"/>
<text text-anchor="middle" x="385" y="-7.5" font-family="Helvetica,sans-Serif" font-size="10.00">FbcValidator.cpp</text>
</a>
</g>
</g>
<!-- Node1&#45;&gt;Node5 -->
<g id="edge4" class="edge">
<title>Node1&#45;&gt;Node5</title>
<path fill="none" stroke="midnightblue" d="M479.99,-52.37C456.77,-42.26 424.84,-28.35 404.56,-19.52"/>
<polygon fill="midnightblue" stroke="midnightblue" points="478.79,-55.66 489.35,-56.44 481.58,-49.24 478.79,-55.66"/>
</g>
<!-- Node6 -->
<g id="node6" class="node">
<title>Node6</title>
<g id="a_node6"><a xlink:href="_groups_validator_8cpp.html" target="_top" xlink:title="Definition of GroupsValidator.">
<polygon fill="white" stroke="black" points="452,-0.5 452,-19.5 566,-19.5 566,-0.5 452,-0.5"/>
<text text-anchor="middle" x="509" y="-7.5" font-family="Helvetica,sans-Serif" font-size="10.00">GroupsValidator.cpp</text>
</a>
</g>
</g>
<!-- Node1&#45;&gt;Node6 -->
<g id="edge5" class="edge">
<title>Node1&#45;&gt;Node6</title>
<path fill="none" stroke="midnightblue" d="M509,-45.8C509,-36.91 509,-26.78 509,-19.75"/>
<polygon fill="midnightblue" stroke="midnightblue" points="505.5,-46.08 509,-56.08 512.5,-46.08 505.5,-46.08"/>
</g>
<!-- Node7 -->
<g id="node7" class="node">
<title>Node7</title>
<g id="a_node7"><a xlink:href="_layout_validator_8cpp.html" target="_top" xlink:title="Implementation of the LayoutValidator class.">
<polygon fill="white" stroke="black" points="584.5,-0.5 584.5,-19.5 697.5,-19.5 697.5,-0.5 584.5,-0.5"/>
<text text-anchor="middle" x="641" y="-7.5" font-family="Helvetica,sans-Serif" font-size="10.00">LayoutValidator.cpp</text>
</a>
</g>
</g>
<!-- Node1&#45;&gt;Node7 -->
<g id="edge6" class="edge">
<title>Node1&#45;&gt;Node7</title>
<path fill="none" stroke="midnightblue" d="M539.22,-52.64C563.99,-42.5 598.4,-28.43 620.18,-19.52"/>
<polygon fill="midnightblue" stroke="midnightblue" points="537.85,-49.42 529.92,-56.44 540.5,-55.9 537.85,-49.42"/>
</g>
<!-- Node8 -->
<g id="node8" class="node">
<title>Node8</title>
<g id="a_node8"><a xlink:href="_render_validator_8cpp.html" target="_top" xlink:title="Definition of RenderValidator.">
<polygon fill="white" stroke="black" points="716,-0.5 716,-19.5 830,-19.5 830,-0.5 716,-0.5"/>
<text text-anchor="middle" x="773" y="-7.5" font-family="Helvetica,sans-Serif" font-size="10.00">RenderValidator.cpp</text>
</a>
</g>
</g>
<!-- Node1&#45;&gt;Node8 -->
<g id="edge7" class="edge">
<title>Node1&#45;&gt;Node8</title>
<path fill="none" stroke="midnightblue" d="M560.47,-54.47C610.33,-44.27 685,-29 731.27,-19.54"/>
<polygon fill="midnightblue" stroke="midnightblue" points="559.64,-51.07 550.54,-56.5 561.04,-57.93 559.64,-51.07"/>
</g>
<!-- Node9 -->
<g id="node9" class="node">
<title>Node9</title>
<g id="a_node9"><a xlink:href="_multi_validator_8cpp.html" target="_top" xlink:title=": Implementation of the MultiValidator class">
<polygon fill="white" stroke="black" points="848,-0.5 848,-19.5 952,-19.5 952,-0.5 848,-0.5"/>
<text text-anchor="middle" x="900" y="-7.5" font-family="Helvetica,sans-Serif" font-size="10.00">MultiValidator.cpp</text>
</a>
</g>
</g>
<!-- Node1&#45;&gt;Node9 -->
<g id="edge8" class="edge">
<title>Node1&#45;&gt;Node9</title>
<path fill="none" stroke="midnightblue" d="M560.69,-58.13C625.67,-49.45 740.64,-33.96 839,-20 841.86,-19.59 844.8,-19.17 847.76,-18.75"/>
<polygon fill="midnightblue" stroke="midnightblue" points="560.14,-54.67 550.7,-59.46 561.07,-61.61 560.14,-54.67"/>
</g>
<!-- Node10 -->
<g id="node10" class="node">
<title>Node10</title>
<g id="a_node10"><a xlink:href="_qual_validator_8cpp.html" target="_top" xlink:title="Base class for SBML Validators.">
<polygon fill="white" stroke="black" points="970,-0.5 970,-19.5 1072,-19.5 1072,-0.5 970,-0.5"/>
<text text-anchor="middle" x="1021" y="-7.5" font-family="Helvetica,sans-Serif" font-size="10.00">QualValidator.cpp</text>
</a>
</g>
</g>
<!-- Node1&#45;&gt;Node10 -->
<g id="edge9" class="edge">
<title>Node1&#45;&gt;Node10</title>
<path fill="none" stroke="midnightblue" d="M560.57,-60.71C644.59,-53.52 816.2,-38.06 961,-20 963.93,-19.64 966.93,-19.24 969.96,-18.83"/>
<polygon fill="midnightblue" stroke="midnightblue" points="560.19,-57.23 550.52,-61.56 560.78,-64.2 560.19,-57.23"/>
</g>
</g>
</svg>
