<?xml version="1.0" encoding="UTF-8" standalone="no"?>
<!DOCTYPE svg PUBLIC "-//W3C//DTD SVG 1.1//EN"
 "http://www.w3.org/Graphics/SVG/1.1/DTD/svg11.dtd">
<!-- Generated by graphviz version 2.43.0 (0)
 -->
<!-- Title: XMLErrorLog.h Pages: 1 -->
<!--zoomable 397 -->
<svg id="main" version="1.1" xmlns="http://www.w3.org/2000/svg" xmlns:xlink="http://www.w3.org/1999/xlink" xml:space="preserve" onload="init(evt)">
<style type="text/css"><![CDATA[
.edge:hover path { stroke: red; }
.edge:hover polygon { stroke: red; fill: red; }
]]></style>
<script type="text/javascript"><![CDATA[
var edges = document.getElementsByTagName('g');
if (edges && edges.length) {
  for (var i=0;i<edges.length;i++) {
    if (edges[i].id.substr(0,4)=='edge') {
      edges[i].setAttribute('class','edge');
    }
  }
}
]]></script>
        <defs>
                <circle id="rim" cx="0" cy="0" r="7"/>
                <circle id="rim2" cx="0" cy="0" r="3.5"/>
                <g id="zoomPlus">
                        <use xlink:href="#rim" fill="#404040">
                                <set attributeName="fill" to="#808080" begin="zoomplus.mouseover" end="zoomplus.mouseout"/>
                        </use>
                        <path d="M-4,0h8M0,-4v8" fill="none" stroke="white" stroke-width="1.5" pointer-events="none"/>
                </g>
                <g id="zoomMin">
                        <use xlink:href="#rim" fill="#404040">
                                <set attributeName="fill" to="#808080" begin="zoomminus.mouseover" end="zoomminus.mouseout"/>
                        </use>
                        <path d="M-4,0h8" fill="none" stroke="white" stroke-width="1.5" pointer-events="none"/>
                </g>
                <g id="dirArrow">
                        <path fill="none" stroke="white" stroke-width="1.5" d="M0,-3.0v7 M-2.5,-0.5L0,-3.0L2.5,-0.5"/>
                </g>
               <g id="resetDef">
                       <use xlink:href="#rim2" fill="#404040">
                               <set attributeName="fill" to="#808080" begin="reset.mouseover" end="reset.mouseout"/>
                       </use>
               </g>
        </defs>

<script type="text/javascript">
var viewWidth = 683;
var viewHeight = 397;
var sectionId = 'dynsection-0';
</script>
<script xlink:href="svgpan.js"/>
<svg id="graph" class="graph">
<g id="viewport">
<title>XMLErrorLog.h</title>
<polygon fill="white" stroke="transparent" points="-4,4 -4,-393 679.3,-393 679.3,4 -4,4"/>
<!-- Node1 -->
<g id="node1" class="node">
<title>Node1</title>
<g id="a_node1"><a xlink:title="Stores errors (and messages) encountered while processing XML.">
<polygon fill="#bfbfbf" stroke="black" points="427.8,-369.5 427.8,-388.5 514.8,-388.5 514.8,-369.5 427.8,-369.5"/>
<text text-anchor="middle" x="471.3" y="-376.5" font-family="Helvetica,sans-Serif" font-size="10.00">XMLErrorLog.h</text>
</a>
</g>
</g>
<!-- Node2 -->
<g id="node2" class="node">
<title>Node2</title>
<g id="a_node2"><a xlink:href="_x_m_l_extern_8h.html" target="_top" xlink:title="Defines LIBLAX_EXTERN.">
<polygon fill="white" stroke="black" points="0.8,-257.5 0.8,-276.5 127.8,-276.5 127.8,-257.5 0.8,-257.5"/>
<text text-anchor="middle" x="64.3" y="-264.5" font-family="Helvetica,sans-Serif" font-size="10.00">sbml/xml/XMLExtern.h</text>
</a>
</g>
</g>
<!-- Node1&#45;&gt;Node2 -->
<g id="edge1" class="edge">
<title>Node1&#45;&gt;Node2</title>
<path fill="none" stroke="midnightblue" d="M431.18,-369.45C392.01,-360.92 330.8,-347.08 278.3,-333 215.1,-316.06 142.39,-293.26 100.06,-279.65"/>
<polygon fill="midnightblue" stroke="midnightblue" points="101.08,-276.3 90.49,-276.57 98.93,-282.97 101.08,-276.3"/>
</g>
<!-- Node4 -->
<g id="node4" class="node">
<title>Node4</title>
<g id="a_node4"><a xlink:href="_x_m_l_error_8h.html" target="_top" xlink:title="Represents errors (and messages) encountered during an XML parse.">
<polygon fill="white" stroke="black" points="325.3,-313.5 325.3,-332.5 443.3,-332.5 443.3,-313.5 325.3,-313.5"/>
<text text-anchor="middle" x="384.3" y="-320.5" font-family="Helvetica,sans-Serif" font-size="10.00">sbml/xml/XMLError.h</text>
</a>
</g>
</g>
<!-- Node1&#45;&gt;Node4 -->
<g id="edge3" class="edge">
<title>Node1&#45;&gt;Node4</title>
<path fill="none" stroke="midnightblue" d="M457.32,-369.32C443.75,-360.9 422.92,-347.97 406.97,-338.07"/>
<polygon fill="midnightblue" stroke="midnightblue" points="408.58,-334.95 398.24,-332.65 404.89,-340.9 408.58,-334.95"/>
</g>
<!-- Node6 -->
<g id="node6" class="node">
<title>Node6</title>
<g id="a_node6"><a xlink:href="sbmlfwd_8h.html" target="_top" xlink:title="Forward declarations for all opaque C types.">
<polygon fill="white" stroke="black" points="146.3,-257.5 146.3,-276.5 286.3,-276.5 286.3,-257.5 146.3,-257.5"/>
<text text-anchor="middle" x="216.3" y="-264.5" font-family="Helvetica,sans-Serif" font-size="10.00">sbml/common/sbmlfwd.h</text>
</a>
</g>
</g>
<!-- Node1&#45;&gt;Node6 -->
<g id="edge22" class="edge">
<title>Node1&#45;&gt;Node6</title>
<path fill="none" stroke="midnightblue" d="M429.98,-369.5C398.06,-362.11 353.24,-349.92 316.3,-333 286.09,-319.17 254.47,-297.15 235.07,-282.63"/>
<polygon fill="midnightblue" stroke="midnightblue" points="237.15,-279.81 227.07,-276.55 232.91,-285.38 237.15,-279.81"/>
</g>
<!-- Node14 -->
<g id="node14" class="node">
<title>Node14</title>
<g id="a_node14"><a xlink:title=" ">
<polygon fill="white" stroke="#bfbfbf" points="552.3,-257.5 552.3,-276.5 596.3,-276.5 596.3,-257.5 552.3,-257.5"/>
<text text-anchor="middle" x="574.3" y="-264.5" font-family="Helvetica,sans-Serif" font-size="10.00">string</text>
</a>
</g>
</g>
<!-- Node1&#45;&gt;Node14 -->
<g id="edge24" class="edge">
<title>Node1&#45;&gt;Node14</title>
<path fill="none" stroke="midnightblue" d="M471.72,-369.45C472.81,-356.03 476.66,-329.8 490.3,-313 503.75,-296.42 525,-285.11 542.76,-277.99"/>
<polygon fill="midnightblue" stroke="midnightblue" points="544.06,-281.24 552.19,-274.45 541.6,-274.68 544.06,-281.24"/>
</g>
<!-- Node16 -->
<g id="node16" class="node">
<title>Node16</title>
<g id="a_node16"><a xlink:title=" ">
<polygon fill="white" stroke="#bfbfbf" points="499.3,-313.5 499.3,-332.5 559.3,-332.5 559.3,-313.5 499.3,-313.5"/>
<text text-anchor="middle" x="529.3" y="-320.5" font-family="Helvetica,sans-Serif" font-size="10.00">iostream</text>
</a>
</g>
</g>
<!-- Node1&#45;&gt;Node16 -->
<g id="edge23" class="edge">
<title>Node1&#45;&gt;Node16</title>
<path fill="none" stroke="midnightblue" d="M480.61,-369.32C489.19,-361.34 502.11,-349.31 512.48,-339.65"/>
<polygon fill="midnightblue" stroke="midnightblue" points="514.87,-342.21 519.81,-332.83 510.1,-337.09 514.87,-342.21"/>
</g>
<!-- Node17 -->
<g id="node17" class="node">
<title>Node17</title>
<g id="a_node17"><a xlink:title=" ">
<polygon fill="white" stroke="#bfbfbf" points="577.8,-313.5 577.8,-332.5 624.8,-332.5 624.8,-313.5 577.8,-313.5"/>
<text text-anchor="middle" x="601.3" y="-320.5" font-family="Helvetica,sans-Serif" font-size="10.00">vector</text>
</a>
</g>
</g>
<!-- Node1&#45;&gt;Node17 -->
<g id="edge25" class="edge">
<title>Node1&#45;&gt;Node17</title>
<path fill="none" stroke="midnightblue" d="M491.89,-369.44C513.29,-360.56 546.98,-346.56 571.32,-336.45"/>
<polygon fill="midnightblue" stroke="midnightblue" points="572.9,-339.58 580.79,-332.52 570.22,-333.12 572.9,-339.58"/>
</g>
<!-- Node18 -->
<g id="node18" class="node">
<title>Node18</title>
<g id="a_node18"><a xlink:title=" ">
<polygon fill="white" stroke="#bfbfbf" points="643.3,-313.5 643.3,-332.5 675.3,-332.5 675.3,-313.5 643.3,-313.5"/>
<text text-anchor="middle" x="659.3" y="-320.5" font-family="Helvetica,sans-Serif" font-size="10.00">list</text>
</a>
</g>
</g>
<!-- Node1&#45;&gt;Node18 -->
<g id="edge26" class="edge">
<title>Node1&#45;&gt;Node18</title>
<path fill="none" stroke="midnightblue" d="M505.23,-369.44C536.35,-361.41 583.89,-348.7 633.59,-333.05"/>
<polygon fill="midnightblue" stroke="midnightblue" points="634.75,-336.36 643.22,-329.99 632.63,-329.68 634.75,-336.36"/>
</g>
<!-- Node3 -->
<g id="node3" class="node">
<title>Node3</title>
<g id="a_node3"><a xlink:title=" ">
<polygon fill="white" stroke="#bfbfbf" points="65.8,-0.5 65.8,-30.5 190.8,-30.5 190.8,-0.5 65.8,-0.5"/>
<text text-anchor="start" x="73.8" y="-18.5" font-family="Helvetica,sans-Serif" font-size="10.00">sbml/common/libsbml</text>
<text text-anchor="middle" x="128.3" y="-7.5" font-family="Helvetica,sans-Serif" font-size="10.00">&#45;namespace.h</text>
</a>
</g>
</g>
<!-- Node2&#45;&gt;Node3 -->
<g id="edge2" class="edge">
<title>Node2&#45;&gt;Node3</title>
<path fill="none" stroke="midnightblue" d="M52.75,-257.49C42.82,-249.38 29.17,-236.18 23.3,-221 -1.42,-157.17 -13.13,-124.94 23.3,-67 32.3,-52.68 46.63,-42.32 61.84,-34.87"/>
<polygon fill="midnightblue" stroke="midnightblue" points="63.69,-37.88 71.39,-30.6 60.83,-31.49 63.69,-37.88"/>
</g>
<!-- Node4&#45;&gt;Node2 -->
<g id="edge5" class="edge">
<title>Node4&#45;&gt;Node2</title>
<path fill="none" stroke="midnightblue" d="M333.59,-313.44C276.95,-303.89 185.3,-288.42 124.92,-278.23"/>
<polygon fill="midnightblue" stroke="midnightblue" points="125.21,-274.73 114.76,-276.52 124.04,-281.63 125.21,-274.73"/>
</g>
<!-- Node5 -->
<g id="node5" class="node">
<title>Node5</title>
<g id="a_node5"><a xlink:title=" ">
<polygon fill="white" stroke="#bfbfbf" points="429.3,-196 429.3,-215 479.3,-215 479.3,-196 429.3,-196"/>
<text text-anchor="middle" x="454.3" y="-203" font-family="Helvetica,sans-Serif" font-size="10.00">stdio.h</text>
</a>
</g>
</g>
<!-- Node4&#45;&gt;Node5 -->
<g id="edge4" class="edge">
<title>Node4&#45;&gt;Node5</title>
<path fill="none" stroke="midnightblue" d="M389.56,-313.32C401.01,-294.42 428.39,-249.25 443.62,-224.12"/>
<polygon fill="midnightblue" stroke="midnightblue" points="446.78,-225.65 448.97,-215.28 440.8,-222.02 446.78,-225.65"/>
</g>
<!-- Node4&#45;&gt;Node6 -->
<g id="edge6" class="edge">
<title>Node4&#45;&gt;Node6</title>
<path fill="none" stroke="midnightblue" d="M357.68,-313.44C329.29,-304.32 284.16,-289.81 252.54,-279.65"/>
<polygon fill="midnightblue" stroke="midnightblue" points="253.38,-276.24 242.79,-276.52 251.24,-282.91 253.38,-276.24"/>
</g>
<!-- Node11 -->
<g id="node11" class="node">
<title>Node11</title>
<g id="a_node11"><a xlink:href="util_8h.html" target="_top" xlink:title="Utility functions.">
<polygon fill="white" stroke="black" points="304.8,-257.5 304.8,-276.5 391.8,-276.5 391.8,-257.5 304.8,-257.5"/>
<text text-anchor="middle" x="348.3" y="-264.5" font-family="Helvetica,sans-Serif" font-size="10.00">sbml/util/util.h</text>
</a>
</g>
</g>
<!-- Node4&#45;&gt;Node11 -->
<g id="edge14" class="edge">
<title>Node4&#45;&gt;Node11</title>
<path fill="none" stroke="midnightblue" d="M378.35,-313.08C373.32,-305.53 365.96,-294.49 359.78,-285.23"/>
<polygon fill="midnightblue" stroke="midnightblue" points="362.59,-283.13 354.13,-276.75 356.76,-287.01 362.59,-283.13"/>
</g>
<!-- Node13 -->
<g id="node13" class="node">
<title>Node13</title>
<g id="a_node13"><a xlink:title=" ">
<polygon fill="white" stroke="#bfbfbf" points="448.3,-257.5 448.3,-276.5 496.3,-276.5 496.3,-257.5 448.3,-257.5"/>
<text text-anchor="middle" x="472.3" y="-264.5" font-family="Helvetica,sans-Serif" font-size="10.00">iosfwd</text>
</a>
</g>
</g>
<!-- Node4&#45;&gt;Node13 -->
<g id="edge18" class="edge">
<title>Node4&#45;&gt;Node13</title>
<path fill="none" stroke="midnightblue" d="M398.43,-313.32C412.16,-304.9 433.23,-291.97 449.36,-282.07"/>
<polygon fill="midnightblue" stroke="midnightblue" points="451.5,-284.87 458.19,-276.65 447.84,-278.9 451.5,-284.87"/>
</g>
<!-- Node4&#45;&gt;Node14 -->
<g id="edge19" class="edge">
<title>Node4&#45;&gt;Node14</title>
<path fill="none" stroke="midnightblue" d="M414.4,-313.44C449.26,-303.54 506.44,-287.28 542.15,-277.14"/>
<polygon fill="midnightblue" stroke="midnightblue" points="543.39,-280.42 552.05,-274.32 541.47,-273.69 543.39,-280.42"/>
</g>
<!-- Node15 -->
<g id="node15" class="node">
<title>Node15</title>
<g id="a_node15"><a xlink:href="operation_return_values_8h.html" target="_top" xlink:title="Enumeration of values returned by operations within libSBML.">
<polygon fill="white" stroke="black" points="435.3,-123.5 435.3,-153.5 603.3,-153.5 603.3,-123.5 435.3,-123.5"/>
<text text-anchor="start" x="443.3" y="-141.5" font-family="Helvetica,sans-Serif" font-size="10.00">sbml/common/operationReturn</text>
<text text-anchor="middle" x="519.3" y="-130.5" font-family="Helvetica,sans-Serif" font-size="10.00">Values.h</text>
</a>
</g>
</g>
<!-- Node4&#45;&gt;Node15 -->
<g id="edge20" class="edge">
<title>Node4&#45;&gt;Node15</title>
<path fill="none" stroke="midnightblue" d="M443.39,-313.65C466.2,-307.35 490.35,-296.33 505.3,-277 530.52,-244.37 528.18,-193.57 523.92,-163.71"/>
<polygon fill="midnightblue" stroke="midnightblue" points="527.36,-163.04 522.32,-153.73 520.45,-164.16 527.36,-163.04"/>
</g>
<!-- Node6&#45;&gt;Node3 -->
<g id="edge7" class="edge">
<title>Node6&#45;&gt;Node3</title>
<path fill="none" stroke="midnightblue" d="M191.44,-257.42C153.85,-242.9 84,-209.52 56.3,-154 35.62,-112.56 75.15,-64.8 103.37,-37.87"/>
<polygon fill="midnightblue" stroke="midnightblue" points="106,-40.21 110.97,-30.86 101.25,-35.07 106,-40.21"/>
</g>
<!-- Node7 -->
<g id="node7" class="node">
<title>Node7</title>
<g id="a_node7"><a xlink:href="libsbml-config_8h.html" target="_top" xlink:title="Decides whether to #include Unix or Windows configuration variables.">
<polygon fill="white" stroke="black" points="154.8,-190.5 154.8,-220.5 279.8,-220.5 279.8,-190.5 154.8,-190.5"/>
<text text-anchor="start" x="162.8" y="-208.5" font-family="Helvetica,sans-Serif" font-size="10.00">sbml/common/libsbml</text>
<text text-anchor="middle" x="217.3" y="-197.5" font-family="Helvetica,sans-Serif" font-size="10.00">&#45;config.h</text>
</a>
</g>
</g>
<!-- Node6&#45;&gt;Node7 -->
<g id="edge8" class="edge">
<title>Node6&#45;&gt;Node7</title>
<path fill="none" stroke="midnightblue" d="M216.44,-257.48C216.56,-250.47 216.73,-240.19 216.89,-230.7"/>
<polygon fill="midnightblue" stroke="midnightblue" points="220.39,-230.58 217.06,-220.52 213.39,-230.46 220.39,-230.58"/>
</g>
<!-- Node7&#45;&gt;Node3 -->
<g id="edge9" class="edge">
<title>Node7&#45;&gt;Node3</title>
<path fill="none" stroke="midnightblue" d="M215.8,-190.47C213.66,-173.83 208.89,-145.53 199.3,-123 185.82,-91.38 162.71,-59.08 146.52,-38.48"/>
<polygon fill="midnightblue" stroke="midnightblue" points="149.25,-36.28 140.27,-30.66 143.78,-40.66 149.25,-36.28"/>
</g>
<!-- Node8 -->
<g id="node8" class="node">
<title>Node8</title>
<g id="a_node8"><a xlink:title=" ">
<polygon fill="white" stroke="#bfbfbf" points="65.8,-123.5 65.8,-153.5 190.8,-153.5 190.8,-123.5 65.8,-123.5"/>
<text text-anchor="start" x="73.8" y="-141.5" font-family="Helvetica,sans-Serif" font-size="10.00">sbml/common/libsbml</text>
<text text-anchor="middle" x="128.3" y="-130.5" font-family="Helvetica,sans-Serif" font-size="10.00">&#45;config&#45;common.h</text>
</a>
</g>
</g>
<!-- Node7&#45;&gt;Node8 -->
<g id="edge10" class="edge">
<title>Node7&#45;&gt;Node8</title>
<path fill="none" stroke="midnightblue" d="M197.98,-190.4C185.62,-181.37 169.39,-169.51 155.71,-159.52"/>
<polygon fill="midnightblue" stroke="midnightblue" points="157.71,-156.65 147.57,-153.58 153.58,-162.3 157.71,-156.65"/>
</g>
<!-- Node9 -->
<g id="node9" class="node">
<title>Node9</title>
<g id="a_node9"><a xlink:href="libsbml-version_8h.html" target="_top" xlink:title="Define libSBML version numbers for access from client software.">
<polygon fill="white" stroke="black" points="247.8,-123.5 247.8,-153.5 372.8,-153.5 372.8,-123.5 247.8,-123.5"/>
<text text-anchor="start" x="255.8" y="-141.5" font-family="Helvetica,sans-Serif" font-size="10.00">sbml/common/libsbml</text>
<text text-anchor="middle" x="310.3" y="-130.5" font-family="Helvetica,sans-Serif" font-size="10.00">&#45;version.h</text>
</a>
</g>
</g>
<!-- Node7&#45;&gt;Node9 -->
<g id="edge11" class="edge">
<title>Node7&#45;&gt;Node9</title>
<path fill="none" stroke="midnightblue" d="M237.48,-190.4C250.39,-181.37 267.35,-169.51 281.65,-159.52"/>
<polygon fill="midnightblue" stroke="midnightblue" points="283.96,-162.17 290.16,-153.58 279.95,-156.44 283.96,-162.17"/>
</g>
<!-- Node10 -->
<g id="node10" class="node">
<title>Node10</title>
<g id="a_node10"><a xlink:href="extern_8h.html" target="_top" xlink:title="Definitions of LIBSBML_EXTERN and related things.">
<polygon fill="white" stroke="black" points="291.3,-67.5 291.3,-86.5 421.3,-86.5 421.3,-67.5 291.3,-67.5"/>
<text text-anchor="middle" x="356.3" y="-74.5" font-family="Helvetica,sans-Serif" font-size="10.00">sbml/common/extern.h</text>
</a>
</g>
</g>
<!-- Node9&#45;&gt;Node10 -->
<g id="edge12" class="edge">
<title>Node9&#45;&gt;Node10</title>
<path fill="none" stroke="midnightblue" d="M321.2,-123.4C327.88,-114.75 336.47,-103.64 343.48,-94.58"/>
<polygon fill="midnightblue" stroke="midnightblue" points="346.25,-96.71 349.6,-86.66 340.72,-92.43 346.25,-96.71"/>
</g>
<!-- Node10&#45;&gt;Node3 -->
<g id="edge13" class="edge">
<title>Node10&#45;&gt;Node3</title>
<path fill="none" stroke="midnightblue" d="M323.63,-67.48C289.36,-58.53 234.63,-44.25 191.81,-33.07"/>
<polygon fill="midnightblue" stroke="midnightblue" points="192.59,-29.66 182.03,-30.52 190.82,-36.43 192.59,-29.66"/>
</g>
<!-- Node11&#45;&gt;Node5 -->
<g id="edge15" class="edge">
<title>Node11&#45;&gt;Node5</title>
<path fill="none" stroke="midnightblue" d="M363.48,-257.48C380.96,-247.67 409.87,-231.43 430.38,-219.92"/>
<polygon fill="midnightblue" stroke="midnightblue" points="432.13,-222.96 439.14,-215.01 428.7,-216.85 432.13,-222.96"/>
</g>
<!-- Node11&#45;&gt;Node10 -->
<g id="edge17" class="edge">
<title>Node11&#45;&gt;Node10</title>
<path fill="none" stroke="midnightblue" d="M357.58,-257.39C365.88,-249.02 377.44,-235.48 382.3,-221 386.17,-209.44 388.14,-148.61 381.3,-123 378.68,-113.19 373.46,-103.23 368.47,-95.18"/>
<polygon fill="midnightblue" stroke="midnightblue" points="371.32,-93.14 362.88,-86.74 365.48,-97.01 371.32,-93.14"/>
</g>
<!-- Node12 -->
<g id="node12" class="node">
<title>Node12</title>
<g id="a_node12"><a xlink:title=" ">
<polygon fill="white" stroke="#bfbfbf" points="317.3,-196 317.3,-215 373.3,-215 373.3,-196 317.3,-196"/>
<text text-anchor="middle" x="345.3" y="-203" font-family="Helvetica,sans-Serif" font-size="10.00">stdarg.h</text>
</a>
</g>
</g>
<!-- Node11&#45;&gt;Node12 -->
<g id="edge16" class="edge">
<title>Node11&#45;&gt;Node12</title>
<path fill="none" stroke="midnightblue" d="M347.87,-257.48C347.44,-249.08 346.78,-235.98 346.24,-225.16"/>
<polygon fill="midnightblue" stroke="midnightblue" points="349.72,-224.82 345.72,-215.01 342.73,-225.17 349.72,-224.82"/>
</g>
<!-- Node15&#45;&gt;Node10 -->
<g id="edge21" class="edge">
<title>Node15&#45;&gt;Node10</title>
<path fill="none" stroke="midnightblue" d="M480.67,-123.4C452.95,-113.28 415.99,-99.79 389.58,-90.15"/>
<polygon fill="midnightblue" stroke="midnightblue" points="390.61,-86.8 380.01,-86.66 388.21,-93.37 390.61,-86.8"/>
</g>
</g>
</svg>
        <g id="navigator" transform="translate(0 0)" fill="#404254">
                <rect fill="#f2f5e9" fill-opacity="0.5" stroke="#606060" stroke-width=".5" x="0" y="0" width="60" height="60"/>
                <use id="zoomplus" xlink:href="#zoomPlus" x="17" y="9" onmousedown="handleZoom(evt,'in')"/>
                <use id="zoomminus" xlink:href="#zoomMin" x="42" y="9" onmousedown="handleZoom(evt,'out')"/>
                <use id="reset" xlink:href="#resetDef" x="30" y="36" onmousedown="handleReset()"/>
                <g id="arrowUp" xlink:href="#dirArrow" transform="translate(30 24)" onmousedown="handlePan(0,-1)">
                  <use xlink:href="#rim" fill="#404040">
                        <set attributeName="fill" to="#808080" begin="arrowUp.mouseover" end="arrowUp.mouseout"/>
                  </use>
                  <path fill="none" stroke="white" stroke-width="1.5" d="M0,-3.0v7 M-2.5,-0.5L0,-3.0L2.5,-0.5"/>
                </g>
                <g id="arrowRight" xlink:href="#dirArrow" transform="rotate(90) translate(36 -43)" onmousedown="handlePan(1,0)">
                  <use xlink:href="#rim" fill="#404040">
                        <set attributeName="fill" to="#808080" begin="arrowRight.mouseover" end="arrowRight.mouseout"/>
                  </use>
                  <path fill="none" stroke="white" stroke-width="1.5" d="M0,-3.0v7 M-2.5,-0.5L0,-3.0L2.5,-0.5"/>
                </g>
                <g id="arrowDown" xlink:href="#dirArrow" transform="rotate(180) translate(-30 -48)" onmousedown="handlePan(0,1)">
                  <use xlink:href="#rim" fill="#404040">
                        <set attributeName="fill" to="#808080" begin="arrowDown.mouseover" end="arrowDown.mouseout"/>
                  </use>
                  <path fill="none" stroke="white" stroke-width="1.5" d="M0,-3.0v7 M-2.5,-0.5L0,-3.0L2.5,-0.5"/>
                </g>
                <g id="arrowLeft" xlink:href="#dirArrow" transform="rotate(270) translate(-36 17)" onmousedown="handlePan(-1,0)">
                  <use xlink:href="#rim" fill="#404040">
                        <set attributeName="fill" to="#808080" begin="arrowLeft.mouseover" end="arrowLeft.mouseout"/>
                  </use>
                  <path fill="none" stroke="white" stroke-width="1.5" d="M0,-3.0v7 M-2.5,-0.5L0,-3.0L2.5,-0.5"/>
                </g>
        </g>
        <svg viewBox="0 0 15 15" width="100%" height="30px" preserveAspectRatio="xMaxYMin meet">
         <g id="arrow_out" transform="scale(0.3 0.3)">
          <a xlink:href="_x_m_l_error_log_8h__incl_org.svg" target="_base">
           <rect id="button" ry="5" rx="5" y="6" x="6" height="38" width="38"
                fill="#f2f5e9" fill-opacity="0.5" stroke="#606060" stroke-width="1.0"/>
           <path id="arrow"
             d="M 11.500037,31.436501 C 11.940474,20.09759 22.043105,11.32322 32.158766,21.979434 L 37.068811,17.246167 C 37.068811,17.246167 37.088388,32 37.088388,32 L 22.160133,31.978069 C 22.160133,31.978069 26.997745,27.140456 26.997745,27.140456 C 18.528582,18.264221 13.291696,25.230495 11.500037,31.436501 z"
             style="fill:#404040;"/>
          </a>
         </g>
        </svg>
</svg>
