<?xml version="1.0" encoding="UTF-8" standalone="no"?>
<!DOCTYPE svg PUBLIC "-//W3C//DTD SVG 1.1//EN"
 "http://www.w3.org/Graphics/SVG/1.1/DTD/svg11.dtd">
<!-- Generated by graphviz version 2.43.0 (0)
 -->
<!-- Title: XMLErrorLog.cpp Pages: 1 -->
<!--zoomable 445 -->

<svg id="main" version="1.1" xmlns="http://www.w3.org/2000/svg" xmlns:xlink="http://www.w3.org/1999/xlink" xml:space="preserve" onload="init(evt)">
<style type="text/css"><![CDATA[
.node, .edge {opacity: 0.7;}
.node.selected, .edge.selected {opacity: 1;}
.edge:hover path { stroke: red; }
.edge:hover polygon { stroke: red; fill: red; }
]]></style>

<defs>
  <circle id="rim" cx="0" cy="0" r="7"/>
  <circle id="rim2" cx="0" cy="0" r="3.5"/>
  <g id="zoomPlus">
    <use xlink:href="#rim" fill="#404040"><set attributeName="fill" to="#808080" begin="zoomplus.mouseover" end="zoomplus.mouseout"/></use>
    <path d="M-4,0h8M0,-4v8" fill="none" stroke="white" stroke-width="1.5" pointer-events="none"/>
  </g>
  <g id="zoomMin">
    <use xlink:href="#rim" fill="#404040"><set attributeName="fill" to="#808080" begin="zoomminus.mouseover" end="zoomminus.mouseout"/></use>
    <path d="M-4,0h8" fill="none" stroke="white" stroke-width="1.5" pointer-events="none"/>
  </g>
  <g id="arrowUp" transform="translate(30 24)">
    <use xlink:href="#rim"/>
    <path pointer-events="none" fill="none" stroke="white" stroke-width="1.5" d="M0,-3.0v7 M-2.5,-0.5L0,-3.0L2.5,-0.5"/>
  </g>
  <g id="arrowRight" transform="rotate(90) translate(36 -43)">
    <use xlink:href="#rim"/>
    <path pointer-events="none" fill="none" stroke="white" stroke-width="1.5" d="M0,-3.0v7 M-2.5,-0.5L0,-3.0L2.5,-0.5"/>
  </g>
  <g id="arrowDown" transform="rotate(180) translate(-30 -48)">
    <use xlink:href="#rim"/>
    <path pointer-events="none" fill="none" stroke="white" stroke-width="1.5" d="M0,-3.0v7 M-2.5,-0.5L0,-3.0L2.5,-0.5"/>
  </g>
  <g id="arrowLeft" transform="rotate(270) translate(-36 17)">
    <use xlink:href="#rim"/>
    <path pointer-events="none" fill="none" stroke="white" stroke-width="1.5" d="M0,-3.0v7 M-2.5,-0.5L0,-3.0L2.5,-0.5"/>
  </g>
  <g id="resetDef">
    <use xlink:href="#rim2" fill="#404040"><set attributeName="fill" to="#808080" begin="reset.mouseover" end="reset.mouseout"/></use>
  </g>
</defs>
<script type="application/ecmascript">
var viewWidth = 664;
var viewHeight = 445;
var sectionId = 'dynsection-0';
</script>
<script type="application/ecmascript" xlink:href="svg.min.js"/>
<svg id="graph" class="graph">
<g id="viewport">
<title>XMLErrorLog.cpp</title>
<!-- Node1 -->
<g id="Node000001" class="node">
<title>Node1</title>
<g id="a_Node000001"><a xlink:title="Stores errors (and messages) encountered while processing XML.">
<polygon fill="#999999" stroke="#666666" points="321,-437 223,-437 223,-418 321,-418 321,-437"/>
<text text-anchor="middle" x="272" y="-425" font-family="Helvetica,sans-Serif" font-size="10.00">XMLErrorLog.cpp</text>
</a>
</g>
</g>
<!-- Node2 -->
<g id="Node000002" class="node">
<title>Node2</title>
<g id="a_Node000002"><a xlink:title=" ">
<polygon fill="#e0e0e0" stroke="#999999" points="114,-382 50,-382 50,-363 114,-363 114,-382"/>
<text text-anchor="middle" x="82" y="-370" font-family="Helvetica,sans-Serif" font-size="10.00">algorithm</text>
</a>
</g>
</g>
<!-- Node1&#45;&gt;Node2 -->
<g id="edge1_Node000001_Node000002" class="edge">
<title>Node1&#45;&gt;Node2</title>
<g id="a_edge1_Node000001_Node000002"><a xlink:title=" ">
<path fill="none" stroke="#63b8ff" d="M241.47,-417.98C209.3,-409.01 158.44,-394.82 122.83,-384.89"/>
<polygon fill="#63b8ff" stroke="#63b8ff" points="123.34,-381.4 112.77,-382.08 121.46,-388.14 123.34,-381.4"/>
</a>
</g>
</g>
<!-- Node3 -->
<g id="Node000003" class="node">
<title>Node3</title>
<g id="a_Node000003"><a xlink:title=" ">
<polygon fill="#e0e0e0" stroke="#999999" points="197.5,-382 132.5,-382 132.5,-363 197.5,-363 197.5,-382"/>
<text text-anchor="middle" x="165" y="-370" font-family="Helvetica,sans-Serif" font-size="10.00">functional</text>
</a>
</g>
</g>
<!-- Node1&#45;&gt;Node3 -->
<g id="edge2_Node000001_Node000003" class="edge">
<title>Node1&#45;&gt;Node3</title>
<g id="a_edge2_Node000001_Node000003"><a xlink:title=" ">
<path fill="none" stroke="#63b8ff" d="M254.81,-417.98C237.75,-409.54 211.37,-396.47 191.6,-386.68"/>
<polygon fill="#63b8ff" stroke="#63b8ff" points="193.02,-383.47 182.5,-382.17 189.91,-389.75 193.02,-383.47"/>
</a>
</g>
</g>
<!-- Node4 -->
<g id="Node000004" class="node">
<title>Node4</title>
<g id="a_Node000004"><a xlink:title=" ">
<polygon fill="#e0e0e0" stroke="#999999" points="272,-382 216,-382 216,-363 272,-363 272,-382"/>
<text text-anchor="middle" x="244" y="-370" font-family="Helvetica,sans-Serif" font-size="10.00">sstream</text>
</a>
</g>
</g>
<!-- Node1&#45;&gt;Node4 -->
<g id="edge3_Node000001_Node000004" class="edge">
<title>Node1&#45;&gt;Node4</title>
<g id="a_edge3_Node000001_Node000004"><a xlink:title=" ">
<path fill="none" stroke="#63b8ff" d="M267.38,-417.75C263.54,-410.49 257.98,-399.95 253.24,-390.98"/>
<polygon fill="#63b8ff" stroke="#63b8ff" points="256.3,-389.3 248.54,-382.09 250.11,-392.57 256.3,-389.3"/>
</a>
</g>
</g>
<!-- Node5 -->
<g id="Node000005" class="node">
<title>Node5</title>
<g id="a_Node000005"><a xlink:href="_x_m_l_error_8h.html" target="_top" xlink:title="Represents errors (and messages) encountered during an XML parse.">
<polygon fill="white" stroke="#666666" points="274,-327 156,-327 156,-308 274,-308 274,-327"/>
<text text-anchor="middle" x="215" y="-315" font-family="Helvetica,sans-Serif" font-size="10.00">sbml/xml/XMLError.h</text>
</a>
</g>
</g>
<!-- Node1&#45;&gt;Node5 -->
<g id="edge4_Node000001_Node000005" class="edge">
<title>Node1&#45;&gt;Node5</title>
<g id="a_edge4_Node000001_Node000005"><a xlink:title=" ">
<path fill="none" stroke="#63b8ff" d="M276.4,-417.71C282.14,-404.9 290.41,-380.7 281,-363 273.69,-349.25 260.03,-338.99 247.03,-331.8"/>
<polygon fill="#63b8ff" stroke="#63b8ff" points="248.28,-328.51 237.78,-327.11 245.11,-334.75 248.28,-328.51"/>
</a>
</g>
</g>
<!-- Node19 -->
<g id="Node000019" class="node">
<title>Node19</title>
<g id="a_Node000019"><a xlink:href="_x_m_l_parser_8h.html" target="_top" xlink:title=" ">
<polygon fill="white" stroke="#666666" points="607.5,-382 482.5,-382 482.5,-363 607.5,-363 607.5,-382"/>
<text text-anchor="middle" x="545" y="-370" font-family="Helvetica,sans-Serif" font-size="10.00">sbml/xml/XMLParser.h</text>
</a>
</g>
</g>
<!-- Node1&#45;&gt;Node19 -->
<g id="edge24_Node000001_Node000019" class="edge">
<title>Node1&#45;&gt;Node19</title>
<g id="a_edge24_Node000001_Node000019"><a xlink:title=" ">
<path fill="none" stroke="#63b8ff" d="M315.86,-417.98C363.48,-408.74 439.58,-393.97 490.88,-384.01"/>
<polygon fill="#63b8ff" stroke="#63b8ff" points="491.64,-387.42 500.79,-382.08 490.31,-380.55 491.64,-387.42"/>
</a>
</g>
</g>
<!-- Node20 -->
<g id="Node000020" class="node">
<title>Node20</title>
<g id="a_Node000020"><a xlink:href="_x_m_l_error_log_8h.html" target="_top" xlink:title="Stores errors (and messages) encountered while processing XML.">
<polygon fill="white" stroke="#666666" points="464,-382 328,-382 328,-363 464,-363 464,-382"/>
<text text-anchor="middle" x="396" y="-370" font-family="Helvetica,sans-Serif" font-size="10.00">sbml/xml/XMLErrorLog.h</text>
</a>
</g>
</g>
<!-- Node1&#45;&gt;Node20 -->
<g id="edge25_Node000001_Node000020" class="edge">
<title>Node1&#45;&gt;Node20</title>
<g id="a_edge25_Node000001_Node000020"><a xlink:title=" ">
<path fill="none" stroke="#63b8ff" d="M291.92,-417.98C312.05,-409.38 343.38,-395.99 366.41,-386.15"/>
<polygon fill="#63b8ff" stroke="#63b8ff" points="367.9,-389.32 375.71,-382.17 365.14,-382.88 367.9,-389.32"/>
</a>
</g>
</g>
<!-- Node6 -->
<g id="Node000006" class="node">
<title>Node6</title>
<g id="a_Node000006"><a xlink:title=" ">
<polygon fill="#e0e0e0" stroke="#999999" points="50,-211.5 0,-211.5 0,-192.5 50,-192.5 50,-211.5"/>
<text text-anchor="middle" x="25" y="-199.5" font-family="Helvetica,sans-Serif" font-size="10.00">stdio.h</text>
</a>
</g>
</g>
<!-- Node5&#45;&gt;Node6 -->
<g id="edge5_Node000005_Node000006" class="edge">
<title>Node5&#45;&gt;Node6</title>
<g id="a_edge5_Node000005_Node000006"><a xlink:title=" ">
<path fill="none" stroke="#63b8ff" d="M155.88,-312.42C122.84,-307.35 82.84,-296.22 55,-272 40.09,-259.03 32.33,-237.29 28.47,-221.68"/>
<polygon fill="#63b8ff" stroke="#63b8ff" points="31.83,-220.65 26.3,-211.61 24.98,-222.12 31.83,-220.65"/>
</a>
</g>
</g>
<!-- Node7 -->
<g id="Node000007" class="node">
<title>Node7</title>
<g id="a_Node000007"><a xlink:href="_x_m_l_extern_8h.html" target="_top" xlink:title="Defines LIBLAX_EXTERN.">
<polygon fill="white" stroke="#666666" points="473.5,-272 346.5,-272 346.5,-253 473.5,-253 473.5,-272"/>
<text text-anchor="middle" x="410" y="-260" font-family="Helvetica,sans-Serif" font-size="10.00">sbml/xml/XMLExtern.h</text>
</a>
</g>
</g>
<!-- Node5&#45;&gt;Node7 -->
<g id="edge6_Node000005_Node000007" class="edge">
<title>Node5&#45;&gt;Node7</title>
<g id="a_edge6_Node000005_Node000007"><a xlink:title=" ">
<path fill="none" stroke="#63b8ff" d="M246.33,-307.98C279.49,-298.97 332,-284.7 368.56,-274.76"/>
<polygon fill="#63b8ff" stroke="#63b8ff" points="369.69,-278.08 378.42,-272.08 367.86,-271.33 369.69,-278.08"/>
</a>
</g>
</g>
<!-- Node9 -->
<g id="Node000009" class="node">
<title>Node9</title>
<g id="a_Node000009"><a xlink:href="sbmlfwd_8h.html" target="_top" xlink:title="Forward declarations for all opaque C types.">
<polygon fill="white" stroke="#666666" points="639,-272 499,-272 499,-253 639,-253 639,-272"/>
<text text-anchor="middle" x="569" y="-260" font-family="Helvetica,sans-Serif" font-size="10.00">sbml/common/sbmlfwd.h</text>
</a>
</g>
</g>
<!-- Node5&#45;&gt;Node9 -->
<g id="edge8_Node000005_Node000009" class="edge">
<title>Node5&#45;&gt;Node9</title>
<g id="a_edge8_Node000005_Node000009"><a xlink:title=" ">
<path fill="none" stroke="#63b8ff" d="M271.88,-307.98C334.62,-298.59 435.49,-283.49 502.01,-273.53"/>
<polygon fill="#63b8ff" stroke="#63b8ff" points="502.6,-276.98 511.97,-272.04 501.56,-270.06 502.6,-276.98"/>
</a>
</g>
</g>
<!-- Node14 -->
<g id="Node000014" class="node">
<title>Node14</title>
<g id="a_Node000014"><a xlink:href="util_8h.html" target="_top" xlink:title="Utility functions.">
<polygon fill="white" stroke="#666666" points="151.5,-272 64.5,-272 64.5,-253 151.5,-253 151.5,-272"/>
<text text-anchor="middle" x="108" y="-260" font-family="Helvetica,sans-Serif" font-size="10.00">sbml/util/util.h</text>
</a>
</g>
</g>
<!-- Node5&#45;&gt;Node14 -->
<g id="edge16_Node000005_Node000014" class="edge">
<title>Node5&#45;&gt;Node14</title>
<g id="a_edge16_Node000005_Node000014"><a xlink:title=" ">
<path fill="none" stroke="#63b8ff" d="M197.81,-307.98C180.75,-299.54 154.37,-286.47 134.6,-276.68"/>
<polygon fill="#63b8ff" stroke="#63b8ff" points="136.02,-273.47 125.5,-272.17 132.91,-279.75 136.02,-273.47"/>
</a>
</g>
</g>
<!-- Node16 -->
<g id="Node000016" class="node">
<title>Node16</title>
<g id="a_Node000016"><a xlink:title=" ">
<polygon fill="#e0e0e0" stroke="#999999" points="266,-272 218,-272 218,-253 266,-253 266,-272"/>
<text text-anchor="middle" x="242" y="-260" font-family="Helvetica,sans-Serif" font-size="10.00">iosfwd</text>
</a>
</g>
</g>
<!-- Node5&#45;&gt;Node16 -->
<g id="edge20_Node000005_Node000016" class="edge">
<title>Node5&#45;&gt;Node16</title>
<g id="a_edge20_Node000005_Node000016"><a xlink:title=" ">
<path fill="none" stroke="#63b8ff" d="M219.46,-307.75C223.12,-300.57 228.41,-290.18 232.95,-281.27"/>
<polygon fill="#63b8ff" stroke="#63b8ff" points="236.2,-282.59 237.62,-272.09 229.97,-279.41 236.2,-282.59"/>
</a>
</g>
</g>
<!-- Node17 -->
<g id="Node000017" class="node">
<title>Node17</title>
<g id="a_Node000017"><a xlink:title=" ">
<polygon fill="#e0e0e0" stroke="#999999" points="328,-272 284,-272 284,-253 328,-253 328,-272"/>
<text text-anchor="middle" x="306" y="-260" font-family="Helvetica,sans-Serif" font-size="10.00">string</text>
</a>
</g>
</g>
<!-- Node5&#45;&gt;Node17 -->
<g id="edge21_Node000005_Node000017" class="edge">
<title>Node5&#45;&gt;Node17</title>
<g id="a_edge21_Node000005_Node000017"><a xlink:title=" ">
<path fill="none" stroke="#63b8ff" d="M229.62,-307.98C243.86,-299.69 265.75,-286.94 282.45,-277.22"/>
<polygon fill="#63b8ff" stroke="#63b8ff" points="284.23,-280.23 291.11,-272.17 280.71,-274.18 284.23,-280.23"/>
</a>
</g>
</g>
<!-- Node18 -->
<g id="Node000018" class="node">
<title>Node18</title>
<g id="a_Node000018"><a xlink:href="operation_return_values_8h.html" target="_top" xlink:title="Enumeration of values returned by operations within libSBML.">
<polygon fill="white" stroke="#666666" points="274,-151 106,-151 106,-121 274,-121 274,-151"/>
<text text-anchor="start" x="114" y="-139" font-family="Helvetica,sans-Serif" font-size="10.00">sbml/common/operationReturn</text>
<text text-anchor="middle" x="190" y="-128" font-family="Helvetica,sans-Serif" font-size="10.00">Values.h</text>
</a>
</g>
</g>
<!-- Node5&#45;&gt;Node18 -->
<g id="edge22_Node000005_Node000018" class="edge">
<title>Node5&#45;&gt;Node18</title>
<g id="a_edge22_Node000005_Node000018"><a xlink:title=" ">
<path fill="none" stroke="#63b8ff" d="M213.79,-307.84C210.13,-281.54 199.04,-201.9 193.39,-161.33"/>
<polygon fill="#63b8ff" stroke="#63b8ff" points="196.83,-160.64 191.98,-151.22 189.89,-161.61 196.83,-160.64"/>
</a>
</g>
</g>
<!-- Node8 -->
<g id="Node000008" class="node">
<title>Node8</title>
<g id="a_Node000008"><a xlink:title=" ">
<polygon fill="#e0e0e0" stroke="#999999" points="455.5,-30 330.5,-30 330.5,0 455.5,0 455.5,-30"/>
<text text-anchor="start" x="338.5" y="-18" font-family="Helvetica,sans-Serif" font-size="10.00">sbml/common/libsbml</text>
<text text-anchor="middle" x="393" y="-7" font-family="Helvetica,sans-Serif" font-size="10.00">&#45;namespace.h</text>
</a>
</g>
</g>
<!-- Node7&#45;&gt;Node8 -->
<g id="edge7_Node000007_Node000008" class="edge">
<title>Node7&#45;&gt;Node8</title>
<g id="a_edge7_Node000007_Node000008"><a xlink:title=" ">
<path fill="none" stroke="#63b8ff" d="M399.47,-252.84C379.7,-235.8 337.62,-195.68 322,-151 307.21,-108.68 343.03,-63.3 368.99,-37.41"/>
<polygon fill="#63b8ff" stroke="#63b8ff" points="371.56,-39.79 376.33,-30.33 366.7,-34.75 371.56,-39.79"/>
</a>
</g>
</g>
<!-- Node9&#45;&gt;Node8 -->
<g id="edge9_Node000009_Node000008" class="edge">
<title>Node9&#45;&gt;Node8</title>
<g id="a_edge9_Node000009_Node000008"><a xlink:title=" ">
<path fill="none" stroke="#63b8ff" d="M580.42,-252.98C608.97,-230.64 678.95,-168.78 647,-121 606.95,-61.1 525.76,-35.33 465.91,-24.27"/>
<polygon fill="#63b8ff" stroke="#63b8ff" points="466.2,-20.77 455.75,-22.5 465,-27.66 466.2,-20.77"/>
</a>
</g>
</g>
<!-- Node10 -->
<g id="Node000010" class="node">
<title>Node10</title>
<g id="a_Node000010"><a xlink:href="libsbml-config_8h.html" target="_top" xlink:title="Decides whether to #include Unix or Windows configuration variables.">
<polygon fill="white" stroke="#666666" points="588.5,-217 463.5,-217 463.5,-187 588.5,-187 588.5,-217"/>
<text text-anchor="start" x="471.5" y="-205" font-family="Helvetica,sans-Serif" font-size="10.00">sbml/common/libsbml</text>
<text text-anchor="middle" x="526" y="-194" font-family="Helvetica,sans-Serif" font-size="10.00">&#45;config.h</text>
</a>
</g>
</g>
<!-- Node9&#45;&gt;Node10 -->
<g id="edge10_Node000009_Node000010" class="edge">
<title>Node9&#45;&gt;Node10</title>
<g id="a_edge10_Node000009_Node000010"><a xlink:title=" ">
<path fill="none" stroke="#63b8ff" d="M562.66,-252.87C557.31,-245.59 549.41,-234.85 542.32,-225.2"/>
<polygon fill="#63b8ff" stroke="#63b8ff" points="545.12,-223.1 536.37,-217.11 539.48,-227.25 545.12,-223.1"/>
</a>
</g>
</g>
<!-- Node10&#45;&gt;Node8 -->
<g id="edge11_Node000010_Node000008" class="edge">
<title>Node10&#45;&gt;Node8</title>
<g id="a_edge11_Node000010_Node000008"><a xlink:title=" ">
<path fill="none" stroke="#63b8ff" d="M515.78,-186.79C492.81,-154.83 436.91,-77.07 409.17,-38.49"/>
<polygon fill="#63b8ff" stroke="#63b8ff" points="411.75,-36.08 403.07,-30 406.06,-40.17 411.75,-36.08"/>
</a>
</g>
</g>
<!-- Node11 -->
<g id="Node000011" class="node">
<title>Node11</title>
<g id="a_Node000011"><a xlink:title=" ">
<polygon fill="#e0e0e0" stroke="#999999" points="637.5,-151 512.5,-151 512.5,-121 637.5,-121 637.5,-151"/>
<text text-anchor="start" x="520.5" y="-139" font-family="Helvetica,sans-Serif" font-size="10.00">sbml/common/libsbml</text>
<text text-anchor="middle" x="575" y="-128" font-family="Helvetica,sans-Serif" font-size="10.00">&#45;config&#45;common.h</text>
</a>
</g>
</g>
<!-- Node10&#45;&gt;Node11 -->
<g id="edge12_Node000010_Node000011" class="edge">
<title>Node10&#45;&gt;Node11</title>
<g id="a_edge12_Node000010_Node000011"><a xlink:title=" ">
<path fill="none" stroke="#63b8ff" d="M536.87,-186.8C543.09,-178.68 551.02,-168.31 558.04,-159.15"/>
<polygon fill="#63b8ff" stroke="#63b8ff" points="560.86,-161.23 564.16,-151.16 555.3,-156.98 560.86,-161.23"/>
</a>
</g>
</g>
<!-- Node12 -->
<g id="Node000012" class="node">
<title>Node12</title>
<g id="a_Node000012"><a xlink:href="libsbml-version_8h.html" target="_top" xlink:title="Define libSBML version numbers for access from client software.">
<polygon fill="white" stroke="#666666" points="455.5,-151 330.5,-151 330.5,-121 455.5,-121 455.5,-151"/>
<text text-anchor="start" x="338.5" y="-139" font-family="Helvetica,sans-Serif" font-size="10.00">sbml/common/libsbml</text>
<text text-anchor="middle" x="393" y="-128" font-family="Helvetica,sans-Serif" font-size="10.00">&#45;version.h</text>
</a>
</g>
</g>
<!-- Node10&#45;&gt;Node12 -->
<g id="edge13_Node000010_Node000012" class="edge">
<title>Node10&#45;&gt;Node12</title>
<g id="a_edge13_Node000010_Node000012"><a xlink:title=" ">
<path fill="none" stroke="#63b8ff" d="M496.81,-186.95C477.58,-177.7 452.2,-165.49 431.34,-155.45"/>
<polygon fill="#63b8ff" stroke="#63b8ff" points="432.65,-152.19 422.12,-151.01 429.61,-158.5 432.65,-152.19"/>
</a>
</g>
</g>
<!-- Node13 -->
<g id="Node000013" class="node">
<title>Node13</title>
<g id="a_Node000013"><a xlink:href="extern_8h.html" target="_top" xlink:title="Definitions of LIBSBML_EXTERN and related things.">
<polygon fill="white" stroke="#666666" points="265,-85 135,-85 135,-66 265,-66 265,-85"/>
<text text-anchor="middle" x="200" y="-73" font-family="Helvetica,sans-Serif" font-size="10.00">sbml/common/extern.h</text>
</a>
</g>
</g>
<!-- Node12&#45;&gt;Node13 -->
<g id="edge14_Node000012_Node000013" class="edge">
<title>Node12&#45;&gt;Node13</title>
<g id="a_edge14_Node000012_Node000013"><a xlink:title=" ">
<path fill="none" stroke="#63b8ff" d="M346.77,-120.99C313.46,-110.89 269.07,-97.44 237.86,-87.98"/>
<polygon fill="#63b8ff" stroke="#63b8ff" points="238.8,-84.6 228.22,-85.05 236.77,-91.3 238.8,-84.6"/>
</a>
</g>
</g>
<!-- Node13&#45;&gt;Node8 -->
<g id="edge15_Node000013_Node000008" class="edge">
<title>Node13&#45;&gt;Node8</title>
<g id="a_edge15_Node000013_Node000008"><a xlink:title=" ">
<path fill="none" stroke="#63b8ff" d="M228.06,-65.99C256.45,-57.39 301.1,-43.86 336.79,-33.04"/>
<polygon fill="#63b8ff" stroke="#63b8ff" points="338.05,-36.31 346.6,-30.06 336.01,-29.62 338.05,-36.31"/>
</a>
</g>
</g>
<!-- Node14&#45;&gt;Node6 -->
<g id="edge17_Node000014_Node000006" class="edge">
<title>Node14&#45;&gt;Node6</title>
<g id="a_edge17_Node000014_Node000006"><a xlink:title=" ">
<path fill="none" stroke="#63b8ff" d="M95.75,-252.87C82.64,-243.62 61.58,-228.78 45.85,-217.69"/>
<polygon fill="#63b8ff" stroke="#63b8ff" points="47.49,-214.57 37.3,-211.67 43.45,-220.29 47.49,-214.57"/>
</a>
</g>
</g>
<!-- Node14&#45;&gt;Node13 -->
<g id="edge19_Node000014_Node000013" class="edge">
<title>Node14&#45;&gt;Node13</title>
<g id="a_edge19_Node000014_Node000013"><a xlink:title=" ">
<path fill="none" stroke="#63b8ff" d="M103.89,-252.68C93.54,-229.06 69.18,-163.32 97,-121 107.43,-105.14 124.84,-94.9 142.41,-88.31"/>
<polygon fill="#63b8ff" stroke="#63b8ff" points="143.8,-91.54 152.15,-85.01 141.55,-84.91 143.8,-91.54"/>
</a>
</g>
</g>
<!-- Node15 -->
<g id="Node000015" class="node">
<title>Node15</title>
<g id="a_Node000015"><a xlink:title=" ">
<polygon fill="#e0e0e0" stroke="#999999" points="162,-211.5 106,-211.5 106,-192.5 162,-192.5 162,-211.5"/>
<text text-anchor="middle" x="134" y="-199.5" font-family="Helvetica,sans-Serif" font-size="10.00">stdarg.h</text>
</a>
</g>
</g>
<!-- Node14&#45;&gt;Node15 -->
<g id="edge18_Node000014_Node000015" class="edge">
<title>Node14&#45;&gt;Node15</title>
<g id="a_edge18_Node000014_Node000015"><a xlink:title=" ">
<path fill="none" stroke="#63b8ff" d="M111.84,-252.87C115.56,-244.49 121.33,-231.51 126.05,-220.89"/>
<polygon fill="#63b8ff" stroke="#63b8ff" points="129.28,-222.23 130.15,-211.67 122.89,-219.38 129.28,-222.23"/>
</a>
</g>
</g>
<!-- Node18&#45;&gt;Node13 -->
<g id="edge23_Node000018_Node000013" class="edge">
<title>Node18&#45;&gt;Node13</title>
<g id="a_edge23_Node000018_Node000013"><a xlink:title=" ">
<path fill="none" stroke="#63b8ff" d="M192.42,-120.84C193.74,-113.13 195.39,-103.49 196.81,-95.17"/>
<polygon fill="#63b8ff" stroke="#63b8ff" points="200.27,-95.71 198.5,-85.27 193.37,-94.53 200.27,-95.71"/>
</a>
</g>
</g>
<!-- Node20&#45;&gt;Node5 -->
<g id="edge27_Node000020_Node000005" class="edge">
<title>Node20&#45;&gt;Node5</title>
<g id="a_edge27_Node000020_Node000005"><a xlink:title=" ">
<path fill="none" stroke="#63b8ff" d="M366.92,-362.98C336.4,-354.05 288.24,-339.94 254.34,-330.02"/>
<polygon fill="#63b8ff" stroke="#63b8ff" points="254.89,-326.53 244.31,-327.08 252.92,-333.25 254.89,-326.53"/>
</a>
</g>
</g>
<!-- Node20&#45;&gt;Node7 -->
<g id="edge26_Node000020_Node000007" class="edge">
<title>Node20&#45;&gt;Node7</title>
<g id="a_edge26_Node000020_Node000007"><a xlink:title=" ">
<path fill="none" stroke="#63b8ff" d="M458.21,-363C479.83,-356.73 501.93,-345.85 515,-327 532.59,-301.64 496.64,-284.65 462.12,-274.67"/>
<polygon fill="#63b8ff" stroke="#63b8ff" points="463.03,-271.29 452.47,-272.04 461.19,-278.05 463.03,-271.29"/>
</a>
</g>
</g>
<!-- Node20&#45;&gt;Node9 -->
<g id="edge28_Node000020_Node000009" class="edge">
<title>Node20&#45;&gt;Node9</title>
<g id="a_edge28_Node000020_Node000009"><a xlink:title=" ">
<path fill="none" stroke="#63b8ff" d="M449.58,-362.99C476.25,-356.62 507.69,-345.66 531,-327 545.71,-315.23 556.03,-296.11 562.17,-281.92"/>
<polygon fill="#63b8ff" stroke="#63b8ff" points="565.58,-282.82 566.05,-272.24 559.08,-280.22 565.58,-282.82"/>
</a>
</g>
</g>
<!-- Node20&#45;&gt;Node17 -->
<g id="edge30_Node000020_Node000017" class="edge">
<title>Node20&#45;&gt;Node17</title>
<g id="a_edge30_Node000020_Node000017"><a xlink:title=" ">
<path fill="none" stroke="#63b8ff" d="M371.49,-362.89C354.8,-355.79 333.55,-344.08 321,-327 311.46,-314.02 307.89,-295.87 306.6,-282.3"/>
<polygon fill="#63b8ff" stroke="#63b8ff" points="310.09,-281.95 305.98,-272.19 303.1,-282.38 310.09,-281.95"/>
</a>
</g>
</g>
<!-- Node21 -->
<g id="Node000021" class="node">
<title>Node21</title>
<g id="a_Node000021"><a xlink:title=" ">
<polygon fill="#e0e0e0" stroke="#999999" points="390,-327 330,-327 330,-308 390,-308 390,-327"/>
<text text-anchor="middle" x="360" y="-315" font-family="Helvetica,sans-Serif" font-size="10.00">iostream</text>
</a>
</g>
</g>
<!-- Node20&#45;&gt;Node21 -->
<g id="edge29_Node000020_Node000021" class="edge">
<title>Node20&#45;&gt;Node21</title>
<g id="a_edge29_Node000020_Node000021"><a xlink:title=" ">
<path fill="none" stroke="#63b8ff" d="M390.06,-362.75C385.02,-355.34 377.66,-344.5 371.49,-335.41"/>
<polygon fill="#63b8ff" stroke="#63b8ff" points="374.35,-333.39 365.83,-327.09 368.56,-337.33 374.35,-333.39"/>
</a>
</g>
</g>
<!-- Node22 -->
<g id="Node000022" class="node">
<title>Node22</title>
<g id="a_Node000022"><a xlink:title=" ">
<polygon fill="#e0e0e0" stroke="#999999" points="455.5,-327 408.5,-327 408.5,-308 455.5,-308 455.5,-327"/>
<text text-anchor="middle" x="432" y="-315" font-family="Helvetica,sans-Serif" font-size="10.00">vector</text>
</a>
</g>
</g>
<!-- Node20&#45;&gt;Node22 -->
<g id="edge31_Node000020_Node000022" class="edge">
<title>Node20&#45;&gt;Node22</title>
<g id="a_edge31_Node000020_Node000022"><a xlink:title=" ">
<path fill="none" stroke="#63b8ff" d="M401.94,-362.75C406.98,-355.34 414.34,-344.5 420.51,-335.41"/>
<polygon fill="#63b8ff" stroke="#63b8ff" points="423.44,-337.33 426.17,-327.09 417.65,-333.39 423.44,-337.33"/>
</a>
</g>
</g>
<!-- Node23 -->
<g id="Node000023" class="node">
<title>Node23</title>
<g id="a_Node000023"><a xlink:title=" ">
<polygon fill="#e0e0e0" stroke="#999999" points="506,-327 474,-327 474,-308 506,-308 506,-327"/>
<text text-anchor="middle" x="490" y="-315" font-family="Helvetica,sans-Serif" font-size="10.00">list</text>
</a>
</g>
</g>
<!-- Node20&#45;&gt;Node23 -->
<g id="edge32_Node000020_Node000023" class="edge">
<title>Node20&#45;&gt;Node23</title>
<g id="a_edge32_Node000020_Node000023"><a xlink:title=" ">
<path fill="none" stroke="#63b8ff" d="M411.1,-362.98C425.82,-354.69 448.42,-341.94 465.67,-332.22"/>
<polygon fill="#63b8ff" stroke="#63b8ff" points="467.63,-335.13 474.62,-327.17 464.19,-329.03 467.63,-335.13"/>
</a>
</g>
</g>
</g>
</svg>

<g id="navigator" transform="translate(0 0)" fill="#404254">
  <rect fill="#f2f5e9" fill-opacity="0.5" stroke="#606060" stroke-width=".5" x="0" y="0" width="60" height="60"/>
  <use id="zoomplus" xlink:href="#zoomPlus" x="17" y="9" onmousedown="handleZoom(evt,'in')"/>
  <use id="zoomminus" xlink:href="#zoomMin" x="42" y="9" onmousedown="handleZoom(evt,'out')"/>
  <use id="reset" xlink:href="#resetDef" x="30" y="36" onmousedown="handleReset()"/>
   <use id="arrowup" xlink:href="#arrowUp" x="0" y="0" onmousedown="handlePan(0,-1)"/>
  <use id="arrowright" xlink:href="#arrowRight" x="0" y="0" onmousedown="handlePan(1,0)"/>
  <use id="arrowdown" xlink:href="#arrowDown" x="0" y="0" onmousedown="handlePan(0,1)"/>
  <use id="arrowleft" xlink:href="#arrowLeft" x="0" y="0" onmousedown="handlePan(-1,0)"/>
</g>
<svg viewBox="0 0 15 15" width="100%" height="30px" preserveAspectRatio="xMaxYMin meet">
 <g id="arrow_out" transform="scale(0.3 0.3)">
  <a xlink:href="_x_m_l_error_log_8cpp__incl_org.svg" target="_base">
   <rect id="button" ry="5" rx="5" y="6" x="6" height="38" width="38"
        fill="#f2f5e9" fill-opacity="0.5" stroke="#606060" stroke-width="1.0"/>
   <path id="arrow"
     d="M 11.500037,31.436501 C 11.940474,20.09759 22.043105,11.32322 32.158766,21.979434 L 37.068811,17.246167 C 37.068811,17.246167 37.088388,32 37.088388,32 L 22.160133,31.978069 C 22.160133,31.978069 26.997745,27.140456 26.997745,27.140456 C 18.528582,18.264221 13.291696,25.230495 11.500037,31.436501 z"
     style="fill:#404040;"/>
  </a>
 </g>
</svg>

<style type='text/css'>
<![CDATA[
[data-mouse-over-selected='false'] { opacity: 0.7; }
[data-mouse-over-selected='true']  { opacity: 1.0; }
]]>
</style>
<script type="application/ecmascript"><![CDATA[
document.addEventListener('DOMContentLoaded', (event) => {
  highlightEdges();
  highlightAdjacentNodes();
});
]]></script>
</svg>
