<?xml version="1.0" encoding="UTF-8" standalone="no"?>
<!DOCTYPE svg PUBLIC "-//W3C//DTD SVG 1.1//EN"
 "http://www.w3.org/Graphics/SVG/1.1/DTD/svg11.dtd">
<!-- Generated by graphviz version 2.43.0 (0)
 -->
<!-- Title: XMLLogOverride.h Pages: 1 -->
<svg width="258pt" height="84pt"
 viewBox="0.00 0.00 257.50 84.00" xmlns="http://www.w3.org/2000/svg" xmlns:xlink="http://www.w3.org/1999/xlink">
<g id="graph0" class="graph" transform="scale(1 1) rotate(0) translate(4 80)">
<title>XMLLogOverride.h</title>
<polygon fill="white" stroke="transparent" points="-4,4 -4,-80 253.5,-80 253.5,4 -4,4"/>
<!-- Node1 -->
<g id="node1" class="node">
<title>Node1</title>
<g id="a_node1"><a xlink:title="Utility class implementing a temporary override the severity on error logs.">
<polygon fill="#bfbfbf" stroke="black" points="71,-56.5 71,-75.5 177,-75.5 177,-56.5 71,-56.5"/>
<text text-anchor="middle" x="124" y="-63.5" font-family="Helvetica,sans-Serif" font-size="10.00">XMLLogOverride.h</text>
</a>
</g>
</g>
<!-- Node2 -->
<g id="node2" class="node">
<title>Node2</title>
<g id="a_node2"><a xlink:href="_s_b_m_l_document_8cpp.html" target="_top" xlink:title="Implementation of the top&#45;level container for an SBML Model and associated data.">
<polygon fill="white" stroke="black" points="0,-0.5 0,-19.5 114,-19.5 114,-0.5 0,-0.5"/>
<text text-anchor="middle" x="57" y="-7.5" font-family="Helvetica,sans-Serif" font-size="10.00">SBMLDocument.cpp</text>
</a>
</g>
</g>
<!-- Node1&#45;&gt;Node2 -->
<g id="edge1" class="edge">
<title>Node1&#45;&gt;Node2</title>
<path fill="none" stroke="midnightblue" d="M105.17,-49.82C93.16,-40.15 78.03,-27.95 67.96,-19.83"/>
<polygon fill="midnightblue" stroke="midnightblue" points="103.25,-52.77 113.24,-56.32 107.65,-47.32 103.25,-52.77"/>
</g>
<!-- Node3 -->
<g id="node3" class="node">
<title>Node3</title>
<g id="a_node3"><a xlink:href="_x_m_l_log_override_8cpp.html" target="_top" xlink:title="Utility class implementing a temporary override the severity on error logs.">
<polygon fill="white" stroke="black" points="132.5,-0.5 132.5,-19.5 249.5,-19.5 249.5,-0.5 132.5,-0.5"/>
<text text-anchor="middle" x="191" y="-7.5" font-family="Helvetica,sans-Serif" font-size="10.00">XMLLogOverride.cpp</text>
</a>
</g>
</g>
<!-- Node1&#45;&gt;Node3 -->
<g id="edge2" class="edge">
<title>Node1&#45;&gt;Node3</title>
<path fill="none" stroke="midnightblue" d="M142.83,-49.82C154.84,-40.15 169.97,-27.95 180.04,-19.83"/>
<polygon fill="midnightblue" stroke="midnightblue" points="140.35,-47.32 134.76,-56.32 144.75,-52.77 140.35,-47.32"/>
</g>
</g>
</svg>
