<?xml version="1.0" encoding="UTF-8" standalone="no"?>
<!DOCTYPE svg PUBLIC "-//W3C//DTD SVG 1.1//EN"
 "http://www.w3.org/Graphics/SVG/1.1/DTD/svg11.dtd">
<!-- Generated by graphviz version 2.43.0 (0)
 -->
<!-- Title: XMLErrorLog.cpp Pages: 1 -->
<!--zoomable 453 -->
<svg id="main" version="1.1" xmlns="http://www.w3.org/2000/svg" xmlns:xlink="http://www.w3.org/1999/xlink" xml:space="preserve" onload="init(evt)">
<style type="text/css"><![CDATA[
.edge:hover path { stroke: red; }
.edge:hover polygon { stroke: red; fill: red; }
]]></style>
<script type="text/javascript"><![CDATA[
var edges = document.getElementsByTagName('g');
if (edges && edges.length) {
  for (var i=0;i<edges.length;i++) {
    if (edges[i].id.substr(0,4)=='edge') {
      edges[i].setAttribute('class','edge');
    }
  }
}
]]></script>
        <defs>
                <circle id="rim" cx="0" cy="0" r="7"/>
                <circle id="rim2" cx="0" cy="0" r="3.5"/>
                <g id="zoomPlus">
                        <use xlink:href="#rim" fill="#404040">
                                <set attributeName="fill" to="#808080" begin="zoomplus.mouseover" end="zoomplus.mouseout"/>
                        </use>
                        <path d="M-4,0h8M0,-4v8" fill="none" stroke="white" stroke-width="1.5" pointer-events="none"/>
                </g>
                <g id="zoomMin">
                        <use xlink:href="#rim" fill="#404040">
                                <set attributeName="fill" to="#808080" begin="zoomminus.mouseover" end="zoomminus.mouseout"/>
                        </use>
                        <path d="M-4,0h8" fill="none" stroke="white" stroke-width="1.5" pointer-events="none"/>
                </g>
                <g id="dirArrow">
                        <path fill="none" stroke="white" stroke-width="1.5" d="M0,-3.0v7 M-2.5,-0.5L0,-3.0L2.5,-0.5"/>
                </g>
               <g id="resetDef">
                       <use xlink:href="#rim2" fill="#404040">
                               <set attributeName="fill" to="#808080" begin="reset.mouseover" end="reset.mouseout"/>
                       </use>
               </g>
        </defs>

<script type="text/javascript">
var viewWidth = 664;
var viewHeight = 453;
var sectionId = 'dynsection-0';
</script>
<script xlink:href="svgpan.js"/>
<svg id="graph" class="graph">
<g id="viewport">
<title>XMLErrorLog.cpp</title>
<polygon fill="white" stroke="transparent" points="-4,4 -4,-449 659.69,-449 659.69,4 -4,4"/>
<!-- Node1 -->
<g id="node1" class="node">
<title>Node1</title>
<g id="a_node1"><a xlink:title="Stores errors (and messages) encountered while processing XML.">
<polygon fill="#bfbfbf" stroke="black" points="223,-425.5 223,-444.5 321,-444.5 321,-425.5 223,-425.5"/>
<text text-anchor="middle" x="272" y="-432.5" font-family="Helvetica,sans-Serif" font-size="10.00">XMLErrorLog.cpp</text>
</a>
</g>
</g>
<!-- Node2 -->
<g id="node2" class="node">
<title>Node2</title>
<g id="a_node2"><a xlink:title=" ">
<polygon fill="white" stroke="#bfbfbf" points="50,-369.5 50,-388.5 114,-388.5 114,-369.5 50,-369.5"/>
<text text-anchor="middle" x="82" y="-376.5" font-family="Helvetica,sans-Serif" font-size="10.00">algorithm</text>
</a>
</g>
</g>
<!-- Node1&#45;&gt;Node2 -->
<g id="edge1" class="edge">
<title>Node1&#45;&gt;Node2</title>
<path fill="none" stroke="midnightblue" d="M241.89,-425.44C209.37,-416.2 157.42,-401.44 121.61,-391.26"/>
<polygon fill="midnightblue" stroke="midnightblue" points="122.54,-387.88 111.97,-388.52 120.63,-394.62 122.54,-387.88"/>
</g>
<!-- Node3 -->
<g id="node3" class="node">
<title>Node3</title>
<g id="a_node3"><a xlink:title=" ">
<polygon fill="white" stroke="#bfbfbf" points="132.5,-369.5 132.5,-388.5 197.5,-388.5 197.5,-369.5 132.5,-369.5"/>
<text text-anchor="middle" x="165" y="-376.5" font-family="Helvetica,sans-Serif" font-size="10.00">functional</text>
</a>
</g>
</g>
<!-- Node1&#45;&gt;Node3 -->
<g id="edge2" class="edge">
<title>Node1&#45;&gt;Node3</title>
<path fill="none" stroke="midnightblue" d="M254.81,-425.32C237.65,-416.66 211.05,-403.24 191.25,-393.25"/>
<polygon fill="midnightblue" stroke="midnightblue" points="192.65,-390.04 182.15,-388.65 189.5,-396.28 192.65,-390.04"/>
</g>
<!-- Node4 -->
<g id="node4" class="node">
<title>Node4</title>
<g id="a_node4"><a xlink:title=" ">
<polygon fill="white" stroke="#bfbfbf" points="216,-369.5 216,-388.5 272,-388.5 272,-369.5 216,-369.5"/>
<text text-anchor="middle" x="244" y="-376.5" font-family="Helvetica,sans-Serif" font-size="10.00">sstream</text>
</a>
</g>
</g>
<!-- Node1&#45;&gt;Node4 -->
<g id="edge3" class="edge">
<title>Node1&#45;&gt;Node4</title>
<path fill="none" stroke="midnightblue" d="M267.38,-425.08C263.54,-417.69 257.98,-406.95 253.24,-397.81"/>
<polygon fill="midnightblue" stroke="midnightblue" points="256.25,-396.02 248.54,-388.75 250.03,-399.24 256.25,-396.02"/>
</g>
<!-- Node5 -->
<g id="node5" class="node">
<title>Node5</title>
<g id="a_node5"><a xlink:href="_x_m_l_error_8h.html" target="_top" xlink:title="Represents errors (and messages) encountered during an XML parse.">
<polygon fill="white" stroke="black" points="156,-313.5 156,-332.5 274,-332.5 274,-313.5 156,-313.5"/>
<text text-anchor="middle" x="215" y="-320.5" font-family="Helvetica,sans-Serif" font-size="10.00">sbml/xml/XMLError.h</text>
</a>
</g>
</g>
<!-- Node1&#45;&gt;Node5 -->
<g id="edge4" class="edge">
<title>Node1&#45;&gt;Node5</title>
<path fill="none" stroke="midnightblue" d="M276.25,-425.44C282.05,-412.45 290.69,-387.33 281,-369 273.58,-354.95 259.58,-344.47 246.38,-337.17"/>
<polygon fill="midnightblue" stroke="midnightblue" points="247.96,-334.04 237.46,-332.62 244.78,-340.28 247.96,-334.04"/>
</g>
<!-- Node19 -->
<g id="node19" class="node">
<title>Node19</title>
<g id="a_node19"><a xlink:href="_x_m_l_parser_8h.html" target="_top" xlink:title=" ">
<polygon fill="white" stroke="black" points="482.5,-369.5 482.5,-388.5 607.5,-388.5 607.5,-369.5 482.5,-369.5"/>
<text text-anchor="middle" x="545" y="-376.5" font-family="Helvetica,sans-Serif" font-size="10.00">sbml/xml/XMLParser.h</text>
</a>
</g>
</g>
<!-- Node1&#45;&gt;Node19 -->
<g id="edge24" class="edge">
<title>Node1&#45;&gt;Node19</title>
<path fill="none" stroke="midnightblue" d="M315.26,-425.44C363.18,-415.96 440.48,-400.67 492,-390.48"/>
<polygon fill="midnightblue" stroke="midnightblue" points="492.81,-393.89 501.94,-388.52 491.46,-387.02 492.81,-393.89"/>
</g>
<!-- Node20 -->
<g id="node20" class="node">
<title>Node20</title>
<g id="a_node20"><a xlink:href="_x_m_l_error_log_8h.html" target="_top" xlink:title="Stores errors (and messages) encountered while processing XML.">
<polygon fill="white" stroke="black" points="328,-369.5 328,-388.5 464,-388.5 464,-369.5 328,-369.5"/>
<text text-anchor="middle" x="396" y="-376.5" font-family="Helvetica,sans-Serif" font-size="10.00">sbml/xml/XMLErrorLog.h</text>
</a>
</g>
</g>
<!-- Node1&#45;&gt;Node20 -->
<g id="edge25" class="edge">
<title>Node1&#45;&gt;Node20</title>
<path fill="none" stroke="midnightblue" d="M291.65,-425.44C311.96,-416.6 343.9,-402.69 367.1,-392.59"/>
<polygon fill="midnightblue" stroke="midnightblue" points="368.67,-395.72 376.44,-388.52 365.88,-389.3 368.67,-395.72"/>
</g>
<!-- Node6 -->
<g id="node6" class="node">
<title>Node6</title>
<g id="a_node6"><a xlink:title=" ">
<polygon fill="white" stroke="#bfbfbf" points="0,-196 0,-215 50,-215 50,-196 0,-196"/>
<text text-anchor="middle" x="25" y="-203" font-family="Helvetica,sans-Serif" font-size="10.00">stdio.h</text>
</a>
</g>
</g>
<!-- Node5&#45;&gt;Node6 -->
<g id="edge5" class="edge">
<title>Node5&#45;&gt;Node6</title>
<path fill="none" stroke="midnightblue" d="M155.8,-317.79C122.74,-312.64 82.74,-301.39 55,-277 39.74,-263.58 32.01,-241.08 28.26,-225.11"/>
<polygon fill="midnightblue" stroke="midnightblue" points="31.68,-224.38 26.25,-215.28 24.82,-225.78 31.68,-224.38"/>
</g>
<!-- Node7 -->
<g id="node7" class="node">
<title>Node7</title>
<g id="a_node7"><a xlink:href="_x_m_l_extern_8h.html" target="_top" xlink:title="Defines LIBLAX_EXTERN.">
<polygon fill="white" stroke="black" points="346.5,-257.5 346.5,-276.5 473.5,-276.5 473.5,-257.5 346.5,-257.5"/>
<text text-anchor="middle" x="410" y="-264.5" font-family="Helvetica,sans-Serif" font-size="10.00">sbml/xml/XMLExtern.h</text>
</a>
</g>
</g>
<!-- Node5&#45;&gt;Node7 -->
<g id="edge6" class="edge">
<title>Node5&#45;&gt;Node7</title>
<path fill="none" stroke="midnightblue" d="M245.9,-313.44C279.27,-304.2 332.59,-289.44 369.35,-279.26"/>
<polygon fill="midnightblue" stroke="midnightblue" points="370.54,-282.56 379.25,-276.52 368.67,-275.81 370.54,-282.56"/>
</g>
<!-- Node9 -->
<g id="node9" class="node">
<title>Node9</title>
<g id="a_node9"><a xlink:href="sbmlfwd_8h.html" target="_top" xlink:title="Forward declarations for all opaque C types.">
<polygon fill="white" stroke="black" points="499,-257.5 499,-276.5 639,-276.5 639,-257.5 499,-257.5"/>
<text text-anchor="middle" x="569" y="-264.5" font-family="Helvetica,sans-Serif" font-size="10.00">sbml/common/sbmlfwd.h</text>
</a>
</g>
</g>
<!-- Node5&#45;&gt;Node9 -->
<g id="edge8" class="edge">
<title>Node5&#45;&gt;Node9</title>
<path fill="none" stroke="midnightblue" d="M271.09,-313.44C334.14,-303.83 436.4,-288.23 503.18,-278.04"/>
<polygon fill="midnightblue" stroke="midnightblue" points="503.81,-281.48 513.17,-276.52 502.76,-274.56 503.81,-281.48"/>
</g>
<!-- Node14 -->
<g id="node14" class="node">
<title>Node14</title>
<g id="a_node14"><a xlink:href="util_8h.html" target="_top" xlink:title="Utility functions.">
<polygon fill="white" stroke="black" points="64.5,-257.5 64.5,-276.5 151.5,-276.5 151.5,-257.5 64.5,-257.5"/>
<text text-anchor="middle" x="108" y="-264.5" font-family="Helvetica,sans-Serif" font-size="10.00">sbml/util/util.h</text>
</a>
</g>
</g>
<!-- Node5&#45;&gt;Node14 -->
<g id="edge16" class="edge">
<title>Node5&#45;&gt;Node14</title>
<path fill="none" stroke="midnightblue" d="M197.81,-313.32C180.65,-304.66 154.05,-291.24 134.25,-281.25"/>
<polygon fill="midnightblue" stroke="midnightblue" points="135.65,-278.04 125.15,-276.65 132.5,-284.28 135.65,-278.04"/>
</g>
<!-- Node16 -->
<g id="node16" class="node">
<title>Node16</title>
<g id="a_node16"><a xlink:title=" ">
<polygon fill="white" stroke="#bfbfbf" points="218,-257.5 218,-276.5 266,-276.5 266,-257.5 218,-257.5"/>
<text text-anchor="middle" x="242" y="-264.5" font-family="Helvetica,sans-Serif" font-size="10.00">iosfwd</text>
</a>
</g>
</g>
<!-- Node5&#45;&gt;Node16 -->
<g id="edge20" class="edge">
<title>Node5&#45;&gt;Node16</title>
<path fill="none" stroke="midnightblue" d="M219.46,-313.08C223.15,-305.69 228.52,-294.95 233.09,-285.81"/>
<polygon fill="midnightblue" stroke="midnightblue" points="236.28,-287.26 237.62,-276.75 230.02,-284.13 236.28,-287.26"/>
</g>
<!-- Node17 -->
<g id="node17" class="node">
<title>Node17</title>
<g id="a_node17"><a xlink:title=" ">
<polygon fill="white" stroke="#bfbfbf" points="284,-257.5 284,-276.5 328,-276.5 328,-257.5 284,-257.5"/>
<text text-anchor="middle" x="306" y="-264.5" font-family="Helvetica,sans-Serif" font-size="10.00">string</text>
</a>
</g>
</g>
<!-- Node5&#45;&gt;Node17 -->
<g id="edge21" class="edge">
<title>Node5&#45;&gt;Node17</title>
<path fill="none" stroke="midnightblue" d="M229.62,-313.32C243.95,-304.82 266.01,-291.73 282.75,-281.8"/>
<polygon fill="midnightblue" stroke="midnightblue" points="284.6,-284.77 291.42,-276.65 281.03,-278.75 284.6,-284.77"/>
</g>
<!-- Node18 -->
<g id="node18" class="node">
<title>Node18</title>
<g id="a_node18"><a xlink:href="operation_return_values_8h.html" target="_top" xlink:title="Enumeration of values returned by operations within libSBML.">
<polygon fill="white" stroke="black" points="106,-123.5 106,-153.5 274,-153.5 274,-123.5 106,-123.5"/>
<text text-anchor="start" x="114" y="-141.5" font-family="Helvetica,sans-Serif" font-size="10.00">sbml/common/operationReturn</text>
<text text-anchor="middle" x="190" y="-130.5" font-family="Helvetica,sans-Serif" font-size="10.00">Values.h</text>
</a>
</g>
</g>
<!-- Node5&#45;&gt;Node18 -->
<g id="edge22" class="edge">
<title>Node5&#45;&gt;Node18</title>
<path fill="none" stroke="midnightblue" d="M213.79,-313.2C210.11,-286.33 198.94,-204.74 193.31,-163.67"/>
<polygon fill="midnightblue" stroke="midnightblue" points="196.77,-163.13 191.94,-153.69 189.83,-164.08 196.77,-163.13"/>
</g>
<!-- Node8 -->
<g id="node8" class="node">
<title>Node8</title>
<g id="a_node8"><a xlink:title=" ">
<polygon fill="white" stroke="#bfbfbf" points="330.5,-0.5 330.5,-30.5 455.5,-30.5 455.5,-0.5 330.5,-0.5"/>
<text text-anchor="start" x="338.5" y="-18.5" font-family="Helvetica,sans-Serif" font-size="10.00">sbml/common/libsbml</text>
<text text-anchor="middle" x="393" y="-7.5" font-family="Helvetica,sans-Serif" font-size="10.00">&#45;namespace.h</text>
</a>
</g>
</g>
<!-- Node7&#45;&gt;Node8 -->
<g id="edge7" class="edge">
<title>Node7&#45;&gt;Node8</title>
<path fill="none" stroke="midnightblue" d="M399.77,-257.45C380.13,-240.28 337.68,-199.34 322,-154 307.05,-110.79 343.36,-64.26 369.38,-37.92"/>
<polygon fill="midnightblue" stroke="midnightblue" points="372.03,-40.23 376.73,-30.73 367.13,-35.23 372.03,-40.23"/>
</g>
<!-- Node9&#45;&gt;Node8 -->
<g id="edge9" class="edge">
<title>Node9&#45;&gt;Node8</title>
<path fill="none" stroke="midnightblue" d="M580.46,-257.32C609.09,-234.54 679.26,-171.51 647,-123 607.01,-62.87 525.82,-36.62 465.94,-25.21"/>
<polygon fill="midnightblue" stroke="midnightblue" points="466.24,-21.7 455.78,-23.37 465,-28.59 466.24,-21.7"/>
</g>
<!-- Node10 -->
<g id="node10" class="node">
<title>Node10</title>
<g id="a_node10"><a xlink:href="libsbml-config_8h.html" target="_top" xlink:title="Decides whether to #include Unix or Windows configuration variables.">
<polygon fill="white" stroke="black" points="463.5,-190.5 463.5,-220.5 588.5,-220.5 588.5,-190.5 463.5,-190.5"/>
<text text-anchor="start" x="471.5" y="-208.5" font-family="Helvetica,sans-Serif" font-size="10.00">sbml/common/libsbml</text>
<text text-anchor="middle" x="526" y="-197.5" font-family="Helvetica,sans-Serif" font-size="10.00">&#45;config.h</text>
</a>
</g>
</g>
<!-- Node9&#45;&gt;Node10 -->
<g id="edge10" class="edge">
<title>Node9&#45;&gt;Node10</title>
<path fill="none" stroke="midnightblue" d="M562.84,-257.48C557.45,-250.02 549.38,-238.85 542.17,-228.87"/>
<polygon fill="midnightblue" stroke="midnightblue" points="544.83,-226.58 536.13,-220.52 539.15,-230.68 544.83,-226.58"/>
</g>
<!-- Node10&#45;&gt;Node8 -->
<g id="edge11" class="edge">
<title>Node10&#45;&gt;Node8</title>
<path fill="none" stroke="midnightblue" d="M516,-190.37C493.13,-158.04 436.81,-78.43 409.03,-39.16"/>
<polygon fill="midnightblue" stroke="midnightblue" points="411.56,-36.68 402.93,-30.54 405.85,-40.72 411.56,-36.68"/>
</g>
<!-- Node11 -->
<g id="node11" class="node">
<title>Node11</title>
<g id="a_node11"><a xlink:title=" ">
<polygon fill="white" stroke="#bfbfbf" points="512.5,-123.5 512.5,-153.5 637.5,-153.5 637.5,-123.5 512.5,-123.5"/>
<text text-anchor="start" x="520.5" y="-141.5" font-family="Helvetica,sans-Serif" font-size="10.00">sbml/common/libsbml</text>
<text text-anchor="middle" x="575" y="-130.5" font-family="Helvetica,sans-Serif" font-size="10.00">&#45;config&#45;common.h</text>
</a>
</g>
</g>
<!-- Node10&#45;&gt;Node11 -->
<g id="edge12" class="edge">
<title>Node10&#45;&gt;Node11</title>
<path fill="none" stroke="midnightblue" d="M536.63,-190.4C542.92,-182.05 551.04,-171.29 558.18,-161.81"/>
<polygon fill="midnightblue" stroke="midnightblue" points="561.16,-163.67 564.39,-153.58 555.57,-159.45 561.16,-163.67"/>
</g>
<!-- Node12 -->
<g id="node12" class="node">
<title>Node12</title>
<g id="a_node12"><a xlink:href="libsbml-version_8h.html" target="_top" xlink:title="Define libSBML version numbers for access from client software.">
<polygon fill="white" stroke="black" points="330.5,-123.5 330.5,-153.5 455.5,-153.5 455.5,-123.5 330.5,-123.5"/>
<text text-anchor="start" x="338.5" y="-141.5" font-family="Helvetica,sans-Serif" font-size="10.00">sbml/common/libsbml</text>
<text text-anchor="middle" x="393" y="-130.5" font-family="Helvetica,sans-Serif" font-size="10.00">&#45;version.h</text>
</a>
</g>
</g>
<!-- Node10&#45;&gt;Node12 -->
<g id="edge13" class="edge">
<title>Node10&#45;&gt;Node12</title>
<path fill="none" stroke="midnightblue" d="M497.14,-190.4C477.71,-180.9 451.88,-168.28 430.81,-157.98"/>
<polygon fill="midnightblue" stroke="midnightblue" points="432.32,-154.82 421.8,-153.58 429.25,-161.11 432.32,-154.82"/>
</g>
<!-- Node13 -->
<g id="node13" class="node">
<title>Node13</title>
<g id="a_node13"><a xlink:href="extern_8h.html" target="_top" xlink:title="Definitions of LIBSBML_EXTERN and related things.">
<polygon fill="white" stroke="black" points="135,-67.5 135,-86.5 265,-86.5 265,-67.5 135,-67.5"/>
<text text-anchor="middle" x="200" y="-74.5" font-family="Helvetica,sans-Serif" font-size="10.00">sbml/common/extern.h</text>
</a>
</g>
</g>
<!-- Node12&#45;&gt;Node13 -->
<g id="edge14" class="edge">
<title>Node12&#45;&gt;Node13</title>
<path fill="none" stroke="midnightblue" d="M347.26,-123.4C313.77,-113.07 268.87,-99.23 237.48,-89.56"/>
<polygon fill="midnightblue" stroke="midnightblue" points="238.39,-86.17 227.8,-86.57 236.33,-92.86 238.39,-86.17"/>
</g>
<!-- Node13&#45;&gt;Node8 -->
<g id="edge15" class="edge">
<title>Node13&#45;&gt;Node8</title>
<path fill="none" stroke="midnightblue" d="M227.65,-67.48C256.23,-58.66 301.63,-44.67 337.63,-33.57"/>
<polygon fill="midnightblue" stroke="midnightblue" points="338.99,-36.81 347.51,-30.52 336.93,-30.12 338.99,-36.81"/>
</g>
<!-- Node14&#45;&gt;Node6 -->
<g id="edge17" class="edge">
<title>Node14&#45;&gt;Node6</title>
<path fill="none" stroke="midnightblue" d="M96.11,-257.48C82.8,-247.93 61,-232.31 45.04,-220.87"/>
<polygon fill="midnightblue" stroke="midnightblue" points="47.04,-217.99 36.87,-215.01 42.96,-223.68 47.04,-217.99"/>
</g>
<!-- Node14&#45;&gt;Node13 -->
<g id="edge19" class="edge">
<title>Node14&#45;&gt;Node13</title>
<path fill="none" stroke="midnightblue" d="M103.99,-257.37C93.63,-233.65 68.64,-166.34 97,-123 107.5,-106.95 125.13,-96.59 142.85,-89.92"/>
<polygon fill="midnightblue" stroke="midnightblue" points="144.33,-93.11 152.67,-86.58 142.07,-86.49 144.33,-93.11"/>
</g>
<!-- Node15 -->
<g id="node15" class="node">
<title>Node15</title>
<g id="a_node15"><a xlink:title=" ">
<polygon fill="white" stroke="#bfbfbf" points="106,-196 106,-215 162,-215 162,-196 106,-196"/>
<text text-anchor="middle" x="134" y="-203" font-family="Helvetica,sans-Serif" font-size="10.00">stdarg.h</text>
</a>
</g>
</g>
<!-- Node14&#45;&gt;Node15 -->
<g id="edge18" class="edge">
<title>Node14&#45;&gt;Node15</title>
<path fill="none" stroke="midnightblue" d="M111.73,-257.48C115.47,-248.9 121.36,-235.43 126.14,-224.48"/>
<polygon fill="midnightblue" stroke="midnightblue" points="129.48,-225.57 130.28,-215.01 123.07,-222.77 129.48,-225.57"/>
</g>
<!-- Node18&#45;&gt;Node13 -->
<g id="edge23" class="edge">
<title>Node18&#45;&gt;Node13</title>
<path fill="none" stroke="midnightblue" d="M192.37,-123.4C193.72,-115.38 195.42,-105.23 196.88,-96.57"/>
<polygon fill="midnightblue" stroke="midnightblue" points="200.34,-97.1 198.54,-86.66 193.44,-95.94 200.34,-97.1"/>
</g>
<!-- Node20&#45;&gt;Node5 -->
<g id="edge27" class="edge">
<title>Node20&#45;&gt;Node5</title>
<path fill="none" stroke="midnightblue" d="M367.32,-369.44C336.47,-360.24 287.27,-345.56 253.17,-335.39"/>
<polygon fill="midnightblue" stroke="midnightblue" points="254.13,-332.02 243.55,-332.52 252.13,-338.73 254.13,-332.02"/>
</g>
<!-- Node20&#45;&gt;Node7 -->
<g id="edge26" class="edge">
<title>Node20&#45;&gt;Node7</title>
<path fill="none" stroke="midnightblue" d="M457.6,-369.42C479.43,-363.08 501.82,-352.08 515,-333 532.88,-307.12 495.78,-289.56 460.85,-279.28"/>
<polygon fill="midnightblue" stroke="midnightblue" points="461.67,-275.87 451.1,-276.57 459.8,-282.62 461.67,-275.87"/>
</g>
<!-- Node20&#45;&gt;Node9 -->
<g id="edge28" class="edge">
<title>Node20&#45;&gt;Node9</title>
<path fill="none" stroke="midnightblue" d="M449.34,-369.45C476.1,-363.01 507.69,-351.92 531,-333 546.03,-320.8 556.38,-300.97 562.45,-286.42"/>
<polygon fill="midnightblue" stroke="midnightblue" points="565.77,-287.53 566.1,-276.94 559.24,-285 565.77,-287.53"/>
</g>
<!-- Node20&#45;&gt;Node17 -->
<g id="edge30" class="edge">
<title>Node20&#45;&gt;Node17</title>
<path fill="none" stroke="midnightblue" d="M371.81,-369.4C355.06,-362.21 333.59,-350.32 321,-333 311.32,-319.68 307.76,-301.1 306.52,-287.22"/>
<polygon fill="midnightblue" stroke="midnightblue" points="309.99,-286.67 305.93,-276.88 303,-287.06 309.99,-286.67"/>
</g>
<!-- Node21 -->
<g id="node21" class="node">
<title>Node21</title>
<g id="a_node21"><a xlink:title=" ">
<polygon fill="white" stroke="#bfbfbf" points="330,-313.5 330,-332.5 390,-332.5 390,-313.5 330,-313.5"/>
<text text-anchor="middle" x="360" y="-320.5" font-family="Helvetica,sans-Serif" font-size="10.00">iostream</text>
</a>
</g>
</g>
<!-- Node20&#45;&gt;Node21 -->
<g id="edge29" class="edge">
<title>Node20&#45;&gt;Node21</title>
<path fill="none" stroke="midnightblue" d="M390.06,-369.08C385.02,-361.53 377.66,-350.49 371.49,-341.23"/>
<polygon fill="midnightblue" stroke="midnightblue" points="374.29,-339.13 365.83,-332.75 368.47,-343.01 374.29,-339.13"/>
</g>
<!-- Node22 -->
<g id="node22" class="node">
<title>Node22</title>
<g id="a_node22"><a xlink:title=" ">
<polygon fill="white" stroke="#bfbfbf" points="408.5,-313.5 408.5,-332.5 455.5,-332.5 455.5,-313.5 408.5,-313.5"/>
<text text-anchor="middle" x="432" y="-320.5" font-family="Helvetica,sans-Serif" font-size="10.00">vector</text>
</a>
</g>
</g>
<!-- Node20&#45;&gt;Node22 -->
<g id="edge31" class="edge">
<title>Node20&#45;&gt;Node22</title>
<path fill="none" stroke="midnightblue" d="M401.94,-369.08C406.98,-361.53 414.34,-350.49 420.51,-341.23"/>
<polygon fill="midnightblue" stroke="midnightblue" points="423.53,-343.01 426.17,-332.75 417.71,-339.13 423.53,-343.01"/>
</g>
<!-- Node23 -->
<g id="node23" class="node">
<title>Node23</title>
<g id="a_node23"><a xlink:title=" ">
<polygon fill="white" stroke="#bfbfbf" points="474,-313.5 474,-332.5 506,-332.5 506,-313.5 474,-313.5"/>
<text text-anchor="middle" x="490" y="-320.5" font-family="Helvetica,sans-Serif" font-size="10.00">list</text>
</a>
</g>
</g>
<!-- Node20&#45;&gt;Node23 -->
<g id="edge32" class="edge">
<title>Node20&#45;&gt;Node23</title>
<path fill="none" stroke="midnightblue" d="M411.1,-369.32C425.9,-360.82 448.69,-347.73 465.98,-337.8"/>
<polygon fill="midnightblue" stroke="midnightblue" points="468.01,-340.67 474.93,-332.65 464.52,-334.6 468.01,-340.67"/>
</g>
</g>
</svg>
        <g id="navigator" transform="translate(0 0)" fill="#404254">
                <rect fill="#f2f5e9" fill-opacity="0.5" stroke="#606060" stroke-width=".5" x="0" y="0" width="60" height="60"/>
                <use id="zoomplus" xlink:href="#zoomPlus" x="17" y="9" onmousedown="handleZoom(evt,'in')"/>
                <use id="zoomminus" xlink:href="#zoomMin" x="42" y="9" onmousedown="handleZoom(evt,'out')"/>
                <use id="reset" xlink:href="#resetDef" x="30" y="36" onmousedown="handleReset()"/>
                <g id="arrowUp" xlink:href="#dirArrow" transform="translate(30 24)" onmousedown="handlePan(0,-1)">
                  <use xlink:href="#rim" fill="#404040">
                        <set attributeName="fill" to="#808080" begin="arrowUp.mouseover" end="arrowUp.mouseout"/>
                  </use>
                  <path fill="none" stroke="white" stroke-width="1.5" d="M0,-3.0v7 M-2.5,-0.5L0,-3.0L2.5,-0.5"/>
                </g>
                <g id="arrowRight" xlink:href="#dirArrow" transform="rotate(90) translate(36 -43)" onmousedown="handlePan(1,0)">
                  <use xlink:href="#rim" fill="#404040">
                        <set attributeName="fill" to="#808080" begin="arrowRight.mouseover" end="arrowRight.mouseout"/>
                  </use>
                  <path fill="none" stroke="white" stroke-width="1.5" d="M0,-3.0v7 M-2.5,-0.5L0,-3.0L2.5,-0.5"/>
                </g>
                <g id="arrowDown" xlink:href="#dirArrow" transform="rotate(180) translate(-30 -48)" onmousedown="handlePan(0,1)">
                  <use xlink:href="#rim" fill="#404040">
                        <set attributeName="fill" to="#808080" begin="arrowDown.mouseover" end="arrowDown.mouseout"/>
                  </use>
                  <path fill="none" stroke="white" stroke-width="1.5" d="M0,-3.0v7 M-2.5,-0.5L0,-3.0L2.5,-0.5"/>
                </g>
                <g id="arrowLeft" xlink:href="#dirArrow" transform="rotate(270) translate(-36 17)" onmousedown="handlePan(-1,0)">
                  <use xlink:href="#rim" fill="#404040">
                        <set attributeName="fill" to="#808080" begin="arrowLeft.mouseover" end="arrowLeft.mouseout"/>
                  </use>
                  <path fill="none" stroke="white" stroke-width="1.5" d="M0,-3.0v7 M-2.5,-0.5L0,-3.0L2.5,-0.5"/>
                </g>
        </g>
        <svg viewBox="0 0 15 15" width="100%" height="30px" preserveAspectRatio="xMaxYMin meet">
         <g id="arrow_out" transform="scale(0.3 0.3)">
          <a xlink:href="_x_m_l_error_log_8cpp__incl_org.svg" target="_base">
           <rect id="button" ry="5" rx="5" y="6" x="6" height="38" width="38"
                fill="#f2f5e9" fill-opacity="0.5" stroke="#606060" stroke-width="1.0"/>
           <path id="arrow"
             d="M 11.500037,31.436501 C 11.940474,20.09759 22.043105,11.32322 32.158766,21.979434 L 37.068811,17.246167 C 37.068811,17.246167 37.088388,32 37.088388,32 L 22.160133,31.978069 C 22.160133,31.978069 26.997745,27.140456 26.997745,27.140456 C 18.528582,18.264221 13.291696,25.230495 11.500037,31.436501 z"
             style="fill:#404040;"/>
          </a>
         </g>
        </svg>
</svg>
