<?xml version="1.0" encoding="UTF-8" standalone="no"?>
<!DOCTYPE svg PUBLIC "-//W3C//DTD SVG 1.1//EN"
 "http://www.w3.org/Graphics/SVG/1.1/DTD/svg11.dtd">
<!-- Generated by graphviz version 2.43.0 (0)
 -->
<!-- Title: XMLAttributes.cpp Pages: 1 -->
<svg width="1285pt" height="464pt"
 viewBox="0.00 0.00 1285.00 464.00" xmlns="http://www.w3.org/2000/svg" xmlns:xlink="http://www.w3.org/1999/xlink">
<g id="graph0" class="graph" transform="scale(1 1) rotate(0) translate(4 460)">
<title>XMLAttributes.cpp</title>
<polygon fill="white" stroke="transparent" points="-4,4 -4,-460 1281,-460 1281,4 -4,4"/>
<!-- Node1 -->
<g id="node1" class="node">
<title>Node1</title>
<g id="a_node1"><a xlink:title="XMLAttributes are a list of name/value pairs for XMLElements.">
<polygon fill="#bfbfbf" stroke="black" points="204,-436.5 204,-455.5 311,-455.5 311,-436.5 204,-436.5"/>
<text text-anchor="middle" x="257.5" y="-443.5" font-family="Helvetica,sans-Serif" font-size="10.00">XMLAttributes.cpp</text>
</a>
</g>
</g>
<!-- Node2 -->
<g id="node2" class="node">
<title>Node2</title>
<g id="a_node2"><a xlink:title=" ">
<polygon fill="white" stroke="#bfbfbf" points="0,-380.5 0,-399.5 47,-399.5 47,-380.5 0,-380.5"/>
<text text-anchor="middle" x="23.5" y="-387.5" font-family="Helvetica,sans-Serif" font-size="10.00">cerrno</text>
</a>
</g>
</g>
<!-- Node1&#45;&gt;Node2 -->
<g id="edge1" class="edge">
<title>Node1&#45;&gt;Node2</title>
<path fill="none" stroke="midnightblue" d="M215.95,-436.44C177.16,-428.3 117.44,-415.36 57.28,-400.35"/>
<polygon fill="midnightblue" stroke="midnightblue" points="57.78,-396.87 47.23,-397.83 56.07,-403.66 57.78,-396.87"/>
</g>
<!-- Node3 -->
<g id="node3" class="node">
<title>Node3</title>
<g id="a_node3"><a xlink:title=" ">
<polygon fill="white" stroke="#bfbfbf" points="65,-380.5 65,-399.5 116,-399.5 116,-380.5 65,-380.5"/>
<text text-anchor="middle" x="90.5" y="-387.5" font-family="Helvetica,sans-Serif" font-size="10.00">clocale</text>
</a>
</g>
</g>
<!-- Node1&#45;&gt;Node3 -->
<g id="edge2" class="edge">
<title>Node1&#45;&gt;Node3</title>
<path fill="none" stroke="midnightblue" d="M231.04,-436.44C202.57,-427.24 157.17,-412.56 125.7,-402.38"/>
<polygon fill="midnightblue" stroke="midnightblue" points="126.61,-399 116.02,-399.25 124.45,-405.66 126.61,-399"/>
</g>
<!-- Node4 -->
<g id="node4" class="node">
<title>Node4</title>
<g id="a_node4"><a xlink:title=" ">
<polygon fill="white" stroke="#bfbfbf" points="134,-380.5 134,-399.5 183,-399.5 183,-380.5 134,-380.5"/>
<text text-anchor="middle" x="158.5" y="-387.5" font-family="Helvetica,sans-Serif" font-size="10.00">cstdlib</text>
</a>
</g>
</g>
<!-- Node1&#45;&gt;Node4 -->
<g id="edge3" class="edge">
<title>Node1&#45;&gt;Node4</title>
<path fill="none" stroke="midnightblue" d="M241.59,-436.32C225.86,-427.74 201.56,-414.49 183.29,-404.52"/>
<polygon fill="midnightblue" stroke="midnightblue" points="184.82,-401.37 174.37,-399.65 181.47,-407.52 184.82,-401.37"/>
</g>
<!-- Node5 -->
<g id="node5" class="node">
<title>Node5</title>
<g id="a_node5"><a xlink:title=" ">
<polygon fill="white" stroke="#bfbfbf" points="201.5,-380.5 201.5,-399.5 245.5,-399.5 245.5,-380.5 201.5,-380.5"/>
<text text-anchor="middle" x="223.5" y="-387.5" font-family="Helvetica,sans-Serif" font-size="10.00">limits</text>
</a>
</g>
</g>
<!-- Node1&#45;&gt;Node5 -->
<g id="edge4" class="edge">
<title>Node1&#45;&gt;Node5</title>
<path fill="none" stroke="midnightblue" d="M251.89,-436.08C247.13,-428.53 240.18,-417.49 234.35,-408.23"/>
<polygon fill="midnightblue" stroke="midnightblue" points="237.3,-406.35 229.01,-399.75 231.38,-410.08 237.3,-406.35"/>
</g>
<!-- Node6 -->
<g id="node6" class="node">
<title>Node6</title>
<g id="a_node6"><a xlink:title=" ">
<polygon fill="white" stroke="#bfbfbf" points="263.5,-380.5 263.5,-399.5 319.5,-399.5 319.5,-380.5 263.5,-380.5"/>
<text text-anchor="middle" x="291.5" y="-387.5" font-family="Helvetica,sans-Serif" font-size="10.00">sstream</text>
</a>
</g>
</g>
<!-- Node1&#45;&gt;Node6 -->
<g id="edge5" class="edge">
<title>Node1&#45;&gt;Node6</title>
<path fill="none" stroke="midnightblue" d="M263.11,-436.08C267.87,-428.53 274.82,-417.49 280.65,-408.23"/>
<polygon fill="midnightblue" stroke="midnightblue" points="283.62,-410.08 285.99,-399.75 277.7,-406.35 283.62,-410.08"/>
</g>
<!-- Node7 -->
<g id="node7" class="node">
<title>Node7</title>
<g id="a_node7"><a xlink:href="_x_m_l_error_log_8h.html" target="_top" xlink:title="Stores errors (and messages) encountered while processing XML.">
<polygon fill="white" stroke="black" points="855.5,-380.5 855.5,-399.5 991.5,-399.5 991.5,-380.5 855.5,-380.5"/>
<text text-anchor="middle" x="923.5" y="-387.5" font-family="Helvetica,sans-Serif" font-size="10.00">sbml/xml/XMLErrorLog.h</text>
</a>
</g>
</g>
<!-- Node1&#45;&gt;Node7 -->
<g id="edge6" class="edge">
<title>Node1&#45;&gt;Node7</title>
<path fill="none" stroke="midnightblue" d="M311.16,-440.65C428.49,-431.14 708.31,-408.45 845.27,-397.34"/>
<polygon fill="midnightblue" stroke="midnightblue" points="845.6,-400.83 855.28,-396.53 845.03,-393.85 845.6,-400.83"/>
</g>
<!-- Node25 -->
<g id="node25" class="node">
<title>Node25</title>
<g id="a_node25"><a xlink:href="_x_m_l_constructor_exception_8h.html" target="_top" xlink:title="XMLConstructorException an exception thrown by XML classes.">
<polygon fill="white" stroke="black" points="337.5,-380.5 337.5,-399.5 537.5,-399.5 537.5,-380.5 337.5,-380.5"/>
<text text-anchor="middle" x="437.5" y="-387.5" font-family="Helvetica,sans-Serif" font-size="10.00">sbml/xml/XMLConstructorException.h</text>
</a>
</g>
</g>
<!-- Node1&#45;&gt;Node25 -->
<g id="edge33" class="edge">
<title>Node1&#45;&gt;Node25</title>
<path fill="none" stroke="midnightblue" d="M286.02,-436.44C316.57,-427.28 365.21,-412.69 399.1,-402.52"/>
<polygon fill="midnightblue" stroke="midnightblue" points="400.54,-405.74 409.11,-399.52 398.53,-399.04 400.54,-405.74"/>
</g>
<!-- Node27 -->
<g id="node27" class="node">
<title>Node27</title>
<g id="a_node27"><a xlink:href="_x_m_l_attributes_8h.html" target="_top" xlink:title="XMLAttributes are a list of name/value pairs for XML elements.">
<polygon fill="white" stroke="black" points="580.5,-380.5 580.5,-399.5 724.5,-399.5 724.5,-380.5 580.5,-380.5"/>
<text text-anchor="middle" x="652.5" y="-387.5" font-family="Helvetica,sans-Serif" font-size="10.00">sbml/xml/XMLAttributes.h</text>
</a>
</g>
</g>
<!-- Node1&#45;&gt;Node27 -->
<g id="edge37" class="edge">
<title>Node1&#45;&gt;Node27</title>
<path fill="none" stroke="midnightblue" d="M311.18,-437.66C380.73,-428.15 502.24,-411.54 579.95,-400.92"/>
<polygon fill="midnightblue" stroke="midnightblue" points="580.71,-404.35 590.14,-399.52 579.76,-397.41 580.71,-404.35"/>
</g>
<!-- Node8 -->
<g id="node8" class="node">
<title>Node8</title>
<g id="a_node8"><a xlink:href="_x_m_l_extern_8h.html" target="_top" xlink:title="Defines LIBLAX_EXTERN.">
<polygon fill="white" stroke="black" points="754,-263 754,-282 881,-282 881,-263 754,-263"/>
<text text-anchor="middle" x="817.5" y="-270" font-family="Helvetica,sans-Serif" font-size="10.00">sbml/xml/XMLExtern.h</text>
</a>
</g>
</g>
<!-- Node7&#45;&gt;Node8 -->
<g id="edge7" class="edge">
<title>Node7&#45;&gt;Node8</title>
<path fill="none" stroke="midnightblue" d="M971.89,-380.5C1013.9,-370.97 1064.65,-352.95 1041.5,-324 1038.76,-320.57 933.53,-297.91 868.3,-284.13"/>
<polygon fill="midnightblue" stroke="midnightblue" points="868.7,-280.64 858.19,-282 867.26,-287.49 868.7,-280.64"/>
</g>
<!-- Node10 -->
<g id="node10" class="node">
<title>Node10</title>
<g id="a_node10"><a xlink:href="_x_m_l_error_8h.html" target="_top" xlink:title="Represents errors (and messages) encountered during an XML parse.">
<polygon fill="white" stroke="black" points="1088.5,-324.5 1088.5,-343.5 1206.5,-343.5 1206.5,-324.5 1088.5,-324.5"/>
<text text-anchor="middle" x="1147.5" y="-331.5" font-family="Helvetica,sans-Serif" font-size="10.00">sbml/xml/XMLError.h</text>
</a>
</g>
</g>
<!-- Node7&#45;&gt;Node10 -->
<g id="edge9" class="edge">
<title>Node7&#45;&gt;Node10</title>
<path fill="none" stroke="midnightblue" d="M958.99,-380.44C997.82,-371.08 1060.16,-356.06 1102.42,-345.87"/>
<polygon fill="midnightblue" stroke="midnightblue" points="1103.27,-349.26 1112.17,-343.52 1101.63,-342.46 1103.27,-349.26"/>
</g>
<!-- Node12 -->
<g id="node12" class="node">
<title>Node12</title>
<g id="a_node12"><a xlink:href="sbmlfwd_8h.html" target="_top" xlink:title="Forward declarations for all opaque C types.">
<polygon fill="white" stroke="black" points="506.5,-263 506.5,-282 646.5,-282 646.5,-263 506.5,-263"/>
<text text-anchor="middle" x="576.5" y="-270" font-family="Helvetica,sans-Serif" font-size="10.00">sbml/common/sbmlfwd.h</text>
</a>
</g>
</g>
<!-- Node7&#45;&gt;Node12 -->
<g id="edge28" class="edge">
<title>Node7&#45;&gt;Node12</title>
<path fill="none" stroke="midnightblue" d="M913.44,-380.46C894.5,-364.56 854,-331.35 837.5,-324 832.79,-321.9 707.62,-298.15 632.36,-283.98"/>
<polygon fill="midnightblue" stroke="midnightblue" points="632.56,-280.46 622.09,-282.05 631.27,-287.34 632.56,-280.46"/>
</g>
<!-- Node20 -->
<g id="node20" class="node">
<title>Node20</title>
<g id="a_node20"><a xlink:title=" ">
<polygon fill="white" stroke="#bfbfbf" points="664.5,-263 664.5,-282 708.5,-282 708.5,-263 664.5,-263"/>
<text text-anchor="middle" x="686.5" y="-270" font-family="Helvetica,sans-Serif" font-size="10.00">string</text>
</a>
</g>
</g>
<!-- Node7&#45;&gt;Node20 -->
<g id="edge30" class="edge">
<title>Node7&#45;&gt;Node20</title>
<path fill="none" stroke="midnightblue" d="M918.87,-380.39C910.89,-366.4 893.19,-338.78 870.5,-324 864.04,-319.79 769.66,-295 718.66,-281.78"/>
<polygon fill="midnightblue" stroke="midnightblue" points="719.33,-278.34 708.78,-279.23 717.58,-285.12 719.33,-278.34"/>
</g>
<!-- Node22 -->
<g id="node22" class="node">
<title>Node22</title>
<g id="a_node22"><a xlink:title=" ">
<polygon fill="white" stroke="#bfbfbf" points="922.5,-324.5 922.5,-343.5 982.5,-343.5 982.5,-324.5 922.5,-324.5"/>
<text text-anchor="middle" x="952.5" y="-331.5" font-family="Helvetica,sans-Serif" font-size="10.00">iostream</text>
</a>
</g>
</g>
<!-- Node7&#45;&gt;Node22 -->
<g id="edge29" class="edge">
<title>Node7&#45;&gt;Node22</title>
<path fill="none" stroke="midnightblue" d="M928.29,-380.08C932.26,-372.69 938.03,-361.95 942.93,-352.81"/>
<polygon fill="midnightblue" stroke="midnightblue" points="946.15,-354.22 947.8,-343.75 939.99,-350.91 946.15,-354.22"/>
</g>
<!-- Node23 -->
<g id="node23" class="node">
<title>Node23</title>
<g id="a_node23"><a xlink:title=" ">
<polygon fill="white" stroke="#bfbfbf" points="781,-324.5 781,-343.5 828,-343.5 828,-324.5 781,-324.5"/>
<text text-anchor="middle" x="804.5" y="-331.5" font-family="Helvetica,sans-Serif" font-size="10.00">vector</text>
</a>
</g>
</g>
<!-- Node7&#45;&gt;Node23 -->
<g id="edge31" class="edge">
<title>Node7&#45;&gt;Node23</title>
<path fill="none" stroke="midnightblue" d="M904.64,-380.44C885.23,-371.64 854.77,-357.81 832.54,-347.72"/>
<polygon fill="midnightblue" stroke="midnightblue" points="833.82,-344.46 823.27,-343.52 830.93,-350.84 833.82,-344.46"/>
</g>
<!-- Node24 -->
<g id="node24" class="node">
<title>Node24</title>
<g id="a_node24"><a xlink:title=" ">
<polygon fill="white" stroke="#bfbfbf" points="1000.5,-324.5 1000.5,-343.5 1032.5,-343.5 1032.5,-324.5 1000.5,-324.5"/>
<text text-anchor="middle" x="1016.5" y="-331.5" font-family="Helvetica,sans-Serif" font-size="10.00">list</text>
</a>
</g>
</g>
<!-- Node7&#45;&gt;Node24 -->
<g id="edge32" class="edge">
<title>Node7&#45;&gt;Node24</title>
<path fill="none" stroke="midnightblue" d="M938.44,-380.32C953.09,-371.82 975.63,-358.73 992.74,-348.8"/>
<polygon fill="midnightblue" stroke="midnightblue" points="994.7,-351.7 1001.6,-343.65 991.19,-345.65 994.7,-351.7"/>
</g>
<!-- Node9 -->
<g id="node9" class="node">
<title>Node9</title>
<g id="a_node9"><a xlink:title=" ">
<polygon fill="white" stroke="#bfbfbf" points="737,-0.5 737,-30.5 862,-30.5 862,-0.5 737,-0.5"/>
<text text-anchor="start" x="745" y="-18.5" font-family="Helvetica,sans-Serif" font-size="10.00">sbml/common/libsbml</text>
<text text-anchor="middle" x="799.5" y="-7.5" font-family="Helvetica,sans-Serif" font-size="10.00">&#45;namespace.h</text>
</a>
</g>
</g>
<!-- Node8&#45;&gt;Node9 -->
<g id="edge8" class="edge">
<title>Node8&#45;&gt;Node9</title>
<path fill="none" stroke="midnightblue" d="M824.77,-262.9C843,-240.26 888.05,-177.03 871.5,-123 861.45,-90.18 837.48,-58.35 819.95,-38.17"/>
<polygon fill="midnightblue" stroke="midnightblue" points="822.4,-35.65 813.13,-30.52 817.17,-40.31 822.4,-35.65"/>
</g>
<!-- Node10&#45;&gt;Node8 -->
<g id="edge11" class="edge">
<title>Node10&#45;&gt;Node8</title>
<path fill="none" stroke="midnightblue" d="M1096.72,-324.46C1044.84,-315.65 961.96,-301.35 890.5,-288 883.76,-286.74 876.67,-285.38 869.68,-284.01"/>
<polygon fill="midnightblue" stroke="midnightblue" points="870.03,-280.52 859.54,-282.02 868.68,-287.39 870.03,-280.52"/>
</g>
<!-- Node11 -->
<g id="node11" class="node">
<title>Node11</title>
<g id="a_node11"><a xlink:title=" ">
<polygon fill="white" stroke="#bfbfbf" points="1077.5,-196 1077.5,-215 1127.5,-215 1127.5,-196 1077.5,-196"/>
<text text-anchor="middle" x="1102.5" y="-203" font-family="Helvetica,sans-Serif" font-size="10.00">stdio.h</text>
</a>
</g>
</g>
<!-- Node10&#45;&gt;Node11 -->
<g id="edge10" class="edge">
<title>Node10&#45;&gt;Node11</title>
<path fill="none" stroke="midnightblue" d="M1139.25,-324.49C1131.52,-315.98 1120.31,-302.16 1114.5,-288 1106.21,-267.79 1103.54,-242.68 1102.73,-225.72"/>
<polygon fill="midnightblue" stroke="midnightblue" points="1106.22,-225.32 1102.43,-215.43 1099.23,-225.53 1106.22,-225.32"/>
</g>
<!-- Node10&#45;&gt;Node12 -->
<g id="edge12" class="edge">
<title>Node10&#45;&gt;Node12</title>
<path fill="none" stroke="midnightblue" d="M1088.28,-327.89C966.83,-317.35 697.4,-293.75 655.5,-288 646.87,-286.82 637.74,-285.35 628.88,-283.8"/>
<polygon fill="midnightblue" stroke="midnightblue" points="629.49,-280.35 619.03,-282.03 628.25,-287.24 629.49,-280.35"/>
</g>
<!-- Node17 -->
<g id="node17" class="node">
<title>Node17</title>
<g id="a_node17"><a xlink:href="util_8h.html" target="_top" xlink:title="Utility functions.">
<polygon fill="white" stroke="black" points="1190,-263 1190,-282 1277,-282 1277,-263 1190,-263"/>
<text text-anchor="middle" x="1233.5" y="-270" font-family="Helvetica,sans-Serif" font-size="10.00">sbml/util/util.h</text>
</a>
</g>
</g>
<!-- Node10&#45;&gt;Node17 -->
<g id="edge20" class="edge">
<title>Node10&#45;&gt;Node17</title>
<path fill="none" stroke="midnightblue" d="M1159.82,-324.48C1173.62,-314.93 1196.2,-299.31 1212.73,-287.87"/>
<polygon fill="midnightblue" stroke="midnightblue" points="1214.97,-290.58 1221.2,-282.01 1210.99,-284.82 1214.97,-290.58"/>
</g>
<!-- Node19 -->
<g id="node19" class="node">
<title>Node19</title>
<g id="a_node19"><a xlink:title=" ">
<polygon fill="white" stroke="#bfbfbf" points="1123.5,-263 1123.5,-282 1171.5,-282 1171.5,-263 1123.5,-263"/>
<text text-anchor="middle" x="1147.5" y="-270" font-family="Helvetica,sans-Serif" font-size="10.00">iosfwd</text>
</a>
</g>
</g>
<!-- Node10&#45;&gt;Node19 -->
<g id="edge24" class="edge">
<title>Node10&#45;&gt;Node19</title>
<path fill="none" stroke="midnightblue" d="M1147.5,-324.48C1147.5,-316.08 1147.5,-302.98 1147.5,-292.16"/>
<polygon fill="midnightblue" stroke="midnightblue" points="1151,-292.01 1147.5,-282.01 1144,-292.01 1151,-292.01"/>
</g>
<!-- Node10&#45;&gt;Node20 -->
<g id="edge25" class="edge">
<title>Node10&#45;&gt;Node20</title>
<path fill="none" stroke="midnightblue" d="M1088.19,-327.31C992.88,-318.02 809.8,-299.45 745.5,-288 736.69,-286.43 727.25,-284.31 718.55,-282.18"/>
<polygon fill="midnightblue" stroke="midnightblue" points="719.32,-278.76 708.77,-279.7 717.6,-285.55 719.32,-278.76"/>
</g>
<!-- Node21 -->
<g id="node21" class="node">
<title>Node21</title>
<g id="a_node21"><a xlink:href="operation_return_values_8h.html" target="_top" xlink:title="Enumeration of values returned by operations within libSBML.">
<polygon fill="white" stroke="black" points="899.5,-257.5 899.5,-287.5 1067.5,-287.5 1067.5,-257.5 899.5,-257.5"/>
<text text-anchor="start" x="907.5" y="-275.5" font-family="Helvetica,sans-Serif" font-size="10.00">sbml/common/operationReturn</text>
<text text-anchor="middle" x="983.5" y="-264.5" font-family="Helvetica,sans-Serif" font-size="10.00">Values.h</text>
</a>
</g>
</g>
<!-- Node10&#45;&gt;Node21 -->
<g id="edge26" class="edge">
<title>Node10&#45;&gt;Node21</title>
<path fill="none" stroke="midnightblue" d="M1124,-324.48C1100.03,-315.78 1062.13,-302.03 1031.73,-291"/>
<polygon fill="midnightblue" stroke="midnightblue" points="1032.75,-287.64 1022.15,-287.52 1030.36,-294.22 1032.75,-287.64"/>
</g>
<!-- Node12&#45;&gt;Node9 -->
<g id="edge13" class="edge">
<title>Node12&#45;&gt;Node9</title>
<path fill="none" stroke="midnightblue" d="M570.67,-262.96C554.97,-238.81 515.02,-168.83 545.5,-123 585.49,-62.87 666.68,-36.62 726.56,-25.21"/>
<polygon fill="midnightblue" stroke="midnightblue" points="727.5,-28.59 736.72,-23.37 726.26,-21.7 727.5,-28.59"/>
</g>
<!-- Node13 -->
<g id="node13" class="node">
<title>Node13</title>
<g id="a_node13"><a xlink:href="libsbml-config_8h.html" target="_top" xlink:title="Decides whether to #include Unix or Windows configuration variables.">
<polygon fill="white" stroke="black" points="600,-190.5 600,-220.5 725,-220.5 725,-190.5 600,-190.5"/>
<text text-anchor="start" x="608" y="-208.5" font-family="Helvetica,sans-Serif" font-size="10.00">sbml/common/libsbml</text>
<text text-anchor="middle" x="662.5" y="-197.5" font-family="Helvetica,sans-Serif" font-size="10.00">&#45;config.h</text>
</a>
</g>
</g>
<!-- Node12&#45;&gt;Node13 -->
<g id="edge14" class="edge">
<title>Node12&#45;&gt;Node13</title>
<path fill="none" stroke="midnightblue" d="M588.1,-262.73C600.28,-253.53 619.85,-238.73 635.87,-226.63"/>
<polygon fill="midnightblue" stroke="midnightblue" points="637.99,-229.41 643.86,-220.59 633.77,-223.83 637.99,-229.41"/>
</g>
<!-- Node13&#45;&gt;Node9 -->
<g id="edge15" class="edge">
<title>Node13&#45;&gt;Node9</title>
<path fill="none" stroke="midnightblue" d="M672.8,-190.37C696.46,-157.9 754.86,-77.76 783.35,-38.67"/>
<polygon fill="midnightblue" stroke="midnightblue" points="786.21,-40.68 789.27,-30.54 780.55,-36.56 786.21,-40.68"/>
</g>
<!-- Node14 -->
<g id="node14" class="node">
<title>Node14</title>
<g id="a_node14"><a xlink:title=" ">
<polygon fill="white" stroke="#bfbfbf" points="555,-123.5 555,-153.5 680,-153.5 680,-123.5 555,-123.5"/>
<text text-anchor="start" x="563" y="-141.5" font-family="Helvetica,sans-Serif" font-size="10.00">sbml/common/libsbml</text>
<text text-anchor="middle" x="617.5" y="-130.5" font-family="Helvetica,sans-Serif" font-size="10.00">&#45;config&#45;common.h</text>
</a>
</g>
</g>
<!-- Node13&#45;&gt;Node14 -->
<g id="edge16" class="edge">
<title>Node13&#45;&gt;Node14</title>
<path fill="none" stroke="midnightblue" d="M652.74,-190.4C646.96,-182.05 639.51,-171.29 632.95,-161.81"/>
<polygon fill="midnightblue" stroke="midnightblue" points="635.82,-159.81 627.25,-153.58 630.06,-163.79 635.82,-159.81"/>
</g>
<!-- Node15 -->
<g id="node15" class="node">
<title>Node15</title>
<g id="a_node15"><a xlink:href="libsbml-version_8h.html" target="_top" xlink:title="Define libSBML version numbers for access from client software.">
<polygon fill="white" stroke="black" points="737,-123.5 737,-153.5 862,-153.5 862,-123.5 737,-123.5"/>
<text text-anchor="start" x="745" y="-141.5" font-family="Helvetica,sans-Serif" font-size="10.00">sbml/common/libsbml</text>
<text text-anchor="middle" x="799.5" y="-130.5" font-family="Helvetica,sans-Serif" font-size="10.00">&#45;version.h</text>
</a>
</g>
</g>
<!-- Node13&#45;&gt;Node15 -->
<g id="edge17" class="edge">
<title>Node13&#45;&gt;Node15</title>
<path fill="none" stroke="midnightblue" d="M692.23,-190.4C712.24,-180.9 738.85,-168.28 760.55,-157.98"/>
<polygon fill="midnightblue" stroke="midnightblue" points="762.3,-161.03 769.83,-153.58 759.3,-154.7 762.3,-161.03"/>
</g>
<!-- Node16 -->
<g id="node16" class="node">
<title>Node16</title>
<g id="a_node16"><a xlink:href="extern_8h.html" target="_top" xlink:title="Definitions of LIBSBML_EXTERN and related things.">
<polygon fill="white" stroke="black" points="918.5,-67.5 918.5,-86.5 1048.5,-86.5 1048.5,-67.5 918.5,-67.5"/>
<text text-anchor="middle" x="983.5" y="-74.5" font-family="Helvetica,sans-Serif" font-size="10.00">sbml/common/extern.h</text>
</a>
</g>
</g>
<!-- Node15&#45;&gt;Node16 -->
<g id="edge18" class="edge">
<title>Node15&#45;&gt;Node16</title>
<path fill="none" stroke="midnightblue" d="M843.11,-123.4C874.9,-113.12 917.47,-99.35 947.37,-89.68"/>
<polygon fill="midnightblue" stroke="midnightblue" points="948.56,-92.98 956.99,-86.57 946.4,-86.32 948.56,-92.98"/>
</g>
<!-- Node16&#45;&gt;Node9 -->
<g id="edge19" class="edge">
<title>Node16&#45;&gt;Node9</title>
<path fill="none" stroke="midnightblue" d="M957.14,-67.48C930,-58.7 886.98,-44.79 852.73,-33.71"/>
<polygon fill="midnightblue" stroke="midnightblue" points="853.46,-30.27 842.87,-30.52 851.3,-36.93 853.46,-30.27"/>
</g>
<!-- Node17&#45;&gt;Node11 -->
<g id="edge21" class="edge">
<title>Node17&#45;&gt;Node11</title>
<path fill="none" stroke="midnightblue" d="M1216.1,-262.87C1193.89,-251.84 1155.21,-232.66 1129.24,-219.77"/>
<polygon fill="midnightblue" stroke="midnightblue" points="1130.48,-216.48 1119.97,-215.17 1127.37,-222.75 1130.48,-216.48"/>
</g>
<!-- Node17&#45;&gt;Node16 -->
<g id="edge23" class="edge">
<title>Node17&#45;&gt;Node16</title>
<path fill="none" stroke="midnightblue" d="M1223.77,-262.95C1206.49,-247.86 1169.2,-215.66 1136.5,-190 1090.26,-153.72 1034.11,-113.57 1004.35,-92.59"/>
<polygon fill="midnightblue" stroke="midnightblue" points="1006.2,-89.61 996,-86.73 1002.17,-95.34 1006.2,-89.61"/>
</g>
<!-- Node18 -->
<g id="node18" class="node">
<title>Node18</title>
<g id="a_node18"><a xlink:title=" ">
<polygon fill="white" stroke="#bfbfbf" points="1205.5,-196 1205.5,-215 1261.5,-215 1261.5,-196 1205.5,-196"/>
<text text-anchor="middle" x="1233.5" y="-203" font-family="Helvetica,sans-Serif" font-size="10.00">stdarg.h</text>
</a>
</g>
</g>
<!-- Node17&#45;&gt;Node18 -->
<g id="edge22" class="edge">
<title>Node17&#45;&gt;Node18</title>
<path fill="none" stroke="midnightblue" d="M1233.5,-262.73C1233.5,-253.18 1233.5,-237.62 1233.5,-225.28"/>
<polygon fill="midnightblue" stroke="midnightblue" points="1237,-225.13 1233.5,-215.13 1230,-225.13 1237,-225.13"/>
</g>
<!-- Node21&#45;&gt;Node16 -->
<g id="edge27" class="edge">
<title>Node21&#45;&gt;Node16</title>
<path fill="none" stroke="midnightblue" d="M983.5,-257.27C983.5,-222.94 983.5,-135.57 983.5,-96.9"/>
<polygon fill="midnightblue" stroke="midnightblue" points="987,-96.58 983.5,-86.58 980,-96.58 987,-96.58"/>
</g>
<!-- Node25&#45;&gt;Node12 -->
<g id="edge34" class="edge">
<title>Node25&#45;&gt;Node12</title>
<path fill="none" stroke="midnightblue" d="M413.13,-380.3C384.76,-368.84 344,-347.37 362.5,-324 379.22,-302.87 442.56,-289.69 496.03,-282.12"/>
<polygon fill="midnightblue" stroke="midnightblue" points="496.8,-285.54 506.23,-280.72 495.85,-278.61 496.8,-285.54"/>
</g>
<!-- Node25&#45;&gt;Node20 -->
<g id="edge35" class="edge">
<title>Node25&#45;&gt;Node20</title>
<path fill="none" stroke="midnightblue" d="M424.97,-380.47C407.44,-367.51 379.44,-342.44 395.5,-324 433.81,-280.02 599.57,-304.54 655.5,-288 657.38,-287.44 659.29,-286.79 661.19,-286.07"/>
<polygon fill="midnightblue" stroke="midnightblue" points="662.63,-289.27 670.45,-282.12 659.88,-282.83 662.63,-289.27"/>
</g>
<!-- Node26 -->
<g id="node26" class="node">
<title>Node26</title>
<g id="a_node26"><a xlink:title=" ">
<polygon fill="white" stroke="#bfbfbf" points="405,-324.5 405,-343.5 470,-343.5 470,-324.5 405,-324.5"/>
<text text-anchor="middle" x="437.5" y="-331.5" font-family="Helvetica,sans-Serif" font-size="10.00">stdexcept</text>
</a>
</g>
</g>
<!-- Node25&#45;&gt;Node26 -->
<g id="edge36" class="edge">
<title>Node25&#45;&gt;Node26</title>
<path fill="none" stroke="midnightblue" d="M437.5,-380.08C437.5,-373.01 437.5,-362.86 437.5,-353.99"/>
<polygon fill="midnightblue" stroke="midnightblue" points="441,-353.75 437.5,-343.75 434,-353.75 441,-353.75"/>
</g>
<!-- Node27&#45;&gt;Node8 -->
<g id="edge38" class="edge">
<title>Node27&#45;&gt;Node8</title>
<path fill="none" stroke="midnightblue" d="M663.43,-380.3C679.57,-367.56 710.85,-343.24 738.5,-324 757.04,-311.1 778.69,-297.34 794.64,-287.45"/>
<polygon fill="midnightblue" stroke="midnightblue" points="796.62,-290.34 803.3,-282.11 792.95,-284.38 796.62,-290.34"/>
</g>
<!-- Node27&#45;&gt;Node12 -->
<g id="edge39" class="edge">
<title>Node27&#45;&gt;Node12</title>
<path fill="none" stroke="midnightblue" d="M580.36,-381.84C556.42,-375.63 532.16,-364.34 517.5,-344 502.65,-323.4 529.04,-301.18 551.15,-287.31"/>
<polygon fill="midnightblue" stroke="midnightblue" points="553.13,-290.2 559.93,-282.07 549.54,-284.19 553.13,-290.2"/>
</g>
<!-- Node27&#45;&gt;Node20 -->
<g id="edge41" class="edge">
<title>Node27&#45;&gt;Node20</title>
<path fill="none" stroke="midnightblue" d="M655.06,-380.32C660.54,-361.67 673.56,-317.44 681.02,-292.13"/>
<polygon fill="midnightblue" stroke="midnightblue" points="684.45,-292.86 683.91,-282.28 677.73,-290.89 684.45,-292.86"/>
</g>
<!-- Node27&#45;&gt;Node21 -->
<g id="edge40" class="edge">
<title>Node27&#45;&gt;Node21</title>
<path fill="none" stroke="midnightblue" d="M669.44,-380.45C686.88,-371.57 714.78,-357.17 738.5,-344 753.83,-335.49 756.24,-330.56 772.5,-324 809.86,-308.93 852.83,-297.64 890.2,-289.6"/>
<polygon fill="midnightblue" stroke="midnightblue" points="891.01,-293.01 900.07,-287.52 889.57,-286.16 891.01,-293.01"/>
</g>
<!-- Node27&#45;&gt;Node23 -->
<g id="edge42" class="edge">
<title>Node27&#45;&gt;Node23</title>
<path fill="none" stroke="midnightblue" d="M676.58,-380.44C702.04,-371.4 742.39,-357.06 770.96,-346.92"/>
<polygon fill="midnightblue" stroke="midnightblue" points="772.28,-350.16 780.53,-343.52 769.93,-343.57 772.28,-350.16"/>
</g>
<!-- Node27&#45;&gt;Node26 -->
<g id="edge43" class="edge">
<title>Node27&#45;&gt;Node26</title>
<path fill="none" stroke="midnightblue" d="M618.43,-380.44C580.88,-371.01 520.44,-355.83 479.86,-345.64"/>
<polygon fill="midnightblue" stroke="midnightblue" points="480.55,-342.2 470,-343.16 478.85,-348.99 480.55,-342.2"/>
</g>
<!-- Node28 -->
<g id="node28" class="node">
<title>Node28</title>
<g id="a_node28"><a xlink:href="_x_m_l_triple_8h.html" target="_top" xlink:title="Stores an XML namespace triple.">
<polygon fill="white" stroke="black" points="527,-324.5 527,-343.5 648,-343.5 648,-324.5 527,-324.5"/>
<text text-anchor="middle" x="587.5" y="-331.5" font-family="Helvetica,sans-Serif" font-size="10.00">sbml/xml/XMLTriple.h</text>
</a>
</g>
</g>
<!-- Node27&#45;&gt;Node28 -->
<g id="edge44" class="edge">
<title>Node27&#45;&gt;Node28</title>
<path fill="none" stroke="midnightblue" d="M642.06,-380.32C632.35,-372.26 617.68,-360.08 606,-350.37"/>
<polygon fill="midnightblue" stroke="midnightblue" points="608.06,-347.53 598.13,-343.83 603.59,-352.92 608.06,-347.53"/>
</g>
<!-- Node28&#45;&gt;Node8 -->
<g id="edge45" class="edge">
<title>Node28&#45;&gt;Node8</title>
<path fill="none" stroke="midnightblue" d="M620.45,-324.48C661.1,-313.96 730.29,-296.06 774.92,-284.51"/>
<polygon fill="midnightblue" stroke="midnightblue" points="775.8,-287.9 784.61,-282.01 774.05,-281.13 775.8,-287.9"/>
</g>
<!-- Node28&#45;&gt;Node12 -->
<g id="edge46" class="edge">
<title>Node28&#45;&gt;Node12</title>
<path fill="none" stroke="midnightblue" d="M585.92,-324.48C584.37,-316.08 581.95,-302.98 579.95,-292.16"/>
<polygon fill="midnightblue" stroke="midnightblue" points="583.33,-291.21 578.07,-282.01 576.45,-292.48 583.33,-291.21"/>
</g>
<!-- Node28&#45;&gt;Node20 -->
<g id="edge47" class="edge">
<title>Node28&#45;&gt;Node20</title>
<path fill="none" stroke="midnightblue" d="M601.68,-324.48C617.86,-314.75 644.53,-298.73 663.64,-287.24"/>
<polygon fill="midnightblue" stroke="midnightblue" points="665.57,-290.16 672.34,-282.01 661.97,-284.16 665.57,-290.16"/>
</g>
</g>
</svg>
