<?xml version="1.0" encoding="UTF-8" standalone="no"?>
<!DOCTYPE svg PUBLIC "-//W3C//DTD SVG 1.1//EN"
 "http://www.w3.org/Graphics/SVG/1.1/DTD/svg11.dtd">
<!-- Generated by graphviz version 2.43.0 (0)
 -->
<!-- Title: XMLError.cpp Pages: 1 -->
<!--zoomable 520 -->
<svg id="main" version="1.1" xmlns="http://www.w3.org/2000/svg" xmlns:xlink="http://www.w3.org/1999/xlink" xml:space="preserve" onload="init(evt)">
<style type="text/css"><![CDATA[
.edge:hover path { stroke: red; }
.edge:hover polygon { stroke: red; fill: red; }
]]></style>
<script type="text/javascript"><![CDATA[
var edges = document.getElementsByTagName('g');
if (edges && edges.length) {
  for (var i=0;i<edges.length;i++) {
    if (edges[i].id.substr(0,4)=='edge') {
      edges[i].setAttribute('class','edge');
    }
  }
}
]]></script>
        <defs>
                <circle id="rim" cx="0" cy="0" r="7"/>
                <circle id="rim2" cx="0" cy="0" r="3.5"/>
                <g id="zoomPlus">
                        <use xlink:href="#rim" fill="#404040">
                                <set attributeName="fill" to="#808080" begin="zoomplus.mouseover" end="zoomplus.mouseout"/>
                        </use>
                        <path d="M-4,0h8M0,-4v8" fill="none" stroke="white" stroke-width="1.5" pointer-events="none"/>
                </g>
                <g id="zoomMin">
                        <use xlink:href="#rim" fill="#404040">
                                <set attributeName="fill" to="#808080" begin="zoomminus.mouseover" end="zoomminus.mouseout"/>
                        </use>
                        <path d="M-4,0h8" fill="none" stroke="white" stroke-width="1.5" pointer-events="none"/>
                </g>
                <g id="dirArrow">
                        <path fill="none" stroke="white" stroke-width="1.5" d="M0,-3.0v7 M-2.5,-0.5L0,-3.0L2.5,-0.5"/>
                </g>
               <g id="resetDef">
                       <use xlink:href="#rim2" fill="#404040">
                               <set attributeName="fill" to="#808080" begin="reset.mouseover" end="reset.mouseout"/>
                       </use>
               </g>
        </defs>

<script type="text/javascript">
var viewWidth = 1150;
var viewHeight = 520;
var sectionId = 'dynsection-0';
</script>
<script xlink:href="svgpan.js"/>
<svg id="graph" class="graph">
<g id="viewport">
<title>XMLError.cpp</title>
<polygon fill="white" stroke="transparent" points="-4,4 -4,-516 1145.5,-516 1145.5,4 -4,4"/>
<!-- Node1 -->
<g id="node1" class="node">
<title>Node1</title>
<g id="a_node1"><a xlink:title="Represents errors (and messages) encountered during an XML parse.">
<polygon fill="#bfbfbf" stroke="black" points="235,-492.5 235,-511.5 315,-511.5 315,-492.5 235,-492.5"/>
<text text-anchor="middle" x="275" y="-499.5" font-family="Helvetica,sans-Serif" font-size="10.00">XMLError.cpp</text>
</a>
</g>
</g>
<!-- Node2 -->
<g id="node2" class="node">
<title>Node2</title>
<g id="a_node2"><a xlink:title=" ">
<polygon fill="white" stroke="#bfbfbf" points="0,-436.5 0,-455.5 60,-455.5 60,-436.5 0,-436.5"/>
<text text-anchor="middle" x="30" y="-443.5" font-family="Helvetica,sans-Serif" font-size="10.00">iostream</text>
</a>
</g>
</g>
<!-- Node1&#45;&gt;Node2 -->
<g id="edge1" class="edge">
<title>Node1&#45;&gt;Node2</title>
<path fill="none" stroke="midnightblue" d="M235.09,-492.43C195.68,-483.93 133.41,-470.42 70.35,-456.28"/>
<polygon fill="midnightblue" stroke="midnightblue" points="70.75,-452.79 60.23,-454.01 69.22,-459.62 70.75,-452.79"/>
</g>
<!-- Node3 -->
<g id="node3" class="node">
<title>Node3</title>
<g id="a_node3"><a xlink:title=" ">
<polygon fill="white" stroke="#bfbfbf" points="78,-436.5 78,-455.5 134,-455.5 134,-436.5 78,-436.5"/>
<text text-anchor="middle" x="106" y="-443.5" font-family="Helvetica,sans-Serif" font-size="10.00">iomanip</text>
</a>
</g>
</g>
<!-- Node1&#45;&gt;Node3 -->
<g id="edge2" class="edge">
<title>Node1&#45;&gt;Node3</title>
<path fill="none" stroke="midnightblue" d="M248.22,-492.44C219.67,-483.32 174.27,-468.81 142.46,-458.65"/>
<polygon fill="midnightblue" stroke="midnightblue" points="143.24,-455.23 132.65,-455.52 141.11,-461.89 143.24,-455.23"/>
</g>
<!-- Node4 -->
<g id="node4" class="node">
<title>Node4</title>
<g id="a_node4"><a xlink:title=" ">
<polygon fill="white" stroke="#bfbfbf" points="152,-436.5 152,-455.5 208,-455.5 208,-436.5 152,-436.5"/>
<text text-anchor="middle" x="180" y="-443.5" font-family="Helvetica,sans-Serif" font-size="10.00">sstream</text>
</a>
</g>
</g>
<!-- Node1&#45;&gt;Node4 -->
<g id="edge3" class="edge">
<title>Node1&#45;&gt;Node4</title>
<path fill="none" stroke="midnightblue" d="M259.74,-492.32C244.78,-483.82 221.75,-470.73 204.27,-460.8"/>
<polygon fill="midnightblue" stroke="midnightblue" points="205.65,-457.55 195.23,-455.65 202.19,-463.64 205.65,-457.55"/>
</g>
<!-- Node5 -->
<g id="node5" class="node">
<title>Node5</title>
<g id="a_node5"><a xlink:href="common_8h.html" target="_top" xlink:title="Common functions and macros for C and C++.">
<polygon fill="white" stroke="black" points="168.5,-324.5 168.5,-343.5 309.5,-343.5 309.5,-324.5 168.5,-324.5"/>
<text text-anchor="middle" x="239" y="-331.5" font-family="Helvetica,sans-Serif" font-size="10.00">sbml/common/common.h</text>
</a>
</g>
</g>
<!-- Node1&#45;&gt;Node5 -->
<g id="edge4" class="edge">
<title>Node1&#45;&gt;Node5</title>
<path fill="none" stroke="midnightblue" d="M270.24,-492.32C265.6,-483.45 258.71,-469.17 255,-456 245.07,-420.77 241.25,-377.99 239.82,-353.89"/>
<polygon fill="midnightblue" stroke="midnightblue" points="243.31,-353.49 239.3,-343.68 236.32,-353.85 243.31,-353.49"/>
</g>
<!-- Node15 -->
<g id="node15" class="node">
<title>Node15</title>
<g id="a_node15"><a xlink:href="_x_m_l_error_8h.html" target="_top" xlink:title="Represents errors (and messages) encountered during an XML parse.">
<polygon fill="white" stroke="black" points="333,-324.5 333,-343.5 451,-343.5 451,-324.5 333,-324.5"/>
<text text-anchor="middle" x="392" y="-331.5" font-family="Helvetica,sans-Serif" font-size="10.00">sbml/xml/XMLError.h</text>
</a>
</g>
</g>
<!-- Node1&#45;&gt;Node15 -->
<g id="edge18" class="edge">
<title>Node1&#45;&gt;Node15</title>
<path fill="none" stroke="midnightblue" d="M315.03,-492.82C336.15,-486.39 360.6,-475.19 375,-456 397.52,-425.98 397.04,-379.67 394.58,-353.92"/>
<polygon fill="midnightblue" stroke="midnightblue" points="398.02,-353.19 393.4,-343.66 391.07,-354 398.02,-353.19"/>
</g>
<!-- Node21 -->
<g id="node21" class="node">
<title>Node21</title>
<g id="a_node21"><a xlink:href="_x_m_l_attributes_8h.html" target="_top" xlink:title="XMLAttributes are a list of name/value pairs for XML elements.">
<polygon fill="white" stroke="black" points="855,-380.5 855,-399.5 999,-399.5 999,-380.5 855,-380.5"/>
<text text-anchor="middle" x="927" y="-387.5" font-family="Helvetica,sans-Serif" font-size="10.00">sbml/xml/XMLAttributes.h</text>
</a>
</g>
</g>
<!-- Node1&#45;&gt;Node21 -->
<g id="edge30" class="edge">
<title>Node1&#45;&gt;Node21</title>
<path fill="none" stroke="midnightblue" d="M315.29,-494.2C425.96,-475.53 735.09,-423.38 866.57,-401.2"/>
<polygon fill="midnightblue" stroke="midnightblue" points="867.2,-404.64 876.48,-399.52 866.04,-397.74 867.2,-404.64"/>
</g>
<!-- Node25 -->
<g id="node25" class="node">
<title>Node25</title>
<g id="a_node25"><a xlink:href="_x_m_l_constructor_exception_8h.html" target="_top" xlink:title="XMLConstructorException an exception thrown by XML classes.">
<polygon fill="white" stroke="black" points="583,-380.5 583,-399.5 783,-399.5 783,-380.5 583,-380.5"/>
<text text-anchor="middle" x="683" y="-387.5" font-family="Helvetica,sans-Serif" font-size="10.00">sbml/xml/XMLConstructorException.h</text>
</a>
</g>
</g>
<!-- Node1&#45;&gt;Node25 -->
<g id="edge41" class="edge">
<title>Node1&#45;&gt;Node25</title>
<path fill="none" stroke="midnightblue" d="M306.68,-492.46C379.74,-472.76 560.03,-424.15 641.66,-402.15"/>
<polygon fill="midnightblue" stroke="midnightblue" points="642.6,-405.52 651.34,-399.53 640.78,-398.76 642.6,-405.52"/>
</g>
<!-- Node26 -->
<g id="node26" class="node">
<title>Node26</title>
<g id="a_node26"><a xlink:href="_s_b_m_l_error_8h.html" target="_top" xlink:title="Represents SBML errors and other diagnostics.">
<polygon fill="white" stroke="black" points="264,-436.5 264,-455.5 366,-455.5 366,-436.5 264,-436.5"/>
<text text-anchor="middle" x="315" y="-443.5" font-family="Helvetica,sans-Serif" font-size="10.00">sbml/SBMLError.h</text>
</a>
</g>
</g>
<!-- Node1&#45;&gt;Node26 -->
<g id="edge45" class="edge">
<title>Node1&#45;&gt;Node26</title>
<path fill="none" stroke="midnightblue" d="M281.61,-492.08C287.26,-484.46 295.54,-473.26 302.45,-463.94"/>
<polygon fill="midnightblue" stroke="midnightblue" points="305.38,-465.87 308.52,-455.75 299.75,-461.7 305.38,-465.87"/>
</g>
<!-- Node6 -->
<g id="node6" class="node">
<title>Node6</title>
<g id="a_node6"><a xlink:href="libsbml-config_8h.html" target="_top" xlink:title="Decides whether to #include Unix or Windows configuration variables.">
<polygon fill="white" stroke="black" points="489.5,-190.5 489.5,-220.5 614.5,-220.5 614.5,-190.5 489.5,-190.5"/>
<text text-anchor="start" x="497.5" y="-208.5" font-family="Helvetica,sans-Serif" font-size="10.00">sbml/common/libsbml</text>
<text text-anchor="middle" x="552" y="-197.5" font-family="Helvetica,sans-Serif" font-size="10.00">&#45;config.h</text>
</a>
</g>
</g>
<!-- Node5&#45;&gt;Node6 -->
<g id="edge5" class="edge">
<title>Node5&#45;&gt;Node6</title>
<path fill="none" stroke="midnightblue" d="M290.59,-324.46C323.71,-317.62 366.92,-306.12 402,-288 421.36,-278 421.46,-268.47 440,-257 460.36,-244.41 484.39,-233.15 504.96,-224.48"/>
<polygon fill="midnightblue" stroke="midnightblue" points="506.55,-227.61 514.45,-220.56 503.87,-221.14 506.55,-227.61"/>
</g>
<!-- Node10 -->
<g id="node10" class="node">
<title>Node10</title>
<g id="a_node10"><a xlink:href="extern_8h.html" target="_top" xlink:title="Definitions of LIBSBML_EXTERN and related things.">
<polygon fill="white" stroke="black" points="299,-67.5 299,-86.5 429,-86.5 429,-67.5 299,-67.5"/>
<text text-anchor="middle" x="364" y="-74.5" font-family="Helvetica,sans-Serif" font-size="10.00">sbml/common/extern.h</text>
</a>
</g>
</g>
<!-- Node5&#45;&gt;Node10 -->
<g id="edge12" class="edge">
<title>Node5&#45;&gt;Node10</title>
<path fill="none" stroke="midnightblue" d="M235.85,-324.42C227.92,-301.36 209.29,-236.67 231,-190 252.79,-143.17 304.87,-108.9 337.01,-91.33"/>
<polygon fill="midnightblue" stroke="midnightblue" points="338.7,-94.39 345.9,-86.62 335.43,-88.21 338.7,-94.39"/>
</g>
<!-- Node11 -->
<g id="node11" class="node">
<title>Node11</title>
<g id="a_node11"><a xlink:title=" ">
<polygon fill="white" stroke="#bfbfbf" points="240,-196 240,-215 290,-215 290,-196 240,-196"/>
<text text-anchor="middle" x="265" y="-203" font-family="Helvetica,sans-Serif" font-size="10.00">stdio.h</text>
</a>
</g>
</g>
<!-- Node5&#45;&gt;Node11 -->
<g id="edge11" class="edge">
<title>Node5&#45;&gt;Node11</title>
<path fill="none" stroke="midnightblue" d="M240.79,-324.31C244.96,-303.99 255.43,-253.05 261.14,-225.28"/>
<polygon fill="midnightblue" stroke="midnightblue" points="264.62,-225.76 263.2,-215.26 257.76,-224.35 264.62,-225.76"/>
</g>
<!-- Node12 -->
<g id="node12" class="node">
<title>Node12</title>
<g id="a_node12"><a xlink:href="memory_8h.html" target="_top" xlink:title=" ">
<polygon fill="white" stroke="black" points="61.5,-263 61.5,-282 172.5,-282 172.5,-263 61.5,-263"/>
<text text-anchor="middle" x="117" y="-270" font-family="Helvetica,sans-Serif" font-size="10.00">sbml/util/memory.h</text>
</a>
</g>
</g>
<!-- Node5&#45;&gt;Node12 -->
<g id="edge13" class="edge">
<title>Node5&#45;&gt;Node12</title>
<path fill="none" stroke="midnightblue" d="M221.52,-324.48C201.14,-314.53 167.22,-297.99 143.58,-286.46"/>
<polygon fill="midnightblue" stroke="midnightblue" points="144.97,-283.25 134.45,-282.01 141.9,-289.54 144.97,-283.25"/>
</g>
<!-- Node13 -->
<g id="node13" class="node">
<title>Node13</title>
<g id="a_node13"><a xlink:href="util_8h.html" target="_top" xlink:title="Utility functions.">
<polygon fill="white" stroke="black" points="305.5,-263 305.5,-282 392.5,-282 392.5,-263 305.5,-263"/>
<text text-anchor="middle" x="349" y="-270" font-family="Helvetica,sans-Serif" font-size="10.00">sbml/util/util.h</text>
</a>
</g>
</g>
<!-- Node5&#45;&gt;Node13 -->
<g id="edge14" class="edge">
<title>Node5&#45;&gt;Node13</title>
<path fill="none" stroke="midnightblue" d="M254.76,-324.48C272.98,-314.62 303.17,-298.29 324.47,-286.77"/>
<polygon fill="midnightblue" stroke="midnightblue" points="326.14,-289.85 333.27,-282.01 322.81,-283.69 326.14,-289.85"/>
</g>
<!-- Node7 -->
<g id="node7" class="node">
<title>Node7</title>
<g id="a_node7"><a xlink:title=" ">
<polygon fill="white" stroke="#bfbfbf" points="708.5,-0.5 708.5,-30.5 833.5,-30.5 833.5,-0.5 708.5,-0.5"/>
<text text-anchor="start" x="716.5" y="-18.5" font-family="Helvetica,sans-Serif" font-size="10.00">sbml/common/libsbml</text>
<text text-anchor="middle" x="771" y="-7.5" font-family="Helvetica,sans-Serif" font-size="10.00">&#45;namespace.h</text>
</a>
</g>
</g>
<!-- Node6&#45;&gt;Node7 -->
<g id="edge6" class="edge">
<title>Node6&#45;&gt;Node7</title>
<path fill="none" stroke="midnightblue" d="M573.68,-190.45C588.28,-180.72 607.76,-167.18 624,-154 671.12,-115.75 721.96,-66.12 749.79,-38.15"/>
<polygon fill="midnightblue" stroke="midnightblue" points="752.46,-40.43 757.01,-30.86 747.48,-35.5 752.46,-40.43"/>
</g>
<!-- Node8 -->
<g id="node8" class="node">
<title>Node8</title>
<g id="a_node8"><a xlink:title=" ">
<polygon fill="white" stroke="#bfbfbf" points="489.5,-123.5 489.5,-153.5 614.5,-153.5 614.5,-123.5 489.5,-123.5"/>
<text text-anchor="start" x="497.5" y="-141.5" font-family="Helvetica,sans-Serif" font-size="10.00">sbml/common/libsbml</text>
<text text-anchor="middle" x="552" y="-130.5" font-family="Helvetica,sans-Serif" font-size="10.00">&#45;config&#45;common.h</text>
</a>
</g>
</g>
<!-- Node6&#45;&gt;Node8 -->
<g id="edge7" class="edge">
<title>Node6&#45;&gt;Node8</title>
<path fill="none" stroke="midnightblue" d="M552,-190.4C552,-182.64 552,-172.81 552,-163.86"/>
<polygon fill="midnightblue" stroke="midnightblue" points="555.5,-163.58 552,-153.58 548.5,-163.58 555.5,-163.58"/>
</g>
<!-- Node9 -->
<g id="node9" class="node">
<title>Node9</title>
<g id="a_node9"><a xlink:href="libsbml-version_8h.html" target="_top" xlink:title="Define libSBML version numbers for access from client software.">
<polygon fill="white" stroke="black" points="346.5,-123.5 346.5,-153.5 471.5,-153.5 471.5,-123.5 346.5,-123.5"/>
<text text-anchor="start" x="354.5" y="-141.5" font-family="Helvetica,sans-Serif" font-size="10.00">sbml/common/libsbml</text>
<text text-anchor="middle" x="409" y="-130.5" font-family="Helvetica,sans-Serif" font-size="10.00">&#45;version.h</text>
</a>
</g>
</g>
<!-- Node6&#45;&gt;Node9 -->
<g id="edge8" class="edge">
<title>Node6&#45;&gt;Node9</title>
<path fill="none" stroke="midnightblue" d="M520.97,-190.4C499.98,-180.86 472.06,-168.16 449.35,-157.84"/>
<polygon fill="midnightblue" stroke="midnightblue" points="450.52,-154.53 439.97,-153.58 447.62,-160.9 450.52,-154.53"/>
</g>
<!-- Node9&#45;&gt;Node10 -->
<g id="edge9" class="edge">
<title>Node9&#45;&gt;Node10</title>
<path fill="none" stroke="midnightblue" d="M398.34,-123.4C391.86,-114.84 383.57,-103.87 376.75,-94.86"/>
<polygon fill="midnightblue" stroke="midnightblue" points="379.37,-92.52 370.55,-86.66 373.79,-96.74 379.37,-92.52"/>
</g>
<!-- Node10&#45;&gt;Node7 -->
<g id="edge10" class="edge">
<title>Node10&#45;&gt;Node7</title>
<path fill="none" stroke="midnightblue" d="M422.31,-67.48C494.99,-56.85 619.22,-38.69 698.11,-27.16"/>
<polygon fill="midnightblue" stroke="midnightblue" points="699.06,-30.55 708.45,-25.64 698.05,-23.63 699.06,-30.55"/>
</g>
<!-- Node13&#45;&gt;Node10 -->
<g id="edge17" class="edge">
<title>Node13&#45;&gt;Node10</title>
<path fill="none" stroke="midnightblue" d="M346.38,-262.93C339.74,-239.84 323.76,-174.58 338,-123 340.73,-113.12 346.15,-103.15 351.34,-95.12"/>
<polygon fill="midnightblue" stroke="midnightblue" points="354.36,-96.91 357.15,-86.69 348.6,-92.94 354.36,-96.91"/>
</g>
<!-- Node13&#45;&gt;Node11 -->
<g id="edge15" class="edge">
<title>Node13&#45;&gt;Node11</title>
<path fill="none" stroke="midnightblue" d="M337.67,-262.73C323.94,-252.11 300.6,-234.05 284.08,-221.26"/>
<polygon fill="midnightblue" stroke="midnightblue" points="286.2,-218.48 276.15,-215.13 281.92,-224.02 286.2,-218.48"/>
</g>
<!-- Node14 -->
<g id="node14" class="node">
<title>Node14</title>
<g id="a_node14"><a xlink:title=" ">
<polygon fill="white" stroke="#bfbfbf" points="346,-196 346,-215 402,-215 402,-196 346,-196"/>
<text text-anchor="middle" x="374" y="-203" font-family="Helvetica,sans-Serif" font-size="10.00">stdarg.h</text>
</a>
</g>
</g>
<!-- Node13&#45;&gt;Node14 -->
<g id="edge16" class="edge">
<title>Node13&#45;&gt;Node14</title>
<path fill="none" stroke="midnightblue" d="M352.37,-262.73C356.12,-252.99 362.28,-236.98 367.06,-224.53"/>
<polygon fill="midnightblue" stroke="midnightblue" points="370.36,-225.72 370.68,-215.13 363.83,-223.2 370.36,-225.72"/>
</g>
<!-- Node15&#45;&gt;Node11 -->
<g id="edge19" class="edge">
<title>Node15&#45;&gt;Node11</title>
<path fill="none" stroke="midnightblue" d="M358.8,-324.4C338.29,-317.56 312.78,-306.08 296,-288 279.63,-270.35 271.64,-243.19 267.93,-225.14"/>
<polygon fill="midnightblue" stroke="midnightblue" points="271.36,-224.46 266.14,-215.24 264.47,-225.7 271.36,-224.46"/>
</g>
<!-- Node15&#45;&gt;Node13 -->
<g id="edge25" class="edge">
<title>Node15&#45;&gt;Node13</title>
<path fill="none" stroke="midnightblue" d="M385.84,-324.48C379.39,-315.55 369.1,-301.31 361.03,-290.14"/>
<polygon fill="midnightblue" stroke="midnightblue" points="363.84,-288.06 355.15,-282.01 358.17,-292.16 363.84,-288.06"/>
</g>
<!-- Node16 -->
<g id="node16" class="node">
<title>Node16</title>
<g id="a_node16"><a xlink:href="_x_m_l_extern_8h.html" target="_top" xlink:title="Defines LIBLAX_EXTERN.">
<polygon fill="white" stroke="black" points="921.5,-263 921.5,-282 1048.5,-282 1048.5,-263 921.5,-263"/>
<text text-anchor="middle" x="985" y="-270" font-family="Helvetica,sans-Serif" font-size="10.00">sbml/xml/XMLExtern.h</text>
</a>
</g>
</g>
<!-- Node15&#45;&gt;Node16 -->
<g id="edge20" class="edge">
<title>Node15&#45;&gt;Node16</title>
<path fill="none" stroke="midnightblue" d="M451.13,-327.97C585.03,-316.56 900.7,-289.61 912,-288 919.83,-286.89 928.08,-285.48 936.11,-283.98"/>
<polygon fill="midnightblue" stroke="midnightblue" points="936.96,-287.38 946.11,-282.05 935.63,-280.51 936.96,-287.38"/>
</g>
<!-- Node17 -->
<g id="node17" class="node">
<title>Node17</title>
<g id="a_node17"><a xlink:href="sbmlfwd_8h.html" target="_top" xlink:title="Forward declarations for all opaque C types.">
<polygon fill="white" stroke="black" points="763,-263 763,-282 903,-282 903,-263 763,-263"/>
<text text-anchor="middle" x="833" y="-270" font-family="Helvetica,sans-Serif" font-size="10.00">sbml/common/sbmlfwd.h</text>
</a>
</g>
</g>
<!-- Node15&#45;&gt;Node17 -->
<g id="edge22" class="edge">
<title>Node15&#45;&gt;Node17</title>
<path fill="none" stroke="midnightblue" d="M451.08,-326.72C522.87,-318.84 647.59,-304.37 754,-288 762.13,-286.75 770.71,-285.3 779.1,-283.82"/>
<polygon fill="midnightblue" stroke="midnightblue" points="779.98,-287.22 789.2,-282.01 778.74,-280.33 779.98,-287.22"/>
</g>
<!-- Node18 -->
<g id="node18" class="node">
<title>Node18</title>
<g id="a_node18"><a xlink:title=" ">
<polygon fill="white" stroke="#bfbfbf" points="449,-263 449,-282 497,-282 497,-263 449,-263"/>
<text text-anchor="middle" x="473" y="-270" font-family="Helvetica,sans-Serif" font-size="10.00">iosfwd</text>
</a>
</g>
</g>
<!-- Node15&#45;&gt;Node18 -->
<g id="edge26" class="edge">
<title>Node15&#45;&gt;Node18</title>
<path fill="none" stroke="midnightblue" d="M403.61,-324.48C416.48,-315.02 437.47,-299.6 453.01,-288.19"/>
<polygon fill="midnightblue" stroke="midnightblue" points="455.43,-290.75 461.42,-282.01 451.28,-285.11 455.43,-290.75"/>
</g>
<!-- Node19 -->
<g id="node19" class="node">
<title>Node19</title>
<g id="a_node19"><a xlink:title=" ">
<polygon fill="white" stroke="#bfbfbf" points="701,-263 701,-282 745,-282 745,-263 701,-263"/>
<text text-anchor="middle" x="723" y="-270" font-family="Helvetica,sans-Serif" font-size="10.00">string</text>
</a>
</g>
</g>
<!-- Node15&#45;&gt;Node19 -->
<g id="edge27" class="edge">
<title>Node15&#45;&gt;Node19</title>
<path fill="none" stroke="midnightblue" d="M451.31,-325.04C532.14,-314.04 669.47,-294.8 692,-288 693.88,-287.43 695.79,-286.77 697.69,-286.05"/>
<polygon fill="midnightblue" stroke="midnightblue" points="699.12,-289.24 706.94,-282.09 696.37,-282.81 699.12,-289.24"/>
</g>
<!-- Node20 -->
<g id="node20" class="node">
<title>Node20</title>
<g id="a_node20"><a xlink:href="operation_return_values_8h.html" target="_top" xlink:title="Enumeration of values returned by operations within libSBML.">
<polygon fill="white" stroke="black" points="515,-257.5 515,-287.5 683,-287.5 683,-257.5 515,-257.5"/>
<text text-anchor="start" x="523" y="-275.5" font-family="Helvetica,sans-Serif" font-size="10.00">sbml/common/operationReturn</text>
<text text-anchor="middle" x="599" y="-264.5" font-family="Helvetica,sans-Serif" font-size="10.00">Values.h</text>
</a>
</g>
</g>
<!-- Node15&#45;&gt;Node20 -->
<g id="edge28" class="edge">
<title>Node15&#45;&gt;Node20</title>
<path fill="none" stroke="midnightblue" d="M421.66,-324.48C452.58,-315.59 501.84,-301.43 540.6,-290.29"/>
<polygon fill="midnightblue" stroke="midnightblue" points="541.57,-293.65 550.21,-287.52 539.64,-286.92 541.57,-293.65"/>
</g>
<!-- Node16&#45;&gt;Node7 -->
<g id="edge21" class="edge">
<title>Node16&#45;&gt;Node7</title>
<path fill="none" stroke="midnightblue" d="M977.63,-262.72C947.64,-226.98 834.15,-91.74 789.35,-38.36"/>
<polygon fill="midnightblue" stroke="midnightblue" points="791.88,-35.94 782.77,-30.53 786.52,-40.44 791.88,-35.94"/>
</g>
<!-- Node17&#45;&gt;Node6 -->
<g id="edge24" class="edge">
<title>Node17&#45;&gt;Node6</title>
<path fill="none" stroke="midnightblue" d="M795.98,-262.94C752.06,-252.78 677.89,-235.62 622.83,-222.88"/>
<polygon fill="midnightblue" stroke="midnightblue" points="623.31,-219.4 612.78,-220.56 621.73,-226.22 623.31,-219.4"/>
</g>
<!-- Node17&#45;&gt;Node7 -->
<g id="edge23" class="edge">
<title>Node17&#45;&gt;Node7</title>
<path fill="none" stroke="midnightblue" d="M830.87,-262.72C822.28,-227.42 790.1,-95.07 776.81,-40.38"/>
<polygon fill="midnightblue" stroke="midnightblue" points="780.17,-39.42 774.41,-30.53 773.37,-41.07 780.17,-39.42"/>
</g>
<!-- Node20&#45;&gt;Node10 -->
<g id="edge29" class="edge">
<title>Node20&#45;&gt;Node10</title>
<path fill="none" stroke="midnightblue" d="M607.91,-257.31C624.81,-228.42 657,-162.2 624,-123 600.74,-95.37 507.52,-84.71 439.33,-80.59"/>
<polygon fill="midnightblue" stroke="midnightblue" points="439.22,-77.08 429.04,-80.01 438.83,-84.07 439.22,-77.08"/>
</g>
<!-- Node21&#45;&gt;Node16 -->
<g id="edge31" class="edge">
<title>Node21&#45;&gt;Node16</title>
<path fill="none" stroke="midnightblue" d="M980.99,-380.48C1020.96,-372.94 1070.54,-360.56 1083,-344 1102.75,-317.74 1061.57,-297.21 1026.67,-285.23"/>
<polygon fill="midnightblue" stroke="midnightblue" points="1027.64,-281.87 1017.05,-282.08 1025.46,-288.52 1027.64,-281.87"/>
</g>
<!-- Node21&#45;&gt;Node17 -->
<g id="edge32" class="edge">
<title>Node21&#45;&gt;Node17</title>
<path fill="none" stroke="midnightblue" d="M979.78,-380.41C1022.95,-371.08 1073.35,-353.41 1050,-324 1044.82,-317.48 948.46,-296.89 885.91,-284.1"/>
<polygon fill="midnightblue" stroke="midnightblue" points="886.29,-280.61 875.8,-282.04 884.9,-287.47 886.29,-280.61"/>
</g>
<!-- Node21&#45;&gt;Node19 -->
<g id="edge34" class="edge">
<title>Node21&#45;&gt;Node19</title>
<path fill="none" stroke="midnightblue" d="M854.85,-384.75C794.76,-379.52 715.91,-368.16 696,-344 682.92,-328.13 696.02,-305.22 708.12,-289.87"/>
<polygon fill="midnightblue" stroke="midnightblue" points="710.81,-292.12 714.57,-282.21 705.45,-287.61 710.81,-292.12"/>
</g>
<!-- Node21&#45;&gt;Node20 -->
<g id="edge33" class="edge">
<title>Node21&#45;&gt;Node20</title>
<path fill="none" stroke="midnightblue" d="M854.85,-384.86C805.43,-379.83 739.42,-368.68 686,-344 660.37,-332.16 635.82,-311.06 619.37,-295.02"/>
<polygon fill="midnightblue" stroke="midnightblue" points="621.52,-292.22 611.98,-287.62 616.57,-297.17 621.52,-292.22"/>
</g>
<!-- Node22 -->
<g id="node22" class="node">
<title>Node22</title>
<g id="a_node22"><a xlink:title=" ">
<polygon fill="white" stroke="#bfbfbf" points="1094.5,-263 1094.5,-282 1141.5,-282 1141.5,-263 1094.5,-263"/>
<text text-anchor="middle" x="1118" y="-270" font-family="Helvetica,sans-Serif" font-size="10.00">vector</text>
</a>
</g>
</g>
<!-- Node21&#45;&gt;Node22 -->
<g id="edge35" class="edge">
<title>Node21&#45;&gt;Node22</title>
<path fill="none" stroke="midnightblue" d="M999.23,-386.43C1033.61,-381.52 1072.82,-369.99 1099,-344 1112.61,-330.49 1116.77,-308.33 1117.9,-292.46"/>
<polygon fill="midnightblue" stroke="midnightblue" points="1121.4,-292.35 1118.27,-282.23 1114.41,-292.09 1121.4,-292.35"/>
</g>
<!-- Node23 -->
<g id="node23" class="node">
<title>Node23</title>
<g id="a_node23"><a xlink:title=" ">
<polygon fill="white" stroke="#bfbfbf" points="507.5,-324.5 507.5,-343.5 572.5,-343.5 572.5,-324.5 507.5,-324.5"/>
<text text-anchor="middle" x="540" y="-331.5" font-family="Helvetica,sans-Serif" font-size="10.00">stdexcept</text>
</a>
</g>
</g>
<!-- Node21&#45;&gt;Node23 -->
<g id="edge36" class="edge">
<title>Node21&#45;&gt;Node23</title>
<path fill="none" stroke="midnightblue" d="M854.86,-380.67C785.91,-372.43 679.13,-358.91 587,-344 585.54,-343.76 584.05,-343.52 582.56,-343.26"/>
<polygon fill="midnightblue" stroke="midnightblue" points="583.03,-339.79 572.57,-341.49 581.81,-346.68 583.03,-339.79"/>
</g>
<!-- Node24 -->
<g id="node24" class="node">
<title>Node24</title>
<g id="a_node24"><a xlink:href="_x_m_l_triple_8h.html" target="_top" xlink:title="Stores an XML namespace triple.">
<polygon fill="white" stroke="black" points="919.5,-324.5 919.5,-343.5 1040.5,-343.5 1040.5,-324.5 919.5,-324.5"/>
<text text-anchor="middle" x="980" y="-331.5" font-family="Helvetica,sans-Serif" font-size="10.00">sbml/xml/XMLTriple.h</text>
</a>
</g>
</g>
<!-- Node21&#45;&gt;Node24 -->
<g id="edge37" class="edge">
<title>Node21&#45;&gt;Node24</title>
<path fill="none" stroke="midnightblue" d="M935.75,-380.08C943.47,-372.22 954.9,-360.57 964.22,-351.08"/>
<polygon fill="midnightblue" stroke="midnightblue" points="966.9,-353.34 971.41,-343.75 961.91,-348.44 966.9,-353.34"/>
</g>
<!-- Node24&#45;&gt;Node16 -->
<g id="edge38" class="edge">
<title>Node24&#45;&gt;Node16</title>
<path fill="none" stroke="midnightblue" d="M980.72,-324.48C981.42,-316.08 982.52,-302.98 983.43,-292.16"/>
<polygon fill="midnightblue" stroke="midnightblue" points="986.94,-292.27 984.28,-282.01 979.96,-291.68 986.94,-292.27"/>
</g>
<!-- Node24&#45;&gt;Node17 -->
<g id="edge39" class="edge">
<title>Node24&#45;&gt;Node17</title>
<path fill="none" stroke="midnightblue" d="M958.94,-324.48C933.94,-314.36 892.06,-297.4 863.51,-285.85"/>
<polygon fill="midnightblue" stroke="midnightblue" points="864.61,-282.52 854.02,-282.01 861.98,-289.01 864.61,-282.52"/>
</g>
<!-- Node24&#45;&gt;Node19 -->
<g id="edge40" class="edge">
<title>Node24&#45;&gt;Node19</title>
<path fill="none" stroke="midnightblue" d="M919.03,-324.94C872.95,-317.87 808.55,-305.9 754,-288 752.33,-287.45 750.63,-286.84 748.94,-286.18"/>
<polygon fill="midnightblue" stroke="midnightblue" points="750,-282.83 739.43,-282.08 747.23,-289.25 750,-282.83"/>
</g>
<!-- Node25&#45;&gt;Node17 -->
<g id="edge42" class="edge">
<title>Node25&#45;&gt;Node17</title>
<path fill="none" stroke="midnightblue" d="M759.28,-380.47C805.33,-373.57 857.78,-362 872,-344 885.66,-326.71 867.74,-304 851.93,-289.09"/>
<polygon fill="midnightblue" stroke="midnightblue" points="853.84,-286.1 844.04,-282.07 849.19,-291.33 853.84,-286.1"/>
</g>
<!-- Node25&#45;&gt;Node19 -->
<g id="edge43" class="edge">
<title>Node25&#45;&gt;Node19</title>
<path fill="none" stroke="midnightblue" d="M676.39,-380.31C667.56,-367.58 654.03,-343.27 663,-324 670.19,-308.55 684.68,-296.14 697.63,-287.49"/>
<polygon fill="midnightblue" stroke="midnightblue" points="699.61,-290.38 706.23,-282.11 695.89,-284.44 699.61,-290.38"/>
</g>
<!-- Node25&#45;&gt;Node23 -->
<g id="edge44" class="edge">
<title>Node25&#45;&gt;Node23</title>
<path fill="none" stroke="midnightblue" d="M660.34,-380.44C636.6,-371.48 599.09,-357.31 572.26,-347.18"/>
<polygon fill="midnightblue" stroke="midnightblue" points="573.14,-343.77 562.55,-343.52 570.67,-350.32 573.14,-343.77"/>
</g>
<!-- Node26&#45;&gt;Node10 -->
<g id="edge46" class="edge">
<title>Node26&#45;&gt;Node10</title>
<path fill="none" stroke="midnightblue" d="M266.84,-436.48C186.3,-420.85 33,-384.6 33,-335 33,-335 33,-335 33,-204.5 33,-147.31 207.58,-106.47 303.17,-88.39"/>
<polygon fill="midnightblue" stroke="midnightblue" points="303.82,-91.83 313.01,-86.56 302.53,-84.95 303.82,-91.83"/>
</g>
<!-- Node26&#45;&gt;Node15 -->
<g id="edge47" class="edge">
<title>Node26&#45;&gt;Node15</title>
<path fill="none" stroke="midnightblue" d="M321.04,-436.37C333.75,-418.22 363.44,-375.8 380.11,-351.99"/>
<polygon fill="midnightblue" stroke="midnightblue" points="383.12,-353.79 385.99,-343.59 377.38,-349.78 383.12,-353.79"/>
</g>
<!-- Node27 -->
<g id="node27" class="node">
<title>Node27</title>
<g id="a_node27"><a xlink:href="_s_b_m_l_namespaces_8h.html" target="_top" xlink:title="SBMLNamespaces class to store level/version and namespace.">
<polygon fill="white" stroke="black" points="421.5,-380.5 421.5,-399.5 564.5,-399.5 564.5,-380.5 421.5,-380.5"/>
<text text-anchor="middle" x="493" y="-387.5" font-family="Helvetica,sans-Serif" font-size="10.00">sbml/SBMLNamespaces.h</text>
</a>
</g>
</g>
<!-- Node26&#45;&gt;Node27 -->
<g id="edge48" class="edge">
<title>Node26&#45;&gt;Node27</title>
<path fill="none" stroke="midnightblue" d="M343.2,-436.44C373.41,-427.28 421.51,-412.69 455.03,-402.52"/>
<polygon fill="midnightblue" stroke="midnightblue" points="456.37,-405.77 464.93,-399.52 454.34,-399.07 456.37,-405.77"/>
</g>
<!-- Node27&#45;&gt;Node5 -->
<g id="edge55" class="edge">
<title>Node27&#45;&gt;Node5</title>
<path fill="none" stroke="midnightblue" d="M452.75,-380.44C408.35,-371 336.85,-355.8 288.91,-345.61"/>
<polygon fill="midnightblue" stroke="midnightblue" points="289.57,-342.17 279.06,-343.52 288.11,-349.02 289.57,-342.17"/>
</g>
<!-- Node27&#45;&gt;Node19 -->
<g id="edge56" class="edge">
<title>Node27&#45;&gt;Node19</title>
<path fill="none" stroke="midnightblue" d="M490.82,-380.12C488,-366.25 484.95,-339.41 499,-324 557.79,-259.52 608.93,-314.7 692,-288 693.67,-287.46 695.37,-286.86 697.07,-286.2"/>
<polygon fill="midnightblue" stroke="midnightblue" points="698.77,-289.28 706.58,-282.12 696.01,-282.85 698.77,-289.28"/>
</g>
<!-- Node27&#45;&gt;Node23 -->
<g id="edge57" class="edge">
<title>Node27&#45;&gt;Node23</title>
<path fill="none" stroke="midnightblue" d="M500.76,-380.08C507.54,-372.3 517.54,-360.8 525.76,-351.37"/>
<polygon fill="midnightblue" stroke="midnightblue" points="528.46,-353.59 532.38,-343.75 523.18,-349 528.46,-353.59"/>
</g>
<!-- Node28 -->
<g id="node28" class="node">
<title>Node28</title>
<g id="a_node28"><a xlink:href="_x_m_l_namespaces_8h.html" target="_top" xlink:title="A list of XMLNamespace declarations (URI/prefix pairs)">
<polygon fill="white" stroke="black" points="705,-324.5 705,-343.5 863,-343.5 863,-324.5 705,-324.5"/>
<text text-anchor="middle" x="784" y="-331.5" font-family="Helvetica,sans-Serif" font-size="10.00">sbml/xml/XMLNamespaces.h</text>
</a>
</g>
</g>
<!-- Node27&#45;&gt;Node28 -->
<g id="edge49" class="edge">
<title>Node27&#45;&gt;Node28</title>
<path fill="none" stroke="midnightblue" d="M539.11,-380.44C590.41,-370.92 673.27,-355.55 728.19,-345.36"/>
<polygon fill="midnightblue" stroke="midnightblue" points="728.91,-348.78 738.11,-343.52 727.64,-341.9 728.91,-348.78"/>
</g>
<!-- Node28&#45;&gt;Node16 -->
<g id="edge50" class="edge">
<title>Node28&#45;&gt;Node16</title>
<path fill="none" stroke="midnightblue" d="M812.8,-324.48C847.87,-314.09 907.26,-296.51 946.31,-284.95"/>
<polygon fill="midnightblue" stroke="midnightblue" points="947.66,-288.2 956.26,-282.01 945.67,-281.49 947.66,-288.2"/>
</g>
<!-- Node28&#45;&gt;Node17 -->
<g id="edge51" class="edge">
<title>Node28&#45;&gt;Node17</title>
<path fill="none" stroke="midnightblue" d="M791.02,-324.48C798.44,-315.46 810.33,-301.02 819.57,-289.81"/>
<polygon fill="midnightblue" stroke="midnightblue" points="822.34,-291.95 825.99,-282.01 816.93,-287.5 822.34,-291.95"/>
</g>
<!-- Node28&#45;&gt;Node19 -->
<g id="edge53" class="edge">
<title>Node28&#45;&gt;Node19</title>
<path fill="none" stroke="midnightblue" d="M775.26,-324.48C765.84,-315.28 750.64,-300.46 739.05,-289.16"/>
<polygon fill="midnightblue" stroke="midnightblue" points="741.33,-286.49 731.72,-282.01 736.44,-291.5 741.33,-286.49"/>
</g>
<!-- Node28&#45;&gt;Node20 -->
<g id="edge52" class="edge">
<title>Node28&#45;&gt;Node20</title>
<path fill="none" stroke="midnightblue" d="M757.49,-324.48C730.21,-315.7 686.95,-301.79 652.52,-290.71"/>
<polygon fill="midnightblue" stroke="midnightblue" points="653.19,-287.25 642.6,-287.52 651.05,-293.92 653.19,-287.25"/>
</g>
<!-- Node28&#45;&gt;Node22 -->
<g id="edge54" class="edge">
<title>Node28&#45;&gt;Node22</title>
<path fill="none" stroke="midnightblue" d="M843.83,-324.48C899.5,-316.25 984.65,-302.86 1058,-288 1066.68,-286.24 1076.01,-284.11 1084.67,-282.02"/>
<polygon fill="midnightblue" stroke="midnightblue" points="1085.56,-285.41 1094.44,-279.62 1083.89,-278.61 1085.56,-285.41"/>
</g>
</g>
</svg>
        <g id="navigator" transform="translate(0 0)" fill="#404254">
                <rect fill="#f2f5e9" fill-opacity="0.5" stroke="#606060" stroke-width=".5" x="0" y="0" width="60" height="60"/>
                <use id="zoomplus" xlink:href="#zoomPlus" x="17" y="9" onmousedown="handleZoom(evt,'in')"/>
                <use id="zoomminus" xlink:href="#zoomMin" x="42" y="9" onmousedown="handleZoom(evt,'out')"/>
                <use id="reset" xlink:href="#resetDef" x="30" y="36" onmousedown="handleReset()"/>
                <g id="arrowUp" xlink:href="#dirArrow" transform="translate(30 24)" onmousedown="handlePan(0,-1)">
                  <use xlink:href="#rim" fill="#404040">
                        <set attributeName="fill" to="#808080" begin="arrowUp.mouseover" end="arrowUp.mouseout"/>
                  </use>
                  <path fill="none" stroke="white" stroke-width="1.5" d="M0,-3.0v7 M-2.5,-0.5L0,-3.0L2.5,-0.5"/>
                </g>
                <g id="arrowRight" xlink:href="#dirArrow" transform="rotate(90) translate(36 -43)" onmousedown="handlePan(1,0)">
                  <use xlink:href="#rim" fill="#404040">
                        <set attributeName="fill" to="#808080" begin="arrowRight.mouseover" end="arrowRight.mouseout"/>
                  </use>
                  <path fill="none" stroke="white" stroke-width="1.5" d="M0,-3.0v7 M-2.5,-0.5L0,-3.0L2.5,-0.5"/>
                </g>
                <g id="arrowDown" xlink:href="#dirArrow" transform="rotate(180) translate(-30 -48)" onmousedown="handlePan(0,1)">
                  <use xlink:href="#rim" fill="#404040">
                        <set attributeName="fill" to="#808080" begin="arrowDown.mouseover" end="arrowDown.mouseout"/>
                  </use>
                  <path fill="none" stroke="white" stroke-width="1.5" d="M0,-3.0v7 M-2.5,-0.5L0,-3.0L2.5,-0.5"/>
                </g>
                <g id="arrowLeft" xlink:href="#dirArrow" transform="rotate(270) translate(-36 17)" onmousedown="handlePan(-1,0)">
                  <use xlink:href="#rim" fill="#404040">
                        <set attributeName="fill" to="#808080" begin="arrowLeft.mouseover" end="arrowLeft.mouseout"/>
                  </use>
                  <path fill="none" stroke="white" stroke-width="1.5" d="M0,-3.0v7 M-2.5,-0.5L0,-3.0L2.5,-0.5"/>
                </g>
        </g>
        <svg viewBox="0 0 15 15" width="100%" height="30px" preserveAspectRatio="xMaxYMin meet">
         <g id="arrow_out" transform="scale(0.3 0.3)">
          <a xlink:href="_x_m_l_error_8cpp__incl_org.svg" target="_base">
           <rect id="button" ry="5" rx="5" y="6" x="6" height="38" width="38"
                fill="#f2f5e9" fill-opacity="0.5" stroke="#606060" stroke-width="1.0"/>
           <path id="arrow"
             d="M 11.500037,31.436501 C 11.940474,20.09759 22.043105,11.32322 32.158766,21.979434 L 37.068811,17.246167 C 37.068811,17.246167 37.088388,32 37.088388,32 L 22.160133,31.978069 C 22.160133,31.978069 26.997745,27.140456 26.997745,27.140456 C 18.528582,18.264221 13.291696,25.230495 11.500037,31.436501 z"
             style="fill:#404040;"/>
          </a>
         </g>
        </svg>
</svg>
