<?xml version="1.0" encoding="UTF-8" standalone="no"?>
<!DOCTYPE svg PUBLIC "-//W3C//DTD SVG 1.1//EN"
 "http://www.w3.org/Graphics/SVG/1.1/DTD/svg11.dtd">
<!-- Generated by graphviz version 2.43.0 (0)
 -->
<!-- Title: XMLParser.h Pages: 1 -->
<svg width="228pt" height="84pt"
 viewBox="0.00 0.00 228.00 84.00" xmlns="http://www.w3.org/2000/svg" xmlns:xlink="http://www.w3.org/1999/xlink">
<g id="graph0" class="graph" transform="scale(1 1) rotate(0) translate(4 80)">
<title>XMLParser.h</title>
<polygon fill="white" stroke="transparent" points="-4,4 -4,-80 224,-80 224,4 -4,4"/>
<!-- Node1 -->
<g id="node1" class="node">
<title>Node1</title>
<g id="a_node1"><a xlink:title=" ">
<polygon fill="#bfbfbf" stroke="black" points="73,-56.5 73,-75.5 149,-75.5 149,-56.5 73,-56.5"/>
<text text-anchor="middle" x="111" y="-63.5" font-family="Helvetica,sans-Serif" font-size="10.00">XMLParser.h</text>
</a>
</g>
</g>
<!-- Node2 -->
<g id="node2" class="node">
<title>Node2</title>
<g id="a_node2"><a xlink:href="_s_b_m_l_error_log_8cpp.html" target="_top" xlink:title="Stores errors (and messages) encountered while processing SBML.">
<polygon fill="white" stroke="black" points="0,-0.5 0,-19.5 104,-19.5 104,-0.5 0,-0.5"/>
<text text-anchor="middle" x="52" y="-7.5" font-family="Helvetica,sans-Serif" font-size="10.00">SBMLErrorLog.cpp</text>
</a>
</g>
</g>
<!-- Node1&#45;&gt;Node2 -->
<g id="edge1" class="edge">
<title>Node1&#45;&gt;Node2</title>
<path fill="none" stroke="midnightblue" d="M94.11,-49.54C83.59,-39.91 70.43,-27.87 61.65,-19.83"/>
<polygon fill="midnightblue" stroke="midnightblue" points="91.78,-52.15 101.52,-56.32 96.51,-46.99 91.78,-52.15"/>
</g>
<!-- Node3 -->
<g id="node3" class="node">
<title>Node3</title>
<g id="a_node3"><a xlink:href="_x_m_l_error_log_8cpp.html" target="_top" xlink:title="Stores errors (and messages) encountered while processing XML.">
<polygon fill="white" stroke="black" points="122,-0.5 122,-19.5 220,-19.5 220,-0.5 122,-0.5"/>
<text text-anchor="middle" x="171" y="-7.5" font-family="Helvetica,sans-Serif" font-size="10.00">XMLErrorLog.cpp</text>
</a>
</g>
</g>
<!-- Node1&#45;&gt;Node3 -->
<g id="edge2" class="edge">
<title>Node1&#45;&gt;Node3</title>
<path fill="none" stroke="midnightblue" d="M128.18,-49.54C138.88,-39.91 152.26,-27.87 161.18,-19.83"/>
<polygon fill="midnightblue" stroke="midnightblue" points="125.73,-47.03 120.64,-56.32 130.41,-52.24 125.73,-47.03"/>
</g>
</g>
</svg>
