<?xml version="1.0" encoding="UTF-8" standalone="no"?>
<!DOCTYPE svg PUBLIC "-//W3C//DTD SVG 1.1//EN"
 "http://www.w3.org/Graphics/SVG/1.1/DTD/svg11.dtd">
<!-- Generated by graphviz version 2.43.0 (0)
 -->
<!-- Title: XMLNamespaces.h Pages: 1 -->
<svg width="561pt" height="341pt"
 viewBox="0.00 0.00 560.50 341.00" xmlns="http://www.w3.org/2000/svg" xmlns:xlink="http://www.w3.org/1999/xlink">
<g id="graph0" class="graph" transform="scale(1 1) rotate(0) translate(4 337)">
<title>XMLNamespaces.h</title>
<polygon fill="white" stroke="transparent" points="-4,4 -4,-337 556.5,-337 556.5,4 -4,4"/>
<!-- Node1 -->
<g id="node1" class="node">
<title>Node1</title>
<g id="a_node1"><a xlink:title="A list of XMLNamespace declarations (URI/prefix pairs)">
<polygon fill="#bfbfbf" stroke="black" points="296.5,-313.5 296.5,-332.5 406.5,-332.5 406.5,-313.5 296.5,-313.5"/>
<text text-anchor="middle" x="351.5" y="-320.5" font-family="Helvetica,sans-Serif" font-size="10.00">XMLNamespaces.h</text>
</a>
</g>
</g>
<!-- Node2 -->
<g id="node2" class="node">
<title>Node2</title>
<g id="a_node2"><a xlink:href="_x_m_l_extern_8h.html" target="_top" xlink:title="Defines LIBLAX_EXTERN.">
<polygon fill="white" stroke="black" points="0,-196 0,-215 127,-215 127,-196 0,-196"/>
<text text-anchor="middle" x="63.5" y="-203" font-family="Helvetica,sans-Serif" font-size="10.00">sbml/xml/XMLExtern.h</text>
</a>
</g>
</g>
<!-- Node1&#45;&gt;Node2 -->
<g id="edge1" class="edge">
<title>Node1&#45;&gt;Node2</title>
<path fill="none" stroke="midnightblue" d="M300.51,-313.49C264.37,-306.4 215.26,-294.59 174.5,-277 140.02,-262.12 104.02,-237.25 82.69,-221.38"/>
<polygon fill="midnightblue" stroke="midnightblue" points="84.58,-218.42 74.49,-215.18 80.36,-224 84.58,-218.42"/>
</g>
<!-- Node4 -->
<g id="node4" class="node">
<title>Node4</title>
<g id="a_node4"><a xlink:href="sbmlfwd_8h.html" target="_top" xlink:title="Forward declarations for all opaque C types.">
<polygon fill="white" stroke="black" points="183.5,-257.5 183.5,-276.5 323.5,-276.5 323.5,-257.5 183.5,-257.5"/>
<text text-anchor="middle" x="253.5" y="-264.5" font-family="Helvetica,sans-Serif" font-size="10.00">sbml/common/sbmlfwd.h</text>
</a>
</g>
</g>
<!-- Node1&#45;&gt;Node4 -->
<g id="edge3" class="edge">
<title>Node1&#45;&gt;Node4</title>
<path fill="none" stroke="midnightblue" d="M335.75,-313.32C320.18,-304.74 296.12,-291.49 278.04,-281.52"/>
<polygon fill="midnightblue" stroke="midnightblue" points="279.65,-278.42 269.21,-276.65 276.28,-284.55 279.65,-278.42"/>
</g>
<!-- Node9 -->
<g id="node9" class="node">
<title>Node9</title>
<g id="a_node9"><a xlink:href="operation_return_values_8h.html" target="_top" xlink:title="Enumeration of values returned by operations within libSBML.">
<polygon fill="white" stroke="black" points="384.5,-190.5 384.5,-220.5 552.5,-220.5 552.5,-190.5 384.5,-190.5"/>
<text text-anchor="start" x="392.5" y="-208.5" font-family="Helvetica,sans-Serif" font-size="10.00">sbml/common/operationReturn</text>
<text text-anchor="middle" x="468.5" y="-197.5" font-family="Helvetica,sans-Serif" font-size="10.00">Values.h</text>
</a>
</g>
</g>
<!-- Node1&#45;&gt;Node9 -->
<g id="edge11" class="edge">
<title>Node1&#45;&gt;Node9</title>
<path fill="none" stroke="midnightblue" d="M351.9,-313.43C352.94,-299.97 356.74,-273.69 370.5,-257 382,-243.05 398.36,-232.52 414.42,-224.79"/>
<polygon fill="midnightblue" stroke="midnightblue" points="416.13,-227.85 423.81,-220.55 413.25,-221.47 416.13,-227.85"/>
</g>
<!-- Node10 -->
<g id="node10" class="node">
<title>Node10</title>
<g id="a_node10"><a xlink:title=" ">
<polygon fill="white" stroke="#bfbfbf" points="379.5,-257.5 379.5,-276.5 423.5,-276.5 423.5,-257.5 379.5,-257.5"/>
<text text-anchor="middle" x="401.5" y="-264.5" font-family="Helvetica,sans-Serif" font-size="10.00">string</text>
</a>
</g>
</g>
<!-- Node1&#45;&gt;Node10 -->
<g id="edge13" class="edge">
<title>Node1&#45;&gt;Node10</title>
<path fill="none" stroke="midnightblue" d="M359.76,-313.08C366.96,-305.3 377.61,-293.8 386.35,-284.37"/>
<polygon fill="midnightblue" stroke="midnightblue" points="389.17,-286.47 393.4,-276.75 384.03,-281.71 389.17,-286.47"/>
</g>
<!-- Node11 -->
<g id="node11" class="node">
<title>Node11</title>
<g id="a_node11"><a xlink:title=" ">
<polygon fill="white" stroke="#bfbfbf" points="442,-257.5 442,-276.5 489,-276.5 489,-257.5 442,-257.5"/>
<text text-anchor="middle" x="465.5" y="-264.5" font-family="Helvetica,sans-Serif" font-size="10.00">vector</text>
</a>
</g>
</g>
<!-- Node1&#45;&gt;Node11 -->
<g id="edge14" class="edge">
<title>Node1&#45;&gt;Node11</title>
<path fill="none" stroke="midnightblue" d="M369.56,-313.44C388.07,-304.68 417.08,-290.94 438.36,-280.86"/>
<polygon fill="midnightblue" stroke="midnightblue" points="439.98,-283.96 447.52,-276.52 436.99,-277.63 439.98,-283.96"/>
</g>
<!-- Node3 -->
<g id="node3" class="node">
<title>Node3</title>
<g id="a_node3"><a xlink:title=" ">
<polygon fill="white" stroke="#bfbfbf" points="112,-0.5 112,-30.5 237,-30.5 237,-0.5 112,-0.5"/>
<text text-anchor="start" x="120" y="-18.5" font-family="Helvetica,sans-Serif" font-size="10.00">sbml/common/libsbml</text>
<text text-anchor="middle" x="174.5" y="-7.5" font-family="Helvetica,sans-Serif" font-size="10.00">&#45;namespace.h</text>
</a>
</g>
</g>
<!-- Node2&#45;&gt;Node3 -->
<g id="edge2" class="edge">
<title>Node2&#45;&gt;Node3</title>
<path fill="none" stroke="midnightblue" d="M68.24,-195.7C80.13,-173.74 112.36,-114.81 141.5,-67 147.08,-57.84 153.48,-47.93 159.15,-39.33"/>
<polygon fill="midnightblue" stroke="midnightblue" points="162.11,-41.2 164.72,-30.93 156.28,-37.33 162.11,-41.2"/>
</g>
<!-- Node4&#45;&gt;Node3 -->
<g id="edge4" class="edge">
<title>Node4&#45;&gt;Node3</title>
<path fill="none" stroke="midnightblue" d="M237.18,-257.43C224.2,-249.72 206.75,-237.12 197.5,-221 164.27,-163.1 167.3,-80.76 171.36,-40.52"/>
<polygon fill="midnightblue" stroke="midnightblue" points="174.84,-40.89 172.47,-30.56 167.88,-40.11 174.84,-40.89"/>
</g>
<!-- Node5 -->
<g id="node5" class="node">
<title>Node5</title>
<g id="a_node5"><a xlink:href="libsbml-config_8h.html" target="_top" xlink:title="Decides whether to #include Unix or Windows configuration variables.">
<polygon fill="white" stroke="black" points="207,-190.5 207,-220.5 332,-220.5 332,-190.5 207,-190.5"/>
<text text-anchor="start" x="215" y="-208.5" font-family="Helvetica,sans-Serif" font-size="10.00">sbml/common/libsbml</text>
<text text-anchor="middle" x="269.5" y="-197.5" font-family="Helvetica,sans-Serif" font-size="10.00">&#45;config.h</text>
</a>
</g>
</g>
<!-- Node4&#45;&gt;Node5 -->
<g id="edge5" class="edge">
<title>Node4&#45;&gt;Node5</title>
<path fill="none" stroke="midnightblue" d="M255.79,-257.48C257.7,-250.4 260.5,-239.97 263.08,-230.39"/>
<polygon fill="midnightblue" stroke="midnightblue" points="266.51,-231.09 265.73,-220.52 259.75,-229.27 266.51,-231.09"/>
</g>
<!-- Node5&#45;&gt;Node3 -->
<g id="edge6" class="edge">
<title>Node5&#45;&gt;Node3</title>
<path fill="none" stroke="midnightblue" d="M248.28,-190.44C236.15,-181.38 221.6,-168.58 212.5,-154 190.3,-118.41 180.84,-69.73 176.98,-40.86"/>
<polygon fill="midnightblue" stroke="midnightblue" points="180.45,-40.33 175.76,-30.83 173.5,-41.18 180.45,-40.33"/>
</g>
<!-- Node6 -->
<g id="node6" class="node">
<title>Node6</title>
<g id="a_node6"><a xlink:title=" ">
<polygon fill="white" stroke="#bfbfbf" points="222,-123.5 222,-153.5 347,-153.5 347,-123.5 222,-123.5"/>
<text text-anchor="start" x="230" y="-141.5" font-family="Helvetica,sans-Serif" font-size="10.00">sbml/common/libsbml</text>
<text text-anchor="middle" x="284.5" y="-130.5" font-family="Helvetica,sans-Serif" font-size="10.00">&#45;config&#45;common.h</text>
</a>
</g>
</g>
<!-- Node5&#45;&gt;Node6 -->
<g id="edge7" class="edge">
<title>Node5&#45;&gt;Node6</title>
<path fill="none" stroke="midnightblue" d="M272.75,-190.4C274.56,-182.56 276.86,-172.6 278.95,-163.57"/>
<polygon fill="midnightblue" stroke="midnightblue" points="282.41,-164.11 281.25,-153.58 275.59,-162.53 282.41,-164.11"/>
</g>
<!-- Node7 -->
<g id="node7" class="node">
<title>Node7</title>
<g id="a_node7"><a xlink:href="libsbml-version_8h.html" target="_top" xlink:title="Define libSBML version numbers for access from client software.">
<polygon fill="white" stroke="black" points="365,-123.5 365,-153.5 490,-153.5 490,-123.5 365,-123.5"/>
<text text-anchor="start" x="373" y="-141.5" font-family="Helvetica,sans-Serif" font-size="10.00">sbml/common/libsbml</text>
<text text-anchor="middle" x="427.5" y="-130.5" font-family="Helvetica,sans-Serif" font-size="10.00">&#45;version.h</text>
</a>
</g>
</g>
<!-- Node5&#45;&gt;Node7 -->
<g id="edge8" class="edge">
<title>Node5&#45;&gt;Node7</title>
<path fill="none" stroke="midnightblue" d="M303.78,-190.4C327.28,-180.73 358.65,-167.82 383.93,-157.43"/>
<polygon fill="midnightblue" stroke="midnightblue" points="385.37,-160.62 393.28,-153.58 382.7,-154.14 385.37,-160.62"/>
</g>
<!-- Node8 -->
<g id="node8" class="node">
<title>Node8</title>
<g id="a_node8"><a xlink:href="extern_8h.html" target="_top" xlink:title="Definitions of LIBSBML_EXTERN and related things.">
<polygon fill="white" stroke="black" points="362.5,-67.5 362.5,-86.5 492.5,-86.5 492.5,-67.5 362.5,-67.5"/>
<text text-anchor="middle" x="427.5" y="-74.5" font-family="Helvetica,sans-Serif" font-size="10.00">sbml/common/extern.h</text>
</a>
</g>
</g>
<!-- Node7&#45;&gt;Node8 -->
<g id="edge9" class="edge">
<title>Node7&#45;&gt;Node8</title>
<path fill="none" stroke="midnightblue" d="M427.5,-123.4C427.5,-115.47 427.5,-105.46 427.5,-96.86"/>
<polygon fill="midnightblue" stroke="midnightblue" points="431,-96.66 427.5,-86.66 424,-96.66 431,-96.66"/>
</g>
<!-- Node8&#45;&gt;Node3 -->
<g id="edge10" class="edge">
<title>Node8&#45;&gt;Node3</title>
<path fill="none" stroke="midnightblue" d="M391.25,-67.48C352.98,-58.48 291.72,-44.07 244.07,-32.86"/>
<polygon fill="midnightblue" stroke="midnightblue" points="244.66,-29.41 234.13,-30.52 243.06,-36.22 244.66,-29.41"/>
</g>
<!-- Node9&#45;&gt;Node8 -->
<g id="edge12" class="edge">
<title>Node9&#45;&gt;Node8</title>
<path fill="none" stroke="midnightblue" d="M480.79,-190.39C493.77,-173.69 510.78,-145.33 498.5,-123 490.61,-108.66 476.01,-98.25 462.1,-91.08"/>
<polygon fill="midnightblue" stroke="midnightblue" points="463.2,-87.73 452.66,-86.62 460.21,-94.06 463.2,-87.73"/>
</g>
</g>
</svg>
