<?xml version="1.0" encoding="UTF-8" standalone="no"?>
<!DOCTYPE svg PUBLIC "-//W3C//DTD SVG 1.1//EN"
 "http://www.w3.org/Graphics/SVG/1.1/DTD/svg11.dtd">
<!-- Generated by graphviz version 2.43.0 (0)
 -->
<!-- Title: XMLTriple.h Pages: 1 -->
<svg width="498pt" height="341pt"
 viewBox="0.00 0.00 498.00 341.00" xmlns="http://www.w3.org/2000/svg" xmlns:xlink="http://www.w3.org/1999/xlink">
<g id="graph0" class="graph" transform="scale(1 1) rotate(0) translate(4 337)">
<title>XMLTriple.h</title>
<polygon fill="white" stroke="transparent" points="-4,4 -4,-337 494,-337 494,4 -4,4"/>
<!-- Node1 -->
<g id="node1" class="node">
<title>Node1</title>
<g id="a_node1"><a xlink:title="Stores an XML namespace triple.">
<polygon fill="#bfbfbf" stroke="black" points="125.5,-313.5 125.5,-332.5 197.5,-332.5 197.5,-313.5 125.5,-313.5"/>
<text text-anchor="middle" x="161.5" y="-320.5" font-family="Helvetica,sans-Serif" font-size="10.00">XMLTriple.h</text>
</a>
</g>
</g>
<!-- Node2 -->
<g id="node2" class="node">
<title>Node2</title>
<g id="a_node2"><a xlink:href="_x_m_l_extern_8h.html" target="_top" xlink:title="Defines LIBLAX_EXTERN.">
<polygon fill="white" stroke="black" points="0,-196 0,-215 127,-215 127,-196 0,-196"/>
<text text-anchor="middle" x="63.5" y="-203" font-family="Helvetica,sans-Serif" font-size="10.00">sbml/xml/XMLExtern.h</text>
</a>
</g>
</g>
<!-- Node1&#45;&gt;Node2 -->
<g id="edge1" class="edge">
<title>Node1&#45;&gt;Node2</title>
<path fill="none" stroke="midnightblue" d="M135.86,-313.42C118.38,-306.3 96.02,-294.48 82.5,-277 71.01,-262.14 66.45,-240.85 64.66,-225.56"/>
<polygon fill="midnightblue" stroke="midnightblue" points="68.11,-224.9 63.75,-215.25 61.14,-225.51 68.11,-224.9"/>
</g>
<!-- Node4 -->
<g id="node4" class="node">
<title>Node4</title>
<g id="a_node4"><a xlink:href="sbmlfwd_8h.html" target="_top" xlink:title="Forward declarations for all opaque C types.">
<polygon fill="white" stroke="black" points="91.5,-257.5 91.5,-276.5 231.5,-276.5 231.5,-257.5 91.5,-257.5"/>
<text text-anchor="middle" x="161.5" y="-264.5" font-family="Helvetica,sans-Serif" font-size="10.00">sbml/common/sbmlfwd.h</text>
</a>
</g>
</g>
<!-- Node1&#45;&gt;Node4 -->
<g id="edge3" class="edge">
<title>Node1&#45;&gt;Node4</title>
<path fill="none" stroke="midnightblue" d="M161.5,-313.08C161.5,-306.01 161.5,-295.86 161.5,-286.99"/>
<polygon fill="midnightblue" stroke="midnightblue" points="165,-286.75 161.5,-276.75 158,-286.75 165,-286.75"/>
</g>
<!-- Node9 -->
<g id="node9" class="node">
<title>Node9</title>
<g id="a_node9"><a xlink:title=" ">
<polygon fill="white" stroke="#bfbfbf" points="249.5,-257.5 249.5,-276.5 293.5,-276.5 293.5,-257.5 249.5,-257.5"/>
<text text-anchor="middle" x="271.5" y="-264.5" font-family="Helvetica,sans-Serif" font-size="10.00">string</text>
</a>
</g>
</g>
<!-- Node1&#45;&gt;Node9 -->
<g id="edge11" class="edge">
<title>Node1&#45;&gt;Node9</title>
<path fill="none" stroke="midnightblue" d="M179.17,-313.32C196.89,-304.62 224.4,-291.12 244.79,-281.11"/>
<polygon fill="midnightblue" stroke="midnightblue" points="246.44,-284.2 253.87,-276.65 243.35,-277.92 246.44,-284.2"/>
</g>
<!-- Node3 -->
<g id="node3" class="node">
<title>Node3</title>
<g id="a_node3"><a xlink:title=" ">
<polygon fill="white" stroke="#bfbfbf" points="112,-0.5 112,-30.5 237,-30.5 237,-0.5 112,-0.5"/>
<text text-anchor="start" x="120" y="-18.5" font-family="Helvetica,sans-Serif" font-size="10.00">sbml/common/libsbml</text>
<text text-anchor="middle" x="174.5" y="-7.5" font-family="Helvetica,sans-Serif" font-size="10.00">&#45;namespace.h</text>
</a>
</g>
</g>
<!-- Node2&#45;&gt;Node3 -->
<g id="edge2" class="edge">
<title>Node2&#45;&gt;Node3</title>
<path fill="none" stroke="midnightblue" d="M68.24,-195.7C80.13,-173.74 112.36,-114.81 141.5,-67 147.08,-57.84 153.48,-47.93 159.15,-39.33"/>
<polygon fill="midnightblue" stroke="midnightblue" points="162.11,-41.2 164.72,-30.93 156.28,-37.33 162.11,-41.2"/>
</g>
<!-- Node4&#45;&gt;Node3 -->
<g id="edge4" class="edge">
<title>Node4&#45;&gt;Node3</title>
<path fill="none" stroke="midnightblue" d="M161.95,-257.41C163.74,-223.02 170.44,-94.51 173.25,-40.57"/>
<polygon fill="midnightblue" stroke="midnightblue" points="176.74,-40.71 173.77,-30.54 169.75,-40.35 176.74,-40.71"/>
</g>
<!-- Node5 -->
<g id="node5" class="node">
<title>Node5</title>
<g id="a_node5"><a xlink:href="libsbml-config_8h.html" target="_top" xlink:title="Decides whether to #include Unix or Windows configuration variables.">
<polygon fill="white" stroke="black" points="203,-190.5 203,-220.5 328,-220.5 328,-190.5 203,-190.5"/>
<text text-anchor="start" x="211" y="-208.5" font-family="Helvetica,sans-Serif" font-size="10.00">sbml/common/libsbml</text>
<text text-anchor="middle" x="265.5" y="-197.5" font-family="Helvetica,sans-Serif" font-size="10.00">&#45;config.h</text>
</a>
</g>
</g>
<!-- Node4&#45;&gt;Node5 -->
<g id="edge5" class="edge">
<title>Node4&#45;&gt;Node5</title>
<path fill="none" stroke="midnightblue" d="M176.4,-257.48C190.88,-249.19 213.37,-236.32 232.13,-225.59"/>
<polygon fill="midnightblue" stroke="midnightblue" points="234.05,-228.53 240.99,-220.52 230.57,-222.45 234.05,-228.53"/>
</g>
<!-- Node5&#45;&gt;Node3 -->
<g id="edge6" class="edge">
<title>Node5&#45;&gt;Node3</title>
<path fill="none" stroke="midnightblue" d="M246.05,-190.35C234.73,-181.17 221.05,-168.28 212.5,-154 190.95,-118.01 181.28,-69.46 177.21,-40.72"/>
<polygon fill="midnightblue" stroke="midnightblue" points="180.67,-40.21 175.9,-30.74 173.73,-41.11 180.67,-40.21"/>
</g>
<!-- Node6 -->
<g id="node6" class="node">
<title>Node6</title>
<g id="a_node6"><a xlink:title=" ">
<polygon fill="white" stroke="#bfbfbf" points="222,-123.5 222,-153.5 347,-153.5 347,-123.5 222,-123.5"/>
<text text-anchor="start" x="230" y="-141.5" font-family="Helvetica,sans-Serif" font-size="10.00">sbml/common/libsbml</text>
<text text-anchor="middle" x="284.5" y="-130.5" font-family="Helvetica,sans-Serif" font-size="10.00">&#45;config&#45;common.h</text>
</a>
</g>
</g>
<!-- Node5&#45;&gt;Node6 -->
<g id="edge7" class="edge">
<title>Node5&#45;&gt;Node6</title>
<path fill="none" stroke="midnightblue" d="M269.62,-190.4C271.94,-182.47 274.89,-172.38 277.55,-163.27"/>
<polygon fill="midnightblue" stroke="midnightblue" points="280.94,-164.16 280.39,-153.58 274.22,-162.19 280.94,-164.16"/>
</g>
<!-- Node7 -->
<g id="node7" class="node">
<title>Node7</title>
<g id="a_node7"><a xlink:href="libsbml-version_8h.html" target="_top" xlink:title="Define libSBML version numbers for access from client software.">
<polygon fill="white" stroke="black" points="365,-123.5 365,-153.5 490,-153.5 490,-123.5 365,-123.5"/>
<text text-anchor="start" x="373" y="-141.5" font-family="Helvetica,sans-Serif" font-size="10.00">sbml/common/libsbml</text>
<text text-anchor="middle" x="427.5" y="-130.5" font-family="Helvetica,sans-Serif" font-size="10.00">&#45;version.h</text>
</a>
</g>
</g>
<!-- Node5&#45;&gt;Node7 -->
<g id="edge8" class="edge">
<title>Node5&#45;&gt;Node7</title>
<path fill="none" stroke="midnightblue" d="M300.65,-190.4C324.75,-180.73 356.91,-167.82 382.82,-157.43"/>
<polygon fill="midnightblue" stroke="midnightblue" points="384.44,-160.55 392.42,-153.58 381.83,-154.05 384.44,-160.55"/>
</g>
<!-- Node8 -->
<g id="node8" class="node">
<title>Node8</title>
<g id="a_node8"><a xlink:href="extern_8h.html" target="_top" xlink:title="Definitions of LIBSBML_EXTERN and related things.">
<polygon fill="white" stroke="black" points="291.5,-67.5 291.5,-86.5 421.5,-86.5 421.5,-67.5 291.5,-67.5"/>
<text text-anchor="middle" x="356.5" y="-74.5" font-family="Helvetica,sans-Serif" font-size="10.00">sbml/common/extern.h</text>
</a>
</g>
</g>
<!-- Node7&#45;&gt;Node8 -->
<g id="edge9" class="edge">
<title>Node7&#45;&gt;Node8</title>
<path fill="none" stroke="midnightblue" d="M410.67,-123.4C399.83,-114.31 385.72,-102.49 374.63,-93.19"/>
<polygon fill="midnightblue" stroke="midnightblue" points="376.74,-90.4 366.83,-86.66 372.25,-95.76 376.74,-90.4"/>
</g>
<!-- Node8&#45;&gt;Node3 -->
<g id="edge10" class="edge">
<title>Node8&#45;&gt;Node3</title>
<path fill="none" stroke="midnightblue" d="M330.42,-67.48C303.59,-58.7 261.03,-44.79 227.15,-33.71"/>
<polygon fill="midnightblue" stroke="midnightblue" points="227.99,-30.3 217.39,-30.52 225.81,-36.96 227.99,-30.3"/>
</g>
</g>
</svg>
