<?xml version="1.0" encoding="UTF-8" standalone="no"?>
<!DOCTYPE svg PUBLIC "-//W3C//DTD SVG 1.1//EN"
 "http://www.w3.org/Graphics/SVG/1.1/DTD/svg11.dtd">
<!-- Generated by graphviz version 2.43.0 (0)
 -->
<!-- Title: XMLConstructorException.h Pages: 1 -->
<svg width="634pt" height="84pt"
 viewBox="0.00 0.00 634.00 84.00" xmlns="http://www.w3.org/2000/svg" xmlns:xlink="http://www.w3.org/1999/xlink">
<g id="graph0" class="graph" transform="scale(1 1) rotate(0) translate(4 80)">
<title>XMLConstructorException.h</title>
<polygon fill="white" stroke="transparent" points="-4,4 -4,-80 630,-80 630,4 -4,4"/>
<!-- Node1 -->
<g id="node1" class="node">
<title>Node1</title>
<g id="a_node1"><a xlink:title="XMLConstructorException an exception thrown by XML classes.">
<polygon fill="#bfbfbf" stroke="black" points="270,-56.5 270,-75.5 421,-75.5 421,-56.5 270,-56.5"/>
<text text-anchor="middle" x="345.5" y="-63.5" font-family="Helvetica,sans-Serif" font-size="10.00">XMLConstructorException.h</text>
</a>
</g>
</g>
<!-- Node2 -->
<g id="node2" class="node">
<title>Node2</title>
<g id="a_node2"><a xlink:href="_x_m_l_attributes_8cpp.html" target="_top" xlink:title="XMLAttributes are a list of name/value pairs for XMLElements.">
<polygon fill="white" stroke="black" points="0,-0.5 0,-19.5 107,-19.5 107,-0.5 0,-0.5"/>
<text text-anchor="middle" x="53.5" y="-7.5" font-family="Helvetica,sans-Serif" font-size="10.00">XMLAttributes.cpp</text>
</a>
</g>
</g>
<!-- Node1&#45;&gt;Node2 -->
<g id="edge1" class="edge">
<title>Node1&#45;&gt;Node2</title>
<path fill="none" stroke="midnightblue" d="M289.27,-54.6C234.08,-44.4 150.94,-29.02 99.55,-19.52"/>
<polygon fill="midnightblue" stroke="midnightblue" points="288.76,-58.07 299.23,-56.44 290.03,-51.18 288.76,-58.07"/>
</g>
<!-- Node3 -->
<g id="node3" class="node">
<title>Node3</title>
<g id="a_node3"><a xlink:href="_x_m_l_constructor_exception_8cpp.html" target="_top" xlink:title="XMLConstructorException an exception thrown by XML classes.">
<polygon fill="white" stroke="black" points="125.5,-0.5 125.5,-19.5 287.5,-19.5 287.5,-0.5 125.5,-0.5"/>
<text text-anchor="middle" x="206.5" y="-7.5" font-family="Helvetica,sans-Serif" font-size="10.00">XMLConstructorException.cpp</text>
</a>
</g>
</g>
<!-- Node1&#45;&gt;Node3 -->
<g id="edge2" class="edge">
<title>Node1&#45;&gt;Node3</title>
<path fill="none" stroke="midnightblue" d="M314.02,-52.77C287.91,-42.63 251.46,-28.47 228.42,-19.52"/>
<polygon fill="midnightblue" stroke="midnightblue" points="312.89,-56.08 323.48,-56.44 315.42,-49.56 312.89,-56.08"/>
</g>
<!-- Node4 -->
<g id="node4" class="node">
<title>Node4</title>
<g id="a_node4"><a xlink:href="_x_m_l_error_8cpp.html" target="_top" xlink:title="Represents errors (and messages) encountered during an XML parse.">
<polygon fill="white" stroke="black" points="305.5,-0.5 305.5,-19.5 385.5,-19.5 385.5,-0.5 305.5,-0.5"/>
<text text-anchor="middle" x="345.5" y="-7.5" font-family="Helvetica,sans-Serif" font-size="10.00">XMLError.cpp</text>
</a>
</g>
</g>
<!-- Node1&#45;&gt;Node4 -->
<g id="edge3" class="edge">
<title>Node1&#45;&gt;Node4</title>
<path fill="none" stroke="midnightblue" d="M345.5,-45.8C345.5,-36.91 345.5,-26.78 345.5,-19.75"/>
<polygon fill="midnightblue" stroke="midnightblue" points="342,-46.08 345.5,-56.08 349,-46.08 342,-46.08"/>
</g>
<!-- Node5 -->
<g id="node5" class="node">
<title>Node5</title>
<g id="a_node5"><a xlink:href="_x_m_l_namespaces_8cpp.html" target="_top" xlink:title="A list of XMLNamespace declarations (URI/prefix pairs)">
<polygon fill="white" stroke="black" points="404,-0.5 404,-19.5 525,-19.5 525,-0.5 404,-0.5"/>
<text text-anchor="middle" x="464.5" y="-7.5" font-family="Helvetica,sans-Serif" font-size="10.00">XMLNamespaces.cpp</text>
</a>
</g>
</g>
<!-- Node1&#45;&gt;Node5 -->
<g id="edge4" class="edge">
<title>Node1&#45;&gt;Node5</title>
<path fill="none" stroke="midnightblue" d="M373.64,-52.23C395.9,-42.13 426.36,-28.31 445.73,-19.52"/>
<polygon fill="midnightblue" stroke="midnightblue" points="372.02,-49.12 364.36,-56.44 374.91,-55.5 372.02,-49.12"/>
</g>
<!-- Node6 -->
<g id="node6" class="node">
<title>Node6</title>
<g id="a_node6"><a xlink:href="_x_m_l_triple_8cpp.html" target="_top" xlink:title="Stores an XML namespace triple.">
<polygon fill="white" stroke="black" points="543,-0.5 543,-19.5 626,-19.5 626,-0.5 543,-0.5"/>
<text text-anchor="middle" x="584.5" y="-7.5" font-family="Helvetica,sans-Serif" font-size="10.00">XMLTriple.cpp</text>
</a>
</g>
</g>
<!-- Node1&#45;&gt;Node6 -->
<g id="edge5" class="edge">
<title>Node1&#45;&gt;Node6</title>
<path fill="none" stroke="midnightblue" d="M393.22,-54.22C438.39,-44.01 505.27,-28.9 546.81,-19.52"/>
<polygon fill="midnightblue" stroke="midnightblue" points="392.35,-50.83 383.37,-56.44 393.9,-57.65 392.35,-50.83"/>
</g>
</g>
</svg>
