<?xml version="1.0" encoding="UTF-8" standalone="no"?>
<!DOCTYPE svg PUBLIC "-//W3C//DTD SVG 1.1//EN"
 "http://www.w3.org/Graphics/SVG/1.1/DTD/svg11.dtd">
<!-- Generated by graphviz version 2.43.0 (0)
 -->
<!-- Title: XMLLogOverride.cpp Pages: 1 -->
<!--zoomable 453 -->
<svg id="main" version="1.1" xmlns="http://www.w3.org/2000/svg" xmlns:xlink="http://www.w3.org/1999/xlink" xml:space="preserve" onload="init(evt)">
<style type="text/css"><![CDATA[
.edge:hover path { stroke: red; }
.edge:hover polygon { stroke: red; fill: red; }
]]></style>
<script type="text/javascript"><![CDATA[
var edges = document.getElementsByTagName('g');
if (edges && edges.length) {
  for (var i=0;i<edges.length;i++) {
    if (edges[i].id.substr(0,4)=='edge') {
      edges[i].setAttribute('class','edge');
    }
  }
}
]]></script>
        <defs>
                <circle id="rim" cx="0" cy="0" r="7"/>
                <circle id="rim2" cx="0" cy="0" r="3.5"/>
                <g id="zoomPlus">
                        <use xlink:href="#rim" fill="#404040">
                                <set attributeName="fill" to="#808080" begin="zoomplus.mouseover" end="zoomplus.mouseout"/>
                        </use>
                        <path d="M-4,0h8M0,-4v8" fill="none" stroke="white" stroke-width="1.5" pointer-events="none"/>
                </g>
                <g id="zoomMin">
                        <use xlink:href="#rim" fill="#404040">
                                <set attributeName="fill" to="#808080" begin="zoomminus.mouseover" end="zoomminus.mouseout"/>
                        </use>
                        <path d="M-4,0h8" fill="none" stroke="white" stroke-width="1.5" pointer-events="none"/>
                </g>
                <g id="dirArrow">
                        <path fill="none" stroke="white" stroke-width="1.5" d="M0,-3.0v7 M-2.5,-0.5L0,-3.0L2.5,-0.5"/>
                </g>
               <g id="resetDef">
                       <use xlink:href="#rim2" fill="#404040">
                               <set attributeName="fill" to="#808080" begin="reset.mouseover" end="reset.mouseout"/>
                       </use>
               </g>
        </defs>

<script type="text/javascript">
var viewWidth = 792;
var viewHeight = 453;
var sectionId = 'dynsection-0';
</script>
<script xlink:href="svgpan.js"/>
<svg id="graph" class="graph">
<g id="viewport">
<title>XMLLogOverride.cpp</title>
<polygon fill="white" stroke="transparent" points="-4,4 -4,-449 788.18,-449 788.18,4 -4,4"/>
<!-- Node1 -->
<g id="node1" class="node">
<title>Node1</title>
<g id="a_node1"><a xlink:title="Utility class implementing a temporary override the severity on error logs.">
<polygon fill="#bfbfbf" stroke="black" points="240,-425.5 240,-444.5 357,-444.5 357,-425.5 240,-425.5"/>
<text text-anchor="middle" x="298.5" y="-432.5" font-family="Helvetica,sans-Serif" font-size="10.00">XMLLogOverride.cpp</text>
</a>
</g>
</g>
<!-- Node2 -->
<g id="node2" class="node">
<title>Node2</title>
<g id="a_node2"><a xlink:href="_x_m_l_log_override_8h.html" target="_top" xlink:title="Utility class implementing a temporary override the severity on error logs.">
<polygon fill="white" stroke="black" points="139,-369.5 139,-388.5 294,-388.5 294,-369.5 139,-369.5"/>
<text text-anchor="middle" x="216.5" y="-376.5" font-family="Helvetica,sans-Serif" font-size="10.00">sbml/xml/XMLLogOverride.h</text>
</a>
</g>
</g>
<!-- Node1&#45;&gt;Node2 -->
<g id="edge1" class="edge">
<title>Node1&#45;&gt;Node2</title>
<path fill="none" stroke="midnightblue" d="M285.33,-425.32C272.65,-416.98 253.27,-404.21 238.29,-394.35"/>
<polygon fill="midnightblue" stroke="midnightblue" points="239.92,-391.23 229.64,-388.65 236.07,-397.08 239.92,-391.23"/>
</g>
<!-- Node17 -->
<g id="node17" class="node">
<title>Node17</title>
<g id="a_node17"><a xlink:href="_x_m_l_error_log_8h.html" target="_top" xlink:title="Stores errors (and messages) encountered while processing XML.">
<polygon fill="white" stroke="black" points="312.5,-369.5 312.5,-388.5 448.5,-388.5 448.5,-369.5 312.5,-369.5"/>
<text text-anchor="middle" x="380.5" y="-376.5" font-family="Helvetica,sans-Serif" font-size="10.00">sbml/xml/XMLErrorLog.h</text>
</a>
</g>
</g>
<!-- Node1&#45;&gt;Node17 -->
<g id="edge23" class="edge">
<title>Node1&#45;&gt;Node17</title>
<path fill="none" stroke="midnightblue" d="M311.67,-425.32C324.35,-416.98 343.73,-404.21 358.71,-394.35"/>
<polygon fill="midnightblue" stroke="midnightblue" points="360.93,-397.08 367.36,-388.65 357.08,-391.23 360.93,-397.08"/>
</g>
<!-- Node3 -->
<g id="node3" class="node">
<title>Node3</title>
<g id="a_node3"><a xlink:href="_x_m_l_extern_8h.html" target="_top" xlink:title="Defines LIBLAX_EXTERN.">
<polygon fill="white" stroke="black" points="0,-257.5 0,-276.5 127,-276.5 127,-257.5 0,-257.5"/>
<text text-anchor="middle" x="63.5" y="-264.5" font-family="Helvetica,sans-Serif" font-size="10.00">sbml/xml/XMLExtern.h</text>
</a>
</g>
</g>
<!-- Node2&#45;&gt;Node3 -->
<g id="edge2" class="edge">
<title>Node2&#45;&gt;Node3</title>
<path fill="none" stroke="midnightblue" d="M186.06,-369.45C164.05,-362.23 134.46,-350.27 112.5,-333 95.9,-319.94 81.97,-299.96 73.26,-285.61"/>
<polygon fill="midnightblue" stroke="midnightblue" points="76.15,-283.6 68.1,-276.72 70.1,-287.12 76.15,-283.6"/>
</g>
<!-- Node5 -->
<g id="node5" class="node">
<title>Node5</title>
<g id="a_node5"><a xlink:href="_x_m_l_error_8h.html" target="_top" xlink:title="Represents errors (and messages) encountered during an XML parse.">
<polygon fill="white" stroke="black" points="162.5,-313.5 162.5,-332.5 280.5,-332.5 280.5,-313.5 162.5,-313.5"/>
<text text-anchor="middle" x="221.5" y="-320.5" font-family="Helvetica,sans-Serif" font-size="10.00">sbml/xml/XMLError.h</text>
</a>
</g>
</g>
<!-- Node2&#45;&gt;Node5 -->
<g id="edge4" class="edge">
<title>Node2&#45;&gt;Node5</title>
<path fill="none" stroke="midnightblue" d="M217.33,-369.08C217.98,-362.01 218.92,-351.86 219.74,-342.99"/>
<polygon fill="midnightblue" stroke="midnightblue" points="223.25,-343.03 220.69,-332.75 216.28,-342.39 223.25,-343.03"/>
</g>
<!-- Node4 -->
<g id="node4" class="node">
<title>Node4</title>
<g id="a_node4"><a xlink:title=" ">
<polygon fill="white" stroke="#bfbfbf" points="599,-0.5 599,-30.5 724,-30.5 724,-0.5 599,-0.5"/>
<text text-anchor="start" x="607" y="-18.5" font-family="Helvetica,sans-Serif" font-size="10.00">sbml/common/libsbml</text>
<text text-anchor="middle" x="661.5" y="-7.5" font-family="Helvetica,sans-Serif" font-size="10.00">&#45;namespace.h</text>
</a>
</g>
</g>
<!-- Node3&#45;&gt;Node4 -->
<g id="edge3" class="edge">
<title>Node3&#45;&gt;Node4</title>
<path fill="none" stroke="midnightblue" d="M68.05,-257.37C76.53,-242.01 96.11,-209.67 120.5,-190 260.83,-76.8 476.59,-36.8 588.51,-23.18"/>
<polygon fill="midnightblue" stroke="midnightblue" points="589.16,-26.63 598.68,-21.98 588.34,-19.67 589.16,-26.63"/>
</g>
<!-- Node5&#45;&gt;Node3 -->
<g id="edge6" class="edge">
<title>Node5&#45;&gt;Node3</title>
<path fill="none" stroke="midnightblue" d="M196.46,-313.44C169.88,-304.36 127.69,-289.94 97.98,-279.78"/>
<polygon fill="midnightblue" stroke="midnightblue" points="99.01,-276.44 88.42,-276.52 96.75,-283.06 99.01,-276.44"/>
</g>
<!-- Node6 -->
<g id="node6" class="node">
<title>Node6</title>
<g id="a_node6"><a xlink:title=" ">
<polygon fill="white" stroke="#bfbfbf" points="129.5,-196 129.5,-215 179.5,-215 179.5,-196 129.5,-196"/>
<text text-anchor="middle" x="154.5" y="-203" font-family="Helvetica,sans-Serif" font-size="10.00">stdio.h</text>
</a>
</g>
</g>
<!-- Node5&#45;&gt;Node6 -->
<g id="edge5" class="edge">
<title>Node5&#45;&gt;Node6</title>
<path fill="none" stroke="midnightblue" d="M220.33,-313.5C218.27,-300.57 213.17,-275.55 202.5,-257 194.79,-243.6 182.81,-230.99 172.75,-221.72"/>
<polygon fill="midnightblue" stroke="midnightblue" points="175.02,-219.06 165.21,-215.06 170.38,-224.3 175.02,-219.06"/>
</g>
<!-- Node7 -->
<g id="node7" class="node">
<title>Node7</title>
<g id="a_node7"><a xlink:href="sbmlfwd_8h.html" target="_top" xlink:title="Forward declarations for all opaque C types.">
<polygon fill="white" stroke="black" points="531.5,-257.5 531.5,-276.5 671.5,-276.5 671.5,-257.5 531.5,-257.5"/>
<text text-anchor="middle" x="601.5" y="-264.5" font-family="Helvetica,sans-Serif" font-size="10.00">sbml/common/sbmlfwd.h</text>
</a>
</g>
</g>
<!-- Node5&#45;&gt;Node7 -->
<g id="edge7" class="edge">
<title>Node5&#45;&gt;Node7</title>
<path fill="none" stroke="midnightblue" d="M280.88,-313.56C348.62,-303.94 459.3,-288.21 531.27,-277.98"/>
<polygon fill="midnightblue" stroke="midnightblue" points="532.19,-281.38 541.6,-276.51 531.21,-274.45 532.19,-281.38"/>
</g>
<!-- Node12 -->
<g id="node12" class="node">
<title>Node12</title>
<g id="a_node12"><a xlink:href="util_8h.html" target="_top" xlink:title="Utility functions.">
<polygon fill="white" stroke="black" points="250,-257.5 250,-276.5 337,-276.5 337,-257.5 250,-257.5"/>
<text text-anchor="middle" x="293.5" y="-264.5" font-family="Helvetica,sans-Serif" font-size="10.00">sbml/util/util.h</text>
</a>
</g>
</g>
<!-- Node5&#45;&gt;Node12 -->
<g id="edge15" class="edge">
<title>Node5&#45;&gt;Node12</title>
<path fill="none" stroke="midnightblue" d="M233.07,-313.32C243.92,-305.18 260.38,-292.84 273.38,-283.09"/>
<polygon fill="midnightblue" stroke="midnightblue" points="275.82,-285.63 281.72,-276.83 271.62,-280.03 275.82,-285.63"/>
</g>
<!-- Node14 -->
<g id="node14" class="node">
<title>Node14</title>
<g id="a_node14"><a xlink:title=" ">
<polygon fill="white" stroke="#bfbfbf" points="145.5,-257.5 145.5,-276.5 193.5,-276.5 193.5,-257.5 145.5,-257.5"/>
<text text-anchor="middle" x="169.5" y="-264.5" font-family="Helvetica,sans-Serif" font-size="10.00">iosfwd</text>
</a>
</g>
</g>
<!-- Node5&#45;&gt;Node14 -->
<g id="edge19" class="edge">
<title>Node5&#45;&gt;Node14</title>
<path fill="none" stroke="midnightblue" d="M212.91,-313.08C205.34,-305.22 194.12,-293.57 184.99,-284.08"/>
<polygon fill="midnightblue" stroke="midnightblue" points="187.38,-281.53 177.93,-276.75 182.34,-286.38 187.38,-281.53"/>
</g>
<!-- Node15 -->
<g id="node15" class="node">
<title>Node15</title>
<g id="a_node15"><a xlink:title=" ">
<polygon fill="white" stroke="#bfbfbf" points="399.5,-257.5 399.5,-276.5 443.5,-276.5 443.5,-257.5 399.5,-257.5"/>
<text text-anchor="middle" x="421.5" y="-264.5" font-family="Helvetica,sans-Serif" font-size="10.00">string</text>
</a>
</g>
</g>
<!-- Node5&#45;&gt;Node15 -->
<g id="edge20" class="edge">
<title>Node5&#45;&gt;Node15</title>
<path fill="none" stroke="midnightblue" d="M253.19,-313.44C290.44,-303.39 351.92,-286.79 389.36,-276.68"/>
<polygon fill="midnightblue" stroke="midnightblue" points="390.5,-279.99 399.25,-274.01 388.68,-273.24 390.5,-279.99"/>
</g>
<!-- Node16 -->
<g id="node16" class="node">
<title>Node16</title>
<g id="a_node16"><a xlink:href="operation_return_values_8h.html" target="_top" xlink:title="Enumeration of values returned by operations within libSBML.">
<polygon fill="white" stroke="black" points="296.5,-123.5 296.5,-153.5 464.5,-153.5 464.5,-123.5 296.5,-123.5"/>
<text text-anchor="start" x="304.5" y="-141.5" font-family="Helvetica,sans-Serif" font-size="10.00">sbml/common/operationReturn</text>
<text text-anchor="middle" x="380.5" y="-130.5" font-family="Helvetica,sans-Serif" font-size="10.00">Values.h</text>
</a>
</g>
</g>
<!-- Node5&#45;&gt;Node16 -->
<g id="edge21" class="edge">
<title>Node5&#45;&gt;Node16</title>
<path fill="none" stroke="midnightblue" d="M278.4,-313.43C302.16,-307.1 328.2,-296.1 345.5,-277 374.07,-245.45 380.02,-193.86 380.87,-163.64"/>
<polygon fill="midnightblue" stroke="midnightblue" points="384.37,-163.6 380.98,-153.56 377.37,-163.52 384.37,-163.6"/>
</g>
<!-- Node7&#45;&gt;Node4 -->
<g id="edge8" class="edge">
<title>Node7&#45;&gt;Node4</title>
<path fill="none" stroke="midnightblue" d="M634.17,-257.41C677.63,-243.89 751.85,-212.9 776.5,-154 791.86,-117.31 781.68,-96.95 755.5,-67 743.58,-53.36 727.04,-42.77 711.16,-34.89"/>
<polygon fill="midnightblue" stroke="midnightblue" points="712.47,-31.64 701.93,-30.56 709.5,-37.98 712.47,-31.64"/>
</g>
<!-- Node8 -->
<g id="node8" class="node">
<title>Node8</title>
<g id="a_node8"><a xlink:href="libsbml-config_8h.html" target="_top" xlink:title="Decides whether to #include Unix or Windows configuration variables.">
<polygon fill="white" stroke="black" points="574,-190.5 574,-220.5 699,-220.5 699,-190.5 574,-190.5"/>
<text text-anchor="start" x="582" y="-208.5" font-family="Helvetica,sans-Serif" font-size="10.00">sbml/common/libsbml</text>
<text text-anchor="middle" x="636.5" y="-197.5" font-family="Helvetica,sans-Serif" font-size="10.00">&#45;config.h</text>
</a>
</g>
</g>
<!-- Node7&#45;&gt;Node8 -->
<g id="edge9" class="edge">
<title>Node7&#45;&gt;Node8</title>
<path fill="none" stroke="midnightblue" d="M606.51,-257.48C610.86,-250.09 617.34,-239.08 623.16,-229.17"/>
<polygon fill="midnightblue" stroke="midnightblue" points="626.2,-230.92 628.25,-220.52 620.16,-227.37 626.2,-230.92"/>
</g>
<!-- Node8&#45;&gt;Node4 -->
<g id="edge10" class="edge">
<title>Node8&#45;&gt;Node4</title>
<path fill="none" stroke="midnightblue" d="M699.02,-193.94C722,-186.7 745.75,-174.52 759.5,-154 788.11,-111.33 731.62,-62.65 693.14,-36.18"/>
<polygon fill="midnightblue" stroke="midnightblue" points="695.02,-33.22 684.76,-30.56 691.12,-39.04 695.02,-33.22"/>
</g>
<!-- Node9 -->
<g id="node9" class="node">
<title>Node9</title>
<g id="a_node9"><a xlink:title=" ">
<polygon fill="white" stroke="#bfbfbf" points="625,-123.5 625,-153.5 750,-153.5 750,-123.5 625,-123.5"/>
<text text-anchor="start" x="633" y="-141.5" font-family="Helvetica,sans-Serif" font-size="10.00">sbml/common/libsbml</text>
<text text-anchor="middle" x="687.5" y="-130.5" font-family="Helvetica,sans-Serif" font-size="10.00">&#45;config&#45;common.h</text>
</a>
</g>
</g>
<!-- Node8&#45;&gt;Node9 -->
<g id="edge11" class="edge">
<title>Node8&#45;&gt;Node9</title>
<path fill="none" stroke="midnightblue" d="M647.57,-190.4C654.18,-181.96 662.73,-171.07 670.22,-161.52"/>
<polygon fill="midnightblue" stroke="midnightblue" points="673.04,-163.6 676.46,-153.58 667.53,-159.28 673.04,-163.6"/>
</g>
<!-- Node10 -->
<g id="node10" class="node">
<title>Node10</title>
<g id="a_node10"><a xlink:href="libsbml-version_8h.html" target="_top" xlink:title="Define libSBML version numbers for access from client software.">
<polygon fill="white" stroke="black" points="482,-123.5 482,-153.5 607,-153.5 607,-123.5 482,-123.5"/>
<text text-anchor="start" x="490" y="-141.5" font-family="Helvetica,sans-Serif" font-size="10.00">sbml/common/libsbml</text>
<text text-anchor="middle" x="544.5" y="-130.5" font-family="Helvetica,sans-Serif" font-size="10.00">&#45;version.h</text>
</a>
</g>
</g>
<!-- Node8&#45;&gt;Node10 -->
<g id="edge12" class="edge">
<title>Node8&#45;&gt;Node10</title>
<path fill="none" stroke="midnightblue" d="M616.54,-190.4C603.76,-181.37 586.98,-169.51 572.83,-159.52"/>
<polygon fill="midnightblue" stroke="midnightblue" points="574.61,-156.49 564.42,-153.58 570.57,-162.21 574.61,-156.49"/>
</g>
<!-- Node11 -->
<g id="node11" class="node">
<title>Node11</title>
<g id="a_node11"><a xlink:href="extern_8h.html" target="_top" xlink:title="Definitions of LIBSBML_EXTERN and related things.">
<polygon fill="white" stroke="black" points="397.5,-67.5 397.5,-86.5 527.5,-86.5 527.5,-67.5 397.5,-67.5"/>
<text text-anchor="middle" x="462.5" y="-74.5" font-family="Helvetica,sans-Serif" font-size="10.00">sbml/common/extern.h</text>
</a>
</g>
</g>
<!-- Node10&#45;&gt;Node11 -->
<g id="edge13" class="edge">
<title>Node10&#45;&gt;Node11</title>
<path fill="none" stroke="midnightblue" d="M525.07,-123.4C512.29,-114.13 495.61,-102.03 482.69,-92.65"/>
<polygon fill="midnightblue" stroke="midnightblue" points="484.58,-89.7 474.43,-86.66 480.47,-95.36 484.58,-89.7"/>
</g>
<!-- Node11&#45;&gt;Node4 -->
<g id="edge14" class="edge">
<title>Node11&#45;&gt;Node4</title>
<path fill="none" stroke="midnightblue" d="M491.01,-67.48C520.61,-58.63 567.69,-44.55 604.88,-33.43"/>
<polygon fill="midnightblue" stroke="midnightblue" points="606.02,-36.74 614.6,-30.52 604.02,-30.03 606.02,-36.74"/>
</g>
<!-- Node12&#45;&gt;Node6 -->
<g id="edge16" class="edge">
<title>Node12&#45;&gt;Node6</title>
<path fill="none" stroke="midnightblue" d="M273.58,-257.48C250.05,-247.4 210.69,-230.55 183.71,-219"/>
<polygon fill="midnightblue" stroke="midnightblue" points="184.95,-215.73 174.38,-215.01 182.19,-222.16 184.95,-215.73"/>
</g>
<!-- Node12&#45;&gt;Node11 -->
<g id="edge18" class="edge">
<title>Node12&#45;&gt;Node11</title>
<path fill="none" stroke="midnightblue" d="M289.75,-257.46C279.81,-233.38 255.68,-164.04 287.5,-123 300.14,-106.7 345.94,-95.28 387.52,-88.02"/>
<polygon fill="midnightblue" stroke="midnightblue" points="388.14,-91.46 397.42,-86.35 386.98,-84.56 388.14,-91.46"/>
</g>
<!-- Node13 -->
<g id="node13" class="node">
<title>Node13</title>
<g id="a_node13"><a xlink:title=" ">
<polygon fill="white" stroke="#bfbfbf" points="197.5,-196 197.5,-215 253.5,-215 253.5,-196 197.5,-196"/>
<text text-anchor="middle" x="225.5" y="-203" font-family="Helvetica,sans-Serif" font-size="10.00">stdarg.h</text>
</a>
</g>
</g>
<!-- Node12&#45;&gt;Node13 -->
<g id="edge17" class="edge">
<title>Node12&#45;&gt;Node13</title>
<path fill="none" stroke="midnightblue" d="M283.76,-257.48C273.15,-248.2 255.98,-233.17 243.02,-221.83"/>
<polygon fill="midnightblue" stroke="midnightblue" points="245.06,-218.96 235.22,-215.01 240.45,-224.23 245.06,-218.96"/>
</g>
<!-- Node16&#45;&gt;Node11 -->
<g id="edge22" class="edge">
<title>Node16&#45;&gt;Node11</title>
<path fill="none" stroke="midnightblue" d="M399.93,-123.4C412.71,-114.13 429.39,-102.03 442.31,-92.65"/>
<polygon fill="midnightblue" stroke="midnightblue" points="444.53,-95.36 450.57,-86.66 440.42,-89.7 444.53,-95.36"/>
</g>
<!-- Node17&#45;&gt;Node3 -->
<g id="edge24" class="edge">
<title>Node17&#45;&gt;Node3</title>
<path fill="none" stroke="midnightblue" d="M322.96,-369.47C266.06,-360.51 183.29,-345.97 153.5,-333 125.25,-320.7 97.19,-298.42 80.1,-283.42"/>
<polygon fill="midnightblue" stroke="midnightblue" points="82.41,-280.79 72.63,-276.71 77.73,-286 82.41,-280.79"/>
</g>
<!-- Node17&#45;&gt;Node5 -->
<g id="edge25" class="edge">
<title>Node17&#45;&gt;Node5</title>
<path fill="none" stroke="midnightblue" d="M355.31,-369.44C328.56,-360.36 286.1,-345.94 256.19,-335.78"/>
<polygon fill="midnightblue" stroke="midnightblue" points="257.17,-332.42 246.58,-332.52 254.92,-339.05 257.17,-332.42"/>
</g>
<!-- Node17&#45;&gt;Node7 -->
<g id="edge26" class="edge">
<title>Node17&#45;&gt;Node7</title>
<path fill="none" stroke="midnightblue" d="M392.14,-369.33C410.44,-355.98 447.4,-330.12 481.5,-313 508.24,-299.57 540,-287.84 564.12,-279.72"/>
<polygon fill="midnightblue" stroke="midnightblue" points="565.23,-283.04 573.63,-276.57 563.04,-276.39 565.23,-283.04"/>
</g>
<!-- Node17&#45;&gt;Node15 -->
<g id="edge28" class="edge">
<title>Node17&#45;&gt;Node15</title>
<path fill="none" stroke="midnightblue" d="M386.2,-369.38C391.81,-360.56 400.27,-346.31 405.5,-333 411.41,-317.94 415.63,-300.04 418.24,-286.84"/>
<polygon fill="midnightblue" stroke="midnightblue" points="421.75,-287.11 420.13,-276.64 414.87,-285.83 421.75,-287.11"/>
</g>
<!-- Node18 -->
<g id="node18" class="node">
<title>Node18</title>
<g id="a_node18"><a xlink:title=" ">
<polygon fill="white" stroke="#bfbfbf" points="490.5,-313.5 490.5,-332.5 550.5,-332.5 550.5,-313.5 490.5,-313.5"/>
<text text-anchor="middle" x="520.5" y="-320.5" font-family="Helvetica,sans-Serif" font-size="10.00">iostream</text>
</a>
</g>
</g>
<!-- Node17&#45;&gt;Node18 -->
<g id="edge27" class="edge">
<title>Node17&#45;&gt;Node18</title>
<path fill="none" stroke="midnightblue" d="M402.68,-369.44C425.93,-360.48 462.65,-346.31 488.92,-336.18"/>
<polygon fill="midnightblue" stroke="midnightblue" points="490.35,-339.38 498.42,-332.52 487.83,-332.85 490.35,-339.38"/>
</g>
<!-- Node19 -->
<g id="node19" class="node">
<title>Node19</title>
<g id="a_node19"><a xlink:title=" ">
<polygon fill="white" stroke="#bfbfbf" points="299,-313.5 299,-332.5 346,-332.5 346,-313.5 299,-313.5"/>
<text text-anchor="middle" x="322.5" y="-320.5" font-family="Helvetica,sans-Serif" font-size="10.00">vector</text>
</a>
</g>
</g>
<!-- Node17&#45;&gt;Node19 -->
<g id="edge29" class="edge">
<title>Node17&#45;&gt;Node19</title>
<path fill="none" stroke="midnightblue" d="M371.18,-369.32C362.61,-361.34 349.69,-349.31 339.31,-339.65"/>
<polygon fill="midnightblue" stroke="midnightblue" points="341.69,-337.09 331.99,-332.83 336.92,-342.21 341.69,-337.09"/>
</g>
<!-- Node20 -->
<g id="node20" class="node">
<title>Node20</title>
<g id="a_node20"><a xlink:title=" ">
<polygon fill="white" stroke="#bfbfbf" points="364.5,-313.5 364.5,-332.5 396.5,-332.5 396.5,-313.5 364.5,-313.5"/>
<text text-anchor="middle" x="380.5" y="-320.5" font-family="Helvetica,sans-Serif" font-size="10.00">list</text>
</a>
</g>
</g>
<!-- Node17&#45;&gt;Node20 -->
<g id="edge30" class="edge">
<title>Node17&#45;&gt;Node20</title>
<path fill="none" stroke="midnightblue" d="M380.5,-369.08C380.5,-362.01 380.5,-351.86 380.5,-342.99"/>
<polygon fill="midnightblue" stroke="midnightblue" points="384,-342.75 380.5,-332.75 377,-342.75 384,-342.75"/>
</g>
</g>
</svg>
        <g id="navigator" transform="translate(0 0)" fill="#404254">
                <rect fill="#f2f5e9" fill-opacity="0.5" stroke="#606060" stroke-width=".5" x="0" y="0" width="60" height="60"/>
                <use id="zoomplus" xlink:href="#zoomPlus" x="17" y="9" onmousedown="handleZoom(evt,'in')"/>
                <use id="zoomminus" xlink:href="#zoomMin" x="42" y="9" onmousedown="handleZoom(evt,'out')"/>
                <use id="reset" xlink:href="#resetDef" x="30" y="36" onmousedown="handleReset()"/>
                <g id="arrowUp" xlink:href="#dirArrow" transform="translate(30 24)" onmousedown="handlePan(0,-1)">
                  <use xlink:href="#rim" fill="#404040">
                        <set attributeName="fill" to="#808080" begin="arrowUp.mouseover" end="arrowUp.mouseout"/>
                  </use>
                  <path fill="none" stroke="white" stroke-width="1.5" d="M0,-3.0v7 M-2.5,-0.5L0,-3.0L2.5,-0.5"/>
                </g>
                <g id="arrowRight" xlink:href="#dirArrow" transform="rotate(90) translate(36 -43)" onmousedown="handlePan(1,0)">
                  <use xlink:href="#rim" fill="#404040">
                        <set attributeName="fill" to="#808080" begin="arrowRight.mouseover" end="arrowRight.mouseout"/>
                  </use>
                  <path fill="none" stroke="white" stroke-width="1.5" d="M0,-3.0v7 M-2.5,-0.5L0,-3.0L2.5,-0.5"/>
                </g>
                <g id="arrowDown" xlink:href="#dirArrow" transform="rotate(180) translate(-30 -48)" onmousedown="handlePan(0,1)">
                  <use xlink:href="#rim" fill="#404040">
                        <set attributeName="fill" to="#808080" begin="arrowDown.mouseover" end="arrowDown.mouseout"/>
                  </use>
                  <path fill="none" stroke="white" stroke-width="1.5" d="M0,-3.0v7 M-2.5,-0.5L0,-3.0L2.5,-0.5"/>
                </g>
                <g id="arrowLeft" xlink:href="#dirArrow" transform="rotate(270) translate(-36 17)" onmousedown="handlePan(-1,0)">
                  <use xlink:href="#rim" fill="#404040">
                        <set attributeName="fill" to="#808080" begin="arrowLeft.mouseover" end="arrowLeft.mouseout"/>
                  </use>
                  <path fill="none" stroke="white" stroke-width="1.5" d="M0,-3.0v7 M-2.5,-0.5L0,-3.0L2.5,-0.5"/>
                </g>
        </g>
        <svg viewBox="0 0 15 15" width="100%" height="30px" preserveAspectRatio="xMaxYMin meet">
         <g id="arrow_out" transform="scale(0.3 0.3)">
          <a xlink:href="_x_m_l_log_override_8cpp__incl_org.svg" target="_base">
           <rect id="button" ry="5" rx="5" y="6" x="6" height="38" width="38"
                fill="#f2f5e9" fill-opacity="0.5" stroke="#606060" stroke-width="1.0"/>
           <path id="arrow"
             d="M 11.500037,31.436501 C 11.940474,20.09759 22.043105,11.32322 32.158766,21.979434 L 37.068811,17.246167 C 37.068811,17.246167 37.088388,32 37.088388,32 L 22.160133,31.978069 C 22.160133,31.978069 26.997745,27.140456 26.997745,27.140456 C 18.528582,18.264221 13.291696,25.230495 11.500037,31.436501 z"
             style="fill:#404040;"/>
          </a>
         </g>
        </svg>
</svg>
