<?xml version="1.0" encoding="UTF-8" standalone="no"?>
<!DOCTYPE svg PUBLIC "-//W3C//DTD SVG 1.1//EN"
 "http://www.w3.org/Graphics/SVG/1.1/DTD/svg11.dtd">
<!-- Generated by graphviz version 2.43.0 (0)
 -->
<!-- Title: XMLNamespaces.cpp Pages: 1 -->
<!--zoomable 464 -->
<svg id="main" version="1.1" xmlns="http://www.w3.org/2000/svg" xmlns:xlink="http://www.w3.org/1999/xlink" xml:space="preserve" onload="init(evt)">
<style type="text/css"><![CDATA[
.edge:hover path { stroke: red; }
.edge:hover polygon { stroke: red; fill: red; }
]]></style>
<script type="text/javascript"><![CDATA[
var edges = document.getElementsByTagName('g');
if (edges && edges.length) {
  for (var i=0;i<edges.length;i++) {
    if (edges[i].id.substr(0,4)=='edge') {
      edges[i].setAttribute('class','edge');
    }
  }
}
]]></script>
        <defs>
                <circle id="rim" cx="0" cy="0" r="7"/>
                <circle id="rim2" cx="0" cy="0" r="3.5"/>
                <g id="zoomPlus">
                        <use xlink:href="#rim" fill="#404040">
                                <set attributeName="fill" to="#808080" begin="zoomplus.mouseover" end="zoomplus.mouseout"/>
                        </use>
                        <path d="M-4,0h8M0,-4v8" fill="none" stroke="white" stroke-width="1.5" pointer-events="none"/>
                </g>
                <g id="zoomMin">
                        <use xlink:href="#rim" fill="#404040">
                                <set attributeName="fill" to="#808080" begin="zoomminus.mouseover" end="zoomminus.mouseout"/>
                        </use>
                        <path d="M-4,0h8" fill="none" stroke="white" stroke-width="1.5" pointer-events="none"/>
                </g>
                <g id="dirArrow">
                        <path fill="none" stroke="white" stroke-width="1.5" d="M0,-3.0v7 M-2.5,-0.5L0,-3.0L2.5,-0.5"/>
                </g>
               <g id="resetDef">
                       <use xlink:href="#rim2" fill="#404040">
                               <set attributeName="fill" to="#808080" begin="reset.mouseover" end="reset.mouseout"/>
                       </use>
               </g>
        </defs>

<script type="text/javascript">
var viewWidth = 1070;
var viewHeight = 464;
var sectionId = 'dynsection-0';
</script>
<script xlink:href="svgpan.js"/>
<svg id="graph" class="graph">
<g id="viewport">
<title>XMLNamespaces.cpp</title>
<polygon fill="white" stroke="transparent" points="-4,4 -4,-460 1066,-460 1066,4 -4,4"/>
<!-- Node1 -->
<g id="node1" class="node">
<title>Node1</title>
<g id="a_node1"><a xlink:title="A list of XMLNamespace declarations (URI/prefix pairs)">
<polygon fill="#bfbfbf" stroke="black" points="484,-436.5 484,-455.5 605,-455.5 605,-436.5 484,-436.5"/>
<text text-anchor="middle" x="544.5" y="-443.5" font-family="Helvetica,sans-Serif" font-size="10.00">XMLNamespaces.cpp</text>
</a>
</g>
</g>
<!-- Node2 -->
<g id="node2" class="node">
<title>Node2</title>
<g id="a_node2"><a xlink:href="_x_m_l_triple_8h.html" target="_top" xlink:title="Stores an XML namespace triple.">
<polygon fill="white" stroke="black" points="416,-324.5 416,-343.5 537,-343.5 537,-324.5 416,-324.5"/>
<text text-anchor="middle" x="476.5" y="-331.5" font-family="Helvetica,sans-Serif" font-size="10.00">sbml/xml/XMLTriple.h</text>
</a>
</g>
</g>
<!-- Node1&#45;&gt;Node2 -->
<g id="edge1" class="edge">
<title>Node1&#45;&gt;Node2</title>
<path fill="none" stroke="midnightblue" d="M533.47,-436.44C523.39,-428.1 508.7,-414.58 499.5,-400 490.42,-385.6 484.33,-367.15 480.71,-353.58"/>
<polygon fill="midnightblue" stroke="midnightblue" points="484.03,-352.41 478.24,-343.53 477.23,-354.08 484.03,-352.41"/>
</g>
<!-- Node11 -->
<g id="node11" class="node">
<title>Node11</title>
<g id="a_node11"><a xlink:href="_x_m_l_namespaces_8h.html" target="_top" xlink:title="A list of XMLNamespace declarations (URI/prefix pairs)">
<polygon fill="white" stroke="black" points="201.5,-324.5 201.5,-343.5 359.5,-343.5 359.5,-324.5 201.5,-324.5"/>
<text text-anchor="middle" x="280.5" y="-331.5" font-family="Helvetica,sans-Serif" font-size="10.00">sbml/xml/XMLNamespaces.h</text>
</a>
</g>
</g>
<!-- Node1&#45;&gt;Node11 -->
<g id="edge13" class="edge">
<title>Node1&#45;&gt;Node11</title>
<path fill="none" stroke="midnightblue" d="M483.97,-441.07C420.4,-435.72 326.03,-423.94 299.5,-400 286.56,-388.33 282.24,-368.38 280.89,-353.66"/>
<polygon fill="midnightblue" stroke="midnightblue" points="284.38,-353.43 280.34,-343.64 277.39,-353.81 284.38,-353.43"/>
</g>
<!-- Node14 -->
<g id="node14" class="node">
<title>Node14</title>
<g id="a_node14"><a xlink:href="_x_m_l_attributes_8h.html" target="_top" xlink:title="XMLAttributes are a list of name/value pairs for XML elements.">
<polygon fill="white" stroke="black" points="308.5,-380.5 308.5,-399.5 452.5,-399.5 452.5,-380.5 308.5,-380.5"/>
<text text-anchor="middle" x="380.5" y="-387.5" font-family="Helvetica,sans-Serif" font-size="10.00">sbml/xml/XMLAttributes.h</text>
</a>
</g>
</g>
<!-- Node1&#45;&gt;Node14 -->
<g id="edge20" class="edge">
<title>Node1&#45;&gt;Node14</title>
<path fill="none" stroke="midnightblue" d="M518.51,-436.44C490.8,-427.32 446.75,-412.81 415.88,-402.65"/>
<polygon fill="midnightblue" stroke="midnightblue" points="416.96,-399.32 406.36,-399.52 414.77,-405.97 416.96,-399.32"/>
</g>
<!-- Node16 -->
<g id="node16" class="node">
<title>Node16</title>
<g id="a_node16"><a xlink:href="_x_m_l_constructor_exception_8h.html" target="_top" xlink:title="XMLConstructorException an exception thrown by XML classes.">
<polygon fill="white" stroke="black" points="508.5,-380.5 508.5,-399.5 708.5,-399.5 708.5,-380.5 508.5,-380.5"/>
<text text-anchor="middle" x="608.5" y="-387.5" font-family="Helvetica,sans-Serif" font-size="10.00">sbml/xml/XMLConstructorException.h</text>
</a>
</g>
</g>
<!-- Node1&#45;&gt;Node16 -->
<g id="edge28" class="edge">
<title>Node1&#45;&gt;Node16</title>
<path fill="none" stroke="midnightblue" d="M554.78,-436.32C564.34,-428.26 578.78,-416.08 590.28,-406.37"/>
<polygon fill="midnightblue" stroke="midnightblue" points="592.64,-408.96 598.03,-399.83 588.13,-403.61 592.64,-408.96"/>
</g>
<!-- Node17 -->
<g id="node17" class="node">
<title>Node17</title>
<g id="a_node17"><a xlink:href="_s_b_m_l_namespaces_8h.html" target="_top" xlink:title="SBMLNamespaces class to store level/version and namespace.">
<polygon fill="white" stroke="black" points="727,-380.5 727,-399.5 870,-399.5 870,-380.5 727,-380.5"/>
<text text-anchor="middle" x="798.5" y="-387.5" font-family="Helvetica,sans-Serif" font-size="10.00">sbml/SBMLNamespaces.h</text>
</a>
</g>
</g>
<!-- Node1&#45;&gt;Node17 -->
<g id="edge32" class="edge">
<title>Node1&#45;&gt;Node17</title>
<path fill="none" stroke="midnightblue" d="M584.75,-436.44C629.15,-427 700.65,-411.8 748.59,-401.61"/>
<polygon fill="midnightblue" stroke="midnightblue" points="749.39,-405.02 758.44,-399.52 747.93,-398.17 749.39,-405.02"/>
</g>
<!-- Node23 -->
<g id="node23" class="node">
<title>Node23</title>
<g id="a_node23"><a xlink:href="_list_8h.html" target="_top" xlink:title="Simple, generic list utility class.">
<polygon fill="white" stroke="black" points="936,-380.5 936,-399.5 1025,-399.5 1025,-380.5 936,-380.5"/>
<text text-anchor="middle" x="980.5" y="-387.5" font-family="Helvetica,sans-Serif" font-size="10.00">sbml/util/List.h</text>
</a>
</g>
</g>
<!-- Node1&#45;&gt;Node23 -->
<g id="edge45" class="edge">
<title>Node1&#45;&gt;Node23</title>
<path fill="none" stroke="midnightblue" d="M605.12,-437.49C690.28,-426.94 844.04,-407.9 925.84,-397.77"/>
<polygon fill="midnightblue" stroke="midnightblue" points="926.44,-401.22 935.93,-396.52 925.58,-394.28 926.44,-401.22"/>
</g>
<!-- Node3 -->
<g id="node3" class="node">
<title>Node3</title>
<g id="a_node3"><a xlink:href="_x_m_l_extern_8h.html" target="_top" xlink:title="Defines LIBLAX_EXTERN.">
<polygon fill="white" stroke="black" points="251,-263 251,-282 378,-282 378,-263 251,-263"/>
<text text-anchor="middle" x="314.5" y="-270" font-family="Helvetica,sans-Serif" font-size="10.00">sbml/xml/XMLExtern.h</text>
</a>
</g>
</g>
<!-- Node2&#45;&gt;Node3 -->
<g id="edge2" class="edge">
<title>Node2&#45;&gt;Node3</title>
<path fill="none" stroke="midnightblue" d="M453.29,-324.48C425.5,-314.27 378.78,-297.11 347.31,-285.55"/>
<polygon fill="midnightblue" stroke="midnightblue" points="348.26,-282.17 337.67,-282.01 345.85,-288.74 348.26,-282.17"/>
</g>
<!-- Node5 -->
<g id="node5" class="node">
<title>Node5</title>
<g id="a_node5"><a xlink:href="sbmlfwd_8h.html" target="_top" xlink:title="Forward declarations for all opaque C types.">
<polygon fill="white" stroke="black" points="396.5,-263 396.5,-282 536.5,-282 536.5,-263 396.5,-263"/>
<text text-anchor="middle" x="466.5" y="-270" font-family="Helvetica,sans-Serif" font-size="10.00">sbml/common/sbmlfwd.h</text>
</a>
</g>
</g>
<!-- Node2&#45;&gt;Node5 -->
<g id="edge4" class="edge">
<title>Node2&#45;&gt;Node5</title>
<path fill="none" stroke="midnightblue" d="M475.07,-324.48C473.66,-316.08 471.45,-302.98 469.64,-292.16"/>
<polygon fill="midnightblue" stroke="midnightblue" points="473.04,-291.29 467.93,-282.01 466.14,-292.45 473.04,-291.29"/>
</g>
<!-- Node10 -->
<g id="node10" class="node">
<title>Node10</title>
<g id="a_node10"><a xlink:title=" ">
<polygon fill="white" stroke="#bfbfbf" points="554.5,-263 554.5,-282 598.5,-282 598.5,-263 554.5,-263"/>
<text text-anchor="middle" x="576.5" y="-270" font-family="Helvetica,sans-Serif" font-size="10.00">string</text>
</a>
</g>
</g>
<!-- Node2&#45;&gt;Node10 -->
<g id="edge12" class="edge">
<title>Node2&#45;&gt;Node10</title>
<path fill="none" stroke="midnightblue" d="M490.83,-324.48C507.16,-314.75 534.1,-298.73 553.41,-287.24"/>
<polygon fill="midnightblue" stroke="midnightblue" points="555.39,-290.13 562.2,-282.01 551.82,-284.11 555.39,-290.13"/>
</g>
<!-- Node4 -->
<g id="node4" class="node">
<title>Node4</title>
<g id="a_node4"><a xlink:title=" ">
<polygon fill="white" stroke="#bfbfbf" points="282,-0.5 282,-30.5 407,-30.5 407,-0.5 282,-0.5"/>
<text text-anchor="start" x="290" y="-18.5" font-family="Helvetica,sans-Serif" font-size="10.00">sbml/common/libsbml</text>
<text text-anchor="middle" x="344.5" y="-7.5" font-family="Helvetica,sans-Serif" font-size="10.00">&#45;namespace.h</text>
</a>
</g>
</g>
<!-- Node3&#45;&gt;Node4 -->
<g id="edge3" class="edge">
<title>Node3&#45;&gt;Node4</title>
<path fill="none" stroke="midnightblue" d="M312.53,-262.67C306.48,-233.8 289.82,-139.83 311.5,-67 314.47,-57.02 320.12,-47.17 325.91,-38.86"/>
<polygon fill="midnightblue" stroke="midnightblue" points="328.73,-40.93 331.89,-30.81 323.11,-36.75 328.73,-40.93"/>
</g>
<!-- Node5&#45;&gt;Node4 -->
<g id="edge5" class="edge">
<title>Node5&#45;&gt;Node4</title>
<path fill="none" stroke="midnightblue" d="M457.04,-262.95C446.96,-253.47 431.06,-237.34 420.5,-221 382.18,-161.7 359.37,-80.33 349.8,-40.47"/>
<polygon fill="midnightblue" stroke="midnightblue" points="353.18,-39.55 347.5,-30.61 346.36,-41.14 353.18,-39.55"/>
</g>
<!-- Node6 -->
<g id="node6" class="node">
<title>Node6</title>
<g id="a_node6"><a xlink:href="libsbml-config_8h.html" target="_top" xlink:title="Decides whether to #include Unix or Windows configuration variables.">
<polygon fill="white" stroke="black" points="430,-190.5 430,-220.5 555,-220.5 555,-190.5 430,-190.5"/>
<text text-anchor="start" x="438" y="-208.5" font-family="Helvetica,sans-Serif" font-size="10.00">sbml/common/libsbml</text>
<text text-anchor="middle" x="492.5" y="-197.5" font-family="Helvetica,sans-Serif" font-size="10.00">&#45;config.h</text>
</a>
</g>
</g>
<!-- Node5&#45;&gt;Node6 -->
<g id="edge6" class="edge">
<title>Node5&#45;&gt;Node6</title>
<path fill="none" stroke="midnightblue" d="M470.01,-262.73C473.35,-254.37 478.54,-241.4 483.09,-230.02"/>
<polygon fill="midnightblue" stroke="midnightblue" points="486.4,-231.17 486.86,-220.59 479.9,-228.57 486.4,-231.17"/>
</g>
<!-- Node6&#45;&gt;Node4 -->
<g id="edge7" class="edge">
<title>Node6&#45;&gt;Node4</title>
<path fill="none" stroke="midnightblue" d="M466.64,-190.36C451.84,-181.36 433.66,-168.65 420.5,-154 389.19,-119.16 365.68,-69.18 353.6,-40.05"/>
<polygon fill="midnightblue" stroke="midnightblue" points="356.81,-38.64 349.81,-30.68 350.32,-41.26 356.81,-38.64"/>
</g>
<!-- Node7 -->
<g id="node7" class="node">
<title>Node7</title>
<g id="a_node7"><a xlink:title=" ">
<polygon fill="white" stroke="#bfbfbf" points="573,-123.5 573,-153.5 698,-153.5 698,-123.5 573,-123.5"/>
<text text-anchor="start" x="581" y="-141.5" font-family="Helvetica,sans-Serif" font-size="10.00">sbml/common/libsbml</text>
<text text-anchor="middle" x="635.5" y="-130.5" font-family="Helvetica,sans-Serif" font-size="10.00">&#45;config&#45;common.h</text>
</a>
</g>
</g>
<!-- Node6&#45;&gt;Node7 -->
<g id="edge8" class="edge">
<title>Node6&#45;&gt;Node7</title>
<path fill="none" stroke="midnightblue" d="M523.53,-190.4C544.52,-180.86 572.44,-168.16 595.15,-157.84"/>
<polygon fill="midnightblue" stroke="midnightblue" points="596.88,-160.9 604.53,-153.58 593.98,-154.53 596.88,-160.9"/>
</g>
<!-- Node8 -->
<g id="node8" class="node">
<title>Node8</title>
<g id="a_node8"><a xlink:href="libsbml-version_8h.html" target="_top" xlink:title="Define libSBML version numbers for access from client software.">
<polygon fill="white" stroke="black" points="430,-123.5 430,-153.5 555,-153.5 555,-123.5 430,-123.5"/>
<text text-anchor="start" x="438" y="-141.5" font-family="Helvetica,sans-Serif" font-size="10.00">sbml/common/libsbml</text>
<text text-anchor="middle" x="492.5" y="-130.5" font-family="Helvetica,sans-Serif" font-size="10.00">&#45;version.h</text>
</a>
</g>
</g>
<!-- Node6&#45;&gt;Node8 -->
<g id="edge9" class="edge">
<title>Node6&#45;&gt;Node8</title>
<path fill="none" stroke="midnightblue" d="M492.5,-190.4C492.5,-182.64 492.5,-172.81 492.5,-163.86"/>
<polygon fill="midnightblue" stroke="midnightblue" points="496,-163.58 492.5,-153.58 489,-163.58 496,-163.58"/>
</g>
<!-- Node9 -->
<g id="node9" class="node">
<title>Node9</title>
<g id="a_node9"><a xlink:href="extern_8h.html" target="_top" xlink:title="Definitions of LIBSBML_EXTERN and related things.">
<polygon fill="white" stroke="black" points="578.5,-67.5 578.5,-86.5 708.5,-86.5 708.5,-67.5 578.5,-67.5"/>
<text text-anchor="middle" x="643.5" y="-74.5" font-family="Helvetica,sans-Serif" font-size="10.00">sbml/common/extern.h</text>
</a>
</g>
</g>
<!-- Node8&#45;&gt;Node9 -->
<g id="edge10" class="edge">
<title>Node8&#45;&gt;Node9</title>
<path fill="none" stroke="midnightblue" d="M528.28,-123.4C553.73,-113.37 587.6,-100.03 612.02,-90.4"/>
<polygon fill="midnightblue" stroke="midnightblue" points="613.51,-93.58 621.53,-86.66 610.94,-87.07 613.51,-93.58"/>
</g>
<!-- Node9&#45;&gt;Node4 -->
<g id="edge11" class="edge">
<title>Node9&#45;&gt;Node4</title>
<path fill="none" stroke="midnightblue" d="M600.66,-67.48C552.83,-57.96 474.6,-42.39 417.16,-30.96"/>
<polygon fill="midnightblue" stroke="midnightblue" points="417.54,-27.47 407.05,-28.95 416.17,-34.33 417.54,-27.47"/>
</g>
<!-- Node11&#45;&gt;Node3 -->
<g id="edge14" class="edge">
<title>Node11&#45;&gt;Node3</title>
<path fill="none" stroke="midnightblue" d="M285.37,-324.48C290.37,-315.73 298.29,-301.87 304.61,-290.81"/>
<polygon fill="midnightblue" stroke="midnightblue" points="307.72,-292.43 309.64,-282.01 301.64,-288.96 307.72,-292.43"/>
</g>
<!-- Node11&#45;&gt;Node5 -->
<g id="edge15" class="edge">
<title>Node11&#45;&gt;Node5</title>
<path fill="none" stroke="midnightblue" d="M307.15,-324.48C339.47,-314.14 394.1,-296.66 430.23,-285.1"/>
<polygon fill="midnightblue" stroke="midnightblue" points="431.44,-288.39 439.9,-282.01 429.31,-281.72 431.44,-288.39"/>
</g>
<!-- Node11&#45;&gt;Node10 -->
<g id="edge18" class="edge">
<title>Node11&#45;&gt;Node10</title>
<path fill="none" stroke="midnightblue" d="M359.78,-325.19C413.14,-318.57 484.59,-307.03 545.5,-288 547.37,-287.42 549.28,-286.74 551.17,-286.01"/>
<polygon fill="midnightblue" stroke="midnightblue" points="552.62,-289.2 560.42,-282.02 549.85,-282.77 552.62,-289.2"/>
</g>
<!-- Node12 -->
<g id="node12" class="node">
<title>Node12</title>
<g id="a_node12"><a xlink:href="operation_return_values_8h.html" target="_top" xlink:title="Enumeration of values returned by operations within libSBML.">
<polygon fill="white" stroke="black" points="64.5,-257.5 64.5,-287.5 232.5,-287.5 232.5,-257.5 64.5,-257.5"/>
<text text-anchor="start" x="72.5" y="-275.5" font-family="Helvetica,sans-Serif" font-size="10.00">sbml/common/operationReturn</text>
<text text-anchor="middle" x="148.5" y="-264.5" font-family="Helvetica,sans-Serif" font-size="10.00">Values.h</text>
</a>
</g>
</g>
<!-- Node11&#45;&gt;Node12 -->
<g id="edge16" class="edge">
<title>Node11&#45;&gt;Node12</title>
<path fill="none" stroke="midnightblue" d="M261.59,-324.48C242.71,-315.96 213.1,-302.62 188.92,-291.72"/>
<polygon fill="midnightblue" stroke="midnightblue" points="190.16,-288.44 179.61,-287.52 187.29,-294.82 190.16,-288.44"/>
</g>
<!-- Node13 -->
<g id="node13" class="node">
<title>Node13</title>
<g id="a_node13"><a xlink:title=" ">
<polygon fill="white" stroke="#bfbfbf" points="0,-263 0,-282 47,-282 47,-263 0,-263"/>
<text text-anchor="middle" x="23.5" y="-270" font-family="Helvetica,sans-Serif" font-size="10.00">vector</text>
</a>
</g>
</g>
<!-- Node11&#45;&gt;Node13 -->
<g id="edge19" class="edge">
<title>Node11&#45;&gt;Node13</title>
<path fill="none" stroke="midnightblue" d="M218.42,-324.49C172.68,-317.28 109.35,-305.33 55.5,-288 53.63,-287.4 51.72,-286.72 49.81,-285.99"/>
<polygon fill="midnightblue" stroke="midnightblue" points="51.06,-282.71 40.49,-282.06 48.35,-289.17 51.06,-282.71"/>
</g>
<!-- Node12&#45;&gt;Node9 -->
<g id="edge17" class="edge">
<title>Node12&#45;&gt;Node9</title>
<path fill="none" stroke="midnightblue" d="M168.98,-257.48C212.98,-228.01 320.66,-159.38 420.5,-123 468.18,-105.63 524.18,-94.36 568.13,-87.44"/>
<polygon fill="midnightblue" stroke="midnightblue" points="568.82,-90.88 578.17,-85.9 567.76,-83.96 568.82,-90.88"/>
</g>
<!-- Node14&#45;&gt;Node2 -->
<g id="edge27" class="edge">
<title>Node14&#45;&gt;Node2</title>
<path fill="none" stroke="midnightblue" d="M395.92,-380.32C411.04,-371.82 434.32,-358.73 451.97,-348.8"/>
<polygon fill="midnightblue" stroke="midnightblue" points="454.11,-351.61 461.11,-343.65 450.68,-345.51 454.11,-351.61"/>
</g>
<!-- Node14&#45;&gt;Node3 -->
<g id="edge21" class="edge">
<title>Node14&#45;&gt;Node3</title>
<path fill="none" stroke="midnightblue" d="M308.39,-380.98C261.72,-374.13 207.02,-362.41 192.5,-344 169.45,-314.78 216.89,-295.39 259.18,-284.47"/>
<polygon fill="midnightblue" stroke="midnightblue" points="260.05,-287.85 268.93,-282.07 258.38,-281.06 260.05,-287.85"/>
</g>
<!-- Node14&#45;&gt;Node5 -->
<g id="edge22" class="edge">
<title>Node14&#45;&gt;Node5</title>
<path fill="none" stroke="midnightblue" d="M382.51,-380.34C385.87,-367.22 393.54,-341.93 406.5,-324 416.77,-309.79 431.88,-297.1 444.37,-288"/>
<polygon fill="midnightblue" stroke="midnightblue" points="446.71,-290.63 452.9,-282.03 442.7,-284.9 446.71,-290.63"/>
</g>
<!-- Node14&#45;&gt;Node10 -->
<g id="edge24" class="edge">
<title>Node14&#45;&gt;Node10</title>
<path fill="none" stroke="midnightblue" d="M452.82,-383.22C484.34,-377.44 519.86,-366.1 545.5,-344 560.97,-330.67 569.02,-308.14 572.99,-292.15"/>
<polygon fill="midnightblue" stroke="midnightblue" points="576.42,-292.82 575.13,-282.31 569.58,-291.33 576.42,-292.82"/>
</g>
<!-- Node14&#45;&gt;Node12 -->
<g id="edge23" class="edge">
<title>Node14&#45;&gt;Node12</title>
<path fill="none" stroke="midnightblue" d="M308.45,-387.63C267.69,-383.44 217.94,-372.22 182.5,-344 167.99,-332.45 159.29,-313.17 154.32,-297.69"/>
<polygon fill="midnightblue" stroke="midnightblue" points="157.59,-296.37 151.46,-287.72 150.86,-298.3 157.59,-296.37"/>
</g>
<!-- Node14&#45;&gt;Node13 -->
<g id="edge25" class="edge">
<title>Node14&#45;&gt;Node13</title>
<path fill="none" stroke="midnightblue" d="M316.81,-380.43C272.69,-373.39 213.02,-361.67 162.5,-344 119.55,-328.98 73.04,-303.27 46.19,-287.4"/>
<polygon fill="midnightblue" stroke="midnightblue" points="47.93,-284.36 37.55,-282.23 44.33,-290.36 47.93,-284.36"/>
</g>
<!-- Node15 -->
<g id="node15" class="node">
<title>Node15</title>
<g id="a_node15"><a xlink:title=" ">
<polygon fill="white" stroke="#bfbfbf" points="632,-324.5 632,-343.5 697,-343.5 697,-324.5 632,-324.5"/>
<text text-anchor="middle" x="664.5" y="-331.5" font-family="Helvetica,sans-Serif" font-size="10.00">stdexcept</text>
</a>
</g>
</g>
<!-- Node14&#45;&gt;Node15 -->
<g id="edge26" class="edge">
<title>Node14&#45;&gt;Node15</title>
<path fill="none" stroke="midnightblue" d="M425.5,-380.44C479.31,-370.21 568.73,-353.21 621.6,-343.16"/>
<polygon fill="midnightblue" stroke="midnightblue" points="622.49,-346.55 631.66,-341.24 621.18,-339.67 622.49,-346.55"/>
</g>
<!-- Node16&#45;&gt;Node5 -->
<g id="edge29" class="edge">
<title>Node16&#45;&gt;Node5</title>
<path fill="none" stroke="midnightblue" d="M601.3,-380.38C590.15,-367.31 567.65,-342.09 545.5,-324 528.32,-309.97 507.05,-296.57 490.91,-287.1"/>
<polygon fill="midnightblue" stroke="midnightblue" points="492.48,-283.97 482.07,-282.01 488.98,-290.03 492.48,-283.97"/>
</g>
<!-- Node16&#45;&gt;Node10 -->
<g id="edge30" class="edge">
<title>Node16&#45;&gt;Node10</title>
<path fill="none" stroke="midnightblue" d="M644.34,-380.49C679.16,-370.41 724.24,-351.46 705.5,-324 683.97,-292.46 639.53,-280.62 608.87,-276.17"/>
<polygon fill="midnightblue" stroke="midnightblue" points="609.02,-272.66 598.66,-274.89 608.15,-279.61 609.02,-272.66"/>
</g>
<!-- Node16&#45;&gt;Node15 -->
<g id="edge31" class="edge">
<title>Node16&#45;&gt;Node15</title>
<path fill="none" stroke="midnightblue" d="M617.5,-380.32C625.69,-372.42 638.01,-360.55 647.97,-350.94"/>
<polygon fill="midnightblue" stroke="midnightblue" points="650.57,-353.29 655.34,-343.83 645.71,-348.26 650.57,-353.29"/>
</g>
<!-- Node17&#45;&gt;Node10 -->
<g id="edge43" class="edge">
<title>Node17&#45;&gt;Node10</title>
<path fill="none" stroke="midnightblue" d="M790.42,-380.24C777.35,-366.51 750.22,-339.88 722.5,-324 685.81,-302.98 638.93,-288.69 608.33,-280.82"/>
<polygon fill="midnightblue" stroke="midnightblue" points="609.16,-277.42 598.62,-278.4 607.47,-284.22 609.16,-277.42"/>
</g>
<!-- Node17&#45;&gt;Node11 -->
<g id="edge33" class="edge">
<title>Node17&#45;&gt;Node11</title>
<path fill="none" stroke="midnightblue" d="M726.95,-381.02C723.76,-380.67 720.6,-380.33 717.5,-380 597.2,-367.12 458.19,-352.92 369.85,-343.99"/>
<polygon fill="midnightblue" stroke="midnightblue" points="370.16,-340.5 359.86,-342.98 369.46,-347.47 370.16,-340.5"/>
</g>
<!-- Node17&#45;&gt;Node15 -->
<g id="edge44" class="edge">
<title>Node17&#45;&gt;Node15</title>
<path fill="none" stroke="midnightblue" d="M777.27,-380.44C755.12,-371.52 720.18,-357.44 695.06,-347.32"/>
<polygon fill="midnightblue" stroke="midnightblue" points="696.22,-344.01 685.63,-343.52 693.6,-350.5 696.22,-344.01"/>
</g>
<!-- Node18 -->
<g id="node18" class="node">
<title>Node18</title>
<g id="a_node18"><a xlink:href="common_8h.html" target="_top" xlink:title="Common functions and macros for C and C++.">
<polygon fill="white" stroke="black" points="701,-263 701,-282 842,-282 842,-263 701,-263"/>
<text text-anchor="middle" x="771.5" y="-270" font-family="Helvetica,sans-Serif" font-size="10.00">sbml/common/common.h</text>
</a>
</g>
</g>
<!-- Node17&#45;&gt;Node18 -->
<g id="edge34" class="edge">
<title>Node17&#45;&gt;Node18</title>
<path fill="none" stroke="midnightblue" d="M796.47,-380.32C792.11,-361.67 781.77,-317.44 775.86,-292.13"/>
<polygon fill="midnightblue" stroke="midnightblue" points="779.24,-291.22 773.55,-282.28 772.42,-292.82 779.24,-291.22"/>
</g>
<!-- Node18&#45;&gt;Node6 -->
<g id="edge35" class="edge">
<title>Node18&#45;&gt;Node6</title>
<path fill="none" stroke="midnightblue" d="M734.74,-262.94C691.14,-252.78 617.49,-235.62 562.82,-222.88"/>
<polygon fill="midnightblue" stroke="midnightblue" points="563.38,-219.42 552.85,-220.56 561.79,-226.24 563.38,-219.42"/>
</g>
<!-- Node18&#45;&gt;Node9 -->
<g id="edge37" class="edge">
<title>Node18&#45;&gt;Node9</title>
<path fill="none" stroke="midnightblue" d="M842.34,-265.73C872.13,-259.38 904.09,-246.57 922.5,-221 930.55,-209.82 925.78,-203.38 922.5,-190 914.49,-157.37 914.53,-142.95 887.5,-123 861.2,-103.58 780.29,-91.37 718.79,-84.65"/>
<polygon fill="midnightblue" stroke="midnightblue" points="719.03,-81.15 708.71,-83.57 718.29,-88.11 719.03,-81.15"/>
</g>
<!-- Node19 -->
<g id="node19" class="node">
<title>Node19</title>
<g id="a_node19"><a xlink:title=" ">
<polygon fill="white" stroke="#bfbfbf" points="716.5,-129 716.5,-148 766.5,-148 766.5,-129 716.5,-129"/>
<text text-anchor="middle" x="741.5" y="-136" font-family="Helvetica,sans-Serif" font-size="10.00">stdio.h</text>
</a>
</g>
</g>
<!-- Node18&#45;&gt;Node19 -->
<g id="edge36" class="edge">
<title>Node18&#45;&gt;Node19</title>
<path fill="none" stroke="midnightblue" d="M744.17,-262.96C724.83,-255.32 700.32,-242.03 688.5,-221 681.75,-208.99 683.07,-202.66 688.5,-190 694.72,-175.48 707.4,-163.15 718.79,-154.31"/>
<polygon fill="midnightblue" stroke="midnightblue" points="721.1,-156.96 727.13,-148.25 716.98,-151.3 721.1,-156.96"/>
</g>
<!-- Node20 -->
<g id="node20" class="node">
<title>Node20</title>
<g id="a_node20"><a xlink:href="memory_8h.html" target="_top" xlink:title=" ">
<polygon fill="white" stroke="black" points="803,-196 803,-215 914,-215 914,-196 803,-196"/>
<text text-anchor="middle" x="858.5" y="-203" font-family="Helvetica,sans-Serif" font-size="10.00">sbml/util/memory.h</text>
</a>
</g>
</g>
<!-- Node18&#45;&gt;Node20 -->
<g id="edge38" class="edge">
<title>Node18&#45;&gt;Node20</title>
<path fill="none" stroke="midnightblue" d="M783.23,-262.73C797.45,-252.11 821.63,-234.05 838.74,-221.26"/>
<polygon fill="midnightblue" stroke="midnightblue" points="841.04,-223.92 846.95,-215.13 836.85,-218.31 841.04,-223.92"/>
</g>
<!-- Node21 -->
<g id="node21" class="node">
<title>Node21</title>
<g id="a_node21"><a xlink:href="util_8h.html" target="_top" xlink:title="Utility functions.">
<polygon fill="white" stroke="black" points="698,-196 698,-215 785,-215 785,-196 698,-196"/>
<text text-anchor="middle" x="741.5" y="-203" font-family="Helvetica,sans-Serif" font-size="10.00">sbml/util/util.h</text>
</a>
</g>
</g>
<!-- Node18&#45;&gt;Node21 -->
<g id="edge39" class="edge">
<title>Node18&#45;&gt;Node21</title>
<path fill="none" stroke="midnightblue" d="M767.45,-262.73C762.96,-252.99 755.57,-236.98 749.82,-224.53"/>
<polygon fill="midnightblue" stroke="midnightblue" points="752.85,-222.74 745.48,-215.13 746.49,-225.67 752.85,-222.74"/>
</g>
<!-- Node21&#45;&gt;Node9 -->
<g id="edge42" class="edge">
<title>Node21&#45;&gt;Node9</title>
<path fill="none" stroke="midnightblue" d="M750.49,-195.77C765.51,-180.11 792.45,-146.69 775.5,-123 762.06,-104.22 740.31,-93.19 718.31,-86.74"/>
<polygon fill="midnightblue" stroke="midnightblue" points="719.11,-83.33 708.55,-84.16 717.33,-90.1 719.11,-83.33"/>
</g>
<!-- Node21&#45;&gt;Node19 -->
<g id="edge40" class="edge">
<title>Node21&#45;&gt;Node19</title>
<path fill="none" stroke="midnightblue" d="M741.5,-195.73C741.5,-186.18 741.5,-170.62 741.5,-158.28"/>
<polygon fill="midnightblue" stroke="midnightblue" points="745,-158.13 741.5,-148.13 738,-158.13 745,-158.13"/>
</g>
<!-- Node22 -->
<g id="node22" class="node">
<title>Node22</title>
<g id="a_node22"><a xlink:title=" ">
<polygon fill="white" stroke="#bfbfbf" points="822.5,-129 822.5,-148 878.5,-148 878.5,-129 822.5,-129"/>
<text text-anchor="middle" x="850.5" y="-136" font-family="Helvetica,sans-Serif" font-size="10.00">stdarg.h</text>
</a>
</g>
</g>
<!-- Node21&#45;&gt;Node22 -->
<g id="edge41" class="edge">
<title>Node21&#45;&gt;Node22</title>
<path fill="none" stroke="midnightblue" d="M756.2,-195.73C774.42,-184.87 805.7,-166.22 827.2,-153.39"/>
<polygon fill="midnightblue" stroke="midnightblue" points="829.24,-156.26 836.03,-148.13 825.65,-150.24 829.24,-156.26"/>
</g>
<!-- Node23&#45;&gt;Node9 -->
<g id="edge46" class="edge">
<title>Node23&#45;&gt;Node9</title>
<path fill="none" stroke="midnightblue" d="M980.5,-380.31C980.5,-361.06 980.5,-313.4 980.5,-273.5 980.5,-273.5 980.5,-273.5 980.5,-204.5 980.5,-157.89 954.78,-146.46 914.5,-123 882.11,-104.14 787.33,-91.47 718.99,-84.51"/>
<polygon fill="midnightblue" stroke="midnightblue" points="718.98,-80.99 708.68,-83.48 718.29,-87.96 718.98,-80.99"/>
</g>
<!-- Node24 -->
<g id="node24" class="node">
<title>Node24</title>
<g id="a_node24"><a xlink:title=" ">
<polygon fill="white" stroke="#bfbfbf" points="1009,-324.5 1009,-343.5 1062,-343.5 1062,-324.5 1009,-324.5"/>
<text text-anchor="middle" x="1035.5" y="-331.5" font-family="Helvetica,sans-Serif" font-size="10.00">string.h</text>
</a>
</g>
</g>
<!-- Node23&#45;&gt;Node24 -->
<g id="edge47" class="edge">
<title>Node23&#45;&gt;Node24</title>
<path fill="none" stroke="midnightblue" d="M989.58,-380.08C997.67,-372.14 1009.7,-360.34 1019.41,-350.8"/>
<polygon fill="midnightblue" stroke="midnightblue" points="1021.9,-353.25 1026.59,-343.75 1017,-348.26 1021.9,-353.25"/>
</g>
</g>
</svg>
        <g id="navigator" transform="translate(0 0)" fill="#404254">
                <rect fill="#f2f5e9" fill-opacity="0.5" stroke="#606060" stroke-width=".5" x="0" y="0" width="60" height="60"/>
                <use id="zoomplus" xlink:href="#zoomPlus" x="17" y="9" onmousedown="handleZoom(evt,'in')"/>
                <use id="zoomminus" xlink:href="#zoomMin" x="42" y="9" onmousedown="handleZoom(evt,'out')"/>
                <use id="reset" xlink:href="#resetDef" x="30" y="36" onmousedown="handleReset()"/>
                <g id="arrowUp" xlink:href="#dirArrow" transform="translate(30 24)" onmousedown="handlePan(0,-1)">
                  <use xlink:href="#rim" fill="#404040">
                        <set attributeName="fill" to="#808080" begin="arrowUp.mouseover" end="arrowUp.mouseout"/>
                  </use>
                  <path fill="none" stroke="white" stroke-width="1.5" d="M0,-3.0v7 M-2.5,-0.5L0,-3.0L2.5,-0.5"/>
                </g>
                <g id="arrowRight" xlink:href="#dirArrow" transform="rotate(90) translate(36 -43)" onmousedown="handlePan(1,0)">
                  <use xlink:href="#rim" fill="#404040">
                        <set attributeName="fill" to="#808080" begin="arrowRight.mouseover" end="arrowRight.mouseout"/>
                  </use>
                  <path fill="none" stroke="white" stroke-width="1.5" d="M0,-3.0v7 M-2.5,-0.5L0,-3.0L2.5,-0.5"/>
                </g>
                <g id="arrowDown" xlink:href="#dirArrow" transform="rotate(180) translate(-30 -48)" onmousedown="handlePan(0,1)">
                  <use xlink:href="#rim" fill="#404040">
                        <set attributeName="fill" to="#808080" begin="arrowDown.mouseover" end="arrowDown.mouseout"/>
                  </use>
                  <path fill="none" stroke="white" stroke-width="1.5" d="M0,-3.0v7 M-2.5,-0.5L0,-3.0L2.5,-0.5"/>
                </g>
                <g id="arrowLeft" xlink:href="#dirArrow" transform="rotate(270) translate(-36 17)" onmousedown="handlePan(-1,0)">
                  <use xlink:href="#rim" fill="#404040">
                        <set attributeName="fill" to="#808080" begin="arrowLeft.mouseover" end="arrowLeft.mouseout"/>
                  </use>
                  <path fill="none" stroke="white" stroke-width="1.5" d="M0,-3.0v7 M-2.5,-0.5L0,-3.0L2.5,-0.5"/>
                </g>
        </g>
        <svg viewBox="0 0 15 15" width="100%" height="30px" preserveAspectRatio="xMaxYMin meet">
         <g id="arrow_out" transform="scale(0.3 0.3)">
          <a xlink:href="_x_m_l_namespaces_8cpp__incl_org.svg" target="_base">
           <rect id="button" ry="5" rx="5" y="6" x="6" height="38" width="38"
                fill="#f2f5e9" fill-opacity="0.5" stroke="#606060" stroke-width="1.0"/>
           <path id="arrow"
             d="M 11.500037,31.436501 C 11.940474,20.09759 22.043105,11.32322 32.158766,21.979434 L 37.068811,17.246167 C 37.068811,17.246167 37.088388,32 37.088388,32 L 22.160133,31.978069 C 22.160133,31.978069 26.997745,27.140456 26.997745,27.140456 C 18.528582,18.264221 13.291696,25.230495 11.500037,31.436501 z"
             style="fill:#404040;"/>
          </a>
         </g>
        </svg>
</svg>
