<?xml version="1.0" encoding="UTF-8" standalone="no"?>
<!DOCTYPE svg PUBLIC "-//W3C//DTD SVG 1.1//EN"
 "http://www.w3.org/Graphics/SVG/1.1/DTD/svg11.dtd">
<!-- Generated by graphviz version 2.43.0 (0)
 -->
<!-- Title: XMLNode.h Pages: 1 -->
<svg width="677pt" height="509pt"
 viewBox="0.00 0.00 677.00 509.00" xmlns="http://www.w3.org/2000/svg" xmlns:xlink="http://www.w3.org/1999/xlink">
<g id="graph0" class="graph" transform="scale(1 1) rotate(0) translate(4 505)">
<title>XMLNode.h</title>
<polygon fill="white" stroke="transparent" points="-4,4 -4,-505 673,-505 673,4 -4,4"/>
<!-- Node1 -->
<g id="node1" class="node">
<title>Node1</title>
<g id="a_node1"><a xlink:title="Class definition of XMLNode, a node in an XML document tree.">
<polygon fill="#bfbfbf" stroke="black" points="255.5,-481.5 255.5,-500.5 327.5,-500.5 327.5,-481.5 255.5,-481.5"/>
<text text-anchor="middle" x="291.5" y="-488.5" font-family="Helvetica,sans-Serif" font-size="10.00">XMLNode.h</text>
</a>
</g>
</g>
<!-- Node2 -->
<g id="node2" class="node">
<title>Node2</title>
<g id="a_node2"><a xlink:href="_x_m_l_extern_8h.html" target="_top" xlink:title="Defines LIBLAX_EXTERN.">
<polygon fill="white" stroke="black" points="0,-257.5 0,-276.5 127,-276.5 127,-257.5 0,-257.5"/>
<text text-anchor="middle" x="63.5" y="-264.5" font-family="Helvetica,sans-Serif" font-size="10.00">sbml/xml/XMLExtern.h</text>
</a>
</g>
</g>
<!-- Node1&#45;&gt;Node2 -->
<g id="edge1" class="edge">
<title>Node1&#45;&gt;Node2</title>
<path fill="none" stroke="midnightblue" d="M268.62,-481.45C249.89,-473.74 223.33,-461.14 203.5,-445 144.6,-397.05 94.62,-320.22 73.83,-285.75"/>
<polygon fill="midnightblue" stroke="midnightblue" points="76.66,-283.66 68.55,-276.84 70.64,-287.23 76.66,-283.66"/>
</g>
<!-- Node4 -->
<g id="node4" class="node">
<title>Node4</title>
<g id="a_node4"><a xlink:href="_x_m_l_token_8h.html" target="_top" xlink:title="A unit of XML syntax, either an XML element or text.">
<polygon fill="white" stroke="black" points="230.5,-425.5 230.5,-444.5 352.5,-444.5 352.5,-425.5 230.5,-425.5"/>
<text text-anchor="middle" x="291.5" y="-432.5" font-family="Helvetica,sans-Serif" font-size="10.00">sbml/xml/XMLToken.h</text>
</a>
</g>
</g>
<!-- Node1&#45;&gt;Node4 -->
<g id="edge3" class="edge">
<title>Node1&#45;&gt;Node4</title>
<path fill="none" stroke="midnightblue" d="M291.5,-481.08C291.5,-474.01 291.5,-463.86 291.5,-454.99"/>
<polygon fill="midnightblue" stroke="midnightblue" points="295,-454.75 291.5,-444.75 288,-454.75 295,-454.75"/>
</g>
<!-- Node6 -->
<g id="node6" class="node">
<title>Node6</title>
<g id="a_node6"><a xlink:href="sbmlfwd_8h.html" target="_top" xlink:title="Forward declarations for all opaque C types.">
<polygon fill="white" stroke="black" points="149.5,-257.5 149.5,-276.5 289.5,-276.5 289.5,-257.5 149.5,-257.5"/>
<text text-anchor="middle" x="219.5" y="-264.5" font-family="Helvetica,sans-Serif" font-size="10.00">sbml/common/sbmlfwd.h</text>
</a>
</g>
</g>
<!-- Node1&#45;&gt;Node6 -->
<g id="edge27" class="edge">
<title>Node1&#45;&gt;Node6</title>
<path fill="none" stroke="midnightblue" d="M270.44,-481.47C254.73,-474.06 233.92,-461.87 221.5,-445 185.77,-396.47 173.49,-370.81 190.5,-313 193.51,-302.76 199.65,-292.66 205.51,-284.63"/>
<polygon fill="midnightblue" stroke="midnightblue" points="208.43,-286.58 211.83,-276.54 202.91,-282.27 208.43,-286.58"/>
</g>
<!-- Node13 -->
<g id="node13" class="node">
<title>Node13</title>
<g id="a_node13"><a xlink:title=" ">
<polygon fill="white" stroke="#bfbfbf" points="582,-313.5 582,-332.5 629,-332.5 629,-313.5 582,-313.5"/>
<text text-anchor="middle" x="605.5" y="-320.5" font-family="Helvetica,sans-Serif" font-size="10.00">vector</text>
</a>
</g>
</g>
<!-- Node1&#45;&gt;Node13 -->
<g id="edge28" class="edge">
<title>Node1&#45;&gt;Node13</title>
<path fill="none" stroke="midnightblue" d="M312.02,-481.42C350.68,-465.02 436.61,-427.42 505.5,-389 534.04,-373.08 565.4,-352.09 585.25,-338.32"/>
<polygon fill="midnightblue" stroke="midnightblue" points="587.32,-341.15 593.51,-332.55 583.31,-335.41 587.32,-341.15"/>
</g>
<!-- Node16 -->
<g id="node16" class="node">
<title>Node16</title>
<g id="a_node16"><a xlink:title=" ">
<polygon fill="white" stroke="#bfbfbf" points="620,-425.5 620,-444.5 669,-444.5 669,-425.5 620,-425.5"/>
<text text-anchor="middle" x="644.5" y="-432.5" font-family="Helvetica,sans-Serif" font-size="10.00">cstdlib</text>
</a>
</g>
</g>
<!-- Node1&#45;&gt;Node16 -->
<g id="edge29" class="edge">
<title>Node1&#45;&gt;Node16</title>
<path fill="none" stroke="midnightblue" d="M327.93,-485.79C386.61,-478.79 505.62,-463.65 605.5,-445 606.95,-444.73 608.43,-444.44 609.92,-444.14"/>
<polygon fill="midnightblue" stroke="midnightblue" points="610.76,-447.54 619.81,-442.03 609.3,-440.7 610.76,-447.54"/>
</g>
<!-- Node3 -->
<g id="node3" class="node">
<title>Node3</title>
<g id="a_node3"><a xlink:title=" ">
<polygon fill="white" stroke="#bfbfbf" points="51,-0.5 51,-30.5 176,-30.5 176,-0.5 51,-0.5"/>
<text text-anchor="start" x="59" y="-18.5" font-family="Helvetica,sans-Serif" font-size="10.00">sbml/common/libsbml</text>
<text text-anchor="middle" x="113.5" y="-7.5" font-family="Helvetica,sans-Serif" font-size="10.00">&#45;namespace.h</text>
</a>
</g>
</g>
<!-- Node2&#45;&gt;Node3 -->
<g id="edge2" class="edge">
<title>Node2&#45;&gt;Node3</title>
<path fill="none" stroke="midnightblue" d="M62.77,-257.35C60.68,-229.08 56.31,-137.15 80.5,-67 83.95,-57.01 89.8,-47.04 95.64,-38.64"/>
<polygon fill="midnightblue" stroke="midnightblue" points="98.51,-40.64 101.61,-30.51 92.87,-36.5 98.51,-40.64"/>
</g>
<!-- Node4&#45;&gt;Node2 -->
<g id="edge4" class="edge">
<title>Node4&#45;&gt;Node2</title>
<path fill="none" stroke="midnightblue" d="M275.15,-425.36C259.27,-416.75 234.66,-402.86 214.5,-389 163.82,-354.16 108.41,-307.28 80.95,-283.39"/>
<polygon fill="midnightblue" stroke="midnightblue" points="83.19,-280.7 73.36,-276.75 78.58,-285.97 83.19,-280.7"/>
</g>
<!-- Node4&#45;&gt;Node4 -->
<g id="edge24" class="edge">
<title>Node4&#45;&gt;Node4</title>
<path fill="none" stroke="midnightblue" d="M325.19,-444.53C348.09,-447.31 370.5,-444.13 370.5,-435 370.5,-427.22 354.25,-423.77 335.29,-424.63"/>
<polygon fill="midnightblue" stroke="midnightblue" points="334.87,-421.15 325.19,-425.47 335.45,-428.13 334.87,-421.15"/>
</g>
<!-- Node5 -->
<g id="node5" class="node">
<title>Node5</title>
<g id="a_node5"><a xlink:href="_x_m_l_attributes_8h.html" target="_top" xlink:title="XMLAttributes are a list of name/value pairs for XML elements.">
<polygon fill="white" stroke="black" points="302.5,-369.5 302.5,-388.5 446.5,-388.5 446.5,-369.5 302.5,-369.5"/>
<text text-anchor="middle" x="374.5" y="-376.5" font-family="Helvetica,sans-Serif" font-size="10.00">sbml/xml/XMLAttributes.h</text>
</a>
</g>
</g>
<!-- Node4&#45;&gt;Node5 -->
<g id="edge5" class="edge">
<title>Node4&#45;&gt;Node5</title>
<path fill="none" stroke="midnightblue" d="M304.84,-425.32C317.66,-416.98 337.28,-404.21 352.44,-394.35"/>
<polygon fill="midnightblue" stroke="midnightblue" points="354.72,-397.04 361.2,-388.65 350.91,-391.17 354.72,-397.04"/>
</g>
<!-- Node4&#45;&gt;Node6 -->
<g id="edge25" class="edge">
<title>Node4&#45;&gt;Node6</title>
<path fill="none" stroke="midnightblue" d="M278.62,-425.28C256.95,-409.73 213.98,-374.91 197.5,-333 191.18,-316.94 199.06,-298.25 207.09,-285.04"/>
<polygon fill="midnightblue" stroke="midnightblue" points="210.14,-286.77 212.76,-276.51 204.31,-282.9 210.14,-286.77"/>
</g>
<!-- Node12 -->
<g id="node12" class="node">
<title>Node12</title>
<g id="a_node12"><a xlink:title=" ">
<polygon fill="white" stroke="#bfbfbf" points="421.5,-257.5 421.5,-276.5 465.5,-276.5 465.5,-257.5 421.5,-257.5"/>
<text text-anchor="middle" x="443.5" y="-264.5" font-family="Helvetica,sans-Serif" font-size="10.00">string</text>
</a>
</g>
</g>
<!-- Node4&#45;&gt;Node12 -->
<g id="edge26" class="edge">
<title>Node4&#45;&gt;Node12</title>
<path fill="none" stroke="midnightblue" d="M352.54,-429.67C412.78,-421.59 500.62,-398.55 534.5,-333 549.18,-304.6 507.32,-285.84 475.58,-276.07"/>
<polygon fill="midnightblue" stroke="midnightblue" points="476.3,-272.63 465.72,-273.21 474.35,-279.36 476.3,-272.63"/>
</g>
<!-- Node5&#45;&gt;Node2 -->
<g id="edge6" class="edge">
<title>Node5&#45;&gt;Node2</title>
<path fill="none" stroke="midnightblue" d="M330.84,-369.48C294.55,-361.8 241.87,-349.21 197.5,-333 157.7,-318.46 113.95,-295.9 87.61,-281.55"/>
<polygon fill="midnightblue" stroke="midnightblue" points="89.18,-278.42 78.73,-276.66 85.8,-284.55 89.18,-278.42"/>
</g>
<!-- Node5&#45;&gt;Node6 -->
<g id="edge7" class="edge">
<title>Node5&#45;&gt;Node6</title>
<path fill="none" stroke="midnightblue" d="M371.52,-369.16C366.44,-355.34 354.83,-328.58 336.5,-313 317.58,-296.92 292.28,-286.23 270.04,-279.33"/>
<polygon fill="midnightblue" stroke="midnightblue" points="270.99,-275.95 260.41,-276.5 269.02,-282.67 270.99,-275.95"/>
</g>
<!-- Node11 -->
<g id="node11" class="node">
<title>Node11</title>
<g id="a_node11"><a xlink:href="operation_return_values_8h.html" target="_top" xlink:title="Enumeration of values returned by operations within libSBML.">
<polygon fill="white" stroke="black" points="341.5,-190.5 341.5,-220.5 509.5,-220.5 509.5,-190.5 341.5,-190.5"/>
<text text-anchor="start" x="349.5" y="-208.5" font-family="Helvetica,sans-Serif" font-size="10.00">sbml/common/operationReturn</text>
<text text-anchor="middle" x="425.5" y="-197.5" font-family="Helvetica,sans-Serif" font-size="10.00">Values.h</text>
</a>
</g>
</g>
<!-- Node5&#45;&gt;Node11 -->
<g id="edge15" class="edge">
<title>Node5&#45;&gt;Node11</title>
<path fill="none" stroke="midnightblue" d="M377.1,-369.26C384.65,-343.87 406.78,-269.44 418.32,-230.65"/>
<polygon fill="midnightblue" stroke="midnightblue" points="421.77,-231.31 421.27,-220.72 415.07,-229.31 421.77,-231.31"/>
</g>
<!-- Node5&#45;&gt;Node12 -->
<g id="edge17" class="edge">
<title>Node5&#45;&gt;Node12</title>
<path fill="none" stroke="midnightblue" d="M381.42,-369.27C388.34,-360.37 399.14,-346.06 407.5,-333 417.47,-317.41 427.57,-298.89 434.53,-285.61"/>
<polygon fill="midnightblue" stroke="midnightblue" points="437.69,-287.1 439.17,-276.61 431.47,-283.89 437.69,-287.1"/>
</g>
<!-- Node5&#45;&gt;Node13 -->
<g id="edge18" class="edge">
<title>Node5&#45;&gt;Node13</title>
<path fill="none" stroke="midnightblue" d="M411.1,-369.44C455.29,-359.11 529,-341.88 571.83,-331.87"/>
<polygon fill="midnightblue" stroke="midnightblue" points="572.82,-335.23 581.76,-329.55 571.23,-328.42 572.82,-335.23"/>
</g>
<!-- Node14 -->
<g id="node14" class="node">
<title>Node14</title>
<g id="a_node14"><a xlink:title=" ">
<polygon fill="white" stroke="#bfbfbf" points="460,-313.5 460,-332.5 525,-332.5 525,-313.5 460,-313.5"/>
<text text-anchor="middle" x="492.5" y="-320.5" font-family="Helvetica,sans-Serif" font-size="10.00">stdexcept</text>
</a>
</g>
</g>
<!-- Node5&#45;&gt;Node14 -->
<g id="edge19" class="edge">
<title>Node5&#45;&gt;Node14</title>
<path fill="none" stroke="midnightblue" d="M393.2,-369.44C412.44,-360.64 442.65,-346.81 464.7,-336.72"/>
<polygon fill="midnightblue" stroke="midnightblue" points="466.25,-339.86 473.89,-332.52 463.34,-333.5 466.25,-339.86"/>
</g>
<!-- Node15 -->
<g id="node15" class="node">
<title>Node15</title>
<g id="a_node15"><a xlink:href="_x_m_l_triple_8h.html" target="_top" xlink:title="Stores an XML namespace triple.">
<polygon fill="white" stroke="black" points="206,-313.5 206,-332.5 327,-332.5 327,-313.5 206,-313.5"/>
<text text-anchor="middle" x="266.5" y="-320.5" font-family="Helvetica,sans-Serif" font-size="10.00">sbml/xml/XMLTriple.h</text>
</a>
</g>
</g>
<!-- Node5&#45;&gt;Node15 -->
<g id="edge20" class="edge">
<title>Node5&#45;&gt;Node15</title>
<path fill="none" stroke="midnightblue" d="M357.15,-369.32C339.83,-360.66 312.98,-347.24 293,-337.25"/>
<polygon fill="midnightblue" stroke="midnightblue" points="294.32,-334 283.81,-332.65 291.19,-340.26 294.32,-334"/>
</g>
<!-- Node6&#45;&gt;Node3 -->
<g id="edge8" class="edge">
<title>Node6&#45;&gt;Node3</title>
<path fill="none" stroke="midnightblue" d="M198.64,-257.47C183.1,-250.07 162.56,-237.87 150.5,-221 111.19,-166.02 109.6,-82 111.57,-40.88"/>
<polygon fill="midnightblue" stroke="midnightblue" points="115.08,-40.9 112.18,-30.71 108.09,-40.49 115.08,-40.9"/>
</g>
<!-- Node7 -->
<g id="node7" class="node">
<title>Node7</title>
<g id="a_node7"><a xlink:href="libsbml-config_8h.html" target="_top" xlink:title="Decides whether to #include Unix or Windows configuration variables.">
<polygon fill="white" stroke="black" points="159,-190.5 159,-220.5 284,-220.5 284,-190.5 159,-190.5"/>
<text text-anchor="start" x="167" y="-208.5" font-family="Helvetica,sans-Serif" font-size="10.00">sbml/common/libsbml</text>
<text text-anchor="middle" x="221.5" y="-197.5" font-family="Helvetica,sans-Serif" font-size="10.00">&#45;config.h</text>
</a>
</g>
</g>
<!-- Node6&#45;&gt;Node7 -->
<g id="edge9" class="edge">
<title>Node6&#45;&gt;Node7</title>
<path fill="none" stroke="midnightblue" d="M219.79,-257.48C220.02,-250.47 220.37,-240.19 220.69,-230.7"/>
<polygon fill="midnightblue" stroke="midnightblue" points="224.19,-230.63 221.03,-220.52 217.19,-230.4 224.19,-230.63"/>
</g>
<!-- Node7&#45;&gt;Node3 -->
<g id="edge10" class="edge">
<title>Node7&#45;&gt;Node3</title>
<path fill="none" stroke="midnightblue" d="M194.11,-190.33C179.79,-181.63 163.09,-169.23 152.5,-154 128.38,-119.32 119.09,-69.95 115.58,-40.77"/>
<polygon fill="midnightblue" stroke="midnightblue" points="119.04,-40.22 114.49,-30.65 112.08,-40.97 119.04,-40.22"/>
</g>
<!-- Node8 -->
<g id="node8" class="node">
<title>Node8</title>
<g id="a_node8"><a xlink:title=" ">
<polygon fill="white" stroke="#bfbfbf" points="304,-123.5 304,-153.5 429,-153.5 429,-123.5 304,-123.5"/>
<text text-anchor="start" x="312" y="-141.5" font-family="Helvetica,sans-Serif" font-size="10.00">sbml/common/libsbml</text>
<text text-anchor="middle" x="366.5" y="-130.5" font-family="Helvetica,sans-Serif" font-size="10.00">&#45;config&#45;common.h</text>
</a>
</g>
</g>
<!-- Node7&#45;&gt;Node8 -->
<g id="edge11" class="edge">
<title>Node7&#45;&gt;Node8</title>
<path fill="none" stroke="midnightblue" d="M252.96,-190.4C274.34,-180.81 302.81,-168.05 325.9,-157.7"/>
<polygon fill="midnightblue" stroke="midnightblue" points="327.41,-160.86 335.1,-153.58 324.54,-154.47 327.41,-160.86"/>
</g>
<!-- Node9 -->
<g id="node9" class="node">
<title>Node9</title>
<g id="a_node9"><a xlink:href="libsbml-version_8h.html" target="_top" xlink:title="Define libSBML version numbers for access from client software.">
<polygon fill="white" stroke="black" points="161,-123.5 161,-153.5 286,-153.5 286,-123.5 161,-123.5"/>
<text text-anchor="start" x="169" y="-141.5" font-family="Helvetica,sans-Serif" font-size="10.00">sbml/common/libsbml</text>
<text text-anchor="middle" x="223.5" y="-130.5" font-family="Helvetica,sans-Serif" font-size="10.00">&#45;version.h</text>
</a>
</g>
</g>
<!-- Node7&#45;&gt;Node9 -->
<g id="edge12" class="edge">
<title>Node7&#45;&gt;Node9</title>
<path fill="none" stroke="midnightblue" d="M221.93,-190.4C222.17,-182.64 222.48,-172.81 222.75,-163.86"/>
<polygon fill="midnightblue" stroke="midnightblue" points="226.26,-163.68 223.07,-153.58 219.26,-163.46 226.26,-163.68"/>
</g>
<!-- Node10 -->
<g id="node10" class="node">
<title>Node10</title>
<g id="a_node10"><a xlink:href="extern_8h.html" target="_top" xlink:title="Definitions of LIBSBML_EXTERN and related things.">
<polygon fill="white" stroke="black" points="160.5,-67.5 160.5,-86.5 290.5,-86.5 290.5,-67.5 160.5,-67.5"/>
<text text-anchor="middle" x="225.5" y="-74.5" font-family="Helvetica,sans-Serif" font-size="10.00">sbml/common/extern.h</text>
</a>
</g>
</g>
<!-- Node9&#45;&gt;Node10 -->
<g id="edge13" class="edge">
<title>Node9&#45;&gt;Node10</title>
<path fill="none" stroke="midnightblue" d="M223.97,-123.4C224.24,-115.47 224.58,-105.46 224.87,-96.86"/>
<polygon fill="midnightblue" stroke="midnightblue" points="228.37,-96.77 225.21,-86.66 221.37,-96.53 228.37,-96.77"/>
</g>
<!-- Node10&#45;&gt;Node3 -->
<g id="edge14" class="edge">
<title>Node10&#45;&gt;Node3</title>
<path fill="none" stroke="midnightblue" d="M209.45,-67.48C193.72,-59.12 169.2,-46.09 148.89,-35.3"/>
<polygon fill="midnightblue" stroke="midnightblue" points="150.37,-32.12 139.9,-30.52 147.09,-38.31 150.37,-32.12"/>
</g>
<!-- Node11&#45;&gt;Node10 -->
<g id="edge16" class="edge">
<title>Node11&#45;&gt;Node10</title>
<path fill="none" stroke="midnightblue" d="M433.64,-190.43C442.69,-172.7 454.11,-142.25 438.5,-123 421.19,-101.65 354.79,-90.03 300.67,-83.98"/>
<polygon fill="midnightblue" stroke="midnightblue" points="301.04,-80.5 290.73,-82.92 300.3,-87.46 301.04,-80.5"/>
</g>
<!-- Node15&#45;&gt;Node2 -->
<g id="edge21" class="edge">
<title>Node15&#45;&gt;Node2</title>
<path fill="none" stroke="midnightblue" d="M234.33,-313.44C199.44,-304.16 143.61,-289.31 105.33,-279.13"/>
<polygon fill="midnightblue" stroke="midnightblue" points="106.08,-275.7 95.52,-276.52 104.28,-282.47 106.08,-275.7"/>
</g>
<!-- Node15&#45;&gt;Node6 -->
<g id="edge22" class="edge">
<title>Node15&#45;&gt;Node6</title>
<path fill="none" stroke="midnightblue" d="M258.74,-313.08C251.96,-305.3 241.96,-293.8 233.74,-284.37"/>
<polygon fill="midnightblue" stroke="midnightblue" points="236.32,-282 227.12,-276.75 231.04,-286.59 236.32,-282"/>
</g>
<!-- Node15&#45;&gt;Node12 -->
<g id="edge23" class="edge">
<title>Node15&#45;&gt;Node12</title>
<path fill="none" stroke="midnightblue" d="M294.55,-313.44C326.44,-303.71 378.39,-287.86 411.74,-277.69"/>
<polygon fill="midnightblue" stroke="midnightblue" points="412.91,-280.99 421.46,-274.73 410.87,-274.3 412.91,-280.99"/>
</g>
</g>
</svg>
