<?xml version="1.0" encoding="UTF-8" standalone="no"?>
<!DOCTYPE svg PUBLIC "-//W3C//DTD SVG 1.1//EN"
 "http://www.w3.org/Graphics/SVG/1.1/DTD/svg11.dtd">
<!-- Generated by graphviz version 2.43.0 (0)
 -->
<!-- Title: XMLAttributes.h Pages: 1 -->
<svg width="542pt" height="397pt"
 viewBox="0.00 0.00 542.00 397.00" xmlns="http://www.w3.org/2000/svg" xmlns:xlink="http://www.w3.org/1999/xlink">
<g id="graph0" class="graph" transform="scale(1 1) rotate(0) translate(4 393)">
<title>XMLAttributes.h</title>
<polygon fill="white" stroke="transparent" points="-4,4 -4,-393 538,-393 538,4 -4,4"/>
<!-- Node1 -->
<g id="node1" class="node">
<title>Node1</title>
<g id="a_node1"><a xlink:title="XMLAttributes are a list of name/value pairs for XML elements.">
<polygon fill="#bfbfbf" stroke="black" points="290,-369.5 290,-388.5 385,-388.5 385,-369.5 290,-369.5"/>
<text text-anchor="middle" x="337.5" y="-376.5" font-family="Helvetica,sans-Serif" font-size="10.00">XMLAttributes.h</text>
</a>
</g>
</g>
<!-- Node2 -->
<g id="node2" class="node">
<title>Node2</title>
<g id="a_node2"><a xlink:href="_x_m_l_extern_8h.html" target="_top" xlink:title="Defines LIBLAX_EXTERN.">
<polygon fill="white" stroke="black" points="0,-257.5 0,-276.5 127,-276.5 127,-257.5 0,-257.5"/>
<text text-anchor="middle" x="63.5" y="-264.5" font-family="Helvetica,sans-Serif" font-size="10.00">sbml/xml/XMLExtern.h</text>
</a>
</g>
</g>
<!-- Node1&#45;&gt;Node2 -->
<g id="edge1" class="edge">
<title>Node1&#45;&gt;Node2</title>
<path fill="none" stroke="midnightblue" d="M293.05,-369.46C258.96,-362.09 211.19,-349.93 171.5,-333 139.06,-319.16 104.67,-296.99 83.63,-282.46"/>
<polygon fill="midnightblue" stroke="midnightblue" points="85.42,-279.44 75.22,-276.56 81.4,-285.17 85.42,-279.44"/>
</g>
<!-- Node4 -->
<g id="node4" class="node">
<title>Node4</title>
<g id="a_node4"><a xlink:href="sbmlfwd_8h.html" target="_top" xlink:title="Forward declarations for all opaque C types.">
<polygon fill="white" stroke="black" points="145.5,-257.5 145.5,-276.5 285.5,-276.5 285.5,-257.5 145.5,-257.5"/>
<text text-anchor="middle" x="215.5" y="-264.5" font-family="Helvetica,sans-Serif" font-size="10.00">sbml/common/sbmlfwd.h</text>
</a>
</g>
</g>
<!-- Node1&#45;&gt;Node4 -->
<g id="edge3" class="edge">
<title>Node1&#45;&gt;Node4</title>
<path fill="none" stroke="midnightblue" d="M289.74,-370.82C248.29,-363.5 192.86,-350.7 179.5,-333 167.63,-317.28 182.73,-297.18 196.85,-283.53"/>
<polygon fill="midnightblue" stroke="midnightblue" points="199.36,-285.98 204.42,-276.67 194.66,-280.79 199.36,-285.98"/>
</g>
<!-- Node9 -->
<g id="node9" class="node">
<title>Node9</title>
<g id="a_node9"><a xlink:href="operation_return_values_8h.html" target="_top" xlink:title="Enumeration of values returned by operations within libSBML.">
<polygon fill="white" stroke="black" points="338.5,-190.5 338.5,-220.5 506.5,-220.5 506.5,-190.5 338.5,-190.5"/>
<text text-anchor="start" x="346.5" y="-208.5" font-family="Helvetica,sans-Serif" font-size="10.00">sbml/common/operationReturn</text>
<text text-anchor="middle" x="422.5" y="-197.5" font-family="Helvetica,sans-Serif" font-size="10.00">Values.h</text>
</a>
</g>
</g>
<!-- Node1&#45;&gt;Node9 -->
<g id="edge11" class="edge">
<title>Node1&#45;&gt;Node9</title>
<path fill="none" stroke="midnightblue" d="M341.83,-369.26C354.47,-343.76 391.62,-268.81 410.78,-230.15"/>
<polygon fill="midnightblue" stroke="midnightblue" points="414.15,-231.24 415.45,-220.72 407.87,-228.13 414.15,-231.24"/>
</g>
<!-- Node10 -->
<g id="node10" class="node">
<title>Node10</title>
<g id="a_node10"><a xlink:title=" ">
<polygon fill="white" stroke="#bfbfbf" points="303.5,-257.5 303.5,-276.5 347.5,-276.5 347.5,-257.5 303.5,-257.5"/>
<text text-anchor="middle" x="325.5" y="-264.5" font-family="Helvetica,sans-Serif" font-size="10.00">string</text>
</a>
</g>
</g>
<!-- Node1&#45;&gt;Node10 -->
<g id="edge13" class="edge">
<title>Node1&#45;&gt;Node10</title>
<path fill="none" stroke="midnightblue" d="M336.56,-369.37C334.62,-351.62 330.15,-310.67 327.53,-286.6"/>
<polygon fill="midnightblue" stroke="midnightblue" points="331,-286.15 326.44,-276.59 324.04,-286.91 331,-286.15"/>
</g>
<!-- Node11 -->
<g id="node11" class="node">
<title>Node11</title>
<g id="a_node11"><a xlink:title=" ">
<polygon fill="white" stroke="#bfbfbf" points="404,-313.5 404,-332.5 451,-332.5 451,-313.5 404,-313.5"/>
<text text-anchor="middle" x="427.5" y="-320.5" font-family="Helvetica,sans-Serif" font-size="10.00">vector</text>
</a>
</g>
</g>
<!-- Node1&#45;&gt;Node11 -->
<g id="edge14" class="edge">
<title>Node1&#45;&gt;Node11</title>
<path fill="none" stroke="midnightblue" d="M351.96,-369.32C366,-360.9 387.55,-347.97 404.04,-338.07"/>
<polygon fill="midnightblue" stroke="midnightblue" points="406.3,-340.8 413.08,-332.65 402.7,-334.8 406.3,-340.8"/>
</g>
<!-- Node12 -->
<g id="node12" class="node">
<title>Node12</title>
<g id="a_node12"><a xlink:title=" ">
<polygon fill="white" stroke="#bfbfbf" points="469,-313.5 469,-332.5 534,-332.5 534,-313.5 469,-313.5"/>
<text text-anchor="middle" x="501.5" y="-320.5" font-family="Helvetica,sans-Serif" font-size="10.00">stdexcept</text>
</a>
</g>
</g>
<!-- Node1&#45;&gt;Node12 -->
<g id="edge15" class="edge">
<title>Node1&#45;&gt;Node12</title>
<path fill="none" stroke="midnightblue" d="M363.49,-369.44C391.2,-360.32 435.25,-345.81 466.12,-335.65"/>
<polygon fill="midnightblue" stroke="midnightblue" points="467.23,-338.97 475.64,-332.52 465.04,-332.32 467.23,-338.97"/>
</g>
<!-- Node13 -->
<g id="node13" class="node">
<title>Node13</title>
<g id="a_node13"><a xlink:href="_x_m_l_triple_8h.html" target="_top" xlink:title="Stores an XML namespace triple.">
<polygon fill="white" stroke="black" points="188,-313.5 188,-332.5 309,-332.5 309,-313.5 188,-313.5"/>
<text text-anchor="middle" x="248.5" y="-320.5" font-family="Helvetica,sans-Serif" font-size="10.00">sbml/xml/XMLTriple.h</text>
</a>
</g>
</g>
<!-- Node1&#45;&gt;Node13 -->
<g id="edge16" class="edge">
<title>Node1&#45;&gt;Node13</title>
<path fill="none" stroke="midnightblue" d="M323.2,-369.32C309.32,-360.9 288.01,-347.97 271.7,-338.07"/>
<polygon fill="midnightblue" stroke="midnightblue" points="273.13,-334.85 262.76,-332.65 269.5,-340.83 273.13,-334.85"/>
</g>
<!-- Node3 -->
<g id="node3" class="node">
<title>Node3</title>
<g id="a_node3"><a xlink:title=" ">
<polygon fill="white" stroke="#bfbfbf" points="51,-0.5 51,-30.5 176,-30.5 176,-0.5 51,-0.5"/>
<text text-anchor="start" x="59" y="-18.5" font-family="Helvetica,sans-Serif" font-size="10.00">sbml/common/libsbml</text>
<text text-anchor="middle" x="113.5" y="-7.5" font-family="Helvetica,sans-Serif" font-size="10.00">&#45;namespace.h</text>
</a>
</g>
</g>
<!-- Node2&#45;&gt;Node3 -->
<g id="edge2" class="edge">
<title>Node2&#45;&gt;Node3</title>
<path fill="none" stroke="midnightblue" d="M62.77,-257.35C60.68,-229.08 56.31,-137.15 80.5,-67 83.95,-57.01 89.8,-47.04 95.64,-38.64"/>
<polygon fill="midnightblue" stroke="midnightblue" points="98.51,-40.64 101.61,-30.51 92.87,-36.5 98.51,-40.64"/>
</g>
<!-- Node4&#45;&gt;Node3 -->
<g id="edge4" class="edge">
<title>Node4&#45;&gt;Node3</title>
<path fill="none" stroke="midnightblue" d="M194.84,-257.47C179.47,-250.06 159.2,-237.86 147.5,-221 109.06,-165.61 108.67,-81.79 111.23,-40.8"/>
<polygon fill="midnightblue" stroke="midnightblue" points="114.73,-40.89 111.98,-30.66 107.75,-40.37 114.73,-40.89"/>
</g>
<!-- Node5 -->
<g id="node5" class="node">
<title>Node5</title>
<g id="a_node5"><a xlink:href="libsbml-config_8h.html" target="_top" xlink:title="Decides whether to #include Unix or Windows configuration variables.">
<polygon fill="white" stroke="black" points="157,-190.5 157,-220.5 282,-220.5 282,-190.5 157,-190.5"/>
<text text-anchor="start" x="165" y="-208.5" font-family="Helvetica,sans-Serif" font-size="10.00">sbml/common/libsbml</text>
<text text-anchor="middle" x="219.5" y="-197.5" font-family="Helvetica,sans-Serif" font-size="10.00">&#45;config.h</text>
</a>
</g>
</g>
<!-- Node4&#45;&gt;Node5 -->
<g id="edge5" class="edge">
<title>Node4&#45;&gt;Node5</title>
<path fill="none" stroke="midnightblue" d="M216.07,-257.48C216.54,-250.47 217.23,-240.19 217.87,-230.7"/>
<polygon fill="midnightblue" stroke="midnightblue" points="221.38,-230.74 218.56,-220.52 214.39,-230.27 221.38,-230.74"/>
</g>
<!-- Node5&#45;&gt;Node3 -->
<g id="edge6" class="edge">
<title>Node5&#45;&gt;Node3</title>
<path fill="none" stroke="midnightblue" d="M192.81,-190.48C178.61,-181.76 161.97,-169.28 151.5,-154 127.66,-119.22 118.72,-69.89 115.41,-40.74"/>
<polygon fill="midnightblue" stroke="midnightblue" points="118.88,-40.23 114.4,-30.63 111.91,-40.93 118.88,-40.23"/>
</g>
<!-- Node6 -->
<g id="node6" class="node">
<title>Node6</title>
<g id="a_node6"><a xlink:title=" ">
<polygon fill="white" stroke="#bfbfbf" points="304,-123.5 304,-153.5 429,-153.5 429,-123.5 304,-123.5"/>
<text text-anchor="start" x="312" y="-141.5" font-family="Helvetica,sans-Serif" font-size="10.00">sbml/common/libsbml</text>
<text text-anchor="middle" x="366.5" y="-130.5" font-family="Helvetica,sans-Serif" font-size="10.00">&#45;config&#45;common.h</text>
</a>
</g>
</g>
<!-- Node5&#45;&gt;Node6 -->
<g id="edge7" class="edge">
<title>Node5&#45;&gt;Node6</title>
<path fill="none" stroke="midnightblue" d="M251.4,-190.4C273.07,-180.81 301.93,-168.05 325.34,-157.7"/>
<polygon fill="midnightblue" stroke="midnightblue" points="326.94,-160.82 334.67,-153.58 324.1,-154.42 326.94,-160.82"/>
</g>
<!-- Node7 -->
<g id="node7" class="node">
<title>Node7</title>
<g id="a_node7"><a xlink:href="libsbml-version_8h.html" target="_top" xlink:title="Define libSBML version numbers for access from client software.">
<polygon fill="white" stroke="black" points="161,-123.5 161,-153.5 286,-153.5 286,-123.5 161,-123.5"/>
<text text-anchor="start" x="169" y="-141.5" font-family="Helvetica,sans-Serif" font-size="10.00">sbml/common/libsbml</text>
<text text-anchor="middle" x="223.5" y="-130.5" font-family="Helvetica,sans-Serif" font-size="10.00">&#45;version.h</text>
</a>
</g>
</g>
<!-- Node5&#45;&gt;Node7 -->
<g id="edge8" class="edge">
<title>Node5&#45;&gt;Node7</title>
<path fill="none" stroke="midnightblue" d="M220.37,-190.4C220.85,-182.56 221.46,-172.6 222.02,-163.57"/>
<polygon fill="midnightblue" stroke="midnightblue" points="225.51,-163.77 222.63,-153.58 218.53,-163.34 225.51,-163.77"/>
</g>
<!-- Node8 -->
<g id="node8" class="node">
<title>Node8</title>
<g id="a_node8"><a xlink:href="extern_8h.html" target="_top" xlink:title="Definitions of LIBSBML_EXTERN and related things.">
<polygon fill="white" stroke="black" points="160.5,-67.5 160.5,-86.5 290.5,-86.5 290.5,-67.5 160.5,-67.5"/>
<text text-anchor="middle" x="225.5" y="-74.5" font-family="Helvetica,sans-Serif" font-size="10.00">sbml/common/extern.h</text>
</a>
</g>
</g>
<!-- Node7&#45;&gt;Node8 -->
<g id="edge9" class="edge">
<title>Node7&#45;&gt;Node8</title>
<path fill="none" stroke="midnightblue" d="M223.97,-123.4C224.24,-115.47 224.58,-105.46 224.87,-96.86"/>
<polygon fill="midnightblue" stroke="midnightblue" points="228.37,-96.77 225.21,-86.66 221.37,-96.53 228.37,-96.77"/>
</g>
<!-- Node8&#45;&gt;Node3 -->
<g id="edge10" class="edge">
<title>Node8&#45;&gt;Node3</title>
<path fill="none" stroke="midnightblue" d="M209.45,-67.48C193.72,-59.12 169.2,-46.09 148.89,-35.3"/>
<polygon fill="midnightblue" stroke="midnightblue" points="150.37,-32.12 139.9,-30.52 147.09,-38.31 150.37,-32.12"/>
</g>
<!-- Node9&#45;&gt;Node8 -->
<g id="edge12" class="edge">
<title>Node9&#45;&gt;Node8</title>
<path fill="none" stroke="midnightblue" d="M431.41,-190.46C441.38,-172.78 454.21,-142.38 438.5,-123 421.19,-101.65 354.79,-90.03 300.67,-83.98"/>
<polygon fill="midnightblue" stroke="midnightblue" points="301.04,-80.5 290.73,-82.92 300.3,-87.46 301.04,-80.5"/>
</g>
<!-- Node13&#45;&gt;Node2 -->
<g id="edge17" class="edge">
<title>Node13&#45;&gt;Node2</title>
<path fill="none" stroke="midnightblue" d="M219.19,-313.44C187.66,-304.24 137.37,-289.56 102.51,-279.39"/>
<polygon fill="midnightblue" stroke="midnightblue" points="103.26,-275.96 92.68,-276.52 101.3,-282.68 103.26,-275.96"/>
</g>
<!-- Node13&#45;&gt;Node4 -->
<g id="edge18" class="edge">
<title>Node13&#45;&gt;Node4</title>
<path fill="none" stroke="midnightblue" d="M243.05,-313.08C238.49,-305.61 231.83,-294.72 226.21,-285.52"/>
<polygon fill="midnightblue" stroke="midnightblue" points="229.05,-283.46 220.85,-276.75 223.08,-287.11 229.05,-283.46"/>
</g>
<!-- Node13&#45;&gt;Node10 -->
<g id="edge19" class="edge">
<title>Node13&#45;&gt;Node10</title>
<path fill="none" stroke="midnightblue" d="M260.87,-313.32C272.66,-305.06 290.63,-292.45 304.64,-282.63"/>
<polygon fill="midnightblue" stroke="midnightblue" points="306.98,-285.26 313.16,-276.65 302.96,-279.53 306.98,-285.26"/>
</g>
</g>
</svg>
