<?xml version="1.0" encoding="UTF-8" standalone="no"?>
<!DOCTYPE svg PUBLIC "-//W3C//DTD SVG 1.1//EN"
 "http://www.w3.org/Graphics/SVG/1.1/DTD/svg11.dtd">
<!-- Generated by graphviz version 2.43.0 (0)
 -->
<!-- Title: XMLConstructorException.cpp Pages: 1 -->
<svg width="492pt" height="397pt"
 viewBox="0.00 0.00 491.50 397.00" xmlns="http://www.w3.org/2000/svg" xmlns:xlink="http://www.w3.org/1999/xlink">
<g id="graph0" class="graph" transform="scale(1 1) rotate(0) translate(4 393)">
<title>XMLConstructorException.cpp</title>
<polygon fill="white" stroke="transparent" points="-4,4 -4,-393 487.5,-393 487.5,4 -4,4"/>
<!-- Node1 -->
<g id="node1" class="node">
<title>Node1</title>
<g id="a_node1"><a xlink:title="XMLConstructorException an exception thrown by XML classes.">
<polygon fill="#bfbfbf" stroke="black" points="0,-369.5 0,-388.5 162,-388.5 162,-369.5 0,-369.5"/>
<text text-anchor="middle" x="81" y="-376.5" font-family="Helvetica,sans-Serif" font-size="10.00">XMLConstructorException.cpp</text>
</a>
</g>
</g>
<!-- Node2 -->
<g id="node2" class="node">
<title>Node2</title>
<g id="a_node2"><a xlink:title=" ">
<polygon fill="white" stroke="#bfbfbf" points="3.5,-313.5 3.5,-332.5 52.5,-332.5 52.5,-313.5 3.5,-313.5"/>
<text text-anchor="middle" x="28" y="-320.5" font-family="Helvetica,sans-Serif" font-size="10.00">cstdlib</text>
</a>
</g>
</g>
<!-- Node1&#45;&gt;Node2 -->
<g id="edge1" class="edge">
<title>Node1&#45;&gt;Node2</title>
<path fill="none" stroke="midnightblue" d="M72.25,-369.08C64.53,-361.22 53.1,-349.57 43.78,-340.08"/>
<polygon fill="midnightblue" stroke="midnightblue" points="46.09,-337.44 36.59,-332.75 41.1,-342.34 46.09,-337.44"/>
</g>
<!-- Node3 -->
<g id="node3" class="node">
<title>Node3</title>
<g id="a_node3"><a xlink:title=" ">
<polygon fill="white" stroke="#bfbfbf" points="68,-257.5 68,-276.5 112,-276.5 112,-257.5 68,-257.5"/>
<text text-anchor="middle" x="90" y="-264.5" font-family="Helvetica,sans-Serif" font-size="10.00">string</text>
</a>
</g>
</g>
<!-- Node1&#45;&gt;Node3 -->
<g id="edge2" class="edge">
<title>Node1&#45;&gt;Node3</title>
<path fill="none" stroke="midnightblue" d="M81.71,-369.37C83.16,-351.62 86.51,-310.67 88.48,-286.6"/>
<polygon fill="midnightblue" stroke="midnightblue" points="91.97,-286.84 89.3,-276.59 84.99,-286.27 91.97,-286.84"/>
</g>
<!-- Node4 -->
<g id="node4" class="node">
<title>Node4</title>
<g id="a_node4"><a xlink:href="_x_m_l_constructor_exception_8h.html" target="_top" xlink:title="XMLConstructorException an exception thrown by XML classes.">
<polygon fill="white" stroke="black" points="109,-313.5 109,-332.5 309,-332.5 309,-313.5 109,-313.5"/>
<text text-anchor="middle" x="209" y="-320.5" font-family="Helvetica,sans-Serif" font-size="10.00">sbml/xml/XMLConstructorException.h</text>
</a>
</g>
</g>
<!-- Node1&#45;&gt;Node4 -->
<g id="edge3" class="edge">
<title>Node1&#45;&gt;Node4</title>
<path fill="none" stroke="midnightblue" d="M101.28,-369.44C122.35,-360.56 155.52,-346.56 179.49,-336.45"/>
<polygon fill="midnightblue" stroke="midnightblue" points="180.96,-339.63 188.81,-332.52 178.24,-333.18 180.96,-339.63"/>
</g>
<!-- Node4&#45;&gt;Node3 -->
<g id="edge12" class="edge">
<title>Node4&#45;&gt;Node3</title>
<path fill="none" stroke="midnightblue" d="M190.14,-313.44C170.73,-304.64 140.27,-290.81 118.04,-280.72"/>
<polygon fill="midnightblue" stroke="midnightblue" points="119.32,-277.46 108.77,-276.52 116.43,-283.84 119.32,-277.46"/>
</g>
<!-- Node5 -->
<g id="node5" class="node">
<title>Node5</title>
<g id="a_node5"><a xlink:href="sbmlfwd_8h.html" target="_top" xlink:title="Forward declarations for all opaque C types.">
<polygon fill="white" stroke="black" points="134,-257.5 134,-276.5 274,-276.5 274,-257.5 134,-257.5"/>
<text text-anchor="middle" x="204" y="-264.5" font-family="Helvetica,sans-Serif" font-size="10.00">sbml/common/sbmlfwd.h</text>
</a>
</g>
</g>
<!-- Node4&#45;&gt;Node5 -->
<g id="edge4" class="edge">
<title>Node4&#45;&gt;Node5</title>
<path fill="none" stroke="midnightblue" d="M208.17,-313.08C207.52,-306.01 206.58,-295.86 205.76,-286.99"/>
<polygon fill="midnightblue" stroke="midnightblue" points="209.22,-286.39 204.81,-276.75 202.25,-287.03 209.22,-286.39"/>
</g>
<!-- Node11 -->
<g id="node11" class="node">
<title>Node11</title>
<g id="a_node11"><a xlink:title=" ">
<polygon fill="white" stroke="#bfbfbf" points="292.5,-257.5 292.5,-276.5 357.5,-276.5 357.5,-257.5 292.5,-257.5"/>
<text text-anchor="middle" x="325" y="-264.5" font-family="Helvetica,sans-Serif" font-size="10.00">stdexcept</text>
</a>
</g>
</g>
<!-- Node4&#45;&gt;Node11 -->
<g id="edge13" class="edge">
<title>Node4&#45;&gt;Node11</title>
<path fill="none" stroke="midnightblue" d="M227.38,-313.44C246.22,-304.68 275.73,-290.94 297.38,-280.86"/>
<polygon fill="midnightblue" stroke="midnightblue" points="299.12,-283.91 306.71,-276.52 296.16,-277.56 299.12,-283.91"/>
</g>
<!-- Node6 -->
<g id="node6" class="node">
<title>Node6</title>
<g id="a_node6"><a xlink:title=" ">
<polygon fill="white" stroke="#bfbfbf" points="124.5,-0.5 124.5,-30.5 249.5,-30.5 249.5,-0.5 124.5,-0.5"/>
<text text-anchor="start" x="132.5" y="-18.5" font-family="Helvetica,sans-Serif" font-size="10.00">sbml/common/libsbml</text>
<text text-anchor="middle" x="187" y="-7.5" font-family="Helvetica,sans-Serif" font-size="10.00">&#45;namespace.h</text>
</a>
</g>
</g>
<!-- Node5&#45;&gt;Node6 -->
<g id="edge5" class="edge">
<title>Node5&#45;&gt;Node6</title>
<path fill="none" stroke="midnightblue" d="M199.72,-257.29C195.59,-248.41 189.6,-234.11 187,-221 174.32,-156.97 179.85,-79.43 183.98,-40.82"/>
<polygon fill="midnightblue" stroke="midnightblue" points="187.49,-40.9 185.14,-30.57 180.54,-40.11 187.49,-40.9"/>
</g>
<!-- Node7 -->
<g id="node7" class="node">
<title>Node7</title>
<g id="a_node7"><a xlink:href="libsbml-config_8h.html" target="_top" xlink:title="Decides whether to #include Unix or Windows configuration variables.">
<polygon fill="white" stroke="black" points="196.5,-190.5 196.5,-220.5 321.5,-220.5 321.5,-190.5 196.5,-190.5"/>
<text text-anchor="start" x="204.5" y="-208.5" font-family="Helvetica,sans-Serif" font-size="10.00">sbml/common/libsbml</text>
<text text-anchor="middle" x="259" y="-197.5" font-family="Helvetica,sans-Serif" font-size="10.00">&#45;config.h</text>
</a>
</g>
</g>
<!-- Node5&#45;&gt;Node7 -->
<g id="edge6" class="edge">
<title>Node5&#45;&gt;Node7</title>
<path fill="none" stroke="midnightblue" d="M211.88,-257.48C218.98,-249.79 229.72,-238.17 239.16,-227.96"/>
<polygon fill="midnightblue" stroke="midnightblue" points="241.82,-230.24 246.04,-220.52 236.68,-225.49 241.82,-230.24"/>
</g>
<!-- Node7&#45;&gt;Node6 -->
<g id="edge7" class="edge">
<title>Node7&#45;&gt;Node6</title>
<path fill="none" stroke="midnightblue" d="M238.33,-190.32C226.87,-181.3 213.48,-168.59 206,-154 187.47,-117.84 185.11,-69.66 185.65,-40.98"/>
<polygon fill="midnightblue" stroke="midnightblue" points="189.16,-40.78 185.99,-30.67 182.17,-40.55 189.16,-40.78"/>
</g>
<!-- Node8 -->
<g id="node8" class="node">
<title>Node8</title>
<g id="a_node8"><a xlink:title=" ">
<polygon fill="white" stroke="#bfbfbf" points="215.5,-123.5 215.5,-153.5 340.5,-153.5 340.5,-123.5 215.5,-123.5"/>
<text text-anchor="start" x="223.5" y="-141.5" font-family="Helvetica,sans-Serif" font-size="10.00">sbml/common/libsbml</text>
<text text-anchor="middle" x="278" y="-130.5" font-family="Helvetica,sans-Serif" font-size="10.00">&#45;config&#45;common.h</text>
</a>
</g>
</g>
<!-- Node7&#45;&gt;Node8 -->
<g id="edge8" class="edge">
<title>Node7&#45;&gt;Node8</title>
<path fill="none" stroke="midnightblue" d="M263.12,-190.4C265.44,-182.47 268.39,-172.38 271.05,-163.27"/>
<polygon fill="midnightblue" stroke="midnightblue" points="274.44,-164.16 273.89,-153.58 267.72,-162.19 274.44,-164.16"/>
</g>
<!-- Node9 -->
<g id="node9" class="node">
<title>Node9</title>
<g id="a_node9"><a xlink:href="libsbml-version_8h.html" target="_top" xlink:title="Define libSBML version numbers for access from client software.">
<polygon fill="white" stroke="black" points="358.5,-123.5 358.5,-153.5 483.5,-153.5 483.5,-123.5 358.5,-123.5"/>
<text text-anchor="start" x="366.5" y="-141.5" font-family="Helvetica,sans-Serif" font-size="10.00">sbml/common/libsbml</text>
<text text-anchor="middle" x="421" y="-130.5" font-family="Helvetica,sans-Serif" font-size="10.00">&#45;version.h</text>
</a>
</g>
</g>
<!-- Node7&#45;&gt;Node9 -->
<g id="edge9" class="edge">
<title>Node7&#45;&gt;Node9</title>
<path fill="none" stroke="midnightblue" d="M294.15,-190.4C318.25,-180.73 350.41,-167.82 376.32,-157.43"/>
<polygon fill="midnightblue" stroke="midnightblue" points="377.94,-160.55 385.92,-153.58 375.33,-154.05 377.94,-160.55"/>
</g>
<!-- Node10 -->
<g id="node10" class="node">
<title>Node10</title>
<g id="a_node10"><a xlink:href="extern_8h.html" target="_top" xlink:title="Definitions of LIBSBML_EXTERN and related things.">
<polygon fill="white" stroke="black" points="285,-67.5 285,-86.5 415,-86.5 415,-67.5 285,-67.5"/>
<text text-anchor="middle" x="350" y="-74.5" font-family="Helvetica,sans-Serif" font-size="10.00">sbml/common/extern.h</text>
</a>
</g>
</g>
<!-- Node9&#45;&gt;Node10 -->
<g id="edge10" class="edge">
<title>Node9&#45;&gt;Node10</title>
<path fill="none" stroke="midnightblue" d="M404.17,-123.4C393.33,-114.31 379.22,-102.49 368.13,-93.19"/>
<polygon fill="midnightblue" stroke="midnightblue" points="370.24,-90.4 360.33,-86.66 365.75,-95.76 370.24,-90.4"/>
</g>
<!-- Node10&#45;&gt;Node6 -->
<g id="edge11" class="edge">
<title>Node10&#45;&gt;Node6</title>
<path fill="none" stroke="midnightblue" d="M326.65,-67.48C302.82,-58.78 265.15,-45.03 234.94,-34"/>
<polygon fill="midnightblue" stroke="midnightblue" points="236.01,-30.66 225.42,-30.52 233.61,-37.24 236.01,-30.66"/>
</g>
</g>
</svg>
