<?xml version="1.0" encoding="UTF-8" standalone="no"?>
<!DOCTYPE svg PUBLIC "-//W3C//DTD SVG 1.1//EN"
 "http://www.w3.org/Graphics/SVG/1.1/DTD/svg11.dtd">
<!-- Generated by graphviz version 2.43.0 (0)
 -->
<!-- Title: XMLInputStream.h Pages: 1 -->
<svg width="971pt" height="520pt"
 viewBox="0.00 0.00 970.50 520.00" xmlns="http://www.w3.org/2000/svg" xmlns:xlink="http://www.w3.org/1999/xlink">
<g id="graph0" class="graph" transform="scale(1 1) rotate(0) translate(4 516)">
<title>XMLInputStream.h</title>
<polygon fill="white" stroke="transparent" points="-4,4 -4,-516 966.5,-516 966.5,4 -4,4"/>
<!-- Node1 -->
<g id="node1" class="node">
<title>Node1</title>
<g id="a_node1"><a xlink:title="XMLInputStream.">
<polygon fill="#bfbfbf" stroke="black" points="565,-492.5 565,-511.5 672,-511.5 672,-492.5 565,-492.5"/>
<text text-anchor="middle" x="618.5" y="-499.5" font-family="Helvetica,sans-Serif" font-size="10.00">XMLInputStream.h</text>
</a>
</g>
</g>
<!-- Node2 -->
<g id="node2" class="node">
<title>Node2</title>
<g id="a_node2"><a xlink:href="_x_m_l_extern_8h.html" target="_top" xlink:title="Defines LIBLAX_EXTERN.">
<polygon fill="white" stroke="black" points="0,-263 0,-282 127,-282 127,-263 0,-263"/>
<text text-anchor="middle" x="63.5" y="-270" font-family="Helvetica,sans-Serif" font-size="10.00">sbml/xml/XMLExtern.h</text>
</a>
</g>
</g>
<!-- Node1&#45;&gt;Node2 -->
<g id="edge1" class="edge">
<title>Node1&#45;&gt;Node2</title>
<path fill="none" stroke="midnightblue" d="M564.82,-499.85C457.11,-496.9 218.53,-486.99 143.5,-456 85.24,-431.94 66.76,-406.19 56.5,-344 53.62,-326.57 56.18,-306.51 58.97,-292.26"/>
<polygon fill="midnightblue" stroke="midnightblue" points="62.45,-292.75 61.17,-282.23 55.61,-291.25 62.45,-292.75"/>
</g>
<!-- Node4 -->
<g id="node4" class="node">
<title>Node4</title>
<g id="a_node4"><a xlink:href="_x_m_l_token_8h.html" target="_top" xlink:title="A unit of XML syntax, either an XML element or text.">
<polygon fill="white" stroke="black" points="207.5,-436.5 207.5,-455.5 329.5,-455.5 329.5,-436.5 207.5,-436.5"/>
<text text-anchor="middle" x="268.5" y="-443.5" font-family="Helvetica,sans-Serif" font-size="10.00">sbml/xml/XMLToken.h</text>
</a>
</g>
</g>
<!-- Node1&#45;&gt;Node4 -->
<g id="edge3" class="edge">
<title>Node1&#45;&gt;Node4</title>
<path fill="none" stroke="midnightblue" d="M564.96,-492.74C502.85,-483.16 400.46,-467.36 333.75,-457.07"/>
<polygon fill="midnightblue" stroke="midnightblue" points="334.18,-453.59 323.77,-455.53 333.12,-460.51 334.18,-453.59"/>
</g>
<!-- Node6 -->
<g id="node6" class="node">
<title>Node6</title>
<g id="a_node6"><a xlink:href="sbmlfwd_8h.html" target="_top" xlink:title="Forward declarations for all opaque C types.">
<polygon fill="white" stroke="black" points="151.5,-263 151.5,-282 291.5,-282 291.5,-263 151.5,-263"/>
<text text-anchor="middle" x="221.5" y="-270" font-family="Helvetica,sans-Serif" font-size="10.00">sbml/common/sbmlfwd.h</text>
</a>
</g>
</g>
<!-- Node1&#45;&gt;Node6 -->
<g id="edge27" class="edge">
<title>Node1&#45;&gt;Node6</title>
<path fill="none" stroke="midnightblue" d="M564.66,-498.01C467.16,-492.15 265.26,-477.76 198.5,-456 151.17,-440.57 137.74,-434.12 101.5,-400 74.15,-374.25 42.37,-354.36 64.5,-324 76.74,-307.2 125.6,-293.21 165.6,-284.25"/>
<polygon fill="midnightblue" stroke="midnightblue" points="166.53,-287.63 175.56,-282.08 165.04,-280.79 166.53,-287.63"/>
</g>
<!-- Node11 -->
<g id="node11" class="node">
<title>Node11</title>
<g id="a_node11"><a xlink:href="operation_return_values_8h.html" target="_top" xlink:title="Enumeration of values returned by operations within libSBML.">
<polygon fill="white" stroke="black" points="519.5,-257.5 519.5,-287.5 687.5,-287.5 687.5,-257.5 519.5,-257.5"/>
<text text-anchor="start" x="527.5" y="-275.5" font-family="Helvetica,sans-Serif" font-size="10.00">sbml/common/operationReturn</text>
<text text-anchor="middle" x="603.5" y="-264.5" font-family="Helvetica,sans-Serif" font-size="10.00">Values.h</text>
</a>
</g>
</g>
<!-- Node1&#45;&gt;Node11 -->
<g id="edge28" class="edge">
<title>Node1&#45;&gt;Node11</title>
<path fill="none" stroke="midnightblue" d="M672.22,-493.33C694.76,-487.17 718.86,-476.06 732.5,-456 765.5,-407.49 765.57,-372.46 732.5,-324 722.53,-309.39 707.63,-299 691.47,-291.62"/>
<polygon fill="midnightblue" stroke="midnightblue" points="692.41,-288.22 681.84,-287.61 689.73,-294.69 692.41,-288.22"/>
</g>
<!-- Node12 -->
<g id="node12" class="node">
<title>Node12</title>
<g id="a_node12"><a xlink:title=" ">
<polygon fill="white" stroke="#bfbfbf" points="457.5,-263 457.5,-282 501.5,-282 501.5,-263 457.5,-263"/>
<text text-anchor="middle" x="479.5" y="-270" font-family="Helvetica,sans-Serif" font-size="10.00">string</text>
</a>
</g>
</g>
<!-- Node1&#45;&gt;Node12 -->
<g id="edge47" class="edge">
<title>Node1&#45;&gt;Node12</title>
<path fill="none" stroke="midnightblue" d="M631.85,-492.49C659.81,-473.52 720.29,-425.81 699.5,-380 660.9,-294.93 597.97,-320.82 510.5,-288 509.07,-287.47 507.62,-286.89 506.17,-286.29"/>
<polygon fill="midnightblue" stroke="midnightblue" points="507.24,-282.94 496.67,-282.12 504.42,-289.35 507.24,-282.94"/>
</g>
<!-- Node16 -->
<g id="node16" class="node">
<title>Node16</title>
<g id="a_node16"><a xlink:href="_s_b_m_l_namespaces_8h.html" target="_top" xlink:title="SBMLNamespaces class to store level/version and namespace.">
<polygon fill="white" stroke="black" points="547,-380.5 547,-399.5 690,-399.5 690,-380.5 547,-380.5"/>
<text text-anchor="middle" x="618.5" y="-387.5" font-family="Helvetica,sans-Serif" font-size="10.00">sbml/SBMLNamespaces.h</text>
</a>
</g>
</g>
<!-- Node1&#45;&gt;Node16 -->
<g id="edge29" class="edge">
<title>Node1&#45;&gt;Node16</title>
<path fill="none" stroke="midnightblue" d="M618.5,-492.37C618.5,-474.62 618.5,-433.67 618.5,-409.6"/>
<polygon fill="midnightblue" stroke="midnightblue" points="622,-409.59 618.5,-399.59 615,-409.59 622,-409.59"/>
</g>
<!-- Node23 -->
<g id="node23" class="node">
<title>Node23</title>
<g id="a_node23"><a xlink:href="_x_m_l_tokenizer_8h.html" target="_top" xlink:title=" ">
<polygon fill="white" stroke="black" points="822.5,-436.5 822.5,-455.5 962.5,-455.5 962.5,-436.5 822.5,-436.5"/>
<text text-anchor="middle" x="892.5" y="-443.5" font-family="Helvetica,sans-Serif" font-size="10.00">sbml/xml/XMLTokenizer.h</text>
</a>
</g>
</g>
<!-- Node1&#45;&gt;Node23 -->
<g id="edge48" class="edge">
<title>Node1&#45;&gt;Node23</title>
<path fill="none" stroke="midnightblue" d="M661.92,-492.44C710.02,-482.96 787.59,-467.67 839.31,-457.48"/>
<polygon fill="midnightblue" stroke="midnightblue" points="840.15,-460.88 849.29,-455.52 838.8,-454.02 840.15,-460.88"/>
</g>
<!-- Node3 -->
<g id="node3" class="node">
<title>Node3</title>
<g id="a_node3"><a xlink:title=" ">
<polygon fill="white" stroke="#bfbfbf" points="178,-0.5 178,-30.5 303,-30.5 303,-0.5 178,-0.5"/>
<text text-anchor="start" x="186" y="-18.5" font-family="Helvetica,sans-Serif" font-size="10.00">sbml/common/libsbml</text>
<text text-anchor="middle" x="240.5" y="-7.5" font-family="Helvetica,sans-Serif" font-size="10.00">&#45;namespace.h</text>
</a>
</g>
</g>
<!-- Node2&#45;&gt;Node3 -->
<g id="edge2" class="edge">
<title>Node2&#45;&gt;Node3</title>
<path fill="none" stroke="midnightblue" d="M69.59,-262.72C94.3,-227.12 187.5,-92.86 224.86,-39.03"/>
<polygon fill="midnightblue" stroke="midnightblue" points="227.94,-40.74 230.76,-30.53 222.19,-36.75 227.94,-40.74"/>
</g>
<!-- Node4&#45;&gt;Node2 -->
<g id="edge4" class="edge">
<title>Node4&#45;&gt;Node2</title>
<path fill="none" stroke="midnightblue" d="M207.18,-439.17C173.44,-433.47 132.3,-422.23 101.5,-400 77.31,-382.54 73.29,-372.51 64.5,-344 59.32,-327.2 59.64,-307.06 60.91,-292.62"/>
<polygon fill="midnightblue" stroke="midnightblue" points="64.42,-292.76 62.06,-282.43 57.46,-291.98 64.42,-292.76"/>
</g>
<!-- Node4&#45;&gt;Node4 -->
<g id="edge24" class="edge">
<title>Node4&#45;&gt;Node4</title>
<path fill="none" stroke="midnightblue" d="M302.19,-455.53C325.09,-458.31 347.5,-455.13 347.5,-446 347.5,-438.22 331.25,-434.77 312.29,-435.63"/>
<polygon fill="midnightblue" stroke="midnightblue" points="311.87,-432.15 302.19,-436.47 312.45,-439.13 311.87,-432.15"/>
</g>
<!-- Node5 -->
<g id="node5" class="node">
<title>Node5</title>
<g id="a_node5"><a xlink:href="_x_m_l_attributes_8h.html" target="_top" xlink:title="XMLAttributes are a list of name/value pairs for XML elements.">
<polygon fill="white" stroke="black" points="196.5,-380.5 196.5,-399.5 340.5,-399.5 340.5,-380.5 196.5,-380.5"/>
<text text-anchor="middle" x="268.5" y="-387.5" font-family="Helvetica,sans-Serif" font-size="10.00">sbml/xml/XMLAttributes.h</text>
</a>
</g>
</g>
<!-- Node4&#45;&gt;Node5 -->
<g id="edge5" class="edge">
<title>Node4&#45;&gt;Node5</title>
<path fill="none" stroke="midnightblue" d="M268.5,-436.08C268.5,-429.01 268.5,-418.86 268.5,-409.99"/>
<polygon fill="midnightblue" stroke="midnightblue" points="272,-409.75 268.5,-399.75 265,-409.75 272,-409.75"/>
</g>
<!-- Node4&#45;&gt;Node6 -->
<g id="edge25" class="edge">
<title>Node4&#45;&gt;Node6</title>
<path fill="none" stroke="midnightblue" d="M225.12,-436.45C178.17,-424.62 105.58,-398.26 72.5,-344 67.87,-336.41 67.32,-331.22 72.5,-324 84.15,-307.75 131.21,-293.57 169.37,-284.41"/>
<polygon fill="midnightblue" stroke="midnightblue" points="170.42,-287.76 179.36,-282.07 168.82,-280.94 170.42,-287.76"/>
</g>
<!-- Node4&#45;&gt;Node12 -->
<g id="edge26" class="edge">
<title>Node4&#45;&gt;Node12</title>
<path fill="none" stroke="midnightblue" d="M318.23,-436.45C399.17,-421.4 553.63,-387.6 585.5,-344 590.75,-336.82 590.24,-331.52 585.5,-324 584.92,-323.08 538.16,-301.02 506.95,-286.36"/>
<polygon fill="midnightblue" stroke="midnightblue" points="508.37,-283.16 497.83,-282.08 505.39,-289.5 508.37,-283.16"/>
</g>
<!-- Node5&#45;&gt;Node2 -->
<g id="edge6" class="edge">
<title>Node5&#45;&gt;Node2</title>
<path fill="none" stroke="midnightblue" d="M196.41,-381.11C147.63,-374.21 89.14,-362.37 72.5,-344 59.97,-330.17 59.1,-308.06 60.49,-292.29"/>
<polygon fill="midnightblue" stroke="midnightblue" points="64,-292.5 61.77,-282.14 57.05,-291.63 64,-292.5"/>
</g>
<!-- Node5&#45;&gt;Node6 -->
<g id="edge7" class="edge">
<title>Node5&#45;&gt;Node6</title>
<path fill="none" stroke="midnightblue" d="M264.97,-380.32C257.35,-361.59 239.22,-317.05 228.94,-291.79"/>
<polygon fill="midnightblue" stroke="midnightblue" points="232.08,-290.23 225.07,-282.28 225.6,-292.86 232.08,-290.23"/>
</g>
<!-- Node5&#45;&gt;Node11 -->
<g id="edge15" class="edge">
<title>Node5&#45;&gt;Node11</title>
<path fill="none" stroke="midnightblue" d="M340.6,-387.83C422.83,-384.98 550.42,-375.45 585.5,-344 598.22,-332.6 602.52,-313.58 603.75,-298.17"/>
<polygon fill="midnightblue" stroke="midnightblue" points="607.27,-297.88 604.18,-287.74 600.27,-297.59 607.27,-297.88"/>
</g>
<!-- Node5&#45;&gt;Node12 -->
<g id="edge17" class="edge">
<title>Node5&#45;&gt;Node12</title>
<path fill="none" stroke="midnightblue" d="M340.22,-380.5C388.4,-373.32 446.15,-361.41 463.5,-344 476.9,-330.55 480.05,-308.38 480.39,-292.49"/>
<polygon fill="midnightblue" stroke="midnightblue" points="483.88,-292.19 480.24,-282.24 476.88,-292.29 483.88,-292.19"/>
</g>
<!-- Node13 -->
<g id="node13" class="node">
<title>Node13</title>
<g id="a_node13"><a xlink:title=" ">
<polygon fill="white" stroke="#bfbfbf" points="334,-263 334,-282 381,-282 381,-263 334,-263"/>
<text text-anchor="middle" x="357.5" y="-270" font-family="Helvetica,sans-Serif" font-size="10.00">vector</text>
</a>
</g>
</g>
<!-- Node5&#45;&gt;Node13 -->
<g id="edge18" class="edge">
<title>Node5&#45;&gt;Node13</title>
<path fill="none" stroke="midnightblue" d="M269.25,-380.23C270.76,-366.96 275.15,-341.48 287.5,-324 298.6,-308.29 316.17,-295.64 330.93,-286.93"/>
<polygon fill="midnightblue" stroke="midnightblue" points="332.66,-289.97 339.67,-282.02 329.24,-283.86 332.66,-289.97"/>
</g>
<!-- Node14 -->
<g id="node14" class="node">
<title>Node14</title>
<g id="a_node14"><a xlink:title=" ">
<polygon fill="white" stroke="#bfbfbf" points="511,-324.5 511,-343.5 576,-343.5 576,-324.5 511,-324.5"/>
<text text-anchor="middle" x="543.5" y="-331.5" font-family="Helvetica,sans-Serif" font-size="10.00">stdexcept</text>
</a>
</g>
</g>
<!-- Node5&#45;&gt;Node14 -->
<g id="edge19" class="edge">
<title>Node5&#45;&gt;Node14</title>
<path fill="none" stroke="midnightblue" d="M312.07,-380.44C363.79,-370.29 449.46,-353.47 500.8,-343.39"/>
<polygon fill="midnightblue" stroke="midnightblue" points="501.76,-346.76 510.89,-341.4 500.41,-339.9 501.76,-346.76"/>
</g>
<!-- Node15 -->
<g id="node15" class="node">
<title>Node15</title>
<g id="a_node15"><a xlink:href="_x_m_l_triple_8h.html" target="_top" xlink:title="Stores an XML namespace triple.">
<polygon fill="white" stroke="black" points="81,-324.5 81,-343.5 202,-343.5 202,-324.5 81,-324.5"/>
<text text-anchor="middle" x="141.5" y="-331.5" font-family="Helvetica,sans-Serif" font-size="10.00">sbml/xml/XMLTriple.h</text>
</a>
</g>
</g>
<!-- Node5&#45;&gt;Node15 -->
<g id="edge20" class="edge">
<title>Node5&#45;&gt;Node15</title>
<path fill="none" stroke="midnightblue" d="M248.38,-380.44C227.48,-371.56 194.57,-357.56 170.78,-347.45"/>
<polygon fill="midnightblue" stroke="midnightblue" points="172.1,-344.21 161.53,-343.52 169.36,-350.65 172.1,-344.21"/>
</g>
<!-- Node6&#45;&gt;Node3 -->
<g id="edge8" class="edge">
<title>Node6&#45;&gt;Node3</title>
<path fill="none" stroke="midnightblue" d="M222.15,-262.72C224.78,-227.49 234.6,-95.62 238.7,-40.72"/>
<polygon fill="midnightblue" stroke="midnightblue" points="242.2,-40.76 239.45,-30.53 235.22,-40.24 242.2,-40.76"/>
</g>
<!-- Node7 -->
<g id="node7" class="node">
<title>Node7</title>
<g id="a_node7"><a xlink:href="libsbml-config_8h.html" target="_top" xlink:title="Decides whether to #include Unix or Windows configuration variables.">
<polygon fill="white" stroke="black" points="288,-190.5 288,-220.5 413,-220.5 413,-190.5 288,-190.5"/>
<text text-anchor="start" x="296" y="-208.5" font-family="Helvetica,sans-Serif" font-size="10.00">sbml/common/libsbml</text>
<text text-anchor="middle" x="350.5" y="-197.5" font-family="Helvetica,sans-Serif" font-size="10.00">&#45;config.h</text>
</a>
</g>
</g>
<!-- Node6&#45;&gt;Node7 -->
<g id="edge9" class="edge">
<title>Node6&#45;&gt;Node7</title>
<path fill="none" stroke="midnightblue" d="M238.63,-262.87C257.59,-253.31 288.72,-237.63 313.34,-225.22"/>
<polygon fill="midnightblue" stroke="midnightblue" points="315.06,-228.28 322.41,-220.65 311.91,-222.03 315.06,-228.28"/>
</g>
<!-- Node7&#45;&gt;Node3 -->
<g id="edge10" class="edge">
<title>Node7&#45;&gt;Node3</title>
<path fill="none" stroke="midnightblue" d="M322.32,-190.5C307.58,-181.85 290.4,-169.45 279.5,-154 255.15,-119.48 245.94,-70.06 242.5,-40.83"/>
<polygon fill="midnightblue" stroke="midnightblue" points="245.96,-40.27 241.44,-30.69 239,-40.99 245.96,-40.27"/>
</g>
<!-- Node8 -->
<g id="node8" class="node">
<title>Node8</title>
<g id="a_node8"><a xlink:title=" ">
<polygon fill="white" stroke="#bfbfbf" points="288,-123.5 288,-153.5 413,-153.5 413,-123.5 288,-123.5"/>
<text text-anchor="start" x="296" y="-141.5" font-family="Helvetica,sans-Serif" font-size="10.00">sbml/common/libsbml</text>
<text text-anchor="middle" x="350.5" y="-130.5" font-family="Helvetica,sans-Serif" font-size="10.00">&#45;config&#45;common.h</text>
</a>
</g>
</g>
<!-- Node7&#45;&gt;Node8 -->
<g id="edge11" class="edge">
<title>Node7&#45;&gt;Node8</title>
<path fill="none" stroke="midnightblue" d="M350.5,-190.4C350.5,-182.64 350.5,-172.81 350.5,-163.86"/>
<polygon fill="midnightblue" stroke="midnightblue" points="354,-163.58 350.5,-153.58 347,-163.58 354,-163.58"/>
</g>
<!-- Node9 -->
<g id="node9" class="node">
<title>Node9</title>
<g id="a_node9"><a xlink:href="libsbml-version_8h.html" target="_top" xlink:title="Define libSBML version numbers for access from client software.">
<polygon fill="white" stroke="black" points="431,-123.5 431,-153.5 556,-153.5 556,-123.5 431,-123.5"/>
<text text-anchor="start" x="439" y="-141.5" font-family="Helvetica,sans-Serif" font-size="10.00">sbml/common/libsbml</text>
<text text-anchor="middle" x="493.5" y="-130.5" font-family="Helvetica,sans-Serif" font-size="10.00">&#45;version.h</text>
</a>
</g>
</g>
<!-- Node7&#45;&gt;Node9 -->
<g id="edge12" class="edge">
<title>Node7&#45;&gt;Node9</title>
<path fill="none" stroke="midnightblue" d="M381.53,-190.4C402.52,-180.86 430.44,-168.16 453.15,-157.84"/>
<polygon fill="midnightblue" stroke="midnightblue" points="454.88,-160.9 462.53,-153.58 451.98,-154.53 454.88,-160.9"/>
</g>
<!-- Node10 -->
<g id="node10" class="node">
<title>Node10</title>
<g id="a_node10"><a xlink:href="extern_8h.html" target="_top" xlink:title="Definitions of LIBSBML_EXTERN and related things.">
<polygon fill="white" stroke="black" points="519.5,-67.5 519.5,-86.5 649.5,-86.5 649.5,-67.5 519.5,-67.5"/>
<text text-anchor="middle" x="584.5" y="-74.5" font-family="Helvetica,sans-Serif" font-size="10.00">sbml/common/extern.h</text>
</a>
</g>
</g>
<!-- Node9&#45;&gt;Node10 -->
<g id="edge13" class="edge">
<title>Node9&#45;&gt;Node10</title>
<path fill="none" stroke="midnightblue" d="M515.07,-123.4C529.38,-114.04 548.11,-101.79 562.51,-92.38"/>
<polygon fill="midnightblue" stroke="midnightblue" points="564.8,-95.06 571.26,-86.66 560.97,-89.2 564.8,-95.06"/>
</g>
<!-- Node10&#45;&gt;Node3 -->
<g id="edge14" class="edge">
<title>Node10&#45;&gt;Node3</title>
<path fill="none" stroke="midnightblue" d="M535.21,-67.48C477.08,-57.42 379.91,-40.61 313.14,-29.06"/>
<polygon fill="midnightblue" stroke="midnightblue" points="313.56,-25.59 303.11,-27.33 312.37,-32.48 313.56,-25.59"/>
</g>
<!-- Node11&#45;&gt;Node10 -->
<g id="edge16" class="edge">
<title>Node11&#45;&gt;Node10</title>
<path fill="none" stroke="midnightblue" d="M602.1,-257.27C598.73,-222.94 590.15,-135.57 586.36,-96.9"/>
<polygon fill="midnightblue" stroke="midnightblue" points="589.8,-96.19 585.34,-86.58 582.84,-96.87 589.8,-96.19"/>
</g>
<!-- Node15&#45;&gt;Node2 -->
<g id="edge21" class="edge">
<title>Node15&#45;&gt;Node2</title>
<path fill="none" stroke="midnightblue" d="M130.32,-324.48C117.93,-315.02 97.71,-299.6 82.75,-288.19"/>
<polygon fill="midnightblue" stroke="midnightblue" points="84.73,-285.29 74.65,-282.01 80.48,-290.86 84.73,-285.29"/>
</g>
<!-- Node15&#45;&gt;Node6 -->
<g id="edge22" class="edge">
<title>Node15&#45;&gt;Node6</title>
<path fill="none" stroke="midnightblue" d="M152.96,-324.48C165.67,-315.02 186.41,-299.6 201.75,-288.19"/>
<polygon fill="midnightblue" stroke="midnightblue" points="204.12,-290.79 210.06,-282.01 199.95,-285.17 204.12,-290.79"/>
</g>
<!-- Node15&#45;&gt;Node12 -->
<g id="edge23" class="edge">
<title>Node15&#45;&gt;Node12</title>
<path fill="none" stroke="midnightblue" d="M189.93,-324.48C260.01,-312.14 387.82,-289.64 447.37,-279.16"/>
<polygon fill="midnightblue" stroke="midnightblue" points="448.09,-282.58 457.33,-277.4 446.88,-275.69 448.09,-282.58"/>
</g>
<!-- Node16&#45;&gt;Node12 -->
<g id="edge45" class="edge">
<title>Node16&#45;&gt;Node12</title>
<path fill="none" stroke="midnightblue" d="M621.38,-380.46C625.33,-367.05 630.64,-340.84 618.5,-324 588.92,-282.95 557.49,-306.75 510.5,-288 509.12,-287.45 507.71,-286.87 506.3,-286.27"/>
<polygon fill="midnightblue" stroke="midnightblue" points="507.61,-283.02 497.05,-282.14 504.76,-289.41 507.61,-283.02"/>
</g>
<!-- Node16&#45;&gt;Node14 -->
<g id="edge46" class="edge">
<title>Node16&#45;&gt;Node14</title>
<path fill="none" stroke="midnightblue" d="M606.45,-380.32C595.04,-372.11 577.67,-359.6 564.07,-349.81"/>
<polygon fill="midnightblue" stroke="midnightblue" points="565.93,-346.84 555.77,-343.83 561.84,-352.52 565.93,-346.84"/>
</g>
<!-- Node17 -->
<g id="node17" class="node">
<title>Node17</title>
<g id="a_node17"><a xlink:href="_x_m_l_namespaces_8h.html" target="_top" xlink:title="A list of XMLNamespace declarations (URI/prefix pairs)">
<polygon fill="white" stroke="black" points="296.5,-324.5 296.5,-343.5 454.5,-343.5 454.5,-324.5 296.5,-324.5"/>
<text text-anchor="middle" x="375.5" y="-331.5" font-family="Helvetica,sans-Serif" font-size="10.00">sbml/xml/XMLNamespaces.h</text>
</a>
</g>
</g>
<!-- Node16&#45;&gt;Node17 -->
<g id="edge30" class="edge">
<title>Node16&#45;&gt;Node17</title>
<path fill="none" stroke="midnightblue" d="M580,-380.44C537.69,-371.04 469.68,-355.93 423.83,-345.74"/>
<polygon fill="midnightblue" stroke="midnightblue" points="424.35,-342.27 413.82,-343.52 422.83,-349.1 424.35,-342.27"/>
</g>
<!-- Node18 -->
<g id="node18" class="node">
<title>Node18</title>
<g id="a_node18"><a xlink:href="common_8h.html" target="_top" xlink:title="Common functions and macros for C and C++.">
<polygon fill="white" stroke="black" points="706,-263 706,-282 847,-282 847,-263 706,-263"/>
<text text-anchor="middle" x="776.5" y="-270" font-family="Helvetica,sans-Serif" font-size="10.00">sbml/common/common.h</text>
</a>
</g>
</g>
<!-- Node16&#45;&gt;Node18 -->
<g id="edge36" class="edge">
<title>Node16&#45;&gt;Node18</title>
<path fill="none" stroke="midnightblue" d="M634.73,-380.47C650.48,-371.95 674.82,-358.12 694.5,-344 718.4,-326.85 743.76,-304.28 759.84,-289.36"/>
<polygon fill="midnightblue" stroke="midnightblue" points="762.45,-291.71 767.35,-282.31 757.66,-286.6 762.45,-291.71"/>
</g>
<!-- Node17&#45;&gt;Node2 -->
<g id="edge31" class="edge">
<title>Node17&#45;&gt;Node2</title>
<path fill="none" stroke="midnightblue" d="M330.8,-324.48C274.73,-313.78 178.64,-295.46 118.23,-283.94"/>
<polygon fill="midnightblue" stroke="midnightblue" points="118.6,-280.44 108.12,-282.01 117.29,-287.32 118.6,-280.44"/>
</g>
<!-- Node17&#45;&gt;Node6 -->
<g id="edge32" class="edge">
<title>Node17&#45;&gt;Node6</title>
<path fill="none" stroke="midnightblue" d="M353.44,-324.48C327.13,-314.31 282.99,-297.26 253.08,-285.7"/>
<polygon fill="midnightblue" stroke="midnightblue" points="254.11,-282.35 243.52,-282.01 251.59,-288.88 254.11,-282.35"/>
</g>
<!-- Node17&#45;&gt;Node11 -->
<g id="edge33" class="edge">
<title>Node17&#45;&gt;Node11</title>
<path fill="none" stroke="midnightblue" d="M408.17,-324.48C442.44,-315.53 497.17,-301.25 539.99,-290.07"/>
<polygon fill="midnightblue" stroke="midnightblue" points="540.97,-293.43 549.76,-287.52 539.21,-286.66 540.97,-293.43"/>
</g>
<!-- Node17&#45;&gt;Node12 -->
<g id="edge34" class="edge">
<title>Node17&#45;&gt;Node12</title>
<path fill="none" stroke="midnightblue" d="M390.4,-324.48C407.47,-314.71 435.66,-298.58 455.76,-287.08"/>
<polygon fill="midnightblue" stroke="midnightblue" points="457.69,-290.01 464.63,-282.01 454.21,-283.94 457.69,-290.01"/>
</g>
<!-- Node17&#45;&gt;Node13 -->
<g id="edge35" class="edge">
<title>Node17&#45;&gt;Node13</title>
<path fill="none" stroke="midnightblue" d="M372.92,-324.48C370.35,-315.99 366.33,-302.7 363.04,-291.82"/>
<polygon fill="midnightblue" stroke="midnightblue" points="366.32,-290.57 360.07,-282.01 359.62,-292.59 366.32,-290.57"/>
</g>
<!-- Node18&#45;&gt;Node7 -->
<g id="edge37" class="edge">
<title>Node18&#45;&gt;Node7</title>
<path fill="none" stroke="midnightblue" d="M730.86,-262.95C719.64,-260.92 707.64,-258.82 696.5,-257 602.28,-241.59 493.25,-226.06 423.16,-216.36"/>
<polygon fill="midnightblue" stroke="midnightblue" points="423.49,-212.88 413.11,-214.98 422.53,-219.81 423.49,-212.88"/>
</g>
<!-- Node18&#45;&gt;Node10 -->
<g id="edge39" class="edge">
<title>Node18&#45;&gt;Node10</title>
<path fill="none" stroke="midnightblue" d="M800.79,-262.92C818.92,-255.07 842.41,-241.54 853.5,-221 874.76,-181.63 864.41,-152.18 830.5,-123 805.36,-101.37 722.65,-89.53 660.01,-83.5"/>
<polygon fill="midnightblue" stroke="midnightblue" points="660.03,-79.99 649.75,-82.55 659.38,-86.96 660.03,-79.99"/>
</g>
<!-- Node19 -->
<g id="node19" class="node">
<title>Node19</title>
<g id="a_node19"><a xlink:title=" ">
<polygon fill="white" stroke="#bfbfbf" points="771.5,-129 771.5,-148 821.5,-148 821.5,-129 771.5,-129"/>
<text text-anchor="middle" x="796.5" y="-136" font-family="Helvetica,sans-Serif" font-size="10.00">stdio.h</text>
</a>
</g>
</g>
<!-- Node18&#45;&gt;Node19 -->
<g id="edge38" class="edge">
<title>Node18&#45;&gt;Node19</title>
<path fill="none" stroke="midnightblue" d="M794.11,-262.87C809.02,-254.48 829.38,-240.18 838.5,-221 844.41,-208.56 843.18,-202.96 838.5,-190 833.7,-176.73 823.73,-164.49 814.7,-155.38"/>
<polygon fill="midnightblue" stroke="midnightblue" points="816.84,-152.58 807.17,-148.24 812.02,-157.66 816.84,-152.58"/>
</g>
<!-- Node20 -->
<g id="node20" class="node">
<title>Node20</title>
<g id="a_node20"><a xlink:href="memory_8h.html" target="_top" xlink:title=" ">
<polygon fill="white" stroke="black" points="718,-196 718,-215 829,-215 829,-196 718,-196"/>
<text text-anchor="middle" x="773.5" y="-203" font-family="Helvetica,sans-Serif" font-size="10.00">sbml/util/memory.h</text>
</a>
</g>
</g>
<!-- Node18&#45;&gt;Node20 -->
<g id="edge40" class="edge">
<title>Node18&#45;&gt;Node20</title>
<path fill="none" stroke="midnightblue" d="M776.1,-262.73C775.65,-253.18 774.94,-237.62 774.37,-225.28"/>
<polygon fill="midnightblue" stroke="midnightblue" points="777.86,-224.96 773.9,-215.13 770.86,-225.28 777.86,-224.96"/>
</g>
<!-- Node21 -->
<g id="node21" class="node">
<title>Node21</title>
<g id="a_node21"><a xlink:href="util_8h.html" target="_top" xlink:title="Utility functions.">
<polygon fill="white" stroke="black" points="613,-196 613,-215 700,-215 700,-196 613,-196"/>
<text text-anchor="middle" x="656.5" y="-203" font-family="Helvetica,sans-Serif" font-size="10.00">sbml/util/util.h</text>
</a>
</g>
</g>
<!-- Node18&#45;&gt;Node21 -->
<g id="edge41" class="edge">
<title>Node18&#45;&gt;Node21</title>
<path fill="none" stroke="midnightblue" d="M760.32,-262.73C740.07,-251.77 705.2,-232.88 681.51,-220.05"/>
<polygon fill="midnightblue" stroke="midnightblue" points="682.89,-216.81 672.43,-215.13 679.55,-222.97 682.89,-216.81"/>
</g>
<!-- Node21&#45;&gt;Node10 -->
<g id="edge44" class="edge">
<title>Node21&#45;&gt;Node10</title>
<path fill="none" stroke="midnightblue" d="M651.55,-195.81C639.84,-175.22 610.22,-123.19 594.56,-95.68"/>
<polygon fill="midnightblue" stroke="midnightblue" points="597.47,-93.72 589.48,-86.76 591.39,-97.18 597.47,-93.72"/>
</g>
<!-- Node21&#45;&gt;Node19 -->
<g id="edge42" class="edge">
<title>Node21&#45;&gt;Node19</title>
<path fill="none" stroke="midnightblue" d="M675.09,-195.87C699.04,-184.75 740.89,-165.32 768.65,-152.43"/>
<polygon fill="midnightblue" stroke="midnightblue" points="770.24,-155.55 777.83,-148.17 767.29,-149.2 770.24,-155.55"/>
</g>
<!-- Node22 -->
<g id="node22" class="node">
<title>Node22</title>
<g id="a_node22"><a xlink:title=" ">
<polygon fill="white" stroke="#bfbfbf" points="650.5,-129 650.5,-148 706.5,-148 706.5,-129 650.5,-129"/>
<text text-anchor="middle" x="678.5" y="-136" font-family="Helvetica,sans-Serif" font-size="10.00">stdarg.h</text>
</a>
</g>
</g>
<!-- Node21&#45;&gt;Node22 -->
<g id="edge43" class="edge">
<title>Node21&#45;&gt;Node22</title>
<path fill="none" stroke="midnightblue" d="M659.47,-195.73C662.73,-186.09 668.08,-170.3 672.27,-157.91"/>
<polygon fill="midnightblue" stroke="midnightblue" points="675.69,-158.72 675.58,-148.13 669.06,-156.48 675.69,-158.72"/>
</g>
</g>
</svg>
