<?xml version="1.0" encoding="UTF-8" standalone="no"?>
<!DOCTYPE svg PUBLIC "-//W3C//DTD SVG 1.1//EN"
 "http://www.w3.org/Graphics/SVG/1.1/DTD/svg11.dtd">
<!-- Generated by graphviz version 2.43.0 (0)
 -->
<!-- Title: XMLOutputStream.h Pages: 1 -->
<svg width="535pt" height="341pt"
 viewBox="0.00 0.00 534.71 341.00" xmlns="http://www.w3.org/2000/svg" xmlns:xlink="http://www.w3.org/1999/xlink">
<g id="graph0" class="graph" transform="scale(1 1) rotate(0) translate(4 337)">
<title>XMLOutputStream.h</title>
<polygon fill="white" stroke="transparent" points="-4,4 -4,-337 530.71,-337 530.71,4 -4,4"/>
<!-- Node1 -->
<g id="node1" class="node">
<title>Node1</title>
<g id="a_node1"><a xlink:title="XMLOutputStream.">
<polygon fill="#bfbfbf" stroke="black" points="271.84,-313.5 271.84,-332.5 386.84,-332.5 386.84,-313.5 271.84,-313.5"/>
<text text-anchor="middle" x="329.34" y="-320.5" font-family="Helvetica,sans-Serif" font-size="10.00">XMLOutputStream.h</text>
</a>
</g>
</g>
<!-- Node2 -->
<g id="node2" class="node">
<title>Node2</title>
<g id="a_node2"><a xlink:href="sbmlfwd_8h.html" target="_top" xlink:title="Forward declarations for all opaque C types.">
<polygon fill="white" stroke="black" points="2.34,-257.5 2.34,-276.5 142.34,-276.5 142.34,-257.5 2.34,-257.5"/>
<text text-anchor="middle" x="72.34" y="-264.5" font-family="Helvetica,sans-Serif" font-size="10.00">sbml/common/sbmlfwd.h</text>
</a>
</g>
</g>
<!-- Node1&#45;&gt;Node2 -->
<g id="edge1" class="edge">
<title>Node1&#45;&gt;Node2</title>
<path fill="none" stroke="midnightblue" d="M288.62,-313.44C243.69,-304 171.35,-288.8 122.84,-278.61"/>
<polygon fill="midnightblue" stroke="midnightblue" points="123.38,-275.15 112.87,-276.52 121.94,-282 123.38,-275.15"/>
</g>
<!-- Node6 -->
<g id="node6" class="node">
<title>Node6</title>
<g id="a_node6"><a xlink:href="libsbml-version_8h.html" target="_top" xlink:title="Define libSBML version numbers for access from client software.">
<polygon fill="white" stroke="black" points="174.84,-123.5 174.84,-153.5 299.84,-153.5 299.84,-123.5 174.84,-123.5"/>
<text text-anchor="start" x="182.84" y="-141.5" font-family="Helvetica,sans-Serif" font-size="10.00">sbml/common/libsbml</text>
<text text-anchor="middle" x="237.34" y="-130.5" font-family="Helvetica,sans-Serif" font-size="10.00">&#45;version.h</text>
</a>
</g>
</g>
<!-- Node1&#45;&gt;Node6 -->
<g id="edge14" class="edge">
<title>Node1&#45;&gt;Node6</title>
<path fill="none" stroke="midnightblue" d="M271.65,-318.97C241.96,-314.12 208.14,-302.79 189.34,-277 163.32,-241.3 195.19,-190.27 218.04,-161.47"/>
<polygon fill="midnightblue" stroke="midnightblue" points="220.84,-163.58 224.48,-153.63 215.43,-159.14 220.84,-163.58"/>
</g>
<!-- Node8 -->
<g id="node8" class="node">
<title>Node8</title>
<g id="a_node8"><a xlink:title=" ">
<polygon fill="white" stroke="#bfbfbf" points="198.34,-257.5 198.34,-276.5 258.34,-276.5 258.34,-257.5 198.34,-257.5"/>
<text text-anchor="middle" x="228.34" y="-264.5" font-family="Helvetica,sans-Serif" font-size="10.00">iostream</text>
</a>
</g>
</g>
<!-- Node1&#45;&gt;Node8 -->
<g id="edge9" class="edge">
<title>Node1&#45;&gt;Node8</title>
<path fill="none" stroke="midnightblue" d="M313.12,-313.32C296.99,-304.7 272.04,-291.36 253.38,-281.39"/>
<polygon fill="midnightblue" stroke="midnightblue" points="255,-278.28 244.53,-276.65 251.7,-284.46 255,-278.28"/>
</g>
<!-- Node9 -->
<g id="node9" class="node">
<title>Node9</title>
<g id="a_node9"><a xlink:title=" ">
<polygon fill="white" stroke="#bfbfbf" points="276.34,-257.5 276.34,-276.5 320.34,-276.5 320.34,-257.5 276.34,-257.5"/>
<text text-anchor="middle" x="298.34" y="-264.5" font-family="Helvetica,sans-Serif" font-size="10.00">limits</text>
</a>
</g>
</g>
<!-- Node1&#45;&gt;Node9 -->
<g id="edge10" class="edge">
<title>Node1&#45;&gt;Node9</title>
<path fill="none" stroke="midnightblue" d="M324.22,-313.08C319.94,-305.61 313.68,-294.72 308.4,-285.52"/>
<polygon fill="midnightblue" stroke="midnightblue" points="311.38,-283.68 303.37,-276.75 305.31,-287.17 311.38,-283.68"/>
</g>
<!-- Node10 -->
<g id="node10" class="node">
<title>Node10</title>
<g id="a_node10"><a xlink:title=" ">
<polygon fill="white" stroke="#bfbfbf" points="338.34,-257.5 338.34,-276.5 384.34,-276.5 384.34,-257.5 338.34,-257.5"/>
<text text-anchor="middle" x="361.34" y="-264.5" font-family="Helvetica,sans-Serif" font-size="10.00">locale</text>
</a>
</g>
</g>
<!-- Node1&#45;&gt;Node10 -->
<g id="edge11" class="edge">
<title>Node1&#45;&gt;Node10</title>
<path fill="none" stroke="midnightblue" d="M334.63,-313.08C339.05,-305.61 345.51,-294.72 350.96,-285.52"/>
<polygon fill="midnightblue" stroke="midnightblue" points="354.07,-287.14 356.16,-276.75 348.05,-283.57 354.07,-287.14"/>
</g>
<!-- Node11 -->
<g id="node11" class="node">
<title>Node11</title>
<g id="a_node11"><a xlink:title=" ">
<polygon fill="white" stroke="#bfbfbf" points="402.34,-257.5 402.34,-276.5 446.34,-276.5 446.34,-257.5 402.34,-257.5"/>
<text text-anchor="middle" x="424.34" y="-264.5" font-family="Helvetica,sans-Serif" font-size="10.00">string</text>
</a>
</g>
</g>
<!-- Node1&#45;&gt;Node11 -->
<g id="edge12" class="edge">
<title>Node1&#45;&gt;Node11</title>
<path fill="none" stroke="midnightblue" d="M344.61,-313.32C359.56,-304.82 382.6,-291.73 400.07,-281.8"/>
<polygon fill="midnightblue" stroke="midnightblue" points="402.15,-284.64 409.12,-276.65 398.69,-278.55 402.15,-284.64"/>
</g>
<!-- Node12 -->
<g id="node12" class="node">
<title>Node12</title>
<g id="a_node12"><a xlink:title=" ">
<polygon fill="white" stroke="#bfbfbf" points="464.34,-257.5 464.34,-276.5 512.34,-276.5 512.34,-257.5 464.34,-257.5"/>
<text text-anchor="middle" x="488.34" y="-264.5" font-family="Helvetica,sans-Serif" font-size="10.00">time.h</text>
</a>
</g>
</g>
<!-- Node1&#45;&gt;Node12 -->
<g id="edge13" class="edge">
<title>Node1&#45;&gt;Node12</title>
<path fill="none" stroke="midnightblue" d="M354.54,-313.44C381.6,-304.25 424.75,-289.6 454.7,-279.43"/>
<polygon fill="midnightblue" stroke="midnightblue" points="455.96,-282.69 464.31,-276.16 453.71,-276.06 455.96,-282.69"/>
</g>
<!-- Node13 -->
<g id="node13" class="node">
<title>Node13</title>
<g id="a_node13"><a xlink:href="_x_m_l_extern_8h.html" target="_top" xlink:title="Defines LIBLAX_EXTERN.">
<polygon fill="white" stroke="black" points="370.84,-196 370.84,-215 497.84,-215 497.84,-196 370.84,-196"/>
<text text-anchor="middle" x="434.34" y="-203" font-family="Helvetica,sans-Serif" font-size="10.00">sbml/xml/XMLExtern.h</text>
</a>
</g>
</g>
<!-- Node1&#45;&gt;Node13 -->
<g id="edge15" class="edge">
<title>Node1&#45;&gt;Node13</title>
<path fill="none" stroke="midnightblue" d="M387.24,-316.28C437.52,-309.98 504.81,-297.86 521.34,-277 540.55,-252.77 502.31,-231.44 470.59,-218.75"/>
<polygon fill="midnightblue" stroke="midnightblue" points="471.62,-215.4 461.03,-215.1 469.12,-221.94 471.62,-215.4"/>
</g>
<!-- Node3 -->
<g id="node3" class="node">
<title>Node3</title>
<g id="a_node3"><a xlink:title=" ">
<polygon fill="white" stroke="#bfbfbf" points="21.84,-0.5 21.84,-30.5 146.84,-30.5 146.84,-0.5 21.84,-0.5"/>
<text text-anchor="start" x="29.84" y="-18.5" font-family="Helvetica,sans-Serif" font-size="10.00">sbml/common/libsbml</text>
<text text-anchor="middle" x="84.34" y="-7.5" font-family="Helvetica,sans-Serif" font-size="10.00">&#45;namespace.h</text>
</a>
</g>
</g>
<!-- Node2&#45;&gt;Node3 -->
<g id="edge2" class="edge">
<title>Node2&#45;&gt;Node3</title>
<path fill="none" stroke="midnightblue" d="M48.55,-257.5C32.62,-250.41 12.88,-238.61 3.34,-221 -3.22,-208.89 2.12,-203.72 3.34,-190 8.33,-133.85 4.7,-114.95 34.34,-67 40.97,-56.29 50.26,-46.09 59.04,-37.69"/>
<polygon fill="midnightblue" stroke="midnightblue" points="61.54,-40.15 66.54,-30.82 56.81,-34.99 61.54,-40.15"/>
</g>
<!-- Node4 -->
<g id="node4" class="node">
<title>Node4</title>
<g id="a_node4"><a xlink:href="libsbml-config_8h.html" target="_top" xlink:title="Decides whether to #include Unix or Windows configuration variables.">
<polygon fill="white" stroke="black" points="12.84,-190.5 12.84,-220.5 137.84,-220.5 137.84,-190.5 12.84,-190.5"/>
<text text-anchor="start" x="20.84" y="-208.5" font-family="Helvetica,sans-Serif" font-size="10.00">sbml/common/libsbml</text>
<text text-anchor="middle" x="75.34" y="-197.5" font-family="Helvetica,sans-Serif" font-size="10.00">&#45;config.h</text>
</a>
</g>
</g>
<!-- Node2&#45;&gt;Node4 -->
<g id="edge3" class="edge">
<title>Node2&#45;&gt;Node4</title>
<path fill="none" stroke="midnightblue" d="M72.77,-257.48C73.13,-250.47 73.64,-240.19 74.12,-230.7"/>
<polygon fill="midnightblue" stroke="midnightblue" points="77.63,-230.69 74.64,-220.52 70.64,-230.33 77.63,-230.69"/>
</g>
<!-- Node4&#45;&gt;Node3 -->
<g id="edge4" class="edge">
<title>Node4&#45;&gt;Node3</title>
<path fill="none" stroke="midnightblue" d="M53.65,-190.47C42,-181.58 28.75,-168.95 22.34,-154 16.92,-141.34 18.75,-136.3 22.34,-123 30.93,-91.19 51.62,-59.11 66.75,-38.6"/>
<polygon fill="midnightblue" stroke="midnightblue" points="69.59,-40.64 72.84,-30.55 64.01,-36.41 69.59,-40.64"/>
</g>
<!-- Node5 -->
<g id="node5" class="node">
<title>Node5</title>
<g id="a_node5"><a xlink:title=" ">
<polygon fill="white" stroke="#bfbfbf" points="31.84,-123.5 31.84,-153.5 156.84,-153.5 156.84,-123.5 31.84,-123.5"/>
<text text-anchor="start" x="39.84" y="-141.5" font-family="Helvetica,sans-Serif" font-size="10.00">sbml/common/libsbml</text>
<text text-anchor="middle" x="94.34" y="-130.5" font-family="Helvetica,sans-Serif" font-size="10.00">&#45;config&#45;common.h</text>
</a>
</g>
</g>
<!-- Node4&#45;&gt;Node5 -->
<g id="edge5" class="edge">
<title>Node4&#45;&gt;Node5</title>
<path fill="none" stroke="midnightblue" d="M79.47,-190.4C81.78,-182.47 84.73,-172.38 87.39,-163.27"/>
<polygon fill="midnightblue" stroke="midnightblue" points="90.78,-164.16 90.23,-153.58 84.06,-162.19 90.78,-164.16"/>
</g>
<!-- Node4&#45;&gt;Node6 -->
<g id="edge6" class="edge">
<title>Node4&#45;&gt;Node6</title>
<path fill="none" stroke="midnightblue" d="M110.49,-190.4C134.59,-180.73 166.75,-167.82 192.67,-157.43"/>
<polygon fill="midnightblue" stroke="midnightblue" points="194.28,-160.55 202.26,-153.58 191.68,-154.05 194.28,-160.55"/>
</g>
<!-- Node7 -->
<g id="node7" class="node">
<title>Node7</title>
<g id="a_node7"><a xlink:href="extern_8h.html" target="_top" xlink:title="Definitions of LIBSBML_EXTERN and related things.">
<polygon fill="white" stroke="black" points="101.34,-67.5 101.34,-86.5 231.34,-86.5 231.34,-67.5 101.34,-67.5"/>
<text text-anchor="middle" x="166.34" y="-74.5" font-family="Helvetica,sans-Serif" font-size="10.00">sbml/common/extern.h</text>
</a>
</g>
</g>
<!-- Node6&#45;&gt;Node7 -->
<g id="edge7" class="edge">
<title>Node6&#45;&gt;Node7</title>
<path fill="none" stroke="midnightblue" d="M220.52,-123.4C209.67,-114.31 195.57,-102.49 184.47,-93.19"/>
<polygon fill="midnightblue" stroke="midnightblue" points="186.59,-90.4 176.67,-86.66 182.09,-95.76 186.59,-90.4"/>
</g>
<!-- Node7&#45;&gt;Node3 -->
<g id="edge8" class="edge">
<title>Node7&#45;&gt;Node3</title>
<path fill="none" stroke="midnightblue" d="M154.59,-67.48C143.49,-59.42 126.41,-47.02 111.87,-36.47"/>
<polygon fill="midnightblue" stroke="midnightblue" points="113.82,-33.56 103.67,-30.52 109.71,-39.23 113.82,-33.56"/>
</g>
<!-- Node13&#45;&gt;Node3 -->
<g id="edge16" class="edge">
<title>Node13&#45;&gt;Node3</title>
<path fill="none" stroke="midnightblue" d="M424.53,-195.87C397.2,-172.21 317.1,-105.49 240.34,-67 212.34,-52.96 179.6,-41.66 151.35,-33.34"/>
<polygon fill="midnightblue" stroke="midnightblue" points="152.14,-29.92 141.57,-30.52 150.21,-36.65 152.14,-29.92"/>
</g>
</g>
</svg>
