<?xml version="1.0" encoding="UTF-8" standalone="no"?>
<!DOCTYPE svg PUBLIC "-//W3C//DTD SVG 1.1//EN"
 "http://www.w3.org/Graphics/SVG/1.1/DTD/svg11.dtd">
<!-- Generated by graphviz version 2.43.0 (0)
 -->
<!-- Title: SBMLExtension Pages: 1 -->
<svg width="235pt" height="294pt"
 viewBox="0.00 0.00 235.00 294.00" xmlns="http://www.w3.org/2000/svg" xmlns:xlink="http://www.w3.org/1999/xlink">
<g id="graph0" class="graph" transform="scale(1 1) rotate(0) translate(4 290)">
<title>SBMLExtension</title>
<polygon fill="white" stroke="transparent" points="-4,4 -4,-290 231,-290 231,4 -4,4"/>
<!-- Node1 -->
<g id="node1" class="node">
<title>Node1</title>
<g id="a_node1"><a xlink:title="\ @ @ . 3 .">
<polygon fill="#bfbfbf" stroke="black" points="0,-133.5 0,-152.5 92,-152.5 92,-133.5 0,-133.5"/>
<text text-anchor="middle" x="46" y="-140.5" font-family="Helvetica,sans-Serif" font-size="10.00">SBMLExtension</text>
</a>
</g>
</g>
<!-- Node2 -->
<g id="node2" class="node">
<title>Node2</title>
<g id="a_node2"><a xlink:href="class_comp_extension.html" target="_top" xlink:title="\ @ @ . .">
<polygon fill="white" stroke="black" points="131,-266.5 131,-285.5 224,-285.5 224,-266.5 131,-266.5"/>
<text text-anchor="middle" x="177.5" y="-273.5" font-family="Helvetica,sans-Serif" font-size="10.00">CompExtension</text>
</a>
</g>
</g>
<!-- Node1&#45;&gt;Node2 -->
<g id="edge1" class="edge">
<title>Node1&#45;&gt;Node2</title>
<path fill="none" stroke="midnightblue" d="M55.97,-161.83C68.73,-186.78 94.37,-230.73 128,-257 132.85,-260.79 138.54,-263.9 144.29,-266.43"/>
<polygon fill="midnightblue" stroke="midnightblue" points="59.02,-160.09 51.44,-152.69 52.74,-163.2 59.02,-160.09"/>
</g>
<!-- Node3 -->
<g id="node3" class="node">
<title>Node3</title>
<g id="a_node3"><a xlink:href="class_fbc_extension.html" target="_top" xlink:title="\ @ @ . &amp;;&amp;; .">
<polygon fill="white" stroke="black" points="136.5,-228.5 136.5,-247.5 218.5,-247.5 218.5,-228.5 136.5,-228.5"/>
<text text-anchor="middle" x="177.5" y="-235.5" font-family="Helvetica,sans-Serif" font-size="10.00">FbcExtension</text>
</a>
</g>
</g>
<!-- Node1&#45;&gt;Node3 -->
<g id="edge2" class="edge">
<title>Node1&#45;&gt;Node3</title>
<path fill="none" stroke="midnightblue" d="M61.67,-160.14C76.85,-177 101.94,-202.54 128,-219 133.81,-222.67 140.45,-225.84 146.9,-228.47"/>
<polygon fill="midnightblue" stroke="midnightblue" points="64.29,-157.83 55.06,-152.64 59.04,-162.46 64.29,-157.83"/>
</g>
<!-- Node4 -->
<g id="node4" class="node">
<title>Node4</title>
<g id="a_node4"><a xlink:href="class_groups_extension.html" target="_top" xlink:title="\ @ @ . .">
<polygon fill="white" stroke="black" points="128,-190.5 128,-209.5 227,-209.5 227,-190.5 128,-190.5"/>
<text text-anchor="middle" x="177.5" y="-197.5" font-family="Helvetica,sans-Serif" font-size="10.00">GroupsExtension</text>
</a>
</g>
</g>
<!-- Node1&#45;&gt;Node4 -->
<g id="edge3" class="edge">
<title>Node1&#45;&gt;Node4</title>
<path fill="none" stroke="midnightblue" d="M75.51,-156.93C90.94,-164.33 110.39,-173.43 128,-181 135.48,-184.21 143.69,-187.52 151.2,-190.45"/>
<polygon fill="midnightblue" stroke="midnightblue" points="77.01,-153.77 66.48,-152.58 73.97,-160.07 77.01,-153.77"/>
</g>
<!-- Node5 -->
<g id="node5" class="node">
<title>Node5</title>
<g id="a_node5"><a xlink:href="class_layout_extension.html" target="_top" xlink:title="\ @ @ . .">
<polygon fill="white" stroke="black" points="128.5,-152.5 128.5,-171.5 226.5,-171.5 226.5,-152.5 128.5,-152.5"/>
<text text-anchor="middle" x="177.5" y="-159.5" font-family="Helvetica,sans-Serif" font-size="10.00">LayoutExtension</text>
</a>
</g>
</g>
<!-- Node1&#45;&gt;Node5 -->
<g id="edge4" class="edge">
<title>Node1&#45;&gt;Node5</title>
<path fill="none" stroke="midnightblue" d="M102.32,-151.12C110.99,-152.39 119.88,-153.69 128.37,-154.94"/>
<polygon fill="midnightblue" stroke="midnightblue" points="102.69,-147.63 92.29,-149.65 101.68,-154.56 102.69,-147.63"/>
</g>
<!-- Node6 -->
<g id="node6" class="node">
<title>Node6</title>
<g id="a_node6"><a xlink:href="class_multi_extension.html" target="_top" xlink:title="\ @ @ . .">
<polygon fill="white" stroke="black" points="133,-114.5 133,-133.5 222,-133.5 222,-114.5 133,-114.5"/>
<text text-anchor="middle" x="177.5" y="-121.5" font-family="Helvetica,sans-Serif" font-size="10.00">MultiExtension</text>
</a>
</g>
</g>
<!-- Node1&#45;&gt;Node6 -->
<g id="edge5" class="edge">
<title>Node1&#45;&gt;Node6</title>
<path fill="none" stroke="midnightblue" d="M102.32,-134.88C112.49,-133.39 122.98,-131.85 132.76,-130.42"/>
<polygon fill="midnightblue" stroke="midnightblue" points="101.68,-131.44 92.29,-136.35 102.69,-138.37 101.68,-131.44"/>
</g>
<!-- Node7 -->
<g id="node7" class="node">
<title>Node7</title>
<g id="a_node7"><a xlink:href="class_qual_extension.html" target="_top" xlink:title="\ @ @ . .">
<polygon fill="white" stroke="black" points="134,-76.5 134,-95.5 221,-95.5 221,-76.5 134,-76.5"/>
<text text-anchor="middle" x="177.5" y="-83.5" font-family="Helvetica,sans-Serif" font-size="10.00">QualExtension</text>
</a>
</g>
</g>
<!-- Node1&#45;&gt;Node7 -->
<g id="edge6" class="edge">
<title>Node1&#45;&gt;Node7</title>
<path fill="none" stroke="midnightblue" d="M75.51,-129.07C90.94,-121.67 110.39,-112.57 128,-105 135.48,-101.79 143.69,-98.48 151.2,-95.55"/>
<polygon fill="midnightblue" stroke="midnightblue" points="73.97,-125.93 66.48,-133.42 77.01,-132.23 73.97,-125.93"/>
</g>
<!-- Node8 -->
<g id="node8" class="node">
<title>Node8</title>
<g id="a_node8"><a xlink:href="class_render_extension.html" target="_top" xlink:title="\ @ @ . .">
<polygon fill="white" stroke="black" points="128,-38.5 128,-57.5 227,-57.5 227,-38.5 128,-38.5"/>
<text text-anchor="middle" x="177.5" y="-45.5" font-family="Helvetica,sans-Serif" font-size="10.00">RenderExtension</text>
</a>
</g>
</g>
<!-- Node1&#45;&gt;Node8 -->
<g id="edge7" class="edge">
<title>Node1&#45;&gt;Node8</title>
<path fill="none" stroke="midnightblue" d="M61.67,-125.86C76.85,-109 101.94,-83.46 128,-67 133.81,-63.33 140.45,-60.16 146.9,-57.53"/>
<polygon fill="midnightblue" stroke="midnightblue" points="59.04,-123.54 55.06,-133.36 64.29,-128.17 59.04,-123.54"/>
</g>
<!-- Node9 -->
<g id="node9" class="node">
<title>Node9</title>
<g id="a_node9"><a xlink:href="class_spatial_extension.html" target="_top" xlink:title="\ @ @ . .">
<polygon fill="white" stroke="black" points="128.5,-0.5 128.5,-19.5 226.5,-19.5 226.5,-0.5 128.5,-0.5"/>
<text text-anchor="middle" x="177.5" y="-7.5" font-family="Helvetica,sans-Serif" font-size="10.00">SpatialExtension</text>
</a>
</g>
</g>
<!-- Node1&#45;&gt;Node9 -->
<g id="edge8" class="edge">
<title>Node1&#45;&gt;Node9</title>
<path fill="none" stroke="midnightblue" d="M55.97,-124.17C68.73,-99.22 94.37,-55.27 128,-29 132.85,-25.21 138.54,-22.1 144.29,-19.57"/>
<polygon fill="midnightblue" stroke="midnightblue" points="52.74,-122.8 51.44,-133.31 59.02,-125.91 52.74,-122.8"/>
</g>
</g>
</svg>
