<?xml version="1.0" encoding="UTF-8" standalone="no"?>
<!DOCTYPE svg PUBLIC "-//W3C//DTD SVG 1.1//EN"
 "http://www.w3.org/Graphics/SVG/1.1/DTD/svg11.dtd">
<!-- Generated by graphviz version 2.43.0 (0)
 -->
<!-- Title: GeometryDefinition Pages: 1 -->
<svg width="609pt" height="140pt"
 viewBox="0.00 0.00 609.00 140.00" xmlns="http://www.w3.org/2000/svg" xmlns:xlink="http://www.w3.org/1999/xlink">
<g id="graph0" class="graph" transform="scale(1 1) rotate(0) translate(4 136)">
<title>GeometryDefinition</title>
<polygon fill="white" stroke="transparent" points="-4,4 -4,-136 605,-136 605,4 -4,4"/>
<!-- Node1 -->
<g id="node1" class="node">
<title>Node1</title>
<g id="a_node1"><a xlink:title=" ">
<polygon fill="#bfbfbf" stroke="black" points="211,-56.5 211,-75.5 324,-75.5 324,-56.5 211,-56.5"/>
<text text-anchor="middle" x="267.5" y="-63.5" font-family="Helvetica,sans-Serif" font-size="10.00">GeometryDefinition</text>
</a>
</g>
</g>
<!-- Node3 -->
<g id="node3" class="node">
<title>Node3</title>
<g id="a_node3"><a xlink:href="class_analytic_geometry.html" target="_top" xlink:title=" ">
<polygon fill="white" stroke="black" points="0,-0.5 0,-19.5 105,-19.5 105,-0.5 0,-0.5"/>
<text text-anchor="middle" x="52.5" y="-7.5" font-family="Helvetica,sans-Serif" font-size="10.00">AnalyticGeometry</text>
</a>
</g>
</g>
<!-- Node1&#45;&gt;Node3 -->
<g id="edge2" class="edge">
<title>Node1&#45;&gt;Node3</title>
<path fill="none" stroke="midnightblue" d="M223.54,-53.96C182.93,-43.76 123.46,-28.82 86.41,-19.52"/>
<polygon fill="midnightblue" stroke="midnightblue" points="222.88,-57.4 233.43,-56.44 224.59,-50.61 222.88,-57.4"/>
</g>
<!-- Node4 -->
<g id="node4" class="node">
<title>Node4</title>
<g id="a_node4"><a xlink:href="class_c_s_geometry.html" target="_top" xlink:title=" ">
<polygon fill="white" stroke="black" points="123.5,-0.5 123.5,-19.5 201.5,-19.5 201.5,-0.5 123.5,-0.5"/>
<text text-anchor="middle" x="162.5" y="-7.5" font-family="Helvetica,sans-Serif" font-size="10.00">CSGeometry</text>
</a>
</g>
</g>
<!-- Node1&#45;&gt;Node4 -->
<g id="edge3" class="edge">
<title>Node1&#45;&gt;Node4</title>
<path fill="none" stroke="midnightblue" d="M241.69,-51.73C222.25,-41.73 196.15,-28.31 179.33,-19.65"/>
<polygon fill="midnightblue" stroke="midnightblue" points="240.14,-54.86 250.63,-56.32 243.34,-48.64 240.14,-54.86"/>
</g>
<!-- Node5 -->
<g id="node5" class="node">
<title>Node5</title>
<g id="a_node5"><a xlink:href="class_mixed_geometry.html" target="_top" xlink:title=" ">
<polygon fill="white" stroke="black" points="220,-0.5 220,-19.5 315,-19.5 315,-0.5 220,-0.5"/>
<text text-anchor="middle" x="267.5" y="-7.5" font-family="Helvetica,sans-Serif" font-size="10.00">MixedGeometry</text>
</a>
</g>
</g>
<!-- Node1&#45;&gt;Node5 -->
<g id="edge4" class="edge">
<title>Node1&#45;&gt;Node5</title>
<path fill="none" stroke="midnightblue" d="M267.5,-45.8C267.5,-36.91 267.5,-26.78 267.5,-19.75"/>
<polygon fill="midnightblue" stroke="midnightblue" points="264,-46.08 267.5,-56.08 271,-46.08 264,-46.08"/>
</g>
<!-- Node6 -->
<g id="node6" class="node">
<title>Node6</title>
<g id="a_node6"><a xlink:href="class_parametric_geometry.html" target="_top" xlink:title=" ">
<polygon fill="white" stroke="black" points="333.5,-0.5 333.5,-19.5 451.5,-19.5 451.5,-0.5 333.5,-0.5"/>
<text text-anchor="middle" x="392.5" y="-7.5" font-family="Helvetica,sans-Serif" font-size="10.00">ParametricGeometry</text>
</a>
</g>
</g>
<!-- Node1&#45;&gt;Node6 -->
<g id="edge5" class="edge">
<title>Node1&#45;&gt;Node6</title>
<path fill="none" stroke="midnightblue" d="M296.74,-52.37C320.15,-42.26 352.34,-28.35 372.79,-19.52"/>
<polygon fill="midnightblue" stroke="midnightblue" points="295.1,-49.26 287.31,-56.44 297.87,-55.69 295.1,-49.26"/>
</g>
<!-- Node7 -->
<g id="node7" class="node">
<title>Node7</title>
<g id="a_node7"><a xlink:href="class_sampled_field_geometry.html" target="_top" xlink:title=" ">
<polygon fill="white" stroke="black" points="470,-0.5 470,-19.5 601,-19.5 601,-0.5 470,-0.5"/>
<text text-anchor="middle" x="535.5" y="-7.5" font-family="Helvetica,sans-Serif" font-size="10.00">SampledFieldGeometry</text>
</a>
</g>
</g>
<!-- Node1&#45;&gt;Node7 -->
<g id="edge6" class="edge">
<title>Node1&#45;&gt;Node7</title>
<path fill="none" stroke="midnightblue" d="M320.06,-54.41C370.71,-44.2 446.37,-28.96 493.23,-19.52"/>
<polygon fill="midnightblue" stroke="midnightblue" points="319.08,-51.04 309.97,-56.44 320.46,-57.9 319.08,-51.04"/>
</g>
<!-- Node2 -->
<g id="node2" class="node">
<title>Node2</title>
<g id="a_node2"><a xlink:href="class_s_base.html" target="_top" xlink:title=" ">
<polygon fill="white" stroke="black" points="244,-112.5 244,-131.5 291,-131.5 291,-112.5 244,-112.5"/>
<text text-anchor="middle" x="267.5" y="-119.5" font-family="Helvetica,sans-Serif" font-size="10.00">SBase</text>
</a>
</g>
</g>
<!-- Node2&#45;&gt;Node1 -->
<g id="edge1" class="edge">
<title>Node2&#45;&gt;Node1</title>
<path fill="none" stroke="midnightblue" d="M267.5,-101.8C267.5,-92.91 267.5,-82.78 267.5,-75.75"/>
<polygon fill="midnightblue" stroke="midnightblue" points="264,-102.08 267.5,-112.08 271,-102.08 264,-102.08"/>
</g>
</g>
</svg>
