<?xml version="1.0" encoding="UTF-8" standalone="no"?>
<!DOCTYPE svg PUBLIC "-//W3C//DTD SVG 1.1//EN"
 "http://www.w3.org/Graphics/SVG/1.1/DTD/svg11.dtd">
<!-- Generated by graphviz version 2.43.0 (0)
 -->
<!-- Title: SBMLDocumentPlugin Pages: 1 -->
<svg width="466pt" height="332pt"
 viewBox="0.00 0.00 466.00 332.00" xmlns="http://www.w3.org/2000/svg" xmlns:xlink="http://www.w3.org/1999/xlink">
<g id="graph0" class="graph" transform="scale(1 1) rotate(0) translate(4 328)">
<title>SBMLDocumentPlugin</title>
<polygon fill="white" stroke="transparent" points="-4,4 -4,-328 462,-328 462,4 -4,4"/>
<!-- Node1 -->
<g id="node1" class="node">
<title>Node1</title>
<g id="a_node1"><a xlink:title=" ">
<polygon fill="#bfbfbf" stroke="black" points="113,-152.5 113,-171.5 237,-171.5 237,-152.5 113,-152.5"/>
<text text-anchor="middle" x="175" y="-159.5" font-family="Helvetica,sans-Serif" font-size="10.00">SBMLDocumentPlugin</text>
</a>
</g>
</g>
<!-- Node3 -->
<g id="node3" class="node">
<title>Node3</title>
<g id="a_node3"><a xlink:href="class_comp_s_b_m_l_document_plugin.html" target="_top" xlink:title=" ">
<polygon fill="white" stroke="black" points="289.5,-304.5 289.5,-323.5 441.5,-323.5 441.5,-304.5 289.5,-304.5"/>
<text text-anchor="middle" x="365.5" y="-311.5" font-family="Helvetica,sans-Serif" font-size="10.00">CompSBMLDocumentPlugin</text>
</a>
</g>
</g>
<!-- Node1&#45;&gt;Node3 -->
<g id="edge2" class="edge">
<title>Node1&#45;&gt;Node3</title>
<path fill="none" stroke="midnightblue" d="M184.15,-180.75C197.94,-210.1 228.74,-266.46 273,-295 279,-298.87 285.64,-301.97 292.52,-304.45"/>
<polygon fill="midnightblue" stroke="midnightblue" points="187.31,-179.25 179.99,-171.59 180.94,-182.14 187.31,-179.25"/>
</g>
<!-- Node4 -->
<g id="node4" class="node">
<title>Node4</title>
<g id="a_node4"><a xlink:href="class_fbc_s_b_m_l_document_plugin.html" target="_top" xlink:title=" ">
<polygon fill="white" stroke="black" points="295,-266.5 295,-285.5 436,-285.5 436,-266.5 295,-266.5"/>
<text text-anchor="middle" x="365.5" y="-273.5" font-family="Helvetica,sans-Serif" font-size="10.00">FbcSBMLDocumentPlugin</text>
</a>
</g>
</g>
<!-- Node1&#45;&gt;Node4 -->
<g id="edge3" class="edge">
<title>Node1&#45;&gt;Node4</title>
<path fill="none" stroke="midnightblue" d="M188.84,-179.71C205.64,-201.48 237.17,-237.89 273,-257 280.3,-260.89 288.32,-263.99 296.49,-266.45"/>
<polygon fill="midnightblue" stroke="midnightblue" points="191.58,-177.52 182.77,-171.63 185.98,-181.72 191.58,-177.52"/>
</g>
<!-- Node5 -->
<g id="node5" class="node">
<title>Node5</title>
<g id="a_node5"><a xlink:href="class_groups_s_b_m_l_document_plugin.html" target="_top" xlink:title=" ">
<polygon fill="white" stroke="black" points="286.5,-228.5 286.5,-247.5 444.5,-247.5 444.5,-228.5 286.5,-228.5"/>
<text text-anchor="middle" x="365.5" y="-235.5" font-family="Helvetica,sans-Serif" font-size="10.00">GroupsSBMLDocumentPlugin</text>
</a>
</g>
</g>
<!-- Node1&#45;&gt;Node5 -->
<g id="edge4" class="edge">
<title>Node1&#45;&gt;Node5</title>
<path fill="none" stroke="midnightblue" d="M197.33,-177.31C216.32,-190.24 245.31,-208.32 273,-219 282.84,-222.79 293.58,-225.89 304.13,-228.39"/>
<polygon fill="midnightblue" stroke="midnightblue" points="199.31,-174.42 189.1,-171.6 195.32,-180.17 199.31,-174.42"/>
</g>
<!-- Node6 -->
<g id="node6" class="node">
<title>Node6</title>
<g id="a_node6"><a xlink:href="class_layout_s_b_m_l_document_plugin.html" target="_top" xlink:title=" ">
<polygon fill="white" stroke="black" points="287,-190.5 287,-209.5 444,-209.5 444,-190.5 287,-190.5"/>
<text text-anchor="middle" x="365.5" y="-197.5" font-family="Helvetica,sans-Serif" font-size="10.00">LayoutSBMLDocumentPlugin</text>
</a>
</g>
</g>
<!-- Node1&#45;&gt;Node6 -->
<g id="edge5" class="edge">
<title>Node1&#45;&gt;Node6</title>
<path fill="none" stroke="midnightblue" d="M233.59,-173.61C260.4,-179.01 291.9,-185.36 317.28,-190.48"/>
<polygon fill="midnightblue" stroke="midnightblue" points="234.06,-170.13 223.57,-171.59 232.68,-177 234.06,-170.13"/>
</g>
<!-- Node7 -->
<g id="node7" class="node">
<title>Node7</title>
<g id="a_node7"><a xlink:href="class_multi_s_b_m_l_document_plugin.html" target="_top" xlink:title=" ">
<polygon fill="white" stroke="black" points="291,-152.5 291,-171.5 440,-171.5 440,-152.5 291,-152.5"/>
<text text-anchor="middle" x="365.5" y="-159.5" font-family="Helvetica,sans-Serif" font-size="10.00">MultiSBMLDocumentPlugin</text>
</a>
</g>
</g>
<!-- Node1&#45;&gt;Node7 -->
<g id="edge6" class="edge">
<title>Node1&#45;&gt;Node7</title>
<path fill="none" stroke="midnightblue" d="M247.39,-162C261.58,-162 276.51,-162 290.78,-162"/>
<polygon fill="midnightblue" stroke="midnightblue" points="247.2,-158.5 237.2,-162 247.2,-165.5 247.2,-158.5"/>
</g>
<!-- Node8 -->
<g id="node8" class="node">
<title>Node8</title>
<g id="a_node8"><a xlink:href="class_qual_s_b_m_l_document_plugin.html" target="_top" xlink:title=" ">
<polygon fill="white" stroke="black" points="292.5,-114.5 292.5,-133.5 438.5,-133.5 438.5,-114.5 292.5,-114.5"/>
<text text-anchor="middle" x="365.5" y="-121.5" font-family="Helvetica,sans-Serif" font-size="10.00">QualSBMLDocumentPlugin</text>
</a>
</g>
</g>
<!-- Node1&#45;&gt;Node8 -->
<g id="edge7" class="edge">
<title>Node1&#45;&gt;Node8</title>
<path fill="none" stroke="midnightblue" d="M233.59,-150.39C260.4,-144.99 291.9,-138.64 317.28,-133.52"/>
<polygon fill="midnightblue" stroke="midnightblue" points="232.68,-147 223.57,-152.41 234.06,-153.87 232.68,-147"/>
</g>
<!-- Node9 -->
<g id="node9" class="node">
<title>Node9</title>
<g id="a_node9"><a xlink:href="class_render_s_b_m_l_document_plugin.html" target="_top" xlink:title=" ">
<polygon fill="white" stroke="black" points="286.5,-76.5 286.5,-95.5 444.5,-95.5 444.5,-76.5 286.5,-76.5"/>
<text text-anchor="middle" x="365.5" y="-83.5" font-family="Helvetica,sans-Serif" font-size="10.00">RenderSBMLDocumentPlugin</text>
</a>
</g>
</g>
<!-- Node1&#45;&gt;Node9 -->
<g id="edge8" class="edge">
<title>Node1&#45;&gt;Node9</title>
<path fill="none" stroke="midnightblue" d="M197.33,-146.69C216.32,-133.76 245.31,-115.68 273,-105 282.84,-101.21 293.58,-98.11 304.13,-95.61"/>
<polygon fill="midnightblue" stroke="midnightblue" points="195.32,-143.83 189.1,-152.4 199.31,-149.58 195.32,-143.83"/>
</g>
<!-- Node10 -->
<g id="node10" class="node">
<title>Node10</title>
<g id="a_node10"><a xlink:href="class_s_b_m_l_document_plugin_not_required.html" target="_top" xlink:title=" ">
<polygon fill="white" stroke="black" points="273,-38.5 273,-57.5 458,-57.5 458,-38.5 273,-38.5"/>
<text text-anchor="middle" x="365.5" y="-45.5" font-family="Helvetica,sans-Serif" font-size="10.00">SBMLDocumentPluginNotRequired</text>
</a>
</g>
</g>
<!-- Node1&#45;&gt;Node10 -->
<g id="edge9" class="edge">
<title>Node1&#45;&gt;Node10</title>
<path fill="none" stroke="midnightblue" d="M188.84,-144.29C205.64,-122.52 237.17,-86.11 273,-67 280.3,-63.11 288.32,-60.01 296.49,-57.55"/>
<polygon fill="midnightblue" stroke="midnightblue" points="185.98,-142.28 182.77,-152.37 191.58,-146.48 185.98,-142.28"/>
</g>
<!-- Node11 -->
<g id="node11" class="node">
<title>Node11</title>
<g id="a_node11"><a xlink:href="class_spatial_s_b_m_l_document_plugin.html" target="_top" xlink:title=" ">
<polygon fill="white" stroke="black" points="286.5,-0.5 286.5,-19.5 444.5,-19.5 444.5,-0.5 286.5,-0.5"/>
<text text-anchor="middle" x="365.5" y="-7.5" font-family="Helvetica,sans-Serif" font-size="10.00">SpatialSBMLDocumentPlugin</text>
</a>
</g>
</g>
<!-- Node1&#45;&gt;Node11 -->
<g id="edge10" class="edge">
<title>Node1&#45;&gt;Node11</title>
<path fill="none" stroke="midnightblue" d="M184.15,-143.25C197.94,-113.9 228.74,-57.54 273,-29 279,-25.13 285.64,-22.03 292.52,-19.55"/>
<polygon fill="midnightblue" stroke="midnightblue" points="180.94,-141.86 179.99,-152.41 187.31,-144.75 180.94,-141.86"/>
</g>
<!-- Node2 -->
<g id="node2" class="node">
<title>Node2</title>
<g id="a_node2"><a xlink:href="class_s_base_plugin.html" target="_top" xlink:title=" ">
<polygon fill="white" stroke="black" points="0,-152.5 0,-171.5 77,-171.5 77,-152.5 0,-152.5"/>
<text text-anchor="middle" x="38.5" y="-159.5" font-family="Helvetica,sans-Serif" font-size="10.00">SBasePlugin</text>
</a>
</g>
</g>
<!-- Node2&#45;&gt;Node1 -->
<g id="edge1" class="edge">
<title>Node2&#45;&gt;Node1</title>
<path fill="none" stroke="midnightblue" d="M87.46,-162C95.67,-162 104.29,-162 112.79,-162"/>
<polygon fill="midnightblue" stroke="midnightblue" points="87.32,-158.5 77.32,-162 87.32,-165.5 87.32,-158.5"/>
</g>
</g>
</svg>
