<?xml version="1.0" encoding="UTF-8" standalone="no"?>
<!DOCTYPE svg PUBLIC "-//W3C//DTD SVG 1.1//EN"
 "http://www.w3.org/Graphics/SVG/1.1/DTD/svg11.dtd">
<!-- Generated by graphviz version 2.43.0 (0)
 -->
<!-- Title: Transformation Pages: 1 -->
<svg width="436pt" height="308pt"
 viewBox="0.00 0.00 436.00 308.00" xmlns="http://www.w3.org/2000/svg" xmlns:xlink="http://www.w3.org/1999/xlink">
<g id="graph0" class="graph" transform="scale(1 1) rotate(0) translate(4 304)">
<title>Transformation</title>
<polygon fill="white" stroke="transparent" points="-4,4 -4,-304 432,-304 432,4 -4,4"/>
<!-- Node1 -->
<g id="node1" class="node">
<title>Node1</title>
<g id="a_node1"><a xlink:title=" ">
<polygon fill="#bfbfbf" stroke="black" points="308.5,-224.5 308.5,-243.5 398.5,-243.5 398.5,-224.5 308.5,-224.5"/>
<text text-anchor="middle" x="353.5" y="-231.5" font-family="Helvetica,sans-Serif" font-size="10.00">Transformation</text>
</a>
</g>
</g>
<!-- Node3 -->
<g id="node3" class="node">
<title>Node3</title>
<g id="a_node3"><a xlink:href="class_transformation2_d.html" target="_top" xlink:title=" ">
<polygon fill="white" stroke="black" points="301.5,-168.5 301.5,-187.5 405.5,-187.5 405.5,-168.5 301.5,-168.5"/>
<text text-anchor="middle" x="353.5" y="-175.5" font-family="Helvetica,sans-Serif" font-size="10.00">Transformation2D</text>
</a>
</g>
</g>
<!-- Node1&#45;&gt;Node3 -->
<g id="edge2" class="edge">
<title>Node1&#45;&gt;Node3</title>
<path fill="none" stroke="midnightblue" d="M353.5,-213.8C353.5,-204.91 353.5,-194.78 353.5,-187.75"/>
<polygon fill="midnightblue" stroke="midnightblue" points="350,-214.08 353.5,-224.08 357,-214.08 350,-214.08"/>
</g>
<!-- Node2 -->
<g id="node2" class="node">
<title>Node2</title>
<g id="a_node2"><a xlink:href="class_s_base.html" target="_top" xlink:title=" ">
<polygon fill="white" stroke="black" points="330,-280.5 330,-299.5 377,-299.5 377,-280.5 330,-280.5"/>
<text text-anchor="middle" x="353.5" y="-287.5" font-family="Helvetica,sans-Serif" font-size="10.00">SBase</text>
</a>
</g>
</g>
<!-- Node2&#45;&gt;Node1 -->
<g id="edge1" class="edge">
<title>Node2&#45;&gt;Node1</title>
<path fill="none" stroke="midnightblue" d="M353.5,-269.8C353.5,-260.91 353.5,-250.78 353.5,-243.75"/>
<polygon fill="midnightblue" stroke="midnightblue" points="350,-270.08 353.5,-280.08 357,-270.08 350,-270.08"/>
</g>
<!-- Node4 -->
<g id="node4" class="node">
<title>Node4</title>
<g id="a_node4"><a xlink:href="class_graphical_primitive1_d.html" target="_top" xlink:title=" ">
<polygon fill="white" stroke="black" points="242,-112.5 242,-131.5 363,-131.5 363,-112.5 242,-112.5"/>
<text text-anchor="middle" x="302.5" y="-119.5" font-family="Helvetica,sans-Serif" font-size="10.00">GraphicalPrimitive1D</text>
</a>
</g>
</g>
<!-- Node3&#45;&gt;Node4 -->
<g id="edge3" class="edge">
<title>Node3&#45;&gt;Node4</title>
<path fill="none" stroke="midnightblue" d="M338.12,-160.72C329.13,-151.2 318.14,-139.56 310.76,-131.75"/>
<polygon fill="midnightblue" stroke="midnightblue" points="335.67,-163.22 345.08,-168.08 340.76,-158.41 335.67,-163.22"/>
</g>
<!-- Node13 -->
<g id="node13" class="node">
<title>Node13</title>
<g id="a_node13"><a xlink:href="class_image.html" target="_top" xlink:title=" ">
<polygon fill="white" stroke="black" points="381,-112.5 381,-131.5 428,-131.5 428,-112.5 381,-112.5"/>
<text text-anchor="middle" x="404.5" y="-119.5" font-family="Helvetica,sans-Serif" font-size="10.00">Image</text>
</a>
</g>
</g>
<!-- Node3&#45;&gt;Node13 -->
<g id="edge12" class="edge">
<title>Node3&#45;&gt;Node13</title>
<path fill="none" stroke="midnightblue" d="M368.88,-160.72C377.87,-151.2 388.86,-139.56 396.24,-131.75"/>
<polygon fill="midnightblue" stroke="midnightblue" points="366.24,-158.41 361.92,-168.08 371.33,-163.22 366.24,-158.41"/>
</g>
<!-- Node5 -->
<g id="node5" class="node">
<title>Node5</title>
<g id="a_node5"><a xlink:href="class_graphical_primitive2_d.html" target="_top" xlink:title=" ">
<polygon fill="white" stroke="black" points="123,-56.5 123,-75.5 244,-75.5 244,-56.5 123,-56.5"/>
<text text-anchor="middle" x="183.5" y="-63.5" font-family="Helvetica,sans-Serif" font-size="10.00">GraphicalPrimitive2D</text>
</a>
</g>
</g>
<!-- Node4&#45;&gt;Node5 -->
<g id="edge4" class="edge">
<title>Node4&#45;&gt;Node5</title>
<path fill="none" stroke="midnightblue" d="M274.36,-108.23C252.1,-98.13 221.64,-84.31 202.27,-75.52"/>
<polygon fill="midnightblue" stroke="midnightblue" points="273.09,-111.5 283.64,-112.44 275.98,-105.12 273.09,-111.5"/>
</g>
<!-- Node11 -->
<g id="node11" class="node">
<title>Node11</title>
<g id="a_node11"><a xlink:href="class_render_curve.html" target="_top" xlink:title=" ">
<polygon fill="white" stroke="black" points="262.5,-56.5 262.5,-75.5 342.5,-75.5 342.5,-56.5 262.5,-56.5"/>
<text text-anchor="middle" x="302.5" y="-63.5" font-family="Helvetica,sans-Serif" font-size="10.00">RenderCurve</text>
</a>
</g>
</g>
<!-- Node4&#45;&gt;Node11 -->
<g id="edge10" class="edge">
<title>Node4&#45;&gt;Node11</title>
<path fill="none" stroke="midnightblue" d="M302.5,-101.8C302.5,-92.91 302.5,-82.78 302.5,-75.75"/>
<polygon fill="midnightblue" stroke="midnightblue" points="299,-102.08 302.5,-112.08 306,-102.08 299,-102.08"/>
</g>
<!-- Node12 -->
<g id="node12" class="node">
<title>Node12</title>
<g id="a_node12"><a xlink:href="class_text.html" target="_top" xlink:title=" ">
<polygon fill="white" stroke="black" points="361,-56.5 361,-75.5 398,-75.5 398,-56.5 361,-56.5"/>
<text text-anchor="middle" x="379.5" y="-63.5" font-family="Helvetica,sans-Serif" font-size="10.00">Text</text>
</a>
</g>
</g>
<!-- Node4&#45;&gt;Node12 -->
<g id="edge11" class="edge">
<title>Node4&#45;&gt;Node12</title>
<path fill="none" stroke="midnightblue" d="M323.4,-106.34C337.41,-96.52 355.38,-83.91 367.16,-75.65"/>
<polygon fill="midnightblue" stroke="midnightblue" points="321.05,-103.72 314.87,-112.32 325.07,-109.45 321.05,-103.72"/>
</g>
<!-- Node6 -->
<g id="node6" class="node">
<title>Node6</title>
<g id="a_node6"><a xlink:href="class_ellipse.html" target="_top" xlink:title=" ">
<polygon fill="white" stroke="black" points="0,-0.5 0,-19.5 49,-19.5 49,-0.5 0,-0.5"/>
<text text-anchor="middle" x="24.5" y="-7.5" font-family="Helvetica,sans-Serif" font-size="10.00">Ellipse</text>
</a>
</g>
</g>
<!-- Node5&#45;&gt;Node6 -->
<g id="edge5" class="edge">
<title>Node5&#45;&gt;Node6</title>
<path fill="none" stroke="midnightblue" d="M148.61,-53.15C118.48,-42.92 75.7,-28.39 49.05,-19.34"/>
<polygon fill="midnightblue" stroke="midnightblue" points="147.71,-56.54 158.31,-56.44 149.96,-49.91 147.71,-56.54"/>
</g>
<!-- Node7 -->
<g id="node7" class="node">
<title>Node7</title>
<g id="a_node7"><a xlink:href="class_line_ending.html" target="_top" xlink:title=" ">
<polygon fill="white" stroke="black" points="67.5,-0.5 67.5,-19.5 137.5,-19.5 137.5,-0.5 67.5,-0.5"/>
<text text-anchor="middle" x="102.5" y="-7.5" font-family="Helvetica,sans-Serif" font-size="10.00">LineEnding</text>
</a>
</g>
</g>
<!-- Node5&#45;&gt;Node7 -->
<g id="edge6" class="edge">
<title>Node5&#45;&gt;Node7</title>
<path fill="none" stroke="midnightblue" d="M161.93,-50.62C147.14,-40.76 127.99,-27.99 115.48,-19.65"/>
<polygon fill="midnightblue" stroke="midnightblue" points="160.22,-53.69 170.49,-56.32 164.11,-47.86 160.22,-53.69"/>
</g>
<!-- Node8 -->
<g id="node8" class="node">
<title>Node8</title>
<g id="a_node8"><a xlink:href="class_polygon.html" target="_top" xlink:title=" ">
<polygon fill="white" stroke="black" points="155.5,-0.5 155.5,-19.5 211.5,-19.5 211.5,-0.5 155.5,-0.5"/>
<text text-anchor="middle" x="183.5" y="-7.5" font-family="Helvetica,sans-Serif" font-size="10.00">Polygon</text>
</a>
</g>
</g>
<!-- Node5&#45;&gt;Node8 -->
<g id="edge7" class="edge">
<title>Node5&#45;&gt;Node8</title>
<path fill="none" stroke="midnightblue" d="M183.5,-45.8C183.5,-36.91 183.5,-26.78 183.5,-19.75"/>
<polygon fill="midnightblue" stroke="midnightblue" points="180,-46.08 183.5,-56.08 187,-46.08 180,-46.08"/>
</g>
<!-- Node9 -->
<g id="node9" class="node">
<title>Node9</title>
<g id="a_node9"><a xlink:href="class_rectangle.html" target="_top" xlink:title=" ">
<polygon fill="white" stroke="black" points="230,-0.5 230,-19.5 295,-19.5 295,-0.5 230,-0.5"/>
<text text-anchor="middle" x="262.5" y="-7.5" font-family="Helvetica,sans-Serif" font-size="10.00">Rectangle</text>
</a>
</g>
</g>
<!-- Node5&#45;&gt;Node9 -->
<g id="edge8" class="edge">
<title>Node5&#45;&gt;Node9</title>
<path fill="none" stroke="midnightblue" d="M204.53,-50.62C218.97,-40.76 237.64,-27.99 249.84,-19.65"/>
<polygon fill="midnightblue" stroke="midnightblue" points="202.47,-47.79 196.19,-56.32 206.42,-53.57 202.47,-47.79"/>
</g>
<!-- Node10 -->
<g id="node10" class="node">
<title>Node10</title>
<g id="a_node10"><a xlink:href="class_render_group.html" target="_top" xlink:title=" ">
<polygon fill="white" stroke="black" points="313.5,-0.5 313.5,-19.5 393.5,-19.5 393.5,-0.5 313.5,-0.5"/>
<text text-anchor="middle" x="353.5" y="-7.5" font-family="Helvetica,sans-Serif" font-size="10.00">RenderGroup</text>
</a>
</g>
</g>
<!-- Node5&#45;&gt;Node10 -->
<g id="edge9" class="edge">
<title>Node5&#45;&gt;Node10</title>
<path fill="none" stroke="midnightblue" d="M220.32,-53.3C252.35,-43.13 298.02,-28.62 326.69,-19.52"/>
<polygon fill="midnightblue" stroke="midnightblue" points="218.91,-50.08 210.44,-56.44 221.03,-56.75 218.91,-50.08"/>
</g>
</g>
</svg>
