<?xml version="1.0" encoding="UTF-8" standalone="no"?>
<!DOCTYPE svg PUBLIC "-//W3C//DTD SVG 1.1//EN"
 "http://www.w3.org/Graphics/SVG/1.1/DTD/svg11.dtd">
<!-- Generated by graphviz version 2.43.0 (0)
 -->
<!-- Title: SBMLVisitor Pages: 1 -->
<svg width="249pt" height="370pt"
 viewBox="0.00 0.00 249.00 370.00" xmlns="http://www.w3.org/2000/svg" xmlns:xlink="http://www.w3.org/1999/xlink">
<g id="graph0" class="graph" transform="scale(1 1) rotate(0) translate(4 366)">
<title>SBMLVisitor</title>
<polygon fill="white" stroke="transparent" points="-4,4 -4,-366 245,-366 245,4 -4,4"/>
<!-- Node1 -->
<g id="node1" class="node">
<title>Node1</title>
<g id="a_node1"><a xlink:title=" ">
<polygon fill="#bfbfbf" stroke="black" points="0,-171.5 0,-190.5 74,-190.5 74,-171.5 0,-171.5"/>
<text text-anchor="middle" x="37" y="-178.5" font-family="Helvetica,sans-Serif" font-size="10.00">SBMLVisitor</text>
</a>
</g>
</g>
<!-- Node2 -->
<g id="node2" class="node">
<title>Node2</title>
<g id="a_node2"><a xlink:title=" ">
<polygon fill="white" stroke="#bfbfbf" points="113,-342.5 113,-361.5 238,-361.5 238,-342.5 113,-342.5"/>
<text text-anchor="middle" x="175.5" y="-349.5" font-family="Helvetica,sans-Serif" font-size="10.00">CompValidatingVisitor</text>
</a>
</g>
</g>
<!-- Node1&#45;&gt;Node2 -->
<g id="edge1" class="edge">
<title>Node1&#45;&gt;Node2</title>
<path fill="none" stroke="midnightblue" d="M41.94,-200.93C49.4,-233.41 68.71,-297.69 110,-333 114.52,-336.87 119.81,-339.95 125.36,-342.41"/>
<polygon fill="midnightblue" stroke="midnightblue" points="45.3,-199.91 39.78,-190.86 38.46,-201.38 45.3,-199.91"/>
</g>
<!-- Node3 -->
<g id="node3" class="node">
<title>Node3</title>
<g id="a_node3"><a xlink:title=" ">
<polygon fill="white" stroke="#bfbfbf" points="111,-304.5 111,-323.5 240,-323.5 240,-304.5 111,-304.5"/>
<text text-anchor="middle" x="175.5" y="-311.5" font-family="Helvetica,sans-Serif" font-size="10.00">DistribValidatingVisitor</text>
</a>
</g>
</g>
<!-- Node1&#45;&gt;Node3 -->
<g id="edge2" class="edge">
<title>Node1&#45;&gt;Node3</title>
<path fill="none" stroke="midnightblue" d="M45.09,-200.22C55.45,-225.66 77.15,-270.18 110,-295 115.12,-298.87 121.02,-301.95 127.13,-304.41"/>
<polygon fill="midnightblue" stroke="midnightblue" points="48.23,-198.65 41.34,-190.6 41.71,-201.19 48.23,-198.65"/>
</g>
<!-- Node4 -->
<g id="node4" class="node">
<title>Node4</title>
<g id="a_node4"><a xlink:title=" ">
<polygon fill="white" stroke="#bfbfbf" points="118.5,-266.5 118.5,-285.5 232.5,-285.5 232.5,-266.5 118.5,-266.5"/>
<text text-anchor="middle" x="175.5" y="-273.5" font-family="Helvetica,sans-Serif" font-size="10.00">FbcValidatingVisitor</text>
</a>
</g>
</g>
<!-- Node1&#45;&gt;Node4 -->
<g id="edge3" class="edge">
<title>Node1&#45;&gt;Node4</title>
<path fill="none" stroke="midnightblue" d="M50.5,-198.89C63.48,-216.17 85.32,-241.89 110,-257 116.27,-260.84 123.36,-263.94 130.49,-266.43"/>
<polygon fill="midnightblue" stroke="midnightblue" points="53.27,-196.74 44.56,-190.72 47.61,-200.86 53.27,-196.74"/>
</g>
<!-- Node5 -->
<g id="node5" class="node">
<title>Node5</title>
<g id="a_node5"><a xlink:title=" ">
<polygon fill="white" stroke="#bfbfbf" points="110,-228.5 110,-247.5 241,-247.5 241,-228.5 110,-228.5"/>
<text text-anchor="middle" x="175.5" y="-235.5" font-family="Helvetica,sans-Serif" font-size="10.00">GroupsValidatingVisitor</text>
</a>
</g>
</g>
<!-- Node1&#45;&gt;Node5 -->
<g id="edge4" class="edge">
<title>Node1&#45;&gt;Node5</title>
<path fill="none" stroke="midnightblue" d="M62.63,-195.57C76.28,-203.23 93.72,-212.38 110,-219 118.76,-222.56 128.43,-225.77 137.57,-228.49"/>
<polygon fill="midnightblue" stroke="midnightblue" points="64.28,-192.48 53.86,-190.55 60.8,-198.55 64.28,-192.48"/>
</g>
<!-- Node6 -->
<g id="node6" class="node">
<title>Node6</title>
<g id="a_node6"><a xlink:title=" ">
<polygon fill="white" stroke="#bfbfbf" points="110.5,-190.5 110.5,-209.5 240.5,-209.5 240.5,-190.5 110.5,-190.5"/>
<text text-anchor="middle" x="175.5" y="-197.5" font-family="Helvetica,sans-Serif" font-size="10.00">LayoutValidatingVisitor</text>
</a>
</g>
</g>
<!-- Node1&#45;&gt;Node6 -->
<g id="edge5" class="edge">
<title>Node1&#45;&gt;Node6</title>
<path fill="none" stroke="midnightblue" d="M84.21,-187.43C92.63,-188.6 101.56,-189.85 110.39,-191.08"/>
<polygon fill="midnightblue" stroke="midnightblue" points="84.61,-183.95 74.22,-186.04 83.64,-190.89 84.61,-183.95"/>
</g>
<!-- Node7 -->
<g id="node7" class="node">
<title>Node7</title>
<g id="a_node7"><a xlink:title=" ">
<polygon fill="white" stroke="#bfbfbf" points="114.5,-152.5 114.5,-171.5 236.5,-171.5 236.5,-152.5 114.5,-152.5"/>
<text text-anchor="middle" x="175.5" y="-159.5" font-family="Helvetica,sans-Serif" font-size="10.00">MultiValidatingVisitor</text>
</a>
</g>
</g>
<!-- Node1&#45;&gt;Node7 -->
<g id="edge6" class="edge">
<title>Node1&#45;&gt;Node7</title>
<path fill="none" stroke="midnightblue" d="M84.38,-174.54C94.01,-173.2 104.3,-171.77 114.35,-170.37"/>
<polygon fill="midnightblue" stroke="midnightblue" points="83.64,-171.11 74.22,-175.96 84.61,-178.05 83.64,-171.11"/>
</g>
<!-- Node8 -->
<g id="node8" class="node">
<title>Node8</title>
<g id="a_node8"><a xlink:title=" ">
<polygon fill="white" stroke="#bfbfbf" points="116,-114.5 116,-133.5 235,-133.5 235,-114.5 116,-114.5"/>
<text text-anchor="middle" x="175.5" y="-121.5" font-family="Helvetica,sans-Serif" font-size="10.00">QualValidatingVisitor</text>
</a>
</g>
</g>
<!-- Node1&#45;&gt;Node8 -->
<g id="edge7" class="edge">
<title>Node1&#45;&gt;Node8</title>
<path fill="none" stroke="midnightblue" d="M62.63,-166.43C76.28,-158.77 93.72,-149.62 110,-143 118.76,-139.44 128.43,-136.23 137.57,-133.51"/>
<polygon fill="midnightblue" stroke="midnightblue" points="60.8,-163.45 53.86,-171.45 64.28,-169.52 60.8,-163.45"/>
</g>
<!-- Node9 -->
<g id="node9" class="node">
<title>Node9</title>
<g id="a_node9"><a xlink:title=" ">
<polygon fill="white" stroke="#bfbfbf" points="110,-76.5 110,-95.5 241,-95.5 241,-76.5 110,-76.5"/>
<text text-anchor="middle" x="175.5" y="-83.5" font-family="Helvetica,sans-Serif" font-size="10.00">RenderValidatingVisitor</text>
</a>
</g>
</g>
<!-- Node1&#45;&gt;Node9 -->
<g id="edge8" class="edge">
<title>Node1&#45;&gt;Node9</title>
<path fill="none" stroke="midnightblue" d="M50.5,-163.11C63.48,-145.83 85.32,-120.11 110,-105 116.27,-101.16 123.36,-98.06 130.49,-95.57"/>
<polygon fill="midnightblue" stroke="midnightblue" points="47.61,-161.14 44.56,-171.28 53.27,-165.26 47.61,-161.14"/>
</g>
<!-- Node10 -->
<g id="node10" class="node">
<title>Node10</title>
<g id="a_node10"><a xlink:title=" ">
<polygon fill="white" stroke="#bfbfbf" points="110,-38.5 110,-57.5 241,-57.5 241,-38.5 110,-38.5"/>
<text text-anchor="middle" x="175.5" y="-45.5" font-family="Helvetica,sans-Serif" font-size="10.00">SpatialValidatingVisitor</text>
</a>
</g>
</g>
<!-- Node1&#45;&gt;Node10 -->
<g id="edge9" class="edge">
<title>Node1&#45;&gt;Node10</title>
<path fill="none" stroke="midnightblue" d="M45.09,-161.78C55.45,-136.34 77.15,-91.82 110,-67 115.12,-63.13 121.02,-60.05 127.13,-57.59"/>
<polygon fill="midnightblue" stroke="midnightblue" points="41.71,-160.81 41.34,-171.4 48.23,-163.35 41.71,-160.81"/>
</g>
<!-- Node11 -->
<g id="node11" class="node">
<title>Node11</title>
<g id="a_node11"><a xlink:title=" ">
<polygon fill="white" stroke="#bfbfbf" points="127,-0.5 127,-19.5 224,-19.5 224,-0.5 127,-0.5"/>
<text text-anchor="middle" x="175.5" y="-7.5" font-family="Helvetica,sans-Serif" font-size="10.00">ValidatingVisitor</text>
</a>
</g>
</g>
<!-- Node1&#45;&gt;Node11 -->
<g id="edge10" class="edge">
<title>Node1&#45;&gt;Node11</title>
<path fill="none" stroke="midnightblue" d="M41.94,-161.07C49.4,-128.59 68.71,-64.31 110,-29 114.88,-24.83 120.64,-21.57 126.68,-19.03"/>
<polygon fill="midnightblue" stroke="midnightblue" points="38.46,-160.62 39.78,-171.14 45.3,-162.09 38.46,-160.62"/>
</g>
</g>
</svg>
