<?xml version="1.0" encoding="UTF-8" standalone="no"?>
<!DOCTYPE svg PUBLIC "-//W3C//DTD SVG 1.1//EN"
 "http://www.w3.org/Graphics/SVG/1.1/DTD/svg11.dtd">
<!-- Generated by graphviz version 2.43.0 (0)
 -->
<!-- Title: CompBase Pages: 1 -->
<svg width="365pt" height="252pt"
 viewBox="0.00 0.00 365.00 252.00" xmlns="http://www.w3.org/2000/svg" xmlns:xlink="http://www.w3.org/1999/xlink">
<g id="graph0" class="graph" transform="scale(1 1) rotate(0) translate(4 248)">
<title>CompBase</title>
<polygon fill="white" stroke="transparent" points="-4,4 -4,-248 361,-248 361,4 -4,4"/>
<!-- Node1 -->
<g id="node1" class="node">
<title>Node1</title>
<g id="a_node1"><a xlink:title=" ">
<polygon fill="#bfbfbf" stroke="black" points="149.5,-168.5 149.5,-187.5 218.5,-187.5 218.5,-168.5 149.5,-168.5"/>
<text text-anchor="middle" x="184" y="-175.5" font-family="Helvetica,sans-Serif" font-size="10.00">CompBase</text>
</a>
</g>
</g>
<!-- Node3 -->
<g id="node3" class="node">
<title>Node3</title>
<g id="a_node3"><a xlink:href="class_external_model_definition.html" target="_top" xlink:title=" ">
<polygon fill="white" stroke="black" points="0,-112.5 0,-131.5 134,-131.5 134,-112.5 0,-112.5"/>
<text text-anchor="middle" x="67" y="-119.5" font-family="Helvetica,sans-Serif" font-size="10.00">ExternalModelDefinition</text>
</a>
</g>
</g>
<!-- Node1&#45;&gt;Node3 -->
<g id="edge2" class="edge">
<title>Node1&#45;&gt;Node3</title>
<path fill="none" stroke="midnightblue" d="M156.34,-164.23C134.45,-154.13 104.5,-140.31 85.45,-131.52"/>
<polygon fill="midnightblue" stroke="midnightblue" points="154.91,-167.43 165.46,-168.44 157.85,-161.08 154.91,-167.43"/>
</g>
<!-- Node4 -->
<g id="node4" class="node">
<title>Node4</title>
<g id="a_node4"><a xlink:href="class_s_base_ref.html" target="_top" xlink:title=" ">
<polygon fill="white" stroke="black" points="152.5,-112.5 152.5,-131.5 215.5,-131.5 215.5,-112.5 152.5,-112.5"/>
<text text-anchor="middle" x="184" y="-119.5" font-family="Helvetica,sans-Serif" font-size="10.00">SBaseRef</text>
</a>
</g>
</g>
<!-- Node1&#45;&gt;Node4 -->
<g id="edge3" class="edge">
<title>Node1&#45;&gt;Node4</title>
<path fill="none" stroke="midnightblue" d="M184,-157.8C184,-148.91 184,-138.78 184,-131.75"/>
<polygon fill="midnightblue" stroke="midnightblue" points="180.5,-158.08 184,-168.08 187.5,-158.08 180.5,-158.08"/>
</g>
<!-- Node10 -->
<g id="node10" class="node">
<title>Node10</title>
<g id="a_node10"><a xlink:href="class_submodel.html" target="_top" xlink:title=" ">
<polygon fill="white" stroke="black" points="233.5,-112.5 233.5,-131.5 298.5,-131.5 298.5,-112.5 233.5,-112.5"/>
<text text-anchor="middle" x="266" y="-119.5" font-family="Helvetica,sans-Serif" font-size="10.00">Submodel</text>
</a>
</g>
</g>
<!-- Node1&#45;&gt;Node10 -->
<g id="edge9" class="edge">
<title>Node1&#45;&gt;Node10</title>
<path fill="none" stroke="midnightblue" d="M205.83,-162.62C220.81,-152.76 240.2,-139.99 252.86,-131.65"/>
<polygon fill="midnightblue" stroke="midnightblue" points="203.6,-159.9 197.17,-168.32 207.45,-165.75 203.6,-159.9"/>
</g>
<!-- Node2 -->
<g id="node2" class="node">
<title>Node2</title>
<g id="a_node2"><a xlink:href="class_s_base.html" target="_top" xlink:title=" ">
<polygon fill="white" stroke="black" points="160.5,-224.5 160.5,-243.5 207.5,-243.5 207.5,-224.5 160.5,-224.5"/>
<text text-anchor="middle" x="184" y="-231.5" font-family="Helvetica,sans-Serif" font-size="10.00">SBase</text>
</a>
</g>
</g>
<!-- Node2&#45;&gt;Node1 -->
<g id="edge1" class="edge">
<title>Node2&#45;&gt;Node1</title>
<path fill="none" stroke="midnightblue" d="M184,-213.8C184,-204.91 184,-194.78 184,-187.75"/>
<polygon fill="midnightblue" stroke="midnightblue" points="180.5,-214.08 184,-224.08 187.5,-214.08 180.5,-214.08"/>
</g>
<!-- Node5 -->
<g id="node5" class="node">
<title>Node5</title>
<g id="a_node5"><a xlink:href="class_deletion.html" target="_top" xlink:title=" ">
<polygon fill="white" stroke="black" points="90,-56.5 90,-75.5 148,-75.5 148,-56.5 90,-56.5"/>
<text text-anchor="middle" x="119" y="-63.5" font-family="Helvetica,sans-Serif" font-size="10.00">Deletion</text>
</a>
</g>
</g>
<!-- Node4&#45;&gt;Node5 -->
<g id="edge4" class="edge">
<title>Node4&#45;&gt;Node5</title>
<path fill="none" stroke="midnightblue" d="M165.73,-105.82C154.08,-96.15 139.4,-83.95 129.63,-75.83"/>
<polygon fill="midnightblue" stroke="midnightblue" points="163.63,-108.63 173.56,-112.32 168.1,-103.24 163.63,-108.63"/>
</g>
<!-- Node6 -->
<g id="node6" class="node">
<title>Node6</title>
<g id="a_node6"><a xlink:href="class_port.html" target="_top" xlink:title=" ">
<polygon fill="white" stroke="black" points="166,-56.5 166,-75.5 202,-75.5 202,-56.5 166,-56.5"/>
<text text-anchor="middle" x="184" y="-63.5" font-family="Helvetica,sans-Serif" font-size="10.00">Port</text>
</a>
</g>
</g>
<!-- Node4&#45;&gt;Node6 -->
<g id="edge5" class="edge">
<title>Node4&#45;&gt;Node6</title>
<path fill="none" stroke="midnightblue" d="M184,-101.8C184,-92.91 184,-82.78 184,-75.75"/>
<polygon fill="midnightblue" stroke="midnightblue" points="180.5,-102.08 184,-112.08 187.5,-102.08 180.5,-102.08"/>
</g>
<!-- Node7 -->
<g id="node7" class="node">
<title>Node7</title>
<g id="a_node7"><a xlink:href="class_replacing.html" target="_top" xlink:title=" ">
<polygon fill="white" stroke="black" points="220.5,-56.5 220.5,-75.5 285.5,-75.5 285.5,-56.5 220.5,-56.5"/>
<text text-anchor="middle" x="253" y="-63.5" font-family="Helvetica,sans-Serif" font-size="10.00">Replacing</text>
</a>
</g>
</g>
<!-- Node4&#45;&gt;Node7 -->
<g id="edge6" class="edge">
<title>Node4&#45;&gt;Node7</title>
<path fill="none" stroke="midnightblue" d="M203.04,-106.1C215.46,-96.38 231.24,-84.03 241.71,-75.83"/>
<polygon fill="midnightblue" stroke="midnightblue" points="200.8,-103.4 195.09,-112.32 205.12,-108.92 200.8,-103.4"/>
</g>
<!-- Node8 -->
<g id="node8" class="node">
<title>Node8</title>
<g id="a_node8"><a xlink:href="class_replaced_by.html" target="_top" xlink:title=" ">
<polygon fill="white" stroke="black" points="163,-0.5 163,-19.5 237,-19.5 237,-0.5 163,-0.5"/>
<text text-anchor="middle" x="200" y="-7.5" font-family="Helvetica,sans-Serif" font-size="10.00">ReplacedBy</text>
</a>
</g>
</g>
<!-- Node7&#45;&gt;Node8 -->
<g id="edge7" class="edge">
<title>Node7&#45;&gt;Node8</title>
<path fill="none" stroke="midnightblue" d="M237.02,-48.72C227.68,-39.2 216.25,-27.56 208.59,-19.75"/>
<polygon fill="midnightblue" stroke="midnightblue" points="234.75,-51.4 244.25,-56.08 239.74,-46.49 234.75,-51.4"/>
</g>
<!-- Node9 -->
<g id="node9" class="node">
<title>Node9</title>
<g id="a_node9"><a xlink:href="class_replaced_element.html" target="_top" xlink:title=" ">
<polygon fill="white" stroke="black" points="255,-0.5 255,-19.5 357,-19.5 357,-0.5 255,-0.5"/>
<text text-anchor="middle" x="306" y="-7.5" font-family="Helvetica,sans-Serif" font-size="10.00">ReplacedElement</text>
</a>
</g>
</g>
<!-- Node7&#45;&gt;Node9 -->
<g id="edge8" class="edge">
<title>Node7&#45;&gt;Node9</title>
<path fill="none" stroke="midnightblue" d="M268.98,-48.72C278.32,-39.2 289.75,-27.56 297.41,-19.75"/>
<polygon fill="midnightblue" stroke="midnightblue" points="266.26,-46.49 261.75,-56.08 271.25,-51.4 266.26,-46.49"/>
</g>
</g>
</svg>
