<?xml version="1.0" encoding="UTF-8" standalone="no"?>
<!DOCTYPE svg PUBLIC "-//W3C//DTD SVG 1.1//EN"
 "http://www.w3.org/Graphics/SVG/1.1/DTD/svg11.dtd">
<!-- Generated by graphviz version 2.43.0 (0)
 -->
<!-- Title: SBaseRef Pages: 1 -->
<svg width="275pt" height="252pt"
 viewBox="0.00 0.00 275.00 252.00" xmlns="http://www.w3.org/2000/svg" xmlns:xlink="http://www.w3.org/1999/xlink">
<g id="graph0" class="graph" transform="scale(1 1) rotate(0) translate(4 248)">
<title>SBaseRef</title>
<polygon fill="white" stroke="transparent" points="-4,4 -4,-248 271,-248 271,4 -4,4"/>
<!-- Node1 -->
<g id="node1" class="node">
<title>Node1</title>
<g id="a_node1"><a xlink:title=" ">
<polygon fill="#bfbfbf" stroke="black" points="62.5,-112.5 62.5,-131.5 125.5,-131.5 125.5,-112.5 62.5,-112.5"/>
<text text-anchor="middle" x="94" y="-119.5" font-family="Helvetica,sans-Serif" font-size="10.00">SBaseRef</text>
</a>
</g>
</g>
<!-- Node4 -->
<g id="node4" class="node">
<title>Node4</title>
<g id="a_node4"><a xlink:href="class_deletion.html" target="_top" xlink:title=" ">
<polygon fill="white" stroke="black" points="0,-56.5 0,-75.5 58,-75.5 58,-56.5 0,-56.5"/>
<text text-anchor="middle" x="29" y="-63.5" font-family="Helvetica,sans-Serif" font-size="10.00">Deletion</text>
</a>
</g>
</g>
<!-- Node1&#45;&gt;Node4 -->
<g id="edge3" class="edge">
<title>Node1&#45;&gt;Node4</title>
<path fill="none" stroke="midnightblue" d="M75.73,-105.82C64.08,-96.15 49.4,-83.95 39.63,-75.83"/>
<polygon fill="midnightblue" stroke="midnightblue" points="73.63,-108.63 83.56,-112.32 78.1,-103.24 73.63,-108.63"/>
</g>
<!-- Node5 -->
<g id="node5" class="node">
<title>Node5</title>
<g id="a_node5"><a xlink:href="class_port.html" target="_top" xlink:title=" ">
<polygon fill="white" stroke="black" points="76,-56.5 76,-75.5 112,-75.5 112,-56.5 76,-56.5"/>
<text text-anchor="middle" x="94" y="-63.5" font-family="Helvetica,sans-Serif" font-size="10.00">Port</text>
</a>
</g>
</g>
<!-- Node1&#45;&gt;Node5 -->
<g id="edge4" class="edge">
<title>Node1&#45;&gt;Node5</title>
<path fill="none" stroke="midnightblue" d="M94,-101.8C94,-92.91 94,-82.78 94,-75.75"/>
<polygon fill="midnightblue" stroke="midnightblue" points="90.5,-102.08 94,-112.08 97.5,-102.08 90.5,-102.08"/>
</g>
<!-- Node6 -->
<g id="node6" class="node">
<title>Node6</title>
<g id="a_node6"><a xlink:href="class_replacing.html" target="_top" xlink:title=" ">
<polygon fill="white" stroke="black" points="130.5,-56.5 130.5,-75.5 195.5,-75.5 195.5,-56.5 130.5,-56.5"/>
<text text-anchor="middle" x="163" y="-63.5" font-family="Helvetica,sans-Serif" font-size="10.00">Replacing</text>
</a>
</g>
</g>
<!-- Node1&#45;&gt;Node6 -->
<g id="edge5" class="edge">
<title>Node1&#45;&gt;Node6</title>
<path fill="none" stroke="midnightblue" d="M113.04,-106.1C125.46,-96.38 141.24,-84.03 151.71,-75.83"/>
<polygon fill="midnightblue" stroke="midnightblue" points="110.8,-103.4 105.09,-112.32 115.12,-108.92 110.8,-103.4"/>
</g>
<!-- Node2 -->
<g id="node2" class="node">
<title>Node2</title>
<g id="a_node2"><a xlink:href="class_comp_base.html" target="_top" xlink:title=" ">
<polygon fill="white" stroke="black" points="59.5,-168.5 59.5,-187.5 128.5,-187.5 128.5,-168.5 59.5,-168.5"/>
<text text-anchor="middle" x="94" y="-175.5" font-family="Helvetica,sans-Serif" font-size="10.00">CompBase</text>
</a>
</g>
</g>
<!-- Node2&#45;&gt;Node1 -->
<g id="edge1" class="edge">
<title>Node2&#45;&gt;Node1</title>
<path fill="none" stroke="midnightblue" d="M94,-157.8C94,-148.91 94,-138.78 94,-131.75"/>
<polygon fill="midnightblue" stroke="midnightblue" points="90.5,-158.08 94,-168.08 97.5,-158.08 90.5,-158.08"/>
</g>
<!-- Node3 -->
<g id="node3" class="node">
<title>Node3</title>
<g id="a_node3"><a xlink:href="class_s_base.html" target="_top" xlink:title=" ">
<polygon fill="white" stroke="black" points="70.5,-224.5 70.5,-243.5 117.5,-243.5 117.5,-224.5 70.5,-224.5"/>
<text text-anchor="middle" x="94" y="-231.5" font-family="Helvetica,sans-Serif" font-size="10.00">SBase</text>
</a>
</g>
</g>
<!-- Node3&#45;&gt;Node2 -->
<g id="edge2" class="edge">
<title>Node3&#45;&gt;Node2</title>
<path fill="none" stroke="midnightblue" d="M94,-213.8C94,-204.91 94,-194.78 94,-187.75"/>
<polygon fill="midnightblue" stroke="midnightblue" points="90.5,-214.08 94,-224.08 97.5,-214.08 90.5,-214.08"/>
</g>
<!-- Node7 -->
<g id="node7" class="node">
<title>Node7</title>
<g id="a_node7"><a xlink:href="class_replaced_by.html" target="_top" xlink:title=" ">
<polygon fill="white" stroke="black" points="73,-0.5 73,-19.5 147,-19.5 147,-0.5 73,-0.5"/>
<text text-anchor="middle" x="110" y="-7.5" font-family="Helvetica,sans-Serif" font-size="10.00">ReplacedBy</text>
</a>
</g>
</g>
<!-- Node6&#45;&gt;Node7 -->
<g id="edge6" class="edge">
<title>Node6&#45;&gt;Node7</title>
<path fill="none" stroke="midnightblue" d="M147.02,-48.72C137.68,-39.2 126.25,-27.56 118.59,-19.75"/>
<polygon fill="midnightblue" stroke="midnightblue" points="144.75,-51.4 154.25,-56.08 149.74,-46.49 144.75,-51.4"/>
</g>
<!-- Node8 -->
<g id="node8" class="node">
<title>Node8</title>
<g id="a_node8"><a xlink:href="class_replaced_element.html" target="_top" xlink:title=" ">
<polygon fill="white" stroke="black" points="165,-0.5 165,-19.5 267,-19.5 267,-0.5 165,-0.5"/>
<text text-anchor="middle" x="216" y="-7.5" font-family="Helvetica,sans-Serif" font-size="10.00">ReplacedElement</text>
</a>
</g>
</g>
<!-- Node6&#45;&gt;Node8 -->
<g id="edge7" class="edge">
<title>Node6&#45;&gt;Node8</title>
<path fill="none" stroke="midnightblue" d="M178.98,-48.72C188.32,-39.2 199.75,-27.56 207.41,-19.75"/>
<polygon fill="midnightblue" stroke="midnightblue" points="176.26,-46.49 171.75,-56.08 181.25,-51.4 176.26,-46.49"/>
</g>
</g>
</svg>
