<?xml version="1.0" encoding="UTF-8" standalone="no"?>
<!DOCTYPE svg PUBLIC "-//W3C//DTD SVG 1.1//EN"
 "http://www.w3.org/Graphics/SVG/1.1/DTD/svg11.dtd">
<!-- Generated by graphviz version 2.43.0 (0)
 -->
<!-- Title: SBMLExtension Pages: 1 -->
<svg width="235pt" height="256pt"
 viewBox="0.00 0.00 235.00 256.00" xmlns="http://www.w3.org/2000/svg" xmlns:xlink="http://www.w3.org/1999/xlink">
<g id="graph0" class="graph" transform="scale(1 1) rotate(0) translate(4 252)">
<title>SBMLExtension</title>
<polygon fill="white" stroke="transparent" points="-4,4 -4,-252 231,-252 231,4 -4,4"/>
<!-- Node1 -->
<g id="node1" class="node">
<title>Node1</title>
<g id="a_node1"><a xlink:title="@sbmlpackage{core}">
<polygon fill="#bfbfbf" stroke="black" points="0,-114.5 0,-133.5 92,-133.5 92,-114.5 0,-114.5"/>
<text text-anchor="middle" x="46" y="-121.5" font-family="Helvetica,sans-Serif" font-size="10.00">SBMLExtension</text>
</a>
</g>
</g>
<!-- Node2 -->
<g id="node2" class="node">
<title>Node2</title>
<g id="a_node2"><a xlink:href="class_comp_extension.html" target="_top" xlink:title="@sbmlpackage{comp}">
<polygon fill="white" stroke="black" points="131,-228.5 131,-247.5 224,-247.5 224,-228.5 131,-228.5"/>
<text text-anchor="middle" x="177.5" y="-235.5" font-family="Helvetica,sans-Serif" font-size="10.00">CompExtension</text>
</a>
</g>
</g>
<!-- Node1&#45;&gt;Node2 -->
<g id="edge1" class="edge">
<title>Node1&#45;&gt;Node2</title>
<path fill="none" stroke="midnightblue" d="M58.56,-142.38C72.66,-163.46 98.3,-197.84 128,-219 133.23,-222.73 139.29,-225.85 145.31,-228.41"/>
<polygon fill="midnightblue" stroke="midnightblue" points="61.32,-140.19 52.93,-133.72 55.45,-144.01 61.32,-140.19"/>
</g>
<!-- Node3 -->
<g id="node3" class="node">
<title>Node3</title>
<g id="a_node3"><a xlink:href="class_fbc_extension.html" target="_top" xlink:title="@sbmlpackage{fbc}">
<polygon fill="white" stroke="black" points="136.5,-190.5 136.5,-209.5 218.5,-209.5 218.5,-190.5 136.5,-190.5"/>
<text text-anchor="middle" x="177.5" y="-197.5" font-family="Helvetica,sans-Serif" font-size="10.00">FbcExtension</text>
</a>
</g>
</g>
<!-- Node1&#45;&gt;Node3 -->
<g id="edge2" class="edge">
<title>Node1&#45;&gt;Node3</title>
<path fill="none" stroke="midnightblue" d="M66.78,-139.95C82.66,-152.25 105.89,-169.11 128,-181 134.53,-184.51 141.85,-187.72 148.79,-190.47"/>
<polygon fill="midnightblue" stroke="midnightblue" points="68.78,-137.08 58.76,-133.65 64.46,-142.58 68.78,-137.08"/>
</g>
<!-- Node4 -->
<g id="node4" class="node">
<title>Node4</title>
<g id="a_node4"><a xlink:href="class_groups_extension.html" target="_top" xlink:title="@sbmlpackage{groups}">
<polygon fill="white" stroke="black" points="128,-152.5 128,-171.5 227,-171.5 227,-152.5 128,-152.5"/>
<text text-anchor="middle" x="177.5" y="-159.5" font-family="Helvetica,sans-Serif" font-size="10.00">GroupsExtension</text>
</a>
</g>
</g>
<!-- Node1&#45;&gt;Node4 -->
<g id="edge3" class="edge">
<title>Node1&#45;&gt;Node4</title>
<path fill="none" stroke="midnightblue" d="M89.72,-136.54C107.34,-141.7 127.42,-147.6 143.83,-152.41"/>
<polygon fill="midnightblue" stroke="midnightblue" points="90.26,-133.05 79.68,-133.59 88.29,-139.76 90.26,-133.05"/>
</g>
<!-- Node5 -->
<g id="node5" class="node">
<title>Node5</title>
<g id="a_node5"><a xlink:href="class_layout_extension.html" target="_top" xlink:title="@sbmlpackage{layout}">
<polygon fill="white" stroke="black" points="128.5,-114.5 128.5,-133.5 226.5,-133.5 226.5,-114.5 128.5,-114.5"/>
<text text-anchor="middle" x="177.5" y="-121.5" font-family="Helvetica,sans-Serif" font-size="10.00">LayoutExtension</text>
</a>
</g>
</g>
<!-- Node1&#45;&gt;Node5 -->
<g id="edge4" class="edge">
<title>Node1&#45;&gt;Node5</title>
<path fill="none" stroke="midnightblue" d="M102.32,-124C110.99,-124 119.88,-124 128.37,-124"/>
<polygon fill="midnightblue" stroke="midnightblue" points="102.29,-120.5 92.29,-124 102.29,-127.5 102.29,-120.5"/>
</g>
<!-- Node6 -->
<g id="node6" class="node">
<title>Node6</title>
<g id="a_node6"><a xlink:href="class_multi_extension.html" target="_top" xlink:title="@sbmlpackage{multi}">
<polygon fill="white" stroke="black" points="133,-76.5 133,-95.5 222,-95.5 222,-76.5 133,-76.5"/>
<text text-anchor="middle" x="177.5" y="-83.5" font-family="Helvetica,sans-Serif" font-size="10.00">MultiExtension</text>
</a>
</g>
</g>
<!-- Node1&#45;&gt;Node6 -->
<g id="edge5" class="edge">
<title>Node1&#45;&gt;Node6</title>
<path fill="none" stroke="midnightblue" d="M89.72,-111.46C107.34,-106.3 127.42,-100.4 143.83,-95.59"/>
<polygon fill="midnightblue" stroke="midnightblue" points="88.29,-108.24 79.68,-114.41 90.26,-114.95 88.29,-108.24"/>
</g>
<!-- Node7 -->
<g id="node7" class="node">
<title>Node7</title>
<g id="a_node7"><a xlink:href="class_qual_extension.html" target="_top" xlink:title="@sbmlpackage{qual}">
<polygon fill="white" stroke="black" points="134,-38.5 134,-57.5 221,-57.5 221,-38.5 134,-38.5"/>
<text text-anchor="middle" x="177.5" y="-45.5" font-family="Helvetica,sans-Serif" font-size="10.00">QualExtension</text>
</a>
</g>
</g>
<!-- Node1&#45;&gt;Node7 -->
<g id="edge6" class="edge">
<title>Node1&#45;&gt;Node7</title>
<path fill="none" stroke="midnightblue" d="M66.78,-108.05C82.66,-95.75 105.89,-78.89 128,-67 134.53,-63.49 141.85,-60.28 148.79,-57.53"/>
<polygon fill="midnightblue" stroke="midnightblue" points="64.46,-105.42 58.76,-114.35 68.78,-110.92 64.46,-105.42"/>
</g>
<!-- Node8 -->
<g id="node8" class="node">
<title>Node8</title>
<g id="a_node8"><a xlink:href="class_render_extension.html" target="_top" xlink:title="@sbmlpackage{render}">
<polygon fill="white" stroke="black" points="128,-0.5 128,-19.5 227,-19.5 227,-0.5 128,-0.5"/>
<text text-anchor="middle" x="177.5" y="-7.5" font-family="Helvetica,sans-Serif" font-size="10.00">RenderExtension</text>
</a>
</g>
</g>
<!-- Node1&#45;&gt;Node8 -->
<g id="edge7" class="edge">
<title>Node1&#45;&gt;Node8</title>
<path fill="none" stroke="midnightblue" d="M58.56,-105.62C72.66,-84.54 98.3,-50.16 128,-29 133.23,-25.27 139.29,-22.15 145.31,-19.59"/>
<polygon fill="midnightblue" stroke="midnightblue" points="55.45,-103.99 52.93,-114.28 61.32,-107.81 55.45,-103.99"/>
</g>
</g>
</svg>
