<?xml version="1.0" encoding="UTF-8" standalone="no"?>
<!DOCTYPE svg PUBLIC "-//W3C//DTD SVG 1.1//EN"
 "http://www.w3.org/Graphics/SVG/1.1/DTD/svg11.dtd">
<!-- Generated by graphviz version 2.43.0 (0)
 -->
<!-- Title: SBMLDocumentPlugin Pages: 1 -->
<svg width="466pt" height="294pt"
 viewBox="0.00 0.00 466.00 294.00" xmlns="http://www.w3.org/2000/svg" xmlns:xlink="http://www.w3.org/1999/xlink">
<g id="graph0" class="graph" transform="scale(1 1) rotate(0) translate(4 290)">
<title>SBMLDocumentPlugin</title>
<polygon fill="white" stroke="transparent" points="-4,4 -4,-290 462,-290 462,4 -4,4"/>
<!-- Node1 -->
<g id="node1" class="node">
<title>Node1</title>
<g id="a_node1"><a xlink:title="@sbmlpackage{core}">
<polygon fill="#bfbfbf" stroke="black" points="113,-133.5 113,-152.5 237,-152.5 237,-133.5 113,-133.5"/>
<text text-anchor="middle" x="175" y="-140.5" font-family="Helvetica,sans-Serif" font-size="10.00">SBMLDocumentPlugin</text>
</a>
</g>
</g>
<!-- Node3 -->
<g id="node3" class="node">
<title>Node3</title>
<g id="a_node3"><a xlink:href="class_comp_s_b_m_l_document_plugin.html" target="_top" xlink:title="@sbmlpackage{comp}">
<polygon fill="white" stroke="black" points="289.5,-266.5 289.5,-285.5 441.5,-285.5 441.5,-266.5 289.5,-266.5"/>
<text text-anchor="middle" x="365.5" y="-273.5" font-family="Helvetica,sans-Serif" font-size="10.00">CompSBMLDocumentPlugin</text>
</a>
</g>
</g>
<!-- Node1&#45;&gt;Node3 -->
<g id="edge2" class="edge">
<title>Node1&#45;&gt;Node3</title>
<path fill="none" stroke="midnightblue" d="M186.16,-161.25C201.47,-186.93 232.96,-233.26 273,-257 279.56,-260.89 286.79,-263.99 294.23,-266.46"/>
<polygon fill="midnightblue" stroke="midnightblue" points="189.14,-159.41 181.1,-152.5 183.08,-162.91 189.14,-159.41"/>
</g>
<!-- Node4 -->
<g id="node4" class="node">
<title>Node4</title>
<g id="a_node4"><a xlink:href="class_fbc_s_b_m_l_document_plugin.html" target="_top" xlink:title="@sbmlpackage{fbc}">
<polygon fill="white" stroke="black" points="295,-228.5 295,-247.5 436,-247.5 436,-228.5 295,-228.5"/>
<text text-anchor="middle" x="365.5" y="-235.5" font-family="Helvetica,sans-Serif" font-size="10.00">FbcSBMLDocumentPlugin</text>
</a>
</g>
</g>
<!-- Node1&#45;&gt;Node4 -->
<g id="edge3" class="edge">
<title>Node1&#45;&gt;Node4</title>
<path fill="none" stroke="midnightblue" d="M192.57,-159.98C210.68,-177.51 241.37,-204.31 273,-219 281.39,-222.89 290.58,-226 299.79,-228.47"/>
<polygon fill="midnightblue" stroke="midnightblue" points="194.74,-157.2 185.17,-152.65 189.82,-162.18 194.74,-157.2"/>
</g>
<!-- Node5 -->
<g id="node5" class="node">
<title>Node5</title>
<g id="a_node5"><a xlink:href="class_groups_s_b_m_l_document_plugin.html" target="_top" xlink:title="@sbmlpackage{groups}">
<polygon fill="white" stroke="black" points="286.5,-190.5 286.5,-209.5 444.5,-209.5 444.5,-190.5 286.5,-190.5"/>
<text text-anchor="middle" x="365.5" y="-197.5" font-family="Helvetica,sans-Serif" font-size="10.00">GroupsSBMLDocumentPlugin</text>
</a>
</g>
</g>
<!-- Node1&#45;&gt;Node5 -->
<g id="edge4" class="edge">
<title>Node1&#45;&gt;Node5</title>
<path fill="none" stroke="midnightblue" d="M206.49,-156.48C225.37,-164.43 250.27,-174.24 273,-181 285.13,-184.61 298.36,-187.78 310.9,-190.45"/>
<polygon fill="midnightblue" stroke="midnightblue" points="207.78,-153.22 197.21,-152.51 205.03,-159.66 207.78,-153.22"/>
</g>
<!-- Node6 -->
<g id="node6" class="node">
<title>Node6</title>
<g id="a_node6"><a xlink:href="class_layout_s_b_m_l_document_plugin.html" target="_top" xlink:title="@sbmlpackage{layout}">
<polygon fill="white" stroke="black" points="287,-152.5 287,-171.5 444,-171.5 444,-152.5 287,-152.5"/>
<text text-anchor="middle" x="365.5" y="-159.5" font-family="Helvetica,sans-Serif" font-size="10.00">LayoutSBMLDocumentPlugin</text>
</a>
</g>
</g>
<!-- Node1&#45;&gt;Node6 -->
<g id="edge5" class="edge">
<title>Node1&#45;&gt;Node6</title>
<path fill="none" stroke="midnightblue" d="M247.37,-150.19C260.24,-151.49 273.71,-152.85 286.75,-154.16"/>
<polygon fill="midnightblue" stroke="midnightblue" points="247.5,-146.69 237.2,-149.17 246.8,-153.65 247.5,-146.69"/>
</g>
<!-- Node7 -->
<g id="node7" class="node">
<title>Node7</title>
<g id="a_node7"><a xlink:href="class_multi_s_b_m_l_document_plugin.html" target="_top" xlink:title="@sbmlpackage{multi}">
<polygon fill="white" stroke="black" points="291,-114.5 291,-133.5 440,-133.5 440,-114.5 291,-114.5"/>
<text text-anchor="middle" x="365.5" y="-121.5" font-family="Helvetica,sans-Serif" font-size="10.00">MultiSBMLDocumentPlugin</text>
</a>
</g>
</g>
<!-- Node1&#45;&gt;Node7 -->
<g id="edge6" class="edge">
<title>Node1&#45;&gt;Node7</title>
<path fill="none" stroke="midnightblue" d="M247.39,-135.8C261.58,-134.37 276.51,-132.87 290.78,-131.43"/>
<polygon fill="midnightblue" stroke="midnightblue" points="246.8,-132.35 237.2,-136.83 247.5,-139.31 246.8,-132.35"/>
</g>
<!-- Node8 -->
<g id="node8" class="node">
<title>Node8</title>
<g id="a_node8"><a xlink:href="class_qual_s_b_m_l_document_plugin.html" target="_top" xlink:title="@sbmlpackage{qual}">
<polygon fill="white" stroke="black" points="292.5,-76.5 292.5,-95.5 438.5,-95.5 438.5,-76.5 292.5,-76.5"/>
<text text-anchor="middle" x="365.5" y="-83.5" font-family="Helvetica,sans-Serif" font-size="10.00">QualSBMLDocumentPlugin</text>
</a>
</g>
</g>
<!-- Node1&#45;&gt;Node8 -->
<g id="edge7" class="edge">
<title>Node1&#45;&gt;Node8</title>
<path fill="none" stroke="midnightblue" d="M206.49,-129.52C225.37,-121.57 250.27,-111.76 273,-105 285.13,-101.39 298.36,-98.22 310.9,-95.55"/>
<polygon fill="midnightblue" stroke="midnightblue" points="205.03,-126.34 197.21,-133.49 207.78,-132.78 205.03,-126.34"/>
</g>
<!-- Node9 -->
<g id="node9" class="node">
<title>Node9</title>
<g id="a_node9"><a xlink:href="class_render_s_b_m_l_document_plugin.html" target="_top" xlink:title="@sbmlpackage{render}">
<polygon fill="white" stroke="black" points="286.5,-38.5 286.5,-57.5 444.5,-57.5 444.5,-38.5 286.5,-38.5"/>
<text text-anchor="middle" x="365.5" y="-45.5" font-family="Helvetica,sans-Serif" font-size="10.00">RenderSBMLDocumentPlugin</text>
</a>
</g>
</g>
<!-- Node1&#45;&gt;Node9 -->
<g id="edge8" class="edge">
<title>Node1&#45;&gt;Node9</title>
<path fill="none" stroke="midnightblue" d="M192.57,-126.02C210.68,-108.49 241.37,-81.69 273,-67 281.39,-63.11 290.58,-60 299.79,-57.53"/>
<polygon fill="midnightblue" stroke="midnightblue" points="189.82,-123.82 185.17,-133.35 194.74,-128.8 189.82,-123.82"/>
</g>
<!-- Node10 -->
<g id="node10" class="node">
<title>Node10</title>
<g id="a_node10"><a xlink:href="class_s_b_m_l_document_plugin_not_required.html" target="_top" xlink:title="@sbmlpackage{core}">
<polygon fill="white" stroke="black" points="273,-0.5 273,-19.5 458,-19.5 458,-0.5 273,-0.5"/>
<text text-anchor="middle" x="365.5" y="-7.5" font-family="Helvetica,sans-Serif" font-size="10.00">SBMLDocumentPluginNotRequired</text>
</a>
</g>
</g>
<!-- Node1&#45;&gt;Node10 -->
<g id="edge9" class="edge">
<title>Node1&#45;&gt;Node10</title>
<path fill="none" stroke="midnightblue" d="M186.16,-124.75C201.47,-99.07 232.96,-52.74 273,-29 279.56,-25.11 286.79,-22.01 294.23,-19.54"/>
<polygon fill="midnightblue" stroke="midnightblue" points="183.08,-123.09 181.1,-133.5 189.14,-126.59 183.08,-123.09"/>
</g>
<!-- Node2 -->
<g id="node2" class="node">
<title>Node2</title>
<g id="a_node2"><a xlink:href="class_s_base_plugin.html" target="_top" xlink:title="@sbmlpackage{core}">
<polygon fill="white" stroke="black" points="0,-133.5 0,-152.5 77,-152.5 77,-133.5 0,-133.5"/>
<text text-anchor="middle" x="38.5" y="-140.5" font-family="Helvetica,sans-Serif" font-size="10.00">SBasePlugin</text>
</a>
</g>
</g>
<!-- Node2&#45;&gt;Node1 -->
<g id="edge1" class="edge">
<title>Node2&#45;&gt;Node1</title>
<path fill="none" stroke="midnightblue" d="M87.46,-143C95.67,-143 104.29,-143 112.79,-143"/>
<polygon fill="midnightblue" stroke="midnightblue" points="87.32,-139.5 77.32,-143 87.32,-146.5 87.32,-139.5"/>
</g>
</g>
</svg>
