<?xml version="1.0" encoding="UTF-8" standalone="no"?>
<!DOCTYPE svg PUBLIC "-//W3C//DTD SVG 1.1//EN"
 "http://www.w3.org/Graphics/SVG/1.1/DTD/svg11.dtd">
<!-- Generated by graphviz version 2.43.0 (0)
 -->
<!-- Title: Validator Pages: 1 -->
<svg width="199pt" height="256pt"
 viewBox="0.00 0.00 199.00 256.00" xmlns="http://www.w3.org/2000/svg" xmlns:xlink="http://www.w3.org/1999/xlink">
<g id="graph0" class="graph" transform="scale(1 1) rotate(0) translate(4 252)">
<title>Validator</title>
<polygon fill="white" stroke="transparent" points="-4,4 -4,-252 195,-252 195,4 -4,4"/>
<!-- Node1 -->
<g id="node1" class="node">
<title>Node1</title>
<g id="a_node1"><a xlink:title="@sbmlpackage{core}">
<polygon fill="#bfbfbf" stroke="black" points="0,-114.5 0,-133.5 60,-133.5 60,-114.5 0,-114.5"/>
<text text-anchor="middle" x="30" y="-121.5" font-family="Helvetica,sans-Serif" font-size="10.00">Validator</text>
</a>
</g>
</g>
<!-- Node2 -->
<g id="node2" class="node">
<title>Node2</title>
<g id="a_node2"><a xlink:href="class_comp_validator.html" target="_top" xlink:title="@sbmlpackage{comp}">
<polygon fill="white" stroke="black" points="99,-228.5 99,-247.5 188,-247.5 188,-228.5 99,-228.5"/>
<text text-anchor="middle" x="143.5" y="-235.5" font-family="Helvetica,sans-Serif" font-size="10.00">CompValidator</text>
</a>
</g>
</g>
<!-- Node1&#45;&gt;Node2 -->
<g id="edge1" class="edge">
<title>Node1&#45;&gt;Node2</title>
<path fill="none" stroke="midnightblue" d="M39.75,-142.97C50.35,-164.11 70.08,-198.07 96,-219 100.61,-222.73 106.06,-225.81 111.56,-228.34"/>
<polygon fill="midnightblue" stroke="midnightblue" points="42.79,-141.21 35.28,-133.73 36.48,-144.26 42.79,-141.21"/>
</g>
<!-- Node3 -->
<g id="node3" class="node">
<title>Node3</title>
<g id="a_node3"><a xlink:href="class_fbc_validator.html" target="_top" xlink:title="@sbmlpackage{fbc}">
<polygon fill="white" stroke="black" points="105,-190.5 105,-209.5 182,-209.5 182,-190.5 105,-190.5"/>
<text text-anchor="middle" x="143.5" y="-197.5" font-family="Helvetica,sans-Serif" font-size="10.00">FbcValidator</text>
</a>
</g>
</g>
<!-- Node1&#45;&gt;Node3 -->
<g id="edge2" class="edge">
<title>Node1&#45;&gt;Node3</title>
<path fill="none" stroke="midnightblue" d="M47.21,-140.98C59.67,-153.31 77.78,-169.73 96,-181 101.79,-184.58 108.36,-187.74 114.71,-190.41"/>
<polygon fill="midnightblue" stroke="midnightblue" points="49.41,-138.23 39.9,-133.57 44.43,-143.15 49.41,-138.23"/>
</g>
<!-- Node4 -->
<g id="node4" class="node">
<title>Node4</title>
<g id="a_node4"><a xlink:href="class_groups_validator.html" target="_top" xlink:title="@sbmlpackage{groups}">
<polygon fill="white" stroke="black" points="96,-152.5 96,-171.5 191,-171.5 191,-152.5 96,-152.5"/>
<text text-anchor="middle" x="143.5" y="-159.5" font-family="Helvetica,sans-Serif" font-size="10.00">GroupsValidator</text>
</a>
</g>
</g>
<!-- Node1&#45;&gt;Node4 -->
<g id="edge3" class="edge">
<title>Node1&#45;&gt;Node4</title>
<path fill="none" stroke="midnightblue" d="M68.63,-136.83C83.59,-141.92 100.51,-147.69 114.37,-152.41"/>
<polygon fill="midnightblue" stroke="midnightblue" points="69.73,-133.5 59.14,-133.59 67.47,-140.13 69.73,-133.5"/>
</g>
<!-- Node5 -->
<g id="node5" class="node">
<title>Node5</title>
<g id="a_node5"><a xlink:href="class_layout_validator.html" target="_top" xlink:title="@sbmlpackage{layout}">
<polygon fill="white" stroke="black" points="97,-114.5 97,-133.5 190,-133.5 190,-114.5 97,-114.5"/>
<text text-anchor="middle" x="143.5" y="-121.5" font-family="Helvetica,sans-Serif" font-size="10.00">LayoutValidator</text>
</a>
</g>
</g>
<!-- Node1&#45;&gt;Node5 -->
<g id="edge4" class="edge">
<title>Node1&#45;&gt;Node5</title>
<path fill="none" stroke="midnightblue" d="M70.15,-124C78.76,-124 87.95,-124 96.79,-124"/>
<polygon fill="midnightblue" stroke="midnightblue" points="70,-120.5 60,-124 70,-127.5 70,-120.5"/>
</g>
<!-- Node6 -->
<g id="node6" class="node">
<title>Node6</title>
<g id="a_node6"><a xlink:href="class_multi_validator.html" target="_top" xlink:title="@sbmlpackage{multi}">
<polygon fill="white" stroke="black" points="101,-76.5 101,-95.5 186,-95.5 186,-76.5 101,-76.5"/>
<text text-anchor="middle" x="143.5" y="-83.5" font-family="Helvetica,sans-Serif" font-size="10.00">MultiValidator</text>
</a>
</g>
</g>
<!-- Node1&#45;&gt;Node6 -->
<g id="edge5" class="edge">
<title>Node1&#45;&gt;Node6</title>
<path fill="none" stroke="midnightblue" d="M68.63,-111.17C83.59,-106.08 100.51,-100.31 114.37,-95.59"/>
<polygon fill="midnightblue" stroke="midnightblue" points="67.47,-107.87 59.14,-114.41 69.73,-114.5 67.47,-107.87"/>
</g>
<!-- Node7 -->
<g id="node7" class="node">
<title>Node7</title>
<g id="a_node7"><a xlink:href="class_qual_validator.html" target="_top" xlink:title="@sbmlpackage{qual}">
<polygon fill="white" stroke="black" points="102,-38.5 102,-57.5 185,-57.5 185,-38.5 102,-38.5"/>
<text text-anchor="middle" x="143.5" y="-45.5" font-family="Helvetica,sans-Serif" font-size="10.00">QualValidator</text>
</a>
</g>
</g>
<!-- Node1&#45;&gt;Node7 -->
<g id="edge6" class="edge">
<title>Node1&#45;&gt;Node7</title>
<path fill="none" stroke="midnightblue" d="M47.21,-107.02C59.67,-94.69 77.78,-78.27 96,-67 101.79,-63.42 108.36,-60.26 114.71,-57.59"/>
<polygon fill="midnightblue" stroke="midnightblue" points="44.43,-104.85 39.9,-114.43 49.41,-109.77 44.43,-104.85"/>
</g>
<!-- Node8 -->
<g id="node8" class="node">
<title>Node8</title>
<g id="a_node8"><a xlink:href="class_render_validator.html" target="_top" xlink:title="@sbmlpackage{render}">
<polygon fill="white" stroke="black" points="96,-0.5 96,-19.5 191,-19.5 191,-0.5 96,-0.5"/>
<text text-anchor="middle" x="143.5" y="-7.5" font-family="Helvetica,sans-Serif" font-size="10.00">RenderValidator</text>
</a>
</g>
</g>
<!-- Node1&#45;&gt;Node8 -->
<g id="edge7" class="edge">
<title>Node1&#45;&gt;Node8</title>
<path fill="none" stroke="midnightblue" d="M39.75,-105.03C50.35,-83.89 70.08,-49.93 96,-29 100.61,-25.27 106.06,-22.19 111.56,-19.66"/>
<polygon fill="midnightblue" stroke="midnightblue" points="36.48,-103.74 35.28,-114.27 42.79,-106.79 36.48,-103.74"/>
</g>
</g>
</svg>
