<?xml version="1.0" encoding="UTF-8" standalone="no"?>
<!DOCTYPE svg PUBLIC "-//W3C//DTD SVG 1.1//EN"
 "http://www.w3.org/Graphics/SVG/1.1/DTD/svg11.dtd">
<!-- Generated by graphviz version 2.43.0 (0)
 -->
<!-- Title: MultiSpeciesReferencePlugin Pages: 1 -->
<svg width="170pt" height="151pt"
 viewBox="0.00 0.00 170.00 151.00" xmlns="http://www.w3.org/2000/svg" xmlns:xlink="http://www.w3.org/1999/xlink">
<g id="graph0" class="graph" transform="scale(1 1) rotate(0) translate(4 147)">
<title>MultiSpeciesReferencePlugin</title>
<polygon fill="white" stroke="transparent" points="-4,4 -4,-147 166,-147 166,4 -4,4"/>
<!-- Node1 -->
<g id="node1" class="node">
<title>Node1</title>
<g id="a_node1"><a xlink:title=" ">
<polygon fill="#bfbfbf" stroke="black" points="2,-0.5 2,-19.5 160,-19.5 160,-0.5 2,-0.5"/>
<text text-anchor="middle" x="81" y="-7.5" font-family="Helvetica,sans-Serif" font-size="10.00">MultiSpeciesReferencePlugin</text>
</a>
</g>
</g>
<!-- Node2 -->
<g id="node2" class="node">
<title>Node2</title>
<g id="a_node2"><a xlink:href="class_multi_simple_species_reference_plugin.html" target="_top" xlink:title=" ">
<polygon fill="white" stroke="black" points="0,-56.5 0,-86.5 162,-86.5 162,-56.5 0,-56.5"/>
<text text-anchor="start" x="8" y="-74.5" font-family="Helvetica,sans-Serif" font-size="10.00">MultiSimpleSpeciesReference</text>
<text text-anchor="middle" x="81" y="-63.5" font-family="Helvetica,sans-Serif" font-size="10.00">Plugin</text>
</a>
</g>
</g>
<!-- Node2&#45;&gt;Node1 -->
<g id="edge1" class="edge">
<title>Node2&#45;&gt;Node1</title>
<path fill="none" stroke="midnightblue" d="M81,-46.29C81,-36.86 81,-26.65 81,-19.66"/>
<polygon fill="midnightblue" stroke="midnightblue" points="77.5,-46.4 81,-56.4 84.5,-46.4 77.5,-46.4"/>
</g>
<!-- Node3 -->
<g id="node3" class="node">
<title>Node3</title>
<g id="a_node3"><a xlink:href="class_s_base_plugin.html" target="_top" xlink:title=" ">
<polygon fill="white" stroke="black" points="42.5,-123.5 42.5,-142.5 119.5,-142.5 119.5,-123.5 42.5,-123.5"/>
<text text-anchor="middle" x="81" y="-130.5" font-family="Helvetica,sans-Serif" font-size="10.00">SBasePlugin</text>
</a>
</g>
</g>
<!-- Node3&#45;&gt;Node2 -->
<g id="edge2" class="edge">
<title>Node3&#45;&gt;Node2</title>
<path fill="none" stroke="midnightblue" d="M81,-113.23C81,-104.59 81,-94.5 81,-86.52"/>
<polygon fill="midnightblue" stroke="midnightblue" points="77.5,-113.48 81,-123.48 84.5,-113.48 77.5,-113.48"/>
</g>
</g>
</svg>
