<?xml version="1.0" encoding="UTF-8" standalone="no"?>
<!DOCTYPE svg PUBLIC "-//W3C//DTD SVG 1.1//EN"
 "http://www.w3.org/Graphics/SVG/1.1/DTD/svg11.dtd">
<!-- Generated by graphviz version 2.43.0 (0)
 -->
<!-- Title: Validator Pages: 1 -->
<svg width="199pt" height="294pt"
 viewBox="0.00 0.00 199.00 294.00" xmlns="http://www.w3.org/2000/svg" xmlns:xlink="http://www.w3.org/1999/xlink">
<g id="graph0" class="graph" transform="scale(1 1) rotate(0) translate(4 290)">
<title>Validator</title>
<polygon fill="white" stroke="transparent" points="-4,4 -4,-290 195,-290 195,4 -4,4"/>
<!-- Node1 -->
<g id="node1" class="node">
<title>Node1</title>
<g id="a_node1"><a xlink:title=" ">
<polygon fill="#bfbfbf" stroke="black" points="0,-133.5 0,-152.5 60,-152.5 60,-133.5 0,-133.5"/>
<text text-anchor="middle" x="30" y="-140.5" font-family="Helvetica,sans-Serif" font-size="10.00">Validator</text>
</a>
</g>
</g>
<!-- Node2 -->
<g id="node2" class="node">
<title>Node2</title>
<g id="a_node2"><a xlink:href="class_comp_validator.html" target="_top" xlink:title=" ">
<polygon fill="white" stroke="black" points="99,-266.5 99,-285.5 188,-285.5 188,-266.5 99,-266.5"/>
<text text-anchor="middle" x="143.5" y="-273.5" font-family="Helvetica,sans-Serif" font-size="10.00">CompValidator</text>
</a>
</g>
</g>
<!-- Node1&#45;&gt;Node2 -->
<g id="edge1" class="edge">
<title>Node1&#45;&gt;Node2</title>
<path fill="none" stroke="midnightblue" d="M37.4,-162.12C46.66,-187.09 66.03,-230.7 96,-257 100.33,-260.8 105.51,-263.9 110.83,-266.41"/>
<polygon fill="midnightblue" stroke="midnightblue" points="40.69,-160.92 34.05,-152.66 34.09,-163.26 40.69,-160.92"/>
</g>
<!-- Node3 -->
<g id="node3" class="node">
<title>Node3</title>
<g id="a_node3"><a xlink:href="class_fbc_validator.html" target="_top" xlink:title=" ">
<polygon fill="white" stroke="black" points="105,-228.5 105,-247.5 182,-247.5 182,-228.5 105,-228.5"/>
<text text-anchor="middle" x="143.5" y="-235.5" font-family="Helvetica,sans-Serif" font-size="10.00">FbcValidator</text>
</a>
</g>
</g>
<!-- Node1&#45;&gt;Node3 -->
<g id="edge2" class="edge">
<title>Node1&#45;&gt;Node3</title>
<path fill="none" stroke="midnightblue" d="M42.74,-161.17C54.48,-178.09 73.91,-203.04 96,-219 101.09,-222.68 106.99,-225.79 112.85,-228.36"/>
<polygon fill="midnightblue" stroke="midnightblue" points="45.53,-159.04 37.05,-152.7 39.73,-162.95 45.53,-159.04"/>
</g>
<!-- Node4 -->
<g id="node4" class="node">
<title>Node4</title>
<g id="a_node4"><a xlink:href="class_groups_validator.html" target="_top" xlink:title=" ">
<polygon fill="white" stroke="black" points="96,-190.5 96,-209.5 191,-209.5 191,-190.5 96,-190.5"/>
<text text-anchor="middle" x="143.5" y="-197.5" font-family="Helvetica,sans-Serif" font-size="10.00">GroupsValidator</text>
</a>
</g>
</g>
<!-- Node1&#45;&gt;Node4 -->
<g id="edge3" class="edge">
<title>Node1&#45;&gt;Node4</title>
<path fill="none" stroke="midnightblue" d="M54.53,-157.84C66.69,-165.23 81.9,-174.04 96,-181 102.73,-184.32 110.18,-187.55 117.11,-190.38"/>
<polygon fill="midnightblue" stroke="midnightblue" points="56.25,-154.79 45.9,-152.53 52.58,-160.75 56.25,-154.79"/>
</g>
<!-- Node5 -->
<g id="node5" class="node">
<title>Node5</title>
<g id="a_node5"><a xlink:href="class_layout_validator.html" target="_top" xlink:title=" ">
<polygon fill="white" stroke="black" points="97,-152.5 97,-171.5 190,-171.5 190,-152.5 97,-152.5"/>
<text text-anchor="middle" x="143.5" y="-159.5" font-family="Helvetica,sans-Serif" font-size="10.00">LayoutValidator</text>
</a>
</g>
</g>
<!-- Node1&#45;&gt;Node5 -->
<g id="edge4" class="edge">
<title>Node1&#45;&gt;Node5</title>
<path fill="none" stroke="midnightblue" d="M69.87,-149.62C78.56,-151.1 87.85,-152.69 96.79,-154.21"/>
<polygon fill="midnightblue" stroke="midnightblue" points="70.45,-146.17 60,-147.94 69.27,-153.07 70.45,-146.17"/>
</g>
<!-- Node6 -->
<g id="node6" class="node">
<title>Node6</title>
<g id="a_node6"><a xlink:href="class_multi_validator.html" target="_top" xlink:title=" ">
<polygon fill="white" stroke="black" points="101,-114.5 101,-133.5 186,-133.5 186,-114.5 101,-114.5"/>
<text text-anchor="middle" x="143.5" y="-121.5" font-family="Helvetica,sans-Serif" font-size="10.00">MultiValidator</text>
</a>
</g>
</g>
<!-- Node1&#45;&gt;Node6 -->
<g id="edge5" class="edge">
<title>Node1&#45;&gt;Node6</title>
<path fill="none" stroke="midnightblue" d="M69.99,-136.36C79.89,-134.67 90.58,-132.85 100.62,-131.14"/>
<polygon fill="midnightblue" stroke="midnightblue" points="69.27,-132.93 60,-138.06 70.45,-139.83 69.27,-132.93"/>
</g>
<!-- Node7 -->
<g id="node7" class="node">
<title>Node7</title>
<g id="a_node7"><a xlink:href="class_qual_validator.html" target="_top" xlink:title=" ">
<polygon fill="white" stroke="black" points="102,-76.5 102,-95.5 185,-95.5 185,-76.5 102,-76.5"/>
<text text-anchor="middle" x="143.5" y="-83.5" font-family="Helvetica,sans-Serif" font-size="10.00">QualValidator</text>
</a>
</g>
</g>
<!-- Node1&#45;&gt;Node7 -->
<g id="edge6" class="edge">
<title>Node1&#45;&gt;Node7</title>
<path fill="none" stroke="midnightblue" d="M54.53,-128.16C66.69,-120.77 81.9,-111.96 96,-105 102.73,-101.68 110.18,-98.45 117.11,-95.62"/>
<polygon fill="midnightblue" stroke="midnightblue" points="52.58,-125.25 45.9,-133.47 56.25,-131.21 52.58,-125.25"/>
</g>
<!-- Node8 -->
<g id="node8" class="node">
<title>Node8</title>
<g id="a_node8"><a xlink:href="class_render_validator.html" target="_top" xlink:title=" ">
<polygon fill="white" stroke="black" points="96,-38.5 96,-57.5 191,-57.5 191,-38.5 96,-38.5"/>
<text text-anchor="middle" x="143.5" y="-45.5" font-family="Helvetica,sans-Serif" font-size="10.00">RenderValidator</text>
</a>
</g>
</g>
<!-- Node1&#45;&gt;Node8 -->
<g id="edge7" class="edge">
<title>Node1&#45;&gt;Node8</title>
<path fill="none" stroke="midnightblue" d="M42.74,-124.83C54.48,-107.91 73.91,-82.96 96,-67 101.09,-63.32 106.99,-60.21 112.85,-57.64"/>
<polygon fill="midnightblue" stroke="midnightblue" points="39.73,-123.05 37.05,-133.3 45.53,-126.96 39.73,-123.05"/>
</g>
<!-- Node9 -->
<g id="node9" class="node">
<title>Node9</title>
<g id="a_node9"><a xlink:href="class_spatial_validator.html" target="_top" xlink:title=" ">
<polygon fill="white" stroke="black" points="96.5,-0.5 96.5,-19.5 190.5,-19.5 190.5,-0.5 96.5,-0.5"/>
<text text-anchor="middle" x="143.5" y="-7.5" font-family="Helvetica,sans-Serif" font-size="10.00">SpatialValidator</text>
</a>
</g>
</g>
<!-- Node1&#45;&gt;Node9 -->
<g id="edge8" class="edge">
<title>Node1&#45;&gt;Node9</title>
<path fill="none" stroke="midnightblue" d="M37.4,-123.88C46.66,-98.91 66.03,-55.3 96,-29 100.33,-25.2 105.51,-22.1 110.83,-19.59"/>
<polygon fill="midnightblue" stroke="midnightblue" points="34.09,-122.74 34.05,-133.34 40.69,-125.08 34.09,-122.74"/>
</g>
</g>
</svg>
