<?xml version="1.0" encoding="UTF-8" standalone="no"?>
<!DOCTYPE svg PUBLIC "-//W3C//DTD SVG 1.1//EN"
 "http://www.w3.org/Graphics/SVG/1.1/DTD/svg11.dtd">
<!-- Generated by graphviz version 2.43.0 (0)
 -->
<!-- Title: SBMLVisitor Pages: 1 -->
<svg width="249pt" height="294pt"
 viewBox="0.00 0.00 249.00 294.00" xmlns="http://www.w3.org/2000/svg" xmlns:xlink="http://www.w3.org/1999/xlink">
<g id="graph0" class="graph" transform="scale(1 1) rotate(0) translate(4 290)">
<title>SBMLVisitor</title>
<polygon fill="white" stroke="transparent" points="-4,4 -4,-290 245,-290 245,4 -4,4"/>
<!-- Node1 -->
<g id="node1" class="node">
<title>Node1</title>
<g id="a_node1"><a xlink:title="@sbmlpackage{core}">
<polygon fill="#bfbfbf" stroke="black" points="0,-133.5 0,-152.5 74,-152.5 74,-133.5 0,-133.5"/>
<text text-anchor="middle" x="37" y="-140.5" font-family="Helvetica,sans-Serif" font-size="10.00">SBMLVisitor</text>
</a>
</g>
</g>
<!-- Node2 -->
<g id="node2" class="node">
<title>Node2</title>
<g id="a_node2"><a xlink:title=" ">
<polygon fill="white" stroke="#bfbfbf" points="113,-266.5 113,-285.5 238,-285.5 238,-266.5 113,-266.5"/>
<text text-anchor="middle" x="175.5" y="-273.5" font-family="Helvetica,sans-Serif" font-size="10.00">CompValidatingVisitor</text>
</a>
</g>
</g>
<!-- Node1&#45;&gt;Node2 -->
<g id="edge1" class="edge">
<title>Node1&#45;&gt;Node2</title>
<path fill="none" stroke="midnightblue" d="M45.09,-162.22C55.45,-187.66 77.15,-232.18 110,-257 115.12,-260.87 121.02,-263.95 127.13,-266.41"/>
<polygon fill="midnightblue" stroke="midnightblue" points="48.23,-160.65 41.34,-152.6 41.71,-163.19 48.23,-160.65"/>
</g>
<!-- Node3 -->
<g id="node3" class="node">
<title>Node3</title>
<g id="a_node3"><a xlink:title=" ">
<polygon fill="white" stroke="#bfbfbf" points="118.5,-228.5 118.5,-247.5 232.5,-247.5 232.5,-228.5 118.5,-228.5"/>
<text text-anchor="middle" x="175.5" y="-235.5" font-family="Helvetica,sans-Serif" font-size="10.00">FbcValidatingVisitor</text>
</a>
</g>
</g>
<!-- Node1&#45;&gt;Node3 -->
<g id="edge2" class="edge">
<title>Node1&#45;&gt;Node3</title>
<path fill="none" stroke="midnightblue" d="M50.5,-160.89C63.48,-178.17 85.32,-203.89 110,-219 116.27,-222.84 123.36,-225.94 130.49,-228.43"/>
<polygon fill="midnightblue" stroke="midnightblue" points="53.27,-158.74 44.56,-152.72 47.61,-162.86 53.27,-158.74"/>
</g>
<!-- Node4 -->
<g id="node4" class="node">
<title>Node4</title>
<g id="a_node4"><a xlink:title=" ">
<polygon fill="white" stroke="#bfbfbf" points="110,-190.5 110,-209.5 241,-209.5 241,-190.5 110,-190.5"/>
<text text-anchor="middle" x="175.5" y="-197.5" font-family="Helvetica,sans-Serif" font-size="10.00">GroupsValidatingVisitor</text>
</a>
</g>
</g>
<!-- Node1&#45;&gt;Node4 -->
<g id="edge3" class="edge">
<title>Node1&#45;&gt;Node4</title>
<path fill="none" stroke="midnightblue" d="M62.63,-157.57C76.28,-165.23 93.72,-174.38 110,-181 118.76,-184.56 128.43,-187.77 137.57,-190.49"/>
<polygon fill="midnightblue" stroke="midnightblue" points="64.28,-154.48 53.86,-152.55 60.8,-160.55 64.28,-154.48"/>
</g>
<!-- Node5 -->
<g id="node5" class="node">
<title>Node5</title>
<g id="a_node5"><a xlink:title=" ">
<polygon fill="white" stroke="#bfbfbf" points="110.5,-152.5 110.5,-171.5 240.5,-171.5 240.5,-152.5 110.5,-152.5"/>
<text text-anchor="middle" x="175.5" y="-159.5" font-family="Helvetica,sans-Serif" font-size="10.00">LayoutValidatingVisitor</text>
</a>
</g>
</g>
<!-- Node1&#45;&gt;Node5 -->
<g id="edge4" class="edge">
<title>Node1&#45;&gt;Node5</title>
<path fill="none" stroke="midnightblue" d="M84.21,-149.43C92.63,-150.6 101.56,-151.85 110.39,-153.08"/>
<polygon fill="midnightblue" stroke="midnightblue" points="84.61,-145.95 74.22,-148.04 83.64,-152.89 84.61,-145.95"/>
</g>
<!-- Node6 -->
<g id="node6" class="node">
<title>Node6</title>
<g id="a_node6"><a xlink:title=" ">
<polygon fill="white" stroke="#bfbfbf" points="114.5,-114.5 114.5,-133.5 236.5,-133.5 236.5,-114.5 114.5,-114.5"/>
<text text-anchor="middle" x="175.5" y="-121.5" font-family="Helvetica,sans-Serif" font-size="10.00">MultiValidatingVisitor</text>
</a>
</g>
</g>
<!-- Node1&#45;&gt;Node6 -->
<g id="edge5" class="edge">
<title>Node1&#45;&gt;Node6</title>
<path fill="none" stroke="midnightblue" d="M84.38,-136.54C94.01,-135.2 104.3,-133.77 114.35,-132.37"/>
<polygon fill="midnightblue" stroke="midnightblue" points="83.64,-133.11 74.22,-137.96 84.61,-140.05 83.64,-133.11"/>
</g>
<!-- Node7 -->
<g id="node7" class="node">
<title>Node7</title>
<g id="a_node7"><a xlink:title=" ">
<polygon fill="white" stroke="#bfbfbf" points="116,-76.5 116,-95.5 235,-95.5 235,-76.5 116,-76.5"/>
<text text-anchor="middle" x="175.5" y="-83.5" font-family="Helvetica,sans-Serif" font-size="10.00">QualValidatingVisitor</text>
</a>
</g>
</g>
<!-- Node1&#45;&gt;Node7 -->
<g id="edge6" class="edge">
<title>Node1&#45;&gt;Node7</title>
<path fill="none" stroke="midnightblue" d="M62.63,-128.43C76.28,-120.77 93.72,-111.62 110,-105 118.76,-101.44 128.43,-98.23 137.57,-95.51"/>
<polygon fill="midnightblue" stroke="midnightblue" points="60.8,-125.45 53.86,-133.45 64.28,-131.52 60.8,-125.45"/>
</g>
<!-- Node8 -->
<g id="node8" class="node">
<title>Node8</title>
<g id="a_node8"><a xlink:title=" ">
<polygon fill="white" stroke="#bfbfbf" points="110,-38.5 110,-57.5 241,-57.5 241,-38.5 110,-38.5"/>
<text text-anchor="middle" x="175.5" y="-45.5" font-family="Helvetica,sans-Serif" font-size="10.00">RenderValidatingVisitor</text>
</a>
</g>
</g>
<!-- Node1&#45;&gt;Node8 -->
<g id="edge7" class="edge">
<title>Node1&#45;&gt;Node8</title>
<path fill="none" stroke="midnightblue" d="M50.5,-125.11C63.48,-107.83 85.32,-82.11 110,-67 116.27,-63.16 123.36,-60.06 130.49,-57.57"/>
<polygon fill="midnightblue" stroke="midnightblue" points="47.61,-123.14 44.56,-133.28 53.27,-127.26 47.61,-123.14"/>
</g>
<!-- Node9 -->
<g id="node9" class="node">
<title>Node9</title>
<g id="a_node9"><a xlink:title=" ">
<polygon fill="white" stroke="#bfbfbf" points="127,-0.5 127,-19.5 224,-19.5 224,-0.5 127,-0.5"/>
<text text-anchor="middle" x="175.5" y="-7.5" font-family="Helvetica,sans-Serif" font-size="10.00">ValidatingVisitor</text>
</a>
</g>
</g>
<!-- Node1&#45;&gt;Node9 -->
<g id="edge8" class="edge">
<title>Node1&#45;&gt;Node9</title>
<path fill="none" stroke="midnightblue" d="M45.09,-123.78C55.45,-98.34 77.15,-53.82 110,-29 115.12,-25.13 121.02,-22.05 127.13,-19.59"/>
<polygon fill="midnightblue" stroke="midnightblue" points="41.71,-122.81 41.34,-133.4 48.23,-125.35 41.71,-122.81"/>
</g>
</g>
</svg>
