<?xml version="1.0" encoding="UTF-8" standalone="no"?>
<!DOCTYPE svg PUBLIC "-//W3C//DTD SVG 1.1//EN"
 "http://www.w3.org/Graphics/SVG/1.1/DTD/svg11.dtd">
<!-- Generated by graphviz version 2.43.0 (0)
 -->
<!-- Title: multi Pages: 1 -->
<!--zoomable 735 -->
<svg id="main" version="1.1" xmlns="http://www.w3.org/2000/svg" xmlns:xlink="http://www.w3.org/1999/xlink" xml:space="preserve" onload="init(evt)">
<style type="text/css"><![CDATA[
.edge:hover path { stroke: red; }
.edge:hover polygon { stroke: red; fill: red; }
]]></style>
<script type="text/javascript"><![CDATA[
var edges = document.getElementsByTagName('g');
if (edges && edges.length) {
  for (var i=0;i<edges.length;i++) {
    if (edges[i].id.substr(0,4)=='edge') {
      edges[i].setAttribute('class','edge');
    }
  }
}
]]></script>
        <defs>
                <circle id="rim" cx="0" cy="0" r="7"/>
                <circle id="rim2" cx="0" cy="0" r="3.5"/>
                <g id="zoomPlus">
                        <use xlink:href="#rim" fill="#404040">
                                <set attributeName="fill" to="#808080" begin="zoomplus.mouseover" end="zoomplus.mouseout"/>
                        </use>
                        <path d="M-4,0h8M0,-4v8" fill="none" stroke="white" stroke-width="1.5" pointer-events="none"/>
                </g>
                <g id="zoomMin">
                        <use xlink:href="#rim" fill="#404040">
                                <set attributeName="fill" to="#808080" begin="zoomminus.mouseover" end="zoomminus.mouseout"/>
                        </use>
                        <path d="M-4,0h8" fill="none" stroke="white" stroke-width="1.5" pointer-events="none"/>
                </g>
                <g id="dirArrow">
                        <path fill="none" stroke="white" stroke-width="1.5" d="M0,-3.0v7 M-2.5,-0.5L0,-3.0L2.5,-0.5"/>
                </g>
               <g id="resetDef">
                       <use xlink:href="#rim2" fill="#404040">
                               <set attributeName="fill" to="#808080" begin="reset.mouseover" end="reset.mouseout"/>
                       </use>
               </g>
        </defs>

<script type="text/javascript">
var viewWidth = 362;
var viewHeight = 735;
var sectionId = 'dynsection-0';
</script>
<script xlink:href="svgpan.js"/>
<svg id="graph" class="graph">
<g id="viewport">
<title>multi</title>
<polygon fill="white" stroke="transparent" points="-4,4 -4,-731 358,-731 358,4 -4,4"/>
<g id="clust1" class="cluster">
<title>clusterdir_d29d847ea07fb74c2c88b7147de27d35</title>
<g id="a_clust1"><a xlink:href="dir_d29d847ea07fb74c2c88b7147de27d35.html" target="_top" xlink:title="packages">
<polygon fill="#ddddee" stroke="black" points="48,-416 48,-719 212,-719 212,-416 48,-416"/>
<text text-anchor="middle" x="130" y="-707" font-family="Helvetica,sans-Serif" font-size="10.00">packages</text>
</a>
</g>
</g>
<g id="clust2" class="cluster">
<title>clusterdir_ff67eb8bdf90fd4ca788748765fa4706</title>
<g id="a_clust2"><a xlink:href="dir_ff67eb8bdf90fd4ca788748765fa4706.html" target="_top">
<polygon fill="#eeeeff" stroke="black" points="56,-424 56,-692 204,-692 204,-424 56,-424"/>
</a>
</g>
</g>
<!-- dir_ff67eb8bdf90fd4ca788748765fa4706 -->
<g id="node1" class="node">
<title>dir_ff67eb8bdf90fd4ca788748765fa4706</title>
<text text-anchor="middle" x="169" y="-663.5" font-family="Helvetica,sans-Serif" font-size="10.00">multi</text>
</g>
<!-- dir_d25dc3b0d43d3f59e2bc754eb6f23a17 -->
<g id="node2" class="node">
<title>dir_d25dc3b0d43d3f59e2bc754eb6f23a17</title>
<g id="a_node2"><a xlink:href="dir_d25dc3b0d43d3f59e2bc754eb6f23a17.html" target="_top" xlink:title="common">
<polygon fill="white" stroke="black" points="123.5,-684 64.5,-684 64.5,-648 123.5,-648 123.5,-684"/>
<text text-anchor="middle" x="94" y="-663.5" font-family="Helvetica,sans-Serif" font-size="10.00">common</text>
</a>
</g>
</g>
<!-- dir_15c5042fe4b0a3c710a68e7faf2f3890 -->
<g id="node3" class="node">
<title>dir_15c5042fe4b0a3c710a68e7faf2f3890</title>
<g id="a_node3"><a xlink:href="dir_15c5042fe4b0a3c710a68e7faf2f3890.html" target="_top" xlink:title="extension">
<polygon fill="white" stroke="black" points="195.5,-612 130.5,-612 130.5,-576 195.5,-576 195.5,-612"/>
<text text-anchor="middle" x="163" y="-591.5" font-family="Helvetica,sans-Serif" font-size="10.00">extension</text>
</a>
</g>
</g>
<!-- dir_d25dc3b0d43d3f59e2bc754eb6f23a17&#45;&gt;dir_15c5042fe4b0a3c710a68e7faf2f3890 -->
<g id="edge3" class="edge">
<title>dir_d25dc3b0d43d3f59e2bc754eb6f23a17&#45;&gt;dir_15c5042fe4b0a3c710a68e7faf2f3890</title>
<path fill="none" stroke="black" d="M105.14,-647.7C112.77,-639.05 123.04,-628.45 132.87,-619.03"/>
<polygon fill="black" stroke="black" points="135.35,-621.5 140.24,-612.1 130.56,-616.4 135.35,-621.5"/>
<g id="a_edge3&#45;headlabel"><a xlink:href="dir_000050_000048.html" target="_top" xlink:title="9">
<text text-anchor="middle" x="134.67" y="-623.53" font-family="Helvetica,sans-Serif" font-size="10.00">9</text>
</a>
</g>
</g>
<!-- dir_211df2c2e27ea537834950dcda81a69a -->
<g id="node4" class="node">
<title>dir_211df2c2e27ea537834950dcda81a69a</title>
<g id="a_node4"><a xlink:href="dir_211df2c2e27ea537834950dcda81a69a.html" target="_top" xlink:title="sbml">
<polygon fill="white" stroke="black" points="118,-540 64,-540 64,-504 118,-504 118,-540"/>
<text text-anchor="middle" x="91" y="-519.5" font-family="Helvetica,sans-Serif" font-size="10.00">sbml</text>
</a>
</g>
</g>
<!-- dir_d25dc3b0d43d3f59e2bc754eb6f23a17&#45;&gt;dir_211df2c2e27ea537834950dcda81a69a -->
<g id="edge4" class="edge">
<title>dir_d25dc3b0d43d3f59e2bc754eb6f23a17&#45;&gt;dir_211df2c2e27ea537834950dcda81a69a</title>
<path fill="none" stroke="black" d="M89.05,-647.87C85.98,-623.67 84.75,-579.21 86.12,-550.39"/>
<polygon fill="black" stroke="black" points="89.63,-550.39 86.77,-540.19 82.64,-549.95 89.63,-550.39"/>
<g id="a_edge4&#45;headlabel"><a xlink:href="dir_000050_000010.html" target="_top" xlink:title="14">
<text text-anchor="middle" x="92.23" y="-551.66" font-family="Helvetica,sans-Serif" font-size="10.00">14</text>
</a>
</g>
</g>
<!-- dir_15c5042fe4b0a3c710a68e7faf2f3890&#45;&gt;dir_d25dc3b0d43d3f59e2bc754eb6f23a17 -->
<g id="edge14" class="edge">
<title>dir_15c5042fe4b0a3c710a68e7faf2f3890&#45;&gt;dir_d25dc3b0d43d3f59e2bc754eb6f23a17</title>
<path fill="none" stroke="black" d="M152.04,-612.1C144.44,-620.72 134.19,-631.32 124.36,-640.76"/>
<polygon fill="black" stroke="black" points="121.86,-638.3 116.97,-647.7 126.66,-643.4 121.86,-638.3"/>
<g id="a_edge14&#45;headlabel"><a xlink:href="dir_000048_000050.html" target="_top" xlink:title="4">
<text text-anchor="middle" x="122.54" y="-631.27" font-family="Helvetica,sans-Serif" font-size="10.00">4</text>
</a>
</g>
</g>
<!-- dir_15c5042fe4b0a3c710a68e7faf2f3890&#45;&gt;dir_211df2c2e27ea537834950dcda81a69a -->
<g id="edge9" class="edge">
<title>dir_15c5042fe4b0a3c710a68e7faf2f3890&#45;&gt;dir_211df2c2e27ea537834950dcda81a69a</title>
<path fill="none" stroke="black" d="M139.29,-575.7C129.69,-567.22 118.85,-556.86 109.81,-547.58"/>
<polygon fill="black" stroke="black" points="112.12,-544.94 102.7,-540.1 107.05,-549.76 112.12,-544.94"/>
<g id="a_edge9&#45;headlabel"><a xlink:href="dir_000048_000010.html" target="_top" xlink:title="9">
<text text-anchor="middle" x="116.66" y="-543.09" font-family="Helvetica,sans-Serif" font-size="10.00">9</text>
</a>
</g>
</g>
<!-- dir_e49853d8c79be0c159e687553c4d5267 -->
<g id="node5" class="node">
<title>dir_e49853d8c79be0c159e687553c4d5267</title>
<g id="a_node5"><a xlink:href="dir_e49853d8c79be0c159e687553c4d5267.html" target="_top" xlink:title="validator">
<polygon fill="white" stroke="black" points="164,-468 104,-468 104,-432 164,-432 164,-468"/>
<text text-anchor="middle" x="134" y="-447.5" font-family="Helvetica,sans-Serif" font-size="10.00">validator</text>
</a>
</g>
</g>
<!-- dir_15c5042fe4b0a3c710a68e7faf2f3890&#45;&gt;dir_e49853d8c79be0c159e687553c4d5267 -->
<g id="edge15" class="edge">
<title>dir_15c5042fe4b0a3c710a68e7faf2f3890&#45;&gt;dir_e49853d8c79be0c159e687553c4d5267</title>
<path fill="none" stroke="black" d="M159.5,-575.87C154.54,-551.56 145.4,-506.82 139.52,-478.01"/>
<polygon fill="black" stroke="black" points="142.94,-477.29 137.51,-468.19 136.08,-478.69 142.94,-477.29"/>
<g id="a_edge15&#45;headlabel"><a xlink:href="dir_000048_000049.html" target="_top" xlink:title="10">
<text text-anchor="middle" x="146.44" y="-477.74" font-family="Helvetica,sans-Serif" font-size="10.00">10</text>
</a>
</g>
</g>
<!-- dir_3f96c34ad80e9031c68706862fabf1a4 -->
<g id="node6" class="node">
<title>dir_3f96c34ad80e9031c68706862fabf1a4</title>
<g id="a_node6"><a xlink:href="dir_3f96c34ad80e9031c68706862fabf1a4.html" target="_top" xlink:title="extension">
<polygon fill="none" stroke="black" points="169.5,-252 104.5,-252 104.5,-216 169.5,-216 169.5,-252"/>
<text text-anchor="middle" x="137" y="-231.5" font-family="Helvetica,sans-Serif" font-size="10.00">extension</text>
</a>
</g>
</g>
<!-- dir_15c5042fe4b0a3c710a68e7faf2f3890&#45;&gt;dir_3f96c34ad80e9031c68706862fabf1a4 -->
<g id="edge10" class="edge">
<title>dir_15c5042fe4b0a3c710a68e7faf2f3890&#45;&gt;dir_3f96c34ad80e9031c68706862fabf1a4</title>
<path fill="none" stroke="black" d="M165.85,-575.94C171.85,-537.29 184.32,-440.18 173,-360 168.09,-325.21 155.85,-286.54 147.01,-261.56"/>
<polygon fill="black" stroke="black" points="150.26,-260.27 143.57,-252.06 143.68,-262.65 150.26,-260.27"/>
<g id="a_edge10&#45;headlabel"><a xlink:href="dir_000048_000007.html" target="_top" xlink:title="14">
<text text-anchor="middle" x="154.16" y="-260.19" font-family="Helvetica,sans-Serif" font-size="10.00">14</text>
</a>
</g>
</g>
<!-- dir_48ff6375d03f1aa509a6e0480f966544 -->
<g id="node7" class="node">
<title>dir_48ff6375d03f1aa509a6e0480f966544</title>
<g id="a_node7"><a xlink:href="dir_48ff6375d03f1aa509a6e0480f966544.html" target="_top" xlink:title="math">
<polygon fill="none" stroke="black" points="267,-324 213,-324 213,-288 267,-288 267,-324"/>
<text text-anchor="middle" x="240" y="-303.5" font-family="Helvetica,sans-Serif" font-size="10.00">math</text>
</a>
</g>
</g>
<!-- dir_15c5042fe4b0a3c710a68e7faf2f3890&#45;&gt;dir_48ff6375d03f1aa509a6e0480f966544 -->
<g id="edge11" class="edge">
<title>dir_15c5042fe4b0a3c710a68e7faf2f3890&#45;&gt;dir_48ff6375d03f1aa509a6e0480f966544</title>
<path fill="none" stroke="black" d="M180.8,-575.99C189.83,-566.31 200.1,-553.46 206,-540 236.48,-470.48 240.63,-379.22 240.61,-334.34"/>
<polygon fill="black" stroke="black" points="244.11,-334.2 240.54,-324.22 237.11,-334.25 244.11,-334.2"/>
<g id="a_edge11&#45;headlabel"><a xlink:href="dir_000048_000008.html" target="_top" xlink:title="1">
<text text-anchor="middle" x="246.98" y="-335.27" font-family="Helvetica,sans-Serif" font-size="10.00">1</text>
</a>
</g>
</g>
<!-- dir_5cbb9a0bf548abf0d2e32772c73d2ad6 -->
<g id="node8" class="node">
<title>dir_5cbb9a0bf548abf0d2e32772c73d2ad6</title>
<g id="a_node8"><a xlink:href="dir_5cbb9a0bf548abf0d2e32772c73d2ad6.html" target="_top" xlink:title="xml">
<polygon fill="none" stroke="black" points="272,-180 218,-180 218,-144 272,-144 272,-180"/>
<text text-anchor="middle" x="245" y="-159.5" font-family="Helvetica,sans-Serif" font-size="10.00">xml</text>
</a>
</g>
</g>
<!-- dir_15c5042fe4b0a3c710a68e7faf2f3890&#45;&gt;dir_5cbb9a0bf548abf0d2e32772c73d2ad6 -->
<g id="edge12" class="edge">
<title>dir_15c5042fe4b0a3c710a68e7faf2f3890&#45;&gt;dir_5cbb9a0bf548abf0d2e32772c73d2ad6</title>
<path fill="none" stroke="black" d="M195.82,-579.96C240.78,-559.69 316,-516.05 316,-451 316,-451 316,-451 316,-305 316,-260.48 287.74,-215.61 266.87,-188.56"/>
<polygon fill="black" stroke="black" points="269.37,-186.07 260.41,-180.42 263.89,-190.43 269.37,-186.07"/>
<g id="a_edge12&#45;headlabel"><a xlink:href="dir_000048_000035.html" target="_top" xlink:title="2">
<text text-anchor="middle" x="273.83" y="-184.62" font-family="Helvetica,sans-Serif" font-size="10.00">2</text>
</a>
</g>
</g>
<!-- dir_c541d4b187fc5f863b4735b323978e0f -->
<g id="node9" class="node">
<title>dir_c541d4b187fc5f863b4735b323978e0f</title>
<g id="a_node9"><a xlink:href="dir_c541d4b187fc5f863b4735b323978e0f.html" target="_top" xlink:title="util">
<polygon fill="none" stroke="black" points="206,-108 152,-108 152,-72 206,-72 206,-108"/>
<text text-anchor="middle" x="179" y="-87.5" font-family="Helvetica,sans-Serif" font-size="10.00">util</text>
</a>
</g>
</g>
<!-- dir_15c5042fe4b0a3c710a68e7faf2f3890&#45;&gt;dir_c541d4b187fc5f863b4735b323978e0f -->
<g id="edge13" class="edge">
<title>dir_15c5042fe4b0a3c710a68e7faf2f3890&#45;&gt;dir_c541d4b187fc5f863b4735b323978e0f</title>
<path fill="none" stroke="black" d="M130.41,-581.54C82.84,-562.5 0,-519.49 0,-451 0,-451 0,-451 0,-305 0,-223.88 29.43,-202.14 86,-144 101.96,-127.59 124.1,-114.7 142.77,-105.75"/>
<polygon fill="black" stroke="black" points="144.27,-108.91 151.89,-101.54 141.34,-102.55 144.27,-108.91"/>
<g id="a_edge13&#45;headlabel"><a xlink:href="dir_000048_000013.html" target="_top" xlink:title="4">
<text text-anchor="middle" x="142.19" y="-110.49" font-family="Helvetica,sans-Serif" font-size="10.00">4</text>
</a>
</g>
</g>
<!-- dir_fd1e11fb0964f7346e999e146b0dfd59 -->
<g id="node10" class="node">
<title>dir_fd1e11fb0964f7346e999e146b0dfd59</title>
<g id="a_node10"><a xlink:href="dir_fd1e11fb0964f7346e999e146b0dfd59.html" target="_top" xlink:title="common">
<polygon fill="none" stroke="black" points="208.5,-36 149.5,-36 149.5,0 208.5,0 208.5,-36"/>
<text text-anchor="middle" x="179" y="-15.5" font-family="Helvetica,sans-Serif" font-size="10.00">common</text>
</a>
</g>
</g>
<!-- dir_15c5042fe4b0a3c710a68e7faf2f3890&#45;&gt;dir_fd1e11fb0964f7346e999e146b0dfd59 -->
<g id="edge16" class="edge">
<title>dir_15c5042fe4b0a3c710a68e7faf2f3890&#45;&gt;dir_fd1e11fb0964f7346e999e146b0dfd59</title>
<path fill="none" stroke="black" d="M195.83,-584.83C250.44,-569.06 354,-528.89 354,-451 354,-451 354,-451 354,-161 354,-91.53 269.82,-50.12 218.22,-31.26"/>
<polygon fill="black" stroke="black" points="219.28,-27.92 208.69,-27.89 216.95,-34.52 219.28,-27.92"/>
<g id="a_edge16&#45;headlabel"><a xlink:href="dir_000048_000017.html" target="_top" xlink:title="10">
<text text-anchor="middle" x="223.62" y="-23.94" font-family="Helvetica,sans-Serif" font-size="10.00">10</text>
</a>
</g>
</g>
<!-- dir_211df2c2e27ea537834950dcda81a69a&#45;&gt;dir_d25dc3b0d43d3f59e2bc754eb6f23a17 -->
<g id="edge19" class="edge">
<title>dir_211df2c2e27ea537834950dcda81a69a&#45;&gt;dir_d25dc3b0d43d3f59e2bc754eb6f23a17</title>
<path fill="none" stroke="black" d="M95.95,-540.19C99.02,-564.42 100.25,-608.89 98.88,-637.68"/>
<polygon fill="black" stroke="black" points="95.37,-637.67 98.22,-647.87 102.36,-638.12 95.37,-637.67"/>
<g id="a_edge19&#45;headlabel"><a xlink:href="dir_000010_000050.html" target="_top" xlink:title="14">
<text text-anchor="middle" x="92.77" y="-631.4" font-family="Helvetica,sans-Serif" font-size="10.00">14</text>
</a>
</g>
</g>
<!-- dir_211df2c2e27ea537834950dcda81a69a&#45;&gt;dir_15c5042fe4b0a3c710a68e7faf2f3890 -->
<g id="edge17" class="edge">
<title>dir_211df2c2e27ea537834950dcda81a69a&#45;&gt;dir_15c5042fe4b0a3c710a68e7faf2f3890</title>
<path fill="none" stroke="black" d="M114.49,-540.1C124.06,-548.55 134.91,-558.9 143.98,-568.2"/>
<polygon fill="black" stroke="black" points="141.69,-570.87 151.12,-575.7 146.76,-566.04 141.69,-570.87"/>
<g id="a_edge17&#45;headlabel"><a xlink:href="dir_000010_000048.html" target="_top" xlink:title="14">
<text text-anchor="middle" x="137.15" y="-567.72" font-family="Helvetica,sans-Serif" font-size="10.00">14</text>
</a>
</g>
</g>
<!-- dir_211df2c2e27ea537834950dcda81a69a&#45;&gt;dir_e49853d8c79be0c159e687553c4d5267 -->
<g id="edge20" class="edge">
<title>dir_211df2c2e27ea537834950dcda81a69a&#45;&gt;dir_e49853d8c79be0c159e687553c4d5267</title>
<path fill="none" stroke="black" d="M101.63,-503.7C106.63,-495.56 112.69,-485.69 118.21,-476.7"/>
<polygon fill="black" stroke="black" points="121.24,-478.46 123.49,-468.1 115.28,-474.79 121.24,-478.46"/>
<g id="a_edge20&#45;headlabel"><a xlink:href="dir_000010_000049.html" target="_top" xlink:title="14">
<text text-anchor="middle" x="121.78" y="-480.51" font-family="Helvetica,sans-Serif" font-size="10.00">14</text>
</a>
</g>
</g>
<!-- dir_211df2c2e27ea537834950dcda81a69a&#45;&gt;dir_c541d4b187fc5f863b4735b323978e0f -->
<g id="edge18" class="edge">
<title>dir_211df2c2e27ea537834950dcda81a69a&#45;&gt;dir_c541d4b187fc5f863b4735b323978e0f</title>
<path fill="none" stroke="black" d="M87.96,-503.57C83.58,-476.86 76,-424.12 76,-379 76,-379 76,-379 76,-233 76,-183.66 117.26,-139.89 147.55,-114.41"/>
<polygon fill="black" stroke="black" points="149.84,-117.06 155.37,-108.03 145.41,-111.64 149.84,-117.06"/>
<g id="a_edge18&#45;headlabel"><a xlink:href="dir_000010_000013.html" target="_top" xlink:title="8">
<text text-anchor="middle" x="148.85" y="-119.03" font-family="Helvetica,sans-Serif" font-size="10.00">8</text>
</a>
</g>
</g>
<!-- dir_211df2c2e27ea537834950dcda81a69a&#45;&gt;dir_fd1e11fb0964f7346e999e146b0dfd59 -->
<g id="edge21" class="edge">
<title>dir_211df2c2e27ea537834950dcda81a69a&#45;&gt;dir_fd1e11fb0964f7346e999e146b0dfd59</title>
<path fill="none" stroke="black" d="M80.02,-503.84C64.49,-477.89 38,-426.63 38,-379 38,-379 38,-379 38,-305 38,-193.5 63.76,-160.95 131,-72 138.22,-62.45 146.82,-52.57 154.72,-43.96"/>
<polygon fill="black" stroke="black" points="157.46,-46.16 161.73,-36.47 152.35,-41.38 157.46,-46.16"/>
<g id="a_edge21&#45;headlabel"><a xlink:href="dir_000010_000017.html" target="_top" xlink:title="28">
<text text-anchor="middle" x="157.08" y="-48.23" font-family="Helvetica,sans-Serif" font-size="10.00">28</text>
</a>
</g>
</g>
<!-- dir_e49853d8c79be0c159e687553c4d5267&#45;&gt;dir_d25dc3b0d43d3f59e2bc754eb6f23a17 -->
<g id="edge28" class="edge">
<title>dir_e49853d8c79be0c159e687553c4d5267&#45;&gt;dir_d25dc3b0d43d3f59e2bc754eb6f23a17</title>
<path fill="none" stroke="black" d="M133.56,-468.17C132.89,-486.18 131.21,-515.25 127,-540 121.15,-574.42 110.22,-613.17 102.55,-638.27"/>
<polygon fill="black" stroke="black" points="99.21,-637.24 99.59,-647.82 105.89,-639.31 99.21,-637.24"/>
<g id="a_edge28&#45;headlabel"><a xlink:href="dir_000049_000050.html" target="_top" xlink:title="1">
<text text-anchor="middle" x="97.56" y="-630.46" font-family="Helvetica,sans-Serif" font-size="10.00">1</text>
</a>
</g>
</g>
<!-- dir_a0a785b8d726fb513b94381e63693443 -->
<g id="node11" class="node">
<title>dir_a0a785b8d726fb513b94381e63693443</title>
<g id="a_node11"><a xlink:href="dir_a0a785b8d726fb513b94381e63693443.html" target="_top" xlink:title="validator">
<polygon fill="none" stroke="black" points="164,-396 104,-396 104,-360 164,-360 164,-396"/>
<text text-anchor="middle" x="134" y="-375.5" font-family="Helvetica,sans-Serif" font-size="10.00">validator</text>
</a>
</g>
</g>
<!-- dir_e49853d8c79be0c159e687553c4d5267&#45;&gt;dir_a0a785b8d726fb513b94381e63693443 -->
<g id="edge27" class="edge">
<title>dir_e49853d8c79be0c159e687553c4d5267&#45;&gt;dir_a0a785b8d726fb513b94381e63693443</title>
<path fill="none" stroke="black" d="M134,-431.7C134,-423.98 134,-414.71 134,-406.11"/>
<polygon fill="black" stroke="black" points="137.5,-406.1 134,-396.1 130.5,-406.1 137.5,-406.1"/>
<g id="a_edge27&#45;headlabel"><a xlink:href="dir_000049_000025.html" target="_top" xlink:title="2">
<text text-anchor="middle" x="140.34" y="-407.2" font-family="Helvetica,sans-Serif" font-size="10.00">2</text>
</a>
</g>
</g>
<!-- dir_3f96c34ad80e9031c68706862fabf1a4&#45;&gt;dir_5cbb9a0bf548abf0d2e32772c73d2ad6 -->
<g id="edge24" class="edge">
<title>dir_3f96c34ad80e9031c68706862fabf1a4&#45;&gt;dir_5cbb9a0bf548abf0d2e32772c73d2ad6</title>
<path fill="none" stroke="black" d="M163.42,-215.88C177.41,-206.81 194.78,-195.55 209.89,-185.76"/>
<polygon fill="black" stroke="black" points="211.99,-188.57 218.48,-180.19 208.18,-182.69 211.99,-188.57"/>
<g id="a_edge24&#45;headlabel"><a xlink:href="dir_000007_000035.html" target="_top" xlink:title="2">
<text text-anchor="middle" x="210.52" y="-190.4" font-family="Helvetica,sans-Serif" font-size="10.00">2</text>
</a>
</g>
</g>
<!-- dir_3f96c34ad80e9031c68706862fabf1a4&#45;&gt;dir_c541d4b187fc5f863b4735b323978e0f -->
<g id="edge25" class="edge">
<title>dir_3f96c34ad80e9031c68706862fabf1a4&#45;&gt;dir_c541d4b187fc5f863b4735b323978e0f</title>
<path fill="none" stroke="black" d="M142.07,-215.87C149.26,-191.56 162.49,-146.82 171.01,-118.01"/>
<polygon fill="black" stroke="black" points="174.44,-118.77 173.92,-108.19 167.72,-116.79 174.44,-118.77"/>
<g id="a_edge25&#45;headlabel"><a xlink:href="dir_000007_000013.html" target="_top" xlink:title="4">
<text text-anchor="middle" x="176.14" y="-120.52" font-family="Helvetica,sans-Serif" font-size="10.00">4</text>
</a>
</g>
</g>
<!-- dir_3f96c34ad80e9031c68706862fabf1a4&#45;&gt;dir_fd1e11fb0964f7346e999e146b0dfd59 -->
<g id="edge26" class="edge">
<title>dir_3f96c34ad80e9031c68706862fabf1a4&#45;&gt;dir_fd1e11fb0964f7346e999e146b0dfd59</title>
<path fill="none" stroke="black" d="M134.58,-215.53C131.06,-185.37 126.61,-121.97 143,-72 146.19,-62.27 151.74,-52.69 157.54,-44.4"/>
<polygon fill="black" stroke="black" points="160.42,-46.4 163.59,-36.29 154.8,-42.22 160.42,-46.4"/>
<g id="a_edge26&#45;headlabel"><a xlink:href="dir_000007_000017.html" target="_top" xlink:title="9">
<text text-anchor="middle" x="160.55" y="-48.48" font-family="Helvetica,sans-Serif" font-size="10.00">9</text>
</a>
</g>
</g>
<!-- dir_48ff6375d03f1aa509a6e0480f966544&#45;&gt;dir_3f96c34ad80e9031c68706862fabf1a4 -->
<g id="edge5" class="edge">
<title>dir_48ff6375d03f1aa509a6e0480f966544&#45;&gt;dir_3f96c34ad80e9031c68706862fabf1a4</title>
<path fill="none" stroke="black" d="M214.8,-287.88C201.59,-278.89 185.21,-267.76 170.89,-258.03"/>
<polygon fill="black" stroke="black" points="172.53,-254.92 162.29,-252.19 168.6,-260.71 172.53,-254.92"/>
<g id="a_edge5&#45;headlabel"><a xlink:href="dir_000008_000007.html" target="_top" xlink:title="6">
<text text-anchor="middle" x="177.1" y="-252.09" font-family="Helvetica,sans-Serif" font-size="10.00">6</text>
</a>
</g>
</g>
<!-- dir_48ff6375d03f1aa509a6e0480f966544&#45;&gt;dir_5cbb9a0bf548abf0d2e32772c73d2ad6 -->
<g id="edge6" class="edge">
<title>dir_48ff6375d03f1aa509a6e0480f966544&#45;&gt;dir_5cbb9a0bf548abf0d2e32772c73d2ad6</title>
<path fill="none" stroke="black" d="M240.6,-287.87C241.46,-263.67 243.02,-219.21 244.04,-190.39"/>
<polygon fill="black" stroke="black" points="247.54,-190.31 244.39,-180.19 240.54,-190.06 247.54,-190.31"/>
<g id="a_edge6&#45;headlabel"><a xlink:href="dir_000008_000035.html" target="_top" xlink:title="6">
<text text-anchor="middle" x="250.25" y="-191.5" font-family="Helvetica,sans-Serif" font-size="10.00">6</text>
</a>
</g>
</g>
<!-- dir_48ff6375d03f1aa509a6e0480f966544&#45;&gt;dir_c541d4b187fc5f863b4735b323978e0f -->
<g id="edge7" class="edge">
<title>dir_48ff6375d03f1aa509a6e0480f966544&#45;&gt;dir_c541d4b187fc5f863b4735b323978e0f</title>
<path fill="none" stroke="black" d="M235.11,-287.85C224.54,-250.75 199.47,-162.81 186.73,-118.1"/>
<polygon fill="black" stroke="black" points="190.02,-116.89 183.91,-108.23 183.29,-118.81 190.02,-116.89"/>
<g id="a_edge7&#45;headlabel"><a xlink:href="dir_000008_000013.html" target="_top" xlink:title="11">
<text text-anchor="middle" x="193.74" y="-117.07" font-family="Helvetica,sans-Serif" font-size="10.00">11</text>
</a>
</g>
</g>
<!-- dir_48ff6375d03f1aa509a6e0480f966544&#45;&gt;dir_fd1e11fb0964f7346e999e146b0dfd59 -->
<g id="edge8" class="edge">
<title>dir_48ff6375d03f1aa509a6e0480f966544&#45;&gt;dir_fd1e11fb0964f7346e999e146b0dfd59</title>
<path fill="none" stroke="black" d="M250.31,-287.99C266.83,-258.52 295.95,-196.12 281,-144 269.1,-102.52 234.58,-65.69 208.98,-42.94"/>
<polygon fill="black" stroke="black" points="211.21,-40.24 201.36,-36.35 206.63,-45.54 211.21,-40.24"/>
<g id="a_edge8&#45;headlabel"><a xlink:href="dir_000008_000017.html" target="_top" xlink:title="21">
<text text-anchor="middle" x="215.78" y="-37.95" font-family="Helvetica,sans-Serif" font-size="10.00">21</text>
</a>
</g>
</g>
<!-- dir_5cbb9a0bf548abf0d2e32772c73d2ad6&#45;&gt;dir_c541d4b187fc5f863b4735b323978e0f -->
<g id="edge22" class="edge">
<title>dir_5cbb9a0bf548abf0d2e32772c73d2ad6&#45;&gt;dir_c541d4b187fc5f863b4735b323978e0f</title>
<path fill="none" stroke="black" d="M228.69,-143.7C220.69,-135.22 210.93,-124.86 202.18,-115.58"/>
<polygon fill="black" stroke="black" points="204.53,-112.98 195.13,-108.1 199.44,-117.78 204.53,-112.98"/>
<g id="a_edge22&#45;headlabel"><a xlink:href="dir_000035_000013.html" target="_top" xlink:title="5">
<text text-anchor="middle" x="209.07" y="-111.15" font-family="Helvetica,sans-Serif" font-size="10.00">5</text>
</a>
</g>
</g>
<!-- dir_5cbb9a0bf548abf0d2e32772c73d2ad6&#45;&gt;dir_fd1e11fb0964f7346e999e146b0dfd59 -->
<g id="edge23" class="edge">
<title>dir_5cbb9a0bf548abf0d2e32772c73d2ad6&#45;&gt;dir_fd1e11fb0964f7346e999e146b0dfd59</title>
<path fill="none" stroke="black" d="M240.68,-143.72C235.75,-125.38 226.82,-95.8 215,-72 210.37,-62.68 204.32,-53.1 198.51,-44.69"/>
<polygon fill="black" stroke="black" points="201.26,-42.52 192.6,-36.41 195.56,-46.58 201.26,-42.52"/>
<g id="a_edge23&#45;headlabel"><a xlink:href="dir_000035_000017.html" target="_top" xlink:title="16">
<text text-anchor="middle" x="205.66" y="-41.3" font-family="Helvetica,sans-Serif" font-size="10.00">16</text>
</a>
</g>
</g>
<!-- dir_c541d4b187fc5f863b4735b323978e0f&#45;&gt;dir_fd1e11fb0964f7346e999e146b0dfd59 -->
<g id="edge2" class="edge">
<title>dir_c541d4b187fc5f863b4735b323978e0f&#45;&gt;dir_fd1e11fb0964f7346e999e146b0dfd59</title>
<path fill="none" stroke="black" d="M173.08,-71.7C172.29,-63.98 172.06,-54.71 172.4,-46.11"/>
<polygon fill="black" stroke="black" points="175.9,-46.32 173.1,-36.1 168.92,-45.84 175.9,-46.32"/>
<g id="a_edge2&#45;headlabel"><a xlink:href="dir_000013_000017.html" target="_top" xlink:title="6">
<text text-anchor="middle" x="178.48" y="-47.61" font-family="Helvetica,sans-Serif" font-size="10.00">6</text>
</a>
</g>
</g>
<!-- dir_fd1e11fb0964f7346e999e146b0dfd59&#45;&gt;dir_c541d4b187fc5f863b4735b323978e0f -->
<g id="edge1" class="edge">
<title>dir_fd1e11fb0964f7346e999e146b0dfd59&#45;&gt;dir_c541d4b187fc5f863b4735b323978e0f</title>
<path fill="none" stroke="black" d="M184.9,-36.1C185.7,-43.79 185.94,-53.05 185.6,-61.67"/>
<polygon fill="black" stroke="black" points="182.11,-61.48 184.92,-71.7 189.09,-61.96 182.11,-61.48"/>
<g id="a_edge1&#45;headlabel"><a xlink:href="dir_000017_000013.html" target="_top" xlink:title="2">
<text text-anchor="middle" x="179.52" y="-55.2" font-family="Helvetica,sans-Serif" font-size="10.00">2</text>
</a>
</g>
</g>
<!-- dir_a0a785b8d726fb513b94381e63693443&#45;&gt;dir_3f96c34ad80e9031c68706862fabf1a4 -->
<g id="edge29" class="edge">
<title>dir_a0a785b8d726fb513b94381e63693443&#45;&gt;dir_3f96c34ad80e9031c68706862fabf1a4</title>
<path fill="none" stroke="black" d="M134.36,-359.87C134.87,-335.67 135.81,-291.21 136.42,-262.39"/>
<polygon fill="black" stroke="black" points="139.92,-262.26 136.64,-252.19 132.93,-262.11 139.92,-262.26"/>
<g id="a_edge29&#45;headlabel"><a xlink:href="dir_000025_000007.html" target="_top" xlink:title="1">
<text text-anchor="middle" x="142.69" y="-263.41" font-family="Helvetica,sans-Serif" font-size="10.00">1</text>
</a>
</g>
</g>
<!-- dir_a0a785b8d726fb513b94381e63693443&#45;&gt;dir_48ff6375d03f1aa509a6e0480f966544 -->
<g id="edge30" class="edge">
<title>dir_a0a785b8d726fb513b94381e63693443&#45;&gt;dir_48ff6375d03f1aa509a6e0480f966544</title>
<path fill="none" stroke="black" d="M159.93,-359.88C173.66,-350.81 190.71,-339.55 205.54,-329.76"/>
<polygon fill="black" stroke="black" points="207.55,-332.62 213.97,-324.19 203.7,-326.78 207.55,-332.62"/>
<g id="a_edge30&#45;headlabel"><a xlink:href="dir_000025_000008.html" target="_top" xlink:title="1">
<text text-anchor="middle" x="206.12" y="-334.47" font-family="Helvetica,sans-Serif" font-size="10.00">1</text>
</a>
</g>
</g>
</g>
</svg>
        <g id="navigator" transform="translate(0 0)" fill="#404254">
                <rect fill="#f2f5e9" fill-opacity="0.5" stroke="#606060" stroke-width=".5" x="0" y="0" width="60" height="60"/>
                <use id="zoomplus" xlink:href="#zoomPlus" x="17" y="9" onmousedown="handleZoom(evt,'in')"/>
                <use id="zoomminus" xlink:href="#zoomMin" x="42" y="9" onmousedown="handleZoom(evt,'out')"/>
                <use id="reset" xlink:href="#resetDef" x="30" y="36" onmousedown="handleReset()"/>
                <g id="arrowUp" xlink:href="#dirArrow" transform="translate(30 24)" onmousedown="handlePan(0,-1)">
                  <use xlink:href="#rim" fill="#404040">
                        <set attributeName="fill" to="#808080" begin="arrowUp.mouseover" end="arrowUp.mouseout"/>
                  </use>
                  <path fill="none" stroke="white" stroke-width="1.5" d="M0,-3.0v7 M-2.5,-0.5L0,-3.0L2.5,-0.5"/>
                </g>
                <g id="arrowRight" xlink:href="#dirArrow" transform="rotate(90) translate(36 -43)" onmousedown="handlePan(1,0)">
                  <use xlink:href="#rim" fill="#404040">
                        <set attributeName="fill" to="#808080" begin="arrowRight.mouseover" end="arrowRight.mouseout"/>
                  </use>
                  <path fill="none" stroke="white" stroke-width="1.5" d="M0,-3.0v7 M-2.5,-0.5L0,-3.0L2.5,-0.5"/>
                </g>
                <g id="arrowDown" xlink:href="#dirArrow" transform="rotate(180) translate(-30 -48)" onmousedown="handlePan(0,1)">
                  <use xlink:href="#rim" fill="#404040">
                        <set attributeName="fill" to="#808080" begin="arrowDown.mouseover" end="arrowDown.mouseout"/>
                  </use>
                  <path fill="none" stroke="white" stroke-width="1.5" d="M0,-3.0v7 M-2.5,-0.5L0,-3.0L2.5,-0.5"/>
                </g>
                <g id="arrowLeft" xlink:href="#dirArrow" transform="rotate(270) translate(-36 17)" onmousedown="handlePan(-1,0)">
                  <use xlink:href="#rim" fill="#404040">
                        <set attributeName="fill" to="#808080" begin="arrowLeft.mouseover" end="arrowLeft.mouseout"/>
                  </use>
                  <path fill="none" stroke="white" stroke-width="1.5" d="M0,-3.0v7 M-2.5,-0.5L0,-3.0L2.5,-0.5"/>
                </g>
        </g>
        <svg viewBox="0 0 15 15" width="100%" height="30px" preserveAspectRatio="xMaxYMin meet">
         <g id="arrow_out" transform="scale(0.3 0.3)">
          <a xlink:href="dir_ff67eb8bdf90fd4ca788748765fa4706_dep_org.svg" target="_base">
           <rect id="button" ry="5" rx="5" y="6" x="6" height="38" width="38"
                fill="#f2f5e9" fill-opacity="0.5" stroke="#606060" stroke-width="1.0"/>
           <path id="arrow"
             d="M 11.500037,31.436501 C 11.940474,20.09759 22.043105,11.32322 32.158766,21.979434 L 37.068811,17.246167 C 37.068811,17.246167 37.088388,32 37.088388,32 L 22.160133,31.978069 C 22.160133,31.978069 26.997745,27.140456 26.997745,27.140456 C 18.528582,18.264221 13.291696,25.230495 11.500037,31.436501 z"
             style="fill:#404040;"/>
          </a>
         </g>
        </svg>
</svg>
