<?xml version="1.0" encoding="UTF-8" standalone="no"?>
<!DOCTYPE svg PUBLIC "-//W3C//DTD SVG 1.1//EN"
 "http://www.w3.org/Graphics/SVG/1.1/DTD/svg11.dtd">
<!-- Generated by graphviz version 2.43.0 (0)
 -->
<!-- Title: validator Pages: 1 -->
<svg width="100pt" height="223pt"
 viewBox="0.00 0.00 100.00 223.00" xmlns="http://www.w3.org/2000/svg" xmlns:xlink="http://www.w3.org/1999/xlink">
<g id="graph0" class="graph" transform="scale(1 1) rotate(0) translate(4 219)">
<title>validator</title>
<polygon fill="white" stroke="transparent" points="-4,4 -4,-219 96,-219 96,4 -4,4"/>
<g id="clust1" class="cluster">
<title>clusterdir_4a31e270508d04d0af8285a857164a4c</title>
<g id="a_clust1"><a xlink:href="dir_4a31e270508d04d0af8285a857164a4c.html" target="_top" xlink:title="comp">
<polygon fill="#ddddee" stroke="black" points="8,-64 8,-207 84,-207 84,-64 8,-64"/>
<text text-anchor="middle" x="46" y="-195" font-family="Helvetica,sans-Serif" font-size="10.00">comp</text>
</a>
</g>
</g>
<!-- dir_75ea03fee82884b3113f88b9ca3f5035 -->
<g id="node1" class="node">
<title>dir_75ea03fee82884b3113f88b9ca3f5035</title>
<g id="a_node1"><a xlink:href="dir_75ea03fee82884b3113f88b9ca3f5035.html" target="_top" xlink:title="common">
<polygon fill="none" stroke="black" points="75.5,-180 16.5,-180 16.5,-144 75.5,-144 75.5,-180"/>
<text text-anchor="middle" x="46" y="-159.5" font-family="Helvetica,sans-Serif" font-size="10.00">common</text>
</a>
</g>
</g>
<!-- dir_37e37a27cff779b381c25ed0134aa6e8 -->
<g id="node2" class="node">
<title>dir_37e37a27cff779b381c25ed0134aa6e8</title>
<g id="a_node2"><a xlink:href="dir_37e37a27cff779b381c25ed0134aa6e8.html" target="_top" xlink:title="validator">
<polygon fill="#eeeeff" stroke="black" points="76,-108 16,-108 16,-72 76,-72 76,-108"/>
<text text-anchor="middle" x="46" y="-87.5" font-family="Helvetica,sans-Serif" font-size="10.00">validator</text>
</a>
</g>
</g>
<!-- dir_75ea03fee82884b3113f88b9ca3f5035&#45;&gt;dir_37e37a27cff779b381c25ed0134aa6e8 -->
<g id="edge1" class="edge">
<title>dir_75ea03fee82884b3113f88b9ca3f5035&#45;&gt;dir_37e37a27cff779b381c25ed0134aa6e8</title>
<path fill="none" stroke="black" d="M40.08,-143.7C39.29,-135.98 39.06,-126.71 39.4,-118.11"/>
<polygon fill="black" stroke="black" points="42.9,-118.32 40.1,-108.1 35.92,-117.84 42.9,-118.32"/>
<g id="a_edge1&#45;headlabel"><a xlink:href="dir_000022_000020.html" target="_top" xlink:title="1">
<text text-anchor="middle" x="45.48" y="-119.61" font-family="Helvetica,sans-Serif" font-size="10.00">1</text>
</a>
</g>
</g>
<!-- dir_37e37a27cff779b381c25ed0134aa6e8&#45;&gt;dir_75ea03fee82884b3113f88b9ca3f5035 -->
<g id="edge2" class="edge">
<title>dir_37e37a27cff779b381c25ed0134aa6e8&#45;&gt;dir_75ea03fee82884b3113f88b9ca3f5035</title>
<path fill="none" stroke="black" d="M51.9,-108.1C52.7,-115.79 52.94,-125.05 52.6,-133.67"/>
<polygon fill="black" stroke="black" points="49.11,-133.48 51.92,-143.7 56.09,-133.96 49.11,-133.48"/>
<g id="a_edge2&#45;headlabel"><a xlink:href="dir_000020_000022.html" target="_top" xlink:title="1">
<text text-anchor="middle" x="46.52" y="-127.2" font-family="Helvetica,sans-Serif" font-size="10.00">1</text>
</a>
</g>
</g>
<!-- dir_a0a785b8d726fb513b94381e63693443 -->
<g id="node3" class="node">
<title>dir_a0a785b8d726fb513b94381e63693443</title>
<g id="a_node3"><a xlink:href="dir_a0a785b8d726fb513b94381e63693443.html" target="_top" xlink:title="validator">
<polygon fill="none" stroke="black" points="76,-36 16,-36 16,0 76,0 76,-36"/>
<text text-anchor="middle" x="46" y="-15.5" font-family="Helvetica,sans-Serif" font-size="10.00">validator</text>
</a>
</g>
</g>
<!-- dir_37e37a27cff779b381c25ed0134aa6e8&#45;&gt;dir_a0a785b8d726fb513b94381e63693443 -->
<g id="edge3" class="edge">
<title>dir_37e37a27cff779b381c25ed0134aa6e8&#45;&gt;dir_a0a785b8d726fb513b94381e63693443</title>
<path fill="none" stroke="black" d="M46,-71.7C46,-63.98 46,-54.71 46,-46.11"/>
<polygon fill="black" stroke="black" points="49.5,-46.1 46,-36.1 42.5,-46.1 49.5,-46.1"/>
<g id="a_edge3&#45;headlabel"><a xlink:href="dir_000020_000025.html" target="_top" xlink:title="3">
<text text-anchor="middle" x="52.34" y="-47.2" font-family="Helvetica,sans-Serif" font-size="10.00">3</text>
</a>
</g>
</g>
</g>
</svg>
