<?xml version="1.0" encoding="UTF-8" standalone="no"?>
<!DOCTYPE svg PUBLIC "-//W3C//DTD SVG 1.1//EN"
 "http://www.w3.org/Graphics/SVG/1.1/DTD/svg11.dtd">
<!-- Generated by graphviz version 2.43.0 (0)
 -->
<!-- Title: distrib Pages: 1 -->
<svg width="466pt" height="735pt"
 viewBox="0.00 0.00 466.00 735.00" xmlns="http://www.w3.org/2000/svg" xmlns:xlink="http://www.w3.org/1999/xlink">
<g id="graph0" class="graph" transform="scale(1 1) rotate(0) translate(4 731)">
<title>distrib</title>
<polygon fill="white" stroke="transparent" points="-4,4 -4,-731 462,-731 462,4 -4,4"/>
<g id="clust1" class="cluster">
<title>clusterdir_d29d847ea07fb74c2c88b7147de27d35</title>
<g id="a_clust1"><a xlink:href="dir_d29d847ea07fb74c2c88b7147de27d35.html" target="_top" xlink:title="packages">
<polygon fill="#ddddee" stroke="black" points="94,-416 94,-719 258,-719 258,-416 94,-416"/>
<text text-anchor="middle" x="176" y="-707" font-family="Helvetica,sans-Serif" font-size="10.00">packages</text>
</a>
</g>
</g>
<g id="clust2" class="cluster">
<title>clusterdir_d17c5e5a75c371b2757c74298eb5dae8</title>
<g id="a_clust2"><a xlink:href="dir_d17c5e5a75c371b2757c74298eb5dae8.html" target="_top">
<polygon fill="#eeeeff" stroke="black" points="102,-424 102,-692 250,-692 250,-424 102,-424"/>
</a>
</g>
</g>
<!-- dir_d17c5e5a75c371b2757c74298eb5dae8 -->
<g id="node1" class="node">
<title>dir_d17c5e5a75c371b2757c74298eb5dae8</title>
<text text-anchor="middle" x="215" y="-663.5" font-family="Helvetica,sans-Serif" font-size="10.00">distrib</text>
</g>
<!-- dir_8b3ab28549ab548a2833d39a4c8ef983 -->
<g id="node2" class="node">
<title>dir_8b3ab28549ab548a2833d39a4c8ef983</title>
<g id="a_node2"><a xlink:href="dir_8b3ab28549ab548a2833d39a4c8ef983.html" target="_top" xlink:title="common">
<polygon fill="white" stroke="black" points="169.5,-684 110.5,-684 110.5,-648 169.5,-648 169.5,-684"/>
<text text-anchor="middle" x="140" y="-663.5" font-family="Helvetica,sans-Serif" font-size="10.00">common</text>
</a>
</g>
</g>
<!-- dir_ab1b1ffda98de0e92cf76dc2624b069b -->
<g id="node3" class="node">
<title>dir_ab1b1ffda98de0e92cf76dc2624b069b</title>
<g id="a_node3"><a xlink:href="dir_ab1b1ffda98de0e92cf76dc2624b069b.html" target="_top" xlink:title="extension">
<polygon fill="white" stroke="black" points="215.5,-612 150.5,-612 150.5,-576 215.5,-576 215.5,-612"/>
<text text-anchor="middle" x="183" y="-591.5" font-family="Helvetica,sans-Serif" font-size="10.00">extension</text>
</a>
</g>
</g>
<!-- dir_8b3ab28549ab548a2833d39a4c8ef983&#45;&gt;dir_ab1b1ffda98de0e92cf76dc2624b069b -->
<g id="edge5" class="edge">
<title>dir_8b3ab28549ab548a2833d39a4c8ef983&#45;&gt;dir_ab1b1ffda98de0e92cf76dc2624b069b</title>
<path fill="none" stroke="black" d="M150.63,-647.7C155.63,-639.56 161.69,-629.69 167.21,-620.7"/>
<polygon fill="black" stroke="black" points="170.24,-622.46 172.49,-612.1 164.28,-618.79 170.24,-622.46"/>
<g id="a_edge5&#45;headlabel"><a xlink:href="dir_000034_000031.html" target="_top" xlink:title="3">
<text text-anchor="middle" x="170.78" y="-624.51" font-family="Helvetica,sans-Serif" font-size="10.00">3</text>
</a>
</g>
</g>
<!-- dir_f4f0951108b46b0bffdb59bcb5c11e91 -->
<g id="node4" class="node">
<title>dir_f4f0951108b46b0bffdb59bcb5c11e91</title>
<g id="a_node4"><a xlink:href="dir_f4f0951108b46b0bffdb59bcb5c11e91.html" target="_top" xlink:title="sbml">
<polygon fill="white" stroke="black" points="182,-540 128,-540 128,-504 182,-504 182,-540"/>
<text text-anchor="middle" x="155" y="-519.5" font-family="Helvetica,sans-Serif" font-size="10.00">sbml</text>
</a>
</g>
</g>
<!-- dir_8b3ab28549ab548a2833d39a4c8ef983&#45;&gt;dir_f4f0951108b46b0bffdb59bcb5c11e91 -->
<g id="edge6" class="edge">
<title>dir_8b3ab28549ab548a2833d39a4c8ef983&#45;&gt;dir_f4f0951108b46b0bffdb59bcb5c11e91</title>
<path fill="none" stroke="black" d="M132.56,-647.85C129.79,-629.87 129.72,-600.82 133,-576 134.15,-567.32 136.16,-558 138.69,-549.63"/>
<polygon fill="black" stroke="black" points="142.06,-550.6 142,-540.01 135.44,-548.32 142.06,-550.6"/>
<g id="a_edge6&#45;headlabel"><a xlink:href="dir_000034_000032.html" target="_top" xlink:title="4">
<text text-anchor="middle" x="143.57" y="-552.42" font-family="Helvetica,sans-Serif" font-size="10.00">4</text>
</a>
</g>
</g>
<!-- dir_ab1b1ffda98de0e92cf76dc2624b069b&#45;&gt;dir_f4f0951108b46b0bffdb59bcb5c11e91 -->
<g id="edge18" class="edge">
<title>dir_ab1b1ffda98de0e92cf76dc2624b069b&#45;&gt;dir_f4f0951108b46b0bffdb59bcb5c11e91</title>
<path fill="none" stroke="black" d="M170.16,-575.7C166.24,-567.9 162.26,-558.51 159.15,-549.83"/>
<polygon fill="black" stroke="black" points="162.4,-548.51 155.95,-540.1 155.75,-550.7 162.4,-548.51"/>
<g id="a_edge18&#45;headlabel"><a xlink:href="dir_000031_000032.html" target="_top" xlink:title="2">
<text text-anchor="middle" x="166.22" y="-548.54" font-family="Helvetica,sans-Serif" font-size="10.00">2</text>
</a>
</g>
</g>
<!-- dir_a5f115cb95c3e5f9e4c1a9f0f6e79c1a -->
<g id="node5" class="node">
<title>dir_a5f115cb95c3e5f9e4c1a9f0f6e79c1a</title>
<g id="a_node5"><a xlink:href="dir_a5f115cb95c3e5f9e4c1a9f0f6e79c1a.html" target="_top" xlink:title="validator">
<polygon fill="white" stroke="black" points="240,-468 180,-468 180,-432 240,-432 240,-468"/>
<text text-anchor="middle" x="210" y="-447.5" font-family="Helvetica,sans-Serif" font-size="10.00">validator</text>
</a>
</g>
</g>
<!-- dir_ab1b1ffda98de0e92cf76dc2624b069b&#45;&gt;dir_a5f115cb95c3e5f9e4c1a9f0f6e79c1a -->
<g id="edge15" class="edge">
<title>dir_ab1b1ffda98de0e92cf76dc2624b069b&#45;&gt;dir_a5f115cb95c3e5f9e4c1a9f0f6e79c1a</title>
<path fill="none" stroke="black" d="M186.26,-575.87C190.86,-551.67 199.31,-507.21 204.79,-478.39"/>
<polygon fill="black" stroke="black" points="208.3,-478.67 206.73,-468.19 201.43,-477.36 208.3,-478.67"/>
<g id="a_edge15&#45;headlabel"><a xlink:href="dir_000031_000033.html" target="_top" xlink:title="5">
<text text-anchor="middle" x="210.42" y="-480.23" font-family="Helvetica,sans-Serif" font-size="10.00">5</text>
</a>
</g>
</g>
<!-- dir_48ff6375d03f1aa509a6e0480f966544 -->
<g id="node6" class="node">
<title>dir_48ff6375d03f1aa509a6e0480f966544</title>
<g id="a_node6"><a xlink:href="dir_48ff6375d03f1aa509a6e0480f966544.html" target="_top" xlink:title="math">
<polygon fill="none" stroke="black" points="141,-324 87,-324 87,-288 141,-288 141,-324"/>
<text text-anchor="middle" x="114" y="-303.5" font-family="Helvetica,sans-Serif" font-size="10.00">math</text>
</a>
</g>
</g>
<!-- dir_ab1b1ffda98de0e92cf76dc2624b069b&#45;&gt;dir_48ff6375d03f1aa509a6e0480f966544 -->
<g id="edge13" class="edge">
<title>dir_ab1b1ffda98de0e92cf76dc2624b069b&#45;&gt;dir_48ff6375d03f1aa509a6e0480f966544</title>
<path fill="none" stroke="black" d="M150.44,-588.65C121.71,-582.91 81.45,-569.75 62,-540 18.23,-473.04 31.74,-434.06 62,-360 66.49,-349.02 74.47,-339.08 82.85,-330.86"/>
<polygon fill="black" stroke="black" points="85.24,-333.42 90.25,-324.09 80.51,-328.26 85.24,-333.42"/>
<g id="a_edge13&#45;headlabel"><a xlink:href="dir_000031_000008.html" target="_top" xlink:title="2">
<text text-anchor="middle" x="84.5" y="-335.45" font-family="Helvetica,sans-Serif" font-size="10.00">2</text>
</a>
</g>
</g>
<!-- dir_5cbb9a0bf548abf0d2e32772c73d2ad6 -->
<g id="node7" class="node">
<title>dir_5cbb9a0bf548abf0d2e32772c73d2ad6</title>
<g id="a_node7"><a xlink:href="dir_5cbb9a0bf548abf0d2e32772c73d2ad6.html" target="_top" xlink:title="xml">
<polygon fill="none" stroke="black" points="122,-180 68,-180 68,-144 122,-144 122,-180"/>
<text text-anchor="middle" x="95" y="-159.5" font-family="Helvetica,sans-Serif" font-size="10.00">xml</text>
</a>
</g>
</g>
<!-- dir_ab1b1ffda98de0e92cf76dc2624b069b&#45;&gt;dir_5cbb9a0bf548abf0d2e32772c73d2ad6 -->
<g id="edge14" class="edge">
<title>dir_ab1b1ffda98de0e92cf76dc2624b069b&#45;&gt;dir_5cbb9a0bf548abf0d2e32772c73d2ad6</title>
<path fill="none" stroke="black" d="M150.49,-590.56C117,-586.19 66.01,-574 39,-540 -45.33,-433.82 41.23,-256.06 79.13,-189.36"/>
<polygon fill="black" stroke="black" points="82.37,-190.75 84.34,-180.34 76.31,-187.25 82.37,-190.75"/>
<g id="a_edge14&#45;headlabel"><a xlink:href="dir_000031_000035.html" target="_top" xlink:title="1">
<text text-anchor="middle" x="83.02" y="-192.78" font-family="Helvetica,sans-Serif" font-size="10.00">1</text>
</a>
</g>
</g>
<!-- dir_3f96c34ad80e9031c68706862fabf1a4 -->
<g id="node8" class="node">
<title>dir_3f96c34ad80e9031c68706862fabf1a4</title>
<g id="a_node8"><a xlink:href="dir_3f96c34ad80e9031c68706862fabf1a4.html" target="_top" xlink:title="extension">
<polygon fill="none" stroke="black" points="253.5,-252 188.5,-252 188.5,-216 253.5,-216 253.5,-252"/>
<text text-anchor="middle" x="221" y="-231.5" font-family="Helvetica,sans-Serif" font-size="10.00">extension</text>
</a>
</g>
</g>
<!-- dir_ab1b1ffda98de0e92cf76dc2624b069b&#45;&gt;dir_3f96c34ad80e9031c68706862fabf1a4 -->
<g id="edge12" class="edge">
<title>dir_ab1b1ffda98de0e92cf76dc2624b069b&#45;&gt;dir_3f96c34ad80e9031c68706862fabf1a4</title>
<path fill="none" stroke="black" d="M152.23,-575.91C139.46,-567.02 126,-554.88 119,-540 112.19,-525.52 116.24,-519.76 119,-504 135.31,-410.79 183.34,-308.22 207.21,-261.19"/>
<polygon fill="black" stroke="black" points="210.33,-262.78 211.78,-252.28 204.1,-259.58 210.33,-262.78"/>
<g id="a_edge12&#45;headlabel"><a xlink:href="dir_000031_000007.html" target="_top" xlink:title="10">
<text text-anchor="middle" x="211.22" y="-264.77" font-family="Helvetica,sans-Serif" font-size="10.00">10</text>
</a>
</g>
</g>
<!-- dir_d3b86ce335ad818909ececff0fac1eca -->
<g id="node9" class="node">
<title>dir_d3b86ce335ad818909ececff0fac1eca</title>
<g id="a_node9"><a xlink:href="dir_d3b86ce335ad818909ececff0fac1eca.html" target="_top" xlink:title="conversion">
<polygon fill="none" stroke="black" points="366,-468 296,-468 296,-432 366,-432 366,-468"/>
<text text-anchor="middle" x="331" y="-447.5" font-family="Helvetica,sans-Serif" font-size="10.00">conversion</text>
</a>
</g>
</g>
<!-- dir_ab1b1ffda98de0e92cf76dc2624b069b&#45;&gt;dir_d3b86ce335ad818909ececff0fac1eca -->
<g id="edge17" class="edge">
<title>dir_ab1b1ffda98de0e92cf76dc2624b069b&#45;&gt;dir_d3b86ce335ad818909ececff0fac1eca</title>
<path fill="none" stroke="black" d="M200.85,-575.87C226.97,-550.82 275.71,-504.05 305.56,-475.41"/>
<polygon fill="black" stroke="black" points="308.29,-477.64 313.08,-468.19 303.45,-472.59 308.29,-477.64"/>
<g id="a_edge17&#45;headlabel"><a xlink:href="dir_000031_000026.html" target="_top" xlink:title="1">
<text text-anchor="middle" x="307.66" y="-479.68" font-family="Helvetica,sans-Serif" font-size="10.00">1</text>
</a>
</g>
</g>
<!-- dir_fd1e11fb0964f7346e999e146b0dfd59 -->
<g id="node10" class="node">
<title>dir_fd1e11fb0964f7346e999e146b0dfd59</title>
<g id="a_node10"><a xlink:href="dir_fd1e11fb0964f7346e999e146b0dfd59.html" target="_top" xlink:title="common">
<polygon fill="none" stroke="black" points="246.5,-108 187.5,-108 187.5,-72 246.5,-72 246.5,-108"/>
<text text-anchor="middle" x="217" y="-87.5" font-family="Helvetica,sans-Serif" font-size="10.00">common</text>
</a>
</g>
</g>
<!-- dir_ab1b1ffda98de0e92cf76dc2624b069b&#45;&gt;dir_fd1e11fb0964f7346e999e146b0dfd59 -->
<g id="edge19" class="edge">
<title>dir_ab1b1ffda98de0e92cf76dc2624b069b&#45;&gt;dir_fd1e11fb0964f7346e999e146b0dfd59</title>
<path fill="none" stroke="black" d="M215.95,-588.75C281.07,-578.31 420,-545.01 420,-451 420,-451 420,-451 420,-305 420,-222.59 388.38,-200.09 328,-144 307.6,-125.05 279.19,-111.66 256.22,-103.07"/>
<polygon fill="black" stroke="black" points="257.34,-99.76 246.75,-99.69 254.98,-106.35 257.34,-99.76"/>
<g id="a_edge19&#45;headlabel"><a xlink:href="dir_000031_000017.html" target="_top" xlink:title="3">
<text text-anchor="middle" x="261.68" y="-95.79" font-family="Helvetica,sans-Serif" font-size="10.00">3</text>
</a>
</g>
</g>
<!-- dir_c541d4b187fc5f863b4735b323978e0f -->
<g id="node11" class="node">
<title>dir_c541d4b187fc5f863b4735b323978e0f</title>
<g id="a_node11"><a xlink:href="dir_c541d4b187fc5f863b4735b323978e0f.html" target="_top" xlink:title="util">
<polygon fill="none" stroke="black" points="210,-36 156,-36 156,0 210,0 210,-36"/>
<text text-anchor="middle" x="183" y="-15.5" font-family="Helvetica,sans-Serif" font-size="10.00">util</text>
</a>
</g>
</g>
<!-- dir_ab1b1ffda98de0e92cf76dc2624b069b&#45;&gt;dir_c541d4b187fc5f863b4735b323978e0f -->
<g id="edge16" class="edge">
<title>dir_ab1b1ffda98de0e92cf76dc2624b069b&#45;&gt;dir_c541d4b187fc5f863b4735b323978e0f</title>
<path fill="none" stroke="black" d="M215.63,-591.11C288.47,-584.95 458,-559 458,-451 458,-451 458,-451 458,-161 458,-55.16 295.18,-28.12 220.11,-21.28"/>
<polygon fill="black" stroke="black" points="220.38,-17.8 210.12,-20.45 219.79,-24.77 220.38,-17.8"/>
<g id="a_edge16&#45;headlabel"><a xlink:href="dir_000031_000013.html" target="_top" xlink:title="1">
<text text-anchor="middle" x="224.2" y="-12.77" font-family="Helvetica,sans-Serif" font-size="10.00">1</text>
</a>
</g>
</g>
<!-- dir_f4f0951108b46b0bffdb59bcb5c11e91&#45;&gt;dir_8b3ab28549ab548a2833d39a4c8ef983 -->
<g id="edge21" class="edge">
<title>dir_f4f0951108b46b0bffdb59bcb5c11e91&#45;&gt;dir_8b3ab28549ab548a2833d39a4c8ef983</title>
<path fill="none" stroke="black" d="M157.65,-540.01C155.94,-550.31 152.61,-563.79 151,-576 148.28,-596.56 147.86,-620.01 146.79,-637.68"/>
<polygon fill="black" stroke="black" points="143.28,-637.61 146,-647.85 150.26,-638.15 143.28,-637.61"/>
<g id="a_edge21&#45;headlabel"><a xlink:href="dir_000032_000034.html" target="_top" xlink:title="6">
<text text-anchor="middle" x="140.72" y="-631.31" font-family="Helvetica,sans-Serif" font-size="10.00">6</text>
</a>
</g>
</g>
<!-- dir_f4f0951108b46b0bffdb59bcb5c11e91&#45;&gt;dir_ab1b1ffda98de0e92cf76dc2624b069b -->
<g id="edge23" class="edge">
<title>dir_f4f0951108b46b0bffdb59bcb5c11e91&#45;&gt;dir_ab1b1ffda98de0e92cf76dc2624b069b</title>
<path fill="none" stroke="black" d="M167.74,-540.1C171.66,-547.88 175.64,-557.26 178.77,-565.95"/>
<polygon fill="black" stroke="black" points="175.53,-567.3 181.99,-575.7 182.18,-565.1 175.53,-567.3"/>
<g id="a_edge23&#45;headlabel"><a xlink:href="dir_000032_000031.html" target="_top" xlink:title="6">
<text text-anchor="middle" x="171.71" y="-562.28" font-family="Helvetica,sans-Serif" font-size="10.00">6</text>
</a>
</g>
</g>
<!-- dir_f4f0951108b46b0bffdb59bcb5c11e91&#45;&gt;dir_a5f115cb95c3e5f9e4c1a9f0f6e79c1a -->
<g id="edge22" class="edge">
<title>dir_f4f0951108b46b0bffdb59bcb5c11e91&#45;&gt;dir_a5f115cb95c3e5f9e4c1a9f0f6e79c1a</title>
<path fill="none" stroke="black" d="M168.6,-503.7C175.12,-495.39 183.07,-485.28 190.25,-476.14"/>
<polygon fill="black" stroke="black" points="193.13,-478.13 196.56,-468.1 187.63,-473.81 193.13,-478.13"/>
<g id="a_edge22&#45;headlabel"><a xlink:href="dir_000032_000033.html" target="_top" xlink:title="6">
<text text-anchor="middle" x="193.15" y="-480.21" font-family="Helvetica,sans-Serif" font-size="10.00">6</text>
</a>
</g>
</g>
<!-- dir_f4f0951108b46b0bffdb59bcb5c11e91&#45;&gt;dir_48ff6375d03f1aa509a6e0480f966544 -->
<g id="edge20" class="edge">
<title>dir_f4f0951108b46b0bffdb59bcb5c11e91&#45;&gt;dir_48ff6375d03f1aa509a6e0480f966544</title>
<path fill="none" stroke="black" d="M151.71,-503.85C144.61,-466.75 127.76,-378.81 119.19,-334.1"/>
<polygon fill="black" stroke="black" points="122.62,-333.4 117.3,-324.23 115.75,-334.71 122.62,-333.4"/>
<g id="a_edge20&#45;headlabel"><a xlink:href="dir_000032_000008.html" target="_top" xlink:title="2">
<text text-anchor="middle" x="126.09" y="-333.89" font-family="Helvetica,sans-Serif" font-size="10.00">2</text>
</a>
</g>
</g>
<!-- dir_f4f0951108b46b0bffdb59bcb5c11e91&#45;&gt;dir_fd1e11fb0964f7346e999e146b0dfd59 -->
<g id="edge25" class="edge">
<title>dir_f4f0951108b46b0bffdb59bcb5c11e91&#45;&gt;dir_fd1e11fb0964f7346e999e146b0dfd59</title>
<path fill="none" stroke="black" d="M182.31,-513.5C204.34,-505.9 234.05,-491.79 249,-468 320.31,-354.53 257.63,-182.46 229.24,-117.28"/>
<polygon fill="black" stroke="black" points="232.42,-115.82 225.16,-108.1 226.03,-118.66 232.42,-115.82"/>
<g id="a_edge25&#45;headlabel"><a xlink:href="dir_000032_000017.html" target="_top" xlink:title="12">
<text text-anchor="middle" x="236.48" y="-115.45" font-family="Helvetica,sans-Serif" font-size="10.00">12</text>
</a>
</g>
</g>
<!-- dir_f4f0951108b46b0bffdb59bcb5c11e91&#45;&gt;dir_c541d4b187fc5f863b4735b323978e0f -->
<g id="edge24" class="edge">
<title>dir_f4f0951108b46b0bffdb59bcb5c11e91&#45;&gt;dir_c541d4b187fc5f863b4735b323978e0f</title>
<path fill="none" stroke="black" d="M130.44,-503.82C86.73,-471.02 0,-394.85 0,-307 0,-307 0,-307 0,-161 0,-87.71 92.75,-46.8 146.19,-29.32"/>
<polygon fill="black" stroke="black" points="147.51,-32.57 156,-26.22 145.41,-25.89 147.51,-32.57"/>
<g id="a_edge24&#45;headlabel"><a xlink:href="dir_000032_000013.html" target="_top" xlink:title="2">
<text text-anchor="middle" x="144.94" y="-33.86" font-family="Helvetica,sans-Serif" font-size="10.00">2</text>
</a>
</g>
</g>
<!-- dir_a5f115cb95c3e5f9e4c1a9f0f6e79c1a&#45;&gt;dir_8b3ab28549ab548a2833d39a4c8ef983 -->
<g id="edge3" class="edge">
<title>dir_a5f115cb95c3e5f9e4c1a9f0f6e79c1a&#45;&gt;dir_8b3ab28549ab548a2833d39a4c8ef983</title>
<path fill="none" stroke="black" d="M217.64,-468.29C230.08,-499.27 250.88,-565.36 225,-612 219.62,-621.69 198.52,-634.87 178.69,-645.67"/>
<polygon fill="black" stroke="black" points="176.92,-642.65 169.73,-650.44 180.21,-648.83 176.92,-642.65"/>
<g id="a_edge3&#45;headlabel"><a xlink:href="dir_000033_000034.html" target="_top" xlink:title="1">
<text text-anchor="middle" x="178.76" y="-635.95" font-family="Helvetica,sans-Serif" font-size="10.00">1</text>
</a>
</g>
</g>
<!-- dir_a0a785b8d726fb513b94381e63693443 -->
<g id="node12" class="node">
<title>dir_a0a785b8d726fb513b94381e63693443</title>
<g id="a_node12"><a xlink:href="dir_a0a785b8d726fb513b94381e63693443.html" target="_top" xlink:title="validator">
<polygon fill="none" stroke="black" points="240,-396 180,-396 180,-360 240,-360 240,-396"/>
<text text-anchor="middle" x="210" y="-375.5" font-family="Helvetica,sans-Serif" font-size="10.00">validator</text>
</a>
</g>
</g>
<!-- dir_a5f115cb95c3e5f9e4c1a9f0f6e79c1a&#45;&gt;dir_a0a785b8d726fb513b94381e63693443 -->
<g id="edge4" class="edge">
<title>dir_a5f115cb95c3e5f9e4c1a9f0f6e79c1a&#45;&gt;dir_a0a785b8d726fb513b94381e63693443</title>
<path fill="none" stroke="black" d="M210,-431.7C210,-423.98 210,-414.71 210,-406.11"/>
<polygon fill="black" stroke="black" points="213.5,-406.1 210,-396.1 206.5,-406.1 213.5,-406.1"/>
<g id="a_edge4&#45;headlabel"><a xlink:href="dir_000033_000025.html" target="_top" xlink:title="2">
<text text-anchor="middle" x="216.34" y="-407.2" font-family="Helvetica,sans-Serif" font-size="10.00">2</text>
</a>
</g>
</g>
<!-- dir_48ff6375d03f1aa509a6e0480f966544&#45;&gt;dir_5cbb9a0bf548abf0d2e32772c73d2ad6 -->
<g id="edge27" class="edge">
<title>dir_48ff6375d03f1aa509a6e0480f966544&#45;&gt;dir_5cbb9a0bf548abf0d2e32772c73d2ad6</title>
<path fill="none" stroke="black" d="M111.71,-287.87C108.47,-263.67 102.52,-219.21 98.67,-190.39"/>
<polygon fill="black" stroke="black" points="102.1,-189.64 97.3,-180.19 95.16,-190.57 102.1,-189.64"/>
<g id="a_edge27&#45;headlabel"><a xlink:href="dir_000008_000035.html" target="_top" xlink:title="6">
<text text-anchor="middle" x="105.39" y="-190.32" font-family="Helvetica,sans-Serif" font-size="10.00">6</text>
</a>
</g>
</g>
<!-- dir_48ff6375d03f1aa509a6e0480f966544&#45;&gt;dir_3f96c34ad80e9031c68706862fabf1a4 -->
<g id="edge26" class="edge">
<title>dir_48ff6375d03f1aa509a6e0480f966544&#45;&gt;dir_3f96c34ad80e9031c68706862fabf1a4</title>
<path fill="none" stroke="black" d="M140.18,-287.88C154.04,-278.81 171.24,-267.55 186.21,-257.76"/>
<polygon fill="black" stroke="black" points="188.27,-260.59 194.72,-252.19 184.44,-254.74 188.27,-260.59"/>
<g id="a_edge26&#45;headlabel"><a xlink:href="dir_000008_000007.html" target="_top" xlink:title="6">
<text text-anchor="middle" x="186.82" y="-262.44" font-family="Helvetica,sans-Serif" font-size="10.00">6</text>
</a>
</g>
</g>
<!-- dir_48ff6375d03f1aa509a6e0480f966544&#45;&gt;dir_fd1e11fb0964f7346e999e146b0dfd59 -->
<g id="edge29" class="edge">
<title>dir_48ff6375d03f1aa509a6e0480f966544&#45;&gt;dir_fd1e11fb0964f7346e999e146b0dfd59</title>
<path fill="none" stroke="black" d="M122.25,-287.85C140.22,-250.52 182.97,-161.69 204.36,-117.26"/>
<polygon fill="black" stroke="black" points="207.52,-118.76 208.71,-108.23 201.22,-115.73 207.52,-118.76"/>
<g id="a_edge29&#45;headlabel"><a xlink:href="dir_000008_000017.html" target="_top" xlink:title="21">
<text text-anchor="middle" x="208.52" y="-120.73" font-family="Helvetica,sans-Serif" font-size="10.00">21</text>
</a>
</g>
</g>
<!-- dir_48ff6375d03f1aa509a6e0480f966544&#45;&gt;dir_c541d4b187fc5f863b4735b323978e0f -->
<g id="edge28" class="edge">
<title>dir_48ff6375d03f1aa509a6e0480f966544&#45;&gt;dir_c541d4b187fc5f863b4735b323978e0f</title>
<path fill="none" stroke="black" d="M100.41,-287.65C79.06,-258.2 41.77,-196.48 59,-144 73.82,-98.87 116.33,-62.47 147.46,-40.83"/>
<polygon fill="black" stroke="black" points="149.58,-43.63 155.91,-35.13 145.66,-37.83 149.58,-43.63"/>
<g id="a_edge28&#45;headlabel"><a xlink:href="dir_000008_000013.html" target="_top" xlink:title="11">
<text text-anchor="middle" x="148.19" y="-45.49" font-family="Helvetica,sans-Serif" font-size="10.00">11</text>
</a>
</g>
</g>
<!-- dir_5cbb9a0bf548abf0d2e32772c73d2ad6&#45;&gt;dir_fd1e11fb0964f7346e999e146b0dfd59 -->
<g id="edge31" class="edge">
<title>dir_5cbb9a0bf548abf0d2e32772c73d2ad6&#45;&gt;dir_fd1e11fb0964f7346e999e146b0dfd59</title>
<path fill="none" stroke="black" d="M122.08,-145.46C138.73,-135.91 160.32,-123.52 178.71,-112.97"/>
<polygon fill="black" stroke="black" points="180.51,-115.97 187.44,-107.96 177.02,-109.9 180.51,-115.97"/>
<g id="a_edge31&#45;headlabel"><a xlink:href="dir_000035_000017.html" target="_top" xlink:title="16">
<text text-anchor="middle" x="178.8" y="-117.73" font-family="Helvetica,sans-Serif" font-size="10.00">16</text>
</a>
</g>
</g>
<!-- dir_5cbb9a0bf548abf0d2e32772c73d2ad6&#45;&gt;dir_c541d4b187fc5f863b4735b323978e0f -->
<g id="edge30" class="edge">
<title>dir_5cbb9a0bf548abf0d2e32772c73d2ad6&#45;&gt;dir_c541d4b187fc5f863b4735b323978e0f</title>
<path fill="none" stroke="black" d="M101.17,-143.83C108.21,-125.31 120.74,-95.36 136,-72 142.49,-62.07 150.76,-52.09 158.55,-43.52"/>
<polygon fill="black" stroke="black" points="161.23,-45.78 165.5,-36.08 156.12,-41 161.23,-45.78"/>
<g id="a_edge30&#45;headlabel"><a xlink:href="dir_000035_000013.html" target="_top" xlink:title="5">
<text text-anchor="middle" x="160.85" y="-47.84" font-family="Helvetica,sans-Serif" font-size="10.00">5</text>
</a>
</g>
</g>
<!-- dir_3f96c34ad80e9031c68706862fabf1a4&#45;&gt;dir_5cbb9a0bf548abf0d2e32772c73d2ad6 -->
<g id="edge32" class="edge">
<title>dir_3f96c34ad80e9031c68706862fabf1a4&#45;&gt;dir_5cbb9a0bf548abf0d2e32772c73d2ad6</title>
<path fill="none" stroke="black" d="M190.18,-215.88C172.27,-205.93 149.62,-193.35 130.91,-182.95"/>
<polygon fill="black" stroke="black" points="132.52,-179.84 122.08,-178.05 129.12,-185.96 132.52,-179.84"/>
<g id="a_edge32&#45;headlabel"><a xlink:href="dir_000007_000035.html" target="_top" xlink:title="2">
<text text-anchor="middle" x="137.04" y="-176.61" font-family="Helvetica,sans-Serif" font-size="10.00">2</text>
</a>
</g>
</g>
<!-- dir_3f96c34ad80e9031c68706862fabf1a4&#45;&gt;dir_fd1e11fb0964f7346e999e146b0dfd59 -->
<g id="edge34" class="edge">
<title>dir_3f96c34ad80e9031c68706862fabf1a4&#45;&gt;dir_fd1e11fb0964f7346e999e146b0dfd59</title>
<path fill="none" stroke="black" d="M220.52,-215.87C219.84,-191.67 218.58,-147.21 217.77,-118.39"/>
<polygon fill="black" stroke="black" points="221.26,-118.09 217.48,-108.19 214.27,-118.28 221.26,-118.09"/>
<g id="a_edge34&#45;headlabel"><a xlink:href="dir_000007_000017.html" target="_top" xlink:title="9">
<text text-anchor="middle" x="224.2" y="-119.1" font-family="Helvetica,sans-Serif" font-size="10.00">9</text>
</a>
</g>
</g>
<!-- dir_3f96c34ad80e9031c68706862fabf1a4&#45;&gt;dir_c541d4b187fc5f863b4735b323978e0f -->
<g id="edge33" class="edge">
<title>dir_3f96c34ad80e9031c68706862fabf1a4&#45;&gt;dir_c541d4b187fc5f863b4735b323978e0f</title>
<path fill="none" stroke="black" d="M213.16,-215.66C202.92,-191.94 185.5,-147.76 179,-108 176.42,-92.21 178.4,-87.99 179,-72 179.31,-63.67 179.91,-54.61 180.54,-46.38"/>
<polygon fill="black" stroke="black" points="184.05,-46.42 181.38,-36.17 177.07,-45.85 184.05,-46.42"/>
<g id="a_edge33&#45;headlabel"><a xlink:href="dir_000007_000013.html" target="_top" xlink:title="4">
<text text-anchor="middle" x="186.58" y="-47.73" font-family="Helvetica,sans-Serif" font-size="10.00">4</text>
</a>
</g>
</g>
<!-- dir_d3b86ce335ad818909ececff0fac1eca&#45;&gt;dir_48ff6375d03f1aa509a6e0480f966544 -->
<g id="edge8" class="edge">
<title>dir_d3b86ce335ad818909ececff0fac1eca&#45;&gt;dir_48ff6375d03f1aa509a6e0480f966544</title>
<path fill="none" stroke="black" d="M295.83,-432.45C282.87,-426.74 267.94,-420.63 254,-416 217.99,-404.04 201.91,-418.01 171,-396 149.16,-380.45 133.69,-353.66 124.42,-333.53"/>
<polygon fill="black" stroke="black" points="127.58,-332.02 120.37,-324.26 121.17,-334.82 127.58,-332.02"/>
<g id="a_edge8&#45;headlabel"><a xlink:href="dir_000026_000008.html" target="_top" xlink:title="12">
<text text-anchor="middle" x="131.62" y="-331.68" font-family="Helvetica,sans-Serif" font-size="10.00">12</text>
</a>
</g>
</g>
<!-- dir_d3b86ce335ad818909ececff0fac1eca&#45;&gt;dir_3f96c34ad80e9031c68706862fabf1a4 -->
<g id="edge7" class="edge">
<title>dir_d3b86ce335ad818909ececff0fac1eca&#45;&gt;dir_3f96c34ad80e9031c68706862fabf1a4</title>
<path fill="none" stroke="black" d="M322.18,-431.85C303,-394.52 257.34,-305.69 234.5,-261.26"/>
<polygon fill="black" stroke="black" points="237.54,-259.53 229.86,-252.23 231.32,-262.73 237.54,-259.53"/>
<g id="a_edge7&#45;headlabel"><a xlink:href="dir_000026_000007.html" target="_top" xlink:title="5">
<text text-anchor="middle" x="241.71" y="-258.93" font-family="Helvetica,sans-Serif" font-size="10.00">5</text>
</a>
</g>
</g>
<!-- dir_d3b86ce335ad818909ececff0fac1eca&#45;&gt;dir_fd1e11fb0964f7346e999e146b0dfd59 -->
<g id="edge11" class="edge">
<title>dir_d3b86ce335ad818909ececff0fac1eca&#45;&gt;dir_fd1e11fb0964f7346e999e146b0dfd59</title>
<path fill="none" stroke="black" d="M333.57,-432C337.36,-405.4 344,-352.3 344,-307 344,-307 344,-307 344,-233 344,-188.68 328.64,-176.95 299,-144 286.89,-130.54 270.61,-119.08 255.74,-110.3"/>
<polygon fill="black" stroke="black" points="257.15,-107.07 246.72,-105.19 253.7,-113.16 257.15,-107.07"/>
<g id="a_edge11&#45;headlabel"><a xlink:href="dir_000026_000017.html" target="_top" xlink:title="6">
<text text-anchor="middle" x="261.67" y="-103.88" font-family="Helvetica,sans-Serif" font-size="10.00">6</text>
</a>
</g>
</g>
<!-- dir_d3b86ce335ad818909ececff0fac1eca&#45;&gt;dir_c541d4b187fc5f863b4735b323978e0f -->
<g id="edge10" class="edge">
<title>dir_d3b86ce335ad818909ececff0fac1eca&#45;&gt;dir_c541d4b187fc5f863b4735b323978e0f</title>
<path fill="none" stroke="black" d="M339.87,-431.82C344.66,-421.68 350.16,-408.43 353,-396 370.81,-317.98 373.7,-294.48 358,-216 342.62,-139.09 315.65,-122.93 256,-72 243.81,-61.59 229.69,-51.03 217.14,-42.1"/>
<polygon fill="black" stroke="black" points="218.94,-39.09 208.75,-36.21 214.92,-44.82 218.94,-39.09"/>
<g id="a_edge10&#45;headlabel"><a xlink:href="dir_000026_000013.html" target="_top" xlink:title="11">
<text text-anchor="middle" x="223.51" y="-36.33" font-family="Helvetica,sans-Serif" font-size="10.00">11</text>
</a>
</g>
</g>
<!-- dir_d3b86ce335ad818909ececff0fac1eca&#45;&gt;dir_a0a785b8d726fb513b94381e63693443 -->
<g id="edge9" class="edge">
<title>dir_d3b86ce335ad818909ececff0fac1eca&#45;&gt;dir_a0a785b8d726fb513b94381e63693443</title>
<path fill="none" stroke="black" d="M301.4,-431.88C285.43,-422.64 265.54,-411.13 248.39,-401.21"/>
<polygon fill="black" stroke="black" points="250.12,-398.17 239.71,-396.19 246.62,-404.23 250.12,-398.17"/>
<g id="a_edge9&#45;headlabel"><a xlink:href="dir_000026_000025.html" target="_top" xlink:title="14">
<text text-anchor="middle" x="254.66" y="-395.01" font-family="Helvetica,sans-Serif" font-size="10.00">14</text>
</a>
</g>
</g>
<!-- dir_fd1e11fb0964f7346e999e146b0dfd59&#45;&gt;dir_c541d4b187fc5f863b4735b323978e0f -->
<g id="edge1" class="edge">
<title>dir_fd1e11fb0964f7346e999e146b0dfd59&#45;&gt;dir_c541d4b187fc5f863b4735b323978e0f</title>
<path fill="none" stroke="black" d="M202.68,-71.7C198.04,-63.81 193.2,-54.3 189.32,-45.55"/>
<polygon fill="black" stroke="black" points="192.47,-44 185.41,-36.1 186,-46.68 192.47,-44"/>
<g id="a_edge1&#45;headlabel"><a xlink:href="dir_000017_000013.html" target="_top" xlink:title="2">
<text text-anchor="middle" x="196.47" y="-43.74" font-family="Helvetica,sans-Serif" font-size="10.00">2</text>
</a>
</g>
</g>
<!-- dir_c541d4b187fc5f863b4735b323978e0f&#45;&gt;dir_fd1e11fb0964f7346e999e146b0dfd59 -->
<g id="edge2" class="edge">
<title>dir_c541d4b187fc5f863b4735b323978e0f&#45;&gt;dir_fd1e11fb0964f7346e999e146b0dfd59</title>
<path fill="none" stroke="black" d="M197.2,-36.1C201.84,-43.96 206.69,-53.46 210.58,-62.23"/>
<polygon fill="black" stroke="black" points="207.44,-63.8 214.51,-71.7 213.91,-61.12 207.44,-63.8"/>
<g id="a_edge2&#45;headlabel"><a xlink:href="dir_000013_000017.html" target="_top" xlink:title="6">
<text text-anchor="middle" x="203.44" y="-59.07" font-family="Helvetica,sans-Serif" font-size="10.00">6</text>
</a>
</g>
</g>
<!-- dir_a0a785b8d726fb513b94381e63693443&#45;&gt;dir_48ff6375d03f1aa509a6e0480f966544 -->
<g id="edge36" class="edge">
<title>dir_a0a785b8d726fb513b94381e63693443&#45;&gt;dir_48ff6375d03f1aa509a6e0480f966544</title>
<path fill="none" stroke="black" d="M186.27,-359.7C174.06,-350.8 159.01,-339.82 145.82,-330.2"/>
<polygon fill="black" stroke="black" points="147.6,-327.17 137.46,-324.1 143.48,-332.82 147.6,-327.17"/>
<g id="a_edge36&#45;headlabel"><a xlink:href="dir_000025_000008.html" target="_top" xlink:title="1">
<text text-anchor="middle" x="152.18" y="-324.49" font-family="Helvetica,sans-Serif" font-size="10.00">1</text>
</a>
</g>
</g>
<!-- dir_a0a785b8d726fb513b94381e63693443&#45;&gt;dir_3f96c34ad80e9031c68706862fabf1a4 -->
<g id="edge35" class="edge">
<title>dir_a0a785b8d726fb513b94381e63693443&#45;&gt;dir_3f96c34ad80e9031c68706862fabf1a4</title>
<path fill="none" stroke="black" d="M211.33,-359.87C213.2,-335.67 216.65,-291.21 218.88,-262.39"/>
<polygon fill="black" stroke="black" points="222.39,-262.43 219.67,-252.19 215.41,-261.89 222.39,-262.43"/>
<g id="a_edge35&#45;headlabel"><a xlink:href="dir_000025_000007.html" target="_top" xlink:title="1">
<text text-anchor="middle" x="224.94" y="-263.73" font-family="Helvetica,sans-Serif" font-size="10.00">1</text>
</a>
</g>
</g>
</g>
</svg>
