<?xml version="1.0" encoding="UTF-8" standalone="no"?>
<!DOCTYPE svg PUBLIC "-//W3C//DTD SVG 1.1//EN"
 "http://www.w3.org/Graphics/SVG/1.1/DTD/svg11.dtd">
<!-- Generated by graphviz version 2.43.0 (0)
 -->
<!-- Title: conversion Pages: 1 -->
<svg width="186pt" height="455pt"
 viewBox="0.00 0.00 186.00 455.00" xmlns="http://www.w3.org/2000/svg" xmlns:xlink="http://www.w3.org/1999/xlink">
<g id="graph0" class="graph" transform="scale(1 1) rotate(0) translate(4 451)">
<title>conversion</title>
<polygon fill="white" stroke="transparent" points="-4,4 -4,-451 182,-451 182,4 -4,4"/>
<g id="clust1" class="cluster">
<title>clusterdir_a359a38bc464cff0ef8a57dc34360380</title>
<g id="a_clust1"><a xlink:href="dir_a359a38bc464cff0ef8a57dc34360380.html" target="_top" xlink:title="sbml">
<polygon fill="#ddddee" stroke="black" points="8,-8 8,-439 170,-439 170,-8 8,-8"/>
<text text-anchor="middle" x="89" y="-427" font-family="Helvetica,sans-Serif" font-size="10.00">sbml</text>
</a>
</g>
</g>
<!-- dir_3f96c34ad80e9031c68706862fabf1a4 -->
<g id="node1" class="node">
<title>dir_3f96c34ad80e9031c68706862fabf1a4</title>
<g id="a_node1"><a xlink:href="dir_3f96c34ad80e9031c68706862fabf1a4.html" target="_top" xlink:title="extension">
<polygon fill="none" stroke="black" points="121.5,-196 56.5,-196 56.5,-160 121.5,-160 121.5,-196"/>
<text text-anchor="middle" x="89" y="-175.5" font-family="Helvetica,sans-Serif" font-size="10.00">extension</text>
</a>
</g>
</g>
<!-- dir_c541d4b187fc5f863b4735b323978e0f -->
<g id="node4" class="node">
<title>dir_c541d4b187fc5f863b4735b323978e0f</title>
<g id="a_node4"><a xlink:href="dir_c541d4b187fc5f863b4735b323978e0f.html" target="_top" xlink:title="util">
<polygon fill="none" stroke="black" points="129,-124 75,-124 75,-88 129,-88 129,-124"/>
<text text-anchor="middle" x="102" y="-103.5" font-family="Helvetica,sans-Serif" font-size="10.00">util</text>
</a>
</g>
</g>
<!-- dir_3f96c34ad80e9031c68706862fabf1a4&#45;&gt;dir_c541d4b187fc5f863b4735b323978e0f -->
<g id="edge11" class="edge">
<title>dir_3f96c34ad80e9031c68706862fabf1a4&#45;&gt;dir_c541d4b187fc5f863b4735b323978e0f</title>
<path fill="none" stroke="black" d="M92.21,-159.7C93.65,-151.98 95.37,-142.71 96.96,-134.11"/>
<polygon fill="black" stroke="black" points="100.44,-134.58 98.82,-124.1 93.56,-133.3 100.44,-134.58"/>
<g id="a_edge11&#45;headlabel"><a xlink:href="dir_000007_000013.html" target="_top" xlink:title="4">
<text text-anchor="middle" x="102.57" y="-136.13" font-family="Helvetica,sans-Serif" font-size="10.00">4</text>
</a>
</g>
</g>
<!-- dir_fd1e11fb0964f7346e999e146b0dfd59 -->
<g id="node5" class="node">
<title>dir_fd1e11fb0964f7346e999e146b0dfd59</title>
<g id="a_node5"><a xlink:href="dir_fd1e11fb0964f7346e999e146b0dfd59.html" target="_top" xlink:title="common">
<polygon fill="none" stroke="black" points="131.5,-52 72.5,-52 72.5,-16 131.5,-16 131.5,-52"/>
<text text-anchor="middle" x="102" y="-31.5" font-family="Helvetica,sans-Serif" font-size="10.00">common</text>
</a>
</g>
</g>
<!-- dir_3f96c34ad80e9031c68706862fabf1a4&#45;&gt;dir_fd1e11fb0964f7346e999e146b0dfd59 -->
<g id="edge12" class="edge">
<title>dir_3f96c34ad80e9031c68706862fabf1a4&#45;&gt;dir_fd1e11fb0964f7346e999e146b0dfd59</title>
<path fill="none" stroke="black" d="M78.9,-159.81C69.63,-141.79 58.4,-112.71 66,-88 69.01,-78.22 74.51,-68.62 80.32,-60.33"/>
<polygon fill="black" stroke="black" points="83.19,-62.33 86.39,-52.23 77.59,-58.13 83.19,-62.33"/>
<g id="a_edge12&#45;headlabel"><a xlink:href="dir_000007_000017.html" target="_top" xlink:title="9">
<text text-anchor="middle" x="83.31" y="-64.41" font-family="Helvetica,sans-Serif" font-size="10.00">9</text>
</a>
</g>
</g>
<!-- dir_48ff6375d03f1aa509a6e0480f966544 -->
<g id="node2" class="node">
<title>dir_48ff6375d03f1aa509a6e0480f966544</title>
<g id="a_node2"><a xlink:href="dir_48ff6375d03f1aa509a6e0480f966544.html" target="_top" xlink:title="math">
<polygon fill="none" stroke="black" points="70,-268 16,-268 16,-232 70,-232 70,-268"/>
<text text-anchor="middle" x="43" y="-247.5" font-family="Helvetica,sans-Serif" font-size="10.00">math</text>
</a>
</g>
</g>
<!-- dir_48ff6375d03f1aa509a6e0480f966544&#45;&gt;dir_3f96c34ad80e9031c68706862fabf1a4 -->
<g id="edge8" class="edge">
<title>dir_48ff6375d03f1aa509a6e0480f966544&#45;&gt;dir_3f96c34ad80e9031c68706862fabf1a4</title>
<path fill="none" stroke="black" d="M54.37,-231.7C59.72,-223.56 66.2,-213.69 72.11,-204.7"/>
<polygon fill="black" stroke="black" points="75.19,-206.38 77.76,-196.1 69.34,-202.54 75.19,-206.38"/>
<g id="a_edge8&#45;headlabel"><a xlink:href="dir_000008_000007.html" target="_top" xlink:title="6">
<text text-anchor="middle" x="75.59" y="-208.45" font-family="Helvetica,sans-Serif" font-size="10.00">6</text>
</a>
</g>
</g>
<!-- dir_48ff6375d03f1aa509a6e0480f966544&#45;&gt;dir_c541d4b187fc5f863b4735b323978e0f -->
<g id="edge9" class="edge">
<title>dir_48ff6375d03f1aa509a6e0480f966544&#45;&gt;dir_c541d4b187fc5f863b4735b323978e0f</title>
<path fill="none" stroke="black" d="M40.13,-231.73C37.85,-213.14 36.55,-183.12 47,-160 51.98,-148.97 60.4,-139.07 69.18,-130.89"/>
<polygon fill="black" stroke="black" points="71.66,-133.38 76.9,-124.17 67.06,-128.1 71.66,-133.38"/>
<g id="a_edge9&#45;headlabel"><a xlink:href="dir_000008_000013.html" target="_top" xlink:title="11">
<text text-anchor="middle" x="70.81" y="-135.38" font-family="Helvetica,sans-Serif" font-size="10.00">11</text>
</a>
</g>
</g>
<!-- dir_48ff6375d03f1aa509a6e0480f966544&#45;&gt;dir_fd1e11fb0964f7346e999e146b0dfd59 -->
<g id="edge10" class="edge">
<title>dir_48ff6375d03f1aa509a6e0480f966544&#45;&gt;dir_fd1e11fb0964f7346e999e146b0dfd59</title>
<path fill="none" stroke="black" d="M38.93,-231.85C35.25,-213.86 30.97,-184.81 35,-160 40.4,-126.7 42.78,-117.57 59,-88 64.35,-78.24 71.57,-68.5 78.56,-60.09"/>
<polygon fill="black" stroke="black" points="81.25,-62.33 85.13,-52.47 75.95,-57.76 81.25,-62.33"/>
<g id="a_edge10&#45;headlabel"><a xlink:href="dir_000008_000017.html" target="_top" xlink:title="21">
<text text-anchor="middle" x="81.06" y="-64.4" font-family="Helvetica,sans-Serif" font-size="10.00">21</text>
</a>
</g>
</g>
<!-- dir_a0a785b8d726fb513b94381e63693443 -->
<g id="node3" class="node">
<title>dir_a0a785b8d726fb513b94381e63693443</title>
<g id="a_node3"><a xlink:href="dir_a0a785b8d726fb513b94381e63693443.html" target="_top" xlink:title="validator">
<polygon fill="none" stroke="black" points="102,-340 42,-340 42,-304 102,-304 102,-340"/>
<text text-anchor="middle" x="72" y="-319.5" font-family="Helvetica,sans-Serif" font-size="10.00">validator</text>
</a>
</g>
</g>
<!-- dir_a0a785b8d726fb513b94381e63693443&#45;&gt;dir_3f96c34ad80e9031c68706862fabf1a4 -->
<g id="edge13" class="edge">
<title>dir_a0a785b8d726fb513b94381e63693443&#45;&gt;dir_3f96c34ad80e9031c68706862fabf1a4</title>
<path fill="none" stroke="black" d="M74.35,-303.82C75.75,-293.46 77.54,-279.98 79,-268 81.53,-247.29 84.15,-223.85 86.08,-206.22"/>
<polygon fill="black" stroke="black" points="89.58,-206.39 87.18,-196.07 82.62,-205.64 89.58,-206.39"/>
<g id="a_edge13&#45;headlabel"><a xlink:href="dir_000025_000007.html" target="_top" xlink:title="1">
<text text-anchor="middle" x="92.02" y="-207.77" font-family="Helvetica,sans-Serif" font-size="10.00">1</text>
</a>
</g>
</g>
<!-- dir_a0a785b8d726fb513b94381e63693443&#45;&gt;dir_48ff6375d03f1aa509a6e0480f966544 -->
<g id="edge14" class="edge">
<title>dir_a0a785b8d726fb513b94381e63693443&#45;&gt;dir_48ff6375d03f1aa509a6e0480f966544</title>
<path fill="none" stroke="black" d="M64.83,-303.7C61.57,-295.81 57.63,-286.3 54,-277.55"/>
<polygon fill="black" stroke="black" points="57.15,-276 50.09,-268.1 50.68,-278.68 57.15,-276"/>
<g id="a_edge14&#45;headlabel"><a xlink:href="dir_000025_000008.html" target="_top" xlink:title="1">
<text text-anchor="middle" x="61.15" y="-275.74" font-family="Helvetica,sans-Serif" font-size="10.00">1</text>
</a>
</g>
</g>
<!-- dir_c541d4b187fc5f863b4735b323978e0f&#45;&gt;dir_fd1e11fb0964f7346e999e146b0dfd59 -->
<g id="edge2" class="edge">
<title>dir_c541d4b187fc5f863b4735b323978e0f&#45;&gt;dir_fd1e11fb0964f7346e999e146b0dfd59</title>
<path fill="none" stroke="black" d="M96.08,-87.7C95.29,-79.98 95.06,-70.71 95.4,-62.11"/>
<polygon fill="black" stroke="black" points="98.9,-62.32 96.1,-52.1 91.92,-61.84 98.9,-62.32"/>
<g id="a_edge2&#45;headlabel"><a xlink:href="dir_000013_000017.html" target="_top" xlink:title="6">
<text text-anchor="middle" x="101.48" y="-63.61" font-family="Helvetica,sans-Serif" font-size="10.00">6</text>
</a>
</g>
</g>
<!-- dir_fd1e11fb0964f7346e999e146b0dfd59&#45;&gt;dir_c541d4b187fc5f863b4735b323978e0f -->
<g id="edge1" class="edge">
<title>dir_fd1e11fb0964f7346e999e146b0dfd59&#45;&gt;dir_c541d4b187fc5f863b4735b323978e0f</title>
<path fill="none" stroke="black" d="M107.9,-52.1C108.7,-59.79 108.94,-69.05 108.6,-77.67"/>
<polygon fill="black" stroke="black" points="105.11,-77.48 107.92,-87.7 112.09,-77.96 105.11,-77.48"/>
<g id="a_edge1&#45;headlabel"><a xlink:href="dir_000017_000013.html" target="_top" xlink:title="2">
<text text-anchor="middle" x="102.52" y="-71.2" font-family="Helvetica,sans-Serif" font-size="10.00">2</text>
</a>
</g>
</g>
<!-- dir_d3b86ce335ad818909ececff0fac1eca -->
<g id="node6" class="node">
<title>dir_d3b86ce335ad818909ececff0fac1eca</title>
<g id="a_node6"><a xlink:href="dir_d3b86ce335ad818909ececff0fac1eca.html" target="_top" xlink:title="conversion">
<polygon fill="#eeeeff" stroke="black" points="156,-412 86,-412 86,-376 156,-376 156,-412"/>
<text text-anchor="middle" x="121" y="-391.5" font-family="Helvetica,sans-Serif" font-size="10.00">conversion</text>
</a>
</g>
</g>
<!-- dir_d3b86ce335ad818909ececff0fac1eca&#45;&gt;dir_3f96c34ad80e9031c68706862fabf1a4 -->
<g id="edge3" class="edge">
<title>dir_d3b86ce335ad818909ececff0fac1eca&#45;&gt;dir_3f96c34ad80e9031c68706862fabf1a4</title>
<path fill="none" stroke="black" d="M119.4,-375.9C117.64,-357.95 114.59,-328.93 111,-304 106.13,-270.22 99.1,-231.56 94.31,-206.29"/>
<polygon fill="black" stroke="black" points="97.72,-205.5 92.4,-196.34 90.85,-206.82 97.72,-205.5"/>
<g id="a_edge3&#45;headlabel"><a xlink:href="dir_000026_000007.html" target="_top" xlink:title="5">
<text text-anchor="middle" x="101.18" y="-206" font-family="Helvetica,sans-Serif" font-size="10.00">5</text>
</a>
</g>
</g>
<!-- dir_d3b86ce335ad818909ececff0fac1eca&#45;&gt;dir_48ff6375d03f1aa509a6e0480f966544 -->
<g id="edge4" class="edge">
<title>dir_d3b86ce335ad818909ececff0fac1eca&#45;&gt;dir_48ff6375d03f1aa509a6e0480f966544</title>
<path fill="none" stroke="black" d="M85.87,-381.6C66.58,-373.33 44.32,-360.03 33,-340 22.35,-321.15 26.24,-296.48 32.01,-277.9"/>
<polygon fill="black" stroke="black" points="35.37,-278.87 35.32,-268.28 28.76,-276.59 35.37,-278.87"/>
<g id="a_edge4&#45;headlabel"><a xlink:href="dir_000026_000008.html" target="_top" xlink:title="12">
<text text-anchor="middle" x="36.89" y="-280.69" font-family="Helvetica,sans-Serif" font-size="10.00">12</text>
</a>
</g>
</g>
<!-- dir_d3b86ce335ad818909ececff0fac1eca&#45;&gt;dir_a0a785b8d726fb513b94381e63693443 -->
<g id="edge5" class="edge">
<title>dir_d3b86ce335ad818909ececff0fac1eca&#45;&gt;dir_a0a785b8d726fb513b94381e63693443</title>
<path fill="none" stroke="black" d="M108.89,-375.7C103.13,-367.47 96.14,-357.48 89.79,-348.42"/>
<polygon fill="black" stroke="black" points="92.58,-346.29 83.97,-340.1 86.84,-350.3 92.58,-346.29"/>
<g id="a_edge5&#45;headlabel"><a xlink:href="dir_000026_000025.html" target="_top" xlink:title="14">
<text text-anchor="middle" x="96.96" y="-345.11" font-family="Helvetica,sans-Serif" font-size="10.00">14</text>
</a>
</g>
</g>
<!-- dir_d3b86ce335ad818909ececff0fac1eca&#45;&gt;dir_c541d4b187fc5f863b4735b323978e0f -->
<g id="edge6" class="edge">
<title>dir_d3b86ce335ad818909ececff0fac1eca&#45;&gt;dir_c541d4b187fc5f863b4735b323978e0f</title>
<path fill="none" stroke="black" d="M125.04,-375.98C133.59,-337.03 151.11,-238.65 131,-160 128.62,-150.7 124.24,-141.27 119.58,-133"/>
<polygon fill="black" stroke="black" points="122.46,-130.99 114.31,-124.22 116.46,-134.59 122.46,-130.99"/>
<g id="a_edge6&#45;headlabel"><a xlink:href="dir_000026_000013.html" target="_top" xlink:title="11">
<text text-anchor="middle" x="126.74" y="-130.11" font-family="Helvetica,sans-Serif" font-size="10.00">11</text>
</a>
</g>
</g>
<!-- dir_d3b86ce335ad818909ececff0fac1eca&#45;&gt;dir_fd1e11fb0964f7346e999e146b0dfd59 -->
<g id="edge7" class="edge">
<title>dir_d3b86ce335ad818909ececff0fac1eca&#45;&gt;dir_fd1e11fb0964f7346e999e146b0dfd59</title>
<path fill="none" stroke="black" d="M129.09,-375.95C140.78,-349.72 161,-297.61 161,-251 161,-251 161,-251 161,-177 161,-136.14 154.84,-125.22 138,-88 133.71,-78.52 127.75,-68.9 121.92,-60.5"/>
<polygon fill="black" stroke="black" points="124.65,-58.3 115.95,-52.24 118.97,-62.4 124.65,-58.3"/>
<g id="a_edge7&#45;headlabel"><a xlink:href="dir_000026_000017.html" target="_top" xlink:title="6">
<text text-anchor="middle" x="129.05" y="-57.05" font-family="Helvetica,sans-Serif" font-size="10.00">6</text>
</a>
</g>
</g>
</g>
</svg>
