<?xml version="1.0" encoding="UTF-8" standalone="no"?>
<!DOCTYPE svg PUBLIC "-//W3C//DTD SVG 1.1//EN"
 "http://www.w3.org/Graphics/SVG/1.1/DTD/svg11.dtd">
<!-- Generated by graphviz version 2.43.0 (0)
 -->
<!-- Title: extension Pages: 1 -->
<!--zoomable 583 -->
<svg id="main" version="1.1" xmlns="http://www.w3.org/2000/svg" xmlns:xlink="http://www.w3.org/1999/xlink" xml:space="preserve" onload="init(evt)">
<style type="text/css"><![CDATA[
.edge:hover path { stroke: red; }
.edge:hover polygon { stroke: red; fill: red; }
]]></style>
<script type="text/javascript"><![CDATA[
var edges = document.getElementsByTagName('g');
if (edges && edges.length) {
  for (var i=0;i<edges.length;i++) {
    if (edges[i].id.substr(0,4)=='edge') {
      edges[i].setAttribute('class','edge');
    }
  }
}
]]></script>
        <defs>
                <circle id="rim" cx="0" cy="0" r="7"/>
                <circle id="rim2" cx="0" cy="0" r="3.5"/>
                <g id="zoomPlus">
                        <use xlink:href="#rim" fill="#404040">
                                <set attributeName="fill" to="#808080" begin="zoomplus.mouseover" end="zoomplus.mouseout"/>
                        </use>
                        <path d="M-4,0h8M0,-4v8" fill="none" stroke="white" stroke-width="1.5" pointer-events="none"/>
                </g>
                <g id="zoomMin">
                        <use xlink:href="#rim" fill="#404040">
                                <set attributeName="fill" to="#808080" begin="zoomminus.mouseover" end="zoomminus.mouseout"/>
                        </use>
                        <path d="M-4,0h8" fill="none" stroke="white" stroke-width="1.5" pointer-events="none"/>
                </g>
                <g id="dirArrow">
                        <path fill="none" stroke="white" stroke-width="1.5" d="M0,-3.0v7 M-2.5,-0.5L0,-3.0L2.5,-0.5"/>
                </g>
               <g id="resetDef">
                       <use xlink:href="#rim2" fill="#404040">
                               <set attributeName="fill" to="#808080" begin="reset.mouseover" end="reset.mouseout"/>
                       </use>
               </g>
        </defs>

<script type="text/javascript">
var viewWidth = 445;
var viewHeight = 583;
var sectionId = 'dynsection-0';
</script>
<script xlink:href="svgpan.js"/>
<svg id="graph" class="graph">
<g id="viewport">
<title>extension</title>
<polygon fill="white" stroke="transparent" points="-4,4 -4,-579 441.12,-579 441.12,4 -4,4"/>
<g id="clust1" class="cluster">
<title>clusterdir_d17c5e5a75c371b2757c74298eb5dae8</title>
<g id="a_clust1"><a xlink:href="dir_d17c5e5a75c371b2757c74298eb5dae8.html" target="_top" xlink:title="distrib">
<polygon fill="#ddddee" stroke="black" points="115.12,-352 115.12,-567 217.12,-567 217.12,-352 115.12,-352"/>
<text text-anchor="middle" x="166.12" y="-555" font-family="Helvetica,sans-Serif" font-size="10.00">distrib</text>
</a>
</g>
</g>
<!-- dir_a5f115cb95c3e5f9e4c1a9f0f6e79c1a -->
<g id="node1" class="node">
<title>dir_a5f115cb95c3e5f9e4c1a9f0f6e79c1a</title>
<g id="a_node1"><a xlink:href="dir_a5f115cb95c3e5f9e4c1a9f0f6e79c1a.html" target="_top" xlink:title="validator">
<polygon fill="none" stroke="black" points="207.12,-396 147.12,-396 147.12,-360 207.12,-360 207.12,-396"/>
<text text-anchor="middle" x="177.12" y="-375.5" font-family="Helvetica,sans-Serif" font-size="10.00">validator</text>
</a>
</g>
</g>
<!-- dir_f4f0951108b46b0bffdb59bcb5c11e91 -->
<g id="node2" class="node">
<title>dir_f4f0951108b46b0bffdb59bcb5c11e91</title>
<g id="a_node2"><a xlink:href="dir_f4f0951108b46b0bffdb59bcb5c11e91.html" target="_top" xlink:title="sbml">
<polygon fill="none" stroke="black" points="203.12,-540 149.12,-540 149.12,-504 203.12,-504 203.12,-540"/>
<text text-anchor="middle" x="176.12" y="-519.5" font-family="Helvetica,sans-Serif" font-size="10.00">sbml</text>
</a>
</g>
</g>
<!-- dir_f4f0951108b46b0bffdb59bcb5c11e91&#45;&gt;dir_a5f115cb95c3e5f9e4c1a9f0f6e79c1a -->
<g id="edge16" class="edge">
<title>dir_f4f0951108b46b0bffdb59bcb5c11e91&#45;&gt;dir_a5f115cb95c3e5f9e4c1a9f0f6e79c1a</title>
<path fill="none" stroke="black" d="M157.95,-503.68C149.23,-494.1 139.71,-481.43 135.12,-468 129.95,-452.86 129.86,-447.11 135.12,-432 138.65,-421.86 145.02,-412.19 151.76,-403.96"/>
<polygon fill="black" stroke="black" points="154.56,-406.07 158.52,-396.24 149.29,-401.46 154.56,-406.07"/>
<g id="a_edge16&#45;headlabel"><a xlink:href="dir_000032_000033.html" target="_top" xlink:title="6">
<text text-anchor="middle" x="154.33" y="-408.15" font-family="Helvetica,sans-Serif" font-size="10.00">6</text>
</a>
</g>
</g>
<!-- dir_ab1b1ffda98de0e92cf76dc2624b069b -->
<g id="node3" class="node">
<title>dir_ab1b1ffda98de0e92cf76dc2624b069b</title>
<g id="a_node3"><a xlink:href="dir_ab1b1ffda98de0e92cf76dc2624b069b.html" target="_top" xlink:title="extension">
<polygon fill="#eeeeff" stroke="black" points="208.62,-468 143.62,-468 143.62,-432 208.62,-432 208.62,-468"/>
<text text-anchor="middle" x="176.12" y="-447.5" font-family="Helvetica,sans-Serif" font-size="10.00">extension</text>
</a>
</g>
</g>
<!-- dir_f4f0951108b46b0bffdb59bcb5c11e91&#45;&gt;dir_ab1b1ffda98de0e92cf76dc2624b069b -->
<g id="edge17" class="edge">
<title>dir_f4f0951108b46b0bffdb59bcb5c11e91&#45;&gt;dir_ab1b1ffda98de0e92cf76dc2624b069b</title>
<path fill="none" stroke="black" d="M170.2,-503.7C169.41,-495.98 169.18,-486.71 169.52,-478.11"/>
<polygon fill="black" stroke="black" points="173.02,-478.32 170.22,-468.1 166.04,-477.84 173.02,-478.32"/>
<g id="a_edge17&#45;headlabel"><a xlink:href="dir_000032_000031.html" target="_top" xlink:title="6">
<text text-anchor="middle" x="175.6" y="-479.61" font-family="Helvetica,sans-Serif" font-size="10.00">6</text>
</a>
</g>
</g>
<!-- dir_48ff6375d03f1aa509a6e0480f966544 -->
<g id="node5" class="node">
<title>dir_48ff6375d03f1aa509a6e0480f966544</title>
<g id="a_node5"><a xlink:href="dir_48ff6375d03f1aa509a6e0480f966544.html" target="_top" xlink:title="math">
<polygon fill="none" stroke="black" points="91.12,-324 37.12,-324 37.12,-288 91.12,-288 91.12,-324"/>
<text text-anchor="middle" x="64.12" y="-303.5" font-family="Helvetica,sans-Serif" font-size="10.00">math</text>
</a>
</g>
</g>
<!-- dir_f4f0951108b46b0bffdb59bcb5c11e91&#45;&gt;dir_48ff6375d03f1aa509a6e0480f966544 -->
<g id="edge15" class="edge">
<title>dir_f4f0951108b46b0bffdb59bcb5c11e91&#45;&gt;dir_48ff6375d03f1aa509a6e0480f966544</title>
<path fill="none" stroke="black" d="M156.3,-503.88C132.22,-481.74 92.66,-440.67 75.12,-396 67.35,-376.23 64.74,-352.25 64,-334.16"/>
<polygon fill="black" stroke="black" points="67.49,-333.92 63.74,-324.01 60.49,-334.1 67.49,-333.92"/>
<g id="a_edge15&#45;headlabel"><a xlink:href="dir_000032_000008.html" target="_top" xlink:title="2">
<text text-anchor="middle" x="70.42" y="-334.95" font-family="Helvetica,sans-Serif" font-size="10.00">2</text>
</a>
</g>
</g>
<!-- dir_c541d4b187fc5f863b4735b323978e0f -->
<g id="node7" class="node">
<title>dir_c541d4b187fc5f863b4735b323978e0f</title>
<g id="a_node7"><a xlink:href="dir_c541d4b187fc5f863b4735b323978e0f.html" target="_top" xlink:title="util">
<polygon fill="none" stroke="black" points="217.12,-108 163.12,-108 163.12,-72 217.12,-72 217.12,-108"/>
<text text-anchor="middle" x="190.12" y="-87.5" font-family="Helvetica,sans-Serif" font-size="10.00">util</text>
</a>
</g>
</g>
<!-- dir_f4f0951108b46b0bffdb59bcb5c11e91&#45;&gt;dir_c541d4b187fc5f863b4735b323978e0f -->
<g id="edge18" class="edge">
<title>dir_f4f0951108b46b0bffdb59bcb5c11e91&#45;&gt;dir_c541d4b187fc5f863b4735b323978e0f</title>
<path fill="none" stroke="black" d="M203.46,-516.77C263.01,-505.83 399.12,-470.8 399.12,-379 399.12,-379 399.12,-379 399.12,-305 399.12,-207.4 286.47,-137.76 226.58,-107.64"/>
<polygon fill="black" stroke="black" points="227.96,-104.42 217.44,-103.14 224.87,-110.7 227.96,-104.42"/>
<g id="a_edge18&#45;headlabel"><a xlink:href="dir_000032_000013.html" target="_top" xlink:title="2">
<text text-anchor="middle" x="232.44" y="-100.96" font-family="Helvetica,sans-Serif" font-size="10.00">2</text>
</a>
</g>
</g>
<!-- dir_fd1e11fb0964f7346e999e146b0dfd59 -->
<g id="node9" class="node">
<title>dir_fd1e11fb0964f7346e999e146b0dfd59</title>
<g id="a_node9"><a xlink:href="dir_fd1e11fb0964f7346e999e146b0dfd59.html" target="_top" xlink:title="common">
<polygon fill="none" stroke="black" points="219.62,-36 160.62,-36 160.62,0 219.62,0 219.62,-36"/>
<text text-anchor="middle" x="190.12" y="-15.5" font-family="Helvetica,sans-Serif" font-size="10.00">common</text>
</a>
</g>
</g>
<!-- dir_f4f0951108b46b0bffdb59bcb5c11e91&#45;&gt;dir_fd1e11fb0964f7346e999e146b0dfd59 -->
<g id="edge19" class="edge">
<title>dir_f4f0951108b46b0bffdb59bcb5c11e91&#45;&gt;dir_fd1e11fb0964f7346e999e146b0dfd59</title>
<path fill="none" stroke="black" d="M203.56,-518.88C270.57,-512.06 437.12,-484.49 437.12,-379 437.12,-379 437.12,-379 437.12,-161 437.12,-66.67 300.04,-34.08 230.12,-23.59"/>
<polygon fill="black" stroke="black" points="230.31,-20.08 219.91,-22.14 229.32,-27.01 230.31,-20.08"/>
<g id="a_edge19&#45;headlabel"><a xlink:href="dir_000032_000017.html" target="_top" xlink:title="12">
<text text-anchor="middle" x="234.26" y="-15.27" font-family="Helvetica,sans-Serif" font-size="10.00">12</text>
</a>
</g>
</g>
<!-- dir_ab1b1ffda98de0e92cf76dc2624b069b&#45;&gt;dir_a5f115cb95c3e5f9e4c1a9f0f6e79c1a -->
<g id="edge10" class="edge">
<title>dir_ab1b1ffda98de0e92cf76dc2624b069b&#45;&gt;dir_a5f115cb95c3e5f9e4c1a9f0f6e79c1a</title>
<path fill="none" stroke="black" d="M176.37,-431.7C176.48,-423.98 176.61,-414.71 176.73,-406.11"/>
<polygon fill="black" stroke="black" points="180.23,-406.15 176.88,-396.1 173.23,-406.05 180.23,-406.15"/>
<g id="a_edge10&#45;headlabel"><a xlink:href="dir_000031_000033.html" target="_top" xlink:title="5">
<text text-anchor="middle" x="183.02" y="-407.29" font-family="Helvetica,sans-Serif" font-size="10.00">5</text>
</a>
</g>
</g>
<!-- dir_ab1b1ffda98de0e92cf76dc2624b069b&#45;&gt;dir_f4f0951108b46b0bffdb59bcb5c11e91 -->
<g id="edge13" class="edge">
<title>dir_ab1b1ffda98de0e92cf76dc2624b069b&#45;&gt;dir_f4f0951108b46b0bffdb59bcb5c11e91</title>
<path fill="none" stroke="black" d="M182.01,-468.1C182.82,-475.79 183.06,-485.05 182.72,-493.67"/>
<polygon fill="black" stroke="black" points="179.23,-493.48 182.04,-503.7 186.21,-493.96 179.23,-493.48"/>
<g id="a_edge13&#45;headlabel"><a xlink:href="dir_000031_000032.html" target="_top" xlink:title="2">
<text text-anchor="middle" x="176.64" y="-487.2" font-family="Helvetica,sans-Serif" font-size="10.00">2</text>
</a>
</g>
</g>
<!-- dir_3f96c34ad80e9031c68706862fabf1a4 -->
<g id="node4" class="node">
<title>dir_3f96c34ad80e9031c68706862fabf1a4</title>
<g id="a_node4"><a xlink:href="dir_3f96c34ad80e9031c68706862fabf1a4.html" target="_top" xlink:title="extension">
<polygon fill="none" stroke="black" points="180.62,-252 115.62,-252 115.62,-216 180.62,-216 180.62,-252"/>
<text text-anchor="middle" x="148.12" y="-231.5" font-family="Helvetica,sans-Serif" font-size="10.00">extension</text>
</a>
</g>
</g>
<!-- dir_ab1b1ffda98de0e92cf76dc2624b069b&#45;&gt;dir_3f96c34ad80e9031c68706862fabf1a4 -->
<g id="edge7" class="edge">
<title>dir_ab1b1ffda98de0e92cf76dc2624b069b&#45;&gt;dir_3f96c34ad80e9031c68706862fabf1a4</title>
<path fill="none" stroke="black" d="M159.66,-431.92C151.47,-422.22 142.42,-409.37 138.12,-396 123.58,-350.77 132.7,-294.79 140.51,-262.16"/>
<polygon fill="black" stroke="black" points="143.91,-262.99 142.97,-252.43 137.12,-261.27 143.91,-262.99"/>
<g id="a_edge7&#45;headlabel"><a xlink:href="dir_000031_000007.html" target="_top" xlink:title="10">
<text text-anchor="middle" x="145.78" y="-264.67" font-family="Helvetica,sans-Serif" font-size="10.00">10</text>
</a>
</g>
</g>
<!-- dir_ab1b1ffda98de0e92cf76dc2624b069b&#45;&gt;dir_48ff6375d03f1aa509a6e0480f966544 -->
<g id="edge8" class="edge">
<title>dir_ab1b1ffda98de0e92cf76dc2624b069b&#45;&gt;dir_48ff6375d03f1aa509a6e0480f966544</title>
<path fill="none" stroke="black" d="M146.78,-431.93C132.79,-422.68 116.64,-410.23 105.12,-396 90.13,-377.48 79.27,-352.59 72.5,-333.83"/>
<polygon fill="black" stroke="black" points="75.73,-332.45 69.17,-324.13 69.11,-334.72 75.73,-332.45"/>
<g id="a_edge8&#45;headlabel"><a xlink:href="dir_000031_000008.html" target="_top" xlink:title="2">
<text text-anchor="middle" x="79.58" y="-332.42" font-family="Helvetica,sans-Serif" font-size="10.00">2</text>
</a>
</g>
</g>
<!-- dir_5cbb9a0bf548abf0d2e32772c73d2ad6 -->
<g id="node6" class="node">
<title>dir_5cbb9a0bf548abf0d2e32772c73d2ad6</title>
<g id="a_node6"><a xlink:href="dir_5cbb9a0bf548abf0d2e32772c73d2ad6.html" target="_top" xlink:title="xml">
<polygon fill="none" stroke="black" points="67.12,-180 13.12,-180 13.12,-144 67.12,-144 67.12,-180"/>
<text text-anchor="middle" x="40.12" y="-159.5" font-family="Helvetica,sans-Serif" font-size="10.00">xml</text>
</a>
</g>
</g>
<!-- dir_ab1b1ffda98de0e92cf76dc2624b069b&#45;&gt;dir_5cbb9a0bf548abf0d2e32772c73d2ad6 -->
<g id="edge9" class="edge">
<title>dir_ab1b1ffda98de0e92cf76dc2624b069b&#45;&gt;dir_5cbb9a0bf548abf0d2e32772c73d2ad6</title>
<path fill="none" stroke="black" d="M143.48,-436.92C122.31,-427.94 95.05,-414.12 75.12,-396 46.84,-370.29 39.02,-360.63 28.12,-324 14.56,-278.43 24.24,-222.55 32.32,-190.04"/>
<polygon fill="black" stroke="black" points="35.71,-190.91 34.85,-180.35 28.93,-189.14 35.71,-190.91"/>
<g id="a_edge9&#45;headlabel"><a xlink:href="dir_000031_000035.html" target="_top" xlink:title="1">
<text text-anchor="middle" x="37.54" y="-192.61" font-family="Helvetica,sans-Serif" font-size="10.00">1</text>
</a>
</g>
</g>
<!-- dir_ab1b1ffda98de0e92cf76dc2624b069b&#45;&gt;dir_c541d4b187fc5f863b4735b323978e0f -->
<g id="edge11" class="edge">
<title>dir_ab1b1ffda98de0e92cf76dc2624b069b&#45;&gt;dir_c541d4b187fc5f863b4735b323978e0f</title>
<path fill="none" stroke="black" d="M208.75,-445.54C239.2,-440.38 283,-427.6 304.12,-396 366.69,-302.37 262.86,-169.78 213.7,-115.55"/>
<polygon fill="black" stroke="black" points="216.22,-113.12 206.87,-108.13 211.07,-117.86 216.22,-113.12"/>
<g id="a_edge11&#45;headlabel"><a xlink:href="dir_000031_000013.html" target="_top" xlink:title="1">
<text text-anchor="middle" x="220.75" y="-111.34" font-family="Helvetica,sans-Serif" font-size="10.00">1</text>
</a>
</g>
</g>
<!-- dir_d3b86ce335ad818909ececff0fac1eca -->
<g id="node8" class="node">
<title>dir_d3b86ce335ad818909ececff0fac1eca</title>
<g id="a_node8"><a xlink:href="dir_d3b86ce335ad818909ececff0fac1eca.html" target="_top" xlink:title="conversion">
<polygon fill="none" stroke="black" points="295.12,-396 225.12,-396 225.12,-360 295.12,-360 295.12,-396"/>
<text text-anchor="middle" x="260.12" y="-375.5" font-family="Helvetica,sans-Serif" font-size="10.00">conversion</text>
</a>
</g>
</g>
<!-- dir_ab1b1ffda98de0e92cf76dc2624b069b&#45;&gt;dir_d3b86ce335ad818909ececff0fac1eca -->
<g id="edge12" class="edge">
<title>dir_ab1b1ffda98de0e92cf76dc2624b069b&#45;&gt;dir_d3b86ce335ad818909ececff0fac1eca</title>
<path fill="none" stroke="black" d="M196.88,-431.7C207.36,-422.97 220.23,-412.24 231.62,-402.75"/>
<polygon fill="black" stroke="black" points="234.15,-405.19 239.59,-396.1 229.67,-399.82 234.15,-405.19"/>
<g id="a_edge12&#45;headlabel"><a xlink:href="dir_000031_000026.html" target="_top" xlink:title="1">
<text text-anchor="middle" x="233.21" y="-407.18" font-family="Helvetica,sans-Serif" font-size="10.00">1</text>
</a>
</g>
</g>
<!-- dir_ab1b1ffda98de0e92cf76dc2624b069b&#45;&gt;dir_fd1e11fb0964f7346e999e146b0dfd59 -->
<g id="edge14" class="edge">
<title>dir_ab1b1ffda98de0e92cf76dc2624b069b&#45;&gt;dir_fd1e11fb0964f7346e999e146b0dfd59</title>
<path fill="none" stroke="black" d="M208.92,-445.38C242.41,-440.05 293.93,-427.08 326.12,-396 356.7,-366.48 361.12,-349.5 361.12,-307 361.12,-307 361.12,-307 361.12,-161 361.12,-92.99 280.07,-51.32 229.57,-31.95"/>
<polygon fill="black" stroke="black" points="230.5,-28.57 219.91,-28.38 228.07,-35.13 230.5,-28.57"/>
<g id="a_edge14&#45;headlabel"><a xlink:href="dir_000031_000017.html" target="_top" xlink:title="3">
<text text-anchor="middle" x="234.86" y="-24.65" font-family="Helvetica,sans-Serif" font-size="10.00">3</text>
</a>
</g>
</g>
<!-- dir_3f96c34ad80e9031c68706862fabf1a4&#45;&gt;dir_5cbb9a0bf548abf0d2e32772c73d2ad6 -->
<g id="edge26" class="edge">
<title>dir_3f96c34ad80e9031c68706862fabf1a4&#45;&gt;dir_5cbb9a0bf548abf0d2e32772c73d2ad6</title>
<path fill="none" stroke="black" d="M121.7,-215.88C107.71,-206.81 90.34,-195.55 75.23,-185.76"/>
<polygon fill="black" stroke="black" points="76.94,-182.69 66.64,-180.19 73.13,-188.57 76.94,-182.69"/>
<g id="a_edge26&#45;headlabel"><a xlink:href="dir_000007_000035.html" target="_top" xlink:title="2">
<text text-anchor="middle" x="81.5" y="-179.76" font-family="Helvetica,sans-Serif" font-size="10.00">2</text>
</a>
</g>
</g>
<!-- dir_3f96c34ad80e9031c68706862fabf1a4&#45;&gt;dir_c541d4b187fc5f863b4735b323978e0f -->
<g id="edge27" class="edge">
<title>dir_3f96c34ad80e9031c68706862fabf1a4&#45;&gt;dir_c541d4b187fc5f863b4735b323978e0f</title>
<path fill="none" stroke="black" d="M153.19,-215.87C160.38,-191.56 173.61,-146.82 182.13,-118.01"/>
<polygon fill="black" stroke="black" points="185.56,-118.77 185.04,-108.19 178.84,-116.79 185.56,-118.77"/>
<g id="a_edge27&#45;headlabel"><a xlink:href="dir_000007_000013.html" target="_top" xlink:title="4">
<text text-anchor="middle" x="187.26" y="-120.52" font-family="Helvetica,sans-Serif" font-size="10.00">4</text>
</a>
</g>
</g>
<!-- dir_3f96c34ad80e9031c68706862fabf1a4&#45;&gt;dir_fd1e11fb0964f7346e999e146b0dfd59 -->
<g id="edge28" class="edge">
<title>dir_3f96c34ad80e9031c68706862fabf1a4&#45;&gt;dir_fd1e11fb0964f7346e999e146b0dfd59</title>
<path fill="none" stroke="black" d="M145.7,-215.53C142.18,-185.37 137.73,-121.97 154.12,-72 157.31,-62.27 162.86,-52.69 168.66,-44.4"/>
<polygon fill="black" stroke="black" points="171.54,-46.4 174.71,-36.29 165.92,-42.22 171.54,-46.4"/>
<g id="a_edge28&#45;headlabel"><a xlink:href="dir_000007_000017.html" target="_top" xlink:title="9">
<text text-anchor="middle" x="171.67" y="-48.48" font-family="Helvetica,sans-Serif" font-size="10.00">9</text>
</a>
</g>
</g>
<!-- dir_48ff6375d03f1aa509a6e0480f966544&#45;&gt;dir_3f96c34ad80e9031c68706862fabf1a4 -->
<g id="edge20" class="edge">
<title>dir_48ff6375d03f1aa509a6e0480f966544&#45;&gt;dir_3f96c34ad80e9031c68706862fabf1a4</title>
<path fill="none" stroke="black" d="M84.88,-287.7C95.36,-278.97 108.23,-268.24 119.62,-258.75"/>
<polygon fill="black" stroke="black" points="122.15,-261.19 127.59,-252.1 117.67,-255.82 122.15,-261.19"/>
<g id="a_edge20&#45;headlabel"><a xlink:href="dir_000008_000007.html" target="_top" xlink:title="6">
<text text-anchor="middle" x="121.21" y="-263.18" font-family="Helvetica,sans-Serif" font-size="10.00">6</text>
</a>
</g>
</g>
<!-- dir_48ff6375d03f1aa509a6e0480f966544&#45;&gt;dir_5cbb9a0bf548abf0d2e32772c73d2ad6 -->
<g id="edge21" class="edge">
<title>dir_48ff6375d03f1aa509a6e0480f966544&#45;&gt;dir_5cbb9a0bf548abf0d2e32772c73d2ad6</title>
<path fill="none" stroke="black" d="M61.22,-287.87C57.13,-263.67 49.62,-219.21 44.75,-190.39"/>
<polygon fill="black" stroke="black" points="48.14,-189.47 43.03,-180.19 41.24,-190.63 48.14,-189.47"/>
<g id="a_edge21&#45;headlabel"><a xlink:href="dir_000008_000035.html" target="_top" xlink:title="6">
<text text-anchor="middle" x="51.54" y="-190.04" font-family="Helvetica,sans-Serif" font-size="10.00">6</text>
</a>
</g>
</g>
<!-- dir_48ff6375d03f1aa509a6e0480f966544&#45;&gt;dir_c541d4b187fc5f863b4735b323978e0f -->
<g id="edge22" class="edge">
<title>dir_48ff6375d03f1aa509a6e0480f966544&#45;&gt;dir_c541d4b187fc5f863b4735b323978e0f</title>
<path fill="none" stroke="black" d="M71.54,-287.92C79.62,-269.74 93.27,-240.3 107.12,-216 127.43,-180.37 154.15,-141.29 171.72,-116.48"/>
<polygon fill="black" stroke="black" points="174.57,-118.5 177.52,-108.32 168.87,-114.44 174.57,-118.5"/>
<g id="a_edge22&#45;headlabel"><a xlink:href="dir_000008_000013.html" target="_top" xlink:title="11">
<text text-anchor="middle" x="174.8" y="-120.57" font-family="Helvetica,sans-Serif" font-size="10.00">11</text>
</a>
</g>
</g>
<!-- dir_48ff6375d03f1aa509a6e0480f966544&#45;&gt;dir_fd1e11fb0964f7346e999e146b0dfd59 -->
<g id="edge23" class="edge">
<title>dir_48ff6375d03f1aa509a6e0480f966544&#45;&gt;dir_fd1e11fb0964f7346e999e146b0dfd59</title>
<path fill="none" stroke="black" d="M49.81,-287.83C27.28,-258.64 -12.3,-197.31 4.12,-144 15.51,-107.01 22.81,-96.07 53.12,-72 81.79,-49.23 121.39,-35.33 150.65,-27.51"/>
<polygon fill="black" stroke="black" points="151.7,-30.86 160.53,-25 149.98,-24.07 151.7,-30.86"/>
<g id="a_edge23&#45;headlabel"><a xlink:href="dir_000008_000017.html" target="_top" xlink:title="21">
<text text-anchor="middle" x="148.92" y="-31.99" font-family="Helvetica,sans-Serif" font-size="10.00">21</text>
</a>
</g>
</g>
<!-- dir_5cbb9a0bf548abf0d2e32772c73d2ad6&#45;&gt;dir_c541d4b187fc5f863b4735b323978e0f -->
<g id="edge24" class="edge">
<title>dir_5cbb9a0bf548abf0d2e32772c73d2ad6&#45;&gt;dir_c541d4b187fc5f863b4735b323978e0f</title>
<path fill="none" stroke="black" d="M67.28,-148.32C91.42,-137.06 126.9,-120.5 153.53,-108.07"/>
<polygon fill="black" stroke="black" points="155.32,-111.1 162.9,-103.7 152.36,-104.76 155.32,-111.1"/>
<g id="a_edge24&#45;headlabel"><a xlink:href="dir_000035_000013.html" target="_top" xlink:title="5">
<text text-anchor="middle" x="153.27" y="-112.69" font-family="Helvetica,sans-Serif" font-size="10.00">5</text>
</a>
</g>
</g>
<!-- dir_5cbb9a0bf548abf0d2e32772c73d2ad6&#45;&gt;dir_fd1e11fb0964f7346e999e146b0dfd59 -->
<g id="edge25" class="edge">
<title>dir_5cbb9a0bf548abf0d2e32772c73d2ad6&#45;&gt;dir_fd1e11fb0964f7346e999e146b0dfd59</title>
<path fill="none" stroke="black" d="M44.23,-143.92C49.71,-124.37 61.12,-92.42 81.12,-72 100.23,-52.49 127.98,-39.14 150.7,-30.72"/>
<polygon fill="black" stroke="black" points="152.14,-33.92 160.41,-27.3 149.81,-27.32 152.14,-33.92"/>
<g id="a_edge25&#45;headlabel"><a xlink:href="dir_000035_000017.html" target="_top" xlink:title="16">
<text text-anchor="middle" x="149.69" y="-35.29" font-family="Helvetica,sans-Serif" font-size="10.00">16</text>
</a>
</g>
</g>
<!-- dir_c541d4b187fc5f863b4735b323978e0f&#45;&gt;dir_fd1e11fb0964f7346e999e146b0dfd59 -->
<g id="edge2" class="edge">
<title>dir_c541d4b187fc5f863b4735b323978e0f&#45;&gt;dir_fd1e11fb0964f7346e999e146b0dfd59</title>
<path fill="none" stroke="black" d="M184.2,-71.7C183.41,-63.98 183.18,-54.71 183.52,-46.11"/>
<polygon fill="black" stroke="black" points="187.02,-46.32 184.22,-36.1 180.04,-45.84 187.02,-46.32"/>
<g id="a_edge2&#45;headlabel"><a xlink:href="dir_000013_000017.html" target="_top" xlink:title="6">
<text text-anchor="middle" x="189.6" y="-47.61" font-family="Helvetica,sans-Serif" font-size="10.00">6</text>
</a>
</g>
</g>
<!-- dir_d3b86ce335ad818909ececff0fac1eca&#45;&gt;dir_3f96c34ad80e9031c68706862fabf1a4 -->
<g id="edge3" class="edge">
<title>dir_d3b86ce335ad818909ececff0fac1eca&#45;&gt;dir_3f96c34ad80e9031c68706862fabf1a4</title>
<path fill="none" stroke="black" d="M234.59,-359.93C221.67,-350.42 206.38,-337.74 195.12,-324 179.63,-305.09 167.04,-280.28 158.8,-261.66"/>
<polygon fill="black" stroke="black" points="161.94,-260.1 154.79,-252.29 155.51,-262.86 161.94,-260.1"/>
<g id="a_edge3&#45;headlabel"><a xlink:href="dir_000026_000007.html" target="_top" xlink:title="5">
<text text-anchor="middle" x="165.97" y="-259.79" font-family="Helvetica,sans-Serif" font-size="10.00">5</text>
</a>
</g>
</g>
<!-- dir_d3b86ce335ad818909ececff0fac1eca&#45;&gt;dir_48ff6375d03f1aa509a6e0480f966544 -->
<g id="edge4" class="edge">
<title>dir_d3b86ce335ad818909ececff0fac1eca&#45;&gt;dir_48ff6375d03f1aa509a6e0480f966544</title>
<path fill="none" stroke="black" d="M235.98,-360C231.19,-357.07 226.1,-354.25 221.12,-352 181.84,-334.24 133.83,-321.7 101.33,-314.45"/>
<polygon fill="black" stroke="black" points="101.86,-310.98 91.35,-312.28 100.38,-317.82 101.86,-310.98"/>
<g id="a_edge4&#45;headlabel"><a xlink:href="dir_000026_000008.html" target="_top" xlink:title="12">
<text text-anchor="middle" x="105.98" y="-306.47" font-family="Helvetica,sans-Serif" font-size="10.00">12</text>
</a>
</g>
</g>
<!-- dir_d3b86ce335ad818909ececff0fac1eca&#45;&gt;dir_c541d4b187fc5f863b4735b323978e0f -->
<g id="edge5" class="edge">
<title>dir_d3b86ce335ad818909ececff0fac1eca&#45;&gt;dir_c541d4b187fc5f863b4735b323978e0f</title>
<path fill="none" stroke="black" d="M255.95,-359.97C244.26,-312.19 211.08,-176.62 196.79,-118.27"/>
<polygon fill="black" stroke="black" points="200.13,-117.19 194.36,-108.31 193.33,-118.85 200.13,-117.19"/>
<g id="a_edge5&#45;headlabel"><a xlink:href="dir_000026_000013.html" target="_top" xlink:title="11">
<text text-anchor="middle" x="203.75" y="-117.5" font-family="Helvetica,sans-Serif" font-size="10.00">11</text>
</a>
</g>
</g>
<!-- dir_d3b86ce335ad818909ececff0fac1eca&#45;&gt;dir_fd1e11fb0964f7346e999e146b0dfd59 -->
<g id="edge6" class="edge">
<title>dir_d3b86ce335ad818909ececff0fac1eca&#45;&gt;dir_fd1e11fb0964f7346e999e146b0dfd59</title>
<path fill="none" stroke="black" d="M265.18,-359.68C272.48,-333.11 285.12,-280.56 285.12,-235 285.12,-235 285.12,-235 285.12,-161 285.12,-113.01 247.18,-68.96 219.25,-43.04"/>
<polygon fill="black" stroke="black" points="221.45,-40.31 211.68,-36.22 216.77,-45.52 221.45,-40.31"/>
<g id="a_edge6&#45;headlabel"><a xlink:href="dir_000026_000017.html" target="_top" xlink:title="6">
<text text-anchor="middle" x="226.02" y="-38.11" font-family="Helvetica,sans-Serif" font-size="10.00">6</text>
</a>
</g>
</g>
<!-- dir_fd1e11fb0964f7346e999e146b0dfd59&#45;&gt;dir_c541d4b187fc5f863b4735b323978e0f -->
<g id="edge1" class="edge">
<title>dir_fd1e11fb0964f7346e999e146b0dfd59&#45;&gt;dir_c541d4b187fc5f863b4735b323978e0f</title>
<path fill="none" stroke="black" d="M196.01,-36.1C196.82,-43.79 197.06,-53.05 196.72,-61.67"/>
<polygon fill="black" stroke="black" points="193.23,-61.48 196.04,-71.7 200.21,-61.96 193.23,-61.48"/>
<g id="a_edge1&#45;headlabel"><a xlink:href="dir_000017_000013.html" target="_top" xlink:title="2">
<text text-anchor="middle" x="190.64" y="-55.2" font-family="Helvetica,sans-Serif" font-size="10.00">2</text>
</a>
</g>
</g>
</g>
</svg>
        <g id="navigator" transform="translate(0 0)" fill="#404254">
                <rect fill="#f2f5e9" fill-opacity="0.5" stroke="#606060" stroke-width=".5" x="0" y="0" width="60" height="60"/>
                <use id="zoomplus" xlink:href="#zoomPlus" x="17" y="9" onmousedown="handleZoom(evt,'in')"/>
                <use id="zoomminus" xlink:href="#zoomMin" x="42" y="9" onmousedown="handleZoom(evt,'out')"/>
                <use id="reset" xlink:href="#resetDef" x="30" y="36" onmousedown="handleReset()"/>
                <g id="arrowUp" xlink:href="#dirArrow" transform="translate(30 24)" onmousedown="handlePan(0,-1)">
                  <use xlink:href="#rim" fill="#404040">
                        <set attributeName="fill" to="#808080" begin="arrowUp.mouseover" end="arrowUp.mouseout"/>
                  </use>
                  <path fill="none" stroke="white" stroke-width="1.5" d="M0,-3.0v7 M-2.5,-0.5L0,-3.0L2.5,-0.5"/>
                </g>
                <g id="arrowRight" xlink:href="#dirArrow" transform="rotate(90) translate(36 -43)" onmousedown="handlePan(1,0)">
                  <use xlink:href="#rim" fill="#404040">
                        <set attributeName="fill" to="#808080" begin="arrowRight.mouseover" end="arrowRight.mouseout"/>
                  </use>
                  <path fill="none" stroke="white" stroke-width="1.5" d="M0,-3.0v7 M-2.5,-0.5L0,-3.0L2.5,-0.5"/>
                </g>
                <g id="arrowDown" xlink:href="#dirArrow" transform="rotate(180) translate(-30 -48)" onmousedown="handlePan(0,1)">
                  <use xlink:href="#rim" fill="#404040">
                        <set attributeName="fill" to="#808080" begin="arrowDown.mouseover" end="arrowDown.mouseout"/>
                  </use>
                  <path fill="none" stroke="white" stroke-width="1.5" d="M0,-3.0v7 M-2.5,-0.5L0,-3.0L2.5,-0.5"/>
                </g>
                <g id="arrowLeft" xlink:href="#dirArrow" transform="rotate(270) translate(-36 17)" onmousedown="handlePan(-1,0)">
                  <use xlink:href="#rim" fill="#404040">
                        <set attributeName="fill" to="#808080" begin="arrowLeft.mouseover" end="arrowLeft.mouseout"/>
                  </use>
                  <path fill="none" stroke="white" stroke-width="1.5" d="M0,-3.0v7 M-2.5,-0.5L0,-3.0L2.5,-0.5"/>
                </g>
        </g>
        <svg viewBox="0 0 15 15" width="100%" height="30px" preserveAspectRatio="xMaxYMin meet">
         <g id="arrow_out" transform="scale(0.3 0.3)">
          <a xlink:href="dir_ab1b1ffda98de0e92cf76dc2624b069b_dep_org.svg" target="_base">
           <rect id="button" ry="5" rx="5" y="6" x="6" height="38" width="38"
                fill="#f2f5e9" fill-opacity="0.5" stroke="#606060" stroke-width="1.0"/>
           <path id="arrow"
             d="M 11.500037,31.436501 C 11.940474,20.09759 22.043105,11.32322 32.158766,21.979434 L 37.068811,17.246167 C 37.068811,17.246167 37.088388,32 37.088388,32 L 22.160133,31.978069 C 22.160133,31.978069 26.997745,27.140456 26.997745,27.140456 C 18.528582,18.264221 13.291696,25.230495 11.500037,31.436501 z"
             style="fill:#404040;"/>
          </a>
         </g>
        </svg>
</svg>
