<?xml version="1.0" encoding="UTF-8" standalone="no"?>
<!DOCTYPE svg PUBLIC "-//W3C//DTD SVG 1.1//EN"
 "http://www.w3.org/Graphics/SVG/1.1/DTD/svg11.dtd">
<!-- Generated by graphviz version 2.43.0 (0)
 -->
<!-- Title: common Pages: 1 -->
<svg width="120pt" height="239pt"
 viewBox="0.00 0.00 120.00 239.00" xmlns="http://www.w3.org/2000/svg" xmlns:xlink="http://www.w3.org/1999/xlink">
<g id="graph0" class="graph" transform="scale(1 1) rotate(0) translate(4 235)">
<title>common</title>
<polygon fill="white" stroke="transparent" points="-4,4 -4,-235 116,-235 116,4 -4,4"/>
<g id="clust1" class="cluster">
<title>clusterdir_0a90ca78c76a6bb683a2fd4a8c3281f8</title>
<g id="a_clust1"><a xlink:href="dir_0a90ca78c76a6bb683a2fd4a8c3281f8.html" target="_top" xlink:title="qual">
<polygon fill="#ddddee" stroke="black" points="8,-8 8,-223 104,-223 104,-8 8,-8"/>
<text text-anchor="middle" x="56" y="-211" font-family="Helvetica,sans-Serif" font-size="10.00">qual</text>
</a>
</g>
</g>
<!-- dir_aa5aa98f6df5b802bb45e20a57604d12 -->
<g id="node1" class="node">
<title>dir_aa5aa98f6df5b802bb45e20a57604d12</title>
<g id="a_node1"><a xlink:href="dir_aa5aa98f6df5b802bb45e20a57604d12.html" target="_top" xlink:title="sbml">
<polygon fill="none" stroke="black" points="81,-196 27,-196 27,-160 81,-160 81,-196"/>
<text text-anchor="middle" x="54" y="-175.5" font-family="Helvetica,sans-Serif" font-size="10.00">sbml</text>
</a>
</g>
</g>
<!-- dir_eda3612caf036758c7e7b2fe6230660c -->
<g id="node2" class="node">
<title>dir_eda3612caf036758c7e7b2fe6230660c</title>
<g id="a_node2"><a xlink:href="dir_eda3612caf036758c7e7b2fe6230660c.html" target="_top" xlink:title="extension">
<polygon fill="none" stroke="black" points="81.5,-52 16.5,-52 16.5,-16 81.5,-16 81.5,-52"/>
<text text-anchor="middle" x="49" y="-31.5" font-family="Helvetica,sans-Serif" font-size="10.00">extension</text>
</a>
</g>
</g>
<!-- dir_aa5aa98f6df5b802bb45e20a57604d12&#45;&gt;dir_eda3612caf036758c7e7b2fe6230660c -->
<g id="edge1" class="edge">
<title>dir_aa5aa98f6df5b802bb45e20a57604d12&#45;&gt;dir_eda3612caf036758c7e7b2fe6230660c</title>
<path fill="none" stroke="black" d="M34.61,-159.67C27.63,-149.69 21.04,-136.65 18,-124 14.27,-108.44 14.87,-103.69 18,-88 19.81,-78.91 23.21,-69.43 27.23,-61.05"/>
<polygon fill="black" stroke="black" points="30.38,-62.59 31.99,-52.12 24.2,-59.3 30.38,-62.59"/>
<g id="a_edge1&#45;headlabel"><a xlink:href="dir_000029_000052.html" target="_top" xlink:title="6">
<text text-anchor="middle" x="31.19" y="-64.6" font-family="Helvetica,sans-Serif" font-size="10.00">6</text>
</a>
</g>
</g>
<!-- dir_fd5d7134f4fc3905912ada7aa4b1e1cf -->
<g id="node3" class="node">
<title>dir_fd5d7134f4fc3905912ada7aa4b1e1cf</title>
<g id="a_node3"><a xlink:href="dir_fd5d7134f4fc3905912ada7aa4b1e1cf.html" target="_top" xlink:title="common">
<polygon fill="#eeeeff" stroke="black" points="95.5,-124 36.5,-124 36.5,-88 95.5,-88 95.5,-124"/>
<text text-anchor="middle" x="66" y="-103.5" font-family="Helvetica,sans-Serif" font-size="10.00">common</text>
</a>
</g>
</g>
<!-- dir_aa5aa98f6df5b802bb45e20a57604d12&#45;&gt;dir_fd5d7134f4fc3905912ada7aa4b1e1cf -->
<g id="edge2" class="edge">
<title>dir_aa5aa98f6df5b802bb45e20a57604d12&#45;&gt;dir_fd5d7134f4fc3905912ada7aa4b1e1cf</title>
<path fill="none" stroke="black" d="M51.05,-159.7C51.58,-151.9 52.97,-142.51 54.82,-133.83"/>
<polygon fill="black" stroke="black" points="58.22,-134.65 57.17,-124.1 51.42,-133 58.22,-134.65"/>
<g id="a_edge2&#45;headlabel"><a xlink:href="dir_000029_000053.html" target="_top" xlink:title="6">
<text text-anchor="middle" x="60.13" y="-136.31" font-family="Helvetica,sans-Serif" font-size="10.00">6</text>
</a>
</g>
</g>
<!-- dir_eda3612caf036758c7e7b2fe6230660c&#45;&gt;dir_aa5aa98f6df5b802bb45e20a57604d12 -->
<g id="edge5" class="edge">
<title>dir_eda3612caf036758c7e7b2fe6230660c&#45;&gt;dir_aa5aa98f6df5b802bb45e20a57604d12</title>
<path fill="none" stroke="black" d="M47.74,-52.12C43.99,-62.24 38.49,-75.49 36,-88 32.87,-103.69 32.27,-108.44 36,-124 38.18,-133.09 42.2,-142.39 46.08,-150.6"/>
<polygon fill="black" stroke="black" points="42.96,-152.18 50.46,-159.67 49.26,-149.14 42.96,-152.18"/>
<g id="a_edge5&#45;headlabel"><a xlink:href="dir_000052_000029.html" target="_top" xlink:title="2">
<text text-anchor="middle" x="38.84" y="-147.68" font-family="Helvetica,sans-Serif" font-size="10.00">2</text>
</a>
</g>
</g>
<!-- dir_fd5d7134f4fc3905912ada7aa4b1e1cf&#45;&gt;dir_aa5aa98f6df5b802bb45e20a57604d12 -->
<g id="edge3" class="edge">
<title>dir_fd5d7134f4fc3905912ada7aa4b1e1cf&#45;&gt;dir_aa5aa98f6df5b802bb45e20a57604d12</title>
<path fill="none" stroke="black" d="M68.96,-124.1C68.44,-131.88 67.07,-141.26 65.23,-149.95"/>
<polygon fill="black" stroke="black" points="61.82,-149.16 62.88,-159.7 68.63,-150.79 61.82,-149.16"/>
<g id="a_edge3&#45;headlabel"><a xlink:href="dir_000053_000029.html" target="_top" xlink:title="6">
<text text-anchor="middle" x="59.9" y="-142.5" font-family="Helvetica,sans-Serif" font-size="10.00">6</text>
</a>
</g>
</g>
<!-- dir_fd5d7134f4fc3905912ada7aa4b1e1cf&#45;&gt;dir_eda3612caf036758c7e7b2fe6230660c -->
<g id="edge4" class="edge">
<title>dir_fd5d7134f4fc3905912ada7aa4b1e1cf&#45;&gt;dir_eda3612caf036758c7e7b2fe6230660c</title>
<path fill="none" stroke="black" d="M61.8,-87.7C59.9,-79.9 57.62,-70.51 55.52,-61.83"/>
<polygon fill="black" stroke="black" points="58.92,-61 53.15,-52.1 52.11,-62.65 58.92,-61"/>
<g id="a_edge4&#45;headlabel"><a xlink:href="dir_000053_000052.html" target="_top" xlink:title="3">
<text text-anchor="middle" x="62.52" y="-61.32" font-family="Helvetica,sans-Serif" font-size="10.00">3</text>
</a>
</g>
</g>
</g>
</svg>
