<?xml version="1.0" encoding="UTF-8" standalone="no"?>
<!DOCTYPE svg PUBLIC "-//W3C//DTD SVG 1.1//EN"
 "http://www.w3.org/Graphics/SVG/1.1/DTD/svg11.dtd">
<!-- Generated by graphviz version 2.43.0 (0)
 -->
<!-- Title: util Pages: 1 -->
<svg width="100pt" height="167pt"
 viewBox="0.00 0.00 100.00 167.00" xmlns="http://www.w3.org/2000/svg" xmlns:xlink="http://www.w3.org/1999/xlink">
<g id="graph0" class="graph" transform="scale(1 1) rotate(0) translate(4 163)">
<title>util</title>
<polygon fill="white" stroke="transparent" points="-4,4 -4,-163 96,-163 96,4 -4,4"/>
<g id="clust1" class="cluster">
<title>clusterdir_a359a38bc464cff0ef8a57dc34360380</title>
<g id="a_clust1"><a xlink:href="dir_a359a38bc464cff0ef8a57dc34360380.html" target="_top" xlink:title="sbml">
<polygon fill="#ddddee" stroke="black" points="8,-8 8,-151 84,-151 84,-8 8,-8"/>
<text text-anchor="middle" x="46" y="-139" font-family="Helvetica,sans-Serif" font-size="10.00">sbml</text>
</a>
</g>
</g>
<!-- dir_fd1e11fb0964f7346e999e146b0dfd59 -->
<g id="node1" class="node">
<title>dir_fd1e11fb0964f7346e999e146b0dfd59</title>
<g id="a_node1"><a xlink:href="dir_fd1e11fb0964f7346e999e146b0dfd59.html" target="_top" xlink:title="common">
<polygon fill="none" stroke="black" points="75.5,-124 16.5,-124 16.5,-88 75.5,-88 75.5,-124"/>
<text text-anchor="middle" x="46" y="-103.5" font-family="Helvetica,sans-Serif" font-size="10.00">common</text>
</a>
</g>
</g>
<!-- dir_c541d4b187fc5f863b4735b323978e0f -->
<g id="node2" class="node">
<title>dir_c541d4b187fc5f863b4735b323978e0f</title>
<g id="a_node2"><a xlink:href="dir_c541d4b187fc5f863b4735b323978e0f.html" target="_top" xlink:title="util">
<polygon fill="#eeeeff" stroke="black" points="73,-52 19,-52 19,-16 73,-16 73,-52"/>
<text text-anchor="middle" x="46" y="-31.5" font-family="Helvetica,sans-Serif" font-size="10.00">util</text>
</a>
</g>
</g>
<!-- dir_fd1e11fb0964f7346e999e146b0dfd59&#45;&gt;dir_c541d4b187fc5f863b4735b323978e0f -->
<g id="edge1" class="edge">
<title>dir_fd1e11fb0964f7346e999e146b0dfd59&#45;&gt;dir_c541d4b187fc5f863b4735b323978e0f</title>
<path fill="none" stroke="black" d="M40.08,-87.7C39.29,-79.98 39.06,-70.71 39.4,-62.11"/>
<polygon fill="black" stroke="black" points="42.9,-62.32 40.1,-52.1 35.92,-61.84 42.9,-62.32"/>
<g id="a_edge1&#45;headlabel"><a xlink:href="dir_000017_000013.html" target="_top" xlink:title="2">
<text text-anchor="middle" x="45.48" y="-63.61" font-family="Helvetica,sans-Serif" font-size="10.00">2</text>
</a>
</g>
</g>
<!-- dir_c541d4b187fc5f863b4735b323978e0f&#45;&gt;dir_fd1e11fb0964f7346e999e146b0dfd59 -->
<g id="edge2" class="edge">
<title>dir_c541d4b187fc5f863b4735b323978e0f&#45;&gt;dir_fd1e11fb0964f7346e999e146b0dfd59</title>
<path fill="none" stroke="black" d="M51.9,-52.1C52.7,-59.79 52.94,-69.05 52.6,-77.67"/>
<polygon fill="black" stroke="black" points="49.11,-77.48 51.92,-87.7 56.09,-77.96 49.11,-77.48"/>
<g id="a_edge2&#45;headlabel"><a xlink:href="dir_000013_000017.html" target="_top" xlink:title="6">
<text text-anchor="middle" x="46.52" y="-71.2" font-family="Helvetica,sans-Serif" font-size="10.00">6</text>
</a>
</g>
</g>
</g>
</svg>
