<?xml version="1.0" encoding="UTF-8" standalone="no"?>
<!DOCTYPE svg PUBLIC "-//W3C//DTD SVG 1.1//EN"
 "http://www.w3.org/Graphics/SVG/1.1/DTD/svg11.dtd">
<!-- Generated by graphviz version 2.43.0 (0)
 -->
<!-- Title: math Pages: 1 -->
<svg width="174pt" height="383pt"
 viewBox="0.00 0.00 174.00 383.00" xmlns="http://www.w3.org/2000/svg" xmlns:xlink="http://www.w3.org/1999/xlink">
<g id="graph0" class="graph" transform="scale(1 1) rotate(0) translate(4 379)">
<title>math</title>
<polygon fill="white" stroke="transparent" points="-4,4 -4,-379 170,-379 170,4 -4,4"/>
<g id="clust1" class="cluster">
<title>clusterdir_a359a38bc464cff0ef8a57dc34360380</title>
<g id="a_clust1"><a xlink:href="dir_a359a38bc464cff0ef8a57dc34360380.html" target="_top" xlink:title="sbml">
<polygon fill="#ddddee" stroke="black" points="8,-8 8,-367 158,-367 158,-8 8,-8"/>
<text text-anchor="middle" x="83" y="-355" font-family="Helvetica,sans-Serif" font-size="10.00">sbml</text>
</a>
</g>
</g>
<!-- dir_3f96c34ad80e9031c68706862fabf1a4 -->
<g id="node1" class="node">
<title>dir_3f96c34ad80e9031c68706862fabf1a4</title>
<g id="a_node1"><a xlink:href="dir_3f96c34ad80e9031c68706862fabf1a4.html" target="_top" xlink:title="extension">
<polygon fill="none" stroke="black" points="81.5,-268 16.5,-268 16.5,-232 81.5,-232 81.5,-268"/>
<text text-anchor="middle" x="49" y="-247.5" font-family="Helvetica,sans-Serif" font-size="10.00">extension</text>
</a>
</g>
</g>
<!-- dir_5cbb9a0bf548abf0d2e32772c73d2ad6 -->
<g id="node2" class="node">
<title>dir_5cbb9a0bf548abf0d2e32772c73d2ad6</title>
<g id="a_node2"><a xlink:href="dir_5cbb9a0bf548abf0d2e32772c73d2ad6.html" target="_top" xlink:title="xml">
<polygon fill="none" stroke="black" points="130,-196 76,-196 76,-160 130,-160 130,-196"/>
<text text-anchor="middle" x="103" y="-175.5" font-family="Helvetica,sans-Serif" font-size="10.00">xml</text>
</a>
</g>
</g>
<!-- dir_3f96c34ad80e9031c68706862fabf1a4&#45;&gt;dir_5cbb9a0bf548abf0d2e32772c73d2ad6 -->
<g id="edge9" class="edge">
<title>dir_3f96c34ad80e9031c68706862fabf1a4&#45;&gt;dir_5cbb9a0bf548abf0d2e32772c73d2ad6</title>
<path fill="none" stroke="black" d="M62.35,-231.7C68.76,-223.39 76.56,-213.28 83.61,-204.14"/>
<polygon fill="black" stroke="black" points="86.47,-206.16 89.81,-196.1 80.93,-201.88 86.47,-206.16"/>
<g id="a_edge9&#45;headlabel"><a xlink:href="dir_000007_000035.html" target="_top" xlink:title="2">
<text text-anchor="middle" x="86.52" y="-208.24" font-family="Helvetica,sans-Serif" font-size="10.00">2</text>
</a>
</g>
</g>
<!-- dir_c541d4b187fc5f863b4735b323978e0f -->
<g id="node3" class="node">
<title>dir_c541d4b187fc5f863b4735b323978e0f</title>
<g id="a_node3"><a xlink:href="dir_c541d4b187fc5f863b4735b323978e0f.html" target="_top" xlink:title="util">
<polygon fill="none" stroke="black" points="90,-124 36,-124 36,-88 90,-88 90,-124"/>
<text text-anchor="middle" x="63" y="-103.5" font-family="Helvetica,sans-Serif" font-size="10.00">util</text>
</a>
</g>
</g>
<!-- dir_3f96c34ad80e9031c68706862fabf1a4&#45;&gt;dir_c541d4b187fc5f863b4735b323978e0f -->
<g id="edge10" class="edge">
<title>dir_3f96c34ad80e9031c68706862fabf1a4&#45;&gt;dir_c541d4b187fc5f863b4735b323978e0f</title>
<path fill="none" stroke="black" d="M48.71,-231.87C48.61,-213.9 49.02,-184.87 52,-160 53.02,-151.47 54.72,-142.28 56.47,-133.98"/>
<polygon fill="black" stroke="black" points="59.92,-134.59 58.68,-124.06 53.09,-133.06 59.92,-134.59"/>
<g id="a_edge10&#45;headlabel"><a xlink:href="dir_000007_000013.html" target="_top" xlink:title="4">
<text text-anchor="middle" x="61.91" y="-136.21" font-family="Helvetica,sans-Serif" font-size="10.00">4</text>
</a>
</g>
</g>
<!-- dir_fd1e11fb0964f7346e999e146b0dfd59 -->
<g id="node4" class="node">
<title>dir_fd1e11fb0964f7346e999e146b0dfd59</title>
<g id="a_node4"><a xlink:href="dir_fd1e11fb0964f7346e999e146b0dfd59.html" target="_top" xlink:title="common">
<polygon fill="none" stroke="black" points="92.5,-52 33.5,-52 33.5,-16 92.5,-16 92.5,-52"/>
<text text-anchor="middle" x="63" y="-31.5" font-family="Helvetica,sans-Serif" font-size="10.00">common</text>
</a>
</g>
</g>
<!-- dir_3f96c34ad80e9031c68706862fabf1a4&#45;&gt;dir_fd1e11fb0964f7346e999e146b0dfd59 -->
<g id="edge11" class="edge">
<title>dir_3f96c34ad80e9031c68706862fabf1a4&#45;&gt;dir_fd1e11fb0964f7346e999e146b0dfd59</title>
<path fill="none" stroke="black" d="M41.87,-231.69C30.58,-201.76 11.41,-138.69 27,-88 30.01,-78.22 35.51,-68.62 41.32,-60.33"/>
<polygon fill="black" stroke="black" points="44.19,-62.33 47.39,-52.23 38.59,-58.13 44.19,-62.33"/>
<g id="a_edge11&#45;headlabel"><a xlink:href="dir_000007_000017.html" target="_top" xlink:title="9">
<text text-anchor="middle" x="44.31" y="-64.41" font-family="Helvetica,sans-Serif" font-size="10.00">9</text>
</a>
</g>
</g>
<!-- dir_5cbb9a0bf548abf0d2e32772c73d2ad6&#45;&gt;dir_c541d4b187fc5f863b4735b323978e0f -->
<g id="edge7" class="edge">
<title>dir_5cbb9a0bf548abf0d2e32772c73d2ad6&#45;&gt;dir_c541d4b187fc5f863b4735b323978e0f</title>
<path fill="none" stroke="black" d="M93.11,-159.7C88.51,-151.64 82.94,-141.89 77.85,-132.98"/>
<polygon fill="black" stroke="black" points="80.77,-131.05 72.77,-124.1 74.7,-134.52 80.77,-131.05"/>
<g id="a_edge7&#45;headlabel"><a xlink:href="dir_000035_000013.html" target="_top" xlink:title="5">
<text text-anchor="middle" x="85.02" y="-130.26" font-family="Helvetica,sans-Serif" font-size="10.00">5</text>
</a>
</g>
</g>
<!-- dir_5cbb9a0bf548abf0d2e32772c73d2ad6&#45;&gt;dir_fd1e11fb0964f7346e999e146b0dfd59 -->
<g id="edge8" class="edge">
<title>dir_5cbb9a0bf548abf0d2e32772c73d2ad6&#45;&gt;dir_fd1e11fb0964f7346e999e146b0dfd59</title>
<path fill="none" stroke="black" d="M104.95,-159.77C106.4,-141.46 106.95,-111.93 99,-88 95.77,-78.29 90.21,-68.71 84.41,-60.42"/>
<polygon fill="black" stroke="black" points="87.15,-58.24 78.37,-52.3 81.54,-62.41 87.15,-58.24"/>
<g id="a_edge8&#45;headlabel"><a xlink:href="dir_000035_000017.html" target="_top" xlink:title="16">
<text text-anchor="middle" x="91.58" y="-56.92" font-family="Helvetica,sans-Serif" font-size="10.00">16</text>
</a>
</g>
</g>
<!-- dir_c541d4b187fc5f863b4735b323978e0f&#45;&gt;dir_fd1e11fb0964f7346e999e146b0dfd59 -->
<g id="edge2" class="edge">
<title>dir_c541d4b187fc5f863b4735b323978e0f&#45;&gt;dir_fd1e11fb0964f7346e999e146b0dfd59</title>
<path fill="none" stroke="black" d="M57.08,-87.7C56.29,-79.98 56.06,-70.71 56.4,-62.11"/>
<polygon fill="black" stroke="black" points="59.9,-62.32 57.1,-52.1 52.92,-61.84 59.9,-62.32"/>
<g id="a_edge2&#45;headlabel"><a xlink:href="dir_000013_000017.html" target="_top" xlink:title="6">
<text text-anchor="middle" x="62.48" y="-63.61" font-family="Helvetica,sans-Serif" font-size="10.00">6</text>
</a>
</g>
</g>
<!-- dir_fd1e11fb0964f7346e999e146b0dfd59&#45;&gt;dir_c541d4b187fc5f863b4735b323978e0f -->
<g id="edge1" class="edge">
<title>dir_fd1e11fb0964f7346e999e146b0dfd59&#45;&gt;dir_c541d4b187fc5f863b4735b323978e0f</title>
<path fill="none" stroke="black" d="M68.9,-52.1C69.7,-59.79 69.94,-69.05 69.6,-77.67"/>
<polygon fill="black" stroke="black" points="66.11,-77.48 68.92,-87.7 73.09,-77.96 66.11,-77.48"/>
<g id="a_edge1&#45;headlabel"><a xlink:href="dir_000017_000013.html" target="_top" xlink:title="2">
<text text-anchor="middle" x="63.52" y="-71.2" font-family="Helvetica,sans-Serif" font-size="10.00">2</text>
</a>
</g>
</g>
<!-- dir_48ff6375d03f1aa509a6e0480f966544 -->
<g id="node5" class="node">
<title>dir_48ff6375d03f1aa509a6e0480f966544</title>
<g id="a_node5"><a xlink:href="dir_48ff6375d03f1aa509a6e0480f966544.html" target="_top" xlink:title="math">
<polygon fill="#eeeeff" stroke="black" points="138,-340 84,-340 84,-304 138,-304 138,-340"/>
<text text-anchor="middle" x="111" y="-319.5" font-family="Helvetica,sans-Serif" font-size="10.00">math</text>
</a>
</g>
</g>
<!-- dir_48ff6375d03f1aa509a6e0480f966544&#45;&gt;dir_3f96c34ad80e9031c68706862fabf1a4 -->
<g id="edge3" class="edge">
<title>dir_48ff6375d03f1aa509a6e0480f966544&#45;&gt;dir_3f96c34ad80e9031c68706862fabf1a4</title>
<path fill="none" stroke="black" d="M95.67,-303.7C88.24,-295.3 79.18,-285.07 71.02,-275.86"/>
<polygon fill="black" stroke="black" points="73.4,-273.27 64.15,-268.1 68.16,-277.91 73.4,-273.27"/>
<g id="a_edge3&#45;headlabel"><a xlink:href="dir_000008_000007.html" target="_top" xlink:title="6">
<text text-anchor="middle" x="77.91" y="-271.58" font-family="Helvetica,sans-Serif" font-size="10.00">6</text>
</a>
</g>
</g>
<!-- dir_48ff6375d03f1aa509a6e0480f966544&#45;&gt;dir_5cbb9a0bf548abf0d2e32772c73d2ad6 -->
<g id="edge4" class="edge">
<title>dir_48ff6375d03f1aa509a6e0480f966544&#45;&gt;dir_5cbb9a0bf548abf0d2e32772c73d2ad6</title>
<path fill="none" stroke="black" d="M110.04,-303.94C109.04,-286.02 107.41,-257.03 106,-232 105.53,-223.68 105.02,-214.63 104.55,-206.4"/>
<polygon fill="black" stroke="black" points="108.03,-205.97 103.97,-196.19 101.05,-206.37 108.03,-205.97"/>
<g id="a_edge4&#45;headlabel"><a xlink:href="dir_000008_000035.html" target="_top" xlink:title="6">
<text text-anchor="middle" x="111.07" y="-206.9" font-family="Helvetica,sans-Serif" font-size="10.00">6</text>
</a>
</g>
</g>
<!-- dir_48ff6375d03f1aa509a6e0480f966544&#45;&gt;dir_c541d4b187fc5f863b4735b323978e0f -->
<g id="edge5" class="edge">
<title>dir_48ff6375d03f1aa509a6e0480f966544&#45;&gt;dir_c541d4b187fc5f863b4735b323978e0f</title>
<path fill="none" stroke="black" d="M109.02,-303.69C106.49,-285.32 101.16,-255.73 91,-232 83.43,-214.32 72.98,-214.27 67,-196 60.47,-176.07 59.74,-152.27 60.49,-134.31"/>
<polygon fill="black" stroke="black" points="63.99,-134.41 61.09,-124.22 57,-133.99 63.99,-134.41"/>
<g id="a_edge5&#45;headlabel"><a xlink:href="dir_000008_000013.html" target="_top" xlink:title="11">
<text text-anchor="middle" x="66.61" y="-135.67" font-family="Helvetica,sans-Serif" font-size="10.00">11</text>
</a>
</g>
</g>
<!-- dir_48ff6375d03f1aa509a6e0480f966544&#45;&gt;dir_fd1e11fb0964f7346e999e146b0dfd59 -->
<g id="edge6" class="edge">
<title>dir_48ff6375d03f1aa509a6e0480f966544&#45;&gt;dir_fd1e11fb0964f7346e999e146b0dfd59</title>
<path fill="none" stroke="black" d="M118.22,-304C129.78,-274.55 150.07,-212.18 139,-160 131.73,-125.74 125.47,-117.75 107,-88 100.98,-78.3 93.33,-68.46 86.1,-59.94"/>
<polygon fill="black" stroke="black" points="88.58,-57.45 79.37,-52.22 83.3,-62.05 88.58,-57.45"/>
<g id="a_edge6&#45;headlabel"><a xlink:href="dir_000008_000017.html" target="_top" xlink:title="21">
<text text-anchor="middle" x="93.08" y="-55.8" font-family="Helvetica,sans-Serif" font-size="10.00">21</text>
</a>
</g>
</g>
</g>
</svg>
