<?xml version="1.0" encoding="UTF-8" standalone="no"?>
<!DOCTYPE svg PUBLIC "-//W3C//DTD SVG 1.1//EN"
 "http://www.w3.org/Graphics/SVG/1.1/DTD/svg11.dtd">
<!-- Generated by graphviz version 2.43.0 (0)
 -->
<!-- Title: groups Pages: 1 -->
<svg width="241pt" height="591pt"
 viewBox="0.00 0.00 241.00 591.00" xmlns="http://www.w3.org/2000/svg" xmlns:xlink="http://www.w3.org/1999/xlink">
<g id="graph0" class="graph" transform="scale(1 1) rotate(0) translate(4 587)">
<title>groups</title>
<polygon fill="white" stroke="transparent" points="-4,4 -4,-587 237,-587 237,4 -4,4"/>
<g id="clust1" class="cluster">
<title>clusterdir_d29d847ea07fb74c2c88b7147de27d35</title>
<g id="a_clust1"><a xlink:href="dir_d29d847ea07fb74c2c88b7147de27d35.html" target="_top" xlink:title="packages">
<polygon fill="#ddddee" stroke="black" points="54,-272 54,-575 218,-575 218,-272 54,-272"/>
<text text-anchor="middle" x="136" y="-563" font-family="Helvetica,sans-Serif" font-size="10.00">packages</text>
</a>
</g>
</g>
<g id="clust2" class="cluster">
<title>clusterdir_29063129b3eccaffa9adb8cada31bc79</title>
<g id="a_clust2"><a xlink:href="dir_29063129b3eccaffa9adb8cada31bc79.html" target="_top">
<polygon fill="#eeeeff" stroke="black" points="62,-280 62,-548 210,-548 210,-280 62,-280"/>
</a>
</g>
</g>
<!-- dir_29063129b3eccaffa9adb8cada31bc79 -->
<g id="node1" class="node">
<title>dir_29063129b3eccaffa9adb8cada31bc79</title>
<text text-anchor="middle" x="175" y="-519.5" font-family="Helvetica,sans-Serif" font-size="10.00">groups</text>
</g>
<!-- dir_7ecdb64354f87c6a5936bdfa7adc7cda -->
<g id="node2" class="node">
<title>dir_7ecdb64354f87c6a5936bdfa7adc7cda</title>
<g id="a_node2"><a xlink:href="dir_7ecdb64354f87c6a5936bdfa7adc7cda.html" target="_top" xlink:title="common">
<polygon fill="white" stroke="black" points="129.5,-540 70.5,-540 70.5,-504 129.5,-504 129.5,-540"/>
<text text-anchor="middle" x="100" y="-519.5" font-family="Helvetica,sans-Serif" font-size="10.00">common</text>
</a>
</g>
</g>
<!-- dir_0e5086b15e36e287b22643c32e731771 -->
<g id="node3" class="node">
<title>dir_0e5086b15e36e287b22643c32e731771</title>
<g id="a_node3"><a xlink:href="dir_0e5086b15e36e287b22643c32e731771.html" target="_top" xlink:title="extension">
<polygon fill="white" stroke="black" points="135.5,-468 70.5,-468 70.5,-432 135.5,-432 135.5,-468"/>
<text text-anchor="middle" x="103" y="-447.5" font-family="Helvetica,sans-Serif" font-size="10.00">extension</text>
</a>
</g>
</g>
<!-- dir_7ecdb64354f87c6a5936bdfa7adc7cda&#45;&gt;dir_0e5086b15e36e287b22643c32e731771 -->
<g id="edge17" class="edge">
<title>dir_7ecdb64354f87c6a5936bdfa7adc7cda&#45;&gt;dir_0e5086b15e36e287b22643c32e731771</title>
<path fill="none" stroke="black" d="M100.74,-503.7C101.07,-495.98 101.47,-486.71 101.84,-478.11"/>
<polygon fill="black" stroke="black" points="105.34,-478.25 102.27,-468.1 98.34,-477.95 105.34,-478.25"/>
<g id="a_edge17&#45;headlabel"><a xlink:href="dir_000043_000042.html" target="_top" xlink:title="3">
<text text-anchor="middle" x="108.02" y="-479.46" font-family="Helvetica,sans-Serif" font-size="10.00">3</text>
</a>
</g>
</g>
<!-- dir_1a2a11cbb6a63f53ae2e16947db16deb -->
<g id="node4" class="node">
<title>dir_1a2a11cbb6a63f53ae2e16947db16deb</title>
<g id="a_node4"><a xlink:href="dir_1a2a11cbb6a63f53ae2e16947db16deb.html" target="_top" xlink:title="sbml">
<polygon fill="white" stroke="black" points="178,-396 124,-396 124,-360 178,-360 178,-396"/>
<text text-anchor="middle" x="151" y="-375.5" font-family="Helvetica,sans-Serif" font-size="10.00">sbml</text>
</a>
</g>
</g>
<!-- dir_7ecdb64354f87c6a5936bdfa7adc7cda&#45;&gt;dir_1a2a11cbb6a63f53ae2e16947db16deb -->
<g id="edge18" class="edge">
<title>dir_7ecdb64354f87c6a5936bdfa7adc7cda&#45;&gt;dir_1a2a11cbb6a63f53ae2e16947db16deb</title>
<path fill="none" stroke="black" d="M111.5,-503.85C119.98,-494.32 130.46,-481.64 136,-468 143.95,-448.42 145.13,-424.43 145.86,-406.29"/>
<polygon fill="black" stroke="black" points="149.36,-406.25 146.3,-396.1 142.37,-405.94 149.36,-406.25"/>
<g id="a_edge18&#45;headlabel"><a xlink:href="dir_000043_000040.html" target="_top" xlink:title="2">
<text text-anchor="middle" x="152.05" y="-407.46" font-family="Helvetica,sans-Serif" font-size="10.00">2</text>
</a>
</g>
</g>
<!-- dir_0e5086b15e36e287b22643c32e731771&#45;&gt;dir_1a2a11cbb6a63f53ae2e16947db16deb -->
<g id="edge5" class="edge">
<title>dir_0e5086b15e36e287b22643c32e731771&#45;&gt;dir_1a2a11cbb6a63f53ae2e16947db16deb</title>
<path fill="none" stroke="black" d="M108.95,-431.7C113.79,-423.39 120.53,-413.28 127.25,-404.14"/>
<polygon fill="black" stroke="black" points="130.1,-406.18 133.38,-396.1 124.53,-401.94 130.1,-406.18"/>
<g id="a_edge5&#45;headlabel"><a xlink:href="dir_000042_000040.html" target="_top" xlink:title="2">
<text text-anchor="middle" x="130.18" y="-408.26" font-family="Helvetica,sans-Serif" font-size="10.00">2</text>
</a>
</g>
</g>
<!-- dir_57fdbdaf356605263ec8ba5b7b6a3875 -->
<g id="node5" class="node">
<title>dir_57fdbdaf356605263ec8ba5b7b6a3875</title>
<g id="a_node5"><a xlink:href="dir_57fdbdaf356605263ec8ba5b7b6a3875.html" target="_top" xlink:title="validator">
<polygon fill="white" stroke="black" points="202,-324 142,-324 142,-288 202,-288 202,-324"/>
<text text-anchor="middle" x="172" y="-303.5" font-family="Helvetica,sans-Serif" font-size="10.00">validator</text>
</a>
</g>
</g>
<!-- dir_0e5086b15e36e287b22643c32e731771&#45;&gt;dir_57fdbdaf356605263ec8ba5b7b6a3875 -->
<g id="edge7" class="edge">
<title>dir_0e5086b15e36e287b22643c32e731771&#45;&gt;dir_57fdbdaf356605263ec8ba5b7b6a3875</title>
<path fill="none" stroke="black" d="M101.99,-431.92C101.6,-413.21 103.17,-382.84 115,-360 120.78,-348.84 129.88,-338.8 139.12,-330.53"/>
<polygon fill="black" stroke="black" points="141.46,-333.14 146.85,-324.02 136.95,-327.79 141.46,-333.14"/>
<g id="a_edge7&#45;headlabel"><a xlink:href="dir_000042_000041.html" target="_top" xlink:title="5">
<text text-anchor="middle" x="140.54" y="-335.13" font-family="Helvetica,sans-Serif" font-size="10.00">5</text>
</a>
</g>
</g>
<!-- dir_3f96c34ad80e9031c68706862fabf1a4 -->
<g id="node6" class="node">
<title>dir_3f96c34ad80e9031c68706862fabf1a4</title>
<g id="a_node6"><a xlink:href="dir_3f96c34ad80e9031c68706862fabf1a4.html" target="_top" xlink:title="extension">
<polygon fill="none" stroke="black" points="204.5,-180 139.5,-180 139.5,-144 204.5,-144 204.5,-180"/>
<text text-anchor="middle" x="172" y="-159.5" font-family="Helvetica,sans-Serif" font-size="10.00">extension</text>
</a>
</g>
</g>
<!-- dir_0e5086b15e36e287b22643c32e731771&#45;&gt;dir_3f96c34ad80e9031c68706862fabf1a4 -->
<g id="edge6" class="edge">
<title>dir_0e5086b15e36e287b22643c32e731771&#45;&gt;dir_3f96c34ad80e9031c68706862fabf1a4</title>
<path fill="none" stroke="black" d="M101.78,-431.82C101.11,-421.46 100.34,-407.98 100,-396 97.7,-314.7 99.11,-289.93 133,-216 137.43,-206.34 143.78,-196.71 150.09,-188.35"/>
<polygon fill="black" stroke="black" points="152.86,-190.49 156.29,-180.47 147.36,-186.16 152.86,-190.49"/>
<g id="a_edge6&#45;headlabel"><a xlink:href="dir_000042_000007.html" target="_top" xlink:title="9">
<text text-anchor="middle" x="152.86" y="-192.57" font-family="Helvetica,sans-Serif" font-size="10.00">9</text>
</a>
</g>
</g>
<!-- dir_c541d4b187fc5f863b4735b323978e0f -->
<g id="node7" class="node">
<title>dir_c541d4b187fc5f863b4735b323978e0f</title>
<g id="a_node7"><a xlink:href="dir_c541d4b187fc5f863b4735b323978e0f.html" target="_top" xlink:title="util">
<polygon fill="none" stroke="black" points="139,-108 85,-108 85,-72 139,-72 139,-108"/>
<text text-anchor="middle" x="112" y="-87.5" font-family="Helvetica,sans-Serif" font-size="10.00">util</text>
</a>
</g>
</g>
<!-- dir_0e5086b15e36e287b22643c32e731771&#45;&gt;dir_c541d4b187fc5f863b4735b323978e0f -->
<g id="edge8" class="edge">
<title>dir_0e5086b15e36e287b22643c32e731771&#45;&gt;dir_c541d4b187fc5f863b4735b323978e0f</title>
<path fill="none" stroke="black" d="M89.22,-431.79C70.14,-406.18 38,-355.8 38,-307 38,-307 38,-307 38,-233 38,-187.9 67.71,-142.94 89.48,-116.05"/>
<polygon fill="black" stroke="black" points="92.23,-118.23 95.94,-108.31 86.85,-113.74 92.23,-118.23"/>
<g id="a_edge8&#45;headlabel"><a xlink:href="dir_000042_000013.html" target="_top" xlink:title="1">
<text text-anchor="middle" x="92.1" y="-120.31" font-family="Helvetica,sans-Serif" font-size="10.00">1</text>
</a>
</g>
</g>
<!-- dir_fd1e11fb0964f7346e999e146b0dfd59 -->
<g id="node8" class="node">
<title>dir_fd1e11fb0964f7346e999e146b0dfd59</title>
<g id="a_node8"><a xlink:href="dir_fd1e11fb0964f7346e999e146b0dfd59.html" target="_top" xlink:title="common">
<polygon fill="none" stroke="black" points="141.5,-36 82.5,-36 82.5,0 141.5,0 141.5,-36"/>
<text text-anchor="middle" x="112" y="-15.5" font-family="Helvetica,sans-Serif" font-size="10.00">common</text>
</a>
</g>
</g>
<!-- dir_0e5086b15e36e287b22643c32e731771&#45;&gt;dir_fd1e11fb0964f7346e999e146b0dfd59 -->
<g id="edge9" class="edge">
<title>dir_0e5086b15e36e287b22643c32e731771&#45;&gt;dir_fd1e11fb0964f7346e999e146b0dfd59</title>
<path fill="none" stroke="black" d="M79.37,-431.97C48.96,-407.89 0,-360.75 0,-307 0,-307 0,-307 0,-161 0,-110.35 44.48,-67.14 77.38,-42.11"/>
<polygon fill="black" stroke="black" points="79.49,-44.9 85.46,-36.15 75.33,-39.27 79.49,-44.9"/>
<g id="a_edge9&#45;headlabel"><a xlink:href="dir_000042_000017.html" target="_top" xlink:title="3">
<text text-anchor="middle" x="78.29" y="-46.82" font-family="Helvetica,sans-Serif" font-size="10.00">3</text>
</a>
</g>
</g>
<!-- dir_1a2a11cbb6a63f53ae2e16947db16deb&#45;&gt;dir_7ecdb64354f87c6a5936bdfa7adc7cda -->
<g id="edge12" class="edge">
<title>dir_1a2a11cbb6a63f53ae2e16947db16deb&#45;&gt;dir_7ecdb64354f87c6a5936bdfa7adc7cda</title>
<path fill="none" stroke="black" d="M159.57,-396.1C163.33,-414.56 163.55,-444.47 154,-468 149.76,-478.45 142.62,-488.33 134.83,-496.66"/>
<polygon fill="black" stroke="black" points="132.21,-494.33 127.55,-503.85 137.13,-499.31 132.21,-494.33"/>
<g id="a_edge12&#45;headlabel"><a xlink:href="dir_000040_000043.html" target="_top" xlink:title="4">
<text text-anchor="middle" x="132.77" y="-487.29" font-family="Helvetica,sans-Serif" font-size="10.00">4</text>
</a>
</g>
</g>
<!-- dir_1a2a11cbb6a63f53ae2e16947db16deb&#45;&gt;dir_0e5086b15e36e287b22643c32e731771 -->
<g id="edge10" class="edge">
<title>dir_1a2a11cbb6a63f53ae2e16947db16deb&#45;&gt;dir_0e5086b15e36e287b22643c32e731771</title>
<path fill="none" stroke="black" d="M145.17,-396.1C140.36,-404.38 133.64,-414.49 126.91,-423.64"/>
<polygon fill="black" stroke="black" points="124.05,-421.62 120.78,-431.7 129.62,-425.85 124.05,-421.62"/>
<g id="a_edge10&#45;headlabel"><a xlink:href="dir_000040_000042.html" target="_top" xlink:title="4">
<text text-anchor="middle" x="123.96" y="-414.54" font-family="Helvetica,sans-Serif" font-size="10.00">4</text>
</a>
</g>
</g>
<!-- dir_1a2a11cbb6a63f53ae2e16947db16deb&#45;&gt;dir_57fdbdaf356605263ec8ba5b7b6a3875 -->
<g id="edge11" class="edge">
<title>dir_1a2a11cbb6a63f53ae2e16947db16deb&#45;&gt;dir_57fdbdaf356605263ec8ba5b7b6a3875</title>
<path fill="none" stroke="black" d="M156.19,-359.7C158.53,-351.9 161.35,-342.51 163.95,-333.83"/>
<polygon fill="black" stroke="black" points="167.35,-334.69 166.87,-324.1 160.64,-332.68 167.35,-334.69"/>
<g id="a_edge11&#45;headlabel"><a xlink:href="dir_000040_000041.html" target="_top" xlink:title="4">
<text text-anchor="middle" x="169.03" y="-336.45" font-family="Helvetica,sans-Serif" font-size="10.00">4</text>
</a>
</g>
</g>
<!-- dir_1a2a11cbb6a63f53ae2e16947db16deb&#45;&gt;dir_c541d4b187fc5f863b4735b323978e0f -->
<g id="edge13" class="edge">
<title>dir_1a2a11cbb6a63f53ae2e16947db16deb&#45;&gt;dir_c541d4b187fc5f863b4735b323978e0f</title>
<path fill="none" stroke="black" d="M143.93,-359.63C140.08,-349.42 135.58,-336.17 133,-324 117.49,-250.74 113.43,-162.15 112.37,-118.31"/>
<polygon fill="black" stroke="black" points="115.87,-118.09 112.16,-108.16 108.87,-118.23 115.87,-118.09"/>
<g id="a_edge13&#45;headlabel"><a xlink:href="dir_000040_000013.html" target="_top" xlink:title="1">
<text text-anchor="middle" x="118.78" y="-119.12" font-family="Helvetica,sans-Serif" font-size="10.00">1</text>
</a>
</g>
</g>
<!-- dir_1a2a11cbb6a63f53ae2e16947db16deb&#45;&gt;dir_fd1e11fb0964f7346e999e146b0dfd59 -->
<g id="edge14" class="edge">
<title>dir_1a2a11cbb6a63f53ae2e16947db16deb&#45;&gt;dir_fd1e11fb0964f7346e999e146b0dfd59</title>
<path fill="none" stroke="black" d="M176.79,-359.86C188.86,-350.59 202.43,-338.15 211,-324 232.12,-289.15 233,-275.75 233,-235 233,-235 233,-235 233,-161 233,-109.05 185.49,-66.45 150.02,-41.88"/>
<polygon fill="black" stroke="black" points="151.55,-38.69 141.29,-36.03 147.65,-44.5 151.55,-38.69"/>
<g id="a_edge14&#45;headlabel"><a xlink:href="dir_000040_000017.html" target="_top" xlink:title="8">
<text text-anchor="middle" x="156.11" y="-35.84" font-family="Helvetica,sans-Serif" font-size="10.00">8</text>
</a>
</g>
</g>
<!-- dir_57fdbdaf356605263ec8ba5b7b6a3875&#45;&gt;dir_7ecdb64354f87c6a5936bdfa7adc7cda -->
<g id="edge3" class="edge">
<title>dir_57fdbdaf356605263ec8ba5b7b6a3875&#45;&gt;dir_7ecdb64354f87c6a5936bdfa7adc7cda</title>
<path fill="none" stroke="black" d="M178.83,-324.17C185.07,-342.17 192.55,-371.23 187,-396 179.26,-430.53 173.37,-439.06 153,-468 145.82,-478.21 136.58,-488.2 127.83,-496.72"/>
<polygon fill="black" stroke="black" points="125.21,-494.38 120.33,-503.78 130.01,-499.47 125.21,-494.38"/>
<g id="a_edge3&#45;headlabel"><a xlink:href="dir_000041_000043.html" target="_top" xlink:title="1">
<text text-anchor="middle" x="125.88" y="-487.34" font-family="Helvetica,sans-Serif" font-size="10.00">1</text>
</a>
</g>
</g>
<!-- dir_a0a785b8d726fb513b94381e63693443 -->
<g id="node9" class="node">
<title>dir_a0a785b8d726fb513b94381e63693443</title>
<g id="a_node9"><a xlink:href="dir_a0a785b8d726fb513b94381e63693443.html" target="_top" xlink:title="validator">
<polygon fill="none" stroke="black" points="202,-252 142,-252 142,-216 202,-216 202,-252"/>
<text text-anchor="middle" x="172" y="-231.5" font-family="Helvetica,sans-Serif" font-size="10.00">validator</text>
</a>
</g>
</g>
<!-- dir_57fdbdaf356605263ec8ba5b7b6a3875&#45;&gt;dir_a0a785b8d726fb513b94381e63693443 -->
<g id="edge4" class="edge">
<title>dir_57fdbdaf356605263ec8ba5b7b6a3875&#45;&gt;dir_a0a785b8d726fb513b94381e63693443</title>
<path fill="none" stroke="black" d="M172,-287.7C172,-279.98 172,-270.71 172,-262.11"/>
<polygon fill="black" stroke="black" points="175.5,-262.1 172,-252.1 168.5,-262.1 175.5,-262.1"/>
<g id="a_edge4&#45;headlabel"><a xlink:href="dir_000041_000025.html" target="_top" xlink:title="2">
<text text-anchor="middle" x="178.34" y="-263.2" font-family="Helvetica,sans-Serif" font-size="10.00">2</text>
</a>
</g>
</g>
<!-- dir_3f96c34ad80e9031c68706862fabf1a4&#45;&gt;dir_c541d4b187fc5f863b4735b323978e0f -->
<g id="edge15" class="edge">
<title>dir_3f96c34ad80e9031c68706862fabf1a4&#45;&gt;dir_c541d4b187fc5f863b4735b323978e0f</title>
<path fill="none" stroke="black" d="M157.17,-143.7C149.98,-135.3 141.2,-125.07 133.31,-115.86"/>
<polygon fill="black" stroke="black" points="135.83,-113.42 126.66,-108.1 130.51,-117.97 135.83,-113.42"/>
<g id="a_edge15&#45;headlabel"><a xlink:href="dir_000007_000013.html" target="_top" xlink:title="4">
<text text-anchor="middle" x="140.32" y="-111.8" font-family="Helvetica,sans-Serif" font-size="10.00">4</text>
</a>
</g>
</g>
<!-- dir_3f96c34ad80e9031c68706862fabf1a4&#45;&gt;dir_fd1e11fb0964f7346e999e146b0dfd59 -->
<g id="edge16" class="edge">
<title>dir_3f96c34ad80e9031c68706862fabf1a4&#45;&gt;dir_fd1e11fb0964f7346e999e146b0dfd59</title>
<path fill="none" stroke="black" d="M169.1,-143.68C165.63,-125.31 158.87,-95.71 148,-72 143.66,-62.55 137.69,-52.93 131.86,-44.52"/>
<polygon fill="black" stroke="black" points="134.59,-42.33 125.9,-36.27 128.91,-46.42 134.59,-42.33"/>
<g id="a_edge16&#45;headlabel"><a xlink:href="dir_000007_000017.html" target="_top" xlink:title="9">
<text text-anchor="middle" x="139" y="-41.08" font-family="Helvetica,sans-Serif" font-size="10.00">9</text>
</a>
</g>
</g>
<!-- dir_c541d4b187fc5f863b4735b323978e0f&#45;&gt;dir_fd1e11fb0964f7346e999e146b0dfd59 -->
<g id="edge2" class="edge">
<title>dir_c541d4b187fc5f863b4735b323978e0f&#45;&gt;dir_fd1e11fb0964f7346e999e146b0dfd59</title>
<path fill="none" stroke="black" d="M106.08,-71.7C105.29,-63.98 105.06,-54.71 105.4,-46.11"/>
<polygon fill="black" stroke="black" points="108.9,-46.32 106.1,-36.1 101.92,-45.84 108.9,-46.32"/>
<g id="a_edge2&#45;headlabel"><a xlink:href="dir_000013_000017.html" target="_top" xlink:title="6">
<text text-anchor="middle" x="111.48" y="-47.61" font-family="Helvetica,sans-Serif" font-size="10.00">6</text>
</a>
</g>
</g>
<!-- dir_fd1e11fb0964f7346e999e146b0dfd59&#45;&gt;dir_c541d4b187fc5f863b4735b323978e0f -->
<g id="edge1" class="edge">
<title>dir_fd1e11fb0964f7346e999e146b0dfd59&#45;&gt;dir_c541d4b187fc5f863b4735b323978e0f</title>
<path fill="none" stroke="black" d="M117.9,-36.1C118.7,-43.79 118.94,-53.05 118.6,-61.67"/>
<polygon fill="black" stroke="black" points="115.11,-61.48 117.92,-71.7 122.09,-61.96 115.11,-61.48"/>
<g id="a_edge1&#45;headlabel"><a xlink:href="dir_000017_000013.html" target="_top" xlink:title="2">
<text text-anchor="middle" x="112.52" y="-55.2" font-family="Helvetica,sans-Serif" font-size="10.00">2</text>
</a>
</g>
</g>
<!-- dir_a0a785b8d726fb513b94381e63693443&#45;&gt;dir_3f96c34ad80e9031c68706862fabf1a4 -->
<g id="edge19" class="edge">
<title>dir_a0a785b8d726fb513b94381e63693443&#45;&gt;dir_3f96c34ad80e9031c68706862fabf1a4</title>
<path fill="none" stroke="black" d="M172,-215.7C172,-207.98 172,-198.71 172,-190.11"/>
<polygon fill="black" stroke="black" points="175.5,-190.1 172,-180.1 168.5,-190.1 175.5,-190.1"/>
<g id="a_edge19&#45;headlabel"><a xlink:href="dir_000025_000007.html" target="_top" xlink:title="1">
<text text-anchor="middle" x="178.34" y="-191.2" font-family="Helvetica,sans-Serif" font-size="10.00">1</text>
</a>
</g>
</g>
</g>
</svg>
