<?xml version="1.0" encoding="UTF-8" standalone="no"?>
<!DOCTYPE svg PUBLIC "-//W3C//DTD SVG 1.1//EN"
 "http://www.w3.org/Graphics/SVG/1.1/DTD/svg11.dtd">
<!-- Generated by graphviz version 2.43.0 (0)
 -->
<!-- Title: util Pages: 1 -->
<svg width="400pt" height="511pt"
 viewBox="0.00 0.00 400.00 511.00" xmlns="http://www.w3.org/2000/svg" xmlns:xlink="http://www.w3.org/1999/xlink">
<g id="graph0" class="graph" transform="scale(1 1) rotate(0) translate(4 507)">
<title>util</title>
<polygon fill="white" stroke="transparent" points="-4,4 -4,-507 396,-507 396,4 -4,4"/>
<g id="clust1" class="cluster">
<title>clusterdir_56d603006930d6f32ca38bb932b49787</title>
<g id="a_clust1"><a xlink:href="dir_56d603006930d6f32ca38bb932b49787.html" target="_top" xlink:title="layout">
<polygon fill="#ddddee" stroke="black" points="125,-280 125,-495 215,-495 215,-280 125,-280"/>
<text text-anchor="middle" x="170" y="-483" font-family="Helvetica,sans-Serif" font-size="10.00">layout</text>
</a>
</g>
</g>
<!-- dir_469dd4fe8a06b7a018d55910fd20ec61 -->
<g id="node1" class="node">
<title>dir_469dd4fe8a06b7a018d55910fd20ec61</title>
<g id="a_node1"><a xlink:href="dir_469dd4fe8a06b7a018d55910fd20ec61.html" target="_top" xlink:title="extension">
<polygon fill="none" stroke="black" points="198.5,-468 133.5,-468 133.5,-432 198.5,-432 198.5,-468"/>
<text text-anchor="middle" x="166" y="-447.5" font-family="Helvetica,sans-Serif" font-size="10.00">extension</text>
</a>
</g>
</g>
<!-- dir_88ac4bf79705bb8559b852278d35d8da -->
<g id="node2" class="node">
<title>dir_88ac4bf79705bb8559b852278d35d8da</title>
<g id="a_node2"><a xlink:href="dir_88ac4bf79705bb8559b852278d35d8da.html" target="_top" xlink:title="sbml">
<polygon fill="none" stroke="black" points="187,-396 133,-396 133,-360 187,-360 187,-396"/>
<text text-anchor="middle" x="160" y="-375.5" font-family="Helvetica,sans-Serif" font-size="10.00">sbml</text>
</a>
</g>
</g>
<!-- dir_469dd4fe8a06b7a018d55910fd20ec61&#45;&gt;dir_88ac4bf79705bb8559b852278d35d8da -->
<g id="edge13" class="edge">
<title>dir_469dd4fe8a06b7a018d55910fd20ec61&#45;&gt;dir_88ac4bf79705bb8559b852278d35d8da</title>
<path fill="none" stroke="black" d="M158.6,-431.7C157.14,-423.98 156.12,-414.71 155.73,-406.11"/>
<polygon fill="black" stroke="black" points="159.23,-406.05 155.57,-396.1 152.23,-406.16 159.23,-406.05"/>
<g id="a_edge13&#45;headlabel"><a xlink:href="dir_000046_000012.html" target="_top" xlink:title="2">
<text text-anchor="middle" x="162.12" y="-407.1" font-family="Helvetica,sans-Serif" font-size="10.00">2</text>
</a>
</g>
</g>
<!-- dir_4843a4f4b536048b06467fd8eed65856 -->
<g id="node3" class="node">
<title>dir_4843a4f4b536048b06467fd8eed65856</title>
<g id="a_node3"><a xlink:href="dir_4843a4f4b536048b06467fd8eed65856.html" target="_top" xlink:title="util">
<polygon fill="#eeeeff" stroke="black" points="207,-324 153,-324 153,-288 207,-288 207,-324"/>
<text text-anchor="middle" x="180" y="-303.5" font-family="Helvetica,sans-Serif" font-size="10.00">util</text>
</a>
</g>
</g>
<!-- dir_469dd4fe8a06b7a018d55910fd20ec61&#45;&gt;dir_4843a4f4b536048b06467fd8eed65856 -->
<g id="edge11" class="edge">
<title>dir_469dd4fe8a06b7a018d55910fd20ec61&#45;&gt;dir_4843a4f4b536048b06467fd8eed65856</title>
<path fill="none" stroke="black" d="M170.8,-431.85C176.29,-421.92 183.61,-408.88 187,-396 192.41,-375.44 187.62,-351.73 183.24,-333.95"/>
<polygon fill="black" stroke="black" points="186.63,-333.08 180.79,-324.24 179.84,-334.79 186.63,-333.08"/>
<g id="a_edge11&#45;headlabel"><a xlink:href="dir_000046_000044.html" target="_top" xlink:title="2">
<text text-anchor="middle" x="190.26" y="-333.37" font-family="Helvetica,sans-Serif" font-size="10.00">2</text>
</a>
</g>
</g>
<!-- dir_5cbb9a0bf548abf0d2e32772c73d2ad6 -->
<g id="node4" class="node">
<title>dir_5cbb9a0bf548abf0d2e32772c73d2ad6</title>
<g id="a_node4"><a xlink:href="dir_5cbb9a0bf548abf0d2e32772c73d2ad6.html" target="_top" xlink:title="xml">
<polygon fill="none" stroke="black" points="162,-180 108,-180 108,-144 162,-144 162,-180"/>
<text text-anchor="middle" x="135" y="-159.5" font-family="Helvetica,sans-Serif" font-size="10.00">xml</text>
</a>
</g>
</g>
<!-- dir_469dd4fe8a06b7a018d55910fd20ec61&#45;&gt;dir_5cbb9a0bf548abf0d2e32772c73d2ad6 -->
<g id="edge12" class="edge">
<title>dir_469dd4fe8a06b7a018d55910fd20ec61&#45;&gt;dir_5cbb9a0bf548abf0d2e32772c73d2ad6</title>
<path fill="none" stroke="black" d="M147.4,-431.76C138.47,-422.2 128.71,-409.53 124,-396 99.28,-325.01 116.19,-234.47 127.36,-190.05"/>
<polygon fill="black" stroke="black" points="130.77,-190.85 129.91,-180.29 123.99,-189.08 130.77,-190.85"/>
<g id="a_edge12&#45;headlabel"><a xlink:href="dir_000046_000035.html" target="_top" xlink:title="4">
<text text-anchor="middle" x="132.6" y="-192.55" font-family="Helvetica,sans-Serif" font-size="10.00">4</text>
</a>
</g>
</g>
<!-- dir_c541d4b187fc5f863b4735b323978e0f -->
<g id="node6" class="node">
<title>dir_c541d4b187fc5f863b4735b323978e0f</title>
<g id="a_node6"><a xlink:href="dir_c541d4b187fc5f863b4735b323978e0f.html" target="_top" xlink:title="util">
<polygon fill="none" stroke="black" points="310,-108 256,-108 256,-72 310,-72 310,-108"/>
<text text-anchor="middle" x="283" y="-87.5" font-family="Helvetica,sans-Serif" font-size="10.00">util</text>
</a>
</g>
</g>
<!-- dir_469dd4fe8a06b7a018d55910fd20ec61&#45;&gt;dir_c541d4b187fc5f863b4735b323978e0f -->
<g id="edge14" class="edge">
<title>dir_469dd4fe8a06b7a018d55910fd20ec61&#45;&gt;dir_c541d4b187fc5f863b4735b323978e0f</title>
<path fill="none" stroke="black" d="M198.86,-443.96C261.54,-432.27 392,-397.13 392,-307 392,-307 392,-307 392,-233 392,-182.93 348.83,-139.64 316.83,-114.43"/>
<polygon fill="black" stroke="black" points="318.63,-111.4 308.56,-108.11 314.38,-116.96 318.63,-111.4"/>
<g id="a_edge14&#45;headlabel"><a xlink:href="dir_000046_000013.html" target="_top" xlink:title="4">
<text text-anchor="middle" x="323.21" y="-108.83" font-family="Helvetica,sans-Serif" font-size="10.00">4</text>
</a>
</g>
</g>
<!-- dir_fd1e11fb0964f7346e999e146b0dfd59 -->
<g id="node7" class="node">
<title>dir_fd1e11fb0964f7346e999e146b0dfd59</title>
<g id="a_node7"><a xlink:href="dir_fd1e11fb0964f7346e999e146b0dfd59.html" target="_top" xlink:title="common">
<polygon fill="none" stroke="black" points="219.5,-36 160.5,-36 160.5,0 219.5,0 219.5,-36"/>
<text text-anchor="middle" x="190" y="-15.5" font-family="Helvetica,sans-Serif" font-size="10.00">common</text>
</a>
</g>
</g>
<!-- dir_469dd4fe8a06b7a018d55910fd20ec61&#45;&gt;dir_fd1e11fb0964f7346e999e146b0dfd59 -->
<g id="edge15" class="edge">
<title>dir_469dd4fe8a06b7a018d55910fd20ec61&#45;&gt;dir_fd1e11fb0964f7346e999e146b0dfd59</title>
<path fill="none" stroke="black" d="M133.2,-437.88C84.83,-419.14 0,-376.4 0,-307 0,-307 0,-307 0,-161 0,-115.19 17.09,-101.67 52,-72 80.25,-47.99 120.57,-34.2 150.33,-26.74"/>
<polygon fill="black" stroke="black" points="151.46,-30.07 160.38,-24.36 149.84,-23.26 151.46,-30.07"/>
<g id="a_edge15&#45;headlabel"><a xlink:href="dir_000046_000017.html" target="_top" xlink:title="4">
<text text-anchor="middle" x="148.61" y="-31.16" font-family="Helvetica,sans-Serif" font-size="10.00">4</text>
</a>
</g>
</g>
<!-- dir_88ac4bf79705bb8559b852278d35d8da&#45;&gt;dir_469dd4fe8a06b7a018d55910fd20ec61 -->
<g id="edge3" class="edge">
<title>dir_88ac4bf79705bb8559b852278d35d8da&#45;&gt;dir_469dd4fe8a06b7a018d55910fd20ec61</title>
<path fill="none" stroke="black" d="M167.36,-396.1C168.83,-403.79 169.86,-413.05 170.26,-421.67"/>
<polygon fill="black" stroke="black" points="166.76,-421.76 170.43,-431.7 173.76,-421.64 166.76,-421.76"/>
<g id="a_edge3&#45;headlabel"><a xlink:href="dir_000012_000046.html" target="_top" xlink:title="28">
<text text-anchor="middle" x="163.86" y="-415.71" font-family="Helvetica,sans-Serif" font-size="10.00">28</text>
</a>
</g>
</g>
<!-- dir_88ac4bf79705bb8559b852278d35d8da&#45;&gt;dir_4843a4f4b536048b06467fd8eed65856 -->
<g id="edge4" class="edge">
<title>dir_88ac4bf79705bb8559b852278d35d8da&#45;&gt;dir_4843a4f4b536048b06467fd8eed65856</title>
<path fill="none" stroke="black" d="M159.03,-359.7C160.47,-351.81 162.97,-342.3 165.84,-333.55"/>
<polygon fill="black" stroke="black" points="169.15,-334.7 169.22,-324.1 162.56,-332.34 169.15,-334.7"/>
<g id="a_edge4&#45;headlabel"><a xlink:href="dir_000012_000044.html" target="_top" xlink:title="15">
<text text-anchor="middle" x="170.61" y="-336.54" font-family="Helvetica,sans-Serif" font-size="10.00">15</text>
</a>
</g>
</g>
<!-- dir_88ac4bf79705bb8559b852278d35d8da&#45;&gt;dir_5cbb9a0bf548abf0d2e32772c73d2ad6 -->
<g id="edge5" class="edge">
<title>dir_88ac4bf79705bb8559b852278d35d8da&#45;&gt;dir_5cbb9a0bf548abf0d2e32772c73d2ad6</title>
<path fill="none" stroke="black" d="M153.6,-359.59C150.14,-349.37 146.14,-336.12 144,-324 135.83,-277.64 134.51,-222.71 134.56,-190.48"/>
<polygon fill="black" stroke="black" points="138.07,-190.1 134.63,-180.07 131.07,-190.05 138.07,-190.1"/>
<g id="a_edge5&#45;headlabel"><a xlink:href="dir_000012_000035.html" target="_top" xlink:title="76">
<text text-anchor="middle" x="140.88" y="-191.21" font-family="Helvetica,sans-Serif" font-size="10.00">76</text>
</a>
</g>
</g>
<!-- dir_88ac4bf79705bb8559b852278d35d8da&#45;&gt;dir_c541d4b187fc5f863b4735b323978e0f -->
<g id="edge6" class="edge">
<title>dir_88ac4bf79705bb8559b852278d35d8da&#45;&gt;dir_c541d4b187fc5f863b4735b323978e0f</title>
<path fill="none" stroke="black" d="M187.23,-364.45C224.11,-345.79 288.61,-306.94 317,-252 339.05,-209.33 335.7,-189.73 321,-144 317.81,-134.08 312,-124.44 305.87,-116.17"/>
<polygon fill="black" stroke="black" points="308.42,-113.74 299.46,-108.08 302.93,-118.09 308.42,-113.74"/>
<g id="a_edge6&#45;headlabel"><a xlink:href="dir_000012_000013.html" target="_top" xlink:title="10">
<text text-anchor="middle" x="312.88" y="-112.3" font-family="Helvetica,sans-Serif" font-size="10.00">10</text>
</a>
</g>
</g>
<!-- dir_88ac4bf79705bb8559b852278d35d8da&#45;&gt;dir_fd1e11fb0964f7346e999e146b0dfd59 -->
<g id="edge7" class="edge">
<title>dir_88ac4bf79705bb8559b852278d35d8da&#45;&gt;dir_fd1e11fb0964f7346e999e146b0dfd59</title>
<path fill="none" stroke="black" d="M132.92,-361.6C96.98,-338.91 38,-292.85 38,-235 38,-235 38,-235 38,-161 38,-99.13 106.07,-56.48 151.1,-35.03"/>
<polygon fill="black" stroke="black" points="152.72,-38.14 160.33,-30.77 149.79,-31.78 152.72,-38.14"/>
<g id="a_edge7&#45;headlabel"><a xlink:href="dir_000012_000017.html" target="_top" xlink:title="31">
<text text-anchor="middle" x="150.64" y="-39.72" font-family="Helvetica,sans-Serif" font-size="10.00">31</text>
</a>
</g>
</g>
<!-- dir_4843a4f4b536048b06467fd8eed65856&#45;&gt;dir_469dd4fe8a06b7a018d55910fd20ec61 -->
<g id="edge18" class="edge">
<title>dir_4843a4f4b536048b06467fd8eed65856&#45;&gt;dir_469dd4fe8a06b7a018d55910fd20ec61</title>
<path fill="none" stroke="black" d="M194.23,-324.24C203.35,-342.3 211.48,-371.41 205,-396 202.48,-405.56 197.8,-415.21 192.43,-423.61"/>
<polygon fill="black" stroke="black" points="189.53,-421.65 186.65,-431.85 195.26,-425.67 189.53,-421.65"/>
<g id="a_edge18&#45;headlabel"><a xlink:href="dir_000044_000046.html" target="_top" xlink:title="2">
<text text-anchor="middle" x="189.27" y="-414.58" font-family="Helvetica,sans-Serif" font-size="10.00">2</text>
</a>
</g>
</g>
<!-- dir_4843a4f4b536048b06467fd8eed65856&#45;&gt;dir_88ac4bf79705bb8559b852278d35d8da -->
<g id="edge20" class="edge">
<title>dir_4843a4f4b536048b06467fd8eed65856&#45;&gt;dir_88ac4bf79705bb8559b852278d35d8da</title>
<path fill="none" stroke="black" d="M181.01,-324.1C179.59,-331.96 177.1,-341.46 174.23,-350.23"/>
<polygon fill="black" stroke="black" points="170.92,-349.1 170.86,-359.7 177.51,-351.45 170.92,-349.1"/>
<g id="a_edge20&#45;headlabel"><a xlink:href="dir_000044_000012.html" target="_top" xlink:title="3">
<text text-anchor="middle" x="169.45" y="-342.26" font-family="Helvetica,sans-Serif" font-size="10.00">3</text>
</a>
</g>
</g>
<!-- dir_4843a4f4b536048b06467fd8eed65856&#45;&gt;dir_5cbb9a0bf548abf0d2e32772c73d2ad6 -->
<g id="edge19" class="edge">
<title>dir_4843a4f4b536048b06467fd8eed65856&#45;&gt;dir_5cbb9a0bf548abf0d2e32772c73d2ad6</title>
<path fill="none" stroke="black" d="M174.57,-287.87C166.87,-263.56 152.69,-218.82 143.56,-190.01"/>
<polygon fill="black" stroke="black" points="146.8,-188.66 140.45,-180.19 140.13,-190.78 146.8,-188.66"/>
<g id="a_edge19&#45;headlabel"><a xlink:href="dir_000044_000035.html" target="_top" xlink:title="6">
<text text-anchor="middle" x="150.6" y="-188.73" font-family="Helvetica,sans-Serif" font-size="10.00">6</text>
</a>
</g>
</g>
<!-- dir_909df41e089bc57b29bc62cc6d76d6dc -->
<g id="node5" class="node">
<title>dir_909df41e089bc57b29bc62cc6d76d6dc</title>
<g id="a_node5"><a xlink:href="dir_909df41e089bc57b29bc62cc6d76d6dc.html" target="_top" xlink:title="annotation">
<polygon fill="none" stroke="black" points="287.5,-252 218.5,-252 218.5,-216 287.5,-216 287.5,-252"/>
<text text-anchor="middle" x="253" y="-231.5" font-family="Helvetica,sans-Serif" font-size="10.00">annotation</text>
</a>
</g>
</g>
<!-- dir_4843a4f4b536048b06467fd8eed65856&#45;&gt;dir_909df41e089bc57b29bc62cc6d76d6dc -->
<g id="edge21" class="edge">
<title>dir_4843a4f4b536048b06467fd8eed65856&#45;&gt;dir_909df41e089bc57b29bc62cc6d76d6dc</title>
<path fill="none" stroke="black" d="M198.04,-287.7C207.06,-279.05 218.12,-268.45 227.94,-259.03"/>
<polygon fill="black" stroke="black" points="230.37,-261.55 235.16,-252.1 225.52,-256.5 230.37,-261.55"/>
<g id="a_edge21&#45;headlabel"><a xlink:href="dir_000044_000027.html" target="_top" xlink:title="1">
<text text-anchor="middle" x="229.74" y="-263.59" font-family="Helvetica,sans-Serif" font-size="10.00">1</text>
</a>
</g>
</g>
<!-- dir_4843a4f4b536048b06467fd8eed65856&#45;&gt;dir_c541d4b187fc5f863b4735b323978e0f -->
<g id="edge22" class="edge">
<title>dir_4843a4f4b536048b06467fd8eed65856&#45;&gt;dir_c541d4b187fc5f863b4735b323978e0f</title>
<path fill="none" stroke="black" d="M207.05,-301.24C235,-295.76 277.24,-282.64 297,-252 323.32,-211.19 307.65,-151.96 294.73,-117.88"/>
<polygon fill="black" stroke="black" points="297.82,-116.15 290.87,-108.16 291.31,-118.74 297.82,-116.15"/>
<g id="a_edge22&#45;headlabel"><a xlink:href="dir_000044_000013.html" target="_top" xlink:title="2">
<text text-anchor="middle" x="301.78" y="-115.94" font-family="Helvetica,sans-Serif" font-size="10.00">2</text>
</a>
</g>
</g>
<!-- dir_4843a4f4b536048b06467fd8eed65856&#45;&gt;dir_fd1e11fb0964f7346e999e146b0dfd59 -->
<g id="edge23" class="edge">
<title>dir_4843a4f4b536048b06467fd8eed65856&#45;&gt;dir_fd1e11fb0964f7346e999e146b0dfd59</title>
<path fill="none" stroke="black" d="M180.6,-287.97C182.26,-240.29 186.99,-105.18 189.03,-46.63"/>
<polygon fill="black" stroke="black" points="192.54,-46.42 189.39,-36.31 185.55,-46.18 192.54,-46.42"/>
<g id="a_edge23&#45;headlabel"><a xlink:href="dir_000044_000017.html" target="_top" xlink:title="4">
<text text-anchor="middle" x="195.26" y="-47.61" font-family="Helvetica,sans-Serif" font-size="10.00">4</text>
</a>
</g>
</g>
<!-- dir_5cbb9a0bf548abf0d2e32772c73d2ad6&#45;&gt;dir_c541d4b187fc5f863b4735b323978e0f -->
<g id="edge16" class="edge">
<title>dir_5cbb9a0bf548abf0d2e32772c73d2ad6&#45;&gt;dir_c541d4b187fc5f863b4735b323978e0f</title>
<path fill="none" stroke="black" d="M162.15,-148.16C185.85,-136.95 220.46,-120.58 246.58,-108.23"/>
<polygon fill="black" stroke="black" points="248.23,-111.32 255.78,-103.88 245.24,-104.99 248.23,-111.32"/>
<g id="a_edge16&#45;headlabel"><a xlink:href="dir_000035_000013.html" target="_top" xlink:title="5">
<text text-anchor="middle" x="246.2" y="-112.92" font-family="Helvetica,sans-Serif" font-size="10.00">5</text>
</a>
</g>
</g>
<!-- dir_5cbb9a0bf548abf0d2e32772c73d2ad6&#45;&gt;dir_fd1e11fb0964f7346e999e146b0dfd59 -->
<g id="edge17" class="edge">
<title>dir_5cbb9a0bf548abf0d2e32772c73d2ad6&#45;&gt;dir_fd1e11fb0964f7346e999e146b0dfd59</title>
<path fill="none" stroke="black" d="M141.63,-143.87C151.09,-119.46 168.53,-74.43 179.68,-45.64"/>
<polygon fill="black" stroke="black" points="182.99,-46.78 183.34,-36.19 176.47,-44.25 182.99,-46.78"/>
<g id="a_edge17&#45;headlabel"><a xlink:href="dir_000035_000017.html" target="_top" xlink:title="16">
<text text-anchor="middle" x="184.34" y="-48.66" font-family="Helvetica,sans-Serif" font-size="10.00">16</text>
</a>
</g>
</g>
<!-- dir_909df41e089bc57b29bc62cc6d76d6dc&#45;&gt;dir_5cbb9a0bf548abf0d2e32772c73d2ad6 -->
<g id="edge8" class="edge">
<title>dir_909df41e089bc57b29bc62cc6d76d6dc&#45;&gt;dir_5cbb9a0bf548abf0d2e32772c73d2ad6</title>
<path fill="none" stroke="black" d="M224.13,-215.88C208.24,-206.45 188.37,-194.66 171.42,-184.61"/>
<polygon fill="black" stroke="black" points="172.74,-181.32 162.35,-179.23 169.17,-187.34 172.74,-181.32"/>
<g id="a_edge8&#45;headlabel"><a xlink:href="dir_000027_000035.html" target="_top" xlink:title="12">
<text text-anchor="middle" x="177.28" y="-178.21" font-family="Helvetica,sans-Serif" font-size="10.00">12</text>
</a>
</g>
</g>
<!-- dir_909df41e089bc57b29bc62cc6d76d6dc&#45;&gt;dir_c541d4b187fc5f863b4735b323978e0f -->
<g id="edge9" class="edge">
<title>dir_909df41e089bc57b29bc62cc6d76d6dc&#45;&gt;dir_c541d4b187fc5f863b4735b323978e0f</title>
<path fill="none" stroke="black" d="M256.62,-215.87C261.75,-191.56 271.21,-146.82 277.29,-118.01"/>
<polygon fill="black" stroke="black" points="280.73,-118.7 279.37,-108.19 273.88,-117.25 280.73,-118.7"/>
<g id="a_edge9&#45;headlabel"><a xlink:href="dir_000027_000013.html" target="_top" xlink:title="7">
<text text-anchor="middle" x="282.76" y="-120.3" font-family="Helvetica,sans-Serif" font-size="10.00">7</text>
</a>
</g>
</g>
<!-- dir_909df41e089bc57b29bc62cc6d76d6dc&#45;&gt;dir_fd1e11fb0964f7346e999e146b0dfd59 -->
<g id="edge10" class="edge">
<title>dir_909df41e089bc57b29bc62cc6d76d6dc&#45;&gt;dir_fd1e11fb0964f7346e999e146b0dfd59</title>
<path fill="none" stroke="black" d="M247.95,-215.85C237.03,-178.75 211.14,-90.81 197.98,-46.1"/>
<polygon fill="black" stroke="black" points="201.25,-44.84 195.07,-36.23 194.54,-46.81 201.25,-44.84"/>
<g id="a_edge10&#45;headlabel"><a xlink:href="dir_000027_000017.html" target="_top" xlink:title="18">
<text text-anchor="middle" x="204.99" y="-44.98" font-family="Helvetica,sans-Serif" font-size="10.00">18</text>
</a>
</g>
</g>
<!-- dir_c541d4b187fc5f863b4735b323978e0f&#45;&gt;dir_fd1e11fb0964f7346e999e146b0dfd59 -->
<g id="edge2" class="edge">
<title>dir_c541d4b187fc5f863b4735b323978e0f&#45;&gt;dir_fd1e11fb0964f7346e999e146b0dfd59</title>
<path fill="none" stroke="black" d="M255.88,-72.94C242.89,-63.93 227.53,-52.53 214.85,-42.54"/>
<polygon fill="black" stroke="black" points="216.95,-39.73 206.96,-36.21 212.57,-45.19 216.95,-39.73"/>
<g id="a_edge2&#45;headlabel"><a xlink:href="dir_000013_000017.html" target="_top" xlink:title="6">
<text text-anchor="middle" x="221.53" y="-37.26" font-family="Helvetica,sans-Serif" font-size="10.00">6</text>
</a>
</g>
</g>
<!-- dir_fd1e11fb0964f7346e999e146b0dfd59&#45;&gt;dir_c541d4b187fc5f863b4735b323978e0f -->
<g id="edge1" class="edge">
<title>dir_fd1e11fb0964f7346e999e146b0dfd59&#45;&gt;dir_c541d4b187fc5f863b4735b323978e0f</title>
<path fill="none" stroke="black" d="M218.62,-36.1C231.21,-44.89 245.79,-55.73 257.95,-65.31"/>
<polygon fill="black" stroke="black" points="255.93,-68.18 265.93,-71.7 260.31,-62.71 255.93,-68.18"/>
<g id="a_edge1&#45;headlabel"><a xlink:href="dir_000017_000013.html" target="_top" xlink:title="2">
<text text-anchor="middle" x="251.35" y="-65.65" font-family="Helvetica,sans-Serif" font-size="10.00">2</text>
</a>
</g>
</g>
</g>
</svg>
