<?xml version="1.0" encoding="UTF-8" standalone="no"?>
<!DOCTYPE svg PUBLIC "-//W3C//DTD SVG 1.1//EN"
 "http://www.w3.org/Graphics/SVG/1.1/DTD/svg11.dtd">
<!-- Generated by graphviz version 2.43.0 (0)
 -->
<!-- Title: validator Pages: 1 -->
<svg width="240pt" height="167pt"
 viewBox="0.00 0.00 239.50 167.00" xmlns="http://www.w3.org/2000/svg" xmlns:xlink="http://www.w3.org/1999/xlink">
<g id="graph0" class="graph" transform="scale(1 1) rotate(0) translate(4 163)">
<title>validator</title>
<polygon fill="white" stroke="transparent" points="-4,4 -4,-163 235.5,-163 235.5,4 -4,4"/>
<g id="clust1" class="cluster">
<title>clusterdir_7b03e134e134ebc1f6457862e207af52</title>
<g id="a_clust1"><a xlink:href="dir_7b03e134e134ebc1f6457862e207af52.html" target="_top" xlink:title="fbc">
<polygon fill="#ddddee" stroke="black" points="8,-8 8,-151 84,-151 84,-8 8,-8"/>
<text text-anchor="middle" x="46" y="-139" font-family="Helvetica,sans-Serif" font-size="10.00">fbc</text>
</a>
</g>
</g>
<!-- dir_496e4851956202bb45315fe7c1680ab4 -->
<g id="node1" class="node">
<title>dir_496e4851956202bb45315fe7c1680ab4</title>
<g id="a_node1"><a xlink:href="dir_496e4851956202bb45315fe7c1680ab4.html" target="_top" xlink:title="common">
<polygon fill="none" stroke="black" points="75.5,-52 16.5,-52 16.5,-16 75.5,-16 75.5,-52"/>
<text text-anchor="middle" x="46" y="-31.5" font-family="Helvetica,sans-Serif" font-size="10.00">common</text>
</a>
</g>
</g>
<!-- dir_c544f6b6e4a385d48ff69b15c3322539 -->
<g id="node2" class="node">
<title>dir_c544f6b6e4a385d48ff69b15c3322539</title>
<g id="a_node2"><a xlink:href="dir_c544f6b6e4a385d48ff69b15c3322539.html" target="_top" xlink:title="validator">
<polygon fill="#eeeeff" stroke="black" points="76,-124 16,-124 16,-88 76,-88 76,-124"/>
<text text-anchor="middle" x="46" y="-103.5" font-family="Helvetica,sans-Serif" font-size="10.00">validator</text>
</a>
</g>
</g>
<!-- dir_c544f6b6e4a385d48ff69b15c3322539&#45;&gt;dir_496e4851956202bb45315fe7c1680ab4 -->
<g id="edge1" class="edge">
<title>dir_c544f6b6e4a385d48ff69b15c3322539&#45;&gt;dir_496e4851956202bb45315fe7c1680ab4</title>
<path fill="none" stroke="black" d="M46,-87.7C46,-79.98 46,-70.71 46,-62.11"/>
<polygon fill="black" stroke="black" points="49.5,-62.1 46,-52.1 42.5,-62.1 49.5,-62.1"/>
<g id="a_edge1&#45;headlabel"><a xlink:href="dir_000036_000038.html" target="_top" xlink:title="1">
<text text-anchor="middle" x="52.34" y="-63.2" font-family="Helvetica,sans-Serif" font-size="10.00">1</text>
</a>
</g>
</g>
<!-- dir_a0a785b8d726fb513b94381e63693443 -->
<g id="node3" class="node">
<title>dir_a0a785b8d726fb513b94381e63693443</title>
<g id="a_node3"><a xlink:href="dir_a0a785b8d726fb513b94381e63693443.html" target="_top" xlink:title="validator">
<polygon fill="none" stroke="black" points="154,-52 94,-52 94,-16 154,-16 154,-52"/>
<text text-anchor="middle" x="124" y="-31.5" font-family="Helvetica,sans-Serif" font-size="10.00">validator</text>
</a>
</g>
</g>
<!-- dir_c544f6b6e4a385d48ff69b15c3322539&#45;&gt;dir_a0a785b8d726fb513b94381e63693443 -->
<g id="edge2" class="edge">
<title>dir_c544f6b6e4a385d48ff69b15c3322539&#45;&gt;dir_a0a785b8d726fb513b94381e63693443</title>
<path fill="none" stroke="black" d="M65.28,-87.7C74.92,-79.05 86.73,-68.45 97.23,-59.03"/>
<polygon fill="black" stroke="black" points="99.84,-61.39 104.94,-52.1 95.16,-56.18 99.84,-61.39"/>
<g id="a_edge2&#45;headlabel"><a xlink:href="dir_000036_000025.html" target="_top" xlink:title="3">
<text text-anchor="middle" x="99.06" y="-63.4" font-family="Helvetica,sans-Serif" font-size="10.00">3</text>
</a>
</g>
</g>
<!-- dir_fd1e11fb0964f7346e999e146b0dfd59 -->
<g id="node4" class="node">
<title>dir_fd1e11fb0964f7346e999e146b0dfd59</title>
<g id="a_node4"><a xlink:href="dir_fd1e11fb0964f7346e999e146b0dfd59.html" target="_top" xlink:title="common">
<polygon fill="none" stroke="black" points="231.5,-52 172.5,-52 172.5,-16 231.5,-16 231.5,-52"/>
<text text-anchor="middle" x="202" y="-31.5" font-family="Helvetica,sans-Serif" font-size="10.00">common</text>
</a>
</g>
</g>
<!-- dir_c544f6b6e4a385d48ff69b15c3322539&#45;&gt;dir_fd1e11fb0964f7346e999e146b0dfd59 -->
<g id="edge3" class="edge">
<title>dir_c544f6b6e4a385d48ff69b15c3322539&#45;&gt;dir_fd1e11fb0964f7346e999e146b0dfd59</title>
<path fill="none" stroke="black" d="M76.08,-91.5C100.87,-80.38 136.2,-64.52 163.13,-52.44"/>
<polygon fill="black" stroke="black" points="164.59,-55.62 172.28,-48.34 161.72,-49.24 164.59,-55.62"/>
<g id="a_edge3&#45;headlabel"><a xlink:href="dir_000036_000017.html" target="_top" xlink:title="1">
<text text-anchor="middle" x="162.47" y="-57.19" font-family="Helvetica,sans-Serif" font-size="10.00">1</text>
</a>
</g>
</g>
</g>
</svg>
