<?xml version="1.0" encoding="UTF-8" standalone="no"?>
<!DOCTYPE svg PUBLIC "-//W3C//DTD SVG 1.1//EN"
 "http://www.w3.org/Graphics/SVG/1.1/DTD/svg11.dtd">
<!-- Generated by graphviz version 2.43.0 (0)
 -->
<!-- Title: extension Pages: 1 -->
<!--zoomable 655 -->
<svg id="main" version="1.1" xmlns="http://www.w3.org/2000/svg" xmlns:xlink="http://www.w3.org/1999/xlink" xml:space="preserve" onload="init(evt)">
<style type="text/css"><![CDATA[
.edge:hover path { stroke: red; }
.edge:hover polygon { stroke: red; fill: red; }
]]></style>
<script type="text/javascript"><![CDATA[
var edges = document.getElementsByTagName('g');
if (edges && edges.length) {
  for (var i=0;i<edges.length;i++) {
    if (edges[i].id.substr(0,4)=='edge') {
      edges[i].setAttribute('class','edge');
    }
  }
}
]]></script>
        <defs>
                <circle id="rim" cx="0" cy="0" r="7"/>
                <circle id="rim2" cx="0" cy="0" r="3.5"/>
                <g id="zoomPlus">
                        <use xlink:href="#rim" fill="#404040">
                                <set attributeName="fill" to="#808080" begin="zoomplus.mouseover" end="zoomplus.mouseout"/>
                        </use>
                        <path d="M-4,0h8M0,-4v8" fill="none" stroke="white" stroke-width="1.5" pointer-events="none"/>
                </g>
                <g id="zoomMin">
                        <use xlink:href="#rim" fill="#404040">
                                <set attributeName="fill" to="#808080" begin="zoomminus.mouseover" end="zoomminus.mouseout"/>
                        </use>
                        <path d="M-4,0h8" fill="none" stroke="white" stroke-width="1.5" pointer-events="none"/>
                </g>
                <g id="dirArrow">
                        <path fill="none" stroke="white" stroke-width="1.5" d="M0,-3.0v7 M-2.5,-0.5L0,-3.0L2.5,-0.5"/>
                </g>
               <g id="resetDef">
                       <use xlink:href="#rim2" fill="#404040">
                               <set attributeName="fill" to="#808080" begin="reset.mouseover" end="reset.mouseout"/>
                       </use>
               </g>
        </defs>

<script type="text/javascript">
var viewWidth = 463;
var viewHeight = 655;
var sectionId = 'dynsection-0';
</script>
<script xlink:href="svgpan.js"/>
<svg id="graph" class="graph">
<g id="viewport">
<title>extension</title>
<polygon fill="white" stroke="transparent" points="-4,4 -4,-651 458.75,-651 458.75,4 -4,4"/>
<g id="clust1" class="cluster">
<title>clusterdir_8c25a664b4b6cfdfb5234e8b61efda61</title>
<g id="a_clust1"><a xlink:href="dir_8c25a664b4b6cfdfb5234e8b61efda61.html" target="_top" xlink:title="render">
<polygon fill="#ddddee" stroke="black" points="62.75,-352 62.75,-639 210.75,-639 210.75,-352 62.75,-352"/>
<text text-anchor="middle" x="136.75" y="-627" font-family="Helvetica,sans-Serif" font-size="10.00">render</text>
</a>
</g>
</g>
<!-- dir_0f865acc0217e49aeb49ab1c50c8f73a -->
<g id="node1" class="node">
<title>dir_0f865acc0217e49aeb49ab1c50c8f73a</title>
<g id="a_node1"><a xlink:href="dir_0f865acc0217e49aeb49ab1c50c8f73a.html" target="_top" xlink:title="common">
<polygon fill="none" stroke="black" points="162.25,-612 103.25,-612 103.25,-576 162.25,-576 162.25,-612"/>
<text text-anchor="middle" x="132.75" y="-591.5" font-family="Helvetica,sans-Serif" font-size="10.00">common</text>
</a>
</g>
</g>
<!-- dir_224c4a10832b4053571db2c932d86b0d -->
<g id="node2" class="node">
<title>dir_224c4a10832b4053571db2c932d86b0d</title>
<g id="a_node2"><a xlink:href="dir_224c4a10832b4053571db2c932d86b0d.html" target="_top" xlink:title="sbml">
<polygon fill="none" stroke="black" points="182.75,-540 128.75,-540 128.75,-504 182.75,-504 182.75,-540"/>
<text text-anchor="middle" x="155.75" y="-519.5" font-family="Helvetica,sans-Serif" font-size="10.00">sbml</text>
</a>
</g>
</g>
<!-- dir_0f865acc0217e49aeb49ab1c50c8f73a&#45;&gt;dir_224c4a10832b4053571db2c932d86b0d -->
<g id="edge31" class="edge">
<title>dir_0f865acc0217e49aeb49ab1c50c8f73a&#45;&gt;dir_224c4a10832b4053571db2c932d86b0d</title>
<path fill="none" stroke="black" d="M132.52,-575.7C134.3,-567.81 137.2,-558.3 140.46,-549.55"/>
<polygon fill="black" stroke="black" points="143.77,-550.69 144.24,-540.1 137.27,-548.09 143.77,-550.69"/>
<g id="a_edge31&#45;headlabel"><a xlink:href="dir_000056_000016.html" target="_top" xlink:title="34">
<text text-anchor="middle" x="145.07" y="-552.58" font-family="Helvetica,sans-Serif" font-size="10.00">34</text>
</a>
</g>
</g>
<!-- dir_6b5446d9575188b5a170aae88d74d865 -->
<g id="node5" class="node">
<title>dir_6b5446d9575188b5a170aae88d74d865</title>
<g id="a_node5"><a xlink:href="dir_6b5446d9575188b5a170aae88d74d865.html" target="_top" xlink:title="extension">
<polygon fill="#eeeeff" stroke="black" points="162.25,-468 97.25,-468 97.25,-432 162.25,-432 162.25,-468"/>
<text text-anchor="middle" x="129.75" y="-447.5" font-family="Helvetica,sans-Serif" font-size="10.00">extension</text>
</a>
</g>
</g>
<!-- dir_0f865acc0217e49aeb49ab1c50c8f73a&#45;&gt;dir_6b5446d9575188b5a170aae88d74d865 -->
<g id="edge32" class="edge">
<title>dir_0f865acc0217e49aeb49ab1c50c8f73a&#45;&gt;dir_6b5446d9575188b5a170aae88d74d865</title>
<path fill="none" stroke="black" d="M119.47,-575.53C115.46,-565.29 112.21,-552.04 110.75,-540 108.23,-519.1 111.17,-495.4 115.84,-477.72"/>
<polygon fill="black" stroke="black" points="119.21,-478.66 118.75,-468.07 112.51,-476.63 119.21,-478.66"/>
<g id="a_edge32&#45;headlabel"><a xlink:href="dir_000056_000055.html" target="_top" xlink:title="5">
<text text-anchor="middle" x="120.89" y="-480.42" font-family="Helvetica,sans-Serif" font-size="10.00">5</text>
</a>
</g>
</g>
<!-- dir_224c4a10832b4053571db2c932d86b0d&#45;&gt;dir_0f865acc0217e49aeb49ab1c50c8f73a -->
<g id="edge17" class="edge">
<title>dir_224c4a10832b4053571db2c932d86b0d&#45;&gt;dir_0f865acc0217e49aeb49ab1c50c8f73a</title>
<path fill="none" stroke="black" d="M156.03,-540.1C154.27,-547.96 151.38,-557.46 148.13,-566.23"/>
<polygon fill="black" stroke="black" points="144.81,-565.11 144.35,-575.7 151.31,-567.71 144.81,-565.11"/>
<g id="a_edge17&#45;headlabel"><a xlink:href="dir_000016_000056.html" target="_top" xlink:title="36">
<text text-anchor="middle" x="143.5" y="-558.22" font-family="Helvetica,sans-Serif" font-size="10.00">36</text>
</a>
</g>
</g>
<!-- dir_b1a5b7ba9091facbdf32a321b74a0f11 -->
<g id="node4" class="node">
<title>dir_b1a5b7ba9091facbdf32a321b74a0f11</title>
<g id="a_node4"><a xlink:href="dir_b1a5b7ba9091facbdf32a321b74a0f11.html" target="_top" xlink:title="validator">
<polygon fill="none" stroke="black" points="130.75,-396 70.75,-396 70.75,-360 130.75,-360 130.75,-396"/>
<text text-anchor="middle" x="100.75" y="-375.5" font-family="Helvetica,sans-Serif" font-size="10.00">validator</text>
</a>
</g>
</g>
<!-- dir_224c4a10832b4053571db2c932d86b0d&#45;&gt;dir_b1a5b7ba9091facbdf32a321b74a0f11 -->
<g id="edge21" class="edge">
<title>dir_224c4a10832b4053571db2c932d86b0d&#45;&gt;dir_b1a5b7ba9091facbdf32a321b74a0f11</title>
<path fill="none" stroke="black" d="M164.94,-503.7C173.48,-485.07 183.29,-455.02 171.75,-432 164.81,-418.15 152.33,-406.99 139.75,-398.55"/>
<polygon fill="black" stroke="black" points="141.43,-395.47 131.1,-393.14 137.72,-401.41 141.43,-395.47"/>
<g id="a_edge21&#45;headlabel"><a xlink:href="dir_000016_000054.html" target="_top" xlink:title="35">
<text text-anchor="middle" x="145.98" y="-392.47" font-family="Helvetica,sans-Serif" font-size="10.00">35</text>
</a>
</g>
</g>
<!-- dir_224c4a10832b4053571db2c932d86b0d&#45;&gt;dir_6b5446d9575188b5a170aae88d74d865 -->
<g id="edge20" class="edge">
<title>dir_224c4a10832b4053571db2c932d86b0d&#45;&gt;dir_6b5446d9575188b5a170aae88d74d865</title>
<path fill="none" stroke="black" d="M143.41,-503.7C139.71,-495.9 136,-486.51 133.13,-477.83"/>
<polygon fill="black" stroke="black" points="136.44,-476.67 130.21,-468.1 129.74,-478.69 136.44,-476.67"/>
<g id="a_edge20&#45;headlabel"><a xlink:href="dir_000016_000055.html" target="_top" xlink:title="55">
<text text-anchor="middle" x="140.19" y="-476.8" font-family="Helvetica,sans-Serif" font-size="10.00">55</text>
</a>
</g>
</g>
<!-- dir_56d603006930d6f32ca38bb932b49787 -->
<g id="node7" class="node">
<title>dir_56d603006930d6f32ca38bb932b49787</title>
<g id="a_node7"><a xlink:href="dir_56d603006930d6f32ca38bb932b49787.html" target="_top" xlink:title="layout">
<polygon fill="white" stroke="red" points="350.75,-324 296.75,-324 296.75,-288 350.75,-288 350.75,-324"/>
<text text-anchor="middle" x="323.75" y="-303.5" font-family="Helvetica,sans-Serif" font-size="10.00">layout</text>
</a>
</g>
</g>
<!-- dir_224c4a10832b4053571db2c932d86b0d&#45;&gt;dir_56d603006930d6f32ca38bb932b49787 -->
<g id="edge18" class="edge">
<title>dir_224c4a10832b4053571db2c932d86b0d&#45;&gt;dir_56d603006930d6f32ca38bb932b49787</title>
<path fill="none" stroke="black" d="M182.87,-507.49C218.64,-488.11 280.59,-448.84 310.75,-396 321.43,-377.29 324.37,-352.91 324.82,-334.39"/>
<polygon fill="black" stroke="black" points="328.32,-334.26 324.83,-324.26 321.32,-334.25 328.32,-334.26"/>
<g id="a_edge18&#45;headlabel"><a xlink:href="dir_000016_000011.html" target="_top" xlink:title="42">
<text text-anchor="middle" x="331.15" y="-335.36" font-family="Helvetica,sans-Serif" font-size="10.00">42</text>
</a>
</g>
</g>
<!-- dir_5cbb9a0bf548abf0d2e32772c73d2ad6 -->
<g id="node8" class="node">
<title>dir_5cbb9a0bf548abf0d2e32772c73d2ad6</title>
<g id="a_node8"><a xlink:href="dir_5cbb9a0bf548abf0d2e32772c73d2ad6.html" target="_top" xlink:title="xml">
<polygon fill="none" stroke="black" points="288.75,-180 234.75,-180 234.75,-144 288.75,-144 288.75,-180"/>
<text text-anchor="middle" x="261.75" y="-159.5" font-family="Helvetica,sans-Serif" font-size="10.00">xml</text>
</a>
</g>
</g>
<!-- dir_224c4a10832b4053571db2c932d86b0d&#45;&gt;dir_5cbb9a0bf548abf0d2e32772c73d2ad6 -->
<g id="edge19" class="edge">
<title>dir_224c4a10832b4053571db2c932d86b0d&#45;&gt;dir_5cbb9a0bf548abf0d2e32772c73d2ad6</title>
<path fill="none" stroke="black" d="M183.19,-518.88C250.2,-512.06 416.75,-484.49 416.75,-379 416.75,-379 416.75,-379 416.75,-305 416.75,-241.12 344.28,-198.2 298.45,-177.45"/>
<polygon fill="black" stroke="black" points="299.67,-174.17 289.11,-173.36 296.86,-180.58 299.67,-174.17"/>
<g id="a_edge19&#45;headlabel"><a xlink:href="dir_000016_000035.html" target="_top" xlink:title="39">
<text text-anchor="middle" x="304.1" y="-170.51" font-family="Helvetica,sans-Serif" font-size="10.00">39</text>
</a>
</g>
</g>
<!-- dir_c541d4b187fc5f863b4735b323978e0f -->
<g id="node9" class="node">
<title>dir_c541d4b187fc5f863b4735b323978e0f</title>
<g id="a_node9"><a xlink:href="dir_c541d4b187fc5f863b4735b323978e0f.html" target="_top" xlink:title="util">
<polygon fill="none" stroke="black" points="178.75,-108 124.75,-108 124.75,-72 178.75,-72 178.75,-108"/>
<text text-anchor="middle" x="151.75" y="-87.5" font-family="Helvetica,sans-Serif" font-size="10.00">util</text>
</a>
</g>
</g>
<!-- dir_224c4a10832b4053571db2c932d86b0d&#45;&gt;dir_c541d4b187fc5f863b4735b323978e0f -->
<g id="edge22" class="edge">
<title>dir_224c4a10832b4053571db2c932d86b0d&#45;&gt;dir_c541d4b187fc5f863b4735b323978e0f</title>
<path fill="none" stroke="black" d="M128.58,-504.37C97.71,-483.56 49.45,-444.67 32.75,-396 -4.48,-287.48 18.74,-234.9 88.75,-144 97.23,-132.99 108.35,-122.7 118.89,-114.17"/>
<polygon fill="black" stroke="black" points="121.06,-116.92 126.78,-108.01 116.75,-111.4 121.06,-116.92"/>
<g id="a_edge22&#45;headlabel"><a xlink:href="dir_000016_000013.html" target="_top" xlink:title="11">
<text text-anchor="middle" x="119.97" y="-118.87" font-family="Helvetica,sans-Serif" font-size="10.00">11</text>
</a>
</g>
</g>
<!-- dir_fd1e11fb0964f7346e999e146b0dfd59 -->
<g id="node11" class="node">
<title>dir_fd1e11fb0964f7346e999e146b0dfd59</title>
<g id="a_node11"><a xlink:href="dir_fd1e11fb0964f7346e999e146b0dfd59.html" target="_top" xlink:title="common">
<polygon fill="none" stroke="black" points="181.25,-36 122.25,-36 122.25,0 181.25,0 181.25,-36"/>
<text text-anchor="middle" x="151.75" y="-15.5" font-family="Helvetica,sans-Serif" font-size="10.00">common</text>
</a>
</g>
</g>
<!-- dir_224c4a10832b4053571db2c932d86b0d&#45;&gt;dir_fd1e11fb0964f7346e999e146b0dfd59 -->
<g id="edge23" class="edge">
<title>dir_224c4a10832b4053571db2c932d86b0d&#45;&gt;dir_fd1e11fb0964f7346e999e146b0dfd59</title>
<path fill="none" stroke="black" d="M182.81,-520.52C256.41,-517.66 454.75,-498.82 454.75,-379 454.75,-379 454.75,-379 454.75,-161 454.75,-46.07 273.81,-23.97 191.58,-19.86"/>
<polygon fill="black" stroke="black" points="191.5,-16.35 181.36,-19.42 191.19,-23.35 191.5,-16.35"/>
<g id="a_edge23&#45;headlabel"><a xlink:href="dir_000016_000017.html" target="_top" xlink:title="73">
<text text-anchor="middle" x="195.21" y="-11.17" font-family="Helvetica,sans-Serif" font-size="10.00">73</text>
</a>
</g>
</g>
<!-- dir_b14b741173403ad069a896263b3f14b4 -->
<g id="node3" class="node">
<title>dir_b14b741173403ad069a896263b3f14b4</title>
<g id="a_node3"><a xlink:href="dir_b14b741173403ad069a896263b3f14b4.html" target="_top" xlink:title="util">
<polygon fill="none" stroke="black" points="202.75,-396 148.75,-396 148.75,-360 202.75,-360 202.75,-396"/>
<text text-anchor="middle" x="175.75" y="-375.5" font-family="Helvetica,sans-Serif" font-size="10.00">util</text>
</a>
</g>
</g>
<!-- dir_b14b741173403ad069a896263b3f14b4&#45;&gt;dir_0f865acc0217e49aeb49ab1c50c8f73a -->
<g id="edge24" class="edge">
<title>dir_b14b741173403ad069a896263b3f14b4&#45;&gt;dir_0f865acc0217e49aeb49ab1c50c8f73a</title>
<path fill="none" stroke="black" d="M182.91,-396.35C194.35,-426.87 213.37,-491.51 191.75,-540 186.67,-551.4 177.79,-561.37 168.44,-569.49"/>
<polygon fill="black" stroke="black" points="166.13,-566.86 160.55,-575.87 170.53,-572.31 166.13,-566.86"/>
<g id="a_edge24&#45;headlabel"><a xlink:href="dir_000057_000056.html" target="_top" xlink:title="3">
<text text-anchor="middle" x="167.14" y="-559.89" font-family="Helvetica,sans-Serif" font-size="10.00">3</text>
</a>
</g>
</g>
<!-- dir_b14b741173403ad069a896263b3f14b4&#45;&gt;dir_6b5446d9575188b5a170aae88d74d865 -->
<g id="edge28" class="edge">
<title>dir_b14b741173403ad069a896263b3f14b4&#45;&gt;dir_6b5446d9575188b5a170aae88d74d865</title>
<path fill="none" stroke="black" d="M170.41,-396.1C165.88,-404.3 159.53,-414.28 153.13,-423.36"/>
<polygon fill="black" stroke="black" points="150.11,-421.56 147.04,-431.7 155.76,-425.69 150.11,-421.56"/>
<g id="a_edge28&#45;headlabel"><a xlink:href="dir_000057_000055.html" target="_top" xlink:title="2">
<text text-anchor="middle" x="149.94" y="-414.48" font-family="Helvetica,sans-Serif" font-size="10.00">2</text>
</a>
</g>
</g>
<!-- dir_3f96c34ad80e9031c68706862fabf1a4 -->
<g id="node6" class="node">
<title>dir_3f96c34ad80e9031c68706862fabf1a4</title>
<g id="a_node6"><a xlink:href="dir_3f96c34ad80e9031c68706862fabf1a4.html" target="_top" xlink:title="extension">
<polygon fill="none" stroke="black" points="198.25,-252 133.25,-252 133.25,-216 198.25,-216 198.25,-252"/>
<text text-anchor="middle" x="165.75" y="-231.5" font-family="Helvetica,sans-Serif" font-size="10.00">extension</text>
</a>
</g>
</g>
<!-- dir_b14b741173403ad069a896263b3f14b4&#45;&gt;dir_3f96c34ad80e9031c68706862fabf1a4 -->
<g id="edge25" class="edge">
<title>dir_b14b741173403ad069a896263b3f14b4&#45;&gt;dir_3f96c34ad80e9031c68706862fabf1a4</title>
<path fill="none" stroke="black" d="M174.55,-359.87C172.84,-335.67 169.71,-291.21 167.68,-262.39"/>
<polygon fill="black" stroke="black" points="171.16,-261.92 166.96,-252.19 164.17,-262.41 171.16,-261.92"/>
<g id="a_edge25&#45;headlabel"><a xlink:href="dir_000057_000007.html" target="_top" xlink:title="2">
<text text-anchor="middle" x="174.24" y="-262.8" font-family="Helvetica,sans-Serif" font-size="10.00">2</text>
</a>
</g>
</g>
<!-- dir_b14b741173403ad069a896263b3f14b4&#45;&gt;dir_56d603006930d6f32ca38bb932b49787 -->
<g id="edge26" class="edge">
<title>dir_b14b741173403ad069a896263b3f14b4&#45;&gt;dir_56d603006930d6f32ca38bb932b49787</title>
<path fill="none" stroke="black" d="M202.9,-364.16C226.61,-352.95 261.22,-336.58 287.33,-324.23"/>
<polygon fill="black" stroke="black" points="288.98,-327.32 296.53,-319.88 285.99,-320.99 288.98,-327.32"/>
<g id="a_edge26&#45;headlabel"><a xlink:href="dir_000057_000011.html" target="_top" xlink:title="2">
<text text-anchor="middle" x="286.95" y="-328.92" font-family="Helvetica,sans-Serif" font-size="10.00">2</text>
</a>
</g>
</g>
<!-- dir_b14b741173403ad069a896263b3f14b4&#45;&gt;dir_5cbb9a0bf548abf0d2e32772c73d2ad6 -->
<g id="edge27" class="edge">
<title>dir_b14b741173403ad069a896263b3f14b4&#45;&gt;dir_5cbb9a0bf548abf0d2e32772c73d2ad6</title>
<path fill="none" stroke="black" d="M182.64,-359.85C197.61,-322.6 233.19,-234.07 251.09,-189.54"/>
<polygon fill="black" stroke="black" points="254.34,-190.82 254.83,-180.23 247.85,-188.21 254.34,-190.82"/>
<g id="a_edge27&#45;headlabel"><a xlink:href="dir_000057_000035.html" target="_top" xlink:title="1">
<text text-anchor="middle" x="255.64" y="-192.71" font-family="Helvetica,sans-Serif" font-size="10.00">1</text>
</a>
</g>
</g>
<!-- dir_d3b86ce335ad818909ececff0fac1eca -->
<g id="node10" class="node">
<title>dir_d3b86ce335ad818909ececff0fac1eca</title>
<g id="a_node10"><a xlink:href="dir_d3b86ce335ad818909ececff0fac1eca.html" target="_top" xlink:title="conversion">
<polygon fill="none" stroke="black" points="126.75,-324 56.75,-324 56.75,-288 126.75,-288 126.75,-324"/>
<text text-anchor="middle" x="91.75" y="-303.5" font-family="Helvetica,sans-Serif" font-size="10.00">conversion</text>
</a>
</g>
</g>
<!-- dir_b14b741173403ad069a896263b3f14b4&#45;&gt;dir_d3b86ce335ad818909ececff0fac1eca -->
<g id="edge29" class="edge">
<title>dir_b14b741173403ad069a896263b3f14b4&#45;&gt;dir_d3b86ce335ad818909ececff0fac1eca</title>
<path fill="none" stroke="black" d="M154.99,-359.7C144.51,-350.97 131.64,-340.24 120.25,-330.75"/>
<polygon fill="black" stroke="black" points="122.2,-327.82 112.28,-324.1 117.72,-333.19 122.2,-327.82"/>
<g id="a_edge29&#45;headlabel"><a xlink:href="dir_000057_000026.html" target="_top" xlink:title="5">
<text text-anchor="middle" x="126.78" y="-325.44" font-family="Helvetica,sans-Serif" font-size="10.00">5</text>
</a>
</g>
</g>
<!-- dir_b14b741173403ad069a896263b3f14b4&#45;&gt;dir_fd1e11fb0964f7346e999e146b0dfd59 -->
<g id="edge30" class="edge">
<title>dir_b14b741173403ad069a896263b3f14b4&#45;&gt;dir_fd1e11fb0964f7346e999e146b0dfd59</title>
<path fill="none" stroke="black" d="M153.16,-359.75C148.85,-356.91 144.27,-354.19 139.75,-352 101.29,-333.36 73.2,-358.34 47.75,-324 9.97,-273 -58.2,-360.63 100.75,-72 106.56,-61.45 115.02,-51.47 123.38,-43.08"/>
<polygon fill="black" stroke="black" points="125.83,-45.59 130.64,-36.15 120.99,-40.53 125.83,-45.59"/>
<g id="a_edge30&#45;headlabel"><a xlink:href="dir_000057_000017.html" target="_top" xlink:title="3">
<text text-anchor="middle" x="125.19" y="-47.62" font-family="Helvetica,sans-Serif" font-size="10.00">3</text>
</a>
</g>
</g>
<!-- dir_b1a5b7ba9091facbdf32a321b74a0f11&#45;&gt;dir_0f865acc0217e49aeb49ab1c50c8f73a -->
<g id="edge3" class="edge">
<title>dir_b1a5b7ba9091facbdf32a321b74a0f11&#45;&gt;dir_0f865acc0217e49aeb49ab1c50c8f73a</title>
<path fill="none" stroke="black" d="M95.88,-396.02C93.19,-406.33 90.11,-419.81 88.75,-432 86.97,-447.9 86.06,-452.23 88.75,-468 94.75,-503.08 109.56,-541.41 120.35,-566.25"/>
<polygon fill="black" stroke="black" points="117.29,-567.98 124.54,-575.7 123.69,-565.14 117.29,-567.98"/>
<g id="a_edge3&#45;headlabel"><a xlink:href="dir_000054_000056.html" target="_top" xlink:title="1">
<text text-anchor="middle" x="113.24" y="-563.35" font-family="Helvetica,sans-Serif" font-size="10.00">1</text>
</a>
</g>
</g>
<!-- dir_6b5446d9575188b5a170aae88d74d865&#45;&gt;dir_0f865acc0217e49aeb49ab1c50c8f73a -->
<g id="edge7" class="edge">
<title>dir_6b5446d9575188b5a170aae88d74d865&#45;&gt;dir_0f865acc0217e49aeb49ab1c50c8f73a</title>
<path fill="none" stroke="black" d="M132.19,-468.07C130.54,-486 125.73,-514.99 128.75,-540 129.76,-548.37 131.64,-557.33 133.29,-565.45"/>
<polygon fill="black" stroke="black" points="129.9,-566.37 135.22,-575.53 136.77,-565.05 129.9,-566.37"/>
<g id="a_edge7&#45;headlabel"><a xlink:href="dir_000055_000056.html" target="_top" xlink:title="3">
<text text-anchor="middle" x="126.43" y="-560.87" font-family="Helvetica,sans-Serif" font-size="10.00">3</text>
</a>
</g>
</g>
<!-- dir_6b5446d9575188b5a170aae88d74d865&#45;&gt;dir_224c4a10832b4053571db2c932d86b0d -->
<g id="edge8" class="edge">
<title>dir_6b5446d9575188b5a170aae88d74d865&#45;&gt;dir_224c4a10832b4053571db2c932d86b0d</title>
<path fill="none" stroke="black" d="M142,-468.1C145.7,-475.88 149.42,-485.26 152.3,-493.95"/>
<polygon fill="black" stroke="black" points="149,-495.14 155.24,-503.7 155.7,-493.11 149,-495.14"/>
<g id="a_edge8&#45;headlabel"><a xlink:href="dir_000055_000016.html" target="_top" xlink:title="7">
<text text-anchor="middle" x="145.24" y="-490.01" font-family="Helvetica,sans-Serif" font-size="10.00">7</text>
</a>
</g>
</g>
<!-- dir_6b5446d9575188b5a170aae88d74d865&#45;&gt;dir_b14b741173403ad069a896263b3f14b4 -->
<g id="edge12" class="edge">
<title>dir_6b5446d9575188b5a170aae88d74d865&#45;&gt;dir_b14b741173403ad069a896263b3f14b4</title>
<path fill="none" stroke="black" d="M135.21,-431.7C139.76,-423.47 146.13,-413.48 152.53,-404.42"/>
<polygon fill="black" stroke="black" points="155.53,-406.24 158.62,-396.1 149.88,-402.1 155.53,-406.24"/>
<g id="a_edge12&#45;headlabel"><a xlink:href="dir_000055_000057.html" target="_top" xlink:title="3">
<text text-anchor="middle" x="155.7" y="-408.32" font-family="Helvetica,sans-Serif" font-size="10.00">3</text>
</a>
</g>
</g>
<!-- dir_6b5446d9575188b5a170aae88d74d865&#45;&gt;dir_b1a5b7ba9091facbdf32a321b74a0f11 -->
<g id="edge13" class="edge">
<title>dir_6b5446d9575188b5a170aae88d74d865&#45;&gt;dir_b1a5b7ba9091facbdf32a321b74a0f11</title>
<path fill="none" stroke="black" d="M122.58,-431.7C119.32,-423.81 115.38,-414.3 111.75,-405.55"/>
<polygon fill="black" stroke="black" points="114.9,-404 107.84,-396.1 108.43,-406.68 114.9,-404"/>
<g id="a_edge13&#45;headlabel"><a xlink:href="dir_000055_000054.html" target="_top" xlink:title="4">
<text text-anchor="middle" x="118.9" y="-403.74" font-family="Helvetica,sans-Serif" font-size="10.00">4</text>
</a>
</g>
</g>
<!-- dir_6b5446d9575188b5a170aae88d74d865&#45;&gt;dir_3f96c34ad80e9031c68706862fabf1a4 -->
<g id="edge9" class="edge">
<title>dir_6b5446d9575188b5a170aae88d74d865&#45;&gt;dir_3f96c34ad80e9031c68706862fabf1a4</title>
<path fill="none" stroke="black" d="M162.55,-436.99C180.56,-428.51 201.3,-415.21 211.75,-396 235.76,-351.89 206.42,-293.99 184.8,-261.01"/>
<polygon fill="black" stroke="black" points="187.46,-258.71 178.95,-252.4 181.67,-262.64 187.46,-258.71"/>
<g id="a_edge9&#45;headlabel"><a xlink:href="dir_000055_000007.html" target="_top" xlink:title="10">
<text text-anchor="middle" x="191.83" y="-257.59" font-family="Helvetica,sans-Serif" font-size="10.00">10</text>
</a>
</g>
</g>
<!-- dir_6b5446d9575188b5a170aae88d74d865&#45;&gt;dir_56d603006930d6f32ca38bb932b49787 -->
<g id="edge10" class="edge">
<title>dir_6b5446d9575188b5a170aae88d74d865&#45;&gt;dir_56d603006930d6f32ca38bb932b49787</title>
<path fill="none" stroke="black" d="M162.53,-445.23C196.38,-439.76 248.9,-426.68 282.75,-396 300.81,-379.63 311.5,-353.72 317.41,-334.06"/>
<polygon fill="black" stroke="black" points="320.85,-334.73 320.15,-324.16 314.11,-332.87 320.85,-334.73"/>
<g id="a_edge10&#45;headlabel"><a xlink:href="dir_000055_000011.html" target="_top" xlink:title="4">
<text text-anchor="middle" x="322.63" y="-336.45" font-family="Helvetica,sans-Serif" font-size="10.00">4</text>
</a>
</g>
</g>
<!-- dir_6b5446d9575188b5a170aae88d74d865&#45;&gt;dir_5cbb9a0bf548abf0d2e32772c73d2ad6 -->
<g id="edge11" class="edge">
<title>dir_6b5446d9575188b5a170aae88d74d865&#45;&gt;dir_5cbb9a0bf548abf0d2e32772c73d2ad6</title>
<path fill="none" stroke="black" d="M162.55,-440.27C185.16,-432.48 213.88,-418.71 229.75,-396 273.71,-333.1 270.37,-236.98 265.49,-190.32"/>
<polygon fill="black" stroke="black" points="268.93,-189.62 264.31,-180.09 261.98,-190.42 268.93,-189.62"/>
<g id="a_edge11&#45;headlabel"><a xlink:href="dir_000055_000035.html" target="_top" xlink:title="6">
<text text-anchor="middle" x="272.17" y="-190.37" font-family="Helvetica,sans-Serif" font-size="10.00">6</text>
</a>
</g>
</g>
<!-- dir_6b5446d9575188b5a170aae88d74d865&#45;&gt;dir_c541d4b187fc5f863b4735b323978e0f -->
<g id="edge14" class="edge">
<title>dir_6b5446d9575188b5a170aae88d74d865&#45;&gt;dir_c541d4b187fc5f863b4735b323978e0f</title>
<path fill="none" stroke="black" d="M96.9,-435.35C80.36,-426.66 61.75,-413.67 51.75,-396 28.1,-354.19 36.33,-334.66 47.75,-288 64.07,-221.34 107.74,-152.43 133,-116.43"/>
<polygon fill="black" stroke="black" points="136.05,-118.18 139,-108 130.35,-114.12 136.05,-118.18"/>
<g id="a_edge14&#45;headlabel"><a xlink:href="dir_000055_000013.html" target="_top" xlink:title="2">
<text text-anchor="middle" x="136.28" y="-120.25" font-family="Helvetica,sans-Serif" font-size="10.00">2</text>
</a>
</g>
</g>
<!-- dir_6b5446d9575188b5a170aae88d74d865&#45;&gt;dir_d3b86ce335ad818909ececff0fac1eca -->
<g id="edge15" class="edge">
<title>dir_6b5446d9575188b5a170aae88d74d865&#45;&gt;dir_d3b86ce335ad818909ececff0fac1eca</title>
<path fill="none" stroke="black" d="M97.11,-432.32C83.54,-423.52 69.24,-411.33 61.75,-396 53.17,-378.43 56.08,-370.72 61.75,-352 63.8,-345.24 67.23,-338.56 71.07,-332.51"/>
<polygon fill="black" stroke="black" points="74.04,-334.36 76.85,-324.14 68.28,-330.38 74.04,-334.36"/>
<g id="a_edge15&#45;headlabel"><a xlink:href="dir_000055_000026.html" target="_top" xlink:title="2">
<text text-anchor="middle" x="74.33" y="-336.43" font-family="Helvetica,sans-Serif" font-size="10.00">2</text>
</a>
</g>
</g>
<!-- dir_6b5446d9575188b5a170aae88d74d865&#45;&gt;dir_fd1e11fb0964f7346e999e146b0dfd59 -->
<g id="edge16" class="edge">
<title>dir_6b5446d9575188b5a170aae88d74d865&#45;&gt;dir_fd1e11fb0964f7346e999e146b0dfd59</title>
<path fill="none" stroke="black" d="M97.16,-435.52C71.92,-424.34 40.07,-408.34 32.75,-396 9.9,-357.48 38.73,-151.32 40.75,-144 50.42,-108.92 55.85,-99.45 79.75,-72 89.59,-60.7 102.25,-50.38 114.21,-41.91"/>
<polygon fill="black" stroke="black" points="116.45,-44.62 122.74,-36.09 112.5,-38.84 116.45,-44.62"/>
<g id="a_edge16&#45;headlabel"><a xlink:href="dir_000055_000017.html" target="_top" xlink:title="8">
<text text-anchor="middle" x="115.09" y="-46.49" font-family="Helvetica,sans-Serif" font-size="10.00">8</text>
</a>
</g>
</g>
<!-- dir_3f96c34ad80e9031c68706862fabf1a4&#45;&gt;dir_5cbb9a0bf548abf0d2e32772c73d2ad6 -->
<g id="edge35" class="edge">
<title>dir_3f96c34ad80e9031c68706862fabf1a4&#45;&gt;dir_5cbb9a0bf548abf0d2e32772c73d2ad6</title>
<path fill="none" stroke="black" d="M189.48,-215.7C201.69,-206.8 216.74,-195.82 229.94,-186.2"/>
<polygon fill="black" stroke="black" points="232.28,-188.82 238.29,-180.1 228.15,-183.17 232.28,-188.82"/>
<g id="a_edge35&#45;headlabel"><a xlink:href="dir_000007_000035.html" target="_top" xlink:title="2">
<text text-anchor="middle" x="231.04" y="-190.74" font-family="Helvetica,sans-Serif" font-size="10.00">2</text>
</a>
</g>
</g>
<!-- dir_3f96c34ad80e9031c68706862fabf1a4&#45;&gt;dir_c541d4b187fc5f863b4735b323978e0f -->
<g id="edge36" class="edge">
<title>dir_3f96c34ad80e9031c68706862fabf1a4&#45;&gt;dir_c541d4b187fc5f863b4735b323978e0f</title>
<path fill="none" stroke="black" d="M164.06,-215.87C161.68,-191.67 157.29,-147.21 154.45,-118.39"/>
<polygon fill="black" stroke="black" points="157.91,-117.8 153.45,-108.19 150.94,-118.48 157.91,-117.8"/>
<g id="a_edge36&#45;headlabel"><a xlink:href="dir_000007_000013.html" target="_top" xlink:title="4">
<text text-anchor="middle" x="161.09" y="-118.6" font-family="Helvetica,sans-Serif" font-size="10.00">4</text>
</a>
</g>
</g>
<!-- dir_3f96c34ad80e9031c68706862fabf1a4&#45;&gt;dir_fd1e11fb0964f7346e999e146b0dfd59 -->
<g id="edge37" class="edge">
<title>dir_3f96c34ad80e9031c68706862fabf1a4&#45;&gt;dir_fd1e11fb0964f7346e999e146b0dfd59</title>
<path fill="none" stroke="black" d="M172.88,-215.69C184.17,-185.76 203.34,-122.69 187.75,-72 184.74,-62.22 179.24,-52.62 173.44,-44.33"/>
<polygon fill="black" stroke="black" points="176.16,-42.13 167.36,-36.23 170.56,-46.33 176.16,-42.13"/>
<g id="a_edge37&#45;headlabel"><a xlink:href="dir_000007_000017.html" target="_top" xlink:title="9">
<text text-anchor="middle" x="180.59" y="-40.8" font-family="Helvetica,sans-Serif" font-size="10.00">9</text>
</a>
</g>
</g>
<!-- dir_56d603006930d6f32ca38bb932b49787&#45;&gt;dir_3f96c34ad80e9031c68706862fabf1a4 -->
<g id="edge38" class="edge">
<title>dir_56d603006930d6f32ca38bb932b49787&#45;&gt;dir_3f96c34ad80e9031c68706862fabf1a4</title>
<path fill="none" stroke="black" d="M296.59,-292.97C272.1,-282.11 235.7,-265.99 207.5,-253.5"/>
<polygon fill="black" stroke="black" points="208.85,-250.27 198.29,-249.41 206.01,-256.67 208.85,-250.27"/>
<g id="a_edge38&#45;headlabel"><a xlink:href="dir_000011_000007.html" target="_top" xlink:title="10">
<text text-anchor="middle" x="213.28" y="-246.63" font-family="Helvetica,sans-Serif" font-size="10.00">10</text>
</a>
</g>
</g>
<!-- dir_56d603006930d6f32ca38bb932b49787&#45;&gt;dir_5cbb9a0bf548abf0d2e32772c73d2ad6 -->
<g id="edge39" class="edge">
<title>dir_56d603006930d6f32ca38bb932b49787&#45;&gt;dir_5cbb9a0bf548abf0d2e32772c73d2ad6</title>
<path fill="none" stroke="black" d="M316.27,-287.87C305.61,-263.46 285.95,-218.43 273.38,-189.64"/>
<polygon fill="black" stroke="black" points="276.47,-187.95 269.26,-180.19 270.05,-190.75 276.47,-187.95"/>
<g id="a_edge39&#45;headlabel"><a xlink:href="dir_000011_000035.html" target="_top" xlink:title="86">
<text text-anchor="middle" x="280.51" y="-187.61" font-family="Helvetica,sans-Serif" font-size="10.00">86</text>
</a>
</g>
</g>
<!-- dir_56d603006930d6f32ca38bb932b49787&#45;&gt;dir_c541d4b187fc5f863b4735b323978e0f -->
<g id="edge40" class="edge">
<title>dir_56d603006930d6f32ca38bb932b49787&#45;&gt;dir_c541d4b187fc5f863b4735b323978e0f</title>
<path fill="none" stroke="black" d="M326.19,-287.7C329.71,-255.5 332.41,-185.88 297.75,-144 270.95,-111.62 222.66,-99.02 188.98,-94.12"/>
<polygon fill="black" stroke="black" points="189.41,-90.65 179.04,-92.83 188.51,-97.59 189.41,-90.65"/>
<g id="a_edge40&#45;headlabel"><a xlink:href="dir_000011_000013.html" target="_top" xlink:title="16">
<text text-anchor="middle" x="193.34" y="-85.79" font-family="Helvetica,sans-Serif" font-size="10.00">16</text>
</a>
</g>
</g>
<!-- dir_56d603006930d6f32ca38bb932b49787&#45;&gt;dir_fd1e11fb0964f7346e999e146b0dfd59 -->
<g id="edge41" class="edge">
<title>dir_56d603006930d6f32ca38bb932b49787&#45;&gt;dir_fd1e11fb0964f7346e999e146b0dfd59</title>
<path fill="none" stroke="black" d="M330.82,-287.67C334.59,-277.47 338.84,-264.22 340.75,-252 348.3,-203.77 345.92,-185.83 320.75,-144 290.18,-93.2 230.34,-56.53 190.7,-36.52"/>
<polygon fill="black" stroke="black" points="192.1,-33.31 181.58,-32.03 189,-39.59 192.1,-33.31"/>
<g id="a_edge41&#45;headlabel"><a xlink:href="dir_000011_000017.html" target="_top" xlink:title="39">
<text text-anchor="middle" x="196.58" y="-29.85" font-family="Helvetica,sans-Serif" font-size="10.00">39</text>
</a>
</g>
</g>
<!-- dir_5cbb9a0bf548abf0d2e32772c73d2ad6&#45;&gt;dir_c541d4b187fc5f863b4735b323978e0f -->
<g id="edge33" class="edge">
<title>dir_5cbb9a0bf548abf0d2e32772c73d2ad6&#45;&gt;dir_c541d4b187fc5f863b4735b323978e0f</title>
<path fill="none" stroke="black" d="M234.84,-143.88C220.59,-134.81 202.9,-123.55 187.52,-113.76"/>
<polygon fill="black" stroke="black" points="189.08,-110.61 178.76,-108.19 185.32,-116.51 189.08,-110.61"/>
<g id="a_edge33&#45;headlabel"><a xlink:href="dir_000035_000013.html" target="_top" xlink:title="5">
<text text-anchor="middle" x="193.64" y="-107.64" font-family="Helvetica,sans-Serif" font-size="10.00">5</text>
</a>
</g>
</g>
<!-- dir_5cbb9a0bf548abf0d2e32772c73d2ad6&#45;&gt;dir_fd1e11fb0964f7346e999e146b0dfd59 -->
<g id="edge34" class="edge">
<title>dir_5cbb9a0bf548abf0d2e32772c73d2ad6&#45;&gt;dir_fd1e11fb0964f7346e999e146b0dfd59</title>
<path fill="none" stroke="black" d="M256.65,-143.92C250.38,-124.94 238.37,-94.07 220.75,-72 211.73,-60.7 199.8,-50.43 188.4,-42.01"/>
<polygon fill="black" stroke="black" points="190.43,-39.16 180.25,-36.22 186.37,-44.87 190.43,-39.16"/>
<g id="a_edge34&#45;headlabel"><a xlink:href="dir_000035_000017.html" target="_top" xlink:title="16">
<text text-anchor="middle" x="195" y="-36.43" font-family="Helvetica,sans-Serif" font-size="10.00">16</text>
</a>
</g>
</g>
<!-- dir_c541d4b187fc5f863b4735b323978e0f&#45;&gt;dir_fd1e11fb0964f7346e999e146b0dfd59 -->
<g id="edge2" class="edge">
<title>dir_c541d4b187fc5f863b4735b323978e0f&#45;&gt;dir_fd1e11fb0964f7346e999e146b0dfd59</title>
<path fill="none" stroke="black" d="M145.84,-71.7C145.04,-63.98 144.81,-54.71 145.16,-46.11"/>
<polygon fill="black" stroke="black" points="148.65,-46.32 145.86,-36.1 141.67,-45.84 148.65,-46.32"/>
<g id="a_edge2&#45;headlabel"><a xlink:href="dir_000013_000017.html" target="_top" xlink:title="6">
<text text-anchor="middle" x="151.23" y="-47.61" font-family="Helvetica,sans-Serif" font-size="10.00">6</text>
</a>
</g>
</g>
<!-- dir_d3b86ce335ad818909ececff0fac1eca&#45;&gt;dir_3f96c34ad80e9031c68706862fabf1a4 -->
<g id="edge4" class="edge">
<title>dir_d3b86ce335ad818909ececff0fac1eca&#45;&gt;dir_3f96c34ad80e9031c68706862fabf1a4</title>
<path fill="none" stroke="black" d="M110.04,-287.7C119.18,-279.05 130.39,-268.45 140.35,-259.03"/>
<polygon fill="black" stroke="black" points="142.81,-261.52 147.67,-252.1 138,-256.43 142.81,-261.52"/>
<g id="a_edge4&#45;headlabel"><a xlink:href="dir_000026_000007.html" target="_top" xlink:title="5">
<text text-anchor="middle" x="142.15" y="-263.55" font-family="Helvetica,sans-Serif" font-size="10.00">5</text>
</a>
</g>
</g>
<!-- dir_d3b86ce335ad818909ececff0fac1eca&#45;&gt;dir_c541d4b187fc5f863b4735b323978e0f -->
<g id="edge5" class="edge">
<title>dir_d3b86ce335ad818909ececff0fac1eca&#45;&gt;dir_c541d4b187fc5f863b4735b323978e0f</title>
<path fill="none" stroke="black" d="M96.56,-287.85C106.96,-250.75 131.62,-162.81 144.15,-118.1"/>
<polygon fill="black" stroke="black" points="147.59,-118.81 146.92,-108.23 140.85,-116.92 147.59,-118.81"/>
<g id="a_edge5&#45;headlabel"><a xlink:href="dir_000026_000013.html" target="_top" xlink:title="11">
<text text-anchor="middle" x="149.35" y="-120.53" font-family="Helvetica,sans-Serif" font-size="10.00">11</text>
</a>
</g>
</g>
<!-- dir_d3b86ce335ad818909ececff0fac1eca&#45;&gt;dir_fd1e11fb0964f7346e999e146b0dfd59 -->
<g id="edge6" class="edge">
<title>dir_d3b86ce335ad818909ececff0fac1eca&#45;&gt;dir_fd1e11fb0964f7346e999e146b0dfd59</title>
<path fill="none" stroke="black" d="M90.72,-287.99C88.92,-248.63 87.75,-148.79 115.75,-72 119.26,-62.38 124.9,-52.83 130.68,-44.54"/>
<polygon fill="black" stroke="black" points="133.56,-46.53 136.68,-36.41 127.93,-42.38 133.56,-46.53"/>
<g id="a_edge6&#45;headlabel"><a xlink:href="dir_000026_000017.html" target="_top" xlink:title="6">
<text text-anchor="middle" x="133.71" y="-48.61" font-family="Helvetica,sans-Serif" font-size="10.00">6</text>
</a>
</g>
</g>
<!-- dir_fd1e11fb0964f7346e999e146b0dfd59&#45;&gt;dir_c541d4b187fc5f863b4735b323978e0f -->
<g id="edge1" class="edge">
<title>dir_fd1e11fb0964f7346e999e146b0dfd59&#45;&gt;dir_c541d4b187fc5f863b4735b323978e0f</title>
<path fill="none" stroke="black" d="M157.65,-36.1C158.45,-43.79 158.69,-53.05 158.36,-61.67"/>
<polygon fill="black" stroke="black" points="154.86,-61.48 157.67,-71.7 161.84,-61.96 154.86,-61.48"/>
<g id="a_edge1&#45;headlabel"><a xlink:href="dir_000017_000013.html" target="_top" xlink:title="2">
<text text-anchor="middle" x="152.27" y="-55.2" font-family="Helvetica,sans-Serif" font-size="10.00">2</text>
</a>
</g>
</g>
</g>
</svg>
        <g id="navigator" transform="translate(0 0)" fill="#404254">
                <rect fill="#f2f5e9" fill-opacity="0.5" stroke="#606060" stroke-width=".5" x="0" y="0" width="60" height="60"/>
                <use id="zoomplus" xlink:href="#zoomPlus" x="17" y="9" onmousedown="handleZoom(evt,'in')"/>
                <use id="zoomminus" xlink:href="#zoomMin" x="42" y="9" onmousedown="handleZoom(evt,'out')"/>
                <use id="reset" xlink:href="#resetDef" x="30" y="36" onmousedown="handleReset()"/>
                <g id="arrowUp" xlink:href="#dirArrow" transform="translate(30 24)" onmousedown="handlePan(0,-1)">
                  <use xlink:href="#rim" fill="#404040">
                        <set attributeName="fill" to="#808080" begin="arrowUp.mouseover" end="arrowUp.mouseout"/>
                  </use>
                  <path fill="none" stroke="white" stroke-width="1.5" d="M0,-3.0v7 M-2.5,-0.5L0,-3.0L2.5,-0.5"/>
                </g>
                <g id="arrowRight" xlink:href="#dirArrow" transform="rotate(90) translate(36 -43)" onmousedown="handlePan(1,0)">
                  <use xlink:href="#rim" fill="#404040">
                        <set attributeName="fill" to="#808080" begin="arrowRight.mouseover" end="arrowRight.mouseout"/>
                  </use>
                  <path fill="none" stroke="white" stroke-width="1.5" d="M0,-3.0v7 M-2.5,-0.5L0,-3.0L2.5,-0.5"/>
                </g>
                <g id="arrowDown" xlink:href="#dirArrow" transform="rotate(180) translate(-30 -48)" onmousedown="handlePan(0,1)">
                  <use xlink:href="#rim" fill="#404040">
                        <set attributeName="fill" to="#808080" begin="arrowDown.mouseover" end="arrowDown.mouseout"/>
                  </use>
                  <path fill="none" stroke="white" stroke-width="1.5" d="M0,-3.0v7 M-2.5,-0.5L0,-3.0L2.5,-0.5"/>
                </g>
                <g id="arrowLeft" xlink:href="#dirArrow" transform="rotate(270) translate(-36 17)" onmousedown="handlePan(-1,0)">
                  <use xlink:href="#rim" fill="#404040">
                        <set attributeName="fill" to="#808080" begin="arrowLeft.mouseover" end="arrowLeft.mouseout"/>
                  </use>
                  <path fill="none" stroke="white" stroke-width="1.5" d="M0,-3.0v7 M-2.5,-0.5L0,-3.0L2.5,-0.5"/>
                </g>
        </g>
        <svg viewBox="0 0 15 15" width="100%" height="30px" preserveAspectRatio="xMaxYMin meet">
         <g id="arrow_out" transform="scale(0.3 0.3)">
          <a xlink:href="dir_6b5446d9575188b5a170aae88d74d865_dep_org.svg" target="_base">
           <rect id="button" ry="5" rx="5" y="6" x="6" height="38" width="38"
                fill="#f2f5e9" fill-opacity="0.5" stroke="#606060" stroke-width="1.0"/>
           <path id="arrow"
             d="M 11.500037,31.436501 C 11.940474,20.09759 22.043105,11.32322 32.158766,21.979434 L 37.068811,17.246167 C 37.068811,17.246167 37.088388,32 37.088388,32 L 22.160133,31.978069 C 22.160133,31.978069 26.997745,27.140456 26.997745,27.140456 C 18.528582,18.264221 13.291696,25.230495 11.500037,31.436501 z"
             style="fill:#404040;"/>
          </a>
         </g>
        </svg>
</svg>
