<?xml version="1.0" encoding="UTF-8" standalone="no"?>
<!DOCTYPE svg PUBLIC "-//W3C//DTD SVG 1.1//EN"
 "http://www.w3.org/Graphics/SVG/1.1/DTD/svg11.dtd">
<!-- Generated by graphviz version 2.43.0 (0)
 -->
<!-- Title: util Pages: 1 -->
<svg width="272pt" height="583pt"
 viewBox="0.00 0.00 272.33 583.00" xmlns="http://www.w3.org/2000/svg" xmlns:xlink="http://www.w3.org/1999/xlink">
<g id="graph0" class="graph" transform="scale(1 1) rotate(0) translate(4 579)">
<title>util</title>
<polygon fill="white" stroke="transparent" points="-4,4 -4,-579 268.33,-579 268.33,4 -4,4"/>
<g id="clust1" class="cluster">
<title>clusterdir_4a31e270508d04d0af8285a857164a4c</title>
<g id="a_clust1"><a xlink:href="dir_4a31e270508d04d0af8285a857164a4c.html" target="_top" xlink:title="comp">
<polygon fill="#ddddee" stroke="black" points="64,-280 64,-567 186,-567 186,-280 64,-280"/>
<text text-anchor="middle" x="125" y="-555" font-family="Helvetica,sans-Serif" font-size="10.00">comp</text>
</a>
</g>
</g>
<!-- dir_37e37a27cff779b381c25ed0134aa6e8 -->
<g id="node1" class="node">
<title>dir_37e37a27cff779b381c25ed0134aa6e8</title>
<g id="a_node1"><a xlink:href="dir_37e37a27cff779b381c25ed0134aa6e8.html" target="_top" xlink:title="validator">
<polygon fill="none" stroke="black" points="158,-540 98,-540 98,-504 158,-504 158,-540"/>
<text text-anchor="middle" x="128" y="-519.5" font-family="Helvetica,sans-Serif" font-size="10.00">validator</text>
</a>
</g>
</g>
<!-- dir_75ea03fee82884b3113f88b9ca3f5035 -->
<g id="node2" class="node">
<title>dir_75ea03fee82884b3113f88b9ca3f5035</title>
<g id="a_node2"><a xlink:href="dir_75ea03fee82884b3113f88b9ca3f5035.html" target="_top" xlink:title="common">
<polygon fill="none" stroke="black" points="137.5,-468 78.5,-468 78.5,-432 137.5,-432 137.5,-468"/>
<text text-anchor="middle" x="108" y="-447.5" font-family="Helvetica,sans-Serif" font-size="10.00">common</text>
</a>
</g>
</g>
<!-- dir_37e37a27cff779b381c25ed0134aa6e8&#45;&gt;dir_75ea03fee82884b3113f88b9ca3f5035 -->
<g id="edge15" class="edge">
<title>dir_37e37a27cff779b381c25ed0134aa6e8&#45;&gt;dir_75ea03fee82884b3113f88b9ca3f5035</title>
<path fill="none" stroke="black" d="M117.14,-503.7C114.14,-495.98 111.27,-486.71 109.15,-478.11"/>
<polygon fill="black" stroke="black" points="112.52,-477.14 106.99,-468.1 105.68,-478.62 112.52,-477.14"/>
<g id="a_edge15&#45;headlabel"><a xlink:href="dir_000020_000022.html" target="_top" xlink:title="1">
<text text-anchor="middle" x="116.06" y="-477.56" font-family="Helvetica,sans-Serif" font-size="10.00">1</text>
</a>
</g>
</g>
<!-- dir_75ea03fee82884b3113f88b9ca3f5035&#45;&gt;dir_37e37a27cff779b381c25ed0134aa6e8 -->
<g id="edge13" class="edge">
<title>dir_75ea03fee82884b3113f88b9ca3f5035&#45;&gt;dir_37e37a27cff779b381c25ed0134aa6e8</title>
<path fill="none" stroke="black" d="M118.78,-468.1C121.78,-475.79 124.67,-485.05 126.79,-493.67"/>
<polygon fill="black" stroke="black" points="123.43,-494.67 128.97,-503.7 130.27,-493.18 123.43,-494.67"/>
<g id="a_edge13&#45;headlabel"><a xlink:href="dir_000022_000020.html" target="_top" xlink:title="1">
<text text-anchor="middle" x="119.89" y="-489.26" font-family="Helvetica,sans-Serif" font-size="10.00">1</text>
</a>
</g>
</g>
<!-- dir_a8563fb538e645acca0097d117a29c7f -->
<g id="node3" class="node">
<title>dir_a8563fb538e645acca0097d117a29c7f</title>
<g id="a_node3"><a xlink:href="dir_a8563fb538e645acca0097d117a29c7f.html" target="_top" xlink:title="extension">
<polygon fill="none" stroke="black" points="157.5,-396 92.5,-396 92.5,-360 157.5,-360 157.5,-396"/>
<text text-anchor="middle" x="125" y="-375.5" font-family="Helvetica,sans-Serif" font-size="10.00">extension</text>
</a>
</g>
</g>
<!-- dir_75ea03fee82884b3113f88b9ca3f5035&#45;&gt;dir_a8563fb538e645acca0097d117a29c7f -->
<g id="edge14" class="edge">
<title>dir_75ea03fee82884b3113f88b9ca3f5035&#45;&gt;dir_a8563fb538e645acca0097d117a29c7f</title>
<path fill="none" stroke="black" d="M106.29,-431.7C107.38,-423.9 109.43,-414.51 111.9,-405.83"/>
<polygon fill="black" stroke="black" points="115.3,-406.69 114.95,-396.1 108.62,-404.6 115.3,-406.69"/>
<g id="a_edge14&#45;headlabel"><a xlink:href="dir_000022_000021.html" target="_top" xlink:title="4">
<text text-anchor="middle" x="116.93" y="-408.47" font-family="Helvetica,sans-Serif" font-size="10.00">4</text>
</a>
</g>
</g>
<!-- dir_a8563fb538e645acca0097d117a29c7f&#45;&gt;dir_37e37a27cff779b381c25ed0134aa6e8 -->
<g id="edge18" class="edge">
<title>dir_a8563fb538e645acca0097d117a29c7f&#45;&gt;dir_37e37a27cff779b381c25ed0134aa6e8</title>
<path fill="none" stroke="black" d="M134.13,-396.12C139.01,-406.24 144.51,-419.49 147,-432 150.13,-447.69 149.74,-452.24 147,-468 145.48,-476.76 142.64,-485.99 139.61,-494.25"/>
<polygon fill="black" stroke="black" points="136.28,-493.16 135.89,-503.75 142.79,-495.71 136.28,-493.16"/>
<g id="a_edge18&#45;headlabel"><a xlink:href="dir_000021_000020.html" target="_top" xlink:title="9">
<text text-anchor="middle" x="134.94" y="-486.28" font-family="Helvetica,sans-Serif" font-size="10.00">9</text>
</a>
</g>
</g>
<!-- dir_a8563fb538e645acca0097d117a29c7f&#45;&gt;dir_75ea03fee82884b3113f88b9ca3f5035 -->
<g id="edge20" class="edge">
<title>dir_a8563fb538e645acca0097d117a29c7f&#45;&gt;dir_75ea03fee82884b3113f88b9ca3f5035</title>
<path fill="none" stroke="black" d="M126.74,-396.1C125.67,-403.88 123.62,-413.26 121.16,-421.95"/>
<polygon fill="black" stroke="black" points="117.76,-421.11 118.12,-431.7 124.44,-423.19 117.76,-421.11"/>
<g id="a_edge20&#45;headlabel"><a xlink:href="dir_000021_000022.html" target="_top" xlink:title="5">
<text text-anchor="middle" x="116.12" y="-414.33" font-family="Helvetica,sans-Serif" font-size="10.00">5</text>
</a>
</g>
</g>
<!-- dir_bd834f6d703e990742b68c11905a6fe2 -->
<g id="node4" class="node">
<title>dir_bd834f6d703e990742b68c11905a6fe2</title>
<g id="a_node4"><a xlink:href="dir_bd834f6d703e990742b68c11905a6fe2.html" target="_top" xlink:title="util">
<polygon fill="#eeeeff" stroke="black" points="152,-324 98,-324 98,-288 152,-288 152,-324"/>
<text text-anchor="middle" x="125" y="-303.5" font-family="Helvetica,sans-Serif" font-size="10.00">util</text>
</a>
</g>
</g>
<!-- dir_a8563fb538e645acca0097d117a29c7f&#45;&gt;dir_bd834f6d703e990742b68c11905a6fe2 -->
<g id="edge21" class="edge">
<title>dir_a8563fb538e645acca0097d117a29c7f&#45;&gt;dir_bd834f6d703e990742b68c11905a6fe2</title>
<path fill="none" stroke="black" d="M119.08,-359.7C118.29,-351.98 118.06,-342.71 118.4,-334.11"/>
<polygon fill="black" stroke="black" points="121.9,-334.32 119.1,-324.1 114.92,-333.84 121.9,-334.32"/>
<g id="a_edge21&#45;headlabel"><a xlink:href="dir_000021_000023.html" target="_top" xlink:title="4">
<text text-anchor="middle" x="124.48" y="-335.61" font-family="Helvetica,sans-Serif" font-size="10.00">4</text>
</a>
</g>
</g>
<!-- dir_3f96c34ad80e9031c68706862fabf1a4 -->
<g id="node5" class="node">
<title>dir_3f96c34ad80e9031c68706862fabf1a4</title>
<g id="a_node5"><a xlink:href="dir_3f96c34ad80e9031c68706862fabf1a4.html" target="_top" xlink:title="extension">
<polygon fill="none" stroke="black" points="135.5,-180 70.5,-180 70.5,-144 135.5,-144 135.5,-180"/>
<text text-anchor="middle" x="103" y="-159.5" font-family="Helvetica,sans-Serif" font-size="10.00">extension</text>
</a>
</g>
</g>
<!-- dir_a8563fb538e645acca0097d117a29c7f&#45;&gt;dir_3f96c34ad80e9031c68706862fabf1a4 -->
<g id="edge19" class="edge">
<title>dir_a8563fb538e645acca0097d117a29c7f&#45;&gt;dir_3f96c34ad80e9031c68706862fabf1a4</title>
<path fill="none" stroke="black" d="M109.39,-359.77C101.63,-350.03 93.05,-337.18 89,-324 75.01,-278.51 85.71,-222.61 94.52,-190.07"/>
<polygon fill="black" stroke="black" points="97.91,-190.95 97.28,-180.37 91.18,-189.03 97.91,-190.95"/>
<g id="a_edge19&#45;headlabel"><a xlink:href="dir_000021_000007.html" target="_top" xlink:title="11">
<text text-anchor="middle" x="99.66" y="-192.68" font-family="Helvetica,sans-Serif" font-size="10.00">11</text>
</a>
</g>
</g>
<!-- dir_c541d4b187fc5f863b4735b323978e0f -->
<g id="node6" class="node">
<title>dir_c541d4b187fc5f863b4735b323978e0f</title>
<g id="a_node6"><a xlink:href="dir_c541d4b187fc5f863b4735b323978e0f.html" target="_top" xlink:title="util">
<polygon fill="none" stroke="black" points="188,-108 134,-108 134,-72 188,-72 188,-108"/>
<text text-anchor="middle" x="161" y="-87.5" font-family="Helvetica,sans-Serif" font-size="10.00">util</text>
</a>
</g>
</g>
<!-- dir_a8563fb538e645acca0097d117a29c7f&#45;&gt;dir_c541d4b187fc5f863b4735b323978e0f -->
<g id="edge22" class="edge">
<title>dir_a8563fb538e645acca0097d117a29c7f&#45;&gt;dir_c541d4b187fc5f863b4735b323978e0f</title>
<path fill="none" stroke="black" d="M155.31,-359.82C188.26,-339.14 238.9,-301.01 259,-252 280.41,-199.79 228.5,-144.86 192.34,-114.57"/>
<polygon fill="black" stroke="black" points="194.41,-111.73 184.44,-108.13 189.98,-117.16 194.41,-111.73"/>
<g id="a_edge22&#45;headlabel"><a xlink:href="dir_000021_000013.html" target="_top" xlink:title="4">
<text text-anchor="middle" x="198.99" y="-109.31" font-family="Helvetica,sans-Serif" font-size="10.00">4</text>
</a>
</g>
</g>
<!-- dir_d3b86ce335ad818909ececff0fac1eca -->
<g id="node7" class="node">
<title>dir_d3b86ce335ad818909ececff0fac1eca</title>
<g id="a_node7"><a xlink:href="dir_d3b86ce335ad818909ececff0fac1eca.html" target="_top" xlink:title="conversion">
<polygon fill="none" stroke="black" points="250,-252 180,-252 180,-216 250,-216 250,-252"/>
<text text-anchor="middle" x="215" y="-231.5" font-family="Helvetica,sans-Serif" font-size="10.00">conversion</text>
</a>
</g>
</g>
<!-- dir_a8563fb538e645acca0097d117a29c7f&#45;&gt;dir_d3b86ce335ad818909ececff0fac1eca -->
<g id="edge23" class="edge">
<title>dir_a8563fb538e645acca0097d117a29c7f&#45;&gt;dir_d3b86ce335ad818909ececff0fac1eca</title>
<path fill="none" stroke="black" d="M136.9,-359.96C144.02,-349.64 153.18,-336.17 161,-324 174.48,-303.02 189.11,-278.81 199.74,-260.94"/>
<polygon fill="black" stroke="black" points="202.82,-262.61 204.91,-252.22 196.8,-259.04 202.82,-262.61"/>
<g id="a_edge23&#45;headlabel"><a xlink:href="dir_000021_000026.html" target="_top" xlink:title="2">
<text text-anchor="middle" x="203.43" y="-264.65" font-family="Helvetica,sans-Serif" font-size="10.00">2</text>
</a>
</g>
</g>
<!-- dir_fd1e11fb0964f7346e999e146b0dfd59 -->
<g id="node8" class="node">
<title>dir_fd1e11fb0964f7346e999e146b0dfd59</title>
<g id="a_node8"><a xlink:href="dir_fd1e11fb0964f7346e999e146b0dfd59.html" target="_top" xlink:title="common">
<polygon fill="none" stroke="black" points="162.5,-36 103.5,-36 103.5,0 162.5,0 162.5,-36"/>
<text text-anchor="middle" x="133" y="-15.5" font-family="Helvetica,sans-Serif" font-size="10.00">common</text>
</a>
</g>
</g>
<!-- dir_a8563fb538e645acca0097d117a29c7f&#45;&gt;dir_fd1e11fb0964f7346e999e146b0dfd59 -->
<g id="edge24" class="edge">
<title>dir_a8563fb538e645acca0097d117a29c7f&#45;&gt;dir_fd1e11fb0964f7346e999e146b0dfd59</title>
<path fill="none" stroke="black" d="M94.1,-359.82C57.09,-336.69 0,-291.82 0,-235 0,-235 0,-235 0,-161 0,-105.34 55.11,-62.5 94.38,-39.04"/>
<polygon fill="black" stroke="black" points="96.58,-41.81 103.48,-33.77 93.07,-35.75 96.58,-41.81"/>
<g id="a_edge24&#45;headlabel"><a xlink:href="dir_000021_000017.html" target="_top" xlink:title="10">
<text text-anchor="middle" x="94.89" y="-43.56" font-family="Helvetica,sans-Serif" font-size="10.00">10</text>
</a>
</g>
</g>
<!-- dir_bd834f6d703e990742b68c11905a6fe2&#45;&gt;dir_37e37a27cff779b381c25ed0134aa6e8 -->
<g id="edge3" class="edge">
<title>dir_bd834f6d703e990742b68c11905a6fe2&#45;&gt;dir_37e37a27cff779b381c25ed0134aa6e8</title>
<path fill="none" stroke="black" d="M143.6,-324.24C152.53,-333.8 162.29,-346.47 167,-360 183.18,-406.47 160.31,-462.75 143.36,-494.96"/>
<polygon fill="black" stroke="black" points="140.27,-493.31 138.56,-503.76 146.42,-496.66 140.27,-493.31"/>
<g id="a_edge3&#45;headlabel"><a xlink:href="dir_000023_000020.html" target="_top" xlink:title="1">
<text text-anchor="middle" x="139.5" y="-486.29" font-family="Helvetica,sans-Serif" font-size="10.00">1</text>
</a>
</g>
</g>
<!-- dir_bd834f6d703e990742b68c11905a6fe2&#45;&gt;dir_75ea03fee82884b3113f88b9ca3f5035 -->
<g id="edge5" class="edge">
<title>dir_bd834f6d703e990742b68c11905a6fe2&#45;&gt;dir_75ea03fee82884b3113f88b9ca3f5035</title>
<path fill="none" stroke="black" d="M106.4,-324.24C97.47,-333.8 87.71,-346.47 83,-360 75.79,-380.72 83.4,-404.68 92.07,-422.52"/>
<polygon fill="black" stroke="black" points="89.16,-424.51 96.91,-431.75 95.36,-421.26 89.16,-424.51"/>
<g id="a_edge5&#45;headlabel"><a xlink:href="dir_000023_000022.html" target="_top" xlink:title="1">
<text text-anchor="middle" x="84.98" y="-420.15" font-family="Helvetica,sans-Serif" font-size="10.00">1</text>
</a>
</g>
</g>
<!-- dir_bd834f6d703e990742b68c11905a6fe2&#45;&gt;dir_a8563fb538e645acca0097d117a29c7f -->
<g id="edge6" class="edge">
<title>dir_bd834f6d703e990742b68c11905a6fe2&#45;&gt;dir_a8563fb538e645acca0097d117a29c7f</title>
<path fill="none" stroke="black" d="M130.9,-324.1C131.7,-331.79 131.94,-341.05 131.6,-349.67"/>
<polygon fill="black" stroke="black" points="128.11,-349.48 130.92,-359.7 135.09,-349.96 128.11,-349.48"/>
<g id="a_edge6&#45;headlabel"><a xlink:href="dir_000023_000021.html" target="_top" xlink:title="1">
<text text-anchor="middle" x="125.52" y="-343.2" font-family="Helvetica,sans-Serif" font-size="10.00">1</text>
</a>
</g>
</g>
<!-- dir_bd834f6d703e990742b68c11905a6fe2&#45;&gt;dir_3f96c34ad80e9031c68706862fabf1a4 -->
<g id="edge4" class="edge">
<title>dir_bd834f6d703e990742b68c11905a6fe2&#45;&gt;dir_3f96c34ad80e9031c68706862fabf1a4</title>
<path fill="none" stroke="black" d="M122.35,-287.87C118.6,-263.67 111.71,-219.21 107.24,-190.39"/>
<polygon fill="black" stroke="black" points="110.65,-189.54 105.66,-180.19 103.74,-190.61 110.65,-189.54"/>
<g id="a_edge4&#45;headlabel"><a xlink:href="dir_000023_000007.html" target="_top" xlink:title="2">
<text text-anchor="middle" x="114.01" y="-190.15" font-family="Helvetica,sans-Serif" font-size="10.00">2</text>
</a>
</g>
</g>
<!-- dir_bd834f6d703e990742b68c11905a6fe2&#45;&gt;dir_c541d4b187fc5f863b4735b323978e0f -->
<g id="edge7" class="edge">
<title>dir_bd834f6d703e990742b68c11905a6fe2&#45;&gt;dir_c541d4b187fc5f863b4735b323978e0f</title>
<path fill="none" stroke="black" d="M127.89,-287.85C134.13,-250.75 148.92,-162.81 156.44,-118.1"/>
<polygon fill="black" stroke="black" points="159.89,-118.67 158.1,-108.23 152.99,-117.51 159.89,-118.67"/>
<g id="a_edge7&#45;headlabel"><a xlink:href="dir_000023_000013.html" target="_top" xlink:title="2">
<text text-anchor="middle" x="162.1" y="-120.19" font-family="Helvetica,sans-Serif" font-size="10.00">2</text>
</a>
</g>
</g>
<!-- dir_bd834f6d703e990742b68c11905a6fe2&#45;&gt;dir_d3b86ce335ad818909ececff0fac1eca -->
<g id="edge8" class="edge">
<title>dir_bd834f6d703e990742b68c11905a6fe2&#45;&gt;dir_d3b86ce335ad818909ececff0fac1eca</title>
<path fill="none" stroke="black" d="M147.25,-287.7C158.58,-278.88 172.53,-268.03 184.82,-258.47"/>
<polygon fill="black" stroke="black" points="187.26,-261.01 193.01,-252.1 182.97,-255.48 187.26,-261.01"/>
<g id="a_edge8&#45;headlabel"><a xlink:href="dir_000023_000026.html" target="_top" xlink:title="4">
<text text-anchor="middle" x="186.17" y="-262.95" font-family="Helvetica,sans-Serif" font-size="10.00">4</text>
</a>
</g>
</g>
<!-- dir_bd834f6d703e990742b68c11905a6fe2&#45;&gt;dir_fd1e11fb0964f7346e999e146b0dfd59 -->
<g id="edge9" class="edge">
<title>dir_bd834f6d703e990742b68c11905a6fe2&#45;&gt;dir_fd1e11fb0964f7346e999e146b0dfd59</title>
<path fill="none" stroke="black" d="M110.02,-287.59C86.88,-258.55 46.55,-198.05 61,-144 71.03,-106.51 95.3,-68.6 112.89,-44.52"/>
<polygon fill="black" stroke="black" points="115.85,-46.41 119.04,-36.3 110.25,-42.22 115.85,-46.41"/>
<g id="a_edge9&#45;headlabel"><a xlink:href="dir_000023_000017.html" target="_top" xlink:title="5">
<text text-anchor="middle" x="115.98" y="-48.49" font-family="Helvetica,sans-Serif" font-size="10.00">5</text>
</a>
</g>
</g>
<!-- dir_3f96c34ad80e9031c68706862fabf1a4&#45;&gt;dir_c541d4b187fc5f863b4735b323978e0f -->
<g id="edge16" class="edge">
<title>dir_3f96c34ad80e9031c68706862fabf1a4&#45;&gt;dir_c541d4b187fc5f863b4735b323978e0f</title>
<path fill="none" stroke="black" d="M117.34,-143.7C124.29,-135.3 132.77,-125.07 140.4,-115.86"/>
<polygon fill="black" stroke="black" points="143.14,-118.04 146.83,-108.1 137.75,-113.57 143.14,-118.04"/>
<g id="a_edge16&#45;headlabel"><a xlink:href="dir_000007_000013.html" target="_top" xlink:title="4">
<text text-anchor="middle" x="143.04" y="-120.12" font-family="Helvetica,sans-Serif" font-size="10.00">4</text>
</a>
</g>
</g>
<!-- dir_3f96c34ad80e9031c68706862fabf1a4&#45;&gt;dir_fd1e11fb0964f7346e999e146b0dfd59 -->
<g id="edge17" class="edge">
<title>dir_3f96c34ad80e9031c68706862fabf1a4&#45;&gt;dir_fd1e11fb0964f7346e999e146b0dfd59</title>
<path fill="none" stroke="black" d="M106.62,-143.87C111.75,-119.56 121.21,-74.82 127.29,-46.01"/>
<polygon fill="black" stroke="black" points="130.73,-46.7 129.37,-36.19 123.88,-45.25 130.73,-46.7"/>
<g id="a_edge17&#45;headlabel"><a xlink:href="dir_000007_000017.html" target="_top" xlink:title="9">
<text text-anchor="middle" x="132.76" y="-48.3" font-family="Helvetica,sans-Serif" font-size="10.00">9</text>
</a>
</g>
</g>
<!-- dir_c541d4b187fc5f863b4735b323978e0f&#45;&gt;dir_fd1e11fb0964f7346e999e146b0dfd59 -->
<g id="edge2" class="edge">
<title>dir_c541d4b187fc5f863b4735b323978e0f&#45;&gt;dir_fd1e11fb0964f7346e999e146b0dfd59</title>
<path fill="none" stroke="black" d="M148.16,-71.7C144.24,-63.9 140.26,-54.51 137.15,-45.83"/>
<polygon fill="black" stroke="black" points="140.4,-44.51 133.95,-36.1 133.75,-46.7 140.4,-44.51"/>
<g id="a_edge2&#45;headlabel"><a xlink:href="dir_000013_000017.html" target="_top" xlink:title="6">
<text text-anchor="middle" x="144.22" y="-44.54" font-family="Helvetica,sans-Serif" font-size="10.00">6</text>
</a>
</g>
</g>
<!-- dir_d3b86ce335ad818909ececff0fac1eca&#45;&gt;dir_3f96c34ad80e9031c68706862fabf1a4 -->
<g id="edge10" class="edge">
<title>dir_d3b86ce335ad818909ececff0fac1eca&#45;&gt;dir_3f96c34ad80e9031c68706862fabf1a4</title>
<path fill="none" stroke="black" d="M187.6,-215.88C173.09,-206.81 155.08,-195.55 139.41,-185.76"/>
<polygon fill="black" stroke="black" points="140.84,-182.52 130.5,-180.19 137.13,-188.46 140.84,-182.52"/>
<g id="a_edge10&#45;headlabel"><a xlink:href="dir_000026_000007.html" target="_top" xlink:title="5">
<text text-anchor="middle" x="145.39" y="-179.52" font-family="Helvetica,sans-Serif" font-size="10.00">5</text>
</a>
</g>
</g>
<!-- dir_d3b86ce335ad818909ececff0fac1eca&#45;&gt;dir_c541d4b187fc5f863b4735b323978e0f -->
<g id="edge11" class="edge">
<title>dir_d3b86ce335ad818909ececff0fac1eca&#45;&gt;dir_c541d4b187fc5f863b4735b323978e0f</title>
<path fill="none" stroke="black" d="M208.49,-215.87C199.2,-191.46 182.08,-146.43 171.13,-117.64"/>
<polygon fill="black" stroke="black" points="174.36,-116.29 167.54,-108.19 167.82,-118.78 174.36,-116.29"/>
<g id="a_edge11&#45;headlabel"><a xlink:href="dir_000026_000013.html" target="_top" xlink:title="11">
<text text-anchor="middle" x="178.29" y="-116.14" font-family="Helvetica,sans-Serif" font-size="10.00">11</text>
</a>
</g>
</g>
<!-- dir_d3b86ce335ad818909ececff0fac1eca&#45;&gt;dir_fd1e11fb0964f7346e999e146b0dfd59 -->
<g id="edge12" class="edge">
<title>dir_d3b86ce335ad818909ececff0fac1eca&#45;&gt;dir_fd1e11fb0964f7346e999e146b0dfd59</title>
<path fill="none" stroke="black" d="M217.09,-215.79C220.01,-184.93 222.4,-119.02 197,-72 190.72,-60.38 180.76,-50.3 170.54,-42.13"/>
<polygon fill="black" stroke="black" points="172.45,-39.2 162.35,-36 168.26,-44.8 172.45,-39.2"/>
<g id="a_edge12&#45;headlabel"><a xlink:href="dir_000026_000017.html" target="_top" xlink:title="6">
<text text-anchor="middle" x="177.03" y="-36.58" font-family="Helvetica,sans-Serif" font-size="10.00">6</text>
</a>
</g>
</g>
<!-- dir_fd1e11fb0964f7346e999e146b0dfd59&#45;&gt;dir_c541d4b187fc5f863b4735b323978e0f -->
<g id="edge1" class="edge">
<title>dir_fd1e11fb0964f7346e999e146b0dfd59&#45;&gt;dir_c541d4b187fc5f863b4735b323978e0f</title>
<path fill="none" stroke="black" d="M145.74,-36.1C149.66,-43.88 153.64,-53.26 156.77,-61.95"/>
<polygon fill="black" stroke="black" points="153.53,-63.3 159.99,-71.7 160.18,-61.1 153.53,-63.3"/>
<g id="a_edge1&#45;headlabel"><a xlink:href="dir_000017_000013.html" target="_top" xlink:title="2">
<text text-anchor="middle" x="149.71" y="-58.28" font-family="Helvetica,sans-Serif" font-size="10.00">2</text>
</a>
</g>
</g>
</g>
</svg>
