<?xml version="1.0" encoding="UTF-8" standalone="no"?>
<!DOCTYPE svg PUBLIC "-//W3C//DTD SVG 1.1//EN"
 "http://www.w3.org/Graphics/SVG/1.1/DTD/svg11.dtd">
<!-- Generated by graphviz version 2.43.0 (0)
 -->
<!-- Title: extension Pages: 1 -->
<!--zoomable 583 -->
<svg id="main" version="1.1" xmlns="http://www.w3.org/2000/svg" xmlns:xlink="http://www.w3.org/1999/xlink" xml:space="preserve" onload="init(evt)">
<style type="text/css"><![CDATA[
.edge:hover path { stroke: red; }
.edge:hover polygon { stroke: red; fill: red; }
]]></style>
<script type="text/javascript"><![CDATA[
var edges = document.getElementsByTagName('g');
if (edges && edges.length) {
  for (var i=0;i<edges.length;i++) {
    if (edges[i].id.substr(0,4)=='edge') {
      edges[i].setAttribute('class','edge');
    }
  }
}
]]></script>
        <defs>
                <circle id="rim" cx="0" cy="0" r="7"/>
                <circle id="rim2" cx="0" cy="0" r="3.5"/>
                <g id="zoomPlus">
                        <use xlink:href="#rim" fill="#404040">
                                <set attributeName="fill" to="#808080" begin="zoomplus.mouseover" end="zoomplus.mouseout"/>
                        </use>
                        <path d="M-4,0h8M0,-4v8" fill="none" stroke="white" stroke-width="1.5" pointer-events="none"/>
                </g>
                <g id="zoomMin">
                        <use xlink:href="#rim" fill="#404040">
                                <set attributeName="fill" to="#808080" begin="zoomminus.mouseover" end="zoomminus.mouseout"/>
                        </use>
                        <path d="M-4,0h8" fill="none" stroke="white" stroke-width="1.5" pointer-events="none"/>
                </g>
                <g id="dirArrow">
                        <path fill="none" stroke="white" stroke-width="1.5" d="M0,-3.0v7 M-2.5,-0.5L0,-3.0L2.5,-0.5"/>
                </g>
               <g id="resetDef">
                       <use xlink:href="#rim2" fill="#404040">
                               <set attributeName="fill" to="#808080" begin="reset.mouseover" end="reset.mouseout"/>
                       </use>
               </g>
        </defs>

<script type="text/javascript">
var viewWidth = 358;
var viewHeight = 583;
var sectionId = 'dynsection-0';
</script>
<script xlink:href="svgpan.js"/>
<svg id="graph" class="graph">
<g id="viewport">
<title>extension</title>
<polygon fill="white" stroke="transparent" points="-4,4 -4,-579 354,-579 354,4 -4,4"/>
<g id="clust1" class="cluster">
<title>clusterdir_ff67eb8bdf90fd4ca788748765fa4706</title>
<g id="a_clust1"><a xlink:href="dir_ff67eb8bdf90fd4ca788748765fa4706.html" target="_top" xlink:title="multi">
<polygon fill="#ddddee" stroke="black" points="56,-280 56,-567 178,-567 178,-280 56,-280"/>
<text text-anchor="middle" x="117" y="-555" font-family="Helvetica,sans-Serif" font-size="10.00">multi</text>
</a>
</g>
</g>
<!-- dir_211df2c2e27ea537834950dcda81a69a -->
<g id="node1" class="node">
<title>dir_211df2c2e27ea537834950dcda81a69a</title>
<g id="a_node1"><a xlink:href="dir_211df2c2e27ea537834950dcda81a69a.html" target="_top" xlink:title="sbml">
<polygon fill="none" stroke="black" points="147,-540 93,-540 93,-504 147,-504 147,-540"/>
<text text-anchor="middle" x="120" y="-519.5" font-family="Helvetica,sans-Serif" font-size="10.00">sbml</text>
</a>
</g>
</g>
<!-- dir_d25dc3b0d43d3f59e2bc754eb6f23a17 -->
<g id="node2" class="node">
<title>dir_d25dc3b0d43d3f59e2bc754eb6f23a17</title>
<g id="a_node2"><a xlink:href="dir_d25dc3b0d43d3f59e2bc754eb6f23a17.html" target="_top" xlink:title="common">
<polygon fill="none" stroke="black" points="149.5,-468 90.5,-468 90.5,-432 149.5,-432 149.5,-468"/>
<text text-anchor="middle" x="120" y="-447.5" font-family="Helvetica,sans-Serif" font-size="10.00">common</text>
</a>
</g>
</g>
<!-- dir_211df2c2e27ea537834950dcda81a69a&#45;&gt;dir_d25dc3b0d43d3f59e2bc754eb6f23a17 -->
<g id="edge19" class="edge">
<title>dir_211df2c2e27ea537834950dcda81a69a&#45;&gt;dir_d25dc3b0d43d3f59e2bc754eb6f23a17</title>
<path fill="none" stroke="black" d="M114.08,-503.7C113.29,-495.98 113.06,-486.71 113.4,-478.11"/>
<polygon fill="black" stroke="black" points="116.9,-478.32 114.1,-468.1 109.92,-477.84 116.9,-478.32"/>
<g id="a_edge19&#45;headlabel"><a xlink:href="dir_000010_000050.html" target="_top" xlink:title="14">
<text text-anchor="middle" x="119.48" y="-479.61" font-family="Helvetica,sans-Serif" font-size="10.00">14</text>
</a>
</g>
</g>
<!-- dir_e49853d8c79be0c159e687553c4d5267 -->
<g id="node3" class="node">
<title>dir_e49853d8c79be0c159e687553c4d5267</title>
<g id="a_node3"><a xlink:href="dir_e49853d8c79be0c159e687553c4d5267.html" target="_top" xlink:title="validator">
<polygon fill="none" stroke="black" points="169,-324 109,-324 109,-288 169,-288 169,-324"/>
<text text-anchor="middle" x="139" y="-303.5" font-family="Helvetica,sans-Serif" font-size="10.00">validator</text>
</a>
</g>
</g>
<!-- dir_211df2c2e27ea537834950dcda81a69a&#45;&gt;dir_e49853d8c79be0c159e687553c4d5267 -->
<g id="edge20" class="edge">
<title>dir_211df2c2e27ea537834950dcda81a69a&#45;&gt;dir_e49853d8c79be0c159e687553c4d5267</title>
<path fill="none" stroke="black" d="M136.89,-503.99C145.29,-494.31 154.58,-481.46 159,-468 173.9,-422.6 160.27,-366.67 149.38,-334.1"/>
<polygon fill="black" stroke="black" points="152.59,-332.68 145.98,-324.39 145.98,-334.99 152.59,-332.68"/>
<g id="a_edge20&#45;headlabel"><a xlink:href="dir_000010_000049.html" target="_top" xlink:title="14">
<text text-anchor="middle" x="156.46" y="-332.63" font-family="Helvetica,sans-Serif" font-size="10.00">14</text>
</a>
</g>
</g>
<!-- dir_15c5042fe4b0a3c710a68e7faf2f3890 -->
<g id="node4" class="node">
<title>dir_15c5042fe4b0a3c710a68e7faf2f3890</title>
<g id="a_node4"><a xlink:href="dir_15c5042fe4b0a3c710a68e7faf2f3890.html" target="_top" xlink:title="extension">
<polygon fill="#eeeeff" stroke="black" points="129.5,-396 64.5,-396 64.5,-360 129.5,-360 129.5,-396"/>
<text text-anchor="middle" x="97" y="-375.5" font-family="Helvetica,sans-Serif" font-size="10.00">extension</text>
</a>
</g>
</g>
<!-- dir_211df2c2e27ea537834950dcda81a69a&#45;&gt;dir_15c5042fe4b0a3c710a68e7faf2f3890 -->
<g id="edge17" class="edge">
<title>dir_211df2c2e27ea537834950dcda81a69a&#45;&gt;dir_15c5042fe4b0a3c710a68e7faf2f3890</title>
<path fill="none" stroke="black" d="M95.56,-503.92C86.35,-494.22 77.3,-481.37 73,-468 66.41,-447.48 71.23,-423.32 78.49,-405.36"/>
<polygon fill="black" stroke="black" points="81.76,-406.63 82.73,-396.08 75.39,-403.72 81.76,-406.63"/>
<g id="a_edge17&#45;headlabel"><a xlink:href="dir_000010_000048.html" target="_top" xlink:title="14">
<text text-anchor="middle" x="82.85" y="-408.58" font-family="Helvetica,sans-Serif" font-size="10.00">14</text>
</a>
</g>
</g>
<!-- dir_c541d4b187fc5f863b4735b323978e0f -->
<g id="node8" class="node">
<title>dir_c541d4b187fc5f863b4735b323978e0f</title>
<g id="a_node8"><a xlink:href="dir_c541d4b187fc5f863b4735b323978e0f.html" target="_top" xlink:title="util">
<polygon fill="none" stroke="black" points="280,-108 226,-108 226,-72 280,-72 280,-108"/>
<text text-anchor="middle" x="253" y="-87.5" font-family="Helvetica,sans-Serif" font-size="10.00">util</text>
</a>
</g>
</g>
<!-- dir_211df2c2e27ea537834950dcda81a69a&#45;&gt;dir_c541d4b187fc5f863b4735b323978e0f -->
<g id="edge18" class="edge">
<title>dir_211df2c2e27ea537834950dcda81a69a&#45;&gt;dir_c541d4b187fc5f863b4735b323978e0f</title>
<path fill="none" stroke="black" d="M147.1,-514.54C200.03,-500.12 312,-460.05 312,-379 312,-379 312,-379 312,-233 312,-189.83 288.46,-144.53 271.11,-117.03"/>
<polygon fill="black" stroke="black" points="273.9,-114.89 265.51,-108.41 268.03,-118.7 273.9,-114.89"/>
<g id="a_edge18&#45;headlabel"><a xlink:href="dir_000010_000013.html" target="_top" xlink:title="8">
<text text-anchor="middle" x="278.24" y="-113.85" font-family="Helvetica,sans-Serif" font-size="10.00">8</text>
</a>
</g>
</g>
<!-- dir_fd1e11fb0964f7346e999e146b0dfd59 -->
<g id="node9" class="node">
<title>dir_fd1e11fb0964f7346e999e146b0dfd59</title>
<g id="a_node9"><a xlink:href="dir_fd1e11fb0964f7346e999e146b0dfd59.html" target="_top" xlink:title="common">
<polygon fill="none" stroke="black" points="227.5,-36 168.5,-36 168.5,0 227.5,0 227.5,-36"/>
<text text-anchor="middle" x="198" y="-15.5" font-family="Helvetica,sans-Serif" font-size="10.00">common</text>
</a>
</g>
</g>
<!-- dir_211df2c2e27ea537834950dcda81a69a&#45;&gt;dir_fd1e11fb0964f7346e999e146b0dfd59 -->
<g id="edge21" class="edge">
<title>dir_211df2c2e27ea537834950dcda81a69a&#45;&gt;dir_fd1e11fb0964f7346e999e146b0dfd59</title>
<path fill="none" stroke="black" d="M147.29,-517.21C208.21,-507.07 350,-473.32 350,-379 350,-379 350,-379 350,-161 350,-99.13 281.93,-56.48 236.9,-35.03"/>
<polygon fill="black" stroke="black" points="238.21,-31.78 227.67,-30.77 235.28,-38.14 238.21,-31.78"/>
<g id="a_edge21&#45;headlabel"><a xlink:href="dir_000010_000017.html" target="_top" xlink:title="28">
<text text-anchor="middle" x="242.67" y="-28.21" font-family="Helvetica,sans-Serif" font-size="10.00">28</text>
</a>
</g>
</g>
<!-- dir_d25dc3b0d43d3f59e2bc754eb6f23a17&#45;&gt;dir_211df2c2e27ea537834950dcda81a69a -->
<g id="edge4" class="edge">
<title>dir_d25dc3b0d43d3f59e2bc754eb6f23a17&#45;&gt;dir_211df2c2e27ea537834950dcda81a69a</title>
<path fill="none" stroke="black" d="M125.9,-468.1C126.7,-475.79 126.94,-485.05 126.6,-493.67"/>
<polygon fill="black" stroke="black" points="123.11,-493.48 125.92,-503.7 130.09,-493.96 123.11,-493.48"/>
<g id="a_edge4&#45;headlabel"><a xlink:href="dir_000050_000010.html" target="_top" xlink:title="14">
<text text-anchor="middle" x="120.52" y="-487.2" font-family="Helvetica,sans-Serif" font-size="10.00">14</text>
</a>
</g>
</g>
<!-- dir_d25dc3b0d43d3f59e2bc754eb6f23a17&#45;&gt;dir_15c5042fe4b0a3c710a68e7faf2f3890 -->
<g id="edge3" class="edge">
<title>dir_d25dc3b0d43d3f59e2bc754eb6f23a17&#45;&gt;dir_15c5042fe4b0a3c710a68e7faf2f3890</title>
<path fill="none" stroke="black" d="M108.4,-431.7C105.03,-423.9 101.72,-414.51 99.23,-405.83"/>
<polygon fill="black" stroke="black" points="102.61,-404.91 96.72,-396.1 95.83,-406.66 102.61,-404.91"/>
<g id="a_edge3&#45;headlabel"><a xlink:href="dir_000050_000048.html" target="_top" xlink:title="9">
<text text-anchor="middle" x="106.26" y="-405.19" font-family="Helvetica,sans-Serif" font-size="10.00">9</text>
</a>
</g>
</g>
<!-- dir_e49853d8c79be0c159e687553c4d5267&#45;&gt;dir_d25dc3b0d43d3f59e2bc754eb6f23a17 -->
<g id="edge27" class="edge">
<title>dir_e49853d8c79be0c159e687553c4d5267&#45;&gt;dir_d25dc3b0d43d3f59e2bc754eb6f23a17</title>
<path fill="none" stroke="black" d="M140.73,-324.21C142.15,-342.25 143.29,-371.34 139,-396 137.48,-404.76 134.64,-413.99 131.61,-422.25"/>
<polygon fill="black" stroke="black" points="128.28,-421.16 127.89,-431.75 134.79,-423.71 128.28,-421.16"/>
<g id="a_edge27&#45;headlabel"><a xlink:href="dir_000049_000050.html" target="_top" xlink:title="1">
<text text-anchor="middle" x="126.94" y="-414.28" font-family="Helvetica,sans-Serif" font-size="10.00">1</text>
</a>
</g>
</g>
<!-- dir_15c5042fe4b0a3c710a68e7faf2f3890&#45;&gt;dir_211df2c2e27ea537834950dcda81a69a -->
<g id="edge9" class="edge">
<title>dir_15c5042fe4b0a3c710a68e7faf2f3890&#45;&gt;dir_211df2c2e27ea537834950dcda81a69a</title>
<path fill="none" stroke="black" d="M96.08,-396.08C91.4,-414.25 83.18,-443.68 91,-468 94.16,-477.82 99.87,-487.35 105.53,-495.57"/>
<polygon fill="black" stroke="black" points="102.84,-497.83 111.51,-503.92 108.53,-493.75 102.84,-497.83"/>
<g id="a_edge9&#45;headlabel"><a xlink:href="dir_000048_000010.html" target="_top" xlink:title="9">
<text text-anchor="middle" x="98.44" y="-494.06" font-family="Helvetica,sans-Serif" font-size="10.00">9</text>
</a>
</g>
</g>
<!-- dir_15c5042fe4b0a3c710a68e7faf2f3890&#45;&gt;dir_d25dc3b0d43d3f59e2bc754eb6f23a17 -->
<g id="edge14" class="edge">
<title>dir_15c5042fe4b0a3c710a68e7faf2f3890&#45;&gt;dir_d25dc3b0d43d3f59e2bc754eb6f23a17</title>
<path fill="none" stroke="black" d="M108.52,-396.1C111.88,-403.88 115.2,-413.26 117.7,-421.95"/>
<polygon fill="black" stroke="black" points="114.33,-422.89 120.23,-431.7 121.11,-421.14 114.33,-422.89"/>
<g id="a_edge14&#45;headlabel"><a xlink:href="dir_000048_000050.html" target="_top" xlink:title="4">
<text text-anchor="middle" x="110.68" y="-417.63" font-family="Helvetica,sans-Serif" font-size="10.00">4</text>
</a>
</g>
</g>
<!-- dir_15c5042fe4b0a3c710a68e7faf2f3890&#45;&gt;dir_e49853d8c79be0c159e687553c4d5267 -->
<g id="edge15" class="edge">
<title>dir_15c5042fe4b0a3c710a68e7faf2f3890&#45;&gt;dir_e49853d8c79be0c159e687553c4d5267</title>
<path fill="none" stroke="black" d="M107.38,-359.7C112.26,-351.56 118.19,-341.69 123.58,-332.7"/>
<polygon fill="black" stroke="black" points="126.59,-334.48 128.74,-324.1 120.59,-330.88 126.59,-334.48"/>
<g id="a_edge15&#45;headlabel"><a xlink:href="dir_000048_000049.html" target="_top" xlink:title="10">
<text text-anchor="middle" x="127.18" y="-336.52" font-family="Helvetica,sans-Serif" font-size="10.00">10</text>
</a>
</g>
</g>
<!-- dir_3f96c34ad80e9031c68706862fabf1a4 -->
<g id="node5" class="node">
<title>dir_3f96c34ad80e9031c68706862fabf1a4</title>
<g id="a_node5"><a xlink:href="dir_3f96c34ad80e9031c68706862fabf1a4.html" target="_top" xlink:title="extension">
<polygon fill="none" stroke="black" points="131.5,-252 66.5,-252 66.5,-216 131.5,-216 131.5,-252"/>
<text text-anchor="middle" x="99" y="-231.5" font-family="Helvetica,sans-Serif" font-size="10.00">extension</text>
</a>
</g>
</g>
<!-- dir_15c5042fe4b0a3c710a68e7faf2f3890&#45;&gt;dir_3f96c34ad80e9031c68706862fabf1a4 -->
<g id="edge10" class="edge">
<title>dir_15c5042fe4b0a3c710a68e7faf2f3890&#45;&gt;dir_3f96c34ad80e9031c68706862fabf1a4</title>
<path fill="none" stroke="black" d="M97.24,-359.87C97.58,-335.67 98.21,-291.21 98.61,-262.39"/>
<polygon fill="black" stroke="black" points="102.12,-262.24 98.76,-252.19 95.12,-262.14 102.12,-262.24"/>
<g id="a_edge10&#45;headlabel"><a xlink:href="dir_000048_000007.html" target="_top" xlink:title="14">
<text text-anchor="middle" x="104.91" y="-263.37" font-family="Helvetica,sans-Serif" font-size="10.00">14</text>
</a>
</g>
</g>
<!-- dir_48ff6375d03f1aa509a6e0480f966544 -->
<g id="node6" class="node">
<title>dir_48ff6375d03f1aa509a6e0480f966544</title>
<g id="a_node6"><a xlink:href="dir_48ff6375d03f1aa509a6e0480f966544.html" target="_top" xlink:title="math">
<polygon fill="none" stroke="black" points="241,-324 187,-324 187,-288 241,-288 241,-324"/>
<text text-anchor="middle" x="214" y="-303.5" font-family="Helvetica,sans-Serif" font-size="10.00">math</text>
</a>
</g>
</g>
<!-- dir_15c5042fe4b0a3c710a68e7faf2f3890&#45;&gt;dir_48ff6375d03f1aa509a6e0480f966544 -->
<g id="edge11" class="edge">
<title>dir_15c5042fe4b0a3c710a68e7faf2f3890&#45;&gt;dir_48ff6375d03f1aa509a6e0480f966544</title>
<path fill="none" stroke="black" d="M125.62,-359.88C141.38,-350.45 161.08,-338.66 177.89,-328.61"/>
<polygon fill="black" stroke="black" points="180.1,-331.36 186.88,-323.23 176.5,-325.36 180.1,-331.36"/>
<g id="a_edge11&#45;headlabel"><a xlink:href="dir_000048_000008.html" target="_top" xlink:title="1">
<text text-anchor="middle" x="178.47" y="-333.15" font-family="Helvetica,sans-Serif" font-size="10.00">1</text>
</a>
</g>
</g>
<!-- dir_5cbb9a0bf548abf0d2e32772c73d2ad6 -->
<g id="node7" class="node">
<title>dir_5cbb9a0bf548abf0d2e32772c73d2ad6</title>
<g id="a_node7"><a xlink:href="dir_5cbb9a0bf548abf0d2e32772c73d2ad6.html" target="_top" xlink:title="xml">
<polygon fill="none" stroke="black" points="132,-180 78,-180 78,-144 132,-144 132,-180"/>
<text text-anchor="middle" x="105" y="-159.5" font-family="Helvetica,sans-Serif" font-size="10.00">xml</text>
</a>
</g>
</g>
<!-- dir_15c5042fe4b0a3c710a68e7faf2f3890&#45;&gt;dir_5cbb9a0bf548abf0d2e32772c73d2ad6 -->
<g id="edge12" class="edge">
<title>dir_15c5042fe4b0a3c710a68e7faf2f3890&#45;&gt;dir_5cbb9a0bf548abf0d2e32772c73d2ad6</title>
<path fill="none" stroke="black" d="M86.15,-359.66C68.84,-329.68 38.81,-266.55 58,-216 61.97,-205.54 69.05,-195.83 76.53,-187.65"/>
<polygon fill="black" stroke="black" points="79.23,-189.89 83.73,-180.3 74.23,-184.99 79.23,-189.89"/>
<g id="a_edge12&#45;headlabel"><a xlink:href="dir_000048_000035.html" target="_top" xlink:title="2">
<text text-anchor="middle" x="78.74" y="-191.94" font-family="Helvetica,sans-Serif" font-size="10.00">2</text>
</a>
</g>
</g>
<!-- dir_15c5042fe4b0a3c710a68e7faf2f3890&#45;&gt;dir_c541d4b187fc5f863b4735b323978e0f -->
<g id="edge13" class="edge">
<title>dir_15c5042fe4b0a3c710a68e7faf2f3890&#45;&gt;dir_c541d4b187fc5f863b4735b323978e0f</title>
<path fill="none" stroke="black" d="M129.6,-376C165.68,-372.95 222.38,-361.96 250,-324 294.92,-262.27 275.24,-164.92 261.79,-118.02"/>
<polygon fill="black" stroke="black" points="265.1,-116.86 258.88,-108.29 258.39,-118.87 265.1,-116.86"/>
<g id="a_edge13&#45;headlabel"><a xlink:href="dir_000048_000013.html" target="_top" xlink:title="4">
<text text-anchor="middle" x="268.85" y="-116.99" font-family="Helvetica,sans-Serif" font-size="10.00">4</text>
</a>
</g>
</g>
<!-- dir_15c5042fe4b0a3c710a68e7faf2f3890&#45;&gt;dir_fd1e11fb0964f7346e999e146b0dfd59 -->
<g id="edge16" class="edge">
<title>dir_15c5042fe4b0a3c710a68e7faf2f3890&#45;&gt;dir_fd1e11fb0964f7346e999e146b0dfd59</title>
<path fill="none" stroke="black" d="M74.99,-359.88C46.37,-335.5 0,-287.84 0,-235 0,-235 0,-235 0,-161 0,-83.78 100.67,-44.49 158.45,-28.29"/>
<polygon fill="black" stroke="black" points="159.61,-31.6 168.36,-25.62 157.79,-24.84 159.61,-31.6"/>
<g id="a_edge16&#45;headlabel"><a xlink:href="dir_000048_000017.html" target="_top" xlink:title="10">
<text text-anchor="middle" x="156.88" y="-32.78" font-family="Helvetica,sans-Serif" font-size="10.00">10</text>
</a>
</g>
</g>
<!-- dir_3f96c34ad80e9031c68706862fabf1a4&#45;&gt;dir_5cbb9a0bf548abf0d2e32772c73d2ad6 -->
<g id="edge24" class="edge">
<title>dir_3f96c34ad80e9031c68706862fabf1a4&#45;&gt;dir_5cbb9a0bf548abf0d2e32772c73d2ad6</title>
<path fill="none" stroke="black" d="M100.48,-215.7C101.14,-207.98 101.94,-198.71 102.68,-190.11"/>
<polygon fill="black" stroke="black" points="106.17,-190.37 103.53,-180.1 99.19,-189.77 106.17,-190.37"/>
<g id="a_edge24&#45;headlabel"><a xlink:href="dir_000007_000035.html" target="_top" xlink:title="2">
<text text-anchor="middle" x="108.69" y="-191.69" font-family="Helvetica,sans-Serif" font-size="10.00">2</text>
</a>
</g>
</g>
<!-- dir_3f96c34ad80e9031c68706862fabf1a4&#45;&gt;dir_c541d4b187fc5f863b4735b323978e0f -->
<g id="edge25" class="edge">
<title>dir_3f96c34ad80e9031c68706862fabf1a4&#45;&gt;dir_c541d4b187fc5f863b4735b323978e0f</title>
<path fill="none" stroke="black" d="M117.58,-215.87C144.86,-190.71 195.9,-143.65 226.93,-115.04"/>
<polygon fill="black" stroke="black" points="229.38,-117.54 234.36,-108.19 224.63,-112.4 229.38,-117.54"/>
<g id="a_edge25&#45;headlabel"><a xlink:href="dir_000007_000013.html" target="_top" xlink:title="4">
<text text-anchor="middle" x="228.66" y="-119.57" font-family="Helvetica,sans-Serif" font-size="10.00">4</text>
</a>
</g>
</g>
<!-- dir_3f96c34ad80e9031c68706862fabf1a4&#45;&gt;dir_fd1e11fb0964f7346e999e146b0dfd59 -->
<g id="edge26" class="edge">
<title>dir_3f96c34ad80e9031c68706862fabf1a4&#45;&gt;dir_fd1e11fb0964f7346e999e146b0dfd59</title>
<path fill="none" stroke="black" d="M85.93,-215.76C73.91,-197.69 59.33,-168.58 69,-144 86.48,-99.57 129.19,-63.57 160.7,-41.81"/>
<polygon fill="black" stroke="black" points="162.92,-44.54 169.26,-36.06 159.01,-38.73 162.92,-44.54"/>
<g id="a_edge26&#45;headlabel"><a xlink:href="dir_000007_000017.html" target="_top" xlink:title="9">
<text text-anchor="middle" x="161.52" y="-46.4" font-family="Helvetica,sans-Serif" font-size="10.00">9</text>
</a>
</g>
</g>
<!-- dir_48ff6375d03f1aa509a6e0480f966544&#45;&gt;dir_3f96c34ad80e9031c68706862fabf1a4 -->
<g id="edge5" class="edge">
<title>dir_48ff6375d03f1aa509a6e0480f966544&#45;&gt;dir_3f96c34ad80e9031c68706862fabf1a4</title>
<path fill="none" stroke="black" d="M193.02,-287.82C189.42,-285.1 185.66,-282.4 182,-280 168.97,-271.46 154.17,-263.06 140.71,-255.87"/>
<polygon fill="black" stroke="black" points="142.13,-252.66 131.65,-251.1 138.87,-258.85 142.13,-252.66"/>
<g id="a_edge5&#45;headlabel"><a xlink:href="dir_000008_000007.html" target="_top" xlink:title="6">
<text text-anchor="middle" x="146.63" y="-249.32" font-family="Helvetica,sans-Serif" font-size="10.00">6</text>
</a>
</g>
</g>
<!-- dir_48ff6375d03f1aa509a6e0480f966544&#45;&gt;dir_5cbb9a0bf548abf0d2e32772c73d2ad6 -->
<g id="edge6" class="edge">
<title>dir_48ff6375d03f1aa509a6e0480f966544&#45;&gt;dir_5cbb9a0bf548abf0d2e32772c73d2ad6</title>
<path fill="none" stroke="black" d="M200.85,-287.87C181.78,-263.03 146.33,-216.85 124.3,-188.14"/>
<polygon fill="black" stroke="black" points="127.06,-185.99 118.19,-180.19 121.51,-190.25 127.06,-185.99"/>
<g id="a_edge6&#45;headlabel"><a xlink:href="dir_000008_000035.html" target="_top" xlink:title="6">
<text text-anchor="middle" x="131.5" y="-184.61" font-family="Helvetica,sans-Serif" font-size="10.00">6</text>
</a>
</g>
</g>
<!-- dir_48ff6375d03f1aa509a6e0480f966544&#45;&gt;dir_c541d4b187fc5f863b4735b323978e0f -->
<g id="edge7" class="edge">
<title>dir_48ff6375d03f1aa509a6e0480f966544&#45;&gt;dir_c541d4b187fc5f863b4735b323978e0f</title>
<path fill="none" stroke="black" d="M217.13,-287.85C223.89,-250.75 239.91,-162.81 248.06,-118.1"/>
<polygon fill="black" stroke="black" points="251.51,-118.7 249.86,-108.23 244.62,-117.44 251.51,-118.7"/>
<g id="a_edge7&#45;headlabel"><a xlink:href="dir_000008_000013.html" target="_top" xlink:title="11">
<text text-anchor="middle" x="253.66" y="-120.24" font-family="Helvetica,sans-Serif" font-size="10.00">11</text>
</a>
</g>
</g>
<!-- dir_48ff6375d03f1aa509a6e0480f966544&#45;&gt;dir_fd1e11fb0964f7346e999e146b0dfd59 -->
<g id="edge8" class="edge">
<title>dir_48ff6375d03f1aa509a6e0480f966544&#45;&gt;dir_fd1e11fb0964f7346e999e146b0dfd59</title>
<path fill="none" stroke="black" d="M213.05,-287.97C210.38,-240.29 202.82,-105.18 199.55,-46.63"/>
<polygon fill="black" stroke="black" points="203.02,-46.1 198.97,-36.31 196.03,-46.49 203.02,-46.1"/>
<g id="a_edge8&#45;headlabel"><a xlink:href="dir_000008_000017.html" target="_top" xlink:title="21">
<text text-anchor="middle" x="206.06" y="-47.03" font-family="Helvetica,sans-Serif" font-size="10.00">21</text>
</a>
</g>
</g>
<!-- dir_5cbb9a0bf548abf0d2e32772c73d2ad6&#45;&gt;dir_c541d4b187fc5f863b4735b323978e0f -->
<g id="edge22" class="edge">
<title>dir_5cbb9a0bf548abf0d2e32772c73d2ad6&#45;&gt;dir_c541d4b187fc5f863b4735b323978e0f</title>
<path fill="none" stroke="black" d="M132.15,-148.16C155.85,-136.95 190.46,-120.58 216.58,-108.23"/>
<polygon fill="black" stroke="black" points="218.23,-111.32 225.78,-103.88 215.24,-104.99 218.23,-111.32"/>
<g id="a_edge22&#45;headlabel"><a xlink:href="dir_000035_000013.html" target="_top" xlink:title="5">
<text text-anchor="middle" x="216.2" y="-112.92" font-family="Helvetica,sans-Serif" font-size="10.00">5</text>
</a>
</g>
</g>
<!-- dir_5cbb9a0bf548abf0d2e32772c73d2ad6&#45;&gt;dir_fd1e11fb0964f7346e999e146b0dfd59 -->
<g id="edge23" class="edge">
<title>dir_5cbb9a0bf548abf0d2e32772c73d2ad6&#45;&gt;dir_fd1e11fb0964f7346e999e146b0dfd59</title>
<path fill="none" stroke="black" d="M116.22,-143.87C132.35,-119.24 162.22,-73.64 181.05,-44.88"/>
<polygon fill="black" stroke="black" points="184.19,-46.47 186.74,-36.19 178.34,-42.64 184.19,-46.47"/>
<g id="a_edge23&#45;headlabel"><a xlink:href="dir_000035_000017.html" target="_top" xlink:title="16">
<text text-anchor="middle" x="184.6" y="-48.54" font-family="Helvetica,sans-Serif" font-size="10.00">16</text>
</a>
</g>
</g>
<!-- dir_c541d4b187fc5f863b4735b323978e0f&#45;&gt;dir_fd1e11fb0964f7346e999e146b0dfd59 -->
<g id="edge2" class="edge">
<title>dir_c541d4b187fc5f863b4735b323978e0f&#45;&gt;dir_fd1e11fb0964f7346e999e146b0dfd59</title>
<path fill="none" stroke="black" d="M233.49,-71.7C226.18,-63.47 218.13,-53.48 211.45,-44.42"/>
<polygon fill="black" stroke="black" points="214.19,-42.23 205.54,-36.1 208.48,-46.28 214.19,-42.23"/>
<g id="a_edge2&#45;headlabel"><a xlink:href="dir_000013_000017.html" target="_top" xlink:title="6">
<text text-anchor="middle" x="218.59" y="-41.01" font-family="Helvetica,sans-Serif" font-size="10.00">6</text>
</a>
</g>
</g>
<!-- dir_fd1e11fb0964f7346e999e146b0dfd59&#45;&gt;dir_c541d4b187fc5f863b4735b323978e0f -->
<g id="edge1" class="edge">
<title>dir_fd1e11fb0964f7346e999e146b0dfd59&#45;&gt;dir_c541d4b187fc5f863b4735b323978e0f</title>
<path fill="none" stroke="black" d="M217.33,-36.1C224.63,-44.3 232.69,-54.28 239.38,-63.36"/>
<polygon fill="black" stroke="black" points="236.67,-65.58 245.32,-71.7 242.37,-61.52 236.67,-65.58"/>
<g id="a_edge1&#45;headlabel"><a xlink:href="dir_000017_000013.html" target="_top" xlink:title="2">
<text text-anchor="middle" x="232.27" y="-61.8" font-family="Helvetica,sans-Serif" font-size="10.00">2</text>
</a>
</g>
</g>
</g>
</svg>
        <g id="navigator" transform="translate(0 0)" fill="#404254">
                <rect fill="#f2f5e9" fill-opacity="0.5" stroke="#606060" stroke-width=".5" x="0" y="0" width="60" height="60"/>
                <use id="zoomplus" xlink:href="#zoomPlus" x="17" y="9" onmousedown="handleZoom(evt,'in')"/>
                <use id="zoomminus" xlink:href="#zoomMin" x="42" y="9" onmousedown="handleZoom(evt,'out')"/>
                <use id="reset" xlink:href="#resetDef" x="30" y="36" onmousedown="handleReset()"/>
                <g id="arrowUp" xlink:href="#dirArrow" transform="translate(30 24)" onmousedown="handlePan(0,-1)">
                  <use xlink:href="#rim" fill="#404040">
                        <set attributeName="fill" to="#808080" begin="arrowUp.mouseover" end="arrowUp.mouseout"/>
                  </use>
                  <path fill="none" stroke="white" stroke-width="1.5" d="M0,-3.0v7 M-2.5,-0.5L0,-3.0L2.5,-0.5"/>
                </g>
                <g id="arrowRight" xlink:href="#dirArrow" transform="rotate(90) translate(36 -43)" onmousedown="handlePan(1,0)">
                  <use xlink:href="#rim" fill="#404040">
                        <set attributeName="fill" to="#808080" begin="arrowRight.mouseover" end="arrowRight.mouseout"/>
                  </use>
                  <path fill="none" stroke="white" stroke-width="1.5" d="M0,-3.0v7 M-2.5,-0.5L0,-3.0L2.5,-0.5"/>
                </g>
                <g id="arrowDown" xlink:href="#dirArrow" transform="rotate(180) translate(-30 -48)" onmousedown="handlePan(0,1)">
                  <use xlink:href="#rim" fill="#404040">
                        <set attributeName="fill" to="#808080" begin="arrowDown.mouseover" end="arrowDown.mouseout"/>
                  </use>
                  <path fill="none" stroke="white" stroke-width="1.5" d="M0,-3.0v7 M-2.5,-0.5L0,-3.0L2.5,-0.5"/>
                </g>
                <g id="arrowLeft" xlink:href="#dirArrow" transform="rotate(270) translate(-36 17)" onmousedown="handlePan(-1,0)">
                  <use xlink:href="#rim" fill="#404040">
                        <set attributeName="fill" to="#808080" begin="arrowLeft.mouseover" end="arrowLeft.mouseout"/>
                  </use>
                  <path fill="none" stroke="white" stroke-width="1.5" d="M0,-3.0v7 M-2.5,-0.5L0,-3.0L2.5,-0.5"/>
                </g>
        </g>
        <svg viewBox="0 0 15 15" width="100%" height="30px" preserveAspectRatio="xMaxYMin meet">
         <g id="arrow_out" transform="scale(0.3 0.3)">
          <a xlink:href="dir_15c5042fe4b0a3c710a68e7faf2f3890_dep_org.svg" target="_base">
           <rect id="button" ry="5" rx="5" y="6" x="6" height="38" width="38"
                fill="#f2f5e9" fill-opacity="0.5" stroke="#606060" stroke-width="1.0"/>
           <path id="arrow"
             d="M 11.500037,31.436501 C 11.940474,20.09759 22.043105,11.32322 32.158766,21.979434 L 37.068811,17.246167 C 37.068811,17.246167 37.088388,32 37.088388,32 L 22.160133,31.978069 C 22.160133,31.978069 26.997745,27.140456 26.997745,27.140456 C 18.528582,18.264221 13.291696,25.230495 11.500037,31.436501 z"
             style="fill:#404040;"/>
          </a>
         </g>
        </svg>
</svg>
