<?xml version="1.0" encoding="UTF-8" standalone="no"?>
<!DOCTYPE svg PUBLIC "-//W3C//DTD SVG 1.1//EN"
 "http://www.w3.org/Graphics/SVG/1.1/DTD/svg11.dtd">
<!-- Generated by graphviz version 2.43.0 (0)
 -->
<!-- Title: layout Pages: 1 -->
<svg width="526pt" height="591pt"
 viewBox="0.00 0.00 526.00 591.00" xmlns="http://www.w3.org/2000/svg" xmlns:xlink="http://www.w3.org/1999/xlink">
<g id="graph0" class="graph" transform="scale(1 1) rotate(0) translate(4 587)">
<title>layout</title>
<polygon fill="white" stroke="transparent" points="-4,4 -4,-587 522,-587 522,4 -4,4"/>
<g id="clust1" class="cluster">
<title>clusterdir_d29d847ea07fb74c2c88b7147de27d35</title>
<g id="a_clust1"><a xlink:href="dir_d29d847ea07fb74c2c88b7147de27d35.html" target="_top" xlink:title="packages">
<polygon fill="#ddddee" stroke="black" points="122,-272 122,-575 286,-575 286,-272 122,-272"/>
<text text-anchor="middle" x="204" y="-563" font-family="Helvetica,sans-Serif" font-size="10.00">packages</text>
</a>
</g>
</g>
<g id="clust2" class="cluster">
<title>clusterdir_56d603006930d6f32ca38bb932b49787</title>
<g id="a_clust2"><a xlink:href="dir_56d603006930d6f32ca38bb932b49787.html" target="_top">
<polygon fill="#eeeeff" stroke="black" points="130,-280 130,-548 278,-548 278,-280 130,-280"/>
</a>
</g>
</g>
<!-- dir_56d603006930d6f32ca38bb932b49787 -->
<g id="node1" class="node">
<title>dir_56d603006930d6f32ca38bb932b49787</title>
<text text-anchor="middle" x="243" y="-519.5" font-family="Helvetica,sans-Serif" font-size="10.00">layout</text>
</g>
<!-- dir_e8a3015d30ced03ce97057fe372cd335 -->
<g id="node2" class="node">
<title>dir_e8a3015d30ced03ce97057fe372cd335</title>
<g id="a_node2"><a xlink:href="dir_e8a3015d30ced03ce97057fe372cd335.html" target="_top" xlink:title="common">
<polygon fill="white" stroke="black" points="197.5,-540 138.5,-540 138.5,-504 197.5,-504 197.5,-540"/>
<text text-anchor="middle" x="168" y="-519.5" font-family="Helvetica,sans-Serif" font-size="10.00">common</text>
</a>
</g>
</g>
<!-- dir_469dd4fe8a06b7a018d55910fd20ec61 -->
<g id="node3" class="node">
<title>dir_469dd4fe8a06b7a018d55910fd20ec61</title>
<g id="a_node3"><a xlink:href="dir_469dd4fe8a06b7a018d55910fd20ec61.html" target="_top" xlink:title="extension">
<polygon fill="white" stroke="black" points="223.5,-468 158.5,-468 158.5,-432 223.5,-432 223.5,-468"/>
<text text-anchor="middle" x="191" y="-447.5" font-family="Helvetica,sans-Serif" font-size="10.00">extension</text>
</a>
</g>
</g>
<!-- dir_e8a3015d30ced03ce97057fe372cd335&#45;&gt;dir_469dd4fe8a06b7a018d55910fd20ec61 -->
<g id="edge28" class="edge">
<title>dir_e8a3015d30ced03ce97057fe372cd335&#45;&gt;dir_469dd4fe8a06b7a018d55910fd20ec61</title>
<path fill="none" stroke="black" d="M167.77,-503.7C169.55,-495.81 172.45,-486.3 175.71,-477.55"/>
<polygon fill="black" stroke="black" points="179.02,-478.69 179.48,-468.1 172.52,-476.09 179.02,-478.69"/>
<g id="a_edge28&#45;headlabel"><a xlink:href="dir_000047_000046.html" target="_top" xlink:title="3">
<text text-anchor="middle" x="180.32" y="-480.58" font-family="Helvetica,sans-Serif" font-size="10.00">3</text>
</a>
</g>
</g>
<!-- dir_88ac4bf79705bb8559b852278d35d8da -->
<g id="node4" class="node">
<title>dir_88ac4bf79705bb8559b852278d35d8da</title>
<g id="a_node4"><a xlink:href="dir_88ac4bf79705bb8559b852278d35d8da.html" target="_top" xlink:title="sbml">
<polygon fill="white" stroke="black" points="270,-396 216,-396 216,-360 270,-360 270,-396"/>
<text text-anchor="middle" x="243" y="-375.5" font-family="Helvetica,sans-Serif" font-size="10.00">sbml</text>
</a>
</g>
</g>
<!-- dir_e8a3015d30ced03ce97057fe372cd335&#45;&gt;dir_88ac4bf79705bb8559b852278d35d8da -->
<g id="edge29" class="edge">
<title>dir_e8a3015d30ced03ce97057fe372cd335&#45;&gt;dir_88ac4bf79705bb8559b852278d35d8da</title>
<path fill="none" stroke="black" d="M189.95,-503.86C202.05,-494.89 215.98,-482.7 224,-468 234.27,-449.17 236.38,-424.8 237.54,-406.32"/>
<polygon fill="black" stroke="black" points="241.04,-406.4 238.17,-396.2 234.06,-405.97 241.04,-406.4"/>
<g id="a_edge29&#45;headlabel"><a xlink:href="dir_000047_000012.html" target="_top" xlink:title="16">
<text text-anchor="middle" x="243.65" y="-407.67" font-family="Helvetica,sans-Serif" font-size="10.00">16</text>
</a>
</g>
</g>
<!-- dir_469dd4fe8a06b7a018d55910fd20ec61&#45;&gt;dir_e8a3015d30ced03ce97057fe372cd335 -->
<g id="edge20" class="edge">
<title>dir_469dd4fe8a06b7a018d55910fd20ec61&#45;&gt;dir_e8a3015d30ced03ce97057fe372cd335</title>
<path fill="none" stroke="black" d="M191.28,-468.1C189.52,-475.96 186.62,-485.46 183.38,-494.23"/>
<polygon fill="black" stroke="black" points="180.06,-493.11 179.6,-503.7 186.56,-495.71 180.06,-493.11"/>
<g id="a_edge20&#45;headlabel"><a xlink:href="dir_000046_000047.html" target="_top" xlink:title="1">
<text text-anchor="middle" x="178.75" y="-486.22" font-family="Helvetica,sans-Serif" font-size="10.00">1</text>
</a>
</g>
</g>
<!-- dir_469dd4fe8a06b7a018d55910fd20ec61&#45;&gt;dir_88ac4bf79705bb8559b852278d35d8da -->
<g id="edge18" class="edge">
<title>dir_469dd4fe8a06b7a018d55910fd20ec61&#45;&gt;dir_88ac4bf79705bb8559b852278d35d8da</title>
<path fill="none" stroke="black" d="M197.94,-431.7C203.31,-423.3 210.72,-413.07 218.04,-403.86"/>
<polygon fill="black" stroke="black" points="220.77,-406.06 224.4,-396.1 215.35,-401.62 220.77,-406.06"/>
<g id="a_edge18&#45;headlabel"><a xlink:href="dir_000046_000012.html" target="_top" xlink:title="2">
<text text-anchor="middle" x="220.68" y="-408.14" font-family="Helvetica,sans-Serif" font-size="10.00">2</text>
</a>
</g>
</g>
<!-- dir_4843a4f4b536048b06467fd8eed65856 -->
<g id="node5" class="node">
<title>dir_4843a4f4b536048b06467fd8eed65856</title>
<g id="a_node5"><a xlink:href="dir_4843a4f4b536048b06467fd8eed65856.html" target="_top" xlink:title="util">
<polygon fill="white" stroke="black" points="270,-324 216,-324 216,-288 270,-288 270,-324"/>
<text text-anchor="middle" x="243" y="-303.5" font-family="Helvetica,sans-Serif" font-size="10.00">util</text>
</a>
</g>
</g>
<!-- dir_469dd4fe8a06b7a018d55910fd20ec61&#45;&gt;dir_4843a4f4b536048b06467fd8eed65856 -->
<g id="edge16" class="edge">
<title>dir_469dd4fe8a06b7a018d55910fd20ec61&#45;&gt;dir_4843a4f4b536048b06467fd8eed65856</title>
<path fill="none" stroke="black" d="M185.3,-431.68C184.49,-413.3 188.34,-383.69 198,-360 201.97,-350.27 207.91,-340.5 214.29,-332.04"/>
<polygon fill="black" stroke="black" points="217.17,-334.05 220.75,-324.08 211.73,-329.64 217.17,-334.05"/>
<g id="a_edge16&#45;headlabel"><a xlink:href="dir_000046_000044.html" target="_top" xlink:title="2">
<text text-anchor="middle" x="217.11" y="-336.13" font-family="Helvetica,sans-Serif" font-size="10.00">2</text>
</a>
</g>
</g>
<!-- dir_f86e7e40b6052a0bfb03f7d9a1d54b90 -->
<g id="node6" class="node">
<title>dir_f86e7e40b6052a0bfb03f7d9a1d54b90</title>
<g id="a_node6"><a xlink:href="dir_f86e7e40b6052a0bfb03f7d9a1d54b90.html" target="_top" xlink:title="validator">
<polygon fill="white" stroke="black" points="198,-324 138,-324 138,-288 198,-288 198,-324"/>
<text text-anchor="middle" x="168" y="-303.5" font-family="Helvetica,sans-Serif" font-size="10.00">validator</text>
</a>
</g>
</g>
<!-- dir_469dd4fe8a06b7a018d55910fd20ec61&#45;&gt;dir_f86e7e40b6052a0bfb03f7d9a1d54b90 -->
<g id="edge21" class="edge">
<title>dir_469dd4fe8a06b7a018d55910fd20ec61&#45;&gt;dir_f86e7e40b6052a0bfb03f7d9a1d54b90</title>
<path fill="none" stroke="black" d="M188.23,-431.87C184.31,-407.67 177.1,-363.21 172.44,-334.39"/>
<polygon fill="black" stroke="black" points="175.84,-333.5 170.78,-324.19 168.93,-334.62 175.84,-333.5"/>
<g id="a_edge21&#45;headlabel"><a xlink:href="dir_000046_000045.html" target="_top" xlink:title="5">
<text text-anchor="middle" x="179.22" y="-334.1" font-family="Helvetica,sans-Serif" font-size="10.00">5</text>
</a>
</g>
</g>
<!-- dir_3f96c34ad80e9031c68706862fabf1a4 -->
<g id="node7" class="node">
<title>dir_3f96c34ad80e9031c68706862fabf1a4</title>
<g id="a_node7"><a xlink:href="dir_3f96c34ad80e9031c68706862fabf1a4.html" target="_top" xlink:title="extension">
<polygon fill="none" stroke="black" points="485.5,-252 420.5,-252 420.5,-216 485.5,-216 485.5,-252"/>
<text text-anchor="middle" x="453" y="-231.5" font-family="Helvetica,sans-Serif" font-size="10.00">extension</text>
</a>
</g>
</g>
<!-- dir_469dd4fe8a06b7a018d55910fd20ec61&#45;&gt;dir_3f96c34ad80e9031c68706862fabf1a4 -->
<g id="edge15" class="edge">
<title>dir_469dd4fe8a06b7a018d55910fd20ec61&#45;&gt;dir_3f96c34ad80e9031c68706862fabf1a4</title>
<path fill="none" stroke="black" d="M223.78,-444.95C277.29,-437.69 380.05,-420.87 406,-396 425.25,-377.55 441.01,-303.1 448.42,-262.22"/>
<polygon fill="black" stroke="black" points="451.91,-262.58 450.21,-252.13 445.02,-261.37 451.91,-262.58"/>
<g id="a_edge15&#45;headlabel"><a xlink:href="dir_000046_000007.html" target="_top" xlink:title="10">
<text text-anchor="middle" x="454.08" y="-264.12" font-family="Helvetica,sans-Serif" font-size="10.00">10</text>
</a>
</g>
</g>
<!-- dir_5cbb9a0bf548abf0d2e32772c73d2ad6 -->
<g id="node8" class="node">
<title>dir_5cbb9a0bf548abf0d2e32772c73d2ad6</title>
<g id="a_node8"><a xlink:href="dir_5cbb9a0bf548abf0d2e32772c73d2ad6.html" target="_top" xlink:title="xml">
<polygon fill="none" stroke="black" points="360,-180 306,-180 306,-144 360,-144 360,-180"/>
<text text-anchor="middle" x="333" y="-159.5" font-family="Helvetica,sans-Serif" font-size="10.00">xml</text>
</a>
</g>
</g>
<!-- dir_469dd4fe8a06b7a018d55910fd20ec61&#45;&gt;dir_5cbb9a0bf548abf0d2e32772c73d2ad6 -->
<g id="edge17" class="edge">
<title>dir_469dd4fe8a06b7a018d55910fd20ec61&#45;&gt;dir_5cbb9a0bf548abf0d2e32772c73d2ad6</title>
<path fill="none" stroke="black" d="M223.87,-432.97C241.3,-423.57 262.46,-410.68 279,-396 309.32,-369.09 318.23,-360.91 335,-324 355.03,-279.94 356.07,-263.88 349,-216 347.72,-207.35 345.33,-198.15 342.78,-189.89"/>
<polygon fill="black" stroke="black" points="346.1,-188.78 339.65,-180.37 339.45,-190.96 346.1,-188.78"/>
<g id="a_edge17&#45;headlabel"><a xlink:href="dir_000046_000035.html" target="_top" xlink:title="4">
<text text-anchor="middle" x="349.92" y="-188.81" font-family="Helvetica,sans-Serif" font-size="10.00">4</text>
</a>
</g>
</g>
<!-- dir_c541d4b187fc5f863b4735b323978e0f -->
<g id="node9" class="node">
<title>dir_c541d4b187fc5f863b4735b323978e0f</title>
<g id="a_node9"><a xlink:href="dir_c541d4b187fc5f863b4735b323978e0f.html" target="_top" xlink:title="util">
<polygon fill="none" stroke="black" points="245,-108 191,-108 191,-72 245,-72 245,-108"/>
<text text-anchor="middle" x="218" y="-87.5" font-family="Helvetica,sans-Serif" font-size="10.00">util</text>
</a>
</g>
</g>
<!-- dir_469dd4fe8a06b7a018d55910fd20ec61&#45;&gt;dir_c541d4b187fc5f863b4735b323978e0f -->
<g id="edge19" class="edge">
<title>dir_469dd4fe8a06b7a018d55910fd20ec61&#45;&gt;dir_c541d4b187fc5f863b4735b323978e0f</title>
<path fill="none" stroke="black" d="M179.21,-431.77C164.09,-408.53 138.67,-365.27 129,-324 118.04,-277.22 117.96,-261.29 134,-216 147.59,-177.64 175.7,-139.72 195.66,-115.88"/>
<polygon fill="black" stroke="black" points="198.51,-117.94 202.34,-108.06 193.18,-113.39 198.51,-117.94"/>
<g id="a_edge19&#45;headlabel"><a xlink:href="dir_000046_000013.html" target="_top" xlink:title="4">
<text text-anchor="middle" x="198.33" y="-120.01" font-family="Helvetica,sans-Serif" font-size="10.00">4</text>
</a>
</g>
</g>
<!-- dir_fd1e11fb0964f7346e999e146b0dfd59 -->
<g id="node10" class="node">
<title>dir_fd1e11fb0964f7346e999e146b0dfd59</title>
<g id="a_node10"><a xlink:href="dir_fd1e11fb0964f7346e999e146b0dfd59.html" target="_top" xlink:title="common">
<polygon fill="none" stroke="black" points="187.5,-36 128.5,-36 128.5,0 187.5,0 187.5,-36"/>
<text text-anchor="middle" x="158" y="-15.5" font-family="Helvetica,sans-Serif" font-size="10.00">common</text>
</a>
</g>
</g>
<!-- dir_469dd4fe8a06b7a018d55910fd20ec61&#45;&gt;dir_fd1e11fb0964f7346e999e146b0dfd59 -->
<g id="edge22" class="edge">
<title>dir_469dd4fe8a06b7a018d55910fd20ec61&#45;&gt;dir_fd1e11fb0964f7346e999e146b0dfd59</title>
<path fill="none" stroke="black" d="M158.17,-440.83C103.56,-425.06 0,-384.89 0,-307 0,-307 0,-307 0,-161 0,-115.41 17.8,-103.25 51,-72 70.33,-53.81 97.09,-40.55 119.02,-31.85"/>
<polygon fill="black" stroke="black" points="120.29,-35.11 128.39,-28.28 117.8,-28.57 120.29,-35.11"/>
<g id="a_edge22&#45;headlabel"><a xlink:href="dir_000046_000017.html" target="_top" xlink:title="4">
<text text-anchor="middle" x="117.94" y="-36.54" font-family="Helvetica,sans-Serif" font-size="10.00">4</text>
</a>
</g>
</g>
<!-- dir_88ac4bf79705bb8559b852278d35d8da&#45;&gt;dir_e8a3015d30ced03ce97057fe372cd335 -->
<g id="edge9" class="edge">
<title>dir_88ac4bf79705bb8559b852278d35d8da&#45;&gt;dir_e8a3015d30ced03ce97057fe372cd335</title>
<path fill="none" stroke="black" d="M251.35,-396.2C254.89,-415.02 254.28,-445.48 242,-468 234.05,-482.58 220.29,-494.68 206.67,-503.63"/>
<polygon fill="black" stroke="black" points="204.52,-500.84 197.81,-509.04 208.17,-506.81 204.52,-500.84"/>
<g id="a_edge9&#45;headlabel"><a xlink:href="dir_000012_000047.html" target="_top" xlink:title="16">
<text text-anchor="middle" x="206.1" y="-494.04" font-family="Helvetica,sans-Serif" font-size="10.00">16</text>
</a>
</g>
</g>
<!-- dir_88ac4bf79705bb8559b852278d35d8da&#45;&gt;dir_469dd4fe8a06b7a018d55910fd20ec61 -->
<g id="edge5" class="edge">
<title>dir_88ac4bf79705bb8559b852278d35d8da&#45;&gt;dir_469dd4fe8a06b7a018d55910fd20ec61</title>
<path fill="none" stroke="black" d="M236.19,-396.1C230.85,-404.47 223.46,-414.69 216.13,-423.92"/>
<polygon fill="black" stroke="black" points="213.39,-421.74 209.77,-431.7 218.81,-426.17 213.39,-421.74"/>
<g id="a_edge5&#45;headlabel"><a xlink:href="dir_000012_000046.html" target="_top" xlink:title="28">
<text text-anchor="middle" x="213.47" y="-414.66" font-family="Helvetica,sans-Serif" font-size="10.00">28</text>
</a>
</g>
</g>
<!-- dir_88ac4bf79705bb8559b852278d35d8da&#45;&gt;dir_4843a4f4b536048b06467fd8eed65856 -->
<g id="edge6" class="edge">
<title>dir_88ac4bf79705bb8559b852278d35d8da&#45;&gt;dir_4843a4f4b536048b06467fd8eed65856</title>
<path fill="none" stroke="black" d="M237.08,-359.7C236.29,-351.98 236.06,-342.71 236.4,-334.11"/>
<polygon fill="black" stroke="black" points="239.9,-334.32 237.1,-324.1 232.92,-333.84 239.9,-334.32"/>
<g id="a_edge6&#45;headlabel"><a xlink:href="dir_000012_000044.html" target="_top" xlink:title="15">
<text text-anchor="middle" x="242.48" y="-335.61" font-family="Helvetica,sans-Serif" font-size="10.00">15</text>
</a>
</g>
</g>
<!-- dir_88ac4bf79705bb8559b852278d35d8da&#45;&gt;dir_f86e7e40b6052a0bfb03f7d9a1d54b90 -->
<g id="edge10" class="edge">
<title>dir_88ac4bf79705bb8559b852278d35d8da&#45;&gt;dir_f86e7e40b6052a0bfb03f7d9a1d54b90</title>
<path fill="none" stroke="black" d="M224.46,-359.7C215.2,-351.05 203.84,-340.45 193.74,-331.03"/>
<polygon fill="black" stroke="black" points="196.02,-328.37 186.33,-324.1 191.25,-333.49 196.02,-328.37"/>
<g id="a_edge10&#45;headlabel"><a xlink:href="dir_000012_000045.html" target="_top" xlink:title="15">
<text text-anchor="middle" x="200.59" y="-326.25" font-family="Helvetica,sans-Serif" font-size="10.00">15</text>
</a>
</g>
</g>
<!-- dir_88ac4bf79705bb8559b852278d35d8da&#45;&gt;dir_5cbb9a0bf548abf0d2e32772c73d2ad6 -->
<g id="edge7" class="edge">
<title>dir_88ac4bf79705bb8559b852278d35d8da&#45;&gt;dir_5cbb9a0bf548abf0d2e32772c73d2ad6</title>
<path fill="none" stroke="black" d="M270.26,-363.06C285.1,-354 302.35,-340.75 312,-324 336.13,-282.13 337.36,-224.13 335.54,-190.39"/>
<polygon fill="black" stroke="black" points="339.02,-190.08 334.86,-180.33 332.04,-190.54 339.02,-190.08"/>
<g id="a_edge7&#45;headlabel"><a xlink:href="dir_000012_000035.html" target="_top" xlink:title="76">
<text text-anchor="middle" x="342.1" y="-190.97" font-family="Helvetica,sans-Serif" font-size="10.00">76</text>
</a>
</g>
</g>
<!-- dir_88ac4bf79705bb8559b852278d35d8da&#45;&gt;dir_c541d4b187fc5f863b4735b323978e0f -->
<g id="edge8" class="edge">
<title>dir_88ac4bf79705bb8559b852278d35d8da&#45;&gt;dir_c541d4b187fc5f863b4735b323978e0f</title>
<path fill="none" stroke="black" d="M258.61,-359.77C266.37,-350.03 274.95,-337.18 279,-324 285.79,-301.91 282.41,-294.86 279,-272 270.55,-215.28 245.68,-152.6 230.43,-117.89"/>
<polygon fill="black" stroke="black" points="233.5,-116.17 226.22,-108.46 227.1,-119.02 233.5,-116.17"/>
<g id="a_edge8&#45;headlabel"><a xlink:href="dir_000012_000013.html" target="_top" xlink:title="10">
<text text-anchor="middle" x="237.55" y="-115.79" font-family="Helvetica,sans-Serif" font-size="10.00">10</text>
</a>
</g>
</g>
<!-- dir_88ac4bf79705bb8559b852278d35d8da&#45;&gt;dir_fd1e11fb0964f7346e999e146b0dfd59 -->
<g id="edge11" class="edge">
<title>dir_88ac4bf79705bb8559b852278d35d8da&#45;&gt;dir_fd1e11fb0964f7346e999e146b0dfd59</title>
<path fill="none" stroke="black" d="M215.78,-371.54C160.01,-358.6 38,-320.51 38,-235 38,-235 38,-235 38,-161 38,-109.23 85.11,-66.58 120.3,-41.96"/>
<polygon fill="black" stroke="black" points="122.64,-44.6 128.95,-36.09 118.71,-38.8 122.64,-44.6"/>
<g id="a_edge11&#45;headlabel"><a xlink:href="dir_000012_000017.html" target="_top" xlink:title="31">
<text text-anchor="middle" x="121.26" y="-46.46" font-family="Helvetica,sans-Serif" font-size="10.00">31</text>
</a>
</g>
</g>
<!-- dir_4843a4f4b536048b06467fd8eed65856&#45;&gt;dir_469dd4fe8a06b7a018d55910fd20ec61 -->
<g id="edge31" class="edge">
<title>dir_4843a4f4b536048b06467fd8eed65856&#45;&gt;dir_469dd4fe8a06b7a018d55910fd20ec61</title>
<path fill="none" stroke="black" d="M236.6,-324.08C230.1,-333.98 221.29,-347.02 216,-360 207.92,-379.81 203.91,-403.74 200.57,-421.8"/>
<polygon fill="black" stroke="black" points="197.12,-421.19 198.65,-431.68 203.99,-422.53 197.12,-421.19"/>
<g id="a_edge31&#45;headlabel"><a xlink:href="dir_000044_000046.html" target="_top" xlink:title="2">
<text text-anchor="middle" x="195.02" y="-414.63" font-family="Helvetica,sans-Serif" font-size="10.00">2</text>
</a>
</g>
</g>
<!-- dir_4843a4f4b536048b06467fd8eed65856&#45;&gt;dir_88ac4bf79705bb8559b852278d35d8da -->
<g id="edge33" class="edge">
<title>dir_4843a4f4b536048b06467fd8eed65856&#45;&gt;dir_88ac4bf79705bb8559b852278d35d8da</title>
<path fill="none" stroke="black" d="M248.9,-324.1C249.7,-331.79 249.94,-341.05 249.6,-349.67"/>
<polygon fill="black" stroke="black" points="246.11,-349.48 248.92,-359.7 253.09,-349.96 246.11,-349.48"/>
<g id="a_edge33&#45;headlabel"><a xlink:href="dir_000044_000012.html" target="_top" xlink:title="3">
<text text-anchor="middle" x="243.52" y="-343.2" font-family="Helvetica,sans-Serif" font-size="10.00">3</text>
</a>
</g>
</g>
<!-- dir_4843a4f4b536048b06467fd8eed65856&#45;&gt;dir_5cbb9a0bf548abf0d2e32772c73d2ad6 -->
<g id="edge32" class="edge">
<title>dir_4843a4f4b536048b06467fd8eed65856&#45;&gt;dir_5cbb9a0bf548abf0d2e32772c73d2ad6</title>
<path fill="none" stroke="black" d="M253.86,-287.87C269.47,-263.24 298.37,-217.64 316.59,-188.88"/>
<polygon fill="black" stroke="black" points="319.71,-190.51 322.11,-180.19 313.8,-186.76 319.71,-190.51"/>
<g id="a_edge32&#45;headlabel"><a xlink:href="dir_000044_000035.html" target="_top" xlink:title="6">
<text text-anchor="middle" x="320.18" y="-192.57" font-family="Helvetica,sans-Serif" font-size="10.00">6</text>
</a>
</g>
</g>
<!-- dir_4843a4f4b536048b06467fd8eed65856&#45;&gt;dir_c541d4b187fc5f863b4735b323978e0f -->
<g id="edge35" class="edge">
<title>dir_4843a4f4b536048b06467fd8eed65856&#45;&gt;dir_c541d4b187fc5f863b4735b323978e0f</title>
<path fill="none" stroke="black" d="M241,-287.85C236.67,-250.83 226.43,-163.18 221.2,-118.39"/>
<polygon fill="black" stroke="black" points="224.65,-117.76 220.01,-108.23 217.7,-118.57 224.65,-117.76"/>
<g id="a_edge35&#45;headlabel"><a xlink:href="dir_000044_000013.html" target="_top" xlink:title="2">
<text text-anchor="middle" x="227.89" y="-118.5" font-family="Helvetica,sans-Serif" font-size="10.00">2</text>
</a>
</g>
</g>
<!-- dir_4843a4f4b536048b06467fd8eed65856&#45;&gt;dir_fd1e11fb0964f7346e999e146b0dfd59 -->
<g id="edge36" class="edge">
<title>dir_4843a4f4b536048b06467fd8eed65856&#45;&gt;dir_fd1e11fb0964f7346e999e146b0dfd59</title>
<path fill="none" stroke="black" d="M227.46,-287.74C221.54,-282.03 214.42,-276.1 207,-272 177.55,-255.73 154.4,-278.75 134,-252 87.14,-190.57 123.05,-91.99 144.69,-45.24"/>
<polygon fill="black" stroke="black" points="147.91,-46.61 149.05,-36.08 141.59,-43.6 147.91,-46.61"/>
<g id="a_edge36&#45;headlabel"><a xlink:href="dir_000044_000017.html" target="_top" xlink:title="4">
<text text-anchor="middle" x="148.93" y="-48.58" font-family="Helvetica,sans-Serif" font-size="10.00">4</text>
</a>
</g>
</g>
<!-- dir_909df41e089bc57b29bc62cc6d76d6dc -->
<g id="node11" class="node">
<title>dir_909df41e089bc57b29bc62cc6d76d6dc</title>
<g id="a_node11"><a xlink:href="dir_909df41e089bc57b29bc62cc6d76d6dc.html" target="_top" xlink:title="annotation">
<polygon fill="none" stroke="black" points="211.5,-252 142.5,-252 142.5,-216 211.5,-216 211.5,-252"/>
<text text-anchor="middle" x="177" y="-231.5" font-family="Helvetica,sans-Serif" font-size="10.00">annotation</text>
</a>
</g>
</g>
<!-- dir_4843a4f4b536048b06467fd8eed65856&#45;&gt;dir_909df41e089bc57b29bc62cc6d76d6dc -->
<g id="edge34" class="edge">
<title>dir_4843a4f4b536048b06467fd8eed65856&#45;&gt;dir_909df41e089bc57b29bc62cc6d76d6dc</title>
<path fill="none" stroke="black" d="M226.69,-287.7C218.69,-279.22 208.93,-268.86 200.18,-259.58"/>
<polygon fill="black" stroke="black" points="202.53,-256.98 193.13,-252.1 197.44,-261.78 202.53,-256.98"/>
<g id="a_edge34&#45;headlabel"><a xlink:href="dir_000044_000027.html" target="_top" xlink:title="1">
<text text-anchor="middle" x="207.07" y="-255.15" font-family="Helvetica,sans-Serif" font-size="10.00">1</text>
</a>
</g>
</g>
<!-- dir_f86e7e40b6052a0bfb03f7d9a1d54b90&#45;&gt;dir_e8a3015d30ced03ce97057fe372cd335 -->
<g id="edge2" class="edge">
<title>dir_f86e7e40b6052a0bfb03f7d9a1d54b90&#45;&gt;dir_e8a3015d30ced03ce97057fe372cd335</title>
<path fill="none" stroke="black" d="M163.04,-324C155.13,-353.46 141.38,-415.83 150,-468 151.44,-476.72 154.13,-485.94 157,-494.2"/>
<polygon fill="black" stroke="black" points="153.77,-495.54 160.52,-503.7 160.33,-493.11 153.77,-495.54"/>
<g id="a_edge2&#45;headlabel"><a xlink:href="dir_000045_000047.html" target="_top" xlink:title="1">
<text text-anchor="middle" x="149.86" y="-490.66" font-family="Helvetica,sans-Serif" font-size="10.00">1</text>
</a>
</g>
</g>
<!-- dir_a0a785b8d726fb513b94381e63693443 -->
<g id="node12" class="node">
<title>dir_a0a785b8d726fb513b94381e63693443</title>
<g id="a_node12"><a xlink:href="dir_a0a785b8d726fb513b94381e63693443.html" target="_top" xlink:title="validator">
<polygon fill="none" stroke="black" points="518,-324 458,-324 458,-288 518,-288 518,-324"/>
<text text-anchor="middle" x="488" y="-303.5" font-family="Helvetica,sans-Serif" font-size="10.00">validator</text>
</a>
</g>
</g>
<!-- dir_f86e7e40b6052a0bfb03f7d9a1d54b90&#45;&gt;dir_a0a785b8d726fb513b94381e63693443 -->
<g id="edge1" class="edge">
<title>dir_f86e7e40b6052a0bfb03f7d9a1d54b90&#45;&gt;dir_a0a785b8d726fb513b94381e63693443</title>
<path fill="none" stroke="black" d="M186.42,-324.24C194.74,-331.22 205.13,-338.38 216,-342 292.32,-367.44 317.98,-357.06 397,-342 414.41,-338.68 432.75,-332.09 448.36,-325.44"/>
<polygon fill="black" stroke="black" points="449.96,-328.56 457.7,-321.32 447.14,-322.15 449.96,-328.56"/>
<g id="a_edge1&#45;headlabel"><a xlink:href="dir_000045_000025.html" target="_top" xlink:title="2">
<text text-anchor="middle" x="447.82" y="-330.11" font-family="Helvetica,sans-Serif" font-size="10.00">2</text>
</a>
</g>
</g>
<!-- dir_3f96c34ad80e9031c68706862fabf1a4&#45;&gt;dir_5cbb9a0bf548abf0d2e32772c73d2ad6 -->
<g id="edge25" class="edge">
<title>dir_3f96c34ad80e9031c68706862fabf1a4&#45;&gt;dir_5cbb9a0bf548abf0d2e32772c73d2ad6</title>
<path fill="none" stroke="black" d="M423.64,-215.88C407.1,-206.23 386.31,-194.1 368.81,-183.89"/>
<polygon fill="black" stroke="black" points="370.4,-180.77 360,-178.75 366.87,-186.81 370.4,-180.77"/>
<g id="a_edge25&#45;headlabel"><a xlink:href="dir_000007_000035.html" target="_top" xlink:title="2">
<text text-anchor="middle" x="374.94" y="-177.62" font-family="Helvetica,sans-Serif" font-size="10.00">2</text>
</a>
</g>
</g>
<!-- dir_3f96c34ad80e9031c68706862fabf1a4&#45;&gt;dir_c541d4b187fc5f863b4735b323978e0f -->
<g id="edge26" class="edge">
<title>dir_3f96c34ad80e9031c68706862fabf1a4&#45;&gt;dir_c541d4b187fc5f863b4735b323978e0f</title>
<path fill="none" stroke="black" d="M440.92,-215.93C426.08,-196.08 399.11,-163.56 369,-144 333.57,-120.99 286.96,-106.62 254.95,-98.74"/>
<polygon fill="black" stroke="black" points="255.64,-95.31 245.1,-96.41 254.03,-102.12 255.64,-95.31"/>
<g id="a_edge26&#45;headlabel"><a xlink:href="dir_000007_000013.html" target="_top" xlink:title="4">
<text text-anchor="middle" x="259.79" y="-90.87" font-family="Helvetica,sans-Serif" font-size="10.00">4</text>
</a>
</g>
</g>
<!-- dir_3f96c34ad80e9031c68706862fabf1a4&#45;&gt;dir_fd1e11fb0964f7346e999e146b0dfd59 -->
<g id="edge27" class="edge">
<title>dir_3f96c34ad80e9031c68706862fabf1a4&#45;&gt;dir_fd1e11fb0964f7346e999e146b0dfd59</title>
<path fill="none" stroke="black" d="M446.52,-215.93C438.56,-196.69 423.55,-165.3 403,-144 344.6,-83.46 250.57,-47.05 197.6,-30.23"/>
<polygon fill="black" stroke="black" points="198.47,-26.84 187.89,-27.22 196.4,-33.52 198.47,-26.84"/>
<g id="a_edge27&#45;headlabel"><a xlink:href="dir_000007_000017.html" target="_top" xlink:title="9">
<text text-anchor="middle" x="202.75" y="-22.69" font-family="Helvetica,sans-Serif" font-size="10.00">9</text>
</a>
</g>
</g>
<!-- dir_5cbb9a0bf548abf0d2e32772c73d2ad6&#45;&gt;dir_c541d4b187fc5f863b4735b323978e0f -->
<g id="edge23" class="edge">
<title>dir_5cbb9a0bf548abf0d2e32772c73d2ad6&#45;&gt;dir_c541d4b187fc5f863b4735b323978e0f</title>
<path fill="none" stroke="black" d="M305.75,-144.41C290.28,-135 270.73,-123.1 254.01,-112.92"/>
<polygon fill="black" stroke="black" points="255.42,-109.68 245.06,-107.47 251.78,-115.66 255.42,-109.68"/>
<g id="a_edge23&#45;headlabel"><a xlink:href="dir_000035_000013.html" target="_top" xlink:title="5">
<text text-anchor="middle" x="259.97" y="-106.62" font-family="Helvetica,sans-Serif" font-size="10.00">5</text>
</a>
</g>
</g>
<!-- dir_5cbb9a0bf548abf0d2e32772c73d2ad6&#45;&gt;dir_fd1e11fb0964f7346e999e146b0dfd59 -->
<g id="edge24" class="edge">
<title>dir_5cbb9a0bf548abf0d2e32772c73d2ad6&#45;&gt;dir_fd1e11fb0964f7346e999e146b0dfd59</title>
<path fill="none" stroke="black" d="M320.5,-143.68C306.05,-124.48 280.78,-93.42 254,-72 236.66,-58.13 215.18,-45.89 196.95,-36.68"/>
<polygon fill="black" stroke="black" points="198.26,-33.43 187.74,-32.15 195.17,-39.71 198.26,-33.43"/>
<g id="a_edge24&#45;headlabel"><a xlink:href="dir_000035_000017.html" target="_top" xlink:title="16">
<text text-anchor="middle" x="202.74" y="-29.97" font-family="Helvetica,sans-Serif" font-size="10.00">16</text>
</a>
</g>
</g>
<!-- dir_c541d4b187fc5f863b4735b323978e0f&#45;&gt;dir_fd1e11fb0964f7346e999e146b0dfd59 -->
<g id="edge4" class="edge">
<title>dir_c541d4b187fc5f863b4735b323978e0f&#45;&gt;dir_fd1e11fb0964f7346e999e146b0dfd59</title>
<path fill="none" stroke="black" d="M197.25,-71.7C189.28,-63.39 180.41,-53.28 173.04,-44.14"/>
<polygon fill="black" stroke="black" points="175.68,-41.83 166.77,-36.1 170.16,-46.14 175.68,-41.83"/>
<g id="a_edge4&#45;headlabel"><a xlink:href="dir_000013_000017.html" target="_top" xlink:title="6">
<text text-anchor="middle" x="180.13" y="-40.42" font-family="Helvetica,sans-Serif" font-size="10.00">6</text>
</a>
</g>
</g>
<!-- dir_fd1e11fb0964f7346e999e146b0dfd59&#45;&gt;dir_c541d4b187fc5f863b4735b323978e0f -->
<g id="edge3" class="edge">
<title>dir_fd1e11fb0964f7346e999e146b0dfd59&#45;&gt;dir_c541d4b187fc5f863b4735b323978e0f</title>
<path fill="none" stroke="black" d="M178.56,-36.1C186.52,-44.38 195.39,-54.49 202.78,-63.64"/>
<polygon fill="black" stroke="black" points="200.17,-65.98 209.08,-71.7 205.68,-61.66 200.17,-65.98"/>
<g id="a_edge3&#45;headlabel"><a xlink:href="dir_000017_000013.html" target="_top" xlink:title="2">
<text text-anchor="middle" x="195.71" y="-62.4" font-family="Helvetica,sans-Serif" font-size="10.00">2</text>
</a>
</g>
</g>
<!-- dir_909df41e089bc57b29bc62cc6d76d6dc&#45;&gt;dir_5cbb9a0bf548abf0d2e32772c73d2ad6 -->
<g id="edge12" class="edge">
<title>dir_909df41e089bc57b29bc62cc6d76d6dc&#45;&gt;dir_5cbb9a0bf548abf0d2e32772c73d2ad6</title>
<path fill="none" stroke="black" d="M211.62,-217.46C236.77,-206.18 270.75,-190.93 296.36,-179.44"/>
<polygon fill="black" stroke="black" points="298.04,-182.53 305.73,-175.24 295.17,-176.14 298.04,-182.53"/>
<g id="a_edge12&#45;headlabel"><a xlink:href="dir_000027_000035.html" target="_top" xlink:title="12">
<text text-anchor="middle" x="295.92" y="-184.09" font-family="Helvetica,sans-Serif" font-size="10.00">12</text>
</a>
</g>
</g>
<!-- dir_909df41e089bc57b29bc62cc6d76d6dc&#45;&gt;dir_c541d4b187fc5f863b4735b323978e0f -->
<g id="edge13" class="edge">
<title>dir_909df41e089bc57b29bc62cc6d76d6dc&#45;&gt;dir_c541d4b187fc5f863b4735b323978e0f</title>
<path fill="none" stroke="black" d="M181.95,-215.87C188.96,-191.56 201.88,-146.82 210.2,-118.01"/>
<polygon fill="black" stroke="black" points="213.63,-118.77 213.04,-108.19 206.9,-116.83 213.63,-118.77"/>
<g id="a_edge13&#45;headlabel"><a xlink:href="dir_000027_000013.html" target="_top" xlink:title="7">
<text text-anchor="middle" x="215.36" y="-120.51" font-family="Helvetica,sans-Serif" font-size="10.00">7</text>
</a>
</g>
</g>
<!-- dir_909df41e089bc57b29bc62cc6d76d6dc&#45;&gt;dir_fd1e11fb0964f7346e999e146b0dfd59 -->
<g id="edge14" class="edge">
<title>dir_909df41e089bc57b29bc62cc6d76d6dc&#45;&gt;dir_fd1e11fb0964f7346e999e146b0dfd59</title>
<path fill="none" stroke="black" d="M175.48,-215.85C172.19,-178.83 164.41,-91.18 160.43,-46.39"/>
<polygon fill="black" stroke="black" points="163.9,-45.88 159.53,-36.23 156.93,-46.5 163.9,-45.88"/>
<g id="a_edge14&#45;headlabel"><a xlink:href="dir_000027_000017.html" target="_top" xlink:title="18">
<text text-anchor="middle" x="167.05" y="-46.71" font-family="Helvetica,sans-Serif" font-size="10.00">18</text>
</a>
</g>
</g>
<!-- dir_a0a785b8d726fb513b94381e63693443&#45;&gt;dir_3f96c34ad80e9031c68706862fabf1a4 -->
<g id="edge30" class="edge">
<title>dir_a0a785b8d726fb513b94381e63693443&#45;&gt;dir_3f96c34ad80e9031c68706862fabf1a4</title>
<path fill="none" stroke="black" d="M479.35,-287.7C475.36,-279.73 470.55,-270.1 466.13,-261.26"/>
<polygon fill="black" stroke="black" points="469.15,-259.48 461.55,-252.1 462.89,-262.61 469.15,-259.48"/>
<g id="a_edge30&#45;headlabel"><a xlink:href="dir_000025_000007.html" target="_top" xlink:title="1">
<text text-anchor="middle" x="473.3" y="-258.93" font-family="Helvetica,sans-Serif" font-size="10.00">1</text>
</a>
</g>
</g>
</g>
</svg>
