<?xml version="1.0" encoding="UTF-8" standalone="no"?>
<!DOCTYPE svg PUBLIC "-//W3C//DTD SVG 1.1//EN"
 "http://www.w3.org/Graphics/SVG/1.1/DTD/svg11.dtd">
<!-- Generated by graphviz version 2.43.0 (0)
 -->
<!-- Title: extension Pages: 1 -->
<!--zoomable 511 -->
<svg id="main" version="1.1" xmlns="http://www.w3.org/2000/svg" xmlns:xlink="http://www.w3.org/1999/xlink" xml:space="preserve" onload="init(evt)">
<style type="text/css"><![CDATA[
.edge:hover path { stroke: red; }
.edge:hover polygon { stroke: red; fill: red; }
]]></style>
<script type="text/javascript"><![CDATA[
var edges = document.getElementsByTagName('g');
if (edges && edges.length) {
  for (var i=0;i<edges.length;i++) {
    if (edges[i].id.substr(0,4)=='edge') {
      edges[i].setAttribute('class','edge');
    }
  }
}
]]></script>
        <defs>
                <circle id="rim" cx="0" cy="0" r="7"/>
                <circle id="rim2" cx="0" cy="0" r="3.5"/>
                <g id="zoomPlus">
                        <use xlink:href="#rim" fill="#404040">
                                <set attributeName="fill" to="#808080" begin="zoomplus.mouseover" end="zoomplus.mouseout"/>
                        </use>
                        <path d="M-4,0h8M0,-4v8" fill="none" stroke="white" stroke-width="1.5" pointer-events="none"/>
                </g>
                <g id="zoomMin">
                        <use xlink:href="#rim" fill="#404040">
                                <set attributeName="fill" to="#808080" begin="zoomminus.mouseover" end="zoomminus.mouseout"/>
                        </use>
                        <path d="M-4,0h8" fill="none" stroke="white" stroke-width="1.5" pointer-events="none"/>
                </g>
                <g id="dirArrow">
                        <path fill="none" stroke="white" stroke-width="1.5" d="M0,-3.0v7 M-2.5,-0.5L0,-3.0L2.5,-0.5"/>
                </g>
               <g id="resetDef">
                       <use xlink:href="#rim2" fill="#404040">
                               <set attributeName="fill" to="#808080" begin="reset.mouseover" end="reset.mouseout"/>
                       </use>
               </g>
        </defs>

<script type="text/javascript">
var viewWidth = 244;
var viewHeight = 511;
var sectionId = 'dynsection-0';
</script>
<script xlink:href="svgpan.js"/>
<svg id="graph" class="graph">
<g id="viewport">
<title>extension</title>
<polygon fill="white" stroke="transparent" points="-4,4 -4,-507 240,-507 240,4 -4,4"/>
<g id="clust1" class="cluster">
<title>clusterdir_483546704081fb5397ff7c9e88ae9794</title>
<g id="a_clust1"><a xlink:href="dir_483546704081fb5397ff7c9e88ae9794.html" target="_top" xlink:title="spatial">
<polygon fill="#ddddee" stroke="black" points="43,-208 43,-495 159,-495 159,-208 43,-208"/>
<text text-anchor="middle" x="101" y="-483" font-family="Helvetica,sans-Serif" font-size="10.00">spatial</text>
</a>
</g>
</g>
<!-- dir_3bfc5c2bb8435cbdcb242e4cabcc5b38 -->
<g id="node1" class="node">
<title>dir_3bfc5c2bb8435cbdcb242e4cabcc5b38</title>
<g id="a_node1"><a xlink:href="dir_3bfc5c2bb8435cbdcb242e4cabcc5b38.html" target="_top" xlink:title="sbml">
<polygon fill="none" stroke="black" points="128,-468 74,-468 74,-432 128,-432 128,-468"/>
<text text-anchor="middle" x="101" y="-447.5" font-family="Helvetica,sans-Serif" font-size="10.00">sbml</text>
</a>
</g>
</g>
<!-- dir_5029e1fc2de8ec6debeff0476ca2f864 -->
<g id="node2" class="node">
<title>dir_5029e1fc2de8ec6debeff0476ca2f864</title>
<g id="a_node2"><a xlink:href="dir_5029e1fc2de8ec6debeff0476ca2f864.html" target="_top" xlink:title="validator">
<polygon fill="none" stroke="black" points="131,-396 71,-396 71,-360 131,-360 131,-396"/>
<text text-anchor="middle" x="101" y="-375.5" font-family="Helvetica,sans-Serif" font-size="10.00">validator</text>
</a>
</g>
</g>
<!-- dir_3bfc5c2bb8435cbdcb242e4cabcc5b38&#45;&gt;dir_5029e1fc2de8ec6debeff0476ca2f864 -->
<g id="edge16" class="edge">
<title>dir_3bfc5c2bb8435cbdcb242e4cabcc5b38&#45;&gt;dir_5029e1fc2de8ec6debeff0476ca2f864</title>
<path fill="none" stroke="black" d="M101,-431.7C101,-423.98 101,-414.71 101,-406.11"/>
<polygon fill="black" stroke="black" points="104.5,-406.1 101,-396.1 97.5,-406.1 104.5,-406.1"/>
<g id="a_edge16&#45;headlabel"><a xlink:href="dir_000004_000058.html" target="_top" xlink:title="47">
<text text-anchor="middle" x="107.34" y="-407.2" font-family="Helvetica,sans-Serif" font-size="10.00">47</text>
</a>
</g>
</g>
<!-- dir_6440e6c2986786ef6ea73aa73692af12 -->
<g id="node3" class="node">
<title>dir_6440e6c2986786ef6ea73aa73692af12</title>
<g id="a_node3"><a xlink:href="dir_6440e6c2986786ef6ea73aa73692af12.html" target="_top" xlink:title="common">
<polygon fill="none" stroke="black" points="110.5,-324 51.5,-324 51.5,-288 110.5,-288 110.5,-324"/>
<text text-anchor="middle" x="81" y="-303.5" font-family="Helvetica,sans-Serif" font-size="10.00">common</text>
</a>
</g>
</g>
<!-- dir_3bfc5c2bb8435cbdcb242e4cabcc5b38&#45;&gt;dir_6440e6c2986786ef6ea73aa73692af12 -->
<g id="edge17" class="edge">
<title>dir_3bfc5c2bb8435cbdcb242e4cabcc5b38&#45;&gt;dir_6440e6c2986786ef6ea73aa73692af12</title>
<path fill="none" stroke="black" d="M76.13,-431.99C66.71,-422.31 57.42,-409.46 53,-396 46.22,-375.35 52.21,-351.2 60.6,-333.27"/>
<polygon fill="black" stroke="black" points="63.91,-334.5 65.44,-324.02 57.71,-331.26 63.91,-334.5"/>
<g id="a_edge17&#45;headlabel"><a xlink:href="dir_000004_000024.html" target="_top" xlink:title="50">
<text text-anchor="middle" x="64.76" y="-336.5" font-family="Helvetica,sans-Serif" font-size="10.00">50</text>
</a>
</g>
</g>
<!-- dir_2abae89ee613873825cbb39ee1243e8b -->
<g id="node4" class="node">
<title>dir_2abae89ee613873825cbb39ee1243e8b</title>
<g id="a_node4"><a xlink:href="dir_2abae89ee613873825cbb39ee1243e8b.html" target="_top" xlink:title="extension">
<polygon fill="#eeeeff" stroke="black" points="150.5,-252 85.5,-252 85.5,-216 150.5,-216 150.5,-252"/>
<text text-anchor="middle" x="118" y="-231.5" font-family="Helvetica,sans-Serif" font-size="10.00">extension</text>
</a>
</g>
</g>
<!-- dir_3bfc5c2bb8435cbdcb242e4cabcc5b38&#45;&gt;dir_2abae89ee613873825cbb39ee1243e8b -->
<g id="edge15" class="edge">
<title>dir_3bfc5c2bb8435cbdcb242e4cabcc5b38&#45;&gt;dir_2abae89ee613873825cbb39ee1243e8b</title>
<path fill="none" stroke="black" d="M109.91,-431.99C117.29,-422.31 126.58,-409.46 131,-396 145.93,-350.53 131.41,-294.62 122.54,-262.08"/>
<polygon fill="black" stroke="black" points="125.9,-261.11 119.9,-252.38 119.14,-262.95 125.9,-261.11"/>
<g id="a_edge15&#45;headlabel"><a xlink:href="dir_000004_000059.html" target="_top" xlink:title="47">
<text text-anchor="middle" x="129.58" y="-261.33" font-family="Helvetica,sans-Serif" font-size="10.00">47</text>
</a>
</g>
</g>
<!-- dir_c541d4b187fc5f863b4735b323978e0f -->
<g id="node6" class="node">
<title>dir_c541d4b187fc5f863b4735b323978e0f</title>
<g id="a_node6"><a xlink:href="dir_c541d4b187fc5f863b4735b323978e0f.html" target="_top" xlink:title="util">
<polygon fill="none" stroke="black" points="196,-108 142,-108 142,-72 196,-72 196,-108"/>
<text text-anchor="middle" x="169" y="-87.5" font-family="Helvetica,sans-Serif" font-size="10.00">util</text>
</a>
</g>
</g>
<!-- dir_3bfc5c2bb8435cbdcb242e4cabcc5b38&#45;&gt;dir_c541d4b187fc5f863b4735b323978e0f -->
<g id="edge18" class="edge">
<title>dir_3bfc5c2bb8435cbdcb242e4cabcc5b38&#45;&gt;dir_c541d4b187fc5f863b4735b323978e0f</title>
<path fill="none" stroke="black" d="M128.32,-435.78C167.77,-414.56 236,-368.91 236,-307 236,-307 236,-307 236,-233 236,-188.73 209.03,-143.47 189.31,-116.3"/>
<polygon fill="black" stroke="black" points="192,-114.05 183.21,-108.14 186.4,-118.25 192,-114.05"/>
<g id="a_edge18&#45;headlabel"><a xlink:href="dir_000004_000013.html" target="_top" xlink:title="12">
<text text-anchor="middle" x="196.43" y="-112.73" font-family="Helvetica,sans-Serif" font-size="10.00">12</text>
</a>
</g>
</g>
<!-- dir_fd1e11fb0964f7346e999e146b0dfd59 -->
<g id="node7" class="node">
<title>dir_fd1e11fb0964f7346e999e146b0dfd59</title>
<g id="a_node7"><a xlink:href="dir_fd1e11fb0964f7346e999e146b0dfd59.html" target="_top" xlink:title="common">
<polygon fill="none" stroke="black" points="124.5,-36 65.5,-36 65.5,0 124.5,0 124.5,-36"/>
<text text-anchor="middle" x="95" y="-15.5" font-family="Helvetica,sans-Serif" font-size="10.00">common</text>
</a>
</g>
</g>
<!-- dir_3bfc5c2bb8435cbdcb242e4cabcc5b38&#45;&gt;dir_fd1e11fb0964f7346e999e146b0dfd59 -->
<g id="edge19" class="edge">
<title>dir_3bfc5c2bb8435cbdcb242e4cabcc5b38&#45;&gt;dir_fd1e11fb0964f7346e999e146b0dfd59</title>
<path fill="none" stroke="black" d="M77.83,-431.87C48.01,-407.66 0,-360.4 0,-307 0,-307 0,-307 0,-161 0,-113.01 37.94,-68.96 65.87,-43.04"/>
<polygon fill="black" stroke="black" points="68.35,-45.52 73.44,-36.22 63.67,-40.31 68.35,-45.52"/>
<g id="a_edge19&#45;headlabel"><a xlink:href="dir_000004_000017.html" target="_top" xlink:title="94">
<text text-anchor="middle" x="67.58" y="-47.53" font-family="Helvetica,sans-Serif" font-size="10.00">94</text>
</a>
</g>
</g>
<!-- dir_5029e1fc2de8ec6debeff0476ca2f864&#45;&gt;dir_6440e6c2986786ef6ea73aa73692af12 -->
<g id="edge12" class="edge">
<title>dir_5029e1fc2de8ec6debeff0476ca2f864&#45;&gt;dir_6440e6c2986786ef6ea73aa73692af12</title>
<path fill="none" stroke="black" d="M96.06,-359.7C93.83,-351.9 91.15,-342.51 88.67,-333.83"/>
<polygon fill="black" stroke="black" points="92,-332.76 85.89,-324.1 85.27,-334.68 92,-332.76"/>
<g id="a_edge12&#45;headlabel"><a xlink:href="dir_000058_000024.html" target="_top" xlink:title="1">
<text text-anchor="middle" x="95.72" y="-332.93" font-family="Helvetica,sans-Serif" font-size="10.00">1</text>
</a>
</g>
</g>
<!-- dir_6440e6c2986786ef6ea73aa73692af12&#45;&gt;dir_3bfc5c2bb8435cbdcb242e4cabcc5b38 -->
<g id="edge10" class="edge">
<title>dir_6440e6c2986786ef6ea73aa73692af12&#45;&gt;dir_3bfc5c2bb8435cbdcb242e4cabcc5b38</title>
<path fill="none" stroke="black" d="M78.8,-324.02C72.87,-342.14 62.97,-371.53 71,-396 74.28,-405.99 80.24,-415.65 86.11,-423.92"/>
<polygon fill="black" stroke="black" points="83.33,-426.03 92.09,-431.99 88.95,-421.87 83.33,-426.03"/>
<g id="a_edge10&#45;headlabel"><a xlink:href="dir_000024_000004.html" target="_top" xlink:title="34">
<text text-anchor="middle" x="78.91" y="-422.33" font-family="Helvetica,sans-Serif" font-size="10.00">34</text>
</a>
</g>
</g>
<!-- dir_6440e6c2986786ef6ea73aa73692af12&#45;&gt;dir_2abae89ee613873825cbb39ee1243e8b -->
<g id="edge9" class="edge">
<title>dir_6440e6c2986786ef6ea73aa73692af12&#45;&gt;dir_2abae89ee613873825cbb39ee1243e8b</title>
<path fill="none" stroke="black" d="M84.23,-287.7C87.69,-279.56 92.7,-269.69 97.88,-260.7"/>
<polygon fill="black" stroke="black" points="100.9,-262.48 103.06,-252.1 94.9,-258.86 100.9,-262.48"/>
<g id="a_edge9&#45;headlabel"><a xlink:href="dir_000024_000059.html" target="_top" xlink:title="7">
<text text-anchor="middle" x="101.47" y="-264.52" font-family="Helvetica,sans-Serif" font-size="10.00">7</text>
</a>
</g>
</g>
<!-- dir_6440e6c2986786ef6ea73aa73692af12&#45;&gt;dir_fd1e11fb0964f7346e999e146b0dfd59 -->
<g id="edge11" class="edge">
<title>dir_6440e6c2986786ef6ea73aa73692af12&#45;&gt;dir_fd1e11fb0964f7346e999e146b0dfd59</title>
<path fill="none" stroke="black" d="M79.38,-287.83C78.48,-277.47 77.45,-263.99 77,-252 73.98,-171.98 75.21,-151.48 85,-72 86.05,-63.51 87.62,-54.32 89.21,-46.02"/>
<polygon fill="black" stroke="black" points="92.67,-46.59 91.2,-36.1 85.8,-45.22 92.67,-46.59"/>
<g id="a_edge11&#45;headlabel"><a xlink:href="dir_000024_000017.html" target="_top" xlink:title="1">
<text text-anchor="middle" x="94.75" y="-48.17" font-family="Helvetica,sans-Serif" font-size="10.00">1</text>
</a>
</g>
</g>
<!-- dir_2abae89ee613873825cbb39ee1243e8b&#45;&gt;dir_3bfc5c2bb8435cbdcb242e4cabcc5b38 -->
<g id="edge3" class="edge">
<title>dir_2abae89ee613873825cbb39ee1243e8b&#45;&gt;dir_3bfc5c2bb8435cbdcb242e4cabcc5b38</title>
<path fill="none" stroke="black" d="M130.77,-252.38C145.92,-282.4 165.54,-345.61 149,-396 145.65,-406.2 139.51,-416.05 132.62,-424.44"/>
<polygon fill="black" stroke="black" points="129.93,-422.21 125.87,-431.99 135.14,-426.87 129.93,-422.21"/>
<g id="a_edge3&#45;headlabel"><a xlink:href="dir_000059_000004.html" target="_top" xlink:title="6">
<text text-anchor="middle" x="130.21" y="-415.13" font-family="Helvetica,sans-Serif" font-size="10.00">6</text>
</a>
</g>
</g>
<!-- dir_2abae89ee613873825cbb39ee1243e8b&#45;&gt;dir_5029e1fc2de8ec6debeff0476ca2f864 -->
<g id="edge5" class="edge">
<title>dir_2abae89ee613873825cbb39ee1243e8b&#45;&gt;dir_5029e1fc2de8ec6debeff0476ca2f864</title>
<path fill="none" stroke="black" d="M120.35,-252.21C122.35,-270.24 124.29,-299.33 120,-324 118.48,-332.76 115.64,-341.99 112.61,-350.25"/>
<polygon fill="black" stroke="black" points="109.28,-349.16 108.89,-359.75 115.79,-351.71 109.28,-349.16"/>
<g id="a_edge5&#45;headlabel"><a xlink:href="dir_000059_000058.html" target="_top" xlink:title="9">
<text text-anchor="middle" x="107.94" y="-342.28" font-family="Helvetica,sans-Serif" font-size="10.00">9</text>
</a>
</g>
</g>
<!-- dir_2abae89ee613873825cbb39ee1243e8b&#45;&gt;dir_6440e6c2986786ef6ea73aa73692af12 -->
<g id="edge6" class="edge">
<title>dir_2abae89ee613873825cbb39ee1243e8b&#45;&gt;dir_6440e6c2986786ef6ea73aa73692af12</title>
<path fill="none" stroke="black" d="M114.85,-252.1C111.42,-260.21 106.42,-270.08 101.25,-279.08"/>
<polygon fill="black" stroke="black" points="98.22,-277.32 96.06,-287.7 104.22,-280.93 98.22,-277.32"/>
<g id="a_edge6&#45;headlabel"><a xlink:href="dir_000059_000024.html" target="_top" xlink:title="2">
<text text-anchor="middle" x="97.64" y="-270.28" font-family="Helvetica,sans-Serif" font-size="10.00">2</text>
</a>
</g>
</g>
<!-- dir_3f96c34ad80e9031c68706862fabf1a4 -->
<g id="node5" class="node">
<title>dir_3f96c34ad80e9031c68706862fabf1a4</title>
<g id="a_node5"><a xlink:href="dir_3f96c34ad80e9031c68706862fabf1a4.html" target="_top" xlink:title="extension">
<polygon fill="none" stroke="black" points="169.5,-180 104.5,-180 104.5,-144 169.5,-144 169.5,-180"/>
<text text-anchor="middle" x="137" y="-159.5" font-family="Helvetica,sans-Serif" font-size="10.00">extension</text>
</a>
</g>
</g>
<!-- dir_2abae89ee613873825cbb39ee1243e8b&#45;&gt;dir_3f96c34ad80e9031c68706862fabf1a4 -->
<g id="edge4" class="edge">
<title>dir_2abae89ee613873825cbb39ee1243e8b&#45;&gt;dir_3f96c34ad80e9031c68706862fabf1a4</title>
<path fill="none" stroke="black" d="M122.7,-215.7C124.81,-207.9 127.36,-198.51 129.72,-189.83"/>
<polygon fill="black" stroke="black" points="133.12,-190.67 132.36,-180.1 126.36,-188.84 133.12,-190.67"/>
<g id="a_edge4&#45;headlabel"><a xlink:href="dir_000059_000007.html" target="_top" xlink:title="13">
<text text-anchor="middle" x="134.91" y="-192.38" font-family="Helvetica,sans-Serif" font-size="10.00">13</text>
</a>
</g>
</g>
<!-- dir_2abae89ee613873825cbb39ee1243e8b&#45;&gt;dir_c541d4b187fc5f863b4735b323978e0f -->
<g id="edge7" class="edge">
<title>dir_2abae89ee613873825cbb39ee1243e8b&#45;&gt;dir_c541d4b187fc5f863b4735b323978e0f</title>
<path fill="none" stroke="black" d="M147.04,-215.84C159.32,-206.87 172.31,-194.68 179,-180 187.88,-160.51 184.31,-136.23 179.12,-117.96"/>
<polygon fill="black" stroke="black" points="182.4,-116.71 176.04,-108.23 175.72,-118.82 182.4,-116.71"/>
<g id="a_edge7&#45;headlabel"><a xlink:href="dir_000059_000013.html" target="_top" xlink:title="3">
<text text-anchor="middle" x="186.19" y="-116.78" font-family="Helvetica,sans-Serif" font-size="10.00">3</text>
</a>
</g>
</g>
<!-- dir_2abae89ee613873825cbb39ee1243e8b&#45;&gt;dir_fd1e11fb0964f7346e999e146b0dfd59 -->
<g id="edge8" class="edge">
<title>dir_2abae89ee613873825cbb39ee1243e8b&#45;&gt;dir_fd1e11fb0964f7346e999e146b0dfd59</title>
<path fill="none" stroke="black" d="M108.9,-215.87C104.03,-205.75 98.53,-192.5 96,-180 86.63,-133.73 89.19,-78.43 92.01,-46.16"/>
<polygon fill="black" stroke="black" points="95.5,-46.43 92.97,-36.14 88.54,-45.77 95.5,-46.43"/>
<g id="a_edge8&#45;headlabel"><a xlink:href="dir_000059_000017.html" target="_top" xlink:title="7">
<text text-anchor="middle" x="97.99" y="-47.78" font-family="Helvetica,sans-Serif" font-size="10.00">7</text>
</a>
</g>
</g>
<!-- dir_3f96c34ad80e9031c68706862fabf1a4&#45;&gt;dir_c541d4b187fc5f863b4735b323978e0f -->
<g id="edge13" class="edge">
<title>dir_3f96c34ad80e9031c68706862fabf1a4&#45;&gt;dir_c541d4b187fc5f863b4735b323978e0f</title>
<path fill="none" stroke="black" d="M144.91,-143.7C148.55,-135.73 152.95,-126.1 156.99,-117.26"/>
<polygon fill="black" stroke="black" points="160.21,-118.65 161.18,-108.1 153.84,-115.74 160.21,-118.65"/>
<g id="a_edge13&#45;headlabel"><a xlink:href="dir_000007_000013.html" target="_top" xlink:title="4">
<text text-anchor="middle" x="161.29" y="-120.6" font-family="Helvetica,sans-Serif" font-size="10.00">4</text>
</a>
</g>
</g>
<!-- dir_3f96c34ad80e9031c68706862fabf1a4&#45;&gt;dir_fd1e11fb0964f7346e999e146b0dfd59 -->
<g id="edge14" class="edge">
<title>dir_3f96c34ad80e9031c68706862fabf1a4&#45;&gt;dir_fd1e11fb0964f7346e999e146b0dfd59</title>
<path fill="none" stroke="black" d="M131.93,-143.87C124.74,-119.56 111.51,-74.82 102.99,-46.01"/>
<polygon fill="black" stroke="black" points="106.28,-44.79 100.08,-36.19 99.56,-46.77 106.28,-44.79"/>
<g id="a_edge14&#45;headlabel"><a xlink:href="dir_000007_000017.html" target="_top" xlink:title="9">
<text text-anchor="middle" x="110.02" y="-44.93" font-family="Helvetica,sans-Serif" font-size="10.00">9</text>
</a>
</g>
</g>
<!-- dir_c541d4b187fc5f863b4735b323978e0f&#45;&gt;dir_fd1e11fb0964f7346e999e146b0dfd59 -->
<g id="edge2" class="edge">
<title>dir_c541d4b187fc5f863b4735b323978e0f&#45;&gt;dir_fd1e11fb0964f7346e999e146b0dfd59</title>
<path fill="none" stroke="black" d="M144.79,-71.7C134.86,-63.14 123.6,-52.66 114.23,-43.3"/>
<polygon fill="black" stroke="black" points="116.68,-40.8 107.19,-36.1 111.68,-45.7 116.68,-40.8"/>
<g id="a_edge2&#45;headlabel"><a xlink:href="dir_000013_000017.html" target="_top" xlink:title="6">
<text text-anchor="middle" x="121.23" y="-38.89" font-family="Helvetica,sans-Serif" font-size="10.00">6</text>
</a>
</g>
</g>
<!-- dir_fd1e11fb0964f7346e999e146b0dfd59&#45;&gt;dir_c541d4b187fc5f863b4735b323978e0f -->
<g id="edge1" class="edge">
<title>dir_fd1e11fb0964f7346e999e146b0dfd59&#45;&gt;dir_c541d4b187fc5f863b4735b323978e0f</title>
<path fill="none" stroke="black" d="M118.98,-36.1C128.89,-44.64 140.15,-55.11 149.55,-64.48"/>
<polygon fill="black" stroke="black" points="147.12,-67 156.62,-71.7 152.12,-62.1 147.12,-67"/>
<g id="a_edge1&#45;headlabel"><a xlink:href="dir_000017_000013.html" target="_top" xlink:title="2">
<text text-anchor="middle" x="142.58" y="-63.92" font-family="Helvetica,sans-Serif" font-size="10.00">2</text>
</a>
</g>
</g>
</g>
</svg>
        <g id="navigator" transform="translate(0 0)" fill="#404254">
                <rect fill="#f2f5e9" fill-opacity="0.5" stroke="#606060" stroke-width=".5" x="0" y="0" width="60" height="60"/>
                <use id="zoomplus" xlink:href="#zoomPlus" x="17" y="9" onmousedown="handleZoom(evt,'in')"/>
                <use id="zoomminus" xlink:href="#zoomMin" x="42" y="9" onmousedown="handleZoom(evt,'out')"/>
                <use id="reset" xlink:href="#resetDef" x="30" y="36" onmousedown="handleReset()"/>
                <g id="arrowUp" xlink:href="#dirArrow" transform="translate(30 24)" onmousedown="handlePan(0,-1)">
                  <use xlink:href="#rim" fill="#404040">
                        <set attributeName="fill" to="#808080" begin="arrowUp.mouseover" end="arrowUp.mouseout"/>
                  </use>
                  <path fill="none" stroke="white" stroke-width="1.5" d="M0,-3.0v7 M-2.5,-0.5L0,-3.0L2.5,-0.5"/>
                </g>
                <g id="arrowRight" xlink:href="#dirArrow" transform="rotate(90) translate(36 -43)" onmousedown="handlePan(1,0)">
                  <use xlink:href="#rim" fill="#404040">
                        <set attributeName="fill" to="#808080" begin="arrowRight.mouseover" end="arrowRight.mouseout"/>
                  </use>
                  <path fill="none" stroke="white" stroke-width="1.5" d="M0,-3.0v7 M-2.5,-0.5L0,-3.0L2.5,-0.5"/>
                </g>
                <g id="arrowDown" xlink:href="#dirArrow" transform="rotate(180) translate(-30 -48)" onmousedown="handlePan(0,1)">
                  <use xlink:href="#rim" fill="#404040">
                        <set attributeName="fill" to="#808080" begin="arrowDown.mouseover" end="arrowDown.mouseout"/>
                  </use>
                  <path fill="none" stroke="white" stroke-width="1.5" d="M0,-3.0v7 M-2.5,-0.5L0,-3.0L2.5,-0.5"/>
                </g>
                <g id="arrowLeft" xlink:href="#dirArrow" transform="rotate(270) translate(-36 17)" onmousedown="handlePan(-1,0)">
                  <use xlink:href="#rim" fill="#404040">
                        <set attributeName="fill" to="#808080" begin="arrowLeft.mouseover" end="arrowLeft.mouseout"/>
                  </use>
                  <path fill="none" stroke="white" stroke-width="1.5" d="M0,-3.0v7 M-2.5,-0.5L0,-3.0L2.5,-0.5"/>
                </g>
        </g>
        <svg viewBox="0 0 15 15" width="100%" height="30px" preserveAspectRatio="xMaxYMin meet">
         <g id="arrow_out" transform="scale(0.3 0.3)">
          <a xlink:href="dir_2abae89ee613873825cbb39ee1243e8b_dep_org.svg" target="_base">
           <rect id="button" ry="5" rx="5" y="6" x="6" height="38" width="38"
                fill="#f2f5e9" fill-opacity="0.5" stroke="#606060" stroke-width="1.0"/>
           <path id="arrow"
             d="M 11.500037,31.436501 C 11.940474,20.09759 22.043105,11.32322 32.158766,21.979434 L 37.068811,17.246167 C 37.068811,17.246167 37.088388,32 37.088388,32 L 22.160133,31.978069 C 22.160133,31.978069 26.997745,27.140456 26.997745,27.140456 C 18.528582,18.264221 13.291696,25.230495 11.500037,31.436501 z"
             style="fill:#404040;"/>
          </a>
         </g>
        </svg>
</svg>
