<?xml version="1.0" encoding="UTF-8" standalone="no"?>
<!DOCTYPE svg PUBLIC "-//W3C//DTD SVG 1.1//EN"
 "http://www.w3.org/Graphics/SVG/1.1/DTD/svg11.dtd">
<!-- Generated by graphviz version 2.43.0 (0)
 -->
<!-- Title: sbml Pages: 1 -->
<svg width="232pt" height="511pt"
 viewBox="0.00 0.00 232.00 511.00" xmlns="http://www.w3.org/2000/svg" xmlns:xlink="http://www.w3.org/1999/xlink">
<g id="graph0" class="graph" transform="scale(1 1) rotate(0) translate(4 507)">
<title>sbml</title>
<polygon fill="white" stroke="transparent" points="-4,4 -4,-507 228,-507 228,4 -4,4"/>
<g id="clust1" class="cluster">
<title>clusterdir_483546704081fb5397ff7c9e88ae9794</title>
<g id="a_clust1"><a xlink:href="dir_483546704081fb5397ff7c9e88ae9794.html" target="_top" xlink:title="spatial">
<polygon fill="#ddddee" stroke="black" points="35,-208 35,-495 151,-495 151,-208 35,-208"/>
<text text-anchor="middle" x="93" y="-483" font-family="Helvetica,sans-Serif" font-size="10.00">spatial</text>
</a>
</g>
</g>
<!-- dir_2abae89ee613873825cbb39ee1243e8b -->
<g id="node1" class="node">
<title>dir_2abae89ee613873825cbb39ee1243e8b</title>
<g id="a_node1"><a xlink:href="dir_2abae89ee613873825cbb39ee1243e8b.html" target="_top" xlink:title="extension">
<polygon fill="none" stroke="black" points="125.5,-468 60.5,-468 60.5,-432 125.5,-432 125.5,-468"/>
<text text-anchor="middle" x="93" y="-447.5" font-family="Helvetica,sans-Serif" font-size="10.00">extension</text>
</a>
</g>
</g>
<!-- dir_5029e1fc2de8ec6debeff0476ca2f864 -->
<g id="node2" class="node">
<title>dir_5029e1fc2de8ec6debeff0476ca2f864</title>
<g id="a_node2"><a xlink:href="dir_5029e1fc2de8ec6debeff0476ca2f864.html" target="_top" xlink:title="validator">
<polygon fill="none" stroke="black" points="123,-396 63,-396 63,-360 123,-360 123,-396"/>
<text text-anchor="middle" x="93" y="-375.5" font-family="Helvetica,sans-Serif" font-size="10.00">validator</text>
</a>
</g>
</g>
<!-- dir_2abae89ee613873825cbb39ee1243e8b&#45;&gt;dir_5029e1fc2de8ec6debeff0476ca2f864 -->
<g id="edge4" class="edge">
<title>dir_2abae89ee613873825cbb39ee1243e8b&#45;&gt;dir_5029e1fc2de8ec6debeff0476ca2f864</title>
<path fill="none" stroke="black" d="M93,-431.7C93,-423.98 93,-414.71 93,-406.11"/>
<polygon fill="black" stroke="black" points="96.5,-406.1 93,-396.1 89.5,-406.1 96.5,-406.1"/>
<g id="a_edge4&#45;headlabel"><a xlink:href="dir_000059_000058.html" target="_top" xlink:title="9">
<text text-anchor="middle" x="99.34" y="-407.2" font-family="Helvetica,sans-Serif" font-size="10.00">9</text>
</a>
</g>
</g>
<!-- dir_6440e6c2986786ef6ea73aa73692af12 -->
<g id="node3" class="node">
<title>dir_6440e6c2986786ef6ea73aa73692af12</title>
<g id="a_node3"><a xlink:href="dir_6440e6c2986786ef6ea73aa73692af12.html" target="_top" xlink:title="common">
<polygon fill="none" stroke="black" points="102.5,-324 43.5,-324 43.5,-288 102.5,-288 102.5,-324"/>
<text text-anchor="middle" x="73" y="-303.5" font-family="Helvetica,sans-Serif" font-size="10.00">common</text>
</a>
</g>
</g>
<!-- dir_2abae89ee613873825cbb39ee1243e8b&#45;&gt;dir_6440e6c2986786ef6ea73aa73692af12 -->
<g id="edge5" class="edge">
<title>dir_2abae89ee613873825cbb39ee1243e8b&#45;&gt;dir_6440e6c2986786ef6ea73aa73692af12</title>
<path fill="none" stroke="black" d="M68.13,-431.99C58.71,-422.31 49.42,-409.46 45,-396 38.22,-375.35 44.21,-351.2 52.6,-333.27"/>
<polygon fill="black" stroke="black" points="55.91,-334.5 57.44,-324.02 49.71,-331.26 55.91,-334.5"/>
<g id="a_edge5&#45;headlabel"><a xlink:href="dir_000059_000024.html" target="_top" xlink:title="2">
<text text-anchor="middle" x="56.76" y="-336.5" font-family="Helvetica,sans-Serif" font-size="10.00">2</text>
</a>
</g>
</g>
<!-- dir_3bfc5c2bb8435cbdcb242e4cabcc5b38 -->
<g id="node4" class="node">
<title>dir_3bfc5c2bb8435cbdcb242e4cabcc5b38</title>
<g id="a_node4"><a xlink:href="dir_3bfc5c2bb8435cbdcb242e4cabcc5b38.html" target="_top" xlink:title="sbml">
<polygon fill="#eeeeff" stroke="black" points="143,-252 89,-252 89,-216 143,-216 143,-252"/>
<text text-anchor="middle" x="116" y="-231.5" font-family="Helvetica,sans-Serif" font-size="10.00">sbml</text>
</a>
</g>
</g>
<!-- dir_2abae89ee613873825cbb39ee1243e8b&#45;&gt;dir_3bfc5c2bb8435cbdcb242e4cabcc5b38 -->
<g id="edge3" class="edge">
<title>dir_2abae89ee613873825cbb39ee1243e8b&#45;&gt;dir_3bfc5c2bb8435cbdcb242e4cabcc5b38</title>
<path fill="none" stroke="black" d="M101.91,-431.99C109.29,-422.31 118.58,-409.46 123,-396 137.8,-350.92 126.1,-295.24 119.02,-262.57"/>
<polygon fill="black" stroke="black" points="122.36,-261.47 116.84,-252.42 115.52,-262.94 122.36,-261.47"/>
<g id="a_edge3&#45;headlabel"><a xlink:href="dir_000059_000004.html" target="_top" xlink:title="6">
<text text-anchor="middle" x="125.89" y="-261.88" font-family="Helvetica,sans-Serif" font-size="10.00">6</text>
</a>
</g>
</g>
<!-- dir_c541d4b187fc5f863b4735b323978e0f -->
<g id="node6" class="node">
<title>dir_c541d4b187fc5f863b4735b323978e0f</title>
<g id="a_node6"><a xlink:href="dir_c541d4b187fc5f863b4735b323978e0f.html" target="_top" xlink:title="util">
<polygon fill="none" stroke="black" points="196,-108 142,-108 142,-72 196,-72 196,-108"/>
<text text-anchor="middle" x="169" y="-87.5" font-family="Helvetica,sans-Serif" font-size="10.00">util</text>
</a>
</g>
</g>
<!-- dir_2abae89ee613873825cbb39ee1243e8b&#45;&gt;dir_c541d4b187fc5f863b4735b323978e0f -->
<g id="edge6" class="edge">
<title>dir_2abae89ee613873825cbb39ee1243e8b&#45;&gt;dir_c541d4b187fc5f863b4735b323978e0f</title>
<path fill="none" stroke="black" d="M125.72,-432C164.52,-409.22 224,-364.86 224,-307 224,-307 224,-307 224,-233 224,-190.01 201.81,-144.34 185.62,-116.74"/>
<polygon fill="black" stroke="black" points="188.56,-114.85 180.4,-108.1 182.57,-118.47 188.56,-114.85"/>
<g id="a_edge6&#45;headlabel"><a xlink:href="dir_000059_000013.html" target="_top" xlink:title="3">
<text text-anchor="middle" x="192.85" y="-113.96" font-family="Helvetica,sans-Serif" font-size="10.00">3</text>
</a>
</g>
</g>
<!-- dir_fd1e11fb0964f7346e999e146b0dfd59 -->
<g id="node7" class="node">
<title>dir_fd1e11fb0964f7346e999e146b0dfd59</title>
<g id="a_node7"><a xlink:href="dir_fd1e11fb0964f7346e999e146b0dfd59.html" target="_top" xlink:title="common">
<polygon fill="none" stroke="black" points="124.5,-36 65.5,-36 65.5,0 124.5,0 124.5,-36"/>
<text text-anchor="middle" x="95" y="-15.5" font-family="Helvetica,sans-Serif" font-size="10.00">common</text>
</a>
</g>
</g>
<!-- dir_2abae89ee613873825cbb39ee1243e8b&#45;&gt;dir_fd1e11fb0964f7346e999e146b0dfd59 -->
<g id="edge7" class="edge">
<title>dir_2abae89ee613873825cbb39ee1243e8b&#45;&gt;dir_fd1e11fb0964f7346e999e146b0dfd59</title>
<path fill="none" stroke="black" d="M71.9,-431.68C44.46,-407.08 0,-359.16 0,-307 0,-307 0,-307 0,-161 0,-113.01 37.94,-68.96 65.87,-43.04"/>
<polygon fill="black" stroke="black" points="68.35,-45.52 73.44,-36.22 63.67,-40.31 68.35,-45.52"/>
<g id="a_edge7&#45;headlabel"><a xlink:href="dir_000059_000017.html" target="_top" xlink:title="7">
<text text-anchor="middle" x="67.58" y="-47.53" font-family="Helvetica,sans-Serif" font-size="10.00">7</text>
</a>
</g>
</g>
<!-- dir_5029e1fc2de8ec6debeff0476ca2f864&#45;&gt;dir_6440e6c2986786ef6ea73aa73692af12 -->
<g id="edge13" class="edge">
<title>dir_5029e1fc2de8ec6debeff0476ca2f864&#45;&gt;dir_6440e6c2986786ef6ea73aa73692af12</title>
<path fill="none" stroke="black" d="M88.06,-359.7C85.83,-351.9 83.15,-342.51 80.67,-333.83"/>
<polygon fill="black" stroke="black" points="84,-332.76 77.89,-324.1 77.27,-334.68 84,-332.76"/>
<g id="a_edge13&#45;headlabel"><a xlink:href="dir_000058_000024.html" target="_top" xlink:title="1">
<text text-anchor="middle" x="87.72" y="-332.93" font-family="Helvetica,sans-Serif" font-size="10.00">1</text>
</a>
</g>
</g>
<!-- dir_6440e6c2986786ef6ea73aa73692af12&#45;&gt;dir_2abae89ee613873825cbb39ee1243e8b -->
<g id="edge8" class="edge">
<title>dir_6440e6c2986786ef6ea73aa73692af12&#45;&gt;dir_2abae89ee613873825cbb39ee1243e8b</title>
<path fill="none" stroke="black" d="M70.8,-324.02C64.87,-342.14 54.97,-371.53 63,-396 66.28,-405.99 72.24,-415.65 78.11,-423.92"/>
<polygon fill="black" stroke="black" points="75.33,-426.03 84.09,-431.99 80.95,-421.87 75.33,-426.03"/>
<g id="a_edge8&#45;headlabel"><a xlink:href="dir_000024_000059.html" target="_top" xlink:title="7">
<text text-anchor="middle" x="70.91" y="-422.33" font-family="Helvetica,sans-Serif" font-size="10.00">7</text>
</a>
</g>
</g>
<!-- dir_6440e6c2986786ef6ea73aa73692af12&#45;&gt;dir_3bfc5c2bb8435cbdcb242e4cabcc5b38 -->
<g id="edge9" class="edge">
<title>dir_6440e6c2986786ef6ea73aa73692af12&#45;&gt;dir_3bfc5c2bb8435cbdcb242e4cabcc5b38</title>
<path fill="none" stroke="black" d="M77.71,-287.7C81.92,-279.47 87.85,-269.48 93.86,-260.42"/>
<polygon fill="black" stroke="black" points="96.8,-262.32 99.6,-252.1 91.04,-258.35 96.8,-262.32"/>
<g id="a_edge9&#45;headlabel"><a xlink:href="dir_000024_000004.html" target="_top" xlink:title="34">
<text text-anchor="middle" x="97.1" y="-264.39" font-family="Helvetica,sans-Serif" font-size="10.00">34</text>
</a>
</g>
</g>
<!-- dir_6440e6c2986786ef6ea73aa73692af12&#45;&gt;dir_fd1e11fb0964f7346e999e146b0dfd59 -->
<g id="edge10" class="edge">
<title>dir_6440e6c2986786ef6ea73aa73692af12&#45;&gt;dir_fd1e11fb0964f7346e999e146b0dfd59</title>
<path fill="none" stroke="black" d="M73.09,-287.98C73.47,-249.4 75.38,-152.44 85,-72 86.02,-63.5 87.58,-54.31 89.17,-46.02"/>
<polygon fill="black" stroke="black" points="92.63,-46.59 91.17,-36.09 85.77,-45.21 92.63,-46.59"/>
<g id="a_edge10&#45;headlabel"><a xlink:href="dir_000024_000017.html" target="_top" xlink:title="1">
<text text-anchor="middle" x="94.7" y="-48.17" font-family="Helvetica,sans-Serif" font-size="10.00">1</text>
</a>
</g>
</g>
<!-- dir_3bfc5c2bb8435cbdcb242e4cabcc5b38&#45;&gt;dir_2abae89ee613873825cbb39ee1243e8b -->
<g id="edge14" class="edge">
<title>dir_3bfc5c2bb8435cbdcb242e4cabcc5b38&#45;&gt;dir_2abae89ee613873825cbb39ee1243e8b</title>
<path fill="none" stroke="black" d="M127.71,-252.42C141.12,-282.52 157.47,-345.83 141,-396 137.65,-406.2 131.51,-416.05 124.62,-424.44"/>
<polygon fill="black" stroke="black" points="121.93,-422.21 117.87,-431.99 127.14,-426.87 121.93,-422.21"/>
<g id="a_edge14&#45;headlabel"><a xlink:href="dir_000004_000059.html" target="_top" xlink:title="47">
<text text-anchor="middle" x="122.21" y="-415.13" font-family="Helvetica,sans-Serif" font-size="10.00">47</text>
</a>
</g>
</g>
<!-- dir_3bfc5c2bb8435cbdcb242e4cabcc5b38&#45;&gt;dir_5029e1fc2de8ec6debeff0476ca2f864 -->
<g id="edge16" class="edge">
<title>dir_3bfc5c2bb8435cbdcb242e4cabcc5b38&#45;&gt;dir_5029e1fc2de8ec6debeff0476ca2f864</title>
<path fill="none" stroke="black" d="M116.74,-252.24C117.16,-270.31 116.84,-299.42 112,-324 110.28,-332.73 107.38,-341.95 104.36,-350.21"/>
<polygon fill="black" stroke="black" points="101.03,-349.12 100.69,-359.71 107.56,-351.64 101.03,-349.12"/>
<g id="a_edge16&#45;headlabel"><a xlink:href="dir_000004_000058.html" target="_top" xlink:title="47">
<text text-anchor="middle" x="99.68" y="-342.24" font-family="Helvetica,sans-Serif" font-size="10.00">47</text>
</a>
</g>
</g>
<!-- dir_3bfc5c2bb8435cbdcb242e4cabcc5b38&#45;&gt;dir_6440e6c2986786ef6ea73aa73692af12 -->
<g id="edge17" class="edge">
<title>dir_3bfc5c2bb8435cbdcb242e4cabcc5b38&#45;&gt;dir_6440e6c2986786ef6ea73aa73692af12</title>
<path fill="none" stroke="black" d="M111.39,-252.1C107.21,-260.3 101.29,-270.28 95.28,-279.36"/>
<polygon fill="black" stroke="black" points="92.33,-277.47 89.54,-287.7 98.1,-281.44 92.33,-277.47"/>
<g id="a_edge17&#45;headlabel"><a xlink:href="dir_000004_000024.html" target="_top" xlink:title="50">
<text text-anchor="middle" x="92.03" y="-270.4" font-family="Helvetica,sans-Serif" font-size="10.00">50</text>
</a>
</g>
</g>
<!-- dir_48ff6375d03f1aa509a6e0480f966544 -->
<g id="node5" class="node">
<title>dir_48ff6375d03f1aa509a6e0480f966544</title>
<g id="a_node5"><a xlink:href="dir_48ff6375d03f1aa509a6e0480f966544.html" target="_top" xlink:title="math">
<polygon fill="none" stroke="black" points="158,-180 104,-180 104,-144 158,-144 158,-180"/>
<text text-anchor="middle" x="131" y="-159.5" font-family="Helvetica,sans-Serif" font-size="10.00">math</text>
</a>
</g>
</g>
<!-- dir_3bfc5c2bb8435cbdcb242e4cabcc5b38&#45;&gt;dir_48ff6375d03f1aa509a6e0480f966544 -->
<g id="edge15" class="edge">
<title>dir_3bfc5c2bb8435cbdcb242e4cabcc5b38&#45;&gt;dir_48ff6375d03f1aa509a6e0480f966544</title>
<path fill="none" stroke="black" d="M119.71,-215.7C121.36,-207.98 123.35,-198.71 125.19,-190.11"/>
<polygon fill="black" stroke="black" points="128.66,-190.62 127.33,-180.1 121.82,-189.15 128.66,-190.62"/>
<g id="a_edge15&#45;headlabel"><a xlink:href="dir_000004_000008.html" target="_top" xlink:title="3">
<text text-anchor="middle" x="130.68" y="-192.23" font-family="Helvetica,sans-Serif" font-size="10.00">3</text>
</a>
</g>
</g>
<!-- dir_3bfc5c2bb8435cbdcb242e4cabcc5b38&#45;&gt;dir_c541d4b187fc5f863b4735b323978e0f -->
<g id="edge18" class="edge">
<title>dir_3bfc5c2bb8435cbdcb242e4cabcc5b38&#45;&gt;dir_c541d4b187fc5f863b4735b323978e0f</title>
<path fill="none" stroke="black" d="M138.9,-216C149.54,-206.68 161.11,-194.15 167,-180 175.14,-160.44 175.14,-136.3 173.37,-118.1"/>
<polygon fill="black" stroke="black" points="176.85,-117.67 172.18,-108.15 169.9,-118.5 176.85,-117.67"/>
<g id="a_edge18&#45;headlabel"><a xlink:href="dir_000004_000013.html" target="_top" xlink:title="12">
<text text-anchor="middle" x="180.09" y="-118.4" font-family="Helvetica,sans-Serif" font-size="10.00">12</text>
</a>
</g>
</g>
<!-- dir_3bfc5c2bb8435cbdcb242e4cabcc5b38&#45;&gt;dir_fd1e11fb0964f7346e999e146b0dfd59 -->
<g id="edge19" class="edge">
<title>dir_3bfc5c2bb8435cbdcb242e4cabcc5b38&#45;&gt;dir_fd1e11fb0964f7346e999e146b0dfd59</title>
<path fill="none" stroke="black" d="M107.28,-215.83C102.63,-205.69 97.38,-192.44 95,-180 86.15,-133.63 88.98,-78.36 91.93,-46.12"/>
<polygon fill="black" stroke="black" points="95.41,-46.41 92.91,-36.12 88.45,-45.73 95.41,-46.41"/>
<g id="a_edge19&#45;headlabel"><a xlink:href="dir_000004_000017.html" target="_top" xlink:title="94">
<text text-anchor="middle" x="97.89" y="-47.77" font-family="Helvetica,sans-Serif" font-size="10.00">94</text>
</a>
</g>
</g>
<!-- dir_48ff6375d03f1aa509a6e0480f966544&#45;&gt;dir_c541d4b187fc5f863b4735b323978e0f -->
<g id="edge11" class="edge">
<title>dir_48ff6375d03f1aa509a6e0480f966544&#45;&gt;dir_c541d4b187fc5f863b4735b323978e0f</title>
<path fill="none" stroke="black" d="M140.39,-143.7C144.76,-135.64 150.06,-125.89 154.9,-116.98"/>
<polygon fill="black" stroke="black" points="158.02,-118.56 159.71,-108.1 151.87,-115.22 158.02,-118.56"/>
<g id="a_edge11&#45;headlabel"><a xlink:href="dir_000008_000013.html" target="_top" xlink:title="11">
<text text-anchor="middle" x="158.8" y="-120.58" font-family="Helvetica,sans-Serif" font-size="10.00">11</text>
</a>
</g>
</g>
<!-- dir_48ff6375d03f1aa509a6e0480f966544&#45;&gt;dir_fd1e11fb0964f7346e999e146b0dfd59 -->
<g id="edge12" class="edge">
<title>dir_48ff6375d03f1aa509a6e0480f966544&#45;&gt;dir_fd1e11fb0964f7346e999e146b0dfd59</title>
<path fill="none" stroke="black" d="M126.66,-143.87C120.5,-119.56 109.15,-74.82 101.85,-46.01"/>
<polygon fill="black" stroke="black" points="105.21,-45.02 99.36,-36.19 98.42,-46.74 105.21,-45.02"/>
<g id="a_edge12&#45;headlabel"><a xlink:href="dir_000008_000017.html" target="_top" xlink:title="21">
<text text-anchor="middle" x="108.84" y="-45.31" font-family="Helvetica,sans-Serif" font-size="10.00">21</text>
</a>
</g>
</g>
<!-- dir_c541d4b187fc5f863b4735b323978e0f&#45;&gt;dir_fd1e11fb0964f7346e999e146b0dfd59 -->
<g id="edge2" class="edge">
<title>dir_c541d4b187fc5f863b4735b323978e0f&#45;&gt;dir_fd1e11fb0964f7346e999e146b0dfd59</title>
<path fill="none" stroke="black" d="M144.79,-71.7C134.86,-63.14 123.6,-52.66 114.23,-43.3"/>
<polygon fill="black" stroke="black" points="116.68,-40.8 107.19,-36.1 111.68,-45.7 116.68,-40.8"/>
<g id="a_edge2&#45;headlabel"><a xlink:href="dir_000013_000017.html" target="_top" xlink:title="6">
<text text-anchor="middle" x="121.23" y="-38.89" font-family="Helvetica,sans-Serif" font-size="10.00">6</text>
</a>
</g>
</g>
<!-- dir_fd1e11fb0964f7346e999e146b0dfd59&#45;&gt;dir_c541d4b187fc5f863b4735b323978e0f -->
<g id="edge1" class="edge">
<title>dir_fd1e11fb0964f7346e999e146b0dfd59&#45;&gt;dir_c541d4b187fc5f863b4735b323978e0f</title>
<path fill="none" stroke="black" d="M118.98,-36.1C128.89,-44.64 140.15,-55.11 149.55,-64.48"/>
<polygon fill="black" stroke="black" points="147.12,-67 156.62,-71.7 152.12,-62.1 147.12,-67"/>
<g id="a_edge1&#45;headlabel"><a xlink:href="dir_000017_000013.html" target="_top" xlink:title="2">
<text text-anchor="middle" x="142.58" y="-63.92" font-family="Helvetica,sans-Serif" font-size="10.00">2</text>
</a>
</g>
</g>
</g>
</svg>
