<?xml version="1.0" encoding="UTF-8" standalone="no"?>
<!DOCTYPE svg PUBLIC "-//W3C//DTD SVG 1.1//EN"
 "http://www.w3.org/Graphics/SVG/1.1/DTD/svg11.dtd">
<!-- Generated by graphviz version 2.43.0 (0)
 -->
<!-- Title: fbc Pages: 1 -->
<svg width="656pt" height="735pt"
 viewBox="0.00 0.00 656.00 735.00" xmlns="http://www.w3.org/2000/svg" xmlns:xlink="http://www.w3.org/1999/xlink">
<g id="graph0" class="graph" transform="scale(1 1) rotate(0) translate(4 731)">
<title>fbc</title>
<polygon fill="white" stroke="transparent" points="-4,4 -4,-731 652,-731 652,4 -4,4"/>
<g id="clust1" class="cluster">
<title>clusterdir_d29d847ea07fb74c2c88b7147de27d35</title>
<g id="a_clust1"><a xlink:href="dir_d29d847ea07fb74c2c88b7147de27d35.html" target="_top" xlink:title="packages">
<polygon fill="#ddddee" stroke="black" points="213,-416 213,-719 411,-719 411,-416 213,-416"/>
<text text-anchor="middle" x="312" y="-707" font-family="Helvetica,sans-Serif" font-size="10.00">packages</text>
</a>
</g>
</g>
<g id="clust2" class="cluster">
<title>clusterdir_7b03e134e134ebc1f6457862e207af52</title>
<g id="a_clust2"><a xlink:href="dir_7b03e134e134ebc1f6457862e207af52.html" target="_top">
<polygon fill="#eeeeff" stroke="black" points="221,-424 221,-692 403,-692 403,-424 221,-424"/>
</a>
</g>
</g>
<!-- dir_7b03e134e134ebc1f6457862e207af52 -->
<g id="node1" class="node">
<title>dir_7b03e134e134ebc1f6457862e207af52</title>
<text text-anchor="middle" x="367" y="-663.5" font-family="Helvetica,sans-Serif" font-size="10.00">fbc</text>
</g>
<!-- dir_496e4851956202bb45315fe7c1680ab4 -->
<g id="node2" class="node">
<title>dir_496e4851956202bb45315fe7c1680ab4</title>
<g id="a_node2"><a xlink:href="dir_496e4851956202bb45315fe7c1680ab4.html" target="_top" xlink:title="common">
<polygon fill="white" stroke="black" points="320.5,-684 261.5,-684 261.5,-648 320.5,-648 320.5,-684"/>
<text text-anchor="middle" x="291" y="-663.5" font-family="Helvetica,sans-Serif" font-size="10.00">common</text>
</a>
</g>
</g>
<!-- dir_fb4201f8130b4359a64f758895071626 -->
<g id="node3" class="node">
<title>dir_fb4201f8130b4359a64f758895071626</title>
<g id="a_node3"><a xlink:href="dir_fb4201f8130b4359a64f758895071626.html" target="_top" xlink:title="extension">
<polygon fill="white" stroke="black" points="394.5,-612 329.5,-612 329.5,-576 394.5,-576 394.5,-612"/>
<text text-anchor="middle" x="362" y="-591.5" font-family="Helvetica,sans-Serif" font-size="10.00">extension</text>
</a>
</g>
</g>
<!-- dir_496e4851956202bb45315fe7c1680ab4&#45;&gt;dir_fb4201f8130b4359a64f758895071626 -->
<g id="edge33" class="edge">
<title>dir_496e4851956202bb45315fe7c1680ab4&#45;&gt;dir_fb4201f8130b4359a64f758895071626</title>
<path fill="none" stroke="black" d="M302.63,-647.7C310.51,-639.05 321.09,-628.45 331.18,-619.03"/>
<polygon fill="black" stroke="black" points="333.74,-621.43 338.76,-612.1 329.01,-616.27 333.74,-621.43"/>
<g id="a_edge33&#45;headlabel"><a xlink:href="dir_000038_000037.html" target="_top" xlink:title="6">
<text text-anchor="middle" x="333" y="-623.46" font-family="Helvetica,sans-Serif" font-size="10.00">6</text>
</a>
</g>
</g>
<!-- dir_821e112ecbf539a8266707009a4f56b3 -->
<g id="node4" class="node">
<title>dir_821e112ecbf539a8266707009a4f56b3</title>
<g id="a_node4"><a xlink:href="dir_821e112ecbf539a8266707009a4f56b3.html" target="_top" xlink:title="sbml">
<polygon fill="white" stroke="black" points="283,-540 229,-540 229,-504 283,-504 283,-540"/>
<text text-anchor="middle" x="256" y="-519.5" font-family="Helvetica,sans-Serif" font-size="10.00">sbml</text>
</a>
</g>
</g>
<!-- dir_496e4851956202bb45315fe7c1680ab4&#45;&gt;dir_821e112ecbf539a8266707009a4f56b3 -->
<g id="edge32" class="edge">
<title>dir_496e4851956202bb45315fe7c1680ab4&#45;&gt;dir_821e112ecbf539a8266707009a4f56b3</title>
<path fill="none" stroke="black" d="M282.19,-647.87C273.67,-623.67 262.42,-579.21 257.29,-550.39"/>
<polygon fill="black" stroke="black" points="260.69,-549.5 255.65,-540.19 253.78,-550.62 260.69,-549.5"/>
<g id="a_edge32&#45;headlabel"><a xlink:href="dir_000038_000006.html" target="_top" xlink:title="14">
<text text-anchor="middle" x="264.07" y="-550.1" font-family="Helvetica,sans-Serif" font-size="10.00">14</text>
</a>
</g>
</g>
<!-- dir_fb4201f8130b4359a64f758895071626&#45;&gt;dir_496e4851956202bb45315fe7c1680ab4 -->
<g id="edge25" class="edge">
<title>dir_fb4201f8130b4359a64f758895071626&#45;&gt;dir_496e4851956202bb45315fe7c1680ab4</title>
<path fill="none" stroke="black" d="M350.55,-612.1C342.71,-620.72 332.15,-631.32 322.05,-640.76"/>
<polygon fill="black" stroke="black" points="319.48,-638.36 314.47,-647.7 324.21,-643.53 319.48,-638.36"/>
<g id="a_edge25&#45;headlabel"><a xlink:href="dir_000037_000038.html" target="_top" xlink:title="2">
<text text-anchor="middle" x="320.21" y="-631.34" font-family="Helvetica,sans-Serif" font-size="10.00">2</text>
</a>
</g>
</g>
<!-- dir_fb4201f8130b4359a64f758895071626&#45;&gt;dir_821e112ecbf539a8266707009a4f56b3 -->
<g id="edge27" class="edge">
<title>dir_fb4201f8130b4359a64f758895071626&#45;&gt;dir_821e112ecbf539a8266707009a4f56b3</title>
<path fill="none" stroke="black" d="M330.17,-575.88C315.63,-566.89 298.61,-555.76 284.49,-546.03"/>
<polygon fill="black" stroke="black" points="286.33,-543.05 276.13,-540.19 282.32,-548.79 286.33,-543.05"/>
<g id="a_edge27&#45;headlabel"><a xlink:href="dir_000037_000006.html" target="_top" xlink:title="12">
<text text-anchor="middle" x="290.9" y="-540.28" font-family="Helvetica,sans-Serif" font-size="10.00">12</text>
</a>
</g>
</g>
<!-- dir_00f765e93311d284ad467d6a6503d92c -->
<g id="node5" class="node">
<title>dir_00f765e93311d284ad467d6a6503d92c</title>
<g id="a_node5"><a xlink:href="dir_00f765e93311d284ad467d6a6503d92c.html" target="_top" xlink:title="util">
<polygon fill="white" stroke="black" points="375,-540 321,-540 321,-504 375,-504 375,-540"/>
<text text-anchor="middle" x="348" y="-519.5" font-family="Helvetica,sans-Serif" font-size="10.00">util</text>
</a>
</g>
</g>
<!-- dir_fb4201f8130b4359a64f758895071626&#45;&gt;dir_00f765e93311d284ad467d6a6503d92c -->
<g id="edge23" class="edge">
<title>dir_fb4201f8130b4359a64f758895071626&#45;&gt;dir_00f765e93311d284ad467d6a6503d92c</title>
<path fill="none" stroke="black" d="M358.54,-575.7C357,-567.98 355.14,-558.71 353.42,-550.11"/>
<polygon fill="black" stroke="black" points="356.81,-549.22 351.42,-540.1 349.95,-550.6 356.81,-549.22"/>
<g id="a_edge23&#45;headlabel"><a xlink:href="dir_000037_000014.html" target="_top" xlink:title="4">
<text text-anchor="middle" x="360.3" y="-549.69" font-family="Helvetica,sans-Serif" font-size="10.00">4</text>
</a>
</g>
</g>
<!-- dir_c544f6b6e4a385d48ff69b15c3322539 -->
<g id="node6" class="node">
<title>dir_c544f6b6e4a385d48ff69b15c3322539</title>
<g id="a_node6"><a xlink:href="dir_c544f6b6e4a385d48ff69b15c3322539.html" target="_top" xlink:title="validator">
<polygon fill="white" stroke="black" points="316,-468 256,-468 256,-432 316,-432 316,-468"/>
<text text-anchor="middle" x="286" y="-447.5" font-family="Helvetica,sans-Serif" font-size="10.00">validator</text>
</a>
</g>
</g>
<!-- dir_fb4201f8130b4359a64f758895071626&#45;&gt;dir_c544f6b6e4a385d48ff69b15c3322539 -->
<g id="edge29" class="edge">
<title>dir_fb4201f8130b4359a64f758895071626&#45;&gt;dir_c544f6b6e4a385d48ff69b15c3322539</title>
<path fill="none" stroke="black" d="M373.46,-575.81C384.42,-557.01 397.45,-526.56 384,-504 371.38,-482.82 347.02,-469.59 325.75,-461.65"/>
<polygon fill="black" stroke="black" points="326.85,-458.32 316.25,-458.36 324.56,-464.94 326.85,-458.32"/>
<g id="a_edge29&#45;headlabel"><a xlink:href="dir_000037_000036.html" target="_top" xlink:title="9">
<text text-anchor="middle" x="331.17" y="-454.31" font-family="Helvetica,sans-Serif" font-size="10.00">9</text>
</a>
</g>
</g>
<!-- dir_3f96c34ad80e9031c68706862fabf1a4 -->
<g id="node7" class="node">
<title>dir_3f96c34ad80e9031c68706862fabf1a4</title>
<g id="a_node7"><a xlink:href="dir_3f96c34ad80e9031c68706862fabf1a4.html" target="_top" xlink:title="extension">
<polygon fill="none" stroke="black" points="467.5,-252 402.5,-252 402.5,-216 467.5,-216 467.5,-252"/>
<text text-anchor="middle" x="435" y="-231.5" font-family="Helvetica,sans-Serif" font-size="10.00">extension</text>
</a>
</g>
</g>
<!-- dir_fb4201f8130b4359a64f758895071626&#45;&gt;dir_3f96c34ad80e9031c68706862fabf1a4 -->
<g id="edge24" class="edge">
<title>dir_fb4201f8130b4359a64f758895071626&#45;&gt;dir_3f96c34ad80e9031c68706862fabf1a4</title>
<path fill="none" stroke="black" d="M394.76,-582.68C444.66,-564.66 534,-522.44 534,-451 534,-451 534,-451 534,-377 534,-328.38 494.46,-284.5 465.35,-258.78"/>
<polygon fill="black" stroke="black" points="467.34,-255.87 457.46,-252.03 462.78,-261.19 467.34,-255.87"/>
<g id="a_edge24&#45;headlabel"><a xlink:href="dir_000037_000007.html" target="_top" xlink:title="12">
<text text-anchor="middle" x="471.91" y="-253.56" font-family="Helvetica,sans-Serif" font-size="10.00">12</text>
</a>
</g>
</g>
<!-- dir_5cbb9a0bf548abf0d2e32772c73d2ad6 -->
<g id="node8" class="node">
<title>dir_5cbb9a0bf548abf0d2e32772c73d2ad6</title>
<g id="a_node8"><a xlink:href="dir_5cbb9a0bf548abf0d2e32772c73d2ad6.html" target="_top" xlink:title="xml">
<polygon fill="none" stroke="black" points="270,-180 216,-180 216,-144 270,-144 270,-180"/>
<text text-anchor="middle" x="243" y="-159.5" font-family="Helvetica,sans-Serif" font-size="10.00">xml</text>
</a>
</g>
</g>
<!-- dir_fb4201f8130b4359a64f758895071626&#45;&gt;dir_5cbb9a0bf548abf0d2e32772c73d2ad6 -->
<g id="edge26" class="edge">
<title>dir_fb4201f8130b4359a64f758895071626&#45;&gt;dir_5cbb9a0bf548abf0d2e32772c73d2ad6</title>
<path fill="none" stroke="black" d="M329.45,-593.34C247.29,-592.33 38,-577.36 38,-451 38,-451 38,-451 38,-305 38,-224.34 146.58,-185.87 205.7,-170.91"/>
<polygon fill="black" stroke="black" points="206.88,-174.22 215.78,-168.46 205.23,-167.42 206.88,-174.22"/>
<g id="a_edge26&#45;headlabel"><a xlink:href="dir_000037_000035.html" target="_top" xlink:title="4">
<text text-anchor="middle" x="204.06" y="-175.33" font-family="Helvetica,sans-Serif" font-size="10.00">4</text>
</a>
</g>
</g>
<!-- dir_c541d4b187fc5f863b4735b323978e0f -->
<g id="node9" class="node">
<title>dir_c541d4b187fc5f863b4735b323978e0f</title>
<g id="a_node9"><a xlink:href="dir_c541d4b187fc5f863b4735b323978e0f.html" target="_top" xlink:title="util">
<polygon fill="none" stroke="black" points="391,-108 337,-108 337,-72 391,-72 391,-108"/>
<text text-anchor="middle" x="364" y="-87.5" font-family="Helvetica,sans-Serif" font-size="10.00">util</text>
</a>
</g>
</g>
<!-- dir_fb4201f8130b4359a64f758895071626&#45;&gt;dir_c541d4b187fc5f863b4735b323978e0f -->
<g id="edge28" class="edge">
<title>dir_fb4201f8130b4359a64f758895071626&#45;&gt;dir_c541d4b187fc5f863b4735b323978e0f</title>
<path fill="none" stroke="black" d="M394.68,-589.53C462.02,-580.38 610,-549.11 610,-451 610,-451 610,-451 610,-377 610,-252.87 546.43,-229.04 456,-144 439.76,-128.73 418.34,-116.06 400.25,-106.94"/>
<polygon fill="black" stroke="black" points="401.66,-103.74 391.14,-102.5 398.6,-110.03 401.66,-103.74"/>
<g id="a_edge28&#45;headlabel"><a xlink:href="dir_000037_000013.html" target="_top" xlink:title="4">
<text text-anchor="middle" x="406.14" y="-100.26" font-family="Helvetica,sans-Serif" font-size="10.00">4</text>
</a>
</g>
</g>
<!-- dir_d3b86ce335ad818909ececff0fac1eca -->
<g id="node10" class="node">
<title>dir_d3b86ce335ad818909ececff0fac1eca</title>
<g id="a_node10"><a xlink:href="dir_d3b86ce335ad818909ececff0fac1eca.html" target="_top" xlink:title="conversion">
<polygon fill="none" stroke="black" points="506,-468 436,-468 436,-432 506,-432 506,-468"/>
<text text-anchor="middle" x="471" y="-447.5" font-family="Helvetica,sans-Serif" font-size="10.00">conversion</text>
</a>
</g>
</g>
<!-- dir_fb4201f8130b4359a64f758895071626&#45;&gt;dir_d3b86ce335ad818909ececff0fac1eca -->
<g id="edge30" class="edge">
<title>dir_fb4201f8130b4359a64f758895071626&#45;&gt;dir_d3b86ce335ad818909ececff0fac1eca</title>
<path fill="none" stroke="black" d="M375.15,-575.87C394.22,-551.03 429.67,-504.85 451.7,-476.14"/>
<polygon fill="black" stroke="black" points="454.49,-478.25 457.81,-468.19 448.94,-473.99 454.49,-478.25"/>
<g id="a_edge30&#45;headlabel"><a xlink:href="dir_000037_000026.html" target="_top" xlink:title="1">
<text text-anchor="middle" x="454.56" y="-480.33" font-family="Helvetica,sans-Serif" font-size="10.00">1</text>
</a>
</g>
</g>
<!-- dir_fd1e11fb0964f7346e999e146b0dfd59 -->
<g id="node11" class="node">
<title>dir_fd1e11fb0964f7346e999e146b0dfd59</title>
<g id="a_node11"><a xlink:href="dir_fd1e11fb0964f7346e999e146b0dfd59.html" target="_top" xlink:title="common">
<polygon fill="none" stroke="black" points="365.5,-36 306.5,-36 306.5,0 365.5,0 365.5,-36"/>
<text text-anchor="middle" x="336" y="-15.5" font-family="Helvetica,sans-Serif" font-size="10.00">common</text>
</a>
</g>
</g>
<!-- dir_fb4201f8130b4359a64f758895071626&#45;&gt;dir_fd1e11fb0964f7346e999e146b0dfd59 -->
<g id="edge31" class="edge">
<title>dir_fb4201f8130b4359a64f758895071626&#45;&gt;dir_fd1e11fb0964f7346e999e146b0dfd59</title>
<path fill="none" stroke="black" d="M394.53,-591.68C469.49,-586.71 648,-563.12 648,-451 648,-451 648,-451 648,-161 648,-42.72 459.94,-22.51 375.83,-19.38"/>
<polygon fill="black" stroke="black" points="375.74,-15.88 365.63,-19.07 375.52,-22.87 375.74,-15.88"/>
<g id="a_edge31&#45;headlabel"><a xlink:href="dir_000037_000017.html" target="_top" xlink:title="8">
<text text-anchor="middle" x="379.42" y="-10.65" font-family="Helvetica,sans-Serif" font-size="10.00">8</text>
</a>
</g>
</g>
<!-- dir_821e112ecbf539a8266707009a4f56b3&#45;&gt;dir_496e4851956202bb45315fe7c1680ab4 -->
<g id="edge12" class="edge">
<title>dir_821e112ecbf539a8266707009a4f56b3&#45;&gt;dir_496e4851956202bb45315fe7c1680ab4</title>
<path fill="none" stroke="black" d="M264.83,-540.19C273.36,-564.42 284.6,-608.89 289.72,-637.68"/>
<polygon fill="black" stroke="black" points="286.32,-638.56 291.36,-647.87 293.23,-637.44 286.32,-638.56"/>
<g id="a_edge12&#45;headlabel"><a xlink:href="dir_000006_000038.html" target="_top" xlink:title="17">
<text text-anchor="middle" x="282.94" y="-632.96" font-family="Helvetica,sans-Serif" font-size="10.00">17</text>
</a>
</g>
</g>
<!-- dir_821e112ecbf539a8266707009a4f56b3&#45;&gt;dir_fb4201f8130b4359a64f758895071626 -->
<g id="edge16" class="edge">
<title>dir_821e112ecbf539a8266707009a4f56b3&#45;&gt;dir_fb4201f8130b4359a64f758895071626</title>
<path fill="none" stroke="black" d="M283.31,-537.35C298.8,-546.78 318.05,-559.31 333.69,-570.09"/>
<polygon fill="black" stroke="black" points="331.76,-573.02 341.97,-575.88 335.77,-567.28 331.76,-573.02"/>
<g id="a_edge16&#45;headlabel"><a xlink:href="dir_000006_000037.html" target="_top" xlink:title="25">
<text text-anchor="middle" x="327.19" y="-570.79" font-family="Helvetica,sans-Serif" font-size="10.00">25</text>
</a>
</g>
</g>
<!-- dir_821e112ecbf539a8266707009a4f56b3&#45;&gt;dir_c544f6b6e4a385d48ff69b15c3322539 -->
<g id="edge15" class="edge">
<title>dir_821e112ecbf539a8266707009a4f56b3&#45;&gt;dir_c544f6b6e4a385d48ff69b15c3322539</title>
<path fill="none" stroke="black" d="M263.42,-503.7C266.79,-495.81 270.87,-486.3 274.62,-477.55"/>
<polygon fill="black" stroke="black" points="277.95,-478.67 278.67,-468.1 271.51,-475.92 277.95,-478.67"/>
<g id="a_edge15&#45;headlabel"><a xlink:href="dir_000006_000036.html" target="_top" xlink:title="15">
<text text-anchor="middle" x="279.14" y="-480.6" font-family="Helvetica,sans-Serif" font-size="10.00">15</text>
</a>
</g>
</g>
<!-- dir_821e112ecbf539a8266707009a4f56b3&#45;&gt;dir_5cbb9a0bf548abf0d2e32772c73d2ad6 -->
<g id="edge13" class="edge">
<title>dir_821e112ecbf539a8266707009a4f56b3&#45;&gt;dir_5cbb9a0bf548abf0d2e32772c73d2ad6</title>
<path fill="none" stroke="black" d="M228.61,-515.32C204.01,-508.6 169.34,-494.78 153,-468 95.96,-374.5 181.37,-242.75 222.71,-188.18"/>
<polygon fill="black" stroke="black" points="225.6,-190.16 228.94,-180.11 220.06,-185.89 225.6,-190.16"/>
<g id="a_edge13&#45;headlabel"><a xlink:href="dir_000006_000035.html" target="_top" xlink:title="27">
<text text-anchor="middle" x="225.66" y="-192.24" font-family="Helvetica,sans-Serif" font-size="10.00">27</text>
</a>
</g>
</g>
<!-- dir_821e112ecbf539a8266707009a4f56b3&#45;&gt;dir_c541d4b187fc5f863b4735b323978e0f -->
<g id="edge14" class="edge">
<title>dir_821e112ecbf539a8266707009a4f56b3&#45;&gt;dir_c541d4b187fc5f863b4735b323978e0f</title>
<path fill="none" stroke="black" d="M283.03,-507.34C297.99,-498.3 315.43,-484.98 325,-468 390.36,-352.04 376.77,-183.93 368.2,-118.5"/>
<polygon fill="black" stroke="black" points="371.61,-117.63 366.78,-108.21 364.68,-118.59 371.61,-117.63"/>
<g id="a_edge14&#45;headlabel"><a xlink:href="dir_000006_000013.html" target="_top" xlink:title="11">
<text text-anchor="middle" x="374.92" y="-118.31" font-family="Helvetica,sans-Serif" font-size="10.00">11</text>
</a>
</g>
</g>
<!-- dir_821e112ecbf539a8266707009a4f56b3&#45;&gt;dir_fd1e11fb0964f7346e999e146b0dfd59 -->
<g id="edge17" class="edge">
<title>dir_821e112ecbf539a8266707009a4f56b3&#45;&gt;dir_fd1e11fb0964f7346e999e146b0dfd59</title>
<path fill="none" stroke="black" d="M228.6,-518.64C162.56,-511.29 0,-482.68 0,-379 0,-379 0,-379 0,-161 0,-33.66 207.29,-18.75 296.24,-18.22"/>
<polygon fill="black" stroke="black" points="296.48,-21.72 306.48,-18.22 296.48,-14.72 296.48,-21.72"/>
<g id="a_edge17&#45;headlabel"><a xlink:href="dir_000006_000017.html" target="_top" xlink:title="34">
<text text-anchor="middle" x="292.88" y="-22.06" font-family="Helvetica,sans-Serif" font-size="10.00">34</text>
</a>
</g>
</g>
<!-- dir_48ff6375d03f1aa509a6e0480f966544 -->
<g id="node12" class="node">
<title>dir_48ff6375d03f1aa509a6e0480f966544</title>
<g id="a_node12"><a xlink:href="dir_48ff6375d03f1aa509a6e0480f966544.html" target="_top" xlink:title="math">
<polygon fill="none" stroke="black" points="315,-324 261,-324 261,-288 315,-288 315,-324"/>
<text text-anchor="middle" x="288" y="-303.5" font-family="Helvetica,sans-Serif" font-size="10.00">math</text>
</a>
</g>
</g>
<!-- dir_821e112ecbf539a8266707009a4f56b3&#45;&gt;dir_48ff6375d03f1aa509a6e0480f966544 -->
<g id="edge11" class="edge">
<title>dir_821e112ecbf539a8266707009a4f56b3&#45;&gt;dir_48ff6375d03f1aa509a6e0480f966544</title>
<path fill="none" stroke="black" d="M228.8,-511.05C210.25,-502.67 187.11,-488.7 176,-468 153.29,-425.71 150.32,-400.56 176,-360 192.35,-334.17 225.07,-320.68 250.94,-313.8"/>
<polygon fill="black" stroke="black" points="251.94,-317.16 260.83,-311.39 250.29,-310.35 251.94,-317.16"/>
<g id="a_edge11&#45;headlabel"><a xlink:href="dir_000006_000008.html" target="_top" xlink:title="2">
<text text-anchor="middle" x="249.12" y="-318.26" font-family="Helvetica,sans-Serif" font-size="10.00">2</text>
</a>
</g>
</g>
<!-- dir_00f765e93311d284ad467d6a6503d92c&#45;&gt;dir_496e4851956202bb45315fe7c1680ab4 -->
<g id="edge8" class="edge">
<title>dir_00f765e93311d284ad467d6a6503d92c&#45;&gt;dir_496e4851956202bb45315fe7c1680ab4</title>
<path fill="none" stroke="black" d="M338.34,-540.36C332.87,-550.57 326.12,-563.82 321,-576 312.39,-596.48 304.44,-620.37 298.9,-638.24"/>
<polygon fill="black" stroke="black" points="295.49,-637.41 295.92,-648 302.19,-639.45 295.49,-637.41"/>
<g id="a_edge8&#45;headlabel"><a xlink:href="dir_000014_000038.html" target="_top" xlink:title="4">
<text text-anchor="middle" x="293.82" y="-630.64" font-family="Helvetica,sans-Serif" font-size="10.00">4</text>
</a>
</g>
</g>
<!-- dir_00f765e93311d284ad467d6a6503d92c&#45;&gt;dir_3f96c34ad80e9031c68706862fabf1a4 -->
<g id="edge6" class="edge">
<title>dir_00f765e93311d284ad467d6a6503d92c&#45;&gt;dir_3f96c34ad80e9031c68706862fabf1a4</title>
<path fill="none" stroke="black" d="M362.14,-503.84C369.66,-493.92 378.46,-480.88 384,-468 414.37,-397.36 427.52,-306.61 432.45,-262.09"/>
<polygon fill="black" stroke="black" points="435.94,-262.37 433.5,-252.05 428.97,-261.63 435.94,-262.37"/>
<g id="a_edge6&#45;headlabel"><a xlink:href="dir_000014_000007.html" target="_top" xlink:title="8">
<text text-anchor="middle" x="438.38" y="-263.74" font-family="Helvetica,sans-Serif" font-size="10.00">8</text>
</a>
</g>
</g>
<!-- dir_00f765e93311d284ad467d6a6503d92c&#45;&gt;dir_d3b86ce335ad818909ececff0fac1eca -->
<g id="edge9" class="edge">
<title>dir_00f765e93311d284ad467d6a6503d92c&#45;&gt;dir_d3b86ce335ad818909ececff0fac1eca</title>
<path fill="none" stroke="black" d="M375.3,-505.46C391.96,-495.98 413.54,-483.7 431.99,-473.2"/>
<polygon fill="black" stroke="black" points="433.8,-476.2 440.76,-468.21 430.34,-470.12 433.8,-476.2"/>
<g id="a_edge9&#45;headlabel"><a xlink:href="dir_000014_000026.html" target="_top" xlink:title="20">
<text text-anchor="middle" x="432.08" y="-477.94" font-family="Helvetica,sans-Serif" font-size="10.00">20</text>
</a>
</g>
</g>
<!-- dir_00f765e93311d284ad467d6a6503d92c&#45;&gt;dir_fd1e11fb0964f7346e999e146b0dfd59 -->
<g id="edge10" class="edge">
<title>dir_00f765e93311d284ad467d6a6503d92c&#45;&gt;dir_fd1e11fb0964f7346e999e146b0dfd59</title>
<path fill="none" stroke="black" d="M320.93,-512.39C289.19,-501.76 239.36,-483.23 227,-468 165.48,-392.19 193.73,-349.4 187,-252 181.39,-170.78 165.21,-131.3 221,-72 241.26,-50.47 271.96,-36.93 296.55,-28.94"/>
<polygon fill="black" stroke="black" points="297.79,-32.22 306.32,-25.94 295.74,-25.52 297.79,-32.22"/>
<g id="a_edge10&#45;headlabel"><a xlink:href="dir_000014_000017.html" target="_top" xlink:title="8">
<text text-anchor="middle" x="295.19" y="-33.49" font-family="Helvetica,sans-Serif" font-size="10.00">8</text>
</a>
</g>
</g>
<!-- dir_00f765e93311d284ad467d6a6503d92c&#45;&gt;dir_48ff6375d03f1aa509a6e0480f966544 -->
<g id="edge7" class="edge">
<title>dir_00f765e93311d284ad467d6a6503d92c&#45;&gt;dir_48ff6375d03f1aa509a6e0480f966544</title>
<path fill="none" stroke="black" d="M320.5,-510.36C293.54,-499.3 255.3,-481.73 247,-468 222.17,-426.92 231.48,-405.42 247,-360 250.44,-349.93 256.66,-340.28 263.23,-332.05"/>
<polygon fill="black" stroke="black" points="266,-334.2 269.83,-324.32 260.68,-329.65 266,-334.2"/>
<g id="a_edge7&#45;headlabel"><a xlink:href="dir_000014_000008.html" target="_top" xlink:title="3">
<text text-anchor="middle" x="265.82" y="-336.28" font-family="Helvetica,sans-Serif" font-size="10.00">3</text>
</a>
</g>
</g>
<!-- dir_c544f6b6e4a385d48ff69b15c3322539&#45;&gt;dir_496e4851956202bb45315fe7c1680ab4 -->
<g id="edge3" class="edge">
<title>dir_c544f6b6e4a385d48ff69b15c3322539&#45;&gt;dir_496e4851956202bb45315fe7c1680ab4</title>
<path fill="none" stroke="black" d="M288.44,-468.14C289.79,-478.5 291.32,-491.98 292,-504 294.63,-550.68 293.4,-605.1 292.23,-637.21"/>
<polygon fill="black" stroke="black" points="288.71,-637.46 291.82,-647.59 295.71,-637.73 288.71,-637.46"/>
<g id="a_edge3&#45;headlabel"><a xlink:href="dir_000036_000038.html" target="_top" xlink:title="1">
<text text-anchor="middle" x="286.02" y="-631.26" font-family="Helvetica,sans-Serif" font-size="10.00">1</text>
</a>
</g>
</g>
<!-- dir_c544f6b6e4a385d48ff69b15c3322539&#45;&gt;dir_fd1e11fb0964f7346e999e146b0dfd59 -->
<g id="edge5" class="edge">
<title>dir_c544f6b6e4a385d48ff69b15c3322539&#45;&gt;dir_fd1e11fb0964f7346e999e146b0dfd59</title>
<path fill="none" stroke="black" d="M270.08,-431.63C261.96,-421.84 252.63,-409 247,-396 201.93,-291.94 171.62,-251.74 207,-144 221.9,-98.64 265.12,-62.82 297.45,-41.36"/>
<polygon fill="black" stroke="black" points="299.74,-44.05 306.25,-35.69 295.95,-38.17 299.74,-44.05"/>
<g id="a_edge5&#45;headlabel"><a xlink:href="dir_000036_000017.html" target="_top" xlink:title="1">
<text text-anchor="middle" x="298.26" y="-45.89" font-family="Helvetica,sans-Serif" font-size="10.00">1</text>
</a>
</g>
</g>
<!-- dir_a0a785b8d726fb513b94381e63693443 -->
<g id="node13" class="node">
<title>dir_a0a785b8d726fb513b94381e63693443</title>
<g id="a_node13"><a xlink:href="dir_a0a785b8d726fb513b94381e63693443.html" target="_top" xlink:title="validator">
<polygon fill="none" stroke="black" points="316,-396 256,-396 256,-360 316,-360 316,-396"/>
<text text-anchor="middle" x="286" y="-375.5" font-family="Helvetica,sans-Serif" font-size="10.00">validator</text>
</a>
</g>
</g>
<!-- dir_c544f6b6e4a385d48ff69b15c3322539&#45;&gt;dir_a0a785b8d726fb513b94381e63693443 -->
<g id="edge4" class="edge">
<title>dir_c544f6b6e4a385d48ff69b15c3322539&#45;&gt;dir_a0a785b8d726fb513b94381e63693443</title>
<path fill="none" stroke="black" d="M286,-431.7C286,-423.98 286,-414.71 286,-406.11"/>
<polygon fill="black" stroke="black" points="289.5,-406.1 286,-396.1 282.5,-406.1 289.5,-406.1"/>
<g id="a_edge4&#45;headlabel"><a xlink:href="dir_000036_000025.html" target="_top" xlink:title="3">
<text text-anchor="middle" x="292.34" y="-407.2" font-family="Helvetica,sans-Serif" font-size="10.00">3</text>
</a>
</g>
</g>
<!-- dir_3f96c34ad80e9031c68706862fabf1a4&#45;&gt;dir_5cbb9a0bf548abf0d2e32772c73d2ad6 -->
<g id="edge40" class="edge">
<title>dir_3f96c34ad80e9031c68706862fabf1a4&#45;&gt;dir_5cbb9a0bf548abf0d2e32772c73d2ad6</title>
<path fill="none" stroke="black" d="M402.43,-221.13C368.4,-208.72 315.11,-189.29 279.64,-176.36"/>
<polygon fill="black" stroke="black" points="280.73,-173.03 270.13,-172.89 278.33,-179.61 280.73,-173.03"/>
<g id="a_edge40&#45;headlabel"><a xlink:href="dir_000007_000035.html" target="_top" xlink:title="2">
<text text-anchor="middle" x="285.08" y="-169.09" font-family="Helvetica,sans-Serif" font-size="10.00">2</text>
</a>
</g>
</g>
<!-- dir_3f96c34ad80e9031c68706862fabf1a4&#45;&gt;dir_c541d4b187fc5f863b4735b323978e0f -->
<g id="edge41" class="edge">
<title>dir_3f96c34ad80e9031c68706862fabf1a4&#45;&gt;dir_c541d4b187fc5f863b4735b323978e0f</title>
<path fill="none" stroke="black" d="M426.44,-215.87C414.18,-191.35 391.52,-146.03 377.13,-117.26"/>
<polygon fill="black" stroke="black" points="380.2,-115.57 372.59,-108.19 373.94,-118.7 380.2,-115.57"/>
<g id="a_edge41&#45;headlabel"><a xlink:href="dir_000007_000013.html" target="_top" xlink:title="4">
<text text-anchor="middle" x="384.34" y="-115.01" font-family="Helvetica,sans-Serif" font-size="10.00">4</text>
</a>
</g>
</g>
<!-- dir_3f96c34ad80e9031c68706862fabf1a4&#45;&gt;dir_fd1e11fb0964f7346e999e146b0dfd59 -->
<g id="edge42" class="edge">
<title>dir_3f96c34ad80e9031c68706862fabf1a4&#45;&gt;dir_fd1e11fb0964f7346e999e146b0dfd59</title>
<path fill="none" stroke="black" d="M434.85,-215.67C433.85,-184.63 428.25,-118.43 400,-72 393.08,-60.62 382.82,-50.56 372.54,-42.34"/>
<polygon fill="black" stroke="black" points="374.44,-39.39 364.36,-36.15 370.22,-44.97 374.44,-39.39"/>
<g id="a_edge42&#45;headlabel"><a xlink:href="dir_000007_000017.html" target="_top" xlink:title="9">
<text text-anchor="middle" x="379.02" y="-36.79" font-family="Helvetica,sans-Serif" font-size="10.00">9</text>
</a>
</g>
</g>
<!-- dir_5cbb9a0bf548abf0d2e32772c73d2ad6&#45;&gt;dir_c541d4b187fc5f863b4735b323978e0f -->
<g id="edge38" class="edge">
<title>dir_5cbb9a0bf548abf0d2e32772c73d2ad6&#45;&gt;dir_c541d4b187fc5f863b4735b323978e0f</title>
<path fill="none" stroke="black" d="M270.15,-145.29C287.28,-135.38 309.59,-122.48 328.16,-111.73"/>
<polygon fill="black" stroke="black" points="330.03,-114.69 336.94,-106.66 326.53,-108.63 330.03,-114.69"/>
<g id="a_edge38&#45;headlabel"><a xlink:href="dir_000035_000013.html" target="_top" xlink:title="5">
<text text-anchor="middle" x="328.34" y="-116.45" font-family="Helvetica,sans-Serif" font-size="10.00">5</text>
</a>
</g>
</g>
<!-- dir_5cbb9a0bf548abf0d2e32772c73d2ad6&#45;&gt;dir_fd1e11fb0964f7346e999e146b0dfd59 -->
<g id="edge39" class="edge">
<title>dir_5cbb9a0bf548abf0d2e32772c73d2ad6&#45;&gt;dir_fd1e11fb0964f7346e999e146b0dfd59</title>
<path fill="none" stroke="black" d="M248.94,-143.68C255.79,-125.03 268.16,-94.97 284,-72 291.08,-61.74 300.22,-51.67 308.87,-43.11"/>
<polygon fill="black" stroke="black" points="311.48,-45.46 316.27,-36.01 306.63,-40.41 311.48,-45.46"/>
<g id="a_edge39&#45;headlabel"><a xlink:href="dir_000035_000017.html" target="_top" xlink:title="16">
<text text-anchor="middle" x="310.85" y="-47.5" font-family="Helvetica,sans-Serif" font-size="10.00">16</text>
</a>
</g>
</g>
<!-- dir_c541d4b187fc5f863b4735b323978e0f&#45;&gt;dir_fd1e11fb0964f7346e999e146b0dfd59 -->
<g id="edge2" class="edge">
<title>dir_c541d4b187fc5f863b4735b323978e0f&#45;&gt;dir_fd1e11fb0964f7346e999e146b0dfd59</title>
<path fill="none" stroke="black" d="M351.16,-71.7C347.24,-63.9 343.26,-54.51 340.15,-45.83"/>
<polygon fill="black" stroke="black" points="343.4,-44.51 336.95,-36.1 336.75,-46.7 343.4,-44.51"/>
<g id="a_edge2&#45;headlabel"><a xlink:href="dir_000013_000017.html" target="_top" xlink:title="6">
<text text-anchor="middle" x="347.22" y="-44.54" font-family="Helvetica,sans-Serif" font-size="10.00">6</text>
</a>
</g>
</g>
<!-- dir_d3b86ce335ad818909ececff0fac1eca&#45;&gt;dir_3f96c34ad80e9031c68706862fabf1a4 -->
<g id="edge18" class="edge">
<title>dir_d3b86ce335ad818909ececff0fac1eca&#45;&gt;dir_3f96c34ad80e9031c68706862fabf1a4</title>
<path fill="none" stroke="black" d="M468.11,-431.85C461.87,-394.75 447.08,-306.81 439.56,-262.1"/>
<polygon fill="black" stroke="black" points="443.01,-261.51 437.9,-252.23 436.11,-262.67 443.01,-261.51"/>
<g id="a_edge18&#45;headlabel"><a xlink:href="dir_000026_000007.html" target="_top" xlink:title="5">
<text text-anchor="middle" x="446.41" y="-262.09" font-family="Helvetica,sans-Serif" font-size="10.00">5</text>
</a>
</g>
</g>
<!-- dir_d3b86ce335ad818909ececff0fac1eca&#45;&gt;dir_c541d4b187fc5f863b4735b323978e0f -->
<g id="edge21" class="edge">
<title>dir_d3b86ce335ad818909ececff0fac1eca&#45;&gt;dir_c541d4b187fc5f863b4735b323978e0f</title>
<path fill="none" stroke="black" d="M475.71,-431.88C485.72,-392.3 505.9,-292.02 477,-216 460.98,-173.87 423.32,-137.18 395.86,-114.64"/>
<polygon fill="black" stroke="black" points="397.7,-111.62 387.71,-108.1 393.32,-117.09 397.7,-111.62"/>
<g id="a_edge21&#45;headlabel"><a xlink:href="dir_000026_000013.html" target="_top" xlink:title="11">
<text text-anchor="middle" x="402.28" y="-109.15" font-family="Helvetica,sans-Serif" font-size="10.00">11</text>
</a>
</g>
</g>
<!-- dir_d3b86ce335ad818909ececff0fac1eca&#45;&gt;dir_fd1e11fb0964f7346e999e146b0dfd59 -->
<g id="edge22" class="edge">
<title>dir_d3b86ce335ad818909ececff0fac1eca&#45;&gt;dir_fd1e11fb0964f7346e999e146b0dfd59</title>
<path fill="none" stroke="black" d="M494.17,-431.87C523.99,-407.66 572,-360.4 572,-307 572,-307 572,-307 572,-161 572,-70.68 443.51,-36.33 376.15,-24.54"/>
<polygon fill="black" stroke="black" points="376.33,-21.02 365.89,-22.83 375.18,-27.92 376.33,-21.02"/>
<g id="a_edge22&#45;headlabel"><a xlink:href="dir_000026_000017.html" target="_top" xlink:title="6">
<text text-anchor="middle" x="380.34" y="-16.31" font-family="Helvetica,sans-Serif" font-size="10.00">6</text>
</a>
</g>
</g>
<!-- dir_d3b86ce335ad818909ececff0fac1eca&#45;&gt;dir_48ff6375d03f1aa509a6e0480f966544 -->
<g id="edge19" class="edge">
<title>dir_d3b86ce335ad818909ececff0fac1eca&#45;&gt;dir_48ff6375d03f1aa509a6e0480f966544</title>
<path fill="none" stroke="black" d="M448.93,-431.87C416.36,-406.6 355.34,-359.25 318.52,-330.68"/>
<polygon fill="black" stroke="black" points="320.2,-327.55 310.15,-324.19 315.91,-333.08 320.2,-327.55"/>
<g id="a_edge19&#45;headlabel"><a xlink:href="dir_000026_000008.html" target="_top" xlink:title="12">
<text text-anchor="middle" x="324.78" y="-325.02" font-family="Helvetica,sans-Serif" font-size="10.00">12</text>
</a>
</g>
</g>
<!-- dir_d3b86ce335ad818909ececff0fac1eca&#45;&gt;dir_a0a785b8d726fb513b94381e63693443 -->
<g id="edge20" class="edge">
<title>dir_d3b86ce335ad818909ececff0fac1eca&#45;&gt;dir_a0a785b8d726fb513b94381e63693443</title>
<path fill="none" stroke="black" d="M441.36,-431.97C430.75,-426.36 418.56,-420.42 407,-416 373.97,-403.38 363.66,-406.83 330,-396 328.59,-395.55 327.15,-395.07 325.71,-394.58"/>
<polygon fill="black" stroke="black" points="326.73,-391.23 316.13,-391.17 324.38,-397.82 326.73,-391.23"/>
<g id="a_edge20&#45;headlabel"><a xlink:href="dir_000026_000025.html" target="_top" xlink:title="14">
<text text-anchor="middle" x="331.07" y="-387.26" font-family="Helvetica,sans-Serif" font-size="10.00">14</text>
</a>
</g>
</g>
<!-- dir_fd1e11fb0964f7346e999e146b0dfd59&#45;&gt;dir_c541d4b187fc5f863b4735b323978e0f -->
<g id="edge1" class="edge">
<title>dir_fd1e11fb0964f7346e999e146b0dfd59&#45;&gt;dir_c541d4b187fc5f863b4735b323978e0f</title>
<path fill="none" stroke="black" d="M348.74,-36.1C352.66,-43.88 356.64,-53.26 359.77,-61.95"/>
<polygon fill="black" stroke="black" points="356.53,-63.3 362.99,-71.7 363.18,-61.1 356.53,-63.3"/>
<g id="a_edge1&#45;headlabel"><a xlink:href="dir_000017_000013.html" target="_top" xlink:title="2">
<text text-anchor="middle" x="352.71" y="-58.28" font-family="Helvetica,sans-Serif" font-size="10.00">2</text>
</a>
</g>
</g>
<!-- dir_48ff6375d03f1aa509a6e0480f966544&#45;&gt;dir_3f96c34ad80e9031c68706862fabf1a4 -->
<g id="edge34" class="edge">
<title>dir_48ff6375d03f1aa509a6e0480f966544&#45;&gt;dir_3f96c34ad80e9031c68706862fabf1a4</title>
<path fill="none" stroke="black" d="M315.31,-292C337.17,-281.59 368.21,-266.8 393.2,-254.9"/>
<polygon fill="black" stroke="black" points="394.93,-257.96 402.45,-250.5 391.92,-251.64 394.93,-257.96"/>
<g id="a_edge34&#45;headlabel"><a xlink:href="dir_000008_000007.html" target="_top" xlink:title="6">
<text text-anchor="middle" x="392.9" y="-259.57" font-family="Helvetica,sans-Serif" font-size="10.00">6</text>
</a>
</g>
</g>
<!-- dir_48ff6375d03f1aa509a6e0480f966544&#45;&gt;dir_5cbb9a0bf548abf0d2e32772c73d2ad6 -->
<g id="edge35" class="edge">
<title>dir_48ff6375d03f1aa509a6e0480f966544&#45;&gt;dir_5cbb9a0bf548abf0d2e32772c73d2ad6</title>
<path fill="none" stroke="black" d="M282.57,-287.87C274.87,-263.56 260.69,-218.82 251.56,-190.01"/>
<polygon fill="black" stroke="black" points="254.8,-188.66 248.45,-180.19 248.13,-190.78 254.8,-188.66"/>
<g id="a_edge35&#45;headlabel"><a xlink:href="dir_000008_000035.html" target="_top" xlink:title="6">
<text text-anchor="middle" x="258.6" y="-188.73" font-family="Helvetica,sans-Serif" font-size="10.00">6</text>
</a>
</g>
</g>
<!-- dir_48ff6375d03f1aa509a6e0480f966544&#45;&gt;dir_c541d4b187fc5f863b4735b323978e0f -->
<g id="edge36" class="edge">
<title>dir_48ff6375d03f1aa509a6e0480f966544&#45;&gt;dir_c541d4b187fc5f863b4735b323978e0f</title>
<path fill="none" stroke="black" d="M296.5,-287.54C301.34,-277.31 307.34,-264.06 312,-252 329.89,-205.72 346.81,-150.43 356.25,-118.16"/>
<polygon fill="black" stroke="black" points="359.73,-118.72 359.16,-108.14 353.01,-116.77 359.73,-118.72"/>
<g id="a_edge36&#45;headlabel"><a xlink:href="dir_000008_000013.html" target="_top" xlink:title="11">
<text text-anchor="middle" x="361.46" y="-120.46" font-family="Helvetica,sans-Serif" font-size="10.00">11</text>
</a>
</g>
</g>
<!-- dir_48ff6375d03f1aa509a6e0480f966544&#45;&gt;dir_fd1e11fb0964f7346e999e146b0dfd59 -->
<g id="edge37" class="edge">
<title>dir_48ff6375d03f1aa509a6e0480f966544&#45;&gt;dir_fd1e11fb0964f7346e999e146b0dfd59</title>
<path fill="none" stroke="black" d="M290.86,-287.97C298.88,-240.19 321.63,-104.62 331.42,-46.27"/>
<polygon fill="black" stroke="black" points="334.89,-46.75 333.1,-36.31 327.99,-45.59 334.89,-46.75"/>
<g id="a_edge37&#45;headlabel"><a xlink:href="dir_000008_000017.html" target="_top" xlink:title="21">
<text text-anchor="middle" x="337.1" y="-48.26" font-family="Helvetica,sans-Serif" font-size="10.00">21</text>
</a>
</g>
</g>
<!-- dir_a0a785b8d726fb513b94381e63693443&#45;&gt;dir_3f96c34ad80e9031c68706862fabf1a4 -->
<g id="edge43" class="edge">
<title>dir_a0a785b8d726fb513b94381e63693443&#45;&gt;dir_3f96c34ad80e9031c68706862fabf1a4</title>
<path fill="none" stroke="black" d="M303.97,-359.87C330.26,-334.82 379.33,-288.05 409.39,-259.41"/>
<polygon fill="black" stroke="black" points="412.14,-261.62 416.96,-252.19 407.31,-256.55 412.14,-261.62"/>
<g id="a_edge43&#45;headlabel"><a xlink:href="dir_000025_000007.html" target="_top" xlink:title="1">
<text text-anchor="middle" x="411.5" y="-263.66" font-family="Helvetica,sans-Serif" font-size="10.00">1</text>
</a>
</g>
</g>
<!-- dir_a0a785b8d726fb513b94381e63693443&#45;&gt;dir_48ff6375d03f1aa509a6e0480f966544 -->
<g id="edge44" class="edge">
<title>dir_a0a785b8d726fb513b94381e63693443&#45;&gt;dir_48ff6375d03f1aa509a6e0480f966544</title>
<path fill="none" stroke="black" d="M286.49,-359.7C286.71,-351.98 286.98,-342.71 287.23,-334.11"/>
<polygon fill="black" stroke="black" points="290.72,-334.2 287.51,-324.1 283.73,-334 290.72,-334.2"/>
<g id="a_edge44&#45;headlabel"><a xlink:href="dir_000025_000008.html" target="_top" xlink:title="1">
<text text-anchor="middle" x="293.46" y="-335.37" font-family="Helvetica,sans-Serif" font-size="10.00">1</text>
</a>
</g>
</g>
</g>
</svg>
