<?xml version="1.0" encoding="UTF-8" standalone="no"?>
<!DOCTYPE svg PUBLIC "-//W3C//DTD SVG 1.1//EN"
 "http://www.w3.org/Graphics/SVG/1.1/DTD/svg11.dtd">
<!-- Generated by graphviz version 2.43.0 (0)
 -->
<!-- Title: qual Pages: 1 -->
<svg width="292pt" height="663pt"
 viewBox="0.00 0.00 291.50 663.00" xmlns="http://www.w3.org/2000/svg" xmlns:xlink="http://www.w3.org/1999/xlink">
<g id="graph0" class="graph" transform="scale(1 1) rotate(0) translate(4 659)">
<title>qual</title>
<polygon fill="white" stroke="transparent" points="-4,4 -4,-659 287.5,-659 287.5,4 -4,4"/>
<g id="clust1" class="cluster">
<title>clusterdir_d29d847ea07fb74c2c88b7147de27d35</title>
<g id="a_clust1"><a xlink:href="dir_d29d847ea07fb74c2c88b7147de27d35.html" target="_top" xlink:title="packages">
<polygon fill="#ddddee" stroke="black" points="92,-344 92,-647 256,-647 256,-344 92,-344"/>
<text text-anchor="middle" x="174" y="-635" font-family="Helvetica,sans-Serif" font-size="10.00">packages</text>
</a>
</g>
</g>
<g id="clust2" class="cluster">
<title>clusterdir_0a90ca78c76a6bb683a2fd4a8c3281f8</title>
<g id="a_clust2"><a xlink:href="dir_0a90ca78c76a6bb683a2fd4a8c3281f8.html" target="_top">
<polygon fill="#eeeeff" stroke="black" points="100,-352 100,-620 248,-620 248,-352 100,-352"/>
</a>
</g>
</g>
<!-- dir_0a90ca78c76a6bb683a2fd4a8c3281f8 -->
<g id="node1" class="node">
<title>dir_0a90ca78c76a6bb683a2fd4a8c3281f8</title>
<text text-anchor="middle" x="213" y="-591.5" font-family="Helvetica,sans-Serif" font-size="10.00">qual</text>
</g>
<!-- dir_fd5d7134f4fc3905912ada7aa4b1e1cf -->
<g id="node2" class="node">
<title>dir_fd5d7134f4fc3905912ada7aa4b1e1cf</title>
<g id="a_node2"><a xlink:href="dir_fd5d7134f4fc3905912ada7aa4b1e1cf.html" target="_top" xlink:title="common">
<polygon fill="white" stroke="black" points="167.5,-612 108.5,-612 108.5,-576 167.5,-576 167.5,-612"/>
<text text-anchor="middle" x="138" y="-591.5" font-family="Helvetica,sans-Serif" font-size="10.00">common</text>
</a>
</g>
</g>
<!-- dir_eda3612caf036758c7e7b2fe6230660c -->
<g id="node3" class="node">
<title>dir_eda3612caf036758c7e7b2fe6230660c</title>
<g id="a_node3"><a xlink:href="dir_eda3612caf036758c7e7b2fe6230660c.html" target="_top" xlink:title="extension">
<polygon fill="white" stroke="black" points="173.5,-540 108.5,-540 108.5,-504 173.5,-504 173.5,-540"/>
<text text-anchor="middle" x="141" y="-519.5" font-family="Helvetica,sans-Serif" font-size="10.00">extension</text>
</a>
</g>
</g>
<!-- dir_fd5d7134f4fc3905912ada7aa4b1e1cf&#45;&gt;dir_eda3612caf036758c7e7b2fe6230660c -->
<g id="edge10" class="edge">
<title>dir_fd5d7134f4fc3905912ada7aa4b1e1cf&#45;&gt;dir_eda3612caf036758c7e7b2fe6230660c</title>
<path fill="none" stroke="black" d="M138.74,-575.7C139.07,-567.98 139.47,-558.71 139.84,-550.11"/>
<polygon fill="black" stroke="black" points="143.34,-550.25 140.27,-540.1 136.34,-549.95 143.34,-550.25"/>
<g id="a_edge10&#45;headlabel"><a xlink:href="dir_000053_000052.html" target="_top" xlink:title="3">
<text text-anchor="middle" x="146.02" y="-551.46" font-family="Helvetica,sans-Serif" font-size="10.00">3</text>
</a>
</g>
</g>
<!-- dir_aa5aa98f6df5b802bb45e20a57604d12 -->
<g id="node4" class="node">
<title>dir_aa5aa98f6df5b802bb45e20a57604d12</title>
<g id="a_node4"><a xlink:href="dir_aa5aa98f6df5b802bb45e20a57604d12.html" target="_top" xlink:title="sbml">
<polygon fill="white" stroke="black" points="170,-468 116,-468 116,-432 170,-432 170,-468"/>
<text text-anchor="middle" x="143" y="-447.5" font-family="Helvetica,sans-Serif" font-size="10.00">sbml</text>
</a>
</g>
</g>
<!-- dir_fd5d7134f4fc3905912ada7aa4b1e1cf&#45;&gt;dir_aa5aa98f6df5b802bb45e20a57604d12 -->
<g id="edge9" class="edge">
<title>dir_fd5d7134f4fc3905912ada7aa4b1e1cf&#45;&gt;dir_aa5aa98f6df5b802bb45e20a57604d12</title>
<path fill="none" stroke="black" d="M150.31,-575.53C158.81,-566.09 169.01,-553.6 174,-540 179.52,-524.98 179.08,-519.17 174,-504 170.68,-494.1 164.71,-484.58 158.77,-476.4"/>
<polygon fill="black" stroke="black" points="161.54,-474.25 152.71,-468.4 155.96,-478.48 161.54,-474.25"/>
<g id="a_edge9&#45;headlabel"><a xlink:href="dir_000053_000029.html" target="_top" xlink:title="6">
<text text-anchor="middle" x="165.97" y="-472.9" font-family="Helvetica,sans-Serif" font-size="10.00">6</text>
</a>
</g>
</g>
<!-- dir_eda3612caf036758c7e7b2fe6230660c&#45;&gt;dir_aa5aa98f6df5b802bb45e20a57604d12 -->
<g id="edge19" class="edge">
<title>dir_eda3612caf036758c7e7b2fe6230660c&#45;&gt;dir_aa5aa98f6df5b802bb45e20a57604d12</title>
<path fill="none" stroke="black" d="M135.58,-503.7C135,-495.98 135.04,-486.71 135.63,-478.11"/>
<polygon fill="black" stroke="black" points="139.12,-478.4 136.62,-468.1 132.15,-477.71 139.12,-478.4"/>
<g id="a_edge19&#45;headlabel"><a xlink:href="dir_000052_000029.html" target="_top" xlink:title="2">
<text text-anchor="middle" x="141.59" y="-479.76" font-family="Helvetica,sans-Serif" font-size="10.00">2</text>
</a>
</g>
</g>
<!-- dir_f5fb53e55ba501ec7d605d6902b83c25 -->
<g id="node5" class="node">
<title>dir_f5fb53e55ba501ec7d605d6902b83c25</title>
<g id="a_node5"><a xlink:href="dir_f5fb53e55ba501ec7d605d6902b83c25.html" target="_top" xlink:title="validator">
<polygon fill="white" stroke="black" points="240,-396 180,-396 180,-360 240,-360 240,-396"/>
<text text-anchor="middle" x="210" y="-375.5" font-family="Helvetica,sans-Serif" font-size="10.00">validator</text>
</a>
</g>
</g>
<!-- dir_eda3612caf036758c7e7b2fe6230660c&#45;&gt;dir_f5fb53e55ba501ec7d605d6902b83c25 -->
<g id="edge21" class="edge">
<title>dir_eda3612caf036758c7e7b2fe6230660c&#45;&gt;dir_f5fb53e55ba501ec7d605d6902b83c25</title>
<path fill="none" stroke="black" d="M155.36,-503.68C163.12,-493.7 172.43,-480.66 179,-468 189.32,-448.12 197.46,-424.05 202.81,-405.96"/>
<polygon fill="black" stroke="black" points="206.18,-406.91 205.56,-396.33 199.45,-404.98 206.18,-406.91"/>
<g id="a_edge21&#45;headlabel"><a xlink:href="dir_000052_000051.html" target="_top" xlink:title="6">
<text text-anchor="middle" x="207.92" y="-408.64" font-family="Helvetica,sans-Serif" font-size="10.00">6</text>
</a>
</g>
</g>
<!-- dir_3f96c34ad80e9031c68706862fabf1a4 -->
<g id="node6" class="node">
<title>dir_3f96c34ad80e9031c68706862fabf1a4</title>
<g id="a_node6"><a xlink:href="dir_3f96c34ad80e9031c68706862fabf1a4.html" target="_top" xlink:title="extension">
<polygon fill="none" stroke="black" points="283.5,-180 218.5,-180 218.5,-144 283.5,-144 283.5,-180"/>
<text text-anchor="middle" x="251" y="-159.5" font-family="Helvetica,sans-Serif" font-size="10.00">extension</text>
</a>
</g>
</g>
<!-- dir_eda3612caf036758c7e7b2fe6230660c&#45;&gt;dir_3f96c34ad80e9031c68706862fabf1a4 -->
<g id="edge18" class="edge">
<title>dir_eda3612caf036758c7e7b2fe6230660c&#45;&gt;dir_3f96c34ad80e9031c68706862fabf1a4</title>
<path fill="none" stroke="black" d="M172.39,-503.94C210,-480.95 268,-436.22 268,-379 268,-379 268,-379 268,-305 268,-264.93 261.24,-218.95 256.25,-190.43"/>
<polygon fill="black" stroke="black" points="259.66,-189.63 254.44,-180.41 252.77,-190.87 259.66,-189.63"/>
<g id="a_edge18&#45;headlabel"><a xlink:href="dir_000052_000007.html" target="_top" xlink:title="9">
<text text-anchor="middle" x="263.09" y="-190.16" font-family="Helvetica,sans-Serif" font-size="10.00">9</text>
</a>
</g>
</g>
<!-- dir_c541d4b187fc5f863b4735b323978e0f -->
<g id="node7" class="node">
<title>dir_c541d4b187fc5f863b4735b323978e0f</title>
<g id="a_node7"><a xlink:href="dir_c541d4b187fc5f863b4735b323978e0f.html" target="_top" xlink:title="util">
<polygon fill="none" stroke="black" points="160,-108 106,-108 106,-72 160,-72 160,-108"/>
<text text-anchor="middle" x="133" y="-87.5" font-family="Helvetica,sans-Serif" font-size="10.00">util</text>
</a>
</g>
</g>
<!-- dir_eda3612caf036758c7e7b2fe6230660c&#45;&gt;dir_c541d4b187fc5f863b4735b323978e0f -->
<g id="edge20" class="edge">
<title>dir_eda3612caf036758c7e7b2fe6230660c&#45;&gt;dir_c541d4b187fc5f863b4735b323978e0f</title>
<path fill="none" stroke="black" d="M117.37,-503.97C86.96,-479.89 38,-432.75 38,-379 38,-379 38,-379 38,-233 38,-185.01 75.94,-140.96 103.87,-115.04"/>
<polygon fill="black" stroke="black" points="106.35,-117.52 111.44,-108.22 101.67,-112.31 106.35,-117.52"/>
<g id="a_edge20&#45;headlabel"><a xlink:href="dir_000052_000013.html" target="_top" xlink:title="1">
<text text-anchor="middle" x="105.58" y="-119.53" font-family="Helvetica,sans-Serif" font-size="10.00">1</text>
</a>
</g>
</g>
<!-- dir_fd1e11fb0964f7346e999e146b0dfd59 -->
<g id="node8" class="node">
<title>dir_fd1e11fb0964f7346e999e146b0dfd59</title>
<g id="a_node8"><a xlink:href="dir_fd1e11fb0964f7346e999e146b0dfd59.html" target="_top" xlink:title="common">
<polygon fill="none" stroke="black" points="162.5,-36 103.5,-36 103.5,0 162.5,0 162.5,-36"/>
<text text-anchor="middle" x="133" y="-15.5" font-family="Helvetica,sans-Serif" font-size="10.00">common</text>
</a>
</g>
</g>
<!-- dir_eda3612caf036758c7e7b2fe6230660c&#45;&gt;dir_fd1e11fb0964f7346e999e146b0dfd59 -->
<g id="edge22" class="edge">
<title>dir_eda3612caf036758c7e7b2fe6230660c&#45;&gt;dir_fd1e11fb0964f7346e999e146b0dfd59</title>
<path fill="none" stroke="black" d="M108.3,-507.89C88.97,-498.88 65.01,-485.41 48,-468 16.6,-435.85 0,-423.94 0,-379 0,-379 0,-379 0,-161 0,-105.34 55.11,-62.5 94.38,-39.04"/>
<polygon fill="black" stroke="black" points="96.58,-41.81 103.48,-33.77 93.07,-35.75 96.58,-41.81"/>
<g id="a_edge22&#45;headlabel"><a xlink:href="dir_000052_000017.html" target="_top" xlink:title="3">
<text text-anchor="middle" x="94.89" y="-43.56" font-family="Helvetica,sans-Serif" font-size="10.00">3</text>
</a>
</g>
</g>
<!-- dir_aa5aa98f6df5b802bb45e20a57604d12&#45;&gt;dir_fd5d7134f4fc3905912ada7aa4b1e1cf -->
<g id="edge8" class="edge">
<title>dir_aa5aa98f6df5b802bb45e20a57604d12&#45;&gt;dir_fd5d7134f4fc3905912ada7aa4b1e1cf</title>
<path fill="none" stroke="black" d="M168.76,-468.4C178.24,-478 187.53,-490.66 192,-504 197.08,-519.17 197.52,-524.98 192,-540 188.14,-550.5 181.19,-560.34 173.45,-568.62"/>
<polygon fill="black" stroke="black" points="170.86,-566.26 166.19,-575.77 175.77,-571.24 170.86,-566.26"/>
<g id="a_edge8&#45;headlabel"><a xlink:href="dir_000029_000053.html" target="_top" xlink:title="6">
<text text-anchor="middle" x="171.43" y="-559.21" font-family="Helvetica,sans-Serif" font-size="10.00">6</text>
</a>
</g>
</g>
<!-- dir_aa5aa98f6df5b802bb45e20a57604d12&#45;&gt;dir_eda3612caf036758c7e7b2fe6230660c -->
<g id="edge5" class="edge">
<title>dir_aa5aa98f6df5b802bb45e20a57604d12&#45;&gt;dir_eda3612caf036758c7e7b2fe6230660c</title>
<path fill="none" stroke="black" d="M148.41,-468.1C148.99,-475.79 148.96,-485.05 148.39,-493.67"/>
<polygon fill="black" stroke="black" points="144.89,-493.4 147.41,-503.7 151.86,-494.08 144.89,-493.4"/>
<g id="a_edge5&#45;headlabel"><a xlink:href="dir_000029_000052.html" target="_top" xlink:title="6">
<text text-anchor="middle" x="142.42" y="-487.05" font-family="Helvetica,sans-Serif" font-size="10.00">6</text>
</a>
</g>
</g>
<!-- dir_aa5aa98f6df5b802bb45e20a57604d12&#45;&gt;dir_f5fb53e55ba501ec7d605d6902b83c25 -->
<g id="edge6" class="edge">
<title>dir_aa5aa98f6df5b802bb45e20a57604d12&#45;&gt;dir_f5fb53e55ba501ec7d605d6902b83c25</title>
<path fill="none" stroke="black" d="M159.56,-431.7C167.68,-423.22 177.59,-412.86 186.47,-403.58"/>
<polygon fill="black" stroke="black" points="189.24,-405.75 193.63,-396.1 184.19,-400.91 189.24,-405.75"/>
<g id="a_edge6&#45;headlabel"><a xlink:href="dir_000029_000051.html" target="_top" xlink:title="6">
<text text-anchor="middle" x="188.81" y="-407.81" font-family="Helvetica,sans-Serif" font-size="10.00">6</text>
</a>
</g>
</g>
<!-- dir_aa5aa98f6df5b802bb45e20a57604d12&#45;&gt;dir_c541d4b187fc5f863b4735b323978e0f -->
<g id="edge4" class="edge">
<title>dir_aa5aa98f6df5b802bb45e20a57604d12&#45;&gt;dir_c541d4b187fc5f863b4735b323978e0f</title>
<path fill="none" stroke="black" d="M137.13,-431.74C128.66,-405.25 114,-352.79 114,-307 114,-307 114,-307 114,-233 114,-192.86 121.55,-146.9 127.13,-118.4"/>
<polygon fill="black" stroke="black" points="130.61,-118.88 129.16,-108.39 123.74,-117.5 130.61,-118.88"/>
<g id="a_edge4&#45;headlabel"><a xlink:href="dir_000029_000013.html" target="_top" xlink:title="2">
<text text-anchor="middle" x="132.68" y="-120.47" font-family="Helvetica,sans-Serif" font-size="10.00">2</text>
</a>
</g>
</g>
<!-- dir_aa5aa98f6df5b802bb45e20a57604d12&#45;&gt;dir_fd1e11fb0964f7346e999e146b0dfd59 -->
<g id="edge7" class="edge">
<title>dir_aa5aa98f6df5b802bb45e20a57604d12&#45;&gt;dir_fd1e11fb0964f7346e999e146b0dfd59</title>
<path fill="none" stroke="black" d="M128.79,-431.86C109.12,-406.34 76,-356.07 76,-307 76,-307 76,-307 76,-161 76,-120.36 80.64,-109.21 97,-72 101.19,-62.48 107.12,-52.84 112.96,-44.44"/>
<polygon fill="black" stroke="black" points="115.9,-46.35 118.94,-36.2 110.24,-42.24 115.9,-46.35"/>
<g id="a_edge7&#45;headlabel"><a xlink:href="dir_000029_000017.html" target="_top" xlink:title="12">
<text text-anchor="middle" x="116.09" y="-48.42" font-family="Helvetica,sans-Serif" font-size="10.00">12</text>
</a>
</g>
</g>
<!-- dir_48ff6375d03f1aa509a6e0480f966544 -->
<g id="node9" class="node">
<title>dir_48ff6375d03f1aa509a6e0480f966544</title>
<g id="a_node9"><a xlink:href="dir_48ff6375d03f1aa509a6e0480f966544.html" target="_top" xlink:title="math">
<polygon fill="none" stroke="black" points="202,-252 148,-252 148,-216 202,-216 202,-252"/>
<text text-anchor="middle" x="175" y="-231.5" font-family="Helvetica,sans-Serif" font-size="10.00">math</text>
</a>
</g>
</g>
<!-- dir_aa5aa98f6df5b802bb45e20a57604d12&#45;&gt;dir_48ff6375d03f1aa509a6e0480f966544 -->
<g id="edge3" class="edge">
<title>dir_aa5aa98f6df5b802bb45e20a57604d12&#45;&gt;dir_48ff6375d03f1aa509a6e0480f966544</title>
<path fill="none" stroke="black" d="M145.56,-431.85C151.1,-394.83 164.21,-307.18 170.9,-262.39"/>
<polygon fill="black" stroke="black" points="174.41,-262.64 172.42,-252.23 167.48,-261.6 174.41,-262.64"/>
<g id="a_edge3&#45;headlabel"><a xlink:href="dir_000029_000008.html" target="_top" xlink:title="1">
<text text-anchor="middle" x="176.68" y="-264.12" font-family="Helvetica,sans-Serif" font-size="10.00">1</text>
</a>
</g>
</g>
<!-- dir_f5fb53e55ba501ec7d605d6902b83c25&#45;&gt;dir_fd5d7134f4fc3905912ada7aa4b1e1cf -->
<g id="edge15" class="edge">
<title>dir_f5fb53e55ba501ec7d605d6902b83c25&#45;&gt;dir_fd5d7134f4fc3905912ada7aa4b1e1cf</title>
<path fill="none" stroke="black" d="M211.18,-396.44C212.52,-427.11 212.07,-491.98 189,-540 183.82,-550.77 175.62,-560.75 167.29,-569.08"/>
<polygon fill="black" stroke="black" points="164.88,-566.54 160.01,-575.95 169.68,-571.63 164.88,-566.54"/>
<g id="a_edge15&#45;headlabel"><a xlink:href="dir_000051_000053.html" target="_top" xlink:title="1">
<text text-anchor="middle" x="165.54" y="-559.51" font-family="Helvetica,sans-Serif" font-size="10.00">1</text>
</a>
</g>
</g>
<!-- dir_a0a785b8d726fb513b94381e63693443 -->
<g id="node10" class="node">
<title>dir_a0a785b8d726fb513b94381e63693443</title>
<g id="a_node10"><a xlink:href="dir_a0a785b8d726fb513b94381e63693443.html" target="_top" xlink:title="validator">
<polygon fill="none" stroke="black" points="240,-324 180,-324 180,-288 240,-288 240,-324"/>
<text text-anchor="middle" x="210" y="-303.5" font-family="Helvetica,sans-Serif" font-size="10.00">validator</text>
</a>
</g>
</g>
<!-- dir_f5fb53e55ba501ec7d605d6902b83c25&#45;&gt;dir_a0a785b8d726fb513b94381e63693443 -->
<g id="edge14" class="edge">
<title>dir_f5fb53e55ba501ec7d605d6902b83c25&#45;&gt;dir_a0a785b8d726fb513b94381e63693443</title>
<path fill="none" stroke="black" d="M210,-359.7C210,-351.98 210,-342.71 210,-334.11"/>
<polygon fill="black" stroke="black" points="213.5,-334.1 210,-324.1 206.5,-334.1 213.5,-334.1"/>
<g id="a_edge14&#45;headlabel"><a xlink:href="dir_000051_000025.html" target="_top" xlink:title="2">
<text text-anchor="middle" x="216.34" y="-335.2" font-family="Helvetica,sans-Serif" font-size="10.00">2</text>
</a>
</g>
</g>
<!-- dir_3f96c34ad80e9031c68706862fabf1a4&#45;&gt;dir_c541d4b187fc5f863b4735b323978e0f -->
<g id="edge16" class="edge">
<title>dir_3f96c34ad80e9031c68706862fabf1a4&#45;&gt;dir_c541d4b187fc5f863b4735b323978e0f</title>
<path fill="none" stroke="black" d="M222.13,-143.88C206.24,-134.45 186.37,-122.66 169.42,-112.61"/>
<polygon fill="black" stroke="black" points="170.74,-109.32 160.35,-107.23 167.17,-115.34 170.74,-109.32"/>
<g id="a_edge16&#45;headlabel"><a xlink:href="dir_000007_000013.html" target="_top" xlink:title="4">
<text text-anchor="middle" x="175.28" y="-106.21" font-family="Helvetica,sans-Serif" font-size="10.00">4</text>
</a>
</g>
</g>
<!-- dir_3f96c34ad80e9031c68706862fabf1a4&#45;&gt;dir_fd1e11fb0964f7346e999e146b0dfd59 -->
<g id="edge17" class="edge">
<title>dir_3f96c34ad80e9031c68706862fabf1a4&#45;&gt;dir_fd1e11fb0964f7346e999e146b0dfd59</title>
<path fill="none" stroke="black" d="M244.65,-143.91C237.02,-124.92 222.86,-94.04 204,-72 194.34,-60.71 181.87,-50.4 170.08,-41.93"/>
<polygon fill="black" stroke="black" points="171.88,-38.92 161.66,-36.11 167.89,-44.68 171.88,-38.92"/>
<g id="a_edge17&#45;headlabel"><a xlink:href="dir_000007_000017.html" target="_top" xlink:title="9">
<text text-anchor="middle" x="176.45" y="-36.13" font-family="Helvetica,sans-Serif" font-size="10.00">9</text>
</a>
</g>
</g>
<!-- dir_c541d4b187fc5f863b4735b323978e0f&#45;&gt;dir_fd1e11fb0964f7346e999e146b0dfd59 -->
<g id="edge2" class="edge">
<title>dir_c541d4b187fc5f863b4735b323978e0f&#45;&gt;dir_fd1e11fb0964f7346e999e146b0dfd59</title>
<path fill="none" stroke="black" d="M127.08,-71.7C126.29,-63.98 126.06,-54.71 126.4,-46.11"/>
<polygon fill="black" stroke="black" points="129.9,-46.32 127.1,-36.1 122.92,-45.84 129.9,-46.32"/>
<g id="a_edge2&#45;headlabel"><a xlink:href="dir_000013_000017.html" target="_top" xlink:title="6">
<text text-anchor="middle" x="132.48" y="-47.61" font-family="Helvetica,sans-Serif" font-size="10.00">6</text>
</a>
</g>
</g>
<!-- dir_fd1e11fb0964f7346e999e146b0dfd59&#45;&gt;dir_c541d4b187fc5f863b4735b323978e0f -->
<g id="edge1" class="edge">
<title>dir_fd1e11fb0964f7346e999e146b0dfd59&#45;&gt;dir_c541d4b187fc5f863b4735b323978e0f</title>
<path fill="none" stroke="black" d="M138.9,-36.1C139.7,-43.79 139.94,-53.05 139.6,-61.67"/>
<polygon fill="black" stroke="black" points="136.11,-61.48 138.92,-71.7 143.09,-61.96 136.11,-61.48"/>
<g id="a_edge1&#45;headlabel"><a xlink:href="dir_000017_000013.html" target="_top" xlink:title="2">
<text text-anchor="middle" x="133.52" y="-55.2" font-family="Helvetica,sans-Serif" font-size="10.00">2</text>
</a>
</g>
</g>
<!-- dir_48ff6375d03f1aa509a6e0480f966544&#45;&gt;dir_3f96c34ad80e9031c68706862fabf1a4 -->
<g id="edge11" class="edge">
<title>dir_48ff6375d03f1aa509a6e0480f966544&#45;&gt;dir_3f96c34ad80e9031c68706862fabf1a4</title>
<path fill="none" stroke="black" d="M193.79,-215.7C203.17,-207.05 214.68,-196.45 224.91,-187.03"/>
<polygon fill="black" stroke="black" points="227.45,-189.45 232.43,-180.1 222.7,-184.3 227.45,-189.45"/>
<g id="a_edge11&#45;headlabel"><a xlink:href="dir_000008_000007.html" target="_top" xlink:title="6">
<text text-anchor="middle" x="226.72" y="-191.48" font-family="Helvetica,sans-Serif" font-size="10.00">6</text>
</a>
</g>
</g>
<!-- dir_48ff6375d03f1aa509a6e0480f966544&#45;&gt;dir_c541d4b187fc5f863b4735b323978e0f -->
<g id="edge12" class="edge">
<title>dir_48ff6375d03f1aa509a6e0480f966544&#45;&gt;dir_c541d4b187fc5f863b4735b323978e0f</title>
<path fill="none" stroke="black" d="M169.93,-215.87C162.74,-191.56 149.51,-146.82 140.99,-118.01"/>
<polygon fill="black" stroke="black" points="144.28,-116.79 138.08,-108.19 137.56,-118.77 144.28,-116.79"/>
<g id="a_edge12&#45;headlabel"><a xlink:href="dir_000008_000013.html" target="_top" xlink:title="11">
<text text-anchor="middle" x="148.02" y="-116.93" font-family="Helvetica,sans-Serif" font-size="10.00">11</text>
</a>
</g>
</g>
<!-- dir_48ff6375d03f1aa509a6e0480f966544&#45;&gt;dir_fd1e11fb0964f7346e999e146b0dfd59 -->
<g id="edge13" class="edge">
<title>dir_48ff6375d03f1aa509a6e0480f966544&#45;&gt;dir_fd1e11fb0964f7346e999e146b0dfd59</title>
<path fill="none" stroke="black" d="M177.42,-215.53C180.94,-185.37 185.39,-121.97 169,-72 165.81,-62.27 160.26,-52.69 154.46,-44.4"/>
<polygon fill="black" stroke="black" points="157.2,-42.22 148.41,-36.29 151.58,-46.4 157.2,-42.22"/>
<g id="a_edge13&#45;headlabel"><a xlink:href="dir_000008_000017.html" target="_top" xlink:title="21">
<text text-anchor="middle" x="161.62" y="-40.9" font-family="Helvetica,sans-Serif" font-size="10.00">21</text>
</a>
</g>
</g>
<!-- dir_a0a785b8d726fb513b94381e63693443&#45;&gt;dir_3f96c34ad80e9031c68706862fabf1a4 -->
<g id="edge23" class="edge">
<title>dir_a0a785b8d726fb513b94381e63693443&#45;&gt;dir_3f96c34ad80e9031c68706862fabf1a4</title>
<path fill="none" stroke="black" d="M214.95,-287.87C221.96,-263.56 234.88,-218.82 243.2,-190.01"/>
<polygon fill="black" stroke="black" points="246.63,-190.77 246.04,-180.19 239.9,-188.83 246.63,-190.77"/>
<g id="a_edge23&#45;headlabel"><a xlink:href="dir_000025_000007.html" target="_top" xlink:title="1">
<text text-anchor="middle" x="248.36" y="-192.51" font-family="Helvetica,sans-Serif" font-size="10.00">1</text>
</a>
</g>
</g>
<!-- dir_a0a785b8d726fb513b94381e63693443&#45;&gt;dir_48ff6375d03f1aa509a6e0480f966544 -->
<g id="edge24" class="edge">
<title>dir_a0a785b8d726fb513b94381e63693443&#45;&gt;dir_48ff6375d03f1aa509a6e0480f966544</title>
<path fill="none" stroke="black" d="M201.35,-287.7C197.36,-279.73 192.55,-270.1 188.13,-261.26"/>
<polygon fill="black" stroke="black" points="191.15,-259.48 183.55,-252.1 184.89,-262.61 191.15,-259.48"/>
<g id="a_edge24&#45;headlabel"><a xlink:href="dir_000025_000008.html" target="_top" xlink:title="1">
<text text-anchor="middle" x="195.3" y="-258.93" font-family="Helvetica,sans-Serif" font-size="10.00">1</text>
</a>
</g>
</g>
</g>
</svg>
