<?xml version="1.0" encoding="UTF-8" standalone="no"?>
<!DOCTYPE svg PUBLIC "-//W3C//DTD SVG 1.1//EN"
 "http://www.w3.org/Graphics/SVG/1.1/DTD/svg11.dtd">
<!-- Generated by graphviz version 2.43.0 (0)
 -->
<!-- Title: extension Pages: 1 -->
<!--zoomable 511 -->
<svg id="main" version="1.1" xmlns="http://www.w3.org/2000/svg" xmlns:xlink="http://www.w3.org/1999/xlink" xml:space="preserve" onload="init(evt)">
<style type="text/css"><![CDATA[
.edge:hover path { stroke: red; }
.edge:hover polygon { stroke: red; fill: red; }
]]></style>
<script type="text/javascript"><![CDATA[
var edges = document.getElementsByTagName('g');
if (edges && edges.length) {
  for (var i=0;i<edges.length;i++) {
    if (edges[i].id.substr(0,4)=='edge') {
      edges[i].setAttribute('class','edge');
    }
  }
}
]]></script>
        <defs>
                <circle id="rim" cx="0" cy="0" r="7"/>
                <circle id="rim2" cx="0" cy="0" r="3.5"/>
                <g id="zoomPlus">
                        <use xlink:href="#rim" fill="#404040">
                                <set attributeName="fill" to="#808080" begin="zoomplus.mouseover" end="zoomplus.mouseout"/>
                        </use>
                        <path d="M-4,0h8M0,-4v8" fill="none" stroke="white" stroke-width="1.5" pointer-events="none"/>
                </g>
                <g id="zoomMin">
                        <use xlink:href="#rim" fill="#404040">
                                <set attributeName="fill" to="#808080" begin="zoomminus.mouseover" end="zoomminus.mouseout"/>
                        </use>
                        <path d="M-4,0h8" fill="none" stroke="white" stroke-width="1.5" pointer-events="none"/>
                </g>
                <g id="dirArrow">
                        <path fill="none" stroke="white" stroke-width="1.5" d="M0,-3.0v7 M-2.5,-0.5L0,-3.0L2.5,-0.5"/>
                </g>
               <g id="resetDef">
                       <use xlink:href="#rim2" fill="#404040">
                               <set attributeName="fill" to="#808080" begin="reset.mouseover" end="reset.mouseout"/>
                       </use>
               </g>
        </defs>

<script type="text/javascript">
var viewWidth = 476;
var viewHeight = 511;
var sectionId = 'dynsection-0';
</script>
<script xlink:href="svgpan.js"/>
<svg id="graph" class="graph">
<g id="viewport">
<title>extension</title>
<polygon fill="white" stroke="transparent" points="-4,4 -4,-507 472,-507 472,4 -4,4"/>
<g id="clust1" class="cluster">
<title>clusterdir_56d603006930d6f32ca38bb932b49787</title>
<g id="a_clust1"><a xlink:href="dir_56d603006930d6f32ca38bb932b49787.html" target="_top" xlink:title="layout">
<polygon fill="#ddddee" stroke="black" points="294,-136 294,-495 416,-495 416,-136 294,-136"/>
<text text-anchor="middle" x="355" y="-483" font-family="Helvetica,sans-Serif" font-size="10.00">layout</text>
</a>
</g>
</g>
<!-- dir_4843a4f4b536048b06467fd8eed65856 -->
<g id="node1" class="node">
<title>dir_4843a4f4b536048b06467fd8eed65856</title>
<g id="a_node1"><a xlink:href="dir_4843a4f4b536048b06467fd8eed65856.html" target="_top" xlink:title="util">
<polygon fill="none" stroke="black" points="356,-468 302,-468 302,-432 356,-432 356,-468"/>
<text text-anchor="middle" x="329" y="-447.5" font-family="Helvetica,sans-Serif" font-size="10.00">util</text>
</a>
</g>
</g>
<!-- dir_88ac4bf79705bb8559b852278d35d8da -->
<g id="node2" class="node">
<title>dir_88ac4bf79705bb8559b852278d35d8da</title>
<g id="a_node2"><a xlink:href="dir_88ac4bf79705bb8559b852278d35d8da.html" target="_top" xlink:title="sbml">
<polygon fill="none" stroke="black" points="356,-396 302,-396 302,-360 356,-360 356,-396"/>
<text text-anchor="middle" x="329" y="-375.5" font-family="Helvetica,sans-Serif" font-size="10.00">sbml</text>
</a>
</g>
</g>
<!-- dir_4843a4f4b536048b06467fd8eed65856&#45;&gt;dir_88ac4bf79705bb8559b852278d35d8da -->
<g id="edge28" class="edge">
<title>dir_4843a4f4b536048b06467fd8eed65856&#45;&gt;dir_88ac4bf79705bb8559b852278d35d8da</title>
<path fill="none" stroke="black" d="M323.08,-431.7C322.29,-423.98 322.06,-414.71 322.4,-406.11"/>
<polygon fill="black" stroke="black" points="325.9,-406.32 323.1,-396.1 318.92,-405.84 325.9,-406.32"/>
<g id="a_edge28&#45;headlabel"><a xlink:href="dir_000044_000012.html" target="_top" xlink:title="3">
<text text-anchor="middle" x="328.48" y="-407.61" font-family="Helvetica,sans-Serif" font-size="10.00">3</text>
</a>
</g>
</g>
<!-- dir_469dd4fe8a06b7a018d55910fd20ec61 -->
<g id="node5" class="node">
<title>dir_469dd4fe8a06b7a018d55910fd20ec61</title>
<g id="a_node5"><a xlink:href="dir_469dd4fe8a06b7a018d55910fd20ec61.html" target="_top" xlink:title="extension">
<polygon fill="#eeeeff" stroke="black" points="407.5,-324 342.5,-324 342.5,-288 407.5,-288 407.5,-324"/>
<text text-anchor="middle" x="375" y="-303.5" font-family="Helvetica,sans-Serif" font-size="10.00">extension</text>
</a>
</g>
</g>
<!-- dir_4843a4f4b536048b06467fd8eed65856&#45;&gt;dir_469dd4fe8a06b7a018d55910fd20ec61 -->
<g id="edge26" class="edge">
<title>dir_4843a4f4b536048b06467fd8eed65856&#45;&gt;dir_469dd4fe8a06b7a018d55910fd20ec61</title>
<path fill="none" stroke="black" d="M336.05,-431.58C342.62,-421.78 351.22,-408.94 356,-396 363.32,-376.22 365.69,-352.42 367.64,-334.41"/>
<polygon fill="black" stroke="black" points="371.14,-334.63 368.8,-324.29 364.18,-333.82 371.14,-334.63"/>
<g id="a_edge26&#45;headlabel"><a xlink:href="dir_000044_000046.html" target="_top" xlink:title="2">
<text text-anchor="middle" x="373.54" y="-336.02" font-family="Helvetica,sans-Serif" font-size="10.00">2</text>
</a>
</g>
</g>
<!-- dir_5cbb9a0bf548abf0d2e32772c73d2ad6 -->
<g id="node7" class="node">
<title>dir_5cbb9a0bf548abf0d2e32772c73d2ad6</title>
<g id="a_node7"><a xlink:href="dir_5cbb9a0bf548abf0d2e32772c73d2ad6.html" target="_top" xlink:title="xml">
<polygon fill="none" stroke="black" points="180,-180 126,-180 126,-144 180,-144 180,-180"/>
<text text-anchor="middle" x="153" y="-159.5" font-family="Helvetica,sans-Serif" font-size="10.00">xml</text>
</a>
</g>
</g>
<!-- dir_4843a4f4b536048b06467fd8eed65856&#45;&gt;dir_5cbb9a0bf548abf0d2e32772c73d2ad6 -->
<g id="edge27" class="edge">
<title>dir_4843a4f4b536048b06467fd8eed65856&#45;&gt;dir_5cbb9a0bf548abf0d2e32772c73d2ad6</title>
<path fill="none" stroke="black" d="M304.75,-431.84C264.12,-401.29 184.16,-333.02 158,-252 151.55,-232.03 150.53,-208.24 151,-190.28"/>
<polygon fill="black" stroke="black" points="154.5,-190.34 151.43,-180.2 147.51,-190.04 154.5,-190.34"/>
<g id="a_edge27&#45;headlabel"><a xlink:href="dir_000044_000035.html" target="_top" xlink:title="6">
<text text-anchor="middle" x="157.18" y="-191.55" font-family="Helvetica,sans-Serif" font-size="10.00">6</text>
</a>
</g>
</g>
<!-- dir_c541d4b187fc5f863b4735b323978e0f -->
<g id="node8" class="node">
<title>dir_c541d4b187fc5f863b4735b323978e0f</title>
<g id="a_node8"><a xlink:href="dir_c541d4b187fc5f863b4735b323978e0f.html" target="_top" xlink:title="util">
<polygon fill="none" stroke="black" points="152,-108 98,-108 98,-72 152,-72 152,-108"/>
<text text-anchor="middle" x="125" y="-87.5" font-family="Helvetica,sans-Serif" font-size="10.00">util</text>
</a>
</g>
</g>
<!-- dir_4843a4f4b536048b06467fd8eed65856&#45;&gt;dir_c541d4b187fc5f863b4735b323978e0f -->
<g id="edge29" class="edge">
<title>dir_4843a4f4b536048b06467fd8eed65856&#45;&gt;dir_c541d4b187fc5f863b4735b323978e0f</title>
<path fill="none" stroke="black" d="M301.8,-449.55C222.97,-449.59 0,-438.11 0,-307 0,-307 0,-307 0,-233 0,-178.57 52.38,-135.11 89.32,-111.22"/>
<polygon fill="black" stroke="black" points="91.26,-114.13 97.88,-105.86 87.55,-108.2 91.26,-114.13"/>
<g id="a_edge29&#45;headlabel"><a xlink:href="dir_000044_000013.html" target="_top" xlink:title="2">
<text text-anchor="middle" x="89.73" y="-115.95" font-family="Helvetica,sans-Serif" font-size="10.00">2</text>
</a>
</g>
</g>
<!-- dir_fd1e11fb0964f7346e999e146b0dfd59 -->
<g id="node9" class="node">
<title>dir_fd1e11fb0964f7346e999e146b0dfd59</title>
<g id="a_node9"><a xlink:href="dir_fd1e11fb0964f7346e999e146b0dfd59.html" target="_top" xlink:title="common">
<polygon fill="none" stroke="black" points="209.5,-36 150.5,-36 150.5,0 209.5,0 209.5,-36"/>
<text text-anchor="middle" x="180" y="-15.5" font-family="Helvetica,sans-Serif" font-size="10.00">common</text>
</a>
</g>
</g>
<!-- dir_4843a4f4b536048b06467fd8eed65856&#45;&gt;dir_fd1e11fb0964f7346e999e146b0dfd59 -->
<g id="edge30" class="edge">
<title>dir_4843a4f4b536048b06467fd8eed65856&#45;&gt;dir_fd1e11fb0964f7346e999e146b0dfd59</title>
<path fill="none" stroke="black" d="M356.13,-436.52C396.58,-415.81 468,-370.3 468,-307 468,-307 468,-307 468,-161 468,-51.63 298.85,-26.5 219.81,-20.72"/>
<polygon fill="black" stroke="black" points="219.95,-17.22 209.74,-20.05 219.48,-24.21 219.95,-17.22"/>
<g id="a_edge30&#45;headlabel"><a xlink:href="dir_000044_000017.html" target="_top" xlink:title="4">
<text text-anchor="middle" x="223.72" y="-12.13" font-family="Helvetica,sans-Serif" font-size="10.00">4</text>
</a>
</g>
</g>
<!-- dir_88ac4bf79705bb8559b852278d35d8da&#45;&gt;dir_4843a4f4b536048b06467fd8eed65856 -->
<g id="edge5" class="edge">
<title>dir_88ac4bf79705bb8559b852278d35d8da&#45;&gt;dir_4843a4f4b536048b06467fd8eed65856</title>
<path fill="none" stroke="black" d="M334.9,-396.1C335.7,-403.79 335.94,-413.05 335.6,-421.67"/>
<polygon fill="black" stroke="black" points="332.11,-421.48 334.92,-431.7 339.09,-421.96 332.11,-421.48"/>
<g id="a_edge5&#45;headlabel"><a xlink:href="dir_000012_000044.html" target="_top" xlink:title="15">
<text text-anchor="middle" x="329.52" y="-415.2" font-family="Helvetica,sans-Serif" font-size="10.00">15</text>
</a>
</g>
</g>
<!-- dir_e8a3015d30ced03ce97057fe372cd335 -->
<g id="node3" class="node">
<title>dir_e8a3015d30ced03ce97057fe372cd335</title>
<g id="a_node3"><a xlink:href="dir_e8a3015d30ced03ce97057fe372cd335.html" target="_top" xlink:title="common">
<polygon fill="none" stroke="black" points="381.5,-180 322.5,-180 322.5,-144 381.5,-144 381.5,-180"/>
<text text-anchor="middle" x="352" y="-159.5" font-family="Helvetica,sans-Serif" font-size="10.00">common</text>
</a>
</g>
</g>
<!-- dir_88ac4bf79705bb8559b852278d35d8da&#45;&gt;dir_e8a3015d30ced03ce97057fe372cd335 -->
<g id="edge8" class="edge">
<title>dir_88ac4bf79705bb8559b852278d35d8da&#45;&gt;dir_e8a3015d30ced03ce97057fe372cd335</title>
<path fill="none" stroke="black" d="M317.29,-359.58C303.88,-329.48 287.53,-266.17 304,-216 307.35,-205.8 313.49,-195.95 320.38,-187.56"/>
<polygon fill="black" stroke="black" points="323.07,-189.79 327.13,-180.01 317.86,-185.13 323.07,-189.79"/>
<g id="a_edge8&#45;headlabel"><a xlink:href="dir_000012_000047.html" target="_top" xlink:title="16">
<text text-anchor="middle" x="322.79" y="-191.87" font-family="Helvetica,sans-Serif" font-size="10.00">16</text>
</a>
</g>
</g>
<!-- dir_f86e7e40b6052a0bfb03f7d9a1d54b90 -->
<g id="node4" class="node">
<title>dir_f86e7e40b6052a0bfb03f7d9a1d54b90</title>
<g id="a_node4"><a xlink:href="dir_f86e7e40b6052a0bfb03f7d9a1d54b90.html" target="_top" xlink:title="validator">
<polygon fill="none" stroke="black" points="382,-252 322,-252 322,-216 382,-216 382,-252"/>
<text text-anchor="middle" x="352" y="-231.5" font-family="Helvetica,sans-Serif" font-size="10.00">validator</text>
</a>
</g>
</g>
<!-- dir_88ac4bf79705bb8559b852278d35d8da&#45;&gt;dir_f86e7e40b6052a0bfb03f7d9a1d54b90 -->
<g id="edge9" class="edge">
<title>dir_88ac4bf79705bb8559b852278d35d8da&#45;&gt;dir_f86e7e40b6052a0bfb03f7d9a1d54b90</title>
<path fill="none" stroke="black" d="M328.59,-359.77C328.49,-341.71 329.22,-312.61 334,-288 335.69,-279.32 338.45,-270.11 341.31,-261.85"/>
<polygon fill="black" stroke="black" points="344.64,-262.94 344.78,-252.34 338.06,-260.54 344.64,-262.94"/>
<g id="a_edge9&#45;headlabel"><a xlink:href="dir_000012_000045.html" target="_top" xlink:title="15">
<text text-anchor="middle" x="346.07" y="-264.79" font-family="Helvetica,sans-Serif" font-size="10.00">15</text>
</a>
</g>
</g>
<!-- dir_88ac4bf79705bb8559b852278d35d8da&#45;&gt;dir_469dd4fe8a06b7a018d55910fd20ec61 -->
<g id="edge4" class="edge">
<title>dir_88ac4bf79705bb8559b852278d35d8da&#45;&gt;dir_469dd4fe8a06b7a018d55910fd20ec61</title>
<path fill="none" stroke="black" d="M334.46,-359.7C339.01,-351.47 345.37,-341.48 351.77,-332.42"/>
<polygon fill="black" stroke="black" points="354.78,-334.24 357.86,-324.1 349.13,-330.1 354.78,-334.24"/>
<g id="a_edge4&#45;headlabel"><a xlink:href="dir_000012_000046.html" target="_top" xlink:title="28">
<text text-anchor="middle" x="354.95" y="-336.32" font-family="Helvetica,sans-Serif" font-size="10.00">28</text>
</a>
</g>
</g>
<!-- dir_88ac4bf79705bb8559b852278d35d8da&#45;&gt;dir_5cbb9a0bf548abf0d2e32772c73d2ad6 -->
<g id="edge6" class="edge">
<title>dir_88ac4bf79705bb8559b852278d35d8da&#45;&gt;dir_5cbb9a0bf548abf0d2e32772c73d2ad6</title>
<path fill="none" stroke="black" d="M301.87,-362.21C267.29,-341.95 208.17,-302.27 176,-252 164.13,-233.46 158.38,-209.06 155.59,-190.5"/>
<polygon fill="black" stroke="black" points="159.03,-189.8 154.27,-180.34 152.09,-190.7 159.03,-189.8"/>
<g id="a_edge6&#45;headlabel"><a xlink:href="dir_000012_000035.html" target="_top" xlink:title="76">
<text text-anchor="middle" x="162.31" y="-190.5" font-family="Helvetica,sans-Serif" font-size="10.00">76</text>
</a>
</g>
</g>
<!-- dir_88ac4bf79705bb8559b852278d35d8da&#45;&gt;dir_c541d4b187fc5f863b4735b323978e0f -->
<g id="edge7" class="edge">
<title>dir_88ac4bf79705bb8559b852278d35d8da&#45;&gt;dir_c541d4b187fc5f863b4735b323978e0f</title>
<path fill="none" stroke="black" d="M301.68,-368.75C275.31,-360.05 234.95,-344.71 204,-324 166.13,-298.66 154.6,-290.98 131,-252 103.82,-207.11 100.08,-187.71 109,-136 110.05,-129.93 111.83,-123.59 113.84,-117.65"/>
<polygon fill="black" stroke="black" points="117.17,-118.74 117.35,-108.15 110.6,-116.32 117.17,-118.74"/>
<g id="a_edge7&#45;headlabel"><a xlink:href="dir_000012_000013.html" target="_top" xlink:title="10">
<text text-anchor="middle" x="118.59" y="-120.6" font-family="Helvetica,sans-Serif" font-size="10.00">10</text>
</a>
</g>
</g>
<!-- dir_88ac4bf79705bb8559b852278d35d8da&#45;&gt;dir_fd1e11fb0964f7346e999e146b0dfd59 -->
<g id="edge10" class="edge">
<title>dir_88ac4bf79705bb8559b852278d35d8da&#45;&gt;dir_fd1e11fb0964f7346e999e146b0dfd59</title>
<path fill="none" stroke="black" d="M301.73,-374.69C264.82,-370.34 198.5,-358.05 154,-324 124.03,-301.07 121.88,-287.47 109,-252 81.53,-176.34 48.89,-141.78 89,-72 100.15,-52.61 121.42,-39.65 140.6,-31.4"/>
<polygon fill="black" stroke="black" points="142.09,-34.57 150.08,-27.61 139.49,-28.07 142.09,-34.57"/>
<g id="a_edge10&#45;headlabel"><a xlink:href="dir_000012_000017.html" target="_top" xlink:title="31">
<text text-anchor="middle" x="139.8" y="-36.04" font-family="Helvetica,sans-Serif" font-size="10.00">31</text>
</a>
</g>
</g>
<!-- dir_e8a3015d30ced03ce97057fe372cd335&#45;&gt;dir_88ac4bf79705bb8559b852278d35d8da -->
<g id="edge25" class="edge">
<title>dir_e8a3015d30ced03ce97057fe372cd335&#45;&gt;dir_88ac4bf79705bb8559b852278d35d8da</title>
<path fill="none" stroke="black" d="M343.09,-180.01C335.71,-189.69 326.42,-202.54 322,-216 307.2,-261.08 318.9,-316.76 325.98,-349.43"/>
<polygon fill="black" stroke="black" points="322.64,-350.53 328.16,-359.58 329.48,-349.06 322.64,-350.53"/>
<g id="a_edge25&#45;headlabel"><a xlink:href="dir_000047_000012.html" target="_top" xlink:title="16">
<text text-anchor="middle" x="319.11" y="-345.12" font-family="Helvetica,sans-Serif" font-size="10.00">16</text>
</a>
</g>
</g>
<!-- dir_e8a3015d30ced03ce97057fe372cd335&#45;&gt;dir_469dd4fe8a06b7a018d55910fd20ec61 -->
<g id="edge24" class="edge">
<title>dir_e8a3015d30ced03ce97057fe372cd335&#45;&gt;dir_469dd4fe8a06b7a018d55910fd20ec61</title>
<path fill="none" stroke="black" d="M376.87,-180.01C386.29,-189.69 395.58,-202.54 400,-216 406.73,-236.51 401.61,-260.67 394.04,-278.64"/>
<polygon fill="black" stroke="black" points="390.76,-277.39 389.64,-287.92 397.08,-280.39 390.76,-277.39"/>
<g id="a_edge24&#45;headlabel"><a xlink:href="dir_000047_000046.html" target="_top" xlink:title="3">
<text text-anchor="middle" x="389.73" y="-270.42" font-family="Helvetica,sans-Serif" font-size="10.00">3</text>
</a>
</g>
</g>
<!-- dir_f86e7e40b6052a0bfb03f7d9a1d54b90&#45;&gt;dir_e8a3015d30ced03ce97057fe372cd335 -->
<g id="edge1" class="edge">
<title>dir_f86e7e40b6052a0bfb03f7d9a1d54b90&#45;&gt;dir_e8a3015d30ced03ce97057fe372cd335</title>
<path fill="none" stroke="black" d="M352,-215.7C352,-207.98 352,-198.71 352,-190.11"/>
<polygon fill="black" stroke="black" points="355.5,-190.1 352,-180.1 348.5,-190.1 355.5,-190.1"/>
<g id="a_edge1&#45;headlabel"><a xlink:href="dir_000045_000047.html" target="_top" xlink:title="1">
<text text-anchor="middle" x="358.34" y="-191.2" font-family="Helvetica,sans-Serif" font-size="10.00">1</text>
</a>
</g>
</g>
<!-- dir_469dd4fe8a06b7a018d55910fd20ec61&#45;&gt;dir_4843a4f4b536048b06467fd8eed65856 -->
<g id="edge12" class="edge">
<title>dir_469dd4fe8a06b7a018d55910fd20ec61&#45;&gt;dir_4843a4f4b536048b06467fd8eed65856</title>
<path fill="none" stroke="black" d="M382.16,-324.29C384.44,-342.65 382.79,-372.23 374,-396 370.41,-405.7 364.68,-415.35 358.4,-423.7"/>
<polygon fill="black" stroke="black" points="355.59,-421.61 352,-431.58 361.03,-426.02 355.59,-421.61"/>
<g id="a_edge12&#45;headlabel"><a xlink:href="dir_000046_000044.html" target="_top" xlink:title="2">
<text text-anchor="middle" x="355.66" y="-414.53" font-family="Helvetica,sans-Serif" font-size="10.00">2</text>
</a>
</g>
</g>
<!-- dir_469dd4fe8a06b7a018d55910fd20ec61&#45;&gt;dir_88ac4bf79705bb8559b852278d35d8da -->
<g id="edge14" class="edge">
<title>dir_469dd4fe8a06b7a018d55910fd20ec61&#45;&gt;dir_88ac4bf79705bb8559b852278d35d8da</title>
<path fill="none" stroke="black" d="M369.66,-324.1C365.13,-332.3 358.78,-342.28 352.38,-351.36"/>
<polygon fill="black" stroke="black" points="349.36,-349.56 346.29,-359.7 355.01,-353.69 349.36,-349.56"/>
<g id="a_edge14&#45;headlabel"><a xlink:href="dir_000046_000012.html" target="_top" xlink:title="2">
<text text-anchor="middle" x="349.19" y="-342.48" font-family="Helvetica,sans-Serif" font-size="10.00">2</text>
</a>
</g>
</g>
<!-- dir_469dd4fe8a06b7a018d55910fd20ec61&#45;&gt;dir_e8a3015d30ced03ce97057fe372cd335 -->
<g id="edge16" class="edge">
<title>dir_469dd4fe8a06b7a018d55910fd20ec61&#45;&gt;dir_e8a3015d30ced03ce97057fe372cd335</title>
<path fill="none" stroke="black" d="M376.28,-287.92C381.31,-269.75 389.98,-240.31 382,-216 378.72,-206.01 372.76,-196.35 366.89,-188.08"/>
<polygon fill="black" stroke="black" points="369.67,-185.97 360.91,-180.01 364.05,-190.13 369.67,-185.97"/>
<g id="a_edge16&#45;headlabel"><a xlink:href="dir_000046_000047.html" target="_top" xlink:title="1">
<text text-anchor="middle" x="374.09" y="-184.67" font-family="Helvetica,sans-Serif" font-size="10.00">1</text>
</a>
</g>
</g>
<!-- dir_469dd4fe8a06b7a018d55910fd20ec61&#45;&gt;dir_f86e7e40b6052a0bfb03f7d9a1d54b90 -->
<g id="edge17" class="edge">
<title>dir_469dd4fe8a06b7a018d55910fd20ec61&#45;&gt;dir_f86e7e40b6052a0bfb03f7d9a1d54b90</title>
<path fill="none" stroke="black" d="M369.31,-287.7C366.75,-279.9 363.67,-270.51 360.82,-261.83"/>
<polygon fill="black" stroke="black" points="364.07,-260.51 357.62,-252.1 357.42,-262.7 364.07,-260.51"/>
<g id="a_edge17&#45;headlabel"><a xlink:href="dir_000046_000045.html" target="_top" xlink:title="5">
<text text-anchor="middle" x="367.89" y="-260.54" font-family="Helvetica,sans-Serif" font-size="10.00">5</text>
</a>
</g>
</g>
<!-- dir_3f96c34ad80e9031c68706862fabf1a4 -->
<g id="node6" class="node">
<title>dir_3f96c34ad80e9031c68706862fabf1a4</title>
<g id="a_node6"><a xlink:href="dir_3f96c34ad80e9031c68706862fabf1a4.html" target="_top" xlink:title="extension">
<polygon fill="none" stroke="black" points="283.5,-252 218.5,-252 218.5,-216 283.5,-216 283.5,-252"/>
<text text-anchor="middle" x="251" y="-231.5" font-family="Helvetica,sans-Serif" font-size="10.00">extension</text>
</a>
</g>
</g>
<!-- dir_469dd4fe8a06b7a018d55910fd20ec61&#45;&gt;dir_3f96c34ad80e9031c68706862fabf1a4 -->
<g id="edge11" class="edge">
<title>dir_469dd4fe8a06b7a018d55910fd20ec61&#45;&gt;dir_3f96c34ad80e9031c68706862fabf1a4</title>
<path fill="none" stroke="black" d="M344.67,-287.88C328.3,-278.64 307.92,-267.13 290.35,-257.21"/>
<polygon fill="black" stroke="black" points="291.88,-254.06 281.45,-252.19 288.44,-260.15 291.88,-254.06"/>
<g id="a_edge11&#45;headlabel"><a xlink:href="dir_000046_000007.html" target="_top" xlink:title="10">
<text text-anchor="middle" x="296.41" y="-250.85" font-family="Helvetica,sans-Serif" font-size="10.00">10</text>
</a>
</g>
</g>
<!-- dir_469dd4fe8a06b7a018d55910fd20ec61&#45;&gt;dir_5cbb9a0bf548abf0d2e32772c73d2ad6 -->
<g id="edge13" class="edge">
<title>dir_469dd4fe8a06b7a018d55910fd20ec61&#45;&gt;dir_5cbb9a0bf548abf0d2e32772c73d2ad6</title>
<path fill="none" stroke="black" d="M342.27,-301.31C306.36,-295.83 248.58,-282.66 209,-252 188.04,-235.76 172.84,-209.3 163.61,-189.45"/>
<polygon fill="black" stroke="black" points="166.81,-188.03 159.56,-180.3 160.41,-190.86 166.81,-188.03"/>
<g id="a_edge13&#45;headlabel"><a xlink:href="dir_000046_000035.html" target="_top" xlink:title="4">
<text text-anchor="middle" x="170.86" y="-187.67" font-family="Helvetica,sans-Serif" font-size="10.00">4</text>
</a>
</g>
</g>
<!-- dir_469dd4fe8a06b7a018d55910fd20ec61&#45;&gt;dir_c541d4b187fc5f863b4735b323978e0f -->
<g id="edge15" class="edge">
<title>dir_469dd4fe8a06b7a018d55910fd20ec61&#45;&gt;dir_c541d4b187fc5f863b4735b323978e0f</title>
<path fill="none" stroke="black" d="M342.21,-302.46C300.6,-297.92 228,-285.5 176,-252 141.22,-229.59 130.92,-218.96 117,-180 109.89,-160.09 112.61,-136.17 116.72,-118.13"/>
<polygon fill="black" stroke="black" points="120.15,-118.83 119.23,-108.28 113.37,-117.1 120.15,-118.83"/>
<g id="a_edge15&#45;headlabel"><a xlink:href="dir_000046_000013.html" target="_top" xlink:title="4">
<text text-anchor="middle" x="122.02" y="-120.51" font-family="Helvetica,sans-Serif" font-size="10.00">4</text>
</a>
</g>
</g>
<!-- dir_469dd4fe8a06b7a018d55910fd20ec61&#45;&gt;dir_fd1e11fb0964f7346e999e146b0dfd59 -->
<g id="edge18" class="edge">
<title>dir_469dd4fe8a06b7a018d55910fd20ec61&#45;&gt;dir_fd1e11fb0964f7346e999e146b0dfd59</title>
<path fill="none" stroke="black" d="M384.13,-287.88C389.01,-277.76 394.51,-264.51 397,-252 402.33,-225.25 393.68,-140.19 391,-136 351.79,-74.79 268.78,-42.8 219.37,-28.54"/>
<polygon fill="black" stroke="black" points="220.23,-25.15 209.66,-25.85 218.36,-31.9 220.23,-25.15"/>
<g id="a_edge18&#45;headlabel"><a xlink:href="dir_000046_000017.html" target="_top" xlink:title="4">
<text text-anchor="middle" x="224.45" y="-20.88" font-family="Helvetica,sans-Serif" font-size="10.00">4</text>
</a>
</g>
</g>
<!-- dir_3f96c34ad80e9031c68706862fabf1a4&#45;&gt;dir_5cbb9a0bf548abf0d2e32772c73d2ad6 -->
<g id="edge21" class="edge">
<title>dir_3f96c34ad80e9031c68706862fabf1a4&#45;&gt;dir_5cbb9a0bf548abf0d2e32772c73d2ad6</title>
<path fill="none" stroke="black" d="M227.03,-215.88C214.45,-206.89 198.87,-195.76 185.25,-186.03"/>
<polygon fill="black" stroke="black" points="187.24,-183.15 177.07,-180.19 183.17,-188.85 187.24,-183.15"/>
<g id="a_edge21&#45;headlabel"><a xlink:href="dir_000007_000035.html" target="_top" xlink:title="2">
<text text-anchor="middle" x="191.81" y="-180.43" font-family="Helvetica,sans-Serif" font-size="10.00">2</text>
</a>
</g>
</g>
<!-- dir_3f96c34ad80e9031c68706862fabf1a4&#45;&gt;dir_c541d4b187fc5f863b4735b323978e0f -->
<g id="edge22" class="edge">
<title>dir_3f96c34ad80e9031c68706862fabf1a4&#45;&gt;dir_c541d4b187fc5f863b4735b323978e0f</title>
<path fill="none" stroke="black" d="M242.66,-215.83C232.12,-195.27 212.49,-160.55 189,-136 180.65,-127.27 170.37,-119.18 160.52,-112.33"/>
<polygon fill="black" stroke="black" points="162.29,-109.3 152.03,-106.64 158.39,-115.12 162.29,-109.3"/>
<g id="a_edge22&#45;headlabel"><a xlink:href="dir_000007_000013.html" target="_top" xlink:title="4">
<text text-anchor="middle" x="166.85" y="-106.44" font-family="Helvetica,sans-Serif" font-size="10.00">4</text>
</a>
</g>
</g>
<!-- dir_3f96c34ad80e9031c68706862fabf1a4&#45;&gt;dir_fd1e11fb0964f7346e999e146b0dfd59 -->
<g id="edge23" class="edge">
<title>dir_3f96c34ad80e9031c68706862fabf1a4&#45;&gt;dir_fd1e11fb0964f7346e999e146b0dfd59</title>
<path fill="none" stroke="black" d="M245.62,-215.79C239.51,-196.38 229.21,-163.86 220,-136 209.73,-104.93 197.5,-69.38 189.3,-45.7"/>
<polygon fill="black" stroke="black" points="192.52,-44.31 185.94,-36.02 185.91,-46.61 192.52,-44.31"/>
<g id="a_edge23&#45;headlabel"><a xlink:href="dir_000007_000017.html" target="_top" xlink:title="9">
<text text-anchor="middle" x="196.38" y="-44.28" font-family="Helvetica,sans-Serif" font-size="10.00">9</text>
</a>
</g>
</g>
<!-- dir_5cbb9a0bf548abf0d2e32772c73d2ad6&#45;&gt;dir_c541d4b187fc5f863b4735b323978e0f -->
<g id="edge19" class="edge">
<title>dir_5cbb9a0bf548abf0d2e32772c73d2ad6&#45;&gt;dir_c541d4b187fc5f863b4735b323978e0f</title>
<path fill="none" stroke="black" d="M146.08,-143.7C142.93,-135.81 139.12,-126.3 135.62,-117.55"/>
<polygon fill="black" stroke="black" points="138.81,-116.09 131.84,-108.1 132.31,-118.69 138.81,-116.09"/>
<g id="a_edge19&#45;headlabel"><a xlink:href="dir_000035_000013.html" target="_top" xlink:title="5">
<text text-anchor="middle" x="142.78" y="-115.87" font-family="Helvetica,sans-Serif" font-size="10.00">5</text>
</a>
</g>
</g>
<!-- dir_5cbb9a0bf548abf0d2e32772c73d2ad6&#45;&gt;dir_fd1e11fb0964f7346e999e146b0dfd59 -->
<g id="edge20" class="edge">
<title>dir_5cbb9a0bf548abf0d2e32772c73d2ad6&#45;&gt;dir_fd1e11fb0964f7346e999e146b0dfd59</title>
<path fill="none" stroke="black" d="M156.26,-143.87C160.86,-119.67 169.31,-75.21 174.79,-46.39"/>
<polygon fill="black" stroke="black" points="178.3,-46.67 176.73,-36.19 171.43,-45.36 178.3,-46.67"/>
<g id="a_edge20&#45;headlabel"><a xlink:href="dir_000035_000017.html" target="_top" xlink:title="16">
<text text-anchor="middle" x="180.42" y="-48.23" font-family="Helvetica,sans-Serif" font-size="10.00">16</text>
</a>
</g>
</g>
<!-- dir_c541d4b187fc5f863b4735b323978e0f&#45;&gt;dir_fd1e11fb0964f7346e999e146b0dfd59 -->
<g id="edge3" class="edge">
<title>dir_c541d4b187fc5f863b4735b323978e0f&#45;&gt;dir_fd1e11fb0964f7346e999e146b0dfd59</title>
<path fill="none" stroke="black" d="M132.68,-71.7C138.41,-63.3 146.26,-53.07 153.97,-43.86"/>
<polygon fill="black" stroke="black" points="156.78,-45.96 160.67,-36.1 151.48,-41.39 156.78,-45.96"/>
<g id="a_edge3&#45;headlabel"><a xlink:href="dir_000013_000017.html" target="_top" xlink:title="6">
<text text-anchor="middle" x="156.59" y="-48.04" font-family="Helvetica,sans-Serif" font-size="10.00">6</text>
</a>
</g>
</g>
<!-- dir_fd1e11fb0964f7346e999e146b0dfd59&#45;&gt;dir_c541d4b187fc5f863b4735b323978e0f -->
<g id="edge2" class="edge">
<title>dir_fd1e11fb0964f7346e999e146b0dfd59&#45;&gt;dir_c541d4b187fc5f863b4735b323978e0f</title>
<path fill="none" stroke="black" d="M172.46,-36.1C166.76,-44.47 158.93,-54.69 151.21,-63.92"/>
<polygon fill="black" stroke="black" points="148.38,-61.84 144.51,-71.7 153.69,-66.4 148.38,-61.84"/>
<g id="a_edge2&#45;headlabel"><a xlink:href="dir_000017_000013.html" target="_top" xlink:title="2">
<text text-anchor="middle" x="148.58" y="-54.76" font-family="Helvetica,sans-Serif" font-size="10.00">2</text>
</a>
</g>
</g>
</g>
</svg>
        <g id="navigator" transform="translate(0 0)" fill="#404254">
                <rect fill="#f2f5e9" fill-opacity="0.5" stroke="#606060" stroke-width=".5" x="0" y="0" width="60" height="60"/>
                <use id="zoomplus" xlink:href="#zoomPlus" x="17" y="9" onmousedown="handleZoom(evt,'in')"/>
                <use id="zoomminus" xlink:href="#zoomMin" x="42" y="9" onmousedown="handleZoom(evt,'out')"/>
                <use id="reset" xlink:href="#resetDef" x="30" y="36" onmousedown="handleReset()"/>
                <g id="arrowUp" xlink:href="#dirArrow" transform="translate(30 24)" onmousedown="handlePan(0,-1)">
                  <use xlink:href="#rim" fill="#404040">
                        <set attributeName="fill" to="#808080" begin="arrowUp.mouseover" end="arrowUp.mouseout"/>
                  </use>
                  <path fill="none" stroke="white" stroke-width="1.5" d="M0,-3.0v7 M-2.5,-0.5L0,-3.0L2.5,-0.5"/>
                </g>
                <g id="arrowRight" xlink:href="#dirArrow" transform="rotate(90) translate(36 -43)" onmousedown="handlePan(1,0)">
                  <use xlink:href="#rim" fill="#404040">
                        <set attributeName="fill" to="#808080" begin="arrowRight.mouseover" end="arrowRight.mouseout"/>
                  </use>
                  <path fill="none" stroke="white" stroke-width="1.5" d="M0,-3.0v7 M-2.5,-0.5L0,-3.0L2.5,-0.5"/>
                </g>
                <g id="arrowDown" xlink:href="#dirArrow" transform="rotate(180) translate(-30 -48)" onmousedown="handlePan(0,1)">
                  <use xlink:href="#rim" fill="#404040">
                        <set attributeName="fill" to="#808080" begin="arrowDown.mouseover" end="arrowDown.mouseout"/>
                  </use>
                  <path fill="none" stroke="white" stroke-width="1.5" d="M0,-3.0v7 M-2.5,-0.5L0,-3.0L2.5,-0.5"/>
                </g>
                <g id="arrowLeft" xlink:href="#dirArrow" transform="rotate(270) translate(-36 17)" onmousedown="handlePan(-1,0)">
                  <use xlink:href="#rim" fill="#404040">
                        <set attributeName="fill" to="#808080" begin="arrowLeft.mouseover" end="arrowLeft.mouseout"/>
                  </use>
                  <path fill="none" stroke="white" stroke-width="1.5" d="M0,-3.0v7 M-2.5,-0.5L0,-3.0L2.5,-0.5"/>
                </g>
        </g>
        <svg viewBox="0 0 15 15" width="100%" height="30px" preserveAspectRatio="xMaxYMin meet">
         <g id="arrow_out" transform="scale(0.3 0.3)">
          <a xlink:href="dir_469dd4fe8a06b7a018d55910fd20ec61_dep_org.svg" target="_base">
           <rect id="button" ry="5" rx="5" y="6" x="6" height="38" width="38"
                fill="#f2f5e9" fill-opacity="0.5" stroke="#606060" stroke-width="1.0"/>
           <path id="arrow"
             d="M 11.500037,31.436501 C 11.940474,20.09759 22.043105,11.32322 32.158766,21.979434 L 37.068811,17.246167 C 37.068811,17.246167 37.088388,32 37.088388,32 L 22.160133,31.978069 C 22.160133,31.978069 26.997745,27.140456 26.997745,27.140456 C 18.528582,18.264221 13.291696,25.230495 11.500037,31.436501 z"
             style="fill:#404040;"/>
          </a>
         </g>
        </svg>
</svg>
