<?xml version="1.0" encoding="UTF-8" standalone="no"?>
<!DOCTYPE svg PUBLIC "-//W3C//DTD SVG 1.1//EN"
 "http://www.w3.org/Graphics/SVG/1.1/DTD/svg11.dtd">
<!-- Generated by graphviz version 2.43.0 (0)
 -->
<!-- Title: sbml Pages: 1 -->
<svg width="345pt" height="439pt"
 viewBox="0.00 0.00 344.91 439.00" xmlns="http://www.w3.org/2000/svg" xmlns:xlink="http://www.w3.org/1999/xlink">
<g id="graph0" class="graph" transform="scale(1 1) rotate(0) translate(4 435)">
<title>sbml</title>
<polygon fill="white" stroke="transparent" points="-4,4 -4,-435 340.91,-435 340.91,4 -4,4"/>
<g id="clust1" class="cluster">
<title>clusterdir_56d603006930d6f32ca38bb932b49787</title>
<g id="a_clust1"><a xlink:href="dir_56d603006930d6f32ca38bb932b49787.html" target="_top" xlink:title="layout">
<polygon fill="#ddddee" stroke="black" points="148.91,-64 148.91,-423 278.91,-423 278.91,-64 148.91,-64"/>
<text text-anchor="middle" x="213.91" y="-411" font-family="Helvetica,sans-Serif" font-size="10.00">layout</text>
</a>
</g>
</g>
<!-- dir_469dd4fe8a06b7a018d55910fd20ec61 -->
<g id="node1" class="node">
<title>dir_469dd4fe8a06b7a018d55910fd20ec61</title>
<g id="a_node1"><a xlink:href="dir_469dd4fe8a06b7a018d55910fd20ec61.html" target="_top" xlink:title="extension">
<polygon fill="none" stroke="black" points="262.41,-396 197.41,-396 197.41,-360 262.41,-360 262.41,-396"/>
<text text-anchor="middle" x="229.91" y="-375.5" font-family="Helvetica,sans-Serif" font-size="10.00">extension</text>
</a>
</g>
</g>
<!-- dir_4843a4f4b536048b06467fd8eed65856 -->
<g id="node2" class="node">
<title>dir_4843a4f4b536048b06467fd8eed65856</title>
<g id="a_node2"><a xlink:href="dir_4843a4f4b536048b06467fd8eed65856.html" target="_top" xlink:title="util">
<polygon fill="none" stroke="black" points="210.91,-324 156.91,-324 156.91,-288 210.91,-288 210.91,-324"/>
<text text-anchor="middle" x="183.91" y="-303.5" font-family="Helvetica,sans-Serif" font-size="10.00">util</text>
</a>
</g>
</g>
<!-- dir_469dd4fe8a06b7a018d55910fd20ec61&#45;&gt;dir_4843a4f4b536048b06467fd8eed65856 -->
<g id="edge11" class="edge">
<title>dir_469dd4fe8a06b7a018d55910fd20ec61&#45;&gt;dir_4843a4f4b536048b06467fd8eed65856</title>
<path fill="none" stroke="black" d="M212.62,-359.7C206.5,-351.64 199.88,-341.89 194.43,-332.98"/>
<polygon fill="black" stroke="black" points="197.31,-330.98 189.25,-324.1 191.27,-334.51 197.31,-330.98"/>
<g id="a_edge11&#45;headlabel"><a xlink:href="dir_000046_000044.html" target="_top" xlink:title="2">
<text text-anchor="middle" x="201.58" y="-330.15" font-family="Helvetica,sans-Serif" font-size="10.00">2</text>
</a>
</g>
</g>
<!-- dir_e8a3015d30ced03ce97057fe372cd335 -->
<g id="node3" class="node">
<title>dir_e8a3015d30ced03ce97057fe372cd335</title>
<g id="a_node3"><a xlink:href="dir_e8a3015d30ced03ce97057fe372cd335.html" target="_top" xlink:title="common">
<polygon fill="none" stroke="black" points="250.41,-108 191.41,-108 191.41,-72 250.41,-72 250.41,-108"/>
<text text-anchor="middle" x="220.91" y="-87.5" font-family="Helvetica,sans-Serif" font-size="10.00">common</text>
</a>
</g>
</g>
<!-- dir_469dd4fe8a06b7a018d55910fd20ec61&#45;&gt;dir_e8a3015d30ced03ce97057fe372cd335 -->
<g id="edge15" class="edge">
<title>dir_469dd4fe8a06b7a018d55910fd20ec61&#45;&gt;dir_e8a3015d30ced03ce97057fe372cd335</title>
<path fill="none" stroke="black" d="M232.44,-359.85C243.56,-320.61 276.41,-221.7 250.91,-144 247.63,-134.01 241.66,-124.35 235.79,-116.08"/>
<polygon fill="black" stroke="black" points="238.58,-113.97 229.82,-108.01 232.95,-118.13 238.58,-113.97"/>
<g id="a_edge15&#45;headlabel"><a xlink:href="dir_000046_000047.html" target="_top" xlink:title="1">
<text text-anchor="middle" x="243" y="-112.67" font-family="Helvetica,sans-Serif" font-size="10.00">1</text>
</a>
</g>
</g>
<!-- dir_f86e7e40b6052a0bfb03f7d9a1d54b90 -->
<g id="node4" class="node">
<title>dir_f86e7e40b6052a0bfb03f7d9a1d54b90</title>
<g id="a_node4"><a xlink:href="dir_f86e7e40b6052a0bfb03f7d9a1d54b90.html" target="_top" xlink:title="validator">
<polygon fill="none" stroke="black" points="250.91,-180 190.91,-180 190.91,-144 250.91,-144 250.91,-180"/>
<text text-anchor="middle" x="220.91" y="-159.5" font-family="Helvetica,sans-Serif" font-size="10.00">validator</text>
</a>
</g>
</g>
<!-- dir_469dd4fe8a06b7a018d55910fd20ec61&#45;&gt;dir_f86e7e40b6052a0bfb03f7d9a1d54b90 -->
<g id="edge16" class="edge">
<title>dir_469dd4fe8a06b7a018d55910fd20ec61&#45;&gt;dir_f86e7e40b6052a0bfb03f7d9a1d54b90</title>
<path fill="none" stroke="black" d="M229.98,-359.93C230,-342.01 229.85,-313.02 228.91,-288 227.64,-254.34 224.98,-215.66 223.07,-190.35"/>
<polygon fill="black" stroke="black" points="226.56,-190.08 222.31,-180.38 219.58,-190.61 226.56,-190.08"/>
<g id="a_edge16&#45;headlabel"><a xlink:href="dir_000046_000045.html" target="_top" xlink:title="5">
<text text-anchor="middle" x="229.67" y="-190.95" font-family="Helvetica,sans-Serif" font-size="10.00">5</text>
</a>
</g>
</g>
<!-- dir_88ac4bf79705bb8559b852278d35d8da -->
<g id="node5" class="node">
<title>dir_88ac4bf79705bb8559b852278d35d8da</title>
<g id="a_node5"><a xlink:href="dir_88ac4bf79705bb8559b852278d35d8da.html" target="_top" xlink:title="sbml">
<polygon fill="#eeeeff" stroke="black" points="210.91,-252 156.91,-252 156.91,-216 210.91,-216 210.91,-252"/>
<text text-anchor="middle" x="183.91" y="-231.5" font-family="Helvetica,sans-Serif" font-size="10.00">sbml</text>
</a>
</g>
</g>
<!-- dir_469dd4fe8a06b7a018d55910fd20ec61&#45;&gt;dir_88ac4bf79705bb8559b852278d35d8da -->
<g id="edge13" class="edge">
<title>dir_469dd4fe8a06b7a018d55910fd20ec61&#45;&gt;dir_88ac4bf79705bb8559b852278d35d8da</title>
<path fill="none" stroke="black" d="M223.71,-359.71C221.35,-341.35 219.7,-311.77 210.91,-288 207.39,-278.5 201.82,-269.05 196.51,-260.82"/>
<polygon fill="black" stroke="black" points="199.39,-258.83 190.96,-252.42 193.55,-262.7 199.39,-258.83"/>
<g id="a_edge13&#45;headlabel"><a xlink:href="dir_000046_000012.html" target="_top" xlink:title="2">
<text text-anchor="middle" x="203.74" y="-257.77" font-family="Helvetica,sans-Serif" font-size="10.00">2</text>
</a>
</g>
</g>
<!-- dir_5cbb9a0bf548abf0d2e32772c73d2ad6 -->
<g id="node6" class="node">
<title>dir_5cbb9a0bf548abf0d2e32772c73d2ad6</title>
<g id="a_node6"><a xlink:href="dir_5cbb9a0bf548abf0d2e32772c73d2ad6.html" target="_top" xlink:title="xml">
<polygon fill="none" stroke="black" points="76.91,-180 22.91,-180 22.91,-144 76.91,-144 76.91,-180"/>
<text text-anchor="middle" x="49.91" y="-159.5" font-family="Helvetica,sans-Serif" font-size="10.00">xml</text>
</a>
</g>
</g>
<!-- dir_469dd4fe8a06b7a018d55910fd20ec61&#45;&gt;dir_5cbb9a0bf548abf0d2e32772c73d2ad6 -->
<g id="edge12" class="edge">
<title>dir_469dd4fe8a06b7a018d55910fd20ec61&#45;&gt;dir_5cbb9a0bf548abf0d2e32772c73d2ad6</title>
<path fill="none" stroke="black" d="M197.5,-359.94C181.53,-350.6 162.59,-338.07 147.91,-324 106.62,-284.43 76.04,-223.86 60.78,-189.4"/>
<polygon fill="black" stroke="black" points="63.9,-187.79 56.71,-180.01 57.47,-190.57 63.9,-187.79"/>
<g id="a_edge12&#45;headlabel"><a xlink:href="dir_000046_000035.html" target="_top" xlink:title="4">
<text text-anchor="middle" x="67.93" y="-187.47" font-family="Helvetica,sans-Serif" font-size="10.00">4</text>
</a>
</g>
</g>
<!-- dir_c541d4b187fc5f863b4735b323978e0f -->
<g id="node7" class="node">
<title>dir_c541d4b187fc5f863b4735b323978e0f</title>
<g id="a_node7"><a xlink:href="dir_c541d4b187fc5f863b4735b323978e0f.html" target="_top" xlink:title="util">
<polygon fill="none" stroke="black" points="76.91,-108 22.91,-108 22.91,-72 76.91,-72 76.91,-108"/>
<text text-anchor="middle" x="49.91" y="-87.5" font-family="Helvetica,sans-Serif" font-size="10.00">util</text>
</a>
</g>
</g>
<!-- dir_469dd4fe8a06b7a018d55910fd20ec61&#45;&gt;dir_c541d4b187fc5f863b4735b323978e0f -->
<g id="edge14" class="edge">
<title>dir_469dd4fe8a06b7a018d55910fd20ec61&#45;&gt;dir_c541d4b187fc5f863b4735b323978e0f</title>
<path fill="none" stroke="black" d="M197.24,-365.24C173.19,-355.84 140.23,-341.39 113.91,-324 74.27,-297.81 61.78,-291.17 34.91,-252 6.85,-211.11 -9.67,-190.74 6.91,-144 10.57,-133.68 17.19,-123.9 24.16,-115.61"/>
<polygon fill="black" stroke="black" points="26.78,-117.94 30.87,-108.16 21.58,-113.26 26.78,-117.94"/>
<g id="a_edge14&#45;headlabel"><a xlink:href="dir_000046_000013.html" target="_top" xlink:title="4">
<text text-anchor="middle" x="26.49" y="-120.01" font-family="Helvetica,sans-Serif" font-size="10.00">4</text>
</a>
</g>
</g>
<!-- dir_fd1e11fb0964f7346e999e146b0dfd59 -->
<g id="node8" class="node">
<title>dir_fd1e11fb0964f7346e999e146b0dfd59</title>
<g id="a_node8"><a xlink:href="dir_fd1e11fb0964f7346e999e146b0dfd59.html" target="_top" xlink:title="common">
<polygon fill="none" stroke="black" points="153.41,-36 94.41,-36 94.41,0 153.41,0 153.41,-36"/>
<text text-anchor="middle" x="123.91" y="-15.5" font-family="Helvetica,sans-Serif" font-size="10.00">common</text>
</a>
</g>
</g>
<!-- dir_469dd4fe8a06b7a018d55910fd20ec61&#45;&gt;dir_fd1e11fb0964f7346e999e146b0dfd59 -->
<g id="edge17" class="edge">
<title>dir_469dd4fe8a06b7a018d55910fd20ec61&#45;&gt;dir_fd1e11fb0964f7346e999e146b0dfd59</title>
<path fill="none" stroke="black" d="M254.72,-359.98C286.33,-336.07 336.91,-289.33 336.91,-235 336.91,-235 336.91,-235 336.91,-161 336.91,-111.44 320.87,-94.63 281.91,-64 247.67,-37.08 198.06,-26.27 163.6,-21.92"/>
<polygon fill="black" stroke="black" points="163.75,-18.42 153.42,-20.77 162.96,-25.37 163.75,-18.42"/>
<g id="a_edge17&#45;headlabel"><a xlink:href="dir_000046_000017.html" target="_top" xlink:title="4">
<text text-anchor="middle" x="167.64" y="-13.5" font-family="Helvetica,sans-Serif" font-size="10.00">4</text>
</a>
</g>
</g>
<!-- dir_4843a4f4b536048b06467fd8eed65856&#45;&gt;dir_469dd4fe8a06b7a018d55910fd20ec61 -->
<g id="edge22" class="edge">
<title>dir_4843a4f4b536048b06467fd8eed65856&#45;&gt;dir_469dd4fe8a06b7a018d55910fd20ec61</title>
<path fill="none" stroke="black" d="M201.04,-324.1C207.15,-332.13 213.78,-341.87 219.24,-350.8"/>
<polygon fill="black" stroke="black" points="216.38,-352.83 224.45,-359.7 222.42,-349.3 216.38,-352.83"/>
<g id="a_edge22&#45;headlabel"><a xlink:href="dir_000044_000046.html" target="_top" xlink:title="2">
<text text-anchor="middle" x="212.11" y="-348.66" font-family="Helvetica,sans-Serif" font-size="10.00">2</text>
</a>
</g>
</g>
<!-- dir_4843a4f4b536048b06467fd8eed65856&#45;&gt;dir_88ac4bf79705bb8559b852278d35d8da -->
<g id="edge24" class="edge">
<title>dir_4843a4f4b536048b06467fd8eed65856&#45;&gt;dir_88ac4bf79705bb8559b852278d35d8da</title>
<path fill="none" stroke="black" d="M177.99,-287.7C177.19,-279.98 176.97,-270.71 177.31,-262.11"/>
<polygon fill="black" stroke="black" points="180.8,-262.32 178.01,-252.1 173.82,-261.84 180.8,-262.32"/>
<g id="a_edge24&#45;headlabel"><a xlink:href="dir_000044_000012.html" target="_top" xlink:title="3">
<text text-anchor="middle" x="183.39" y="-263.61" font-family="Helvetica,sans-Serif" font-size="10.00">3</text>
</a>
</g>
</g>
<!-- dir_4843a4f4b536048b06467fd8eed65856&#45;&gt;dir_5cbb9a0bf548abf0d2e32772c73d2ad6 -->
<g id="edge23" class="edge">
<title>dir_4843a4f4b536048b06467fd8eed65856&#45;&gt;dir_5cbb9a0bf548abf0d2e32772c73d2ad6</title>
<path fill="none" stroke="black" d="M167.74,-287.87C144.2,-262.92 100.34,-216.45 73.28,-187.77"/>
<polygon fill="black" stroke="black" points="75.54,-185.06 66.13,-180.19 70.44,-189.86 75.54,-185.06"/>
<g id="a_edge23&#45;headlabel"><a xlink:href="dir_000044_000035.html" target="_top" xlink:title="6">
<text text-anchor="middle" x="80.07" y="-183.23" font-family="Helvetica,sans-Serif" font-size="10.00">6</text>
</a>
</g>
</g>
<!-- dir_4843a4f4b536048b06467fd8eed65856&#45;&gt;dir_c541d4b187fc5f863b4735b323978e0f -->
<g id="edge25" class="edge">
<title>dir_4843a4f4b536048b06467fd8eed65856&#45;&gt;dir_c541d4b187fc5f863b4735b323978e0f</title>
<path fill="none" stroke="black" d="M156.78,-295.05C116.24,-278.45 41.66,-240.82 13.91,-180 4.27,-158.89 15.76,-134.42 28.25,-116.49"/>
<polygon fill="black" stroke="black" points="31.22,-118.36 34.37,-108.25 25.6,-114.19 31.22,-118.36"/>
<g id="a_edge25&#45;headlabel"><a xlink:href="dir_000044_000013.html" target="_top" xlink:title="2">
<text text-anchor="middle" x="31.35" y="-120.44" font-family="Helvetica,sans-Serif" font-size="10.00">2</text>
</a>
</g>
</g>
<!-- dir_4843a4f4b536048b06467fd8eed65856&#45;&gt;dir_fd1e11fb0964f7346e999e146b0dfd59 -->
<g id="edge26" class="edge">
<title>dir_4843a4f4b536048b06467fd8eed65856&#45;&gt;dir_fd1e11fb0964f7346e999e146b0dfd59</title>
<path fill="none" stroke="black" d="M198.78,-287.88C233.32,-245.97 312.19,-136.37 259.91,-64 238.18,-33.93 195.61,-23.63 163.86,-20.26"/>
<polygon fill="black" stroke="black" points="163.81,-16.74 153.55,-19.37 163.21,-23.72 163.81,-16.74"/>
<g id="a_edge26&#45;headlabel"><a xlink:href="dir_000044_000017.html" target="_top" xlink:title="4">
<text text-anchor="middle" x="167.64" y="-11.73" font-family="Helvetica,sans-Serif" font-size="10.00">4</text>
</a>
</g>
</g>
<!-- dir_e8a3015d30ced03ce97057fe372cd335&#45;&gt;dir_469dd4fe8a06b7a018d55910fd20ec61 -->
<g id="edge20" class="edge">
<title>dir_e8a3015d30ced03ce97057fe372cd335&#45;&gt;dir_469dd4fe8a06b7a018d55910fd20ec61</title>
<path fill="none" stroke="black" d="M245.77,-108.01C255.2,-117.69 264.49,-130.54 268.91,-144 292.62,-216.23 265.89,-306.81 246.14,-350.72"/>
<polygon fill="black" stroke="black" points="242.93,-349.32 241.8,-359.85 249.25,-352.32 242.93,-349.32"/>
<g id="a_edge20&#45;headlabel"><a xlink:href="dir_000047_000046.html" target="_top" xlink:title="3">
<text text-anchor="middle" x="241.9" y="-342.35" font-family="Helvetica,sans-Serif" font-size="10.00">3</text>
</a>
</g>
</g>
<!-- dir_e8a3015d30ced03ce97057fe372cd335&#45;&gt;dir_88ac4bf79705bb8559b852278d35d8da -->
<g id="edge21" class="edge">
<title>dir_e8a3015d30ced03ce97057fe372cd335&#45;&gt;dir_88ac4bf79705bb8559b852278d35d8da</title>
<path fill="none" stroke="black" d="M211.99,-108.01C204.61,-117.69 195.32,-130.54 190.91,-144 184.37,-163.92 185.32,-187.71 186.32,-205.68"/>
<polygon fill="black" stroke="black" points="182.83,-205.98 186.87,-215.77 189.82,-205.6 182.83,-205.98"/>
<g id="a_edge21&#45;headlabel"><a xlink:href="dir_000047_000012.html" target="_top" xlink:title="16">
<text text-anchor="middle" x="179.8" y="-200.05" font-family="Helvetica,sans-Serif" font-size="10.00">16</text>
</a>
</g>
</g>
<!-- dir_f86e7e40b6052a0bfb03f7d9a1d54b90&#45;&gt;dir_e8a3015d30ced03ce97057fe372cd335 -->
<g id="edge1" class="edge">
<title>dir_f86e7e40b6052a0bfb03f7d9a1d54b90&#45;&gt;dir_e8a3015d30ced03ce97057fe372cd335</title>
<path fill="none" stroke="black" d="M220.91,-143.7C220.91,-135.98 220.91,-126.71 220.91,-118.11"/>
<polygon fill="black" stroke="black" points="224.41,-118.1 220.91,-108.1 217.41,-118.1 224.41,-118.1"/>
<g id="a_edge1&#45;headlabel"><a xlink:href="dir_000045_000047.html" target="_top" xlink:title="1">
<text text-anchor="middle" x="227.24" y="-119.2" font-family="Helvetica,sans-Serif" font-size="10.00">1</text>
</a>
</g>
</g>
<!-- dir_88ac4bf79705bb8559b852278d35d8da&#45;&gt;dir_469dd4fe8a06b7a018d55910fd20ec61 -->
<g id="edge4" class="edge">
<title>dir_88ac4bf79705bb8559b852278d35d8da&#45;&gt;dir_469dd4fe8a06b7a018d55910fd20ec61</title>
<path fill="none" stroke="black" d="M206.91,-252.42C215.52,-262.22 224.12,-275.06 228.91,-288 236.22,-307.78 238.59,-331.58 237.87,-349.59"/>
<polygon fill="black" stroke="black" points="234.37,-349.46 237.06,-359.71 241.34,-350.02 234.37,-349.46"/>
<g id="a_edge4&#45;headlabel"><a xlink:href="dir_000012_000046.html" target="_top" xlink:title="28">
<text text-anchor="middle" x="231.82" y="-343.15" font-family="Helvetica,sans-Serif" font-size="10.00">28</text>
</a>
</g>
</g>
<!-- dir_88ac4bf79705bb8559b852278d35d8da&#45;&gt;dir_4843a4f4b536048b06467fd8eed65856 -->
<g id="edge5" class="edge">
<title>dir_88ac4bf79705bb8559b852278d35d8da&#45;&gt;dir_4843a4f4b536048b06467fd8eed65856</title>
<path fill="none" stroke="black" d="M189.8,-252.1C190.61,-259.79 190.84,-269.05 190.51,-277.67"/>
<polygon fill="black" stroke="black" points="187.01,-277.48 189.82,-287.7 194,-277.96 187.01,-277.48"/>
<g id="a_edge5&#45;headlabel"><a xlink:href="dir_000012_000044.html" target="_top" xlink:title="15">
<text text-anchor="middle" x="184.43" y="-271.2" font-family="Helvetica,sans-Serif" font-size="10.00">15</text>
</a>
</g>
</g>
<!-- dir_88ac4bf79705bb8559b852278d35d8da&#45;&gt;dir_e8a3015d30ced03ce97057fe372cd335 -->
<g id="edge8" class="edge">
<title>dir_88ac4bf79705bb8559b852278d35d8da&#45;&gt;dir_e8a3015d30ced03ce97057fe372cd335</title>
<path fill="none" stroke="black" d="M173.52,-215.77C168.01,-197.47 165.05,-167.94 172.91,-144 176.25,-133.8 182.4,-123.95 189.28,-115.56"/>
<polygon fill="black" stroke="black" points="191.98,-117.79 196.04,-108.01 186.76,-113.13 191.98,-117.79"/>
<g id="a_edge8&#45;headlabel"><a xlink:href="dir_000012_000047.html" target="_top" xlink:title="16">
<text text-anchor="middle" x="191.7" y="-119.87" font-family="Helvetica,sans-Serif" font-size="10.00">16</text>
</a>
</g>
</g>
<!-- dir_88ac4bf79705bb8559b852278d35d8da&#45;&gt;dir_f86e7e40b6052a0bfb03f7d9a1d54b90 -->
<g id="edge9" class="edge">
<title>dir_88ac4bf79705bb8559b852278d35d8da&#45;&gt;dir_f86e7e40b6052a0bfb03f7d9a1d54b90</title>
<path fill="none" stroke="black" d="M193.05,-215.7C197.31,-207.64 202.46,-197.89 207.17,-188.98"/>
<polygon fill="black" stroke="black" points="210.29,-190.58 211.86,-180.1 204.1,-187.31 210.29,-190.58"/>
<g id="a_edge9&#45;headlabel"><a xlink:href="dir_000012_000045.html" target="_top" xlink:title="15">
<text text-anchor="middle" x="211.12" y="-192.59" font-family="Helvetica,sans-Serif" font-size="10.00">15</text>
</a>
</g>
</g>
<!-- dir_88ac4bf79705bb8559b852278d35d8da&#45;&gt;dir_5cbb9a0bf548abf0d2e32772c73d2ad6 -->
<g id="edge6" class="edge">
<title>dir_88ac4bf79705bb8559b852278d35d8da&#45;&gt;dir_5cbb9a0bf548abf0d2e32772c73d2ad6</title>
<path fill="none" stroke="black" d="M156.79,-218.83C136.45,-208.21 108.39,-193.55 86.13,-181.92"/>
<polygon fill="black" stroke="black" points="87.47,-178.67 76.98,-177.14 84.23,-184.88 87.47,-178.67"/>
<g id="a_edge6&#45;headlabel"><a xlink:href="dir_000012_000035.html" target="_top" xlink:title="76">
<text text-anchor="middle" x="91.97" y="-175.32" font-family="Helvetica,sans-Serif" font-size="10.00">76</text>
</a>
</g>
</g>
<!-- dir_88ac4bf79705bb8559b852278d35d8da&#45;&gt;dir_c541d4b187fc5f863b4735b323978e0f -->
<g id="edge7" class="edge">
<title>dir_88ac4bf79705bb8559b852278d35d8da&#45;&gt;dir_c541d4b187fc5f863b4735b323978e0f</title>
<path fill="none" stroke="black" d="M165.47,-215.92C154.62,-205.7 140.75,-192.34 128.91,-180 108.68,-158.93 86.71,-134 71.08,-115.89"/>
<polygon fill="black" stroke="black" points="73.55,-113.39 64.38,-108.08 68.24,-117.95 73.55,-113.39"/>
<g id="a_edge7&#45;headlabel"><a xlink:href="dir_000012_000013.html" target="_top" xlink:title="10">
<text text-anchor="middle" x="78.04" y="-111.76" font-family="Helvetica,sans-Serif" font-size="10.00">10</text>
</a>
</g>
</g>
<!-- dir_88ac4bf79705bb8559b852278d35d8da&#45;&gt;dir_fd1e11fb0964f7346e999e146b0dfd59 -->
<g id="edge10" class="edge">
<title>dir_88ac4bf79705bb8559b852278d35d8da&#45;&gt;dir_fd1e11fb0964f7346e999e146b0dfd59</title>
<path fill="none" stroke="black" d="M179.1,-215.85C168.7,-178.75 144.04,-90.81 131.5,-46.1"/>
<polygon fill="black" stroke="black" points="134.81,-44.92 128.74,-36.23 128.07,-46.81 134.81,-44.92"/>
<g id="a_edge10&#45;headlabel"><a xlink:href="dir_000012_000017.html" target="_top" xlink:title="31">
<text text-anchor="middle" x="138.51" y="-45.11" font-family="Helvetica,sans-Serif" font-size="10.00">31</text>
</a>
</g>
</g>
<!-- dir_5cbb9a0bf548abf0d2e32772c73d2ad6&#45;&gt;dir_c541d4b187fc5f863b4735b323978e0f -->
<g id="edge18" class="edge">
<title>dir_5cbb9a0bf548abf0d2e32772c73d2ad6&#45;&gt;dir_c541d4b187fc5f863b4735b323978e0f</title>
<path fill="none" stroke="black" d="M49.91,-143.7C49.91,-135.98 49.91,-126.71 49.91,-118.11"/>
<polygon fill="black" stroke="black" points="53.41,-118.1 49.91,-108.1 46.41,-118.1 53.41,-118.1"/>
<g id="a_edge18&#45;headlabel"><a xlink:href="dir_000035_000013.html" target="_top" xlink:title="5">
<text text-anchor="middle" x="56.24" y="-119.2" font-family="Helvetica,sans-Serif" font-size="10.00">5</text>
</a>
</g>
</g>
<!-- dir_5cbb9a0bf548abf0d2e32772c73d2ad6&#45;&gt;dir_fd1e11fb0964f7346e999e146b0dfd59 -->
<g id="edge19" class="edge">
<title>dir_5cbb9a0bf548abf0d2e32772c73d2ad6&#45;&gt;dir_fd1e11fb0964f7346e999e146b0dfd59</title>
<path fill="none" stroke="black" d="M62.79,-143.87C70.08,-133.74 79.08,-120.49 85.91,-108 96.93,-87.82 107.03,-63.77 114.04,-45.76"/>
<polygon fill="black" stroke="black" points="117.4,-46.78 117.7,-36.19 110.86,-44.28 117.4,-46.78"/>
<g id="a_edge19&#45;headlabel"><a xlink:href="dir_000035_000017.html" target="_top" xlink:title="16">
<text text-anchor="middle" x="118.77" y="-48.65" font-family="Helvetica,sans-Serif" font-size="10.00">16</text>
</a>
</g>
</g>
<!-- dir_c541d4b187fc5f863b4735b323978e0f&#45;&gt;dir_fd1e11fb0964f7346e999e146b0dfd59 -->
<g id="edge3" class="edge">
<title>dir_c541d4b187fc5f863b4735b323978e0f&#45;&gt;dir_fd1e11fb0964f7346e999e146b0dfd59</title>
<path fill="none" stroke="black" d="M62.28,-71.7C70.61,-62.97 81.78,-52.24 92.37,-42.75"/>
<polygon fill="black" stroke="black" points="94.73,-45.34 99.93,-36.1 90.11,-40.08 94.73,-45.34"/>
<g id="a_edge3&#45;headlabel"><a xlink:href="dir_000013_000017.html" target="_top" xlink:title="6">
<text text-anchor="middle" x="93.9" y="-47.34" font-family="Helvetica,sans-Serif" font-size="10.00">6</text>
</a>
</g>
</g>
<!-- dir_fd1e11fb0964f7346e999e146b0dfd59&#45;&gt;dir_c541d4b187fc5f863b4735b323978e0f -->
<g id="edge2" class="edge">
<title>dir_fd1e11fb0964f7346e999e146b0dfd59&#45;&gt;dir_c541d4b187fc5f863b4735b323978e0f</title>
<path fill="none" stroke="black" d="M111.72,-36.1C103.43,-44.8 92.28,-55.52 81.68,-65.03"/>
<polygon fill="black" stroke="black" points="79.31,-62.46 74.11,-71.7 83.93,-67.72 79.31,-62.46"/>
<g id="a_edge2&#45;headlabel"><a xlink:href="dir_000017_000013.html" target="_top" xlink:title="2">
<text text-anchor="middle" x="80.13" y="-55.46" font-family="Helvetica,sans-Serif" font-size="10.00">2</text>
</a>
</g>
</g>
</g>
</svg>
