<?xml version="1.0" encoding="UTF-8" standalone="no"?>
<!DOCTYPE svg PUBLIC "-//W3C//DTD SVG 1.1//EN"
 "http://www.w3.org/Graphics/SVG/1.1/DTD/svg11.dtd">
<!-- Generated by graphviz version 2.43.0 (0)
 -->
<!-- Title: common Pages: 1 -->
<svg width="142pt" height="295pt"
 viewBox="0.00 0.00 141.50 295.00" xmlns="http://www.w3.org/2000/svg" xmlns:xlink="http://www.w3.org/1999/xlink">
<g id="graph0" class="graph" transform="scale(1 1) rotate(0) translate(4 291)">
<title>common</title>
<polygon fill="white" stroke="transparent" points="-4,4 -4,-291 137.5,-291 137.5,4 -4,4"/>
<g id="clust1" class="cluster">
<title>clusterdir_483546704081fb5397ff7c9e88ae9794</title>
<g id="a_clust1"><a xlink:href="dir_483546704081fb5397ff7c9e88ae9794.html" target="_top" xlink:title="spatial">
<polygon fill="#ddddee" stroke="black" points="8,-64 8,-279 98,-279 98,-64 8,-64"/>
<text text-anchor="middle" x="53" y="-267" font-family="Helvetica,sans-Serif" font-size="10.00">spatial</text>
</a>
</g>
</g>
<!-- dir_2abae89ee613873825cbb39ee1243e8b -->
<g id="node1" class="node">
<title>dir_2abae89ee613873825cbb39ee1243e8b</title>
<g id="a_node1"><a xlink:href="dir_2abae89ee613873825cbb39ee1243e8b.html" target="_top" xlink:title="extension">
<polygon fill="none" stroke="black" points="89.5,-252 24.5,-252 24.5,-216 89.5,-216 89.5,-252"/>
<text text-anchor="middle" x="57" y="-231.5" font-family="Helvetica,sans-Serif" font-size="10.00">extension</text>
</a>
</g>
</g>
<!-- dir_3bfc5c2bb8435cbdcb242e4cabcc5b38 -->
<g id="node2" class="node">
<title>dir_3bfc5c2bb8435cbdcb242e4cabcc5b38</title>
<g id="a_node2"><a xlink:href="dir_3bfc5c2bb8435cbdcb242e4cabcc5b38.html" target="_top" xlink:title="sbml">
<polygon fill="none" stroke="black" points="90,-180 36,-180 36,-144 90,-144 90,-180"/>
<text text-anchor="middle" x="63" y="-159.5" font-family="Helvetica,sans-Serif" font-size="10.00">sbml</text>
</a>
</g>
</g>
<!-- dir_2abae89ee613873825cbb39ee1243e8b&#45;&gt;dir_3bfc5c2bb8435cbdcb242e4cabcc5b38 -->
<g id="edge1" class="edge">
<title>dir_2abae89ee613873825cbb39ee1243e8b&#45;&gt;dir_3bfc5c2bb8435cbdcb242e4cabcc5b38</title>
<path fill="none" stroke="black" d="M52.57,-215.7C52.43,-207.98 53,-198.71 54.08,-190.11"/>
<polygon fill="black" stroke="black" points="57.56,-190.52 55.64,-180.1 50.64,-189.45 57.56,-190.52"/>
<g id="a_edge1&#45;headlabel"><a xlink:href="dir_000059_000004.html" target="_top" xlink:title="6">
<text text-anchor="middle" x="59.81" y="-192.01" font-family="Helvetica,sans-Serif" font-size="10.00">6</text>
</a>
</g>
</g>
<!-- dir_6440e6c2986786ef6ea73aa73692af12 -->
<g id="node3" class="node">
<title>dir_6440e6c2986786ef6ea73aa73692af12</title>
<g id="a_node3"><a xlink:href="dir_6440e6c2986786ef6ea73aa73692af12.html" target="_top" xlink:title="common">
<polygon fill="#eeeeff" stroke="black" points="75.5,-108 16.5,-108 16.5,-72 75.5,-72 75.5,-108"/>
<text text-anchor="middle" x="46" y="-87.5" font-family="Helvetica,sans-Serif" font-size="10.00">common</text>
</a>
</g>
</g>
<!-- dir_2abae89ee613873825cbb39ee1243e8b&#45;&gt;dir_6440e6c2986786ef6ea73aa73692af12 -->
<g id="edge2" class="edge">
<title>dir_2abae89ee613873825cbb39ee1243e8b&#45;&gt;dir_6440e6c2986786ef6ea73aa73692af12</title>
<path fill="none" stroke="black" d="M36.35,-215.85C28.71,-205.92 21.39,-192.88 18,-180 12.5,-159.12 18.29,-135.16 26.25,-117.37"/>
<polygon fill="black" stroke="black" points="29.51,-118.69 30.84,-108.18 23.24,-115.56 29.51,-118.69"/>
<g id="a_edge2&#45;headlabel"><a xlink:href="dir_000059_000024.html" target="_top" xlink:title="2">
<text text-anchor="middle" x="30.44" y="-120.67" font-family="Helvetica,sans-Serif" font-size="10.00">2</text>
</a>
</g>
</g>
<!-- dir_fd1e11fb0964f7346e999e146b0dfd59 -->
<g id="node4" class="node">
<title>dir_fd1e11fb0964f7346e999e146b0dfd59</title>
<g id="a_node4"><a xlink:href="dir_fd1e11fb0964f7346e999e146b0dfd59.html" target="_top" xlink:title="common">
<polygon fill="none" stroke="black" points="133.5,-36 74.5,-36 74.5,0 133.5,0 133.5,-36"/>
<text text-anchor="middle" x="104" y="-15.5" font-family="Helvetica,sans-Serif" font-size="10.00">common</text>
</a>
</g>
</g>
<!-- dir_2abae89ee613873825cbb39ee1243e8b&#45;&gt;dir_fd1e11fb0964f7346e999e146b0dfd59 -->
<g id="edge3" class="edge">
<title>dir_2abae89ee613873825cbb39ee1243e8b&#45;&gt;dir_fd1e11fb0964f7346e999e146b0dfd59</title>
<path fill="none" stroke="black" d="M75.22,-215.62C84.04,-206.02 93.82,-193.36 99,-180 116.16,-135.72 112.76,-79.35 108.52,-46.41"/>
<polygon fill="black" stroke="black" points="111.94,-45.6 107.08,-36.18 105.01,-46.58 111.94,-45.6"/>
<g id="a_edge3&#45;headlabel"><a xlink:href="dir_000059_000017.html" target="_top" xlink:title="7">
<text text-anchor="middle" x="115.25" y="-46.26" font-family="Helvetica,sans-Serif" font-size="10.00">7</text>
</a>
</g>
</g>
<!-- dir_3bfc5c2bb8435cbdcb242e4cabcc5b38&#45;&gt;dir_2abae89ee613873825cbb39ee1243e8b -->
<g id="edge7" class="edge">
<title>dir_3bfc5c2bb8435cbdcb242e4cabcc5b38&#45;&gt;dir_2abae89ee613873825cbb39ee1243e8b</title>
<path fill="none" stroke="black" d="M67.43,-180.1C67.58,-187.79 67.02,-197.05 65.95,-205.67"/>
<polygon fill="black" stroke="black" points="62.47,-205.28 64.4,-215.7 69.38,-206.35 62.47,-205.28"/>
<g id="a_edge7&#45;headlabel"><a xlink:href="dir_000004_000059.html" target="_top" xlink:title="47">
<text text-anchor="middle" x="60.21" y="-198.79" font-family="Helvetica,sans-Serif" font-size="10.00">47</text>
</a>
</g>
</g>
<!-- dir_3bfc5c2bb8435cbdcb242e4cabcc5b38&#45;&gt;dir_6440e6c2986786ef6ea73aa73692af12 -->
<g id="edge8" class="edge">
<title>dir_3bfc5c2bb8435cbdcb242e4cabcc5b38&#45;&gt;dir_6440e6c2986786ef6ea73aa73692af12</title>
<path fill="none" stroke="black" d="M52.88,-143.7C50.21,-135.98 47.74,-126.71 45.99,-118.11"/>
<polygon fill="black" stroke="black" points="49.41,-117.36 44.26,-108.1 42.51,-118.55 49.41,-117.36"/>
<g id="a_edge8&#45;headlabel"><a xlink:href="dir_000004_000024.html" target="_top" xlink:title="50">
<text text-anchor="middle" x="52.82" y="-117.92" font-family="Helvetica,sans-Serif" font-size="10.00">50</text>
</a>
</g>
</g>
<!-- dir_3bfc5c2bb8435cbdcb242e4cabcc5b38&#45;&gt;dir_fd1e11fb0964f7346e999e146b0dfd59 -->
<g id="edge9" class="edge">
<title>dir_3bfc5c2bb8435cbdcb242e4cabcc5b38&#45;&gt;dir_fd1e11fb0964f7346e999e146b0dfd59</title>
<path fill="none" stroke="black" d="M71.16,-143.63C75.71,-133.43 81.21,-120.18 85,-108 91.33,-87.67 96.26,-64.07 99.51,-46.29"/>
<polygon fill="black" stroke="black" points="102.98,-46.76 101.27,-36.3 96.09,-45.54 102.98,-46.76"/>
<g id="a_edge9&#45;headlabel"><a xlink:href="dir_000004_000017.html" target="_top" xlink:title="94">
<text text-anchor="middle" x="105.16" y="-48.29" font-family="Helvetica,sans-Serif" font-size="10.00">94</text>
</a>
</g>
</g>
<!-- dir_6440e6c2986786ef6ea73aa73692af12&#45;&gt;dir_2abae89ee613873825cbb39ee1243e8b -->
<g id="edge4" class="edge">
<title>dir_6440e6c2986786ef6ea73aa73692af12&#45;&gt;dir_2abae89ee613873825cbb39ee1243e8b</title>
<path fill="none" stroke="black" d="M44.28,-108.18C38.82,-126.18 29.48,-155.25 36,-180 38.44,-189.26 42.91,-198.6 47.26,-206.81"/>
<polygon fill="black" stroke="black" points="44.34,-208.75 52.2,-215.85 50.48,-205.39 44.34,-208.75"/>
<g id="a_edge4&#45;headlabel"><a xlink:href="dir_000024_000059.html" target="_top" xlink:title="7">
<text text-anchor="middle" x="40.12" y="-204.45" font-family="Helvetica,sans-Serif" font-size="10.00">7</text>
</a>
</g>
</g>
<!-- dir_6440e6c2986786ef6ea73aa73692af12&#45;&gt;dir_3bfc5c2bb8435cbdcb242e4cabcc5b38 -->
<g id="edge5" class="edge">
<title>dir_6440e6c2986786ef6ea73aa73692af12&#45;&gt;dir_3bfc5c2bb8435cbdcb242e4cabcc5b38</title>
<path fill="none" stroke="black" d="M56.05,-108.1C58.72,-115.79 61.21,-125.05 62.97,-133.67"/>
<polygon fill="black" stroke="black" points="59.55,-134.45 64.71,-143.7 66.44,-133.24 59.55,-134.45"/>
<g id="a_edge5&#45;headlabel"><a xlink:href="dir_000024_000004.html" target="_top" xlink:title="34">
<text text-anchor="middle" x="56.13" y="-128.89" font-family="Helvetica,sans-Serif" font-size="10.00">34</text>
</a>
</g>
</g>
<!-- dir_6440e6c2986786ef6ea73aa73692af12&#45;&gt;dir_fd1e11fb0964f7346e999e146b0dfd59 -->
<g id="edge6" class="edge">
<title>dir_6440e6c2986786ef6ea73aa73692af12&#45;&gt;dir_fd1e11fb0964f7346e999e146b0dfd59</title>
<path fill="none" stroke="black" d="M60.34,-71.7C67.29,-63.3 75.77,-53.07 83.4,-43.86"/>
<polygon fill="black" stroke="black" points="86.14,-46.04 89.83,-36.1 80.75,-41.57 86.14,-46.04"/>
<g id="a_edge6&#45;headlabel"><a xlink:href="dir_000024_000017.html" target="_top" xlink:title="1">
<text text-anchor="middle" x="86.04" y="-48.12" font-family="Helvetica,sans-Serif" font-size="10.00">1</text>
</a>
</g>
</g>
</g>
</svg>
