<?xml version="1.0" encoding="UTF-8" standalone="no"?>
<!DOCTYPE svg PUBLIC "-//W3C//DTD SVG 1.1//EN"
 "http://www.w3.org/Graphics/SVG/1.1/DTD/svg11.dtd">
<!-- Generated by graphviz version 2.43.0 (0)
 -->
<!-- Title: common Pages: 1 -->
<svg width="114pt" height="239pt"
 viewBox="0.00 0.00 114.00 239.00" xmlns="http://www.w3.org/2000/svg" xmlns:xlink="http://www.w3.org/1999/xlink">
<g id="graph0" class="graph" transform="scale(1 1) rotate(0) translate(4 235)">
<title>common</title>
<polygon fill="white" stroke="transparent" points="-4,4 -4,-235 110,-235 110,4 -4,4"/>
<g id="clust1" class="cluster">
<title>clusterdir_d17c5e5a75c371b2757c74298eb5dae8</title>
<g id="a_clust1"><a xlink:href="dir_d17c5e5a75c371b2757c74298eb5dae8.html" target="_top" xlink:title="distrib">
<polygon fill="#ddddee" stroke="black" points="8,-8 8,-223 98,-223 98,-8 8,-8"/>
<text text-anchor="middle" x="53" y="-211" font-family="Helvetica,sans-Serif" font-size="10.00">distrib</text>
</a>
</g>
</g>
<!-- dir_ab1b1ffda98de0e92cf76dc2624b069b -->
<g id="node1" class="node">
<title>dir_ab1b1ffda98de0e92cf76dc2624b069b</title>
<g id="a_node1"><a xlink:href="dir_ab1b1ffda98de0e92cf76dc2624b069b.html" target="_top" xlink:title="extension">
<polygon fill="none" stroke="black" points="81.5,-196 16.5,-196 16.5,-160 81.5,-160 81.5,-196"/>
<text text-anchor="middle" x="49" y="-175.5" font-family="Helvetica,sans-Serif" font-size="10.00">extension</text>
</a>
</g>
</g>
<!-- dir_f4f0951108b46b0bffdb59bcb5c11e91 -->
<g id="node2" class="node">
<title>dir_f4f0951108b46b0bffdb59bcb5c11e91</title>
<g id="a_node2"><a xlink:href="dir_f4f0951108b46b0bffdb59bcb5c11e91.html" target="_top" xlink:title="sbml">
<polygon fill="none" stroke="black" points="70,-124 16,-124 16,-88 70,-88 70,-124"/>
<text text-anchor="middle" x="43" y="-103.5" font-family="Helvetica,sans-Serif" font-size="10.00">sbml</text>
</a>
</g>
</g>
<!-- dir_ab1b1ffda98de0e92cf76dc2624b069b&#45;&gt;dir_f4f0951108b46b0bffdb59bcb5c11e91 -->
<g id="edge3" class="edge">
<title>dir_ab1b1ffda98de0e92cf76dc2624b069b&#45;&gt;dir_f4f0951108b46b0bffdb59bcb5c11e91</title>
<path fill="none" stroke="black" d="M41.6,-159.7C40.14,-151.98 39.12,-142.71 38.73,-134.11"/>
<polygon fill="black" stroke="black" points="42.23,-134.05 38.57,-124.1 35.23,-134.16 42.23,-134.05"/>
<g id="a_edge3&#45;headlabel"><a xlink:href="dir_000031_000032.html" target="_top" xlink:title="2">
<text text-anchor="middle" x="45.12" y="-135.1" font-family="Helvetica,sans-Serif" font-size="10.00">2</text>
</a>
</g>
</g>
<!-- dir_f4f0951108b46b0bffdb59bcb5c11e91&#45;&gt;dir_ab1b1ffda98de0e92cf76dc2624b069b -->
<g id="edge5" class="edge">
<title>dir_f4f0951108b46b0bffdb59bcb5c11e91&#45;&gt;dir_ab1b1ffda98de0e92cf76dc2624b069b</title>
<path fill="none" stroke="black" d="M50.36,-124.1C51.83,-131.79 52.86,-141.05 53.26,-149.67"/>
<polygon fill="black" stroke="black" points="49.76,-149.76 53.43,-159.7 56.76,-149.64 49.76,-149.76"/>
<g id="a_edge5&#45;headlabel"><a xlink:href="dir_000032_000031.html" target="_top" xlink:title="6">
<text text-anchor="middle" x="46.86" y="-143.71" font-family="Helvetica,sans-Serif" font-size="10.00">6</text>
</a>
</g>
</g>
<!-- dir_8b3ab28549ab548a2833d39a4c8ef983 -->
<g id="node3" class="node">
<title>dir_8b3ab28549ab548a2833d39a4c8ef983</title>
<g id="a_node3"><a xlink:href="dir_8b3ab28549ab548a2833d39a4c8ef983.html" target="_top" xlink:title="common">
<polygon fill="#eeeeff" stroke="black" points="75.5,-52 16.5,-52 16.5,-16 75.5,-16 75.5,-52"/>
<text text-anchor="middle" x="46" y="-31.5" font-family="Helvetica,sans-Serif" font-size="10.00">common</text>
</a>
</g>
</g>
<!-- dir_f4f0951108b46b0bffdb59bcb5c11e91&#45;&gt;dir_8b3ab28549ab548a2833d39a4c8ef983 -->
<g id="edge4" class="edge">
<title>dir_f4f0951108b46b0bffdb59bcb5c11e91&#45;&gt;dir_8b3ab28549ab548a2833d39a4c8ef983</title>
<path fill="none" stroke="black" d="M37.83,-87.7C37.36,-79.98 37.53,-70.71 38.24,-62.11"/>
<polygon fill="black" stroke="black" points="41.73,-62.43 39.37,-52.1 34.77,-61.65 41.73,-62.43"/>
<g id="a_edge4&#45;headlabel"><a xlink:href="dir_000032_000034.html" target="_top" xlink:title="6">
<text text-anchor="middle" x="44.15" y="-63.82" font-family="Helvetica,sans-Serif" font-size="10.00">6</text>
</a>
</g>
</g>
<!-- dir_8b3ab28549ab548a2833d39a4c8ef983&#45;&gt;dir_ab1b1ffda98de0e92cf76dc2624b069b -->
<g id="edge1" class="edge">
<title>dir_8b3ab28549ab548a2833d39a4c8ef983&#45;&gt;dir_ab1b1ffda98de0e92cf76dc2624b069b</title>
<path fill="none" stroke="black" d="M60.33,-52.43C67.45,-62.24 75.31,-75.08 79,-88 83.4,-103.38 83.08,-108.53 79,-124 76.51,-133.46 71.9,-143.01 67.03,-151.34"/>
<polygon fill="black" stroke="black" points="64.05,-149.51 61.73,-159.85 69.99,-153.21 64.05,-149.51"/>
<g id="a_edge1&#45;headlabel"><a xlink:href="dir_000034_000031.html" target="_top" xlink:title="3">
<text text-anchor="middle" x="63.54" y="-142.46" font-family="Helvetica,sans-Serif" font-size="10.00">3</text>
</a>
</g>
</g>
<!-- dir_8b3ab28549ab548a2833d39a4c8ef983&#45;&gt;dir_f4f0951108b46b0bffdb59bcb5c11e91 -->
<g id="edge2" class="edge">
<title>dir_8b3ab28549ab548a2833d39a4c8ef983&#45;&gt;dir_f4f0951108b46b0bffdb59bcb5c11e91</title>
<path fill="none" stroke="black" d="M51.16,-52.1C51.64,-59.79 51.48,-69.05 50.78,-77.67"/>
<polygon fill="black" stroke="black" points="47.29,-77.37 49.66,-87.7 54.24,-78.15 47.29,-77.37"/>
<g id="a_edge2&#45;headlabel"><a xlink:href="dir_000034_000032.html" target="_top" xlink:title="4">
<text text-anchor="middle" x="44.86" y="-70.98" font-family="Helvetica,sans-Serif" font-size="10.00">4</text>
</a>
</g>
</g>
</g>
</svg>
