<?xml version="1.0" encoding="UTF-8" standalone="no"?>
<!DOCTYPE svg PUBLIC "-//W3C//DTD SVG 1.1//EN"
 "http://www.w3.org/Graphics/SVG/1.1/DTD/svg11.dtd">
<!-- Generated by graphviz version 2.43.0 (0)
 -->
<!-- Title: validator Pages: 1 -->
<svg width="162pt" height="167pt"
 viewBox="0.00 0.00 162.00 167.00" xmlns="http://www.w3.org/2000/svg" xmlns:xlink="http://www.w3.org/1999/xlink">
<g id="graph0" class="graph" transform="scale(1 1) rotate(0) translate(4 163)">
<title>validator</title>
<polygon fill="white" stroke="transparent" points="-4,4 -4,-163 158,-163 158,4 -4,4"/>
<g id="clust1" class="cluster">
<title>clusterdir_8c25a664b4b6cfdfb5234e8b61efda61</title>
<g id="a_clust1"><a xlink:href="dir_8c25a664b4b6cfdfb5234e8b61efda61.html" target="_top" xlink:title="render">
<polygon fill="#ddddee" stroke="black" points="8,-8 8,-151 84,-151 84,-8 8,-8"/>
<text text-anchor="middle" x="46" y="-139" font-family="Helvetica,sans-Serif" font-size="10.00">render</text>
</a>
</g>
</g>
<!-- dir_0f865acc0217e49aeb49ab1c50c8f73a -->
<g id="node1" class="node">
<title>dir_0f865acc0217e49aeb49ab1c50c8f73a</title>
<g id="a_node1"><a xlink:href="dir_0f865acc0217e49aeb49ab1c50c8f73a.html" target="_top" xlink:title="common">
<polygon fill="none" stroke="black" points="75.5,-52 16.5,-52 16.5,-16 75.5,-16 75.5,-52"/>
<text text-anchor="middle" x="46" y="-31.5" font-family="Helvetica,sans-Serif" font-size="10.00">common</text>
</a>
</g>
</g>
<!-- dir_b1a5b7ba9091facbdf32a321b74a0f11 -->
<g id="node2" class="node">
<title>dir_b1a5b7ba9091facbdf32a321b74a0f11</title>
<g id="a_node2"><a xlink:href="dir_b1a5b7ba9091facbdf32a321b74a0f11.html" target="_top" xlink:title="validator">
<polygon fill="#eeeeff" stroke="black" points="76,-124 16,-124 16,-88 76,-88 76,-124"/>
<text text-anchor="middle" x="46" y="-103.5" font-family="Helvetica,sans-Serif" font-size="10.00">validator</text>
</a>
</g>
</g>
<!-- dir_b1a5b7ba9091facbdf32a321b74a0f11&#45;&gt;dir_0f865acc0217e49aeb49ab1c50c8f73a -->
<g id="edge1" class="edge">
<title>dir_b1a5b7ba9091facbdf32a321b74a0f11&#45;&gt;dir_0f865acc0217e49aeb49ab1c50c8f73a</title>
<path fill="none" stroke="black" d="M46,-87.7C46,-79.98 46,-70.71 46,-62.11"/>
<polygon fill="black" stroke="black" points="49.5,-62.1 46,-52.1 42.5,-62.1 49.5,-62.1"/>
<g id="a_edge1&#45;headlabel"><a xlink:href="dir_000054_000056.html" target="_top" xlink:title="1">
<text text-anchor="middle" x="52.34" y="-63.2" font-family="Helvetica,sans-Serif" font-size="10.00">1</text>
</a>
</g>
</g>
<!-- dir_a0a785b8d726fb513b94381e63693443 -->
<g id="node3" class="node">
<title>dir_a0a785b8d726fb513b94381e63693443</title>
<g id="a_node3"><a xlink:href="dir_a0a785b8d726fb513b94381e63693443.html" target="_top" xlink:title="validator">
<polygon fill="none" stroke="black" points="154,-52 94,-52 94,-16 154,-16 154,-52"/>
<text text-anchor="middle" x="124" y="-31.5" font-family="Helvetica,sans-Serif" font-size="10.00">validator</text>
</a>
</g>
</g>
<!-- dir_b1a5b7ba9091facbdf32a321b74a0f11&#45;&gt;dir_a0a785b8d726fb513b94381e63693443 -->
<g id="edge2" class="edge">
<title>dir_b1a5b7ba9091facbdf32a321b74a0f11&#45;&gt;dir_a0a785b8d726fb513b94381e63693443</title>
<path fill="none" stroke="black" d="M65.28,-87.7C74.92,-79.05 86.73,-68.45 97.23,-59.03"/>
<polygon fill="black" stroke="black" points="99.84,-61.39 104.94,-52.1 95.16,-56.18 99.84,-61.39"/>
<g id="a_edge2&#45;headlabel"><a xlink:href="dir_000054_000025.html" target="_top" xlink:title="2">
<text text-anchor="middle" x="99.06" y="-63.4" font-family="Helvetica,sans-Serif" font-size="10.00">2</text>
</a>
</g>
</g>
</g>
</svg>
