<?xml version="1.0" encoding="UTF-8" standalone="no"?>
<!DOCTYPE svg PUBLIC "-//W3C//DTD SVG 1.1//EN"
 "http://www.w3.org/Graphics/SVG/1.1/DTD/svg11.dtd">
<!-- Generated by graphviz version 2.43.0 (0)
 -->
<!-- Title: common Pages: 1 -->
<svg width="146pt" height="311pt"
 viewBox="0.00 0.00 146.00 311.00" xmlns="http://www.w3.org/2000/svg" xmlns:xlink="http://www.w3.org/1999/xlink">
<g id="graph0" class="graph" transform="scale(1 1) rotate(0) translate(4 307)">
<title>common</title>
<polygon fill="white" stroke="transparent" points="-4,4 -4,-307 142,-307 142,4 -4,4"/>
<g id="clust1" class="cluster">
<title>clusterdir_4a31e270508d04d0af8285a857164a4c</title>
<g id="a_clust1"><a xlink:href="dir_4a31e270508d04d0af8285a857164a4c.html" target="_top" xlink:title="comp">
<polygon fill="#ddddee" stroke="black" points="8,-8 8,-295 130,-295 130,-8 8,-8"/>
<text text-anchor="middle" x="69" y="-283" font-family="Helvetica,sans-Serif" font-size="10.00">comp</text>
</a>
</g>
</g>
<!-- dir_37e37a27cff779b381c25ed0134aa6e8 -->
<g id="node1" class="node">
<title>dir_37e37a27cff779b381c25ed0134aa6e8</title>
<g id="a_node1"><a xlink:href="dir_37e37a27cff779b381c25ed0134aa6e8.html" target="_top" xlink:title="validator">
<polygon fill="none" stroke="black" points="100,-268 40,-268 40,-232 100,-232 100,-268"/>
<text text-anchor="middle" x="70" y="-247.5" font-family="Helvetica,sans-Serif" font-size="10.00">validator</text>
</a>
</g>
</g>
<!-- dir_75ea03fee82884b3113f88b9ca3f5035 -->
<g id="node4" class="node">
<title>dir_75ea03fee82884b3113f88b9ca3f5035</title>
<g id="a_node4"><a xlink:href="dir_75ea03fee82884b3113f88b9ca3f5035.html" target="_top" xlink:title="common">
<polygon fill="#eeeeff" stroke="black" points="78.5,-196 19.5,-196 19.5,-160 78.5,-160 78.5,-196"/>
<text text-anchor="middle" x="49" y="-175.5" font-family="Helvetica,sans-Serif" font-size="10.00">common</text>
</a>
</g>
</g>
<!-- dir_37e37a27cff779b381c25ed0134aa6e8&#45;&gt;dir_75ea03fee82884b3113f88b9ca3f5035 -->
<g id="edge7" class="edge">
<title>dir_37e37a27cff779b381c25ed0134aa6e8&#45;&gt;dir_75ea03fee82884b3113f88b9ca3f5035</title>
<path fill="none" stroke="black" d="M58.89,-231.7C55.78,-223.98 52.78,-214.71 50.54,-206.11"/>
<polygon fill="black" stroke="black" points="53.89,-205.07 48.24,-196.1 47.07,-206.63 53.89,-205.07"/>
<g id="a_edge7&#45;headlabel"><a xlink:href="dir_000020_000022.html" target="_top" xlink:title="1">
<text text-anchor="middle" x="57.46" y="-205.43" font-family="Helvetica,sans-Serif" font-size="10.00">1</text>
</a>
</g>
</g>
<!-- dir_6b4f0bfd99a63555e3fb645ce261dd7b -->
<g id="node2" class="node">
<title>dir_6b4f0bfd99a63555e3fb645ce261dd7b</title>
<g id="a_node2"><a xlink:href="dir_6b4f0bfd99a63555e3fb645ce261dd7b.html" target="_top" xlink:title="sbml">
<polygon fill="none" stroke="black" points="96,-52 42,-52 42,-16 96,-16 96,-52"/>
<text text-anchor="middle" x="69" y="-31.5" font-family="Helvetica,sans-Serif" font-size="10.00">sbml</text>
</a>
</g>
</g>
<!-- dir_6b4f0bfd99a63555e3fb645ce261dd7b&#45;&gt;dir_37e37a27cff779b381c25ed0134aa6e8 -->
<g id="edge1" class="edge">
<title>dir_6b4f0bfd99a63555e3fb645ce261dd7b&#45;&gt;dir_37e37a27cff779b381c25ed0134aa6e8</title>
<path fill="none" stroke="black" d="M87.6,-52.24C96.53,-61.8 106.29,-74.47 111,-88 127.23,-134.61 103.45,-190.84 85.89,-223.01"/>
<polygon fill="black" stroke="black" points="82.79,-221.37 80.92,-231.8 88.89,-224.82 82.79,-221.37"/>
<g id="a_edge1&#45;headlabel"><a xlink:href="dir_000019_000020.html" target="_top" xlink:title="11">
<text text-anchor="middle" x="82.09" y="-214.34" font-family="Helvetica,sans-Serif" font-size="10.00">11</text>
</a>
</g>
</g>
<!-- dir_a8563fb538e645acca0097d117a29c7f -->
<g id="node3" class="node">
<title>dir_a8563fb538e645acca0097d117a29c7f</title>
<g id="a_node3"><a xlink:href="dir_a8563fb538e645acca0097d117a29c7f.html" target="_top" xlink:title="extension">
<polygon fill="none" stroke="black" points="101.5,-124 36.5,-124 36.5,-88 101.5,-88 101.5,-124"/>
<text text-anchor="middle" x="69" y="-103.5" font-family="Helvetica,sans-Serif" font-size="10.00">extension</text>
</a>
</g>
</g>
<!-- dir_6b4f0bfd99a63555e3fb645ce261dd7b&#45;&gt;dir_a8563fb538e645acca0097d117a29c7f -->
<g id="edge3" class="edge">
<title>dir_6b4f0bfd99a63555e3fb645ce261dd7b&#45;&gt;dir_a8563fb538e645acca0097d117a29c7f</title>
<path fill="none" stroke="black" d="M74.9,-52.1C75.7,-59.79 75.94,-69.05 75.6,-77.67"/>
<polygon fill="black" stroke="black" points="72.11,-77.48 74.92,-87.7 79.09,-77.96 72.11,-77.48"/>
<g id="a_edge3&#45;headlabel"><a xlink:href="dir_000019_000021.html" target="_top" xlink:title="34">
<text text-anchor="middle" x="69.52" y="-71.2" font-family="Helvetica,sans-Serif" font-size="10.00">34</text>
</a>
</g>
</g>
<!-- dir_6b4f0bfd99a63555e3fb645ce261dd7b&#45;&gt;dir_75ea03fee82884b3113f88b9ca3f5035 -->
<g id="edge2" class="edge">
<title>dir_6b4f0bfd99a63555e3fb645ce261dd7b&#45;&gt;dir_75ea03fee82884b3113f88b9ca3f5035</title>
<path fill="none" stroke="black" d="M58.42,-52.24C50.47,-61.8 40.71,-74.47 36,-88 28.84,-108.58 35.62,-132.6 42.12,-150.49"/>
<polygon fill="black" stroke="black" points="38.9,-151.87 45.7,-160 45.45,-149.41 38.9,-151.87"/>
<g id="a_edge2&#45;headlabel"><a xlink:href="dir_000019_000022.html" target="_top" xlink:title="15">
<text text-anchor="middle" x="34.97" y="-147.01" font-family="Helvetica,sans-Serif" font-size="10.00">15</text>
</a>
</g>
</g>
<!-- dir_a8563fb538e645acca0097d117a29c7f&#45;&gt;dir_37e37a27cff779b381c25ed0134aa6e8 -->
<g id="edge8" class="edge">
<title>dir_a8563fb538e645acca0097d117a29c7f&#45;&gt;dir_37e37a27cff779b381c25ed0134aa6e8</title>
<path fill="none" stroke="black" d="M76.89,-124.25C81.11,-134.42 85.86,-147.67 88,-160 90.74,-175.76 90.61,-180.21 88,-196 86.56,-204.72 83.87,-213.94 81,-222.2"/>
<polygon fill="black" stroke="black" points="77.67,-221.11 77.48,-231.7 84.23,-223.54 77.67,-221.11"/>
<g id="a_edge8&#45;headlabel"><a xlink:href="dir_000021_000020.html" target="_top" xlink:title="9">
<text text-anchor="middle" x="76.26" y="-214.25" font-family="Helvetica,sans-Serif" font-size="10.00">9</text>
</a>
</g>
</g>
<!-- dir_a8563fb538e645acca0097d117a29c7f&#45;&gt;dir_6b4f0bfd99a63555e3fb645ce261dd7b -->
<g id="edge9" class="edge">
<title>dir_a8563fb538e645acca0097d117a29c7f&#45;&gt;dir_6b4f0bfd99a63555e3fb645ce261dd7b</title>
<path fill="none" stroke="black" d="M63.08,-87.7C62.29,-79.98 62.06,-70.71 62.4,-62.11"/>
<polygon fill="black" stroke="black" points="65.9,-62.32 63.1,-52.1 58.92,-61.84 65.9,-62.32"/>
<g id="a_edge9&#45;headlabel"><a xlink:href="dir_000021_000019.html" target="_top" xlink:title="7">
<text text-anchor="middle" x="68.48" y="-63.61" font-family="Helvetica,sans-Serif" font-size="10.00">7</text>
</a>
</g>
</g>
<!-- dir_a8563fb538e645acca0097d117a29c7f&#45;&gt;dir_75ea03fee82884b3113f88b9ca3f5035 -->
<g id="edge10" class="edge">
<title>dir_a8563fb538e645acca0097d117a29c7f&#45;&gt;dir_75ea03fee82884b3113f88b9ca3f5035</title>
<path fill="none" stroke="black" d="M70.01,-124.1C68.59,-131.96 66.1,-141.46 63.23,-150.23"/>
<polygon fill="black" stroke="black" points="59.92,-149.1 59.86,-159.7 66.51,-151.45 59.92,-149.1"/>
<g id="a_edge10&#45;headlabel"><a xlink:href="dir_000021_000022.html" target="_top" xlink:title="5">
<text text-anchor="middle" x="58.45" y="-142.26" font-family="Helvetica,sans-Serif" font-size="10.00">5</text>
</a>
</g>
</g>
<!-- dir_75ea03fee82884b3113f88b9ca3f5035&#45;&gt;dir_37e37a27cff779b381c25ed0134aa6e8 -->
<g id="edge4" class="edge">
<title>dir_75ea03fee82884b3113f88b9ca3f5035&#45;&gt;dir_37e37a27cff779b381c25ed0134aa6e8</title>
<path fill="none" stroke="black" d="M60.03,-196.1C63.17,-203.88 66.22,-213.26 68.48,-221.95"/>
<polygon fill="black" stroke="black" points="65.07,-222.74 70.72,-231.7 71.89,-221.17 65.07,-222.74"/>
<g id="a_edge4&#45;headlabel"><a xlink:href="dir_000022_000020.html" target="_top" xlink:title="1">
<text text-anchor="middle" x="61.49" y="-217.37" font-family="Helvetica,sans-Serif" font-size="10.00">1</text>
</a>
</g>
</g>
<!-- dir_75ea03fee82884b3113f88b9ca3f5035&#45;&gt;dir_6b4f0bfd99a63555e3fb645ce261dd7b -->
<g id="edge5" class="edge">
<title>dir_75ea03fee82884b3113f88b9ca3f5035&#45;&gt;dir_6b4f0bfd99a63555e3fb645ce261dd7b</title>
<path fill="none" stroke="black" d="M32.34,-160C20.72,-141.88 9.47,-112.5 18,-88 21.57,-77.75 28.04,-67.99 35.27,-59.7"/>
<polygon fill="black" stroke="black" points="38.01,-61.9 42.37,-52.24 32.94,-57.08 38.01,-61.9"/>
<g id="a_edge5&#45;headlabel"><a xlink:href="dir_000022_000019.html" target="_top" xlink:title="15">
<text text-anchor="middle" x="37.59" y="-63.96" font-family="Helvetica,sans-Serif" font-size="10.00">15</text>
</a>
</g>
</g>
<!-- dir_75ea03fee82884b3113f88b9ca3f5035&#45;&gt;dir_a8563fb538e645acca0097d117a29c7f -->
<g id="edge6" class="edge">
<title>dir_75ea03fee82884b3113f88b9ca3f5035&#45;&gt;dir_a8563fb538e645acca0097d117a29c7f</title>
<path fill="none" stroke="black" d="M48.03,-159.7C49.47,-151.81 51.97,-142.3 54.84,-133.55"/>
<polygon fill="black" stroke="black" points="58.15,-134.7 58.22,-124.1 51.56,-132.34 58.15,-134.7"/>
<g id="a_edge6&#45;headlabel"><a xlink:href="dir_000022_000021.html" target="_top" xlink:title="4">
<text text-anchor="middle" x="59.61" y="-136.54" font-family="Helvetica,sans-Serif" font-size="10.00">4</text>
</a>
</g>
</g>
</g>
</svg>
