<?xml version="1.0" encoding="UTF-8" standalone="no"?>
<!DOCTYPE svg PUBLIC "-//W3C//DTD SVG 1.1//EN"
 "http://www.w3.org/Graphics/SVG/1.1/DTD/svg11.dtd">
<!-- Generated by graphviz version 2.43.0 (0)
 -->
<!-- Title: extension Pages: 1 -->
<svg width="417pt" height="583pt"
 viewBox="0.00 0.00 417.13 583.00" xmlns="http://www.w3.org/2000/svg" xmlns:xlink="http://www.w3.org/1999/xlink">
<g id="graph0" class="graph" transform="scale(1 1) rotate(0) translate(4 579)">
<title>extension</title>
<polygon fill="white" stroke="transparent" points="-4,4 -4,-579 413.13,-579 413.13,4 -4,4"/>
<g id="clust1" class="cluster">
<title>clusterdir_4a31e270508d04d0af8285a857164a4c</title>
<g id="a_clust1"><a xlink:href="dir_4a31e270508d04d0af8285a857164a4c.html" target="_top" xlink:title="comp">
<polygon fill="#ddddee" stroke="black" points="71.73,-280 71.73,-567 233.73,-567 233.73,-280 71.73,-280"/>
<text text-anchor="middle" x="152.73" y="-555" font-family="Helvetica,sans-Serif" font-size="10.00">comp</text>
</a>
</g>
</g>
<!-- dir_37e37a27cff779b381c25ed0134aa6e8 -->
<g id="node1" class="node">
<title>dir_37e37a27cff779b381c25ed0134aa6e8</title>
<g id="a_node1"><a xlink:href="dir_37e37a27cff779b381c25ed0134aa6e8.html" target="_top" xlink:title="validator">
<polygon fill="none" stroke="black" points="159.73,-540 99.73,-540 99.73,-504 159.73,-504 159.73,-540"/>
<text text-anchor="middle" x="129.73" y="-519.5" font-family="Helvetica,sans-Serif" font-size="10.00">validator</text>
</a>
</g>
</g>
<!-- dir_75ea03fee82884b3113f88b9ca3f5035 -->
<g id="node3" class="node">
<title>dir_75ea03fee82884b3113f88b9ca3f5035</title>
<g id="a_node3"><a xlink:href="dir_75ea03fee82884b3113f88b9ca3f5035.html" target="_top" xlink:title="common">
<polygon fill="none" stroke="black" points="159.23,-468 100.23,-468 100.23,-432 159.23,-432 159.23,-468"/>
<text text-anchor="middle" x="129.73" y="-447.5" font-family="Helvetica,sans-Serif" font-size="10.00">common</text>
</a>
</g>
</g>
<!-- dir_37e37a27cff779b381c25ed0134aa6e8&#45;&gt;dir_75ea03fee82884b3113f88b9ca3f5035 -->
<g id="edge25" class="edge">
<title>dir_37e37a27cff779b381c25ed0134aa6e8&#45;&gt;dir_75ea03fee82884b3113f88b9ca3f5035</title>
<path fill="none" stroke="black" d="M123.82,-503.7C123.02,-495.98 122.79,-486.71 123.14,-478.11"/>
<polygon fill="black" stroke="black" points="126.63,-478.32 123.84,-468.1 119.65,-477.84 126.63,-478.32"/>
<g id="a_edge25&#45;headlabel"><a xlink:href="dir_000020_000022.html" target="_top" xlink:title="1">
<text text-anchor="middle" x="129.21" y="-479.61" font-family="Helvetica,sans-Serif" font-size="10.00">1</text>
</a>
</g>
</g>
<!-- dir_6b4f0bfd99a63555e3fb645ce261dd7b -->
<g id="node2" class="node">
<title>dir_6b4f0bfd99a63555e3fb645ce261dd7b</title>
<g id="a_node2"><a xlink:href="dir_6b4f0bfd99a63555e3fb645ce261dd7b.html" target="_top" xlink:title="sbml">
<polygon fill="none" stroke="black" points="133.73,-324 79.73,-324 79.73,-288 133.73,-288 133.73,-324"/>
<text text-anchor="middle" x="106.73" y="-303.5" font-family="Helvetica,sans-Serif" font-size="10.00">sbml</text>
</a>
</g>
</g>
<!-- dir_6b4f0bfd99a63555e3fb645ce261dd7b&#45;&gt;dir_37e37a27cff779b381c25ed0134aa6e8 -->
<g id="edge3" class="edge">
<title>dir_6b4f0bfd99a63555e3fb645ce261dd7b&#45;&gt;dir_37e37a27cff779b381c25ed0134aa6e8</title>
<path fill="none" stroke="black" d="M100.46,-324.42C90.61,-354.52 74.26,-417.83 90.73,-468 94.05,-478.09 100.1,-487.85 106.46,-496.18"/>
<polygon fill="black" stroke="black" points="103.81,-498.46 112.84,-503.99 109.23,-494.03 103.81,-498.46"/>
<g id="a_edge3&#45;headlabel"><a xlink:href="dir_000019_000020.html" target="_top" xlink:title="11">
<text text-anchor="middle" x="99.34" y="-494.97" font-family="Helvetica,sans-Serif" font-size="10.00">11</text>
</a>
</g>
</g>
<!-- dir_6b4f0bfd99a63555e3fb645ce261dd7b&#45;&gt;dir_75ea03fee82884b3113f88b9ca3f5035 -->
<g id="edge6" class="edge">
<title>dir_6b4f0bfd99a63555e3fb645ce261dd7b&#45;&gt;dir_75ea03fee82884b3113f88b9ca3f5035</title>
<path fill="none" stroke="black" d="M114.38,-324.17C117.83,-342.18 120.24,-371.25 124.73,-396 126.29,-404.56 128.51,-413.76 130.33,-422.06"/>
<polygon fill="black" stroke="black" points="126.92,-422.86 132.32,-431.97 133.78,-421.47 126.92,-422.86"/>
<g id="a_edge6&#45;headlabel"><a xlink:href="dir_000019_000022.html" target="_top" xlink:title="15">
<text text-anchor="middle" x="123.43" y="-417.39" font-family="Helvetica,sans-Serif" font-size="10.00">15</text>
</a>
</g>
</g>
<!-- dir_a8563fb538e645acca0097d117a29c7f -->
<g id="node5" class="node">
<title>dir_a8563fb538e645acca0097d117a29c7f</title>
<g id="a_node5"><a xlink:href="dir_a8563fb538e645acca0097d117a29c7f.html" target="_top" xlink:title="extension">
<polygon fill="#eeeeff" stroke="black" points="205.23,-396 140.23,-396 140.23,-360 205.23,-360 205.23,-396"/>
<text text-anchor="middle" x="172.73" y="-375.5" font-family="Helvetica,sans-Serif" font-size="10.00">extension</text>
</a>
</g>
</g>
<!-- dir_6b4f0bfd99a63555e3fb645ce261dd7b&#45;&gt;dir_a8563fb538e645acca0097d117a29c7f -->
<g id="edge7" class="edge">
<title>dir_6b4f0bfd99a63555e3fb645ce261dd7b&#45;&gt;dir_a8563fb538e645acca0097d117a29c7f</title>
<path fill="none" stroke="black" d="M128.75,-324.1C137.52,-332.47 147.36,-342.69 155.59,-351.92"/>
<polygon fill="black" stroke="black" points="153.14,-354.44 162.33,-359.7 158.43,-349.85 153.14,-354.44"/>
<g id="a_edge7&#45;headlabel"><a xlink:href="dir_000019_000021.html" target="_top" xlink:title="34">
<text text-anchor="middle" x="148.64" y="-351.08" font-family="Helvetica,sans-Serif" font-size="10.00">34</text>
</a>
</g>
</g>
<!-- dir_3f96c34ad80e9031c68706862fabf1a4 -->
<g id="node6" class="node">
<title>dir_3f96c34ad80e9031c68706862fabf1a4</title>
<g id="a_node6"><a xlink:href="dir_3f96c34ad80e9031c68706862fabf1a4.html" target="_top" xlink:title="extension">
<polygon fill="none" stroke="black" points="266.23,-252 201.23,-252 201.23,-216 266.23,-216 266.23,-252"/>
<text text-anchor="middle" x="233.73" y="-231.5" font-family="Helvetica,sans-Serif" font-size="10.00">extension</text>
</a>
</g>
</g>
<!-- dir_6b4f0bfd99a63555e3fb645ce261dd7b&#45;&gt;dir_3f96c34ad80e9031c68706862fabf1a4 -->
<g id="edge4" class="edge">
<title>dir_6b4f0bfd99a63555e3fb645ce261dd7b&#45;&gt;dir_3f96c34ad80e9031c68706862fabf1a4</title>
<path fill="none" stroke="black" d="M130.42,-287.82C134.46,-285.1 138.67,-282.4 142.73,-280 158.32,-270.8 176.04,-261.74 191.68,-254.19"/>
<polygon fill="black" stroke="black" points="193.59,-257.16 201.11,-249.7 190.58,-250.84 193.59,-257.16"/>
<g id="a_edge4&#45;headlabel"><a xlink:href="dir_000019_000007.html" target="_top" xlink:title="3">
<text text-anchor="middle" x="191.57" y="-258.77" font-family="Helvetica,sans-Serif" font-size="10.00">3</text>
</a>
</g>
</g>
<!-- dir_5cbb9a0bf548abf0d2e32772c73d2ad6 -->
<g id="node7" class="node">
<title>dir_5cbb9a0bf548abf0d2e32772c73d2ad6</title>
<g id="a_node7"><a xlink:href="dir_5cbb9a0bf548abf0d2e32772c73d2ad6.html" target="_top" xlink:title="xml">
<polygon fill="none" stroke="black" points="68.73,-180 14.73,-180 14.73,-144 68.73,-144 68.73,-180"/>
<text text-anchor="middle" x="41.73" y="-159.5" font-family="Helvetica,sans-Serif" font-size="10.00">xml</text>
</a>
</g>
</g>
<!-- dir_6b4f0bfd99a63555e3fb645ce261dd7b&#45;&gt;dir_5cbb9a0bf548abf0d2e32772c73d2ad6 -->
<g id="edge5" class="edge">
<title>dir_6b4f0bfd99a63555e3fb645ce261dd7b&#45;&gt;dir_5cbb9a0bf548abf0d2e32772c73d2ad6</title>
<path fill="none" stroke="black" d="M98.89,-287.87C87.72,-263.46 67.1,-218.43 53.92,-189.64"/>
<polygon fill="black" stroke="black" points="56.95,-187.83 49.6,-180.19 50.58,-190.74 56.95,-187.83"/>
<g id="a_edge5&#45;headlabel"><a xlink:href="dir_000019_000035.html" target="_top" xlink:title="75">
<text text-anchor="middle" x="61.02" y="-187.41" font-family="Helvetica,sans-Serif" font-size="10.00">75</text>
</a>
</g>
</g>
<!-- dir_c541d4b187fc5f863b4735b323978e0f -->
<g id="node8" class="node">
<title>dir_c541d4b187fc5f863b4735b323978e0f</title>
<g id="a_node8"><a xlink:href="dir_c541d4b187fc5f863b4735b323978e0f.html" target="_top" xlink:title="util">
<polygon fill="none" stroke="black" points="228.73,-108 174.73,-108 174.73,-72 228.73,-72 228.73,-108"/>
<text text-anchor="middle" x="201.73" y="-87.5" font-family="Helvetica,sans-Serif" font-size="10.00">util</text>
</a>
</g>
</g>
<!-- dir_6b4f0bfd99a63555e3fb645ce261dd7b&#45;&gt;dir_c541d4b187fc5f863b4735b323978e0f -->
<g id="edge8" class="edge">
<title>dir_6b4f0bfd99a63555e3fb645ce261dd7b&#45;&gt;dir_c541d4b187fc5f863b4735b323978e0f</title>
<path fill="none" stroke="black" d="M114.35,-287.85C130.88,-250.6 170.18,-162.07 189.95,-117.54"/>
<polygon fill="black" stroke="black" points="193.22,-118.79 194.08,-108.23 186.83,-115.95 193.22,-118.79"/>
<g id="a_edge8&#45;headlabel"><a xlink:href="dir_000019_000013.html" target="_top" xlink:title="2">
<text text-anchor="middle" x="194.36" y="-120.73" font-family="Helvetica,sans-Serif" font-size="10.00">2</text>
</a>
</g>
</g>
<!-- dir_fd1e11fb0964f7346e999e146b0dfd59 -->
<g id="node10" class="node">
<title>dir_fd1e11fb0964f7346e999e146b0dfd59</title>
<g id="a_node10"><a xlink:href="dir_fd1e11fb0964f7346e999e146b0dfd59.html" target="_top" xlink:title="common">
<polygon fill="none" stroke="black" points="231.23,-36 172.23,-36 172.23,0 231.23,0 231.23,-36"/>
<text text-anchor="middle" x="201.73" y="-15.5" font-family="Helvetica,sans-Serif" font-size="10.00">common</text>
</a>
</g>
</g>
<!-- dir_6b4f0bfd99a63555e3fb645ce261dd7b&#45;&gt;dir_fd1e11fb0964f7346e999e146b0dfd59 -->
<g id="edge9" class="edge">
<title>dir_6b4f0bfd99a63555e3fb645ce261dd7b&#45;&gt;dir_fd1e11fb0964f7346e999e146b0dfd59</title>
<path fill="none" stroke="black" d="M82.43,-287.87C45.34,-259.46 -18.64,-200.15 5.73,-144 33.62,-79.75 113.77,-45.17 162.51,-29.55"/>
<polygon fill="black" stroke="black" points="163.58,-32.88 172.11,-26.59 161.52,-26.2 163.58,-32.88"/>
<g id="a_edge9&#45;headlabel"><a xlink:href="dir_000019_000017.html" target="_top" xlink:title="31">
<text text-anchor="middle" x="160.98" y="-34.16" font-family="Helvetica,sans-Serif" font-size="10.00">31</text>
</a>
</g>
</g>
<!-- dir_75ea03fee82884b3113f88b9ca3f5035&#45;&gt;dir_37e37a27cff779b381c25ed0134aa6e8 -->
<g id="edge20" class="edge">
<title>dir_75ea03fee82884b3113f88b9ca3f5035&#45;&gt;dir_37e37a27cff779b381c25ed0134aa6e8</title>
<path fill="none" stroke="black" d="M135.63,-468.1C136.43,-475.79 136.67,-485.05 136.34,-493.67"/>
<polygon fill="black" stroke="black" points="132.84,-493.48 135.65,-503.7 139.82,-493.96 132.84,-493.48"/>
<g id="a_edge20&#45;headlabel"><a xlink:href="dir_000022_000020.html" target="_top" xlink:title="1">
<text text-anchor="middle" x="130.25" y="-487.2" font-family="Helvetica,sans-Serif" font-size="10.00">1</text>
</a>
</g>
</g>
<!-- dir_75ea03fee82884b3113f88b9ca3f5035&#45;&gt;dir_6b4f0bfd99a63555e3fb645ce261dd7b -->
<g id="edge21" class="edge">
<title>dir_75ea03fee82884b3113f88b9ca3f5035&#45;&gt;dir_6b4f0bfd99a63555e3fb645ce261dd7b</title>
<path fill="none" stroke="black" d="M116.68,-431.97C112.52,-421.65 108.94,-408.17 106.73,-396 103.01,-375.5 100.72,-352.04 100.67,-334.36"/>
<polygon fill="black" stroke="black" points="104.18,-334.26 100.95,-324.17 97.18,-334.08 104.18,-334.26"/>
<g id="a_edge21&#45;headlabel"><a xlink:href="dir_000022_000019.html" target="_top" xlink:title="15">
<text text-anchor="middle" x="106.92" y="-335.43" font-family="Helvetica,sans-Serif" font-size="10.00">15</text>
</a>
</g>
</g>
<!-- dir_75ea03fee82884b3113f88b9ca3f5035&#45;&gt;dir_a8563fb538e645acca0097d117a29c7f -->
<g id="edge22" class="edge">
<title>dir_75ea03fee82884b3113f88b9ca3f5035&#45;&gt;dir_a8563fb538e645acca0097d117a29c7f</title>
<path fill="none" stroke="black" d="M134.45,-431.7C138.65,-423.47 144.58,-413.48 150.6,-404.42"/>
<polygon fill="black" stroke="black" points="153.54,-406.32 156.33,-396.1 147.77,-402.35 153.54,-406.32"/>
<g id="a_edge22&#45;headlabel"><a xlink:href="dir_000022_000021.html" target="_top" xlink:title="4">
<text text-anchor="middle" x="153.83" y="-408.39" font-family="Helvetica,sans-Serif" font-size="10.00">4</text>
</a>
</g>
</g>
<!-- dir_bd834f6d703e990742b68c11905a6fe2 -->
<g id="node4" class="node">
<title>dir_bd834f6d703e990742b68c11905a6fe2</title>
<g id="a_node4"><a xlink:href="dir_bd834f6d703e990742b68c11905a6fe2.html" target="_top" xlink:title="util">
<polygon fill="none" stroke="black" points="205.73,-324 151.73,-324 151.73,-288 205.73,-288 205.73,-324"/>
<text text-anchor="middle" x="178.73" y="-303.5" font-family="Helvetica,sans-Serif" font-size="10.00">util</text>
</a>
</g>
</g>
<!-- dir_bd834f6d703e990742b68c11905a6fe2&#45;&gt;dir_37e37a27cff779b381c25ed0134aa6e8 -->
<g id="edge10" class="edge">
<title>dir_bd834f6d703e990742b68c11905a6fe2&#45;&gt;dir_37e37a27cff779b381c25ed0134aa6e8</title>
<path fill="none" stroke="black" d="M193.91,-324.3C201.46,-334.06 209.8,-346.9 213.73,-360 218.34,-375.32 217.49,-380.45 213.73,-396 204.18,-435.5 175.26,-473.11 154.01,-496.57"/>
<polygon fill="black" stroke="black" points="151.39,-494.26 147.14,-503.97 156.51,-499.02 151.39,-494.26"/>
<g id="a_edge10&#45;headlabel"><a xlink:href="dir_000023_000020.html" target="_top" xlink:title="1">
<text text-anchor="middle" x="151.75" y="-487.19" font-family="Helvetica,sans-Serif" font-size="10.00">1</text>
</a>
</g>
</g>
<!-- dir_bd834f6d703e990742b68c11905a6fe2&#45;&gt;dir_75ea03fee82884b3113f88b9ca3f5035 -->
<g id="edge12" class="edge">
<title>dir_bd834f6d703e990742b68c11905a6fe2&#45;&gt;dir_75ea03fee82884b3113f88b9ca3f5035</title>
<path fill="none" stroke="black" d="M157.09,-324.24C147.06,-333.62 136.17,-346.13 130.73,-360 123,-379.72 123.26,-403.85 125.18,-422"/>
<polygon fill="black" stroke="black" points="121.7,-422.44 126.44,-431.92 128.65,-421.56 121.7,-422.44"/>
<g id="a_edge12&#45;headlabel"><a xlink:href="dir_000023_000022.html" target="_top" xlink:title="1">
<text text-anchor="middle" x="118.43" y="-416.74" font-family="Helvetica,sans-Serif" font-size="10.00">1</text>
</a>
</g>
</g>
<!-- dir_bd834f6d703e990742b68c11905a6fe2&#45;&gt;dir_a8563fb538e645acca0097d117a29c7f -->
<g id="edge13" class="edge">
<title>dir_bd834f6d703e990742b68c11905a6fe2&#45;&gt;dir_a8563fb538e645acca0097d117a29c7f</title>
<path fill="none" stroke="black" d="M183.16,-324.1C183.31,-331.79 182.75,-341.05 181.68,-349.67"/>
<polygon fill="black" stroke="black" points="178.2,-349.28 180.13,-359.7 185.12,-350.35 178.2,-349.28"/>
<g id="a_edge13&#45;headlabel"><a xlink:href="dir_000023_000021.html" target="_top" xlink:title="1">
<text text-anchor="middle" x="175.94" y="-342.79" font-family="Helvetica,sans-Serif" font-size="10.00">1</text>
</a>
</g>
</g>
<!-- dir_bd834f6d703e990742b68c11905a6fe2&#45;&gt;dir_3f96c34ad80e9031c68706862fabf1a4 -->
<g id="edge11" class="edge">
<title>dir_bd834f6d703e990742b68c11905a6fe2&#45;&gt;dir_3f96c34ad80e9031c68706862fabf1a4</title>
<path fill="none" stroke="black" d="M192.33,-287.7C198.85,-279.39 206.8,-269.28 213.98,-260.14"/>
<polygon fill="black" stroke="black" points="216.87,-262.13 220.29,-252.1 211.36,-257.81 216.87,-262.13"/>
<g id="a_edge11&#45;headlabel"><a xlink:href="dir_000023_000007.html" target="_top" xlink:title="2">
<text text-anchor="middle" x="216.88" y="-264.21" font-family="Helvetica,sans-Serif" font-size="10.00">2</text>
</a>
</g>
</g>
<!-- dir_bd834f6d703e990742b68c11905a6fe2&#45;&gt;dir_c541d4b187fc5f863b4735b323978e0f -->
<g id="edge14" class="edge">
<title>dir_bd834f6d703e990742b68c11905a6fe2&#45;&gt;dir_c541d4b187fc5f863b4735b323978e0f</title>
<path fill="none" stroke="black" d="M180.58,-287.85C184.55,-250.83 193.97,-163.18 198.79,-118.39"/>
<polygon fill="black" stroke="black" points="202.29,-118.55 199.88,-108.23 195.33,-117.8 202.29,-118.55"/>
<g id="a_edge14&#45;headlabel"><a xlink:href="dir_000023_000013.html" target="_top" xlink:title="2">
<text text-anchor="middle" x="204.73" y="-119.93" font-family="Helvetica,sans-Serif" font-size="10.00">2</text>
</a>
</g>
</g>
<!-- dir_d3b86ce335ad818909ececff0fac1eca -->
<g id="node9" class="node">
<title>dir_d3b86ce335ad818909ececff0fac1eca</title>
<g id="a_node9"><a xlink:href="dir_d3b86ce335ad818909ececff0fac1eca.html" target="_top" xlink:title="conversion">
<polygon fill="none" stroke="black" points="375.73,-324 305.73,-324 305.73,-288 375.73,-288 375.73,-324"/>
<text text-anchor="middle" x="340.73" y="-303.5" font-family="Helvetica,sans-Serif" font-size="10.00">conversion</text>
</a>
</g>
</g>
<!-- dir_bd834f6d703e990742b68c11905a6fe2&#45;&gt;dir_d3b86ce335ad818909ececff0fac1eca -->
<g id="edge15" class="edge">
<title>dir_bd834f6d703e990742b68c11905a6fe2&#45;&gt;dir_d3b86ce335ad818909ececff0fac1eca</title>
<path fill="none" stroke="black" d="M205.94,-306C235.82,-306 265.7,-306 295.59,-306"/>
<polygon fill="black" stroke="black" points="295.72,-309.5 305.72,-306 295.72,-302.5 295.72,-309.5"/>
<g id="a_edge15&#45;headlabel"><a xlink:href="dir_000023_000026.html" target="_top" xlink:title="4">
<text text-anchor="middle" x="292.12" y="-309.84" font-family="Helvetica,sans-Serif" font-size="10.00">4</text>
</a>
</g>
</g>
<!-- dir_bd834f6d703e990742b68c11905a6fe2&#45;&gt;dir_fd1e11fb0964f7346e999e146b0dfd59 -->
<g id="edge16" class="edge">
<title>dir_bd834f6d703e990742b68c11905a6fe2&#45;&gt;dir_fd1e11fb0964f7346e999e146b0dfd59</title>
<path fill="none" stroke="black" d="M173.8,-287.84C163.35,-248.59 141.86,-149.64 165.73,-72 168.74,-62.22 174.24,-52.62 180.05,-44.33"/>
<polygon fill="black" stroke="black" points="182.93,-46.33 186.12,-36.23 177.33,-42.13 182.93,-46.33"/>
<g id="a_edge16&#45;headlabel"><a xlink:href="dir_000023_000017.html" target="_top" xlink:title="5">
<text text-anchor="middle" x="183.04" y="-48.41" font-family="Helvetica,sans-Serif" font-size="10.00">5</text>
</a>
</g>
</g>
<!-- dir_a8563fb538e645acca0097d117a29c7f&#45;&gt;dir_37e37a27cff779b381c25ed0134aa6e8 -->
<g id="edge29" class="edge">
<title>dir_a8563fb538e645acca0097d117a29c7f&#45;&gt;dir_37e37a27cff779b381c25ed0134aa6e8</title>
<path fill="none" stroke="black" d="M174.55,-396.28C175.86,-414.63 176.12,-444.21 167.73,-468 164.27,-477.83 158.38,-487.44 152.26,-495.72"/>
<polygon fill="black" stroke="black" points="149.33,-493.79 145.9,-503.82 154.83,-498.12 149.33,-493.79"/>
<g id="a_edge29&#45;headlabel"><a xlink:href="dir_000021_000020.html" target="_top" xlink:title="9">
<text text-anchor="middle" x="149.31" y="-486.71" font-family="Helvetica,sans-Serif" font-size="10.00">9</text>
</a>
</g>
</g>
<!-- dir_a8563fb538e645acca0097d117a29c7f&#45;&gt;dir_6b4f0bfd99a63555e3fb645ce261dd7b -->
<g id="edge32" class="edge">
<title>dir_a8563fb538e645acca0097d117a29c7f&#45;&gt;dir_6b4f0bfd99a63555e3fb645ce261dd7b</title>
<path fill="none" stroke="black" d="M150.5,-359.7C141.72,-351.3 131.88,-341.07 123.68,-331.86"/>
<polygon fill="black" stroke="black" points="126.16,-329.37 116.96,-324.1 120.86,-333.96 126.16,-329.37"/>
<g id="a_edge32&#45;headlabel"><a xlink:href="dir_000021_000019.html" target="_top" xlink:title="7">
<text text-anchor="middle" x="130.66" y="-327.73" font-family="Helvetica,sans-Serif" font-size="10.00">7</text>
</a>
</g>
</g>
<!-- dir_a8563fb538e645acca0097d117a29c7f&#45;&gt;dir_75ea03fee82884b3113f88b9ca3f5035 -->
<g id="edge33" class="edge">
<title>dir_a8563fb538e645acca0097d117a29c7f&#45;&gt;dir_75ea03fee82884b3113f88b9ca3f5035</title>
<path fill="none" stroke="black" d="M168.12,-396.1C163.95,-404.3 158.02,-414.28 152.01,-423.36"/>
<polygon fill="black" stroke="black" points="149.06,-421.47 146.28,-431.7 154.83,-425.44 149.06,-421.47"/>
<g id="a_edge33&#45;headlabel"><a xlink:href="dir_000021_000022.html" target="_top" xlink:title="5">
<text text-anchor="middle" x="148.76" y="-414.4" font-family="Helvetica,sans-Serif" font-size="10.00">5</text>
</a>
</g>
</g>
<!-- dir_a8563fb538e645acca0097d117a29c7f&#45;&gt;dir_bd834f6d703e990742b68c11905a6fe2 -->
<g id="edge34" class="edge">
<title>dir_a8563fb538e645acca0097d117a29c7f&#45;&gt;dir_bd834f6d703e990742b68c11905a6fe2</title>
<path fill="none" stroke="black" d="M168.3,-359.7C168.17,-351.98 168.73,-342.71 169.81,-334.11"/>
<polygon fill="black" stroke="black" points="173.29,-334.52 171.37,-324.1 166.37,-333.45 173.29,-334.52"/>
<g id="a_edge34&#45;headlabel"><a xlink:href="dir_000021_000023.html" target="_top" xlink:title="4">
<text text-anchor="middle" x="175.54" y="-336.01" font-family="Helvetica,sans-Serif" font-size="10.00">4</text>
</a>
</g>
</g>
<!-- dir_a8563fb538e645acca0097d117a29c7f&#45;&gt;dir_3f96c34ad80e9031c68706862fabf1a4 -->
<g id="edge30" class="edge">
<title>dir_a8563fb538e645acca0097d117a29c7f&#45;&gt;dir_3f96c34ad80e9031c68706862fabf1a4</title>
<path fill="none" stroke="black" d="M189.77,-359.76C198.48,-350.02 208.53,-337.17 214.73,-324 223.96,-304.4 228.76,-280.27 231.22,-262.08"/>
<polygon fill="black" stroke="black" points="234.69,-262.49 232.41,-252.14 227.74,-261.65 234.69,-262.49"/>
<g id="a_edge30&#45;headlabel"><a xlink:href="dir_000021_000007.html" target="_top" xlink:title="11">
<text text-anchor="middle" x="237.08" y="-263.89" font-family="Helvetica,sans-Serif" font-size="10.00">11</text>
</a>
</g>
</g>
<!-- dir_a8563fb538e645acca0097d117a29c7f&#45;&gt;dir_5cbb9a0bf548abf0d2e32772c73d2ad6 -->
<g id="edge31" class="edge">
<title>dir_a8563fb538e645acca0097d117a29c7f&#45;&gt;dir_5cbb9a0bf548abf0d2e32772c73d2ad6</title>
<path fill="none" stroke="black" d="M140.06,-368.4C117.08,-360.63 87.54,-346.82 70.73,-324 41.62,-284.49 38.6,-224.96 39.71,-190.44"/>
<polygon fill="black" stroke="black" points="43.22,-190.32 40.18,-180.17 36.22,-190 43.22,-190.32"/>
<g id="a_edge31&#45;headlabel"><a xlink:href="dir_000021_000035.html" target="_top" xlink:title="6">
<text text-anchor="middle" x="45.89" y="-191.55" font-family="Helvetica,sans-Serif" font-size="10.00">6</text>
</a>
</g>
</g>
<!-- dir_a8563fb538e645acca0097d117a29c7f&#45;&gt;dir_c541d4b187fc5f863b4735b323978e0f -->
<g id="edge35" class="edge">
<title>dir_a8563fb538e645acca0097d117a29c7f&#45;&gt;dir_c541d4b187fc5f863b4735b323978e0f</title>
<path fill="none" stroke="black" d="M197.02,-359.93C209.57,-350.33 224.55,-337.57 235.73,-324 259.01,-295.75 266.55,-287.44 275.73,-252 288.91,-201.15 251.59,-146.51 225.27,-115.76"/>
<polygon fill="black" stroke="black" points="227.76,-113.29 218.52,-108.11 222.51,-117.92 227.76,-113.29"/>
<g id="a_edge35&#45;headlabel"><a xlink:href="dir_000021_000013.html" target="_top" xlink:title="4">
<text text-anchor="middle" x="232.27" y="-111.61" font-family="Helvetica,sans-Serif" font-size="10.00">4</text>
</a>
</g>
</g>
<!-- dir_a8563fb538e645acca0097d117a29c7f&#45;&gt;dir_d3b86ce335ad818909ececff0fac1eca -->
<g id="edge36" class="edge">
<title>dir_a8563fb538e645acca0097d117a29c7f&#45;&gt;dir_d3b86ce335ad818909ececff0fac1eca</title>
<path fill="none" stroke="black" d="M205.52,-363.34C231.43,-352.54 267.85,-337.37 296.37,-325.49"/>
<polygon fill="black" stroke="black" points="297.82,-328.67 305.71,-321.59 295.13,-322.21 297.82,-328.67"/>
<g id="a_edge36&#45;headlabel"><a xlink:href="dir_000021_000026.html" target="_top" xlink:title="2">
<text text-anchor="middle" x="295.6" y="-330.17" font-family="Helvetica,sans-Serif" font-size="10.00">2</text>
</a>
</g>
</g>
<!-- dir_a8563fb538e645acca0097d117a29c7f&#45;&gt;dir_fd1e11fb0964f7346e999e146b0dfd59 -->
<g id="edge37" class="edge">
<title>dir_a8563fb538e645acca0097d117a29c7f&#45;&gt;dir_fd1e11fb0964f7346e999e146b0dfd59</title>
<path fill="none" stroke="black" d="M205.54,-372.88C258.51,-365.59 359.49,-348.78 384.73,-324 413.97,-295.3 408.73,-275.97 408.73,-235 408.73,-235 408.73,-235 408.73,-161 408.73,-80.67 301.4,-42.4 241.31,-27.27"/>
<polygon fill="black" stroke="black" points="241.93,-23.82 231.39,-24.87 240.29,-30.62 241.93,-23.82"/>
<g id="a_edge37&#45;headlabel"><a xlink:href="dir_000021_000017.html" target="_top" xlink:title="10">
<text text-anchor="middle" x="246.09" y="-19.4" font-family="Helvetica,sans-Serif" font-size="10.00">10</text>
</a>
</g>
</g>
<!-- dir_3f96c34ad80e9031c68706862fabf1a4&#45;&gt;dir_5cbb9a0bf548abf0d2e32772c73d2ad6 -->
<g id="edge26" class="edge">
<title>dir_3f96c34ad80e9031c68706862fabf1a4&#45;&gt;dir_5cbb9a0bf548abf0d2e32772c73d2ad6</title>
<path fill="none" stroke="black" d="M201.16,-221.13C167.13,-208.72 113.85,-189.29 78.37,-176.36"/>
<polygon fill="black" stroke="black" points="79.46,-173.03 68.87,-172.89 77.06,-179.61 79.46,-173.03"/>
<g id="a_edge26&#45;headlabel"><a xlink:href="dir_000007_000035.html" target="_top" xlink:title="2">
<text text-anchor="middle" x="83.81" y="-169.09" font-family="Helvetica,sans-Serif" font-size="10.00">2</text>
</a>
</g>
</g>
<!-- dir_3f96c34ad80e9031c68706862fabf1a4&#45;&gt;dir_c541d4b187fc5f863b4735b323978e0f -->
<g id="edge27" class="edge">
<title>dir_3f96c34ad80e9031c68706862fabf1a4&#45;&gt;dir_c541d4b187fc5f863b4735b323978e0f</title>
<path fill="none" stroke="black" d="M229.87,-215.87C224.39,-191.56 214.31,-146.82 207.82,-118.01"/>
<polygon fill="black" stroke="black" points="211.22,-117.18 205.61,-108.19 204.39,-118.71 211.22,-117.18"/>
<g id="a_edge27&#45;headlabel"><a xlink:href="dir_000007_000013.html" target="_top" xlink:title="4">
<text text-anchor="middle" x="214.78" y="-117.56" font-family="Helvetica,sans-Serif" font-size="10.00">4</text>
</a>
</g>
</g>
<!-- dir_3f96c34ad80e9031c68706862fabf1a4&#45;&gt;dir_fd1e11fb0964f7346e999e146b0dfd59 -->
<g id="edge28" class="edge">
<title>dir_3f96c34ad80e9031c68706862fabf1a4&#45;&gt;dir_fd1e11fb0964f7346e999e146b0dfd59</title>
<path fill="none" stroke="black" d="M237.7,-215.59C243.78,-185.52 253.18,-122.24 237.73,-72 234.72,-62.22 229.23,-52.62 223.42,-44.33"/>
<polygon fill="black" stroke="black" points="226.14,-42.13 217.34,-36.23 220.54,-46.33 226.14,-42.13"/>
<g id="a_edge28&#45;headlabel"><a xlink:href="dir_000007_000017.html" target="_top" xlink:title="9">
<text text-anchor="middle" x="230.57" y="-40.8" font-family="Helvetica,sans-Serif" font-size="10.00">9</text>
</a>
</g>
</g>
<!-- dir_5cbb9a0bf548abf0d2e32772c73d2ad6&#45;&gt;dir_c541d4b187fc5f863b4735b323978e0f -->
<g id="edge23" class="edge">
<title>dir_5cbb9a0bf548abf0d2e32772c73d2ad6&#45;&gt;dir_c541d4b187fc5f863b4735b323978e0f</title>
<path fill="none" stroke="black" d="M68.87,-149.13C95.39,-137.53 135.92,-119.79 165.25,-106.96"/>
<polygon fill="black" stroke="black" points="166.97,-110.03 174.72,-102.82 164.16,-103.62 166.97,-110.03"/>
<g id="a_edge23&#45;headlabel"><a xlink:href="dir_000035_000013.html" target="_top" xlink:title="5">
<text text-anchor="middle" x="164.81" y="-111.57" font-family="Helvetica,sans-Serif" font-size="10.00">5</text>
</a>
</g>
</g>
<!-- dir_5cbb9a0bf548abf0d2e32772c73d2ad6&#45;&gt;dir_fd1e11fb0964f7346e999e146b0dfd59 -->
<g id="edge24" class="edge">
<title>dir_5cbb9a0bf548abf0d2e32772c73d2ad6&#45;&gt;dir_fd1e11fb0964f7346e999e146b0dfd59</title>
<path fill="none" stroke="black" d="M54.8,-143.7C69.57,-124.81 94.93,-94.28 120.73,-72 133.67,-60.83 149.12,-50.17 163.03,-41.38"/>
<polygon fill="black" stroke="black" points="165.25,-44.12 171.92,-35.88 161.57,-38.17 165.25,-44.12"/>
<g id="a_edge24&#45;headlabel"><a xlink:href="dir_000035_000017.html" target="_top" xlink:title="16">
<text text-anchor="middle" x="163.69" y="-45.92" font-family="Helvetica,sans-Serif" font-size="10.00">16</text>
</a>
</g>
</g>
<!-- dir_c541d4b187fc5f863b4735b323978e0f&#45;&gt;dir_fd1e11fb0964f7346e999e146b0dfd59 -->
<g id="edge2" class="edge">
<title>dir_c541d4b187fc5f863b4735b323978e0f&#45;&gt;dir_fd1e11fb0964f7346e999e146b0dfd59</title>
<path fill="none" stroke="black" d="M195.82,-71.7C195.02,-63.98 194.79,-54.71 195.14,-46.11"/>
<polygon fill="black" stroke="black" points="198.63,-46.32 195.84,-36.1 191.65,-45.84 198.63,-46.32"/>
<g id="a_edge2&#45;headlabel"><a xlink:href="dir_000013_000017.html" target="_top" xlink:title="6">
<text text-anchor="middle" x="201.21" y="-47.61" font-family="Helvetica,sans-Serif" font-size="10.00">6</text>
</a>
</g>
</g>
<!-- dir_d3b86ce335ad818909ececff0fac1eca&#45;&gt;dir_3f96c34ad80e9031c68706862fabf1a4 -->
<g id="edge17" class="edge">
<title>dir_d3b86ce335ad818909ececff0fac1eca&#45;&gt;dir_3f96c34ad80e9031c68706862fabf1a4</title>
<path fill="none" stroke="black" d="M314.56,-287.88C300.7,-278.81 283.49,-267.55 268.52,-257.76"/>
<polygon fill="black" stroke="black" points="270.29,-254.74 260.01,-252.19 266.46,-260.59 270.29,-254.74"/>
<g id="a_edge17&#45;headlabel"><a xlink:href="dir_000026_000007.html" target="_top" xlink:title="5">
<text text-anchor="middle" x="274.85" y="-251.83" font-family="Helvetica,sans-Serif" font-size="10.00">5</text>
</a>
</g>
</g>
<!-- dir_d3b86ce335ad818909ececff0fac1eca&#45;&gt;dir_c541d4b187fc5f863b4735b323978e0f -->
<g id="edge18" class="edge">
<title>dir_d3b86ce335ad818909ececff0fac1eca&#45;&gt;dir_c541d4b187fc5f863b4735b323978e0f</title>
<path fill="none" stroke="black" d="M336.74,-287.74C328.76,-256.22 308.27,-188.5 270.73,-144 261.17,-132.66 248.8,-122.23 237.17,-113.67"/>
<polygon fill="black" stroke="black" points="239.07,-110.72 228.89,-107.78 235.01,-116.43 239.07,-110.72"/>
<g id="a_edge18&#45;headlabel"><a xlink:href="dir_000026_000013.html" target="_top" xlink:title="11">
<text text-anchor="middle" x="243.64" y="-107.99" font-family="Helvetica,sans-Serif" font-size="10.00">11</text>
</a>
</g>
</g>
<!-- dir_d3b86ce335ad818909ececff0fac1eca&#45;&gt;dir_fd1e11fb0964f7346e999e146b0dfd59 -->
<g id="edge19" class="edge">
<title>dir_d3b86ce335ad818909ececff0fac1eca&#45;&gt;dir_fd1e11fb0964f7346e999e146b0dfd59</title>
<path fill="none" stroke="black" d="M341.12,-287.91C341.09,-269.73 339.77,-240.29 332.73,-216 312.52,-146.29 299.71,-129.74 255.73,-72 247.96,-61.79 238.26,-51.66 229.23,-43.03"/>
<polygon fill="black" stroke="black" points="231.57,-40.43 221.87,-36.17 226.8,-45.55 231.57,-40.43"/>
<g id="a_edge19&#45;headlabel"><a xlink:href="dir_000026_000017.html" target="_top" xlink:title="6">
<text text-anchor="middle" x="236.13" y="-38.3" font-family="Helvetica,sans-Serif" font-size="10.00">6</text>
</a>
</g>
</g>
<!-- dir_fd1e11fb0964f7346e999e146b0dfd59&#45;&gt;dir_c541d4b187fc5f863b4735b323978e0f -->
<g id="edge1" class="edge">
<title>dir_fd1e11fb0964f7346e999e146b0dfd59&#45;&gt;dir_c541d4b187fc5f863b4735b323978e0f</title>
<path fill="none" stroke="black" d="M207.63,-36.1C208.43,-43.79 208.67,-53.05 208.34,-61.67"/>
<polygon fill="black" stroke="black" points="204.84,-61.48 207.65,-71.7 211.82,-61.96 204.84,-61.48"/>
<g id="a_edge1&#45;headlabel"><a xlink:href="dir_000017_000013.html" target="_top" xlink:title="2">
<text text-anchor="middle" x="202.25" y="-55.2" font-family="Helvetica,sans-Serif" font-size="10.00">2</text>
</a>
</g>
</g>
</g>
</svg>
