<?xml version="1.0" encoding="UTF-8" standalone="no"?>
<!DOCTYPE svg PUBLIC "-//W3C//DTD SVG 1.1//EN"
 "http://www.w3.org/Graphics/SVG/1.1/DTD/svg11.dtd">
<!-- Generated by graphviz version 2.43.0 (0)
 -->
<!-- Title: sbml Pages: 1 -->
<svg width="215pt" height="439pt"
 viewBox="0.00 0.00 215.30 439.00" xmlns="http://www.w3.org/2000/svg" xmlns:xlink="http://www.w3.org/1999/xlink">
<g id="graph0" class="graph" transform="scale(1 1) rotate(0) translate(4 435)">
<title>sbml</title>
<polygon fill="white" stroke="transparent" points="-4,4 -4,-435 211.3,-435 211.3,4 -4,4"/>
<g id="clust1" class="cluster">
<title>clusterdir_d17c5e5a75c371b2757c74298eb5dae8</title>
<g id="a_clust1"><a xlink:href="dir_d17c5e5a75c371b2757c74298eb5dae8.html" target="_top" xlink:title="distrib">
<polygon fill="#ddddee" stroke="black" points="9.77,-136 9.77,-423 131.77,-423 131.77,-136 9.77,-136"/>
<text text-anchor="middle" x="70.77" y="-411" font-family="Helvetica,sans-Serif" font-size="10.00">distrib</text>
</a>
</g>
</g>
<!-- dir_8b3ab28549ab548a2833d39a4c8ef983 -->
<g id="node1" class="node">
<title>dir_8b3ab28549ab548a2833d39a4c8ef983</title>
<g id="a_node1"><a xlink:href="dir_8b3ab28549ab548a2833d39a4c8ef983.html" target="_top" xlink:title="common">
<polygon fill="none" stroke="black" points="77.27,-396 18.27,-396 18.27,-360 77.27,-360 77.27,-396"/>
<text text-anchor="middle" x="47.77" y="-375.5" font-family="Helvetica,sans-Serif" font-size="10.00">common</text>
</a>
</g>
</g>
<!-- dir_ab1b1ffda98de0e92cf76dc2624b069b -->
<g id="node3" class="node">
<title>dir_ab1b1ffda98de0e92cf76dc2624b069b</title>
<g id="a_node3"><a xlink:href="dir_ab1b1ffda98de0e92cf76dc2624b069b.html" target="_top" xlink:title="extension">
<polygon fill="none" stroke="black" points="123.27,-324 58.27,-324 58.27,-288 123.27,-288 123.27,-324"/>
<text text-anchor="middle" x="90.77" y="-303.5" font-family="Helvetica,sans-Serif" font-size="10.00">extension</text>
</a>
</g>
</g>
<!-- dir_8b3ab28549ab548a2833d39a4c8ef983&#45;&gt;dir_ab1b1ffda98de0e92cf76dc2624b069b -->
<g id="edge4" class="edge">
<title>dir_8b3ab28549ab548a2833d39a4c8ef983&#45;&gt;dir_ab1b1ffda98de0e92cf76dc2624b069b</title>
<path fill="none" stroke="black" d="M58.4,-359.7C63.4,-351.56 69.46,-341.69 74.98,-332.7"/>
<polygon fill="black" stroke="black" points="78.01,-334.46 80.26,-324.1 72.04,-330.79 78.01,-334.46"/>
<g id="a_edge4&#45;headlabel"><a xlink:href="dir_000034_000031.html" target="_top" xlink:title="3">
<text text-anchor="middle" x="78.55" y="-336.51" font-family="Helvetica,sans-Serif" font-size="10.00">3</text>
</a>
</g>
</g>
<!-- dir_f4f0951108b46b0bffdb59bcb5c11e91 -->
<g id="node4" class="node">
<title>dir_f4f0951108b46b0bffdb59bcb5c11e91</title>
<g id="a_node4"><a xlink:href="dir_f4f0951108b46b0bffdb59bcb5c11e91.html" target="_top" xlink:title="sbml">
<polygon fill="#eeeeff" stroke="black" points="91.77,-252 37.77,-252 37.77,-216 91.77,-216 91.77,-252"/>
<text text-anchor="middle" x="64.77" y="-231.5" font-family="Helvetica,sans-Serif" font-size="10.00">sbml</text>
</a>
</g>
</g>
<!-- dir_8b3ab28549ab548a2833d39a4c8ef983&#45;&gt;dir_f4f0951108b46b0bffdb59bcb5c11e91 -->
<g id="edge5" class="edge">
<title>dir_8b3ab28549ab548a2833d39a4c8ef983&#45;&gt;dir_f4f0951108b46b0bffdb59bcb5c11e91</title>
<path fill="none" stroke="black" d="M40.15,-359.83C37.23,-341.82 37.05,-312.76 40.77,-288 42.06,-279.39 44.33,-270.21 47.12,-261.95"/>
<polygon fill="black" stroke="black" points="50.46,-263.01 50.76,-252.42 43.92,-260.52 50.46,-263.01"/>
<g id="a_edge5&#45;headlabel"><a xlink:href="dir_000034_000032.html" target="_top" xlink:title="4">
<text text-anchor="middle" x="51.83" y="-264.88" font-family="Helvetica,sans-Serif" font-size="10.00">4</text>
</a>
</g>
</g>
<!-- dir_a5f115cb95c3e5f9e4c1a9f0f6e79c1a -->
<g id="node2" class="node">
<title>dir_a5f115cb95c3e5f9e4c1a9f0f6e79c1a</title>
<g id="a_node2"><a xlink:href="dir_a5f115cb95c3e5f9e4c1a9f0f6e79c1a.html" target="_top" xlink:title="validator">
<polygon fill="none" stroke="black" points="83.77,-180 23.77,-180 23.77,-144 83.77,-144 83.77,-180"/>
<text text-anchor="middle" x="53.77" y="-159.5" font-family="Helvetica,sans-Serif" font-size="10.00">validator</text>
</a>
</g>
</g>
<!-- dir_a5f115cb95c3e5f9e4c1a9f0f6e79c1a&#45;&gt;dir_8b3ab28549ab548a2833d39a4c8ef983 -->
<g id="edge3" class="edge">
<title>dir_a5f115cb95c3e5f9e4c1a9f0f6e79c1a&#45;&gt;dir_8b3ab28549ab548a2833d39a4c8ef983</title>
<path fill="none" stroke="black" d="M43.14,-180.44C37.67,-190.46 31.57,-203.49 28.77,-216 18.38,-262.39 29.97,-317.65 39.06,-349.88"/>
<polygon fill="black" stroke="black" points="35.82,-351.28 42.01,-359.89 42.54,-349.3 35.82,-351.28"/>
<g id="a_edge3&#45;headlabel"><a xlink:href="dir_000033_000034.html" target="_top" xlink:title="1">
<text text-anchor="middle" x="32.08" y="-346.14" font-family="Helvetica,sans-Serif" font-size="10.00">1</text>
</a>
</g>
</g>
<!-- dir_ab1b1ffda98de0e92cf76dc2624b069b&#45;&gt;dir_a5f115cb95c3e5f9e4c1a9f0f6e79c1a -->
<g id="edge7" class="edge">
<title>dir_ab1b1ffda98de0e92cf76dc2624b069b&#45;&gt;dir_a5f115cb95c3e5f9e4c1a9f0f6e79c1a</title>
<path fill="none" stroke="black" d="M97.33,-287.68C103.25,-269.3 109.76,-239.7 100.77,-216 96.8,-205.54 89.72,-195.83 82.24,-187.65"/>
<polygon fill="black" stroke="black" points="84.53,-184.99 75.03,-180.3 79.54,-189.89 84.53,-184.99"/>
<g id="a_edge7&#45;headlabel"><a xlink:href="dir_000031_000033.html" target="_top" xlink:title="5">
<text text-anchor="middle" x="89.08" y="-183.07" font-family="Helvetica,sans-Serif" font-size="10.00">5</text>
</a>
</g>
</g>
<!-- dir_ab1b1ffda98de0e92cf76dc2624b069b&#45;&gt;dir_f4f0951108b46b0bffdb59bcb5c11e91 -->
<g id="edge9" class="edge">
<title>dir_ab1b1ffda98de0e92cf76dc2624b069b&#45;&gt;dir_f4f0951108b46b0bffdb59bcb5c11e91</title>
<path fill="none" stroke="black" d="M78.42,-287.7C74.72,-279.9 71.01,-270.51 68.15,-261.83"/>
<polygon fill="black" stroke="black" points="71.46,-260.67 65.22,-252.1 64.75,-262.69 71.46,-260.67"/>
<g id="a_edge9&#45;headlabel"><a xlink:href="dir_000031_000032.html" target="_top" xlink:title="2">
<text text-anchor="middle" x="75.21" y="-260.8" font-family="Helvetica,sans-Serif" font-size="10.00">2</text>
</a>
</g>
</g>
<!-- dir_48ff6375d03f1aa509a6e0480f966544 -->
<g id="node5" class="node">
<title>dir_48ff6375d03f1aa509a6e0480f966544</title>
<g id="a_node5"><a xlink:href="dir_48ff6375d03f1aa509a6e0480f966544.html" target="_top" xlink:title="math">
<polygon fill="none" stroke="black" points="193.77,-180 139.77,-180 139.77,-144 193.77,-144 193.77,-180"/>
<text text-anchor="middle" x="166.77" y="-159.5" font-family="Helvetica,sans-Serif" font-size="10.00">math</text>
</a>
</g>
</g>
<!-- dir_ab1b1ffda98de0e92cf76dc2624b069b&#45;&gt;dir_48ff6375d03f1aa509a6e0480f966544 -->
<g id="edge6" class="edge">
<title>dir_ab1b1ffda98de0e92cf76dc2624b069b&#45;&gt;dir_48ff6375d03f1aa509a6e0480f966544</title>
<path fill="none" stroke="black" d="M99.93,-287.87C113.06,-263.35 137.31,-218.03 152.71,-189.26"/>
<polygon fill="black" stroke="black" points="155.93,-190.66 157.57,-180.19 149.76,-187.35 155.93,-190.66"/>
<g id="a_edge6&#45;headlabel"><a xlink:href="dir_000031_000008.html" target="_top" xlink:title="2">
<text text-anchor="middle" x="156.74" y="-192.67" font-family="Helvetica,sans-Serif" font-size="10.00">2</text>
</a>
</g>
</g>
<!-- dir_c541d4b187fc5f863b4735b323978e0f -->
<g id="node6" class="node">
<title>dir_c541d4b187fc5f863b4735b323978e0f</title>
<g id="a_node6"><a xlink:href="dir_c541d4b187fc5f863b4735b323978e0f.html" target="_top" xlink:title="util">
<polygon fill="none" stroke="black" points="138.77,-108 84.77,-108 84.77,-72 138.77,-72 138.77,-108"/>
<text text-anchor="middle" x="111.77" y="-87.5" font-family="Helvetica,sans-Serif" font-size="10.00">util</text>
</a>
</g>
</g>
<!-- dir_ab1b1ffda98de0e92cf76dc2624b069b&#45;&gt;dir_c541d4b187fc5f863b4735b323978e0f -->
<g id="edge8" class="edge">
<title>dir_ab1b1ffda98de0e92cf76dc2624b069b&#45;&gt;dir_c541d4b187fc5f863b4735b323978e0f</title>
<path fill="none" stroke="black" d="M63.48,-287.99C51.01,-278.82 37.18,-266.44 28.77,-252 2.61,-207.14 -13.18,-179.77 14.77,-136 27.96,-115.33 53.36,-104.01 74.86,-97.9"/>
<polygon fill="black" stroke="black" points="75.9,-101.24 84.72,-95.37 74.16,-94.46 75.9,-101.24"/>
<g id="a_edge8&#45;headlabel"><a xlink:href="dir_000031_000013.html" target="_top" xlink:title="1">
<text text-anchor="middle" x="73.13" y="-102.39" font-family="Helvetica,sans-Serif" font-size="10.00">1</text>
</a>
</g>
</g>
<!-- dir_fd1e11fb0964f7346e999e146b0dfd59 -->
<g id="node7" class="node">
<title>dir_fd1e11fb0964f7346e999e146b0dfd59</title>
<g id="a_node7"><a xlink:href="dir_fd1e11fb0964f7346e999e146b0dfd59.html" target="_top" xlink:title="common">
<polygon fill="none" stroke="black" points="141.27,-36 82.27,-36 82.27,0 141.27,0 141.27,-36"/>
<text text-anchor="middle" x="111.77" y="-15.5" font-family="Helvetica,sans-Serif" font-size="10.00">common</text>
</a>
</g>
</g>
<!-- dir_ab1b1ffda98de0e92cf76dc2624b069b&#45;&gt;dir_fd1e11fb0964f7346e999e146b0dfd59 -->
<g id="edge10" class="edge">
<title>dir_ab1b1ffda98de0e92cf76dc2624b069b&#45;&gt;dir_fd1e11fb0964f7346e999e146b0dfd59</title>
<path fill="none" stroke="black" d="M114.48,-287.93C142.05,-266.42 185.9,-226.58 202.77,-180 221.54,-128.15 174.17,-73.42 140.96,-43"/>
<polygon fill="black" stroke="black" points="143.08,-40.2 133.28,-36.16 138.42,-45.43 143.08,-40.2"/>
<g id="a_edge10&#45;headlabel"><a xlink:href="dir_000031_000017.html" target="_top" xlink:title="3">
<text text-anchor="middle" x="147.65" y="-37.97" font-family="Helvetica,sans-Serif" font-size="10.00">3</text>
</a>
</g>
</g>
<!-- dir_f4f0951108b46b0bffdb59bcb5c11e91&#45;&gt;dir_8b3ab28549ab548a2833d39a4c8ef983 -->
<g id="edge12" class="edge">
<title>dir_f4f0951108b46b0bffdb59bcb5c11e91&#45;&gt;dir_8b3ab28549ab548a2833d39a4c8ef983</title>
<path fill="none" stroke="black" d="M66.51,-252.42C64.34,-262.65 60.59,-275.9 58.77,-288 55.69,-308.5 55.29,-331.96 54.31,-349.64"/>
<polygon fill="black" stroke="black" points="50.8,-349.61 53.59,-359.83 57.78,-350.1 50.8,-349.61"/>
<g id="a_edge12&#45;headlabel"><a xlink:href="dir_000032_000034.html" target="_top" xlink:title="6">
<text text-anchor="middle" x="48.22" y="-343.32" font-family="Helvetica,sans-Serif" font-size="10.00">6</text>
</a>
</g>
</g>
<!-- dir_f4f0951108b46b0bffdb59bcb5c11e91&#45;&gt;dir_a5f115cb95c3e5f9e4c1a9f0f6e79c1a -->
<g id="edge13" class="edge">
<title>dir_f4f0951108b46b0bffdb59bcb5c11e91&#45;&gt;dir_a5f115cb95c3e5f9e4c1a9f0f6e79c1a</title>
<path fill="none" stroke="black" d="M62.05,-215.7C60.84,-207.98 59.38,-198.71 58.03,-190.11"/>
<polygon fill="black" stroke="black" points="61.46,-189.44 56.45,-180.1 54.55,-190.53 61.46,-189.44"/>
<g id="a_edge13&#45;headlabel"><a xlink:href="dir_000032_000033.html" target="_top" xlink:title="6">
<text text-anchor="middle" x="64.83" y="-190.05" font-family="Helvetica,sans-Serif" font-size="10.00">6</text>
</a>
</g>
</g>
<!-- dir_f4f0951108b46b0bffdb59bcb5c11e91&#45;&gt;dir_ab1b1ffda98de0e92cf76dc2624b069b -->
<g id="edge14" class="edge">
<title>dir_f4f0951108b46b0bffdb59bcb5c11e91&#45;&gt;dir_ab1b1ffda98de0e92cf76dc2624b069b</title>
<path fill="none" stroke="black" d="M77.02,-252.1C80.72,-259.88 84.43,-269.26 87.31,-277.95"/>
<polygon fill="black" stroke="black" points="84.01,-279.14 90.26,-287.7 90.72,-277.11 84.01,-279.14"/>
<g id="a_edge14&#45;headlabel"><a xlink:href="dir_000032_000031.html" target="_top" xlink:title="6">
<text text-anchor="middle" x="80.26" y="-274.01" font-family="Helvetica,sans-Serif" font-size="10.00">6</text>
</a>
</g>
</g>
<!-- dir_f4f0951108b46b0bffdb59bcb5c11e91&#45;&gt;dir_48ff6375d03f1aa509a6e0480f966544 -->
<g id="edge11" class="edge">
<title>dir_f4f0951108b46b0bffdb59bcb5c11e91&#45;&gt;dir_48ff6375d03f1aa509a6e0480f966544</title>
<path fill="none" stroke="black" d="M89.72,-215.88C102.81,-206.89 119.03,-195.76 133.2,-186.03"/>
<polygon fill="black" stroke="black" points="135.45,-188.73 141.72,-180.19 131.49,-182.96 135.45,-188.73"/>
<g id="a_edge11&#45;headlabel"><a xlink:href="dir_000032_000008.html" target="_top" xlink:title="2">
<text text-anchor="middle" x="134.1" y="-190.61" font-family="Helvetica,sans-Serif" font-size="10.00">2</text>
</a>
</g>
</g>
<!-- dir_f4f0951108b46b0bffdb59bcb5c11e91&#45;&gt;dir_c541d4b187fc5f863b4735b323978e0f -->
<g id="edge15" class="edge">
<title>dir_f4f0951108b46b0bffdb59bcb5c11e91&#45;&gt;dir_c541d4b187fc5f863b4735b323978e0f</title>
<path fill="none" stroke="black" d="M75.36,-215.89C81.22,-205.77 88.22,-192.52 92.77,-180 100.08,-159.86 104.97,-136.08 107.96,-118.17"/>
<polygon fill="black" stroke="black" points="111.45,-118.54 109.55,-108.12 104.53,-117.45 111.45,-118.54"/>
<g id="a_edge15&#45;headlabel"><a xlink:href="dir_000032_000013.html" target="_top" xlink:title="2">
<text text-anchor="middle" x="113.69" y="-120.03" font-family="Helvetica,sans-Serif" font-size="10.00">2</text>
</a>
</g>
</g>
<!-- dir_f4f0951108b46b0bffdb59bcb5c11e91&#45;&gt;dir_fd1e11fb0964f7346e999e146b0dfd59 -->
<g id="edge16" class="edge">
<title>dir_f4f0951108b46b0bffdb59bcb5c11e91&#45;&gt;dir_fd1e11fb0964f7346e999e146b0dfd59</title>
<path fill="none" stroke="black" d="M42.17,-215.96C31.71,-206.63 20.37,-194.11 14.77,-180 7.55,-161.83 8.13,-154.4 14.77,-136 28.28,-98.54 59.58,-64.58 82.99,-43.01"/>
<polygon fill="black" stroke="black" points="85.49,-45.47 90.59,-36.19 80.81,-40.27 85.49,-45.47"/>
<g id="a_edge16&#45;headlabel"><a xlink:href="dir_000032_000017.html" target="_top" xlink:title="12">
<text text-anchor="middle" x="84.71" y="-47.49" font-family="Helvetica,sans-Serif" font-size="10.00">12</text>
</a>
</g>
</g>
<!-- dir_48ff6375d03f1aa509a6e0480f966544&#45;&gt;dir_c541d4b187fc5f863b4735b323978e0f -->
<g id="edge17" class="edge">
<title>dir_48ff6375d03f1aa509a6e0480f966544&#45;&gt;dir_c541d4b187fc5f863b4735b323978e0f</title>
<path fill="none" stroke="black" d="M153.17,-143.7C146.64,-135.39 138.7,-125.28 131.52,-116.14"/>
<polygon fill="black" stroke="black" points="134.14,-113.81 125.21,-108.1 128.63,-118.13 134.14,-113.81"/>
<g id="a_edge17&#45;headlabel"><a xlink:href="dir_000008_000013.html" target="_top" xlink:title="11">
<text text-anchor="middle" x="138.59" y="-112.38" font-family="Helvetica,sans-Serif" font-size="10.00">11</text>
</a>
</g>
</g>
<!-- dir_48ff6375d03f1aa509a6e0480f966544&#45;&gt;dir_fd1e11fb0964f7346e999e146b0dfd59 -->
<g id="edge18" class="edge">
<title>dir_48ff6375d03f1aa509a6e0480f966544&#45;&gt;dir_fd1e11fb0964f7346e999e146b0dfd59</title>
<path fill="none" stroke="black" d="M165.07,-143.67C162.82,-125.29 157.88,-95.69 147.77,-72 143.68,-62.43 137.78,-52.78 131.93,-44.39"/>
<polygon fill="black" stroke="black" points="134.65,-42.17 125.93,-36.15 128.99,-46.29 134.65,-42.17"/>
<g id="a_edge18&#45;headlabel"><a xlink:href="dir_000008_000017.html" target="_top" xlink:title="21">
<text text-anchor="middle" x="139.06" y="-40.91" font-family="Helvetica,sans-Serif" font-size="10.00">21</text>
</a>
</g>
</g>
<!-- dir_c541d4b187fc5f863b4735b323978e0f&#45;&gt;dir_fd1e11fb0964f7346e999e146b0dfd59 -->
<g id="edge2" class="edge">
<title>dir_c541d4b187fc5f863b4735b323978e0f&#45;&gt;dir_fd1e11fb0964f7346e999e146b0dfd59</title>
<path fill="none" stroke="black" d="M105.85,-71.7C105.06,-63.98 104.83,-54.71 105.17,-46.11"/>
<polygon fill="black" stroke="black" points="108.67,-46.32 105.87,-36.1 101.68,-45.84 108.67,-46.32"/>
<g id="a_edge2&#45;headlabel"><a xlink:href="dir_000013_000017.html" target="_top" xlink:title="6">
<text text-anchor="middle" x="111.25" y="-47.61" font-family="Helvetica,sans-Serif" font-size="10.00">6</text>
</a>
</g>
</g>
<!-- dir_fd1e11fb0964f7346e999e146b0dfd59&#45;&gt;dir_c541d4b187fc5f863b4735b323978e0f -->
<g id="edge1" class="edge">
<title>dir_fd1e11fb0964f7346e999e146b0dfd59&#45;&gt;dir_c541d4b187fc5f863b4735b323978e0f</title>
<path fill="none" stroke="black" d="M117.66,-36.1C118.47,-43.79 118.7,-53.05 118.37,-61.67"/>
<polygon fill="black" stroke="black" points="114.88,-61.48 117.68,-71.7 121.86,-61.96 114.88,-61.48"/>
<g id="a_edge1&#45;headlabel"><a xlink:href="dir_000017_000013.html" target="_top" xlink:title="2">
<text text-anchor="middle" x="112.29" y="-55.2" font-family="Helvetica,sans-Serif" font-size="10.00">2</text>
</a>
</g>
</g>
</g>
</svg>
