<?xml version="1.0" encoding="UTF-8" standalone="no"?>
<!DOCTYPE svg PUBLIC "-//W3C//DTD SVG 1.1//EN"
 "http://www.w3.org/Graphics/SVG/1.1/DTD/svg11.dtd">
<!-- Generated by graphviz version 2.43.0 (0)
 -->
<!-- Title: sbml Pages: 1 -->
<svg width="190pt" height="439pt"
 viewBox="0.00 0.00 190.00 439.00" xmlns="http://www.w3.org/2000/svg" xmlns:xlink="http://www.w3.org/1999/xlink">
<g id="graph0" class="graph" transform="scale(1 1) rotate(0) translate(4 435)">
<title>sbml</title>
<polygon fill="white" stroke="transparent" points="-4,4 -4,-435 186,-435 186,4 -4,4"/>
<g id="clust1" class="cluster">
<title>clusterdir_29063129b3eccaffa9adb8cada31bc79</title>
<g id="a_clust1"><a xlink:href="dir_29063129b3eccaffa9adb8cada31bc79.html" target="_top" xlink:title="groups">
<polygon fill="#ddddee" stroke="black" points="8,-136 8,-423 124,-423 124,-136 8,-136"/>
<text text-anchor="middle" x="66" y="-411" font-family="Helvetica,sans-Serif" font-size="10.00">groups</text>
</a>
</g>
</g>
<!-- dir_0e5086b15e36e287b22643c32e731771 -->
<g id="node1" class="node">
<title>dir_0e5086b15e36e287b22643c32e731771</title>
<g id="a_node1"><a xlink:href="dir_0e5086b15e36e287b22643c32e731771.html" target="_top" xlink:title="extension">
<polygon fill="none" stroke="black" points="106.5,-396 41.5,-396 41.5,-360 106.5,-360 106.5,-396"/>
<text text-anchor="middle" x="74" y="-375.5" font-family="Helvetica,sans-Serif" font-size="10.00">extension</text>
</a>
</g>
</g>
<!-- dir_57fdbdaf356605263ec8ba5b7b6a3875 -->
<g id="node2" class="node">
<title>dir_57fdbdaf356605263ec8ba5b7b6a3875</title>
<g id="a_node2"><a xlink:href="dir_57fdbdaf356605263ec8ba5b7b6a3875.html" target="_top" xlink:title="validator">
<polygon fill="none" stroke="black" points="96,-324 36,-324 36,-288 96,-288 96,-324"/>
<text text-anchor="middle" x="66" y="-303.5" font-family="Helvetica,sans-Serif" font-size="10.00">validator</text>
</a>
</g>
</g>
<!-- dir_0e5086b15e36e287b22643c32e731771&#45;&gt;dir_57fdbdaf356605263ec8ba5b7b6a3875 -->
<g id="edge5" class="edge">
<title>dir_0e5086b15e36e287b22643c32e731771&#45;&gt;dir_57fdbdaf356605263ec8ba5b7b6a3875</title>
<path fill="none" stroke="black" d="M72.02,-359.7C71.14,-351.98 70.08,-342.71 69.1,-334.11"/>
<polygon fill="black" stroke="black" points="72.57,-333.64 67.95,-324.1 65.61,-334.44 72.57,-333.64"/>
<g id="a_edge5&#45;headlabel"><a xlink:href="dir_000042_000041.html" target="_top" xlink:title="5">
<text text-anchor="middle" x="75.8" y="-334.39" font-family="Helvetica,sans-Serif" font-size="10.00">5</text>
</a>
</g>
</g>
<!-- dir_1a2a11cbb6a63f53ae2e16947db16deb -->
<g id="node4" class="node">
<title>dir_1a2a11cbb6a63f53ae2e16947db16deb</title>
<g id="a_node4"><a xlink:href="dir_1a2a11cbb6a63f53ae2e16947db16deb.html" target="_top" xlink:title="sbml">
<polygon fill="#eeeeff" stroke="black" points="99,-180 45,-180 45,-144 99,-144 99,-180"/>
<text text-anchor="middle" x="72" y="-159.5" font-family="Helvetica,sans-Serif" font-size="10.00">sbml</text>
</a>
</g>
</g>
<!-- dir_0e5086b15e36e287b22643c32e731771&#45;&gt;dir_1a2a11cbb6a63f53ae2e16947db16deb -->
<g id="edge4" class="edge">
<title>dir_0e5086b15e36e287b22643c32e731771&#45;&gt;dir_1a2a11cbb6a63f53ae2e16947db16deb</title>
<path fill="none" stroke="black" d="M44.93,-359.94C34.07,-350.51 23.28,-337.91 18,-324 0.3,-277.37 26.64,-220.8 48.59,-188.64"/>
<polygon fill="black" stroke="black" points="51.63,-190.41 54.63,-180.25 45.95,-186.32 51.63,-190.41"/>
<g id="a_edge4&#45;headlabel"><a xlink:href="dir_000042_000040.html" target="_top" xlink:title="2">
<text text-anchor="middle" x="51.84" y="-192.48" font-family="Helvetica,sans-Serif" font-size="10.00">2</text>
</a>
</g>
</g>
<!-- dir_c541d4b187fc5f863b4735b323978e0f -->
<g id="node5" class="node">
<title>dir_c541d4b187fc5f863b4735b323978e0f</title>
<g id="a_node5"><a xlink:href="dir_c541d4b187fc5f863b4735b323978e0f.html" target="_top" xlink:title="util">
<polygon fill="none" stroke="black" points="154,-108 100,-108 100,-72 154,-72 154,-108"/>
<text text-anchor="middle" x="127" y="-87.5" font-family="Helvetica,sans-Serif" font-size="10.00">util</text>
</a>
</g>
</g>
<!-- dir_0e5086b15e36e287b22643c32e731771&#45;&gt;dir_c541d4b187fc5f863b4735b323978e0f -->
<g id="edge6" class="edge">
<title>dir_0e5086b15e36e287b22643c32e731771&#45;&gt;dir_c541d4b187fc5f863b4735b323978e0f</title>
<path fill="none" stroke="black" d="M89.6,-359.6C97.53,-349.81 106.62,-336.97 112,-324 140.87,-254.49 135.75,-163.23 130.76,-118.34"/>
<polygon fill="black" stroke="black" points="134.21,-117.74 129.55,-108.22 127.26,-118.57 134.21,-117.74"/>
<g id="a_edge6&#45;headlabel"><a xlink:href="dir_000042_000013.html" target="_top" xlink:title="1">
<text text-anchor="middle" x="137.46" y="-118.47" font-family="Helvetica,sans-Serif" font-size="10.00">1</text>
</a>
</g>
</g>
<!-- dir_fd1e11fb0964f7346e999e146b0dfd59 -->
<g id="node6" class="node">
<title>dir_fd1e11fb0964f7346e999e146b0dfd59</title>
<g id="a_node6"><a xlink:href="dir_fd1e11fb0964f7346e999e146b0dfd59.html" target="_top" xlink:title="common">
<polygon fill="none" stroke="black" points="156.5,-36 97.5,-36 97.5,0 156.5,0 156.5,-36"/>
<text text-anchor="middle" x="127" y="-15.5" font-family="Helvetica,sans-Serif" font-size="10.00">common</text>
</a>
</g>
</g>
<!-- dir_0e5086b15e36e287b22643c32e731771&#45;&gt;dir_fd1e11fb0964f7346e999e146b0dfd59 -->
<g id="edge7" class="edge">
<title>dir_0e5086b15e36e287b22643c32e731771&#45;&gt;dir_fd1e11fb0964f7346e999e146b0dfd59</title>
<path fill="none" stroke="black" d="M99.32,-359.83C131.24,-335.92 182,-289.36 182,-235 182,-235 182,-235 182,-161 182,-120.55 178.88,-109.2 163,-72 158.92,-62.43 153.01,-52.78 147.16,-44.39"/>
<polygon fill="black" stroke="black" points="149.88,-42.17 141.16,-36.15 144.22,-46.29 149.88,-42.17"/>
<g id="a_edge7&#45;headlabel"><a xlink:href="dir_000042_000017.html" target="_top" xlink:title="3">
<text text-anchor="middle" x="154.29" y="-40.91" font-family="Helvetica,sans-Serif" font-size="10.00">3</text>
</a>
</g>
</g>
<!-- dir_7ecdb64354f87c6a5936bdfa7adc7cda -->
<g id="node3" class="node">
<title>dir_7ecdb64354f87c6a5936bdfa7adc7cda</title>
<g id="a_node3"><a xlink:href="dir_7ecdb64354f87c6a5936bdfa7adc7cda.html" target="_top" xlink:title="common">
<polygon fill="none" stroke="black" points="115.5,-252 56.5,-252 56.5,-216 115.5,-216 115.5,-252"/>
<text text-anchor="middle" x="86" y="-231.5" font-family="Helvetica,sans-Serif" font-size="10.00">common</text>
</a>
</g>
</g>
<!-- dir_57fdbdaf356605263ec8ba5b7b6a3875&#45;&gt;dir_7ecdb64354f87c6a5936bdfa7adc7cda -->
<g id="edge3" class="edge">
<title>dir_57fdbdaf356605263ec8ba5b7b6a3875&#45;&gt;dir_7ecdb64354f87c6a5936bdfa7adc7cda</title>
<path fill="none" stroke="black" d="M70.94,-287.7C73.17,-279.9 75.85,-270.51 78.33,-261.83"/>
<polygon fill="black" stroke="black" points="81.73,-262.68 81.11,-252.1 75,-260.76 81.73,-262.68"/>
<g id="a_edge3&#45;headlabel"><a xlink:href="dir_000041_000043.html" target="_top" xlink:title="1">
<text text-anchor="middle" x="83.47" y="-264.42" font-family="Helvetica,sans-Serif" font-size="10.00">1</text>
</a>
</g>
</g>
<!-- dir_7ecdb64354f87c6a5936bdfa7adc7cda&#45;&gt;dir_0e5086b15e36e287b22643c32e731771 -->
<g id="edge13" class="edge">
<title>dir_7ecdb64354f87c6a5936bdfa7adc7cda&#45;&gt;dir_0e5086b15e36e287b22643c32e731771</title>
<path fill="none" stroke="black" d="M94.51,-252.19C102.31,-270.22 111.69,-299.3 105,-324 102.42,-333.52 97.66,-343.08 92.62,-351.41"/>
<polygon fill="black" stroke="black" points="89.62,-349.61 87.15,-359.91 95.51,-353.4 89.62,-349.61"/>
<g id="a_edge13&#45;headlabel"><a xlink:href="dir_000043_000042.html" target="_top" xlink:title="3">
<text text-anchor="middle" x="89.18" y="-342.55" font-family="Helvetica,sans-Serif" font-size="10.00">3</text>
</a>
</g>
</g>
<!-- dir_7ecdb64354f87c6a5936bdfa7adc7cda&#45;&gt;dir_1a2a11cbb6a63f53ae2e16947db16deb -->
<g id="edge14" class="edge">
<title>dir_7ecdb64354f87c6a5936bdfa7adc7cda&#45;&gt;dir_1a2a11cbb6a63f53ae2e16947db16deb</title>
<path fill="none" stroke="black" d="M76.62,-215.7C74.29,-207.98 72.2,-198.71 70.83,-190.11"/>
<polygon fill="black" stroke="black" points="74.29,-189.57 69.53,-180.1 67.34,-190.47 74.29,-189.57"/>
<g id="a_edge14&#45;headlabel"><a xlink:href="dir_000043_000040.html" target="_top" xlink:title="2">
<text text-anchor="middle" x="77.57" y="-190.27" font-family="Helvetica,sans-Serif" font-size="10.00">2</text>
</a>
</g>
</g>
<!-- dir_1a2a11cbb6a63f53ae2e16947db16deb&#45;&gt;dir_0e5086b15e36e287b22643c32e731771 -->
<g id="edge8" class="edge">
<title>dir_1a2a11cbb6a63f53ae2e16947db16deb&#45;&gt;dir_0e5086b15e36e287b22643c32e731771</title>
<path fill="none" stroke="black" d="M65.5,-180.25C49.98,-210.07 16.64,-272.99 36,-324 39.93,-334.35 46.9,-343.97 53.91,-352.1"/>
<polygon fill="black" stroke="black" points="51.49,-354.65 60.81,-359.7 56.68,-349.94 51.49,-354.65"/>
<g id="a_edge8&#45;headlabel"><a xlink:href="dir_000040_000042.html" target="_top" xlink:title="4">
<text text-anchor="middle" x="46.98" y="-351.4" font-family="Helvetica,sans-Serif" font-size="10.00">4</text>
</a>
</g>
</g>
<!-- dir_1a2a11cbb6a63f53ae2e16947db16deb&#45;&gt;dir_57fdbdaf356605263ec8ba5b7b6a3875 -->
<g id="edge9" class="edge">
<title>dir_1a2a11cbb6a63f53ae2e16947db16deb&#45;&gt;dir_57fdbdaf356605263ec8ba5b7b6a3875</title>
<path fill="none" stroke="black" d="M61.37,-180.44C55.9,-190.46 49.8,-203.49 47,-216 43.5,-231.61 44.26,-236.24 47,-252 48.52,-260.76 51.36,-269.99 54.39,-278.25"/>
<polygon fill="black" stroke="black" points="51.21,-279.71 58.11,-287.75 57.72,-277.16 51.21,-279.71"/>
<g id="a_edge9&#45;headlabel"><a xlink:href="dir_000040_000041.html" target="_top" xlink:title="4">
<text text-anchor="middle" x="47.25" y="-274.89" font-family="Helvetica,sans-Serif" font-size="10.00">4</text>
</a>
</g>
</g>
<!-- dir_1a2a11cbb6a63f53ae2e16947db16deb&#45;&gt;dir_7ecdb64354f87c6a5936bdfa7adc7cda -->
<g id="edge10" class="edge">
<title>dir_1a2a11cbb6a63f53ae2e16947db16deb&#45;&gt;dir_7ecdb64354f87c6a5936bdfa7adc7cda</title>
<path fill="none" stroke="black" d="M81.32,-180.1C83.66,-187.79 85.75,-197.05 87.14,-205.67"/>
<polygon fill="black" stroke="black" points="83.68,-206.24 88.46,-215.7 90.62,-205.33 83.68,-206.24"/>
<g id="a_edge10&#45;headlabel"><a xlink:href="dir_000040_000043.html" target="_top" xlink:title="4">
<text text-anchor="middle" x="80.4" y="-200.54" font-family="Helvetica,sans-Serif" font-size="10.00">4</text>
</a>
</g>
</g>
<!-- dir_1a2a11cbb6a63f53ae2e16947db16deb&#45;&gt;dir_c541d4b187fc5f863b4735b323978e0f -->
<g id="edge11" class="edge">
<title>dir_1a2a11cbb6a63f53ae2e16947db16deb&#45;&gt;dir_c541d4b187fc5f863b4735b323978e0f</title>
<path fill="none" stroke="black" d="M85.6,-143.7C92.12,-135.39 100.07,-125.28 107.25,-116.14"/>
<polygon fill="black" stroke="black" points="110.13,-118.13 113.56,-108.1 104.63,-113.81 110.13,-118.13"/>
<g id="a_edge11&#45;headlabel"><a xlink:href="dir_000040_000013.html" target="_top" xlink:title="1">
<text text-anchor="middle" x="110.15" y="-120.21" font-family="Helvetica,sans-Serif" font-size="10.00">1</text>
</a>
</g>
</g>
<!-- dir_1a2a11cbb6a63f53ae2e16947db16deb&#45;&gt;dir_fd1e11fb0964f7346e999e146b0dfd59 -->
<g id="edge12" class="edge">
<title>dir_1a2a11cbb6a63f53ae2e16947db16deb&#45;&gt;dir_fd1e11fb0964f7346e999e146b0dfd59</title>
<path fill="none" stroke="black" d="M73.7,-143.67C75.95,-125.29 80.89,-95.69 91,-72 95.08,-62.43 100.99,-52.78 106.84,-44.39"/>
<polygon fill="black" stroke="black" points="109.78,-46.29 112.84,-36.15 104.12,-42.17 109.78,-46.29"/>
<g id="a_edge12&#45;headlabel"><a xlink:href="dir_000040_000017.html" target="_top" xlink:title="8">
<text text-anchor="middle" x="109.96" y="-48.37" font-family="Helvetica,sans-Serif" font-size="10.00">8</text>
</a>
</g>
</g>
<!-- dir_c541d4b187fc5f863b4735b323978e0f&#45;&gt;dir_fd1e11fb0964f7346e999e146b0dfd59 -->
<g id="edge2" class="edge">
<title>dir_c541d4b187fc5f863b4735b323978e0f&#45;&gt;dir_fd1e11fb0964f7346e999e146b0dfd59</title>
<path fill="none" stroke="black" d="M121.08,-71.7C120.29,-63.98 120.06,-54.71 120.4,-46.11"/>
<polygon fill="black" stroke="black" points="123.9,-46.32 121.1,-36.1 116.92,-45.84 123.9,-46.32"/>
<g id="a_edge2&#45;headlabel"><a xlink:href="dir_000013_000017.html" target="_top" xlink:title="6">
<text text-anchor="middle" x="126.48" y="-47.61" font-family="Helvetica,sans-Serif" font-size="10.00">6</text>
</a>
</g>
</g>
<!-- dir_fd1e11fb0964f7346e999e146b0dfd59&#45;&gt;dir_c541d4b187fc5f863b4735b323978e0f -->
<g id="edge1" class="edge">
<title>dir_fd1e11fb0964f7346e999e146b0dfd59&#45;&gt;dir_c541d4b187fc5f863b4735b323978e0f</title>
<path fill="none" stroke="black" d="M132.9,-36.1C133.7,-43.79 133.94,-53.05 133.6,-61.67"/>
<polygon fill="black" stroke="black" points="130.11,-61.48 132.92,-71.7 137.09,-61.96 130.11,-61.48"/>
<g id="a_edge1&#45;headlabel"><a xlink:href="dir_000017_000013.html" target="_top" xlink:title="2">
<text text-anchor="middle" x="127.52" y="-55.2" font-family="Helvetica,sans-Serif" font-size="10.00">2</text>
</a>
</g>
</g>
</g>
</svg>
