<?xml version="1.0" encoding="UTF-8" standalone="no"?>
<!DOCTYPE svg PUBLIC "-//W3C//DTD SVG 1.1//EN"
 "http://www.w3.org/Graphics/SVG/1.1/DTD/svg11.dtd">
<!-- Generated by graphviz version 2.43.0 (0)
 -->
<!-- Title: extension Pages: 1 -->
<svg width="228pt" height="367pt"
 viewBox="0.00 0.00 227.69 367.00" xmlns="http://www.w3.org/2000/svg" xmlns:xlink="http://www.w3.org/1999/xlink">
<g id="graph0" class="graph" transform="scale(1 1) rotate(0) translate(4 363)">
<title>extension</title>
<polygon fill="white" stroke="transparent" points="-4,4 -4,-363 223.69,-363 223.69,4 -4,4"/>
<g id="clust1" class="cluster">
<title>clusterdir_29063129b3eccaffa9adb8cada31bc79</title>
<g id="a_clust1"><a xlink:href="dir_29063129b3eccaffa9adb8cada31bc79.html" target="_top" xlink:title="groups">
<polygon fill="#ddddee" stroke="black" points="90.39,-136 90.39,-351 192.39,-351 192.39,-136 90.39,-136"/>
<text text-anchor="middle" x="141.39" y="-339" font-family="Helvetica,sans-Serif" font-size="10.00">groups</text>
</a>
</g>
</g>
<!-- dir_1a2a11cbb6a63f53ae2e16947db16deb -->
<g id="node1" class="node">
<title>dir_1a2a11cbb6a63f53ae2e16947db16deb</title>
<g id="a_node1"><a xlink:href="dir_1a2a11cbb6a63f53ae2e16947db16deb.html" target="_top" xlink:title="sbml">
<polygon fill="none" stroke="black" points="184.39,-324 130.39,-324 130.39,-288 184.39,-288 184.39,-324"/>
<text text-anchor="middle" x="157.39" y="-303.5" font-family="Helvetica,sans-Serif" font-size="10.00">sbml</text>
</a>
</g>
</g>
<!-- dir_57fdbdaf356605263ec8ba5b7b6a3875 -->
<g id="node2" class="node">
<title>dir_57fdbdaf356605263ec8ba5b7b6a3875</title>
<g id="a_node2"><a xlink:href="dir_57fdbdaf356605263ec8ba5b7b6a3875.html" target="_top" xlink:title="validator">
<polygon fill="none" stroke="black" points="160.39,-180 100.39,-180 100.39,-144 160.39,-144 160.39,-180"/>
<text text-anchor="middle" x="130.39" y="-159.5" font-family="Helvetica,sans-Serif" font-size="10.00">validator</text>
</a>
</g>
</g>
<!-- dir_1a2a11cbb6a63f53ae2e16947db16deb&#45;&gt;dir_57fdbdaf356605263ec8ba5b7b6a3875 -->
<g id="edge9" class="edge">
<title>dir_1a2a11cbb6a63f53ae2e16947db16deb&#45;&gt;dir_57fdbdaf356605263ec8ba5b7b6a3875</title>
<path fill="none" stroke="black" d="M165.58,-287.85C173.12,-269.6 181.95,-240.12 173.39,-216 169.73,-205.68 163.11,-195.9 156.14,-187.61"/>
<polygon fill="black" stroke="black" points="158.72,-185.26 149.43,-180.16 153.52,-189.94 158.72,-185.26"/>
<g id="a_edge9&#45;headlabel"><a xlink:href="dir_000040_000041.html" target="_top" xlink:title="4">
<text text-anchor="middle" x="163.24" y="-183.53" font-family="Helvetica,sans-Serif" font-size="10.00">4</text>
</a>
</g>
</g>
<!-- dir_0e5086b15e36e287b22643c32e731771 -->
<g id="node3" class="node">
<title>dir_0e5086b15e36e287b22643c32e731771</title>
<g id="a_node3"><a xlink:href="dir_0e5086b15e36e287b22643c32e731771.html" target="_top" xlink:title="extension">
<polygon fill="#eeeeff" stroke="black" points="163.89,-252 98.89,-252 98.89,-216 163.89,-216 163.89,-252"/>
<text text-anchor="middle" x="131.39" y="-231.5" font-family="Helvetica,sans-Serif" font-size="10.00">extension</text>
</a>
</g>
</g>
<!-- dir_1a2a11cbb6a63f53ae2e16947db16deb&#45;&gt;dir_0e5086b15e36e287b22643c32e731771 -->
<g id="edge8" class="edge">
<title>dir_1a2a11cbb6a63f53ae2e16947db16deb&#45;&gt;dir_0e5086b15e36e287b22643c32e731771</title>
<path fill="none" stroke="black" d="M145.05,-287.7C141.35,-279.9 137.64,-270.51 134.77,-261.83"/>
<polygon fill="black" stroke="black" points="138.08,-260.67 131.85,-252.1 131.38,-262.69 138.08,-260.67"/>
<g id="a_edge8&#45;headlabel"><a xlink:href="dir_000040_000042.html" target="_top" xlink:title="4">
<text text-anchor="middle" x="141.84" y="-260.8" font-family="Helvetica,sans-Serif" font-size="10.00">4</text>
</a>
</g>
</g>
<!-- dir_c541d4b187fc5f863b4735b323978e0f -->
<g id="node5" class="node">
<title>dir_c541d4b187fc5f863b4735b323978e0f</title>
<g id="a_node5"><a xlink:href="dir_c541d4b187fc5f863b4735b323978e0f.html" target="_top" xlink:title="util">
<polygon fill="none" stroke="black" points="194.39,-108 140.39,-108 140.39,-72 194.39,-72 194.39,-108"/>
<text text-anchor="middle" x="167.39" y="-87.5" font-family="Helvetica,sans-Serif" font-size="10.00">util</text>
</a>
</g>
</g>
<!-- dir_1a2a11cbb6a63f53ae2e16947db16deb&#45;&gt;dir_c541d4b187fc5f863b4735b323978e0f -->
<g id="edge10" class="edge">
<title>dir_1a2a11cbb6a63f53ae2e16947db16deb&#45;&gt;dir_c541d4b187fc5f863b4735b323978e0f</title>
<path fill="none" stroke="black" d="M166.14,-287.79C170.88,-277.64 176.38,-264.39 179.39,-252 191.58,-201.83 195.16,-186.69 185.39,-136 184.21,-129.86 182.2,-123.49 179.94,-117.55"/>
<polygon fill="black" stroke="black" points="183.06,-115.95 176,-108.06 176.6,-118.63 183.06,-115.95"/>
<g id="a_edge10&#45;headlabel"><a xlink:href="dir_000040_000013.html" target="_top" xlink:title="1">
<text text-anchor="middle" x="187.06" y="-115.68" font-family="Helvetica,sans-Serif" font-size="10.00">1</text>
</a>
</g>
</g>
<!-- dir_fd1e11fb0964f7346e999e146b0dfd59 -->
<g id="node6" class="node">
<title>dir_fd1e11fb0964f7346e999e146b0dfd59</title>
<g id="a_node6"><a xlink:href="dir_fd1e11fb0964f7346e999e146b0dfd59.html" target="_top" xlink:title="common">
<polygon fill="none" stroke="black" points="196.89,-36 137.89,-36 137.89,0 196.89,0 196.89,-36"/>
<text text-anchor="middle" x="167.39" y="-15.5" font-family="Helvetica,sans-Serif" font-size="10.00">common</text>
</a>
</g>
</g>
<!-- dir_1a2a11cbb6a63f53ae2e16947db16deb&#45;&gt;dir_fd1e11fb0964f7346e999e146b0dfd59 -->
<g id="edge11" class="edge">
<title>dir_1a2a11cbb6a63f53ae2e16947db16deb&#45;&gt;dir_fd1e11fb0964f7346e999e146b0dfd59</title>
<path fill="none" stroke="black" d="M173.91,-287.86C182.21,-278.15 191.51,-265.3 196.39,-252 223.99,-176.84 226.93,-148.52 203.39,-72 200.38,-62.22 194.89,-52.62 189.08,-44.33"/>
<polygon fill="black" stroke="black" points="191.8,-42.13 183,-36.23 186.2,-46.33 191.8,-42.13"/>
<g id="a_edge11&#45;headlabel"><a xlink:href="dir_000040_000017.html" target="_top" xlink:title="8">
<text text-anchor="middle" x="196.23" y="-40.8" font-family="Helvetica,sans-Serif" font-size="10.00">8</text>
</a>
</g>
</g>
<!-- dir_0e5086b15e36e287b22643c32e731771&#45;&gt;dir_1a2a11cbb6a63f53ae2e16947db16deb -->
<g id="edge3" class="edge">
<title>dir_0e5086b15e36e287b22643c32e731771&#45;&gt;dir_1a2a11cbb6a63f53ae2e16947db16deb</title>
<path fill="none" stroke="black" d="M143.64,-252.1C147.34,-259.88 151.06,-269.26 153.94,-277.95"/>
<polygon fill="black" stroke="black" points="150.64,-279.14 156.88,-287.7 157.34,-277.11 150.64,-279.14"/>
<g id="a_edge3&#45;headlabel"><a xlink:href="dir_000042_000040.html" target="_top" xlink:title="2">
<text text-anchor="middle" x="146.88" y="-274.01" font-family="Helvetica,sans-Serif" font-size="10.00">2</text>
</a>
</g>
</g>
<!-- dir_0e5086b15e36e287b22643c32e731771&#45;&gt;dir_57fdbdaf356605263ec8ba5b7b6a3875 -->
<g id="edge5" class="edge">
<title>dir_0e5086b15e36e287b22643c32e731771&#45;&gt;dir_57fdbdaf356605263ec8ba5b7b6a3875</title>
<path fill="none" stroke="black" d="M131.15,-215.7C131.04,-207.98 130.9,-198.71 130.78,-190.11"/>
<polygon fill="black" stroke="black" points="134.28,-190.05 130.64,-180.1 127.28,-190.15 134.28,-190.05"/>
<g id="a_edge5&#45;headlabel"><a xlink:href="dir_000042_000041.html" target="_top" xlink:title="5">
<text text-anchor="middle" x="137.17" y="-191.11" font-family="Helvetica,sans-Serif" font-size="10.00">5</text>
</a>
</g>
</g>
<!-- dir_3f96c34ad80e9031c68706862fabf1a4 -->
<g id="node4" class="node">
<title>dir_3f96c34ad80e9031c68706862fabf1a4</title>
<g id="a_node4"><a xlink:href="dir_3f96c34ad80e9031c68706862fabf1a4.html" target="_top" xlink:title="extension">
<polygon fill="none" stroke="black" points="81.89,-180 16.89,-180 16.89,-144 81.89,-144 81.89,-180"/>
<text text-anchor="middle" x="49.39" y="-159.5" font-family="Helvetica,sans-Serif" font-size="10.00">extension</text>
</a>
</g>
</g>
<!-- dir_0e5086b15e36e287b22643c32e731771&#45;&gt;dir_3f96c34ad80e9031c68706862fabf1a4 -->
<g id="edge4" class="edge">
<title>dir_0e5086b15e36e287b22643c32e731771&#45;&gt;dir_3f96c34ad80e9031c68706862fabf1a4</title>
<path fill="none" stroke="black" d="M111.12,-215.7C100.9,-206.97 88.33,-196.24 77.22,-186.75"/>
<polygon fill="black" stroke="black" points="79.31,-183.94 69.43,-180.1 74.76,-189.26 79.31,-183.94"/>
<g id="a_edge4&#45;headlabel"><a xlink:href="dir_000042_000007.html" target="_top" xlink:title="9">
<text text-anchor="middle" x="83.89" y="-181.61" font-family="Helvetica,sans-Serif" font-size="10.00">9</text>
</a>
</g>
</g>
<!-- dir_0e5086b15e36e287b22643c32e731771&#45;&gt;dir_c541d4b187fc5f863b4735b323978e0f -->
<g id="edge6" class="edge">
<title>dir_0e5086b15e36e287b22643c32e731771&#45;&gt;dir_c541d4b187fc5f863b4735b323978e0f</title>
<path fill="none" stroke="black" d="M147.86,-215.92C156.05,-206.22 165.1,-193.37 169.39,-180 175.81,-160.04 174.86,-136.25 172.56,-118.29"/>
<polygon fill="black" stroke="black" points="175.99,-117.58 171.05,-108.21 169.07,-118.62 175.99,-117.58"/>
<g id="a_edge6&#45;headlabel"><a xlink:href="dir_000042_000013.html" target="_top" xlink:title="1">
<text text-anchor="middle" x="179.33" y="-118.21" font-family="Helvetica,sans-Serif" font-size="10.00">1</text>
</a>
</g>
</g>
<!-- dir_0e5086b15e36e287b22643c32e731771&#45;&gt;dir_fd1e11fb0964f7346e999e146b0dfd59 -->
<g id="edge7" class="edge">
<title>dir_0e5086b15e36e287b22643c32e731771&#45;&gt;dir_fd1e11fb0964f7346e999e146b0dfd59</title>
<path fill="none" stroke="black" d="M98.62,-229.01C69.16,-223.49 27.51,-210.48 7.39,-180 -3.38,-163.68 -1.18,-153.57 7.39,-136 31.81,-85.97 89.27,-52.44 128.26,-34.55"/>
<polygon fill="black" stroke="black" points="130.02,-37.59 137.74,-30.33 127.18,-31.19 130.02,-37.59"/>
<g id="a_edge7&#45;headlabel"><a xlink:href="dir_000042_000017.html" target="_top" xlink:title="3">
<text text-anchor="middle" x="127.89" y="-39.15" font-family="Helvetica,sans-Serif" font-size="10.00">3</text>
</a>
</g>
</g>
<!-- dir_3f96c34ad80e9031c68706862fabf1a4&#45;&gt;dir_c541d4b187fc5f863b4735b323978e0f -->
<g id="edge12" class="edge">
<title>dir_3f96c34ad80e9031c68706862fabf1a4&#45;&gt;dir_c541d4b187fc5f863b4735b323978e0f</title>
<path fill="none" stroke="black" d="M74.28,-143.76C78.29,-141.1 82.43,-138.43 86.39,-136 100.79,-127.16 117,-118 131.12,-110.27"/>
<polygon fill="black" stroke="black" points="132.94,-113.27 140.05,-105.42 129.6,-107.12 132.94,-113.27"/>
<g id="a_edge12&#45;headlabel"><a xlink:href="dir_000007_000013.html" target="_top" xlink:title="4">
<text text-anchor="middle" x="131.14" y="-114.98" font-family="Helvetica,sans-Serif" font-size="10.00">4</text>
</a>
</g>
</g>
<!-- dir_3f96c34ad80e9031c68706862fabf1a4&#45;&gt;dir_fd1e11fb0964f7346e999e146b0dfd59 -->
<g id="edge13" class="edge">
<title>dir_3f96c34ad80e9031c68706862fabf1a4&#45;&gt;dir_fd1e11fb0964f7346e999e146b0dfd59</title>
<path fill="none" stroke="black" d="M63.63,-143.87C84.27,-119.03 122.65,-72.85 146.5,-44.14"/>
<polygon fill="black" stroke="black" points="149.41,-46.12 153.11,-36.19 144.03,-41.64 149.41,-46.12"/>
<g id="a_edge13&#45;headlabel"><a xlink:href="dir_000007_000017.html" target="_top" xlink:title="9">
<text text-anchor="middle" x="149.3" y="-48.2" font-family="Helvetica,sans-Serif" font-size="10.00">9</text>
</a>
</g>
</g>
<!-- dir_c541d4b187fc5f863b4735b323978e0f&#45;&gt;dir_fd1e11fb0964f7346e999e146b0dfd59 -->
<g id="edge2" class="edge">
<title>dir_c541d4b187fc5f863b4735b323978e0f&#45;&gt;dir_fd1e11fb0964f7346e999e146b0dfd59</title>
<path fill="none" stroke="black" d="M161.48,-71.7C160.68,-63.98 160.46,-54.71 160.8,-46.11"/>
<polygon fill="black" stroke="black" points="164.29,-46.32 161.5,-36.1 157.31,-45.84 164.29,-46.32"/>
<g id="a_edge2&#45;headlabel"><a xlink:href="dir_000013_000017.html" target="_top" xlink:title="6">
<text text-anchor="middle" x="166.87" y="-47.61" font-family="Helvetica,sans-Serif" font-size="10.00">6</text>
</a>
</g>
</g>
<!-- dir_fd1e11fb0964f7346e999e146b0dfd59&#45;&gt;dir_c541d4b187fc5f863b4735b323978e0f -->
<g id="edge1" class="edge">
<title>dir_fd1e11fb0964f7346e999e146b0dfd59&#45;&gt;dir_c541d4b187fc5f863b4735b323978e0f</title>
<path fill="none" stroke="black" d="M173.29,-36.1C174.09,-43.79 174.33,-53.05 174,-61.67"/>
<polygon fill="black" stroke="black" points="170.5,-61.48 173.31,-71.7 177.49,-61.96 170.5,-61.48"/>
<g id="a_edge1&#45;headlabel"><a xlink:href="dir_000017_000013.html" target="_top" xlink:title="2">
<text text-anchor="middle" x="167.92" y="-55.2" font-family="Helvetica,sans-Serif" font-size="10.00">2</text>
</a>
</g>
</g>
</g>
</svg>
