<?xml version="1.0" encoding="UTF-8" standalone="no"?>
<!DOCTYPE svg PUBLIC "-//W3C//DTD SVG 1.1//EN"
 "http://www.w3.org/Graphics/SVG/1.1/DTD/svg11.dtd">
<!-- Generated by graphviz version 2.43.0 (0)
 -->
<!-- Title: common Pages: 1 -->
<svg width="114pt" height="239pt"
 viewBox="0.00 0.00 114.00 239.00" xmlns="http://www.w3.org/2000/svg" xmlns:xlink="http://www.w3.org/1999/xlink">
<g id="graph0" class="graph" transform="scale(1 1) rotate(0) translate(4 235)">
<title>common</title>
<polygon fill="white" stroke="transparent" points="-4,4 -4,-235 110,-235 110,4 -4,4"/>
<g id="clust1" class="cluster">
<title>clusterdir_56d603006930d6f32ca38bb932b49787</title>
<g id="a_clust1"><a xlink:href="dir_56d603006930d6f32ca38bb932b49787.html" target="_top" xlink:title="layout">
<polygon fill="#ddddee" stroke="black" points="8,-8 8,-223 98,-223 98,-8 8,-8"/>
<text text-anchor="middle" x="53" y="-211" font-family="Helvetica,sans-Serif" font-size="10.00">layout</text>
</a>
</g>
</g>
<!-- dir_469dd4fe8a06b7a018d55910fd20ec61 -->
<g id="node1" class="node">
<title>dir_469dd4fe8a06b7a018d55910fd20ec61</title>
<g id="a_node1"><a xlink:href="dir_469dd4fe8a06b7a018d55910fd20ec61.html" target="_top" xlink:title="extension">
<polygon fill="none" stroke="black" points="85.5,-196 20.5,-196 20.5,-160 85.5,-160 85.5,-196"/>
<text text-anchor="middle" x="53" y="-175.5" font-family="Helvetica,sans-Serif" font-size="10.00">extension</text>
</a>
</g>
</g>
<!-- dir_88ac4bf79705bb8559b852278d35d8da -->
<g id="node2" class="node">
<title>dir_88ac4bf79705bb8559b852278d35d8da</title>
<g id="a_node2"><a xlink:href="dir_88ac4bf79705bb8559b852278d35d8da.html" target="_top" xlink:title="sbml">
<polygon fill="none" stroke="black" points="70,-124 16,-124 16,-88 70,-88 70,-124"/>
<text text-anchor="middle" x="43" y="-103.5" font-family="Helvetica,sans-Serif" font-size="10.00">sbml</text>
</a>
</g>
</g>
<!-- dir_469dd4fe8a06b7a018d55910fd20ec61&#45;&gt;dir_88ac4bf79705bb8559b852278d35d8da -->
<g id="edge3" class="edge">
<title>dir_469dd4fe8a06b7a018d55910fd20ec61&#45;&gt;dir_88ac4bf79705bb8559b852278d35d8da</title>
<path fill="none" stroke="black" d="M44.61,-159.7C42.71,-151.98 41.16,-142.71 40.28,-134.11"/>
<polygon fill="black" stroke="black" points="43.77,-133.82 39.55,-124.1 36.78,-134.33 43.77,-133.82"/>
<g id="a_edge3&#45;headlabel"><a xlink:href="dir_000046_000012.html" target="_top" xlink:title="2">
<text text-anchor="middle" x="46.86" y="-134.7" font-family="Helvetica,sans-Serif" font-size="10.00">2</text>
</a>
</g>
</g>
<!-- dir_e8a3015d30ced03ce97057fe372cd335 -->
<g id="node3" class="node">
<title>dir_e8a3015d30ced03ce97057fe372cd335</title>
<g id="a_node3"><a xlink:href="dir_e8a3015d30ced03ce97057fe372cd335.html" target="_top" xlink:title="common">
<polygon fill="#eeeeff" stroke="black" points="82.5,-52 23.5,-52 23.5,-16 82.5,-16 82.5,-52"/>
<text text-anchor="middle" x="53" y="-31.5" font-family="Helvetica,sans-Serif" font-size="10.00">common</text>
</a>
</g>
</g>
<!-- dir_469dd4fe8a06b7a018d55910fd20ec61&#45;&gt;dir_e8a3015d30ced03ce97057fe372cd335 -->
<g id="edge4" class="edge">
<title>dir_469dd4fe8a06b7a018d55910fd20ec61&#45;&gt;dir_e8a3015d30ced03ce97057fe372cd335</title>
<path fill="none" stroke="black" d="M56.12,-159.61C60.74,-149.62 67.08,-136.58 70,-124 73.62,-108.41 73.62,-103.59 70,-88 67.92,-79.06 64.12,-69.88 60.43,-61.74"/>
<polygon fill="black" stroke="black" points="63.49,-60 56.12,-52.39 57.13,-62.94 63.49,-60"/>
<g id="a_edge4&#45;headlabel"><a xlink:href="dir_000046_000047.html" target="_top" xlink:title="1">
<text text-anchor="middle" x="67.57" y="-59.58" font-family="Helvetica,sans-Serif" font-size="10.00">1</text>
</a>
</g>
</g>
<!-- dir_88ac4bf79705bb8559b852278d35d8da&#45;&gt;dir_469dd4fe8a06b7a018d55910fd20ec61 -->
<g id="edge1" class="edge">
<title>dir_88ac4bf79705bb8559b852278d35d8da&#45;&gt;dir_469dd4fe8a06b7a018d55910fd20ec61</title>
<path fill="none" stroke="black" d="M51.34,-124.1C53.24,-131.79 54.8,-141.05 55.7,-149.67"/>
<polygon fill="black" stroke="black" points="52.21,-149.98 56.44,-159.7 59.19,-149.46 52.21,-149.98"/>
<g id="a_edge1&#45;headlabel"><a xlink:href="dir_000012_000046.html" target="_top" xlink:title="28">
<text text-anchor="middle" x="49.12" y="-144.11" font-family="Helvetica,sans-Serif" font-size="10.00">28</text>
</a>
</g>
</g>
<!-- dir_88ac4bf79705bb8559b852278d35d8da&#45;&gt;dir_e8a3015d30ced03ce97057fe372cd335 -->
<g id="edge2" class="edge">
<title>dir_88ac4bf79705bb8559b852278d35d8da&#45;&gt;dir_e8a3015d30ced03ce97057fe372cd335</title>
<path fill="none" stroke="black" d="M39.56,-87.7C39.86,-79.98 40.96,-70.71 42.53,-62.11"/>
<polygon fill="black" stroke="black" points="46,-62.61 44.66,-52.1 39.16,-61.16 46,-62.61"/>
<g id="a_edge2&#45;headlabel"><a xlink:href="dir_000012_000047.html" target="_top" xlink:title="16">
<text text-anchor="middle" x="48.03" y="-64.22" font-family="Helvetica,sans-Serif" font-size="10.00">16</text>
</a>
</g>
</g>
<!-- dir_e8a3015d30ced03ce97057fe372cd335&#45;&gt;dir_469dd4fe8a06b7a018d55910fd20ec61 -->
<g id="edge5" class="edge">
<title>dir_e8a3015d30ced03ce97057fe372cd335&#45;&gt;dir_469dd4fe8a06b7a018d55910fd20ec61</title>
<path fill="none" stroke="black" d="M71.97,-52.39C78.74,-62.38 85.08,-75.42 88,-88 91.62,-103.59 91.62,-108.41 88,-124 85.86,-133.24 81.87,-142.72 77.22,-151.07"/>
<polygon fill="black" stroke="black" points="74.22,-149.26 71.97,-159.61 80.19,-152.92 74.22,-149.26"/>
<g id="a_edge5&#45;headlabel"><a xlink:href="dir_000047_000046.html" target="_top" xlink:title="3">
<text text-anchor="middle" x="73.68" y="-142.21" font-family="Helvetica,sans-Serif" font-size="10.00">3</text>
</a>
</g>
</g>
<!-- dir_e8a3015d30ced03ce97057fe372cd335&#45;&gt;dir_88ac4bf79705bb8559b852278d35d8da -->
<g id="edge6" class="edge">
<title>dir_e8a3015d30ced03ce97057fe372cd335&#45;&gt;dir_88ac4bf79705bb8559b852278d35d8da</title>
<path fill="none" stroke="black" d="M56.45,-52.1C56.16,-59.79 55.07,-69.05 53.51,-77.67"/>
<polygon fill="black" stroke="black" points="50.03,-77.19 51.39,-87.7 56.88,-78.64 50.03,-77.19"/>
<g id="a_edge6&#45;headlabel"><a xlink:href="dir_000047_000012.html" target="_top" xlink:title="16">
<text text-anchor="middle" x="48" y="-70.58" font-family="Helvetica,sans-Serif" font-size="10.00">16</text>
</a>
</g>
</g>
</g>
</svg>
