<?xml version="1.0" encoding="UTF-8" standalone="no"?>
<!DOCTYPE svg PUBLIC "-//W3C//DTD SVG 1.1//EN"
 "http://www.w3.org/Graphics/SVG/1.1/DTD/svg11.dtd">
<!-- Generated by graphviz version 2.43.0 (0)
 -->
<!-- Title: render Pages: 1 -->
<!--zoomable 663 -->
<svg id="main" version="1.1" xmlns="http://www.w3.org/2000/svg" xmlns:xlink="http://www.w3.org/1999/xlink" xml:space="preserve" onload="init(evt)">
<style type="text/css"><![CDATA[
.edge:hover path { stroke: red; }
.edge:hover polygon { stroke: red; fill: red; }
]]></style>
<script type="text/javascript"><![CDATA[
var edges = document.getElementsByTagName('g');
if (edges && edges.length) {
  for (var i=0;i<edges.length;i++) {
    if (edges[i].id.substr(0,4)=='edge') {
      edges[i].setAttribute('class','edge');
    }
  }
}
]]></script>
        <defs>
                <circle id="rim" cx="0" cy="0" r="7"/>
                <circle id="rim2" cx="0" cy="0" r="3.5"/>
                <g id="zoomPlus">
                        <use xlink:href="#rim" fill="#404040">
                                <set attributeName="fill" to="#808080" begin="zoomplus.mouseover" end="zoomplus.mouseout"/>
                        </use>
                        <path d="M-4,0h8M0,-4v8" fill="none" stroke="white" stroke-width="1.5" pointer-events="none"/>
                </g>
                <g id="zoomMin">
                        <use xlink:href="#rim" fill="#404040">
                                <set attributeName="fill" to="#808080" begin="zoomminus.mouseover" end="zoomminus.mouseout"/>
                        </use>
                        <path d="M-4,0h8" fill="none" stroke="white" stroke-width="1.5" pointer-events="none"/>
                </g>
                <g id="dirArrow">
                        <path fill="none" stroke="white" stroke-width="1.5" d="M0,-3.0v7 M-2.5,-0.5L0,-3.0L2.5,-0.5"/>
                </g>
               <g id="resetDef">
                       <use xlink:href="#rim2" fill="#404040">
                               <set attributeName="fill" to="#808080" begin="reset.mouseover" end="reset.mouseout"/>
                       </use>
               </g>
        </defs>

<script type="text/javascript">
var viewWidth = 694;
var viewHeight = 663;
var sectionId = 'dynsection-0';
</script>
<script xlink:href="svgpan.js"/>
<svg id="graph" class="graph">
<g id="viewport">
<title>render</title>
<polygon fill="white" stroke="transparent" points="-4,4 -4,-659 690.49,-659 690.49,4 -4,4"/>
<g id="clust1" class="cluster">
<title>clusterdir_d29d847ea07fb74c2c88b7147de27d35</title>
<g id="a_clust1"><a xlink:href="dir_d29d847ea07fb74c2c88b7147de27d35.html" target="_top" xlink:title="packages">
<polygon fill="#ddddee" stroke="black" points="225.49,-344 225.49,-647 485.49,-647 485.49,-344 225.49,-344"/>
<text text-anchor="middle" x="355.49" y="-635" font-family="Helvetica,sans-Serif" font-size="10.00">packages</text>
</a>
</g>
</g>
<g id="clust2" class="cluster">
<title>clusterdir_8c25a664b4b6cfdfb5234e8b61efda61</title>
<g id="a_clust2"><a xlink:href="dir_8c25a664b4b6cfdfb5234e8b61efda61.html" target="_top">
<polygon fill="#eeeeff" stroke="black" points="295.49,-352 295.49,-620 477.49,-620 477.49,-352 295.49,-352"/>
</a>
</g>
</g>
<!-- dir_56d603006930d6f32ca38bb932b49787 -->
<g id="node1" class="node">
<title>dir_56d603006930d6f32ca38bb932b49787</title>
<g id="a_node1"><a xlink:href="dir_56d603006930d6f32ca38bb932b49787.html" target="_top" xlink:title="layout">
<polygon fill="white" stroke="red" points="287.49,-396 233.49,-396 233.49,-360 287.49,-360 287.49,-396"/>
<text text-anchor="middle" x="260.49" y="-375.5" font-family="Helvetica,sans-Serif" font-size="10.00">layout</text>
</a>
</g>
</g>
<!-- dir_3f96c34ad80e9031c68706862fabf1a4 -->
<g id="node8" class="node">
<title>dir_3f96c34ad80e9031c68706862fabf1a4</title>
<g id="a_node8"><a xlink:href="dir_3f96c34ad80e9031c68706862fabf1a4.html" target="_top" xlink:title="extension">
<polygon fill="none" stroke="black" points="387.99,-252 322.99,-252 322.99,-216 387.99,-216 387.99,-252"/>
<text text-anchor="middle" x="355.49" y="-231.5" font-family="Helvetica,sans-Serif" font-size="10.00">extension</text>
</a>
</g>
</g>
<!-- dir_56d603006930d6f32ca38bb932b49787&#45;&gt;dir_3f96c34ad80e9031c68706862fabf1a4 -->
<g id="edge41" class="edge">
<title>dir_56d603006930d6f32ca38bb932b49787&#45;&gt;dir_3f96c34ad80e9031c68706862fabf1a4</title>
<path fill="none" stroke="black" d="M271.95,-359.87C288.49,-335.14 319.2,-289.24 338.42,-260.51"/>
<polygon fill="black" stroke="black" points="341.34,-262.45 343.99,-252.19 335.52,-258.55 341.34,-262.45"/>
<g id="a_edge41&#45;headlabel"><a xlink:href="dir_000011_000007.html" target="_top" xlink:title="10">
<text text-anchor="middle" x="341.7" y="-264.51" font-family="Helvetica,sans-Serif" font-size="10.00">10</text>
</a>
</g>
</g>
<!-- dir_5cbb9a0bf548abf0d2e32772c73d2ad6 -->
<g id="node9" class="node">
<title>dir_5cbb9a0bf548abf0d2e32772c73d2ad6</title>
<g id="a_node9"><a xlink:href="dir_5cbb9a0bf548abf0d2e32772c73d2ad6.html" target="_top" xlink:title="xml">
<polygon fill="none" stroke="black" points="200.49,-180 146.49,-180 146.49,-144 200.49,-144 200.49,-180"/>
<text text-anchor="middle" x="173.49" y="-159.5" font-family="Helvetica,sans-Serif" font-size="10.00">xml</text>
</a>
</g>
</g>
<!-- dir_56d603006930d6f32ca38bb932b49787&#45;&gt;dir_5cbb9a0bf548abf0d2e32772c73d2ad6 -->
<g id="edge42" class="edge">
<title>dir_56d603006930d6f32ca38bb932b49787&#45;&gt;dir_5cbb9a0bf548abf0d2e32772c73d2ad6</title>
<path fill="none" stroke="black" d="M242,-359.93C232.5,-350.24 221.49,-337.39 214.49,-324 191.78,-280.6 181.16,-223.94 176.58,-190.71"/>
<polygon fill="black" stroke="black" points="180,-189.86 175.25,-180.39 173.05,-190.75 180,-189.86"/>
<g id="a_edge42&#45;headlabel"><a xlink:href="dir_000011_000035.html" target="_top" xlink:title="86">
<text text-anchor="middle" x="183.27" y="-190.56" font-family="Helvetica,sans-Serif" font-size="10.00">86</text>
</a>
</g>
</g>
<!-- dir_c541d4b187fc5f863b4735b323978e0f -->
<g id="node10" class="node">
<title>dir_c541d4b187fc5f863b4735b323978e0f</title>
<g id="a_node10"><a xlink:href="dir_c541d4b187fc5f863b4735b323978e0f.html" target="_top" xlink:title="util">
<polygon fill="none" stroke="black" points="361.49,-108 307.49,-108 307.49,-72 361.49,-72 361.49,-108"/>
<text text-anchor="middle" x="334.49" y="-87.5" font-family="Helvetica,sans-Serif" font-size="10.00">util</text>
</a>
</g>
</g>
<!-- dir_56d603006930d6f32ca38bb932b49787&#45;&gt;dir_c541d4b187fc5f863b4735b323978e0f -->
<g id="edge43" class="edge">
<title>dir_56d603006930d6f32ca38bb932b49787&#45;&gt;dir_c541d4b187fc5f863b4735b323978e0f</title>
<path fill="none" stroke="black" d="M264.89,-359.97C277.26,-312.19 312.33,-176.62 327.43,-118.27"/>
<polygon fill="black" stroke="black" points="330.89,-118.86 330.01,-108.31 324.12,-117.11 330.89,-118.86"/>
<g id="a_edge43&#45;headlabel"><a xlink:href="dir_000011_000013.html" target="_top" xlink:title="16">
<text text-anchor="middle" x="332.74" y="-120.56" font-family="Helvetica,sans-Serif" font-size="10.00">16</text>
</a>
</g>
</g>
<!-- dir_fd1e11fb0964f7346e999e146b0dfd59 -->
<g id="node12" class="node">
<title>dir_fd1e11fb0964f7346e999e146b0dfd59</title>
<g id="a_node12"><a xlink:href="dir_fd1e11fb0964f7346e999e146b0dfd59.html" target="_top" xlink:title="common">
<polygon fill="none" stroke="black" points="295.99,-36 236.99,-36 236.99,0 295.99,0 295.99,-36"/>
<text text-anchor="middle" x="266.49" y="-15.5" font-family="Helvetica,sans-Serif" font-size="10.00">common</text>
</a>
</g>
</g>
<!-- dir_56d603006930d6f32ca38bb932b49787&#45;&gt;dir_fd1e11fb0964f7346e999e146b0dfd59 -->
<g id="edge44" class="edge">
<title>dir_56d603006930d6f32ca38bb932b49787&#45;&gt;dir_fd1e11fb0964f7346e999e146b0dfd59</title>
<path fill="none" stroke="black" d="M254.01,-359.79C244.66,-333.36 228.49,-280.99 228.49,-235 228.49,-235 228.49,-235 228.49,-161 228.49,-119.63 243.72,-73.72 254.9,-45.61"/>
<polygon fill="black" stroke="black" points="258.24,-46.67 258.8,-36.09 251.77,-44.02 258.24,-46.67"/>
<g id="a_edge44&#45;headlabel"><a xlink:href="dir_000011_000017.html" target="_top" xlink:title="39">
<text text-anchor="middle" x="259.51" y="-48.58" font-family="Helvetica,sans-Serif" font-size="10.00">39</text>
</a>
</g>
</g>
<!-- dir_a0a785b8d726fb513b94381e63693443 -->
<g id="node13" class="node">
<title>dir_a0a785b8d726fb513b94381e63693443</title>
<g id="a_node13"><a xlink:href="dir_a0a785b8d726fb513b94381e63693443.html" target="_top" xlink:title="validator">
<polygon fill="none" stroke="black" points="392.49,-324 332.49,-324 332.49,-288 392.49,-288 392.49,-324"/>
<text text-anchor="middle" x="362.49" y="-303.5" font-family="Helvetica,sans-Serif" font-size="10.00">validator</text>
</a>
</g>
</g>
<!-- dir_56d603006930d6f32ca38bb932b49787&#45;&gt;dir_a0a785b8d726fb513b94381e63693443 -->
<g id="edge45" class="edge">
<title>dir_56d603006930d6f32ca38bb932b49787&#45;&gt;dir_a0a785b8d726fb513b94381e63693443</title>
<path fill="none" stroke="black" d="M274.63,-359.78C279.61,-354.34 285.47,-348.56 291.49,-344 301.08,-336.73 312.31,-330.14 322.98,-324.61"/>
<polygon fill="black" stroke="black" points="324.76,-327.63 332.14,-320.03 321.63,-321.37 324.76,-327.63"/>
<g id="a_edge45&#45;headlabel"><a xlink:href="dir_000011_000025.html" target="_top" xlink:title="2">
<text text-anchor="middle" x="322.82" y="-329.27" font-family="Helvetica,sans-Serif" font-size="10.00">2</text>
</a>
</g>
</g>
<!-- dir_8c25a664b4b6cfdfb5234e8b61efda61 -->
<g id="node2" class="node">
<title>dir_8c25a664b4b6cfdfb5234e8b61efda61</title>
<text text-anchor="middle" x="437.49" y="-591.5" font-family="Helvetica,sans-Serif" font-size="10.00">render</text>
</g>
<!-- dir_0f865acc0217e49aeb49ab1c50c8f73a -->
<g id="node3" class="node">
<title>dir_0f865acc0217e49aeb49ab1c50c8f73a</title>
<g id="a_node3"><a xlink:href="dir_0f865acc0217e49aeb49ab1c50c8f73a.html" target="_top" xlink:title="common">
<polygon fill="white" stroke="black" points="383.99,-612 324.99,-612 324.99,-576 383.99,-576 383.99,-612"/>
<text text-anchor="middle" x="354.49" y="-591.5" font-family="Helvetica,sans-Serif" font-size="10.00">common</text>
</a>
</g>
</g>
<!-- dir_6b5446d9575188b5a170aae88d74d865 -->
<g id="node4" class="node">
<title>dir_6b5446d9575188b5a170aae88d74d865</title>
<g id="a_node4"><a xlink:href="dir_6b5446d9575188b5a170aae88d74d865.html" target="_top" xlink:title="extension">
<polygon fill="white" stroke="black" points="434.99,-540 369.99,-540 369.99,-504 434.99,-504 434.99,-540"/>
<text text-anchor="middle" x="402.49" y="-519.5" font-family="Helvetica,sans-Serif" font-size="10.00">extension</text>
</a>
</g>
</g>
<!-- dir_0f865acc0217e49aeb49ab1c50c8f73a&#45;&gt;dir_6b5446d9575188b5a170aae88d74d865 -->
<g id="edge34" class="edge">
<title>dir_0f865acc0217e49aeb49ab1c50c8f73a&#45;&gt;dir_6b5446d9575188b5a170aae88d74d865</title>
<path fill="none" stroke="black" d="M360.44,-575.7C365.28,-567.39 372.01,-557.28 378.74,-548.14"/>
<polygon fill="black" stroke="black" points="381.59,-550.18 384.86,-540.1 376.02,-545.94 381.59,-550.18"/>
<g id="a_edge34&#45;headlabel"><a xlink:href="dir_000056_000055.html" target="_top" xlink:title="5">
<text text-anchor="middle" x="381.67" y="-552.26" font-family="Helvetica,sans-Serif" font-size="10.00">5</text>
</a>
</g>
</g>
<!-- dir_224c4a10832b4053571db2c932d86b0d -->
<g id="node5" class="node">
<title>dir_224c4a10832b4053571db2c932d86b0d</title>
<g id="a_node5"><a xlink:href="dir_224c4a10832b4053571db2c932d86b0d.html" target="_top" xlink:title="sbml">
<polygon fill="white" stroke="black" points="357.49,-468 303.49,-468 303.49,-432 357.49,-432 357.49,-468"/>
<text text-anchor="middle" x="330.49" y="-447.5" font-family="Helvetica,sans-Serif" font-size="10.00">sbml</text>
</a>
</g>
</g>
<!-- dir_0f865acc0217e49aeb49ab1c50c8f73a&#45;&gt;dir_224c4a10832b4053571db2c932d86b0d -->
<g id="edge33" class="edge">
<title>dir_0f865acc0217e49aeb49ab1c50c8f73a&#45;&gt;dir_224c4a10832b4053571db2c932d86b0d</title>
<path fill="none" stroke="black" d="M343.74,-575.82C340.8,-565.44 338.51,-551.96 336.49,-540 332.98,-519.27 329.03,-495.83 327.36,-478.21"/>
<polygon fill="black" stroke="black" points="330.84,-477.79 326.64,-468.06 323.86,-478.29 330.84,-477.79"/>
<g id="a_edge33&#45;headlabel"><a xlink:href="dir_000056_000016.html" target="_top" xlink:title="34">
<text text-anchor="middle" x="333.92" y="-478.67" font-family="Helvetica,sans-Serif" font-size="10.00">34</text>
</a>
</g>
</g>
<!-- dir_6b5446d9575188b5a170aae88d74d865&#45;&gt;dir_56d603006930d6f32ca38bb932b49787 -->
<g id="edge12" class="edge">
<title>dir_6b5446d9575188b5a170aae88d74d865&#45;&gt;dir_56d603006930d6f32ca38bb932b49787</title>
<path fill="none" stroke="black" d="M369.7,-512.03C345.96,-504.01 314.62,-490.06 294.49,-468 278.68,-450.68 269.96,-425.26 265.31,-406.01"/>
<polygon fill="black" stroke="black" points="268.69,-405.07 263.14,-396.04 261.85,-406.56 268.69,-405.07"/>
<g id="a_edge12&#45;headlabel"><a xlink:href="dir_000055_000011.html" target="_top" xlink:title="4">
<text text-anchor="middle" x="272.23" y="-405.47" font-family="Helvetica,sans-Serif" font-size="10.00">4</text>
</a>
</g>
</g>
<!-- dir_6b5446d9575188b5a170aae88d74d865&#45;&gt;dir_0f865acc0217e49aeb49ab1c50c8f73a -->
<g id="edge9" class="edge">
<title>dir_6b5446d9575188b5a170aae88d74d865&#45;&gt;dir_0f865acc0217e49aeb49ab1c50c8f73a</title>
<path fill="none" stroke="black" d="M396.65,-540.1C391.84,-548.38 385.12,-558.49 378.39,-567.64"/>
<polygon fill="black" stroke="black" points="375.53,-565.62 372.27,-575.7 381.11,-569.85 375.53,-565.62"/>
<g id="a_edge9&#45;headlabel"><a xlink:href="dir_000055_000056.html" target="_top" xlink:title="3">
<text text-anchor="middle" x="375.45" y="-558.54" font-family="Helvetica,sans-Serif" font-size="10.00">3</text>
</a>
</g>
</g>
<!-- dir_6b5446d9575188b5a170aae88d74d865&#45;&gt;dir_224c4a10832b4053571db2c932d86b0d -->
<g id="edge10" class="edge">
<title>dir_6b5446d9575188b5a170aae88d74d865&#45;&gt;dir_224c4a10832b4053571db2c932d86b0d</title>
<path fill="none" stroke="black" d="M378.77,-503.7C369.18,-495.22 358.34,-484.86 349.29,-475.58"/>
<polygon fill="black" stroke="black" points="351.61,-472.94 342.18,-468.1 346.54,-477.76 351.61,-472.94"/>
<g id="a_edge10&#45;headlabel"><a xlink:href="dir_000055_000016.html" target="_top" xlink:title="7">
<text text-anchor="middle" x="356.15" y="-471.09" font-family="Helvetica,sans-Serif" font-size="10.00">7</text>
</a>
</g>
</g>
<!-- dir_b14b741173403ad069a896263b3f14b4 -->
<g id="node6" class="node">
<title>dir_b14b741173403ad069a896263b3f14b4</title>
<g id="a_node6"><a xlink:href="dir_b14b741173403ad069a896263b3f14b4.html" target="_top" xlink:title="util">
<polygon fill="white" stroke="black" points="429.49,-468 375.49,-468 375.49,-432 429.49,-432 429.49,-468"/>
<text text-anchor="middle" x="402.49" y="-447.5" font-family="Helvetica,sans-Serif" font-size="10.00">util</text>
</a>
</g>
</g>
<!-- dir_6b5446d9575188b5a170aae88d74d865&#45;&gt;dir_b14b741173403ad069a896263b3f14b4 -->
<g id="edge14" class="edge">
<title>dir_6b5446d9575188b5a170aae88d74d865&#45;&gt;dir_b14b741173403ad069a896263b3f14b4</title>
<path fill="none" stroke="black" d="M396.57,-503.7C395.78,-495.98 395.55,-486.71 395.89,-478.11"/>
<polygon fill="black" stroke="black" points="399.38,-478.32 396.59,-468.1 392.4,-477.84 399.38,-478.32"/>
<g id="a_edge14&#45;headlabel"><a xlink:href="dir_000055_000057.html" target="_top" xlink:title="3">
<text text-anchor="middle" x="401.97" y="-479.61" font-family="Helvetica,sans-Serif" font-size="10.00">3</text>
</a>
</g>
</g>
<!-- dir_b1a5b7ba9091facbdf32a321b74a0f11 -->
<g id="node7" class="node">
<title>dir_b1a5b7ba9091facbdf32a321b74a0f11</title>
<g id="a_node7"><a xlink:href="dir_b1a5b7ba9091facbdf32a321b74a0f11.html" target="_top" xlink:title="validator">
<polygon fill="white" stroke="black" points="392.49,-396 332.49,-396 332.49,-360 392.49,-360 392.49,-396"/>
<text text-anchor="middle" x="362.49" y="-375.5" font-family="Helvetica,sans-Serif" font-size="10.00">validator</text>
</a>
</g>
</g>
<!-- dir_6b5446d9575188b5a170aae88d74d865&#45;&gt;dir_b1a5b7ba9091facbdf32a321b74a0f11 -->
<g id="edge15" class="edge">
<title>dir_6b5446d9575188b5a170aae88d74d865&#45;&gt;dir_b1a5b7ba9091facbdf32a321b74a0f11</title>
<path fill="none" stroke="black" d="M418.26,-503.83C433.02,-485.58 451.05,-456.09 438.49,-432 430.48,-416.65 415.76,-404.83 401.4,-396.3"/>
<polygon fill="black" stroke="black" points="403.01,-393.19 392.57,-391.41 399.62,-399.31 403.01,-393.19"/>
<g id="a_edge15&#45;headlabel"><a xlink:href="dir_000055_000054.html" target="_top" xlink:title="4">
<text text-anchor="middle" x="407.53" y="-389.95" font-family="Helvetica,sans-Serif" font-size="10.00">4</text>
</a>
</g>
</g>
<!-- dir_6b5446d9575188b5a170aae88d74d865&#45;&gt;dir_3f96c34ad80e9031c68706862fabf1a4 -->
<g id="edge11" class="edge">
<title>dir_6b5446d9575188b5a170aae88d74d865&#45;&gt;dir_3f96c34ad80e9031c68706862fabf1a4</title>
<path fill="none" stroke="black" d="M435.33,-507.33C494.24,-480.63 608.52,-417.68 572.49,-344 540.29,-278.18 451.8,-251.49 398.28,-241.14"/>
<polygon fill="black" stroke="black" points="398.86,-237.69 388.4,-239.33 397.6,-244.57 398.86,-237.69"/>
<g id="a_edge11&#45;headlabel"><a xlink:href="dir_000055_000007.html" target="_top" xlink:title="10">
<text text-anchor="middle" x="402.91" y="-233.04" font-family="Helvetica,sans-Serif" font-size="10.00">10</text>
</a>
</g>
</g>
<!-- dir_6b5446d9575188b5a170aae88d74d865&#45;&gt;dir_5cbb9a0bf548abf0d2e32772c73d2ad6 -->
<g id="edge13" class="edge">
<title>dir_6b5446d9575188b5a170aae88d74d865&#45;&gt;dir_5cbb9a0bf548abf0d2e32772c73d2ad6</title>
<path fill="none" stroke="black" d="M369.74,-521.42C287.07,-520.59 76.49,-506.02 76.49,-379 76.49,-379 76.49,-379 76.49,-305 76.49,-256.7 115.23,-212.73 143.74,-186.91"/>
<polygon fill="black" stroke="black" points="146.27,-189.35 151.48,-180.12 141.65,-184.09 146.27,-189.35"/>
<g id="a_edge13&#45;headlabel"><a xlink:href="dir_000055_000035.html" target="_top" xlink:title="6">
<text text-anchor="middle" x="145.44" y="-191.36" font-family="Helvetica,sans-Serif" font-size="10.00">6</text>
</a>
</g>
</g>
<!-- dir_6b5446d9575188b5a170aae88d74d865&#45;&gt;dir_c541d4b187fc5f863b4735b323978e0f -->
<g id="edge16" class="edge">
<title>dir_6b5446d9575188b5a170aae88d74d865&#45;&gt;dir_c541d4b187fc5f863b4735b323978e0f</title>
<path fill="none" stroke="black" d="M435.15,-517.4C502.07,-508.03 648.49,-476.39 648.49,-379 648.49,-379 648.49,-379 648.49,-305 648.49,-172.3 454.63,-116.02 371.56,-97.99"/>
<polygon fill="black" stroke="black" points="372.04,-94.51 361.53,-95.88 370.6,-101.36 372.04,-94.51"/>
<g id="a_edge16&#45;headlabel"><a xlink:href="dir_000055_000013.html" target="_top" xlink:title="2">
<text text-anchor="middle" x="376.14" y="-89.97" font-family="Helvetica,sans-Serif" font-size="10.00">2</text>
</a>
</g>
</g>
<!-- dir_d3b86ce335ad818909ececff0fac1eca -->
<g id="node11" class="node">
<title>dir_d3b86ce335ad818909ececff0fac1eca</title>
<g id="a_node11"><a xlink:href="dir_d3b86ce335ad818909ececff0fac1eca.html" target="_top" xlink:title="conversion">
<polygon fill="none" stroke="black" points="563.49,-396 493.49,-396 493.49,-360 563.49,-360 563.49,-396"/>
<text text-anchor="middle" x="528.49" y="-375.5" font-family="Helvetica,sans-Serif" font-size="10.00">conversion</text>
</a>
</g>
</g>
<!-- dir_6b5446d9575188b5a170aae88d74d865&#45;&gt;dir_d3b86ce335ad818909ececff0fac1eca -->
<g id="edge17" class="edge">
<title>dir_6b5446d9575188b5a170aae88d74d865&#45;&gt;dir_d3b86ce335ad818909ececff0fac1eca</title>
<path fill="none" stroke="black" d="M417.69,-503.87C439.82,-478.92 481.06,-432.45 506.51,-403.77"/>
<polygon fill="black" stroke="black" points="509.22,-405.99 513.23,-396.19 503.98,-401.35 509.22,-405.99"/>
<g id="a_edge17&#45;headlabel"><a xlink:href="dir_000055_000026.html" target="_top" xlink:title="2">
<text text-anchor="middle" x="508.95" y="-408.07" font-family="Helvetica,sans-Serif" font-size="10.00">2</text>
</a>
</g>
</g>
<!-- dir_6b5446d9575188b5a170aae88d74d865&#45;&gt;dir_fd1e11fb0964f7346e999e146b0dfd59 -->
<g id="edge18" class="edge">
<title>dir_6b5446d9575188b5a170aae88d74d865&#45;&gt;dir_fd1e11fb0964f7346e999e146b0dfd59</title>
<path fill="none" stroke="black" d="M435.07,-519.57C509.66,-514.39 686.49,-490.35 686.49,-379 686.49,-379 686.49,-379 686.49,-161 686.49,-81.19 410.88,-37.5 306.18,-23.78"/>
<polygon fill="black" stroke="black" points="306.39,-20.28 296.02,-22.48 305.49,-27.22 306.39,-20.28"/>
<g id="a_edge18&#45;headlabel"><a xlink:href="dir_000055_000017.html" target="_top" xlink:title="8">
<text text-anchor="middle" x="310.31" y="-15.42" font-family="Helvetica,sans-Serif" font-size="10.00">8</text>
</a>
</g>
</g>
<!-- dir_224c4a10832b4053571db2c932d86b0d&#45;&gt;dir_56d603006930d6f32ca38bb932b49787 -->
<g id="edge20" class="edge">
<title>dir_224c4a10832b4053571db2c932d86b0d&#45;&gt;dir_56d603006930d6f32ca38bb932b49787</title>
<path fill="none" stroke="black" d="M313.18,-431.7C304.62,-423.14 294.14,-412.66 284.79,-403.3"/>
<polygon fill="black" stroke="black" points="287.14,-400.7 277.59,-396.1 282.19,-405.65 287.14,-400.7"/>
<g id="a_edge20&#45;headlabel"><a xlink:href="dir_000016_000011.html" target="_top" xlink:title="42">
<text text-anchor="middle" x="291.69" y="-398.73" font-family="Helvetica,sans-Serif" font-size="10.00">42</text>
</a>
</g>
</g>
<!-- dir_224c4a10832b4053571db2c932d86b0d&#45;&gt;dir_0f865acc0217e49aeb49ab1c50c8f73a -->
<g id="edge19" class="edge">
<title>dir_224c4a10832b4053571db2c932d86b0d&#45;&gt;dir_0f865acc0217e49aeb49ab1c50c8f73a</title>
<path fill="none" stroke="black" d="M340.08,-468.06C345.37,-485.98 350.25,-514.97 354.49,-540 355.89,-548.32 357.43,-557.37 358.43,-565.6"/>
<polygon fill="black" stroke="black" points="354.97,-566.18 359.38,-575.82 361.94,-565.53 354.97,-566.18"/>
<g id="a_edge19&#45;headlabel"><a xlink:href="dir_000016_000056.html" target="_top" xlink:title="36">
<text text-anchor="middle" x="351.81" y="-560.37" font-family="Helvetica,sans-Serif" font-size="10.00">36</text>
</a>
</g>
</g>
<!-- dir_224c4a10832b4053571db2c932d86b0d&#45;&gt;dir_6b5446d9575188b5a170aae88d74d865 -->
<g id="edge22" class="edge">
<title>dir_224c4a10832b4053571db2c932d86b0d&#45;&gt;dir_6b5446d9575188b5a170aae88d74d865</title>
<path fill="none" stroke="black" d="M353.97,-468.1C363.55,-476.55 374.39,-486.9 383.47,-496.2"/>
<polygon fill="black" stroke="black" points="381.17,-498.87 390.6,-503.7 386.24,-494.04 381.17,-498.87"/>
<g id="a_edge22&#45;headlabel"><a xlink:href="dir_000016_000055.html" target="_top" xlink:title="55">
<text text-anchor="middle" x="376.64" y="-495.72" font-family="Helvetica,sans-Serif" font-size="10.00">55</text>
</a>
</g>
</g>
<!-- dir_224c4a10832b4053571db2c932d86b0d&#45;&gt;dir_b1a5b7ba9091facbdf32a321b74a0f11 -->
<g id="edge23" class="edge">
<title>dir_224c4a10832b4053571db2c932d86b0d&#45;&gt;dir_b1a5b7ba9091facbdf32a321b74a0f11</title>
<path fill="none" stroke="black" d="M338.4,-431.7C342.04,-423.73 346.44,-414.1 350.48,-405.26"/>
<polygon fill="black" stroke="black" points="353.69,-406.65 354.67,-396.1 347.33,-403.74 353.69,-406.65"/>
<g id="a_edge23&#45;headlabel"><a xlink:href="dir_000016_000054.html" target="_top" xlink:title="35">
<text text-anchor="middle" x="354.78" y="-408.6" font-family="Helvetica,sans-Serif" font-size="10.00">35</text>
</a>
</g>
</g>
<!-- dir_224c4a10832b4053571db2c932d86b0d&#45;&gt;dir_5cbb9a0bf548abf0d2e32772c73d2ad6 -->
<g id="edge21" class="edge">
<title>dir_224c4a10832b4053571db2c932d86b0d&#45;&gt;dir_5cbb9a0bf548abf0d2e32772c73d2ad6</title>
<path fill="none" stroke="black" d="M303.26,-445.8C269.91,-440.61 213.31,-427.55 176.49,-396 114.39,-342.81 114.96,-294.31 138.49,-216 141.41,-206.28 146.75,-196.7 152.4,-188.41"/>
<polygon fill="black" stroke="black" points="155.25,-190.44 158.3,-180.3 149.59,-186.32 155.25,-190.44"/>
<g id="a_edge21&#45;headlabel"><a xlink:href="dir_000016_000035.html" target="_top" xlink:title="39">
<text text-anchor="middle" x="155.43" y="-192.52" font-family="Helvetica,sans-Serif" font-size="10.00">39</text>
</a>
</g>
</g>
<!-- dir_224c4a10832b4053571db2c932d86b0d&#45;&gt;dir_c541d4b187fc5f863b4735b323978e0f -->
<g id="edge24" class="edge">
<title>dir_224c4a10832b4053571db2c932d86b0d&#45;&gt;dir_c541d4b187fc5f863b4735b323978e0f</title>
<path fill="none" stroke="black" d="M357.67,-435.15C372.84,-426.03 390.78,-412.71 401.49,-396 423.31,-361.95 420.49,-347.45 420.49,-307 420.49,-307 420.49,-307 420.49,-233 420.49,-186.31 386.04,-141.84 360.75,-115.49"/>
<polygon fill="black" stroke="black" points="363.09,-112.88 353.57,-108.23 358.12,-117.8 363.09,-112.88"/>
<g id="a_edge24&#45;headlabel"><a xlink:href="dir_000016_000013.html" target="_top" xlink:title="11">
<text text-anchor="middle" x="367.64" y="-110.93" font-family="Helvetica,sans-Serif" font-size="10.00">11</text>
</a>
</g>
</g>
<!-- dir_224c4a10832b4053571db2c932d86b0d&#45;&gt;dir_fd1e11fb0964f7346e999e146b0dfd59 -->
<g id="edge25" class="edge">
<title>dir_224c4a10832b4053571db2c932d86b0d&#45;&gt;dir_fd1e11fb0964f7346e999e146b0dfd59</title>
<path fill="none" stroke="black" d="M303.48,-449.58C224.67,-449.73 0.49,-438.6 0.49,-307 0.49,-307 0.49,-307 0.49,-161 0.49,-120.03 -5.17,-100.27 24.49,-72 53.18,-44.65 166.03,-29.21 226.96,-22.7"/>
<polygon fill="black" stroke="black" points="227.4,-26.18 236.98,-21.66 226.68,-19.21 227.4,-26.18"/>
<g id="a_edge25&#45;headlabel"><a xlink:href="dir_000016_000017.html" target="_top" xlink:title="73">
<text text-anchor="middle" x="224.12" y="-26.87" font-family="Helvetica,sans-Serif" font-size="10.00">73</text>
</a>
</g>
</g>
<!-- dir_b14b741173403ad069a896263b3f14b4&#45;&gt;dir_56d603006930d6f32ca38bb932b49787 -->
<g id="edge28" class="edge">
<title>dir_b14b741173403ad069a896263b3f14b4&#45;&gt;dir_56d603006930d6f32ca38bb932b49787</title>
<path fill="none" stroke="black" d="M375.25,-436.1C350.36,-424.28 315.03,-407.49 296.66,-398.49"/>
<polygon fill="black" stroke="black" points="298,-395.25 287.49,-393.92 294.88,-401.52 298,-395.25"/>
<g id="a_edge28&#45;headlabel"><a xlink:href="dir_000057_000011.html" target="_top" xlink:title="2">
<text text-anchor="middle" x="302.49" y="-391.81" font-family="Helvetica,sans-Serif" font-size="10.00">2</text>
</a>
</g>
</g>
<!-- dir_b14b741173403ad069a896263b3f14b4&#45;&gt;dir_0f865acc0217e49aeb49ab1c50c8f73a -->
<g id="edge26" class="edge">
<title>dir_b14b741173403ad069a896263b3f14b4&#45;&gt;dir_0f865acc0217e49aeb49ab1c50c8f73a</title>
<path fill="none" stroke="black" d="M385.17,-468.01C376.46,-477.69 366.68,-490.54 361.49,-504 353.87,-523.73 352.38,-547.71 352.66,-565.81"/>
<polygon fill="black" stroke="black" points="349.16,-566.09 353,-575.97 356.16,-565.85 349.16,-566.09"/>
<g id="a_edge26&#45;headlabel"><a xlink:href="dir_000057_000056.html" target="_top" xlink:title="3">
<text text-anchor="middle" x="346.2" y="-560.09" font-family="Helvetica,sans-Serif" font-size="10.00">3</text>
</a>
</g>
</g>
<!-- dir_b14b741173403ad069a896263b3f14b4&#45;&gt;dir_6b5446d9575188b5a170aae88d74d865 -->
<g id="edge30" class="edge">
<title>dir_b14b741173403ad069a896263b3f14b4&#45;&gt;dir_6b5446d9575188b5a170aae88d74d865</title>
<path fill="none" stroke="black" d="M408.38,-468.1C409.19,-475.79 409.42,-485.05 409.09,-493.67"/>
<polygon fill="black" stroke="black" points="405.6,-493.48 408.4,-503.7 412.58,-493.96 405.6,-493.48"/>
<g id="a_edge30&#45;headlabel"><a xlink:href="dir_000057_000055.html" target="_top" xlink:title="2">
<text text-anchor="middle" x="403.01" y="-487.2" font-family="Helvetica,sans-Serif" font-size="10.00">2</text>
</a>
</g>
</g>
<!-- dir_b14b741173403ad069a896263b3f14b4&#45;&gt;dir_3f96c34ad80e9031c68706862fabf1a4 -->
<g id="edge27" class="edge">
<title>dir_b14b741173403ad069a896263b3f14b4&#45;&gt;dir_3f96c34ad80e9031c68706862fabf1a4</title>
<path fill="none" stroke="black" d="M406.15,-431.85C411.79,-401.63 420.12,-337.43 401.49,-288 397.58,-277.63 390.64,-267.94 383.32,-259.76"/>
<polygon fill="black" stroke="black" points="385.72,-257.2 376.27,-252.4 380.66,-262.04 385.72,-257.2"/>
<g id="a_edge27&#45;headlabel"><a xlink:href="dir_000057_000007.html" target="_top" xlink:title="2">
<text text-anchor="middle" x="390.25" y="-255.33" font-family="Helvetica,sans-Serif" font-size="10.00">2</text>
</a>
</g>
</g>
<!-- dir_b14b741173403ad069a896263b3f14b4&#45;&gt;dir_5cbb9a0bf548abf0d2e32772c73d2ad6 -->
<g id="edge29" class="edge">
<title>dir_b14b741173403ad069a896263b3f14b4&#45;&gt;dir_5cbb9a0bf548abf0d2e32772c73d2ad6</title>
<path fill="none" stroke="black" d="M375.21,-435.43C372.29,-434.19 369.35,-433.02 366.49,-432 303.94,-409.71 271.07,-440.17 221.49,-396 162.57,-343.52 164.86,-239.6 169.81,-190.25"/>
<polygon fill="black" stroke="black" points="173.32,-190.36 170.95,-180.03 166.36,-189.58 173.32,-190.36"/>
<g id="a_edge29&#45;headlabel"><a xlink:href="dir_000057_000035.html" target="_top" xlink:title="1">
<text text-anchor="middle" x="175.74" y="-191.75" font-family="Helvetica,sans-Serif" font-size="10.00">1</text>
</a>
</g>
</g>
<!-- dir_b14b741173403ad069a896263b3f14b4&#45;&gt;dir_d3b86ce335ad818909ececff0fac1eca -->
<g id="edge31" class="edge">
<title>dir_b14b741173403ad069a896263b3f14b4&#45;&gt;dir_d3b86ce335ad818909ececff0fac1eca</title>
<path fill="none" stroke="black" d="M429.52,-433.98C446.75,-424.41 469.37,-411.84 488.64,-401.14"/>
<polygon fill="black" stroke="black" points="490.47,-404.13 497.51,-396.21 487.07,-398.01 490.47,-404.13"/>
<g id="a_edge31&#45;headlabel"><a xlink:href="dir_000057_000026.html" target="_top" xlink:title="5">
<text text-anchor="middle" x="488.7" y="-405.85" font-family="Helvetica,sans-Serif" font-size="10.00">5</text>
</a>
</g>
</g>
<!-- dir_b14b741173403ad069a896263b3f14b4&#45;&gt;dir_fd1e11fb0964f7346e999e146b0dfd59 -->
<g id="edge32" class="edge">
<title>dir_b14b741173403ad069a896263b3f14b4&#45;&gt;dir_fd1e11fb0964f7346e999e146b0dfd59</title>
<path fill="none" stroke="black" d="M375.26,-435.28C372.34,-434.07 369.38,-432.95 366.49,-432 286.89,-405.91 254.25,-437.5 181.49,-396 98.35,-348.58 38.49,-330.71 38.49,-235 38.49,-235 38.49,-235 38.49,-161 38.49,-73.36 161.38,-37.86 226.72,-25.19"/>
<polygon fill="black" stroke="black" points="227.48,-28.61 236.68,-23.35 226.21,-21.72 227.48,-28.61"/>
<g id="a_edge32&#45;headlabel"><a xlink:href="dir_000057_000017.html" target="_top" xlink:title="3">
<text text-anchor="middle" x="224.46" y="-29.55" font-family="Helvetica,sans-Serif" font-size="10.00">3</text>
</a>
</g>
</g>
<!-- dir_b1a5b7ba9091facbdf32a321b74a0f11&#45;&gt;dir_0f865acc0217e49aeb49ab1c50c8f73a -->
<g id="edge3" class="edge">
<title>dir_b1a5b7ba9091facbdf32a321b74a0f11&#45;&gt;dir_0f865acc0217e49aeb49ab1c50c8f73a</title>
<path fill="none" stroke="black" d="M392.74,-389.58C411.59,-397.93 434.31,-411.61 445.49,-432 468.55,-474.1 468.6,-498.49 444.49,-540 438.47,-550.36 414.69,-564.14 393.09,-575.06"/>
<polygon fill="black" stroke="black" points="391.43,-571.97 384.02,-579.54 394.53,-578.25 391.43,-571.97"/>
<g id="a_edge3&#45;headlabel"><a xlink:href="dir_000054_000056.html" target="_top" xlink:title="1">
<text text-anchor="middle" x="393.39" y="-565.33" font-family="Helvetica,sans-Serif" font-size="10.00">1</text>
</a>
</g>
</g>
<!-- dir_b1a5b7ba9091facbdf32a321b74a0f11&#45;&gt;dir_a0a785b8d726fb513b94381e63693443 -->
<g id="edge4" class="edge">
<title>dir_b1a5b7ba9091facbdf32a321b74a0f11&#45;&gt;dir_a0a785b8d726fb513b94381e63693443</title>
<path fill="none" stroke="black" d="M362.49,-359.7C362.49,-351.98 362.49,-342.71 362.49,-334.11"/>
<polygon fill="black" stroke="black" points="365.99,-334.1 362.49,-324.1 358.99,-334.1 365.99,-334.1"/>
<g id="a_edge4&#45;headlabel"><a xlink:href="dir_000054_000025.html" target="_top" xlink:title="2">
<text text-anchor="middle" x="368.83" y="-335.2" font-family="Helvetica,sans-Serif" font-size="10.00">2</text>
</a>
</g>
</g>
<!-- dir_3f96c34ad80e9031c68706862fabf1a4&#45;&gt;dir_5cbb9a0bf548abf0d2e32772c73d2ad6 -->
<g id="edge37" class="edge">
<title>dir_3f96c34ad80e9031c68706862fabf1a4&#45;&gt;dir_5cbb9a0bf548abf0d2e32772c73d2ad6</title>
<path fill="none" stroke="black" d="M322.95,-220.49C291.35,-208.33 243.45,-189.91 210.43,-177.21"/>
<polygon fill="black" stroke="black" points="211.29,-173.79 200.7,-173.47 208.78,-180.32 211.29,-173.79"/>
<g id="a_edge37&#45;headlabel"><a xlink:href="dir_000007_000035.html" target="_top" xlink:title="2">
<text text-anchor="middle" x="215.66" y="-169.93" font-family="Helvetica,sans-Serif" font-size="10.00">2</text>
</a>
</g>
</g>
<!-- dir_3f96c34ad80e9031c68706862fabf1a4&#45;&gt;dir_c541d4b187fc5f863b4735b323978e0f -->
<g id="edge38" class="edge">
<title>dir_3f96c34ad80e9031c68706862fabf1a4&#45;&gt;dir_c541d4b187fc5f863b4735b323978e0f</title>
<path fill="none" stroke="black" d="M352.95,-215.87C349.37,-191.67 342.8,-147.21 338.54,-118.39"/>
<polygon fill="black" stroke="black" points="341.95,-117.57 337.03,-108.19 335.03,-118.59 341.95,-117.57"/>
<g id="a_edge38&#45;headlabel"><a xlink:href="dir_000007_000013.html" target="_top" xlink:title="4">
<text text-anchor="middle" x="345.29" y="-118.21" font-family="Helvetica,sans-Serif" font-size="10.00">4</text>
</a>
</g>
</g>
<!-- dir_3f96c34ad80e9031c68706862fabf1a4&#45;&gt;dir_fd1e11fb0964f7346e999e146b0dfd59 -->
<g id="edge39" class="edge">
<title>dir_3f96c34ad80e9031c68706862fabf1a4&#45;&gt;dir_fd1e11fb0964f7346e999e146b0dfd59</title>
<path fill="none" stroke="black" d="M347.1,-215.81C335.56,-191.89 314.4,-147.1 298.49,-108 290.1,-87.4 281.64,-63.69 275.52,-45.93"/>
<polygon fill="black" stroke="black" points="278.75,-44.55 272.21,-36.22 272.12,-46.82 278.75,-44.55"/>
<g id="a_edge39&#45;headlabel"><a xlink:href="dir_000007_000017.html" target="_top" xlink:title="9">
<text text-anchor="middle" x="282.6" y="-44.54" font-family="Helvetica,sans-Serif" font-size="10.00">9</text>
</a>
</g>
</g>
<!-- dir_5cbb9a0bf548abf0d2e32772c73d2ad6&#45;&gt;dir_c541d4b187fc5f863b4735b323978e0f -->
<g id="edge35" class="edge">
<title>dir_5cbb9a0bf548abf0d2e32772c73d2ad6&#45;&gt;dir_c541d4b187fc5f863b4735b323978e0f</title>
<path fill="none" stroke="black" d="M200.8,-149.13C227.48,-137.53 268.27,-119.79 297.77,-106.96"/>
<polygon fill="black" stroke="black" points="299.54,-110.01 307.31,-102.82 296.74,-103.59 299.54,-110.01"/>
<g id="a_edge35&#45;headlabel"><a xlink:href="dir_000035_000013.html" target="_top" xlink:title="5">
<text text-anchor="middle" x="297.37" y="-111.55" font-family="Helvetica,sans-Serif" font-size="10.00">5</text>
</a>
</g>
</g>
<!-- dir_5cbb9a0bf548abf0d2e32772c73d2ad6&#45;&gt;dir_fd1e11fb0964f7346e999e146b0dfd59 -->
<g id="edge36" class="edge">
<title>dir_5cbb9a0bf548abf0d2e32772c73d2ad6&#45;&gt;dir_fd1e11fb0964f7346e999e146b0dfd59</title>
<path fill="none" stroke="black" d="M179.43,-143.68C186.27,-125.03 198.65,-94.97 214.49,-72 221.56,-61.74 230.71,-51.67 239.36,-43.11"/>
<polygon fill="black" stroke="black" points="241.96,-45.46 246.76,-36.01 237.12,-40.41 241.96,-45.46"/>
<g id="a_edge36&#45;headlabel"><a xlink:href="dir_000035_000017.html" target="_top" xlink:title="16">
<text text-anchor="middle" x="241.34" y="-47.5" font-family="Helvetica,sans-Serif" font-size="10.00">16</text>
</a>
</g>
</g>
<!-- dir_c541d4b187fc5f863b4735b323978e0f&#45;&gt;dir_fd1e11fb0964f7346e999e146b0dfd59 -->
<g id="edge2" class="edge">
<title>dir_c541d4b187fc5f863b4735b323978e0f&#45;&gt;dir_fd1e11fb0964f7346e999e146b0dfd59</title>
<path fill="none" stroke="black" d="M311.76,-71.7C302.65,-63.22 292.41,-52.86 283.89,-43.58"/>
<polygon fill="black" stroke="black" points="286.48,-41.23 277.21,-36.1 281.26,-45.89 286.48,-41.23"/>
<g id="a_edge2&#45;headlabel"><a xlink:href="dir_000013_000017.html" target="_top" xlink:title="6">
<text text-anchor="middle" x="290.99" y="-39.52" font-family="Helvetica,sans-Serif" font-size="10.00">6</text>
</a>
</g>
</g>
<!-- dir_d3b86ce335ad818909ececff0fac1eca&#45;&gt;dir_3f96c34ad80e9031c68706862fabf1a4 -->
<g id="edge5" class="edge">
<title>dir_d3b86ce335ad818909ececff0fac1eca&#45;&gt;dir_3f96c34ad80e9031c68706862fabf1a4</title>
<path fill="none" stroke="black" d="M521.38,-359.83C512.49,-340.19 495.6,-308.16 472.49,-288 450.92,-269.19 421.58,-255.92 397.67,-247.36"/>
<polygon fill="black" stroke="black" points="398.73,-244.03 388.14,-244.09 396.46,-250.65 398.73,-244.03"/>
<g id="a_edge5&#45;headlabel"><a xlink:href="dir_000026_000007.html" target="_top" xlink:title="5">
<text text-anchor="middle" x="403.05" y="-240.01" font-family="Helvetica,sans-Serif" font-size="10.00">5</text>
</a>
</g>
</g>
<!-- dir_d3b86ce335ad818909ececff0fac1eca&#45;&gt;dir_c541d4b187fc5f863b4735b323978e0f -->
<g id="edge7" class="edge">
<title>dir_d3b86ce335ad818909ececff0fac1eca&#45;&gt;dir_c541d4b187fc5f863b4735b323978e0f</title>
<path fill="none" stroke="black" d="M525.94,-359.77C518.88,-317.71 495.42,-208.55 434.49,-144 417.14,-125.62 391.98,-112.33 371.23,-103.66"/>
<polygon fill="black" stroke="black" points="372.34,-100.33 361.76,-99.88 369.75,-106.83 372.34,-100.33"/>
<g id="a_edge7&#45;headlabel"><a xlink:href="dir_000026_000013.html" target="_top" xlink:title="11">
<text text-anchor="middle" x="376.74" y="-96.52" font-family="Helvetica,sans-Serif" font-size="10.00">11</text>
</a>
</g>
</g>
<!-- dir_d3b86ce335ad818909ececff0fac1eca&#45;&gt;dir_fd1e11fb0964f7346e999e146b0dfd59 -->
<g id="edge8" class="edge">
<title>dir_d3b86ce335ad818909ececff0fac1eca&#45;&gt;dir_fd1e11fb0964f7346e999e146b0dfd59</title>
<path fill="none" stroke="black" d="M530.17,-359.8C531.54,-341.77 532.65,-312.68 528.49,-288 516.75,-218.39 507.75,-197.31 461.49,-144 417.63,-93.46 348.39,-55.81 305.3,-35.64"/>
<polygon fill="black" stroke="black" points="306.54,-32.36 295.99,-31.37 303.62,-38.72 306.54,-32.36"/>
<g id="a_edge8&#45;headlabel"><a xlink:href="dir_000026_000017.html" target="_top" xlink:title="6">
<text text-anchor="middle" x="310.99" y="-28.78" font-family="Helvetica,sans-Serif" font-size="10.00">6</text>
</a>
</g>
</g>
<!-- dir_d3b86ce335ad818909ececff0fac1eca&#45;&gt;dir_a0a785b8d726fb513b94381e63693443 -->
<g id="edge6" class="edge">
<title>dir_d3b86ce335ad818909ececff0fac1eca&#45;&gt;dir_a0a785b8d726fb513b94381e63693443</title>
<path fill="none" stroke="black" d="M506.9,-359.73C499.2,-354.16 490.26,-348.31 481.49,-344 456.34,-331.64 426.18,-322.32 402.52,-316.12"/>
<polygon fill="black" stroke="black" points="403.36,-312.73 392.81,-313.66 401.64,-319.51 403.36,-312.73"/>
<g id="a_edge6&#45;headlabel"><a xlink:href="dir_000026_000025.html" target="_top" xlink:title="14">
<text text-anchor="middle" x="407.55" y="-308.36" font-family="Helvetica,sans-Serif" font-size="10.00">14</text>
</a>
</g>
</g>
<!-- dir_fd1e11fb0964f7346e999e146b0dfd59&#45;&gt;dir_c541d4b187fc5f863b4735b323978e0f -->
<g id="edge1" class="edge">
<title>dir_fd1e11fb0964f7346e999e146b0dfd59&#45;&gt;dir_c541d4b187fc5f863b4735b323978e0f</title>
<path fill="none" stroke="black" d="M289,-36.1C298.09,-44.55 308.34,-54.9 316.88,-64.2"/>
<polygon fill="black" stroke="black" points="314.32,-66.58 323.59,-71.7 319.53,-61.91 314.32,-66.58"/>
<g id="a_edge1&#45;headlabel"><a xlink:href="dir_000017_000013.html" target="_top" xlink:title="2">
<text text-anchor="middle" x="309.8" y="-63.29" font-family="Helvetica,sans-Serif" font-size="10.00">2</text>
</a>
</g>
</g>
<!-- dir_a0a785b8d726fb513b94381e63693443&#45;&gt;dir_3f96c34ad80e9031c68706862fabf1a4 -->
<g id="edge40" class="edge">
<title>dir_a0a785b8d726fb513b94381e63693443&#45;&gt;dir_3f96c34ad80e9031c68706862fabf1a4</title>
<path fill="none" stroke="black" d="M360.76,-287.7C359.98,-279.98 359.06,-270.71 358.2,-262.11"/>
<polygon fill="black" stroke="black" points="361.67,-261.71 357.2,-252.1 354.71,-262.4 361.67,-261.71"/>
<g id="a_edge40&#45;headlabel"><a xlink:href="dir_000025_000007.html" target="_top" xlink:title="1">
<text text-anchor="middle" x="364.86" y="-262.5" font-family="Helvetica,sans-Serif" font-size="10.00">1</text>
</a>
</g>
</g>
</g>
</svg>
        <g id="navigator" transform="translate(0 0)" fill="#404254">
                <rect fill="#f2f5e9" fill-opacity="0.5" stroke="#606060" stroke-width=".5" x="0" y="0" width="60" height="60"/>
                <use id="zoomplus" xlink:href="#zoomPlus" x="17" y="9" onmousedown="handleZoom(evt,'in')"/>
                <use id="zoomminus" xlink:href="#zoomMin" x="42" y="9" onmousedown="handleZoom(evt,'out')"/>
                <use id="reset" xlink:href="#resetDef" x="30" y="36" onmousedown="handleReset()"/>
                <g id="arrowUp" xlink:href="#dirArrow" transform="translate(30 24)" onmousedown="handlePan(0,-1)">
                  <use xlink:href="#rim" fill="#404040">
                        <set attributeName="fill" to="#808080" begin="arrowUp.mouseover" end="arrowUp.mouseout"/>
                  </use>
                  <path fill="none" stroke="white" stroke-width="1.5" d="M0,-3.0v7 M-2.5,-0.5L0,-3.0L2.5,-0.5"/>
                </g>
                <g id="arrowRight" xlink:href="#dirArrow" transform="rotate(90) translate(36 -43)" onmousedown="handlePan(1,0)">
                  <use xlink:href="#rim" fill="#404040">
                        <set attributeName="fill" to="#808080" begin="arrowRight.mouseover" end="arrowRight.mouseout"/>
                  </use>
                  <path fill="none" stroke="white" stroke-width="1.5" d="M0,-3.0v7 M-2.5,-0.5L0,-3.0L2.5,-0.5"/>
                </g>
                <g id="arrowDown" xlink:href="#dirArrow" transform="rotate(180) translate(-30 -48)" onmousedown="handlePan(0,1)">
                  <use xlink:href="#rim" fill="#404040">
                        <set attributeName="fill" to="#808080" begin="arrowDown.mouseover" end="arrowDown.mouseout"/>
                  </use>
                  <path fill="none" stroke="white" stroke-width="1.5" d="M0,-3.0v7 M-2.5,-0.5L0,-3.0L2.5,-0.5"/>
                </g>
                <g id="arrowLeft" xlink:href="#dirArrow" transform="rotate(270) translate(-36 17)" onmousedown="handlePan(-1,0)">
                  <use xlink:href="#rim" fill="#404040">
                        <set attributeName="fill" to="#808080" begin="arrowLeft.mouseover" end="arrowLeft.mouseout"/>
                  </use>
                  <path fill="none" stroke="white" stroke-width="1.5" d="M0,-3.0v7 M-2.5,-0.5L0,-3.0L2.5,-0.5"/>
                </g>
        </g>
        <svg viewBox="0 0 15 15" width="100%" height="30px" preserveAspectRatio="xMaxYMin meet">
         <g id="arrow_out" transform="scale(0.3 0.3)">
          <a xlink:href="dir_8c25a664b4b6cfdfb5234e8b61efda61_dep_org.svg" target="_base">
           <rect id="button" ry="5" rx="5" y="6" x="6" height="38" width="38"
                fill="#f2f5e9" fill-opacity="0.5" stroke="#606060" stroke-width="1.0"/>
           <path id="arrow"
             d="M 11.500037,31.436501 C 11.940474,20.09759 22.043105,11.32322 32.158766,21.979434 L 37.068811,17.246167 C 37.068811,17.246167 37.088388,32 37.088388,32 L 22.160133,31.978069 C 22.160133,31.978069 26.997745,27.140456 26.997745,27.140456 C 18.528582,18.264221 13.291696,25.230495 11.500037,31.436501 z"
             style="fill:#404040;"/>
          </a>
         </g>
        </svg>
</svg>
