<?xml version="1.0" encoding="UTF-8" standalone="no"?>
<!DOCTYPE svg PUBLIC "-//W3C//DTD SVG 1.1//EN"
 "http://www.w3.org/Graphics/SVG/1.1/DTD/svg11.dtd">
<!-- Generated by graphviz version 2.43.0 (0)
 -->
<!-- Title: sbml Pages: 1 -->
<svg width="370pt" height="615pt"
 viewBox="0.00 0.00 370.00 615.00" xmlns="http://www.w3.org/2000/svg" xmlns:xlink="http://www.w3.org/1999/xlink">
<g id="graph0" class="graph" transform="scale(1 1) rotate(0) translate(4 611)">
<title>sbml</title>
<polygon fill="white" stroke="transparent" points="-4,4 -4,-611 366,-611 366,4 -4,4"/>
<g id="clust1" class="cluster">
<title>clusterdir_68267d1309a1af8e8297ef4c3efbcdba</title>
<g id="a_clust1"><a xlink:href="dir_68267d1309a1af8e8297ef4c3efbcdba.html" target="_top" xlink:title="src">
<polygon fill="#ddddee" stroke="black" points="8,-8 8,-599 354,-599 354,-8 8,-8"/>
<text text-anchor="middle" x="181" y="-587" font-family="Helvetica,sans-Serif" font-size="10.00">src</text>
</a>
</g>
</g>
<g id="clust2" class="cluster">
<title>clusterdir_a359a38bc464cff0ef8a57dc34360380</title>
<g id="a_clust2"><a xlink:href="dir_a359a38bc464cff0ef8a57dc34360380.html" target="_top">
<polygon fill="#eeeeff" stroke="black" points="16,-16 16,-572 346,-572 346,-16 16,-16"/>
</a>
</g>
</g>
<!-- dir_a359a38bc464cff0ef8a57dc34360380 -->
<g id="node1" class="node">
<title>dir_a359a38bc464cff0ef8a57dc34360380</title>
<text text-anchor="middle" x="51" y="-327.5" font-family="Helvetica,sans-Serif" font-size="10.00">sbml</text>
</g>
<!-- dir_909df41e089bc57b29bc62cc6d76d6dc -->
<g id="node2" class="node">
<title>dir_909df41e089bc57b29bc62cc6d76d6dc</title>
<g id="a_node2"><a xlink:href="dir_909df41e089bc57b29bc62cc6d76d6dc.html" target="_top" xlink:title="annotation">
<polygon fill="white" stroke="black" points="93.5,-276 24.5,-276 24.5,-240 93.5,-240 93.5,-276"/>
<text text-anchor="middle" x="59" y="-255.5" font-family="Helvetica,sans-Serif" font-size="10.00">annotation</text>
</a>
</g>
</g>
<!-- dir_a359a38bc464cff0ef8a57dc34360380&#45;&gt;dir_909df41e089bc57b29bc62cc6d76d6dc -->
<g id="edge23" class="edge">
<title>dir_a359a38bc464cff0ef8a57dc34360380&#45;&gt;dir_909df41e089bc57b29bc62cc6d76d6dc</title>
<path fill="none" stroke="black" d="M52.98,-311.7C53.86,-303.98 54.92,-294.71 55.9,-286.11"/>
<polygon fill="black" stroke="black" points="59.39,-286.44 57.05,-276.1 52.43,-285.64 59.39,-286.44"/>
<g id="a_edge23&#45;headlabel"><a xlink:href="dir_000001_000027.html" target="_top" xlink:title="12">
<text text-anchor="middle" x="61.8" y="-287.83" font-family="Helvetica,sans-Serif" font-size="10.00">12</text>
</a>
</g>
</g>
<!-- dir_fd1e11fb0964f7346e999e146b0dfd59 -->
<g id="node3" class="node">
<title>dir_fd1e11fb0964f7346e999e146b0dfd59</title>
<g id="a_node3"><a xlink:href="dir_fd1e11fb0964f7346e999e146b0dfd59.html" target="_top" xlink:title="common">
<polygon fill="white" stroke="black" points="270.5,-132 211.5,-132 211.5,-96 270.5,-96 270.5,-132"/>
<text text-anchor="middle" x="241" y="-111.5" font-family="Helvetica,sans-Serif" font-size="10.00">common</text>
</a>
</g>
</g>
<!-- dir_909df41e089bc57b29bc62cc6d76d6dc&#45;&gt;dir_fd1e11fb0964f7346e999e146b0dfd59 -->
<g id="edge10" class="edge">
<title>dir_909df41e089bc57b29bc62cc6d76d6dc&#45;&gt;dir_fd1e11fb0964f7346e999e146b0dfd59</title>
<path fill="none" stroke="black" d="M64.94,-239.65C72.54,-219.85 87.46,-187.67 110,-168 136.18,-145.16 173.48,-131.37 201.59,-123.61"/>
<polygon fill="black" stroke="black" points="202.7,-126.93 211.49,-121.01 200.93,-120.16 202.7,-126.93"/>
<g id="a_edge10&#45;headlabel"><a xlink:href="dir_000027_000017.html" target="_top" xlink:title="18">
<text text-anchor="middle" x="199.94" y="-128.09" font-family="Helvetica,sans-Serif" font-size="10.00">18</text>
</a>
</g>
</g>
<!-- dir_c541d4b187fc5f863b4735b323978e0f -->
<g id="node8" class="node">
<title>dir_c541d4b187fc5f863b4735b323978e0f</title>
<g id="a_node8"><a xlink:href="dir_c541d4b187fc5f863b4735b323978e0f.html" target="_top" xlink:title="util">
<polygon fill="white" stroke="black" points="268,-60 214,-60 214,-24 268,-24 268,-60"/>
<text text-anchor="middle" x="241" y="-39.5" font-family="Helvetica,sans-Serif" font-size="10.00">util</text>
</a>
</g>
</g>
<!-- dir_909df41e089bc57b29bc62cc6d76d6dc&#45;&gt;dir_c541d4b187fc5f863b4735b323978e0f -->
<g id="edge9" class="edge">
<title>dir_909df41e089bc57b29bc62cc6d76d6dc&#45;&gt;dir_c541d4b187fc5f863b4735b323978e0f</title>
<path fill="none" stroke="black" d="M59.42,-239.74C60.59,-220.88 64.62,-190.37 78,-168 108.04,-117.78 166.54,-80.58 204.68,-60.35"/>
<polygon fill="black" stroke="black" points="206.63,-63.28 213.9,-55.57 203.41,-57.06 206.63,-63.28"/>
<g id="a_edge9&#45;headlabel"><a xlink:href="dir_000027_000013.html" target="_top" xlink:title="7">
<text text-anchor="middle" x="204.74" y="-64.95" font-family="Helvetica,sans-Serif" font-size="10.00">7</text>
</a>
</g>
</g>
<!-- dir_5cbb9a0bf548abf0d2e32772c73d2ad6 -->
<g id="node10" class="node">
<title>dir_5cbb9a0bf548abf0d2e32772c73d2ad6</title>
<g id="a_node10"><a xlink:href="dir_5cbb9a0bf548abf0d2e32772c73d2ad6.html" target="_top" xlink:title="xml">
<polygon fill="white" stroke="black" points="173,-204 119,-204 119,-168 173,-168 173,-204"/>
<text text-anchor="middle" x="146" y="-183.5" font-family="Helvetica,sans-Serif" font-size="10.00">xml</text>
</a>
</g>
</g>
<!-- dir_909df41e089bc57b29bc62cc6d76d6dc&#45;&gt;dir_5cbb9a0bf548abf0d2e32772c73d2ad6 -->
<g id="edge8" class="edge">
<title>dir_909df41e089bc57b29bc62cc6d76d6dc&#45;&gt;dir_5cbb9a0bf548abf0d2e32772c73d2ad6</title>
<path fill="none" stroke="black" d="M80.51,-239.7C91.46,-230.88 104.95,-220.03 116.82,-210.47"/>
<polygon fill="black" stroke="black" points="119.14,-213.1 124.74,-204.1 114.76,-207.65 119.14,-213.1"/>
<g id="a_edge8&#45;headlabel"><a xlink:href="dir_000027_000035.html" target="_top" xlink:title="12">
<text text-anchor="middle" x="118.12" y="-215.07" font-family="Helvetica,sans-Serif" font-size="10.00">12</text>
</a>
</g>
</g>
<!-- dir_fd1e11fb0964f7346e999e146b0dfd59&#45;&gt;dir_c541d4b187fc5f863b4735b323978e0f -->
<g id="edge1" class="edge">
<title>dir_fd1e11fb0964f7346e999e146b0dfd59&#45;&gt;dir_c541d4b187fc5f863b4735b323978e0f</title>
<path fill="none" stroke="black" d="M235.08,-95.7C234.29,-87.98 234.06,-78.71 234.4,-70.11"/>
<polygon fill="black" stroke="black" points="237.9,-70.32 235.1,-60.1 230.92,-69.84 237.9,-70.32"/>
<g id="a_edge1&#45;headlabel"><a xlink:href="dir_000017_000013.html" target="_top" xlink:title="2">
<text text-anchor="middle" x="240.48" y="-71.61" font-family="Helvetica,sans-Serif" font-size="10.00">2</text>
</a>
</g>
</g>
<!-- dir_d3b86ce335ad818909ececff0fac1eca -->
<g id="node4" class="node">
<title>dir_d3b86ce335ad818909ececff0fac1eca</title>
<g id="a_node4"><a xlink:href="dir_d3b86ce335ad818909ececff0fac1eca.html" target="_top" xlink:title="conversion">
<polygon fill="white" stroke="black" points="278,-492 208,-492 208,-456 278,-456 278,-492"/>
<text text-anchor="middle" x="243" y="-471.5" font-family="Helvetica,sans-Serif" font-size="10.00">conversion</text>
</a>
</g>
</g>
<!-- dir_d3b86ce335ad818909ececff0fac1eca&#45;&gt;dir_fd1e11fb0964f7346e999e146b0dfd59 -->
<g id="edge7" class="edge">
<title>dir_d3b86ce335ad818909ececff0fac1eca&#45;&gt;dir_fd1e11fb0964f7346e999e146b0dfd59</title>
<path fill="none" stroke="black" d="M247.39,-455.76C253.24,-431.79 263.3,-386.94 267,-348 274.1,-273.32 257.5,-185.4 247.65,-142.02"/>
<polygon fill="black" stroke="black" points="251.04,-141.17 245.36,-132.23 244.23,-142.76 251.04,-141.17"/>
<g id="a_edge7&#45;headlabel"><a xlink:href="dir_000026_000017.html" target="_top" xlink:title="6">
<text text-anchor="middle" x="254.63" y="-141.53" font-family="Helvetica,sans-Serif" font-size="10.00">6</text>
</a>
</g>
</g>
<!-- dir_3f96c34ad80e9031c68706862fabf1a4 -->
<g id="node5" class="node">
<title>dir_3f96c34ad80e9031c68706862fabf1a4</title>
<g id="a_node5"><a xlink:href="dir_3f96c34ad80e9031c68706862fabf1a4.html" target="_top" xlink:title="extension">
<polygon fill="white" stroke="black" points="197.5,-276 132.5,-276 132.5,-240 197.5,-240 197.5,-276"/>
<text text-anchor="middle" x="165" y="-255.5" font-family="Helvetica,sans-Serif" font-size="10.00">extension</text>
</a>
</g>
</g>
<!-- dir_d3b86ce335ad818909ececff0fac1eca&#45;&gt;dir_3f96c34ad80e9031c68706862fabf1a4 -->
<g id="edge3" class="edge">
<title>dir_d3b86ce335ad818909ececff0fac1eca&#45;&gt;dir_3f96c34ad80e9031c68706862fabf1a4</title>
<path fill="none" stroke="black" d="M236.09,-455.69C226.56,-431.65 208.95,-386.71 195,-348 187.51,-327.23 179.55,-303.53 173.71,-285.81"/>
<polygon fill="black" stroke="black" points="176.98,-284.55 170.54,-276.13 170.33,-286.73 176.98,-284.55"/>
<g id="a_edge3&#45;headlabel"><a xlink:href="dir_000026_000007.html" target="_top" xlink:title="5">
<text text-anchor="middle" x="180.8" y="-284.58" font-family="Helvetica,sans-Serif" font-size="10.00">5</text>
</a>
</g>
</g>
<!-- dir_48ff6375d03f1aa509a6e0480f966544 -->
<g id="node6" class="node">
<title>dir_48ff6375d03f1aa509a6e0480f966544</title>
<g id="a_node6"><a xlink:href="dir_48ff6375d03f1aa509a6e0480f966544.html" target="_top" xlink:title="math">
<polygon fill="white" stroke="black" points="258,-348 204,-348 204,-312 258,-312 258,-348"/>
<text text-anchor="middle" x="231" y="-327.5" font-family="Helvetica,sans-Serif" font-size="10.00">math</text>
</a>
</g>
</g>
<!-- dir_d3b86ce335ad818909ececff0fac1eca&#45;&gt;dir_48ff6375d03f1aa509a6e0480f966544 -->
<g id="edge4" class="edge">
<title>dir_d3b86ce335ad818909ececff0fac1eca&#45;&gt;dir_48ff6375d03f1aa509a6e0480f966544</title>
<path fill="none" stroke="black" d="M243.79,-455.88C244.38,-437.92 244.7,-408.89 242,-384 241.07,-375.46 239.41,-366.26 237.65,-357.96"/>
<polygon fill="black" stroke="black" points="241.03,-357.04 235.41,-348.05 234.2,-358.58 241.03,-357.04"/>
<g id="a_edge4&#45;headlabel"><a xlink:href="dir_000026_000008.html" target="_top" xlink:title="12">
<text text-anchor="middle" x="244.59" y="-357.42" font-family="Helvetica,sans-Serif" font-size="10.00">12</text>
</a>
</g>
</g>
<!-- dir_d3b86ce335ad818909ececff0fac1eca&#45;&gt;dir_c541d4b187fc5f863b4735b323978e0f -->
<g id="edge6" class="edge">
<title>dir_d3b86ce335ad818909ececff0fac1eca&#45;&gt;dir_c541d4b187fc5f863b4735b323978e0f</title>
<path fill="none" stroke="black" d="M259.06,-455.69C280.82,-430.36 317,-380.76 317,-331 317,-331 317,-331 317,-185 317,-143.4 308.68,-132.1 288,-96 282.2,-85.87 274.23,-75.96 266.51,-67.51"/>
<polygon fill="black" stroke="black" points="268.98,-65.03 259.56,-60.19 263.91,-69.85 268.98,-65.03"/>
<g id="a_edge6&#45;headlabel"><a xlink:href="dir_000026_000013.html" target="_top" xlink:title="11">
<text text-anchor="middle" x="273.51" y="-63.18" font-family="Helvetica,sans-Serif" font-size="10.00">11</text>
</a>
</g>
</g>
<!-- dir_a0a785b8d726fb513b94381e63693443 -->
<g id="node9" class="node">
<title>dir_a0a785b8d726fb513b94381e63693443</title>
<g id="a_node9"><a xlink:href="dir_a0a785b8d726fb513b94381e63693443.html" target="_top" xlink:title="validator">
<polygon fill="white" stroke="black" points="198,-420 138,-420 138,-384 198,-384 198,-420"/>
<text text-anchor="middle" x="168" y="-399.5" font-family="Helvetica,sans-Serif" font-size="10.00">validator</text>
</a>
</g>
</g>
<!-- dir_d3b86ce335ad818909ececff0fac1eca&#45;&gt;dir_a0a785b8d726fb513b94381e63693443 -->
<g id="edge5" class="edge">
<title>dir_d3b86ce335ad818909ececff0fac1eca&#45;&gt;dir_a0a785b8d726fb513b94381e63693443</title>
<path fill="none" stroke="black" d="M224.46,-455.7C215.2,-447.05 203.84,-436.45 193.74,-427.03"/>
<polygon fill="black" stroke="black" points="196.02,-424.37 186.33,-420.1 191.25,-429.49 196.02,-424.37"/>
<g id="a_edge5&#45;headlabel"><a xlink:href="dir_000026_000025.html" target="_top" xlink:title="14">
<text text-anchor="middle" x="200.59" y="-422.25" font-family="Helvetica,sans-Serif" font-size="10.00">14</text>
</a>
</g>
</g>
<!-- dir_3f96c34ad80e9031c68706862fabf1a4&#45;&gt;dir_fd1e11fb0964f7346e999e146b0dfd59 -->
<g id="edge28" class="edge">
<title>dir_3f96c34ad80e9031c68706862fabf1a4&#45;&gt;dir_fd1e11fb0964f7346e999e146b0dfd59</title>
<path fill="none" stroke="black" d="M176.04,-239.55C182.39,-229.32 190.39,-216.07 197,-204 208.32,-183.34 220.1,-159.37 228.61,-141.51"/>
<polygon fill="black" stroke="black" points="231.87,-142.82 232.99,-132.28 225.54,-139.82 231.87,-142.82"/>
<g id="a_edge28&#45;headlabel"><a xlink:href="dir_000007_000017.html" target="_top" xlink:title="9">
<text text-anchor="middle" x="232.89" y="-144.78" font-family="Helvetica,sans-Serif" font-size="10.00">9</text>
</a>
</g>
</g>
<!-- dir_3f96c34ad80e9031c68706862fabf1a4&#45;&gt;dir_c541d4b187fc5f863b4735b323978e0f -->
<g id="edge27" class="edge">
<title>dir_3f96c34ad80e9031c68706862fabf1a4&#45;&gt;dir_c541d4b187fc5f863b4735b323978e0f</title>
<path fill="none" stroke="black" d="M171.03,-239.96C174.54,-229.64 178.88,-216.17 182,-204 194.16,-156.64 183.64,-140.9 203,-96 207.13,-86.43 213.2,-76.89 219.28,-68.6"/>
<polygon fill="black" stroke="black" points="222.22,-70.52 225.54,-60.46 216.67,-66.25 222.22,-70.52"/>
<g id="a_edge27&#45;headlabel"><a xlink:href="dir_000007_000013.html" target="_top" xlink:title="4">
<text text-anchor="middle" x="222.28" y="-72.6" font-family="Helvetica,sans-Serif" font-size="10.00">4</text>
</a>
</g>
</g>
<!-- dir_3f96c34ad80e9031c68706862fabf1a4&#45;&gt;dir_5cbb9a0bf548abf0d2e32772c73d2ad6 -->
<g id="edge26" class="edge">
<title>dir_3f96c34ad80e9031c68706862fabf1a4&#45;&gt;dir_5cbb9a0bf548abf0d2e32772c73d2ad6</title>
<path fill="none" stroke="black" d="M160.3,-239.7C158.19,-231.9 155.64,-222.51 153.28,-213.83"/>
<polygon fill="black" stroke="black" points="156.64,-212.84 150.64,-204.1 149.88,-214.67 156.64,-212.84"/>
<g id="a_edge26&#45;headlabel"><a xlink:href="dir_000007_000035.html" target="_top" xlink:title="2">
<text text-anchor="middle" x="160.32" y="-213.06" font-family="Helvetica,sans-Serif" font-size="10.00">2</text>
</a>
</g>
</g>
<!-- dir_48ff6375d03f1aa509a6e0480f966544&#45;&gt;dir_fd1e11fb0964f7346e999e146b0dfd59 -->
<g id="edge22" class="edge">
<title>dir_48ff6375d03f1aa509a6e0480f966544&#45;&gt;dir_fd1e11fb0964f7346e999e146b0dfd59</title>
<path fill="none" stroke="black" d="M231.8,-311.85C233.53,-274.83 237.63,-187.18 239.72,-142.39"/>
<polygon fill="black" stroke="black" points="243.22,-142.38 240.19,-132.23 236.23,-142.06 243.22,-142.38"/>
<g id="a_edge22&#45;headlabel"><a xlink:href="dir_000008_000017.html" target="_top" xlink:title="21">
<text text-anchor="middle" x="245.89" y="-143.61" font-family="Helvetica,sans-Serif" font-size="10.00">21</text>
</a>
</g>
</g>
<!-- dir_48ff6375d03f1aa509a6e0480f966544&#45;&gt;dir_3f96c34ad80e9031c68706862fabf1a4 -->
<g id="edge19" class="edge">
<title>dir_48ff6375d03f1aa509a6e0480f966544&#45;&gt;dir_3f96c34ad80e9031c68706862fabf1a4</title>
<path fill="none" stroke="black" d="M214.69,-311.7C206.69,-303.22 196.93,-292.86 188.18,-283.58"/>
<polygon fill="black" stroke="black" points="190.53,-280.98 181.13,-276.1 185.44,-285.78 190.53,-280.98"/>
<g id="a_edge19&#45;headlabel"><a xlink:href="dir_000008_000007.html" target="_top" xlink:title="6">
<text text-anchor="middle" x="195.07" y="-279.15" font-family="Helvetica,sans-Serif" font-size="10.00">6</text>
</a>
</g>
</g>
<!-- dir_48ff6375d03f1aa509a6e0480f966544&#45;&gt;dir_c541d4b187fc5f863b4735b323978e0f -->
<g id="edge21" class="edge">
<title>dir_48ff6375d03f1aa509a6e0480f966544&#45;&gt;dir_c541d4b187fc5f863b4735b323978e0f</title>
<path fill="none" stroke="black" d="M240.56,-312C261.15,-273.07 305.85,-174.74 280,-96 276.69,-85.91 270.63,-76.15 264.27,-67.82"/>
<polygon fill="black" stroke="black" points="266.92,-65.54 257.89,-60.01 261.5,-69.97 266.92,-65.54"/>
<g id="a_edge21&#45;headlabel"><a xlink:href="dir_000008_000013.html" target="_top" xlink:title="11">
<text text-anchor="middle" x="271.4" y="-64.03" font-family="Helvetica,sans-Serif" font-size="10.00">11</text>
</a>
</g>
</g>
<!-- dir_48ff6375d03f1aa509a6e0480f966544&#45;&gt;dir_5cbb9a0bf548abf0d2e32772c73d2ad6 -->
<g id="edge20" class="edge">
<title>dir_48ff6375d03f1aa509a6e0480f966544&#45;&gt;dir_5cbb9a0bf548abf0d2e32772c73d2ad6</title>
<path fill="none" stroke="black" d="M229.37,-311.74C226.93,-292.88 221.01,-262.38 207,-240 200.01,-228.83 189.94,-218.73 179.99,-210.41"/>
<polygon fill="black" stroke="black" points="182.1,-207.62 172.1,-204.13 177.75,-213.1 182.1,-207.62"/>
<g id="a_edge20&#45;headlabel"><a xlink:href="dir_000008_000035.html" target="_top" xlink:title="6">
<text text-anchor="middle" x="186.69" y="-205.13" font-family="Helvetica,sans-Serif" font-size="10.00">6</text>
</a>
</g>
</g>
<!-- dir_d29d847ea07fb74c2c88b7147de27d35 -->
<g id="node7" class="node">
<title>dir_d29d847ea07fb74c2c88b7147de27d35</title>
<g id="a_node7"><a xlink:href="dir_d29d847ea07fb74c2c88b7147de27d35.html" target="_top" xlink:title="packages">
<polygon fill="white" stroke="red" points="209,-564 147,-564 147,-528 209,-528 209,-564"/>
<text text-anchor="middle" x="178" y="-543.5" font-family="Helvetica,sans-Serif" font-size="10.00">packages</text>
</a>
</g>
</g>
<!-- dir_d29d847ea07fb74c2c88b7147de27d35&#45;&gt;dir_909df41e089bc57b29bc62cc6d76d6dc -->
<g id="edge17" class="edge">
<title>dir_d29d847ea07fb74c2c88b7147de27d35&#45;&gt;dir_909df41e089bc57b29bc62cc6d76d6dc</title>
<path fill="none" stroke="black" d="M146.82,-534C128.02,-525.6 105.55,-512.01 94,-492 53.98,-422.66 107.77,-389.32 87,-312 84.53,-302.8 80.24,-293.4 75.76,-285.12"/>
<polygon fill="black" stroke="black" points="78.72,-283.25 70.7,-276.32 72.65,-286.74 78.72,-283.25"/>
<g id="a_edge17&#45;headlabel"><a xlink:href="dir_000002_000027.html" target="_top" xlink:title="1">
<text text-anchor="middle" x="82.97" y="-282.45" font-family="Helvetica,sans-Serif" font-size="10.00">1</text>
</a>
</g>
</g>
<!-- dir_d29d847ea07fb74c2c88b7147de27d35&#45;&gt;dir_fd1e11fb0964f7346e999e146b0dfd59 -->
<g id="edge16" class="edge">
<title>dir_d29d847ea07fb74c2c88b7147de27d35&#45;&gt;dir_fd1e11fb0964f7346e999e146b0dfd59</title>
<path fill="none" stroke="black" d="M209.22,-538.52C234.5,-531.54 268.79,-517.78 287,-492 309.97,-459.49 297,-442.8 297,-403 297,-403 297,-403 297,-329 297,-259.43 268.96,-181.17 252.56,-141.34"/>
<polygon fill="black" stroke="black" points="255.77,-139.94 248.67,-132.08 249.32,-142.65 255.77,-139.94"/>
<g id="a_edge16&#45;headlabel"><a xlink:href="dir_000002_000017.html" target="_top" xlink:title="401">
<text text-anchor="middle" x="259.78" y="-139.66" font-family="Helvetica,sans-Serif" font-size="10.00">401</text>
</a>
</g>
</g>
<!-- dir_d29d847ea07fb74c2c88b7147de27d35&#45;&gt;dir_d3b86ce335ad818909ececff0fac1eca -->
<g id="edge15" class="edge">
<title>dir_d29d847ea07fb74c2c88b7147de27d35&#45;&gt;dir_d3b86ce335ad818909ececff0fac1eca</title>
<path fill="none" stroke="black" d="M194.07,-527.7C201.94,-519.22 211.56,-508.86 220.17,-499.58"/>
<polygon fill="black" stroke="black" points="222.88,-501.81 227.12,-492.1 217.75,-497.05 222.88,-501.81"/>
<g id="a_edge15&#45;headlabel"><a xlink:href="dir_000002_000026.html" target="_top" xlink:title="35">
<text text-anchor="middle" x="222.51" y="-503.88" font-family="Helvetica,sans-Serif" font-size="10.00">35</text>
</a>
</g>
</g>
<!-- dir_d29d847ea07fb74c2c88b7147de27d35&#45;&gt;dir_3f96c34ad80e9031c68706862fabf1a4 -->
<g id="edge11" class="edge">
<title>dir_d29d847ea07fb74c2c88b7147de27d35&#45;&gt;dir_3f96c34ad80e9031c68706862fabf1a4</title>
<path fill="none" stroke="black" d="M168.87,-527.82C156.92,-504.28 136.62,-460.31 129,-420 120.02,-372.51 138.52,-317.68 152.17,-285.81"/>
<polygon fill="black" stroke="black" points="155.53,-286.87 156.4,-276.31 149.14,-284.03 155.53,-286.87"/>
<g id="a_edge11&#45;headlabel"><a xlink:href="dir_000002_000007.html" target="_top" xlink:title="113">
<text text-anchor="middle" x="156.67" y="-288.81" font-family="Helvetica,sans-Serif" font-size="10.00">113</text>
</a>
</g>
</g>
<!-- dir_d29d847ea07fb74c2c88b7147de27d35&#45;&gt;dir_48ff6375d03f1aa509a6e0480f966544 -->
<g id="edge12" class="edge">
<title>dir_d29d847ea07fb74c2c88b7147de27d35&#45;&gt;dir_48ff6375d03f1aa509a6e0480f966544</title>
<path fill="none" stroke="black" d="M181.93,-527.92C186.08,-509.98 192.86,-480.97 199,-456 207.29,-422.31 217.26,-383.63 223.84,-358.33"/>
<polygon fill="black" stroke="black" points="227.31,-358.92 226.44,-348.36 220.53,-357.16 227.31,-358.92"/>
<g id="a_edge12&#45;headlabel"><a xlink:href="dir_000002_000008.html" target="_top" xlink:title="15">
<text text-anchor="middle" x="229.15" y="-360.62" font-family="Helvetica,sans-Serif" font-size="10.00">15</text>
</a>
</g>
</g>
<!-- dir_d29d847ea07fb74c2c88b7147de27d35&#45;&gt;dir_c541d4b187fc5f863b4735b323978e0f -->
<g id="edge14" class="edge">
<title>dir_d29d847ea07fb74c2c88b7147de27d35&#45;&gt;dir_c541d4b187fc5f863b4735b323978e0f</title>
<path fill="none" stroke="black" d="M209.22,-538C235.84,-530.6 273.56,-516.51 298,-492 328.49,-461.42 337,-446.19 337,-403 337,-403 337,-403 337,-185 337,-142.5 326.53,-130.71 302,-96 294.27,-85.06 283.82,-74.91 273.76,-66.48"/>
<polygon fill="black" stroke="black" points="275.81,-63.64 265.83,-60.1 271.43,-69.1 275.81,-63.64"/>
<g id="a_edge14&#45;headlabel"><a xlink:href="dir_000002_000013.html" target="_top" xlink:title="87">
<text text-anchor="middle" x="280.4" y="-61.18" font-family="Helvetica,sans-Serif" font-size="10.00">87</text>
</a>
</g>
</g>
<!-- dir_d29d847ea07fb74c2c88b7147de27d35&#45;&gt;dir_a0a785b8d726fb513b94381e63693443 -->
<g id="edge18" class="edge">
<title>dir_d29d847ea07fb74c2c88b7147de27d35&#45;&gt;dir_a0a785b8d726fb513b94381e63693443</title>
<path fill="none" stroke="black" d="M176.79,-527.87C175.09,-503.67 171.96,-459.21 169.93,-430.39"/>
<polygon fill="black" stroke="black" points="173.4,-429.92 169.21,-420.19 166.42,-430.41 173.4,-429.92"/>
<g id="a_edge18&#45;headlabel"><a xlink:href="dir_000002_000025.html" target="_top" xlink:title="20">
<text text-anchor="middle" x="176.49" y="-430.8" font-family="Helvetica,sans-Serif" font-size="10.00">20</text>
</a>
</g>
</g>
<!-- dir_d29d847ea07fb74c2c88b7147de27d35&#45;&gt;dir_5cbb9a0bf548abf0d2e32772c73d2ad6 -->
<g id="edge13" class="edge">
<title>dir_d29d847ea07fb74c2c88b7147de27d35&#45;&gt;dir_5cbb9a0bf548abf0d2e32772c73d2ad6</title>
<path fill="none" stroke="black" d="M159.44,-527.54C150.35,-517.93 140.07,-505.27 134,-492 120.51,-462.5 124.68,-452.33 122,-420 118.25,-374.66 111.88,-298.69 124,-240 125.85,-231.02 129.22,-221.65 132.76,-213.33"/>
<polygon fill="black" stroke="black" points="135.99,-214.69 136.93,-204.13 129.62,-211.8 135.99,-214.69"/>
<g id="a_edge13&#45;headlabel"><a xlink:href="dir_000002_000035.html" target="_top" xlink:title="247">
<text text-anchor="middle" x="137.1" y="-216.63" font-family="Helvetica,sans-Serif" font-size="10.00">247</text>
</a>
</g>
</g>
<!-- dir_c541d4b187fc5f863b4735b323978e0f&#45;&gt;dir_fd1e11fb0964f7346e999e146b0dfd59 -->
<g id="edge2" class="edge">
<title>dir_c541d4b187fc5f863b4735b323978e0f&#45;&gt;dir_fd1e11fb0964f7346e999e146b0dfd59</title>
<path fill="none" stroke="black" d="M246.9,-60.1C247.7,-67.79 247.94,-77.05 247.6,-85.67"/>
<polygon fill="black" stroke="black" points="244.11,-85.48 246.92,-95.7 251.09,-85.96 244.11,-85.48"/>
<g id="a_edge2&#45;headlabel"><a xlink:href="dir_000013_000017.html" target="_top" xlink:title="6">
<text text-anchor="middle" x="241.52" y="-79.2" font-family="Helvetica,sans-Serif" font-size="10.00">6</text>
</a>
</g>
</g>
<!-- dir_a0a785b8d726fb513b94381e63693443&#45;&gt;dir_3f96c34ad80e9031c68706862fabf1a4 -->
<g id="edge29" class="edge">
<title>dir_a0a785b8d726fb513b94381e63693443&#45;&gt;dir_3f96c34ad80e9031c68706862fabf1a4</title>
<path fill="none" stroke="black" d="M167.64,-383.87C167.13,-359.67 166.19,-315.21 165.58,-286.39"/>
<polygon fill="black" stroke="black" points="169.07,-286.11 165.36,-276.19 162.08,-286.26 169.07,-286.11"/>
<g id="a_edge29&#45;headlabel"><a xlink:href="dir_000025_000007.html" target="_top" xlink:title="1">
<text text-anchor="middle" x="171.99" y="-287.15" font-family="Helvetica,sans-Serif" font-size="10.00">1</text>
</a>
</g>
</g>
<!-- dir_a0a785b8d726fb513b94381e63693443&#45;&gt;dir_48ff6375d03f1aa509a6e0480f966544 -->
<g id="edge30" class="edge">
<title>dir_a0a785b8d726fb513b94381e63693443&#45;&gt;dir_48ff6375d03f1aa509a6e0480f966544</title>
<path fill="none" stroke="black" d="M183.57,-383.7C191.2,-375.22 200.52,-364.86 208.88,-355.58"/>
<polygon fill="black" stroke="black" points="211.52,-357.88 215.61,-348.1 206.31,-353.2 211.52,-357.88"/>
<g id="a_edge30&#45;headlabel"><a xlink:href="dir_000025_000008.html" target="_top" xlink:title="1">
<text text-anchor="middle" x="211.22" y="-359.95" font-family="Helvetica,sans-Serif" font-size="10.00">1</text>
</a>
</g>
</g>
<!-- dir_5cbb9a0bf548abf0d2e32772c73d2ad6&#45;&gt;dir_fd1e11fb0964f7346e999e146b0dfd59 -->
<g id="edge25" class="edge">
<title>dir_5cbb9a0bf548abf0d2e32772c73d2ad6&#45;&gt;dir_fd1e11fb0964f7346e999e146b0dfd59</title>
<path fill="none" stroke="black" d="M169.48,-167.7C181.56,-158.8 196.45,-147.82 209.52,-138.2"/>
<polygon fill="black" stroke="black" points="211.81,-140.85 217.79,-132.1 207.66,-135.22 211.81,-140.85"/>
<g id="a_edge25&#45;headlabel"><a xlink:href="dir_000035_000017.html" target="_top" xlink:title="16">
<text text-anchor="middle" x="210.6" y="-142.77" font-family="Helvetica,sans-Serif" font-size="10.00">16</text>
</a>
</g>
</g>
<!-- dir_5cbb9a0bf548abf0d2e32772c73d2ad6&#45;&gt;dir_c541d4b187fc5f863b4735b323978e0f -->
<g id="edge24" class="edge">
<title>dir_5cbb9a0bf548abf0d2e32772c73d2ad6&#45;&gt;dir_c541d4b187fc5f863b4735b323978e0f</title>
<path fill="none" stroke="black" d="M151.74,-167.96C158.48,-149.29 170.85,-118.96 187,-96 194.32,-85.59 203.84,-75.47 212.83,-66.91"/>
<polygon fill="black" stroke="black" points="215.23,-69.47 220.21,-60.12 210.49,-64.32 215.23,-69.47"/>
<g id="a_edge24&#45;headlabel"><a xlink:href="dir_000035_000013.html" target="_top" xlink:title="5">
<text text-anchor="middle" x="214.51" y="-71.49" font-family="Helvetica,sans-Serif" font-size="10.00">5</text>
</a>
</g>
</g>
</g>
</svg>
