<?xml version="1.0" encoding="UTF-8" standalone="no"?>
<!DOCTYPE svg PUBLIC "-//W3C//DTD SVG 1.1//EN"
 "http://www.w3.org/Graphics/SVG/1.1/DTD/svg11.dtd">
<!-- Generated by graphviz version 2.43.0 (0)
 -->
<!-- Title: distribfwd.h Pages: 1 -->
<!--zoomable 532 -->
<svg id="main" version="1.1" xmlns="http://www.w3.org/2000/svg" xmlns:xlink="http://www.w3.org/1999/xlink" xml:space="preserve" onload="init(evt)">
<style type="text/css"><![CDATA[
.edge:hover path { stroke: red; }
.edge:hover polygon { stroke: red; fill: red; }
]]></style>
<script type="text/javascript"><![CDATA[
var edges = document.getElementsByTagName('g');
if (edges && edges.length) {
  for (var i=0;i<edges.length;i++) {
    if (edges[i].id.substr(0,4)=='edge') {
      edges[i].setAttribute('class','edge');
    }
  }
}
]]></script>
        <defs>
                <circle id="rim" cx="0" cy="0" r="7"/>
                <circle id="rim2" cx="0" cy="0" r="3.5"/>
                <g id="zoomPlus">
                        <use xlink:href="#rim" fill="#404040">
                                <set attributeName="fill" to="#808080" begin="zoomplus.mouseover" end="zoomplus.mouseout"/>
                        </use>
                        <path d="M-4,0h8M0,-4v8" fill="none" stroke="white" stroke-width="1.5" pointer-events="none"/>
                </g>
                <g id="zoomMin">
                        <use xlink:href="#rim" fill="#404040">
                                <set attributeName="fill" to="#808080" begin="zoomminus.mouseover" end="zoomminus.mouseout"/>
                        </use>
                        <path d="M-4,0h8" fill="none" stroke="white" stroke-width="1.5" pointer-events="none"/>
                </g>
                <g id="dirArrow">
                        <path fill="none" stroke="white" stroke-width="1.5" d="M0,-3.0v7 M-2.5,-0.5L0,-3.0L2.5,-0.5"/>
                </g>
               <g id="resetDef">
                       <use xlink:href="#rim2" fill="#404040">
                               <set attributeName="fill" to="#808080" begin="reset.mouseover" end="reset.mouseout"/>
                       </use>
               </g>
        </defs>

<script type="text/javascript">
var viewWidth = 769;
var viewHeight = 532;
var sectionId = 'dynsection-0';
</script>
<script xlink:href="svgpan.js"/>
<svg id="graph" class="graph">
<g id="viewport">
<title>distribfwd.h</title>
<polygon fill="white" stroke="transparent" points="-4,4 -4,-528 764.5,-528 764.5,4 -4,4"/>
<!-- Node1 -->
<g id="node1" class="node">
<title>Node1</title>
<g id="a_node1"><a xlink:title="Definition of distribfwd.">
<polygon fill="#bfbfbf" stroke="black" points="298,-504.5 298,-523.5 372,-523.5 372,-504.5 298,-504.5"/>
<text text-anchor="middle" x="335" y="-511.5" font-family="Helvetica,sans-Serif" font-size="10.00">distribfwd.h</text>
</a>
</g>
</g>
<!-- Node2 -->
<g id="node2" class="node">
<title>Node2</title>
<g id="a_node2"><a xlink:href="_distrib_extension_types_8h.html" target="_top" xlink:title="Definition of DistribExtensionTypes.">
<polygon fill="white" stroke="black" points="66,-56.5 66,-75.5 200,-75.5 200,-56.5 66,-56.5"/>
<text text-anchor="middle" x="133" y="-63.5" font-family="Helvetica,sans-Serif" font-size="10.00">DistribExtensionTypes.h</text>
</a>
</g>
</g>
<!-- Node1&#45;&gt;Node2 -->
<g id="edge1" class="edge">
<title>Node1&#45;&gt;Node2</title>
<path fill="none" stroke="midnightblue" d="M287.95,-507.53C195.7,-495.49 0,-462.89 0,-403 0,-403 0,-403 0,-177 0,-122.46 67.22,-89.87 106.09,-75.59"/>
<polygon fill="midnightblue" stroke="midnightblue" points="287.51,-511 297.87,-508.8 288.39,-504.06 287.51,-511"/>
</g>
<!-- Node4 -->
<g id="node4" class="node">
<title>Node4</title>
<g id="a_node4"><a xlink:href="_distrib_base_8h.html" target="_top" xlink:title="Definition of the DistribBase class.">
<polygon fill="white" stroke="black" points="130,-448.5 130,-467.5 212,-467.5 212,-448.5 130,-448.5"/>
<text text-anchor="middle" x="171" y="-455.5" font-family="Helvetica,sans-Serif" font-size="10.00">DistribBase.h</text>
</a>
</g>
</g>
<!-- Node1&#45;&gt;Node4 -->
<g id="edge3" class="edge">
<title>Node1&#45;&gt;Node4</title>
<path fill="none" stroke="midnightblue" d="M299.48,-501.3C268.58,-491.13 224.53,-476.62 196.86,-467.52"/>
<polygon fill="midnightblue" stroke="midnightblue" points="298.42,-504.64 309.01,-504.44 300.61,-497.99 298.42,-504.64"/>
</g>
<!-- Node6 -->
<g id="node6" class="node">
<title>Node6</title>
<g id="a_node6"><a xlink:href="_uncertainty_8h.html" target="_top" xlink:title="Definition of the Uncertainty class.">
<polygon fill="white" stroke="black" points="488.5,-224.5 488.5,-243.5 569.5,-243.5 569.5,-224.5 488.5,-224.5"/>
<text text-anchor="middle" x="529" y="-231.5" font-family="Helvetica,sans-Serif" font-size="10.00">Uncertainty.h</text>
</a>
</g>
</g>
<!-- Node1&#45;&gt;Node6 -->
<g id="edge31" class="edge">
<title>Node1&#45;&gt;Node6</title>
<path fill="none" stroke="midnightblue" d="M382.26,-508.13C442.24,-499.04 538,-473.48 538,-403 538,-403 538,-403 538,-345 538,-307.06 532.62,-262.01 530.18,-243.54"/>
<polygon fill="midnightblue" stroke="midnightblue" points="381.64,-504.68 372.23,-509.55 382.63,-511.61 381.64,-504.68"/>
</g>
<!-- Node10 -->
<g id="node10" class="node">
<title>Node10</title>
<g id="a_node10"><a xlink:href="_list_of_uncertainties_8h.html" target="_top" xlink:title="Definition of the ListOfUncertainties class.">
<polygon fill="white" stroke="black" points="538.5,-168.5 538.5,-187.5 657.5,-187.5 657.5,-168.5 538.5,-168.5"/>
<text text-anchor="middle" x="598" y="-175.5" font-family="Helvetica,sans-Serif" font-size="10.00">ListOfUncertainties.h</text>
</a>
</g>
</g>
<!-- Node1&#45;&gt;Node10 -->
<g id="edge29" class="edge">
<title>Node1&#45;&gt;Node10</title>
<path fill="none" stroke="midnightblue" d="M382.36,-513.5C458.09,-511.54 598,-495.41 598,-403 598,-403 598,-403 598,-289 598,-251.19 598,-206.06 598,-187.56"/>
<polygon fill="midnightblue" stroke="midnightblue" points="382.06,-510 372.12,-513.69 382.19,-517 382.06,-510"/>
</g>
<!-- Node13 -->
<g id="node13" class="node">
<title>Node13</title>
<g id="a_node13"><a xlink:href="_uncert_parameter_8h.html" target="_top" xlink:title="Definition of the UncertParameter class.">
<polygon fill="white" stroke="black" points="199.5,-392.5 199.5,-411.5 306.5,-411.5 306.5,-392.5 199.5,-392.5"/>
<text text-anchor="middle" x="253" y="-399.5" font-family="Helvetica,sans-Serif" font-size="10.00">UncertParameter.h</text>
</a>
</g>
</g>
<!-- Node1&#45;&gt;Node13 -->
<g id="edge32" class="edge">
<title>Node1&#45;&gt;Node13</title>
<path fill="none" stroke="midnightblue" d="M322.53,-496.27C304.8,-472.49 272.97,-429.79 259.4,-411.59"/>
<polygon fill="midnightblue" stroke="midnightblue" points="319.78,-498.44 328.57,-504.37 325.4,-494.26 319.78,-498.44"/>
</g>
<!-- Node14 -->
<g id="node14" class="node">
<title>Node14</title>
<g id="a_node14"><a xlink:href="_list_of_uncert_parameters_8h.html" target="_top" xlink:title="Definition of the ListOfUncertParameters class.">
<polygon fill="white" stroke="black" points="368,-280.5 368,-299.5 510,-299.5 510,-280.5 368,-280.5"/>
<text text-anchor="middle" x="439" y="-287.5" font-family="Helvetica,sans-Serif" font-size="10.00">ListOfUncertParameters.h</text>
</a>
</g>
</g>
<!-- Node1&#45;&gt;Node14 -->
<g id="edge30" class="edge">
<title>Node1&#45;&gt;Node14</title>
<path fill="none" stroke="midnightblue" d="M343.36,-495.16C364.46,-450.12 419.29,-333.06 434.84,-299.88"/>
<polygon fill="midnightblue" stroke="midnightblue" points="340.15,-493.76 339.08,-504.3 346.49,-496.73 340.15,-493.76"/>
</g>
<!-- Node17 -->
<g id="node17" class="node">
<title>Node17</title>
<g id="a_node17"><a xlink:href="_uncert_span_8h.html" target="_top" xlink:title="Definition of the UncertSpan class.">
<polygon fill="white" stroke="black" points="262,-336.5 262,-355.5 344,-355.5 344,-336.5 262,-336.5"/>
<text text-anchor="middle" x="303" y="-343.5" font-family="Helvetica,sans-Serif" font-size="10.00">UncertSpan.h</text>
</a>
</g>
</g>
<!-- Node1&#45;&gt;Node17 -->
<g id="edge33" class="edge">
<title>Node1&#45;&gt;Node17</title>
<path fill="none" stroke="midnightblue" d="M332.49,-494.34C329.14,-470.48 322.75,-427.95 315,-392 312.24,-379.2 308.17,-364.58 305.55,-355.57"/>
<polygon fill="midnightblue" stroke="midnightblue" points="329.05,-495.01 333.88,-504.44 335.98,-494.05 329.05,-495.01"/>
</g>
<!-- Node3 -->
<g id="node3" class="node">
<title>Node3</title>
<g id="a_node3"><a xlink:href="_distrib_validator_8cpp.html" target="_top" xlink:title="Definition of DistribValidator.">
<polygon fill="white" stroke="black" points="77,-0.5 77,-19.5 189,-19.5 189,-0.5 77,-0.5"/>
<text text-anchor="middle" x="133" y="-7.5" font-family="Helvetica,sans-Serif" font-size="10.00">DistribValidator.cpp</text>
</a>
</g>
</g>
<!-- Node2&#45;&gt;Node3 -->
<g id="edge2" class="edge">
<title>Node2&#45;&gt;Node3</title>
<path fill="none" stroke="midnightblue" d="M133,-45.8C133,-36.91 133,-26.78 133,-19.75"/>
<polygon fill="midnightblue" stroke="midnightblue" points="129.5,-46.08 133,-56.08 136.5,-46.08 129.5,-46.08"/>
</g>
<!-- Node4&#45;&gt;Node2 -->
<g id="edge4" class="edge">
<title>Node4&#45;&gt;Node2</title>
<path fill="none" stroke="midnightblue" d="M134.5,-444.73C95.13,-428.9 38,-397.27 38,-347 38,-347 38,-347 38,-177 38,-129.06 90.33,-91.69 117.31,-75.6"/>
<polygon fill="midnightblue" stroke="midnightblue" points="133.5,-448.09 144.09,-448.41 136.01,-441.55 133.5,-448.09"/>
</g>
<!-- Node5 -->
<g id="node5" class="node">
<title>Node5</title>
<g id="a_node5"><a xlink:href="_distrib_base_8cpp.html" target="_top" xlink:title="Implementation of the DistribBase class.">
<polygon fill="white" stroke="black" points="204.5,-168.5 204.5,-187.5 297.5,-187.5 297.5,-168.5 204.5,-168.5"/>
<text text-anchor="middle" x="251" y="-175.5" font-family="Helvetica,sans-Serif" font-size="10.00">DistribBase.cpp</text>
</a>
</g>
</g>
<!-- Node4&#45;&gt;Node5 -->
<g id="edge5" class="edge">
<title>Node4&#45;&gt;Node5</title>
<path fill="none" stroke="midnightblue" d="M146.75,-443.09C118.61,-424.91 76,-390.26 76,-347 76,-347 76,-347 76,-289 76,-228.35 152.27,-199.84 204.1,-187.47"/>
<polygon fill="midnightblue" stroke="midnightblue" points="144.97,-446.1 155.31,-448.4 148.66,-440.15 144.97,-446.1"/>
</g>
<!-- Node4&#45;&gt;Node6 -->
<g id="edge6" class="edge">
<title>Node4&#45;&gt;Node6</title>
<path fill="none" stroke="midnightblue" d="M172.9,-438.1C177.75,-400.85 194.22,-318.24 247,-280 331.5,-218.78 376.09,-261.24 479,-244 482.04,-243.49 485.19,-242.95 488.36,-242.4"/>
<polygon fill="midnightblue" stroke="midnightblue" points="169.37,-438.16 171.7,-448.49 176.33,-438.96 169.37,-438.16"/>
</g>
<!-- Node4&#45;&gt;Node13 -->
<g id="edge18" class="edge">
<title>Node4&#45;&gt;Node13</title>
<path fill="none" stroke="midnightblue" d="M192.83,-442.62C207.81,-432.76 227.2,-419.99 239.86,-411.65"/>
<polygon fill="midnightblue" stroke="midnightblue" points="190.6,-439.9 184.17,-448.32 194.45,-445.75 190.6,-439.9"/>
</g>
<!-- Node6&#45;&gt;Node2 -->
<g id="edge7" class="edge">
<title>Node6&#45;&gt;Node2</title>
<path fill="none" stroke="midnightblue" d="M498.95,-220.41C421.93,-188.12 218.91,-103.01 153.57,-75.62"/>
<polygon fill="midnightblue" stroke="midnightblue" points="497.97,-223.79 508.54,-224.42 500.67,-217.33 497.97,-223.79"/>
</g>
<!-- Node6&#45;&gt;Node5 -->
<g id="edge12" class="edge">
<title>Node6&#45;&gt;Node5</title>
<path fill="none" stroke="midnightblue" d="M478.19,-223.13C425.77,-212.95 344.84,-197.23 295.05,-187.56"/>
<polygon fill="midnightblue" stroke="midnightblue" points="477.79,-226.62 488.28,-225.09 479.13,-219.75 477.79,-226.62"/>
</g>
<!-- Node7 -->
<g id="node7" class="node">
<title>Node7</title>
<g id="a_node7"><a xlink:href="_distrib_s_base_plugin_8h.html" target="_top" xlink:title="Definition of the DistribSBasePlugin class.">
<polygon fill="white" stroke="black" points="493,-112.5 493,-131.5 611,-131.5 611,-112.5 493,-112.5"/>
<text text-anchor="middle" x="552" y="-119.5" font-family="Helvetica,sans-Serif" font-size="10.00">DistribSBasePlugin.h</text>
</a>
</g>
</g>
<!-- Node6&#45;&gt;Node7 -->
<g id="edge8" class="edge">
<title>Node6&#45;&gt;Node7</title>
<path fill="none" stroke="midnightblue" d="M527.15,-214.3C526.37,-201.16 526.34,-183.28 530,-168 533.24,-154.47 541.02,-140.27 546.41,-131.53"/>
<polygon fill="midnightblue" stroke="midnightblue" points="523.67,-214.75 527.96,-224.44 530.65,-214.19 523.67,-214.75"/>
</g>
<!-- Node6&#45;&gt;Node10 -->
<g id="edge13" class="edge">
<title>Node6&#45;&gt;Node10</title>
<path fill="none" stroke="midnightblue" d="M548.04,-218.1C560.46,-208.38 576.24,-196.03 586.71,-187.83"/>
<polygon fill="midnightblue" stroke="midnightblue" points="545.8,-215.4 540.09,-224.32 550.12,-220.92 545.8,-215.4"/>
</g>
<!-- Node12 -->
<g id="node12" class="node">
<title>Node12</title>
<g id="a_node12"><a xlink:href="_uncertainty_8cpp.html" target="_top" xlink:title="Implementation of the Uncertainty class.">
<polygon fill="white" stroke="black" points="383,-112.5 383,-131.5 475,-131.5 475,-112.5 383,-112.5"/>
<text text-anchor="middle" x="429" y="-119.5" font-family="Helvetica,sans-Serif" font-size="10.00">Uncertainty.cpp</text>
</a>
</g>
</g>
<!-- Node6&#45;&gt;Node12 -->
<g id="edge17" class="edge">
<title>Node6&#45;&gt;Node12</title>
<path fill="none" stroke="midnightblue" d="M514.36,-216.9C492.86,-193.25 453.5,-149.95 436.81,-131.59"/>
<polygon fill="midnightblue" stroke="midnightblue" points="511.84,-219.32 521.15,-224.37 517.02,-214.61 511.84,-219.32"/>
</g>
<!-- Node7&#45;&gt;Node2 -->
<g id="edge9" class="edge">
<title>Node7&#45;&gt;Node2</title>
<path fill="none" stroke="midnightblue" d="M482.57,-111.82C378.04,-98.21 268.4,-84.21 199.97,-75.5"/>
<polygon fill="midnightblue" stroke="midnightblue" points="482.3,-115.31 492.66,-113.13 483.2,-108.37 482.3,-115.31"/>
</g>
<!-- Node8 -->
<g id="node8" class="node">
<title>Node8</title>
<g id="a_node8"><a xlink:href="_distrib_extension_8cpp.html" target="_top" xlink:title="Implementation of DistribExtension.">
<polygon fill="white" stroke="black" points="563.5,-56.5 563.5,-75.5 680.5,-75.5 680.5,-56.5 563.5,-56.5"/>
<text text-anchor="middle" x="622" y="-63.5" font-family="Helvetica,sans-Serif" font-size="10.00">DistribExtension.cpp</text>
</a>
</g>
</g>
<!-- Node7&#45;&gt;Node8 -->
<g id="edge10" class="edge">
<title>Node7&#45;&gt;Node8</title>
<path fill="none" stroke="midnightblue" d="M571.31,-106.1C583.91,-96.38 599.93,-84.03 610.55,-75.83"/>
<polygon fill="midnightblue" stroke="midnightblue" points="569.03,-103.44 563.25,-112.32 573.3,-108.99 569.03,-103.44"/>
</g>
<!-- Node9 -->
<g id="node9" class="node">
<title>Node9</title>
<g id="a_node9"><a xlink:href="_distrib_s_base_plugin_8cpp.html" target="_top" xlink:title="Implementation of the DistribSBasePlugin class.">
<polygon fill="white" stroke="black" points="416.5,-56.5 416.5,-75.5 545.5,-75.5 545.5,-56.5 416.5,-56.5"/>
<text text-anchor="middle" x="481" y="-63.5" font-family="Helvetica,sans-Serif" font-size="10.00">DistribSBasePlugin.cpp</text>
</a>
</g>
</g>
<!-- Node7&#45;&gt;Node9 -->
<g id="edge11" class="edge">
<title>Node7&#45;&gt;Node9</title>
<path fill="none" stroke="midnightblue" d="M532.41,-106.1C519.63,-96.38 503.39,-84.03 492.61,-75.83"/>
<polygon fill="midnightblue" stroke="midnightblue" points="530.51,-109.06 540.59,-112.32 534.75,-103.48 530.51,-109.06"/>
</g>
<!-- Node10&#45;&gt;Node7 -->
<g id="edge14" class="edge">
<title>Node10&#45;&gt;Node7</title>
<path fill="none" stroke="midnightblue" d="M583.89,-160.43C575.82,-150.97 566.04,-139.48 559.45,-131.75"/>
<polygon fill="midnightblue" stroke="midnightblue" points="581.25,-162.74 590.4,-168.08 586.58,-158.2 581.25,-162.74"/>
</g>
<!-- Node11 -->
<g id="node11" class="node">
<title>Node11</title>
<g id="a_node11"><a xlink:href="_list_of_uncertainties_8cpp.html" target="_top" xlink:title="Implementation of the ListOfUncertainties class.">
<polygon fill="white" stroke="black" points="629.5,-112.5 629.5,-131.5 760.5,-131.5 760.5,-112.5 629.5,-112.5"/>
<text text-anchor="middle" x="695" y="-119.5" font-family="Helvetica,sans-Serif" font-size="10.00">ListOfUncertainties.cpp</text>
</a>
</g>
</g>
<!-- Node10&#45;&gt;Node11 -->
<g id="edge15" class="edge">
<title>Node10&#45;&gt;Node11</title>
<path fill="none" stroke="midnightblue" d="M622.34,-163.45C640.24,-153.48 664.05,-140.23 679.45,-131.65"/>
<polygon fill="midnightblue" stroke="midnightblue" points="620.62,-160.4 613.58,-168.32 624.02,-166.52 620.62,-160.4"/>
</g>
<!-- Node10&#45;&gt;Node12 -->
<g id="edge16" class="edge">
<title>Node10&#45;&gt;Node12</title>
<path fill="none" stroke="midnightblue" d="M561.4,-165.3C529.55,-155.13 484.16,-140.62 455.65,-131.52"/>
<polygon fill="midnightblue" stroke="midnightblue" points="560.63,-168.73 571.22,-168.44 562.76,-162.07 560.63,-168.73"/>
</g>
<!-- Node13&#45;&gt;Node2 -->
<g id="edge19" class="edge">
<title>Node13&#45;&gt;Node2</title>
<path fill="none" stroke="midnightblue" d="M214.36,-389.02C173.23,-373.58 114,-342.42 114,-291 114,-291 114,-291 114,-177 114,-138.82 125.25,-94.26 130.44,-75.75"/>
<polygon fill="midnightblue" stroke="midnightblue" points="213.27,-392.35 223.86,-392.43 215.63,-385.76 213.27,-392.35"/>
</g>
<!-- Node13&#45;&gt;Node14 -->
<g id="edge20" class="edge">
<title>Node13&#45;&gt;Node14</title>
<path fill="none" stroke="midnightblue" d="M285.28,-388.64C305.34,-380.44 331.33,-368.85 353,-356 382.46,-338.54 413.75,-312.83 429.2,-299.58"/>
<polygon fill="midnightblue" stroke="midnightblue" points="283.94,-385.41 275.96,-392.38 286.55,-391.9 283.94,-385.41"/>
</g>
<!-- Node16 -->
<g id="node16" class="node">
<title>Node16</title>
<g id="a_node16"><a xlink:href="_uncert_parameter_8cpp.html" target="_top" xlink:title="Implementation of the UncertParameter class.">
<polygon fill="white" stroke="black" points="180.5,-224.5 180.5,-243.5 299.5,-243.5 299.5,-224.5 180.5,-224.5"/>
<text text-anchor="middle" x="240" y="-231.5" font-family="Helvetica,sans-Serif" font-size="10.00">UncertParameter.cpp</text>
</a>
</g>
</g>
<!-- Node13&#45;&gt;Node16 -->
<g id="edge24" class="edge">
<title>Node13&#45;&gt;Node16</title>
<path fill="none" stroke="midnightblue" d="M251.51,-381.93C248.69,-345.92 242.68,-269.23 240.67,-243.57"/>
<polygon fill="midnightblue" stroke="midnightblue" points="248.03,-382.38 252.3,-392.08 255.01,-381.83 248.03,-382.38"/>
</g>
<!-- Node13&#45;&gt;Node17 -->
<g id="edge25" class="edge">
<title>Node13&#45;&gt;Node17</title>
<path fill="none" stroke="midnightblue" d="M268.08,-384.72C276.89,-375.2 287.67,-363.56 294.9,-355.75"/>
<polygon fill="midnightblue" stroke="midnightblue" points="265.48,-382.37 261.26,-392.08 270.62,-387.12 265.48,-382.37"/>
</g>
<!-- Node14&#45;&gt;Node6 -->
<g id="edge22" class="edge">
<title>Node14&#45;&gt;Node6</title>
<path fill="none" stroke="midnightblue" d="M462.04,-275.18C478.6,-265.24 500.42,-252.15 514.58,-243.65"/>
<polygon fill="midnightblue" stroke="midnightblue" points="460.23,-272.18 453.46,-280.32 463.84,-278.18 460.23,-272.18"/>
</g>
<!-- Node15 -->
<g id="node15" class="node">
<title>Node15</title>
<g id="a_node15"><a xlink:href="_list_of_uncert_parameters_8cpp.html" target="_top" xlink:title="Implementation of the ListOfUncertParameters class.">
<polygon fill="white" stroke="black" points="317.5,-224.5 317.5,-243.5 470.5,-243.5 470.5,-224.5 317.5,-224.5"/>
<text text-anchor="middle" x="394" y="-231.5" font-family="Helvetica,sans-Serif" font-size="10.00">ListOfUncertParameters.cpp</text>
</a>
</g>
</g>
<!-- Node14&#45;&gt;Node15 -->
<g id="edge21" class="edge">
<title>Node14&#45;&gt;Node15</title>
<path fill="none" stroke="midnightblue" d="M424.95,-272.14C417.11,-262.74 407.67,-251.4 401.29,-243.75"/>
<polygon fill="midnightblue" stroke="midnightblue" points="422.48,-274.64 431.57,-280.08 427.86,-270.16 422.48,-274.64"/>
</g>
<!-- Node14&#45;&gt;Node16 -->
<g id="edge23" class="edge">
<title>Node14&#45;&gt;Node16</title>
<path fill="none" stroke="midnightblue" d="M397.35,-277.7C359.79,-267.51 305.39,-252.74 271.38,-243.52"/>
<polygon fill="midnightblue" stroke="midnightblue" points="396.9,-281.2 407.47,-280.44 398.73,-274.45 396.9,-281.2"/>
</g>
<!-- Node17&#45;&gt;Node2 -->
<g id="edge26" class="edge">
<title>Node17&#45;&gt;Node2</title>
<path fill="none" stroke="midnightblue" d="M275.54,-331.61C245.06,-315.26 196.77,-284.69 171,-244 135.18,-187.44 132.66,-102.47 132.82,-75.52"/>
<polygon fill="midnightblue" stroke="midnightblue" points="274.28,-334.89 284.76,-336.41 277.51,-328.69 274.28,-334.89"/>
</g>
<!-- Node17&#45;&gt;Node14 -->
<g id="edge27" class="edge">
<title>Node17&#45;&gt;Node14</title>
<path fill="none" stroke="midnightblue" d="M334.13,-332.64C359.66,-322.5 395.11,-308.43 417.55,-299.52"/>
<polygon fill="midnightblue" stroke="midnightblue" points="332.55,-329.5 324.55,-336.44 335.14,-336.01 332.55,-329.5"/>
</g>
<!-- Node18 -->
<g id="node18" class="node">
<title>Node18</title>
<g id="a_node18"><a xlink:href="_uncert_span_8cpp.html" target="_top" xlink:title="Implementation of the UncertSpan class.">
<polygon fill="white" stroke="black" points="256.5,-280.5 256.5,-299.5 349.5,-299.5 349.5,-280.5 256.5,-280.5"/>
<text text-anchor="middle" x="303" y="-287.5" font-family="Helvetica,sans-Serif" font-size="10.00">UncertSpan.cpp</text>
</a>
</g>
</g>
<!-- Node17&#45;&gt;Node18 -->
<g id="edge28" class="edge">
<title>Node17&#45;&gt;Node18</title>
<path fill="none" stroke="midnightblue" d="M303,-325.8C303,-316.91 303,-306.78 303,-299.75"/>
<polygon fill="midnightblue" stroke="midnightblue" points="299.5,-326.08 303,-336.08 306.5,-326.08 299.5,-326.08"/>
</g>
</g>
</svg>
        <g id="navigator" transform="translate(0 0)" fill="#404254">
                <rect fill="#f2f5e9" fill-opacity="0.5" stroke="#606060" stroke-width=".5" x="0" y="0" width="60" height="60"/>
                <use id="zoomplus" xlink:href="#zoomPlus" x="17" y="9" onmousedown="handleZoom(evt,'in')"/>
                <use id="zoomminus" xlink:href="#zoomMin" x="42" y="9" onmousedown="handleZoom(evt,'out')"/>
                <use id="reset" xlink:href="#resetDef" x="30" y="36" onmousedown="handleReset()"/>
                <g id="arrowUp" xlink:href="#dirArrow" transform="translate(30 24)" onmousedown="handlePan(0,-1)">
                  <use xlink:href="#rim" fill="#404040">
                        <set attributeName="fill" to="#808080" begin="arrowUp.mouseover" end="arrowUp.mouseout"/>
                  </use>
                  <path fill="none" stroke="white" stroke-width="1.5" d="M0,-3.0v7 M-2.5,-0.5L0,-3.0L2.5,-0.5"/>
                </g>
                <g id="arrowRight" xlink:href="#dirArrow" transform="rotate(90) translate(36 -43)" onmousedown="handlePan(1,0)">
                  <use xlink:href="#rim" fill="#404040">
                        <set attributeName="fill" to="#808080" begin="arrowRight.mouseover" end="arrowRight.mouseout"/>
                  </use>
                  <path fill="none" stroke="white" stroke-width="1.5" d="M0,-3.0v7 M-2.5,-0.5L0,-3.0L2.5,-0.5"/>
                </g>
                <g id="arrowDown" xlink:href="#dirArrow" transform="rotate(180) translate(-30 -48)" onmousedown="handlePan(0,1)">
                  <use xlink:href="#rim" fill="#404040">
                        <set attributeName="fill" to="#808080" begin="arrowDown.mouseover" end="arrowDown.mouseout"/>
                  </use>
                  <path fill="none" stroke="white" stroke-width="1.5" d="M0,-3.0v7 M-2.5,-0.5L0,-3.0L2.5,-0.5"/>
                </g>
                <g id="arrowLeft" xlink:href="#dirArrow" transform="rotate(270) translate(-36 17)" onmousedown="handlePan(-1,0)">
                  <use xlink:href="#rim" fill="#404040">
                        <set attributeName="fill" to="#808080" begin="arrowLeft.mouseover" end="arrowLeft.mouseout"/>
                  </use>
                  <path fill="none" stroke="white" stroke-width="1.5" d="M0,-3.0v7 M-2.5,-0.5L0,-3.0L2.5,-0.5"/>
                </g>
        </g>
        <svg viewBox="0 0 15 15" width="100%" height="30px" preserveAspectRatio="xMaxYMin meet">
         <g id="arrow_out" transform="scale(0.3 0.3)">
          <a xlink:href="distribfwd_8h__dep__incl_org.svg" target="_base">
           <rect id="button" ry="5" rx="5" y="6" x="6" height="38" width="38"
                fill="#f2f5e9" fill-opacity="0.5" stroke="#606060" stroke-width="1.0"/>
           <path id="arrow"
             d="M 11.500037,31.436501 C 11.940474,20.09759 22.043105,11.32322 32.158766,21.979434 L 37.068811,17.246167 C 37.068811,17.246167 37.088388,32 37.088388,32 L 22.160133,31.978069 C 22.160133,31.978069 26.997745,27.140456 26.997745,27.140456 C 18.528582,18.264221 13.291696,25.230495 11.500037,31.436501 z"
             style="fill:#404040;"/>
          </a>
         </g>
        </svg>
</svg>
