<?xml version="1.0" encoding="UTF-8" standalone="no"?>
<!DOCTYPE svg PUBLIC "-//W3C//DTD SVG 1.1//EN"
 "http://www.w3.org/Graphics/SVG/1.1/DTD/svg11.dtd">
<!-- Generated by graphviz version 2.43.0 (0)
 -->
<!-- Title: Graphical Class Hierarchy Pages: 1 -->
<svg width="509pt" height="800pt"
 viewBox="0.00 0.00 509.00 800.00" xmlns="http://www.w3.org/2000/svg" xmlns:xlink="http://www.w3.org/1999/xlink">
<g id="graph0" class="graph" transform="scale(1 1) rotate(0) translate(4 796)">
<title>Graphical Class Hierarchy</title>
<polygon fill="white" stroke="transparent" points="-4,4 -4,-796 505,-796 505,4 -4,4"/>
<!-- Node0 -->
<g id="node1" class="node">
<title>Node0</title>
<g id="a_node1"><a xlink:href="class_s_base_plugin.html" target="_top" xlink:title=" ">
<polygon fill="white" stroke="black" points="0,-380.5 0,-399.5 77,-399.5 77,-380.5 0,-380.5"/>
<text text-anchor="middle" x="38.5" y="-387.5" font-family="Helvetica,sans-Serif" font-size="10.00">SBasePlugin</text>
</a>
</g>
</g>
<!-- Node1 -->
<g id="node2" class="node">
<title>Node1</title>
<g id="a_node2"><a xlink:href="class_comp_s_base_plugin.html" target="_top" xlink:title=" ">
<polygon fill="white" stroke="black" points="144,-772.5 144,-791.5 249,-791.5 249,-772.5 144,-772.5"/>
<text text-anchor="middle" x="196.5" y="-779.5" font-family="Helvetica,sans-Serif" font-size="10.00">CompSBasePlugin</text>
</a>
</g>
</g>
<!-- Node0&#45;&gt;Node1 -->
<g id="edge1" class="edge">
<title>Node0&#45;&gt;Node1</title>
<path fill="none" stroke="midnightblue" d="M40.63,-409.82C45.02,-479.48 63.19,-711.58 113,-763 121.18,-771.45 132.31,-776.47 143.74,-779.38"/>
<polygon fill="midnightblue" stroke="midnightblue" points="44.12,-409.53 40.03,-399.76 37.13,-409.95 44.12,-409.53"/>
</g>
<!-- Node3 -->
<g id="node4" class="node">
<title>Node3</title>
<g id="a_node4"><a xlink:href="class_distrib_s_base_plugin.html" target="_top" xlink:title=" ">
<polygon fill="white" stroke="black" points="142,-734.5 142,-753.5 251,-753.5 251,-734.5 142,-734.5"/>
<text text-anchor="middle" x="196.5" y="-741.5" font-family="Helvetica,sans-Serif" font-size="10.00">DistribSBasePlugin</text>
</a>
</g>
</g>
<!-- Node0&#45;&gt;Node3 -->
<g id="edge3" class="edge">
<title>Node0&#45;&gt;Node3</title>
<path fill="none" stroke="midnightblue" d="M41.12,-409.87C46.81,-474.88 68.06,-679.59 113,-725 120.75,-732.84 131.05,-737.71 141.72,-740.69"/>
<polygon fill="midnightblue" stroke="midnightblue" points="44.59,-409.41 40.26,-399.74 37.62,-410 44.59,-409.41"/>
</g>
<!-- Node4 -->
<g id="node5" class="node">
<title>Node4</title>
<g id="a_node5"><a xlink:href="class_fbc_s_base_plugin.html" target="_top" xlink:title=" ">
<polygon fill="white" stroke="black" points="149.5,-696.5 149.5,-715.5 243.5,-715.5 243.5,-696.5 149.5,-696.5"/>
<text text-anchor="middle" x="196.5" y="-703.5" font-family="Helvetica,sans-Serif" font-size="10.00">FbcSBasePlugin</text>
</a>
</g>
</g>
<!-- Node0&#45;&gt;Node4 -->
<g id="edge4" class="edge">
<title>Node0&#45;&gt;Node4</title>
<path fill="none" stroke="midnightblue" d="M41.68,-409.54C48.73,-469.21 72.8,-647.45 113,-687 122.64,-696.48 136,-701.6 149.17,-704.27"/>
<polygon fill="midnightblue" stroke="midnightblue" points="45.15,-409.08 40.53,-399.55 38.2,-409.88 45.15,-409.08"/>
</g>
<!-- Node8 -->
<g id="node9" class="node">
<title>Node8</title>
<g id="a_node9"><a xlink:href="class_groups_model_plugin.html" target="_top" xlink:title=" ">
<polygon fill="white" stroke="black" points="141,-658.5 141,-677.5 252,-677.5 252,-658.5 141,-658.5"/>
<text text-anchor="middle" x="196.5" y="-665.5" font-family="Helvetica,sans-Serif" font-size="10.00">GroupsModelPlugin</text>
</a>
</g>
</g>
<!-- Node0&#45;&gt;Node8 -->
<g id="edge8" class="edge">
<title>Node0&#45;&gt;Node8</title>
<path fill="none" stroke="midnightblue" d="M38.81,-409.82C38.28,-458.24 44.02,-583.39 113,-649 120.67,-656.29 130.55,-660.99 140.79,-663.97"/>
<polygon fill="midnightblue" stroke="midnightblue" points="42.31,-409.79 39.03,-399.72 35.31,-409.64 42.31,-409.79"/>
</g>
<!-- Node9 -->
<g id="node10" class="node">
<title>Node9</title>
<g id="a_node10"><a xlink:href="class_layout_model_plugin.html" target="_top" xlink:title=" ">
<polygon fill="white" stroke="black" points="141.5,-620.5 141.5,-639.5 251.5,-639.5 251.5,-620.5 141.5,-620.5"/>
<text text-anchor="middle" x="196.5" y="-627.5" font-family="Helvetica,sans-Serif" font-size="10.00">LayoutModelPlugin</text>
</a>
</g>
</g>
<!-- Node0&#45;&gt;Node9 -->
<g id="edge9" class="edge">
<title>Node0&#45;&gt;Node9</title>
<path fill="none" stroke="midnightblue" d="M39.95,-409.81C42.06,-453.14 53.41,-556.81 113,-611 120.94,-618.22 131.06,-622.87 141.47,-625.82"/>
<polygon fill="midnightblue" stroke="midnightblue" points="43.44,-409.58 39.58,-399.71 36.45,-409.84 43.44,-409.58"/>
</g>
<!-- Node10 -->
<g id="node11" class="node">
<title>Node10</title>
<g id="a_node11"><a xlink:href="class_layout_species_reference_plugin.html" target="_top" xlink:title=" ">
<polygon fill="white" stroke="black" points="113,-582.5 113,-601.5 280,-601.5 280,-582.5 113,-582.5"/>
<text text-anchor="middle" x="196.5" y="-589.5" font-family="Helvetica,sans-Serif" font-size="10.00">LayoutSpeciesReferencePlugin</text>
</a>
</g>
</g>
<!-- Node0&#45;&gt;Node10 -->
<g id="edge10" class="edge">
<title>Node0&#45;&gt;Node10</title>
<path fill="none" stroke="midnightblue" d="M41.54,-409.97C46.5,-447.82 62.78,-530.04 113,-573 117.47,-576.82 122.55,-579.91 127.95,-582.41"/>
<polygon fill="midnightblue" stroke="midnightblue" points="44.98,-409.26 40.33,-399.74 38.03,-410.08 44.98,-409.26"/>
</g>
<!-- Node11 -->
<g id="node12" class="node">
<title>Node11</title>
<g id="a_node12"><a xlink:href="class_multi_compartment_plugin.html" target="_top" xlink:title=" ">
<polygon fill="white" stroke="black" points="127,-544.5 127,-563.5 266,-563.5 266,-544.5 127,-544.5"/>
<text text-anchor="middle" x="196.5" y="-551.5" font-family="Helvetica,sans-Serif" font-size="10.00">MultiCompartmentPlugin</text>
</a>
</g>
</g>
<!-- Node0&#45;&gt;Node11 -->
<g id="edge11" class="edge">
<title>Node0&#45;&gt;Node11</title>
<path fill="none" stroke="midnightblue" d="M43.7,-409.31C51.58,-440.72 71.64,-502.64 113,-535 117.86,-538.8 123.35,-541.87 129.12,-544.34"/>
<polygon fill="midnightblue" stroke="midnightblue" points="47.11,-408.5 41.41,-399.57 40.29,-410.1 47.11,-408.5"/>
</g>
<!-- Node12 -->
<g id="node13" class="node">
<title>Node12</title>
<g id="a_node13"><a xlink:href="class_multi_list_of_reactions_plugin.html" target="_top" xlink:title=" ">
<polygon fill="white" stroke="black" points="122.5,-506.5 122.5,-525.5 270.5,-525.5 270.5,-506.5 122.5,-506.5"/>
<text text-anchor="middle" x="196.5" y="-513.5" font-family="Helvetica,sans-Serif" font-size="10.00">MultiListOfReactionsPlugin</text>
</a>
</g>
</g>
<!-- Node0&#45;&gt;Node12 -->
<g id="edge12" class="edge">
<title>Node0&#45;&gt;Node12</title>
<path fill="none" stroke="midnightblue" d="M47.29,-409.06C58.25,-433.37 80.56,-474.92 113,-497 118.71,-500.89 125.11,-503.99 131.74,-506.46"/>
<polygon fill="midnightblue" stroke="midnightblue" points="50.47,-407.59 43.29,-399.8 44.04,-410.37 50.47,-407.59"/>
</g>
<!-- Node13 -->
<g id="node14" class="node">
<title>Node13</title>
<g id="a_node14"><a xlink:href="class_multi_model_plugin.html" target="_top" xlink:title=" ">
<polygon fill="white" stroke="black" points="146,-468.5 146,-487.5 247,-487.5 247,-468.5 146,-468.5"/>
<text text-anchor="middle" x="196.5" y="-475.5" font-family="Helvetica,sans-Serif" font-size="10.00">MultiModelPlugin</text>
</a>
</g>
</g>
<!-- Node0&#45;&gt;Node13 -->
<g id="edge13" class="edge">
<title>Node0&#45;&gt;Node13</title>
<path fill="none" stroke="midnightblue" d="M53.55,-407.71C67.1,-423.56 89.03,-446.21 113,-459 123.11,-464.4 134.72,-468.27 145.98,-471.04"/>
<polygon fill="midnightblue" stroke="midnightblue" points="56,-405.18 46.93,-399.71 50.61,-409.64 56,-405.18"/>
</g>
<!-- Node14 -->
<g id="node15" class="node">
<title>Node14</title>
<g id="a_node15"><a xlink:href="class_multi_simple_species_reference_plugin.html" target="_top" xlink:title=" ">
<polygon fill="white" stroke="black" points="115.5,-419 115.5,-449 277.5,-449 277.5,-419 115.5,-419"/>
<text text-anchor="start" x="123.5" y="-437" font-family="Helvetica,sans-Serif" font-size="10.00">MultiSimpleSpeciesReference</text>
<text text-anchor="middle" x="196.5" y="-426" font-family="Helvetica,sans-Serif" font-size="10.00">Plugin</text>
</a>
</g>
</g>
<!-- Node0&#45;&gt;Node14 -->
<g id="edge14" class="edge">
<title>Node0&#45;&gt;Node14</title>
<path fill="none" stroke="midnightblue" d="M83.15,-402.31C101.44,-407.47 122.87,-413.51 142.09,-418.93"/>
<polygon fill="midnightblue" stroke="midnightblue" points="83.92,-398.89 73.35,-399.55 82.02,-405.63 83.92,-398.89"/>
</g>
<!-- Node16 -->
<g id="node17" class="node">
<title>Node16</title>
<g id="a_node17"><a xlink:href="class_multi_species_plugin.html" target="_top" xlink:title=" ">
<polygon fill="white" stroke="black" points="142,-380.5 142,-399.5 251,-399.5 251,-380.5 142,-380.5"/>
<text text-anchor="middle" x="196.5" y="-387.5" font-family="Helvetica,sans-Serif" font-size="10.00">MultiSpeciesPlugin</text>
</a>
</g>
</g>
<!-- Node0&#45;&gt;Node16 -->
<g id="edge16" class="edge">
<title>Node0&#45;&gt;Node16</title>
<path fill="none" stroke="midnightblue" d="M87.63,-390C104.81,-390 124.26,-390 141.87,-390"/>
<polygon fill="midnightblue" stroke="midnightblue" points="87.26,-386.5 77.26,-390 87.26,-393.5 87.26,-386.5"/>
</g>
<!-- Node17 -->
<g id="node18" class="node">
<title>Node17</title>
<g id="a_node18"><a xlink:href="class_qual_model_plugin.html" target="_top" xlink:title=" ">
<polygon fill="white" stroke="black" points="147,-342.5 147,-361.5 246,-361.5 246,-342.5 147,-342.5"/>
<text text-anchor="middle" x="196.5" y="-349.5" font-family="Helvetica,sans-Serif" font-size="10.00">QualModelPlugin</text>
</a>
</g>
</g>
<!-- Node0&#45;&gt;Node17 -->
<g id="edge17" class="edge">
<title>Node0&#45;&gt;Node17</title>
<path fill="none" stroke="midnightblue" d="M85.42,-377.93C94.55,-375.59 104.07,-373.18 113,-371 125.99,-367.83 140.17,-364.51 153.05,-361.55"/>
<polygon fill="midnightblue" stroke="midnightblue" points="84.52,-374.55 75.71,-380.43 86.27,-381.32 84.52,-374.55"/>
</g>
<!-- Node18 -->
<g id="node19" class="node">
<title>Node18</title>
<g id="a_node19"><a xlink:href="class_render_graphical_object_plugin.html" target="_top" xlink:title=" ">
<polygon fill="white" stroke="black" points="117,-304.5 117,-323.5 276,-323.5 276,-304.5 117,-304.5"/>
<text text-anchor="middle" x="196.5" y="-311.5" font-family="Helvetica,sans-Serif" font-size="10.00">RenderGraphicalObjectPlugin</text>
</a>
</g>
</g>
<!-- Node0&#45;&gt;Node18 -->
<g id="edge18" class="edge">
<title>Node0&#45;&gt;Node18</title>
<path fill="none" stroke="midnightblue" d="M56.43,-373.37C70.47,-360.49 91.54,-343.18 113,-333 121.1,-329.16 130.02,-326.07 138.92,-323.59"/>
<polygon fill="midnightblue" stroke="midnightblue" points="53.9,-370.94 49.02,-380.35 58.7,-376.03 53.9,-370.94"/>
</g>
<!-- Node19 -->
<g id="node20" class="node">
<title>Node19</title>
<g id="a_node20"><a xlink:href="class_render_layout_plugin.html" target="_top" xlink:title=" ">
<polygon fill="white" stroke="black" points="139.5,-266.5 139.5,-285.5 253.5,-285.5 253.5,-266.5 139.5,-266.5"/>
<text text-anchor="middle" x="196.5" y="-273.5" font-family="Helvetica,sans-Serif" font-size="10.00">RenderLayoutPlugin</text>
</a>
</g>
</g>
<!-- Node0&#45;&gt;Node19 -->
<g id="edge19" class="edge">
<title>Node0&#45;&gt;Node19</title>
<path fill="none" stroke="midnightblue" d="M48.71,-371.5C60.54,-349.72 83.15,-314.11 113,-295 120.92,-289.93 130.04,-286.21 139.26,-283.47"/>
<polygon fill="midnightblue" stroke="midnightblue" points="45.58,-369.94 44.05,-380.42 51.78,-373.18 45.58,-369.94"/>
</g>
<!-- Node20 -->
<g id="node21" class="node">
<title>Node20</title>
<g id="a_node21"><a xlink:href="class_render_list_of_layouts_plugin.html" target="_top" xlink:title=" ">
<polygon fill="white" stroke="black" points="122.5,-228.5 122.5,-247.5 270.5,-247.5 270.5,-228.5 122.5,-228.5"/>
<text text-anchor="middle" x="196.5" y="-235.5" font-family="Helvetica,sans-Serif" font-size="10.00">RenderListOfLayoutsPlugin</text>
</a>
</g>
</g>
<!-- Node0&#45;&gt;Node20 -->
<g id="edge20" class="edge">
<title>Node0&#45;&gt;Node20</title>
<path fill="none" stroke="midnightblue" d="M44.8,-370.22C53.74,-340.8 74.71,-285.87 113,-257 118.05,-253.19 123.72,-250.13 129.68,-247.67"/>
<polygon fill="midnightblue" stroke="midnightblue" points="41.34,-369.57 41.95,-380.14 48.07,-371.5 41.34,-369.57"/>
</g>
<!-- Node21 -->
<g id="node22" class="node">
<title>Node21</title>
<g id="a_node22"><a xlink:href="class_s_b_m_l_document_plugin.html" target="_top" xlink:title=" ">
<polygon fill="white" stroke="black" points="134.5,-190.5 134.5,-209.5 258.5,-209.5 258.5,-190.5 134.5,-190.5"/>
<text text-anchor="middle" x="196.5" y="-197.5" font-family="Helvetica,sans-Serif" font-size="10.00">SBMLDocumentPlugin</text>
</a>
</g>
</g>
<!-- Node0&#45;&gt;Node21 -->
<g id="edge21" class="edge">
<title>Node0&#45;&gt;Node21</title>
<path fill="none" stroke="midnightblue" d="M42.12,-370.34C47.97,-334.51 65.55,-258.61 113,-219 119.21,-213.82 126.55,-209.99 134.26,-207.16"/>
<polygon fill="midnightblue" stroke="midnightblue" points="38.62,-370.07 40.61,-380.47 45.54,-371.1 38.62,-370.07"/>
</g>
<!-- Node32 -->
<g id="node33" class="node">
<title>Node32</title>
<g id="a_node33"><a xlink:href="class_spatial_compartment_plugin.html" target="_top" xlink:title=" ">
<polygon fill="white" stroke="black" points="122.5,-152.5 122.5,-171.5 270.5,-171.5 270.5,-152.5 122.5,-152.5"/>
<text text-anchor="middle" x="196.5" y="-159.5" font-family="Helvetica,sans-Serif" font-size="10.00">SpatialCompartmentPlugin</text>
</a>
</g>
</g>
<!-- Node0&#45;&gt;Node32 -->
<g id="edge32" class="edge">
<title>Node0&#45;&gt;Node32</title>
<path fill="none" stroke="midnightblue" d="M40.39,-370.14C43.38,-328.47 56.39,-231.61 113,-181 117.27,-177.18 122.16,-174.08 127.37,-171.58"/>
<polygon fill="midnightblue" stroke="midnightblue" points="36.88,-370.15 39.79,-380.34 43.87,-370.57 36.88,-370.15"/>
</g>
<!-- Node33 -->
<g id="node34" class="node">
<title>Node33</title>
<g id="a_node34"><a xlink:href="class_spatial_model_plugin.html" target="_top" xlink:title=" ">
<polygon fill="white" stroke="black" points="141.5,-114.5 141.5,-133.5 251.5,-133.5 251.5,-114.5 141.5,-114.5"/>
<text text-anchor="middle" x="196.5" y="-121.5" font-family="Helvetica,sans-Serif" font-size="10.00">SpatialModelPlugin</text>
</a>
</g>
</g>
<!-- Node0&#45;&gt;Node33 -->
<g id="edge33" class="edge">
<title>Node0&#45;&gt;Node33</title>
<path fill="none" stroke="midnightblue" d="M39.13,-370.47C39.39,-323.8 46.86,-205.1 113,-143 120.82,-135.66 130.89,-130.95 141.29,-127.99"/>
<polygon fill="midnightblue" stroke="midnightblue" points="35.63,-370.49 39.19,-380.47 42.63,-370.45 35.63,-370.49"/>
</g>
<!-- Node34 -->
<g id="node35" class="node">
<title>Node34</title>
<g id="a_node35"><a xlink:href="class_spatial_parameter_plugin.html" target="_top" xlink:title=" ">
<polygon fill="white" stroke="black" points="131,-76.5 131,-95.5 262,-95.5 262,-76.5 131,-76.5"/>
<text text-anchor="middle" x="196.5" y="-83.5" font-family="Helvetica,sans-Serif" font-size="10.00">SpatialParameterPlugin</text>
</a>
</g>
</g>
<!-- Node0&#45;&gt;Node34 -->
<g id="edge34" class="edge">
<title>Node0&#45;&gt;Node34</title>
<path fill="none" stroke="midnightblue" d="M41.94,-370.11C49.51,-311.74 74.4,-142.61 113,-105 118.05,-100.08 124.11,-96.33 130.62,-93.5"/>
<polygon fill="midnightblue" stroke="midnightblue" points="38.44,-369.88 40.66,-380.24 45.39,-370.76 38.44,-369.88"/>
</g>
<!-- Node35 -->
<g id="node36" class="node">
<title>Node35</title>
<g id="a_node36"><a xlink:href="class_spatial_reaction_plugin.html" target="_top" xlink:title=" ">
<polygon fill="white" stroke="black" points="135,-38.5 135,-57.5 258,-57.5 258,-38.5 135,-38.5"/>
<text text-anchor="middle" x="196.5" y="-45.5" font-family="Helvetica,sans-Serif" font-size="10.00">SpatialReactionPlugin</text>
</a>
</g>
</g>
<!-- Node0&#45;&gt;Node35 -->
<g id="edge35" class="edge">
<title>Node0&#45;&gt;Node35</title>
<path fill="none" stroke="midnightblue" d="M41.3,-370.02C47.44,-306.45 69.61,-110.51 113,-67 119.02,-60.96 126.55,-56.69 134.59,-53.68"/>
<polygon fill="midnightblue" stroke="midnightblue" points="37.79,-370 40.34,-380.28 44.76,-370.65 37.79,-370"/>
</g>
<!-- Node36 -->
<g id="node37" class="node">
<title>Node36</title>
<g id="a_node37"><a xlink:href="class_spatial_species_plugin.html" target="_top" xlink:title=" ">
<polygon fill="white" stroke="black" points="137.5,-0.5 137.5,-19.5 255.5,-19.5 255.5,-0.5 137.5,-0.5"/>
<text text-anchor="middle" x="196.5" y="-7.5" font-family="Helvetica,sans-Serif" font-size="10.00">SpatialSpeciesPlugin</text>
</a>
</g>
</g>
<!-- Node0&#45;&gt;Node36 -->
<g id="edge36" class="edge">
<title>Node0&#45;&gt;Node36</title>
<path fill="none" stroke="midnightblue" d="M40.79,-369.94C45.61,-301.47 64.78,-78.46 113,-29 119.67,-22.16 128.27,-17.57 137.39,-14.52"/>
<polygon fill="midnightblue" stroke="midnightblue" points="37.28,-370 40.1,-380.21 44.26,-370.47 37.28,-370"/>
</g>
<!-- Node2 -->
<g id="node3" class="node">
<title>Node2</title>
<g id="a_node3"><a xlink:href="class_comp_model_plugin.html" target="_top" xlink:title=" ">
<polygon fill="white" stroke="black" points="356,-772.5 356,-791.5 461,-791.5 461,-772.5 356,-772.5"/>
<text text-anchor="middle" x="408.5" y="-779.5" font-family="Helvetica,sans-Serif" font-size="10.00">CompModelPlugin</text>
</a>
</g>
</g>
<!-- Node1&#45;&gt;Node2 -->
<g id="edge2" class="edge">
<title>Node1&#45;&gt;Node2</title>
<path fill="none" stroke="midnightblue" d="M259.29,-782C289.94,-782 326.53,-782 355.69,-782"/>
<polygon fill="midnightblue" stroke="midnightblue" points="259.14,-778.5 249.14,-782 259.14,-785.5 259.14,-778.5"/>
</g>
<!-- Node5 -->
<g id="node6" class="node">
<title>Node5</title>
<g id="a_node6"><a xlink:href="class_fbc_model_plugin.html" target="_top" xlink:title=" ">
<polygon fill="white" stroke="black" points="361.5,-734.5 361.5,-753.5 455.5,-753.5 455.5,-734.5 361.5,-734.5"/>
<text text-anchor="middle" x="408.5" y="-741.5" font-family="Helvetica,sans-Serif" font-size="10.00">FbcModelPlugin</text>
</a>
</g>
</g>
<!-- Node4&#45;&gt;Node5 -->
<g id="edge5" class="edge">
<title>Node4&#45;&gt;Node5</title>
<path fill="none" stroke="midnightblue" d="M253.72,-716.17C287.31,-722.25 329.48,-729.88 361.16,-735.61"/>
<polygon fill="midnightblue" stroke="midnightblue" points="254.05,-712.68 243.59,-714.34 252.8,-719.56 254.05,-712.68"/>
</g>
<!-- Node6 -->
<g id="node7" class="node">
<title>Node6</title>
<g id="a_node7"><a xlink:href="class_fbc_reaction_plugin.html" target="_top" xlink:title=" ">
<polygon fill="white" stroke="black" points="355,-696.5 355,-715.5 462,-715.5 462,-696.5 355,-696.5"/>
<text text-anchor="middle" x="408.5" y="-703.5" font-family="Helvetica,sans-Serif" font-size="10.00">FbcReactionPlugin</text>
</a>
</g>
</g>
<!-- Node4&#45;&gt;Node6 -->
<g id="edge6" class="edge">
<title>Node4&#45;&gt;Node6</title>
<path fill="none" stroke="midnightblue" d="M253.92,-706C285.3,-706 324.11,-706 354.86,-706"/>
<polygon fill="midnightblue" stroke="midnightblue" points="253.59,-702.5 243.59,-706 253.59,-709.5 253.59,-702.5"/>
</g>
<!-- Node7 -->
<g id="node8" class="node">
<title>Node7</title>
<g id="a_node8"><a xlink:href="class_fbc_species_plugin.html" target="_top" xlink:title=" ">
<polygon fill="white" stroke="black" points="358,-658.5 358,-677.5 459,-677.5 459,-658.5 358,-658.5"/>
<text text-anchor="middle" x="408.5" y="-665.5" font-family="Helvetica,sans-Serif" font-size="10.00">FbcSpeciesPlugin</text>
</a>
</g>
</g>
<!-- Node4&#45;&gt;Node7 -->
<g id="edge7" class="edge">
<title>Node4&#45;&gt;Node7</title>
<path fill="none" stroke="midnightblue" d="M253.81,-695.81C286.24,-689.94 326.62,-682.63 357.86,-676.98"/>
<polygon fill="midnightblue" stroke="midnightblue" points="252.8,-692.44 243.59,-697.66 254.05,-699.32 252.8,-692.44"/>
</g>
<!-- Node15 -->
<g id="node16" class="node">
<title>Node15</title>
<g id="a_node16"><a xlink:href="class_multi_species_reference_plugin.html" target="_top" xlink:title=" ">
<polygon fill="white" stroke="black" points="329.5,-424.5 329.5,-443.5 487.5,-443.5 487.5,-424.5 329.5,-424.5"/>
<text text-anchor="middle" x="408.5" y="-431.5" font-family="Helvetica,sans-Serif" font-size="10.00">MultiSpeciesReferencePlugin</text>
</a>
</g>
</g>
<!-- Node14&#45;&gt;Node15 -->
<g id="edge15" class="edge">
<title>Node14&#45;&gt;Node15</title>
<path fill="none" stroke="midnightblue" d="M288.19,-434C301.89,-434 315.92,-434 329.33,-434"/>
<polygon fill="midnightblue" stroke="midnightblue" points="287.79,-430.5 277.79,-434 287.79,-437.5 287.79,-430.5"/>
</g>
<!-- Node22 -->
<g id="node23" class="node">
<title>Node22</title>
<g id="a_node23"><a xlink:href="class_comp_s_b_m_l_document_plugin.html" target="_top" xlink:title=" ">
<polygon fill="white" stroke="black" points="332.5,-361.5 332.5,-380.5 484.5,-380.5 484.5,-361.5 332.5,-361.5"/>
<text text-anchor="middle" x="408.5" y="-368.5" font-family="Helvetica,sans-Serif" font-size="10.00">CompSBMLDocumentPlugin</text>
</a>
</g>
</g>
<!-- Node21&#45;&gt;Node22 -->
<g id="edge22" class="edge">
<title>Node21&#45;&gt;Node22</title>
<path fill="none" stroke="midnightblue" d="M267.96,-210.3C272.34,-212.68 276.42,-215.55 280,-219 324.12,-261.47 271.43,-310.01 316,-352 320.72,-356.45 326.2,-359.97 332.09,-362.75"/>
<polygon fill="midnightblue" stroke="midnightblue" points="269.16,-207 258.61,-206.06 266.27,-213.38 269.16,-207"/>
</g>
<!-- Node23 -->
<g id="node24" class="node">
<title>Node23</title>
<g id="a_node24"><a xlink:href="class_distrib_s_b_m_l_document_plugin.html" target="_top" xlink:title=" ">
<polygon fill="white" stroke="black" points="330.5,-323.5 330.5,-342.5 486.5,-342.5 486.5,-323.5 330.5,-323.5"/>
<text text-anchor="middle" x="408.5" y="-330.5" font-family="Helvetica,sans-Serif" font-size="10.00">DistribSBMLDocumentPlugin</text>
</a>
</g>
</g>
<!-- Node21&#45;&gt;Node23 -->
<g id="edge23" class="edge">
<title>Node21&#45;&gt;Node23</title>
<path fill="none" stroke="midnightblue" d="M267.82,-210.82C272.2,-213.09 276.32,-215.79 280,-219 314.02,-248.69 281.66,-284.68 316,-314 320.44,-317.79 325.44,-320.89 330.76,-323.42"/>
<polygon fill="midnightblue" stroke="midnightblue" points="269.09,-207.56 258.53,-206.76 266.29,-213.97 269.09,-207.56"/>
</g>
<!-- Node24 -->
<g id="node25" class="node">
<title>Node24</title>
<g id="a_node25"><a xlink:href="class_fbc_s_b_m_l_document_plugin.html" target="_top" xlink:title=" ">
<polygon fill="white" stroke="black" points="338,-285.5 338,-304.5 479,-304.5 479,-285.5 338,-285.5"/>
<text text-anchor="middle" x="408.5" y="-292.5" font-family="Helvetica,sans-Serif" font-size="10.00">FbcSBMLDocumentPlugin</text>
</a>
</g>
</g>
<!-- Node21&#45;&gt;Node24 -->
<g id="edge24" class="edge">
<title>Node21&#45;&gt;Node24</title>
<path fill="none" stroke="midnightblue" d="M268.2,-212.19C272.35,-214.14 276.33,-216.39 280,-219 304.44,-236.33 291.37,-258.93 316,-276 322.53,-280.53 329.92,-284.02 337.59,-286.71"/>
<polygon fill="midnightblue" stroke="midnightblue" points="269.45,-208.92 258.87,-208.39 266.81,-215.41 269.45,-208.92"/>
</g>
<!-- Node25 -->
<g id="node26" class="node">
<title>Node25</title>
<g id="a_node26"><a xlink:href="class_groups_s_b_m_l_document_plugin.html" target="_top" xlink:title=" ">
<polygon fill="white" stroke="black" points="329.5,-247.5 329.5,-266.5 487.5,-266.5 487.5,-247.5 329.5,-247.5"/>
<text text-anchor="middle" x="408.5" y="-254.5" font-family="Helvetica,sans-Serif" font-size="10.00">GroupsSBMLDocumentPlugin</text>
</a>
</g>
</g>
<!-- Node21&#45;&gt;Node25 -->
<g id="edge25" class="edge">
<title>Node21&#45;&gt;Node25</title>
<path fill="none" stroke="midnightblue" d="M258.07,-212.04C265.54,-214.08 273.01,-216.4 280,-219 296.96,-225.31 298.98,-231.88 316,-238 326.53,-241.79 338.04,-244.91 349.22,-247.46"/>
<polygon fill="midnightblue" stroke="midnightblue" points="258.84,-208.63 248.28,-209.51 257.09,-215.4 258.84,-208.63"/>
</g>
<!-- Node26 -->
<g id="node27" class="node">
<title>Node26</title>
<g id="a_node27"><a xlink:href="class_layout_s_b_m_l_document_plugin.html" target="_top" xlink:title=" ">
<polygon fill="white" stroke="black" points="330,-209.5 330,-228.5 487,-228.5 487,-209.5 330,-209.5"/>
<text text-anchor="middle" x="408.5" y="-216.5" font-family="Helvetica,sans-Serif" font-size="10.00">LayoutSBMLDocumentPlugin</text>
</a>
</g>
</g>
<!-- Node21&#45;&gt;Node26 -->
<g id="edge26" class="edge">
<title>Node21&#45;&gt;Node26</title>
<path fill="none" stroke="midnightblue" d="M268.64,-206.44C288.33,-208.22 309.81,-210.16 329.85,-211.97"/>
<polygon fill="midnightblue" stroke="midnightblue" points="268.8,-202.94 258.52,-205.52 268.17,-209.91 268.8,-202.94"/>
</g>
<!-- Node27 -->
<g id="node28" class="node">
<title>Node27</title>
<g id="a_node28"><a xlink:href="class_multi_s_b_m_l_document_plugin.html" target="_top" xlink:title=" ">
<polygon fill="white" stroke="black" points="334,-171.5 334,-190.5 483,-190.5 483,-171.5 334,-171.5"/>
<text text-anchor="middle" x="408.5" y="-178.5" font-family="Helvetica,sans-Serif" font-size="10.00">MultiSBMLDocumentPlugin</text>
</a>
</g>
</g>
<!-- Node21&#45;&gt;Node27 -->
<g id="edge27" class="edge">
<title>Node21&#45;&gt;Node27</title>
<path fill="none" stroke="midnightblue" d="M268.63,-193.56C289.58,-191.67 312.55,-189.59 333.67,-187.68"/>
<polygon fill="midnightblue" stroke="midnightblue" points="268.17,-190.09 258.52,-194.48 268.8,-197.06 268.17,-190.09"/>
</g>
<!-- Node28 -->
<g id="node29" class="node">
<title>Node28</title>
<g id="a_node29"><a xlink:href="class_qual_s_b_m_l_document_plugin.html" target="_top" xlink:title=" ">
<polygon fill="white" stroke="black" points="335.5,-133.5 335.5,-152.5 481.5,-152.5 481.5,-133.5 335.5,-133.5"/>
<text text-anchor="middle" x="408.5" y="-140.5" font-family="Helvetica,sans-Serif" font-size="10.00">QualSBMLDocumentPlugin</text>
</a>
</g>
</g>
<!-- Node21&#45;&gt;Node28 -->
<g id="edge28" class="edge">
<title>Node21&#45;&gt;Node28</title>
<path fill="none" stroke="midnightblue" d="M258.07,-187.96C265.54,-185.92 273.01,-183.6 280,-181 296.96,-174.69 298.98,-168.12 316,-162 326.53,-158.21 338.04,-155.09 349.22,-152.54"/>
<polygon fill="midnightblue" stroke="midnightblue" points="257.09,-184.6 248.28,-190.49 258.84,-191.37 257.09,-184.6"/>
</g>
<!-- Node29 -->
<g id="node30" class="node">
<title>Node29</title>
<g id="a_node30"><a xlink:href="class_render_s_b_m_l_document_plugin.html" target="_top" xlink:title=" ">
<polygon fill="white" stroke="black" points="329.5,-95.5 329.5,-114.5 487.5,-114.5 487.5,-95.5 329.5,-95.5"/>
<text text-anchor="middle" x="408.5" y="-102.5" font-family="Helvetica,sans-Serif" font-size="10.00">RenderSBMLDocumentPlugin</text>
</a>
</g>
</g>
<!-- Node21&#45;&gt;Node29 -->
<g id="edge29" class="edge">
<title>Node21&#45;&gt;Node29</title>
<path fill="none" stroke="midnightblue" d="M268.2,-187.81C272.35,-185.86 276.33,-183.61 280,-181 304.44,-163.67 291.37,-141.07 316,-124 321.47,-120.21 327.53,-117.15 333.86,-114.68"/>
<polygon fill="midnightblue" stroke="midnightblue" points="266.81,-184.59 258.87,-191.61 269.45,-191.08 266.81,-184.59"/>
</g>
<!-- Node30 -->
<g id="node31" class="node">
<title>Node30</title>
<g id="a_node31"><a xlink:href="class_s_b_m_l_document_plugin_not_required.html" target="_top" xlink:title=" ">
<polygon fill="white" stroke="black" points="316,-57.5 316,-76.5 501,-76.5 501,-57.5 316,-57.5"/>
<text text-anchor="middle" x="408.5" y="-64.5" font-family="Helvetica,sans-Serif" font-size="10.00">SBMLDocumentPluginNotRequired</text>
</a>
</g>
</g>
<!-- Node21&#45;&gt;Node30 -->
<g id="edge30" class="edge">
<title>Node21&#45;&gt;Node30</title>
<path fill="none" stroke="midnightblue" d="M267.82,-189.18C272.2,-186.91 276.32,-184.21 280,-181 314.02,-151.31 281.66,-115.32 316,-86 320.44,-82.21 325.44,-79.11 330.76,-76.58"/>
<polygon fill="midnightblue" stroke="midnightblue" points="266.29,-186.03 258.53,-193.24 269.09,-192.44 266.29,-186.03"/>
</g>
<!-- Node31 -->
<g id="node32" class="node">
<title>Node31</title>
<g id="a_node32"><a xlink:href="class_spatial_s_b_m_l_document_plugin.html" target="_top" xlink:title=" ">
<polygon fill="white" stroke="black" points="329.5,-19.5 329.5,-38.5 487.5,-38.5 487.5,-19.5 329.5,-19.5"/>
<text text-anchor="middle" x="408.5" y="-26.5" font-family="Helvetica,sans-Serif" font-size="10.00">SpatialSBMLDocumentPlugin</text>
</a>
</g>
</g>
<!-- Node21&#45;&gt;Node31 -->
<g id="edge31" class="edge">
<title>Node21&#45;&gt;Node31</title>
<path fill="none" stroke="midnightblue" d="M267.96,-189.7C272.34,-187.32 276.42,-184.45 280,-181 324.12,-138.53 271.43,-89.99 316,-48 320.02,-44.22 324.58,-41.1 329.47,-38.55"/>
<polygon fill="midnightblue" stroke="midnightblue" points="266.27,-186.62 258.61,-193.94 269.16,-193 266.27,-186.62"/>
</g>
</g>
</svg>
