<?xml version="1.0" encoding="UTF-8" standalone="no"?>
<!DOCTYPE svg PUBLIC "-//W3C//DTD SVG 1.1//EN"
 "http://www.w3.org/Graphics/SVG/1.1/DTD/svg11.dtd">
<!-- Generated by graphviz version 2.43.0 (0)
 -->
<!-- Title: Graphical Class Hierarchy Pages: 1 -->
<svg width="562pt" height="104pt"
 viewBox="0.00 0.00 562.00 104.00" xmlns="http://www.w3.org/2000/svg" xmlns:xlink="http://www.w3.org/1999/xlink">
<g id="graph0" class="graph" transform="scale(1 1) rotate(0) translate(4 100)">
<title>Graphical Class Hierarchy</title>
<polygon fill="white" stroke="transparent" points="-4,4 -4,-100 558,-100 558,4 -4,4"/>
<!-- Node15 -->
<g id="node1" class="node">
<title>Node15</title>
<g id="a_node1"><a xlink:title=" ">
<polygon fill="white" stroke="#bfbfbf" points="0,-38.5 0,-57.5 86,-57.5 86,-38.5 0,-38.5"/>
<text text-anchor="middle" x="43" y="-45.5" font-family="Helvetica,sans-Serif" font-size="10.00">std::exception</text>
</a>
</g>
</g>
<!-- Node16 -->
<g id="node2" class="node">
<title>Node16</title>
<g id="a_node2"><a xlink:title=" ">
<polygon fill="white" stroke="#bfbfbf" points="122,-38.5 122,-57.5 211,-57.5 211,-38.5 122,-38.5"/>
<text text-anchor="middle" x="166.5" y="-45.5" font-family="Helvetica,sans-Serif" font-size="10.00">std::logic_error</text>
</a>
</g>
</g>
<!-- Node15&#45;&gt;Node16 -->
<g id="edge1" class="edge">
<title>Node15&#45;&gt;Node16</title>
<path fill="none" stroke="midnightblue" d="M96.34,-48C104.82,-48 113.52,-48 121.77,-48"/>
<polygon fill="midnightblue" stroke="midnightblue" points="96.15,-44.5 86.15,-48 96.15,-51.5 96.15,-44.5"/>
</g>
<!-- Node17 -->
<g id="node3" class="node">
<title>Node17</title>
<g id="a_node3"><a xlink:title=" ">
<polygon fill="white" stroke="#bfbfbf" points="247,-38.5 247,-57.5 370,-57.5 370,-38.5 247,-38.5"/>
<text text-anchor="middle" x="308.5" y="-45.5" font-family="Helvetica,sans-Serif" font-size="10.00">std::invalid_argument</text>
</a>
</g>
</g>
<!-- Node16&#45;&gt;Node17 -->
<g id="edge2" class="edge">
<title>Node16&#45;&gt;Node17</title>
<path fill="none" stroke="midnightblue" d="M221.08,-48C229.49,-48 238.22,-48 246.78,-48"/>
<polygon fill="midnightblue" stroke="midnightblue" points="221.03,-44.5 211.03,-48 221.03,-51.5 221.03,-44.5"/>
</g>
<!-- Node0 -->
<g id="node4" class="node">
<title>Node0</title>
<g id="a_node4"><a xlink:href="class_s_b_m_l_constructor_exception.html" target="_top" xlink:title=" ">
<polygon fill="white" stroke="black" points="406,-76.5 406,-95.5 554,-95.5 554,-76.5 406,-76.5"/>
<text text-anchor="middle" x="480" y="-83.5" font-family="Helvetica,sans-Serif" font-size="10.00">SBMLConstructorException</text>
</a>
</g>
</g>
<!-- Node17&#45;&gt;Node0 -->
<g id="edge3" class="edge">
<title>Node17&#45;&gt;Node0</title>
<path fill="none" stroke="midnightblue" d="M362.24,-59.82C386.14,-65.18 414.02,-71.43 436.54,-76.48"/>
<polygon fill="midnightblue" stroke="midnightblue" points="362.8,-56.36 352.27,-57.59 361.26,-63.19 362.8,-56.36"/>
</g>
<!-- Node19 -->
<g id="node5" class="node">
<title>Node19</title>
<g id="a_node5"><a xlink:href="class_s_b_m_l_extension_exception.html" target="_top" xlink:title=" ">
<polygon fill="white" stroke="black" points="410,-38.5 410,-57.5 550,-57.5 550,-38.5 410,-38.5"/>
<text text-anchor="middle" x="480" y="-45.5" font-family="Helvetica,sans-Serif" font-size="10.00">SBMLExtensionException</text>
</a>
</g>
</g>
<!-- Node17&#45;&gt;Node19 -->
<g id="edge4" class="edge">
<title>Node17&#45;&gt;Node19</title>
<path fill="none" stroke="midnightblue" d="M380.27,-48C390.03,-48 400.04,-48 409.77,-48"/>
<polygon fill="midnightblue" stroke="midnightblue" points="380.21,-44.5 370.21,-48 380.21,-51.5 380.21,-44.5"/>
</g>
<!-- Node20 -->
<g id="node6" class="node">
<title>Node20</title>
<g id="a_node6"><a xlink:href="class_x_m_l_constructor_exception.html" target="_top" xlink:title=" ">
<polygon fill="white" stroke="black" points="409,-0.5 409,-19.5 551,-19.5 551,-0.5 409,-0.5"/>
<text text-anchor="middle" x="480" y="-7.5" font-family="Helvetica,sans-Serif" font-size="10.00">XMLConstructorException</text>
</a>
</g>
</g>
<!-- Node17&#45;&gt;Node20 -->
<g id="edge5" class="edge">
<title>Node17&#45;&gt;Node20</title>
<path fill="none" stroke="midnightblue" d="M362.24,-36.18C386.14,-30.82 414.02,-24.57 436.54,-19.52"/>
<polygon fill="midnightblue" stroke="midnightblue" points="361.26,-32.81 352.27,-38.41 362.8,-39.64 361.26,-32.81"/>
</g>
</g>
</svg>
