<?xml version="1.0" encoding="UTF-8" standalone="no"?>
<!DOCTYPE svg PUBLIC "-//W3C//DTD SVG 1.1//EN"
 "http://www.w3.org/Graphics/SVG/1.1/DTD/svg11.dtd">
<!-- Generated by graphviz version 2.43.0 (0)
 -->
<!-- Title: libsbml&#45;version.cpp Pages: 1 -->
<svg width="195pt" height="207pt"
 viewBox="0.00 0.00 194.50 207.00" xmlns="http://www.w3.org/2000/svg" xmlns:xlink="http://www.w3.org/1999/xlink">
<g id="graph0" class="graph" transform="scale(1 1) rotate(0) translate(4 203)">
<title>libsbml&#45;version.cpp</title>
<polygon fill="white" stroke="transparent" points="-4,4 -4,-203 190.5,-203 190.5,4 -4,4"/>
<!-- Node1 -->
<g id="node1" class="node">
<title>Node1</title>
<g id="a_node1"><a xlink:title="Define libSBML version numbers for access from client software.">
<polygon fill="#bfbfbf" stroke="black" points="56,-179.5 56,-198.5 168,-198.5 168,-179.5 56,-179.5"/>
<text text-anchor="middle" x="112" y="-186.5" font-family="Helvetica,sans-Serif" font-size="10.00">libsbml&#45;version.cpp</text>
</a>
</g>
</g>
<!-- Node2 -->
<g id="node2" class="node">
<title>Node2</title>
<g id="a_node2"><a xlink:href="libsbml-version_8h.html" target="_top" xlink:title="Define libSBML version numbers for access from client software.">
<polygon fill="white" stroke="black" points="14.5,-123.5 14.5,-142.5 115.5,-142.5 115.5,-123.5 14.5,-123.5"/>
<text text-anchor="middle" x="65" y="-130.5" font-family="Helvetica,sans-Serif" font-size="10.00">libsbml&#45;version.h</text>
</a>
</g>
</g>
<!-- Node1&#45;&gt;Node2 -->
<g id="edge1" class="edge">
<title>Node1&#45;&gt;Node2</title>
<path fill="none" stroke="midnightblue" d="M104.24,-179.08C97.46,-171.3 87.46,-159.8 79.24,-150.37"/>
<polygon fill="midnightblue" stroke="midnightblue" points="81.82,-148 72.62,-142.75 76.54,-152.59 81.82,-148"/>
</g>
<!-- Node5 -->
<g id="node5" class="node">
<title>Node5</title>
<g id="a_node5"><a xlink:title=" ">
<polygon fill="white" stroke="#bfbfbf" points="133.5,-123.5 133.5,-142.5 186.5,-142.5 186.5,-123.5 133.5,-123.5"/>
<text text-anchor="middle" x="160" y="-130.5" font-family="Helvetica,sans-Serif" font-size="10.00">string.h</text>
</a>
</g>
</g>
<!-- Node1&#45;&gt;Node5 -->
<g id="edge4" class="edge">
<title>Node1&#45;&gt;Node5</title>
<path fill="none" stroke="midnightblue" d="M119.93,-179.08C126.85,-171.3 137.07,-159.8 145.45,-150.37"/>
<polygon fill="midnightblue" stroke="midnightblue" points="148.19,-152.55 152.22,-142.75 142.96,-147.9 148.19,-152.55"/>
</g>
<!-- Node3 -->
<g id="node3" class="node">
<title>Node3</title>
<g id="a_node3"><a xlink:href="extern_8h.html" target="_top" xlink:title="Definitions of LIBSBML_EXTERN and related things.">
<polygon fill="white" stroke="black" points="0,-67.5 0,-86.5 130,-86.5 130,-67.5 0,-67.5"/>
<text text-anchor="middle" x="65" y="-74.5" font-family="Helvetica,sans-Serif" font-size="10.00">sbml/common/extern.h</text>
</a>
</g>
</g>
<!-- Node2&#45;&gt;Node3 -->
<g id="edge2" class="edge">
<title>Node2&#45;&gt;Node3</title>
<path fill="none" stroke="midnightblue" d="M65,-123.08C65,-116.01 65,-105.86 65,-96.99"/>
<polygon fill="midnightblue" stroke="midnightblue" points="68.5,-96.75 65,-86.75 61.5,-96.75 68.5,-96.75"/>
</g>
<!-- Node4 -->
<g id="node4" class="node">
<title>Node4</title>
<g id="a_node4"><a xlink:title=" ">
<polygon fill="white" stroke="#bfbfbf" points="2.5,-0.5 2.5,-30.5 127.5,-30.5 127.5,-0.5 2.5,-0.5"/>
<text text-anchor="start" x="10.5" y="-18.5" font-family="Helvetica,sans-Serif" font-size="10.00">sbml/common/libsbml</text>
<text text-anchor="middle" x="65" y="-7.5" font-family="Helvetica,sans-Serif" font-size="10.00">&#45;namespace.h</text>
</a>
</g>
</g>
<!-- Node3&#45;&gt;Node4 -->
<g id="edge3" class="edge">
<title>Node3&#45;&gt;Node4</title>
<path fill="none" stroke="midnightblue" d="M65,-67.48C65,-60.47 65,-50.19 65,-40.7"/>
<polygon fill="midnightblue" stroke="midnightblue" points="68.5,-40.52 65,-30.52 61.5,-40.52 68.5,-40.52"/>
</g>
</g>
</svg>
