<?xml version="1.0" encoding="UTF-8" standalone="no"?>
<!DOCTYPE svg PUBLIC "-//W3C//DTD SVG 1.1//EN"
 "http://www.w3.org/Graphics/SVG/1.1/DTD/svg11.dtd">
<!-- Generated by graphviz version 2.43.0 (0)
 -->
<!-- Title: libsbml&#45;config.h Pages: 1 -->
<svg width="321pt" height="218pt"
 viewBox="0.00 0.00 321.00 218.00" xmlns="http://www.w3.org/2000/svg" xmlns:xlink="http://www.w3.org/1999/xlink">
<g id="graph0" class="graph" transform="scale(1 1) rotate(0) translate(4 214)">
<title>libsbml&#45;config.h</title>
<polygon fill="white" stroke="transparent" points="-4,4 -4,-214 317,-214 317,4 -4,4"/>
<!-- Node1 -->
<g id="node1" class="node">
<title>Node1</title>
<g id="a_node1"><a xlink:title="Decides whether to #include Unix or Windows configuration variables.">
<polygon fill="#bfbfbf" stroke="black" points="60,-190.5 60,-209.5 155,-209.5 155,-190.5 60,-190.5"/>
<text text-anchor="middle" x="107.5" y="-197.5" font-family="Helvetica,sans-Serif" font-size="10.00">libsbml&#45;config.h</text>
</a>
</g>
</g>
<!-- Node2 -->
<g id="node2" class="node">
<title>Node2</title>
<g id="a_node2"><a xlink:title=" ">
<polygon fill="white" stroke="#bfbfbf" points="0,-0.5 0,-30.5 125,-30.5 125,-0.5 0,-0.5"/>
<text text-anchor="start" x="8" y="-18.5" font-family="Helvetica,sans-Serif" font-size="10.00">sbml/common/libsbml</text>
<text text-anchor="middle" x="62.5" y="-7.5" font-family="Helvetica,sans-Serif" font-size="10.00">&#45;namespace.h</text>
</a>
</g>
</g>
<!-- Node1&#45;&gt;Node2 -->
<g id="edge1" class="edge">
<title>Node1&#45;&gt;Node2</title>
<path fill="none" stroke="midnightblue" d="M82.34,-190.38C66.08,-183.34 46.21,-171.65 36.5,-154 16.49,-117.63 34.77,-68.56 49.15,-39.94"/>
<polygon fill="midnightblue" stroke="midnightblue" points="52.44,-41.21 54,-30.73 46.24,-37.95 52.44,-41.21"/>
</g>
<!-- Node3 -->
<g id="node3" class="node">
<title>Node3</title>
<g id="a_node3"><a xlink:title=" ">
<polygon fill="white" stroke="#bfbfbf" points="45,-123.5 45,-153.5 170,-153.5 170,-123.5 45,-123.5"/>
<text text-anchor="start" x="53" y="-141.5" font-family="Helvetica,sans-Serif" font-size="10.00">sbml/common/libsbml</text>
<text text-anchor="middle" x="107.5" y="-130.5" font-family="Helvetica,sans-Serif" font-size="10.00">&#45;config&#45;common.h</text>
</a>
</g>
</g>
<!-- Node1&#45;&gt;Node3 -->
<g id="edge2" class="edge">
<title>Node1&#45;&gt;Node3</title>
<path fill="none" stroke="midnightblue" d="M107.5,-190.48C107.5,-183.47 107.5,-173.19 107.5,-163.7"/>
<polygon fill="midnightblue" stroke="midnightblue" points="111,-163.52 107.5,-153.52 104,-163.52 111,-163.52"/>
</g>
<!-- Node4 -->
<g id="node4" class="node">
<title>Node4</title>
<g id="a_node4"><a xlink:href="libsbml-version_8h.html" target="_top" xlink:title="Define libSBML version numbers for access from client software.">
<polygon fill="white" stroke="black" points="188,-123.5 188,-153.5 313,-153.5 313,-123.5 188,-123.5"/>
<text text-anchor="start" x="196" y="-141.5" font-family="Helvetica,sans-Serif" font-size="10.00">sbml/common/libsbml</text>
<text text-anchor="middle" x="250.5" y="-130.5" font-family="Helvetica,sans-Serif" font-size="10.00">&#45;version.h</text>
</a>
</g>
</g>
<!-- Node1&#45;&gt;Node4 -->
<g id="edge3" class="edge">
<title>Node1&#45;&gt;Node4</title>
<path fill="none" stroke="midnightblue" d="M127.99,-190.48C148.62,-181.89 181.08,-168.38 207.41,-157.43"/>
<polygon fill="midnightblue" stroke="midnightblue" points="208.91,-160.6 216.8,-153.52 206.22,-154.13 208.91,-160.6"/>
</g>
<!-- Node5 -->
<g id="node5" class="node">
<title>Node5</title>
<g id="a_node5"><a xlink:href="extern_8h.html" target="_top" xlink:title="Definitions of LIBSBML_EXTERN and related things.">
<polygon fill="white" stroke="black" points="114.5,-67.5 114.5,-86.5 244.5,-86.5 244.5,-67.5 114.5,-67.5"/>
<text text-anchor="middle" x="179.5" y="-74.5" font-family="Helvetica,sans-Serif" font-size="10.00">sbml/common/extern.h</text>
</a>
</g>
</g>
<!-- Node4&#45;&gt;Node5 -->
<g id="edge4" class="edge">
<title>Node4&#45;&gt;Node5</title>
<path fill="none" stroke="midnightblue" d="M233.67,-123.4C222.83,-114.31 208.72,-102.49 197.63,-93.19"/>
<polygon fill="midnightblue" stroke="midnightblue" points="199.74,-90.4 189.83,-86.66 195.25,-95.76 199.74,-90.4"/>
</g>
<!-- Node5&#45;&gt;Node2 -->
<g id="edge5" class="edge">
<title>Node5&#45;&gt;Node2</title>
<path fill="none" stroke="midnightblue" d="M162.74,-67.48C146.22,-59.08 120.45,-45.97 99.18,-35.15"/>
<polygon fill="midnightblue" stroke="midnightblue" points="100.57,-31.94 90.07,-30.52 97.4,-38.18 100.57,-31.94"/>
</g>
</g>
</svg>
