<?xml version="1.0" encoding="UTF-8" standalone="no"?>
<!DOCTYPE svg PUBLIC "-//W3C//DTD SVG 1.1//EN"
 "http://www.w3.org/Graphics/SVG/1.1/DTD/svg11.dtd">
<!-- Generated by graphviz version 2.43.0 (0)
 -->
<!-- Title: operationReturnValues.cpp Pages: 1 -->
<svg width="248pt" height="218pt"
 viewBox="0.00 0.00 247.50 218.00" xmlns="http://www.w3.org/2000/svg" xmlns:xlink="http://www.w3.org/1999/xlink">
<g id="graph0" class="graph" transform="scale(1 1) rotate(0) translate(4 214)">
<title>operationReturnValues.cpp</title>
<polygon fill="white" stroke="transparent" points="-4,4 -4,-214 243.5,-214 243.5,4 -4,4"/>
<!-- Node1 -->
<g id="node1" class="node">
<title>Node1</title>
<g id="a_node1"><a xlink:title="Enumeration of values returned by operations within libSBML.">
<polygon fill="#bfbfbf" stroke="black" points="16.5,-190.5 16.5,-209.5 164.5,-209.5 164.5,-190.5 16.5,-190.5"/>
<text text-anchor="middle" x="90.5" y="-197.5" font-family="Helvetica,sans-Serif" font-size="10.00">operationReturnValues.cpp</text>
</a>
</g>
</g>
<!-- Node2 -->
<g id="node2" class="node">
<title>Node2</title>
<g id="a_node2"><a xlink:title=" ">
<polygon fill="white" stroke="#bfbfbf" points="0,-129 0,-148 53,-148 53,-129 0,-129"/>
<text text-anchor="middle" x="26.5" y="-136" font-family="Helvetica,sans-Serif" font-size="10.00">stdlib.h</text>
</a>
</g>
</g>
<!-- Node1&#45;&gt;Node2 -->
<g id="edge1" class="edge">
<title>Node1&#45;&gt;Node2</title>
<path fill="none" stroke="midnightblue" d="M81.33,-190.48C71.35,-181.2 55.19,-166.17 42.99,-154.83"/>
<polygon fill="midnightblue" stroke="midnightblue" points="45.36,-152.25 35.65,-148.01 40.59,-157.38 45.36,-152.25"/>
</g>
<!-- Node3 -->
<g id="node3" class="node">
<title>Node3</title>
<g id="a_node3"><a xlink:href="operation_return_values_8h.html" target="_top" xlink:title="Enumeration of values returned by operations within libSBML.">
<polygon fill="white" stroke="black" points="71.5,-123.5 71.5,-153.5 239.5,-153.5 239.5,-123.5 71.5,-123.5"/>
<text text-anchor="start" x="79.5" y="-141.5" font-family="Helvetica,sans-Serif" font-size="10.00">sbml/common/operationReturn</text>
<text text-anchor="middle" x="155.5" y="-130.5" font-family="Helvetica,sans-Serif" font-size="10.00">Values.h</text>
</a>
</g>
</g>
<!-- Node1&#45;&gt;Node3 -->
<g id="edge2" class="edge">
<title>Node1&#45;&gt;Node3</title>
<path fill="none" stroke="midnightblue" d="M99.81,-190.48C108.37,-182.64 121.4,-170.71 132.71,-160.37"/>
<polygon fill="midnightblue" stroke="midnightblue" points="135.17,-162.86 140.18,-153.52 130.44,-157.69 135.17,-162.86"/>
</g>
<!-- Node4 -->
<g id="node4" class="node">
<title>Node4</title>
<g id="a_node4"><a xlink:href="extern_8h.html" target="_top" xlink:title="Definitions of LIBSBML_EXTERN and related things.">
<polygon fill="white" stroke="black" points="90.5,-67.5 90.5,-86.5 220.5,-86.5 220.5,-67.5 90.5,-67.5"/>
<text text-anchor="middle" x="155.5" y="-74.5" font-family="Helvetica,sans-Serif" font-size="10.00">sbml/common/extern.h</text>
</a>
</g>
</g>
<!-- Node3&#45;&gt;Node4 -->
<g id="edge3" class="edge">
<title>Node3&#45;&gt;Node4</title>
<path fill="none" stroke="midnightblue" d="M155.5,-123.4C155.5,-115.47 155.5,-105.46 155.5,-96.86"/>
<polygon fill="midnightblue" stroke="midnightblue" points="159,-96.66 155.5,-86.66 152,-96.66 159,-96.66"/>
</g>
<!-- Node5 -->
<g id="node5" class="node">
<title>Node5</title>
<g id="a_node5"><a xlink:title=" ">
<polygon fill="white" stroke="#bfbfbf" points="93,-0.5 93,-30.5 218,-30.5 218,-0.5 93,-0.5"/>
<text text-anchor="start" x="101" y="-18.5" font-family="Helvetica,sans-Serif" font-size="10.00">sbml/common/libsbml</text>
<text text-anchor="middle" x="155.5" y="-7.5" font-family="Helvetica,sans-Serif" font-size="10.00">&#45;namespace.h</text>
</a>
</g>
</g>
<!-- Node4&#45;&gt;Node5 -->
<g id="edge4" class="edge">
<title>Node4&#45;&gt;Node5</title>
<path fill="none" stroke="midnightblue" d="M155.5,-67.48C155.5,-60.47 155.5,-50.19 155.5,-40.7"/>
<polygon fill="midnightblue" stroke="midnightblue" points="159,-40.52 155.5,-30.52 152,-40.52 159,-40.52"/>
</g>
</g>
</svg>
