<?xml version="1.0" encoding="UTF-8" standalone="no"?>
<!DOCTYPE svg PUBLIC "-//W3C//DTD SVG 1.1//EN"
 "http://www.w3.org/Graphics/SVG/1.1/DTD/svg11.dtd">
<!-- Generated by graphviz version 2.43.0 (0)
 -->
<!-- Title: sbmlfwd.h Pages: 1 -->
<svg width="367pt" height="285pt"
 viewBox="0.00 0.00 367.00 285.00" xmlns="http://www.w3.org/2000/svg" xmlns:xlink="http://www.w3.org/1999/xlink">
<g id="graph0" class="graph" transform="scale(1 1) rotate(0) translate(4 281)">
<title>sbmlfwd.h</title>
<polygon fill="white" stroke="transparent" points="-4,4 -4,-281 363,-281 363,4 -4,4"/>
<!-- Node1 -->
<g id="node1" class="node">
<title>Node1</title>
<g id="a_node1"><a xlink:title="Forward declarations for all opaque C types.">
<polygon fill="#bfbfbf" stroke="black" points="36,-257.5 36,-276.5 103,-276.5 103,-257.5 36,-257.5"/>
<text text-anchor="middle" x="69.5" y="-264.5" font-family="Helvetica,sans-Serif" font-size="10.00">sbmlfwd.h</text>
</a>
</g>
</g>
<!-- Node2 -->
<g id="node2" class="node">
<title>Node2</title>
<g id="a_node2"><a xlink:title=" ">
<polygon fill="white" stroke="#bfbfbf" points="0,-0.5 0,-30.5 125,-30.5 125,-0.5 0,-0.5"/>
<text text-anchor="start" x="8" y="-18.5" font-family="Helvetica,sans-Serif" font-size="10.00">sbml/common/libsbml</text>
<text text-anchor="middle" x="62.5" y="-7.5" font-family="Helvetica,sans-Serif" font-size="10.00">&#45;namespace.h</text>
</a>
</g>
</g>
<!-- Node1&#45;&gt;Node2 -->
<g id="edge1" class="edge">
<title>Node1&#45;&gt;Node2</title>
<path fill="none" stroke="midnightblue" d="M67.84,-257.41C66.17,-248.39 63.68,-233.75 62.5,-221 56.2,-152.82 55.79,-135.41 58.5,-67 58.84,-58.45 59.5,-49.09 60.19,-40.79"/>
<polygon fill="midnightblue" stroke="midnightblue" points="63.69,-40.9 61.08,-30.63 56.72,-40.29 63.69,-40.9"/>
</g>
<!-- Node3 -->
<g id="node3" class="node">
<title>Node3</title>
<g id="a_node3"><a xlink:href="libsbml-config_8h.html" target="_top" xlink:title="Decides whether to #include Unix or Windows configuration variables.">
<polygon fill="white" stroke="black" points="72,-190.5 72,-220.5 197,-220.5 197,-190.5 72,-190.5"/>
<text text-anchor="start" x="80" y="-208.5" font-family="Helvetica,sans-Serif" font-size="10.00">sbml/common/libsbml</text>
<text text-anchor="middle" x="134.5" y="-197.5" font-family="Helvetica,sans-Serif" font-size="10.00">&#45;config.h</text>
</a>
</g>
</g>
<!-- Node1&#45;&gt;Node3 -->
<g id="edge2" class="edge">
<title>Node1&#45;&gt;Node3</title>
<path fill="none" stroke="midnightblue" d="M78.81,-257.48C87.37,-249.64 100.4,-237.71 111.71,-227.37"/>
<polygon fill="midnightblue" stroke="midnightblue" points="114.17,-229.86 119.18,-220.52 109.44,-224.69 114.17,-229.86"/>
</g>
<!-- Node3&#45;&gt;Node2 -->
<g id="edge3" class="edge">
<title>Node3&#45;&gt;Node2</title>
<path fill="none" stroke="midnightblue" d="M113.83,-190.32C102.37,-181.3 88.98,-168.59 81.5,-154 62.97,-117.84 60.61,-69.66 61.15,-40.98"/>
<polygon fill="midnightblue" stroke="midnightblue" points="64.66,-40.78 61.49,-30.67 57.67,-40.55 64.66,-40.78"/>
</g>
<!-- Node4 -->
<g id="node4" class="node">
<title>Node4</title>
<g id="a_node4"><a xlink:title=" ">
<polygon fill="white" stroke="#bfbfbf" points="91,-123.5 91,-153.5 216,-153.5 216,-123.5 91,-123.5"/>
<text text-anchor="start" x="99" y="-141.5" font-family="Helvetica,sans-Serif" font-size="10.00">sbml/common/libsbml</text>
<text text-anchor="middle" x="153.5" y="-130.5" font-family="Helvetica,sans-Serif" font-size="10.00">&#45;config&#45;common.h</text>
</a>
</g>
</g>
<!-- Node3&#45;&gt;Node4 -->
<g id="edge4" class="edge">
<title>Node3&#45;&gt;Node4</title>
<path fill="none" stroke="midnightblue" d="M138.62,-190.4C140.94,-182.47 143.89,-172.38 146.55,-163.27"/>
<polygon fill="midnightblue" stroke="midnightblue" points="149.94,-164.16 149.39,-153.58 143.22,-162.19 149.94,-164.16"/>
</g>
<!-- Node5 -->
<g id="node5" class="node">
<title>Node5</title>
<g id="a_node5"><a xlink:href="libsbml-version_8h.html" target="_top" xlink:title="Define libSBML version numbers for access from client software.">
<polygon fill="white" stroke="black" points="234,-123.5 234,-153.5 359,-153.5 359,-123.5 234,-123.5"/>
<text text-anchor="start" x="242" y="-141.5" font-family="Helvetica,sans-Serif" font-size="10.00">sbml/common/libsbml</text>
<text text-anchor="middle" x="296.5" y="-130.5" font-family="Helvetica,sans-Serif" font-size="10.00">&#45;version.h</text>
</a>
</g>
</g>
<!-- Node3&#45;&gt;Node5 -->
<g id="edge5" class="edge">
<title>Node3&#45;&gt;Node5</title>
<path fill="none" stroke="midnightblue" d="M169.65,-190.4C193.75,-180.73 225.91,-167.82 251.82,-157.43"/>
<polygon fill="midnightblue" stroke="midnightblue" points="253.44,-160.55 261.42,-153.58 250.83,-154.05 253.44,-160.55"/>
</g>
<!-- Node6 -->
<g id="node6" class="node">
<title>Node6</title>
<g id="a_node6"><a xlink:href="extern_8h.html" target="_top" xlink:title="Definitions of LIBSBML_EXTERN and related things.">
<polygon fill="white" stroke="black" points="160.5,-67.5 160.5,-86.5 290.5,-86.5 290.5,-67.5 160.5,-67.5"/>
<text text-anchor="middle" x="225.5" y="-74.5" font-family="Helvetica,sans-Serif" font-size="10.00">sbml/common/extern.h</text>
</a>
</g>
</g>
<!-- Node5&#45;&gt;Node6 -->
<g id="edge6" class="edge">
<title>Node5&#45;&gt;Node6</title>
<path fill="none" stroke="midnightblue" d="M279.67,-123.4C268.83,-114.31 254.72,-102.49 243.63,-93.19"/>
<polygon fill="midnightblue" stroke="midnightblue" points="245.74,-90.4 235.83,-86.66 241.25,-95.76 245.74,-90.4"/>
</g>
<!-- Node6&#45;&gt;Node2 -->
<g id="edge7" class="edge">
<title>Node6&#45;&gt;Node2</title>
<path fill="none" stroke="midnightblue" d="M202.15,-67.48C178.32,-58.78 140.65,-45.03 110.44,-34"/>
<polygon fill="midnightblue" stroke="midnightblue" points="111.51,-30.66 100.92,-30.52 109.11,-37.24 111.51,-30.66"/>
</g>
</g>
</svg>
