<?xml version="1.0" encoding="UTF-8" standalone="no"?>
<!DOCTYPE svg PUBLIC "-//W3C//DTD SVG 1.1//EN"
 "http://www.w3.org/Graphics/SVG/1.1/DTD/svg11.dtd">
<!-- Generated by graphviz version 2.43.0 (0)
 -->
<!-- Title: util.cpp Pages: 1 -->
<svg width="824pt" height="352pt"
 viewBox="0.00 0.00 824.00 352.00" xmlns="http://www.w3.org/2000/svg" xmlns:xlink="http://www.w3.org/1999/xlink">
<g id="graph0" class="graph" transform="scale(1 1) rotate(0) translate(4 348)">
<title>util.cpp</title>
<polygon fill="white" stroke="transparent" points="-4,4 -4,-348 820,-348 820,4 -4,4"/>
<!-- Node1 -->
<g id="node1" class="node">
<title>Node1</title>
<g id="a_node1"><a xlink:title="Utility functions.">
<polygon fill="#bfbfbf" stroke="black" points="361,-324.5 361,-343.5 414,-343.5 414,-324.5 361,-324.5"/>
<text text-anchor="middle" x="387.5" y="-331.5" font-family="Helvetica,sans-Serif" font-size="10.00">util.cpp</text>
</a>
</g>
</g>
<!-- Node2 -->
<g id="node2" class="node">
<title>Node2</title>
<g id="a_node2"><a xlink:title=" ">
<polygon fill="white" stroke="#bfbfbf" points="0,-263 0,-282 53,-282 53,-263 0,-263"/>
<text text-anchor="middle" x="26.5" y="-270" font-family="Helvetica,sans-Serif" font-size="10.00">ctype.h</text>
</a>
</g>
</g>
<!-- Node1&#45;&gt;Node2 -->
<g id="edge1" class="edge">
<title>Node1&#45;&gt;Node2</title>
<path fill="none" stroke="midnightblue" d="M360.84,-331.63C304.62,-328.23 170.13,-317.48 61.5,-288 59.06,-287.34 56.56,-286.55 54.07,-285.68"/>
<polygon fill="midnightblue" stroke="midnightblue" points="55.31,-282.4 44.72,-282.08 52.79,-288.94 55.31,-282.4"/>
</g>
<!-- Node3 -->
<g id="node3" class="node">
<title>Node3</title>
<g id="a_node3"><a xlink:title=" ">
<polygon fill="white" stroke="#bfbfbf" points="71,-263 71,-282 126,-282 126,-263 71,-263"/>
<text text-anchor="middle" x="98.5" y="-270" font-family="Helvetica,sans-Serif" font-size="10.00">locale.h</text>
</a>
</g>
</g>
<!-- Node1&#45;&gt;Node3 -->
<g id="edge2" class="edge">
<title>Node1&#45;&gt;Node3</title>
<path fill="none" stroke="midnightblue" d="M361,-330.01C314.65,-324.4 216.12,-310.76 135.5,-288 132.91,-287.27 130.26,-286.43 127.61,-285.52"/>
<polygon fill="midnightblue" stroke="midnightblue" points="128.82,-282.23 118.22,-282.06 126.4,-288.8 128.82,-282.23"/>
</g>
<!-- Node4 -->
<g id="node4" class="node">
<title>Node4</title>
<g id="a_node4"><a xlink:title=" ">
<polygon fill="white" stroke="#bfbfbf" points="144.5,-263 144.5,-282 208.5,-282 208.5,-263 144.5,-263"/>
<text text-anchor="middle" x="176.5" y="-270" font-family="Helvetica,sans-Serif" font-size="10.00">sys/stat.h</text>
</a>
</g>
</g>
<!-- Node1&#45;&gt;Node4 -->
<g id="edge3" class="edge">
<title>Node1&#45;&gt;Node4</title>
<path fill="none" stroke="midnightblue" d="M360.81,-326.65C327.17,-318.48 267.68,-303.49 217.5,-288 214.88,-287.19 212.19,-286.32 209.49,-285.43"/>
<polygon fill="midnightblue" stroke="midnightblue" points="210.4,-282.04 199.81,-282.11 208.13,-288.66 210.4,-282.04"/>
</g>
<!-- Node5 -->
<g id="node5" class="node">
<title>Node5</title>
<g id="a_node5"><a xlink:title=" ">
<polygon fill="white" stroke="#bfbfbf" points="226.5,-263 226.5,-282 298.5,-282 298.5,-263 226.5,-263"/>
<text text-anchor="middle" x="262.5" y="-270" font-family="Helvetica,sans-Serif" font-size="10.00">sys/types.h</text>
</a>
</g>
</g>
<!-- Node1&#45;&gt;Node5 -->
<g id="edge4" class="edge">
<title>Node1&#45;&gt;Node5</title>
<path fill="none" stroke="midnightblue" d="M369.59,-324.48C348.61,-314.49 313.65,-297.85 289.41,-286.31"/>
<polygon fill="midnightblue" stroke="midnightblue" points="290.91,-283.15 280.38,-282.01 287.9,-289.47 290.91,-283.15"/>
</g>
<!-- Node6 -->
<g id="node6" class="node">
<title>Node6</title>
<g id="a_node6"><a xlink:href="common_8h.html" target="_top" xlink:title="Common functions and macros for C and C++.">
<polygon fill="white" stroke="black" points="317,-263 317,-282 458,-282 458,-263 317,-263"/>
<text text-anchor="middle" x="387.5" y="-270" font-family="Helvetica,sans-Serif" font-size="10.00">sbml/common/common.h</text>
</a>
</g>
</g>
<!-- Node1&#45;&gt;Node6 -->
<g id="edge5" class="edge">
<title>Node1&#45;&gt;Node6</title>
<path fill="none" stroke="midnightblue" d="M387.5,-324.48C387.5,-316.08 387.5,-302.98 387.5,-292.16"/>
<polygon fill="midnightblue" stroke="midnightblue" points="391,-292.01 387.5,-282.01 384,-292.01 391,-292.01"/>
</g>
<!-- Node14 -->
<g id="node14" class="node">
<title>Node14</title>
<g id="a_node14"><a xlink:href="util_8h.html" target="_top" xlink:title="Utility functions.">
<polygon fill="white" stroke="black" points="538,-196 538,-215 625,-215 625,-196 538,-196"/>
<text text-anchor="middle" x="581.5" y="-203" font-family="Helvetica,sans-Serif" font-size="10.00">sbml/util/util.h</text>
</a>
</g>
</g>
<!-- Node1&#45;&gt;Node14 -->
<g id="edge23" class="edge">
<title>Node1&#45;&gt;Node14</title>
<path fill="none" stroke="midnightblue" d="M404.29,-324.41C420.59,-315.84 445.84,-301.97 466.5,-288 484.84,-275.59 487.6,-270.03 505.5,-257 523.11,-244.19 543.72,-230.57 559.03,-220.71"/>
<polygon fill="midnightblue" stroke="midnightblue" points="561.27,-223.44 567.81,-215.1 557.5,-217.54 561.27,-223.44"/>
</g>
<!-- Node16 -->
<g id="node16" class="node">
<title>Node16</title>
<g id="a_node16"><a xlink:title=" ">
<polygon fill="white" stroke="#bfbfbf" points="515,-257.5 515,-287.5 640,-287.5 640,-257.5 515,-257.5"/>
<text text-anchor="start" x="523" y="-275.5" font-family="Helvetica,sans-Serif" font-size="10.00">sbml/common/libsbml</text>
<text text-anchor="middle" x="577.5" y="-264.5" font-family="Helvetica,sans-Serif" font-size="10.00">&#45;package.h</text>
</a>
</g>
</g>
<!-- Node1&#45;&gt;Node16 -->
<g id="edge19" class="edge">
<title>Node1&#45;&gt;Node16</title>
<path fill="none" stroke="midnightblue" d="M414.32,-324.6C442.37,-315.82 487.18,-301.78 522.75,-290.64"/>
<polygon fill="midnightblue" stroke="midnightblue" points="524.02,-293.91 532.52,-287.59 521.93,-287.23 524.02,-293.91"/>
</g>
<!-- Node17 -->
<g id="node17" class="node">
<title>Node17</title>
<g id="a_node17"><a xlink:href="_list_8h.html" target="_top" xlink:title="Simple, generic list utility class.">
<polygon fill="white" stroke="black" points="658,-263 658,-282 747,-282 747,-263 658,-263"/>
<text text-anchor="middle" x="702.5" y="-270" font-family="Helvetica,sans-Serif" font-size="10.00">sbml/util/List.h</text>
</a>
</g>
</g>
<!-- Node1&#45;&gt;Node17 -->
<g id="edge20" class="edge">
<title>Node1&#45;&gt;Node17</title>
<path fill="none" stroke="midnightblue" d="M414.33,-329.2C461.81,-322.3 563.63,-306.67 648.5,-288 653.17,-286.97 658.05,-285.8 662.87,-284.58"/>
<polygon fill="midnightblue" stroke="midnightblue" points="663.83,-287.95 672.63,-282.04 662.07,-281.18 663.83,-287.95"/>
</g>
<!-- Node19 -->
<g id="node19" class="node">
<title>Node19</title>
<g id="a_node19"><a xlink:title=" ">
<polygon fill="white" stroke="#bfbfbf" points="765,-263 765,-282 816,-282 816,-263 765,-263"/>
<text text-anchor="middle" x="790.5" y="-270" font-family="Helvetica,sans-Serif" font-size="10.00">math.h</text>
</a>
</g>
</g>
<!-- Node1&#45;&gt;Node19 -->
<g id="edge24" class="edge">
<title>Node1&#45;&gt;Node19</title>
<path fill="none" stroke="midnightblue" d="M414.39,-332.3C475.97,-330.15 631.53,-321.54 756.5,-288 758.8,-287.38 761.15,-286.64 763.48,-285.82"/>
<polygon fill="midnightblue" stroke="midnightblue" points="764.81,-289.06 772.84,-282.15 762.25,-282.54 764.81,-289.06"/>
</g>
<!-- Node7 -->
<g id="node7" class="node">
<title>Node7</title>
<g id="a_node7"><a xlink:href="libsbml-config_8h.html" target="_top" xlink:title="Decides whether to #include Unix or Windows configuration variables.">
<polygon fill="white" stroke="black" points="118,-190.5 118,-220.5 243,-220.5 243,-190.5 118,-190.5"/>
<text text-anchor="start" x="126" y="-208.5" font-family="Helvetica,sans-Serif" font-size="10.00">sbml/common/libsbml</text>
<text text-anchor="middle" x="180.5" y="-197.5" font-family="Helvetica,sans-Serif" font-size="10.00">&#45;config.h</text>
</a>
</g>
</g>
<!-- Node6&#45;&gt;Node7 -->
<g id="edge6" class="edge">
<title>Node6&#45;&gt;Node7</title>
<path fill="none" stroke="midnightblue" d="M360.01,-262.87C328.21,-252.88 275.07,-236.2 234.84,-223.56"/>
<polygon fill="midnightblue" stroke="midnightblue" points="235.76,-220.18 225.17,-220.53 233.67,-226.86 235.76,-220.18"/>
</g>
<!-- Node11 -->
<g id="node11" class="node">
<title>Node11</title>
<g id="a_node11"><a xlink:href="extern_8h.html" target="_top" xlink:title="Definitions of LIBSBML_EXTERN and related things.">
<polygon fill="white" stroke="black" points="277.5,-67.5 277.5,-86.5 407.5,-86.5 407.5,-67.5 277.5,-67.5"/>
<text text-anchor="middle" x="342.5" y="-74.5" font-family="Helvetica,sans-Serif" font-size="10.00">sbml/common/extern.h</text>
</a>
</g>
</g>
<!-- Node6&#45;&gt;Node11 -->
<g id="edge13" class="edge">
<title>Node6&#45;&gt;Node11</title>
<path fill="none" stroke="midnightblue" d="M385.51,-262.94C378.72,-233.72 356.35,-137.56 346.84,-96.67"/>
<polygon fill="midnightblue" stroke="midnightblue" points="350.25,-95.85 344.57,-86.91 343.43,-97.44 350.25,-95.85"/>
</g>
<!-- Node12 -->
<g id="node12" class="node">
<title>Node12</title>
<g id="a_node12"><a xlink:title=" ">
<polygon fill="white" stroke="#bfbfbf" points="390.5,-129 390.5,-148 440.5,-148 440.5,-129 390.5,-129"/>
<text text-anchor="middle" x="415.5" y="-136" font-family="Helvetica,sans-Serif" font-size="10.00">stdio.h</text>
</a>
</g>
</g>
<!-- Node6&#45;&gt;Node12 -->
<g id="edge12" class="edge">
<title>Node6&#45;&gt;Node12</title>
<path fill="none" stroke="midnightblue" d="M388.31,-262.85C389.82,-247.87 393.46,-216.2 399.5,-190 401.99,-179.19 405.69,-167.36 408.9,-157.86"/>
<polygon fill="midnightblue" stroke="midnightblue" points="412.24,-158.91 412.23,-148.32 405.63,-156.61 412.24,-158.91"/>
</g>
<!-- Node13 -->
<g id="node13" class="node">
<title>Node13</title>
<g id="a_node13"><a xlink:href="memory_8h.html" target="_top" xlink:title=" ">
<polygon fill="white" stroke="black" points="409,-196 409,-215 520,-215 520,-196 409,-196"/>
<text text-anchor="middle" x="464.5" y="-203" font-family="Helvetica,sans-Serif" font-size="10.00">sbml/util/memory.h</text>
</a>
</g>
</g>
<!-- Node6&#45;&gt;Node13 -->
<g id="edge14" class="edge">
<title>Node6&#45;&gt;Node13</title>
<path fill="none" stroke="midnightblue" d="M397.88,-262.73C410.35,-252.21 431.47,-234.38 446.59,-221.62"/>
<polygon fill="midnightblue" stroke="midnightblue" points="448.9,-224.25 454.28,-215.13 444.38,-218.9 448.9,-224.25"/>
</g>
<!-- Node6&#45;&gt;Node14 -->
<g id="edge15" class="edge">
<title>Node6&#45;&gt;Node14</title>
<path fill="none" stroke="midnightblue" d="M413.26,-262.87C447.42,-251.42 507.84,-231.18 546.21,-218.32"/>
<polygon fill="midnightblue" stroke="midnightblue" points="547.57,-221.56 555.94,-215.06 545.35,-214.92 547.57,-221.56"/>
</g>
<!-- Node8 -->
<g id="node8" class="node">
<title>Node8</title>
<g id="a_node8"><a xlink:title=" ">
<polygon fill="white" stroke="#bfbfbf" points="117,-0.5 117,-30.5 242,-30.5 242,-0.5 117,-0.5"/>
<text text-anchor="start" x="125" y="-18.5" font-family="Helvetica,sans-Serif" font-size="10.00">sbml/common/libsbml</text>
<text text-anchor="middle" x="179.5" y="-7.5" font-family="Helvetica,sans-Serif" font-size="10.00">&#45;namespace.h</text>
</a>
</g>
</g>
<!-- Node7&#45;&gt;Node8 -->
<g id="edge7" class="edge">
<title>Node7&#45;&gt;Node8</title>
<path fill="none" stroke="midnightblue" d="M117.7,-198.92C87.95,-192.76 54.96,-180.04 36.5,-154 1.83,-105.1 80.4,-59.13 134.26,-34.72"/>
<polygon fill="midnightblue" stroke="midnightblue" points="135.94,-37.8 143.67,-30.56 133.1,-31.4 135.94,-37.8"/>
</g>
<!-- Node9 -->
<g id="node9" class="node">
<title>Node9</title>
<g id="a_node9"><a xlink:title=" ">
<polygon fill="white" stroke="#bfbfbf" points="46,-123.5 46,-153.5 171,-153.5 171,-123.5 46,-123.5"/>
<text text-anchor="start" x="54" y="-141.5" font-family="Helvetica,sans-Serif" font-size="10.00">sbml/common/libsbml</text>
<text text-anchor="middle" x="108.5" y="-130.5" font-family="Helvetica,sans-Serif" font-size="10.00">&#45;config&#45;common.h</text>
</a>
</g>
</g>
<!-- Node7&#45;&gt;Node9 -->
<g id="edge8" class="edge">
<title>Node7&#45;&gt;Node9</title>
<path fill="none" stroke="midnightblue" d="M164.88,-190.4C155.16,-181.62 142.49,-170.18 131.62,-160.37"/>
<polygon fill="midnightblue" stroke="midnightblue" points="133.86,-157.68 124.09,-153.58 129.17,-162.88 133.86,-157.68"/>
</g>
<!-- Node10 -->
<g id="node10" class="node">
<title>Node10</title>
<g id="a_node10"><a xlink:href="libsbml-version_8h.html" target="_top" xlink:title="Define libSBML version numbers for access from client software.">
<polygon fill="white" stroke="black" points="189,-123.5 189,-153.5 314,-153.5 314,-123.5 189,-123.5"/>
<text text-anchor="start" x="197" y="-141.5" font-family="Helvetica,sans-Serif" font-size="10.00">sbml/common/libsbml</text>
<text text-anchor="middle" x="251.5" y="-130.5" font-family="Helvetica,sans-Serif" font-size="10.00">&#45;version.h</text>
</a>
</g>
</g>
<!-- Node7&#45;&gt;Node10 -->
<g id="edge9" class="edge">
<title>Node7&#45;&gt;Node10</title>
<path fill="none" stroke="midnightblue" d="M195.91,-190.4C205.49,-181.62 217.99,-170.18 228.7,-160.37"/>
<polygon fill="midnightblue" stroke="midnightblue" points="231.11,-162.91 236.12,-153.58 226.38,-157.75 231.11,-162.91"/>
</g>
<!-- Node10&#45;&gt;Node11 -->
<g id="edge10" class="edge">
<title>Node10&#45;&gt;Node11</title>
<path fill="none" stroke="midnightblue" d="M273.07,-123.4C287.38,-114.04 306.11,-101.79 320.51,-92.38"/>
<polygon fill="midnightblue" stroke="midnightblue" points="322.8,-95.06 329.26,-86.66 318.97,-89.2 322.8,-95.06"/>
</g>
<!-- Node11&#45;&gt;Node8 -->
<g id="edge11" class="edge">
<title>Node11&#45;&gt;Node8</title>
<path fill="none" stroke="midnightblue" d="M319.15,-67.48C295.32,-58.78 257.65,-45.03 227.44,-34"/>
<polygon fill="midnightblue" stroke="midnightblue" points="228.51,-30.66 217.92,-30.52 226.11,-37.24 228.51,-30.66"/>
</g>
<!-- Node14&#45;&gt;Node11 -->
<g id="edge18" class="edge">
<title>Node14&#45;&gt;Node11</title>
<path fill="none" stroke="midnightblue" d="M569.14,-195.96C546.2,-180.33 495.23,-146.55 449.5,-123 425.26,-110.52 396.76,-98.66 375.27,-90.25"/>
<polygon fill="midnightblue" stroke="midnightblue" points="376.52,-86.99 365.93,-86.65 374,-93.51 376.52,-86.99"/>
</g>
<!-- Node14&#45;&gt;Node12 -->
<g id="edge16" class="edge">
<title>Node14&#45;&gt;Node12</title>
<path fill="none" stroke="midnightblue" d="M559.46,-195.87C530.6,-184.57 479.85,-164.7 446.96,-151.82"/>
<polygon fill="midnightblue" stroke="midnightblue" points="447.96,-148.45 437.37,-148.06 445.41,-154.97 447.96,-148.45"/>
</g>
<!-- Node15 -->
<g id="node15" class="node">
<title>Node15</title>
<g id="a_node15"><a xlink:title=" ">
<polygon fill="white" stroke="#bfbfbf" points="553.5,-129 553.5,-148 609.5,-148 609.5,-129 553.5,-129"/>
<text text-anchor="middle" x="581.5" y="-136" font-family="Helvetica,sans-Serif" font-size="10.00">stdarg.h</text>
</a>
</g>
</g>
<!-- Node14&#45;&gt;Node15 -->
<g id="edge17" class="edge">
<title>Node14&#45;&gt;Node15</title>
<path fill="none" stroke="midnightblue" d="M581.5,-195.73C581.5,-186.18 581.5,-170.62 581.5,-158.28"/>
<polygon fill="midnightblue" stroke="midnightblue" points="585,-158.13 581.5,-148.13 578,-158.13 585,-158.13"/>
</g>
<!-- Node17&#45;&gt;Node11 -->
<g id="edge21" class="edge">
<title>Node17&#45;&gt;Node11</title>
<path fill="none" stroke="midnightblue" d="M697.55,-262.94C691.75,-252.9 681.89,-235.77 673.5,-221 648.84,-177.57 659.42,-151.63 618.5,-123 586.89,-100.88 488.15,-88.88 417.81,-82.96"/>
<polygon fill="midnightblue" stroke="midnightblue" points="417.91,-79.46 407.65,-82.13 417.34,-86.44 417.91,-79.46"/>
</g>
<!-- Node18 -->
<g id="node18" class="node">
<title>Node18</title>
<g id="a_node18"><a xlink:title=" ">
<polygon fill="white" stroke="#bfbfbf" points="682,-196 682,-215 735,-215 735,-196 682,-196"/>
<text text-anchor="middle" x="708.5" y="-203" font-family="Helvetica,sans-Serif" font-size="10.00">string.h</text>
</a>
</g>
</g>
<!-- Node17&#45;&gt;Node18 -->
<g id="edge22" class="edge">
<title>Node17&#45;&gt;Node18</title>
<path fill="none" stroke="midnightblue" d="M703.31,-262.73C704.19,-253.18 705.63,-237.62 706.77,-225.28"/>
<polygon fill="midnightblue" stroke="midnightblue" points="710.27,-225.41 707.7,-215.13 703.3,-224.76 710.27,-225.41"/>
</g>
</g>
</svg>
